<?xml version="1.0" encoding="utf-8"?>
<!-- Generator: Adobe Illustrator 22.1.0, SVG Export Plug-In . SVG Version: 6.00 Build 0)  -->
<svg version="1.1" xmlns="http://www.w3.org/2000/svg" xmlns:xlink="http://www.w3.org/1999/xlink" x="0px" y="0px"
	 viewBox="0 0 990.1 866.1" style="enable-background:new 0 0 990.1 866.1;" xml:space="preserve">
<style type="text/css">
	.st0{fill:#2D3CFE;}
	.st1{fill:#FF1E00;}
</style>
<g id="background">
	<g id="background_1_">
		<path d="M911.4,230.5c-9.6,0-19.7-7.3-30-21.9c-0.2-0.3-0.2-0.8,0.2-1c0.3-0.2,0.8-0.2,1,0.2c10.4,14.6,20.4,21.7,29.7,21.2
			c7.6-0.4,12.9-5.6,18.4-11c5.6-5.5,11.4-11.2,19.8-11.6c9.3-0.5,19.1,5.8,28.8,18.6c0.3,0.3,0.2,0.8-0.1,1.1
			c-0.3,0.3-0.8,0.2-1.1-0.1c-9.5-12.4-18.7-18.4-27.6-18c-7.8,0.4-13.2,5.6-18.8,11.2c-5.5,5.4-11.2,11-19.4,11.5
			C912.1,230.5,911.8,230.5,911.4,230.5z"/>
		<path d="M101.6,812.7c-11,0-22.6-8.4-34.5-25.1c-0.2-0.3-0.2-0.8,0.2-1c0.3-0.2,0.8-0.2,1,0.2c12,16.8,23.5,25,34.3,24.4
			c8.8-0.5,14.8-6.4,21.3-12.8c6.4-6.3,13.1-12.9,22.7-13.4c10.7-0.5,21.9,6.6,33.1,21.3c0.3,0.3,0.2,0.8-0.1,1.1
			c-0.3,0.2-0.8,0.2-1.1-0.1c-10.9-14.3-21.6-21.2-31.8-20.7c-9.1,0.4-15.2,6.5-21.7,12.9c-6.3,6.2-12.9,12.7-22.2,13.2
			C102.3,812.7,102,812.7,101.6,812.7z"/>
		<path d="M26.8,61.1c-8.5,0-17.5-6.5-26.7-19.4c-0.2-0.3-0.2-0.8,0.2-1c0.3-0.2,0.8-0.2,1,0.2c9.2,12.9,18,19.2,26.3,18.7
			c6.7-0.4,11.3-4.9,16.2-9.8c5-4.9,10.1-9.9,17.6-10.3c8.3-0.4,16.9,5.1,25.6,16.5c0.3,0.3,0.2,0.8-0.1,1.1
			c-0.3,0.3-0.8,0.2-1.1-0.1C77.5,45.9,69.3,40.6,61.5,41c-6.9,0.3-11.6,5-16.6,9.9C40,55.7,35,60.6,27.7,61
			C27.4,61,27.1,61.1,26.8,61.1z"/>
		<rect x="56.3" y="212.5" transform="matrix(0.866 0.5 -0.5 0.866 121.0333 -3.8497)" class="st0" width="22.8" height="22.8"/>
		
			<rect x="834.9" y="761.4" transform="matrix(0.742 0.6704 -0.6704 0.742 733.6379 -366.746)" class="st0" width="17" height="17"/>
		<path d="M316.7,20.2c-0.1,0-0.2,0-0.3,0c-0.4-0.1-0.6-0.6-0.4-1l7.1-18.7c0.1-0.4,0.6-0.6,1-0.4c0.4,0.1,0.6,0.6,0.4,1l-7.1,18.7
			C317.3,20,317.1,20.2,316.7,20.2z"/>
		<path d="M203.8,351.6c-0.1,0-0.2,0-0.4-0.1l-17.6-9.6c-0.4-0.2-0.5-0.7-0.3-1c0.2-0.4,0.7-0.5,1-0.3l17.6,9.6
			c0.4,0.2,0.5,0.7,0.3,1C204.3,351.4,204.1,351.6,203.8,351.6z"/>
		<path d="M46.3,524c-0.1,0-0.3,0-0.4-0.1c-0.4-0.2-0.5-0.7-0.3-1l9.9-17.4c0.2-0.4,0.7-0.5,1-0.3c0.4,0.2,0.5,0.7,0.3,1L47,523.6
			C46.8,523.8,46.6,524,46.3,524z"/>
		<path d="M135.5,679.2c-0.2,0-0.4-0.1-0.6-0.3c-0.3-0.3-0.2-0.8,0.1-1.1l15.8-12.3c0.3-0.3,0.8-0.2,1.1,0.1
			c0.3,0.3,0.2,0.8-0.1,1.1L136,679C135.9,679.1,135.7,679.2,135.5,679.2z"/>
		<path d="M808.4,113.2c-0.1,0-0.2,0-0.4-0.1c-0.4-0.2-0.5-0.7-0.3-1l9.5-17.6c0.2-0.4,0.7-0.5,1-0.3c0.4,0.2,0.5,0.7,0.3,1
			l-9.5,17.6C809,113,808.7,113.2,808.4,113.2z"/>
		<path d="M989.3,49.3c-0.2,0-0.5-0.1-0.6-0.3l-11-16.7c-0.2-0.3-0.1-0.8,0.2-1c0.3-0.2,0.8-0.1,1,0.2l11,16.7
			c0.2,0.3,0.1,0.8-0.2,1C989.6,49.3,989.5,49.3,989.3,49.3z"/>
		<path d="M187.3,147.4c-0.3,0-0.5-0.1-0.6-0.4L176.1,130c-0.2-0.4-0.1-0.8,0.2-1c0.4-0.2,0.8-0.1,1,0.2l10.5,17.1
			c0.2,0.4,0.1,0.8-0.2,1C187.5,147.4,187.4,147.4,187.3,147.4z"/>
		<path d="M718.9,422.2c-0.2,0-0.5-0.1-0.6-0.3l-12-16.1c-0.2-0.3-0.2-0.8,0.2-1c0.3-0.2,0.8-0.2,1,0.2l12,16.1
			c0.2,0.3,0.2,0.8-0.2,1C719.2,422.1,719.1,422.2,718.9,422.2z"/>
		<path d="M876.8,586.6c-0.1,0-0.1,0-0.2,0c-0.4-0.1-0.7-0.5-0.6-0.9l4.6-19.5c0.1-0.4,0.5-0.7,0.9-0.6c0.4,0.1,0.7,0.5,0.6,0.9
			l-4.6,19.5C877.5,586.3,877.1,586.6,876.8,586.6z"/>
		<path d="M978.3,811.2c-0.3,0-0.6-0.2-0.7-0.5l-6.2-19c-0.1-0.4,0.1-0.8,0.5-0.9s0.8,0.1,0.9,0.5l6.2,19c0.1,0.4-0.1,0.8-0.5,0.9
			C978.5,811.2,978.4,811.2,978.3,811.2z"/>
		<path d="M972.1,459.9c-2.1,0-4.1-0.9-5.5-2.6c-1.2-1.5-1.8-3.3-1.6-5.2c0.2-1.9,1.1-3.6,2.6-4.8c1.5-1.2,3.3-1.8,5.2-1.6
			c1.9,0.2,3.6,1.1,4.8,2.6c2.5,3,2,7.5-1,10C975.3,459.3,973.7,459.9,972.1,459.9z M972.1,447.1c-1.3,0-2.5,0.4-3.5,1.3
			c-1.2,0.9-1.9,2.3-2,3.8s0.3,3,1.2,4.1c2,2.4,5.5,2.8,7.9,0.8c2.4-2,2.8-5.5,0.8-7.9c-0.9-1.2-2.3-1.9-3.8-2
			C972.5,447.1,972.3,447.1,972.1,447.1z"/>
		<path d="M589,54.2c-0.2,0-0.4,0-0.6,0c-3.1-0.3-5.3-3.1-5-6.1c0.3-3.1,3.1-5.3,6.1-5c1.5,0.2,2.8,0.9,3.8,2
			c0.9,1.2,1.4,2.6,1.2,4.1l0,0C594.3,52,591.8,54.2,589,54.2z M589,44.5c-2.1,0-3.9,1.6-4.1,3.7c-0.2,2.2,1.4,4.3,3.7,4.5
			c2.2,0.2,4.3-1.4,4.5-3.7c0.1-1.1-0.2-2.2-0.9-3c-0.7-0.8-1.7-1.4-2.8-1.5C589.3,44.5,589.1,44.5,589,44.5z M593.8,49L593.8,49
			L593.8,49z"/>
		<circle class="st0" cx="808.4" cy="296.1" r="9.9"/>
		<path d="M228.7,524.7c-0.6,0-1.2-0.1-1.8-0.2c-2.7-0.5-5-2-6.6-4.2c-1.6-2.2-2.2-5-1.7-7.7l0,0c1-5.6,6.3-9.3,11.9-8.3
			c2.7,0.5,5,2,6.6,4.2s2.2,5,1.7,7.7C237.9,521.2,233.6,524.7,228.7,524.7z M220.1,513c-0.4,2.3,0.1,4.6,1.4,6.5
			c1.3,1.9,3.3,3.2,5.6,3.6c4.7,0.8,9.3-2.3,10.1-7.1c0.4-2.3-0.1-4.6-1.4-6.5c-1.3-1.9-3.3-3.2-5.6-3.6
			C225.5,505.1,221,508.2,220.1,513L220.1,513z"/>
	</g>
</g>
<g id="general_1_">
	<g id="general_2_">
		<g id="man_1_">
			<path id="shoe_1_" d="M399.4,826.4c-6.3,0-15-0.1-25.5-0.7c-9.5-0.6-18.1-1.1-25.9-2.6c-16.1-2.9-22.5-8.2-56.5-25.3
				c-10.3-5.1-18.7-9.2-24.3-11.8c3-7.7,6.1-15.4,9.2-23.1c3.4-8.6,6.8-17.1,10.3-25.7c18.4,5.1,36.9,10.1,55.3,15.2
				c-1.8,9.9-3.9,21.9-4.3,25.8c4.2,2.8,10.7,6.6,19.2,9.5c15.9,5.4,23.8,2.5,31.4,7.8C393.7,799.3,399.2,807.3,399.4,826.4z"/>
			<path d="M483.6,160.5c0,0-0.1,0-0.1,0c-5.6-1-9.7-6.2-9.5-11.9c0.1-1.5,0.4-2.9,0.9-4.2c0.1-0.2,0.2-0.4,0.3-0.6
				c0.6-1.3,1.5-2.4,2.6-3.4c2.3-2.1,5.2-3.1,8.3-3c4.1,0.1,7.9,2.5,9.8,6.1c0.7,1.2,1.1,2.5,1.3,3.9c0.1,0.4-0.2,0.8-0.6,0.8
				c-0.4,0.1-0.8-0.2-0.8-0.6c-0.2-1.2-0.6-2.4-1.1-3.4c-1.7-3.2-5-5.2-8.6-5.3c-2.7-0.1-5.2,0.8-7.2,2.6c-0.9,0.9-1.7,1.9-2.3,3
				c-0.1,0.2-0.2,0.4-0.2,0.5c-0.5,1.2-0.8,2.4-0.8,3.6c-0.2,5,3.4,9.5,8.3,10.4c0.4,0.1,0.7,0.5,0.6,0.9
				C484.3,160.3,484,160.5,483.6,160.5z"/>
			<g id="hand_l_1_">
				<path d="M358,112.5c-0.2,0-0.4-0.1-0.5-0.2c-0.3-0.3-0.3-0.8,0-1.1c13.7-14.6,24-26,27.6-29.9c0.9-0.9,2.8-3.1,2.3-4.9
					c-0.2-0.8-1.1-1.6-2-1.8c-1.7-0.4-3.4,1.1-4.2,1.7c-3.9,3.2-12.1,10.8-21,19.2c-0.3,0.3-0.7,0.3-1,0c-0.3-0.2-0.4-0.7-0.1-1
					c2.8-4.3,5.8-8.5,8.8-12.5c1-1.3,1.9-2.6,2.8-3.7c4.6-6.1,8-10.5,6.8-12.9c-0.1-0.3-0.5-0.9-1.2-1.1c-1.9-0.7-5.1,2.7-6.3,3.9
					c-5.9,6.2-13,16.2-16.7,21.5c-0.2,0.3-0.7,0.4-1,0.2c-0.3-0.2-0.4-0.7-0.2-1c3.7-5.4,10.9-15.4,16.8-21.7
					c2.5-2.6,5.3-5.2,7.9-4.3c1.1,0.4,1.7,1.3,2,1.8c1.7,3.2-1.6,7.4-6.9,14.5c-0.9,1.2-1.8,2.4-2.8,3.7c-1.6,2.2-3.2,4.4-4.8,6.7
					c6.9-6.5,12.9-11.9,16-14.5c0.9-0.8,3.1-2.6,5.5-2c1.4,0.3,2.7,1.5,3.1,2.8c0.8,2.6-1.6,5.2-2.6,6.3c-3.8,4.2-14,15.3-27.6,29.9
					C358.4,112.4,358.2,112.5,358,112.5z"/>
				<path d="M320.3,119.6c-0.1,0-0.2,0-0.3-0.1c-0.4-0.2-0.5-0.6-0.4-1c12.4-27.4,20.8-45.4,23.7-51.1c0.9-1.8,3.1-6.1,6.3-6.1
					c1.5,0,3,0.8,3.7,2c1.4,2.2-0.1,5-2.7,10c-0.5,0.9-1,1.9-1.5,2.9c1.6-2.3,3.2-4.5,4.8-6.7c3.8-5,7.2-9,10.8-8.3
					c1.3,0.3,2,0.9,2.3,1.4c1.6,2.4-0.9,6.2-4.1,11c-0.4,0.6-0.7,1.1-1.1,1.7c-2.9,4.5-5.8,9.2-8.4,14.1c-0.2,0.4-0.7,0.5-1,0.3
					c-0.4-0.2-0.5-0.7-0.3-1c2.7-4.9,5.5-9.7,8.5-14.2c0.4-0.6,0.8-1.1,1.1-1.7c2.7-4,5.2-7.8,4.1-9.4c-0.2-0.3-0.6-0.6-1.4-0.8
					c-2.5-0.5-5.4,2.6-9.3,7.7c-3.9,5.1-7.6,10.6-11,16.3c-0.2,0.3-0.6,0.5-1,0.3c-0.4-0.2-0.5-0.6-0.3-1c1.5-3.4,3.1-6.8,4.7-10.1
					c0.6-1.2,1.2-2.4,1.8-3.4c2.4-4.5,3.7-7,2.7-8.5c-0.5-0.9-1.6-1.3-2.4-1.3c-2.4,0-4.3,3.9-5,5.3c-2.9,5.7-11.4,23.7-23.7,51.1
					C320.9,119.4,320.6,119.6,320.3,119.6z"/>
				<path d="M362.5,124.1c-0.2,0-0.4-0.1-0.6-0.3c-0.3-0.3-0.2-0.8,0.1-1.1c3.3-2.5,11.5-8.9,16.5-13.9c0.8-0.8,2.5-2.5,2.2-4.1
					c-0.2-1.1-1.1-2.1-2.1-2.4c-1-0.3-1.8,0.2-4.9,2.1l-1.6,1c-2.3,1.4-4.7,2.8-6.3,3.6c-2.4,1.3-4.9,2.4-7.6,3.4
					c-0.3,0.1-0.6,0-0.8-0.2c-1.5-1.6-3.4-2.8-5.4-3.4c-4.9-1.5-9.2,0.6-10.4,1.3c-0.4,0.2-0.8,0.1-1-0.3c-0.2-0.4-0.1-0.8,0.3-1
					c1.7-1,6.3-3.1,11.6-1.4c2.1,0.7,4.1,1.8,5.7,3.5c2.4-0.9,4.7-2,6.9-3.1c1.6-0.8,3.9-2.2,6.2-3.6l1.6-1c3.3-2,4.5-2.7,6.2-2.3
					c1.6,0.5,2.9,2,3.2,3.6c0.4,2.4-1.7,4.5-2.6,5.4c-5.1,5-13.3,11.5-16.6,14C362.8,124.1,362.7,124.1,362.5,124.1z"/>
				<path d="M361.3,98.7c-0.3,0-0.6-0.2-0.7-0.4c-1.4-3.1-3.9-5.6-7.4-7.5c-2.3-1.3-5-2.3-8-2.9c-2.5-0.5-4.2-0.6-4.3-0.6
					c-0.4,0-0.7-0.3-0.8-0.6c-0.1-0.4,0.2-0.8,0.6-0.9c0.2,0,2.2,0.1,4.8,0.6c3.2,0.7,6,1.7,8.5,3.1c3.7,2.1,6.4,4.8,8,8.2
					c0.2,0.4,0,0.8-0.4,1C361.5,98.7,361.4,98.7,361.3,98.7z"/>
			</g>
			<g id="hand_r_1_">
				<path d="M634.8,228.3c-0.1,0-0.3,0-0.4-0.1c-0.3-0.2-0.4-0.7-0.2-1c0.1-0.2,1-2.1,2-4.3c3.7-7.9,11.4-24.5,15.8-30.8
					c3.2-4.6,5.9-6.6,8.4-6.2c1.4,0.2,2.7,1.1,3.3,2.3c1.4,2.7-0.7,6.1-1.6,7.6c-0.6,0.9-1.1,1.9-1.7,2.8
					c6.7-9.6,9.8-10.6,11.8-10.2c1.3,0.3,2.5,1.1,3.1,2.2c1.7,3.1-1.4,7.2-4.7,11.6c-0.4,0.6-0.8,1.1-1.2,1.7
					c-4,5.6-7.6,11.8-10.7,18.4c-0.2,0.4-0.6,0.5-1,0.4c-0.4-0.2-0.5-0.6-0.4-1c3.1-6.8,6.8-13,10.9-18.7c0.4-0.6,0.8-1.1,1.2-1.7
					c2.8-3.8,5.8-7.8,4.6-10c-0.4-0.7-1.2-1.3-2.1-1.5c-2.5-0.5-7,4.4-13.4,14.3c-2,3.2-4.6,7.4-6.4,10.4c0,0,0,0,0,0.1l-0.1,0.3
					c-1.9,3.9-1.9,4-2.4,4.2c-0.2,0.1-0.4,0-0.6-0.1c-0.7-0.5-0.7-0.7,1.8-5.1c0,0,0,0,0-0.1c0,0,0,0,0,0c2-4.1,5.6-11.8,10-18.8
					c0.7-1.2,2.6-4.2,1.6-6.1c-0.4-0.8-1.3-1.4-2.2-1.5c-1.8-0.3-4.1,1.6-6.9,5.6c-4.3,6.2-12,22.7-15.7,30.6
					c-1.5,3.2-2,4.3-2.2,4.5C635.3,228.2,635.1,228.3,634.8,228.3z"/>
				<path d="M647,259.3c-0.2,0-0.4-0.1-0.5-0.2c-0.3-0.3-0.3-0.8,0-1.1c14.6-15.4,23.7-24.7,30.5-31.2l0.1-0.1
					c2.3-2.2,8.4-8,7.1-11.6c-0.3-0.8-0.7-1.1-1-1.3c-1.6-0.7-4.9,2.4-10.4,7.5c-3.5,3.2-6.3,5.9-8,7.5c-0.3,0.3-0.7,0.3-1,0
					c-0.3-0.2-0.4-0.7-0.2-1c3.6-5.6,7.4-11.1,11.3-16.2l0.8-1c3.2-4.2,6.2-8.2,5-10.4c-0.4-0.7-1.2-1.3-2-1.4
					c-2.5-0.5-5.3,3.2-9.8,9.2c-3.3,4.5-6.7,9-9.9,13.6c-0.2,0.3-0.7,0.4-1,0.2c-0.3-0.2-0.4-0.7-0.2-1c3.3-4.6,6.6-9.2,10-13.6
					c5.1-6.8,7.9-10.4,11.3-9.8c1.3,0.2,2.5,1.1,3,2.2c1.6,3-1.5,7.2-5.2,12l-0.8,1c-2.6,3.4-5.2,7-7.7,10.7c1-0.9,2.1-2,3.3-3.1
					c6.5-6.1,9.5-8.9,12-7.8c0.6,0.2,1.3,0.8,1.8,2.1c1.7,4.4-4.5,10.3-7.5,13.2L678,228c-6.7,6.4-15.8,15.7-30.4,31.1
					C647.4,259.3,647.2,259.3,647,259.3z"/>
				<path d="M645.2,244.7c-0.4,0-0.7-0.3-0.8-0.7c-0.1-2.1-0.6-6.3-3.4-10.2c-1.7-2.3-3.9-4.2-6.5-5.5c-0.3-0.1-0.5-0.5-0.4-0.8
					c0.9-5.5,2-10.6,3.3-15.3l0.1-0.3c0.6-2.1,1.4-5,0.2-6.4c-0.6-0.6-1.5-0.9-2.5-0.8c-2.2,0.3-3.7,3.5-5.3,6.8
					c-8,17-9.8,21.8-11.5,26.7l-0.6,1.6c-0.1,0.4-0.6,0.6-1,0.5c-0.4-0.1-0.6-0.6-0.5-1l0.6-1.6c1.8-4.9,3.6-9.7,11.6-26.8
					c1.8-3.8,3.4-7.3,6.5-7.7c1.4-0.2,2.9,0.4,3.7,1.3c1.8,2,0.9,5.3,0.2,7.8l-0.1,0.3c-1.3,4.5-2.4,9.4-3.2,14.6
					c2.6,1.4,4.9,3.3,6.6,5.7c3.1,4.3,3.7,8.8,3.7,11.1C646,244.3,645.6,244.7,645.2,244.7C645.2,244.7,645.2,244.7,645.2,244.7z"/>
				<path d="M665.1,230.9c-0.3,0-0.5-0.2-0.7-0.4c-1.1-2.3-3.8-6.5-8.9-9.1c-3.7-1.9-7.3-2.2-9.7-2.1c-0.4,0-0.8-0.3-0.8-0.7
					c0-0.4,0.3-0.8,0.7-0.8c2.5-0.1,6.4,0.2,10.4,2.3c5.6,2.8,8.4,7.4,9.6,9.8c0.2,0.4,0,0.8-0.3,1
					C665.4,230.9,665.3,230.9,665.1,230.9z"/>
			</g>
			<g id="hair_1_">
				<path d="M548.6,139.7c-7-2.2-14.1-4.4-21.3-6.6c-5.1-1.5-10.2-3.1-15.2-4.6c-5.2,6.1-10.3,12.3-15.5,18.4
					c-0.1-0.9-0.4-2.3-1.2-3.8c-2.1-3.8-5.9-4.9-6.5-5.1c-4.6-1.3-8.2,1-8.8,1.3c0.1-0.7,0.3-1.6,0.6-2.8
					c0.6-2.4,4.6-17.5,18.7-24.6c7.7-3.9,14.9-3.5,17.4-3.4c2.6,0.1,16.2,0.9,25.1,12.3C547.6,128.4,548.5,136.2,548.6,139.7z"/>
				<path d="M478.8,157.6c-0.5,0.4-1.7,1.4-2.2,3.1c-0.9,3,1,5.6,1.2,5.9c1-2.5,2.1-5,3.1-7.5C480.2,158.6,479.5,158.1,478.8,157.6z
					"/>
			</g>
			<g id="face_1_">
				<path d="M513.7,207.2c-0.1,0-0.3,0-0.4-0.1c-2.8-1.8-5.7-3.5-8.5-5.3c-0.3-0.2-0.4-0.5-0.3-0.9l4.9-15.8
					c0.1-0.4,0.5-0.6,0.9-0.5c3,0.6,6,0.6,8.9,0.2c5.6-0.9,16.3-4.7,24.3-20.4c5.1-10,4.7-19.4,4.3-23l-0.1-0.6
					c0-0.4-0.1-0.8-0.1-1.2c-0.1-0.4,0.2-0.8,0.7-0.8c0.4,0,0.8,0.2,0.8,0.7c0.1,0.4,0.1,0.8,0.1,1.2l0.1,0.6
					c0.4,3.7,0.8,13.5-4.4,23.8c-2.9,5.7-11.1,19.1-25.4,21.2c-2.9,0.4-5.8,0.4-8.7-0.1l-4.5,14.6c2.7,1.6,5.4,3.3,8,4.9
					c0.4,0.2,0.5,0.7,0.2,1C514.2,207.1,513.9,207.2,513.7,207.2z"/>
				<path d="M469,184.5c-0.1,0-0.1,0-0.2,0c-1.1-0.3-2.2-0.5-3.3-0.6c-0.7-0.1-1.5-0.1-2.2-0.1c-0.4,0-0.7-0.3-0.7-0.8
					c0-0.4,0.4-0.7,0.8-0.7c0.8,0,1.6,0.1,2.4,0.2c1,0.1,1.9,0.3,2.9,0.5c2.6-5,11.5-23.7,11.6-23.8c0.2-0.4,0.6-0.5,1-0.4
					c0.4,0.2,0.5,0.6,0.4,1c-0.1,0.1-9.8,20.5-11.9,24.4C469.5,184.3,469.3,184.5,469,184.5z"/>
				<path d="M510.5,184.9c-0.9,2.6-1.8,5.2-2.8,7.9c-2.6-1.2-6.2-3.2-9.6-6.7c-6.4-6.4-8.3-13.9-9-17.2c1.6,2.9,5.1,8.3,11.8,12.3
					C504.6,183.3,508,184.4,510.5,184.9z"/>
			</g>
			<g id="tshirt_1_">
				<path d="M363.9,122.5c-3.6,11.2-17.5,75.5-19.2,92.5c8.4-4.7,20.5-11.3,35.7-18.2c16.8-7.6,25.4-11.5,37.2-14.1
					c10-2.2,26.1-4.2,47.1-0.3c-10.8,11.9-11.5,29.3-2.5,40.9c9,11.6,27.2,16.3,39.1,7.6c11.9-8.7,10.3-25.5,10.2-26.4
					c24.3,9.5,36.1,22.9,41.9,31.1c5.8,8.2,9.8,18.6,17.9,39.3c5.1,12.9,8.8,23.7,11.3,31.1c11.6-23,23.1-46,34.7-69
					c12,7.5,24.1,15,36.1,22.5c-1.6,9.3-4.6,22.1-10.5,36.7c-7.4,18.4-29.2,72.4-62.4,72.8c-27.8,0.3-48.2-37.3-50.9-42.3
					c-2,14.4-10.9,87.4-13.1,108.6c-56.2-10.1-112.5-20.1-168.7-30.2c6-22.1,11.8-44.2,17.6-66.3c6.1-23.4,12.1-46.7,17.9-70.1
					c-6.1,2.7-15.1,5.9-26.5,7.7c-11.6,1.8-36.3,5.5-51.5-5.2c-36.2-25.7-2.5-123.4-0.8-128c3.7-10.5,7.6-19.1,10.7-25.2
					C331.6,119.2,347.7,120.9,363.9,122.5z"/>
				<path d="M484,230.6c-1.8,0-3.3-0.2-4.5-0.4c0,0-0.1,0-0.1,0c-5.4-1.8-9.8-4.7-12.9-8.6c-7.7-9.6-7.7-24.7-0.1-38.6
					c0.2-0.4,0.7-0.5,1-0.3c0.4,0.2,0.5,0.7,0.3,1c-7.3,13.4-7.4,27.9-0.1,37c2.9,3.6,7.1,6.4,12.2,8.1c3.4,0.5,9.9,0.9,16.1-2.8
					c7.3-4.4,11.8-13.1,11.7-22.8c0-0.4,0.3-0.8,0.7-0.8c0.4,0,0.8,0.3,0.8,0.7c0.1,10.2-4.6,19.5-12.4,24.1
					C492.2,229.9,487.6,230.6,484,230.6z"/>
			</g>
			<g id="legs_1_">
				<path d="M563.6,559.9c-0.3,0-0.6-0.2-0.7-0.6c-3.2-13.4-9.1-27.5-18.6-49.3c-11.8-27.3-26-54.3-42.1-80.2
					c-0.2-0.4-0.1-0.8,0.2-1c0.4-0.2,0.8-0.1,1,0.2c16.2,26,30.4,53,42.2,80.4c9.5,21.9,15.4,36,18.6,49.5c0.1,0.4-0.2,0.8-0.6,0.9
					C563.7,559.9,563.6,559.9,563.6,559.9z"/>
				<path d="M345.5,754.2c-0.1,0-0.1,0-0.2,0l-65.3-18c-0.4-0.1-0.6-0.5-0.5-0.9l84.3-327.7c0.1-0.4,0.5-0.6,0.9-0.5
					c0.4,0.1,0.6,0.5,0.5,0.9l-84.1,327l64,17.6l10.2-28.4c12.7-35.5,25.4-71.1,38.2-106.6c2.4-6.7,4.8-13.5,7.2-20.2
					c8.7-24.3,17.4-48.7,26.1-73l14.9-41.7c0.1-0.3,0.4-0.5,0.7-0.5c0.3,0,0.6,0.2,0.7,0.4c11.6,25.3,23.2,50.6,34.8,75.9
					c0.2,0.4,0,0.8-0.4,1s-0.8,0-1-0.4c-11.3-24.7-22.7-49.5-34-74.2l-14.3,40c-8.7,24.3-17.4,48.6-26.1,73
					c-2.4,6.7-4.8,13.5-7.2,20.2c-12.7,35.5-25.4,71.1-38.2,106.6l-10.4,29C346,754,345.8,754.2,345.5,754.2z"/>
				<path d="M300.4,741.8c-0.1,0-0.1,0-0.2,0c-0.4-0.1-0.6-0.5-0.5-0.9l82.6-330c0.1-0.4,0.5-0.6,0.9-0.5c0.4,0.1,0.6,0.5,0.5,0.9
					l-82.6,330C301,741.6,300.7,741.8,300.4,741.8z"/>
				<path d="M485.3,546.9c-0.2,0-0.5-0.1-0.6-0.3l-43-63.2c-0.2-0.3-0.1-0.8,0.2-1c0.3-0.2,0.8-0.1,1,0.2l43,63.2
					c0.2,0.3,0.1,0.8-0.2,1C485.6,546.8,485.4,546.9,485.3,546.9z"/>
			</g>
			<g id="lines_1_">
				<path d="M472.7,128.6C472.6,128.6,472.6,128.6,472.7,128.6l-18.7-1.9c-0.4,0-0.7-0.4-0.7-0.8c0-0.4,0.4-0.7,0.8-0.7l18.6,1.8
					c0.4,0,0.7,0.4,0.7,0.8C473.4,128.3,473,128.6,472.7,128.6z"/>
				<path d="M489.6,104.4c-0.2,0-0.4-0.1-0.6-0.3l-11.7-14.6c-0.3-0.3-0.2-0.8,0.1-1.1c0.3-0.3,0.8-0.2,1.1,0.1l11.7,14.6
					c0.3,0.3,0.2,0.8-0.1,1.1C489.9,104.3,489.7,104.4,489.6,104.4z"/>
				<path d="M513.1,97.1C513.1,97.1,513,97.1,513.1,97.1c-0.5,0-0.8-0.4-0.7-0.8l1.8-18.6c0-0.4,0.4-0.7,0.8-0.7
					c0.4,0,0.7,0.4,0.7,0.8l-1.8,18.6C513.8,96.8,513.5,97.1,513.1,97.1z"/>
			</g>
		</g>
		<path id="flame_1_" class="st1" d="M779.4,561.9l-29.7,114.7L721.6,689L707,738.8c-5.2-12.6-10.4-25.2-15.6-37.8
			c-52.2-4.9-104.5-10-156.7-15.3c-39.9-4-79.9-8.1-119.8-12.4L394,617.8l-16.4-43.5l23.6,23.3l30.6,30.2l45.2-69.1l36.5-55.8v94.9
			l50-38.6l83.2-64.3l-18.4,125.8l102.9-132.9c-2.1,42.2-4.3,84.3-6.4,126.5C743.1,596.9,761.2,579.4,779.4,561.9z"/>
		<g id="box_1_">
			<path d="M698.8,866.1c-12.9,0-45.7-1-129.8-5.4c-67.1-3.5-134.6-7.4-135.2-7.5c-0.4,0-0.7-0.3-0.7-0.7
				c-0.4-5.4-10.8-132-10.9-141.2l-22.8-38.7c-0.1-0.2-0.1-0.5,0-0.8c0.1-0.2,0.4-0.4,0.7-0.4l15,1.1c0.4,0,0.7,0.4,0.7,0.8
				c0,0.4-0.4,0.7-0.8,0.7l-13.6-1l22.2,37.6c0.1,0.1,0.1,0.2,0.1,0.4c0,6.9,10,130.5,10.9,140.6c74,4.3,264.4,14.9,271.9,12.6
				c0.1-0.1,0.3-0.2,0.5-0.2c0.4,0,0.8,0.3,0.8,0.8c0,0.2-0.1,0.5-0.3,0.6C707.2,865.7,706.7,866.1,698.8,866.1z M706.2,864.8
				C706.2,864.8,706.2,864.8,706.2,864.8C706.2,864.8,706.2,864.8,706.2,864.8z M706.2,864.8L706.2,864.8
				C706.2,864.8,706.2,864.8,706.2,864.8z"/>
			<g>
				<polygon points="707,738.8 721.6,689 749.7,676.6 779.4,663.6 755.1,720.8 756.7,834.7 707,864.8 				"/>
				<path d="M707,865.6c-0.1,0-0.3,0-0.4-0.1c-0.2-0.1-0.4-0.4-0.4-0.7v-126c0-0.1,0-0.1,0-0.2l14.7-49.8c0.1-0.2,0.2-0.4,0.4-0.5
					l57.8-25.4c0.3-0.1,0.6-0.1,0.8,0.2s0.3,0.5,0.2,0.8L755.9,721l1.6,113.8c0,0.3-0.1,0.5-0.4,0.7l-49.8,30.1
					C707.2,865.5,707.1,865.6,707,865.6z M707.7,738.9v124.6l48.2-29.2l-1.6-113.5c0-0.1,0-0.2,0.1-0.3L778,665l-55.7,24.5
					L707.7,738.9z"/>
			</g>
			<path d="M707,739.5C706.9,739.5,706.9,739.5,707,739.5l-284.2-27.7c-0.4,0-0.7-0.4-0.7-0.8c0-0.4,0.4-0.7,0.8-0.7L706.9,738
				l48-17.9c0.4-0.1,0.8,0.1,1,0.4c0.1,0.4-0.1,0.8-0.4,1l-48.1,18C707.2,739.5,707.1,739.5,707,739.5z"/>
		</g>
	</g>
</g>
</svg>
