<?xml version="1.0" encoding="utf-8"?>
<!-- Generator: Adobe Illustrator 22.1.0, SVG Export Plug-In . SVG Version: 6.00 Build 0)  -->
<svg version="1.1" xmlns="http://www.w3.org/2000/svg" xmlns:xlink="http://www.w3.org/1999/xlink" x="0px" y="0px"
	 viewBox="0 0 855.4 666.8" style="enable-background:new 0 0 855.4 666.8;" xml:space="preserve">
<style type="text/css">
	.st0{fill:#01BDB7;}
	.st1{fill:#FF749F;}
</style>
<g id="background">
	<g id="background_1_">
		<path d="M761.6,71c-10.6,0-21.8-8.1-33.2-24.2c-0.2-0.3-0.2-0.8,0.2-1c0.3-0.2,0.8-0.2,1,0.2c11.5,16.2,22.6,24.1,33,23.6
			c8.5-0.5,14.3-6.2,20.5-12.3c6.2-6.1,12.6-12.4,21.9-12.9c10.3-0.5,21.1,6.4,31.9,20.6c0.3,0.3,0.2,0.8-0.1,1.1
			c-0.3,0.3-0.8,0.2-1.1-0.1c-10.5-13.7-20.8-20.5-30.6-20c-8.7,0.4-14.6,6.3-20.9,12.4c-6.1,6-12.4,12.2-21.4,12.7
			C762.4,71,762,71,761.6,71z"/>
		<path d="M99.6,317c-9.8,0-20.1-7.5-30.7-22.4c-0.2-0.3-0.2-0.8,0.2-1c0.3-0.2,0.8-0.2,1,0.2c10.7,14.9,20.9,22.2,30.5,21.7
			c7.8-0.4,13.2-5.7,18.9-11.3c5.7-5.6,11.6-11.5,20.3-11.9c9.6-0.5,19.5,5.9,29.5,19c0.3,0.3,0.2,0.8-0.1,1.1
			c-0.3,0.3-0.8,0.2-1.1-0.1c-9.7-12.7-19.2-18.9-28.2-18.4c-8,0.4-13.5,5.8-19.3,11.5c-5.6,5.6-11.5,11.3-19.8,11.7
			C100.3,317,99.9,317,99.6,317z"/>
		<path d="M113.1,183.5c-0.2,0-0.4-0.1-0.5-0.2c-0.2-0.1-0.2-0.3-0.3-0.5l-0.9-12.8c0-0.4,0.3-0.8,0.7-0.8l12.8-0.9
			c0.4,0,0.8,0.3,0.8,0.7l0.9,12.8c0,0.2-0.1,0.4-0.2,0.5c-0.1,0.2-0.3,0.2-0.5,0.3L113.1,183.5
			C113.1,183.5,113.1,183.5,113.1,183.5z M112.9,170.7l0.8,11.3l11.3-0.8l-0.8-11.3L112.9,170.7z"/>
		<path d="M824.1,462.3c-0.2,0-0.3-0.1-0.5-0.2l-15.7-12.4c-0.3-0.3-0.4-0.7-0.1-1.1l12.4-15.7c0.3-0.3,0.7-0.4,1.1-0.1l15.7,12.4
			c0.2,0.1,0.3,0.3,0.3,0.5c0,0.2,0,0.4-0.2,0.6L824.7,462C824.5,462.2,824.3,462.3,824.1,462.3z M809.5,449l14.5,11.5l11.5-14.5
			L821,434.5L809.5,449z"/>
		
			<rect x="644.1" y="230.6" transform="matrix(0.4205 0.9073 -0.9073 0.4205 594.5948 -453.429)" class="st0" width="16.3" height="16.3"/>
		<path d="M225.6,140.2c-0.2,0-0.4-0.1-0.5-0.2c-0.3-0.3-0.3-0.8,0-1.1l10.3-10.9c0.3-0.3,0.8-0.3,1.1,0c0.3,0.3,0.3,0.8,0,1.1
			L226.1,140C226,140.1,225.8,140.2,225.6,140.2z"/>
		<path d="M7.3,283.5c-0.3,0-0.5-0.2-0.7-0.4l-6.6-13.4c-0.2-0.4,0-0.8,0.3-1c0.4-0.2,0.8,0,1,0.3L8,282.4c0.2,0.4,0,0.8-0.3,1
			C7.5,283.5,7.4,283.5,7.3,283.5z"/>
		<path d="M518.1,63.5c-0.2,0-0.4-0.1-0.5-0.2c-0.3-0.3-0.3-0.8,0-1.1l10.2-10.9c0.3-0.3,0.8-0.3,1.1,0c0.3,0.3,0.3,0.8,0,1.1
			l-10.2,10.9C518.5,63.4,518.3,63.5,518.1,63.5z"/>
		<path d="M661.6,58.8c-0.2,0-0.5-0.1-0.6-0.3l-8.1-12.6c-0.2-0.3-0.1-0.8,0.2-1c0.4-0.2,0.8-0.1,1,0.2l8.1,12.6
			c0.2,0.3,0.1,0.8-0.2,1C661.9,58.8,661.8,58.8,661.6,58.8z"/>
		<path d="M33.2,466.8c-0.3,0-0.5-0.1-0.6-0.4c-0.2-0.4-0.1-0.8,0.2-1l12.8-7.8c0.4-0.2,0.8-0.1,1,0.2c0.2,0.4,0.1,0.8-0.2,1
			l-12.8,7.8C33.5,466.8,33.3,466.8,33.2,466.8z"/>
		<path d="M749.9,379.4c-0.1,0-0.2,0-0.3-0.1l-13.3-6.8c-0.4-0.2-0.5-0.6-0.3-1c0.2-0.4,0.6-0.5,1-0.3l13.3,6.8
			c0.4,0.2,0.5,0.6,0.3,1C750.5,379.3,750.2,379.4,749.9,379.4z"/>
		<path d="M845.2,580.2c-0.1,0-0.2,0-0.3-0.1c-0.4-0.2-0.5-0.6-0.3-1l6.7-13.4c0.2-0.4,0.6-0.5,1-0.3c0.4,0.2,0.5,0.6,0.3,1
			l-6.7,13.4C845.8,580.1,845.5,580.2,845.2,580.2z"/>
		<path d="M698.2,547c-0.3,0-0.5-0.1-0.7-0.4c-0.2-0.4-0.1-0.8,0.3-1l13.1-7.2c0.4-0.2,0.8-0.1,1,0.3c0.2,0.4,0.1,0.8-0.3,1
			l-13.1,7.2C698.4,547,698.3,547,698.2,547z"/>
		<path d="M839.8,305.4c-0.2,0-0.3,0-0.4-0.1c-0.3-0.2-0.4-0.7-0.2-1l8.7-12.2c0.2-0.3,0.7-0.4,1-0.2c0.3,0.2,0.4,0.7,0.2,1
			l-8.7,12.2C840.3,305.2,840.1,305.4,839.8,305.4z"/>
		<path d="M610.2,169.2c-0.1,0-0.2,0-0.3-0.1c-0.4-0.2-0.5-0.6-0.3-1l6.7-13.4c0.2-0.4,0.6-0.5,1-0.3c0.4,0.2,0.5,0.6,0.3,1
			l-6.7,13.4C610.7,169,610.4,169.2,610.2,169.2z"/>
		<path d="M732.8,230.2c-0.1,0-0.3,0-0.4-0.1c-0.4-0.2-0.5-0.7-0.3-1l7.6-12.9c0.2-0.4,0.7-0.5,1-0.3c0.4,0.2,0.5,0.7,0.3,1
			l-7.6,12.9C733.3,230.1,733.1,230.2,732.8,230.2z"/>
		<path d="M325.5,569.3c-0.4,0-0.7-0.3-0.7-0.6c-0.1-0.4,0.2-0.8,0.6-0.9l14.8-2.5c0.4-0.1,0.8,0.2,0.9,0.6c0.1,0.4-0.2,0.8-0.6,0.9
			l-14.8,2.5C325.5,569.3,325.5,569.3,325.5,569.3z"/>
		<path d="M132.5,32.6c-0.2,0-0.5-0.1-0.6-0.3L123.4,20c-0.2-0.3-0.2-0.8,0.2-1c0.3-0.2,0.8-0.2,1,0.2l8.5,12.3
			c0.2,0.3,0.2,0.8-0.2,1C132.8,32.6,132.7,32.6,132.5,32.6z"/>
		<path d="M29.7,87.6c-0.2,0-0.4-0.1-0.5-0.2c-0.3-0.3-0.3-0.7-0.1-1.1L39,75.1c0.3-0.3,0.7-0.3,1.1-0.1c0.3,0.3,0.3,0.7,0.1,1.1
			l-9.9,11.2C30.1,87.5,29.9,87.6,29.7,87.6z"/>
		<path d="M230.3,490.5c-0.2,0-0.4-0.1-0.6-0.2c-0.3-0.3-0.3-0.8,0-1.1l11-10.1c0.3-0.3,0.8-0.3,1.1,0c0.3,0.3,0.3,0.8,0,1.1
			l-11,10.1C230.7,490.4,230.5,490.5,230.3,490.5z"/>
		<path d="M256.6,629.9c-0.1,0-0.2,0-0.2,0c-0.4-0.1-0.6-0.6-0.5-0.9l4.6-14.2c0.1-0.4,0.6-0.6,0.9-0.5c0.4,0.1,0.6,0.6,0.5,0.9
			l-4.6,14.2C257.2,629.7,256.9,629.9,256.6,629.9z"/>
		<path d="M28.1,628.3c-0.2,0-0.4-0.1-0.5-0.2c-0.3-0.3-0.3-0.8,0-1.1l10.1-11c0.3-0.3,0.8-0.3,1.1,0c0.3,0.3,0.3,0.8,0,1.1
			l-10.1,11C28.5,628.2,28.3,628.3,28.1,628.3z"/>
		<path d="M330.7,38.2c-1.7,0-3.3-0.7-4.5-1.9c-2.5-2.5-2.5-6.5,0-9l0,0c2.5-2.5,6.5-2.5,9,0c1.2,1.2,1.9,2.8,1.9,4.5
			c0,1.7-0.7,3.3-1.9,4.5S332.4,38.2,330.7,38.2z M327.3,28.4c-1.9,1.9-1.9,5,0,6.9c0.9,0.9,2.1,1.4,3.4,1.4s2.5-0.5,3.4-1.4
			s1.4-2.1,1.4-3.4c0-1.3-0.5-2.5-1.4-3.4C332.3,26.5,329.2,26.5,327.3,28.4L327.3,28.4z"/>
		<circle class="st0" cx="132.5" cy="594.8" r="5.4"/>
		<circle class="st0" cx="316.6" cy="193.7" r="4.3"/>
		<circle class="st0" cx="757" cy="622" r="7.1"/>
		<path d="M847.5,158.5c-1.4,0-2.7-0.4-3.9-1.1c-1.8-1-3.1-2.7-3.7-4.8s-0.3-4.1,0.8-5.9s2.7-3.1,4.8-3.7c2-0.5,4.1-0.3,5.9,0.8
			c1.8,1,3.1,2.7,3.7,4.8s0.3,4.1-0.8,5.9s-2.7,3.1-4.8,3.7C848.9,158.4,848.2,158.5,847.5,158.5z M847.5,144.3
			c-0.6,0-1.1,0.1-1.7,0.2c-1.6,0.4-3,1.5-3.8,3s-1.1,3.2-0.6,4.8c0.4,1.6,1.5,3,3,3.8c1.5,0.8,3.2,1.1,4.8,0.6c1.6-0.4,3-1.5,3.8-3
			s1.1-3.2,0.6-4.8c-0.4-1.6-1.5-3-3-3.8C849.7,144.6,848.6,144.3,847.5,144.3z"/>
		<circle class="st0" cx="164.6" cy="429.7" r="10.3"/>
	</g>
</g>
<g id="general_1_">
	<g id="general_2_">
		<path d="M452,197.6h-35.6c-0.4,0-0.8-0.3-0.8-0.7l-0.6-4.6c-0.6-4.5-1.2-9.1-1.9-13.6c-0.7-5.2-1.4-10.3-2.2-15.5
			c-4.5-1.5-8.8-3.4-13-5.6c-1-0.5-2-1.1-2.9-1.7c-0.4-0.2-0.5-0.8-0.3-1.2s0.8-0.5,1.2-0.3c0.9,0.6,1.9,1.1,2.9,1.6
			c4.2,2.3,8.7,4.2,13.2,5.7c0.3,0.1,0.5,0.4,0.6,0.7c0.8,5.3,1.5,10.7,2.2,16c0.6,4.5,1.3,9.1,1.9,13.6l0.5,3.9H452
			c0.5,0,0.9,0.4,0.9,0.9S452.5,197.6,452,197.6z M409.6,147.8c-0.1,0-0.2,0-0.3-0.1c-2.1-0.8-4.1-1.8-6.1-2.8
			c-0.4-0.2-0.6-0.7-0.4-1.1c0.2-0.4,0.7-0.6,1.1-0.4c1.5,0.8,3,1.5,4.6,2.1l-5.5-40.5c-6.5,0-12.2,0.7-16.6,1.9
			c-0.7,0.2-1.3,0.4-1.9,0.6c-0.4,0.2-0.9-0.1-1.1-0.5c-0.2-0.4,0.1-0.9,0.5-1.1c0.6-0.2,1.3-0.4,2-0.6c4.7-1.3,10.9-2,17.8-2
			c0.4,0,0.8,0.3,0.8,0.7l5.8,42.7c0,0.3-0.1,0.6-0.3,0.8C410,147.7,409.8,147.8,409.6,147.8z M363.8,110.8c-0.1,0-0.2,0-0.3-0.1
			c-0.4-0.2-0.7-0.7-0.5-1.1c0.3-0.7,0.6-1.5,1-2.2c0.1-0.1,0.1-0.2,0.2-0.3c1.5-2.8,3.7-5.2,6.6-7.3c0.7-0.5,1.6-1.1,2.4-1.5
			c3.5-2,7.2-3.3,10.5-4.5c0.8-0.3,1.5-0.5,2.3-0.7c4.8-1.5,9.9-2.3,15.1-2.4c-1.6-11.6-3.2-23.2-4.8-34.8c0-0.2,0-0.5,0.2-0.7
			c0.2-0.2,0.4-0.3,0.6-0.3h41c0.5,0,0.9,0.4,0.9,0.9s-0.4,0.9-0.9,0.9h-40c1.6,11.6,3.2,23.2,4.8,34.8c0,0.2,0,0.5-0.2,0.7
			c-0.2,0.2-0.4,0.3-0.6,0.3c-5.4,0.1-10.6,0.8-15.6,2.4c-0.7,0.2-1.4,0.4-2.1,0.7c-3.3,1.1-7,2.4-10.3,4.4c-0.8,0.5-1.6,1-2.3,1.5
			c-2.7,1.9-4.7,4.1-6.1,6.8c-0.1,0.1-0.1,0.2-0.1,0.3c-0.3,0.7-0.6,1.3-0.9,2C364.5,110.5,364.2,110.8,363.8,110.8z"/>
		<g id="face_1_">
			<g>
				<path d="M500,83.9c-4.3,31.5-8.6,63.1-13,94.6c-0.8,6.1-1.7,12.2-2.5,18.2H452c0.4-6.8,0.9-13.6,1.3-20.4
					c-2.1-1.8-4.5-4.4-6.7-7.8c-4.3-6.6-5.6-13.1-6-16.9c-0.8,0.2-1.8,0.3-3,0.3c-7.7-0.4-15.6-9.7-15.9-19.3
					c-0.3-8.7,5.6-18.2,11.8-18.7c3.1-0.3,5.2,1.5,5.2,1.5c0.7,0.6,1.6,1.5,2.5,4.1c0.7,1.9,1.6,5,1.7,9c0.2-2.7,0.6-6.5,1.7-10.8
					c0.1-0.2,0.1-0.4,0.2-0.7c0-0.1,0.1-0.3,0.1-0.4c0-0.1,0.1-0.2,0.1-0.4c0-0.1,0.1-0.2,0.1-0.3c0.2-0.8,0.5-1.7,0.8-2.7
					c0.1-0.3,0.2-0.6,0.3-0.8c0-0.2,0.1-0.3,0.2-0.5c0,0,0,0,0,0c0-0.2,0.1-0.3,0.2-0.5c0.2-0.6,0.4-1.3,0.7-2c0-0.1,0-0.1,0.1-0.2
					c0.1-0.2,0.2-0.5,0.3-0.8c0,0,0,0,0-0.1c0.2-0.5,0.4-1,0.6-1.5c0,0,0-0.1,0-0.1c0.1-0.2,0.2-0.5,0.3-0.7c0.1-0.3,0.3-0.6,0.4-1
					c0.3-0.7,0.7-1.5,1.1-2.2c0.2-0.4,0.4-0.7,0.6-1.1c0.3-0.5,0.5-1,0.8-1.5c0.3-0.6,0.7-1.1,1-1.7c0.1-0.1,0.1-0.2,0.2-0.3
					c0.2-0.4,0.5-0.7,0.8-1.1c0.4-0.6,0.9-1.2,1.4-1.9c0.2-0.2,0.3-0.4,0.5-0.7c0.1-0.1,0.1-0.2,0.2-0.2c0.2-0.2,0.4-0.5,0.6-0.7
					c0.2-0.3,0.5-0.5,0.7-0.8c0.2-0.3,0.5-0.5,0.8-0.8c0.2-0.2,0.5-0.5,0.7-0.7c0.3-0.3,0.6-0.5,0.9-0.8c0.2-0.2,0.4-0.4,0.6-0.6
					c0.3-0.3,0.6-0.6,1-0.8c0.2-0.2,0.5-0.4,0.7-0.6c0.6-0.5,1.2-0.9,1.9-1.3c0.3-0.2,0.6-0.4,0.9-0.6C474.1,80.6,488,79.5,500,83.9
					z"/>
				<path d="M484.5,197.6H452c-0.2,0-0.5-0.1-0.6-0.3s-0.2-0.4-0.2-0.6l1.3-20c-2.5-2.3-4.8-4.9-6.6-7.7c-3.2-4.9-5.2-10.5-6-16.4
					c-0.8,0.1-1.5,0.1-2.3,0.1c-8.3-0.5-16.4-10.3-16.7-20.2c-0.3-9.3,6-19,12.6-19.6c3.3-0.3,5.7,1.6,5.8,1.7
					c0.8,0.6,1.7,1.6,2.8,4.5c0.3,0.8,0.6,1.7,0.8,2.6c0.3-1.5,0.6-2.9,0.9-4.3l0.5-1.8c0.2-0.8,0.5-1.7,0.8-2.8
					c0.1-0.3,0.2-0.6,0.3-0.9c0-0.1,0.1-0.3,0.2-0.5c0,0,0,0,0,0l0,0c0-0.1,0.1-0.3,0.1-0.4c0.2-0.7,0.5-1.4,0.7-2.1
					c0-0.1,0.1-0.2,0.1-0.2l0.1-0.2c0.1-0.2,0.1-0.4,0.2-0.6c0.2-0.5,0.4-1,0.6-1.6c0,0,0-0.1,0-0.1c0.1-0.3,0.2-0.5,0.3-0.7l0.4-1
					c0.3-0.7,0.7-1.5,1.1-2.2c0.2-0.4,0.4-0.8,0.6-1.1c0.3-0.5,0.5-1,0.8-1.5c0.3-0.6,0.7-1.1,1-1.7c0-0.1,0.1-0.2,0.2-0.3
					c0.2-0.4,0.5-0.7,0.7-1.1c0,0,0.1-0.1,0.1-0.1c0.4-0.6,0.9-1.3,1.4-1.9c0.2-0.2,0.4-0.5,0.5-0.7c0,0,0.1-0.1,0.1-0.2
					c0.2-0.3,0.4-0.5,0.6-0.8c0.2-0.3,0.5-0.5,0.7-0.8c0.2-0.3,0.5-0.6,0.8-0.8c0.2-0.2,0.5-0.5,0.7-0.7c0.3-0.3,0.6-0.6,0.9-0.8
					c0.2-0.2,0.4-0.4,0.7-0.6c0.3-0.3,0.7-0.6,1-0.9c0.2-0.2,0.5-0.4,0.7-0.6c0.6-0.5,1.2-0.9,1.9-1.4c0.3-0.2,0.6-0.4,0.9-0.6
					c10.2-6.3,24.3-7.4,36.6-2.9c0.4,0.1,0.6,0.5,0.5,0.9c-4.3,31.5-8.6,63.1-13,94.6c-0.6,4.4-1.2,8.9-1.8,13.3l-0.7,4.9
					C485.3,197.2,484.9,197.6,484.5,197.6z M452.9,195.9h30.9l0.6-4.2c0.6-4.4,1.2-8.9,1.8-13.3c4.3-31.3,8.6-62.6,12.9-93.9
					c-11.5-4-25-2.8-34.4,3c-0.3,0.2-0.6,0.4-0.8,0.5c-0.6,0.4-1.2,0.9-1.8,1.3c-0.2,0.2-0.5,0.4-0.7,0.5c-0.3,0.3-0.7,0.5-1,0.8
					c-0.2,0.2-0.4,0.4-0.6,0.5c-0.3,0.3-0.6,0.6-0.9,0.8c-0.2,0.2-0.5,0.5-0.7,0.7c-0.3,0.3-0.5,0.5-0.7,0.8
					c-0.2,0.3-0.5,0.5-0.7,0.8c-0.2,0.2-0.4,0.4-0.6,0.7c0,0-0.1,0.1-0.1,0.1l-0.1,0.1c-0.2,0.2-0.4,0.4-0.5,0.7
					c-0.5,0.6-0.9,1.2-1.4,1.8c-0.3,0.4-0.5,0.8-0.7,1.1c-0.1,0.1-0.1,0.2-0.2,0.2c-0.4,0.6-0.7,1.1-1,1.7c-0.3,0.5-0.6,0.9-0.8,1.4
					c-0.2,0.4-0.4,0.7-0.6,1.1c-0.4,0.7-0.7,1.5-1.1,2.2l-0.4,0.9c-0.1,0.2-0.2,0.4-0.3,0.6l-0.1,0.2c-0.2,0.5-0.4,1-0.6,1.5
					c-0.1,0.2-0.2,0.4-0.2,0.6l-0.1,0.4c-0.2,0.7-0.5,1.3-0.7,1.9c0,0,0,0.1,0,0.1c0,0.1-0.1,0.2-0.1,0.3c0,0,0,0.1,0,0.1
					c-0.1,0.2-0.1,0.3-0.2,0.5c-0.1,0.3-0.2,0.6-0.3,0.8c-0.3,1-0.6,1.9-0.8,2.7l-0.5,1.8c-0.9,3.5-1.5,7.1-1.7,10.7
					c0,0.5-0.4,0.8-0.9,0.8c-0.5,0-0.8-0.4-0.8-0.8c-0.1-3.1-0.6-6-1.6-8.7c-0.9-2.5-1.7-3.3-2.3-3.8c0,0-1.9-1.5-4.6-1.3
					c-5.7,0.5-11.3,9.5-11.1,17.8c0.3,8.9,7.8,18.1,15.1,18.5c0.9,0.1,1.8,0,2.7-0.2c0.2-0.1,0.5,0,0.7,0.1c0.2,0.1,0.3,0.4,0.4,0.6
					c0.6,6,2.7,11.7,5.8,16.6c1.8,2.8,4,5.4,6.6,7.6c0.2,0.2,0.3,0.4,0.3,0.7L452.9,195.9z"/>
			</g>
			<path d="M554.3,232c-0.1,0-0.2,0-0.3-0.1c-6.3-2.5-12.6-4.9-18.8-7c-8.1-2.9-16.4-5.6-24.6-8c-0.3-0.1-0.6-0.4-0.6-0.8
				c-0.4-5.6-0.5-30.5-0.1-36c0-0.2,0.1-0.4,0.3-0.6c2.4-2,4.6-4.3,6.6-6.8c4.3-5.3,7.6-11.5,9.6-18.2c0.1-0.4,0.6-0.7,1-0.6
				c0.8,0.2,1.5,0.2,2.3,0.2c6.8-0.4,13.7-9.8,14-18.9c0.2-6.9-3.2-15.5-8.4-16.7c-2.6-0.6-5.1,0.6-5.4,0.8
				c-3.6,1.8-4.6,5.6-4.8,6.8c-0.1,0.5-0.5,0.8-1,0.7c-0.5-0.1-0.8-0.5-0.7-1c0.3-1.3,1.5-5.8,5.7-7.9c0.5-0.3,3.4-1.7,6.6-0.9
				c6.1,1.5,10,10.7,9.7,18.4c-0.3,10.1-7.9,20.1-15.6,20.6c-0.7,0-1.3,0-2-0.1c-2.1,6.7-5.4,12.8-9.7,18.1c-2,2.4-4.2,4.7-6.5,6.7
				c-0.3,5.9-0.3,28.4,0.1,34.8c8,2.4,16.1,5.1,24.1,7.9c6.2,2.2,12.5,4.5,18.8,7c0.4,0.2,0.7,0.7,0.5,1.1
				C554.9,231.8,554.6,232,554.3,232z"/>
			<path d="M407.7,225.5c-0.4,0-0.7-0.3-0.8-0.7c-0.1-0.5,0.2-0.9,0.6-1c2.4-0.6,4.7-1.1,7.1-1.7c6.9-1.6,14-3.1,21.4-4.5
				c4.7-0.9,9.4-1.8,13.9-2.6l1.2-18.4c0-0.5,0.4-0.8,0.9-0.8c0.5,0,0.8,0.4,0.8,0.9l-1.2,19c0,0.4-0.3,0.7-0.7,0.8
				c-4.8,0.8-9.7,1.8-14.6,2.7c-7.3,1.4-14.5,3-21.3,4.5c-2.4,0.5-4.8,1.1-7.1,1.6C407.9,225.5,407.8,225.5,407.7,225.5z"/>
		</g>
		<g id="hair_1_">
			<path d="M443,129.2C443,129.2,442.9,129.2,443,129.2c-0.5,0-0.8-0.4-0.9-0.8c-0.1-3.1-0.6-6-1.6-8.7c-0.9-2.5-1.7-3.3-2.3-3.8
				c0,0-1.9-1.5-4.6-1.3c-0.2,0-0.5-0.1-0.7-0.2s-0.3-0.4-0.2-0.7c0.7-9.6,3.5-18.6,8.3-26.5l0.1-0.2c0.1-0.2,0.3-0.5,0.6-0.9
				c0.1-0.2,3.6-5.7,8.9-10.7c4-3.8,8.5-6.7,12.2-8.7c-10.7,1.4-21.7-1.3-25-9.2c-0.2-0.5-0.4-1-0.5-1.6c-0.1-0.3,0-0.5,0.2-0.7
				s0.4-0.3,0.7-0.3h65.7c0.2,0,0.5,0.1,0.6,0.3c0.2,0.2,0.2,0.4,0.2,0.7c-1.3,9.4-2.6,18.8-3.9,28.2c0,0.3-0.2,0.5-0.4,0.6
				c-0.2,0.1-0.5,0.2-0.7,0.1c-11.6-4.3-25.4-3.2-35.1,2.8c-0.3,0.2-0.6,0.4-0.8,0.5c-0.6,0.4-1.2,0.9-1.8,1.3
				c-0.2,0.2-0.5,0.4-0.7,0.5c-0.3,0.3-0.7,0.5-1,0.8c-0.2,0.2-0.4,0.4-0.6,0.6c-0.3,0.3-0.6,0.5-0.8,0.8c-0.2,0.2-0.5,0.5-0.7,0.7
				c-0.3,0.3-0.5,0.5-0.7,0.8c-0.2,0.3-0.5,0.5-0.7,0.8c-0.2,0.2-0.4,0.4-0.6,0.7c0,0-0.1,0.1-0.1,0.1l-0.1,0.1
				c-0.2,0.2-0.4,0.4-0.5,0.7c-0.5,0.6-0.9,1.2-1.4,1.8c-0.3,0.4-0.5,0.7-0.7,1.1c-0.1,0.1-0.1,0.2-0.2,0.2c-0.4,0.6-0.7,1.1-1,1.7
				c-0.3,0.5-0.6,1-0.8,1.4c-0.2,0.4-0.4,0.7-0.6,1.1c-0.4,0.7-0.7,1.5-1.1,2.2l-0.4,0.9c-0.1,0.2-0.2,0.4-0.3,0.6l-0.1,0.2
				c-0.2,0.5-0.4,1-0.6,1.5c-0.1,0.3-0.2,0.4-0.2,0.6l-0.1,0.4c-0.3,0.7-0.5,1.3-0.7,1.9c0,0,0,0.1,0,0.1c0,0.1-0.1,0.2-0.1,0.3
				c0,0,0,0.1,0,0.1c-0.1,0.2-0.1,0.3-0.2,0.5c-0.1,0.3-0.2,0.6-0.3,0.8c-0.3,1-0.6,1.9-0.8,2.7l-0.5,1.8c-0.9,3.5-1.5,7.1-1.7,10.7
				C443.8,128.9,443.4,129.2,443,129.2z M434.5,112.9c2.8,0.1,4.7,1.6,4.8,1.7c0.8,0.6,1.7,1.6,2.8,4.5c0.3,0.8,0.6,1.7,0.8,2.6
				c0.3-1.5,0.6-2.9,0.9-4.3l0.5-1.8c0.2-0.8,0.5-1.7,0.8-2.8c0.1-0.3,0.2-0.6,0.3-0.9c0-0.1,0.1-0.3,0.2-0.5c0,0,0,0,0,0l0,0
				c0-0.1,0.1-0.3,0.1-0.4c0.2-0.7,0.5-1.4,0.7-2.1c0-0.1,0.1-0.1,0.1-0.2l0.1-0.2c0.1-0.2,0.1-0.4,0.2-0.6c0.2-0.5,0.4-1,0.6-1.6
				l0.8,0.2l-0.8-0.3c0.1-0.2,0.2-0.4,0.3-0.7l0.4-1c0.3-0.7,0.7-1.5,1.1-2.2c0.2-0.4,0.4-0.8,0.6-1.1c0.3-0.5,0.5-1,0.8-1.5
				c0.3-0.6,0.7-1.1,1-1.7c0-0.1,0.1-0.2,0.2-0.3c0.3-0.4,0.5-0.8,0.8-1.2c0.4-0.6,0.9-1.3,1.4-1.9c0.2-0.2,0.4-0.5,0.5-0.7
				c0,0,0.1-0.1,0.1-0.2c0.2-0.3,0.4-0.5,0.6-0.8c0.2-0.3,0.5-0.5,0.7-0.8c0.2-0.3,0.5-0.6,0.8-0.8c0.2-0.2,0.5-0.5,0.7-0.7
				c0.3-0.3,0.6-0.6,0.9-0.8c0.2-0.2,0.4-0.4,0.7-0.6c0.3-0.3,0.7-0.6,1-0.8c0.2-0.2,0.5-0.4,0.7-0.6c0.6-0.5,1.2-0.9,1.9-1.4
				c0.3-0.2,0.6-0.4,0.9-0.6c10-6.1,23.5-7.4,35.6-3.3c1.2-8.7,2.4-17.5,3.6-26.2h-63.6c0,0.1,0.1,0.2,0.1,0.3
				c2.9,6.8,14.7,11.3,29.5,6.9c0.4-0.1,0.9,0.1,1,0.5c0.2,0.4,0,0.9-0.5,1.1c-3.1,1.4-11.1,5.3-17.6,11.4
				c-5.1,4.8-8.6,10.3-8.6,10.4c-0.2,0.4-0.4,0.7-0.5,0.9l-0.1,0.2C438.1,95.6,435.4,103.9,434.5,112.9z"/>
			<g>
				<path d="M535.4,117.7c-2.9-0.7-5.7,0.7-6,0.9c-4.1,2.1-5.1,6.5-5.3,7.3c0-0.3,0.1-0.6,0.1-0.9c0-0.2,0-0.4,0.1-0.6
					c0-0.2,0-0.5,0.1-0.7c0-0.4,0.1-0.8,0.1-1.2c0-0.3,0-0.6,0-0.9c0.1-2.1,0-4.6-0.4-7.5c0-0.2-0.1-0.5-0.1-0.7c0-0.1,0-0.2,0-0.3
					c0-0.2-0.1-0.4-0.1-0.6c-0.1-0.4-0.1-0.8-0.2-1.2c-0.1-0.3-0.1-0.6-0.2-1c-0.1-0.3-0.1-0.6-0.2-0.9c-0.1-0.4-0.2-0.7-0.3-1.1
					c-0.1-0.3-0.2-0.5-0.2-0.8c-0.1-0.3-0.2-0.6-0.3-0.9c-0.1-0.4-0.2-0.7-0.4-1.1c-0.1-0.3-0.2-0.6-0.4-1c-0.1-0.3-0.3-0.7-0.4-1
					c-0.1-0.3-0.2-0.6-0.4-0.9c0-0.1-0.1-0.2-0.1-0.2c-0.1-0.3-0.3-0.5-0.4-0.8c0,0,0-0.1,0-0.1c-0.2-0.3-0.3-0.6-0.5-1c0,0,0,0,0,0
					c-0.2-0.3-0.4-0.6-0.5-0.9c-0.2-0.4-0.5-0.8-0.7-1.2c-0.1-0.2-0.3-0.5-0.5-0.7c0,0,0,0-0.1-0.1c-0.2-0.3-0.4-0.5-0.5-0.8
					c-0.3-0.4-0.5-0.8-0.8-1.1c-4.4-5.6-10.2-9.5-16.6-11.8c1.3-9.4,2.6-18.8,3.9-28.2h-65.7c-1-4.1,0.2-9.4,3.3-12.5
					c4.5-4.5,12.8-5.2,19.9-0.7C450,34.7,445.9,21.6,450.2,12c2.6-5.8,8.9-11.4,15.3-11.2c9.3,0.4,19.4,13.2,19.5,32.6
					c0.4-17,7.3-28.4,14.9-29.4c6-0.8,10.9,5.2,11.2,5.6c6.2,7.8,4.6,22-5.3,34.6c1.2-1.4,7.6-8.9,16.4-8.1c1.4,0.1,6.9,0.6,9.3,4.6
					c2.5,4.3,0,9.8-0.9,11.6c-5.6,11.9-22.6,13.9-25.3,14.2c2.1,1,4.9,2.5,7.9,4.8c0,0,1.9,1.6,3.9,3.4
					C534.7,91.2,535.4,113.2,535.4,117.7z"/>
				<path d="M525,126.1l-1.7-0.3l0-0.2c0-0.2,0.1-0.4,0.1-0.7l0.1-0.6c0-0.2,0-0.5,0.1-0.7c0-0.4,0.1-0.8,0.1-1.2c0-0.3,0-0.6,0-0.9
					c0.1-2.5,0-5-0.4-7.4l0-0.1c0-0.2,0-0.3-0.1-0.5c0-0.1,0-0.2,0-0.3c0-0.3-0.1-0.5-0.1-0.6c-0.1-0.4-0.1-0.8-0.2-1.2
					c-0.1-0.3-0.1-0.6-0.2-1c-0.1-0.3-0.1-0.6-0.2-0.9c-0.1-0.4-0.2-0.7-0.3-1.1c-0.1-0.3-0.1-0.5-0.2-0.8c-0.1-0.3-0.2-0.6-0.3-0.9
					c-0.1-0.4-0.2-0.7-0.4-1.1c-0.1-0.3-0.2-0.6-0.4-0.9c-0.1-0.3-0.3-0.6-0.4-1c-0.1-0.3-0.2-0.6-0.4-0.8l-0.1-0.3
					c-0.1-0.3-0.2-0.5-0.4-0.8l-0.1-0.1c-0.1-0.3-0.3-0.5-0.4-0.8l-0.1-0.1c0,0,0,0,0,0l-0.1-0.2c-0.1-0.2-0.3-0.5-0.4-0.7
					c-0.2-0.4-0.5-0.8-0.7-1.2c-0.1-0.2-0.2-0.4-0.4-0.6l-0.1-0.2c-0.2-0.3-0.4-0.6-0.6-0.8c-0.3-0.4-0.5-0.7-0.8-1.1
					c-4.1-5.1-9.7-9.1-16.3-11.5l-0.6-0.2l0.1-0.7c1.2-9.1,2.5-18.2,3.7-27.3h-65.4l-0.2-0.6c-1.2-4.6,0.3-10.1,3.5-13.3
					c3.7-3.7,9.6-4.9,15.4-3.3c-7.8-7.9-10.7-18.9-6.7-27.6c2.7-5.9,9.2-12,16.2-11.7c8.1,0.3,16.9,9.5,19.5,24.4
					c2.1-11.9,7.7-20.3,14.7-21.2c6.3-0.8,11.4,5.2,11.9,5.9c5.7,7.1,5,18.7-1.3,29.7c3-2.1,7.1-3.9,11.8-3.5c6.1,0.5,8.8,3,10,5.1
					c2.8,4.7,0,10.5-0.9,12.4c-4.7,9.9-16.9,13.2-23.2,14.3c2,1.1,3.9,2.3,5.6,3.7c0,0,2,1.6,3.9,3.4c16.5,15.4,18.4,35.5,18.5,43.5
					l0,1.1l-1.1-0.3c-2.6-0.6-5.1,0.6-5.4,0.8C526.2,121.2,525.2,125,525,126.1z M520.7,100.3c0.1,0.3,0.3,0.5,0.4,0.8
					c0,0,0,0.1,0.1,0.1c0.1,0.2,0.2,0.5,0.4,0.8l0.1,0.2c0.1,0.3,0.3,0.6,0.4,0.9c0.1,0.3,0.3,0.7,0.4,1c0.1,0.3,0.3,0.7,0.4,1
					c0.1,0.4,0.3,0.8,0.4,1.1c0.1,0.3,0.2,0.6,0.3,0.9c0.1,0.3,0.2,0.5,0.2,0.8c0.1,0.4,0.2,0.8,0.3,1.1c0.1,0.3,0.2,0.6,0.2,0.9
					c0.1,0.3,0.1,0.7,0.2,1c0.1,0.4,0.2,0.8,0.2,1.2c0,0.2,0.1,0.4,0.1,0.6c0,0.1,0,0.2,0,0.3c0,0.2,0.1,0.3,0.1,0.5l0,0.1
					c0.3,2.3,0.4,4.7,0.4,7.1c0.9-1.2,2-2.4,3.7-3.2c0.5-0.3,2.8-1.4,5.5-1.1c-0.2-8.3-2.6-26.9-18-41.2c-1.9-1.8-3.8-3.3-3.8-3.3
					c-2.4-1.8-5-3.4-7.7-4.7l-1.8-0.9c-0.8,5.6-1.5,11.2-2.3,16.8c6.6,2.5,12.2,6.6,16.4,11.8c0.3,0.4,0.6,0.8,0.9,1.2
					c0.2,0.2,0.3,0.5,0.5,0.7v0l0.2,0.3c0.1,0.2,0.3,0.4,0.4,0.6c0.3,0.4,0.5,0.8,0.8,1.2c0.2,0.3,0.3,0.6,0.5,0.8l0.2,0.2
					L520.7,100.3z M438.8,54.8h66l-0.1,1c-0.5,3.4-0.9,6.8-1.4,10.2l2-0.2c4.5-0.5,19.5-2.8,24.6-13.7c0.8-1.7,3.3-6.9,1-10.8
					c-1.4-2.4-4.3-3.9-8.6-4.2c-8.1-0.7-14.1,5.8-15.7,7.8l-1.3-1.1c9.3-12,11.5-25.8,5.3-33.6c-0.2-0.2-4.9-6-10.4-5.3
					c-7.7,1-13.7,13.2-14.1,28.5l-1.7,0c-0.1-15-7.7-31.3-18.7-31.8C459.4,1.5,453.5,7,451,12.4c-4.3,9.5,0.3,22.2,10.8,29.4
					l-0.9,1.4c-6.5-4.1-14.4-3.9-18.8,0.6C439.4,46.4,438.1,51,438.8,54.8z"/>
			</g>
		</g>
		<g id="tshirt_1_">
			<path class="st1" d="M684,445.8c-2.5-18.5-9.3-41.6-21.8-72.8c-1.6-4-3.2-7.9-4.7-11.7c-6.4-16.1-12.1-29.7-17.7-41.7
				c-8-17-16-30.6-26.4-42.9c-4.5-5.3-9.3-10.4-14.8-15.4c-16.3-14.8-32.2-24-43.4-29.6c-0.4-0.2-0.7-0.3-1-0.5
				c-4.1,18.7-14.5,34.6-28.5,45.5c-12.4,9.6-27.5,15.3-43.4,15.7c-4,0.1-7.8-0.2-11.6-0.7c-13-1.9-24.9-7.4-34.7-14.9
				c-13-9.9-22.4-23.5-26.2-37c-1.7-6-2.1-11.3-2.1-15c-3.4,0.7-8.3,1.9-14.1,3.8c-2.5,0.8-5,1.8-7.4,2.7
				c-16.2,6.6-30.7,16.8-52.2,35.9c-3.3,3-6.8,6.1-10.4,9.5c-3.2,3-6.4,6.1-9.8,9.4c1.9-3.1,3.8-6.2,5.7-9.4
				c2.8-4.7,5.6-9.4,8.5-14.3c14.2-24.4,26.7-47.9,37.7-70.3c0.4-0.8,0.8-1.6,1.2-2.4c-3.8-1.3-7.6-2.6-11.4-3.9h0
				c-13.6-4.6-27.2-9.3-40.9-13.9c-4.3-1.5-8.6-2.9-12.9-4.4c-1.2-0.4-2.4-0.8-3.5-1.2c-7.2,9-13.6,17.7-19.3,25.8
				c-10.4,14.9-18.2,28.1-24,38.4c-7.7,13.9-16.5,29.7-24.1,46.2c-5.5,12-10.3,24.3-13.6,36.5c-4.5,16.6-6.2,33-2.9,48
				c0.7,3.3,1.7,6.6,2.9,9.8c0.7,1.8,1.5,3.5,2.3,5.3c2.3,4.5,8.3,16.3,21.2,23.6c16.9,9.5,35.2,5.4,57.8,0c1-0.2,2.1-0.5,3.2-0.8
				c15-3.8,35.7-10.8,58.5-24.3c-0.2,1.1-0.6,2.9-1.1,5.4c0,0,0,0,0,0c-2.3,11.1-7.1,35.4-13,65.5c-5,25.5-10.9,55.1-16.6,84.6
				c-5.9,30-11.7,59.7-16.6,84.6c-4.4,22.5-8.1,40.9-10.3,51.9c0.9,0,1.9-0.1,2.8-0.1c14.6-0.5,29.2-1.1,43.8-1.6
				c12.4-0.5,24.8-0.9,37.2-1.4c2.2-0.1,4.4-0.2,6.5-0.2c14.6-0.5,29.2-1.1,43.8-1.6c11.4-0.4,22.9-0.8,34.3-1.3
				c3.2-0.1,6.3-0.2,9.5-0.4c14.6-0.5,29.2-1.1,43.8-1.6c10.4-0.4,20.9-0.8,31.3-1.2c4.1-0.2,8.3-0.3,12.4-0.5
				c14.6-0.5,29.2-1.1,43.8-1.6l5.8-0.2c-0.4-4.3-0.8-8.6-1.1-12.8c-0.8-9.2-1.6-18.3-2.4-27.4c-0.5-5.4-0.9-10.9-1.4-16.3
				c-0.3-3.7-0.6-7.5-0.9-11.3c-0.3-4.1-0.7-8.1-1-12.2c-0.5-6.8-1.1-13.5-1.6-20.3c-0.7-8.2-1.3-16.3-1.9-24.5
				c-0.4-4.9-0.8-9.8-1.1-14.7c1.6,0.7,3.5,1.4,5.7,2.1c5.1,1.6,11.9,3.1,19.8,3.1c1.9,0,4.9,0,8.6-0.4c4.5-0.4,9.9-1.5,15.4-3.7
				c3.4-1.4,6.8-3.2,10-5.7c0.2-0.2,0.4-0.3,0.6-0.5c2.5-2,11.8-9.9,16.7-28.4c1.2-4.7,2-9.6,2.4-14.9
				C685.4,460.8,685.1,453.7,684,445.8z M445,345.6c0.2-0.5,0.7-1.7,2-2.3c6.3-3.1,20.5,15.2,22.3,17.6c-0.4-0.6-0.8-1.2-1.2-1.8
				c-1.2-1.7-7.9-12-12.4-23c-0.6-1.4-1.1-2.9-1.6-4.4c-0.5-1.6-1.5-4.8-0.1-7.7c0.9-1.7,2.7-3.6,4.8-3.6c2.5,0,4.3,2.9,5.4,4.6
				c2.7,4.3,4.5,7.7,6.1,11c0.1,0.2,0.2,0.5,0.4,0.7c1.4,2.8,2.7,5.6,4.4,8.8c0,0,2,3.8,5,8.5c1.4,2.2,3.1,4.7,4.8,7.1
				c-0.5-0.8-1.1-1.7-1.8-2.9c-0.1-0.2-0.3-0.4-0.4-0.7c-0.8-1.3-1.6-2.8-2.6-4.5c-0.5-1-1.1-2.1-1.7-3.3c-0.1-0.2-0.2-0.3-0.3-0.5
				c-0.3-0.6-0.6-1.2-0.8-1.7c-0.2-0.3-0.3-0.7-0.5-1c-1.4-3.1-2.8-6.6-4.1-10.4c-0.2-0.6-0.4-1.3-0.6-2c-0.1-0.4-0.2-0.8-0.4-1.2
				c-0.1-0.3-0.2-0.5-0.2-0.8c-0.1-0.2-0.1-0.5-0.2-0.7c-0.1-0.3-0.2-0.7-0.3-1c-0.1-0.3-0.2-0.6-0.2-0.9c-0.1-0.3-0.1-0.6-0.2-0.9
				v0c0,0,0-0.1,0-0.1c-0.7-2.8-1.4-5.9-1.7-8.8c-0.5-3.9-0.3-7.3,1.7-9c0,0,0,0,0,0c0.1-0.1,0.1-0.1,0.2-0.1c0.1,0,0.1-0.1,0.2-0.1
				c0.1,0,0.1-0.1,0.2-0.1c0.1-0.1,0.3-0.1,0.4-0.2c0.1,0,0.3-0.1,0.4-0.1c0.1,0,0.1,0,0.2-0.1c0.1,0,0.1,0,0.2,0c0,0,0.1,0,0.2,0
				c0.1,0,0.1,0,0.2,0c0,0,0.1,0,0.1,0c0.1,0,0.1,0,0.2,0c0.4,0,0.6,0,0.7,0c1.5,0.1,2.8,1.1,4,2.6c0.5,0.6,0.9,1.3,1.4,2
				c0.1,0.2,0.2,0.3,0.3,0.5c0.1,0.2,0.2,0.3,0.3,0.5c0.2,0.4,0.4,0.8,0.6,1.3c0.1,0.2,0.2,0.3,0.2,0.5c0.1,0.1,0.1,0.3,0.2,0.4
				c0,0.1,0.1,0.2,0.1,0.3c0.1,0.2,0.2,0.4,0.3,0.6c0.1,0.2,0.2,0.4,0.2,0.6c0.6,1.5,1.2,3.1,1.8,4.7c0.1,0.2,0.2,0.4,0.2,0.7
				c0.3,0.9,0.6,1.7,0.9,2.6c0.2,0.5,0.4,1,0.6,1.5c0.2,0.5,0.4,1.1,0.6,1.7c0.2,0.6,0.5,1.2,0.7,1.9c0.1,0.3,0.2,0.5,0.3,0.8
				c0.4,1.1,0.9,2.2,1.4,3.3c0.5,1.1,1,2.2,1.5,3.4c0.1,0.3,0.3,0.6,0.5,1c0.2,0.4,0.4,0.7,0.5,1.1c0.6,1.1,1.1,2.3,1.8,3.5
				c0.3,0.6,0.7,1.3,1,1.9c0.9,1.6,1.8,3.3,2.8,5c0.2,0.3,0.4,0.6,0.6,1c0.4,0.7,0.9,1.4,1.3,2.2c-2.6-6.1-4.5-11.8-6.1-16.9
				c-0.2-0.6-0.4-1.2-0.5-1.8c0-0.1-0.1-0.2-0.1-0.3c-0.2-0.6-0.3-1.1-0.5-1.7c-0.2-0.8-0.4-1.5-0.6-2.3c-0.2-0.6-0.3-1.2-0.5-1.8
				c-0.1-0.5-0.2-0.9-0.3-1.4c-0.1-0.5-0.2-0.9-0.3-1.4c-0.2-0.9-0.4-1.8-0.6-2.7c-1.8-9.3-3-16,0.6-18.9c1.1-0.9,3.1-1.7,4.9-1.2
				c4,1,4.5,7,9.3,23.3c0.2,0.7,0.4,1.4,0.6,2.1c0.2,0.7,0.4,1.4,0.6,2c0.2,0.7,0.4,1.3,0.6,2c0.2,0.7,0.4,1.3,0.6,2
				c0.1,0.2,0.2,0.5,0.2,0.7c0.3,0.8,0.6,1.6,0.9,2.4c0.2,0.4,0.3,0.9,0.5,1.3c0.1,0.4,0.3,0.8,0.5,1.2c0.4,0.9,0.7,1.8,1.1,2.7
				c0.1,0.4,0.3,0.7,0.5,1c0,0.1,0.1,0.2,0.1,0.3c0.1,0.3,0.3,0.6,0.4,0.9c0.2,0.4,0.4,0.8,0.5,1.1c0.2,0.5,0.5,1,0.8,1.6
				c1.4,2.9,3.2,6,3.4,6.3c0,0,0,0,0,0c-1.8-6.7-2.3-12.4-2.5-16.4c-0.1-1.2-0.1-2.2-0.1-3.1c0.1-4.1,0.8-6.1,2.3-7.4
				c0.2-0.1,0.4-0.3,0.6-0.4c0.1-0.1,0.2-0.1,0.4-0.2c0.1,0,0.1-0.1,0.2-0.1c0.1,0,0.1-0.1,0.2-0.1c0.1-0.1,0.3-0.1,0.4-0.2
				c0.1-0.1,0.3-0.1,0.4-0.1c0.1,0,0.1,0,0.2-0.1s0.1,0,0.2-0.1c0.2,0,0.3-0.1,0.5-0.1c0.1,0,0.3,0,0.4-0.1c0,0,0.1,0,0.1,0
				c0,0,0.1,0,0.1,0c0.1,0,0.3,0,0.4,0c0.1,0,0.1,0,0.2,0c0.1,0,0.3,0,0.4,0c0.1,0,0.2,0,0.2,0c0.3,0.1,0.6,0.2,0.9,0.4
				c0.1,0.1,0.3,0.2,0.4,0.3c0.1,0.1,0.2,0.2,0.3,0.2c0.1,0.1,0.1,0.1,0.2,0.2l0.1,0.1c0,0,0.1,0.1,0.1,0.1c0.1,0.1,0.2,0.2,0.2,0.3
				c0.1,0.1,0.1,0.2,0.2,0.2c0.1,0.1,0.2,0.3,0.3,0.4c0.1,0.1,0.2,0.3,0.2,0.4c0.1,0.2,0.2,0.4,0.3,0.5c0.1,0.3,0.3,0.6,0.4,1
				l0.1,0.4c0.1,0.2,0.1,0.3,0.2,0.5c0,0.1,0,0.2,0.1,0.2c0,0.1,0,0.2,0.1,0.2c0,0.1,0.1,0.3,0.1,0.4c0.1,0.4,0.2,0.9,0.4,1.3
				c0,0.1,0.1,0.3,0.1,0.4c0,0.2,0.1,0.4,0.1,0.5c0,0.2,0.1,0.4,0.1,0.6c1,4.5,1.8,10.2,3.5,16.4c0.2,0.9,0.5,1.8,0.8,2.7
				c0.1,0.2,0.1,0.4,0.2,0.6c0.1,0.4,0.3,0.9,0.4,1.3c0.1,0.2,0.1,0.3,0.2,0.5c0.3,0.9,0.6,1.8,1,2.7c0.1,0.3,0.2,0.5,0.3,0.8
				c0.1,0.1,0.1,0.3,0.2,0.4c0.7,1.9,1.6,4,2.6,6.1c0.4,0.8,0.8,1.6,1.2,2.4c0,0.1,0.1,0.1,0.1,0.2c0.2,0.5,0.5,1,0.7,1.4
				c0,0,0,0,0,0c0.3,0.6,0.6,1.2,1,1.8c0.2,0.3,0.4,0.6,0.5,1c0,0,0,0,0,0c0.1,0.2,0.2,0.4,0.3,0.6c0,0,0,0,0,0.1l-2.3,2
				c0,0,0,0-0.1,0l-2.8,2.5L524,387l-25,22c-1.2-1.3-2.4-2.5-3.6-3.7c0,0-0.1-0.1-0.1-0.1c-0.5-0.5-0.9-0.9-1.3-1.4
				c-4.6-4.7-8.9-9.1-12.9-13.1c-0.1-0.1-0.3-0.3-0.4-0.4c-0.1-0.1-0.3-0.3-0.4-0.4c-0.2-0.2-0.4-0.4-0.6-0.6
				c-0.2-0.2-0.4-0.4-0.6-0.6c-0.4-0.4-0.8-0.8-1.3-1.3c-0.7-0.7-1.4-1.4-2.1-2.1c-0.8-0.8-1.5-1.5-2.3-2.3
				c-0.3-0.3-0.6-0.6-0.9-0.9c-0.6-0.6-1.2-1.2-1.7-1.7c-0.2-0.2-0.3-0.3-0.5-0.5c-2.3-2.3-4.4-4.4-6.5-6.5
				c-0.2-0.2-0.5-0.5-0.7-0.7c-0.3-0.2-0.5-0.5-0.7-0.7c-1-1-1.9-1.9-2.9-2.8c-0.7-0.7-1.5-1.5-2.3-2.2c-0.2-0.2-0.3-0.3-0.5-0.5
				l-0.5-0.5c-1.1-1.2-2.3-2.4-3.5-3.7c-0.3-0.3-0.6-0.6-0.9-1c0,0-0.1-0.1-0.1-0.1c0,0,0,0,0,0c-0.2-0.2-0.3-0.4-0.5-0.5
				c-0.4-0.5-0.8-0.9-1.2-1.4c-0.2-0.2-0.4-0.5-0.6-0.7c-0.1-0.1-0.2-0.2-0.3-0.4c-0.1-0.2-0.3-0.4-0.4-0.5
				c-0.1-0.2-0.3-0.4-0.4-0.5c-0.4-0.6-0.8-1.2-1.2-1.8c-0.1-0.2-0.2-0.4-0.3-0.5c-0.5-0.8-0.9-1.5-1.2-2.3
				c-0.1-0.2-0.1-0.3-0.2-0.5c-0.1-0.3-0.3-0.6-0.4-0.9c-0.1-0.2-0.1-0.3-0.2-0.5c0-0.1-0.1-0.3-0.1-0.4c-0.1-0.2-0.1-0.4-0.1-0.5
				c0-0.1,0-0.2,0-0.2c-0.1-0.3-0.1-0.6-0.1-0.9c0,0,0-0.1,0-0.1c0,0,0-0.1,0-0.1c0-0.1,0-0.3,0-0.4
				C444.5,347.1,444.7,346.3,445,345.6z M301.6,304.7l-16.7,25.7c5.5-8.1,11.1-16.5,16.7-25.1c4-6.1,7.9-12.4,11.9-18.8L301.6,304.7
				z"/>
			<path d="M630.5,440.4c-0.2,0-0.3,0-0.5-0.1L536.8,376c-0.4-0.3-0.5-0.8-0.2-1.2s0.8-0.5,1.2-0.2l93.2,64.2
				c0.4,0.3,0.5,0.8,0.2,1.2C631,440.3,630.8,440.4,630.5,440.4z"/>
			<path d="M614.9,519.3c-0.1,0-0.2,0-0.2,0c-3-0.9-6.1-1.8-9.1-2.9c-26.8-9.2-45.1-22.2-69.9-40.9c-19.7-14.9-39.3-30.2-58.3-45.5
				c-0.2-0.2-0.3-0.4-0.3-0.6s0.1-0.5,0.3-0.7l59.4-54c0.3-0.3,0.9-0.3,1.2,0.1s0.3,0.9-0.1,1.2l-58.7,53.4
				c18.7,15.1,38.1,30.2,57.5,44.9c24.7,18.6,42.9,31.6,69.4,40.7c3,1,6,2,9,2.9c0.5,0.1,0.7,0.6,0.6,1.1
				C615.6,519.1,615.3,519.3,614.9,519.3z"/>
			<path d="M588.4,411.4c-0.4,0-0.8-0.3-0.8-0.7L575.8,336c-0.1-0.5,0.2-0.9,0.7-1c0.5-0.1,0.9,0.2,1,0.7l11.7,74.7
				c0.1,0.5-0.2,0.9-0.7,1C588.5,411.4,588.4,411.4,588.4,411.4z"/>
			<path d="M359,381.1c-0.1,0-0.1,0-0.2,0c-0.5-0.1-0.7-0.6-0.6-1l6.3-26.1c0.1-0.5,0.6-0.7,1-0.6c0.5,0.1,0.7,0.6,0.6,1l-6.3,26.1
				C359.7,380.9,359.4,381.1,359,381.1z"/>
			<path d="M479.6,276.9c-4.4,0-8.3-0.5-11.5-1.1c-23.9-4.7-44.6-24.8-54.1-52.5c-0.2-0.4,0.1-0.9,0.5-1.1c0.4-0.2,0.9,0.1,1.1,0.5
				c9.3,27.1,29.5,46.8,52.8,51.4c8.6,1.7,22.4,2.2,38.8-5c23-10.2,34.1-30.2,38.7-41.2c0.2-0.4,0.7-0.6,1.1-0.5
				c0.4,0.2,0.6,0.7,0.5,1.1c-4.7,11.3-16,31.7-39.5,42.1C497.2,275.4,487.5,276.9,479.6,276.9z"/>
			<g id="pattern_1_">
				<path d="M217,371.9c-0.5,0-0.9-0.4-0.9-0.8v-57.8c0-0.5,0.4-0.9,0.9-0.9s0.9,0.4,0.9,0.9V371C217.9,371.5,217.5,371.9,217,371.9
					z"/>
				<path d="M301.6,400c-0.5,0-0.9-0.4-0.9-0.8V167.5c0-0.5,0.4-0.9,0.9-0.9s0.9,0.4,0.9,0.9v231.6C302.5,399.6,302.1,400,301.6,400
					z"/>
				<path d="M386.2,664.6c-0.5,0-0.9-0.4-0.9-0.8V231.2c0-0.5,0.4-0.9,0.9-0.9s0.9,0.4,0.9,0.9v432.5
					C387,664.2,386.6,664.6,386.2,664.6z"/>
				<path d="M470.7,311.5c-0.5,0-0.8-0.4-0.8-0.9v-19.1c0-0.5,0.4-0.9,0.8-0.9s0.8,0.4,0.8,0.9v19.1
					C471.6,311.1,471.2,311.5,470.7,311.5z"/>
				<path d="M470.7,337.6c-0.5,0-0.8-0.4-0.8-0.8v-8.3c0-0.5,0.4-0.9,0.8-0.9s0.8,0.4,0.8,0.8v8.3
					C471.6,337.3,471.2,337.6,470.7,337.6z"/>
				<path d="M470.7,661.5c-0.5,0-0.8-0.4-0.8-0.8V380.3c0-0.5,0.4-0.8,0.8-0.8s0.8,0.4,0.8,0.8v280.3
					C471.6,661.1,471.2,661.5,470.7,661.5z"/>
				<path d="M555.3,658.3c-0.5,0-0.8-0.4-0.8-0.8V231.7c0-0.5,0.4-0.9,0.8-0.9s0.8,0.4,0.8,0.9v425.8
					C556.2,658,555.8,658.3,555.3,658.3z"/>
				<path d="M639.9,521.4c-0.5,0-0.8-0.4-0.8-0.8V319.6c0-0.5,0.4-0.9,0.8-0.9s0.8,0.4,0.8,0.9v200.9
					C640.7,521,640.3,521.4,639.9,521.4z"/>
				<path d="M613.8,615.8H312.7c-0.5,0-0.9-0.4-0.9-0.8s0.4-0.8,0.9-0.8h301.1c0.5,0,0.8,0.4,0.8,0.8S614.3,615.8,613.8,615.8z"/>
				<path d="M607,531.2H329.3c-0.5,0-0.9-0.4-0.9-0.8s0.4-0.8,0.9-0.8H607c0.5,0,0.8,0.4,0.8,0.8S607.4,531.2,607,531.2z"/>
				<path d="M684,446.6H345.9c-0.5,0-0.9-0.4-0.9-0.8s0.4-0.8,0.9-0.8H684c0.5,0,0.8,0.4,0.8,0.8S684.5,446.6,684,446.6z"/>
				<path d="M451.8,362.1H214.1c-0.5,0-0.9-0.4-0.9-0.8s0.4-0.8,0.9-0.8h237.7c0.5,0,0.9,0.4,0.9,0.8S452.3,362.1,451.8,362.1z"/>
				<path d="M657.6,362.1H530.5c-0.5,0-0.8-0.4-0.8-0.8s0.4-0.8,0.8-0.8h127.1c0.5,0,0.8,0.4,0.8,0.8S658.1,362.1,657.6,362.1z"/>
				<path d="M613.5,277.5h-87.7c-0.5,0-0.8-0.4-0.8-0.9s0.4-0.9,0.8-0.9h87.7c0.5,0,0.8,0.4,0.8,0.9S614,277.5,613.5,277.5z"/>
				<path d="M436.1,277.5H323.5c-0.5,0-0.9-0.4-0.9-0.9s0.4-0.9,0.9-0.9h112.5c0.5,0,0.9,0.4,0.9,0.9S436.5,277.5,436.1,277.5z"/>
				<path d="M319.4,277.5h-88.7c-0.5,0-0.9-0.4-0.9-0.9s0.4-0.9,0.9-0.9h88.7c0.5,0,0.9,0.4,0.9,0.9S319.9,277.5,319.4,277.5z"/>
				<path d="M365.5,192.9h-86.8c-0.5,0-0.9-0.4-0.9-0.9s0.4-0.9,0.9-0.9h86.8c0.5,0,0.9,0.4,0.9,0.9S366,192.9,365.5,192.9z"/>
			</g>
		</g>
		<g id="hand_r_1_">
			<path d="M518.7,363.4c-0.4,0-0.8-0.5-1-0.8c-0.1-0.1-0.1-0.2-0.1-0.3c-0.1-0.2-0.2-0.4-0.4-0.6c-0.9-1.4-2.4-3.8-3.4-5.6
				c0,0,0,0,0-0.1h0c-0.5-0.8-2.1-3.7-3.4-6.3c-0.2-0.5-0.5-1-0.7-1.5l0-0.1c-0.2-0.4-0.4-0.8-0.5-1.2l-0.4-0.9
				c0-0.1-0.1-0.2-0.1-0.3c-0.1-0.3-0.3-0.7-0.4-1c-0.4-0.9-0.7-1.8-1.1-2.7l-0.1-0.4c-0.1-0.3-0.2-0.6-0.3-0.8
				c-0.2-0.4-0.3-0.9-0.5-1.3c-0.3-0.7-0.5-1.4-0.8-2.1l-0.4-1c-0.2-0.7-0.4-1.3-0.7-2l-0.6-2c-0.2-0.6-0.4-1.1-0.5-1.7l-0.1-0.3
				c-0.2-0.7-0.4-1.3-0.6-2c-1.2-4-2.1-7.5-2.9-10.2c-2.3-8.4-3.2-11.9-5.8-12.5c-1.5-0.4-3.2,0.3-4.2,1.1
				c-3.2,2.6-1.9,9.8-0.3,18.1c0.2,0.9,0.4,1.8,0.6,2.7c0.1,0.5,0.2,0.9,0.3,1.3c0.1,0.5,0.2,0.9,0.3,1.4c0.1,0.6,0.3,1.2,0.5,1.8
				c0.2,0.6,0.3,1.2,0.5,1.8l0.1,0.5c0.2,0.5,0.3,1.1,0.5,1.6c0,0.1,0.1,0.2,0.1,0.3c0.2,0.6,0.4,1.2,0.5,1.9
				c1.7,5.6,3.7,11.3,6,16.8c0.2,0.4,0,0.9-0.4,1.1c-0.4,0.2-0.9,0.1-1.1-0.3l-1.3-2.2c-0.2-0.3-0.4-0.7-0.6-1
				c-1-1.7-1.9-3.4-2.8-5.1c-0.3-0.6-0.7-1.3-1-1.9c-0.6-1.2-1.2-2.4-1.8-3.5l-1-2.1c-0.5-1.2-1.1-2.3-1.6-3.4
				c-0.5-1.1-1-2.3-1.4-3.3l-0.1-0.2c-0.1-0.2-0.2-0.4-0.2-0.5l-0.1-0.2c-0.2-0.6-0.5-1.1-0.7-1.7c-0.2-0.6-0.4-1.1-0.6-1.7
				c-0.2-0.5-0.4-1-0.5-1.5c-0.3-0.9-0.6-1.8-1-2.7c-0.1-0.2-0.2-0.4-0.2-0.7c-0.6-1.5-1.1-3.1-1.8-4.6c-0.1-0.2-0.2-0.4-0.2-0.5
				l0-0.1c-0.1-0.2-0.1-0.3-0.2-0.5c-0.1-0.1-0.1-0.2-0.1-0.3l-0.4-0.9c-0.2-0.4-0.4-0.8-0.6-1.2c-0.1-0.2-0.2-0.3-0.3-0.5
				c-0.1-0.2-0.2-0.3-0.3-0.5c-0.4-0.8-0.9-1.4-1.3-1.9c-1.1-1.4-2.2-2.2-3.4-2.3c-0.5,0-1.5,0-2.4,0.7c0,0,0,0-0.1,0
				c-1.5,1.2-1.9,3.9-1.4,8.2c0.3,2.8,1,5.8,1.7,8.7c0,0,0,0.1,0,0.2c0.1,0.3,0.1,0.5,0.2,0.8c0.1,0.3,0.2,0.6,0.2,0.9l0,0.1
				c0.1,0.3,0.2,0.6,0.2,0.9c0.1,0.2,0.1,0.5,0.2,0.7c0,0.2,0.1,0.3,0.1,0.5l0.1,0.3c0.1,0.4,0.2,0.7,0.3,1.1l0.1,0.3
				c0.2,0.6,0.4,1.2,0.6,1.8c1.1,3.4,2.5,6.9,4,10.3c0.1,0.3,0.3,0.7,0.5,1c0.3,0.6,0.6,1.2,0.8,1.7l0.3,0.5
				c0.6,1.1,1.1,2.2,1.7,3.2c0.8,1.4,1.6,2.8,2.5,4.5l0.4,0.7c0.7,1.1,1.3,2.1,1.8,2.8l-0.7,0.5l-0.7,0.5l0.7-0.5l-0.8,0.4
				c-0.5-0.7-1.1-1.7-1.8-2.9l-0.4-0.7c-1-1.6-1.8-3.1-2.6-4.5c-0.6-1-1.1-2.1-1.7-3.3l-0.3-0.5c-0.3-0.6-0.6-1.2-0.8-1.8
				c-0.2-0.3-0.3-0.7-0.5-1c-1.6-3.5-3-7-4.1-10.5c-0.2-0.6-0.4-1.2-0.6-1.8l-0.1-0.3c-0.1-0.4-0.2-0.7-0.3-1.1l-0.1-0.3
				c0-0.2-0.1-0.3-0.1-0.5c-0.1-0.2-0.1-0.4-0.2-0.7c-0.1-0.3-0.2-0.6-0.2-0.9l0-0.1c-0.1-0.3-0.2-0.6-0.2-1
				c-0.1-0.3-0.1-0.6-0.2-0.9c0,0,0,0,0,0c0,0,0,0,0,0c-0.7-3-1.4-6.1-1.8-8.9c-0.6-5,0-8.1,2.1-9.7l0,0c0,0,0,0,0.1-0.1
				c1.3-1,2.7-1.1,3.5-1c1.7,0.2,3.2,1.1,4.6,2.9c0.5,0.6,1,1.3,1.4,2.1c0.1,0.2,0.2,0.3,0.3,0.5c0.1,0.1,0.2,0.3,0.3,0.5
				c0.2,0.4,0.4,0.8,0.6,1.3l0.4,1c0,0.1,0.1,0.2,0.1,0.3c0.1,0.1,0.1,0.3,0.2,0.5l0,0.1c0.1,0.2,0.2,0.4,0.2,0.6
				c0.6,1.5,1.2,3.1,1.8,4.7c0.1,0.2,0.2,0.4,0.2,0.7c0.3,0.9,0.6,1.7,0.9,2.6c0.2,0.5,0.4,1,0.6,1.5c0.2,0.5,0.4,1.1,0.6,1.7
				c0.2,0.5,0.4,1.1,0.7,1.6l0.1,0.2c0.1,0.2,0.2,0.4,0.2,0.5l0.1,0.2c0.4,1.1,0.9,2.2,1.4,3.3c0.5,1.1,1,2.2,1.5,3.4l1,2.1
				c0.6,1.1,1.1,2.3,1.8,3.5c0,0,0,0.1,0.1,0.1c-0.7-2.1-1.4-4.2-2-6.3c-0.2-0.6-0.4-1.2-0.5-1.8c0-0.1-0.1-0.2-0.1-0.3
				c-0.2-0.6-0.3-1.1-0.5-1.7l-0.1-0.5c-0.2-0.6-0.3-1.2-0.5-1.8c-0.2-0.6-0.3-1.2-0.5-1.8c-0.1-0.5-0.2-0.9-0.3-1.4
				c-0.1-0.4-0.2-0.9-0.3-1.4c-0.2-0.9-0.4-1.8-0.6-2.7c-1.7-9.2-3.1-16.5,0.9-19.7c1.2-1,3.4-2,5.7-1.4c3.5,0.9,4.6,4.6,7,13.7
				c0.8,2.9,1.7,6.2,2.8,10.1c0.2,0.7,0.4,1.4,0.6,2.1l0.1,0.4c0.2,0.6,0.3,1.1,0.5,1.7l0.6,2c0.2,0.7,0.4,1.3,0.6,1.9l0.3,1
				c0.2,0.7,0.5,1.4,0.7,2.1c0.2,0.4,0.3,0.9,0.5,1.3c0.1,0.3,0.2,0.6,0.3,0.8l0.1,0.4c0.3,0.9,0.7,1.8,1.1,2.6
				c0.1,0.4,0.3,0.7,0.4,1l0.5,1.2c0.2,0.4,0.3,0.8,0.5,1.1l0,0.1c0.2,0.5,0.5,1,0.7,1.4c1.3,2.6,2.9,5.5,3.3,6.3c0,0,0,0,0,0.1
				c1,1.8,2.5,4.1,3.4,5.5c1,1.6,1.2,2,0.5,2.5C519,363.3,518.9,363.4,518.7,363.4z"/>
			<path d="M475.8,371.3c-0.3,0-0.5-0.1-0.7-0.4c-1.7-2.5-3.3-4.9-4.8-7l-0.2-0.4c-0.4-0.6-0.8-1.2-1.2-1.8
				c-0.1-0.1-0.2-0.2-0.3-0.4c-0.3-0.4-0.6-0.9-0.9-1.3l-0.3-0.5c-1.8-2.8-8.2-12.6-12.4-23.2c-0.6-1.5-1.2-3-1.6-4.4
				c-0.5-1.5-1.7-5,0-8.3c1-2,3.1-4,5.5-4c0,0,0,0,0.1,0c3.1,0.1,5,3.3,6.1,5c2.7,4.4,4.6,7.9,6.1,11c0.1,0.2,0.2,0.5,0.4,0.7l1,2
				c1.1,2.1,2.1,4.3,3.4,6.7c0,0,2.1,3.8,5,8.4c1.6,2.5,3.2,4.9,4.7,7c0.1,0.1,0.1,0.1,0.1,0.2c0.2,0.4,0.1,0.9-0.3,1.1
				c-0.4,0.3-0.9,0.2-1.2-0.2c0,0,0,0-0.1-0.1v0c-1.6-2.1-3.2-4.5-4.8-7.1c-3-4.7-5-8.5-5.1-8.5c-1.3-2.4-2.4-4.6-3.5-6.8l-1-2
				c-0.1-0.2-0.2-0.5-0.4-0.7c-1.5-3.1-3.3-6.6-6.1-10.9c-0.9-1.5-2.6-4.2-4.7-4.2c-1.6-0.1-3.3,1.5-4.1,3.1c-1.3,2.6-0.3,5.7,0.1,7
				c0.5,1.4,1,2.9,1.6,4.3c4.2,10.4,10.5,20.1,12.3,22.9l0.3,0.5c0.3,0.4,0.6,0.9,0.9,1.3c0.1,0.1,0.2,0.2,0.2,0.4
				c0.4,0.6,0.8,1.2,1.2,1.8l0.2,0.4c1.5,2.2,3,4.5,4.8,7c0.3,0.4,0.2,0.9-0.2,1.2C476.1,371.2,475.9,371.3,475.8,371.3z"/>
			<path d="M498.9,409.8c-0.2,0-0.4-0.1-0.6-0.3c-1.1-1.1-2.2-2.2-3.2-3.3l-0.4-0.4c0,0-0.1-0.1-0.1-0.1c0,0,0,0-0.1-0.1l-1.3-1.3
				c-4.6-4.7-8.9-9.1-12.9-13.1l-2-2c-0.4-0.4-0.8-0.8-1.3-1.3l-2.1-2.1c-1.7-1.7-3.3-3.3-4.9-4.9l-0.2-0.2
				c-0.1-0.1-0.2-0.2-0.3-0.3c-2.3-2.3-4.5-4.4-6.5-6.5c-0.2-0.2-0.5-0.5-0.7-0.7c-0.2-0.2-0.4-0.4-0.6-0.6l-1.2-1.2
				c-0.6-0.6-1.2-1.2-1.8-1.8l-0.2-0.2c-2.2-2.2-4.9-4.9-7.4-7.7c-6.3-7.2-8.6-12.6-7-16.5c0.6-1.3,1.4-2.3,2.4-2.8
				c6.6-3.2,19.6,12.8,23.4,17.8c0.3,0.4,0.2,0.9-0.2,1.2c-0.4,0.3-0.9,0.2-1.2-0.2c-7.7-10-17.2-19.3-21.3-17.3
				c-1,0.5-1.4,1.5-1.6,1.9c-1.3,3.2,0.9,8.1,6.7,14.7c2.5,2.8,5.2,5.5,7.4,7.6l0.2,0.2c0.6,0.6,1.2,1.2,1.8,1.8l1.2,1.2
				c0.2,0.2,0.4,0.4,0.6,0.6c0.2,0.2,0.5,0.5,0.7,0.7c2.1,2,4.2,4.2,6.5,6.5c0.1,0.1,0.2,0.2,0.3,0.3l0.1,0.2
				c1.6,1.6,3.2,3.2,4.9,4.9l2.1,2.1c0.4,0.4,0.8,0.8,1.3,1.3l2,2c4,4,8.2,8.4,12.9,13.1l1.3,1.4c0.1,0.1,0.1,0.1,0.1,0.1l0.4,0.4
				c0.9,0.9,1.8,1.8,2.7,2.7l35.3-31c0,0,0.1-0.1,0.1-0.1l1.8-1.6l0,0c0,0,0,0,0-0.1l-0.5-1c-0.3-0.6-0.7-1.2-1-1.8h0c0,0,0,0,0-0.1
				c-0.2-0.5-0.5-1-0.7-1.4c0,0,0-0.1-0.1-0.2c-0.4-0.9-0.8-1.7-1.2-2.5c-1-2.1-1.9-4.1-2.7-6.2l-0.3-0.8c-0.1-0.2-0.1-0.3-0.2-0.5
				c-0.4-0.9-0.7-1.9-1-2.8c0-0.1-0.1-0.2-0.1-0.3l-0.1-0.2c-0.2-0.5-0.3-0.9-0.4-1.4l-0.2-0.6c-0.3-1-0.6-1.9-0.8-2.8
				c-1.1-4.2-1.9-8.1-2.6-11.6c-0.3-1.7-0.7-3.4-1-4.9c0-0.2-0.1-0.4-0.1-0.6c-1.1-4.9-2.3-7.1-4.2-7.5c-1.4-0.4-3.2,0.4-4.2,1.2
				c-1.4,1.1-1.9,3.1-2,6.7c0,0.9,0,1.9,0.1,3.1c0.2,5.4,1.1,10.9,2.5,16.3c0,0,0,0,0,0c0,0.1,0,0.1,0,0.2c0,0.5-0.4,0.8-0.8,0.8
				c-0.4,0-0.8-0.3-0.8-0.7c-1.4-5.5-2.3-11.1-2.6-16.6c-0.1-1.3-0.1-2.3-0.1-3.2c0.1-4.2,0.8-6.5,2.6-8c1.3-1.1,3.5-2.1,5.7-1.6
				c3,0.8,4.3,4.1,5.4,8.8c0,0.2,0.1,0.4,0.1,0.6c0.3,1.5,0.7,3.2,1,4.9c0.7,3.5,1.4,7.4,2.5,11.5c0.2,0.8,0.5,1.7,0.8,2.7l0.2,0.6
				c0.1,0.4,0.3,0.9,0.4,1.3l0.1,0.2c0,0.1,0.1,0.2,0.1,0.3c0.3,0.9,0.6,1.8,1,2.7c0.1,0.2,0.1,0.3,0.2,0.5l0.3,0.8
				c0.8,2,1.6,4,2.6,6.1c0.4,0.8,0.8,1.6,1.2,2.4l0.1,0.1c0.3,0.6,0.5,1,0.8,1.5c0,0,0,0,0,0.1c0.3,0.6,0.6,1.1,0.9,1.7l0.5,1
				c0,0,0,0,0,0l0.3,0.6c0,0,0,0.1,0.1,0.1c0.2,0.3,0.1,0.8-0.2,1l-2.3,2l0,0c0,0,0,0-0.1,0.1l-36,31.6
				C499.3,409.7,499.1,409.8,498.9,409.8z"/>
			<path d="M537.3,375.2C537.3,375.2,537.3,375.2,537.3,375.2c-0.8,0.7-1.6,1.4-2.3,2.1c0,0,0,0-0.1,0l-2.7,2.5
				c-1.6,1.5-3.2,3-4.9,4.5c0,0,0,0,0,0c-1.1,1-2.2,2.1-3.4,3.1c-8.1,7.4-16.2,14.9-24.3,22.3c0,0-0.1-0.1-0.1-0.1
				c-0.9-0.9-1.7-1.8-2.6-2.7c-0.5-0.6-1.1-1.1-1.6-1.7c0,0-0.1-0.1-0.1-0.1c9.6-7.2,19.2-14.4,28.8-21.6c1.6-1.2,3.3-2.5,4.9-3.7
				c2.5-1.9,5.1-3.8,7.6-5.7c0.1,0.2,0.3,0.4,0.4,0.5c0,0,0,0,0,0C537,374.8,537.2,375,537.3,375.2z"/>
		</g>
		<g id="neclace_1_">
			<path d="M480.2,249.4C480.2,249.4,480.2,249.4,480.2,249.4c-0.2,0-0.5-0.1-0.6-0.3l-29.4-32.8c-0.3-0.3-0.3-0.9,0.1-1.2
				c0.3-0.3,0.9-0.3,1.2,0.1l28.8,32.1l30-31.8c0.3-0.3,0.9-0.4,1.2,0c0.3,0.3,0.4,0.9,0,1.2l-30.6,32.5
				C480.7,249.3,480.5,249.4,480.2,249.4z"/>
			<circle cx="480.4" cy="250.9" r="4.7"/>
		</g>
		<g id="hand_l_1_">
			<path d="M363.6,128.8c-0.2,0-0.5-0.1-0.7-0.3c-0.3-0.4-0.3-0.9,0.1-1.2c3-2.5,5.9-4.7,8.8-6.6l0.5-0.3c2.5-1.6,4.9-2.9,7.2-4
				c0.3-0.1,0.6-0.3,1-0.5c1.2-0.6,2.8-1.6,3.4-3.4c0.5-1.5,0.3-3.6-0.5-5.2c-0.3-0.5-0.6-1-1-1.3c-0.3-0.2-0.6-0.4-0.9-0.5
				c-1.9-0.7-5.6,0-10.9,2.2c-3.3,1.4-4.8,2.1-6.5,3c-5.2,2.8-8.7,5.4-10.3,6.5l-0.3,0.2c-5.2,3.8-11.7,6.9-19.5,9.4
				c-0.5,0.1-0.9-0.1-1.1-0.6c-0.1-0.4,0.1-0.9,0.6-1.1c7.6-2.4,14-5.5,19-9.1l0.3-0.2c1.6-1.1,5.2-3.8,10.5-6.6
				c1.7-0.9,3.3-1.7,6.6-3.1c5.9-2.4,9.7-3.2,12.1-2.3c0.5,0.2,1,0.4,1.4,0.8c0.5,0.5,1,1.1,1.4,1.8c1.1,2,1.4,4.6,0.6,6.6
				c-0.6,1.7-2,3.2-4.2,4.3c-0.4,0.2-0.7,0.4-1,0.5c-2.3,1.1-4.6,2.4-7,3.9l-0.2,0.1c-0.1,0.1-0.2,0.1-0.3,0.2
				c-2.8,1.9-5.8,4.1-8.7,6.5C364,128.8,363.8,128.8,363.6,128.8z"/>
			<path d="M355.4,186.6c-0.5,0-0.9-0.4-0.9-0.9c0-0.3,0.2-0.6,0.4-0.7c1.7-1.3,4.5-3.4,8-6.1c4.2-3.2,8.1-6.1,11.6-8.7
				c4.3-3.2,8-6,11.2-8.5c4-3.1,7-5.4,9.2-7.3c0.4-0.3,0.8-0.7,1.3-1.1c2.9-2.4,7-5.7,6.6-9.1c-0.2-1.6-1.2-3.1-1.5-3.5
				c-1.9-2.5-4.6-3.1-5.7-3.2c-0.3,0-0.5-0.2-0.6-0.5c-0.1-0.2-0.1-0.5,0-0.8c1.2-2.2,0.8-4.9-0.9-6.6c-1.6-1.7-4.2-2.2-6.3-1.2
				c-0.4,0.2-0.8,0-1.1-0.3c-0.2-0.4-0.1-0.8,0.2-1.1c2.5-2,3.3-5.6,1.7-8c-0.6-0.9-1.5-1.6-2.6-2.1c-1-0.4-2.2-0.5-3.3-0.4
				c-0.5,0.1-0.9-0.3-1-0.7c-0.1-0.5,0.3-0.9,0.7-1c1.4-0.2,2.9,0,4.1,0.5c1.4,0.6,2.6,1.5,3.4,2.7c1.6,2.5,1.4,5.7-0.2,8.2
				c2-0.1,4.1,0.7,5.5,2.2c2,2,2.6,5,1.6,7.6c1.6,0.4,3.9,1.4,5.7,3.7c0.5,0.7,1.7,2.4,1.9,4.4c0.5,4.3-4,7.9-7.2,10.6
				c-0.4,0.4-0.9,0.7-1.3,1c-2.3,1.9-5.2,4.3-9.3,7.4c-3.2,2.5-7,5.3-11.2,8.5c-3.5,2.6-7.3,5.5-11.6,8.7c-3.5,2.6-6.3,4.8-8,6.1
				C355.7,186.6,355.5,186.6,355.4,186.6z"/>
			<path d="M314.5,172.7c-0.1,0-0.1,0-0.2,0c-0.5-0.1-0.8-0.5-0.7-1c1.4-7,3-14.1,4.8-21c4.6-17.8,7-26.8,11.1-31.8
				c2.7-3.2,4.5-4.1,6.9-5.2c2.5-1.2,6-2.8,12.4-8c2.9-2.4,5.3-4.6,7.5-6.6c5.3-4.8,8.8-8,12.6-6.9c2.3,0.7,4.2,2.8,5.5,6.4
				c0.2,0.4-0.1,0.9-0.5,1.1c-0.4,0.2-0.9-0.1-1.1-0.5c-1.1-3-2.6-4.8-4.4-5.4c-2.9-0.8-6.1,2.1-11,6.6c-2.2,2-4.6,4.2-7.5,6.6
				c-6.6,5.4-10.1,7-12.7,8.2c-2.4,1.1-3.9,1.8-6.3,4.8c-3.9,4.7-6.3,14.1-10.7,31.1c-1.8,6.8-3.4,13.9-4.7,20.9
				C315.2,172.4,314.9,172.7,314.5,172.7z"/>
			<path d="M376.1,136.8c-0.3,0-0.5-0.1-0.7-0.3c-0.3-0.4-0.2-0.9,0.2-1.2l11.2-8.2c0.4-0.3,0.9-0.2,1.2,0.2
				c0.3,0.4,0.2,0.9-0.2,1.2l-11.2,8.2C376.5,136.7,376.3,136.8,376.1,136.8z"/>
			<path d="M389,145.8c-0.2,0-0.4-0.1-0.5-0.2c-0.4-0.3-0.4-0.8-0.1-1.2l6.7-8.3c0.3-0.4,0.8-0.4,1.2-0.1c0.4,0.3,0.4,0.8,0.1,1.2
				l-6.7,8.3C389.5,145.7,389.3,145.8,389,145.8z"/>
		</g>
	</g>
</g>
</svg>
