<?xml version="1.0" encoding="utf-8"?>
<!-- Generator: Adobe Illustrator 22.1.0, SVG Export Plug-In . SVG Version: 6.00 Build 0)  -->
<svg version="1.1" xmlns="http://www.w3.org/2000/svg" xmlns:xlink="http://www.w3.org/1999/xlink" x="0px" y="0px"
	 viewBox="0 0 870 660.6" style="enable-background:new 0 0 870 660.6;" xml:space="preserve">
<style type="text/css">
	.st0{fill:#FFDEE9;}
	.st1{fill:#762AE2;}
	.st2{fill:#762AE2;stroke:#000000;stroke-width:1.7;stroke-linecap:round;stroke-linejoin:round;stroke-miterlimit:10;}
	.st3{fill:none;}
</style>
<g id="background">
	<g id="background_1_">
		<path d="M678.6,32.3c-8.1,0-16.6-6.2-25.3-18.4c-0.2-0.3-0.2-0.8,0.2-1c0.3-0.2,0.8-0.2,1,0.2c8.7,12.2,17,18.2,24.8,17.7
			c6.3-0.3,10.7-4.7,15.4-9.2c4.7-4.6,9.6-9.4,16.7-9.8c7.9-0.4,16.1,4.9,24.3,15.6c0.3,0.3,0.2,0.8-0.1,1.1
			c-0.3,0.3-0.8,0.2-1.1-0.1c-7.9-10.3-15.7-15.4-23-15c-6.5,0.3-11,4.7-15.7,9.3c-4.6,4.6-9.4,9.3-16.3,9.7
			C679.2,32.2,678.9,32.3,678.6,32.3z"/>
		<path d="M768.3,599.6c-14.2,0-29.3-11-44.7-32.6c-0.2-0.3-0.2-0.8,0.2-1c0.3-0.2,0.8-0.2,1,0.2c15.7,22,30.7,32.7,44.9,32
			c11.5-0.6,19.5-8.4,27.8-16.7c8.3-8.2,17-16.7,29.4-17.3c13.9-0.7,28.3,8.6,42.9,27.7c0.3,0.3,0.2,0.8-0.1,1.1
			c-0.3,0.3-0.8,0.2-1.1-0.1c-14.3-18.6-28.3-27.8-41.6-27.1c-11.9,0.6-20.3,8.9-28.5,16.9c-8.2,8.1-16.7,16.4-28.8,17.1
			C769.2,599.6,768.8,599.6,768.3,599.6z"/>
		<path d="M43.3,130.4c-11.3,0-23.2-8.7-35.4-25.8c-0.2-0.3-0.2-0.8,0.2-1c0.3-0.2,0.8-0.2,1,0.2c12.3,17.3,24.2,25.7,35.3,25.1
			c9-0.5,15.3-6.6,21.8-13.1c6.6-6.5,13.4-13.2,23.3-13.7c11-0.5,22.4,6.8,34,21.9c0.3,0.3,0.2,0.8-0.1,1.1
			c-0.3,0.3-0.8,0.2-1.1-0.1c-11.2-14.7-22.2-21.8-32.7-21.3c-9.3,0.5-15.9,7-22.3,13.3c-6.5,6.4-13.2,13-22.8,13.5
			C44.1,130.4,43.7,130.4,43.3,130.4z"/>
		<path d="M154,259.3c-0.3,0-0.5-0.1-0.6-0.4l-9.4-16.4c-0.2-0.4-0.1-0.8,0.3-1l16.4-9.4c0.4-0.2,0.8-0.1,1,0.3l9.4,16.4
			c0.2,0.4,0.1,0.8-0.3,1l-16.4,9.4C154.3,259.2,154.2,259.3,154,259.3z M145.6,242.4l8.7,15.1l15.1-8.7l-8.7-15.1L145.6,242.4z"/>
		<path d="M377.9,24.7c-0.4,0-0.7-0.3-0.7-0.6l-2-12.9c-0.1-0.4,0.2-0.8,0.6-0.9l12.9-2c0.2,0,0.4,0,0.6,0.1
			c0.2,0.1,0.3,0.3,0.3,0.5l2,12.9c0,0.2,0,0.4-0.1,0.6c-0.1,0.2-0.3,0.3-0.5,0.3l-12.9,2C378,24.7,378,24.7,377.9,24.7z
			 M376.8,11.7l1.7,11.4l11.4-1.7L388.2,10L376.8,11.7z"/>
		<path d="M286.8,43c-0.1,0-0.2,0-0.3-0.1c-0.4-0.2-0.6-0.6-0.4-1l6.4-16c0.2-0.4,0.6-0.6,1-0.4c0.4,0.2,0.6,0.6,0.4,1l-6.4,16
			C287.4,42.8,287.1,43,286.8,43z"/>
		<path d="M136.3,32.5c-0.2,0-0.4-0.1-0.6-0.3c-0.3-0.3-0.2-0.8,0.1-1.1L149,20.1c0.3-0.3,0.8-0.2,1.1,0.1c0.3,0.3,0.2,0.8-0.1,1.1
			l-13.1,11.1C136.7,32.5,136.5,32.5,136.3,32.5z"/>
		<path d="M13,18c-0.3,0-0.5-0.1-0.6-0.4L3.3,3C3.1,2.7,3.2,2.2,3.6,2c0.4-0.2,0.8-0.1,1,0.2l9.1,14.6c0.2,0.4,0.1,0.8-0.2,1
			C13.3,18,13.2,18,13,18z"/>
		<path d="M310.9,162.7c-0.2,0-0.4-0.1-0.6-0.3c-0.3-0.3-0.2-0.8,0.1-1.1l13-11.3c0.3-0.3,0.8-0.2,1.1,0.1c0.3,0.3,0.2,0.8-0.1,1.1
			l-13,11.3C311.2,162.7,311.1,162.7,310.9,162.7z"/>
		<path d="M750.3,412c-0.2,0-0.5-0.1-0.6-0.3l-10.1-13.9c-0.2-0.3-0.2-0.8,0.2-1c0.3-0.2,0.8-0.2,1,0.2l10.1,13.9
			c0.2,0.3,0.2,0.8-0.2,1C750.6,412,750.4,412,750.3,412z"/>
		<path d="M669.5,513.7c-0.3,0-0.6-0.2-0.7-0.5c-0.1-0.4,0.1-0.8,0.5-0.9l16.3-5.4c0.4-0.1,0.8,0.1,0.9,0.5c0.1,0.4-0.1,0.8-0.5,0.9
			l-16.3,5.4C669.7,513.6,669.6,513.7,669.5,513.7z"/>
		<path d="M651.8,615.6C651.7,615.6,651.7,615.6,651.8,615.6c-0.5-0.1-0.8-0.4-0.7-0.8l2.2-17.1c0.1-0.4,0.4-0.7,0.8-0.6
			c0.4,0.1,0.7,0.4,0.6,0.8l-2.2,17.1C652.5,615.3,652.1,615.6,651.8,615.6z"/>
		<path d="M807.7,636.2c-0.2,0-0.4-0.1-0.5-0.2c-0.3-0.3-0.3-0.8,0-1.1l12.6-11.8c0.3-0.3,0.8-0.3,1.1,0c0.3,0.3,0.3,0.8,0,1.1
			L808.3,636C808.1,636.1,807.9,636.2,807.7,636.2z"/>
		<path d="M524.3,533.2c-0.1,0-0.3,0-0.4-0.1c-0.3-0.2-0.4-0.7-0.2-1l9.5-14.4c0.2-0.3,0.7-0.4,1-0.2s0.4,0.7,0.2,1l-9.5,14.4
			C524.8,533.1,524.6,533.2,524.3,533.2z"/>
		<path d="M524.8,630.3c-0.2,0-0.4-0.1-0.5-0.2l-12.1-12.3c-0.3-0.3-0.3-0.8,0-1.1s0.8-0.3,1.1,0l12.1,12.3c0.3,0.3,0.3,0.8,0,1.1
			C525.1,630.2,524.9,630.3,524.8,630.3z"/>
		<path d="M806.5,494.2c-0.2,0-0.5-0.1-0.6-0.3c-0.2-0.3-0.2-0.8,0.2-1l13.9-10.1c0.3-0.2,0.8-0.2,1,0.2c0.2,0.3,0.2,0.8-0.2,1
			l-13.9,10.1C806.8,494.2,806.7,494.2,806.5,494.2z"/>
		<path d="M848.1,328.8c-0.1,0-0.2,0-0.3-0.1c-0.4-0.2-0.5-0.6-0.4-1l7.1-15.7c0.2-0.4,0.6-0.5,1-0.4c0.4,0.2,0.5,0.6,0.4,1
			l-7.1,15.7C848.6,328.7,848.4,328.8,848.1,328.8z"/>
		<path d="M68.9,211.8c-0.2,0-0.4-0.1-0.5-0.2l-11.8-12.5c-0.3-0.3-0.3-0.8,0-1.1c0.3-0.3,0.8-0.3,1.1,0l11.8,12.5
			c0.3,0.3,0.3,0.8,0,1.1C69.3,211.8,69.1,211.8,68.9,211.8z"/>
		<path d="M100.6,345.3c-0.2,0-0.3,0-0.4-0.1c-0.3-0.2-0.4-0.7-0.2-1l10.3-13.8c0.2-0.3,0.7-0.4,1-0.2c0.3,0.2,0.4,0.7,0.2,1
			L101.2,345C101.1,345.2,100.9,345.3,100.6,345.3z"/>
		<path d="M18,428c-0.3,0-0.5-0.1-0.6-0.4l-8.8-14.8c-0.2-0.4-0.1-0.8,0.3-1c0.4-0.2,0.8-0.1,1,0.3l8.8,14.8c0.2,0.4,0.1,0.8-0.3,1
			C18.3,428,18.2,428,18,428z"/>
		<path d="M84.9,561.1c-0.1,0-0.2,0-0.3,0c-0.4-0.1-0.6-0.6-0.4-1l5.9-16.2c0.1-0.4,0.6-0.6,1-0.4c0.4,0.1,0.6,0.6,0.4,1l-5.9,16.2
			C85.5,560.9,85.2,561.1,84.9,561.1z"/>
		<path d="M113.4,654.7c-0.3,0-0.6-0.2-0.7-0.5l-5-16.5c-0.1-0.4,0.1-0.8,0.5-0.9c0.4-0.1,0.8,0.1,0.9,0.5l5,16.5
			c0.1,0.4-0.1,0.8-0.5,0.9C113.5,654.7,113.5,654.7,113.4,654.7z"/>
		<path d="M0.8,625.5c-0.3,0-0.5-0.2-0.7-0.4c-0.2-0.4,0-0.8,0.3-1l15.5-7.5c0.4-0.2,0.8,0,1,0.3c0.2,0.4,0,0.8-0.3,1l-15.5,7.5
			C1,625.5,0.9,625.5,0.8,625.5z"/>
		<path d="M703.7,264.3c-0.2,0-0.4-0.1-0.6-0.3c-0.3-0.3-0.2-0.8,0.1-1.1l13.5-10.6c0.3-0.3,0.8-0.2,1.1,0.1
			c0.3,0.3,0.2,0.8-0.1,1.1l-13.5,10.6C704,264.3,703.9,264.3,703.7,264.3z"/>
		<path d="M828.6,40.2c-0.1,0-0.2,0-0.2,0L812,34.9c-0.4-0.1-0.6-0.5-0.5-0.9c0.1-0.4,0.5-0.6,0.9-0.5l16.4,5.2
			c0.4,0.1,0.6,0.5,0.5,0.9C829.3,40,829,40.2,828.6,40.2z"/>
		<path d="M812.9,174.3C812.9,174.3,812.9,174.3,812.9,174.3c-0.5,0-0.8-0.4-0.7-0.8l1.1-17.2c0-0.4,0.4-0.7,0.8-0.7
			c0.4,0,0.7,0.4,0.7,0.8l-1.1,17.2C813.6,174,813.3,174.3,812.9,174.3z"/>
		<circle class="st0" cx="653.9" cy="196.9" r="8.6"/>
		<path d="M775.2,323.3c-1.9,0-3.7-1-4.6-2.8c-0.6-1.2-0.7-2.6-0.3-3.9c0.4-1.3,1.3-2.4,2.6-3s2.6-0.7,3.9-0.3
			c1.3,0.4,2.4,1.3,3,2.6c1.3,2.5,0.2,5.6-2.3,6.9l0,0C776.7,323.1,776,323.3,775.2,323.3z M777.1,322.1L777.1,322.1L777.1,322.1z
			 M775.2,314.5c-0.6,0-1.1,0.1-1.6,0.4c-0.9,0.4-1.5,1.2-1.8,2.1c-0.3,0.9-0.2,1.9,0.2,2.8c0.9,1.8,3.1,2.5,4.9,1.6
			c1.8-0.9,2.5-3.1,1.6-4.9c-0.4-0.9-1.2-1.5-2.1-1.8C776,314.6,775.6,314.5,775.2,314.5z"/>
		<path d="M30.7,296.4c-1.9,0-3.7-1-4.6-2.8c-0.6-1.2-0.7-2.6-0.3-3.9c0.4-1.3,1.3-2.4,2.6-3c2.5-1.3,5.6-0.2,6.9,2.3
			c0.6,1.2,0.7,2.6,0.3,3.9s-1.3,2.4-2.6,3l0,0l0,0C32.3,296.2,31.5,296.4,30.7,296.4z M30.7,287.6c-0.5,0-1.1,0.1-1.6,0.4
			c-1.8,0.9-2.5,3.1-1.6,4.9c0.9,1.8,3.1,2.5,4.9,1.6l0,0c0.9-0.4,1.5-1.2,1.8-2.1c0.3-0.9,0.2-1.9-0.2-2.8
			C33.3,288.4,32,287.6,30.7,287.6z"/>
		<path d="M585.8,564.3c-3.2,0-6.2-1.8-7.8-4.8c-1-2.1-1.2-4.4-0.5-6.6s2.3-4,4.3-5c2.1-1,4.4-1.2,6.6-0.5c2.2,0.7,4,2.3,5,4.3
			c2.1,4.3,0.4,9.5-3.9,11.6l0,0C588.4,564,587.1,564.3,585.8,564.3z M585.7,548.5c-1.1,0-2.2,0.3-3.2,0.8c-1.7,0.9-3,2.3-3.6,4.1
			c-0.6,1.8-0.5,3.8,0.4,5.5c1.8,3.5,6.1,5,9.6,3.2l0,0c3.5-1.8,5-6.1,3.2-9.6c-0.9-1.7-2.3-3-4.1-3.6
			C587.3,548.6,586.5,548.5,585.7,548.5z M589.3,562.7L589.3,562.7L589.3,562.7z"/>
		<circle class="st0" cx="203.3" cy="129.8" r="10"/>
		<circle class="st0" cx="562.6" cy="5" r="5"/>
		<circle class="st0" cx="54.6" cy="483.3" r="5"/>
		<path d="M718.2,120.7c-0.2,0-0.3-0.1-0.5-0.2l-14.5-11.5c-0.3-0.3-0.4-0.7-0.1-1.1l11.5-14.5c0.3-0.3,0.7-0.4,1.1-0.1l14.5,11.5
			c0.3,0.3,0.4,0.7,0.1,1.1l-11.5,14.5C718.7,120.6,718.5,120.7,718.2,120.7z M704.7,108.4l13.4,10.6l10.6-13.4L715.3,95
			L704.7,108.4z"/>
		
			<rect x="432.8" y="589.6" transform="matrix(0.7845 0.6201 -0.6201 0.7845 466.5704 -145.0601)" class="st0" width="18.5" height="18.5"/>
	</g>
</g>
<g id="general_1_">
	<g id="general_2_">
		<path id="speech_bubble_1_" class="st1" d="M553.6,56.3C516.7,26.5,463.5,20.9,422,43c-53.1,28.3-78.8,97.9-54.6,162.3
			c-13.3,25.8-26.6,51.5-39.9,77.3c20-10.8,40-21.7,60-32.5c3.9,3,13.3,9.9,27,16.2l0.3-0.1c11.7,5.4,38,15.4,71.3,11.1
			c3.1-0.4,7.6-1.1,13-2.4c2.3-0.5,4.7-1.2,7.3-2c0.6-0.2,1.2-0.4,1.8-0.6c0-0.1-0.1-0.2-0.1-0.3c-1.1-2.6-2.1-5-2.7-6.9
			c0-0.1-0.1-0.2-0.1-0.4c-0.8-2.6-1.1-4.8,0.1-6.1c0.7-0.8,1.9-1.1,2.9-0.9c2.1,0.4,3.1,3.1,3.5,4c0.7,1.8,2,4.3,3.7,7.7
			c0.1,0.1,0.1,0.2,0.2,0.3c0.9-0.3,1.8-0.7,2.7-1.1c0-0.1-0.1-0.2-0.1-0.3c-1.4-4.3-2.5-8.1-2.4-9.8c0-0.7,0-2.6,1.2-3.4
			c0,0,0.8-0.5,1.9-0.3c2.2,0.4,3.5,4.7,5.7,10.8c0,0.1,0.1,0.1,0.1,0.2c3.7-1.7,7.4-3.7,11.3-6c27.6-16.5,41.9-38.9,48-49.8l0.1,0
			C608.8,161,600.3,94,553.6,56.3z"/>
		<g id="man_1_">
			<g id="hand_r_1_">
				<path d="M602.8,406.4c-0.2,0-0.5-0.1-0.7-0.3c-0.3-0.4-0.2-0.9,0.1-1.2c0.2-0.2,0.6-0.5,1.2-1.1l1.6-1.4
					c0.4-0.3,0.9-0.3,1.2,0.1s0.3,0.9-0.1,1.2l-1.6,1.4c-0.6,0.5-1.1,0.9-1.3,1.1C603.2,406.3,603,406.4,602.8,406.4z"/>
				<path d="M635.9,410c-0.2,0-0.5-0.1-0.6-0.3c-0.3-0.3-0.3-0.9,0.1-1.2c1.1-1,4.1-3.8,7.5-7.6c4.6-5.3,8.5-10.9,11.5-16.8
					c1.2-2.3,2.4-4.7,3.2-7c1.3-3.5,1.4-5.8,0.3-7.1c-0.7-0.8-1.7-1-2-1.1c-1-0.1-2.2,0.2-3.4,1.2c-2.5,1.9-5.1,5.7-7.3,9
					c-0.4,0.6-0.8,1.2-1.2,1.8c-1.3,1.9-2.8,3.9-4.3,5.9c-4,5.2-8.6,10.3-13.6,15.2c-0.3,0.3-0.8,0.3-1.2,0
					c-0.3-0.3-0.4-0.8-0.1-1.1c4.7-6.2,8.8-12.6,12.2-19.2c0.7-1.4,1.4-2.8,2.1-4.2c4.3-9.1,5.4-13.9,3.5-16.3
					c-0.1-0.1-1.2-1.5-2.8-1.6c-1.9-0.1-4,1.7-6.4,5.6c-1.5,2.5-3,5.4-4.4,8.3l0,0.1c0,0,0,0,0,0.1l-0.1,0.2c-0.7,1.4-1.4,2.7-2,4
					c-3.1,5.8-6.9,11.3-11.4,16.5c0,0-0.1,0.1-0.1,0.1c0,0,0,0.1-0.1,0.1c-1.1,1.3-2.4,2.7-3.9,4.2c-0.1,0.1-0.1,0.2-0.2,0.2
					c-1.3,1.3-2.6,2.6-4,3.9c-0.9,0.8-1.8,1.7-2.8,2.5c0,0,0,0-0.1,0c-0.1,0.1-0.1,0.1-0.2,0.1c0,0-0.1,0.1-0.1,0.1
					c0,0-0.1,0.1-0.1,0.1l-0.1,0.1c0,0-0.1,0.1-0.1,0.1c0,0,0,0,0.1,0c0,0-0.1,0.1-0.1,0.1c0,0-0.1,0.1-0.1,0.1c0,0-0.1,0.1-0.2,0.2
					c-0.4,0.2-0.9,0.1-1.2-0.2c-0.3-0.4-0.2-0.9,0.2-1.2l0,0c0.1-0.1,0.2-0.1,0.2-0.2l0,0c0,0,0,0,0,0c0,0,0.1,0,0.1-0.1l0.1-0.1
					c0,0,0.1-0.1,0.1-0.1c0,0,0.1,0,0.1-0.1c0,0,0.1-0.1,0.1-0.1c0,0,0.1-0.1,0.1-0.1c1-0.8,1.9-1.6,2.7-2.4
					c1.4-1.3,2.7-2.6,3.9-3.8c0.1-0.1,0.2-0.2,0.2-0.2c1.5-1.5,2.7-2.9,3.8-4.2c0,0,0.1-0.1,0.1-0.1c0,0,0.1-0.1,0.1-0.1
					c4.4-5.1,8.2-10.5,11.1-16.2c0.7-1.2,1.3-2.6,2-3.9l0.1-0.1c0,0,0-0.1,0-0.1l0.1-0.1c1.4-2.9,2.9-5.9,4.5-8.4
					c1.8-2.8,4.5-6.5,8-6.4c2.3,0.2,3.7,1.9,4,2.2c2.4,3,1.5,8.1-3.3,18.1c-0.7,1.4-1.4,2.8-2.1,4.2c-1.8,3.5-3.9,7-6.1,10.4
					c2.1-2.3,4-4.7,5.9-7.1c1.5-1.9,2.9-3.9,4.2-5.8c0.4-0.6,0.8-1.2,1.2-1.8c2.4-3.6,4.9-7.3,7.7-9.4c1.6-1.2,3.2-1.7,4.7-1.5
					c0.6,0.1,2,0.5,3.1,1.7c1.5,1.8,1.5,4.6,0,8.8c-0.9,2.4-2.1,4.8-3.3,7.2c-3.1,6-7,11.7-11.8,17.1c-3.4,3.9-6.5,6.7-7.6,7.8
					C636.3,409.9,636.1,410,635.9,410z M603.1,404.1C603.1,404.1,603.1,404.2,603.1,404.1C603.1,404.2,603.1,404.2,603.1,404.1
					C603.1,404.2,603.1,404.1,603.1,404.1z M603.6,404C603.6,404,603.6,404,603.6,404C603.6,404,603.6,404,603.6,404z M603.6,404
					C603.6,404,603.6,404,603.6,404C603.6,404,603.6,404,603.6,404z M603.6,404C603.6,404,603.6,404,603.6,404
					C603.6,404,603.6,404,603.6,404z"/>
				<path d="M644.5,420.7c-0.2,0-0.4-0.1-0.6-0.3c-0.3-0.3-0.3-0.9,0-1.2l1.1-1c1.8-1.7,4.4-4.2,7.3-7c0,0,0,0,0.1-0.1
					c5.3-5.2,10.1-10.1,14.3-14.5c1-1,2.5-2.6,3.5-4.3c1-1.6,1.3-3.1,0.9-4.3c-0.4-1.4-1.6-2.6-3-3.1c-1-0.3-2.1-0.2-3.4,0.5
					c-2.4,1.1-5.3,3.8-8.6,6.9l-0.2,0.2c-4.3,3.9-8.1,7.5-11.5,10.5c-4.4,4-7.3,6.4-7.9,6.8c0,0-0.1,0.1-0.1,0.1
					c-0.4,0.2-0.9,0.2-1.2-0.2s-0.2-0.9,0.2-1.2c0,0,0.1-0.1,0.1-0.1c0.3-0.3,2.9-2.4,7.8-6.8c3.4-3,7.3-6.5,11.5-10.5l0.2-0.2
					c3.4-3.2,6.4-5.9,9-7.2c1.7-0.8,3.2-1,4.7-0.5c1.9,0.6,3.6,2.3,4.1,4.3c0.5,1.7,0.1,3.6-1.1,5.6c-1.1,1.8-2.6,3.5-3.7,4.6
					c-4.2,4.4-9.1,9.3-14.4,14.5c0,0,0,0,0,0c0,0,0,0,0,0c0,0,0,0-0.1,0.1c-2.9,2.8-5.4,5.3-7.3,7l-1.1,1
					C644.9,420.6,644.7,420.7,644.5,420.7z"/>
				<path d="M612.7,448.4c-0.3,0-0.6-0.2-0.7-0.4c-0.2-0.4-0.1-0.9,0.3-1.2c10.2-6,19.3-11.4,27.3-16.1c7.9-4.7,14.7-8.7,20.2-11.9
					c3.5-2,12.6-7.3,12.1-12c0-0.3-0.1-1-0.6-1.4c-2.2-2.1-10.9,2.2-18,7.1c-0.4,0.3-0.9,0.2-1.2-0.2c-0.3-0.4-0.2-0.9,0.2-1.2
					c4.8-3.3,16.4-10.6,20.2-7c0.9,0.9,1,2,1.1,2.4c0.7,5.8-8.5,11.1-12.8,13.7c-5.5,3.2-12.3,7.2-20.2,11.9
					c-8,4.7-17.1,10.1-27.3,16.1C613,448.4,612.9,448.4,612.7,448.4z"/>
				<path d="M587.4,409.5c-0.2,0-0.3-0.1-0.5-0.2c-0.4-0.3-0.5-0.8-0.2-1.2c4.3-6.1,4.9-7,5-7c2-2.9,3.8-5.9,5.5-8.8
					c0.2-0.3,0.4-0.6,0.5-1c1.4-2.5,2.7-4.9,3.8-7.1c0.9-1.7,1.7-3.2,2.5-4.6c0,0,0-0.1,0.1-0.1c2.9-5.3,5.4-8.5,8.6-8.3
					c2,0.1,3.5,1.6,3.9,2.1c1.1,1.2,2.3,3.8,0.2,11.8c-1.2,4.5-3,8.9-5.3,13.2l-0.2,0.3l0,0c0,0.1-0.1,0.2-0.2,0.3
					c-0.3,0.3-0.9,0.3-1.2,0c-0.3-0.3-0.3-0.7-0.1-1c0,0,0,0,0,0l0.2-0.4c2.3-4.1,4-8.4,5.2-12.8c1.4-5.3,1.5-8.8,0.2-10.3
					c-0.2-0.2-1.3-1.4-2.7-1.5c0,0-0.1,0-0.1,0c-2.3,0-4.4,3-6.9,7.5c0,0,0,0.1-0.1,0.1c-0.8,1.4-1.5,2.9-2.4,4.5
					c-1.1,2.2-2.4,4.6-3.8,7.1c-0.2,0.3-0.4,0.6-0.5,1c-1.7,2.9-3.5,5.9-5.5,8.9c0,0-0.6,0.9-5,7
					C587.9,409.4,587.7,409.5,587.4,409.5z"/>
				<path d="M588.1,407.7c9.9,12.3,19.8,24.5,29.8,36.8c-1.7,1-3.4,2-5.1,3c-8.4-13-16.9-25.9-25.3-38.9
					C587.6,408.4,587.9,408,588.1,407.7z"/>
			</g>
			<g id="hand_l_1_">
				<path d="M365.4,360.6c-0.2,0-0.4-0.1-0.6-0.3c-0.3-0.3-0.3-0.9,0-1.2c2.3-2.2,4.6-4.7,6.8-7.2c1.2-1.4,2.3-2.8,4.5-5.7
					c1.6-2.1,3.9-5.1,6.5-8.8c2.7-3.9,3.4-5,4-6.5c0.8-2.2,1.7-4.4,0.8-6.4c-0.1-0.2-0.9-2-2.5-2.3c-1.1-0.3-2.1,0.2-2.9,0.7
					c-3.5,2-5.7,5.3-8.4,9.1l-0.9,1.2c0,0-0.2,0.3-4.5,6.2c-3.4,4.7-7.3,9.3-11.6,13.6c-0.3,0.3-0.8,0.3-1.2,0.1
					c-0.3-0.3-0.4-0.8-0.1-1.1c4.2-5.8,7.9-11.9,11-18c0.7-1.3,1.3-2.6,1.9-3.9c3.9-8.5,4.8-13.1,3.1-15.3c-0.1-0.1-1.1-1.3-2.5-1.4
					c-1.7-0.1-3.6,1.6-5.7,5.2c-1.4,2.3-2.7,5.1-4,7.8l-0.1,0.1c0,0,0,0,0,0.1c-0.6,1.3-1.3,2.6-1.9,3.9
					c-3.8,7.6-8.2,15.1-13.1,22.1c-0.3,0.4-0.8,0.5-1.2,0.2c-0.4-0.3-0.5-0.8-0.2-1.2c4.8-7,9.2-14.3,13-21.9
					c0.6-1.3,1.3-2.5,1.9-3.8c0,0,0,0,0-0.1l0.1-0.2c1.3-2.7,2.6-5.5,4.1-7.9c1.6-2.7,4.1-6.2,7.3-6c2.1,0.2,3.4,1.8,3.7,2.1
					c2.2,2.8,1.4,7.6-2.9,17c-0.6,1.3-1.2,2.7-1.9,4c-1.5,2.9-3,5.8-4.7,8.6c1.3-1.6,2.6-3.2,3.8-4.9c4.2-5.7,4.5-6.1,4.5-6.2
					l0.9-1.2c2.7-4,5.1-7.4,8.9-9.6c1.1-0.6,2.5-1.3,4.2-0.9c2.3,0.6,3.4,2.9,3.6,3.3c1.2,2.7,0.1,5.5-0.8,7.7
					c-0.6,1.6-1.3,2.8-4.2,6.8c-2.6,3.7-4.9,6.7-6.5,8.8c-2.2,2.9-3.4,4.4-4.6,5.8c-2.2,2.6-4.5,5-6.9,7.3
					C365.8,360.5,365.6,360.6,365.4,360.6z"/>
				<path d="M373.1,370.6c-0.2,0-0.4-0.1-0.6-0.2c-0.3-0.3-0.3-0.9,0-1.2l0.8-0.8c1.7-1.7,4-4,6.8-6.8c0,0,0,0,0.1-0.1
					c2.5-2.6,5.1-5.2,7.6-7.9c1.7-1.9,3.5-3.8,5.3-5.7c0.9-1,2.2-2.4,3.1-4c0.9-1.5,1.1-2.9,0.8-4c-0.3-1.3-1.4-2.5-2.6-2.8
					c-0.9-0.3-1.9-0.2-3,0.4c-0.6,0.3-1.2,0.7-1.8,1.1c-1.8,1.3-3.7,3.2-6,5.4l-0.1,0.1c-3.7,3.6-7.2,6.9-10.4,9.9
					c-4,3.7-6.5,6-7.1,6.4c0,0,0,0,0,0c-0.1,0.1-0.2,0.1-0.3,0.2c-0.4,0.1-0.9-0.1-1.1-0.5c-0.1-0.4,0-0.8,0.4-1c0,0,0,0,0,0
					c0.3-0.2,2.6-2.3,7-6.3c3.2-3,6.7-6.3,10.4-9.8l0.1-0.1c2.3-2.2,4.3-4.2,6.2-5.5c0.7-0.5,1.4-1,2-1.3c1.5-0.8,3-0.9,4.3-0.5
					c1.8,0.6,3.3,2.2,3.8,4c0.4,1.6,0.1,3.4-1,5.3c-1,1.7-2.4,3.3-3.4,4.3c-1.8,1.9-3.6,3.9-5.3,5.7c-2.5,2.7-5.1,5.3-7.6,7.9
					c0,0-0.1,0.1-0.1,0.1c-2.7,2.8-5.1,5.1-6.7,6.8l-0.8,0.8C373.5,370.6,373.3,370.6,373.1,370.6z"/>
				<path d="M376.8,381.6c-0.3,0-0.5-0.1-0.7-0.3c-0.3-0.4-0.2-0.9,0.2-1.2c4.3-3.2,8.1-6,11.6-8.7c0.8-0.6,1.9-1.5,3.1-2.4
					c6-4.9,8.6-8.7,7.9-11.7c-0.2-1.1-0.7-1.7-1-1.9c-1.3-1-4.5-0.1-8.9,2.7c-4.1,2.6-9.3,6.7-15.3,12.3c-0.3,0.3-0.9,0.3-1.2-0.1
					c-0.3-0.3-0.3-0.9,0.1-1.2c6.1-5.6,11.3-9.8,15.5-12.5c5.3-3.3,8.8-4.2,10.8-2.6c0.5,0.4,1.3,1.3,1.6,2.8
					c1.1,4.9-4.3,10-8.5,13.4c-1.2,1-2.3,1.8-3.2,2.5c-3.5,2.7-7.3,5.5-11.6,8.7C377.1,381.6,376.9,381.6,376.8,381.6z"/>
				<path d="M342.7,358.5C342.6,358.5,342.6,358.5,342.7,358.5c-0.5,0-0.9-0.4-0.8-0.9c0.1-1.9,0.4-3.9,0.7-5.8
					c0.4-2.3,1-4.4,1.5-6.2c0.9-3.3,1.7-6.1,1.4-9.5c-0.1-1.1-0.3-2.3-1.2-3.2c0,0-1.2-1.1-3-1.2c-3-0.1-7.5,9.9-10.2,19.4
					c-0.1,0.5-0.6,0.7-1,0.6c-0.5-0.1-0.7-0.6-0.6-1c0.2-0.6,1.6-5.7,3.7-10.7c2.8-6.7,5.5-10,8-10c0,0,0.1,0,0.1,0
					c2.5,0.1,4.1,1.6,4.2,1.7c1.3,1.3,1.6,3,1.7,4.3c0.3,3.6-0.5,6.6-1.4,10.1c-0.5,1.9-1,3.8-1.5,6.1c-0.3,1.8-0.6,3.7-0.7,5.6
					C343.5,358.1,343.1,358.5,342.7,358.5z"/>
				<path d="M373.3,372.7c-0.3,0-0.7-0.2-0.8-0.5c-1.8-4.4-4.4-8.4-7.7-11.8c-3.5-3.5-7.8-6.3-12.4-8.1c-0.4-0.2-0.7-0.7-0.5-1.1
					c0.2-0.4,0.7-0.7,1.1-0.5c4.8,1.9,9.3,4.8,13,8.5c3.5,3.6,6.2,7.7,8.1,12.4c0.2,0.4,0,0.9-0.5,1.1
					C373.5,372.7,373.4,372.7,373.3,372.7z"/>
			</g>
			<g id="head_3_">
				<path id="hair_3_" d="M308.5,241.1l-18,10.2l-3.2,14.3c-0.7-0.6-4.1-3.5-9-3.1c-5.2,0.4-8.2,4.1-9.1,5.3
					c-3.5,4.9-3.1,11.6-0.2,16.3c3.9,6.4,11.2,7.2,12.1,7.3c-7.3,7.1-14.6,14.2-21.9,21.4c-8.7,0-17.5,0-26.2,0l0,0
					c-2-6.6-4.4-16.4-5.5-28.5c-1.4-15.4-2.3-24.8,2.4-35.4c1.7-3.9,8.8-18.3,25.4-24.4c0,0,19.8-7.4,40.2,4.7
					c6.4,3.8,10.7,8.9,10.7,8.9C307,238.9,307.8,240,308.5,241.1z"/>
				<g id="ear_3_">
					<path d="M290,269.1c-0.3,0-0.6-0.2-0.7-0.4c-0.5-0.9-1.1-1.7-1.8-2.5c-0.6-0.7-1.3-1.3-2-1.8c-0.4-0.3-0.4-0.8-0.2-1.2
						c0.3-0.4,0.8-0.4,1.2-0.2c0.8,0.6,1.5,1.3,2.2,2c0.8,0.9,1.5,1.8,2,2.8c0.2,0.4,0.1,0.9-0.3,1.2
						C290.3,269,290.1,269.1,290,269.1z"/>
					<path d="M282.9,292.8C282.9,292.8,282.9,292.8,282.9,292.8c-0.7,0-1.4-0.1-2.2-0.2c-0.8-0.1-1.6-0.2-2.4-0.3
						c-0.5-0.1-0.8-0.5-0.7-1s0.5-0.8,1-0.7c0.8,0.1,1.5,0.2,2.3,0.3c0.7,0.1,1.4,0.1,2,0.2c0.5,0,0.8,0.4,0.8,0.9
						C283.8,292.5,283.4,292.8,282.9,292.8z"/>
				</g>
				<g id="face_1_">
					<path d="M290.3,325.9C290.3,325.9,290.3,325.9,290.3,325.9c-0.5,0-0.9-0.4-0.9-0.9l0.1-4.2c0-0.4,0.3-0.7,0.6-0.8
						c1.8-0.5,3.5-1.1,5.1-1.9c4.1-1.8,7.6-4.3,10.6-7.3c0.1-0.1,11.7-12.4,10.7-34.4c0-0.4,0-0.8,0-0.8c0-0.7-0.1-2.1-0.3-4
						c-0.8-8.2-2-19.4-8.3-28.9c-0.2-0.3-0.4-0.6-0.6-0.9c-0.3-0.4-0.2-0.9,0.2-1.2c0.4-0.3,0.9-0.2,1.2,0.2
						c0.2,0.3,0.4,0.6,0.6,0.9c6.6,9.9,7.7,21.3,8.6,29.6c0.2,1.9,0.3,3.4,0.3,4.1c0,0,0,0.4,0,0.8c1.1,22.8-10.6,35.2-11.1,35.7
						c-3.1,3.2-6.8,5.8-11.1,7.7c-1.5,0.7-3.1,1.3-4.7,1.8l-0.1,3.6C291.1,325.5,290.7,325.9,290.3,325.9z"/>
					<path d="M233.5,329.4c-0.5,0-0.8-0.4-0.9-0.8l-0.1-16.7c0-0.5,0.4-0.9,0.8-0.9c0.4,0,0.9,0.4,0.9,0.8l0.1,16.7
						C234.4,329,234,329.4,233.5,329.4C233.5,329.4,233.5,329.4,233.5,329.4z"/>
					<path d="M290.9,320.1c-0.2,0.8-0.5,1.7-0.6,2.9c-0.1,0.8-0.1,1.5,0,2.1l-7.7,0.5c-0.6-0.1-1.2-0.3-1.8-0.5
						c-5.4-1.6-9.8-4.2-13.3-6.9c5.8,1.4,12.5,2.3,19.9,2.1C288.6,320.2,289.8,320.2,290.9,320.1z"/>
				</g>
			</g>
			<g id="sweater_1_">
				<path d="M163.9,660.6c-0.2,0-0.4-0.1-0.6-0.2c-0.2-0.2-0.3-0.4-0.3-0.6c0-17.6-0.1-35.9-0.3-54.4c0-4.6-0.1-9.3-0.2-14
					c-0.1-8.8-0.3-17.8-0.5-27.6l0-1.2c-0.8-42.1-2.1-84.9-4-127c0-0.5,0.3-0.9,0.8-0.9c0.5,0,0.9,0.3,0.9,0.8
					c1.8,42.1,3.1,84.9,4,127l0,1.2c0.2,9.8,0.3,18.8,0.5,27.6c0.1,4.7,0.1,9.3,0.2,14c0.2,18.1,0.3,36.1,0.3,53.5l207.4-16.6
					c-1.5-24.4-2.9-49.6-4.1-74.7c-1.4-28.8-2.6-58.2-3.6-87.2c0-0.5,0.4-0.9,0.8-0.9c0.5,0,0.9,0.4,0.9,0.8c1,29,2.2,58.3,3.6,87.2
					c1.3,25.4,2.7,50.8,4.2,75.5c0,0.5-0.3,0.9-0.8,0.9L163.9,660.6C163.9,660.6,163.9,660.6,163.9,660.6z"/>
				<path d="M453.2,518.9c-1.1,0-2.2-0.1-3.2-0.2c-17.1-1.7-32.3-8.4-51.1-18.5c-7.7-4.1-16.3-9-25.5-14.2
					c-8.5-4.9-17-10.2-17.1-10.3c-2.3-1.5-4.3-2.8-5.7-3.7c-0.4-0.3-0.5-0.8-0.2-1.2c0.3-0.4,0.8-0.5,1.2-0.2
					c1.4,0.9,3.3,2.2,5.7,3.7c0.1,0.1,8.5,5.4,17,10.2c9.1,5.2,17.7,10.1,25.4,14.2c18.7,10.1,33.7,16.6,50.5,18.4
					c10.6,1.1,28.1-3.9,56.6-13.4c8.6-2.9,18.2-6.2,29.3-10l2.6-0.9c18.2-6.2,35.1-12.8,43.6-16.1c12.5-4.9,25.1-10.1,37.4-15.4
					c-6.1-10.9-12.6-21.8-19.5-32.3c-2.7-4.1-5.4-8.2-8.2-12.3c-2-2.9-3.7-5.3-5.3-7.5c-0.1-0.2-0.2-0.3-0.3-0.5l-122.6,38.6
					c-0.2,0.1-0.5,0-0.7-0.1c-2.8-1.8-5.4-3.5-8-5.2c-0.8-0.5-1.6-1.1-2.5-1.6l-2.9-1.9c-1.4-0.9-2.8-1.9-4.3-2.9
					c-0.9-0.6-1.8-1.2-2.7-1.9c-2.4-1.6-4.8-3.4-7.3-5.1c-5.6-4-11.1-8.1-16.5-12.2c-11.8-9.1-19.4-15.4-26-21.1
					c-6.4-5.4-11.9-10.1-19.8-16l-0.2-0.1c-12.1-9-34.7-25.7-61.1-35.1c-1.5-0.5-3.1-1.1-4.8-1.6c-1.9-0.6-47.9-14.8-93.7,0.9
					c-0.4,0.2-0.9-0.1-1.1-0.5c-0.2-0.4,0.1-0.9,0.5-1.1c46.3-15.8,92.8-1.5,94.8-0.9c1.7,0.5,3.3,1.1,4.8,1.6
					c26.5,9.5,49.3,26.3,61.5,35.3l0.2,0.1c7.9,5.9,13.5,10.6,19.9,16c6.6,5.6,14.1,12,25.9,21c5.4,4.1,10.9,8.2,16.5,12.2
					c2.4,1.7,4.9,3.5,7.2,5.1c0.9,0.6,1.8,1.2,2.7,1.8c1.5,1,2.9,2,4.3,2.9l2.8,1.9c0.8,0.6,1.7,1.1,2.5,1.6c2.5,1.7,5,3.3,7.6,5
					l122.8-38.6c0.4-0.1,0.7,0,0.9,0.3l0.2,0.3c0.2,0.2,0.3,0.5,0.5,0.7c1.6,2.2,3.3,4.6,5.3,7.5c2.8,4,5.5,8.2,8.2,12.3
					c7,10.8,13.7,22,20,33.2c0.1,0.2,0.1,0.5,0.1,0.7c-0.1,0.2-0.2,0.4-0.5,0.5c-12.5,5.5-25.4,10.8-38.3,15.8
					c-8.5,3.3-25.4,9.8-43.6,16.1l-2.6,0.9c-11.1,3.8-20.7,7.1-29.3,10C481.2,514,464.3,518.9,453.2,518.9z"/>
				<path d="M163.6,592.3c-0.1,0-0.1,0-0.2,0c0,0,0,0,0,0c0,0-0.1,0-0.2,0c-12.3-2.5-22.4-7.4-30.1-14.7c-7.9-7.5-13.9-18-17.8-31.1
					c-9-30.2-5.9-70.8,8.3-108.7c15.7-42,42.4-74,75-90.1c4.6-2.3,9.4-4.3,14.4-6c0,0,0,0,0,0c0.5-0.2,1.1,0.2,1.1,0.8
					c0,0.4-0.3,0.7-0.6,0.8c-4.9,1.7-9.7,3.7-14.2,5.9c-32.3,15.9-58.6,47.5-74.2,89.1c-14,37.5-17.1,77.7-8.3,107.6
					c3.8,12.9,9.7,23.1,17.4,30.4c7.5,7.1,17.3,11.9,29.3,14.3c0,0,0.1,0,0.2,0c0.5,0.1,0.8,0.6,0.7,1
					C164.3,592.1,163.9,592.3,163.6,592.3z"/>
				<path d="M316,323.4c-1.2,6.6-2.4,13.2-3.6,19.8h0c-1.6-0.6-3.2-1.1-4.8-1.6c-2.7-0.9-48.5-14.7-94.3,0.9c0,0,0,0,0,0
					c-2.4-4.1-4.7-8.1-7.1-12.2l76.4-4.8l7.7-0.5l6.9-0.4L316,323.4z"/>
				<path d="M338.5,646.6C338.4,646.6,338.4,646.6,338.5,646.6c-0.6-0.1-0.9-0.5-0.8-0.9l18.3-170.8c0.1-0.5,0.5-0.8,0.9-0.8
					c0.5,0,0.8,0.5,0.8,0.9l-18.3,170.8C339.3,646.3,338.9,646.6,338.5,646.6z"/>
				<path d="M507.1,504.5c-29.4,9.8-46.4,14.5-57,13.5c-16.5-1.7-31.2-7.9-50.8-18.4c21.6-8.7,66.5-21.4,105.4,3.4
					C505.4,503.4,506.2,503.9,507.1,504.5z"/>
				<path d="M163.4,591.4c-9.1-1.8-20.4-5.7-29.7-14.5c-8-7.6-13.9-18.2-17.6-30.8c13.2,2,31.2,6.6,46.8,16.5c0,0.4,0,0.8,0,1.2
					C163.1,573.1,163.2,582.3,163.4,591.4z"/>
			</g>
		</g>
		<g id="woman_1_">
			<g id="tshirt_up_1_">
				<path class="st2" d="M487.7,197.7c-7.3,2.6-13.2,5.5-17.6,8.1c-7.4,4.3-12.7,8.6-15.2,10.6c-1.5,1.2-2.9,2.4-3.2,2.7
					c-3.1,2.7-6.2,5.6-9.1,8.6c-0.9,0.9-1.7,1.8-2.5,2.7c-2.6,2.8-5.1,5.7-7.4,8.6c-0.8,1-1.6,2-2.4,3c-3.1,4-6,8.1-8.7,12.3
					c-0.6,0.9-1.2,1.8-1.7,2.7c-1.9,3-3.6,6-5.3,9c12.6,5.8,28.9,10.9,47.9,12c1.3,0.1,2.5,0.1,3.8,0.2h0c4.2,0.1,8.8,0,13.8-0.6
					c1.6-0.2,3.1-0.4,4.6-0.7c0.2-0.9,1.1-1.6,2-1.6c0.8,0,1.6,0.5,1.9,1.3c2.9-0.5,6.4-1.2,10.4-2.2c-2.6-6-2-7.7-1.4-8.4
					c1.2-1.3,2.6-1.3,2.6-1.3c0.4,0,0.8,0.1,1.2,0.4c0.9,0.5,1.7,1.5,2.2,2.4c0.4,0.7,0.7,1.3,0.9,1.7c0.5,0.9,1,2,1.6,3.1
					c0.5-0.2,1-0.3,1.5-0.5c0.3-0.7,1-1.1,1.8-1.1c0.3,0,0.6,0.1,0.9,0.2c10-3.3,24-9.2,38.4-20c8.5-6.4,22.4-18.6,33.4-37.5
					c0.8-1.4,1.5-2.6,1.9-3.4c-0.9-0.7-2-1.3-3.1-2c-1.1-0.6-2.2-1.2-3.2-1.7h0c-0.9-0.5-1.9-1-2.8-1.4h0c-8.8-4-15.6-6.6-18.7-7.5
					c-3-0.9-5.8-1.5-5.8-1.5c-1.3-0.3-2.4-0.5-3.2-0.6 M476.1,242c-0.9-0.6-1.8-1.3-2.6-2L476.1,242z"/>
				<g>
					<path d="M455.3,217.6c0,1.1-0.9,2.1-2.1,2.1c-0.6,0-1.1-0.2-1.5-0.6c1-0.9,2.1-1.8,3.2-2.7
						C455.1,216.7,455.3,217.1,455.3,217.6z"/>
					<path d="M444.1,229.6c0,1.1-0.9,2.1-2.1,2.1c-0.9,0-1.7-0.6-1.9-1.4c0.8-0.9,1.7-1.8,2.5-2.7
						C443.5,227.9,444.1,228.7,444.1,229.6z"/>
					<circle cx="464.4" cy="229.6" r="2.1"/>
					<path d="M432.9,240c0,1.1-0.9,2.1-2.1,2.1c-0.2,0-0.4,0-0.6-0.1c0.8-1,1.6-2,2.4-3C432.8,239.3,432.9,239.6,432.9,240z"/>
					<circle cx="453.2" cy="240" r="2.1"/>
					<path d="M476.1,242c-0.2,0-0.4,0.1-0.6,0.1c-1.1,0-2.1-0.9-2.1-2.1C474.3,240.7,475.2,241.4,476.1,242z"/>
					<line class="st3" x1="544.1" y1="195.3" x2="540.5" y2="195.4"/>
					<path d="M544.4,196.4c0,0.9-0.5,1.6-1.3,1.9c0.4-1,0.8-1.9,1.1-2.8C544.3,195.8,544.4,196.1,544.4,196.4z"/>
					<circle cx="553.5" cy="206.7" r="2.1"/>
					<path d="M577.9,206.7c0,1.1-0.9,2.1-2.1,2.1s-2.1-0.9-2.1-2.1c0-0.9,0.5-1.6,1.3-1.9h0c0.9,0.5,1.9,1,2.8,1.4h0
						C577.9,206.4,577.9,206.6,577.9,206.7z"/>
					<circle cx="542.3" cy="218.8" r="2.1"/>
					<circle cx="564.7" cy="218.8" r="2.1"/>
					<circle cx="531.1" cy="229.1" r="2.1"/>
					<circle cx="553.5" cy="229.1" r="2.1"/>
					<circle cx="520.8" cy="240.1" r="2.1"/>
					<circle cx="543.1" cy="240.1" r="2.1"/>
					<circle cx="509.6" cy="250.5" r="2.1"/>
					<circle cx="532" cy="250.5" r="2.1"/>
					<path d="M421.7,254.9c0,1.1-0.8,1.9-1.8,2c0.6-0.9,1.1-1.8,1.7-2.7C421.7,254.5,421.7,254.7,421.7,254.9z"/>
					<circle cx="442" cy="254.9" r="2.1"/>
					<circle cx="464.4" cy="254.9" r="2.1"/>
					<circle cx="430.8" cy="265.3" r="2.1"/>
					<circle cx="453.2" cy="265.3" r="2.1"/>
					<circle cx="475.6" cy="265.3" r="2.1"/>
					<circle cx="486.7" cy="254.9" r="2.1"/>
					<path d="M466.4,277.3c0,0.3-0.1,0.6-0.2,0.9h0c-1.3,0-2.6-0.1-3.8-0.2c-0.1-0.2-0.1-0.5-0.1-0.7c0-1.1,0.9-2.1,2.1-2.1
						C465.5,275.3,466.4,276.2,466.4,277.3z"/>
				</g>
				<path d="M489.7,246.4c-5.4,0-10.2-1.3-14.1-3.8c-1-0.6-1.9-1.3-2.7-2.1c-3-2.7-5.5-6.4-7.3-10.9c0,0,0-0.1,0-0.1l-0.3-0.8
					c0,0,0,0,0-0.1l0,0c-1.9-5.2-2.9-11.4-3.1-18.4c0-0.5,0.4-0.9,0.8-0.9c0,0,0,0,0,0c0.5,0,0.8,0.4,0.8,0.8
					c0.2,6.8,1.2,12.8,3,17.9c0,0,0,0,0,0l0.3,0.9c0,0,0,0.1,0,0.1c1.7,4.2,4,7.7,6.8,10.2c0.8,0.7,1.6,1.3,2.5,1.9
					c4.6,3,10.6,4.1,17.7,3.2c26.3-3.2,41.4-30.4,48.1-46.4c0,0,0,0,0-0.1c0.4-1,0.8-1.9,1.1-2.7c0.1-0.1,0.1-0.2,0.1-0.3l0.2-0.5
					c0.1-0.2,0.1-0.4,0.2-0.5c0.2-0.4,0.6-0.7,1.1-0.5c0.4,0.2,0.7,0.6,0.5,1.1c-0.1,0.2-0.1,0.4-0.2,0.6l-0.2,0.4
					c0,0.1-0.1,0.2-0.1,0.3c-0.3,0.8-0.7,1.7-1.1,2.7c0,0,0,0,0,0.1c-6.8,16.4-22.2,44.3-49.4,47.5
					C492.8,246.4,491.2,246.4,489.7,246.4z"/>
			</g>
			<g id="tshirt_1_">
				<g>
					<path d="M475.2,291.3c-0.2-0.1,1.1-4.8,1.5-8.3c0.2-1.8,0.3-3.5,0.3-3.5c0-0.4,0-0.8,0-1.2c1-0.1,2-0.1,3.1-0.2
						c0.1,0,0.2,0,0.4,0C479.4,282.1,475.2,291.3,475.2,291.3z"/>
					<path d="M475.3,292.2l-0.3-0.1c-0.9-0.2-0.8-0.7-0.2-3.5c0.4-1.6,0.8-3.9,1.1-5.7c0.2-1.7,0.3-3.4,0.3-3.5c0-0.4,0-0.8,0-1.1
						v-0.8l0.8,0c1-0.1,2-0.1,3-0.2l1.6-0.1l-0.3,1.2c-0.7,2.6-5,13.4-5.7,13.8L475.3,292.2z M477.9,279c0,0.1,0,0.3,0,0.4
						c0,0.1-0.1,1.8-0.3,3.6c0,0.4-0.1,0.7-0.2,1.1c0.7-1.8,1.5-3.7,2-5.2C478.9,279,478.4,279,477.9,279z"/>
				</g>
				<g>
					<path d="M490.4,276.5c-0.5,1.5-1.3,3.7-2.3,6.5c-1.7,5-2.6,7.5-2.7,7.5c-0.1,0,0.4-2,1-4.8c0.8-3.6,1.4-6.6,1.7-8.8
						C488.8,276.8,489.6,276.7,490.4,276.5z"/>
					<path d="M485.6,291.4c-0.1,0-0.2,0-0.4-0.1c-0.9-0.2-0.8-0.6-0.1-3.5c0.2-0.7,0.3-1.4,0.5-2.3c0.7-2.9,1.2-5.9,1.7-8.7l0.1-0.6
						l0.6-0.1c0.7-0.1,1.4-0.3,2.2-0.4l1.5-0.3l-0.5,1.4c-0.5,1.5-1.3,3.7-2.3,6.5l-1.1,3.2C486.4,290.6,486.1,291.4,485.6,291.4z
						 M488.9,277.7c-0.1,0.3-0.1,0.7-0.2,1c0.1-0.4,0.2-0.7,0.4-1C489,277.6,488.9,277.7,488.9,277.7z"/>
				</g>
				<g>
					<path d="M500.3,277.1c-0.3,0.7-0.5,1.4-0.8,2.1c-0.3-0.3-0.7-0.6-1.1-0.9c0.3-1.1,0.6-2.2,0.9-3.3
						C499.6,275.6,499.9,276.3,500.3,277.1z"/>
					<path d="M499.8,280.6l-0.9-0.8c-0.3-0.3-0.7-0.6-1.1-0.9l-0.5-0.4l0.2-0.6c0.3-1.1,0.6-2.2,0.9-3.3l0.6-2.3l1,2.2
						c0.3,0.7,0.6,1.4,1,2.1l0.2,0.3l-0.1,0.3c-0.2,0.4-0.3,0.9-0.5,1.3L499.8,280.6z"/>
				</g>
				<g>
					<path d="M510.7,277.4c-0.4,0.3-0.7,0.7-1,1c-0.4-0.7-0.8-1.4-1.2-2.1c0.2-0.8,0.5-1.6,0.6-2.3
						C509.6,275.2,510.1,276.3,510.7,277.4z"/>
					<path d="M509.6,279.9l-1.1-1.8c-0.3-0.5-0.5-0.9-0.8-1.3l-0.2-0.3l0.1-0.4c0.2-0.8,0.4-1.5,0.6-2.2l0.6-2.3l1,2.2
						c0.5,1.1,1,2.2,1.5,3.3l0.3,0.6l-0.4,0.4c-0.4,0.4-0.7,0.7-0.9,1L509.6,279.9z"/>
				</g>
				<g>
					<path d="M525.1,286.9c-3.9-7.1-7.2-13-9.5-17.5c0.9-0.3,1.8-0.7,2.7-1C520.9,276.2,524.6,285.6,525.1,286.9z"/>
					<path d="M524.4,287.3c-4.2-7.5-7.3-13.2-9.5-17.5l-0.4-0.9l0.9-0.3c0.9-0.3,1.8-0.7,2.7-1l0.8-0.3l0.3,0.9
						c2.6,7.8,6.3,17.4,6.8,18.5L524.4,287.3z M516.8,269.9c0.9,1.8,2,3.8,3.3,6.1c-0.8-2.1-1.6-4.4-2.3-6.5
						C517.5,269.6,517.1,269.8,516.8,269.9z"/>
				</g>
				<g>
					<path d="M661.5,317.5c-3.1,11.8-10.8,18.3-10.8,18.3c-12.2,10.2-28.8,7.4-32.7,6.6c1.3,4.8,2.7,9.8,4.4,14.9
						c1.8,5.6,3.7,10.9,5.7,16v0c-0.7,1.4-1.4,2.8-2.1,4.1c-2.5,4.7-6,10.3-11.3,16.4c0,0-0.1,0.1-0.1,0.1c0,0,0,0,0,0
						c-1.2,1.4-2.5,2.8-3.9,4.3c-0.1,0.1-0.1,0.2-0.2,0.2l0,0c0.1-0.1,0.1-0.3,0.2-0.4c2.9-5.2,4.4-9.7,5.3-13c2.1-8,0.7-10.2,0-11
						c-0.2-0.2-1.5-1.7-3.3-1.8c-2.8-0.2-5.1,3-7.8,8h0c-1.8,3.2-3.8,7.3-6.3,11.7c-0.2,0.3-0.4,0.6-0.5,1c-1.4,2.4-3.2,5.4-5.5,8.8
						c-1.4,2.2-3.1,4.5-5,7c-0.2-0.3-0.5-0.7-0.7-1c-41.1,12.9-82.1,25.8-123.2,38.8c-2.4-1.5-5.1-3.3-8-5.2
						c-0.8-0.5-1.6-1.1-2.5-1.6c-0.6-0.4-1.1-0.8-1.7-1.1c-0.4-0.3-0.8-0.5-1.1-0.8c-1.4-0.9-2.8-1.9-4.3-2.9
						c-0.9-0.6-1.8-1.2-2.7-1.8c-2.3-1.6-4.7-3.3-7.2-5.1c2.3-17.3,4.6-34.6,7-51.9c-29.4,13-41.2,5.7-44.1,3.5
						c-3.2-2.3-5.7-5.6-7.4-9.9c4.3-3.5,9.1-8.3,8.2-12.6c-0.1-0.3-0.4-1.6-1.3-2.3c-1.9-1.5-5.7,0-9.8,2.7c-0.1-1-0.2-2.1-0.3-3.2
						c1.7-1.9,3.5-3.8,5.3-5.7c1-1.1,2.3-2.5,3.2-4.2c0.9-1.5,1.3-3.1,0.9-4.7c-0.4-1.6-1.7-3-3.2-3.4c-1.2-0.4-2.4-0.2-3.7,0.5
						c-0.6,0.3-1.3,0.7-1.9,1.2c2.5-19.8,10.9-44.6,25.6-71.7c14.2,6.5,32.9,12.2,55,12.2c-0.5,2.9-1,6.4-1.9,10.2
						c-0.1,0.6-0.3,1.2-0.5,1.9c0,0.1-0.1,0.3-0.1,0.4c-0.1,0.3-0.2,0.6-0.3,0.9c0,0.1-0.1,0.2-0.1,0.3c-0.2,0.6-0.4,1.2-0.6,1.9
						c-0.1,0.3-0.2,0.6-0.3,0.9c-0.4,1.3-1,2.8-1.6,4.3c-0.2,0.6-0.5,1.1-0.7,1.7c0,0.1,0,0.1-0.1,0.2c-0.1,0.3-0.3,0.7-0.4,1
						c0,0,0,0,0,0c-0.2,0.4-0.4,0.8-0.6,1.2c-0.1,0.2-0.2,0.4-0.3,0.7c0,0,0,0,0,0c-0.1,0.1-0.1,0.3-0.2,0.4c0,0,0,0,0,0l1.4,1.4
						c0,0,0,0,0,0l1.7,1.7l4.8,5l14.9,15.3c1.1-1.6,12.7-18.2,21.3-31.1c10.5,11.3,24.3,25.6,25.6,26.9l12.3-17.5l4-5.7l1.4-2
						c0,0,0,0,0,0l1.1-1.6c0,0,0,0,0,0c-0.1-0.1-0.2-0.2-0.3-0.4c0,0,0,0,0,0c-0.1-0.2-0.3-0.4-0.4-0.6c-0.3-0.4-0.5-0.8-0.8-1.1
						c0,0,0,0,0,0c-0.2-0.3-0.4-0.6-0.6-0.9c0,0-0.1-0.1-0.1-0.1c-0.3-0.5-0.7-1-1-1.6c-0.8-1.4-1.6-2.7-2.2-4
						c-0.1-0.3-0.3-0.5-0.4-0.8c-0.3-0.6-0.6-1.2-0.9-1.8c-0.1-0.1-0.1-0.2-0.2-0.3c-0.1-0.3-0.3-0.6-0.4-0.9
						c-0.1-0.1-0.1-0.3-0.2-0.4c-0.3-0.6-0.5-1.2-0.8-1.8c-1.7-4.1-2.8-8-3.9-11c-0.1-0.1-0.1-0.3-0.2-0.4c-1.1-3-2.2-5-3.7-5.2
						c-1.1-0.1-2.2,0.7-2.7,1.4c-0.8,1-0.9,2.5-0.5,5.3c0.2,1.2,0.3,2,0.4,2.2c1.4,5.6,3.6,10.9,3.3,11.1c-0.1,0-4.4-6.6-6.3-10.4
						c-1.7-3.5-3-6.7-3.9-9.6c20.1-9.1,42.7-24.9,57.5-52c0.7-1.2,1.3-2.4,1.9-3.7C635.5,253,667.3,295.4,661.5,317.5z"/>
					<path d="M463.4,447.4l-0.3-0.2c-2.8-1.8-5.4-3.5-8-5.2c-0.8-0.5-1.6-1.1-2.5-1.6l-2.9-1.9c-1.4-0.9-2.8-1.9-4.3-2.9
						c-0.9-0.6-1.8-1.2-2.7-1.8c-2.4-1.6-4.8-3.4-7.3-5.1l-0.4-0.3l0.9-6.7c2-14.7,4-29.4,5.9-44.2c-26,11.1-38.5,6.6-43.6,2.8
						c-3.3-2.4-5.9-5.8-7.7-10.2l-0.2-0.6l0.5-0.4c6-4.9,8.6-8.7,7.9-11.7c-0.2-0.8-0.5-1.5-1-1.9c-1.3-1-4.5-0.1-8.9,2.7l-1.2,0.7
						l-0.1-1.4c-0.1-1-0.2-2.1-0.3-3.2l0-0.4l0.2-0.3c1.7-1.9,3.5-3.8,5.3-5.7c0.9-1,2.2-2.4,3.1-4c0.9-1.5,1.1-2.9,0.8-4
						c-0.3-1.3-1.4-2.5-2.6-2.8c-0.9-0.3-1.9-0.2-3,0.4c-0.6,0.3-1.2,0.7-1.8,1.1l-1.6,1.2l0.3-2c2.7-21.1,11.6-46,25.7-72l0.4-0.7
						l0.7,0.3c17.6,8.1,36,12.1,54.6,12.1l1,0l-0.2,1c-0.1,0.7-0.2,1.4-0.4,2.2c-0.4,2.4-0.9,5.2-1.5,8.1c-0.1,0.6-0.3,1.2-0.5,1.9
						c0,0.2-0.1,0.3-0.1,0.5c-0.1,0.2-0.1,0.5-0.2,0.8l-0.1,0.5c-0.2,0.6-0.4,1.3-0.6,1.9l-0.1,0.2c-0.1,0.2-0.1,0.4-0.2,0.7
						c-0.5,1.4-1,2.9-1.6,4.3c-0.2,0.6-0.5,1.1-0.7,1.7l-0.1,0.3c-0.1,0.2-0.2,0.5-0.3,0.7v0.7l-0.3,0c-0.1,0.3-0.2,0.5-0.4,0.8
						l-0.3,0.6l21.7,22.3c3.1-4.4,13.1-18.7,20.7-30.2l0.6-0.9l0.7,0.8c9.6,10.3,21.8,23,24.9,26.2l17.8-25.5l-0.4-0.5
						c-0.3-0.4-0.5-0.8-0.8-1.2l-0.1-0.2c-0.2-0.2-0.3-0.5-0.5-0.7c0,0-0.1-0.1-0.1-0.2c-0.3-0.5-0.7-1-1-1.5
						c-0.8-1.3-1.5-2.6-2.2-4l-0.4-0.8c-0.3-0.6-0.6-1.2-0.9-1.8c-0.1-0.1-0.1-0.2-0.2-0.3c-0.1-0.3-0.3-0.6-0.4-0.9l-0.2-0.3
						c-0.3-0.7-0.6-1.3-0.8-1.9c-1.1-2.7-2-5.4-2.8-7.7c-0.4-1.2-0.8-2.3-1.1-3.3c0-0.1-0.1-0.3-0.2-0.4c-0.8-2.1-1.8-4.5-3-4.6
						c-0.7-0.1-1.5,0.5-2,1.1c-0.6,0.9-0.7,2.2-0.4,4.7c0.2,1.2,0.4,2,0.4,2.1c0.8,3,1.7,5.9,2.5,8.1c1.1,3.2,1.2,3.6,0.4,4
						l-0.2,0.1h-0.2c-0.6,0-0.6,0-3.2-4.2c-1.2-1.9-2.9-4.7-3.9-6.7c-1.6-3.2-2.9-6.4-3.9-9.7l-0.2-0.7l0.7-0.3
						c25.5-11.5,44.7-28.9,57.1-51.6c0.6-1.2,1.3-2.4,1.9-3.6l0.5-1l0.8,0.7c53.6,44.9,83.4,86.4,77.6,108.3
						c-3.1,12-10.8,18.5-11.1,18.7c-10.9,9.1-25.2,8.2-32.1,7c1.2,4.5,2.6,9.1,4.1,13.6c1.7,5.4,3.7,10.7,5.7,15.9l0.1,0.2v0.4
						l-0.2,0.4c-0.7,1.4-1.4,2.7-2,4c-3,5.7-6.8,11.2-11.3,16.4v0l-0.3,0.3c-1.1,1.3-2.4,2.7-3.9,4.2c-0.1,0.1-0.1,0.2-0.2,0.2
						l-4.2,4.2l3.1-5.6c2.3-4.1,4-8.4,5.2-12.8c1.4-5.3,1.5-8.8,0.2-10.3c-0.2-0.2-1.3-1.4-2.7-1.5c-2.3-0.2-4.5,2.9-7,7.5l-0.2,0.4
						c-0.7,1.3-1.4,2.7-2.2,4.1c-1.1,2.2-2.4,4.6-3.8,7.1c-0.2,0.3-0.4,0.6-0.5,1c-1.7,2.9-3.5,5.9-5.5,8.9c-1.6,2.4-3.3,4.7-5,7.1
						l-0.7,0.9l-0.7-1c-0.1-0.2-0.2-0.3-0.3-0.5L463.4,447.4z M437,427.4c2.3,1.6,4.6,3.3,6.8,4.8c0.9,0.6,1.8,1.2,2.7,1.8
						c1.5,1,2.9,2,4.3,2.9l2.8,1.9c0.8,0.6,1.7,1.1,2.5,1.6c2.5,1.7,5,3.3,7.6,5L587,406.7l0.4,0.6c1.5-2,2.9-4,4.3-6
						c2-2.9,3.8-5.9,5.5-8.8c0.2-0.3,0.4-0.6,0.5-1c1.4-2.5,2.7-4.9,3.8-7.1c0.9-1.7,1.7-3.2,2.5-4.6l0.3-0.4c2.8-5.1,5.3-8.2,8.4-8
						c2,0.1,3.5,1.6,3.9,2.1c1.1,1.2,2.3,3.8,0.2,11.8c-0.7,2.7-1.7,5.4-2.8,8.1l0.2-0.2c4.4-5.1,8.2-10.5,11.1-16.2
						c0.6-1.2,1.3-2.5,1.9-3.8c-2-5.1-3.9-10.4-5.6-15.7c-1.6-5-3.1-10-4.4-15l-0.4-1.3l1.3,0.3c5.9,1.2,21,2.9,32-6.4
						c0.1-0.1,7.5-6.4,10.5-17.9l0,0c5.5-20.9-24.4-62.4-76.2-105.9c-0.5,0.9-1,1.9-1.5,2.7c-12.5,22.8-31.8,40.3-57.2,52
						c1,3,2.2,5.9,3.6,8.8c0.7,1.5,1.8,3.4,2.9,5.1c-0.5-1.6-1-3.4-1.5-5.2c0-0.2-0.2-1.1-0.4-2.2c-0.4-3-0.3-4.7,0.7-5.9
						c0.7-0.9,2-2,3.5-1.8c2,0.3,3.2,2.5,4.4,5.7c0,0.1,0.1,0.3,0.1,0.4c0.4,1,0.7,2.2,1.1,3.3c0.8,2.3,1.6,4.9,2.8,7.6
						c0.2,0.6,0.5,1.2,0.8,1.8c0,0,0.1,0.1,0.1,0.2l0.1,0.2c0.1,0.3,0.3,0.6,0.4,0.9c0.1,0.1,0.1,0.2,0.1,0.3
						c0.3,0.6,0.6,1.2,0.9,1.8l0.4,0.8c0.7,1.3,1.4,2.6,2.2,3.9c0.3,0.5,0.6,1,1,1.5l0.1,0.1c0.2,0.3,0.4,0.6,0.6,0.9l0.1,0.2
						c0.2,0.3,0.4,0.6,0.6,0.9c0.1,0.1,0.2,0.2,0.3,0.4l0.1,0.1l0.3,0.2l0,0.2c0,0,0.1,0.1,0.1,0.1l0.1,0.1l0.2,0.4l-0.3,0.5
						l-19.4,27.7l-0.7-0.7c-0.1-0.1-14-14.4-24.9-26.1c-8.2,12.2-18.6,27.3-20.7,30.2l-0.6,0.8l-23.9-24.6l0.3-0.5
						c0.1-0.1,0.1-0.2,0.1-0.3v-0.2l0.2-0.2l0.3-0.5c0.2-0.4,0.4-0.8,0.6-1.2l0.1-0.2c0.1-0.2,0.2-0.4,0.3-0.7l0.1-0.3
						c0.2-0.6,0.5-1.1,0.7-1.7c0.6-1.4,1.1-2.8,1.5-4.2c0.1-0.2,0.1-0.4,0.2-0.6l0.1-0.2c0.2-0.7,0.4-1.3,0.6-1.9l0.1-0.5
						c0.1-0.3,0.1-0.5,0.2-0.8c0-0.2,0.1-0.3,0.1-0.4c0.2-0.7,0.3-1.3,0.5-1.9c0.7-2.9,1.1-5.6,1.5-8c0.1-0.4,0.1-0.8,0.2-1.2
						c-18.3-0.1-36.3-4.2-53.6-12c-13.4,24.8-22,48.5-24.9,68.9c0.2-0.1,0.3-0.2,0.5-0.2c1.5-0.8,2.9-0.9,4.3-0.5
						c1.8,0.6,3.3,2.2,3.8,4c0.4,1.6,0.1,3.4-1,5.3c-1,1.7-2.4,3.3-3.4,4.3c-1.7,1.8-3.4,3.7-5.1,5.5c0,0.5,0.1,0.9,0.1,1.4
						c4.6-2.7,7.8-3.4,9.7-1.9c0.8,0.6,1.3,1.6,1.6,2.8c1,4.7-3.9,9.6-8,13c1.7,3.8,4,6.8,6.9,8.9c4,2.9,16.1,8.3,43.3-3.6l1.4-0.6
						l-0.2,1.5c-2,15.2-4.1,30.4-6.1,45.7L437,427.4z"/>
				</g>
			</g>
			<g id="head_2_">
				<path id="hair_2_" d="M527.8,196.9c-1-4.7-4.5-22.4-5.3-26.5c1.2,0.5,2.9,1.1,4.9,1.2c1,0.1,5.8,0.4,9.4-2.6
					c4.4-3.7,5.5-10.9,2.4-16.1c-0.3-0.5-2.7-4.3-7.3-5.5c-3.6-0.9-6.6,0.2-7.8,0.7c-2.7,1.2-4.2,3.1-4.9,4
					c-3.7-3.8-7.8-8.6-11.6-14.4c-6.2-9.3-9.8-18.1-12.1-25c-2,4.1-5.1,9.3-9.6,14.5c-5.9,6.8-12,11.2-16.6,13.9
					c-0.1,6.9,0.3,30.3,15.9,40.8c1.3,0.9,2.7,1.6,4.2,2.3c-0.6,4.5-1.2,9.1-1.8,13.6c-2.2,0.7-4.5,1.6-6.9,2.6
					c-4.5,1.9-8.5,4.1-11.9,6.2c-20.7-5.7-41.4-11.5-62-17.2c14.6-49.3,45.6-84.7,79.9-88.1c17.7-1.7,31.6,5.1,34.2,6.4
					c27.2,13.8,42.7,47.7,40.6,87.1C550.3,195.4,539,196.1,527.8,196.9z"/>
				<path d="M512.9,179.4c-1.9,2.2-4.7,4.9-8.5,7.3c-4.5,2.8-8.8,4.2-12.3,4.9c-1.4,0.3-3.1,0.5-3.1,0.5c-0.3,0-0.5,0.1-0.6,0.1
					c0.1-1.7,0.2-3.6,0.6-5.6c0.1-0.8,0.3-1.6,0.5-2.4c0.7,0.2,1.8,0.5,3.2,0.7c0,0,2.1,0.3,4.5,0.1
					C500,184.8,505.8,183,512.9,179.4z"/>
				<path d="M528.7,172.5c-0.4,0-0.9,0-1.3-0.1c-1.8-0.1-3.5-0.6-5.2-1.3c-0.3-0.1-0.6-0.3-0.8-0.4c-0.4-0.2-0.6-0.7-0.4-1.1
					c0.2-0.4,0.7-0.6,1.1-0.4c0.2,0.1,0.5,0.2,0.7,0.4c1.5,0.7,3,1.1,4.6,1.2c3.5,0.3,6.6-0.6,8.8-2.4c4.1-3.5,5.1-10.2,2.2-15
					c-0.4-0.7-2.6-4.1-6.7-5.2c-0.5-0.1-1-0.2-1.6-0.3c-4.2-0.4-8.3,1.6-10.7,5.4c-0.3,0.4-0.8,0.5-1.2,0.3
					c-0.4-0.3-0.5-0.8-0.3-1.2c2.8-4.3,7.5-6.7,12.3-6.2c0.6,0.1,1.3,0.2,1.8,0.3c4.6,1.2,7.1,4.8,7.8,5.9
					c3.3,5.5,2.1,13.2-2.6,17.2C535.2,171.5,532.1,172.5,528.7,172.5z"/>
			</g>
			<g id="hands_1_">
				<g>
					<path d="M499.7,296.3c-0.2,0-0.4-0.1-0.5-0.2c-0.4-0.3-0.5-0.8-0.2-1.2l2.2-2.9c0.3-0.4,0.8-0.5,1.2-0.2
						c0.4,0.3,0.5,0.8,0.2,1.2l-2.2,2.9C500.3,296.2,500,296.3,499.7,296.3z"/>
					<path d="M475.7,272.1c0.9,0.9,1.3,2.3,1.4,5.1c0,0.3,0,0.7,0,1c-2.5,0.2-5,0.2-7.5,0.2c0.1-0.4,0.1-0.8,0.2-1.3
						c0-0.1,0.1-0.3,0.1-0.4c0.6-3.1,1.4-5.3,2.9-5.7C473.9,270.7,475,271.4,475.7,272.1z"/>
					<path d="M489.7,267.4c-0.2,1.6-0.4,1.6-0.8,4.1c-0.3,1.6-0.5,3.4-0.7,5.5c-1.6,0.2-3.1,0.5-4.8,0.7c-1,0.1-1.9,0.2-2.8,0.3
						c1.4-5.3,2.1-10,2.8-13.6c0.5-2.7,1.1-6,3-6.5c1.1-0.3,2.3,0.5,2.3,0.6C490.8,260.1,490.1,264.4,489.7,267.4z"/>
					<path d="M499.1,274.6c-1.5,0.4-3,0.8-4.6,1.1c-1.4,0.3-2.8,0.6-4.1,0.8c2.1-6,3.5-10.4,4.1-13c0.2-1,0.9-3.8,2.8-4.5
						c1-0.4,2.2-0.1,3,0.4c1.5,1,2.1,3.4,1.1,5.7c-0.2-0.2-0.6-0.4-1.1-0.5c0,0-1-0.2-1.9,0.5c-1.1,0.8-1.1,2.3-1.2,3.3
						C497,271.1,498.2,273.3,499.1,274.6z"/>
					<path d="M506.3,272.6c0.6-0.2,1.2-0.4,1.8-0.6l-2.7-6.9c-0.8,0.5-1.4,1.5-1.8,2.4L506.3,272.6z"/>
				</g>
				<g id="hand_1_">
					<g>
						<path d="M515.8,269.7c-2.6,1-5.1,1.9-7.5,2.6c0-0.1-0.1-0.2-0.1-0.3c-1.1-2.6-2.1-5-2.7-6.9c0-0.1-0.1-0.2-0.1-0.4
							c-0.8-2.6-1.1-4.8,0.1-6.1c0.7-0.8,1.9-1.1,2.9-0.9c2.1,0.4,3.1,3.1,3.5,4c0.7,1.8,2,4.3,3.7,7.7
							C515.7,269.5,515.7,269.6,515.8,269.7z"/>
						<path d="M524.8,265.9c-2.2,1-4.3,2-6.4,2.8c0-0.1-0.1-0.2-0.1-0.3c-1.4-4.3-2.5-8.1-2.4-9.8c0-0.7,0-2.6,1.2-3.4
							c0,0,0.8-0.5,1.9-0.3c2.2,0.4,3.5,4.7,5.7,10.8C524.8,265.7,524.8,265.8,524.8,265.9z"/>
						<path d="M525.1,287.7c-0.3,0-0.6-0.2-0.7-0.4c-4.1-7.3-7.1-12.9-9.4-17.2c-0.2-0.4-0.1-0.9,0.4-1.1c0.4-0.2,0.9-0.1,1.1,0.4
							c1,1.9,2.2,4.1,3.5,6.6c-0.8-2.3-1.7-4.7-2.4-7c-0.1-0.4,0.1-0.9,0.5-1.1c0.5-0.1,0.9,0.1,1.1,0.5c2.4,7.2,5.7,15.7,6.7,18.2
							c0.2,0.4,0,0.9-0.4,1.1C525.4,287.7,525.2,287.7,525.1,287.7z"/>
						<path d="M534.9,286.5c-0.3,0-0.5-0.1-0.7-0.4c0,0,0,0,0,0c-5.1-6.6-8-13.8-10.2-20c-0.2-0.4,0.1-0.9,0.5-1.1
							c0.4-0.2,0.9,0.1,1.1,0.5c2.3,6.4,5,13.1,10,19.6l0,0c0.1,0.2,0.2,0.4,0.2,0.5C535.8,286.1,535.4,286.5,534.9,286.5z"/>
						<path d="M518.2,293.1c-0.3,0-0.6-0.2-0.8-0.5l-0.2-0.4c-0.7-1.3-2.2-4.1-3.9-7.5c-1.2-2.3-2.4-4.7-3.4-6.9
							c-0.5-1.1-1.1-2.2-1.6-3.3c-0.3-0.6-0.5-1.2-0.8-1.8c-0.2-0.4,0-0.9,0.4-1.1c0.4-0.2,0.9,0,1.1,0.4c0.3,0.6,0.5,1.2,0.8,1.8
							c0.5,1.1,1,2.2,1.5,3.3c1.1,2.2,2.2,4.6,3.4,6.9c1.7,3.3,3.2,6.1,3.9,7.5l0.2,0.4c0.2,0.4,0.1,0.9-0.4,1.1
							C518.5,293,518.3,293.1,518.2,293.1z"/>
						<path d="M506.5,272.9c-1.2,0.4-2.5,0.7-3.8,1.1c-1.2,0.3-2.3,0.6-3.5,0.9c-0.9-1.7-2-4-2.1-6.6c-0.1-1.3,0.1-2,0.6-2.5
							c0.7-0.8,2.4-1,2.5-1c0,0,0,0,0,0c0.2,0,0.4,0,0.6,0.1c0.3,0.1,0.4,0.2,0.6,0.3c0.9,0.5,1.7,1.5,2.2,2.4
							c0.4,0.7,0.7,1.2,0.9,1.7C505,270.1,505.7,271.4,506.5,272.9z"/>
						<path d="M518.2,293.1c-0.3,0-0.5-0.1-0.7-0.3l0,0c0,0-0.1-0.1-0.1-0.1l0,0c-1.5-2.5-3-4.9-4.5-7.2l-0.5-0.7
							c-1.1-1.7-2.2-3.4-3.5-5.6c-0.3-0.5-0.6-1-1.2-2.1l-0.2-0.3c-0.7-1.2-1-1.8-1.3-2.3c-0.3-0.5-0.5-0.8-0.8-1.5l-0.1-0.1
							l1.5-0.9l-0.7,0.4l0.8-0.4l0.1,0.2c0.3,0.6,0.5,0.9,0.8,1.5c0.3,0.5,0.6,1.1,1.3,2.3l0.2,0.3c0.6,1.1,0.9,1.6,1.2,2.1
							c1.2,2.2,2.3,3.8,3.4,5.5l0.5,0.7c1.5,2.3,3,4.7,4.5,7.2c0,0,0,0,0,0c0.3,0.4,0.2,0.9-0.2,1.2
							C518.6,293.1,518.4,293.1,518.2,293.1z"/>
						<path d="M512.4,296.2c-0.3,0-0.5-0.1-0.7-0.3c-2.2-3-4.4-6-6.5-9.1c-0.2-0.2-3.9-5.6-5.7-9.3c-0.1-0.3-0.7-1.5-0.9-2l-0.1-0.2
							c-0.1-0.1-0.1-0.2-0.2-0.4l-0.1-0.1l0.8-0.4l0.8-0.3l-0.8,0.3l0.8-0.3l0.1,0.2c0,0.1,0.1,0.2,0.1,0.3l0.1,0.2
							c0.2,0.5,0.8,1.7,0.9,1.9c1.7,3.5,5.6,9,5.6,9.1c2.1,3,4.3,6.1,6.5,9c0.3,0.4,0.2,0.9-0.2,1.2
							C512.8,296.1,512.6,296.2,512.4,296.2z"/>
						<path d="M531.7,324.7c-0.2,0-0.4-0.1-0.6-0.3c-0.1-0.1-14.7-15.1-25.6-26.9c-1.3-1.4-2.6-2.8-3.8-4.2c-2.6-2.9-4.5-5-5.7-6.5
							c-0.2-0.2-0.4-0.5-0.6-0.7c-0.5-0.5-0.8-1-1.1-1.4c-2.3-3.2-3-5.7-2.1-7.3c0.1-0.2,0.7-1.2,1.9-1.6c1.1-0.4,2.2,0,3.1,0.5
							c1,0.5,1.7,1,1.9,1.2c1.4,1.2,4.9,5.2,9,10c0.3,0.4,0.3,0.9-0.1,1.2c-0.4,0.3-0.9,0.3-1.2-0.1c-4.6-5.4-7.7-8.8-8.8-9.8
							c-0.1-0.1-0.7-0.5-1.5-0.9c-0.6-0.3-1.2-0.6-1.8-0.4c-0.6,0.2-0.9,0.7-0.9,0.8c-0.2,0.4-0.6,1.8,2,5.5
							c0.3,0.4,0.6,0.9,1.1,1.4c0.2,0.2,0.3,0.4,0.5,0.6c1.2,1.5,3.1,3.6,5.7,6.5c1.2,1.3,2.5,2.7,3.8,4.1
							c9.6,10.3,21.8,23,24.9,26.2l17.8-25.5l-0.4-0.5c-0.3-0.4-0.5-0.8-0.8-1.2c0,0,0-0.1-0.1-0.1c-0.2-0.3-0.4-0.6-0.6-0.9
							c0,0-0.1-0.1-0.1-0.2c-0.3-0.5-0.7-1-1-1.5c-0.8-1.3-1.5-2.6-2.2-4l-0.4-0.8c-0.3-0.6-0.6-1.2-0.9-1.8
							c-0.1-0.1-0.1-0.2-0.2-0.3c-0.1-0.3-0.3-0.6-0.4-0.9c0,0,0-0.1-0.1-0.2l-0.1-0.2c-0.3-0.7-0.6-1.3-0.8-1.9
							c-1.1-2.7-2-5.4-2.8-7.7c-0.4-1.2-0.8-2.3-1.1-3.3c0-0.1-0.1-0.3-0.2-0.4c-0.8-2.1-1.8-4.5-3-4.6c-0.7-0.1-1.5,0.5-2,1.1
							c-0.6,0.9-0.7,2.2-0.4,4.7c0.1,0.6,0.2,1.3,0.4,2.1c0.3,1.4,0.9,4,3.3,10.9c0,0,0,0,0,0c0,0.1,0.1,0.2,0.1,0.3
							c0,0.5-0.4,0.9-0.8,0.9c-0.4,0-0.7-0.2-0.8-0.6c0,0,0,0,0-0.1c-2.4-7-3-9.7-3.3-11.2c-0.2-0.8-0.3-1.5-0.4-2.2
							c-0.4-3-0.3-4.7,0.7-5.9c0.7-0.9,2-2,3.5-1.8c2,0.3,3.2,2.5,4.4,5.7c0,0.1,0.1,0.3,0.1,0.4c0.4,1,0.7,2.2,1.1,3.3
							c0.8,2.3,1.6,4.9,2.8,7.6c0.2,0.6,0.5,1.2,0.8,1.8c0,0,0.1,0.1,0.1,0.2l0.1,0.2c0.1,0.3,0.3,0.6,0.4,0.9
							c0.1,0.1,0.1,0.2,0.1,0.3c0.3,0.6,0.6,1.2,0.9,1.8l0.4,0.8c0.7,1.3,1.4,2.6,2.2,3.9c0.3,0.5,0.6,1,1,1.5l0.1,0.1
							c0.2,0.3,0.4,0.6,0.6,0.9c0,0,0,0.1,0.1,0.1c0.2,0.3,0.5,0.7,0.7,1c0.1,0.1,0.2,0.2,0.3,0.4l0.1,0.2c0,0,0,0,0.1,0.1v0
							c0.1,0.1,0.1,0.2,0.2,0.3c0,0,0.1,0.1,0.1,0.1c0.1,0.3,0.1,0.6,0,0.9l-1.1,1.6c0,0,0,0,0,0.1l-17.6,25.2
							C532.3,324.6,532,324.7,531.7,324.7C531.8,324.7,531.7,324.7,531.7,324.7z M550.2,296.6L550.2,296.6L550.2,296.6z"/>
					</g>
					<path d="M494.4,293.7c-0.1,0-0.2,0-0.4-0.1c-0.4-0.2-0.6-0.7-0.4-1.1l2.7-5.8c0.2-0.4,0.7-0.6,1.1-0.4c0.4,0.2,0.6,0.7,0.4,1.1
						l-2.7,5.8C495.1,293.5,494.8,293.7,494.4,293.7z"/>
				</g>
			</g>
			<g id="necklace_1_">
				<path d="M492.6,227.6c-0.1,0-0.1,0-0.2,0c-0.2,0-0.4-0.2-0.6-0.4L476,202.7c-0.3-0.4-0.1-0.9,0.2-1.2c0.4-0.3,0.9-0.1,1.2,0.2
					l15.4,23.7l42.4-31.1c0.4-0.3,0.9-0.2,1.2,0.2c0.3,0.4,0.2,0.9-0.2,1.2l-43.1,31.6C492.9,227.5,492.8,227.6,492.6,227.6z"/>
				<circle cx="492.7" cy="226.7" r="3.1"/>
			</g>
			<g id="line_1_">
				<path d="M444.9,107.8c-0.1,0-0.2,0-0.3,0l-21.6-7.7c-0.4-0.2-0.7-0.6-0.5-1.1c0.2-0.4,0.6-0.7,1.1-0.5l21.6,7.7
					c0.4,0.2,0.7,0.6,0.5,1.1C445.5,107.6,445.2,107.8,444.9,107.8z"/>
				<path d="M467.2,88.6c-0.3,0-0.6-0.2-0.8-0.5l-9.7-20.8c-0.2-0.4,0-0.9,0.4-1.1c0.4-0.2,0.9,0,1.1,0.4l9.7,20.8
					c0.2,0.4,0,0.9-0.4,1.1C467.5,88.6,467.4,88.6,467.2,88.6z"/>
				<path d="M493.8,85.3c-0.1,0-0.2,0-0.3,0c-0.4-0.2-0.7-0.6-0.5-1.1l7.6-21.6c0.2-0.4,0.6-0.7,1.1-0.5c0.4,0.2,0.7,0.6,0.5,1.1
					l-7.6,21.6C494.5,85.1,494.2,85.3,493.8,85.3z"/>
			</g>
		</g>
	</g>
</g>
</svg>
