<?xml version="1.0" encoding="utf-8"?>
<!-- Generator: Adobe Illustrator 22.1.0, SVG Export Plug-In . SVG Version: 6.00 Build 0)  -->
<svg version="1.1" xmlns="http://www.w3.org/2000/svg" xmlns:xlink="http://www.w3.org/1999/xlink" x="0px" y="0px"
	 viewBox="0 0 923.3 780.4" style="enable-background:new 0 0 923.3 780.4;" xml:space="preserve">
<style type="text/css">
	.st0{fill:#FFD6D3;}
	.st1{fill:#00BE75;}
</style>
<g id="background">
	<g id="background_1_">
		<path d="M723.3,123.8c-12.7,0-26.2-9.8-39.9-29.1c-0.2-0.3-0.2-0.8,0.2-1c0.3-0.2,0.8-0.2,1,0.2c14,19.6,27.4,29.1,40,28.5
			c10.3-0.6,17.3-7.5,24.8-14.8c7.4-7.3,15.1-14.9,26.3-15.5c12.4-0.6,25.3,7.7,38.3,24.7c0.3,0.3,0.2,0.8-0.1,1.1
			c-0.3,0.3-0.8,0.2-1.1-0.1c-12.7-16.6-25.2-24.7-37.1-24.2c-10.6,0.5-18.1,7.9-25.3,15c-7.3,7.2-14.9,14.7-25.7,15.3
			C724.2,123.8,723.8,123.8,723.3,123.8z"/>
		<path d="M50.3,580.7c-6.5,0-13.4-5-20.4-14.8c-0.2-0.3-0.2-0.8,0.2-1c0.3-0.2,0.8-0.2,1,0.2c6.9,9.7,13.6,14.5,19.8,14.1
			c5-0.3,8.5-3.7,12.2-7.4c3.8-3.7,7.7-7.6,13.5-7.9c6.4-0.3,13,3.9,19.6,12.6c0.3,0.3,0.2,0.8-0.1,1.1c-0.3,0.2-0.8,0.2-1.1-0.1
			c-6.3-8.2-12.5-12.3-18.3-12c-5.2,0.3-8.7,3.8-12.5,7.5c-3.7,3.7-7.6,7.5-13.2,7.8C50.8,580.7,50.6,580.7,50.3,580.7z"/>
		<path d="M71,47c-10.7,0-21.9-8.2-33.5-24.4c-0.2-0.3-0.2-0.8,0.2-1c0.3-0.2,0.8-0.2,1,0.2C50.4,38,61.6,46,72.1,45.4
			c8.5-0.5,14.4-6.2,20.6-12.4c6.2-6.1,12.7-12.5,22.1-13c10.4-0.5,21.2,6.5,32.1,20.7c0.3,0.3,0.2,0.8-0.1,1.1
			c-0.3,0.3-0.8,0.2-1.1-0.1c-10.6-13.8-21-20.6-30.9-20.1c-8.8,0.4-14.8,6.3-21.1,12.5c-6.1,6-12.5,12.3-21.6,12.8
			C71.8,47,71.4,47,71,47z"/>
		
			<rect x="95.6" y="209.3" transform="matrix(0.742 0.6704 -0.6704 0.742 172.4751 -13.4467)" class="st0" width="16.3" height="16.3"/>
		<path d="M910.7,480.1c-0.2,0-0.4-0.1-0.5-0.2L898.4,468c-0.3-0.3-0.3-0.8,0-1.1l11.8-11.8c0.3-0.3,0.8-0.3,1.1,0l11.8,11.8
			c0.3,0.3,0.3,0.8,0,1.1l-11.8,11.8C911.1,480,910.9,480.1,910.7,480.1z M899.9,467.5l10.8,10.8l10.8-10.8l-10.8-10.8L899.9,467.5z
			"/>
		<path d="M877.7,344c-0.1,0-0.2,0-0.3,0c-0.4-0.1-0.6-0.6-0.4-1l6.8-17.9c0.1-0.4,0.6-0.6,1-0.4c0.4,0.1,0.6,0.6,0.4,1l-6.8,17.9
			C878.3,343.8,878,344,877.7,344z"/>
		<path d="M903.3,73.3c-0.2,0-0.4-0.1-0.6-0.3l-12.7-14.4c-0.3-0.3-0.2-0.8,0.1-1.1s0.8-0.2,1.1,0.1L903.9,72
			c0.3,0.3,0.2,0.8-0.1,1.1C903.7,73.2,903.5,73.3,903.3,73.3z"/>
		<path d="M92.4,387.5c-0.2,0-0.3-0.1-0.5-0.2c-0.3-0.3-0.4-0.7-0.1-1.1l12.2-14.9c0.3-0.3,0.7-0.4,1.1-0.1c0.3,0.3,0.4,0.7,0.1,1.1
			l-12.2,14.9C92.8,387.4,92.6,387.5,92.4,387.5z"/>
		<path d="M25.1,296.9c-0.1,0-0.3,0-0.4-0.1l-16.7-9.5c-0.4-0.2-0.5-0.7-0.3-1c0.2-0.4,0.7-0.5,1-0.3l16.7,9.5
			c0.4,0.2,0.5,0.7,0.3,1C25.7,296.8,25.4,296.9,25.1,296.9z"/>
		<path d="M32.2,679.7c-0.1,0-0.3,0-0.4-0.1l-16.7-9.5c-0.4-0.2-0.5-0.7-0.3-1c0.2-0.4,0.7-0.5,1-0.3l16.7,9.5
			c0.4,0.2,0.5,0.7,0.3,1C32.7,679.6,32.5,679.7,32.2,679.7z"/>
		<path d="M23.9,155.4c-0.2,0-0.4-0.1-0.5-0.2c-0.3-0.3-0.3-0.8,0-1.1l13.4-13.8c0.3-0.3,0.8-0.3,1.1,0c0.3,0.3,0.3,0.8,0,1.1
			l-13.4,13.8C24.3,155.3,24.1,155.4,23.9,155.4z"/>
		<path d="M748.7,20.4c-0.2,0-0.4-0.1-0.5-0.2c-0.3-0.3-0.3-0.7-0.1-1.1l12.7-14.4c0.3-0.3,0.7-0.3,1.1-0.1c0.3,0.3,0.3,0.7,0.1,1.1
			l-12.7,14.4C749.1,20.3,748.9,20.4,748.7,20.4z"/>
		<path d="M197.7,636.4c-0.3,0-0.5-0.1-0.6-0.4L187,619.7c-0.2-0.4-0.1-0.8,0.2-1c0.4-0.2,0.8-0.1,1,0.2l10.1,16.4
			c0.2,0.4,0.1,0.8-0.2,1C198,636.4,197.8,636.4,197.7,636.4z"/>
		<path d="M111.5,744.5c-0.3,0-0.5-0.1-0.6-0.4c-0.2-0.4-0.1-0.8,0.3-1l16.4-10c0.4-0.2,0.8-0.1,1,0.3c0.2,0.4,0.1,0.8-0.3,1
			l-16.4,10C111.8,744.5,111.7,744.5,111.5,744.5z"/>
		<path d="M775.6,271.2c-0.2,0-0.5-0.1-0.6-0.3l-11.5-15.4c-0.2-0.3-0.2-0.8,0.2-1c0.3-0.2,0.8-0.2,1,0.2l11.5,15.4
			c0.2,0.3,0.2,0.8-0.2,1C775.9,271.1,775.7,271.2,775.6,271.2z"/>
		<path d="M804.1,442.6c-0.2,0-0.4-0.1-0.5-0.2l-13.9-13.3c-0.3-0.3-0.3-0.8,0-1.1c0.3-0.3,0.8-0.3,1.1,0l13.9,13.3
			c0.3,0.3,0.3,0.8,0,1.1C804.5,442.5,804.3,442.6,804.1,442.6z"/>
		<path d="M417.5,732.7c-0.2,0-0.4-0.1-0.6-0.2l-13-14.1c-0.3-0.3-0.3-0.8,0-1.1s0.8-0.3,1.1,0l13,14.1c0.3,0.3,0.3,0.8,0,1.1
			C417.9,732.6,417.7,732.7,417.5,732.7z"/>
		<path d="M830.8,725.6c-0.3,0-0.6-0.2-0.7-0.5l-6-18.2c-0.1-0.4,0.1-0.8,0.5-0.9c0.4-0.1,0.8,0.1,0.9,0.5l6,18.2
			c0.1,0.4-0.1,0.8-0.5,0.9C831,725.6,830.9,725.6,830.8,725.6z"/>
		<path d="M866.8,581c-0.1,0-0.3,0-0.4-0.1c-0.3-0.2-0.4-0.7-0.2-1L877,564c0.2-0.3,0.7-0.4,1-0.2c0.3,0.2,0.4,0.7,0.2,1l-10.8,15.8
			C867.3,580.9,867.1,581,866.8,581z"/>
		<circle class="st0" cx="755" cy="603.3" r="11.8"/>
		<circle class="st0" cx="893.6" cy="194.6" r="9.5"/>
		<path d="M7.5,465.7c-1.4,0-2.8-0.4-4-1.2c-3.5-2.2-4.5-6.9-2.3-10.3l0,0c2.2-3.5,6.9-4.5,10.3-2.3c3.5,2.2,4.5,6.9,2.3,10.3
			C12.4,464.5,10,465.7,7.5,465.7z M2.4,455c-1.8,2.8-0.9,6.5,1.8,8.3c2.8,1.8,6.5,0.9,8.3-1.8s0.9-6.5-1.8-8.3
			C7.9,451.4,4.2,452.2,2.4,455L2.4,455z"/>
		<path d="M913.9,702.1c-0.9,0-1.8-0.3-2.6-0.8c-1.1-0.7-1.9-1.8-2.2-3.1c-0.3-1.3-0.1-2.6,0.7-3.7c0.7-1.1,1.8-1.9,3.1-2.2
			c1.3-0.3,2.6-0.1,3.7,0.7c1.1,0.7,1.9,1.8,2.2,3.1c0.3,1.3,0.1,2.6-0.7,3.7c-0.7,1.1-1.8,1.9-3.1,2.2
			C914.6,702.1,914.3,702.1,913.9,702.1z M913.9,693.7c-0.3,0-0.5,0-0.8,0.1c-0.9,0.2-1.7,0.7-2.2,1.5l0,0c-0.5,0.8-0.7,1.7-0.5,2.6
			c0.2,0.9,0.7,1.7,1.5,2.2c0.8,0.5,1.7,0.7,2.6,0.5c0.9-0.2,1.7-0.7,2.2-1.5c0.5-0.8,0.7-1.7,0.5-2.6s-0.7-1.7-1.5-2.2
			C915.2,693.9,914.6,693.7,913.9,693.7z M910.4,694.9L910.4,694.9L910.4,694.9z"/>
	</g>
</g>
<g id="general_1_">
	<g id="general_2_">
		<g id="leaf_1_">
			<path class="st1" d="M699.7,398.9c-3.9-17.1-8-29.3-11.8-35.2c-6.5-10.1-15-15.2-15-15.2c-7.5-4.6-14.9-5.8-19.5-6.2V337H619v5.2
				c-3.4,0.7-7.2,1.8-11.1,3.4c-1,0.4-2.1,0.9-3.3,1.5c-15.3,7.8-50,51.2-53.1,54.1c-10.9-13.9-21.7-27.8-32.6-41.8
				c-0.1-0.1-0.1-0.1-0.2-0.2c-6.1,5.5-12.2,11.1-18.3,16.6c-0.7,0.6-1.4,1.3-2.1,1.9c3.8,6.6,9.8,16.4,18.5,27.2
				c14.8,18.4,27.7,34.5,40.9,32.4c8.4-1.4,15-9.7,22-18.4c4.3-5.3,7.1-10.3,8.9-13.8c-0.1,8.8-0.2,17.7-0.5,26.7
				c-0.6,21.6-1.8,42.6-3.3,62.8c1.5-0.2,2.9-0.3,4.4-0.5c-8.7,54.9-17.3,109.9-26,164.8c-19.9,16.2-42.6,27.8-68.4,31.6
				c-3.6,0.5-76.5,10.5-113.3-31c-28.8-32.5-23.9-83.2-42.5-85.5c-1.8-0.2-4.1-0.5-6.6-1c-0.6-0.1-1.2-0.2-1.8-0.3
				c-9.4-1.8-21.6-5.3-29.6-12.2c-0.6-0.5-1.1-1-1.6-1.5c-0.9-0.9-1.8-2-2.5-3c-10.1-14.1-54.3,22.2-100.5,5.9
				c-36.3-12.8-59.9-53-66.2-81.9c-22.9-106.3,147.8-258.3,324.7-304.5c40.7-10.6,122.7-32.1,185.8-13.7c1.9,0.5,3.7,1.1,5.5,1.7
				c5.1,1.7,10,3.7,14.7,5.9c1.8,0.9,3.6,1.8,5.4,2.7c10.1,5.5,19.3,12.4,27.3,21.2C738.6,242.7,723.2,324.3,699.7,398.9z"/>
			<g>
				<path class="st1" d="M660.8,169.5c-43.6,31.8-108.5,92.2-199.5,206.9c-56.6,71.3-97.3,134.5-126.5,188.5c-1.5,2.7-2.9,5.4-4.3,8
					c-70,132.3-70.1,206.8-70.1,206.8l-60.7-22.4c25.8-62.2,58.3-129.1,99.6-198.2c0-0.1,0.1-0.1,0.1-0.2c1.3-2.2,2.6-4.4,4-6.6
					c105.9-175.1,231-302.1,337.2-390.5c1.9,0.5,3.7,1.1,5.5,1.7C651.1,165.2,656.1,167.2,660.8,169.5z"/>
				<path d="M260.4,780.4c-0.1,0-0.2,0-0.3,0L199.4,758c-0.2-0.1-0.3-0.2-0.4-0.4c-0.1-0.2-0.1-0.4,0-0.6
					c28.3-68.4,61.9-135.1,99.7-198.3l0.1-0.2c1.3-2.2,2.6-4.4,4-6.6C391.5,405.1,505,273.7,640.1,161.2c0.2-0.2,0.4-0.2,0.7-0.1
					c1.8,0.5,3.7,1.1,5.6,1.7c5.2,1.7,10.2,3.7,14.8,6c0.2,0.1,0.4,0.3,0.4,0.6c0,0.3-0.1,0.5-0.3,0.7
					C605.8,210.4,538.7,280,461.9,376.9c-51,64.3-93.6,127.6-126.4,188.3c-1.5,2.7-2.9,5.4-4.3,8c-19.9,37.7-46.7,94.7-61.2,152.7
					c-8.7,34.7-8.8,53.5-8.8,53.7c0,0.2-0.1,0.5-0.3,0.6C260.7,780.3,260.5,780.4,260.4,780.4z M200.6,756.8l59,21.7
					c0.4-9.6,5.3-83.6,70.2-206.1c1.4-2.6,2.8-5.3,4.3-8c32.9-60.8,75.5-124.2,126.6-188.6c76.5-96.4,143.3-165.8,198.7-206.3
					c-4.3-2-8.8-3.8-13.5-5.4c-1.7-0.6-3.4-1.1-5.1-1.6C505.9,274.9,392.6,406.2,304,552.7c-1.3,2.2-2.7,4.4-4,6.6l-0.7-0.3l0.6,0.4
					l-0.1,0.1C262.3,622.4,228.9,688.8,200.6,756.8z"/>
			</g>
			<path d="M535.6,258c-0.3,0-0.6-0.2-0.7-0.4c-9.4-20.1-16-40.8-19.6-61.4c-1.7-10-3.1-21.4-3.9-33.9c0-0.4,0.3-0.8,0.7-0.8
				c0.4,0,0.8,0.3,0.8,0.7c0.8,12.5,2.1,23.8,3.9,33.8c3.6,20.6,10.1,41.1,19.5,61.1c0.2,0.4,0,0.8-0.4,1
				C535.8,258,535.7,258,535.6,258z"/>
			<path d="M411,397.7c-0.3,0-0.5-0.1-0.7-0.4c-20.3-38.2-37.1-78.6-49.9-119.9c-6.1-19.6-11.3-39.8-15.6-59.9
				c-0.1-0.4,0.2-0.8,0.6-0.9c0.4-0.1,0.8,0.2,0.9,0.6c4.3,20.1,9.5,40.2,15.5,59.7c12.7,41.2,29.5,81.5,49.8,119.6
				c0.2,0.4,0.1,0.8-0.3,1C411.2,397.7,411.1,397.7,411,397.7z"/>
			<path d="M548,274.9c-0.4,0-0.7-0.3-0.7-0.6c-0.1-0.4,0.2-0.8,0.6-0.8c1-0.1,99.1-13.7,168.8-37.7c0.4-0.1,0.8,0.1,1,0.5
				c0.1,0.4-0.1,0.8-0.5,1c-69.8,24-168.1,37.6-169.1,37.7C548.1,274.9,548.1,274.9,548,274.9z"/>
			<path d="M346.7,485.4C346.7,485.4,346.7,485.4,346.7,485.4c-0.4,0-37.4-1.5-80.4-13.5c-39.8-11-93-33.4-120.7-77.5
				c-0.2-0.4-0.1-0.8,0.2-1c0.3-0.2,0.8-0.1,1,0.2c15.1,24.1,48.2,57.1,119.8,76.9c42.9,11.9,79.7,13.4,80,13.4
				c0.4,0,0.7,0.4,0.7,0.8C347.4,485.1,347.1,485.4,346.7,485.4z"/>
			<path d="M438.8,416.7c-5,0-7.8-0.1-7.9-0.1c-0.4,0-0.7-0.4-0.7-0.8c0-0.4,0.3-0.7,0.7-0.7c0,0,0,0,0,0c0.4,0,39.4,0.7,91.9-3.2
				c22.6-1.7,44.5-4,65.3-6.9l0.3,0c40.4-5.6,76.4-13.4,106.9-23c3.3-1,6.6-2.1,10.1-3.3c0.4-0.1,0.8,0.1,1,0.5
				c0.1,0.4-0.1,0.8-0.5,1c-3.5,1.2-6.8,2.3-10.1,3.3c-30.6,9.7-66.7,17.5-107.2,23.1l-0.3,0c-20.8,2.9-42.8,5.2-65.4,6.9
				C484.2,416.3,452.8,416.7,438.8,416.7z"/>
			<path d="M551.7,597.1c-16.1,0-32.3-2-48.2-6.1c-24.2-6.1-48.1-16.8-70.9-31.9c-39-25.6-61.9-55.3-62.1-55.6
				c-0.3-0.3-0.2-0.8,0.1-1.1c0.3-0.2,0.8-0.2,1.1,0.1c0.2,0.3,23,29.8,61.8,55.3c22.7,15,46.5,25.6,70.5,31.7
				c30,7.6,60.6,8,90.9,1.2c0.4-0.1,0.8,0.2,0.9,0.6c0.1,0.4-0.2,0.8-0.6,0.9C580.6,595.4,566.1,597.1,551.7,597.1z"/>
			<path class="st1" d="M638.3,529.5c0.6,8.5,1.1,16.9,1.7,25.4c-4.5,9.1-9.4,18.2-14.6,27.1C629.8,564.5,634,547,638.3,529.5z"/>
		</g>
		<g id="raindrops_1_">
			<path d="M320.4,138.3c0.6,19.1,6.3,31.7,13.4,32.7c4.2,0.6,9.2-2.8,10.4-6.9C346.4,157,337.5,146.2,320.4,138.3z"/>
			<path d="M506.4,34.3c-0.3,0-0.7,0-1-0.1c-7.9-1.1-13.5-14.5-14.1-33.4c0-0.3,0.1-0.5,0.3-0.6c0.2-0.1,0.5-0.2,0.7-0.1
				C509,7.8,519,18.7,516.7,26.7C515.5,30.9,510.7,34.3,506.4,34.3z M492.9,2c0.7,17.2,5.9,29.8,12.8,30.8c3.7,0.5,8.5-2.7,9.6-6.4
				C517,20.3,509.9,10.1,492.9,2z"/>
			<path d="M296.2,269.3c0.6,19.1,6.3,31.7,13.4,32.7c4.2,0.6,9.2-2.8,10.4-6.9C322.2,288,313.3,277.2,296.2,269.3z"/>
			<path d="M207,263.5c-0.3,0-0.7,0-1-0.1c-7.9-1.1-13.5-14.5-14.1-33.4c0-0.3,0.1-0.5,0.3-0.6c0.2-0.1,0.5-0.2,0.7-0.1
				c16.7,7.7,26.6,18.7,24.3,26.7C216,260.1,211.3,263.5,207,263.5z M193.4,231.2c0.7,17.2,5.9,29.8,12.8,30.8
				c3.7,0.5,8.5-2.7,9.6-6.4C217.6,249.5,210.5,239.3,193.4,231.2z"/>
			<path d="M211.4,129.4c0.6,19.1,6.3,31.7,13.4,32.7c4.2,0.6,9.2-2.8,10.4-6.9C237.4,148.1,228.6,137.3,211.4,129.4z"/>
			<path d="M211.4,12.4c0.6,19.1,6.3,31.7,13.4,32.7c4.2,0.6,9.2-2.8,10.4-6.9C237.4,31.1,228.6,20.3,211.4,12.4z"/>
			<path d="M425.2,161.8c0.6,19.1,6.3,31.7,13.4,32.7c4.2,0.6,9.2-2.8,10.4-6.9C451.2,180.5,442.3,169.7,425.2,161.8z"/>
			<path d="M406.7,262.7c0.6,19.1,6.3,31.7,13.4,32.7c4.2,0.6,9.2-2.8,10.4-6.9C432.7,281.4,423.8,270.6,406.7,262.7z"/>
			<path d="M570.5,162.9c-0.3,0-0.7,0-1-0.1c-7.9-1.1-13.5-14.5-14.1-33.4c0-0.3,0.1-0.5,0.3-0.6c0.2-0.1,0.5-0.2,0.7-0.1
				c16.7,7.7,26.6,18.7,24.3,26.7C579.5,159.5,574.8,162.9,570.5,162.9z M556.9,130.6c0.7,17.2,5.9,29.8,12.8,30.8
				c3.7,0.5,8.5-2.7,9.6-6.4C581.1,148.9,573.9,138.7,556.9,130.6z"/>
			<path d="M455.5,65.3c0.6,19.1,6.3,31.7,13.4,32.7c4.2,0.6,9.2-2.8,10.4-6.9C481.5,84,472.6,73.2,455.5,65.3z"/>
			<path d="M577,43.4c0.6,19.1,6.3,31.7,13.4,32.7c4.2,0.6,9.2-2.8,10.4-6.9C602.9,62.1,594.1,51.3,577,43.4z"/>
			<path d="M354.1,67.1c-0.3,0-0.7,0-1-0.1c-7.9-1.1-13.5-14.5-14.1-33.4c0-0.3,0.1-0.5,0.3-0.6c0.2-0.1,0.5-0.2,0.7-0.1
				c16.7,7.7,26.6,18.7,24.3,26.7C363.1,63.6,358.4,67.1,354.1,67.1z M340.5,34.7c0.7,17.2,5.9,29.8,12.8,30.8
				c3.7,0.5,8.5-2.7,9.6-6.4C364.7,53.1,357.5,42.9,340.5,34.7z"/>
		</g>
		<g id="man_1_">
			<g id="tshirt_1_">
				<g>
					<path d="M700.7,481c-0.3,0-0.5-0.1-0.7-0.4l-3.7-7.3c-0.2-0.4,0-0.8,0.3-1c0.4-0.2,0.8,0,1,0.3l3.7,7.3c0.2,0.4,0,0.8-0.3,1
						C701,480.9,700.9,481,700.7,481z"/>
					<path d="M676.5,480.1c-0.3,0-0.5-0.1-0.7-0.4l-2.7-5.3c-0.2-0.4,0-0.8,0.3-1c0.4-0.2,0.8,0,1,0.3l2.7,5.3c0.2,0.4,0,0.8-0.3,1
						C676.8,480.1,676.7,480.1,676.5,480.1z"/>
					<path d="M699.7,498.8c-0.3,0-0.5-0.1-0.7-0.4l-3-5.9c-0.2-0.4,0-0.8,0.3-1c0.4-0.2,0.8,0,1,0.3l3,5.9c0.2,0.4,0,0.8-0.3,1
						C699.9,498.7,699.8,498.8,699.7,498.8z"/>
					<path d="M697.8,458.9c-0.3,0-0.5-0.1-0.7-0.4l-3.7-7.3c-0.2-0.4,0-0.8,0.3-1c0.4-0.2,0.8,0,1,0.3l3.7,7.3c0.2,0.4,0,0.8-0.3,1
						C698,458.9,697.9,458.9,697.8,458.9z"/>
					<path d="M707.6,443.4c-0.1,0-0.3,0-0.4-0.1l-1.4-0.9c-0.3-0.2-0.4-0.7-0.2-1s0.7-0.4,1-0.2l1.4,0.9c0.3,0.2,0.4,0.7,0.2,1
						C708,443.2,707.8,443.4,707.6,443.4z"/>
					<path d="M703.2,465.3c-0.4,0-0.7-0.3-0.7-0.7c0-0.4,0.3-0.8,0.7-0.8l7.1-0.6c0.4,0,0.8,0.3,0.8,0.7c0,0.4-0.3,0.8-0.7,0.8
						L703.2,465.3C703.2,465.3,703.2,465.3,703.2,465.3z"/>
					<path d="M685,468.3c-0.3,0-0.6-0.2-0.7-0.6l-2.6-9.8c-0.1-0.4,0.1-0.8,0.5-0.9c0.4-0.1,0.8,0.1,0.9,0.5l2.6,9.8
						c0.1,0.4-0.1,0.8-0.5,0.9C685.1,468.2,685.1,468.3,685,468.3z"/>
					<path d="M712.6,486.3c-0.1,0-0.3,0-0.4-0.1l-2.7-1.8c-0.3-0.2-0.4-0.7-0.2-1c0.2-0.3,0.7-0.4,1-0.2l2.7,1.8
						c0.3,0.2,0.4,0.7,0.2,1C713.1,486.2,712.8,486.3,712.6,486.3z"/>
					<path d="M702.2,411.6c-0.1,0-0.3,0-0.4-0.1l-3.3-2.2c-0.3-0.2-0.4-0.7-0.2-1c0.2-0.3,0.7-0.4,1-0.2l3.3,2.2
						c0.3,0.2,0.4,0.7,0.2,1C702.7,411.4,702.5,411.6,702.2,411.6z"/>
					<path d="M687,503.1c-0.1,0-0.1,0-0.2,0c-0.4-0.1-0.6-0.5-0.5-0.9l0.5-1.6c0.1-0.4,0.5-0.6,0.9-0.5c0.4,0.1,0.6,0.5,0.5,0.9
						l-0.5,1.6C687.6,502.8,687.3,503.1,687,503.1z"/>
					<path d="M696.1,436c-0.1,0-0.1,0-0.2,0c-0.4-0.1-0.6-0.5-0.5-0.9l2.2-7.8c0.1-0.4,0.5-0.6,0.9-0.5c0.4,0.1,0.6,0.5,0.5,0.9
						l-2.2,7.8C696.7,435.8,696.4,436,696.1,436z"/>
					<path d="M687.5,485.1c-0.1,0-0.1,0-0.2,0c-0.4-0.1-0.6-0.5-0.5-0.9l2.2-7.8c0.1-0.4,0.5-0.6,0.9-0.5c0.4,0.1,0.6,0.5,0.5,0.9
						l-2.2,7.8C688.2,484.9,687.9,485.1,687.5,485.1z"/>
				</g>
				<path d="M680.9,485.1c-0.4,0-0.7-0.3-0.7-0.7l-1.8-95.7c0-0.4,0.3-0.8,0.7-0.8c0.4,0,0.8,0.3,0.8,0.7l1.8,95.7
					C681.7,484.7,681.3,485.1,680.9,485.1C680.9,485.1,680.9,485.1,680.9,485.1z"/>
				<path d="M699.7,398.9c-6.2,19.7-13,38.9-19.3,56.9c-0.2,0.7-0.5,1.3-0.7,2c-2.9,8.1-6.2,17.5-10,27.8
					c-26.9,2.9-53.7,5.8-80.6,8.7c-1.5,0.2-2.9,0.3-4.4,0.5c1.6-20.2,2.7-41.2,3.3-62.8c0.3-9,0.4-17.9,0.5-26.7
					c-1.8,3.5-4.6,8.4-8.9,13.8c-7,8.7-13.6,17.1-22,18.4c-13.3,2.2-26.2-13.9-40.9-32.4c-8.7-10.8-14.7-20.6-18.5-27.2
					c0.7-0.6,1.4-1.3,2.1-1.9c6.1-5.5,12.2-11.1,18.3-16.6c0.1,0.1,0.1,0.1,0.2,0.2c10.9,13.9,21.7,27.8,32.6,41.8
					c3.1-3,37.8-46.3,53.1-54.1c1.2-0.6,2.2-1.1,3.3-1.5c4-1.6,7.7-2.7,11.1-3.4V337h34.5v5.2c4.6,0.4,12,1.6,19.5,6.2
					c0,0,8.5,5.2,15,15.2C691.7,369.6,695.8,381.8,699.7,398.9z"/>
				<path d="M681.3,505c-0.2,0-0.3,0-0.4-0.1c-0.2-0.1-0.3-0.4-0.3-0.6l-0.4-19.1l-10.5,1.1c-0.4,0-0.8-0.3-0.8-0.7
					c0-0.4,0.3-0.8,0.7-0.8l11.3-1.2c0.2,0,0.4,0,0.6,0.2s0.3,0.3,0.3,0.5l0.4,18.9l30.5-10.3c-3.1-35.9-7.9-69.2-13.5-93.8
					c-0.1-0.4,0.2-0.8,0.6-0.9c0.4-0.1,0.8,0.2,0.9,0.6c5.7,24.8,10.5,58.4,13.6,94.6c0,0.3-0.2,0.7-0.5,0.8l-32,10.9
					C681.5,505,681.4,505,681.3,505z"/>
			</g>
			<g id="hand_r_1_">
				<path d="M511.1,356.4C511.1,356.4,511.1,356.4,511.1,356.4c-0.4,0-0.8-0.3-0.8-0.8c0.1-7.9,0.1-14.6,0.2-19.8l0-5.4
					c0-1.3,0-4.7-1.4-5.4c-0.5-0.2-1.1-0.2-1.6,0.1c-1.2,0.7-1.1,3.3-1.1,5l0,0.2c0.1,4.1,0,8.5-0.5,13.2c0,0,0,0,0,0
					c0.2,3,0.3,3.5-0.6,3.6c-0.2,0-0.4-0.1-0.6-0.2c-0.3-0.3-0.3-0.4-0.3-3.2v-0.2c0,0,0,0,0,0c-0.1-1.1-0.2-2.4-0.3-3.8
					c-0.2-1.9-0.4-3.5-0.4-3.9c-0.5-4-1.3-10.6-3.6-11.2c-0.8-0.2-1.5,0.3-1.5,0.4c-1.3,1-0.7,4.1-0.2,6.9l0.1,0.6
					c0.8,4.3,1.3,8.9,1.6,13.6c0,0.4-0.3,0.8-0.7,0.8c-0.4,0-0.8-0.3-0.8-0.7c-0.3-4.6-0.9-9.1-1.6-13.4l-0.1-0.6
					c-0.6-3.3-1.2-6.8,0.8-8.3c0.1-0.1,1.3-1,2.8-0.6c3,0.7,3.9,6.1,4.6,10.9c0-1.3,0-2.5,0-3.7l0-0.2c-0.1-2-0.2-5.1,1.8-6.3
					c0.9-0.5,2.1-0.6,3.1-0.2c2.3,1.1,2.2,4.9,2.2,6.8l0,5.4c0,5.2-0.1,11.9-0.2,19.8C511.8,356,511.5,356.4,511.1,356.4z"/>
				<path d="M500.4,376.7c-0.2,0-0.4-0.1-0.5-0.2c-1.9-1.8-3.5-3.9-4.9-6c-1-1.6-1.9-3.2-2.8-4.9c-1.2-2.5-1.7-4.2-2.7-7.4
					c-0.3-0.9-0.5-1.9-0.9-3l-0.7-2.3c-1.4-4.8-2.2-7.4-2.6-8.3c-0.3-0.8-0.6-1.5-0.9-2.2c-1.3-3.4-2.2-5.7-0.9-7.4
					c0.6-0.8,1.7-1.5,2.9-1.4c1.8,0.2,2.6,2.1,4.2,5.8c0.3,0.7,0.6,1.5,1,2.4c0.1,0.2,0.1,0.3,0.2,0.5c-0.5-2.1-1-4-1.6-6l-0.1-0.4
					c-0.8-2.7-1.7-5.6-0.1-7.4c0.6-0.7,1.7-1.5,3-1.3c2,0.3,3,2.8,4.6,8.6c0.9,3.3,1.7,6.6,2.4,9.9c0.1,0.4-0.2,0.8-0.6,0.9
					c-0.4,0.1-0.8-0.2-0.9-0.6c-0.7-3.3-1.5-6.6-2.4-9.8c-1.5-5.3-2.4-7.4-3.4-7.5c-0.6-0.1-1.2,0.3-1.6,0.8c-1.1,1.3-0.3,3.7,0.4,6
					l0.1,0.4c1.2,3.8,2.2,8,3,12.3c0.1,0.4-0.1,0.7-0.5,0.8c-0.4,0.1-0.7,0-0.9-0.4c-1-2-2-4.1-3-6.2c-0.4-0.9-0.7-1.7-1-2.4
					c-1.3-3-2-4.8-3-4.9c-0.6-0.1-1.2,0.4-1.6,0.8c-0.8,1.1,0,3,1.1,6c0.3,0.7,0.6,1.4,0.9,2.3c0.4,0.9,1.1,3.4,2.6,8.4l0.7,2.3
					c0.4,1.2,0.6,2.2,0.9,3c0.9,3.2,1.4,4.8,2.6,7.2c0.8,1.6,1.7,3.2,2.7,4.7c1.4,2,2.9,4,4.7,5.7c0.3,0.3,0.3,0.8,0,1.1
					C500.8,376.6,500.6,376.7,500.4,376.7z"/>
				<path d="M502.2,362.5c-0.1,0-0.2,0-0.4-0.1c-0.4-0.2-0.5-0.7-0.3-1c0.9-1.7,2.2-3.1,3.7-4.2c1.9-1.4,3.8-2,5.2-2.2
					c0.8-2.9,1.6-5.8,2.5-9c0.4-1.6,1.1-3.7,2.9-4.4c1-0.4,2.2-0.2,3,0.3c1.6,1,1.7,3.2,1.7,5.7c-0.1,3.5-0.4,7.5-1,12.1
					c-0.1,0.4-0.4,0.7-0.8,0.6c-0.4-0.1-0.7-0.4-0.6-0.8c0.6-4.5,0.9-8.4,0.9-11.9c0-2,0-3.8-1-4.4c-0.5-0.3-1.1-0.4-1.7-0.2
					c-1.1,0.4-1.6,2-2,3.4c-1,3.4-1.8,6.5-2.6,9.5c-0.1,0.3-0.3,0.5-0.6,0.5c-1.3,0.2-3.2,0.7-5,2c-1.4,1-2.5,2.3-3.3,3.7
					C502.7,362.4,502.4,362.5,502.2,362.5z"/>
				<path d="M491.8,351.1c-0.2,0-0.4-0.1-0.5-0.2c-0.3-0.3-0.3-0.8-0.1-1.1c1.2-1.4,4.6-4.5,9.7-4.7c2.1-0.1,4.2,0.4,6.1,1.3
					c0.4,0.2,0.5,0.6,0.4,1c-0.2,0.4-0.6,0.5-1,0.4c-1.7-0.8-3.6-1.2-5.4-1.1c-4.5,0.2-7.5,3-8.6,4.2
					C492.2,351,492,351.1,491.8,351.1z"/>
			</g>
			<g id="head_1_">
				<path id="hair_1_" d="M655.6,322.8c-1.2,2.2-2.7,3.8-3.8,4.9c-0.6-2.1-1.2-4.2-1.7-6.2c0.4-0.6,1.8-2.7,1.4-5.5
					c-0.1-0.5-0.6-3.9-3.4-5.3c-1.7-0.8-3.3-0.5-3.9-0.3c-2.7,0.7-4.9,3.4-5.5,6.8v0.1l-2.6-0.1l-1.2-12.8c-0.9,0.2-2.2,0.3-3.8,0.2
					c-2.4-0.2-4.1-0.9-5.1-1.3c-1.6-0.7-4.3-2-6.7-4.6c-0.7-0.8-1.3-1.5-1.6-2c5.5-7.4,14-11.1,21.9-9.7c8,1.4,12.4,7.6,13.9,9.7
					C658.6,304,660,314.7,655.6,322.8z"/>
				<g id="ear_1_">
					<path d="M647.1,323.7c-0.4,0-0.7-0.3-0.7-0.7c0-0.4,0.3-0.8,0.7-0.8c0.5,0,1.4-0.1,2.2-0.7c0.9-0.6,1.3-1.5,1.4-1.9
						c0.1-0.4,0.6-0.6,1-0.4c0.4,0.1,0.6,0.6,0.4,1c-0.2,0.6-0.8,1.7-2,2.6C649,323.5,647.7,323.7,647.1,323.7
						C647.1,323.7,647.1,323.7,647.1,323.7z"/>
					<path d="M638.1,318.8c-0.4,0-0.7-0.3-0.7-0.7c0-0.4,0-0.9,0.1-1.3c0.1-0.6,0.2-1.3,0.5-1.8c0.2-0.4,0.6-0.6,1-0.4
						c0.4,0.2,0.6,0.6,0.4,1c-0.2,0.5-0.3,1-0.4,1.5c0,0.4-0.1,0.7,0,1.1C638.9,318.4,638.6,318.8,638.1,318.8
						C638.1,318.8,638.1,318.8,638.1,318.8z"/>
				</g>
				<g id="face_1_">
					<path d="M651.8,337.8C651.8,337.8,651.8,337.8,651.8,337.8c-0.4,0-0.8-0.4-0.8-0.8l0.1-3.5c0.1-2.6,0.2-5.2,0.3-7.8
						c0-0.4,0.4-0.7,0.8-0.7c0.4,0,0.7,0.4,0.7,0.8c-0.1,2.6-0.2,5.2-0.3,7.8l-0.1,3.5C652.6,337.5,652.2,337.8,651.8,337.8z"/>
					<path d="M623.3,337.8C623.3,337.8,623.3,337.8,623.3,337.8c-0.4,0-0.8-0.3-0.8-0.8c0-1.4,0-2.8,0.1-4.2
						c-2.9-0.5-7.6-1.8-10.8-5.8c-6.4-7.8-1.8-19.1-0.3-22.4c1.4-3,3.5-5.9,5.9-8.4c0.3-0.3,0.8-0.3,1.1,0c0.3,0.3,0.3,0.8,0,1.1
						c-2.4,2.4-4.3,5.2-5.7,8c-1.5,3.1-5.7,13.7,0.1,20.8c3.2,3.9,8,5,10.5,5.3c0.4,0,0.7,0.4,0.7,0.8c0,1.6-0.1,3.3-0.1,4.9
						C624,337.5,623.7,337.8,623.3,337.8z"/>
					<path d="M641,331.4c-3.7,1.9-7.4,3.8-11.1,5.8c-2.3,0-4.5-0.1-6.8-0.1c0-0.9,0-1.7,0-2.7c0-1,0-1.9-0.1-2.8
						c0.2,0,0.5,0.1,0.8,0.1c0,0,2.7,0.4,5.1,0.5C631.1,332.4,635.4,332.2,641,331.4z"/>
				</g>
			</g>
			<g id="legs_1_">
				<g>
					<path d="M669.6,485.6c-7.7,20.6-17.4,44.8-29.6,69.3c-0.6-8.5-1.1-16.9-1.7-25.4c-4.3,17.5-8.6,35-12.8,52.5
						c-16.9,29.1-37.5,56.8-62.4,77.1c8.7-54.9,17.3-109.9,26-164.8c26.6-2.9,53.2-5.8,79.8-8.6
						C669.1,485.6,669.4,485.6,669.6,485.6z"/>
					<path d="M563.1,659.8c-0.1,0-0.3,0-0.4-0.1c-0.3-0.2-0.4-0.5-0.4-0.8l26-164.8c0.1-0.3,0.3-0.6,0.7-0.6l80.6-8.7
						c0.3,0,0.5,0.1,0.7,0.3c0.2,0.2,0.2,0.5,0.1,0.7c-9.8,26.3-19.5,49-29.6,69.4c-0.2,0.3-0.5,0.5-0.8,0.4
						c-0.3-0.1-0.6-0.3-0.6-0.7l-1.4-20.6c-3.9,15.9-7.8,31.9-11.7,47.8c0,0.1,0,0.1-0.1,0.2c-19.2,33.1-40.2,59.1-62.6,77.3
						C563.4,659.8,563.2,659.8,563.1,659.8z M589.7,495l-25.6,162.3c21.6-18,42-43.4,60.7-75.6c4.3-17.5,8.5-34.9,12.8-52.4
						c0.1-0.4,0.4-0.6,0.8-0.6c0.4,0,0.7,0.3,0.7,0.7l1.5,22.6c9.5-19.4,18.7-40.9,27.9-65.6L589.7,495z"/>
				</g>
				<path d="M650.1,704.2c-0.2,0-0.3-0.1-0.5-0.2c-0.2-0.1-0.3-0.3-0.3-0.5l-10-148.6c0-0.4,0.3-0.8,0.7-0.8c0.4,0,0.8,0.3,0.8,0.7
					l10,147.9c4.8-0.5,30.4-3.2,35-3.7l-1.7-196c0-0.4,0.3-0.8,0.7-0.8c0,0,0,0,0,0c0.4,0,0.7,0.3,0.8,0.7l1.7,196.6
					c0,0.4-0.3,0.7-0.7,0.8C685.6,700.5,650.4,704.2,650.1,704.2C650.1,704.2,650.1,704.2,650.1,704.2z"/>
				<path d="M596.1,702.8c0,0-0.1,0-0.1,0c-0.7-0.1-15.8-2.2-27-3.8l-11.9-1.7c-0.2,0-0.4-0.1-0.5-0.3c-0.1-0.2-0.2-0.4-0.1-0.6
					l5.9-37.5c0.1-0.4,0.4-0.7,0.9-0.6c0.4,0.1,0.7,0.4,0.6,0.9l-5.8,36.7l11.2,1.6c10,1.4,23.2,3.3,26.4,3.7l29.2-119.4
					c0.1-0.4,0.5-0.6,0.9-0.6c0.4,0.1,0.6,0.5,0.6,0.9l-29.4,120.1C596.8,702.6,596.5,702.8,596.1,702.8z"/>
				<path d="M581.1,700.7c-0.1,0-0.1,0-0.2,0c-0.4-0.1-0.6-0.5-0.5-0.9l22.2-87.3c0.1-0.4,0.5-0.6,0.9-0.5s0.6,0.5,0.5,0.9
					l-22.2,87.3C581.7,700.4,581.4,700.7,581.1,700.7z"/>
				<path d="M658.6,703.3c-0.4,0-0.7-0.3-0.7-0.7L648.3,536c0-0.4,0.3-0.8,0.7-0.8c0.4,0,0.8,0.3,0.8,0.7l9.5,166.6
					C659.3,703,659,703.3,658.6,703.3C658.6,703.3,658.6,703.3,658.6,703.3z"/>
			</g>
			<g id="hand_l_1_">
				<path d="M692,530.4c0,0-0.1,0-0.1,0c-1.3-0.1-2.3-1.2-2.8-2.1c-1.1-2.1,0.1-4.2,1.4-6.3c1.3-2.1,2.7-4.5,2.5-7.6
					c0-0.9-0.2-1.3-0.4-2.1c-0.3-1-0.8-2.5-1.4-5.8c-0.4-1.8-0.7-3.6-0.9-5.4c-0.1-0.4,0.2-0.8,0.6-0.8c0.4-0.1,0.8,0.2,0.8,0.6
					c0.2,1.8,0.5,3.6,0.9,5.3c0.6,3.2,1.1,4.7,1.4,5.6c0.3,0.9,0.5,1.4,0.5,2.5c0.2,3.6-1.4,6.3-2.7,8.5c-1.3,2.2-2,3.5-1.3,4.8
					c0.3,0.6,1,1.3,1.6,1.3c0,0,0,0,0.1,0c2.2,0,5.3-6.8,6.1-13.3c0.1-1.2,0.2-2.4,0.2-3.6c0-0.4,0.3-0.8,0.7-0.8
					c0.4,0,0.8,0.3,0.8,0.7c0,1.3,0,2.6-0.2,3.8C698.9,521.8,695.8,530.4,692,530.4z"/>
				<path d="M697.7,535.1c-0.4,0-1-0.1-1.5-0.3c-2-1-2.8-4.1-1.9-7.5c0.1-0.4,0.5-0.6,0.9-0.5c0.4,0.1,0.6,0.5,0.5,0.9
					c-0.8,3,0,5.2,1.2,5.7c0.7,0.3,1.5,0.1,1.5,0.1c1.7-0.6,2.3-3.9,2.6-5.6c0.8-4.9,1.4-10.3,1.7-16.2c0-0.4,0.4-0.7,0.8-0.7
					c0.4,0,0.7,0.4,0.7,0.8c-0.3,5.9-0.9,11.4-1.7,16.4c-0.5,2.9-1.2,6-3.6,6.8C698.7,534.9,698.3,535.1,697.7,535.1z"/>
				<path d="M702,537.5c-0.5,0-1.1-0.1-1.7-0.4c-1.3-0.7-1.9-2.1-2.1-2.8c-0.1-0.4,0.1-0.8,0.5-0.9c0.4-0.1,0.8,0.1,0.9,0.5
					c0.1,0.5,0.5,1.5,1.3,1.9c0.7,0.4,1.4,0.2,1.4,0.2c0.4-0.1,2.2-0.8,3.5-9.5c0.7-4.6,0.9-9.4,0.6-14.2c0-0.4,0.3-0.8,0.7-0.8
					c0.4,0,0.8,0.3,0.8,0.7c0.3,4.9,0.1,9.8-0.6,14.5c-1,6.9-2.6,10.4-4.7,10.8C702.6,537.4,702.3,537.5,702,537.5z"/>
				<path d="M707.1,536.7c-0.8,0-1.4-0.3-1.5-0.3c-0.6-0.3-1.2-0.8-1.6-1.4c-0.2-0.3-0.1-0.8,0.2-1c0.3-0.2,0.8-0.1,1,0.2
					c0.2,0.3,0.5,0.7,1,0.9c0,0,0.7,0.3,1.4,0.1c0.5-0.1,2.3-1.3,2.8-9.8c0.3-4.4,0.2-8.4-0.2-12.5c-0.4-4.1-1-8.2-1.9-12.3
					c-0.1-0.4,0.2-0.8,0.6-0.9c0.4-0.1,0.8,0.2,0.9,0.6c0.9,4.1,1.5,8.3,1.9,12.5c0.4,4.2,0.5,8.2,0.2,12.7
					c-0.4,6.9-1.7,10.5-3.9,11.1C707.7,536.7,707.4,536.7,707.1,536.7z"/>
				<path d="M712.4,520c-0.5,0-1-0.1-1.4-0.3c-0.4-0.2-0.5-0.7-0.3-1c0.2-0.4,0.7-0.5,1-0.3c0.4,0.2,1.2,0.2,1.7-0.1
					c1.1-0.7,0.9-3.8-0.4-9.9c-1-4.6-2.3-9-3.9-13.4c-0.1-0.4,0.1-0.8,0.5-1c0.4-0.1,0.8,0.1,1,0.5c1.6,4.5,2.9,8.9,3.9,13.6
					c1.6,7.3,1.6,10.3-0.2,11.5C713.7,519.8,713,520,712.4,520z"/>
				<path d="M691.1,502.1c6.5-1.7,12.9-3.4,19.4-5.2c-0.3-0.8-0.5-1.6-0.8-2.4c-6.2,2.2-12.5,4.4-18.7,6.7
					C691.1,501.5,691.1,501.8,691.1,502.1z"/>
			</g>
			<g id="shoes_1_">
				<path d="M561.7,697.2c-0.5,2.6-0.9,5.3-1.4,7.9c-3.4,0.4-8.5,1.1-14.5,2.5c-9.2,2.2-13.9,3.3-18,6.5c-2.1,1.7-7.6,6.7-9.5,17.8
					c18.9-1.1,37.8-2.2,56.7-3.3l5.2-6.5l2.9,6c3.2-0.2,6.4-0.4,9.5-0.6c0-8.7,0.1-17.4,0.1-26C582.4,700.1,572,698.6,561.7,697.2z"
					/>
				<path d="M663.3,720.9l5.4,6.7c18.8,2.1,37.7,4.1,56.5,6.2c-1.3-11.2-6.5-16.5-8.6-18.2c-4-3.5-8.5-4.8-17.7-7.4
					c-5.9-1.7-11-2.7-14.4-3.3c-0.2-1.7-0.4-3.3-0.6-5c-10.6,1.1-21.2,2.2-31.7,3.3c-0.4,7.5-0.7,15-1.1,22.4c3.1,0.3,6.2,0.7,9.3,1
					L663.3,720.9z"/>
			</g>
		</g>
	</g>
</g>
</svg>
