<?xml version="1.0" encoding="utf-8"?>
<!-- Generator: Adobe Illustrator 22.1.0, SVG Export Plug-In . SVG Version: 6.00 Build 0)  -->
<svg version="1.1" xmlns="http://www.w3.org/2000/svg" xmlns:xlink="http://www.w3.org/1999/xlink" x="0px" y="0px"
	 viewBox="0 0 860.6 822.9" style="enable-background:new 0 0 860.6 822.9;" xml:space="preserve">
<style type="text/css">
	.st0{fill:#FFDEE9;}
	.st1{fill:#762AE2;}
</style>
<g id="background">
	<g id="background_1_">
		<path d="M587.2,580.6c-11.3,0-23.1-8.7-35.3-25.7c-0.2-0.3-0.2-0.8,0.2-1c0.3-0.2,0.8-0.2,1,0.2c12.3,17.2,24.1,25.7,35.2,25.1
			c9-0.5,15.2-6.6,21.8-13.1c6.6-6.5,13.4-13.2,23.3-13.7c11-0.5,22.4,6.8,33.9,21.9c0.3,0.3,0.2,0.8-0.1,1.1
			c-0.3,0.3-0.8,0.2-1.1-0.1c-11.2-14.6-22.2-21.8-32.6-21.3c-9.3,0.5-15.9,7-22.3,13.2c-6.5,6.4-13.2,13-22.8,13.5
			C588,580.6,587.6,580.6,587.2,580.6z"/>
		<path d="M78.6,459.6c-8.8,0-18.1-6.8-27.6-20.1c-0.2-0.3-0.2-0.8,0.2-1c0.3-0.2,0.8-0.2,1,0.2c9.5,13.4,18.7,19.9,27.3,19.5
			c7-0.4,11.8-5.1,16.9-10.1c5.1-5.1,10.5-10.3,18.2-10.7c8.6-0.4,17.5,5.3,26.5,17.1c0.3,0.3,0.2,0.8-0.1,1.1
			c-0.3,0.3-0.8,0.2-1.1-0.1c-8.7-11.4-17.2-16.9-25.3-16.5c-7.2,0.3-12.1,5.2-17.3,10.3c-5.1,5-10.3,10.2-17.8,10.6
			C79.2,459.6,78.9,459.6,78.6,459.6z"/>
		<path d="M750.4,183.6c-9.3,0-19.1-7.1-29.1-21.2c-0.2-0.3-0.2-0.8,0.2-1c0.3-0.2,0.8-0.2,1,0.2c10.1,14.1,19.8,21,28.8,20.6
			c7.4-0.4,12.5-5.4,17.8-10.7c5.4-5.3,11-10.9,19.2-11.3c9.1-0.5,18.5,5.6,28,18c0.3,0.3,0.2,0.8-0.1,1.1c-0.3,0.3-0.8,0.2-1.1-0.1
			c-9.2-12-18.2-17.8-26.7-17.4c-7.6,0.4-12.8,5.5-18.2,10.8c-5.3,5.3-10.9,10.7-18.8,11.1C751,183.6,750.7,183.6,750.4,183.6z"/>
		<path d="M106.2,267.3c-0.1,0-0.3,0-0.4-0.1l-16.4-10.6c-0.2-0.1-0.3-0.3-0.3-0.5c0-0.2,0-0.4,0.1-0.6l10.6-16.4
			c0.2-0.3,0.7-0.4,1-0.2l16.4,10.6c0.2,0.1,0.3,0.3,0.3,0.5c0,0.2,0,0.4-0.1,0.6L106.8,267C106.6,267.2,106.4,267.3,106.2,267.3z
			 M90.8,255.8l15.1,9.8l9.8-15.1l-15.1-9.8L90.8,255.8z"/>
		<path d="M331.8,131.6c-0.4,0-0.7-0.3-0.7-0.6l-2.6-16.9c0-0.2,0-0.4,0.1-0.6c0.1-0.2,0.3-0.3,0.5-0.3l16.9-2.6
			c0.2,0,0.4,0,0.6,0.1c0.2,0.1,0.3,0.3,0.3,0.5l2.6,16.9c0.1,0.4-0.2,0.8-0.6,0.9l-16.9,2.6C331.9,131.6,331.8,131.6,331.8,131.6z
			 M330.1,114.5l2.3,15.4l15.4-2.3l-2.3-15.4L330.1,114.5z"/>
		<path d="M712.1,764.6c-0.4,0-0.7-0.3-0.7-0.6l-1.9-12.6c-0.1-0.4,0.2-0.8,0.6-0.9l12.6-1.9c0.4-0.1,0.8,0.2,0.9,0.6l1.9,12.6
			c0.1,0.4-0.2,0.8-0.6,0.9l-12.6,1.9C712.2,764.6,712.2,764.6,712.1,764.6z M711.1,751.9l1.7,11.1l11.1-1.7l-1.7-11.1L711.1,751.9z
			"/>
		<path d="M252.8,555.3c-0.2,0-0.3-0.1-0.4-0.1l-5.1-3.8c-0.3-0.2-0.4-0.7-0.2-1l3.8-5.1c0.2-0.3,0.7-0.4,1-0.2l5.1,3.8
			c0.2,0.1,0.3,0.3,0.3,0.5c0,0.2,0,0.4-0.1,0.6l-3.8,5.1c-0.1,0.2-0.3,0.3-0.5,0.3C252.9,555.3,252.9,555.3,252.8,555.3z
			 M248.7,550.6l3.9,2.9l2.9-3.9l-3.9-2.9L248.7,550.6z"/>
		<path d="M799.4,260.5c-0.2,0-0.5-0.1-0.6-0.3L785.3,240c-0.2-0.3-0.1-0.8,0.2-1c0.3-0.2,0.8-0.1,1,0.2l13.4,20.2
			c0.2,0.3,0.1,0.8-0.2,1C799.6,260.5,799.5,260.5,799.4,260.5z"/>
		<path d="M788.9,86.2c-0.3,0-0.5-0.1-0.6-0.4c-0.2-0.4-0.1-0.8,0.3-1l20.9-12.3c0.4-0.2,0.8-0.1,1,0.3c0.2,0.4,0.1,0.8-0.3,1
			l-20.9,12.3C789.2,86.2,789,86.2,788.9,86.2z"/>
		<path d="M688.6,49c-0.3,0-0.6-0.2-0.7-0.5L680,25.6c-0.1-0.4,0.1-0.8,0.5-1c0.4-0.1,0.8,0.1,1,0.5l7.9,22.9c0.1,0.4-0.1,0.8-0.5,1
			C688.8,49,688.7,49,688.6,49z"/>
		<path d="M354.4,207.8c-0.2,0-0.4-0.1-0.6-0.3c-0.3-0.3-0.2-0.8,0.1-1.1l18.3-15.9c0.3-0.3,0.8-0.2,1.1,0.1
			c0.3,0.3,0.2,0.8-0.1,1.1l-18.3,15.9C354.8,207.7,354.6,207.8,354.4,207.8z"/>
		<path d="M250.6,91.7c-0.3,0-0.6-0.2-0.7-0.5L243,67.9c-0.1-0.4,0.1-0.8,0.5-0.9c0.4-0.1,0.8,0.1,0.9,0.5l6.9,23.2
			c0.1,0.4-0.1,0.8-0.5,0.9C250.8,91.6,250.7,91.7,250.6,91.7z"/>
		<path d="M345.6,23.3c-0.1,0-0.3,0-0.4-0.1l-20.7-12.6c-0.4-0.2-0.5-0.7-0.2-1c0.2-0.4,0.7-0.5,1-0.2L346,21.9
			c0.4,0.2,0.5,0.7,0.2,1C346.1,23.2,345.8,23.3,345.6,23.3z"/>
		<path d="M666.6,468.8c-0.1,0-0.1,0-0.2,0l-23.4-6.2c-0.4-0.1-0.6-0.5-0.5-0.9c0.1-0.4,0.5-0.6,0.9-0.5l23.4,6.2
			c0.4,0.1,0.6,0.5,0.5,0.9C667.2,468.6,666.9,468.8,666.6,468.8z"/>
		<path d="M815.8,575.4c-0.2,0-0.4-0.1-0.6-0.2c-0.3-0.3-0.3-0.8,0.1-1.1l18-16.3c0.3-0.3,0.8-0.3,1.1,0.1c0.3,0.3,0.3,0.8-0.1,1.1
			l-18,16.3C816.2,575.3,816,575.4,815.8,575.4z"/>
		<path d="M749.8,513.8c-0.1,0-0.2,0-0.3,0c-0.4-0.1-0.6-0.6-0.4-1l8.3-22.8c0.1-0.4,0.6-0.6,1-0.4c0.4,0.1,0.6,0.6,0.4,1l-8.3,22.8
			C750.4,513.6,750.1,513.8,749.8,513.8z"/>
		<path d="M809,683c-0.3,0-0.6-0.2-0.7-0.5l-6.9-23.2c-0.1-0.4,0.1-0.8,0.5-0.9c0.4-0.1,0.8,0.1,0.9,0.5l6.9,23.2
			c0.1,0.4-0.1,0.8-0.5,0.9C809.2,682.9,809.1,683,809,683z"/>
		<path d="M579,765.6c-0.2,0-0.4-0.1-0.6-0.2c-0.3-0.3-0.3-0.8,0-1.1l17.8-16.4c0.3-0.3,0.8-0.3,1.1,0c0.3,0.3,0.3,0.8,0,1.1
			l-17.8,16.4C579.4,765.5,579.2,765.6,579,765.6z"/>
		<path d="M550.5,669.7c-0.2,0-0.5-0.1-0.6-0.3l-13.8-19.9c-0.2-0.3-0.2-0.8,0.2-1c0.3-0.2,0.8-0.2,1,0.2l13.8,19.9
			c0.2,0.3,0.2,0.8-0.2,1C550.8,669.7,550.6,669.7,550.5,669.7z"/>
		<path d="M806.6,792c-0.2,0-0.4-0.1-0.6-0.3c-0.3-0.3-0.2-0.8,0.1-1.1l18.5-15.7c0.3-0.3,0.8-0.2,1.1,0.1c0.3,0.3,0.2,0.8-0.1,1.1
			l-18.5,15.7C806.9,791.9,806.8,792,806.6,792z"/>
		<path d="M22,181.4c-0.2,0-0.4-0.1-0.5-0.2L4.8,163.5c-0.3-0.3-0.3-0.8,0-1.1c0.3-0.3,0.8-0.3,1.1,0l16.6,17.6
			c0.3,0.3,0.3,0.8,0,1.1C22.3,181.3,22.1,181.4,22,181.4z"/>
		<path d="M111.7,113.6c-0.1,0-0.2,0-0.3-0.1c-0.4-0.2-0.5-0.6-0.4-1l10.3-21.9c0.2-0.4,0.6-0.5,1-0.4c0.4,0.2,0.5,0.6,0.4,1
			l-10.3,21.9C112.2,113.4,112,113.6,111.7,113.6z"/>
		<path d="M47.3,57.7c-0.2,0-0.5-0.1-0.6-0.3L32.1,38c-0.3-0.3-0.2-0.8,0.1-1.1c0.3-0.3,0.8-0.2,1.1,0.1l14.6,19.3
			c0.3,0.3,0.2,0.8-0.1,1.1C47.6,57.6,47.4,57.7,47.3,57.7z"/>
		<path d="M109.6,357.1c-0.2,0-0.3,0-0.4-0.1c-0.3-0.2-0.4-0.7-0.2-1l14.4-19.5c0.2-0.3,0.7-0.4,1-0.2c0.3,0.2,0.4,0.7,0.2,1
			l-14.4,19.5C110.1,357,109.8,357.1,109.6,357.1z"/>
		<path d="M9.9,345c-0.3,0-0.6-0.2-0.7-0.5l-9.2-22.4c-0.2-0.4,0-0.8,0.4-1c0.4-0.2,0.8,0,1,0.4l9.2,22.4c0.2,0.4,0,0.8-0.4,1
			C10.1,345,10,345,9.9,345z"/>
		<path d="M123.9,609.3c-0.2,0-0.5-0.1-0.6-0.3l-14.2-19.6c-0.2-0.3-0.2-0.8,0.2-1c0.3-0.2,0.8-0.2,1,0.2l14.2,19.6
			c0.2,0.3,0.2,0.8-0.2,1C124.2,609.2,124.1,609.3,123.9,609.3z"/>
		<path d="M121.9,729.7c-0.1,0-0.1,0-0.2,0c-0.4-0.1-0.6-0.5-0.5-0.9l6.1-23.4c0.1-0.4,0.5-0.6,0.9-0.5c0.4,0.1,0.6,0.5,0.5,0.9
			l-6.1,23.4C122.6,729.5,122.3,729.7,121.9,729.7z"/>
		<path d="M238.7,671.5c-0.1,0-0.1,0-0.2,0c-0.4-0.1-0.6-0.5-0.5-0.9l6.1-23.4c0.1-0.4,0.5-0.6,0.9-0.5c0.4,0.1,0.6,0.5,0.5,0.9
			l-6.1,23.4C239.4,671.2,239.1,671.5,238.7,671.5z"/>
		<path d="M48.2,782c-0.2,0-0.4-0.1-0.5-0.2L31.2,764c-0.3-0.3-0.3-0.8,0-1.1c0.3-0.3,0.8-0.3,1.1,0l16.5,17.7
			c0.3,0.3,0.3,0.8,0,1.1C48.6,781.9,48.4,782,48.2,782z"/>
		<path d="M3.2,677.5c-0.3,0-0.5-0.1-0.6-0.4c-0.2-0.4-0.1-0.8,0.3-1l20.9-12.2c0.4-0.2,0.8-0.1,1,0.3c0.2,0.4,0.1,0.8-0.3,1
			L3.6,677.4C3.4,677.4,3.3,677.5,3.2,677.5z"/>
		<path d="M840.8,400.7c-0.2,0-0.4-0.1-0.6-0.3c-0.3-0.3-0.2-0.8,0.1-1.1l19.1-15c0.3-0.3,0.8-0.2,1.1,0.1c0.3,0.3,0.2,0.8-0.1,1.1
			l-19.1,15C841.1,400.6,841,400.7,840.8,400.7z"/>
		<path d="M717.5,630.7c-2.9,0-5.6-1.1-7.7-3.2c-4.2-4.2-4.2-11.1,0-15.4c4.2-4.2,11.1-4.2,15.4,0l0,0l0,0c2.1,2.1,3.2,4.8,3.2,7.7
			s-1.1,5.6-3.2,7.7S720.4,630.7,717.5,630.7z M717.5,610.5c-2.4,0-4.8,0.9-6.6,2.7c-3.7,3.7-3.7,9.6,0,13.2
			c1.8,1.8,4.1,2.7,6.6,2.7s4.9-1,6.6-2.7s2.7-4.1,2.7-6.6s-1-4.9-2.7-6.6l0,0C722.3,611.4,719.9,610.5,717.5,610.5z"/>
		<circle class="st0" cx="175.8" cy="149.6" r="5"/>
		<circle class="st0" cx="628" cy="670.6" r="7"/>
		<circle class="st0" cx="33" cy="526.6" r="7"/>
		
			<rect x="755.9" y="370.3" transform="matrix(0.7845 0.6201 -0.6201 0.7845 403.191 -394.1554)" class="st0" width="25.7" height="25.7"/>
	</g>
</g>
<g id="general_1_">
	<g id="general">
		<g id="paint_balloon">
			<path class="st1" d="M505.7,411.2v362.6H270.2V392.4c0.5,0.2,1,0.3,1.6,0.3h211.9c1,1.6,1.9,3.1,2.9,4.4
				C490.4,402.3,496.3,407.4,505.7,411.2z"/>
			<path d="M356.3,325.7c-0.4,0-0.8-0.3-0.8-0.8v-28.4c0-0.4,0.3-0.8,0.8-0.8h28.9c0.4,0,0.8,0.3,0.8,0.8s-0.3,0.8-0.8,0.8h-28.2
				V325C357.1,325.4,356.7,325.7,356.3,325.7z"/>
			<path d="M275.7,383.8c-0.2,0-0.3-0.1-0.5-0.2c-0.3-0.3-0.4-0.7-0.1-1.1c11.5-14,36.5-39.2,74.7-50.3c0.4-0.1,0.8,0.1,0.9,0.5
				c0.1,0.4-0.1,0.8-0.5,0.9c-37.8,11-62.6,35.9-74,49.8C276.2,383.8,275.9,383.8,275.7,383.8z"/>
			<path d="M409.7,335.3h-56.1c-3.1,0-5.6-2.5-5.6-5.6c0-1.5,0.6-2.9,1.6-3.9c1.1-1,2.5-1.6,3.9-1.6h52.5c0.4,0,0.8,0.3,0.8,0.8
				s-0.3,0.8-0.8,0.8h-52.5c-1.1,0-2.1,0.4-2.9,1.2c-0.8,0.8-1.2,1.8-1.2,2.9c0,2.2,1.8,4.1,4.1,4.1h56.1c0.4,0,0.8,0.3,0.8,0.8
				S410.1,335.3,409.7,335.3z"/>
			<path d="M508,784.1h-240c-3.1,0-5.6-2.5-5.6-5.6c0-1.5,0.6-2.9,1.6-3.9c1-1,2.4-1.6,3.9-1.6h2.3c0.4,0,0.8,0.3,0.8,0.8
				s-0.3,0.8-0.8,0.8h-2.3c-1.1,0-2.1,0.4-2.9,1.2c-0.8,0.8-1.2,1.8-1.2,2.9c0,2.2,1.8,4.1,4.1,4.1h240c1.1,0,2.1-0.4,2.9-1.2
				c0.8-0.8,1.2-1.8,1.2-2.9c0-2.2-1.8-4.1-4-4.1h-2.3c-0.4,0-0.8-0.3-0.8-0.8s0.3-0.8,0.8-0.8h2.3c3.1,0,5.5,2.5,5.5,5.6
				c0,1.5-0.6,2.9-1.6,3.9C510.8,783.5,509.4,784.1,508,784.1z"/>
			<path d="M477.5,383.8h-25.6c-0.4,0-0.8-0.3-0.8-0.8s0.3-0.8,0.8-0.8h25.6c0.4,0,0.8,0.3,0.8,0.8S477.9,383.8,477.5,383.8z"/>
			<path d="M270.2,393.2c-0.1,0-0.2,0-0.2,0c-2.2-0.8-3.7-2.9-3.7-5.2c0-1.5,0.6-2.9,1.6-3.9c1.1-1,2.5-1.6,3.9-1.6h164.4
				c0.4,0,0.8,0.3,0.8,0.8s-0.3,0.8-0.8,0.8H271.8c-1.1,0-2.1,0.4-2.9,1.2c-0.8,0.8-1.2,1.8-1.2,2.9c0,1.7,1.1,3.3,2.7,3.8
				c0.4,0.1,0.6,0.6,0.5,1C270.8,393,270.5,393.2,270.2,393.2z"/>
			<path d="M402.9,312.2C402.9,312.1,402.9,312.1,402.9,312.2c-0.4,0-0.8,0.2-1.2,0.3c0.5,1.5,1,2.9,1.5,4.3c-0.5,0.1-1,0.2-1.5,0.2
				c-3.3,0-5.9-2.7-5.9-5.9c0-3.3,2.7-5.9,5.9-5.9c3.1,0,5.7,2.4,5.9,5.5c0,0.1,0,0.3,0,0.5c0,0.8-0.1,1.5-0.4,2.2
				C405.5,312.8,404.1,312.5,402.9,312.2z"/>
			<path d="M406.3,297.3h-13.9c-0.4,0-0.8-0.3-0.8-0.8s0.3-0.8,0.8-0.8h13.9c0.4,0,0.8,0.3,0.8,0.8S406.7,297.3,406.3,297.3z"/>
		</g>
		<g id="stairs">
			<path d="M175.8,795.8c-0.1,0-0.1,0-0.2,0c-0.4-0.1-0.7-0.5-0.6-0.9l78.8-346c0.1-0.4,0.5-0.7,0.9-0.6c0.4,0.1,0.7,0.5,0.6,0.9
				l-78.8,346C176.4,795.6,176.1,795.8,175.8,795.8z"/>
			<path d="M294.5,822.9c-0.1,0-0.1,0-0.2,0c-0.4-0.1-0.7-0.5-0.6-0.9l78.8-346c0.1-0.4,0.5-0.7,0.9-0.6c0.4,0.1,0.7,0.5,0.6,0.9
				l-78.8,346C295.2,822.6,294.9,822.9,294.5,822.9z"/>
			<path d="M361.9,527.4c-0.1,0-0.1,0-0.2,0l-118.7-27.1c-0.4-0.1-0.7-0.5-0.6-0.9c0.1-0.4,0.5-0.7,0.9-0.6L362,525.9
				c0.4,0.1,0.7,0.5,0.6,0.9C362.5,527.1,362.2,527.4,361.9,527.4z"/>
			<path d="M348,588.2c-0.1,0-0.1,0-0.2,0l-118.7-27.1c-0.4-0.1-0.7-0.5-0.6-0.9c0.1-0.4,0.5-0.7,0.9-0.6l118.7,27.1
				c0.4,0.1,0.7,0.5,0.6,0.9C348.6,588,348.3,588.2,348,588.2z"/>
			<path d="M334.1,649.1c-0.1,0-0.1,0-0.2,0l-118.7-27.1c-0.4-0.1-0.7-0.5-0.6-0.9c0.1-0.4,0.5-0.7,0.9-0.6l118.7,27.1
				c0.4,0.1,0.7,0.5,0.6,0.9C334.8,648.9,334.5,649.1,334.1,649.1z"/>
			<path d="M320.2,710c-0.1,0-0.1,0-0.2,0l-118.7-27.1c-0.4-0.1-0.7-0.5-0.6-0.9c0.1-0.4,0.5-0.7,0.9-0.6l118.7,27.1
				c0.4,0.1,0.7,0.5,0.6,0.9C320.9,709.8,320.6,710,320.2,710z"/>
			<path d="M306.4,770.9c-0.1,0-0.1,0-0.2,0l-118.7-27.1c-0.4-0.1-0.7-0.5-0.6-0.9c0.1-0.4,0.5-0.7,0.9-0.6l118.7,27.1
				c0.4,0.1,0.7,0.5,0.6,0.9C307,770.7,306.7,770.9,306.4,770.9z"/>
		</g>
		<g id="flowers">
			<path d="M571.8,339.3c-30.6,0-69.4-5.7-102.9-12c-0.3-0.1-0.5-0.3-0.6-0.5c-1.8-6-4.3-10.3-7.8-13.6c-8-7.4-21.8-9.1-40.9-4.9
				c-5.1,1.1-10.7,2.7-16.6,4.6c-0.3,0.1-0.6,0-0.8-0.2c-0.2-0.2-0.3-0.5-0.2-0.8c0.2-0.5,0.4-1.1,0.6-1.7c0-0.1,0.1-0.2,0.2-0.3
				c5.4-5.5,33.8-35.4,57.9-77.5c7.6-13.2,15.2-33,8.1-51.9c-0.1-0.2,0-0.5,0.1-0.7c18.8-25,36.3-37,51.8-35.7
				c19.2,1.6,29.7,14.2,29.8,14.4c14.5,17.7,6.4,44.7,2.8,54.3c13-11.7,29.3-16.8,43.3-13.6c0.3,0.1,0.5,0.3,0.6,0.5
				c0.1,0.3,0,0.5-0.2,0.7c-8.7,8.6-13,18-14.9,23.3c4.4,2.2,21.2,9.4,40.6,4.2c0.2-0.1,0.4,0,0.6,0.1c0.2,0.1,0.3,0.3,0.3,0.5
				c1.2,9.9-2.5,17.9-4,21.4c-6.1,13.6-17.6,20.7-25.2,24.1c5-0.1,11.1,0.6,17.4,3.6c10.9,5.1,21.6,16.7,21.1,29
				c-0.4,11.6-10.6,19.8-14.4,22.9C610.1,336.5,592.9,339.3,571.8,339.3z M469.7,325.9c101.4,19,136.6,11.8,148.3,2.4
				c4-3.2,13.4-10.8,13.8-21.8c0,0,0,0,0,0c0.4-11.7-9.9-22.7-20.3-27.6c-8.3-3.9-16.4-3.8-21.8-3c-0.4,0.1-0.8-0.2-0.8-0.6
				c-0.1-0.4,0.1-0.8,0.5-0.9c6.3-2.1,21.8-8.8,29.2-25.2c1.5-3.2,4.8-10.7,4-19.7c-20.6,5.2-38.1-3.1-41.5-4.8
				c-0.3-0.2-0.5-0.6-0.4-0.9c1.7-5,5.9-14.6,14.5-23.5c-14.1-2.7-30.5,3.3-43.1,15.8c-0.3,0.3-0.7,0.3-1,0.1
				c-0.3-0.2-0.4-0.6-0.3-0.9c1.6-3.6,15-36-1.3-55.9c-0.1-0.1-10.3-12.3-28.8-13.8c-15-1.2-31.9,10.5-50.3,34.8
				c3.9,10.8,5.5,28.6-8.4,52.8c-24.1,42-52.3,71.8-58.1,77.7c0,0,0,0.1,0,0.1c5.4-1.7,10.5-3.1,15.2-4.2
				c19.6-4.3,33.8-2.5,42.2,5.3C465.3,315.4,467.8,319.8,469.7,325.9z"/>
			<path d="M483.7,393.5c-0.3,0-0.5-0.1-0.6-0.4c-0.4-0.6-0.7-1.2-1.1-1.8c-1.6-2.6-3.3-5.4-5.1-7.8c-3.7-4.8-7.3-7.2-11.2-7.5
				c-4.8-0.3-8.2,2.8-11.4,5.8c-0.6,0.6-1.3,1.2-1.9,1.7c-2,1.8-4.3,3.5-7.2,3.8c-3,0.3-6.2-1-9.4-3.8c-7.9-6.8-16.9-23.2-26.7-48.8
				c-1.3-3.4-2.5-6.5-3.6-9.6c-1-2.6-1.9-5.3-2.9-8.2c-0.5-1.4-1-2.9-1.5-4.3c-0.1-0.2-0.1-0.4,0-0.6s0.2-0.3,0.4-0.4
				c0.4-0.1,0.8-0.3,1.3-0.4c0.4-0.1,0.8,0.1,0.9,0.5c0.1,0.4-0.1,0.8-0.5,0.9c-0.2,0.1-0.3,0.1-0.5,0.2c0.4,1.2,0.8,2.4,1.2,3.6
				c1,2.8,1.9,5.5,2.9,8.1c1.1,3.1,2.3,6.2,3.6,9.6c9.8,25.4,18.7,41.6,26.3,48.2c2.9,2.5,5.7,3.7,8.3,3.4c2.5-0.3,4.5-1.8,6.4-3.4
				c0.6-0.5,1.2-1.1,1.9-1.7c3.3-3.1,7.1-6.6,12.5-6.2c4.4,0.3,8.3,2.8,12.3,8c1.9,2.5,3.6,5.2,5.2,7.9c0.4,0.6,0.7,1.2,1.1,1.8
				c0.2,0.4,0.1,0.8-0.2,1C484,393.4,483.9,393.5,483.7,393.5z"/>
			<path d="M558.4,417.6c-11.4,0-22.8-0.8-34-2.3c-6.3-0.9-12.7-2-18.9-3.3c-0.4-0.1-0.7-0.5-0.6-0.9c0.1-0.4,0.5-0.7,0.9-0.6
				c6.2,1.3,12.5,2.5,18.8,3.3c15.2,2.1,30.6,2.8,46,2c-21.6-50.4-40.9-75.2-57.4-73.8c-5,0.4-10,3.2-14.9,5.8
				c-6.6,3.6-12.8,7-17.7,3.7c-3.9-2.6-6.5-9.3-10.7-20.4c-0.7-1.7-1.3-3.5-1.9-5.2c-0.1-0.4,0.1-0.8,0.5-0.9
				c0.4-0.1,0.8,0.1,0.9,0.5c0.6,1.7,1.2,3.4,1.8,5.1c4.1,10.8,6.7,17.4,10.1,19.7c4.1,2.8,9.7-0.2,16.2-3.7c5-2.7,10.2-5.6,15.5-6
				c17.5-1.5,37,23.3,59.3,75.7c0.1,0.2,0.1,0.5-0.1,0.7c-0.1,0.2-0.4,0.3-0.6,0.4C567.3,417.4,562.9,417.6,558.4,417.6z"/>
			<g>
				<path d="M461.6,232.7c-24.4,42.6-53.3,72.8-58.1,77.6c6.5-17.2,33.7-86.8,66.3-130.2C474.1,191.8,475.1,209.2,461.6,232.7z"/>
				<path d="M403.6,311.1c-0.1,0-0.3,0-0.4-0.1c-0.3-0.2-0.4-0.6-0.3-0.9c7.5-19.9,34.5-88,66.4-130.4c0.2-0.2,0.4-0.3,0.7-0.3
					c0.3,0,0.5,0.2,0.6,0.5c7.2,19.4-0.5,39.6-8.3,53.2l0,0c-24.3,42.3-52.7,72.2-58.2,77.8C404,311.1,403.8,311.1,403.6,311.1z
					 M469.6,181.8c-29.7,40.1-55.1,102.3-64,125.4c9-9.5,33.9-37.3,55.4-74.8C468.4,219.4,475.8,200.3,469.6,181.8z M461.6,232.7
					L461.6,232.7L461.6,232.7z"/>
			</g>
			<path d="M402.9,311.8c-0.1,0-0.2,0-0.4-0.1c-0.3-0.2-0.4-0.5-0.4-0.8c11.7-50,22.2-94.8,30.9-132.1c14.5-61.8,24-102.6,26.3-113
				c1.4-6.4,4.2-11.3,8.4-14.6c6-4.6,15.9-6.9,23.3-2.2c8.5,5.4,8.6,16.9,8.5,20.2c0,0,0,0,0,0c-0.6,13-11.8,25.4-28.5,31.9
				c3.9,3.4,12.6,12.3,13.3,25.5c0.8,15.4-9,30-24.6,36.7c2.2,1.9,7.5,7.4,10.9,16.4c0.1,0.2,0,0.5-0.1,0.7
				c-31.8,42.2-58.7,110.2-66.2,130c0,0.1-0.1,0.2-0.2,0.3l-0.7,0.7C403.3,311.7,403.1,311.8,402.9,311.8z M481.7,48
				c-4.8,0-9.5,1.8-13,4.5c-3.9,3-6.5,7.6-7.9,13.7c-2.3,10.5-11.8,51.3-26.3,113c-8.3,35.3-18.1,77.4-29.1,124.2
				c10-25.5,34.7-84.8,63.5-123.3c-4.1-10.7-11.1-16.2-11.2-16.2c-0.2-0.2-0.3-0.4-0.3-0.7s0.2-0.5,0.5-0.6
				c15.7-6.3,25.6-20.6,24.8-35.7C482,113,472.1,104,469,101.6c-0.2-0.2-0.3-0.4-0.3-0.7c0-0.3,0.2-0.5,0.5-0.6
				c16.9-6.1,28.2-18.3,28.8-31c0,0,0,0,0,0c0.1-3.2,0-13.9-7.8-18.9C487.6,48.7,484.6,48,481.7,48z M498.8,69.3L498.8,69.3
				L498.8,69.3z"/>
			<path d="M534.7,121.8c-0.3,0-0.5-0.2-0.7-0.4c-4-8.4-12.5-30.9-4.1-57c10.6-33.3,40.4-46.5,46.3-48.8c0.3-0.1,0.7,0,0.9,0.3
				c2,3.5,8.4,16.1,9.3,33.2c0,0.2-0.1,0.5-0.3,0.6c-0.2,0.2-0.4,0.2-0.6,0.2c0,0-0.1,0-0.1,0c-4.7-0.5-9.6,1.5-13.4,5.5
				c-4.2,4.3-6.3,10.2-5.6,15.3c0.8,5.7,5,9.5,7.4,11.3c0.3,0.2,0.4,0.6,0.2,0.9c-0.2,0.3-0.5,0.5-0.9,0.4
				c-1.1-0.3-7.1-1.9-12.8,1.7c-0.9,0.6-5.3,3.6-6.6,9.4c-1.2,5,0.3,10.7,3.8,14.9c0.1,0.2,0.2,0.4,0.2,0.6c0,0.2-0.1,0.4-0.3,0.5
				c-9.8,7.3-18.9,10.5-22.4,11.6C534.9,121.8,534.8,121.8,534.7,121.8z M576.1,17.2c-7,2.8-34.7,16-44.8,47.7
				c-8,25.1-0.2,46.6,3.8,55.3c3.7-1.2,11.9-4.3,20.7-10.7c-3.5-4.5-4.8-10.4-3.6-15.6c1.5-6.3,6.3-9.7,7.3-10.3
				c4.1-2.6,8.3-2.7,11.1-2.4c-2.4-2.3-5.1-5.8-5.7-10.4c-0.8-5.6,1.5-11.9,6-16.5c3.9-4.1,9-6.3,14-6
				C583.9,32.8,578.3,21.2,576.1,17.2z"/>
			<g>
				<path d="M623.3,228.5c-21.3,5.7-39.1-3.2-41.8-4.5c1.1-3.3,5.2-14.3,15.3-24.2c2.4,0.5,4.7,1.3,6.9,2.4
					c2.2,1,14.1,7.1,18.3,20.6C622.7,224.7,623.1,226.7,623.3,228.5z"/>
				<path d="M608.9,231.1c-14.2,0-25.1-5.2-27.7-6.5c-0.3-0.2-0.5-0.6-0.4-0.9c1.8-5.2,6.2-15.4,15.5-24.5c0.2-0.2,0.4-0.3,0.7-0.2
					c2.4,0.6,4.8,1.4,7,2.4c3.3,1.6,14.6,7.9,18.7,21.1c0.6,1.9,1,3.9,1.3,5.9c0,0.4-0.2,0.7-0.6,0.8
					C618.4,230.6,613.4,231.1,608.9,231.1z M582.4,223.6c4.4,2.2,20.8,9.3,40,4.4c-0.2-1.7-0.6-3.3-1.1-5
					c-4-12.6-14.7-18.6-17.9-20.2c-2-1-4.1-1.7-6.3-2.2C588.6,209.1,584.3,218.4,582.4,223.6z"/>
			</g>
			<path d="M623.3,229.3c-0.1,0-0.3,0-0.4-0.1c-0.2-0.1-0.3-0.3-0.3-0.5c-0.2-1.9-0.6-3.8-1.2-5.6c-4-12.6-14.7-18.6-17.9-20.2
				c-2.1-1-4.4-1.8-6.7-2.3c-0.3-0.1-0.5-0.3-0.6-0.5c-0.1-0.3,0-0.5,0.2-0.7c4.2-4.1,8.9-7.5,14-10.3c24.8-13.1,49.1-3.8,53.7-1.9
				c0.3,0.1,0.5,0.5,0.4,0.9c-1.2,4.6-8.7,28.1-33.6,38.7c-2.4,1-4.9,1.9-7.4,2.5C623.4,229.3,623.3,229.3,623.3,229.3z
				 M598.4,199.4c2,0.5,3.9,1.2,5.7,2.1c3.3,1.6,14.6,7.9,18.7,21.1c0.5,1.7,0.9,3.3,1.2,5c2.1-0.6,4.3-1.4,6.4-2.2
				c23.3-9.9,30.9-31.4,32.6-37.1c-5.7-2.3-28.6-10.2-51.8,2.1C606.4,192.7,602.2,195.8,598.4,199.4z"/>
			<g>
				<path d="M579.3,366.2c3.4-0.4,18-1.5,31.3,8.6c16.3,12.4,17.3,31.5,17.4,34c-2.2,0.4-20.3,3.3-35.1-10
					C578.8,386,579.2,368.6,579.3,366.2z"/>
				<path d="M621.2,410.1c-7.3,0-18.8-1.7-28.8-10.7c-14-12.6-14.1-29.9-13.9-33.2c0-0.4,0.3-0.7,0.7-0.7c5.4-0.6,19.2-0.8,31.9,8.7
					c16.1,12.2,17.6,31,17.7,34.6c0,0.4-0.3,0.7-0.6,0.8C627.1,409.7,624.6,410.1,621.2,410.1z M580,366.9
					c-0.1,4.4,0.6,19.9,13.4,31.4c13.3,12,29.3,10.6,33.8,9.9c-0.3-4.7-2.3-21.6-17.1-32.8C598.4,366.5,585.6,366.4,580,366.9z"/>
			</g>
			<g>
				<path d="M580.4,79.7c-5.8,14-14.9,23.5-23.5,29.9c-3.6-4.3-5.2-10.2-3.9-15.5c1.5-6.2,6.4-9.5,7-9.8c6-3.8,12.4-2.1,13.4-1.8
					c-1.7-1.3-6.8-5.3-7.7-11.8c-1.5-10.4,8.3-22.8,19.8-21.6c0.1,0,0.1,0,0.2,0C586.1,58.3,585,68.8,580.4,79.7z"/>
				<path d="M556.9,110.3c-0.2,0-0.4-0.1-0.6-0.3c-3.8-4.6-5.4-10.8-4.1-16.2c1.5-6.3,6.3-9.7,7.3-10.3c4.1-2.6,8.3-2.7,11.1-2.4
					c-2.4-2.3-5.1-5.8-5.7-10.4c-0.8-5.6,1.5-11.9,6-16.5c4.1-4.3,9.5-6.4,14.7-5.9c0.1,0,0.2,0,0.3,0c0.3,0.1,0.6,0.4,0.6,0.7
					c0.5,10.7-1.2,21.1-5.3,30.9l0,0c-5,12.1-13,22.2-23.8,30.2C557.2,110.3,557.1,110.3,556.9,110.3z M568.5,82.6
					c-2.4,0-5.3,0.5-8.2,2.3c-0.9,0.6-5.3,3.6-6.6,9.4c-1.1,4.8,0.1,10.2,3.3,14.3c10.3-7.8,17.9-17.6,22.7-29.2l0,0
					c3.9-9.4,5.7-19.4,5.2-29.6c-4.6-0.3-9.3,1.7-13,5.5c-4.2,4.3-6.3,10.2-5.6,15.3c0.8,5.7,5,9.5,7.4,11.3
					c0.3,0.2,0.4,0.6,0.2,0.9c-0.2,0.3-0.5,0.5-0.9,0.4C572.5,83,570.8,82.6,568.5,82.6z"/>
			</g>
			<path d="M599.1,140.4c-5.8,0-11-2-14.4-5.6c-4.6-4.8-6.1-12.6-4.1-20.5c-6.2,3.4-13.6,3.4-19.6-0.2c-1.8-1.1-3.3-2.4-4.7-4
				c-0.1-0.2-0.2-0.4-0.2-0.6c0-0.2,0.1-0.4,0.3-0.5c10.6-7.9,18.4-17.8,23.3-29.6c4-9.6,5.7-19.8,5.2-30.3c0-0.2,0.1-0.4,0.2-0.6
				s0.4-0.2,0.6-0.2c7.5,0.9,13.9,6.8,16.1,14.9c4.4-8.8,14.4-13.5,23-10.4c7.7,2.8,12.7,11.2,11.4,19.1c-0.9,5.6-4.5,9.3-6.8,11.1
				c2.6,0.6,5.2,1.6,7.5,3c3.2,1.8,6.5,3.7,8.5,7.8c2.6,5.3,1.3,10.4,0.6,12.4c0,0,0,0,0,0l-0.7-0.3l0.7,0.3
				c-0.5,1.5-2.7,6.6-7.9,9.2c-7.2,3.7-15.7,0.2-19.6-1.9c1.6,3.6,3.4,9.8,0.9,15.6c-2.4,5.4-8.5,9.5-15.9,10.8
				C602.1,140.3,600.6,140.4,599.1,140.4z M581.9,111.9c0.2,0,0.3,0,0.4,0.1c0.3,0.2,0.4,0.5,0.3,0.8c-2.6,8.1-1.4,16.1,3.2,20.9
				c4,4.2,10.6,6,17.6,4.7c6.9-1.2,12.5-5,14.7-9.9c3-6.7-0.7-14.4-1.9-16.5c-0.2-0.3-0.1-0.7,0.1-0.9c0.3-0.2,0.6-0.3,0.9-0.1
				c0.1,0.1,11.6,7.6,20.3,3.1c4.7-2.4,6.7-7,7.1-8.4l0.7,0.2l-0.7-0.2c0.6-1.8,1.8-6.5-0.5-11.2c-1.8-3.7-4.8-5.4-7.9-7.2
				c-2.7-1.5-5.6-2.6-8.7-3.2c-0.3-0.1-0.5-0.3-0.6-0.6c-0.1-0.3,0.1-0.6,0.3-0.8c1.5-1,6.6-4.7,7.6-11.1
				c1.1-7.3-3.5-14.9-10.4-17.5c-8.5-3.1-18.6,2.2-22,11.6c-0.1,0.3-0.4,0.5-0.8,0.5c-0.3,0-0.6-0.3-0.7-0.6
				c-1.5-8.2-7.3-14.6-14.5-15.8c0.4,10.4-1.4,20.5-5.3,30c-4.9,11.8-12.7,21.8-23.1,29.8c1.1,1.2,2.4,2.3,3.8,3.1
				c6,3.6,13.7,3.3,19.6-0.8C581.6,111.9,581.7,111.9,581.9,111.9z"/>
			<path d="M675.6,323.5c-2.9,0-7.9-0.6-10.9-4.7c-3.1-4.1-2.2-8.8-2.1-9.3c0.5-2.5,1.8-4.3,2.9-5.6c-2.3-0.2-5.3-1-7.7-3.4
				c-2.7-2.7-4.1-7.2-3.6-11.7c0.5-4.2,2.5-7.7,5.6-9.6c3.9-2.4,8.5-1.5,11-0.7c-2.5-6.7,0-14.3,5.9-17.4c5.3-2.8,12.3-1.3,16,3.3
				c2.5,3.1,2.7,6.7,2.6,8.8c2.1-1.2,6.3-2.9,10.9-1.4c5.3,1.7,10.2,7.4,8.9,13.6c-0.7,3.7-3.5,6.8-7.4,8.4c1.7,1.4,3.1,3.1,4,4.9
				c0.8,1.6,3.1,7.1,0.2,12.5c-3,5.6-9.1,6.7-10.9,6.9c-5.7,0.6-9.9-2.4-11.6-3.8c-4.8,6.9-9.2,8.7-12.1,9c-0.3,0-0.5,0-0.6,0
				C676.4,323.5,676,323.5,675.6,323.5z M667.3,302.5c0.3,0,0.6,0.2,0.7,0.5c0.1,0.3,0,0.6-0.2,0.8c-1.1,0.9-3.1,2.8-3.7,5.9
				c0,0.2-0.9,4.5,1.9,8.1c3,4.1,8.4,4.2,10.6,4.1c0.2,0,0.4,0,0.6,0c3.8-0.4,7.8-3.6,11.5-9c0.1-0.2,0.3-0.3,0.5-0.3
				c0.2,0,0.4,0.1,0.6,0.2c0.8,0.8,5,4.7,11.1,4c1.6-0.2,7.1-1.1,9.8-6.1c2.5-4.7,0.4-9.7-0.3-11.1c-1-2.1-2.6-3.9-4.6-5.2
				c-0.2-0.2-0.4-0.4-0.3-0.7c0-0.3,0.2-0.5,0.5-0.6c4-1.2,7-4.2,7.7-7.8c1.1-5.4-3.3-10.4-7.9-11.9c-5.5-1.8-10.4,1.6-10.9,2
				c-0.2,0.2-0.6,0.2-0.8,0c-0.3-0.2-0.4-0.5-0.3-0.8c0.2-1.3,0.7-5.7-2.1-9.3c-3.2-4.1-9.4-5.3-14.1-2.9c-5.7,3-7.7,10.8-4.5,17.1
				c0.1,0.3,0.1,0.6-0.1,0.9c-0.2,0.2-0.6,0.3-0.9,0.2c-0.7-0.3-6.6-2.9-11.3-0.1c-2.7,1.6-4.4,4.7-4.9,8.5c-0.5,4,0.7,8,3.2,10.4
				C661.6,302.1,665.3,302.5,667.3,302.5C667.3,302.5,667.3,302.5,667.3,302.5z"/>
			<path d="M678.2,243.4c-2.8,0-5.6-1-7.8-2.8c-2.5-2.1-4.1-5-4.4-8.3c-0.6-6.7,4.3-12.7,11-13.4c3.3-0.3,6.4,0.7,9,2.8
				s4.1,5,4.4,8.3l0,0c0.3,3.3-0.7,6.4-2.8,9c-2.1,2.5-5,4.1-8.3,4.4C679,243.4,678.6,243.4,678.2,243.4z M678.2,220.4
				c-0.3,0-0.7,0-1,0c-5.9,0.6-10.2,5.8-9.7,11.7c0.3,2.9,1.6,5.4,3.9,7.3c2.2,1.8,5,2.7,7.9,2.4c2.9-0.3,5.4-1.6,7.3-3.9
				c1.8-2.2,2.7-5,2.4-7.9l0,0c-0.3-2.9-1.6-5.4-3.9-7.3C683.1,221.2,680.7,220.4,678.2,220.4z"/>
			<g>
				<circle cx="510.3" cy="12.3" r="11.5"/>
				<path d="M510.3,24.5c-6.2,0-11.6-4.8-12.2-11.1c-0.3-3.3,0.7-6.4,2.8-9c2.1-2.5,5-4.1,8.3-4.4c6.7-0.6,12.7,4.3,13.4,11l0,0
					c0.6,6.7-4.3,12.7-11,13.4C511.1,24.5,510.7,24.5,510.3,24.5z M510.3,1.5c-0.3,0-0.7,0-1,0c-2.9,0.3-5.4,1.6-7.3,3.9
					c-1.8,2.2-2.7,5-2.4,7.9c0.6,5.9,5.8,10.2,11.7,9.7c5.9-0.6,10.2-5.8,9.7-11.7l0,0C520.5,5.7,515.8,1.5,510.3,1.5z"/>
			</g>
			<path d="M636.3,359.9c-2.3,0-4.5-0.8-6.2-2.3c-4.2-3.5-4.8-9.7-1.3-13.9c1.7-2,4-3.3,6.7-3.5c2.6-0.2,5.2,0.5,7.2,2.2l0,0
				c4.2,3.5,4.8,9.7,1.3,13.9c-1.7,2-4,3.3-6.7,3.5C637,359.9,636.6,359.9,636.3,359.9z M636.4,341.7c-2.4,0-4.8,1-6.4,3
				c-2.9,3.5-2.4,8.8,1.1,11.7c1.7,1.4,3.9,2.1,6.1,1.9c2.2-0.2,4.2-1.3,5.6-3c2.9-3.5,2.4-8.8-1.1-11.7l0,0
				C640.1,342.4,638.2,341.7,636.4,341.7z"/>
			<path d="M584.4,182.7c-3.9,0-7.2-3-7.6-6.9c-0.4-4.2,2.7-7.9,6.9-8.3c2-0.2,4,0.4,5.6,1.7c1.6,1.3,2.5,3.1,2.7,5.1
				c0.4,4.2-2.7,7.9-6.9,8.3C584.9,182.7,584.6,182.7,584.4,182.7z M584.4,169c-0.2,0-0.4,0-0.6,0c-3.4,0.3-5.8,3.3-5.5,6.7
				c0.3,3.4,3.3,5.8,6.7,5.5c3.4-0.3,5.8-3.3,5.5-6.7C590.2,171.3,587.5,169,584.4,169z"/>
			<g>
				<path d="M469.1,326.5c-27.2-5.1-50.4-10.5-61.9-13.3c-1.7-0.4-3.2-0.8-4.3-1c0,0,0-0.1,0-0.1c1.6-0.5,3.1-1,4.7-1.5
					c4.3-1.3,8.3-2.3,12-3.2c22.8-5,34.9-1.1,41.5,5.1C465.3,316.4,467.6,321.4,469.1,326.5z"/>
				<path d="M469.1,327.3c0,0-0.1,0-0.1,0c-25.5-4.8-47.7-9.9-61.9-13.3l-4.3-1c-0.2-0.1-0.4-0.2-0.5-0.4c-0.1-0.2-0.1-0.4,0-0.7
					c0.1-0.2,0.3-0.4,0.5-0.5c1.6-0.5,3.2-1,4.7-1.5c4.2-1.3,8.2-2.3,12-3.2c19.6-4.3,33.8-2.5,42.2,5.3c3.7,3.4,6.3,8,8.2,14.3
					c0.1,0.3,0,0.5-0.2,0.7C469.5,327.2,469.3,327.3,469.1,327.3z M405.5,312l1.9,0.5c13.9,3.4,35.7,8.3,60.6,13
					c-1.8-5.4-4.1-9.4-7.4-12.4c-8-7.4-21.8-9.1-40.9-4.9c-3.8,0.8-7.8,1.9-11.9,3.1C407.1,311.6,406.3,311.8,405.5,312z"/>
			</g>
		</g>
		<g id="man">
			<path id="legs" d="M341.4,426.6c-0.8-4.5-2.5-13.6-10-26.7c-5.9-10.4-42.3-48.8-45.4-52.2c-12.3-1.4-24.5-2.8-36.8-4.1
				c-3.8-0.4-7.7-0.9-11.5-1.3c-7.8-0.9-25.5-2.9-32.9-3.7c0,17.6,1.1,37.8,4.4,60.1c3,20.6,7.3,39.1,11.9,55
				c-12.2,37.1-24.4,74.1-36.7,111.2c5.9,2.4,12.2,4.7,19,6.9c9.3,3,18.2,5.4,26.4,7.2c7.4-25.5,14.1-47.7,19.6-65.8
				c8.6-28.4,11.3-36.4,13-49c2.4-18.2,2.2-41.2-5.9-68.6c7.8,6.9,15.8,13.9,24.1,21c8.1,6.9,16.2,13.6,24.2,20
				c-5.4,16.9-10.7,34.8-15.6,53.5c-5.6,21.2-10.2,41.5-14.1,60.9c13.2,0.6,26.5,1.3,39.7,1.9c7.2-23.4,15.6-52.4,24-85.4
				C341.2,457.7,344.6,443.8,341.4,426.6z"/>
			<g id="shoes">
				<path d="M343.2,586.4c-11-2.6-22.1-5.2-33.2-7.8c-12.1-2.8-24.1-5.4-36-8c0.9-4.1,1.8-8.3,2.8-12.6c0.9-3.9,1.9-7.7,2.8-11.4
					c4.1,1,8.9,1.9,14.3,2.5c5.5,0.6,10.5,0.7,14.9,0.5c-0.2,1.3-0.3,2.8-0.3,4.5c0,1.6,0.2,3,0.4,4.2c2.5-0.1,14.1-0.1,23.9,8.8
					C340.8,574.5,342.7,583.5,343.2,586.4z"/>
				<path d="M234.1,619.8c-16.6-16-33.1-32-49.7-48c4.7-6.3,9.3-12.5,14-18.8c2.5,2.7,6.2,6,11.2,9.1c5,3,9.6,4.8,13.1,5.9
					c-1.1,2-2.2,4.1-3.3,6.4c-0.5,1.1-0.9,2.1-1.4,3.1c2.2,1.1,12.4,6.7,16.6,19.3C238.3,607.8,235.1,617.2,234.1,619.8z"/>
			</g>
			<g id="head">
				<path d="M277.7,207.5c-0.3,0-0.6-0.2-0.7-0.6c-0.1-0.4,0.1-0.8,0.5-0.9c1.1-0.3,2.1-0.7,3-1.3c3.3-2,4.5-5.2,6.1-10.1
					c0.9-2.7,3.8-11,0.9-17.9c-0.4-1-0.9-1.9-1.6-2.8c0,0-0.1-0.1-0.1-0.1c-0.2-0.3-0.3-0.4-0.4-0.6c-0.3-0.3-5.9-7.1-14.5-7.1
					c0,0,0,0-0.1,0c-6.4,0-10.6,3.8-13,7c-0.3,0.3-0.5,0.6-0.7,0.9c-0.9,1.3-1.4,2.3-1.7,3c-0.9,2.1-1.9,4.9-3,8.2
					c-1,3.2-2,7-3.1,11.4c-0.1,0.3-0.2,0.6-0.2,0.9l-0.1,0.2c0,0,0,0.1,0,0.1l-0.4,1.4c-0.1,0.3-0.1,0.6-0.2,0.9l-0.1,0.5
					c-0.1,0.4-0.5,0.6-0.9,0.5c-0.4-0.1-0.6-0.5-0.5-0.9l0.1-0.5c0.1-0.3,0.2-0.6,0.2-0.9l0.4-1.5c0,0,0,0,0,0c0,0,0,0,0,0l0-0.2
					c0.1-0.3,0.2-0.6,0.2-1c1.1-4.3,2.1-8.2,3.1-11.4c1-3.4,2.1-6.2,3-8.4c0.3-0.7,0.9-1.9,1.8-3.2c0.2-0.3,0.5-0.7,0.7-1
					c2.6-3.4,7.2-7.5,14.2-7.6c0,0,0,0,0.1,0c9.1,0,15,6.9,15.7,7.6c0.1,0.1,0.3,0.3,0.5,0.6c0,0,0.1,0.1,0.1,0.1
					c0.7,1,1.3,2,1.7,3.1c3.1,7.5,0.1,16.1-0.8,19c-1.7,5-3,8.7-6.8,10.9c-1,0.6-2.2,1.1-3.4,1.4
					C277.8,207.5,277.7,207.5,277.7,207.5z"/>
				<path id="hair" d="M288.2,176.4c-1-0.1-2-0.1-3-0.1c-1.2,0-2.4,0-3.5,0c-0.6,1.2-1.2,2.3-1.9,3.5c-0.9,1.8-1.9,3.5-2.8,5.3
					c-0.5-0.1-2.9-0.9-3.5-1.1c0.2-0.5,0.9-2.7-0.2-5.1c-0.2-0.5-1.1-2.3-3-3.2c-2.3-1.1-5-0.4-6.7,1c-1.6,1.3-2.6,3.3-2.5,5.3
					c0,0.2,0,0.9,0.3,1.7c0.7,2,2.2,3.1,2.8,3.5c-2.8,3.2-5.6,6.4-8.4,9.6c-2.6,0.8-5.2,1.6-7.9,2.4c0.1-0.5,0.3-1,0.4-1.5
					c0,0,0,0,0,0c0.1-0.4,0.2-0.8,0.3-1.2c0.9-3.8,2-7.8,3.1-11.4c1-3.2,2-6,3-8.3c0.3-0.7,0.9-1.8,1.8-3.1c0.2-0.3,0.4-0.7,0.7-1
					c2.5-3.3,6.9-7.2,13.6-7.3c8.9,0,14.7,6.8,15.2,7.4c0.1,0.1,0.3,0.3,0.4,0.6c0,0,0.1,0.1,0.1,0.1
					C287.2,174.4,287.8,175.4,288.2,176.4z"/>
				<path d="M265.6,189c-0.1,0-0.1,0-0.2,0c-0.5-0.1-1-0.3-1.5-0.6c-0.6-0.3-1.2-0.7-1.8-1.2c-0.3-0.3-0.3-0.8,0-1.1
					c0.3-0.3,0.8-0.3,1.1,0c0.4,0.4,0.9,0.7,1.4,1c0.4,0.2,0.8,0.3,1.2,0.5c0.4,0.1,0.6,0.5,0.5,0.9
					C266.2,188.8,265.9,189,265.6,189z"/>
			</g>
			<g id="hand">
				<path d="M372.6,293c0,0-0.1,0-0.1,0c-1.1-0.1-2.5-0.9-3.2-2.2c-0.2-0.4-0.3-0.8-0.4-1.1c-0.1-0.4,0.2-0.8,0.6-0.9
					c0.4-0.1,0.8,0.2,0.9,0.6c0,0.2,0.1,0.5,0.2,0.7c0.4,0.8,1.4,1.4,2,1.4c1.7,0.1,4.4-5,6.6-12.3c0.3-1.1,0.6-2.3,0.9-3.5
					c0.1-0.4,0.5-0.7,0.9-0.6c0.4,0.1,0.7,0.5,0.6,0.9c-0.3,1.2-0.6,2.4-0.9,3.6C379.1,284.7,376.1,293,372.6,293z"/>
				<path d="M368.3,290.7c0,0-0.1,0-0.1,0c-0.6,0-1.9-0.4-2.8-1.4c-1.2-1.4-1-3.3-0.9-4.1c0.1-0.4,0.5-0.7,0.9-0.6
					c0.4,0.1,0.7,0.5,0.6,0.9c-0.1,0.4-0.3,1.8,0.5,2.8c0.6,0.7,1.4,0.9,1.7,0.9c0,0,0,0,0.1,0c1.7,0,4.4-5.5,6.8-13.4
					c0.1-0.4,0.5-0.6,0.9-0.5c0.4,0.1,0.6,0.5,0.5,0.9C374.5,282.9,371.5,290.7,368.3,290.7z"/>
				<path d="M363.2,279.7C363.2,279.7,363.2,279.7,363.2,279.7c-0.5,0-0.8-0.4-0.7-0.8l0.3-5.6c-1.1,0.3-2.8,0.5-4.6-0.1
					c-2.4-0.8-3.7-2.4-4.3-3.3c-0.2-0.3-0.1-0.8,0.2-1c0.3-0.2,0.8-0.1,1,0.2c0.4,0.6,1.5,2,3.5,2.7c2.1,0.7,4,0.1,4.7-0.2
					c0.2-0.1,0.5-0.1,0.7,0.1c0.2,0.1,0.3,0.4,0.3,0.7L364,279C363.9,279.4,363.6,279.7,363.2,279.7z"/>
				<path d="M362.6,287.2c-0.1,0-0.2,0-0.3,0c-0.8-0.1-1.3-0.5-1.5-0.6c-2.4-1.7-2.6-5.6-2.7-7.5c-0.1-2.2,0.2-3.1,0.8-3.7
					c0.6-0.7,1.7-1.3,3-1.1c1.1,0.3,1.7,1.1,1.9,1.5c0.2,0.4,0.1,0.8-0.3,1c-0.4,0.2-0.8,0.1-1-0.3c-0.1-0.1-0.4-0.6-0.9-0.7
					c-0.8-0.2-1.5,0.6-1.5,0.6c-0.2,0.2-0.5,0.6-0.4,2.6c0.1,1.6,0.3,5,2,6.3c0.1,0.1,0.4,0.3,0.8,0.3c0.7,0.1,1.4-0.5,1.8-0.8
					c1.1-0.9,3.5-4.7,6.4-11.2c0.2-0.4,0.6-0.6,1-0.4c0.4,0.2,0.6,0.6,0.4,1c-2.6,6-5.2,10.5-6.8,11.8
					C364.8,286.5,363.9,287.2,362.6,287.2z"/>
				<path d="M389.6,300c-1.5,0-2.7-0.8-3.2-1.2c-4-2.8-7.6-13.7-8.3-15.8c-0.1-0.4,0.1-0.8,0.5-0.9c0.4-0.1,0.8,0.1,0.9,0.5
					c1.5,4.6,4.7,12.9,7.7,15c0.6,0.4,1.6,1.1,2.8,0.9c0.7-0.1,1.5-0.6,1.6-1.1c0.3-0.8-1-2-2-3.1c-0.4-0.4-0.8-0.8-1.1-1.2
					c-1.7-1.9-1.9-3.2-4-13.3l-0.4-2.1c0-0.1-0.1-0.5-0.1-1c-0.2-2-0.7-6.5-1.9-9.6c-1-2.6-2.4-4.9-4.3-6.9l0.5-0.6l-0.5,0.5
					l-0.1-0.1c-8.2-8.7-20.3-6.6-20.8-6.5c-0.4,0.1-0.8-0.2-0.9-0.6c-0.1-0.4,0.2-0.8,0.6-0.9c1.4-0.2,13.6-2.1,22.2,7
					c0,0,0.1,0.1,0.1,0.1l0.1,0.1c2,2.1,3.5,4.6,4.6,7.4c1.3,3.2,1.8,8,2,10c0.1,0.5,0.1,0.8,0.1,0.9l0.4,2.1
					c2,10.1,2.2,11,3.6,12.6c0.3,0.4,0.7,0.7,1,1.1c1.4,1.5,2.9,3,2.4,4.6c-0.4,1.2-1.7,1.9-2.8,2.1C390.1,300,389.9,300,389.6,300z
					"/>
				<path d="M389.5,281c-0.8,0-1.8-0.3-2.8-1c-0.5-0.3-0.9-0.6-1.1-0.8c-0.6-0.5-0.9-0.8-1.2-1.1c-0.3-0.3-0.3-0.8,0-1.1
					c0.3-0.3,0.8-0.3,1.1,0c0.2,0.2,0.5,0.5,0.9,0.9c0.3,0.2,0.6,0.5,1.1,0.8c1.1,0.7,1.9,0.9,2.4,0.7c0,0,0.5-0.2,0.8-1
					c0.2-0.5,0.2-3.1-8-12.7l-0.9-1.1c-1.7-2-3.2-3.6-3.9-4.4l-0.1-0.1l-0.1-0.1c-0.3-0.3-0.2-0.8,0.1-1.1c0.3-0.3,0.8-0.2,1.1,0.1
					l0.1,0.1c0.7,0.8,2.2,2.4,3.9,4.4l0.9,1.1c8.4,9.9,8.8,12.9,8.3,14.2c-0.5,1.4-1.5,1.9-1.6,1.9C390.2,280.9,389.9,281,389.5,281
					z"/>
				<path d="M357.3,252.8c-0.1,6.4-0.2,12.7-0.3,19.1c-0.8-0.7-1.5-1.4-2.3-2.1c0.6-5.7,1.3-11.3,1.9-17
					C356.8,252.8,357,252.8,357.3,252.8z"/>
				<path d="M387.1,279.3c-0.5-0.3-0.9-0.6-1.1-0.8c-0.4-0.4-0.8-0.7-1-0.9c0.1,0.7,0.3,1.4,0.4,2.1c-0.3-1.3-0.6-2.7-0.9-4
					c-0.5-2.9-1-5.8-1.6-8.8c-0.2-0.9-0.3-1.8-0.5-2.8c0.3,0.4,0.6,0.7,0.9,1.1L387.1,279.3z"/>
			</g>
			<g id="tshirt">
				<path d="M195.2,325c-3.8,0-6.9-0.9-9.4-2.7c-7.9-5.6-10-20.6-5.9-41c0.1-0.4,0.2-0.8,0.2-1.2c5.3-25.1,20.2-55.8,38.3-66.1
					c2.1-1.2,4.3-2.3,6.6-3.2c0.8-0.3,1.5-0.6,2.3-0.9c11.2-4.3,20.4-4.6,20.8-4.6c1.8-0.1,3.6,0,5.5,0.1c0.8,0,1.6,0.1,2.4,0.2
					c2.8,0.3,5.1,0.7,6.7,1c3.9,0.7,13,2.4,20.3,6.8c15.5,9.4,19.6,29,22.3,42c1.8,8.5,2.5,17.3,2,26.2c8-6,16.4-11.6,24.9-16.7
					c7.8-4.7,15.9-9,24.1-12.8c0.2-0.1,0.5-0.1,0.8,0.1c0.2,0.2,0.3,0.4,0.3,0.7l-4.2,30.3c0,0.2-0.1,0.3-0.2,0.4
					c-5.8,5.5-11.8,10.7-18,15.6c-23.3,18.3-32.3,18.5-35.7,18.5c-1.8,0-3.6,0.1-5.5-0.2c-2.2-0.3-4.3-0.9-6.2-1.8
					c-13.6-6.6-15.8-26.8-17.7-43c-0.9-8.3-1.1-16.8-0.4-25.3c0-0.4,0.4-0.7,0.8-0.7c0.4,0,0.7,0.4,0.7,0.8
					c-0.6,8.3-0.5,16.7,0.4,25c1.8,15.9,4,35.6,16.8,41.9c1.8,0.9,3.7,1.4,5.7,1.7c1.8,0.2,3.6,0.2,5.3,0.2
					c3.2,0,11.8-0.2,34.8-18.2c6-4.8,12-9.9,17.7-15.3l3.9-28.7c-7.7,3.7-15.4,7.8-22.7,12.2c-9,5.3-17.7,11.3-26.1,17.6
					c-0.2,0.2-0.5,0.2-0.8,0.1c-0.3-0.1-0.4-0.4-0.4-0.7c0.6-9.3,0-18.5-1.9-27.4c-2.7-12.7-6.7-31.9-21.7-41
					c-7-4.3-16-5.9-19.8-6.7c-1.1-0.2-3.5-0.7-6.6-1c-0.7-0.1-1.5-0.1-2.4-0.2c-1.8-0.1-3.6-0.2-5.4-0.1c-0.1,0-9.3,0.3-20.3,4.5
					c-0.7,0.3-1.5,0.6-2.2,0.9c-2.2,0.9-4.4,2-6.5,3.2c-17.8,10-32.4,40.3-37.6,65.1c-0.1,0.4-0.2,0.8-0.2,1.2
					c-3.9,19.5-1.9,34.3,5.3,39.5c2.9,2.1,6.8,2.8,11.9,2.2c0.4-0.1,0.8,0.2,0.8,0.7c0.1,0.4-0.2,0.8-0.7,0.8
					C197.5,324.9,196.3,325,195.2,325z"/>
				<path d="M289.4,348.9C289.4,348.9,289.3,348.9,289.4,348.9l-40.3-4.5c-3.8-0.4-7.7-0.9-11.5-1.3l-40.1-4.5
					c-0.4,0-0.7-0.4-0.7-0.8c0.5-7.9,1.2-15.9,2-23.8c2.3-23.3,5.7-46.9,10.1-70c0.1-0.4,0.5-0.7,0.9-0.6c0.4,0.1,0.7,0.5,0.6,0.9
					c-4.4,23-7.8,46.5-10.1,69.8c-0.8,7.6-1.4,15.3-1.9,23l39.4,4.4c3.8,0.4,7.7,0.9,11.5,1.3l39.4,4.4c1.4-9.6,2.9-19.3,4.3-28.8
					l0.3-1.8c0.1-0.4,0.4-0.7,0.9-0.6c0.4,0.1,0.7,0.4,0.6,0.9l-0.3,1.8c-1.4,9.8-2.9,19.7-4.4,29.6
					C290.1,348.6,289.8,348.9,289.4,348.9z"/>
				<path d="M278.3,212.6c-0.2,0-0.4-0.1-0.6-0.2c-0.3-0.3-0.3-0.8,0-1.1l2.6-2.4c-6.7-3.4-13.9-5.7-21.3-6.8
					c-5.4-0.8-11-1-16.5-0.6l1.3,4.8c0.1,0.4-0.1,0.8-0.5,0.9c-0.4,0.1-0.8-0.1-0.9-0.5L241,201c-0.1-0.2,0-0.4,0.1-0.6
					c0.1-0.2,0.3-0.3,0.5-0.3c5.9-0.6,11.9-0.4,17.8,0.5c7.9,1.2,15.5,3.7,22.7,7.4c0.2,0.1,0.4,0.3,0.4,0.6c0,0.2-0.1,0.5-0.2,0.7
					l-3.4,3.1C278.7,212.5,278.5,212.6,278.3,212.6z"/>
				<g id="pattern">
					<path d="M226.6,212.2c-0.5,0.1-1.1-0.2-1.3-0.7c0.8-0.3,1.5-0.6,2.2-0.9c0,0.1,0,0.1,0,0.2
						C227.7,211.5,227.3,212.1,226.6,212.2z"/>
					<path d="M255.9,206.3c0,0.6-0.4,1.2-1,1.3c-0.7,0.1-1.3-0.3-1.4-1c0-0.2,0-0.3,0-0.5C254.4,206.2,255.2,206.2,255.9,206.3z"/>
					<circle cx="214.7" cy="228.2" r="1.2"/>
					<circle cx="243" cy="223.6" r="1.2"/>
					<circle cx="271.3" cy="219" r="1.2"/>
					<circle cx="203.1" cy="246.3" r="1.2"/>
					<circle cx="231.4" cy="241.7" r="1.2"/>
					<circle cx="259.7" cy="237.1" r="1.2"/>
					<circle cx="288" cy="232.5" r="1.2"/>
					<circle cx="191.4" cy="263.5" r="1.2"/>
					<circle cx="219.7" cy="258.9" r="1.2"/>
					<circle cx="248" cy="254.3" r="1.2"/>
					<circle cx="276.3" cy="249.7" r="1.2"/>
					<path d="M180.6,281.5c0.1-0.4,0.2-0.8,0.2-1.2c0,0.1,0,0.1,0,0.2C180.9,280.9,180.8,281.2,180.6,281.5z"/>
					<circle cx="208" cy="276.1" r="1.2"/>
					<circle cx="236.3" cy="271.5" r="1.2"/>
					<circle cx="264.6" cy="266.9" r="1.2"/>
					<circle cx="292.9" cy="262.3" r="1.2"/>
					<circle cx="196.3" cy="293.3" r="1.2"/>
					<circle cx="224.6" cy="288.7" r="1.2"/>
					<circle cx="252.9" cy="284.1" r="1.2"/>
					<circle cx="281.1" cy="279.5" r="1.2"/>
					<circle cx="337.7" cy="270.3" r="1.2"/>
					<circle cx="184.7" cy="311.3" r="1.2"/>
					<circle cx="213" cy="306.7" r="1.2"/>
					<circle cx="241.3" cy="302.1" r="1.2"/>
					<circle cx="269.6" cy="297.5" r="1.2"/>
					<circle cx="297.9" cy="292.9" r="1.2"/>
					<circle cx="326.1" cy="288.3" r="1.2"/>
					<circle cx="201.2" cy="324" r="1.2"/>
					<circle cx="229.5" cy="319.4" r="1.2"/>
					<circle cx="257.8" cy="314.8" r="1.2"/>
					<circle cx="286.1" cy="310.2" r="1.2"/>
					<circle cx="314.4" cy="305.6" r="1.2"/>
					<circle cx="218.9" cy="335.6" r="1.2"/>
					<circle cx="247.2" cy="331" r="1.2"/>
					<circle cx="275.5" cy="326.4" r="1.2"/>
					<circle cx="263.8" cy="343.7" r="1.2"/>
				</g>
			</g>
		</g>
	</g>
</g>
</svg>
