<?xml version="1.0" encoding="utf-8"?>
<!-- Generator: Adobe Illustrator 22.1.0, SVG Export Plug-In . SVG Version: 6.00 Build 0)  -->
<svg version="1.1" xmlns="http://www.w3.org/2000/svg" xmlns:xlink="http://www.w3.org/1999/xlink" x="0px" y="0px"
	 viewBox="0 0 1119.4 935.1" style="enable-background:new 0 0 1119.4 935.1;" xml:space="preserve">
<style type="text/css">
	.st0{fill:#FFD6D3;}
	.st1{fill:#00BE75;}
</style>
<g id="background">
	<g id="background_1_">
		<path d="M992.2,526c-16,0-32.9-12.3-50.2-36.7c-0.2-0.3-0.2-0.8,0.2-1c0.3-0.2,0.8-0.2,1,0.2c17.6,24.7,34.6,36.8,50.6,36
			c13-0.7,21.9-9.5,31.4-18.8c9.4-9.2,19-18.8,33-19.4c15.6-0.8,31.8,9.7,48.2,31.1c0.3,0.3,0.2,0.8-0.1,1.1
			c-0.3,0.3-0.8,0.2-1.1-0.1c-16.1-21-31.8-31.3-46.9-30.5c-13.4,0.7-22.9,10-32.1,19c-9.2,9.1-18.8,18.5-32.3,19.2
			C993.3,526,992.7,526,992.2,526z"/>
		<path d="M98.8,794.5c-13.3,0-27.3-10.2-41.7-30.4c-0.2-0.3-0.2-0.8,0.2-1s0.8-0.2,1,0.2c14.6,20.4,28.6,30.4,41.8,29.7
			c10.7-0.6,18.1-7.8,25.9-15.5c7.8-7.7,15.8-15.6,27.4-16.2c13-0.7,26.4,8,40,25.8c0.3,0.3,0.2,0.8-0.1,1.1
			c-0.3,0.2-0.8,0.2-1.1-0.1c-13.3-17.3-26.3-25.8-38.7-25.2c-11.1,0.5-18.9,8.3-26.4,15.7c-7.6,7.5-15.5,15.3-26.8,16
			C99.7,794.5,99.2,794.5,98.8,794.5z"/>
		<path d="M28.8,292.4c-9.1,0-18.8-7-28.7-20.9c-0.2-0.3-0.2-0.8,0.2-1c0.3-0.2,0.8-0.2,1,0.2c9.9,13.9,19.4,20.7,28.3,20.2
			c7.2-0.4,12.2-5.3,17.5-10.5c5.3-5.3,10.9-10.7,18.9-11.1c8.9-0.4,18.2,5.5,27.5,17.7c0.3,0.3,0.2,0.8-0.1,1.1
			c-0.3,0.3-0.8,0.2-1.1-0.1c-9-11.8-17.8-17.5-26.2-17.1c-7.5,0.4-12.5,5.4-17.9,10.7c-5.3,5.2-10.7,10.5-18.5,10.9
			C29.4,292.4,29.1,292.4,28.8,292.4z"/>
		
			<rect x="129.5" y="524.2" transform="matrix(0.742 0.6704 -0.6704 0.742 394.2959 44.195)" class="st0" width="20.5" height="20.5"/>
		
			<rect x="410.3" y="16.6" transform="matrix(0.742 0.6704 -0.6704 0.742 126.4998 -274.9855)" class="st0" width="20.5" height="20.5"/>
		<path d="M1103.8,637c-0.2,0-0.4-0.1-0.5-0.2l-14.9-14.9c-0.3-0.3-0.3-0.8,0-1.1l14.9-14.9c0.3-0.3,0.8-0.3,1.1,0l14.9,14.9
			c0.3,0.3,0.3,0.8,0,1.1l-14.9,14.9C1104.1,636.9,1103.9,637,1103.8,637z M1089.9,621.3l13.9,13.9l13.9-13.9l-13.9-13.9
			L1089.9,621.3z"/>
		<path d="M1071.4,393.3c-0.1,0-0.2,0-0.3,0c-0.4-0.1-0.6-0.6-0.4-1l8.6-22.6c0.1-0.4,0.6-0.6,1-0.4c0.4,0.1,0.6,0.6,0.4,1
			l-8.6,22.6C1072,393.1,1071.7,393.3,1071.4,393.3z"/>
		<path d="M1088,152.5c-0.2,0-0.4-0.1-0.6-0.3l-16-18.2c-0.3-0.3-0.2-0.8,0.1-1.1s0.8-0.2,1.1,0.1l16,18.2c0.3,0.3,0.2,0.8-0.1,1.1
			C1088.4,152.4,1088.2,152.5,1088,152.5z"/>
		<path d="M55.4,631.1c-0.2,0-0.4-0.1-0.5-0.2l-17.1-17.2c-0.3-0.3-0.3-0.8,0-1.1c0.3-0.3,0.8-0.3,1.1,0l17.1,17.2
			c0.3,0.3,0.3,0.8,0,1.1C55.8,631,55.6,631.1,55.4,631.1z"/>
		<path d="M76.1,423.3c-0.1,0-0.3,0-0.4-0.1l-21.1-12c-0.4-0.2-0.5-0.7-0.3-1s0.7-0.5,1-0.3l21.1,12c0.4,0.2,0.5,0.7,0.3,1
			C76.6,423.2,76.3,423.3,76.1,423.3z"/>
		<path d="M46.9,902.9c-0.2,0-0.3-0.1-0.5-0.2l-18.7-15.4c-0.3-0.3-0.4-0.7-0.1-1.1c0.3-0.3,0.7-0.4,1.1-0.1l18.7,15.4
			c0.3,0.3,0.4,0.7,0.1,1.1C47.3,902.8,47.1,902.9,46.9,902.9z"/>
		<path d="M171.7,370.3c-0.2,0-0.4-0.1-0.5-0.2c-0.3-0.3-0.3-0.8,0-1.1l16.9-17.4c0.3-0.3,0.8-0.3,1.1,0c0.3,0.3,0.3,0.8,0,1.1
			L172.2,370C172.1,370.2,171.9,370.3,171.7,370.3z"/>
		<path d="M162,207.2c-0.2,0-0.4-0.1-0.6-0.3l-14.8-19.1c-0.3-0.3-0.2-0.8,0.1-1.1c0.3-0.3,0.8-0.2,1.1,0.1l14.8,19.1
			c0.3,0.3,0.2,0.8-0.1,1.1C162.3,207.1,162.2,207.2,162,207.2z"/>
		<path d="M66.4,94.6c-0.2,0-0.5-0.1-0.6-0.3c-0.2-0.3-0.2-0.8,0.1-1.1l19.3-14.6c0.3-0.2,0.8-0.2,1.1,0.1c0.2,0.3,0.2,0.8-0.1,1.1
			L66.9,94.5C66.7,94.6,66.6,94.6,66.4,94.6z"/>
		<path d="M192.1,99.1c-0.1,0-0.1,0-0.2,0c-0.4-0.1-0.6-0.5-0.5-0.9l6-23.5c0.1-0.4,0.5-0.6,0.9-0.5c0.4,0.1,0.6,0.5,0.5,0.9
			l-6,23.5C192.7,98.8,192.4,99.1,192.1,99.1z"/>
		<path d="M326.5,39.4c-0.3,0-0.5-0.1-0.6-0.4l-12.7-20.6c-0.2-0.4-0.1-0.8,0.2-1c0.4-0.2,0.8-0.1,1,0.2l12.7,20.6
			c0.2,0.4,0.1,0.8-0.2,1C326.8,39.3,326.7,39.4,326.5,39.4z"/>
		<path d="M534.9,47.8c-0.2,0-0.3,0-0.5-0.2c-0.3-0.2-0.4-0.7-0.1-1.1l14.6-19.4c0.2-0.3,0.7-0.4,1.1-0.1s0.4,0.7,0.1,1.1
			l-14.6,19.4C535.4,47.7,535.1,47.8,534.9,47.8z"/>
		<path d="M663.3,42.3c-0.2,0-0.4-0.1-0.6-0.2l-16.3-17.9c-0.3-0.3-0.3-0.8,0-1.1c0.3-0.3,0.8-0.3,1.1,0L663.9,41
			c0.3,0.3,0.3,0.8,0,1.1C663.7,42.2,663.5,42.3,663.3,42.3z"/>
		<path d="M183.3,8.3c-0.1,0-0.1,0-0.2,0l-23.3-6.8c-0.4-0.1-0.6-0.5-0.5-0.9c0.1-0.4,0.5-0.6,0.9-0.5l23.3,6.8
			c0.4,0.1,0.6,0.5,0.5,0.9C183.9,8.1,183.6,8.3,183.3,8.3z"/>
		<path d="M895.5,42.4c-0.2,0-0.4-0.1-0.5-0.2c-0.3-0.3-0.3-0.7-0.1-1.1L911.1,23c0.3-0.3,0.7-0.3,1.1-0.1c0.3,0.3,0.3,0.7,0.1,1.1
			l-16.1,18.1C896,42.3,895.7,42.4,895.5,42.4z"/>
		<path d="M795.5,28c-0.3,0-0.6-0.2-0.7-0.5c-0.1-0.4,0.1-0.8,0.5-0.9l23.1-7.3c0.4-0.1,0.8,0.1,0.9,0.5c0.1,0.4-0.1,0.8-0.5,0.9
			L795.7,28C795.6,28,795.6,28,795.5,28z"/>
		<path d="M201.3,904.2c-0.2,0-0.4-0.1-0.5-0.2c-0.3-0.3-0.3-0.8-0.1-1.1l16.2-18c0.3-0.3,0.8-0.3,1.1-0.1c0.3,0.3,0.3,0.8,0.1,1.1
			l-16.2,18C201.7,904.1,201.5,904.2,201.3,904.2z"/>
		<path d="M942.6,373.9c-0.2,0-0.5-0.1-0.6-0.3l-14.5-19.4c-0.2-0.3-0.2-0.8,0.2-1c0.3-0.2,0.8-0.2,1,0.2l14.5,19.4
			c0.2,0.3,0.2,0.8-0.2,1C942.9,373.8,942.7,373.9,942.6,373.9z"/>
		<path d="M1041.9,268.3c-0.3,0-0.6-0.2-0.7-0.5c-0.1-0.4,0-0.8,0.4-1l22.6-8.6c0.4-0.1,0.8,0,1,0.4c0.1,0.4,0,0.8-0.4,1l-22.6,8.6
			C1042.1,268.3,1042,268.3,1041.9,268.3z"/>
		<path d="M977.6,142.8c-0.2,0-0.4-0.1-0.6-0.3l-15.5-18.6c-0.3-0.3-0.2-0.8,0.1-1.1c0.3-0.3,0.8-0.2,1.1,0.1l15.5,18.6
			c0.3,0.3,0.2,0.8-0.1,1.1C978,142.7,977.8,142.8,977.6,142.8z"/>
		<path d="M1020.7,62.2c-0.3,0-0.6-0.2-0.7-0.5c-0.2-0.4,0-0.8,0.4-1l22.4-9.3c0.4-0.2,0.8,0,1,0.4c0.2,0.4,0,0.8-0.4,1l-22.4,9.3
			C1020.9,62.2,1020.8,62.2,1020.7,62.2z"/>
		<path d="M978.6,639.4c-0.2,0-0.4-0.1-0.5-0.2l-17.5-16.7c-0.3-0.3-0.3-0.8,0-1.1c0.3-0.3,0.8-0.3,1.1,0l17.5,16.7
			c0.3,0.3,0.3,0.8,0,1.1C979,639.3,978.8,639.4,978.6,639.4z"/>
		<path d="M352.8,839.8c-0.1,0-0.3,0-0.4-0.1l-20.1-13.5c-0.3-0.2-0.4-0.7-0.2-1c0.2-0.3,0.7-0.4,1-0.2l20.1,13.5
			c0.3,0.2,0.4,0.7,0.2,1C353.2,839.6,353,839.8,352.8,839.8z"/>
		<path d="M461.3,878c-0.1,0-0.2,0-0.3-0.1c-0.4-0.2-0.5-0.6-0.4-1l10.3-21.9c0.2-0.4,0.6-0.5,1-0.4c0.4,0.2,0.5,0.6,0.4,1
			L462,877.6C461.8,877.8,461.6,878,461.3,878z"/>
		<path d="M954.1,914.9c-0.2,0-0.3-0.1-0.5-0.2l-18.7-15.4c-0.3-0.3-0.4-0.7-0.1-1.1c0.3-0.3,0.7-0.4,1.1-0.1l18.7,15.4
			c0.3,0.3,0.4,0.7,0.1,1.1C954.5,914.8,954.3,914.9,954.1,914.9z"/>
		<path d="M1064.5,738.5c-0.1,0-0.3,0-0.4-0.1c-0.3-0.2-0.4-0.7-0.2-1l13.7-20c0.2-0.3,0.7-0.4,1-0.2c0.3,0.2,0.4,0.7,0.2,1
			l-13.7,20C1065,738.4,1064.8,738.5,1064.5,738.5z"/>
		<circle class="st0" cx="943.3" cy="762" r="11.4"/>
		<circle class="st0" cx="342.7" cy="902.1" r="12"/>
		<circle class="st0" cx="46.9" cy="177.5" r="6"/>
		<circle class="st0" cx="964.6" cy="226.5" r="19.4"/>
		<path d="M171.7,673.5c-2.2,0-4.4-0.8-6.1-2.3c-1.9-1.6-3-3.9-3.2-6.3l0,0c-0.3-5.1,3.5-9.5,8.6-9.9c2.5-0.2,4.9,0.6,6.7,2.3
			c1.9,1.6,3,3.9,3.2,6.3c0.2,2.5-0.6,4.9-2.3,6.7s-3.9,3-6.3,3.2C172.1,673.5,171.9,673.5,171.7,673.5z M163.9,664.8
			c0.1,2.1,1.1,4,2.6,5.3c1.6,1.4,3.6,2,5.6,1.9c2.1-0.1,4-1.1,5.3-2.6c1.4-1.6,2-3.6,1.9-5.6c-0.1-2.1-1.1-4-2.6-5.3
			c-1.6-1.4-3.6-2-5.6-1.9C166.9,656.8,163.6,660.5,163.9,664.8L163.9,664.8z"/>
		<path d="M728.9,62.2c-1,0-2-0.3-2.9-0.8l0,0c-1.2-0.8-2-2-2.3-3.3c-0.3-1.4-0.1-2.8,0.7-4c1.6-2.5,4.9-3.2,7.4-1.6
			c1.2,0.8,2,2,2.3,3.3s0.1,2.8-0.7,4C732.4,61.3,730.6,62.2,728.9,62.2z M726.8,60.1c1.8,1.1,4.2,0.6,5.3-1.2
			c0.6-0.9,0.7-1.9,0.5-2.9c-0.2-1-0.8-1.9-1.7-2.4c-1.8-1.1-4.2-0.6-5.3,1.2c-0.6,0.9-0.7,1.9-0.5,2.9
			C725.3,58.7,725.9,59.5,726.8,60.1L726.8,60.1z"/>
		<path d="M1063,892.8c-1.1,0-2.2-0.3-3.2-0.9c-2.8-1.8-3.6-5.5-1.9-8.3c1.8-2.8,5.5-3.6,8.3-1.9c1.4,0.9,2.3,2.2,2.7,3.8
			c0.4,1.6,0.1,3.2-0.8,4.5c-0.9,1.4-2.2,2.3-3.8,2.7C1063.8,892.7,1063.4,892.8,1063,892.8z M1063,882.2c-0.3,0-0.7,0-1,0.1
			c-1.2,0.3-2.2,1-2.8,2l0,0c-1.3,2.1-0.7,4.9,1.4,6.3c1,0.6,2.2,0.9,3.4,0.6c1.2-0.3,2.2-1,2.8-2c1.3-2.1,0.7-4.9-1.4-6.3
			C1064.7,882.4,1063.8,882.2,1063,882.2z M1058.5,883.9L1058.5,883.9L1058.5,883.9z"/>
	</g>
</g>
<g id="general_1_">
	<g id="general">
		<g id="window1">
			<path d="M885.9,333.8H247.8c-0.4,0-0.8-0.3-0.8-0.8v-46.6c0-0.4,0.3-0.8,0.8-0.8h638.1c0.4,0,0.8,0.3,0.8,0.8V333
				C886.7,333.4,886.3,333.8,885.9,333.8z M248.6,332.3h636.6v-45.1H248.6V332.3z"/>
			<path d="M885.9,333.8H247.8c-0.4,0-0.8-0.3-0.8-0.8V86.6c0-0.4,0.3-0.8,0.8-0.8h638.1c0.4,0,0.8,0.3,0.8,0.8V333
				C886.7,333.4,886.3,333.8,885.9,333.8z M248.6,332.3h636.6v-245H248.6V332.3z"/>
		</g>
		<path d="M885.9,491.5H523c-0.4,0-0.8-0.3-0.8-0.8V363.5c0-0.4,0.3-0.8,0.8-0.8h363c0.4,0,0.8,0.3,0.8,0.8v127.3
			C886.7,491.2,886.3,491.5,885.9,491.5z M523.7,490h361.5V364.2H523.7V490z"/>
		<rect id="window4" x="523" y="521.2" class="st1" width="363" height="413.1"/>
		<path d="M488,785.5H247.8c-0.4,0-0.8-0.3-0.8-0.8V360.8c0-0.4,0.3-0.8,0.8-0.8H488c0.4,0,0.8,0.3,0.8,0.8v423.9
			C488.8,785.1,488.4,785.5,488,785.5z M248.6,784h238.7V361.6H248.6V784z"/>
		<circle id="circle" class="st1" cx="360.3" cy="217.9" r="92.8"/>
		<g id="hand">
			<path d="M666.3,180.3c-0.2,0-0.4-0.1-0.5-0.2c-8.8-9.2-25-26.6-34.9-39.6c-2.4-3.2-7.4-9.7-5.1-14.4c0.9-1.8,2.6-3.1,4.5-3.4
				c4.3-0.6,8,4.1,10.7,7.5l0.3,0.4c3.7,4.7,7.8,9.5,12.4,14.3c-2-2.9-3.6-5.5-4.3-6.5c-2.1-3.2-3.9-5.9-5.5-8.2
				c-5.7-8.4-8.1-11.9-6.6-15.7c0.9-2.3,3.1-4.1,5.2-4.4c4.6-0.7,8.5,5.1,14.3,13.8l0.5,0.7c5,7.5,10.3,15.2,15.7,23
				c0.2,0.3,0.2,0.8-0.2,1c-0.3,0.2-0.8,0.2-1-0.2c-5.4-7.8-10.7-15.5-15.7-23l-0.5-0.7c-5.3-7.9-9.1-13.7-12.8-13.1
				c-1.6,0.2-3.3,1.7-4,3.5c-1.2,3,1,6.3,6.4,14.3c1.6,2.3,3.4,5,5.5,8.2c0.7,1.1,2.5,3.9,4.6,7c1.6,2.4,3.2,4.7,4.6,6.7
				c0,0,0,0,0,0l0.3,0.4c3.7,4.4,3.8,4.5,3.7,5.1c0,0.2-0.1,0.4-0.3,0.5c-0.7,0.5-0.9,0.6-4.8-5c0,0,0,0-0.1-0.1
				c-7-6.9-13.2-13.8-18.5-20.6l-0.3-0.4c-2.3-3-5.8-7.5-9.3-7c-1.4,0.2-2.8,1.2-3.4,2.5c-1.9,3.9,2.9,10.2,4.9,12.9
				c9.9,13,26,30.3,34.8,39.5c0.3,0.3,0.3,0.8,0,1.1C666.7,180.2,666.5,180.3,666.3,180.3z"/>
			<path d="M712.4,178.2c-0.3,0-0.6-0.2-0.7-0.5c0-0.1-0.1-0.4-0.3-0.8c-0.3-0.7-0.7-1.8-1.3-3.2c-2.4-6.2-7.2-17.9-10.1-24.6
				c-3-6.8-6-13.1-7.6-16.2l-0.4-0.8c-0.4-0.8-0.7-1.4-2-4.3l-1.4-3.1c-4.3-9.5-6.5-14.3-9.6-14.5c-1.4-0.1-3,0.8-3.9,2
				c-1.6,2.3-0.2,5.7,2.4,11.9c0.7,1.7,1.4,3.5,2.2,5.6c1.7,4.5,3.4,9.2,4.8,14c0.1,0.4-0.1,0.8-0.4,0.9c-0.3,0.2-0.8,0-0.9-0.3
				c-4.7-7.9-9-15.7-12.9-23.2l-0.5-0.9c-3.3-6.3-6.1-11.7-9.7-11.7c-1.4,0-2.8,0.7-3.6,1.8c-1.9,2.7,0.7,8,5.8,17.7
				c3.3,6.3,6.7,12.6,10.1,18.7c0.2,0.4,0.1,0.8-0.3,1c-0.4,0.2-0.8,0.1-1-0.3c-3.4-6.2-6.8-12.5-10.2-18.7
				c-5.6-10.5-8.2-15.8-5.8-19.2c1.1-1.5,3-2.5,4.8-2.5c4.5,0,7.6,5.8,11.1,12.5l0.5,0.9c2.9,5.5,6,11.2,9.3,17
				c-0.8-2.5-1.7-4.9-2.6-7.2c-0.8-2.1-1.6-3.9-2.2-5.5c-2.8-6.7-4.3-10.4-2.2-13.4c1.2-1.7,3.3-2.7,5.2-2.6
				c4.1,0.2,6.2,4.9,10.9,15.3l1.4,3.1c1.3,2.8,1.6,3.4,2,4.2l0.4,0.7c1.6,3.2,4.7,9.6,7.6,16.3c3,6.8,7.7,18.5,10.1,24.7
				c0.6,1.4,1,2.5,1.3,3.2c0.2,0.4,0.3,0.7,0.3,0.8c0.1,0.4-0.1,0.8-0.5,1C712.6,178.2,712.5,178.2,712.4,178.2z"/>
			<path d="M661.6,197.6c-0.2,0-0.4-0.1-0.5-0.2c-0.3-0.3-0.6-0.6-0.9-0.9c-0.2-0.1-0.3-0.3-0.5-0.4c-4.3-4-8.9-7.3-13.7-9.8
				c-1.5-0.8-2.9-1.5-4.3-2.1c-4.6-2.2-8.3-3.9-9.2-7.7c-0.6-2.5,0.1-5.3,1.8-6.8c3.2-2.9,9-1,15.7,1.3c4.3,1.5,7.6,3.2,10.3,4.5
				c2.2,1.1,4.4,2.3,6.5,3.6c1.1-1,2.3-2,3.5-2.9c1.4-1,3.8-2.4,6.8-3.3c3.7-1.2,7.6-1.5,11.5-1c0.4,0.1,0.7,0.4,0.7,0.8
				c-0.1,0.4-0.4,0.7-0.8,0.7c-3.7-0.5-7.4-0.1-10.9,1c-2.9,0.9-5.1,2.2-6.4,3.1c-1.4,0.9-2.6,2-3.7,3.1c-0.2,0.2-0.6,0.3-0.9,0.1
				c-2.2-1.3-4.5-2.6-6.9-3.8c-2.7-1.4-6-3-10.1-4.4c-6.3-2.1-11.7-4-14.2-1.6c-1.4,1.3-1.7,3.7-1.3,5.4c0.7,3.1,3.9,4.6,8.4,6.7
				c1.4,0.7,2.8,1.4,4.4,2.2c5,2.6,9.7,6,14,10.1c0.2,0.1,0.3,0.3,0.5,0.5c0.3,0.3,0.6,0.6,1,0.9c0.3,0.3,0.3,0.8,0,1.1
				C662,197.5,661.8,197.6,661.6,197.6z"/>
			<path d="M661.9,160.3c-0.1,0-0.2,0-0.3-0.1c-0.4-0.2-0.5-0.6-0.4-1c1.9-4,4.6-7.4,7.9-10c8.3-6.4,17.8-5.8,21.5-5.3
				c0.4,0.1,0.7,0.4,0.6,0.9c-0.1,0.4-0.4,0.7-0.9,0.6c-3.5-0.5-12.5-1-20.4,5c-3.2,2.4-5.8,5.7-7.5,9.5
				C662.5,160.2,662.2,160.3,661.9,160.3z"/>
			<path d="M712.1,176.7c-16.8,6.7-33.6,13.4-50.5,20.1c-0.3-0.3-0.6-0.6-1-0.9c16.7-7.5,33.4-15,50.2-22.5
				C711.4,174.9,711.8,176,712.1,176.7z"/>
		</g>
		<g id="head">
			<path id="hair" d="M395.1,200.3c-0.6,3,0.2,6.1,0.4,6.5c0.5,1.8,1.2,3.1,1.8,4c-1.9-0.3-3.9-0.6-5.8-0.8
				c-7.8-6.8-15.7-13.6-23.5-20.4c-12.6,9.1-25.2,18.2-37.8,27.4c-1.2-3-7.8-20.4,1-38.3c11.8-24.1,40-25.7,41.2-25.7
				c24.1-0.9,43.5,17.1,50.4,36.2c5.4,14.9,2.6,28.4,1,34.2c-2.2-3.4-4.4-6.7-6.7-10.1c3.8-3.9,5-9.6,3.2-14.4
				c-2.2-5.8-8.3-9.3-14.3-8.4C400.3,191.3,396,195.8,395.1,200.3z"/>
			<g id="face">
				<path d="M390.2,264c-0.3,0-0.6-0.2-0.7-0.4l-2.7-5.7c-2.3,1.2-4.7,2.1-7.1,2.6c-2.3,0.5-4.7,0.8-6.9,0.7
					c-16.6-0.6-27.8-17.2-32.6-24.3c-6.2-9.2-10.1-20.7-10.1-20.8c-0.1-0.4,0.1-0.9,0.5-1c0.4-0.1,0.8,0,0.9,0.4c0,0,0,0.1,0,0.1
					c0,0.1,3.9,11.4,9.9,20.5c4.7,6.9,15.5,23.1,31.4,23.6c2.2,0.1,4.4-0.1,6.6-0.7c2.4-0.6,4.9-1.5,7.3-2.8l0.1,0
					c0.2-0.1,0.4-0.1,0.6-0.1c0.2,0.1,0.4,0.2,0.5,0.4l3,6.4c0.2,0.4,0,0.8-0.4,1C390.4,263.9,390.3,264,390.2,264z"/>
				<path d="M432.7,236.7c-0.2,0-0.5-0.1-0.6-0.3l-3.4-5.3c-2.9-4.5-5.8-9.1-8.7-13.6c-0.2-0.3-0.1-0.8,0.2-1c0.3-0.2,0.8-0.1,1,0.2
					c2.9,4.5,5.8,9.1,8.7,13.6l3.4,5.3c0.2,0.3,0.1,0.8-0.2,1C433,236.6,432.9,236.7,432.7,236.7z"/>
				<path d="M390.2,263.2l10.4-6.7c0.1-0.2,0.2-0.3,0.3-0.5c4.2-8.1,5.8-15.5,6.4-20.5c-2.2,4.3-6.2,10.6-13.1,16
					c-2.6,2.1-5.2,3.6-7.5,4.8c0.1,0.2,0.2,0.4,0.3,0.6C388,259,389.1,261.1,390.2,263.2L390.2,263.2z"/>
			</g>
		</g>
		<g id="tshirt">
			<g>
				<path d="M488,360.8V565c-6.5,2.1-13.1,4.1-19.6,6.2c-2.6,0.8-5.3,1.7-7.9,2.5c-1.8,0.6-8.1,2.5-10,3.2
					c-0.6,0.2-17.1,5.4-17.9,5.6c-3.5-19.9-15.2-120.1-16.6-146.7c-5.1,25.1-14.6,43.1-21.6,54.2c-9.4,14.8-16.6,26.1-30.4,32
					c-4.3,1.9-16.3,6.2-53.7-3.8c-15.9-4.2-37.7-11.4-62.5-24.2c0-24.6,0-49.2,0-73.8c13.3,6.5,28.9,13,46.7,18.7
					c13.4,4.2,26,7.3,37.5,9.6c2.7-10.8,5.8-21.9,9.1-33.2c5.7-19.2,11.8-37.4,18.1-54.5H488z"/>
				<path d="M432.6,583.3c-0.1,0-0.3,0-0.4-0.1c-0.2-0.1-0.3-0.3-0.3-0.5c-3.2-18-13.9-108.3-16.2-141.4
					c-4.2,17.8-11.1,34.3-20.5,49.2c-9.3,14.7-16.7,26.3-30.7,32.3c-3.8,1.6-15.4,6.6-54.2-3.8c-21.4-5.7-42.5-13.9-62.7-24.2
					c-0.3-0.1-0.4-0.4-0.4-0.7v-73.8c0-0.3,0.1-0.5,0.4-0.6c0.2-0.1,0.5-0.2,0.7,0c15,7.3,30.7,13.6,46.6,18.6
					c12,3.8,24.4,7,36.8,9.4c2.8-10.9,5.8-21.8,9-32.6c5.4-18.3,11.5-36.6,18.1-54.5c0.1-0.3,0.4-0.5,0.7-0.5H488
					c0.4,0,0.8,0.3,0.8,0.8V565c0,0.3-0.2,0.6-0.5,0.7l-55.5,17.5C432.7,583.3,432.6,583.3,432.6,583.3z M416,435.1
					C416,435.1,416,435.1,416,435.1c0.4,0,0.7,0.3,0.7,0.7c1.4,26.8,12.9,124.7,16.4,145.7l54.1-17.1V361.6H359.8
					c-6.5,17.7-12.5,35.9-17.9,54c-3.2,11-6.3,22.1-9.1,33.2c-0.1,0.4-0.5,0.6-0.9,0.6c-12.7-2.5-25.3-5.7-37.6-9.6
					c-15.6-4.9-31-11.1-45.7-18.2v72.1c20,10.2,40.8,18.2,62,23.9c38.3,10.2,49.5,5.4,53.2,3.8c13.6-5.8,20.5-16.7,30-31.7
					c10.3-16.2,17.5-34.3,21.5-53.9C415.3,435.4,415.6,435.1,416,435.1z"/>
			</g>
			<g>
				<path d="M523,521.2h104.1c-0.1,0-0.2,0.1-0.3,0.1c-11.6,3.7-23.3,7.3-34.9,11c-2.2,0.7-4.5,1.4-6.7,2.1
					c-13.9,4.4-27.7,8.7-41.6,13.1c-6.9,2.2-13.8,4.3-20.6,6.5V521.2z"/>
				<path d="M523,554.8c-0.2,0-0.3,0-0.4-0.1c-0.2-0.1-0.3-0.4-0.3-0.6v-32.8c0-0.4,0.3-0.8,0.8-0.8h104.1c0.4,0,0.7,0.3,0.7,0.6
					s-0.2,0.7-0.5,0.8L627,522c-11.6,3.7-23.3,7.3-34.9,11c-2.2,0.7-4.3,1.4-6.5,2l-0.2,0.1c-13.9,4.4-27.7,8.7-41.6,13.1l-20.6,6.5
					C523.1,554.8,523,554.8,523,554.8z M523.7,522v31l19.7-6.2c13.9-4.4,27.7-8.7,41.6-13.1l0.2-0.1c2.2-0.7,4.3-1.4,6.5-2
					c10.2-3.2,20.4-6.4,30.6-9.6H523.7z"/>
			</g>
			<g>
				<path d="M600.9,363.5c21.5,42.4,43.1,84.8,64.6,127.3H523V363.5H600.9z"/>
				<path d="M665.5,491.5H523c-0.4,0-0.8-0.3-0.8-0.8V363.5c0-0.4,0.3-0.8,0.8-0.8h77.9c0.3,0,0.5,0.2,0.7,0.4l64.6,127.3
					c0.1,0.2,0.1,0.5,0,0.7C666,491.4,665.8,491.5,665.5,491.5z M523.7,490h140.6l-63.9-125.8h-76.7V490z"/>
			</g>
			<g>
				<path d="M779.5,333H364.4c2-7.7,4.4-15.5,7.6-23.1c3.3-8.1,7.4-16,12.3-23.5c2-3.1,4.2-6.1,6.6-9c-1.3-1.4-8-7.1-9.6-8.2
					c17.2-11.1,34.3-22.2,51.5-33.3c2.1-1.4,4.2-2.8,6.3-4.1c1.2,3.3,2.4,6.7,3.6,10c2.7-0.9,5.4-1.7,8-2.4
					c7.9-2.2,15.2-3.5,21.3-4.5c78.5-13.4,151.2,22.7,195.1,51.6c15.7,10.4,27.8,19.8,35,25.7c-3.7-8.6-7.5-17.1-11.2-25.7
					c-12.5-28.7-25-57.5-37.5-86.2c2.8-1.1,5.5-2.2,8.3-3.4c16.7-6.8,33.5-13.5,50.2-20.3c0,0.1,0.1,0.1,0.1,0.2
					c0.1,0.2,0.3,0.5,0.4,0.7c12.1,20,27.4,48.1,41.3,83.2c3.5,8.8,6.9,17.4,10,25.7C770.2,303.3,775.8,319,779.5,333z"/>
				<path d="M779.5,333.8H364.4c-0.2,0-0.4-0.1-0.6-0.3c-0.1-0.2-0.2-0.4-0.1-0.6c2.1-8.2,4.6-16,7.6-23.2
					c3.5-8.5,7.7-16.5,12.4-23.6c2-3,4-5.8,6.2-8.5c-2-1.9-7.6-6.7-9.1-7.6c-0.2-0.1-0.3-0.4-0.3-0.6c0-0.2,0.1-0.5,0.3-0.6
					l51.5-33.3l6.2-4.1c0.2-0.1,0.4-0.2,0.6-0.1c0.2,0.1,0.4,0.2,0.5,0.5l3.4,9.3c2.4-0.8,4.9-1.6,7.3-2.2
					c7.8-2.1,15.1-3.4,21.3-4.5c76.9-13.1,148.9,20.9,195.7,51.7c11.3,7.4,22,15.3,32.7,23.8l-47.5-109.1c-0.1-0.2-0.1-0.4,0-0.6
					c0.1-0.2,0.2-0.3,0.4-0.4l58.5-23.6c0.3-0.1,0.7,0,0.9,0.3c0.1,0.1,0.1,0.2,0.1,0.2l0.1,0.1c0.1,0.2,0.2,0.4,0.3,0.5
					c16.1,26.6,30,54.6,41.4,83.3l0.3,0.8c3.4,8.7,6.6,16.9,9.7,24.9c7.7,20.1,12.6,34.5,15.8,46.7c0.1,0.2,0,0.5-0.1,0.6
					C780,333.7,779.7,333.8,779.5,333.8z M365.4,332.3h413.1c-3.2-11.9-8-26.1-15.5-45.6c-3.1-8-6.3-16.2-9.7-24.9L753,261
					c-11.3-28.6-25.2-56.6-41.3-83.1c-0.1-0.1-0.1-0.2-0.2-0.4l-57.2,23.1l48.4,111.2c0.1,0.3,0,0.7-0.2,0.9c-0.3,0.2-0.7,0.2-0.9,0
					c-11.4-9.3-22.9-17.7-35-25.7C620,256.4,548.4,222.5,472,235.6c-6.2,1.1-13.4,2.4-21.2,4.5c-2.6,0.7-5.3,1.5-7.9,2.4
					c-0.4,0.1-0.8-0.1-0.9-0.5l-3.3-9.1l-5.5,3.6l-50.6,32.7c2.4,1.9,7.7,6.4,8.9,7.6c0.3,0.3,0.3,0.7,0,1c-2.3,2.8-4.5,5.8-6.5,8.9
					c-4.7,7.1-8.8,14.9-12.3,23.3C369.9,317.1,367.4,324.5,365.4,332.3z M711.9,176.6L711.9,176.6L711.9,176.6L711.9,176.6z"/>
			</g>
			<g>
				<path d="M784.1,363.5c-0.1,10.1-2.6,18.4-8.3,24.5c-22.7,24.1-87.2,2.7-122.5-9.1c-14.5-4.8-27.2-10.2-37.9-15.4H784.1z"/>
				<path d="M742.1,399.7c-28.8,0-65.6-12.3-88.9-20.1c-13-4.3-25.7-9.5-38-15.4c-0.3-0.2-0.5-0.5-0.4-0.8c0.1-0.3,0.4-0.6,0.7-0.6
					h168.7c0.2,0,0.4,0.1,0.5,0.2c0.1,0.1,0.2,0.3,0.2,0.5c-0.1,10.9-2.9,19-8.5,25C768.7,396.7,756.4,399.7,742.1,399.7z
					 M618.8,364.2c11.3,5.3,23,9.9,34.8,13.9c34.7,11.6,99.2,33.2,121.7,9.3c5.2-5.5,7.8-13.1,8-23.2H618.8z"/>
			</g>
		</g>
		<g id="legs">
			<g>
				<path d="M678.8,935.1c-0.2,0-0.4-0.1-0.6-0.3l-97.7-111.1c-8.4-9.6-16.9-19.2-25.3-28.8c-0.1-0.1-0.2-0.3-0.2-0.5
					c-0.1-4-0.2-8.1-0.2-12.8c-0.2-13.8-0.2-27.8,0-41.6c0.2-10.8,0.5-22,1-33.2c0.1-2.8,0.2-5.6,0.4-8.4
					c0.7-13.9,1.6-27.9,2.7-41.7c1-11.9,2.1-23.9,3.4-35.7c0-0.3,0.3-0.6,0.7-0.7c0.4,0,0.7,0.2,0.8,0.5c4.1,12,8.6,24,13.4,35.6
					c2.8,6.7,5.7,13.4,8.7,19.9c0.4,0.9,0.8,1.8,1.2,2.7c2.8,6.1,5.8,12.6,8.9,18.9c8.1,17,14.8,29.8,21.6,41.5
					c3.3,5.7,6.6,10.9,9.8,15.8c6.2,9.3,12.7,17.9,19.3,25.6c7,8,14.4,15.4,22.1,21.9c1,0.8,2,1.7,3,2.5c7.8,6.3,15,11.1,29.1,16.9
					c2.8,1.2,5.9,2.4,9.2,3.6c10,3.8,22.8,8.1,41.5,14c10.7,3.4,23.7,7.4,40.8,12.6l0.8,0.2c11.9,3.6,24,7.3,36.8,11.1l4.8,1.4
					c14.4,4.3,28.3,8.4,41.6,12.3l9.8,2.9c0.4,0.1,0.6,0.5,0.5,0.9c-0.1,0.4-0.5,0.6-0.9,0.5l-9.8-2.9c-13.2-3.9-27.2-8-41.6-12.3
					l-4.8-1.4c-12.8-3.8-24.8-7.5-36.8-11.1l-0.8-0.2c-17.1-5.2-30.1-9.2-40.8-12.6c-18.7-5.9-31.6-10.3-41.6-14
					c-3.3-1.3-6.4-2.5-9.3-3.7c-14.2-5.9-21.5-10.7-29.4-17.1c-1-0.8-2.1-1.7-3.1-2.5c-7.8-6.6-15.3-14-22.3-22.1
					c-6.7-7.7-13.2-16.4-19.4-25.8c-3.3-5-6.5-10.2-9.9-15.9c-6.9-11.7-13.5-24.6-21.7-41.6c-3-6.4-6-12.9-8.9-18.9
					c-0.4-0.9-0.8-1.8-1.2-2.7c-3-6.5-5.9-13.2-8.7-20c-4.4-10.7-8.5-21.6-12.3-32.5c-1.1,10.7-2.2,21.6-3,32.3
					c-1.1,13.8-2,27.7-2.7,41.5c-0.1,2.8-0.3,5.6-0.4,8.4c-0.5,11.2-0.8,22.3-1,33.1c-0.2,13.7-0.3,27.7,0,41.5
					c0.1,4.5,0.1,8.6,0.2,12.5c8.4,9.5,16.8,19.1,25.1,28.6l97.7,111.1c0.3,0.3,0.2,0.8-0.1,1.1C679.2,935.1,679,935.1,678.8,935.1z
					"/>
				<path d="M885.9,791c-0.1,0-0.2,0-0.3-0.1c-2.4-1-4.8-2.1-7.1-3.1l-44.2-19.5c-13.9-6.1-27.7-12.2-41.6-18.3
					c-6.9-3-13.8-6.1-20.7-9.1l-1.2-0.5c-6.6-2.9-13.1-5.8-19.7-8.7l-13.3-5.9c-0.2-0.1-0.3-0.2-0.4-0.4L690.7,614
					c-5.6-13.3-11.1-26.5-16.7-39.8l-22.1-52.7c-0.2-0.4,0-0.8,0.4-1c0.4-0.2,0.8,0,1,0.4l22.1,52.7c5.6,13.3,11.1,26.5,16.7,39.8
					l46.6,111.1l13,5.7c6.6,2.9,13.1,5.8,19.7,8.7l1.2,0.5c6.9,3,13.8,6.1,20.7,9.1c13.9,6.1,27.7,12.2,41.6,18.3l44.2,19.5
					c2.4,1,4.7,2.1,7.1,3.1c0.4,0.2,0.6,0.6,0.4,1C886.5,790.8,886.2,791,885.9,791z"/>
				<path d="M446.4,785.5c-0.4,0-0.7-0.3-0.7-0.7c-0.1-1-0.2-2-0.3-3c-1-12.6-1.4-26.2-1.2-41.6c0.2-14.8,1-28.7,1.8-41.6
					c0.1-2.5,0.3-4.9,0.4-7.1l0.1-0.8c0.7-11.6,1.2-22.5,1.7-33.6c0.6-13.8,1-27.8,1.2-41.6c0.2-12.4,0.4-25.4,0.4-38.5
					c0-0.4,0.3-0.8,0.8-0.8h0c0.4,0,0.8,0.3,0.7,0.8c0,13.1-0.1,26.1-0.4,38.6c-0.3,13.8-0.7,27.8-1.2,41.6c-0.4,11-1,22-1.7,33.6
					l-0.1,0.8c-0.1,2.3-0.3,4.7-0.4,7.1c-0.8,12.9-1.5,26.8-1.8,41.5c-0.2,15.3,0.2,28.9,1.2,41.5c0.1,1,0.2,2,0.3,3
					C447.1,785.1,446.8,785.4,446.4,785.5C446.4,785.5,446.4,785.5,446.4,785.5z"/>
			</g>
			<g id="pattern">
				<path d="M668.3,491.5h-41.6c-0.4,0-0.8-0.3-0.8-0.8s0.3-0.8,0.8-0.8h41.6c0.4,0,0.8,0.3,0.8,0.8S668.7,491.5,668.3,491.5z"/>
				<path d="M657.3,533.1h-65.4c-0.4,0-0.8-0.3-0.8-0.8s0.3-0.8,0.8-0.8h65.4c0.4,0,0.8,0.3,0.8,0.8S657.7,533.1,657.3,533.1z"/>
				<path d="M488,574.6h-27.6c-0.4,0-0.8-0.3-0.8-0.8s0.3-0.8,0.8-0.8H488c0.4,0,0.8,0.3,0.8,0.8S488.4,574.6,488,574.6z"/>
				<path d="M674.7,574.6H523c-0.4,0-0.8-0.3-0.8-0.8s0.3-0.8,0.8-0.8h151.7c0.4,0,0.8,0.3,0.8,0.8S675.1,574.6,674.7,574.6z"/>
				<path d="M692.1,616.2H523c-0.4,0-0.8-0.3-0.8-0.8s0.3-0.8,0.8-0.8h169.2c0.4,0,0.8,0.3,0.8,0.8S692.6,616.2,692.1,616.2z"/>
				<path d="M488,616.2h-38c-0.4,0-0.8-0.3-0.8-0.8s0.3-0.8,0.8-0.8h38c0.4,0,0.8,0.3,0.8,0.8S488.4,616.2,488,616.2z"/>
				<path d="M709.9,657.8H576.5c-0.4,0-0.8-0.3-0.8-0.8s0.3-0.8,0.8-0.8h133.4c0.4,0,0.8,0.3,0.8,0.8S710.3,657.8,709.9,657.8z"/>
				<path d="M559.7,657.8H523c-0.4,0-0.8-0.3-0.8-0.8s0.3-0.8,0.8-0.8h36.7c0.4,0,0.8,0.3,0.8,0.8S560.1,657.8,559.7,657.8z"/>
				<path d="M488,657.8h-39.2c-0.4,0-0.8-0.3-0.8-0.8s0.3-0.8,0.8-0.8H488c0.4,0,0.8,0.3,0.8,0.8S488.4,657.8,488,657.8z"/>
				<path d="M727,699.3H595.2c-0.4,0-0.8-0.3-0.8-0.8s0.3-0.8,0.8-0.8H727c0.4,0,0.8,0.3,0.8,0.8S727.4,699.3,727,699.3z"/>
				<path d="M488,699.3h-41.4c-0.4,0-0.8-0.3-0.8-0.8s0.3-0.8,0.8-0.8H488c0.4,0,0.8,0.3,0.8,0.8S488.4,699.3,488,699.3z"/>
				<path d="M557,699.3h-34c-0.4,0-0.8-0.3-0.8-0.8s0.3-0.8,0.8-0.8h34c0.4,0,0.8,0.3,0.8,0.8S557.4,699.3,557,699.3z"/>
				<path d="M772.3,740.9H616.9c-0.4,0-0.8-0.3-0.8-0.8s0.3-0.8,0.8-0.8h155.4c0.4,0,0.8,0.3,0.8,0.8S772.7,740.9,772.3,740.9z"/>
				<path d="M488,740.9h-43.1c-0.4,0-0.8-0.3-0.8-0.8s0.3-0.8,0.8-0.8H488c0.4,0,0.8,0.3,0.8,0.8S488.4,740.9,488,740.9z"/>
				<path d="M555.6,740.9H523c-0.4,0-0.8-0.3-0.8-0.8s0.3-0.8,0.8-0.8h32.6c0.4,0,0.8,0.3,0.8,0.8S556,740.9,555.6,740.9z"/>
				<path d="M555.6,785.5H523c-0.4,0-0.8-0.3-0.8-0.8s0.3-0.8,0.8-0.8h32.6c0.4,0,0.8,0.3,0.8,0.8S556,785.5,555.6,785.5z"/>
				<path d="M866.5,782.5H646.1c-0.4,0-0.8-0.3-0.8-0.8s0.3-0.8,0.8-0.8h220.4c0.4,0,0.8,0.3,0.8,0.8S867,782.5,866.5,782.5z"/>
				<path d="M581.1,824H523c-0.4,0-0.8-0.3-0.8-0.8s0.3-0.8,0.8-0.8h58.2c0.4,0,0.8,0.3,0.8,0.8S581.5,824,581.1,824z"/>
				<path d="M885.9,824H700.6c-0.4,0-0.8-0.3-0.8-0.8s0.3-0.8,0.8-0.8h185.3c0.4,0,0.8,0.3,0.8,0.8S886.3,824,885.9,824z"/>
				<path d="M617.7,865.6H523c-0.4,0-0.8-0.3-0.8-0.8s0.3-0.8,0.8-0.8h94.7c0.4,0,0.8,0.3,0.8,0.8S618.1,865.6,617.7,865.6z"/>
				<path d="M885.9,865.6h-56.2c-0.4,0-0.8-0.3-0.8-0.8s0.3-0.8,0.8-0.8h56.2c0.4,0,0.8,0.3,0.8,0.8S886.3,865.6,885.9,865.6z"/>
				<path d="M654.2,907.2H523c-0.4,0-0.8-0.3-0.8-0.8s0.3-0.8,0.8-0.8h131.3c0.4,0,0.8,0.3,0.8,0.8S654.6,907.2,654.2,907.2z"/>
				<path d="M460.5,785.5c-0.4,0-0.8-0.3-0.8-0.8v-211c0-0.4,0.3-0.8,0.8-0.8s0.8,0.3,0.8,0.8v211
					C461.2,785.1,460.9,785.5,460.5,785.5z"/>
				<path d="M543.6,935.1L543.6,935.1c-0.4,0-0.8-0.3-0.8-0.8l0-28V547.5c0-0.4,0.3-0.8,0.8-0.8s0.8,0.3,0.8,0.8l0,386.9
					C544.3,934.8,544,935.1,543.6,935.1z"/>
				<path d="M585.2,677.7c-0.4,0-0.8-0.3-0.8-0.8V534.4c0-0.4,0.3-0.8,0.8-0.8s0.8,0.3,0.8,0.8V677
					C585.9,677.4,585.6,677.7,585.2,677.7z"/>
				<path d="M585.2,935.1c-0.4,0-0.8-0.3-0.8-0.8V827.9c0-0.4,0.3-0.8,0.8-0.8s0.8,0.3,0.8,0.8v106.5
					C585.9,934.8,585.6,935.1,585.2,935.1z"/>
				<path d="M626.7,756.8c-0.4,0-0.8-0.3-0.8-0.8V521.3c0-0.4,0.3-0.8,0.8-0.8s0.8,0.3,0.8,0.8V756
					C627.5,756.4,627.1,756.8,626.7,756.8z"/>
				<path d="M626.7,935.1c-0.4,0-0.8-0.3-0.8-0.8v-59.2c0-0.4,0.3-0.8,0.8-0.8s0.8,0.3,0.8,0.8v59.2
					C627.5,934.8,627.1,935.1,626.7,935.1z"/>
				<path d="M668.3,804.5c-0.4,0-0.8-0.3-0.8-0.8V558.6c0-0.4,0.3-0.8,0.8-0.8s0.8,0.3,0.8,0.8v245.1
					C669,804.2,668.7,804.5,668.3,804.5z"/>
				<path d="M668.3,935.1c-0.4,0-0.8-0.3-0.8-0.8v-12c0-0.4,0.3-0.8,0.8-0.8s0.8,0.3,0.8,0.8v12C669,934.8,668.7,935.1,668.3,935.1z
					"/>
				<path d="M709.9,827.7c-0.4,0-0.8-0.3-0.8-0.8V657c0-0.4,0.3-0.8,0.8-0.8s0.8,0.3,0.8,0.8v169.9
					C710.6,827.4,710.3,827.7,709.9,827.7z"/>
				<path d="M751.4,841.7c-0.4,0-0.8-0.3-0.8-0.8V731c0-0.4,0.3-0.8,0.8-0.8s0.8,0.3,0.8,0.8v110
					C752.2,841.4,751.8,841.7,751.4,841.7z"/>
				<path d="M793,854.5c-0.4,0-0.8-0.3-0.8-0.8V749.3c0-0.4,0.3-0.8,0.8-0.8s0.8,0.3,0.8,0.8v104.5
					C793.7,854.2,793.4,854.5,793,854.5z"/>
				<path d="M834.6,867c-0.4,0-0.8-0.3-0.8-0.8v-98.7c0-0.4,0.3-0.8,0.8-0.8s0.8,0.3,0.8,0.8v98.7C835.3,866.7,835,867,834.6,867z"
					/>
				<path d="M876.1,879.3c-0.4,0-0.8-0.3-0.8-0.8v-92.6c0-0.4,0.3-0.8,0.8-0.8s0.8,0.3,0.8,0.8v92.6
					C876.9,879,876.5,879.3,876.1,879.3z"/>
			</g>
		</g>
	</g>
</g>
</svg>
