<?xml version="1.0" encoding="utf-8"?>
<!-- Generator: Adobe Illustrator 22.1.0, SVG Export Plug-In . SVG Version: 6.00 Build 0)  -->
<svg version="1.1" xmlns="http://www.w3.org/2000/svg" xmlns:xlink="http://www.w3.org/1999/xlink" x="0px" y="0px"
	 viewBox="0 0 993.3 1005.7" style="enable-background:new 0 0 993.3 1005.7;" xml:space="preserve">
<style type="text/css">
	.st0{fill:#9050A6;}
	.st1{fill:#FEE200;}
</style>
<g id="background">
	<g id="background_1_">
		<path d="M229.6,1005.7C229.6,1005.7,229.5,1005.7,229.6,1005.7l-14.7-0.8c-0.4,0-0.7-0.4-0.7-0.8l0.8-14.7c0-0.4,0.4-0.7,0.8-0.7
			l14.7,0.8c0.2,0,0.4,0.1,0.5,0.2c0.1,0.1,0.2,0.3,0.2,0.5l-0.8,14.7c0,0.2-0.1,0.4-0.2,0.5
			C229.9,1005.7,229.8,1005.7,229.6,1005.7z M215.7,1003.5l13.2,0.7l0.7-13.2l-13.2-0.7L215.7,1003.5z"/>
		<path d="M889.9,946.9c-0.2,0-0.4-0.1-0.6-0.2l-16.7-18.4c-0.3-0.3-0.3-0.8,0.1-1.1l18.4-16.7c0.3-0.3,0.8-0.3,1.1,0.1l16.7,18.4
			c0.3,0.3,0.3,0.8-0.1,1.1l-18.4,16.7C890.2,946.8,890,946.9,889.9,946.9z M874.2,927.8l15.7,17.3l17.3-15.7l-15.7-17.3
			L874.2,927.8z"/>
		
			<rect x="970" y="508.2" transform="matrix(0.6085 -0.7936 0.7936 0.6085 -27.4052 980.2689)" class="st0" width="19.4" height="19.4"/>
		<path d="M306.8,646.1c-0.4,0-0.7-0.3-0.7-0.6l-2.9-20.6c-0.1-0.4,0.2-0.8,0.6-0.8l20.6-2.9c0.4-0.1,0.8,0.2,0.8,0.6l2.9,20.6
			c0.1,0.4-0.2,0.8-0.6,0.8l-20.6,2.9C306.9,646.1,306.8,646.1,306.8,646.1z M304.7,625.4l2.7,19.1l19.1-2.7l-2.7-19.1L304.7,625.4z
			"/>
		<path d="M786.3,139.9c-0.1,0-0.2,0-0.3,0l-9-3.5c-0.4-0.1-0.6-0.6-0.4-1l3.5-9c0.1-0.2,0.2-0.3,0.4-0.4c0.2-0.1,0.4-0.1,0.6,0
			l9,3.5c0.4,0.1,0.6,0.6,0.4,1l-3.5,9C786.9,139.7,786.6,139.9,786.3,139.9z M778.2,135.2l7.6,2.9l2.9-7.6l-7.6-2.9L778.2,135.2z"
			/>
		<circle class="st0" cx="150.5" cy="722.1" r="14.6"/>
		<circle class="st0" cx="966.1" cy="181.3" r="6.3"/>
		<circle class="st0" cx="476.9" cy="15" r="6.3"/>
		<circle class="st0" cx="438.1" cy="686.5" r="6.3"/>
		<path d="M695.5,870.3c-0.2,0-0.3-0.1-0.5-0.2c-0.3-0.3-0.4-0.7-0.1-1.1l11.4-14.3c0.3-0.3,0.7-0.4,1.1-0.1
			c0.3,0.3,0.4,0.7,0.1,1.1L696.1,870C695.9,870.2,695.7,870.3,695.5,870.3z"/>
		<path d="M24.3,722.8c-0.2,0-0.5-0.1-0.6-0.3L13.8,707c-0.2-0.3-0.1-0.8,0.2-1c0.3-0.2,0.8-0.1,1,0.2l9.8,15.5
			c0.2,0.3,0.1,0.8-0.2,1C24.5,722.8,24.4,722.8,24.3,722.8z"/>
		<path d="M866.3,820.4c-0.1,0-0.3,0-0.4-0.1l-15.9-9.1c-0.4-0.2-0.5-0.7-0.3-1c0.2-0.4,0.7-0.5,1-0.3l15.9,9.1
			c0.4,0.2,0.5,0.7,0.3,1C866.8,820.2,866.5,820.4,866.3,820.4z"/>
		<path d="M960.3,756.8c-0.1,0-0.1,0-0.2,0c-0.4-0.1-0.7-0.5-0.6-0.9l3.9-17.9c0.1-0.4,0.5-0.7,0.9-0.6c0.4,0.1,0.7,0.5,0.6,0.9
			l-3.9,17.9C961,756.6,960.7,756.8,960.3,756.8z"/>
		<path d="M871.5,624.7c-0.3,0-0.5-0.1-0.6-0.4c-0.2-0.4-0.1-0.8,0.2-1l15.6-9.6c0.4-0.2,0.8-0.1,1,0.2c0.2,0.4,0.1,0.8-0.2,1
			l-15.6,9.6C871.8,624.7,871.7,624.7,871.5,624.7z"/>
		<path d="M222.6,34.1c-0.2,0-0.5-0.1-0.6-0.3c-0.2-0.3-0.1-0.8,0.2-1l15.3-10c0.3-0.2,0.8-0.1,1,0.2c0.2,0.3,0.1,0.8-0.2,1L223,34
			C222.9,34.1,222.8,34.1,222.6,34.1z"/>
		<path d="M822.8,296.2c-0.1,0-0.2,0-0.2,0c-0.4-0.1-0.6-0.5-0.5-0.9l5.6-17.5c0.1-0.4,0.5-0.6,0.9-0.5c0.4,0.1,0.6,0.5,0.5,0.9
			l-5.6,17.5C823.4,296,823.2,296.2,822.8,296.2z"/>
		<path d="M949.9,59.7c-0.2,0-0.4-0.1-0.5-0.2c-0.3-0.3-0.3-0.8,0-1.1l12.4-13.5c0.3-0.3,0.8-0.3,1.1,0c0.3,0.3,0.3,0.8,0,1.1
			l-12.4,13.5C950.3,59.6,950.1,59.7,949.9,59.7z"/>
		<path d="M890.7,407.4c-0.3,0-0.5-0.1-0.6-0.4c-0.2-0.4-0.1-0.8,0.3-1l15.8-9.2c0.4-0.2,0.8-0.1,1,0.3c0.2,0.4,0.1,0.8-0.3,1
			l-15.8,9.2C891,407.3,890.8,407.4,890.7,407.4z"/>
		<path d="M495.5,967.1c-0.3,0-0.5-0.2-0.7-0.4l-8.1-16.5c-0.2-0.4,0-0.8,0.3-1c0.4-0.2,0.8,0,1,0.3l8.1,16.5c0.2,0.4,0,0.8-0.3,1
			C495.7,967.1,495.6,967.1,495.5,967.1z"/>
		<path d="M68.4,913.7c0,0-0.1,0-0.1,0l-18.1-2.9c-0.4-0.1-0.7-0.4-0.6-0.9s0.5-0.7,0.9-0.6l18.1,2.9c0.4,0.1,0.7,0.4,0.6,0.9
			C69.1,913.5,68.8,913.7,68.4,913.7z"/>
		<path d="M198.2,871.5c-0.1,0-0.2,0-0.3-0.1c-0.4-0.2-0.5-0.6-0.4-1l7.5-16.7c0.2-0.4,0.6-0.5,1-0.4c0.4,0.2,0.5,0.6,0.4,1
			l-7.5,16.7C198.8,871.3,198.5,871.5,198.2,871.5z"/>
		<path d="M246.5,416c-0.3,0-0.5-0.1-0.6-0.4c-0.2-0.4-0.1-0.8,0.3-1l15.9-9.2c0.4-0.2,0.8-0.1,1,0.3c0.2,0.4,0.1,0.8-0.3,1
			l-15.9,9.2C246.8,415.9,246.6,416,246.5,416z"/>
		<path d="M0.8,306.6c-0.3,0-0.5-0.1-0.6-0.4c-0.2-0.4-0.1-0.8,0.3-1l15.9-9.2c0.4-0.2,0.8-0.1,1,0.3c0.2,0.4,0.1,0.8-0.3,1
			l-15.9,9.2C1,306.6,0.9,306.6,0.8,306.6z"/>
		<path d="M14.4,15.8c-0.2,0-0.4-0.1-0.6-0.3L2.3,1.2C2.1,0.9,2.1,0.4,2.4,0.2C2.8-0.1,3.2,0,3.5,0.3L15,14.5
			c0.3,0.3,0.2,0.8-0.1,1.1C14.8,15.7,14.6,15.8,14.4,15.8z"/>
		<path d="M352.3,796.5c-0.3,0-0.6-0.2-0.7-0.4c-0.2-0.4,0-0.8,0.4-1l16.8-7.4c0.4-0.2,0.8,0,1,0.4c0.2,0.4,0,0.8-0.4,1l-16.8,7.4
			C352.5,796.5,352.4,796.5,352.3,796.5z"/>
		<path d="M400.8,518.7c-0.1,0-0.2,0-0.3-0.1c-0.4-0.2-0.6-0.6-0.4-1l7-17c0.2-0.4,0.6-0.6,1-0.4c0.4,0.2,0.6,0.6,0.4,1l-7,17
			C401.3,518.5,401.1,518.7,400.8,518.7z"/>
		<path d="M572.5,452.3c-0.2,0-0.4-0.1-0.5-0.2l-12.6-13.3c-0.3-0.3-0.3-0.8,0-1.1c0.3-0.3,0.8-0.3,1.1,0L573,451
			c0.3,0.3,0.3,0.8,0,1.1C572.8,452.2,572.7,452.3,572.5,452.3z"/>
		<path d="M829.5,32.4c-0.3,0-0.6-0.2-0.7-0.4l-7.7-16.7c-0.2-0.4,0-0.8,0.4-1c0.4-0.2,0.8,0,1,0.4l7.7,16.7c0.2,0.4,0,0.8-0.4,1
			C829.7,32.4,829.6,32.4,829.5,32.4z"/>
		<path d="M246.3,577.5c-0.1,0-0.2,0-0.3-0.1l-16.6-7.7c-0.4-0.2-0.5-0.6-0.4-1c0.2-0.4,0.6-0.5,1-0.4l16.6,7.7
			c0.4,0.2,0.5,0.6,0.4,1C246.9,577.3,246.6,577.5,246.3,577.5z"/>
		<path d="M70.4,500.3c-2.4,0-4.3-1.9-4.3-4.3s1.9-4.3,4.3-4.3s4.3,1.9,4.3,4.3S72.7,500.3,70.4,500.3z M70.4,493.2
			c-1.5,0-2.8,1.2-2.8,2.8s1.2,2.8,2.8,2.8s2.8-1.2,2.8-2.8S71.9,493.2,70.4,493.2z"/>
		<path d="M531.2,817.9c-2.4,0-4.3-1.9-4.3-4.3s1.9-4.3,4.3-4.3s4.3,1.9,4.3,4.3S533.5,817.9,531.2,817.9z M531.2,810.8
			c-1.5,0-2.8,1.2-2.8,2.8s1.2,2.8,2.8,2.8s2.8-1.2,2.8-2.8S532.7,810.8,531.2,810.8z"/>
		<path d="M393.8,921.3c-5.3,0-9.7-4.4-9.7-9.7c0-5.3,4.4-9.7,9.7-9.7c5.3,0,9.7,4.4,9.7,9.7C403.5,916.9,399.2,921.3,393.8,921.3z
			 M393.8,903.4c-4.5,0-8.2,3.7-8.2,8.2c0,4.5,3.7,8.2,8.2,8.2c4.5,0,8.2-3.7,8.2-8.2C402,907,398.4,903.4,393.8,903.4z"/>
	</g>
</g>
<g id="general_1_">
	<g id="general_2_">
		<g id="woman_1_">
			<path id="hair_7_" d="M652,328.9c-0.6,17.8,25.3,22.1,34.5,48.8c0.7,1.9,1.5,5.1,2,9.4c2.2,19.7-8.9,26.9-8.5,40.2
				c0.5,16.9,18.8,16.8,23.1,35.3c5.4,23.3-20.6,37.5-13.6,54c5.5,13,27.9,19.7,43.8,14.7c17.7-5.5,28.4-25.8,37.2-42.4
				c7.8-14.7,8-21.1,16-25.9c13.3-7.9,23.6,3.1,34.8-3.8c15.5-9.4,17.1-43.1,4.5-61.9c-2.4-3.5-5-6.1-6.8-8
				c-12.5-12.6-26-16.3-32-18.7c-26.4-10.6-17.4-39.7-47.2-60.1c-17-11.7-44.1-19.7-65.5-8.6C672.7,302.7,652.5,314.1,652,328.9z"/>
			<g id="shoes_1_">
				<path d="M651.7,928.6c-13.7,0.1-27.3,0.1-41,0.2c-4.4,5.7-8.7,9.5-12.7,12c-1.1,0.7-3.8,2.2-10.8,4.6c-9.7,3.3-14.8,4-18.6,5.1
					c-6.1,1.8-14.2,6.7-22.1,20.2c19.3,0.1,38.6,0.1,57.9,0.1c5.3,0,10.6,0,15.8,0c5.3-9.9,13.3-13.9,17.1-11.9
					c2.9,1.5,3.8,6.8,3.2,12.2l0,0c6.5,0,11.9-0.1,15.9-0.2C654.9,956.9,653.3,942.7,651.7,928.6z"/>
				<path d="M791.9,928.6c-13.7,0.1-27.3,0.1-41,0.2c-4.4,5.7-8.7,9.5-12.7,12c-1.1,0.7-3.8,2.2-10.8,4.6c-9.7,3.3-14.8,4-18.6,5.1
					c-6.1,1.8-14.2,6.7-22.1,20.2c19.3,0.1,38.6,0.1,57.9,0.1c5.3,0,10.6,0,15.8,0c5.3-9.9,13.3-13.9,17.1-11.9
					c2.9,1.5,3.8,6.8,3.2,12.2l0,0c6.5,0,11.9-0.1,15.9-0.2C795.1,956.9,793.5,942.7,791.9,928.6z"/>
			</g>
			<path d="M681.8,392.3c-0.3,0-0.6-0.2-0.7-0.6l-3.2-11.4c-0.1,0-0.3,0.1-0.4,0.1c-4.1,1-7.9,0.8-11.1-0.5
				c-5.7-2.2-10.2-7.9-12.7-16c-1.4-4.6-2.2-9.8-2.2-15.4c0-4.1,0.4-8.4,1.1-12.8c0.1-0.4,0.5-0.7,0.9-0.6c0.4,0.1,0.7,0.5,0.6,0.9
				c-0.8,4.2-1.1,8.5-1.1,12.5c0,5.5,0.7,10.5,2.1,15c2.4,7.7,6.6,13,11.9,15.1c3,1.2,6.4,1.3,10.2,0.4c0.3-0.1,0.7-0.2,1-0.3
				c0.4-0.1,0.8,0.1,0.9,0.5l3.4,12.1c0.1,0.4-0.1,0.8-0.5,0.9C681.9,392.3,681.8,392.3,681.8,392.3z"/>
			<g id="hands_1_">
				<g id="hand_r_1_">
					<path d="M779.9,667.5c-0.4,0-0.8-0.3-0.8-0.7v0c0-0.1,0-0.2,0.1-0.3c1.1-2.4,2.3-4.8,3.6-7.2c0.2-0.4,0.6-0.5,1-0.3
						c0.4,0.2,0.5,0.6,0.3,1c-1.3,2.4-2.5,4.8-3.6,7.2C780.5,667.3,780.2,667.5,779.9,667.5z"/>
					<path d="M780.9,687.3c-0.4,0-0.8-0.3-0.8-0.8s0.3-0.8,0.8-0.8c0.1,0,0.1,0,0.2,0c2.1-0.3,3.3-4.2,4.7-8.2l0.1-0.3
						c1.7-5.2,3.6-10.9,5.8-16.8c0.1-0.4,0.5-0.6,0.9-0.5c0.4,0.1,0.6,0.4,0.6,0.8c-0.3,4.6-0.6,8.3-0.9,10.9l-0.1,1
						c-0.5,5.8-0.7,8.4,0.8,9.6c0.6,0.5,1.7,1,2.6,0.7c2-0.7,2.4-5.2,2.8-9.6l0.1-1.4c0.4-4.4,1.1-8.8,1.7-13
						c0.6-4.4,1.3-9,1.7-13.5c0-0.4,0.4-0.7,0.8-0.7c0.4,0,0.7,0.4,0.7,0.8c-0.4,4.5-1.1,9.1-1.7,13.5c-0.6,4.2-1.2,8.6-1.6,13
						l-0.1,1.4c-0.5,5.3-0.9,9.9-3.9,10.9c-1.4,0.5-3.1-0.1-4.1-0.9c-2.1-1.7-1.9-4.6-1.3-10.9l0.1-1c0.1-1.5,0.3-3.2,0.4-5.3
						c-1.4,4-2.7,7.8-3.9,11.5l-0.1,0.3c-1.5,4.7-2.9,8.8-5.9,9.2C781.2,687.3,781,687.3,780.9,687.3z"/>
					<path d="M780.1,670.4c-0.1,0-0.1,0-0.2,0c-0.4-0.1-0.6-0.5-0.5-0.9c1-3.3,2.1-6.5,3.2-9.6c0.1-0.4,0.6-0.6,1-0.5
						c0.4,0.1,0.6,0.6,0.5,1c-1.1,3.1-2.2,6.3-3.2,9.6C780.7,670.2,780.4,670.4,780.1,670.4z"/>
					<path d="M780.2,640.7c-0.6,0-1.1,0-1.7-0.1c-0.4,0-0.7-0.4-0.7-0.8c0-0.4,0.4-0.7,0.8-0.7c1.6,0.2,3.2,0.1,4.7-0.3
						c1.6-0.4,3.1-1.1,4.5-2c0.3-0.2,0.8-0.2,1,0.2c0.2,0.3,0.2,0.8-0.2,1c-1.5,1.1-3.2,1.8-5,2.3
						C782.6,640.6,781.4,640.7,780.2,640.7z"/>
					<path d="M790.1,661.5c-2.6,0-5.8-0.5-9-2.3c-0.7-0.4-1.5-0.9-2.2-1.5c-0.3-0.3-0.4-0.7-0.1-1.1c0.3-0.3,0.7-0.4,1.1-0.1
						c0.6,0.5,1.3,1,2,1.3c3.8,2.2,7.7,2.3,10.3,2c1.4-0.2,2.6-0.4,3.2-0.6c0.4-0.1,0.8,0.1,0.9,0.5c0.1,0.4-0.1,0.8-0.5,0.9
						c-0.7,0.2-2,0.5-3.5,0.7C791.7,661.5,791,661.5,790.1,661.5z"/>
				</g>
				<path d="M552.7,664.2c-0.2,0-0.4,0-0.7-0.1c-1.6-0.3-2.7-1.7-3.2-2.9c-1-2.7,0.8-5.1,4.6-10.5l0.6-0.8c0.9-1.3,2-2.8,3.3-4.7
					c-3.3,2.8-6.5,5.6-9.7,8.5l-0.3,0.2c-3.8,3.4-7.2,6.4-10.1,5.2c-1.4-0.6-2.4-2-2.6-3.2c-0.7-3.1,2.4-6.2,7.1-10.8
					c0.7-0.7,1.2-1.2,2-1.9l0.2-0.2c0.1-0.1,0.2-0.2,0.3-0.3c-2.2,1.5-4.2,3.1-6.2,4.7l-0.7,0.6c-3.8,3-7.7,6.1-10.9,4.6
					c-0.2-0.1-2-1-2.5-2.9c-1-4.3,5.9-9.2,12.6-13.9c0.3-0.2,0.5-0.4,0.8-0.6c-0.9,0.5-1.9,0.9-2.8,1.4l-4.2,2.1
					c-2,1-6.3,3.1-9.1,1.3c-1.2-0.8-2.1-2.3-2.2-3.6c-0.3-4,5.3-7.2,18.3-13.6c4.3-2.1,8.7-4.2,13.1-6.3c-2.1,0.5-4.2,0.9-6.4,1.2
					c-6.1,1-9.3,1.2-10.7-0.8c-1-1.4-0.7-3.1-0.6-3.5c0.8-3.3,7.2-5.4,7.9-5.6c6.9-2.2,13.9-3.9,17.4-4.7c0.4-0.1,0.8,0.2,0.9,0.6
					c0.1,0.4-0.2,0.8-0.6,0.9c-3.5,0.8-10.4,2.5-17.3,4.6c-1.7,0.5-6.4,2.4-6.9,4.5c-0.1,0.2-0.3,1.5,0.3,2.3c1,1.4,4.1,1.1,9.3,0.2
					c4.6-0.8,9.2-1.8,13.9-3.1c0.4-0.1,0.8,0.1,0.9,0.5c0.1,0.4,0,0.8-0.4,0.9c-6.8,3.1-13.6,6.3-20.2,9.6
					c-11,5.4-17.7,8.9-17.5,12.1c0.1,0.9,0.7,2,1.5,2.5c2.1,1.4,5.8-0.5,7.6-1.4l4.2-2.1c4.5-2.2,9.6-4.8,15.2-7.6
					c0.3-0.2,0.8-0.1,1,0.3c0.2,0.3,0.1,0.8-0.2,1c-0.3,0.2-0.6,0.5-1.1,0.8c-1.7,1.2-3.1,2-4.3,2.8c-0.7,0.4-1.3,0.7-1.8,1.1
					c-1.7,1.1-3.5,2.2-5.2,3.4c-5.7,4-12.8,9-12,12.3c0.3,1.2,1.6,1.9,1.7,1.9c2.3,1.1,5.9-1.7,9.3-4.4l0.7-0.6
					c4.8-3.8,10.1-7.5,15.7-11.1c0.2-0.2,0.6-0.2,0.8,0c0.2,0.2,0.4,0.5,0.3,0.7c0,0.2-0.1,0.4-0.3,0.5c-3,2.5-5.9,5.1-8.7,7.8
					l-0.2,0.2c-0.8,0.7-1.3,1.2-2,1.9c-4.3,4.3-7.2,7.1-6.6,9.4c0.2,0.8,0.8,1.8,1.7,2.2c2.1,0.8,5.2-2,8.5-5l0.3-0.2
					c4.5-4.1,9.1-8,14-12.1c0.3-0.2,0.7-0.2,1,0c0.3,0.3,0.3,0.7,0.1,1c-2.7,4-4.9,7.1-6.5,9.4l-0.6,0.8c-3.5,5-5.1,7.2-4.4,9.1
					c0.3,0.8,1.1,1.8,2,2c2.2,0.5,4.9-3.4,7.6-7.2l0.9-1.2c0.9-1.3,1.9-2.7,3-4.2c4.1-5.9,9.8-14,18.4-24.2c0.3-0.3,0.7-0.4,1.1-0.1
					c0.3,0.3,0.4,0.7,0.1,1.1c-8.6,10.1-14.3,18.2-18.4,24.1c-1.1,1.6-2.1,3-3,4.2l-0.8,1.2C558.2,660.6,555.6,664.2,552.7,664.2z"
					/>
			</g>
			<g id="tshirt_7_">
				<path d="M809.2,649.9c-0.1,0-0.3,0-0.4-0.1l-30.5-17.1c-0.4-0.2-0.5-0.7-0.3-1s0.7-0.5,1-0.3l29.4,16.5
					c0.5-36.2-0.9-72.8-4.2-108.9c-1.6-17.3-3.6-34.6-6.1-51.6c-0.3-1.9-0.6-3.8-0.8-5.7c-1-7.1-2.2-14.2-3.4-21.4
					c-0.1-0.4,0.2-0.8,0.6-0.9c0.4-0.1,0.8,0.2,0.9,0.6c1.2,7.1,2.4,14.3,3.4,21.4c0.3,1.9,0.6,3.8,0.8,5.8
					c2.4,17,4.5,34.3,6.1,51.6c3.3,36.5,4.7,73.6,4.2,110.3c0,0.3-0.1,0.5-0.4,0.6C809.5,649.9,809.3,649.9,809.2,649.9z"/>
				<path d="M586.9,631c-0.2,0-0.4-0.1-0.5-0.2l-33.7-31.3c-0.2-0.1-0.2-0.4-0.2-0.6c0-0.2,0.1-0.4,0.3-0.6
					c24.8-20.4,43.4-43.4,55.4-68.5c0.8-1.6,1.6-3.3,2.4-5.2c0.2-0.5,0.4-1,0.7-1.5l0.1-0.3c4.9-11.5,8.7-23.9,12.1-35.6
					c0.5-1.7,1-3.4,1.5-5.1l0.9-3.1c3.5-12.4,6.9-24.2,11.1-35.3c0,0,0,0,0-0.1c0.7-1.8,1.3-3.3,1.9-4.8
					c4.8-11.7,10.2-20.7,16.5-27.7c10.8-12,26.3-20.4,33-23.1c0.4-0.2,0.8,0,1,0.4c0.2,0.4,0,0.8-0.4,1
					c-6.6,2.7-21.9,10.9-32.5,22.7c-6.2,6.9-11.5,15.8-16.2,27.3c-0.6,1.5-1.2,3-1.9,4.8c0,0,0,0,0,0.1c-4.2,11-7.5,22.8-11.1,35.2
					l-0.9,3.1c-0.5,1.7-1,3.4-1.5,5.1c-3.4,11.7-7.2,24.2-12.1,35.7l-0.1,0.3c-0.2,0.5-0.4,1-0.7,1.5c-0.9,1.9-1.7,3.7-2.4,5.3
					c-12,25.1-30.6,48.1-55.2,68.5l32.6,30.3c1.1-0.8,2.3-1.6,3.5-2.5c1.3-1,2.7-2,4.1-3.1c3.8-2.9,7.7-6,11.3-9.2
					c1.4-1.2,2.8-2.4,4.3-3.8c3.9-3.6,7.6-7.3,11.2-11.1c1.3-1.4,2.5-2.8,3.8-4.1c4.6-5.2,9-10.7,12.9-16.2c0,0,0,0,0-0.1
					c9.7-13.6,17.5-28.3,23.1-43.7c4.5-12.2,7.6-25.1,9.4-38.1c0.1-0.4,0.4-0.7,0.8-0.6c0.4,0.1,0.7,0.4,0.6,0.8
					c-1.8,13.2-5,26.1-9.5,38.4c-5.7,15.5-13.5,30.3-23.2,44c0,0,0,0,0,0.1c-4,5.6-8.4,11.1-13,16.4c-1.2,1.4-2.5,2.8-3.8,4.2
					c-3.6,3.8-7.4,7.6-11.3,11.2c-1.5,1.4-2.9,2.7-4.3,3.9c-3.7,3.2-7.5,6.3-11.4,9.3c-1.4,1.1-2.8,2.1-4.1,3.1
					c-1.4,1-2.8,2-4.1,2.9C587.2,630.9,587,631,586.9,631z"/>
				<path d="M641.4,598.5c0,0-0.1,0-0.1,0l-1.7-0.2c-1.7-0.3-2.7-0.4-2.9-0.4c-0.4-0.1-0.7-0.4-0.6-0.8c0.2-2.6,0.6-5.8,1.1-10
					c0.2-1.8,0.4-3.6,0.6-5.6l0-0.2c0.1-0.6,0.1-1.2,0.2-1.8c0-0.4,0.3-0.7,0.7-0.7s0.7,0.4,0.7,0.8v0c-0.1,0.7-0.1,1.3-0.2,1.8
					l0,0.2c-0.2,1.9-0.5,3.8-0.6,5.6c-0.4,3.8-0.8,6.9-1,9.3c0.5,0.1,1.2,0.2,2.2,0.3l1.7,0.2c0.4,0.1,0.7,0.4,0.6,0.9
					C642,598.2,641.7,598.5,641.4,598.5z"/>
				<path d="M786.7,619.9c0,0-0.1,0-0.1,0c-0.4-0.1-3.8-0.6-9.2-1.4c-0.4-0.1-0.7-0.4-0.6-0.9c0.1-0.4,0.4-0.7,0.9-0.6
					c4,0.6,6.9,1,8.3,1.2l-6.1-99.9c0,0,0-0.1,0-0.1l-1.8-29.1c0-0.4,0.3-0.8,0.7-0.8c0.4,0,0.8,0.3,0.8,0.7l1.8,29.1
					c0,0,0,0.1,0,0.1l6.2,100.9c0,0.2-0.1,0.4-0.2,0.6C787.1,619.8,786.9,619.9,786.7,619.9z"/>
				<g id="pattern_1_">
					<g>
						<circle cx="683.4" cy="399.1" r="2.9"/>
						<circle cx="667.4" cy="413.5" r="2.9"/>
						<circle cx="652.9" cy="427.6" r="2.9"/>
						<circle cx="682" cy="427.6" r="2.9"/>
						<path d="M642.7,442c0,1.6-1.3,2.9-2.9,2.9c-0.9,0-1.6-0.4-2.2-1c0,0,0,0,0,0c0.6-1.6,1.3-3.2,1.9-4.8c0.1,0,0.2,0,0.3,0
							C641.4,439.1,642.7,440.4,642.7,442z"/>
						<circle cx="668.9" cy="442" r="2.9"/>
						<circle cx="654.3" cy="456" r="2.9"/>
						<circle cx="683.4" cy="456" r="2.9"/>
						<circle cx="638.3" cy="470.4" r="2.9"/>
						<circle cx="667.4" cy="470.4" r="2.9"/>
						<circle cx="696.5" cy="470.4" r="2.9"/>
						<path d="M626.7,484.5c0,1.5-1.1,2.7-2.5,2.9c0.5-1.7,1-3.4,1.5-5.1C626.3,482.8,626.7,483.6,626.7,484.5z"/>
						<circle cx="652.9" cy="484.5" r="2.9"/>
						<circle cx="682" cy="484.5" r="2.9"/>
						<circle cx="638.3" cy="498.9" r="2.9"/>
						<circle cx="667.4" cy="498.9" r="2.9"/>
						<circle cx="623.8" cy="513" r="2.9"/>
						<circle cx="652.9" cy="513" r="2.9"/>
						<circle cx="682" cy="513" r="2.9"/>
					</g>
					<g>
						<circle cx="784" cy="470.4" r="2.9"/>
						<path d="M799,487.4c-0.1,0-0.3,0-0.4,0c-1.6,0-2.9-1.3-2.9-2.9c0-1.5,1.1-2.7,2.5-2.9C798.4,483.5,798.7,485.4,799,487.4z"/>
						<circle cx="784" cy="498.9" r="2.9"/>
						<circle cx="769.5" cy="513" r="2.9"/>
						<circle cx="798.6" cy="513" r="2.9"/>
					</g>
					<g>
						<path d="M612.7,527.4c0,1.6-1.3,2.9-2.9,2.9c-0.3,0-0.7-0.1-1-0.2c0.9-1.8,1.7-3.6,2.4-5.3
							C612.1,525.4,612.7,526.4,612.7,527.4z"/>
						<circle cx="638.9" cy="527.4" r="2.9"/>
						<circle cx="668" cy="527.4" r="2.9"/>
						<circle cx="697.2" cy="527.4" r="2.9"/>
						<circle cx="624.4" cy="541.5" r="2.9"/>
						<circle cx="653.5" cy="541.5" r="2.9"/>
						<circle cx="682.6" cy="541.5" r="2.9"/>
						<circle cx="608.4" cy="555.9" r="2.9"/>
						<circle cx="637.5" cy="555.9" r="2.9"/>
						<circle cx="666.6" cy="555.9" r="2.9"/>
						<circle cx="695.7" cy="555.9" r="2.9"/>
						<circle cx="593.8" cy="570" r="2.9"/>
						<circle cx="622.9" cy="570" r="2.9"/>
						<circle cx="652" cy="570" r="2.9"/>
						<circle cx="681.1" cy="570" r="2.9"/>
						<circle cx="580.7" cy="584.4" r="2.9"/>
						<circle cx="609.8" cy="584.4" r="2.9"/>
						<path d="M641.8,584.4c0,1.6-1.3,2.9-2.9,2.9c-0.4,0-0.8-0.1-1.1-0.2c0.2-1.8,0.4-3.6,0.6-5.6c0.1,0,0.3,0,0.4,0
							C640.5,581.5,641.8,582.8,641.8,584.4z"/>
						<circle cx="668" cy="584.4" r="2.9"/>
						<circle cx="697.2" cy="584.4" r="2.9"/>
						<circle cx="566.2" cy="598.4" r="2.9"/>
						<circle cx="595.3" cy="598.4" r="2.9"/>
						<path d="M625.7,595.9c-1.3,1.4-2.5,2.8-3.8,4.2c-0.3-0.5-0.5-1-0.5-1.6c0-1.6,1.3-2.9,2.9-2.9
							C624.9,595.5,625.3,595.6,625.7,595.9z"/>
						<path d="M656.4,598.4c0,0.5-0.2,1-0.4,1.5c-1.9-0.3-3.7-0.5-5.3-0.8c-0.1-0.2-0.1-0.5-0.1-0.7c0-1.6,1.3-2.9,2.9-2.9
							S656.4,596.8,656.4,598.4z"/>
						<circle cx="682.6" cy="598.4" r="2.9"/>
						<circle cx="579.3" cy="612.8" r="2.9"/>
						<path d="M610.7,611.2c-1.4,1.3-2.9,2.6-4.3,3.9c-0.6-0.5-1-1.3-1-2.2c0-1.6,1.3-2.9,2.9-2.9
							C609.3,609.9,610.2,610.4,610.7,611.2z"/>
						<path d="M595.1,624.3c-1.4,1.1-2.8,2.1-4.1,3.1c0-0.1,0-0.3,0-0.5c0-1.6,1.3-2.9,2.9-2.9C594.3,624,594.7,624.1,595.1,624.3z"
							/>
					</g>
					<g>
						<circle cx="755.5" cy="527.4" r="2.9"/>
						<circle cx="784.6" cy="527.4" r="2.9"/>
						<circle cx="711.9" cy="541.5" r="2.9"/>
						<circle cx="741" cy="541.5" r="2.9"/>
						<circle cx="770.1" cy="541.5" r="2.9"/>
						<circle cx="799.2" cy="541.5" r="2.9"/>
						<circle cx="725" cy="555.9" r="2.9"/>
						<circle cx="754.1" cy="555.9" r="2.9"/>
						<circle cx="783.2" cy="555.9" r="2.9"/>
						<circle cx="710.4" cy="570" r="2.9"/>
						<circle cx="739.5" cy="570" r="2.9"/>
						<circle cx="768.6" cy="570" r="2.9"/>
						<circle cx="797.7" cy="570" r="2.9"/>
						<circle cx="726.4" cy="584.4" r="2.9"/>
						<circle cx="755.5" cy="584.4" r="2.9"/>
						<circle cx="784.6" cy="584.4" r="2.9"/>
						<circle cx="711.9" cy="598.4" r="2.9"/>
						<circle cx="741" cy="598.4" r="2.9"/>
						<circle cx="770.1" cy="598.4" r="2.9"/>
						<circle cx="799.2" cy="598.4" r="2.9"/>
						<path d="M757,612.8c0,0.7-0.2,1.3-0.7,1.8c-1.6-0.2-3.3-0.5-4.9-0.7c-0.1-0.3-0.2-0.7-0.2-1.1c0-1.6,1.3-2.9,2.9-2.9
							C755.7,609.9,757,611.2,757,612.8z"/>
						<circle cx="783.2" cy="612.8" r="2.9"/>
						<circle cx="797.7" cy="626.9" r="2.9"/>
					</g>
				</g>
			</g>
			<g id="legs_1_">
				<path d="M611.8,930.8C611.8,930.8,611.8,930.8,611.8,930.8c-0.5-0.1-0.8-0.4-0.7-0.8l2.3-18.5c0.1-0.4,0.4-0.7,0.8-0.7
					c0.4,0,0.7,0.4,0.7,0.8l-2.3,18.5C612.5,930.6,612.2,930.8,611.8,930.8z"/>
				<path class="st1" d="M792.7,924.9c-14.6-2.2-29.1-4.4-43.7-6.6c-11.4-84.7-22.7-169.4-34.1-254.2
					c-20.4,86.9-40.8,173.8-61.2,260.7c-14.9-5-29.7-10-44.6-14.9c10.7-104.1,21.5-208.1,32.2-312.2c0,0,0.1,0,0.1,0
					c2.3,0.3,130.7,19.2,136.1,20L792.7,924.9z"/>
				<path d="M650.8,929.3C650.8,929.3,650.8,929.3,650.8,929.3c-0.5-0.1-0.8-0.4-0.7-0.8l0.5-4.5c0-0.4,0.4-0.7,0.8-0.7
					c0.4,0,0.7,0.4,0.7,0.8l-0.5,4.5C651.5,929.1,651.2,929.3,650.8,929.3z"/>
				<path d="M791.1,930.8c-0.4,0-0.8-0.3-0.8-0.8v-5.5c0-0.4,0.3-0.8,0.8-0.8s0.8,0.3,0.8,0.8v5.5
					C791.9,930.5,791.5,930.8,791.1,930.8z"/>
				<path d="M751.9,930.8c-0.4,0-0.7-0.3-0.7-0.7l-0.9-11.5c0-0.4,0.3-0.8,0.7-0.8c0.4,0,0.8,0.3,0.8,0.7l0.9,11.5
					C752.7,930.4,752.4,930.8,751.9,930.8C751.9,930.8,751.9,930.8,751.9,930.8z"/>
				<path d="M631.5,918.2C631.5,918.2,631.5,918.2,631.5,918.2c-0.5,0-0.8-0.4-0.8-0.8l16.4-318.7c0-0.4,0.4-0.7,0.8-0.7
					c0.4,0,0.7,0.4,0.7,0.8l-16.4,318.7C632.3,917.9,631.9,918.2,631.5,918.2z"/>
				<path d="M760.7,920.8c-0.4,0-0.7-0.3-0.7-0.6l-45.8-255.9c-0.1-0.4,0.2-0.8,0.6-0.9c0.4-0.1,0.8,0.2,0.9,0.6l45.8,255.9
					c0.1,0.4-0.2,0.8-0.6,0.9C760.8,920.8,760.8,920.8,760.7,920.8z"/>
			</g>
		</g>
		<g id="pictures_1_">
			<g id="picture1_2_">
				<g id="picture1_3_">
					<path d="M64.8,364.5H40.6c-0.4,0-0.8-0.3-0.8-0.8v-32.5c0-0.4,0.3-0.7,0.7-0.7c22.7-0.7,39.3-19.2,40-20
						c0.2-0.3,0.6-0.3,0.9-0.2c0.3,0.2,0.5,0.5,0.3,0.9L65.5,364C65.4,364.3,65.1,364.5,64.8,364.5z M41.3,363h22.9l15.2-49.2
						c-5.3,5.2-19.7,17.3-38.2,18.2V363z"/>
					<path d="M232.6,261.2c-0.3,0-0.6-0.2-0.7-0.5c-5.8-14.4-14.3-26.7-25.2-36.5c-8.7-7.9-19-14.1-30.4-18.5
						c-0.3-0.1-0.5-0.4-0.5-0.7v-8.1c-4.8-2.3-9.8-4.6-14.9-6.9c-6.7-3.1-13.6-6.2-20.5-9.2l-5.5,15.3c-0.1,0.3-0.3,0.4-0.6,0.5
						c-9.1,1.7-17.9,4.5-26.2,8.4c-27.2,12.7-43.4,34-52.2,49.7c-0.2,0.3-0.6,0.5-0.9,0.3c-0.3-0.1-0.5-0.5-0.5-0.9l21-89l-0.7-0.1
						l-34.4-5.8c-0.4-0.1-0.6-0.4-0.6-0.7V69c0-0.4,0.3-0.8,0.8-0.8h192c0.4,0,0.8,0.3,0.8,0.8v191.5c0,0.4-0.3,0.7-0.6,0.7
						C232.7,261.2,232.6,261.2,232.6,261.2z M177.3,204.5c11.4,4.5,21.7,10.7,30.4,18.6c10.2,9.2,18.3,20.5,24.2,33.7V69.7H41.3
						v88.1l35.3,5.9c0.2,0,0.4,0.2,0.5,0.3c0.1,0.2,0.2,0.4,0.1,0.6l-20.1,84.9c9.3-15.3,25.2-34.2,50.4-46c8.3-3.9,17-6.7,26.1-8.4
						l5.6-15.7c0.1-0.2,0.2-0.4,0.4-0.4s0.4-0.1,0.6,0c7.1,3.1,14.3,6.3,21.3,9.5c5.2,2.4,10.4,4.8,15.3,7.1
						c0.3,0.1,0.4,0.4,0.4,0.7V204.5z"/>
					<path d="M123.9,69.7c-0.1,0-0.2,0-0.3,0c-0.4-0.1-0.6-0.6-0.4-1l12.3-33.6c0.1-0.3,0.4-0.5,0.7-0.5c0.3,0,0.6,0.2,0.7,0.5
						l13.1,33.6c0.1,0.4,0,0.8-0.4,1c-0.4,0.1-0.8,0-1-0.4l-12.3-31.8l-11.6,31.7C124.5,69.5,124.2,69.7,123.9,69.7z"/>
					<circle cx="136.2" cy="35.6" r="2.3"/>
				</g>
				<path d="M40.6,332L40.6,332c-0.4,0-0.8-0.3-0.8-0.8s0.3-0.8,0.8-0.8s0.8,0.3,0.8,0.8S41,332,40.6,332z"/>
				<path d="M40.6,159.2L40.6,159.2c-0.4,0-0.8-0.3-0.8-0.8s0.3-0.8,0.8-0.8s0.8,0.3,0.8,0.8S41,159.2,40.6,159.2z"/>
				<g id="man1_1_">
					<g>
						<path id="tshirt_2_" d="M232.6,260.5v103.3H64.8c5.4-17.6,10.9-35.2,16.3-52.7c-1.1,1.2-17.8,19.5-40.5,20.3V158.4l34.4,5.8
							l1.5,0.3c-7.1,29.9-14.1,59.8-21.2,89.8c6.7-11.9,22.6-36,52.5-50c9.5-4.4,18.6-7,26.4-8.4c1.9-5.4,3.8-10.7,5.8-16.1
							c7,3.1,14.1,6.3,21.2,9.5c5.2,2.4,10.3,4.7,15.3,7.1v8.6c9.4,3.6,20.4,9.4,30.7,18.7C219.4,234.7,227.4,247.7,232.6,260.5z"/>
						<path d="M233.3,364.5H63.8l15.7-50.7c-5.4,5.2-20.1,17.6-38.9,18.2l-0.8,0V157.5l37.6,6.3l-20.2,85.7
							c9.3-15.3,25.2-34.2,50.4-46c8.3-3.9,17-6.7,26.1-8.4l5.9-16.5l0.7,0.3c7.1,3.1,14.3,6.3,21.3,9.5c5.2,2.4,10.4,4.8,15.3,7.1
							l0.4,0.2v8.6c11.4,4.5,21.7,10.7,30.4,18.6c11.1,10,19.7,22.5,25.6,37.1l0.1,0.1V364.5z M65.8,363h166V260.6
							c-5.8-14.4-14.3-26.6-25.2-36.4c-8.7-7.9-19-14.1-30.4-18.5l-0.5-0.2v-8.6c-4.8-2.3-9.8-4.6-14.9-6.9
							c-6.7-3.1-13.6-6.2-20.5-9.2l-5.6,15.7l-0.4,0.1c-9.1,1.7-17.9,4.5-26.2,8.4c-27.2,12.7-43.4,34-52.2,49.7l-2.6,4.6l22.2-94.2
							l-0.7-0.1l-33.5-5.7v171.2c22.3-1.1,38.5-19.2,39.2-20l2.3-2.6L65.8,363z"/>
					</g>
					<g id="hand_1_">
						<path d="M67.4,156.9c-0.1,0-0.3,0-0.4-0.1c-0.3-0.2-0.5-0.7-0.2-1c4.6-7.2,13.1-20.8,17.9-30.7c1-2,3.3-6.7,1.6-8.9
							c-0.6-0.7-1.5-1.2-2.4-1.1c-2.2,0.1-3.9,3.5-5,5.7l-0.1,0.3c-2.6,5.2-5.9,10.7-9.6,16.2c0,0,0,0,0,0c-1.8,4-2,4.4-2.8,4
							c-0.2-0.1-0.4-0.3-0.4-0.5c-0.1-0.4-0.1-0.6,1.8-4l0.2-0.3c0,0,0,0,0,0c0.7-1.5,1.4-3.2,2.2-5c1.1-2.6,2-4.9,2.1-5.2
							c1-2.4,1.8-4.4,2.6-6.2c2.5-5.9,3.5-8.4,2.4-10.1c-0.7-1-1.9-1.7-2.9-1.7c-2.4,0.1-4.1,4.4-6.6,10.2l-0.2,0.5
							c-2.3,5.6-4.8,11.4-7.4,17.3c-0.2,0.4-0.6,0.6-1,0.4c-0.4-0.2-0.6-0.6-0.4-1c2.6-5.9,5.1-11.7,7.4-17.3l0.2-0.5
							c2.8-6.6,4.6-11,7.9-11.2c1.6-0.1,3.3,0.9,4.3,2.4c1.5,2.4,0.4,5.1-2.3,11.5c-0.7,1.7-1.6,3.8-2.5,6.1c-0.1,0.2-0.4,1-0.8,2.1
							c1.7-2.9,3.3-5.7,4.7-8.5l0.1-0.3c1.4-2.7,3.2-6.4,6.3-6.5c1.4-0.1,2.8,0.6,3.6,1.7c2.3,2.9-0.2,8-1.4,10.5
							c-4.9,9.9-13.4,23.6-18,30.9C67.9,156.8,67.7,156.9,67.4,156.9z"/>
						<path d="M40.6,141.5c-0.1,0-0.1,0-0.2,0c-0.4-0.1-0.7-0.5-0.6-0.9l0.1-0.4c0.8-3.5,1.8-7.7,2.9-11.7l0.2-0.6
							c0.2-0.6,0.3-1,0.8-3l0.5-2.2c1.8-7.6,2.6-11.1,5.4-11.8c1.3-0.3,3,0.1,4,1.1c1.8,1.8,1.3,4.5,0.3,9.4
							c-0.2,1.2-0.5,2.5-0.8,3.9c-0.1,0.8-0.3,1.6-0.4,2.4c1.1-3.4,2.1-6.7,3.1-9.9l0.2-0.7c1.5-5,2.7-9.3,5.9-9.9
							c1.3-0.3,2.8,0.2,3.7,1.1c2.2,2.1,1.1,5.9-1.2,13.8c-1.4,4.5-2.8,9.1-4.3,13.8c-0.1,0.4-0.5,0.6-0.9,0.5
							c-0.4-0.1-0.6-0.5-0.5-0.9c1.5-4.7,2.9-9.2,4.3-13.7c2.1-7,3.2-10.8,1.6-12.2c-0.6-0.6-1.6-0.8-2.4-0.7
							c-2.3,0.4-3.5,4.5-4.7,8.9l-0.2,0.7c-1.6,5.4-3.5,11.2-5.5,17.1c-0.1,0.4-0.5,0.6-0.9,0.5c-0.4-0.1-0.6-0.4-0.6-0.8
							c0.3-3.4,0.8-6.7,1.4-9.9c0.3-1.5,0.5-2.8,0.8-4c0.9-4.4,1.4-6.8,0.1-8c-0.7-0.7-1.8-1-2.6-0.8c-1.9,0.5-2.7,3.9-4.3,10.7
							l-0.5,2.2c-0.5,2-0.6,2.5-0.8,3.1l-0.1,0.5c-1.1,4.1-2.1,8.2-2.9,11.8l-0.1,0.4C41.2,141.3,40.9,141.5,40.6,141.5z"/>
						<path d="M74.9,165c-0.2,0-0.3-0.1-0.5-0.2c-0.3-0.3-0.4-0.7-0.1-1.1c2-2.6,4.2-4.8,6.7-6.8c0.9-0.7,1.8-1.4,2.6-2
							c2.6-1.9,4.5-3.3,4.6-5.4c0-1.1-0.5-2.5-1.5-3.2c-1.9-1.1-5.2,0.8-9,3c-2.5,1.4-4.5,3-6.1,4.2c-1.4,1.1-2.8,2.2-4.1,3.4
							c-0.3,0.2-0.6,0.3-0.9,0.1c-0.9-0.6-1.8-1.1-2.8-1.5c-1-0.4-2.6-1-4.6-1.2c-2.4-0.3-4.8,0-7.2,0.8c-0.4,0.1-0.8-0.1-0.9-0.5
							c-0.1-0.4,0.1-0.8,0.5-0.9c2.6-0.9,5.2-1.1,7.9-0.8c2.2,0.3,3.9,0.9,5,1.3c0.9,0.4,1.8,0.8,2.6,1.4c1.2-1.1,2.4-2.1,3.7-3.1
							c1.6-1.3,3.7-2.9,6.3-4.4c4.2-2.4,7.9-4.5,10.5-2.9c1.4,0.8,2.3,2.7,2.2,4.5c-0.1,2.7-2.4,4.4-5.2,6.5c-0.8,0.6-1.7,1.2-2.6,2
							c-2.4,1.9-4.5,4.1-6.4,6.5C75.4,164.9,75.2,165,74.9,165z"/>
						<path d="M67.8,143.2c-0.2,0-0.5-0.1-0.6-0.3c-1.6-2.2-3.7-4-6.1-5.2c-5.9-3-11.8-1.4-14-0.6c-0.4,0.1-0.8-0.1-1-0.5
							c-0.1-0.4,0.1-0.8,0.5-1c2.4-0.9,8.7-2.5,15.2,0.7c2.6,1.3,4.9,3.3,6.7,5.7c0.2,0.3,0.2,0.8-0.2,1
							C68.1,143.1,67.9,143.2,67.8,143.2z"/>
					</g>
					<g id="face_6_">
						<path d="M174.8,196.3c0,0-0.1,0-0.1,0c-0.4-0.1-0.7-0.4-0.6-0.9l0.2-1c0.1-0.5,0.1-0.8,0.1-0.9c0.1-0.3,1.2-7.8,1.2-8.2
							c0.1-0.4,0.3-0.6,0.7-0.6c2.7-0.1,5.3-0.6,7.9-1.5c1-0.3,6-2.2,9.8-5.8c7.8-7.4,7.4-19.1,7.2-24.8c-0.2-5.6-1.3-10.6-3.3-15.3
							c-0.5-1.1-1-2.3-1.6-3.4c-2.9-5.4-7-9.4-12.1-11.8c-1.3-0.6-12.9-5.9-23-0.6c-7.1,3.7-11.4,11.5-14.1,25.3l-0.1,0.4
							c0,0.1,0,0.2-0.1,0.3c-0.1,0.4-0.5,0.7-0.9,0.6c-0.4-0.1-0.7-0.5-0.6-0.9c0-0.1,0-0.2,0.1-0.3l0.1-0.4
							c2.8-14.3,7.4-22.4,14.9-26.4c10.8-5.7,23-0.1,24.4,0.6c5.4,2.6,9.7,6.8,12.7,12.5c0.6,1.1,1.2,2.3,1.7,3.5
							c2.1,4.9,3.3,10.1,3.4,15.9c0.2,5.9,0.6,18.1-7.7,25.9c-4.1,3.9-9.4,5.8-10.4,6.1c-2.5,0.8-5,1.4-7.7,1.5
							c-0.3,1.9-1.1,7.3-1.2,7.6c0,0.1-0.1,0.4-0.1,0.9l-0.2,1C175.4,196.1,175.1,196.3,174.8,196.3z"/>
						<path d="M141.8,181.3C141.8,181.3,141.7,181.3,141.8,181.3c-0.5-0.1-0.8-0.4-0.7-0.8c0.2-1.9,0.5-3.7,0.7-5.6l0-0.3
							c0.1-1.1,0.3-2.2,0.4-3.4c0.3-2.7,0.6-5.4,0.9-8c0-0.4,0.4-0.7,0.8-0.7c0.4,0,0.7,0.4,0.7,0.8c-0.3,2.7-0.6,5.4-0.9,8.1
							c-0.1,1.1-0.3,2.2-0.4,3.4l0,0.3c-0.2,1.9-0.4,3.7-0.7,5.6C142.5,181,142.2,181.3,141.8,181.3z"/>
					</g>
					<path d="M150.5,167c-1,0-2-0.2-2.9-0.5c-2.2-0.8-4.3-2.5-5.7-4.7c-1.7-2.7-2.2-5.8-1.3-8.7c0.4-1.2,1-2.4,1.8-3.4
						c2.7-3.5,7.4-5,11.6-3.7c1.5,0.5,2.8,1.4,2.9,1.4c0.5,0.4,0.9,0.7,1.3,1.1c1,1.1,1.8,2.4,2.2,3.9c0.1,0.4-0.1,0.8-0.5,0.9
						c-0.4,0.1-0.8-0.1-0.9-0.5c-0.4-1.3-1.1-2.4-1.9-3.3c-0.3-0.3-0.7-0.7-1.1-1l0,0c0,0-1.2-0.8-2.5-1.2c-3.7-1.1-7.7,0.1-10,3.2
						c-0.7,0.9-1.2,1.8-1.5,2.9c-1,3.2,0.1,5.8,1.1,7.5c1.2,1.9,3.1,3.4,5,4.1c0.8,0.3,1.6,0.4,2.4,0.4c0.3,0,0.6,0,0.9,0
						c0.4,0,0.8,0.3,0.8,0.7c0,0.4-0.3,0.8-0.7,0.8C151.3,166.9,150.9,167,150.5,167z"/>
					<g id="hair_6_">
						<path d="M147.9,165.7c1,0.3,1.9,0.5,2.7,0.5c-1.3,3.2-2.7,6.4-4,9.6c-1.5-0.3-3-0.6-4.5-1c0-1.1,0.1-4,0.2-5.1
							c0.1-3.4,0.2-6.2,0.3-8.4C143.9,163.5,145.9,165,147.9,165.7z"/>
						<path d="M199.1,137.2c-5.6-0.6-11.3-1.2-17-1.8c-5.2-0.6-10.3-1.2-15.4-1.8c-1.3,3.1-2.7,6.1-4,9.2c-1.2,2.8-2.5,5.7-3.7,8.5
							c-0.2-0.5-0.6-1.2-1.2-1.8c-1.6-1.8-3.4-2.5-4.1-2.7c-2.5-0.8-4.5-0.3-5.4-0.1c-3,0.8-4.8,2.7-5.5,3.5
							c-1-12.9,4.8-25,14.9-31.1c1.1-0.7,15.9-9.2,29.1-1C197,124.2,198.9,135.4,199.1,137.2z"/>
					</g>
				</g>
			</g>
			<g id="picture2_2_">
				<g id="man2_1_">
					<g>
						<path id="tshirt_1_" d="M466.9,288.8v74.9h-192v-93.7c10.5-10,23.6-19.7,39.8-27.2c12.9-6,25.1-9.4,35.7-11.4
							c2.6-7.3,5.2-14.5,7.8-21.8c0.8,0.4,1.7,0.7,2.5,1.1c8.7,3.8,17.4,7.8,26.2,11.8c6.2,2.8,12.3,5.7,18.4,8.5
							c0.8,0.4,1.6,0.7,2.4,1.1v11.6c12.7,4.9,27.5,12.7,41.5,25.3C456,275.3,461.9,281.9,466.9,288.8z"/>
						<path d="M467.6,364.5H274.1v-94.7l0.2-0.2c12-11.3,25.4-20.5,40-27.3c11.2-5.2,23.1-9.1,35.4-11.4l2.3-6.3
							c1.8-5,3.6-10,5.4-15.1l0.3-0.8l3.3,1.4c9.2,4.1,17.8,7.9,26.2,11.8c6.7,3.1,12.7,5.9,18.4,8.5l2.8,1.3v11.6
							c15.5,6.1,29.4,14.5,41.3,25.2c6.6,5.9,12.6,12.6,17.9,19.8l0.1,0.2V364.5z M275.6,363h190.5v-73.9
							c-5.2-7.1-11.1-13.6-17.5-19.4c-11.8-10.7-25.7-19.1-41.3-25.1l-0.5-0.2v-11.7l-1.9-0.9c-5.7-2.7-11.7-5.5-18.4-8.5
							c-8.4-3.8-17-7.7-26.2-11.8l-1.8-0.8c-1.7,4.8-3.4,9.5-5.1,14.3l-2.5,7.1l-0.4,0.1c-12.3,2.3-24.3,6.1-35.5,11.3
							c-14.3,6.7-27.6,15.7-39.3,26.8V363z"/>
					</g>
					<g id="face_5_">
						<path d="M405.3,231.9c0,0-0.1,0-0.1,0c-0.4-0.1-0.7-0.4-0.6-0.9l0.2-1.4c0.1-0.6,0.2-1,0.2-1.1c0.1-0.4,1.6-10.6,1.7-11
							c0.1-0.4,0.3-0.6,0.7-0.6c3.7-0.2,7.3-0.9,10.7-2c1.3-0.5,8.2-3,13.4-7.9c10.6-10.1,10.1-26,9.8-33.7
							c-0.2-7.5-1.7-14.4-4.5-20.9c-0.7-1.5-1.4-3.1-2.2-4.6c-4-7.3-9.5-12.8-16.5-16.1c-1.8-0.8-17.6-8.1-31.4-0.8
							c-9.7,5.1-15.6,15.7-19.3,34.4c0,0.2-0.1,0.4-0.1,0.5c0,0.1-0.1,0.3-0.1,0.4c-0.1,0.4-0.5,0.7-0.9,0.6
							c-0.4-0.1-0.7-0.5-0.6-0.9c0-0.1,0.1-0.3,0.1-0.4l0.1-0.5c3.8-19.2,10-30.2,20.1-35.5c14.5-7.6,30.9-0.1,32.8,0.8
							c7.3,3.5,13,9.1,17.1,16.7c0.8,1.5,1.6,3.1,2.3,4.7c2.9,6.7,4.4,13.7,4.6,21.4c0.3,7.9,0.8,24.3-10.3,34.8
							c-5.5,5.2-12.6,7.8-14,8.2c-3.4,1.2-6.9,1.9-10.5,2.1c-0.3,2.3-1.5,10.1-1.6,10.4c0,0.1-0.1,0.5-0.2,1.1l-0.2,1.4
							C405.9,231.6,405.6,231.9,405.3,231.9z"/>
						<path d="M360.7,211.6C360.6,211.6,360.6,211.6,360.7,211.6c-0.5-0.1-0.8-0.4-0.7-0.8c0.3-2.5,0.6-5,0.9-7.6l0-0.3
							c0.2-1.6,0.4-3.1,0.5-4.7c0.4-3.6,0.8-7.3,1.2-10.9c0-0.4,0.4-0.7,0.8-0.7c0.4,0,0.7,0.4,0.7,0.8c-0.4,3.6-0.8,7.3-1.2,10.9
							c-0.2,1.6-0.4,3.1-0.5,4.7l0,0.2c-0.3,2.5-0.6,5.1-0.9,7.6C361.3,211.3,361,211.6,360.7,211.6z"/>
					</g>
					<path d="M372.4,192.1c-1.3,0-2.6-0.3-3.8-0.7c-2.9-1-5.8-3.4-7.6-6.2c-2.3-3.6-2.9-7.7-1.7-11.6c0.5-1.6,1.3-3.1,2.3-4.5
						c3.6-4.7,9.8-6.6,15.5-4.9c2,0.6,3.8,1.8,3.8,1.9c0.6,0.5,1.2,1,1.7,1.5c1.3,1.4,2.4,3.2,3,5.1c0.1,0.4-0.1,0.8-0.5,0.9
						c-0.4,0.1-0.8-0.1-0.9-0.5c-0.5-1.7-1.5-3.3-2.6-4.6c-0.4-0.5-0.9-0.9-1.5-1.3l0,0c0,0-1.6-1.1-3.4-1.7
						c-5.1-1.6-10.6,0.2-13.8,4.4c-0.9,1.2-1.6,2.6-2.1,4c-1.4,4.4,0.1,8,1.5,10.3c1.7,2.6,4.2,4.7,6.9,5.6c1.1,0.4,2.2,0.6,3.4,0.6
						c0.5,0,0.9,0,1.2-0.1c0.4,0,0.8,0.3,0.8,0.7c0,0.4-0.3,0.8-0.7,0.8C373.4,192.1,373,192.1,372.4,192.1z"/>
					<g id="hair_5_">
						<path d="M368.8,190.7c1.3,0.5,2.6,0.6,3.6,0.6c-1.8,4.3-3.6,8.7-5.4,13c-2-0.4-4.1-0.9-6.1-1.3c0.1-1.4,0.2-5.4,0.2-6.9
							c0.2-4.6,0.3-8.4,0.4-11.4C363.4,187.7,366.2,189.8,368.8,190.7z"/>
						<path d="M438.1,152.3c-7.6-0.8-15.2-1.7-22.8-2.6c-7-0.8-13.9-1.6-20.8-2.5c-1.8,4.1-3.6,8.3-5.4,12.5
							c-1.7,3.8-3.3,7.7-5,11.5c-0.3-0.7-0.9-1.6-1.7-2.5c-2.1-2.4-4.6-3.4-5.6-3.7c-3.3-1.1-6.1-0.4-7.3-0.1
							c-4.1,1-6.5,3.6-7.4,4.7c-1.3-17.5,6.4-33.8,20.2-42.1c1.7-1,21.6-12.5,39.4-1.4C435.3,134.6,437.8,149.9,438.1,152.3z"/>
					</g>
				</g>
				<g id="picture2_3_">
					<path d="M466.9,289.6c-0.2,0-0.5-0.1-0.6-0.3c-5.2-7.1-11.1-13.7-17.7-19.6c-11.8-10.7-25.7-19.1-41.3-25.1
						c-0.3-0.1-0.5-0.4-0.5-0.7v-11.2l-1.9-0.9c-5.7-2.7-11.7-5.5-18.4-8.5c-8.4-3.8-17-7.7-26.2-11.8l-1.8-0.8
						c-1.7,4.8-3.4,9.5-5.1,14.3l-2.4,6.7c-0.1,0.3-0.3,0.4-0.6,0.5c-12.3,2.3-24.3,6.1-35.5,11.3c-14.4,6.7-27.7,15.8-39.6,27.1
						c-0.2,0.2-0.5,0.3-0.8,0.1c-0.3-0.1-0.5-0.4-0.5-0.7V69c0-0.4,0.3-0.8,0.8-0.8h192c0.4,0,0.8,0.3,0.8,0.8v219.8
						c0,0.3-0.2,0.6-0.5,0.7C467,289.6,467,289.6,466.9,289.6z M408.4,243.3c15.5,6.1,29.4,14.5,41.3,25.2c6,5.4,11.6,11.5,16.5,18
						V69.7H275.6v198.6c11.6-10.8,24.7-19.6,38.7-26.1c11.2-5.2,23.1-9.1,35.4-11.4l2.3-6.3c1.8-5,3.6-10,5.4-15.1
						c0.1-0.2,0.2-0.4,0.4-0.4c0.2-0.1,0.4-0.1,0.6,0l2.5,1.1c9.2,4.1,17.8,7.9,26.2,11.8c6.7,3.1,12.7,5.9,18.4,8.5l2.4,1.1
						c0.3,0.1,0.4,0.4,0.4,0.7V243.3z"/>
					<path d="M359.8,69.7c-0.1,0-0.2,0-0.3,0c-0.4-0.1-0.6-0.6-0.4-1l12.3-33.6c0.1-0.3,0.4-0.5,0.7-0.5c0.3,0,0.6,0.2,0.7,0.5
						l13.1,33.6c0.1,0.4,0,0.8-0.4,1s-0.8,0-1-0.4l-12.3-31.8l-11.6,31.7C360.4,69.5,360.1,69.7,359.8,69.7z"/>
					<circle cx="372.1" cy="35.6" r="2.3"/>
				</g>
			</g>
			<g id="picture3_2_">
				<path id="tshirt_4_" d="M654.4,363.7H509.2v-40.7c8.7-2.5,16.9-4.4,24.6-5.9c4.3-11.9,8.5-23.9,12.8-35.8
					c1.4,0.6,2.8,1.2,4.2,1.8c14.2,6.3,28.6,12.7,43.1,19.4c11.5,5.3,22.8,10.5,34.1,15.8v19.1c7.7,3,15.9,6.6,24.3,11
					C652.2,354.2,653,359.3,654.4,363.7z"/>
				<g id="face_4_">
					<path d="M624,317.4c0,0-0.1,0-0.1,0c-0.4-0.1-0.7-0.4-0.6-0.9l0.4-2.4c0.1-0.9,0.2-1.6,0.3-1.8c0.1-0.7,2.7-17.4,2.8-18.1
						c0.1-0.4,0.3-0.6,0.7-0.6c6.1-0.3,12-1.4,17.7-3.4c2.2-0.7,13.5-4.9,22.2-13.1c17.6-16.7,16.7-43.1,16.3-55.7
						c-0.4-12.5-2.8-23.7-7.4-34.4c-1.1-2.5-2.3-5.1-3.6-7.5c-6.6-12.1-15.7-21.1-27.3-26.6c-2.9-1.4-29.1-13.3-52.1-1.3
						c-16,8.4-25.8,26-31.9,56.9c-0.1,0.3-0.1,0.6-0.2,0.8c-0.1,0.2-0.1,0.5-0.1,0.6c-0.1,0.4-0.5,0.7-0.9,0.6
						c-0.4-0.1-0.7-0.5-0.6-0.9c0-0.2,0.1-0.4,0.1-0.7c0.1-0.2,0.1-0.5,0.2-0.8c6.2-31.4,16.3-49.3,32.7-58
						c23.6-12.4,50.4-0.2,53.4,1.3c11.8,5.7,21.2,14.9,27.9,27.3c1.3,2.5,2.6,5.1,3.7,7.6c4.7,10.9,7.2,22.3,7.6,35
						c0.4,12.9,1.3,39.7-16.8,56.9c-8.9,8.4-20.5,12.7-22.7,13.4c-5.6,1.9-11.5,3.1-17.5,3.4c-0.5,3.1-2.6,16.9-2.7,17.5
						c0,0.2-0.1,0.8-0.3,1.8l-0.4,2.4C624.7,317.1,624.4,317.4,624,317.4z"/>
					<path d="M550.7,284C550.7,284,550.6,284,550.7,284c-0.5-0.1-0.8-0.4-0.7-0.8c0.5-4.1,1-8.3,1.5-12.4l0-0.2
						c0.3-2.6,0.6-5.2,0.9-7.8c0.7-6,1.4-11.9,2-17.9c0-0.4,0.4-0.7,0.8-0.7c0.4,0,0.7,0.4,0.7,0.8c-0.7,6-1.3,11.9-2,17.9
						c-0.3,2.6-0.6,5.2-0.9,7.8l0,0.2c-0.5,4.2-1,8.3-1.5,12.4C551.4,283.7,551.1,284,550.7,284z"/>
				</g>
				<path d="M570.1,252.1c-2.1,0-4.2-0.4-6.2-1.1c-4.7-1.7-9.3-5.4-12.3-10c-3.7-5.8-4.7-12.4-2.7-18.6c0.8-2.6,2.1-5,3.8-7.2
					c5.8-7.5,15.8-10.7,24.9-7.9c3.3,1,6.1,2.9,6.2,3c1,0.8,1.9,1.6,2.7,2.4c2.1,2.3,3.8,5.1,4.8,8.3c0.1,0.4-0.1,0.8-0.5,0.9
					c-0.4,0.1-0.8-0.1-0.9-0.5c-0.9-2.9-2.5-5.6-4.4-7.7c-0.7-0.8-1.6-1.5-2.5-2.2c0,0-2.7-1.8-5.8-2.8c-8.5-2.6-17.8,0.3-23.3,7.3
					c-1.6,2-2.8,4.3-3.5,6.7c-1.8,5.8-0.9,12,2.6,17.3c2.8,4.4,7.1,7.9,11.5,9.4c1.8,0.6,3.7,1,5.7,1c0.8,0,1.5,0,2.1-0.1
					c0.4,0,0.8,0.3,0.8,0.7c0,0.4-0.3,0.8-0.7,0.8C571.7,252,570.9,252.1,570.1,252.1z"/>
				<g id="hair_4_">
					<path d="M564.2,250.3c2.2,0.8,4.2,1,5.9,1c-3,7.1-5.9,14.3-8.9,21.4c-3.3-0.7-6.7-1.4-10-2.1c0.1-2.4,0.3-8.9,0.4-11.3
						c0.3-7.6,0.5-13.7,0.7-18.7C555.3,245.2,559.8,248.7,564.2,250.3z"/>
					<path d="M677.5,186.8c-12.2-1.2-24.6-2.6-37-4c-11.5-1.3-22.9-2.7-34.1-4.1c-3,6.8-5.9,13.6-8.9,20.5
						c-2.7,6.3-5.5,12.6-8.2,18.9c-0.6-1.1-1.4-2.6-2.8-4.1c-3.5-4-7.6-5.5-9.2-6c-5.5-1.7-10.1-0.6-11.9-0.1
						c-6.7,1.7-10.7,6-12.1,7.7c-2.1-28.7,10.6-55.6,33.2-69.2c2.8-1.7,35.6-20.7,64.8-2.2C673.1,158,676.9,182.8,677.5,186.8z"/>
				</g>
				<g id="picture3_3_">
					<path d="M654.3,364.5H509.2c-0.4,0-0.8-0.3-0.8-0.8V69c0-0.4,0.3-0.8,0.8-0.8h192c0.4,0,0.8,0.3,0.8,0.8v227.8
						c0,0.4-0.3,0.8-0.8,0.8s-0.8-0.3-0.8-0.8v-227H509.9V363h143.4c-1.2-4.4-1.9-9.2-1.9-14.4c0-0.4,0.3-0.8,0.7-0.8c0,0,0,0,0,0
						c0.4,0,0.7,0.3,0.8,0.7c0,5.5,0.7,10.5,2.1,15c0.1,0.2,0,0.5-0.1,0.7C654.8,364.4,654.6,364.5,654.3,364.5z"/>
					<path d="M592.5,69.7c-0.1,0-0.2,0-0.3,0c-0.4-0.1-0.6-0.6-0.4-1l12.3-33.6c0.1-0.3,0.4-0.5,0.7-0.5c0.3,0,0.6,0.2,0.7,0.5
						l13.1,33.6c0.1,0.4,0,0.8-0.4,1s-0.8,0-1-0.4l-12.3-31.8l-11.6,31.7C593.1,69.5,592.8,69.7,592.5,69.7z"/>
					<circle cx="604.9" cy="35.6" r="2.3"/>
				</g>
			</g>
		</g>
	</g>
</g>
</svg>
