<?xml version="1.0" encoding="utf-8"?>
<!-- Generator: Adobe Illustrator 22.1.0, SVG Export Plug-In . SVG Version: 6.00 Build 0)  -->
<svg version="1.1" xmlns="http://www.w3.org/2000/svg" xmlns:xlink="http://www.w3.org/1999/xlink" x="0px" y="0px"
	 viewBox="0 0 1167.1 929.5" style="enable-background:new 0 0 1167.1 929.5;" xml:space="preserve">
<style type="text/css">
	.st0{fill:#FFDEE9;}
	.st1{fill:#762AE2;}
</style>
<g id="background">
	<g id="background_1_">
		<path d="M789.6,184.7c-11.3,0-23.1-8.7-35.3-25.7c-0.2-0.3-0.2-0.8,0.2-1c0.3-0.2,0.8-0.2,1,0.2c12.3,17.2,24.1,25.7,35.2,25.1
			c9-0.5,15.2-6.6,21.8-13.1c6.6-6.5,13.4-13.2,23.3-13.7c11-0.5,22.4,6.8,33.9,21.9c0.3,0.3,0.2,0.8-0.1,1.1
			c-0.3,0.3-0.8,0.2-1.1-0.1c-11.2-14.6-22.2-21.8-32.6-21.3c-9.3,0.5-15.9,7-22.3,13.2c-6.5,6.4-13.2,13-22.8,13.5
			C790.4,184.7,790,184.7,789.6,184.7z"/>
		<path d="M187.3,104.5c-9.3,0-19.1-7.1-29.1-21.2c-0.2-0.3-0.2-0.8,0.2-1c0.3-0.2,0.8-0.2,1,0.2c10.1,14.1,19.8,21,28.8,20.6
			c7.4-0.4,12.5-5.4,17.8-10.7c5.4-5.3,11-10.9,19.2-11.3c9.1-0.4,18.5,5.6,28,18c0.3,0.3,0.2,0.8-0.1,1.1c-0.3,0.3-0.8,0.2-1.1-0.1
			c-9.2-12-18.1-17.9-26.7-17.4c-7.6,0.4-12.8,5.5-18.2,10.8c-5.3,5.3-10.9,10.7-18.8,11.1C187.9,104.5,187.6,104.5,187.3,104.5z"/>
		<path d="M125.1,661.5c-0.1,0-0.1,0-0.2,0c-0.2-0.1-0.4-0.2-0.5-0.3l-12.9-22.4c-0.2-0.4-0.1-0.8,0.3-1l22.4-12.9
			c0.2-0.1,0.4-0.1,0.6-0.1c0.2,0.1,0.4,0.2,0.5,0.3l12.9,22.4c0.2,0.4,0.1,0.8-0.3,1l-22.4,12.9
			C125.4,661.5,125.2,661.5,125.1,661.5z M113.2,638.6l12.2,21.1l21.1-12.2l-12.2-21.1L113.2,638.6z"/>
		<path d="M907.7,52.8c-0.3,0-0.5-0.2-0.7-0.4l-8.6-17.5c-0.2-0.4,0-0.8,0.3-1l17.5-8.6c0.4-0.2,0.8,0,1,0.3l8.6,17.5
			c0.1,0.2,0.1,0.4,0,0.6c-0.1,0.2-0.2,0.3-0.4,0.4L908,52.7C907.9,52.7,907.8,52.8,907.7,52.8z M900.1,34.9L908,51l16.2-7.9
			l-7.9-16.2L900.1,34.9z"/>
		<path d="M23.3,905.4c-0.1,0-0.2,0-0.2,0c-0.2-0.1-0.3-0.2-0.4-0.4l-3.6-7.4c-0.1-0.2-0.1-0.4,0-0.6c0.1-0.2,0.2-0.3,0.4-0.4
			l7.4-3.6c0.4-0.2,0.8,0,1,0.3l3.6,7.4c0.2,0.4,0,0.8-0.3,1l-7.4,3.6C23.6,905.3,23.5,905.4,23.3,905.4z M20.7,897.6l3,6l6-3l-3-6
			L20.7,897.6z"/>
		<path d="M1063.4,574.7c-0.2,0-0.5-0.1-0.6-0.3c-0.2-0.3-0.1-0.8,0.2-1l20.4-13c0.3-0.2,0.8-0.1,1,0.2c0.2,0.3,0.1,0.8-0.2,1
			l-20.4,13C1063.7,574.6,1063.6,574.7,1063.4,574.7z"/>
		<path d="M1062.1,706.4c-0.2,0-0.4-0.1-0.5-0.2l-17.5-16.8c-0.3-0.3-0.3-0.8,0-1.1c0.3-0.3,0.8-0.3,1.1,0l17.5,16.8
			c0.3,0.3,0.3,0.8,0,1.1C1062.5,706.3,1062.3,706.4,1062.1,706.4z"/>
		<path d="M1092.2,403.5c-0.1,0-0.3,0-0.4-0.1c-0.3-0.2-0.4-0.7-0.2-1l14-19.8c0.2-0.3,0.7-0.4,1-0.2c0.3,0.2,0.4,0.7,0.2,1
			l-14,19.8C1092.7,403.4,1092.4,403.5,1092.2,403.5z"/>
		<path d="M608.3,93.5c-0.2,0-0.4-0.1-0.6-0.3c-0.3-0.3-0.2-0.8,0.1-1.1l18.3-15.9c0.3-0.3,0.8-0.2,1.1,0.1c0.3,0.3,0.2,0.8-0.1,1.1
			l-18.3,15.9C608.7,93.4,608.5,93.5,608.3,93.5z"/>
		<path d="M430.4,22.8c-0.3,0-0.5-0.1-0.7-0.4L418.1,1.1c-0.2-0.4-0.1-0.8,0.3-1c0.4-0.2,0.8-0.1,1,0.3L431,21.6
			c0.2,0.4,0.1,0.8-0.3,1C430.6,22.7,430.5,22.8,430.4,22.8z"/>
		<path d="M967.5,442.8c-0.2,0-0.5-0.1-0.6-0.3l-14.2-19.6c-0.2-0.3-0.2-0.8,0.2-1c0.3-0.2,0.8-0.2,1,0.2l14.2,19.6
			c0.2,0.3,0.2,0.8-0.2,1C967.8,442.7,967.7,442.8,967.5,442.8z"/>
		<path d="M883.1,275.3c-0.1,0-0.2,0-0.4-0.1c-0.4-0.2-0.5-0.6-0.3-1l11.3-21.4c0.2-0.4,0.6-0.5,1-0.3c0.4,0.2,0.5,0.6,0.3,1
			l-11.3,21.4C883.6,275.2,883.4,275.3,883.1,275.3z"/>
		<path d="M73.2,166.7c-0.2,0-0.4-0.1-0.5-0.2l-16.6-17.6c-0.3-0.3-0.3-0.8,0-1.1c0.3-0.3,0.8-0.3,1.1,0l16.6,17.6
			c0.3,0.3,0.3,0.8,0,1.1C73.6,166.7,73.4,166.7,73.2,166.7z"/>
		<path d="M227.8,408.2c-0.3,0-0.6-0.2-0.7-0.5l-9.6-22.3c-0.2-0.4,0-0.8,0.4-1c0.4-0.2,0.8,0,1,0.4l9.6,22.3c0.2,0.4,0,0.8-0.4,1
			C228,408.2,227.9,408.2,227.8,408.2z"/>
		<path d="M223,577.9c-0.2,0-0.3,0-0.4-0.1c-0.3-0.2-0.4-0.7-0.2-1l14.4-19.5c0.2-0.3,0.7-0.4,1-0.2c0.3,0.2,0.4,0.7,0.2,1
			l-14.4,19.5C223.4,577.8,223.2,577.9,223,577.9z"/>
		<path d="M367.2,555.1c-0.1,0-0.3,0-0.4-0.1l-20.2-13.4c-0.3-0.2-0.4-0.7-0.2-1c0.2-0.3,0.7-0.4,1-0.2l20.2,13.4
			c0.3,0.2,0.4,0.7,0.2,1C367.7,554.9,367.5,555.1,367.2,555.1z"/>
		<path d="M94.3,508.7c-0.1,0-0.3,0-0.4-0.1l-21.1-11.9c-0.4-0.2-0.5-0.7-0.3-1c0.2-0.4,0.7-0.5,1-0.3l21.1,11.9
			c0.4,0.2,0.5,0.7,0.3,1C94.8,508.5,94.6,508.7,94.3,508.7z"/>
		<path d="M39,731.4c-0.3,0-0.7-0.2-0.7-0.6c-0.1-0.4,0.2-0.8,0.6-0.9l23.7-4.9c0.4-0.1,0.8,0.2,0.9,0.6c0.1,0.4-0.2,0.8-0.6,0.9
			l-23.7,4.9C39.1,731.4,39,731.4,39,731.4z"/>
		<path d="M142.6,845.9c-0.1,0-0.3,0-0.4-0.1c-0.3-0.2-0.4-0.7-0.2-1l13.4-20.2c0.2-0.3,0.7-0.4,1-0.2c0.3,0.2,0.4,0.7,0.2,1
			l-13.4,20.2C143.1,845.8,142.8,845.9,142.6,845.9z"/>
		<path d="M1011.4,879.6c-0.3,0-0.6-0.2-0.7-0.5c-0.1-0.4,0-0.8,0.4-1l22.6-8.8c0.4-0.1,0.8,0,1,0.4c0.1,0.4,0,0.8-0.4,1l-22.6,8.8
			C1011.5,879.6,1011.5,879.6,1011.4,879.6z"/>
		<path d="M134.3,298.6c-0.2,0-0.3-0.1-0.5-0.2c-0.3-0.3-0.4-0.7-0.1-1.1l15-19c0.3-0.3,0.7-0.4,1.1-0.1c0.3,0.3,0.4,0.7,0.1,1.1
			l-15,19C134.7,298.5,134.5,298.6,134.3,298.6z"/>
		<path d="M1044.5,140.6c-0.2,0-0.4-0.1-0.6-0.3c-0.3-0.3-0.2-0.8,0.1-1.1l19.1-15c0.3-0.3,0.8-0.2,1.1,0.1c0.3,0.3,0.2,0.8-0.1,1.1
			l-19.1,15C1044.8,140.6,1044.6,140.6,1044.5,140.6z"/>
		<circle class="st0" cx="1022.7" cy="288.4" r="16.5"/>
		<circle class="st0" cx="732.9" cy="48.8" r="9.9"/>
		<circle class="st0" cx="320.8" cy="259.5" r="14"/>
		<path d="M931.8,557.3c-4.3,0-7.8-3.5-7.8-7.8s3.5-7.8,7.8-7.8s7.8,3.5,7.8,7.8S936.1,557.3,931.8,557.3z M931.8,543.3
			c-3.4,0-6.2,2.8-6.2,6.3s2.8,6.3,6.2,6.3c3.4,0,6.3-2.8,6.3-6.3S935.3,543.3,931.8,543.3z"/>
		<path d="M7.8,386c-4.3,0-7.8-3.5-7.8-7.8s3.5-7.8,7.8-7.8s7.8,3.5,7.8,7.8S12,386,7.8,386z M7.8,372c-3.4,0-6.3,2.8-6.3,6.3
			s2.8,6.3,6.3,6.3s6.3-2.8,6.3-6.3S11.2,372,7.8,372z"/>
		<circle class="st0" cx="362.6" cy="422.4" r="7"/>
		<circle class="st0" cx="1160.1" cy="817" r="7"/>
		<path d="M408.3,136.6c-0.1,0-0.2,0-0.3-0.1l-25.5-10.1c-0.4-0.2-0.6-0.6-0.4-1l10.1-25.5c0.1-0.2,0.2-0.3,0.4-0.4
			c0.2-0.1,0.4-0.1,0.6,0l25.5,10.1c0.2,0.1,0.3,0.2,0.4,0.4c0.1,0.2,0.1,0.4,0,0.6L409,136.1C408.9,136.4,408.6,136.6,408.3,136.6z
			 M383.7,125.3l24.2,9.5l9.5-24.2l-24.2-9.5L383.7,125.3z"/>
	</g>
</g>
<g id="general_1_">
	<g id="general">
		<g id="aquarium">
			<g>
				<path d="M509.5,661.9c-22,9.5-37.3,20-70.8,14.8c-7.4-1.2-13.9-2.8-19.8-4.8c-0.3-18.7,0.1-40.1,2-63.7h86.8L509.5,661.9z"/>
				<path d="M455.6,678.8c-5.1,0-10.7-0.4-17-1.4c-7.1-1.1-13.6-2.7-20-4.8c-0.3-0.1-0.5-0.4-0.5-0.7c-0.3-21.3,0.3-42.7,2-63.8
					c0-0.4,0.4-0.7,0.7-0.7h86.8c0.4,0,0.7,0.3,0.7,0.7l1.8,53.7c0,0.3-0.2,0.6-0.5,0.7c-3.2,1.4-6.2,2.8-9.2,4.1
					C486.7,673.1,474.2,678.8,455.6,678.8z M419.6,671.3c6.1,2,12.4,3.5,19.2,4.6c28.4,4.4,43.6-2.5,61.2-10.6
					c2.8-1.3,5.7-2.6,8.7-3.9l-1.8-52.5h-85.4C420,629.5,419.3,650.5,419.6,671.3z"/>
			</g>
			<g>
				<path d="M681.7,681.8c-34.7-10.6-59.2-34.7-117.2-32.4c-24.9,1-41.3,6.5-55,12.4l-1.8-53.7h137.2
					C662.7,629,675.6,654.1,681.7,681.8z"/>
				<path d="M681.7,682.6c-0.1,0-0.1,0-0.2,0c-10.6-3.2-20.1-7.6-30.1-12.3c-22.9-10.7-46.6-21.7-86.9-20.1
					c-25.3,1-41.9,6.8-54.8,12.4c-0.2,0.1-0.5,0.1-0.7-0.1c-0.2-0.1-0.3-0.4-0.3-0.6l-1.8-53.7c0-0.2,0.1-0.4,0.2-0.5
					c0.1-0.1,0.3-0.2,0.5-0.2h137.2c0.2,0,0.4,0.1,0.6,0.3c18.2,21.3,31,46.9,37,74c0.1,0.3,0,0.5-0.2,0.7
					C682.1,682.5,681.9,682.6,681.7,682.6z M572.2,648.5c36,0,58.2,10.4,79.8,20.4c9.6,4.5,18.7,8.7,28.7,11.8
					c-6.1-26.3-18.6-51.2-36.2-71.8H508.5l1.8,51.8c12.9-5.5,29.4-11.1,54.3-12.1C567.1,648.6,569.7,648.5,572.2,648.5z"/>
			</g>
			<path class="st1" d="M646.7,722.2c-5.3,7.8,0,29.9,0,29.9c-19.9,1.4-39.6,4.4-54.3,8.4c-5.1-6.4-12.8-14.5-23.8-21.4
				c-6.6-4.1-18.3-11.5-22.4-8.2c-3,2.5-2.6,11.6,13.3,41.3c-27.8,24.9-30.1,33.2-28.2,36.3c4,6.6,33.1,0.9,54-14.5
				c2.5-1.8,4.6-3.6,6.2-5c15.3,4.9,36.4,8.9,58,10.5c0,0-6.3,8.9-5.1,16.1c0.5,2.8,6.1,1.1,13-2c-30.6,46-82.9,76.3-142.3,76.3
				c-33.2,0-64.1-9.5-90.4-25.8c3.4-2.6,5.3-5.3,5.3-8.2c0-7.2-12.8-13.7-28-17.9h0c-2.1-0.9-7.8-3.3-15.1-5.9
				c-26.6-30.1-42.7-69.7-42.7-113c0-27.3,6.4-53.2,17.8-76.1c6.3-12.6,14-24.3,23.1-34.8h35.9c-1.9,23.6-2.3,45.1-2,63.7
				c5.9,2,12.5,3.6,19.8,4.8c33.5,5.2,48.8-5.3,70.8-14.8c13.7-5.9,30.1-11.5,55-12.4c58-2.3,82.5,21.9,117.2,32.4
				c2.7,12,4.1,24.5,4.1,37.2c0,6.4-0.4,12.7-1,19C668.6,728.1,649.6,717.9,646.7,722.2z"/>
		</g>
		<g id="waves">
			<path d="M946.9,691.7c-0.1,0-0.2,0-0.4-0.1c-9.8-5.4-20.1-10.3-30.6-14.3c-19.4-7.5-49-17.4-82.1-16.9
				c-26.5,0.5-41.5,6.5-57.3,12.8c-11.5,4.6-23.4,9.4-40.4,12.2c-19.9,3.3-37.2,2.4-54.6-2.9c-0.4-0.1-0.6-0.5-0.5-0.9
				c0.1-0.4,0.5-0.6,0.9-0.5c17.1,5.2,34.2,6.1,53.9,2.9c16.8-2.8,28.7-7.5,40.1-12.1c16-6.4,31.1-12.4,57.9-12.9
				c33.4-0.6,63.2,9.4,82.7,17c10.5,4.1,20.9,8.9,30.8,14.4c0.4,0.2,0.5,0.7,0.3,1C947.5,691.6,947.2,691.7,946.9,691.7z"/>
			<path d="M226.8,676.6c-0.2,0-0.4-0.1-0.6-0.3c-0.3-0.3-0.2-0.8,0.1-1.1c37-29.8,73.3-43.2,108-39.9c9.9,0.9,19,3.2,27.9,6.9
				c8.5,3.5,15.7,7.8,23.4,12.4c9.9,5.9,20.2,12,33.5,16.4c0.4,0.1,0.6,0.6,0.5,0.9c-0.1,0.4-0.6,0.6-0.9,0.5
				c-13.5-4.5-23.8-10.6-33.8-16.6c-7.6-4.6-14.9-8.9-23.2-12.3c-8.8-3.6-17.7-5.8-27.4-6.8c-34.3-3.2-70.2,10.1-106.9,39.6
				C227.1,676.6,227,676.6,226.8,676.6z"/>
			<path d="M953.2,807.6c-0.1,0-0.2,0-0.4-0.1c-9.8-5.4-20.1-10.2-30.6-14.3c-24.3-9.5-51.8-20.2-82-16.9
				c-17.1,1.9-26.7,7.3-37,13.1c-10.8,6.1-21.9,12.4-42.5,15c-23.8,3.1-44.3-0.7-48.1-1.5c-4.5-0.9-9-2.1-13.4-3.5
				c-0.4-0.1-0.6-0.5-0.5-0.9s0.5-0.6,0.9-0.5c4.3,1.4,8.8,2.5,13.3,3.4c3.8,0.8,24.1,4.6,47.6,1.5c20.3-2.6,31.3-8.9,42-14.9
				c10.4-5.9,20.2-11.4,37.6-13.3c30.6-3.4,58.3,7.4,82.8,17c10.5,4.1,20.9,9,30.8,14.4c0.4,0.2,0.5,0.7,0.3,1
				C953.7,807.5,953.5,807.6,953.2,807.6z"/>
			<path d="M461.8,794.7c-5.1,0-10.7-0.4-17-1.4c-24.2-3.8-39.2-12.7-53.8-21.4c-13.1-7.8-25.5-15.2-43.8-18.2
				c-2.2-0.4-4.5-0.7-6.9-0.9c-34.3-3.2-70.2,10.1-106.9,39.6c-0.3,0.3-0.8,0.2-1.1-0.1c-0.3-0.3-0.2-0.8,0.1-1.1
				c37-29.8,73.3-43.2,108-39.9c2.4,0.2,4.7,0.5,7,0.9c18.6,3,31.1,10.5,44.3,18.4c14.4,8.6,29.3,17.4,53.2,21.2
				c28.4,4.4,43.6-2.5,61.2-10.6c13-6,27.7-12.7,50-15.5c0.4-0.1,0.8,0.2,0.8,0.7c0.1,0.4-0.2,0.8-0.7,0.8
				c-22,2.7-36.6,9.4-49.5,15.3C492.9,788.9,480.5,794.7,461.8,794.7z"/>
			<path d="M956.4,915.4c-0.1,0-0.2,0-0.4-0.1c-9.8-5.4-20.1-10.2-30.6-14.3c-13.6-5.3-34.5-12.6-58.5-15.6c-0.4,0-0.7-0.4-0.7-0.8
				c0-0.4,0.4-0.7,0.8-0.7c24.1,3,45.1,10.4,58.8,15.7c10.6,4.1,20.9,8.9,30.8,14.4c0.4,0.2,0.5,0.7,0.3,1
				C956.9,915.2,956.7,915.4,956.4,915.4z"/>
			<path d="M824,885.6c-0.4,0-0.8-0.3-0.8-0.8c0-0.4,0.3-0.7,0.7-0.7c6.1-0.9,12.4-1.4,19.3-1.5c5.1-0.1,10.3,0.1,15.5,0.5
				c0.4,0,0.7,0.4,0.7,0.8c0,0.4-0.3,0.7-0.7,0.7h0c-5.2-0.4-10.4-0.6-15.5-0.5c-6.9,0.1-13.1,0.6-19.2,1.5
				C824.1,885.6,824.1,885.6,824,885.6z"/>
			<path d="M720.4,911C720.4,911,720.4,911,720.4,911c-24-0.6-41.3-8.6-59.5-17.1c-19.8-9.2-40.3-18.7-71.7-20.1
				c-4.9-0.2-10-0.2-15.1,0c-30.5,1.2-48.3,9.3-63.9,16.5l-0.6,0.3c-16.8,7.7-32.6,15-61.5,10.4c-24.2-3.8-39.3-12.7-53.8-21.4
				l-1.4-0.9c-0.4-0.2-0.5-0.7-0.3-1s0.7-0.5,1-0.3l1.4,0.9c14.4,8.6,29.3,17.5,53.2,21.2c28.4,4.4,44-2.7,60.6-10.3l0.6-0.3
				c15.8-7.2,33.6-15.4,64.5-16.6c5.2-0.2,10.3-0.2,15.3,0c31.7,1.4,52.3,11,72.3,20.2c18.1,8.4,35.2,16.4,58.9,17
				c0.4,0,0.7,0.4,0.7,0.8C721.1,910.7,720.8,911,720.4,911z"/>
			<path d="M236.3,900.3c-0.2,0-0.4-0.1-0.6-0.3c-0.3-0.3-0.2-0.8,0.1-1.1c19.6-15.7,39.1-27,58.1-33.5c0.4-0.1,0.8,0.1,1,0.5
				c0.1,0.4-0.1,0.8-0.5,1c-18.8,6.4-38.2,17.6-57.7,33.3C236.6,900.2,236.4,900.3,236.3,900.3z"/>
		</g>
		<g>
			<path id="pack_1_" d="M617.9,483.9c0.4-0.1,0.9-0.1,1.6-0.2c2.2-0.1,4.4-0.1,6.6-0.2c-2.6,2-5.3,4-7.9,6c-1.3,1.1-3,2.7-4.6,5
				c-0.1,0.1-0.5,0.8-1,1.6c-3.4,6.2-3.3,12.2-3.2,19.2c0,0.6,0.1,5.1,0.9,9.8l-33.2,18.3c-3.2-4.1-4.9-7.7-5.8-10.2
				c-1.8-5-1.2-7-3.6-10.8c-2.2-3.6-3.6-3.1-6.1-6.9c-2.1-3.2-2.5-6.7-3.7-9.7c-0.7-1.8-2.1-4.2-5-6.7c-0.6,1.1-1.4,2.9-1.6,5.1
				c-0.3,3.6,1.2,5.1,2.2,9.4c1.3,5.5-0.7,5.5,0.5,11.6c0.9,4.4,2,5.1,2.1,8.9c0.1,3.1-0.6,3.9-0.7,6.8c-0.1,2.4,0.2,5.7,2.2,9.9
				l-13,1.3l-6.1-58.2l13-1.2c21.5-11.8,42.9-23.7,64.4-35.5l6.7,12.1c-5.3,0.1-8.4,0.3-12.1,2.1c-2.4,1.1-5.4,3.1-13.3,15.6
				c-12.8,20.1-10.7,23.9-10,24.9c0.2,0.3,0.9,1.2,2.1,1.5c0.8,0.2,4.8-0.2,11.8-9.2c7.1-9.1,10.7-15.3,10.7-15.3
				c0.4-0.6,1.1-1.9,2.3-3c0.5-0.5,1.2-0.9,1.9-1.3C616.6,484.2,617.2,484,617.9,483.9z"/>
			<path d="M544.6,552.7c-0.4,0-0.7-0.3-0.7-0.7l-6.1-58.2c0-0.2,0-0.4,0.2-0.6c0.1-0.2,0.3-0.3,0.5-0.3l12.9-1.2l19.4-10.7
				c15-8.2,29.9-16.5,44.9-24.8c0.2-0.1,0.4-0.1,0.6-0.1c0.2,0.1,0.4,0.2,0.4,0.4l6.7,12.1c0.1,0.2,0.1,0.5,0,0.7
				c-0.1,0.2-0.4,0.4-0.6,0.4c-5.1,0.1-8.2,0.3-11.8,2c-2.4,1.2-5.3,3.3-13,15.3c-11.6,18.2-10.9,22.9-10.1,24.1
				c0.6,0.8,1.2,1.1,1.7,1.2c0,0,3.7,0.5,11-8.9c6.9-9,10.6-15.1,10.7-15.2c0.4-0.7,1.2-2,2.5-3.2c0.6-0.6,1.3-1,2.1-1.4
				c0.7-0.3,1.3-0.5,2-0.6c0.4-0.1,1-0.1,1.6-0.2l6.7-0.2c0.4,0,0.6,0.2,0.7,0.5c0.1,0.3,0,0.6-0.3,0.8l-7.9,6
				c-1.7,1.4-3.2,3-4.4,4.8c-0.3,0.5-0.7,1-0.9,1.5c-3.3,6.1-3.2,12-3.1,18.8c0,1.2,0.2,5.4,0.9,9.6c0.1,0.3-0.1,0.6-0.4,0.8
				l-33.2,18.3c-0.3,0.2-0.7,0.1-0.9-0.2c-2.6-3.3-4.6-6.8-5.9-10.4c-0.8-2.1-1.1-3.6-1.4-5c-0.4-1.9-0.8-3.5-2.1-5.6
				c-1.1-1.7-1.9-2.4-2.8-3.2c-1-0.8-2-1.7-3.3-3.7c-1.4-2.1-2.1-4.4-2.7-6.5c-0.3-1.2-0.7-2.3-1.1-3.3c-0.9-2.1-2.2-4-4-5.8
				c-0.6,1.3-0.9,2.6-1.1,3.9c-0.2,2.1,0.3,3.4,0.9,5.2c0.4,1.1,0.8,2.3,1.2,4c0.7,2.8,0.5,4.3,0.3,5.8c-0.2,1.4-0.3,2.9,0.2,5.8
				c0.4,1.8,0.8,2.9,1.1,4c0.5,1.5,1,2.7,1,5.1c0,1.8-0.2,2.9-0.4,3.9c-0.2,0.8-0.3,1.7-0.4,3c-0.1,3.1,0.6,6.3,2.1,9.6
				c0.1,0.2,0.1,0.5,0,0.7s-0.3,0.4-0.6,0.4L544.6,552.7C544.7,552.7,544.7,552.7,544.6,552.7z M539.4,494.4l5.9,56.7l11.2-1.2
				c-1.3-3.2-1.9-6.3-1.8-9.3c0-1.4,0.2-2.3,0.4-3.2c0.2-1,0.4-1.9,0.3-3.6c-0.1-2.1-0.4-3.2-0.9-4.6c-0.4-1.1-0.8-2.3-1.2-4.2
				c-0.6-3.2-0.4-4.8-0.3-6.3c0.2-1.4,0.3-2.7-0.3-5.3c-0.4-1.6-0.8-2.7-1.2-3.8c-0.7-1.8-1.2-3.4-1-5.9c0.2-1.8,0.7-3.6,1.7-5.3
				c0.1-0.2,0.3-0.3,0.5-0.4c0.2,0,0.5,0,0.6,0.2c2.4,2.1,4.1,4.4,5.2,7c0.5,1.1,0.8,2.3,1.2,3.5c0.6,2.1,1.2,4.2,2.5,6.1
				c1.2,1.8,2.1,2.6,3,3.4c0.9,0.8,1.9,1.7,3.1,3.6c1.5,2.4,1.9,4.1,2.3,6.1c0.3,1.3,0.6,2.9,1.4,4.8c1.2,3.3,3,6.5,5.3,9.5
				l32.2-17.7c-0.7-4.2-0.8-8.2-0.8-9.3c-0.1-7-0.2-13.1,3.3-19.5c0.3-0.5,0.6-1.1,1-1.6c1.3-2,2.9-3.7,4.7-5.2l6.1-4.6l-4.3,0.1
				c-0.6,0.1-1,0.1-1.5,0.2c0,0,0,0,0,0c-0.6,0.1-1.1,0.3-1.7,0.5c-0.6,0.3-1.2,0.7-1.8,1.2c-1.1,1-1.8,2.1-2.2,2.7
				c-0.1,0.1-3.8,6.4-10.8,15.4c-6.5,8.4-11,9.9-12.6,9.4c-0.7-0.2-1.6-0.7-2.5-1.8c-2.2-3.2,1.1-11.8,10-25.8
				c7.9-12.3,11-14.6,13.6-15.8c3.6-1.7,6.7-2,11.2-2.1l-5.7-10.3c-14.7,8.1-29.5,16.3-44.2,24.4L552,493.2c-0.1,0-0.2,0.1-0.3,0.1
				L539.4,494.4z M617.9,483.9L617.9,483.9L617.9,483.9z"/>
		</g>
		<g id="woman">
			<g id="tshirt">
				<g>
					<path d="M420.9,608.9C420.8,608.9,420.8,608.9,420.9,608.9c-0.5,0-0.8-0.4-0.7-0.8c1.8-22.7,4.7-45.5,8.7-67.7
						c14.4-80,24.9-137.8,74-190.3c2-2.2,4.8-5.1,8.5-8.7l0.4-0.4c8.6-8.3,17.9-16.2,27.7-23.3c0.3-0.2,0.8-0.2,1,0.2
						c0.2,0.3,0.2,0.8-0.2,1c-9.7,7.1-19,14.9-27.5,23.2l-0.4,0.4c-3.6,3.5-6.4,6.5-8.4,8.6c-48.9,52.1-59.3,109.7-73.7,189.5
						c-4,22.2-6.9,45-8.7,67.6C421.6,608.6,421.2,608.9,420.9,608.9z"/>
					<path d="M702.3,565.9c-0.1,0-0.3,0-0.4-0.1c-0.2-0.1-0.3-0.4-0.3-0.6l-3.1-79.2c0-0.2,0.1-0.4,0.2-0.5c0.1-0.1,0.1-0.1,0.2-0.1
						c15.3-10,30.7-20.1,46-30.1l16.9-11.1c2.1-1.4,43.3-28.3,43.8-28.7l13.6-8.9c0.3-0.2,0.8-0.1,1,0.2c0.2,0.3,0.1,0.8-0.2,1
						l-13.6,8.9c-0.5,0.3-41.7,27.3-43.8,28.7l-16.9,11.1c-15.2,10-30.5,19.9-45.7,29.9l3,77.7c10.2-4.1,51.7-21.2,94.3-41.9
						c43.6-21.2,74.9-39.5,92.8-54.4c14.3-11.9,22.1-23.4,24.8-36.4c1.5-7.2,2.3-22.5-8.5-43.3c-14-26.9-42.7-52.7-80.7-72.7
						c-38.4-20.3-85.1-33.8-131.5-38.3c-14.8-1.4-27.6-2.6-44.9-1c-7.9,0.7-15.8,1.9-23.6,3.6c-3.4,0.7-6.9,1.6-10.4,2.5l-0.3,0.1
						c-3.3,0.9-7.4,2-11.8,3.6c-1.5,0.5-6,2.2-9.6,3.5l-0.2,0.1c-0.4,0.1-0.8-0.1-1-0.4c-0.1-0.4,0.1-0.8,0.4-1l0.2-0.1
						c3.6-1.3,8.1-3,9.6-3.5c4.5-1.6,8.6-2.7,11.9-3.6l0.3-0.1c3.5-1,7.1-1.8,10.5-2.5c7.9-1.7,15.9-2.9,23.8-3.6
						c17.5-1.6,30.3-0.4,45.2,1c46.5,4.4,93.4,18.1,132,38.4c38.3,20.2,67.2,46.2,81.4,73.4c11.1,21.2,10.2,36.9,8.7,44.3
						c-2.7,13.3-10.8,25.1-25.3,37.2c-18,15-49.4,33.4-93.1,54.6c-44.2,21.5-87.2,39-95.4,42.3C702.5,565.9,702.4,565.9,702.3,565.9
						z"/>
					<path d="M507.7,608.9c-0.4,0-0.7-0.3-0.7-0.7l-5.7-166.7c0-0.4,0.3-0.8,0.7-0.8c0.4,0,0.8,0.3,0.8,0.7l5.7,166.7
						C508.4,608.5,508.1,608.9,507.7,608.9C507.7,608.9,507.7,608.9,507.7,608.9z"/>
					<path d="M860.4,661.9c-0.3,0-0.6-0.2-0.7-0.4L797,523.2c-0.2-0.4,0-0.8,0.4-1c0.4-0.2,0.8,0,1,0.4l62.7,138.3
						c0.2,0.4,0,0.8-0.4,1C860.6,661.9,860.5,661.9,860.4,661.9z"/>
					<path d="M762.3,445.6c-0.3,0-0.6-0.2-0.7-0.4l-35.5-78.2c-0.1-0.3-0.1-0.7,0.2-0.9c0.2-0.2,0.6-0.2,0.9-0.1l79.3,49.5
						c0.4,0.2,0.5,0.7,0.2,1c-0.2,0.4-0.7,0.5-1,0.2l-77.2-48.2l34.4,75.9c0.2,0.4,0,0.8-0.4,1C762.5,445.5,762.4,445.6,762.3,445.6
						z"/>
				</g>
				<path d="M563.3,392.8c-0.3,0-0.6-0.2-0.7-0.5l-23.3-73.8c-0.1-0.4,0.1-0.8,0.5-0.9c0.4-0.1,0.8,0.1,0.9,0.5l22.6,71.4
					l29.2-101.3c0.1-0.4,0.5-0.6,0.9-0.5c0.4,0.1,0.6,0.5,0.5,0.9L564,392.3C563.9,392.6,563.6,392.8,563.3,392.8
					C563.3,392.8,563.3,392.8,563.3,392.8z"/>
			</g>
			<g id="head">
				<path d="M564.9,243.8c-0.2,0-0.4-0.1-0.6-0.2c-0.3-0.3-0.3-0.8,0.1-1.1c6.8-6.1,7.5-16.4,1.6-23.5c-2.9-3.5-7-5.6-11.5-6
					c-4.5-0.4-8.9,1-12.4,3.9c-3.8,3.2-6,7.8-6.1,12.8c0,0.4-0.3,0.7-0.8,0.7c0,0,0,0,0,0c-0.4,0-0.7-0.3-0.7-0.8
					c0.1-5.4,2.5-10.4,6.6-13.9c3.8-3.2,8.6-4.7,13.5-4.2c4.9,0.4,9.4,2.8,12.5,6.5c6.4,7.6,5.6,18.9-1.8,25.5
					C565.3,243.7,565.1,243.8,564.9,243.8z"/>
				<g>
					<path id="hair_1_" d="M523.6,158.3c-26-4.3-56.7,3.9-74,23.4c-5,5.6-10,13.4-18.9,50.3c-5.2,21.3-10.3,47-14.2,76.5
						c23.9,19,55.2,35.8,90.6,33.6c1.7-0.1,3.5-0.3,5.2-0.5c6.6-6.4,15.9-14.7,27.6-23.3c-0.2-0.9-0.4-1.8-0.6-2.7
						c-1.4-6.4-2.7-12.9-4.1-19.3c-5.1,2.3-18.4,7.6-35,4.4c-25.7-5.1-38-26.6-39.8-29.9c5.2-11.3,10.6-25.6,14.1-42.6
						c2-9.5,3.1-18.3,3.6-26.2c6.7,6.4,18.9,16.2,36.8,21.4c7.8,2.2,14.8,3.1,20.7,3.3c1.5-8.2,8.1-14.3,15.7-15.1
						c11.3-1.2,18.9,9.8,19.5,15.7c0.3,2.3-0.1,4.7-0.2,5c-0.5,3.2-1.7,5.6-2.6,7.1c0.7,1.7,1.7,4.1,2.9,6.9c0,0,1.8,4.1,4,8.6
						c7.1,14.6,13.5,26.1,18,33.7c0,0.1,6.4-2.1,9.8-3.2c3.9-1.3,8-2.6,12.2-3.7c4.2-6.9,8.5-14.9,12.5-24.2
						c6.7-15.7,10.3-30.1,12.4-41.9c-6.8-2.1-17.2-5.5-29.4-10.6C559.1,183,553.4,163.2,523.6,158.3z"/>
					<path d="M500.8,342.9c-28,0-56.5-11.4-84.8-33.9l-0.3-0.3l0.1-0.4c3.3-25.7,8.1-51.5,14.2-76.5c9-37,14-44.8,19.1-50.6
						c16.7-18.7,46.7-28.2,74.7-23.6c15.3,2.5,24.2,8.8,36.3,17.6c11.4,8.2,25.6,18.4,50.7,29c9.6,4,19.4,7.6,29.3,10.6l0.6,0.2
						l-0.1,0.7c-2.5,14.5-6.7,28.6-12.4,42.1c-3.6,8.3-7.8,16.5-12.5,24.3l-0.2,0.3l-0.3,0.1c-4,1.1-8.1,2.3-12.1,3.7l-1.4,0.5
						c-8.7,3-8.7,3-9.2,2.5l-0.3-0.3l0-0.1c-6.3-10.7-12.3-22-17.8-33.4c-2.2-4.5-4-8.5-4-8.6c-1-2.3-2-4.6-2.9-6.9l-0.1-0.3
						l0.2-0.3c1.3-2.1,2.1-4.4,2.5-6.8c0-0.1,0.4-2.5,0.1-4.8c-0.7-5.9-8.3-16.1-18.7-15c-7.4,0.8-13.6,6.7-15.1,14.5l-0.1,0.6
						l-0.6,0c-7.1-0.3-14.1-1.4-20.9-3.4c-13.1-3.8-25.5-10.9-35.9-20.5c-0.7,8.3-1.8,16.6-3.5,24.8c-3,14.6-7.8,28.9-14,42.5
						c3.4,6.1,15.5,24.5,39.1,29.2c15.3,3,28.2-1.4,34.5-4.3l0.9-0.4l0.2,0.9c1.3,6.3,2.7,12.7,4,19l0.7,3.5l-0.4,0.3
						c-9.7,7.1-19,14.9-27.5,23.2l-0.2,0.2l-0.3,0c-1.7,0.2-3.5,0.4-5.2,0.5C505.1,342.8,503,342.9,500.8,342.9z M417.3,308.1
						c30,23.8,60.2,35,89.8,33.2c1.6-0.1,3.3-0.2,4.9-0.4c8.4-8.2,17.6-15.9,27.1-22.9l-0.5-2.5c-1.3-6-2.6-12.1-3.8-18.1
						c-6.8,3-19.5,7-34.6,4c-24.7-4.9-37.1-24.4-40.3-30.3l-0.2-0.3l0.2-0.3c6.3-13.6,11-27.9,14.1-42.5c1.8-8.6,3-17.4,3.6-26.1
						l0.1-1.6l1.2,1.1c10.5,10,23.1,17.3,36.4,21.2c6.4,1.9,13.1,3,19.9,3.3c1.8-8.1,8.4-14.3,16.3-15.1
						c11.9-1.2,19.7,10.1,20.4,16.3c0.3,2.4-0.1,4.9-0.2,5.2c-0.4,2.5-1.2,4.8-2.5,7c0.9,2.2,1.8,4.4,2.8,6.6c0,0,1.9,4.1,4,8.6
						c5.5,11.4,11.4,22.5,17.6,33.2c1.4-0.4,5.3-1.7,7.8-2.6l1.4-0.5c4-1.3,8-2.6,11.9-3.6c4.7-7.6,8.8-15.6,12.3-23.8
						c5.6-13.1,9.7-26.9,12.2-41.1c-9.7-3-19.4-6.5-28.8-10.5c-25.3-10.7-39.6-20.9-51-29.2c-12-8.6-20.7-14.9-35.7-17.3l0,0
						c-27.5-4.5-57,4.8-73.3,23.1c-5,5.6-9.9,13.3-18.8,50C425.4,257,420.7,282.5,417.3,308.1z"/>
				</g>
				<path d="M535.2,295.7c1.7-0.8,3.5-1.8,5.2-2.9c10.5-6.7,16.8-15.6,20.6-22.5c-1.2,6.5-4.5,18.1-14.1,28.4
					c-3.1,3.3-6.2,5.8-9.1,7.8C536.9,302.9,536,299.3,535.2,295.7z"/>
			</g>
			<g id="hand">
				<path d="M641.4,537c-0.1,0-0.2,0-0.4-0.1c-0.4-0.2-0.5-0.7-0.3-1l8-15.1c0.1-0.2,0.2-0.3,0.4-0.3c4-1.6,8-3.3,12-4.9
					c0.3-0.1,0.7,0,0.9,0.3c2.4,3.8,5.3,6.9,8.8,9.3c6.5,4.5,14.5,6.2,23.7,5.2c2-0.2,4.1-0.6,6.2-1.1c0.4-0.1,0.8,0.1,0.9,0.5
					c0.1,0.4-0.1,0.8-0.5,1c0,0-0.1,0-0.1,0c-2.2,0.5-4.3,0.9-6.4,1.1c-9.6,1.1-17.9-0.8-24.7-5.4c-3.5-2.4-6.5-5.5-8.9-9.2
					c-3.7,1.5-7.5,3.1-11.2,4.6l-7.9,14.8C641.9,536.8,641.6,537,641.4,537z"/>
				<path d="M633.5,548.4c-1.8,0-3.5-0.4-5.1-1.4c-0.2-0.1-0.3-0.2-0.4-0.3c-5.5-4.1-1.2-16.9,1.4-24.6c1.7-5.1,2.9-8.4,4.7-11
					c0.5-0.8,1.1-1.5,1.8-2.2c0.2-0.2,0.4-0.4,0.6-0.6l0.2-0.2c1.6-1.4,3.4-2.7,5.4-3.9c2.9-1.7,6.2-3.2,9.9-4.5
					c0.4-0.1,0.8,0.1,1,0.5s-0.1,0.8-0.5,1c-3.6,1.3-6.9,2.8-9.7,4.4c-1.9,1.1-3.7,2.4-5.2,3.7l-0.2,0.2c-0.2,0.2-0.4,0.3-0.6,0.5
					c-0.6,0.6-1.2,1.2-1.6,1.9c-1.7,2.4-2.7,5.5-4.5,10.6c-2.3,6.8-6.6,19.4-1.9,22.9c0.1,0.1,0.2,0.1,0.3,0.2
					c4.4,2.7,10.2,0.2,16.4-2.5c6.4-2.8,7.7-4.6,7.9-5.4c0.4-1.9-0.6-3.8-1.8-5c-1.9-1.8-4.8-2.1-7.3-0.9c-0.4,0.2-0.8,0-1-0.3
					s0-0.8,0.3-1c3.1-1.5,6.7-1.1,9,1.1c1.4,1.3,2.8,3.8,2.2,6.4c-0.2,0.7-0.6,2.9-8.7,6.4C641.9,546.4,637.5,548.4,633.5,548.4z"/>
				<path d="M624.1,541.8c-1.8,0-3.3-0.4-4.5-1.3c-1.4-1.1-2.2-2.6-2.6-5c-0.4-2.3-0.4-5.7,0-10.9l0.1-0.9c0.1-1.1,0.2-2.1,0.2-3
					c0.7-8.9,1.3-14.6,3.7-18.2c2.6-3.9,6.4-6.1,14.1-10.6l0.8-0.4c3.6-2.1,7.4-4.1,11.3-5.8c0.4-0.2,0.8,0,1,0.4
					c0.2,0.4,0,0.8-0.4,1c-3.8,1.7-7.5,3.6-11.1,5.7l-0.8,0.4c-7.5,4.4-11.2,6.5-13.6,10.1c-2,3-2.7,7.7-3.4,17.5
					c-0.1,1-0.1,2-0.2,3l-0.1,0.9c-0.4,5.1-0.4,8.3,0,10.6c0.3,2,0.9,3.2,2,4c1.2,0.9,2.9,1.2,5,0.9c0.4-0.1,0.8,0.2,0.8,0.6
					c0.1,0.4-0.2,0.8-0.6,0.8C625.1,541.8,624.6,541.8,624.1,541.8z"/>
				<path d="M616.3,536.4c-0.3,0-0.5,0-0.8-0.1c-2.8-0.6-4.8-4.4-6-11.3c-0.7-4.4-0.9-8.7-0.9-9.9c-0.1-7-0.2-13.1,3.3-19.5
					c1.1-2,2.4-3.7,5.7-6.4c1.2-1,2.6-2,4.2-3.2l0.3-0.2c0.3-0.2,0.5-0.4,0.8-0.6c0.5-0.3,1-0.7,1.4-1c0.6-0.4,1.3-0.9,2-1.3
					c0,0,0.1-0.1,0.1-0.1c0.2-0.1,0.4-0.3,0.7-0.4l2.1-1.3c0.2-0.1,0.5-0.3,0.7-0.4l2.3-1.5c1.5-1,2.9-1.9,4.3-2.7l0.2-0.1
					c1.6-1,3-1.9,4.4-2.7l0.2-0.1c4.2-2.6,7-4.1,9.2-4.9c0.9-0.3,1.6-0.6,2.3-0.7c0.1,0,0.2,0,0.3-0.1c0.4-0.1,0.8-0.1,1.1-0.2
					c5.8-0.8,12.1,0.7,32.8,11.1c4.4,2.2,8.6,4.4,12.6,6.6c0.2,0.1,0.4,0.4,0.4,0.7c0,0.4-0.3,0.8-0.7,0.8h0c-0.1,0-0.2,0-0.4-0.1
					c-4-2.2-8.2-4.4-12.6-6.6c-20.3-10.2-26.5-11.7-31.9-11c-0.3,0-0.7,0.1-1,0.2c-0.1,0-0.2,0-0.3,0.1c-0.6,0.1-1.3,0.3-2,0.6
					c-2.1,0.8-4.8,2.3-9,4.8l-0.2,0.1c-1.3,0.8-2.8,1.7-4.4,2.7l-0.2,0.1c-1.3,0.8-2.7,1.7-4.2,2.7l-2.3,1.5
					c-0.2,0.1-0.4,0.3-0.7,0.4l-2.1,1.3c-0.2,0.2-0.5,0.3-0.7,0.4c-0.8,0.5-1.4,0.9-2,1.4c-0.5,0.3-1,0.7-1.4,1
					c-0.3,0.2-0.5,0.4-0.8,0.6l-0.3,0.2c-1.6,1.2-3,2.2-4.1,3.1c-3.4,2.8-4.5,4.5-5.3,6c-3.3,6.1-3.2,12-3.1,18.8
					c0,1.2,0.2,5.4,0.9,9.6c1,6,2.7,9.6,4.8,10c0.5,0.1,1,0,1.6-0.2c0.4-0.1,0.8,0,1,0.4s0,0.8-0.4,1
					C617.4,536.3,616.9,536.4,616.3,536.4z"/>
				<path d="M589.7,513.9c-0.2,0-0.4,0-0.6-0.1c-0.7-0.2-1.6-0.7-2.5-1.8c-2.2-3.2,1.1-11.8,10-25.8c7.9-12.3,11-14.6,13.6-15.8
					c3.9-1.9,7.3-2,12.4-2.1l10.6-0.2c7.9-0.1,13.9-0.2,18.6-0.3l1,0c0,0,0,0,0,0c0.4,0,0.7,0.3,0.8,0.7c0,0.4-0.3,0.8-0.7,0.8l-1,0
					c-4.7,0.1-10.8,0.2-18.6,0.3l-10.6,0.2c-5.1,0.1-8.2,0.3-11.8,2c-2.4,1.2-5.3,3.3-13,15.3c-11.6,18.2-10.9,22.9-10.1,24.1
					c0.6,0.8,1.2,1.1,1.7,1.2c0,0,3.7,0.5,11-8.9c6.9-8.9,10.6-15.1,10.7-15.2c0.4-0.7,1.2-2,2.5-3.2c0.6-0.6,1.3-1,2.1-1.4
					c0.7-0.3,1.3-0.5,2-0.6c0.4-0.1,1-0.1,1.6-0.2l1.3-0.1c1.1-0.1,2.2-0.2,3.4-0.3c1.1-0.1,2.4-0.2,3.6-0.3c0,0,0.1,0,0.1,0
					c0.4,0,0.8,0.3,0.8,0.8c0,0.4-0.3,0.7-0.7,0.7c0,0,0,0-0.1,0c-1.3,0.1-2.5,0.2-3.6,0.3c-1.2,0.1-2.3,0.2-3.4,0.3l-1.3,0.1
					c-0.6,0.1-1.1,0.1-1.5,0.2c-0.6,0.1-1.1,0.3-1.7,0.5c-0.6,0.3-1.2,0.7-1.8,1.2c-1.1,1-1.8,2.1-2.2,2.7
					c-0.1,0.1-3.8,6.4-10.8,15.4C595.8,512,591.6,513.9,589.7,513.9z"/>
				<path d="M698.5,485.6L698.5,485.6l-3.8,45.5c2.3-0.3,4.4-0.7,6.3-1.1l-0.5-14.7l0-0.2l-1-29.1L698.5,485.6z"/>
			</g>
		</g>
		<g id="fishes">
			<g id="fish3">
				<g>
					<path d="M682.7,751.5c-3.3,17.3-9.3,33.7-17.4,48.8c-5.3-0.1-10.6-0.3-15.9-0.7c-21.6-1.6-42.7-5.6-58-10.5
						c-13.9-4.5-22.9-9.8-22.8-14.8c0.1-5.1,9.5-9.9,23.7-13.7c14.7-4,34.4-7.1,54.3-8.4c8-0.6,16.1-0.9,23.8-0.8
						C674.5,751.3,678.6,751.4,682.7,751.5z"/>
					<path d="M665.3,801C665.3,801,665.3,801,665.3,801c-5.2-0.1-10.5-0.3-15.9-0.7c-21.1-1.6-42.3-5.4-58.2-10.5
						c-10.7-3.5-23.5-8.9-23.3-15.5c0.1-6.5,13.3-11.4,24.3-14.5c14.5-4,34.4-7.1,54.4-8.5c8.2-0.6,16.2-0.9,23.8-0.8
						c4.1,0,8.2,0.1,12.3,0.3c0.2,0,0.4,0.1,0.6,0.3c0.1,0.2,0.2,0.4,0.1,0.6c-3.3,17.1-9.2,33.6-17.5,49
						C665.8,800.9,665.6,801,665.3,801z M669.7,752c-7.3,0-15.1,0.3-23,0.8c-20,1.4-39.7,4.5-54.2,8.4c-14.6,4-23.1,8.8-23.2,13
						c-0.1,4.3,8,9.4,22.3,14c15.8,5.1,36.8,8.9,57.8,10.4c5.2,0.4,10.4,0.6,15.4,0.7c8-14.8,13.7-30.8,17-47.3
						c-3.8-0.2-7.6-0.2-11.4-0.2C670.2,752,670,752,669.7,752z"/>
				</g>
				<path d="M669.9,801.1c-1.5,0-3,0-4.6,0c-0.3,0-0.5-0.1-0.6-0.4c-0.1-0.2-0.1-0.5,0-0.7c8.2-15.2,14.1-31.5,17.4-48.5
					c0.1-0.4,0.4-0.6,0.8-0.6c8.6,0.4,17.3,1,26,2c0,0,0.1,0,0.1,0c5.2,0.6,10.4,1.3,15.3,2.1c2.9,0.5,5.8,1,8.7,1.5
					c14.5,2.8,38.7,8.9,38.9,17.8l0,0c0.2,9.9-29.1,17.5-38.1,19.6c-2.7,0.6-5.5,1.2-8.4,1.8c-13.8,2.7-28.6,4.5-42.9,5.1
					C678.1,801,673.9,801.1,669.9,801.1z M666.6,799.6c1.1,0,2.2,0,3.3,0c4,0,8.2-0.1,12.4-0.3c14.2-0.7,29-2.4,42.7-5.1
					c2.8-0.6,5.7-1.2,8.4-1.8c22.6-5.2,37.1-12.3,37-18.1l0,0c-0.1-5.7-14.2-11.8-37.7-16.4c-2.9-0.6-5.8-1.1-8.6-1.5
					c-4.9-0.8-10.1-1.5-15.3-2.1c0,0-0.1,0-0.1,0c-8.4-1-16.9-1.6-25.2-2C680.1,768.8,674.5,784.7,666.6,799.6z"/>
				<g>
					<path d="M591.5,789.1c-1.6,1.5-3.7,3.2-6.2,5c-20.9,15.4-50.1,21.1-54,14.5c-1.9-3.1,0.4-11.3,28.2-36.3
						c-15.9-29.7-16.3-38.8-13.3-41.3c4.1-3.4,15.8,4,22.4,8.2c11,6.9,18.7,14.9,23.8,21.4c-14.2,3.9-23.6,8.7-23.7,13.7
						C568.5,779.3,577.5,784.6,591.5,789.1z"/>
					<path d="M539.6,812.1c-1.6,0-3-0.1-4.2-0.4c-2.4-0.5-4-1.4-4.8-2.7c-1.1-1.9-4.6-7.6,27.9-36.8c-8.4-15.7-18.7-36.9-12.8-41.7
						c4.5-3.7,16.2,3.7,23.3,8.1c9.1,5.8,17.2,13,24,21.6c0.2,0.2,0.2,0.5,0.1,0.7c-0.1,0.2-0.3,0.4-0.5,0.5
						c-14.6,4-23.1,8.8-23.2,13c-0.1,4.3,8,9.4,22.3,14c0.3,0.1,0.4,0.3,0.5,0.6c0.1,0.3,0,0.5-0.2,0.7c-1.9,1.7-4,3.4-6.2,5.1
						C570.8,805.8,551.1,812.1,539.6,812.1z M549,730.9c-1,0-1.8,0.2-2.3,0.7c-2.6,2.1-2.4,10.9,13.4,40.4c0.2,0.3,0.1,0.7-0.2,0.9
						c-27.9,25-29.5,32.9-28,35.3c0.6,0.9,1.9,1.6,3.8,2c9.8,2,32.5-4.4,49.2-16.7c1.8-1.3,3.5-2.7,5.1-4.1
						c-10.4-3.5-22.2-8.8-22.1-15.1c0.1-6.3,12.4-11.1,23.2-14.2c-6.5-8-14.2-14.9-22.9-20.3C563.3,736.7,554,730.9,549,730.9z"/>
				</g>
				<g>
					<path d="M684.8,738.1c-0.5,4.6-1.2,9.1-2,13.5c-4.1-0.2-8.3-0.3-12.3-0.3c-7.7,0-15.8,0.3-23.8,0.8c0,0-5.3-22.1,0-29.9
						C649.6,717.9,668.6,728.1,684.8,738.1z"/>
					<path d="M646.7,752.9c-0.3,0-0.6-0.2-0.7-0.6c-0.2-0.9-5.3-22.5,0.1-30.5c1-1.5,4-5.9,39.1,15.6c0.2,0.2,0.4,0.4,0.4,0.7
						c-0.5,4.5-1.2,9.1-2,13.5c-0.1,0.4-0.4,0.6-0.8,0.6c-4.1-0.2-8.2-0.3-12.2-0.3C662.9,752,654.9,752.3,646.7,752.9
						C646.7,752.9,646.7,752.9,646.7,752.9z M649.3,721.9c-1.2,0-1.8,0.4-2,0.7c-4.6,6.7-0.8,25.1,0,28.7c8-0.5,15.8-0.8,23.2-0.8
						c3.9,0,7.8,0.1,11.7,0.2c0.8-4.1,1.4-8.2,1.8-12.3C661.7,724.8,652.8,721.9,649.3,721.9z"/>
				</g>
				<path d="M708.7,754.3c-0.2,0-0.3-0.1-0.5-0.2c-1.3-0.9-11.8-8.1-23.9-15.5c-0.4-0.2-0.5-0.7-0.2-1c0.2-0.4,0.7-0.5,1-0.2
					c12.2,7.5,22.8,14.7,23.9,15.5c0,0,0.1,0.1,0.1,0.1c0.3,0.3,0.3,0.8,0,1.1C709.1,754.3,708.9,754.3,708.7,754.3z"/>
				<path d="M725.1,795.7c-0.2,0-0.5-0.1-0.6-0.3c-4.1-6.2-6.2-13.4-6.2-20.8c0-6.8,1.8-13.4,5.2-19.2c0.2-0.3,0.5-0.4,0.8-0.4
					c2.9,0.5,5.8,1,8.7,1.5c14.5,2.8,38.7,8.9,38.9,17.8l0,0c0.1,3.2-3.5,11.5-38.1,19.6c-2.7,0.6-5.5,1.2-8.4,1.8
					C725.2,795.6,725.1,795.7,725.1,795.7z M724.4,756.5c-3.1,5.4-4.7,11.6-4.7,18c0,7,2,13.7,5.7,19.6c2.7-0.5,5.3-1.1,7.9-1.7
					c22.6-5.2,37.1-12.3,37-18.1l0,0c-0.1-5.7-14.2-11.8-37.7-16.4C729.9,757.4,727.1,757,724.4,756.5z"/>
				<path d="M733.4,793.9c-0.3,0-0.5-0.1-0.6-0.4c-3.3-5.7-5.1-12.3-5.1-19c0-6.1,1.5-12.2,4.3-17.6c0.2-0.3,0.5-0.5,0.8-0.4
					c14.5,2.8,38.7,8.9,38.9,17.8c0.1,3.2-3.5,11.5-38.1,19.6C733.6,793.9,733.5,793.9,733.4,793.9z M733.1,758.1
					c-2.6,5-3.9,10.7-3.9,16.4c0,6.2,1.6,12.4,4.6,17.8c22.3-5.2,36.5-12.2,36.4-17.9C770.1,768.7,756.3,762.6,733.1,758.1z"/>
				<circle cx="745.9" cy="773.7" r="2.1"/>
				<g>
					<path d="M665.3,800.3c-2.5,4.6-5.2,9-8,13.4c-6.8,3.1-12.5,4.7-13,2c-1.2-7.2,5.1-16.1,5.1-16.1
						C654.7,800,660.1,800.2,665.3,800.3z"/>
					<path d="M646.6,817.8c-0.9,0-1.5-0.2-1.9-0.4c-0.6-0.3-1-0.9-1.2-1.6c-1.2-7.4,5-16.3,5.3-16.6c0.2-0.2,0.4-0.3,0.7-0.3
						c5.4,0.4,10.7,0.7,15.8,0.7c0.3,0,0.5,0.1,0.6,0.4c0.1,0.2,0.1,0.5,0,0.7c-2.5,4.6-5.2,9.1-8.1,13.4c-0.1,0.1-0.2,0.2-0.3,0.3
						C651.6,817,648.4,817.8,646.6,817.8z M649.8,800.3c-1.1,1.7-5.8,9.1-4.8,15.2c0,0.3,0.2,0.4,0.4,0.6c0.8,0.4,3.3,0.6,11.3-3
						c2.6-3.9,5-7.9,7.3-12C659.4,800.9,654.6,800.7,649.8,800.3z"/>
				</g>
				<path d="M657.3,814.4c-0.3,0-0.6-0.2-0.7-0.4c-0.2-0.4,0-0.8,0.4-1c10.3-4.6,23.4-12.7,24.9-13.6c0.1-0.1,0.3-0.1,0.4-0.1
					c0.4,0,0.8,0.3,0.8,0.8c0,0.3-0.2,0.6-0.4,0.7c-1.7,1.1-14.7,9-25,13.6C657.5,814.4,657.4,814.4,657.3,814.4z"/>
			</g>
			<path id="fish2" d="M385.1,727c0-7.7,11.5-14.2,26.9-15.9l0,0c0.2-1.4,0.5-2.8,1.2-4.4c3.5-8.1,12.6-9.7,13.4-9.8
				c0,0,2.8,8.2,0.3,14l0,0c8.4,0.7,15.8,2.8,21,5.7l0,0c0.1-0.2,0.1-0.3,0.2-0.5c3.3-6.7,10.5-11,18.4-10.8
				c0.4,2.4,0.8,6.7-0.7,11.8c-1.1,3.5-2.7,6.1-4,7.8c2.1,1.3,5.1,3.4,7.9,6.7c2.6,3,4.2,5.9,5.1,8.1c-9.1,4.3-19.1,2.4-24.5-3.6
				l0,0c-5.1,3.7-13.1,6.3-22.6,7.2l0,0c0.9,4.8-1.7,10.5-1.7,10.5c-0.7-0.2-8-2.3-10.3-9.3c-0.1-0.3-0.2-0.7-0.3-1l0.1,0
				C398.3,742.2,385.1,735.3,385.1,727z"/>
			<g id="fish4">
				<circle cx="883.1" cy="712.9" r="2"/>
				<path d="M882,718.7c-0.5,0-1-0.1-1.5-0.2c-2.7-0.8-4.2-3.7-3.3-6.4c0.4-1.3,1.3-2.4,2.5-3s2.6-0.8,3.9-0.3
					c2.7,0.8,4.2,3.7,3.3,6.4C886.2,717.3,884.2,718.7,882,718.7z M882,710c-1.5,0-3,1-3.4,2.5c-0.6,1.9,0.5,3.9,2.4,4.5
					c1.9,0.6,3.9-0.5,4.5-2.4s-0.5-3.9-2.4-4.5C882.8,710,882.4,710,882,710z"/>
				<path d="M857.8,728.9c-0.4,0-0.8,0-1.3,0c-10.8-0.1-21-1.6-28.6-4.2c-7.9-2.7-12.2-6.4-12.2-10.3c0-3.9,4.4-7.5,12.4-10.1
					c7.7-2.5,17.9-3.8,28.7-3.7c23,0.2,40.9,6.6,40.8,14.5l0,0C897.5,723,880.1,728.9,857.8,728.9z M855.5,702.1
					c-10.2,0-19.8,1.3-27,3.6c-7.2,2.3-11.3,5.5-11.3,8.6c0,3.2,4,6.4,11.2,8.9c7.5,2.6,17.5,4.1,28.2,4.2
					c21.4,0.2,39.5-5.4,39.6-12.2c0.1-6.9-17.9-12.8-39.3-13C856.4,702.1,855.9,702.1,855.5,702.1z M896.8,715.2L896.8,715.2
					L896.8,715.2z"/>
				<g>
					<path d="M869.2,702.2c1.8,0.2,3.6,0.5,5.3,0.8c-9.7-4.2-19.4-8.5-29.1-12.7c-0.1,0.2-0.1,0.5-0.2,0.7c-0.8,4.2,1.1,8,2.8,10.6
						C854.5,701.2,861.6,701.2,869.2,702.2z"/>
					<path d="M874.5,703.7c0,0-0.1,0-0.1,0c-1.7-0.3-3.5-0.6-5.3-0.8c-6.9-0.8-13.9-1-20.9-0.6c-0.3,0-0.5-0.1-0.7-0.3
						c-2.6-3.9-3.6-7.6-3-11.2c0.1-0.3,0.1-0.5,0.2-0.8c0.1-0.2,0.2-0.4,0.4-0.5c0.2-0.1,0.4-0.1,0.6,0l29.1,12.7
						c0.3,0.2,0.5,0.5,0.4,0.9C875.2,703.5,874.9,703.7,874.5,703.7z M855.7,700.6c4.5,0,9,0.3,13.4,0.8L846,691.3
						c-0.5,3,0.3,6.2,2.5,9.5C850.9,700.7,853.3,700.6,855.7,700.6z"/>
				</g>
				<g>
					<path d="M853.4,728.3c0.6,0,2.4,0.1,3,0.1c-1.1,1.3-3.4,3.5-7.1,4.7c-1.7,0.5-3.2,0.7-4.4,0.7c0.4-1.3,1.7-5.1,1.9-5.8
						C849,728.1,851.2,728.2,853.4,728.3z"/>
					<path d="M844.9,734.6c-0.2,0-0.5-0.1-0.6-0.3c-0.1-0.2-0.2-0.5-0.1-0.7c0.4-1.3,1.7-5.1,1.9-5.8c0.1-0.3,0.4-0.6,0.7-0.5
						l6.6,0.3c0,0,0,0,0,0l3,0.1c0.3,0,0.5,0.2,0.7,0.5c0.1,0.3,0.1,0.6-0.1,0.8c-1.4,1.6-3.9,3.8-7.4,4.9
						C848,734.3,846.5,734.6,844.9,734.6C844.9,734.6,844.9,734.6,844.9,734.6z M847.4,728.8c-0.3,1-0.9,2.9-1.4,4.2
						c1-0.1,2.1-0.3,3.1-0.6c2.4-0.8,4.3-2.1,5.6-3.3L847.4,728.8z"/>
				</g>
				<g>
					<path d="M865.1,728.1c0.8-0.1,1.5-0.1,2.2-0.2c-1.1,1.5-3.5,4.3-7.6,5.7c-1.5,0.5-2.9,0.8-4.1,0.8c0.3-1.4,1.6-5.6,1.8-6.2
						C859.8,728.3,862.4,728.3,865.1,728.1z"/>
					<path d="M855.6,735.2c-0.2,0-0.4-0.1-0.6-0.3c-0.2-0.2-0.2-0.4-0.2-0.7c0.3-1.4,1.6-5.6,1.8-6.3c0.1-0.3,0.4-0.5,0.8-0.5
						c2.5,0.1,5.1,0.1,7.6-0.1c0.7-0.1,1.5-0.1,2.2-0.2c0.3,0,0.6,0.1,0.7,0.4c0.2,0.3,0.1,0.6,0,0.8c-1.5,2-4,4.6-8,6
						C858.6,734.8,857.2,735.1,855.6,735.2C855.7,735.2,855.7,735.2,855.6,735.2z M858,728.9c-0.3,1-0.9,3.2-1.3,4.6
						c1-0.1,1.9-0.4,2.8-0.7c2.7-1,4.7-2.6,6.1-4.1c-0.1,0-0.3,0-0.4,0l0,0C862.8,729,860.4,729,858,728.9z M865.1,728.1
						L865.1,728.1L865.1,728.1z"/>
				</g>
				<g>
					<path d="M821.3,708c-1-1.6-2.2-3.3-3.9-5.1c-2.3-2.5-4.7-4.4-6.6-5.7c-1.6,3-3.8,7.7-4.7,13.9c-1.1,7.5,0.2,13.6,1.2,17.1
						c2.3-0.7,5.2-1.9,8.3-3.8c2.1-1.3,3.8-2.7,5.2-3.9c-2.6-0.9-4.4-3.4-4.4-6.2C816.4,711.4,818.4,708.8,821.3,708z"/>
					<path d="M807.4,729c-0.1,0-0.2,0-0.4-0.1c-0.2-0.1-0.3-0.3-0.4-0.5c-1.6-5.6-2-11.6-1.2-17.4c0.7-5,2.3-9.8,4.8-14.2
						c0.1-0.2,0.3-0.3,0.5-0.4c0.2,0,0.4,0,0.6,0.1c2.5,1.7,4.7,3.6,6.7,5.8c1.5,1.6,2.8,3.4,4,5.2c0.1,0.2,0.2,0.5,0.1,0.7
						c-0.1,0.2-0.3,0.4-0.5,0.5c-2.6,0.7-4.4,3-4.4,5.6c0,2.4,1.6,4.6,3.9,5.5c0.2,0.1,0.4,0.3,0.5,0.6s0,0.5-0.2,0.7
						c-1.6,1.5-3.4,2.9-5.3,4c-2.6,1.6-5.5,2.9-8.5,3.9C807.5,729,807.4,729,807.4,729z M811.1,698.3c-2.1,4.1-3.6,8.4-4.2,13
						c-0.8,5.3-0.4,10.8,0.9,16c2.6-0.9,5.1-2,7.4-3.5c1.5-0.9,2.9-2,4.2-3.1c-2.3-1.3-3.8-3.7-3.8-6.4c0-2.9,1.8-5.6,4.5-6.7
						c-1-1.5-2.1-2.9-3.3-4.2C815.2,701.5,813.2,699.8,811.1,698.3z"/>
				</g>
			</g>
			<g id="fish5">
				<circle cx="732.9" cy="898.4" r="3"/>
				<path d="M779.4,923.2c-4.9,0-9.7-0.2-14.4-0.5c-4.6-0.3-9-0.8-13.1-1.5c-13.8-2.1-25.1-5.8-31.9-10.3c-4.6-3.1-6.9-6.5-6.9-10.1
					c0-6.8,8.2-12.9,23.2-17.2c1.7-0.5,3.6-1,5.5-1.4c8.1-1.9,17.2-3.1,26.9-3.6c0,0,0.1,0,0.1,0c8-0.4,16.1-0.4,23.7,0.2
					c11.8,0.8,22.8,2.7,31.7,5.4c0,0,0,0,0,0c6.1,1.9,11,4.1,14.6,6.6c0.3,0.2,0.4,0.7,0.2,1s-0.7,0.4-1,0.2
					c-3.5-2.4-8.2-4.5-14.2-6.3c0,0,0,0,0,0c-8.8-2.7-19.7-4.6-31.4-5.4c-7.5-0.5-15.5-0.6-23.4-0.2c0,0-0.1,0-0.1,0
					c-9.7,0.5-18.7,1.7-26.7,3.6c-1.9,0.4-3.8,0.9-5.4,1.4c-14.1,4-22.1,9.8-22.1,15.7c0,3.1,2.1,6.1,6.3,8.9
					c6.5,4.4,17.6,8,31.2,10.1c4.1,0.6,8.5,1.1,13,1.5c8.5,0.6,17.5,0.7,26.4,0.2c2.3-0.1,4.5-0.3,6.6-0.5
					c17.4-1.7,32-5.8,39.9-11.2c0.3-0.2,0.8-0.1,1,0.2c0.2,0.3,0.1,0.8-0.2,1c-8.1,5.5-22.9,9.7-40.6,11.5c-2.2,0.2-4.4,0.4-6.7,0.5
					C787.5,923.1,783.4,923.2,779.4,923.2z"/>
				<g>
					<path d="M867.1,880.8v37.8c-0.7-0.2-13.6-4-14.3-4.2c-0.7-0.2-13.6-4-14.3-4.2c4.2-2.9,6.5-6.1,6.5-9.5s-2.3-6.6-6.5-9.4
						c6.8-2.5,13.5-5,20.3-7.5c0,0,0,0,0,0C861.5,882.8,864.3,881.8,867.1,880.8z"/>
					<path d="M867.1,919.3c-0.1,0-0.1,0-0.2,0l-2.1-0.6c-3.9-1.1-11.7-3.4-12.3-3.6c-0.7-0.2-13.6-4-14.3-4.2
						c-0.3-0.1-0.5-0.3-0.5-0.6c0-0.3,0.1-0.6,0.3-0.7c4.1-2.8,6.2-5.8,6.2-8.8c0-3-2.1-6-6.2-8.8c-0.2-0.2-0.4-0.4-0.3-0.7
						s0.2-0.5,0.5-0.6l20.3-7.5c0,0,0,0,0.1,0l8.2-3c0.2-0.1,0.5-0.1,0.7,0.1c0.2,0.1,0.3,0.4,0.3,0.6v37.8c0,0.2-0.1,0.5-0.3,0.6
						C867.4,919.3,867.2,919.3,867.1,919.3z M840.1,909.9c3.6,1,12.3,3.6,12.9,3.8c0.5,0.2,8.4,2.5,12.3,3.6l1.1,0.3v-35.8l-7.3,2.7
						c0,0,0,0-0.1,0l-19,7c3.8,2.9,5.7,6,5.7,9.2C845.7,903.9,843.8,907,840.1,909.9z"/>
				</g>
				<path d="M751.9,921.2c-0.3,0-0.6-0.2-0.7-0.5l-15.5-36.2c-0.2-0.4,0-0.8,0.4-1c0.4-0.2,0.8,0,1,0.4l15.5,36.2
					c0.2,0.4,0,0.8-0.4,1C752.1,921.2,752,921.2,751.9,921.2z"/>
				<path d="M765,922.7c-0.3,0-0.5-0.1-0.6-0.4l-23.1-39c-0.2-0.4-0.1-0.8,0.3-1c0.4-0.2,0.8-0.1,1,0.3l23.1,39
					c0.2,0.4,0.1,0.8-0.3,1C765.3,922.6,765.1,922.7,765,922.7z"/>
				<g>
					<path d="M768.8,879.3L768.8,879.3l32.7-17l-9.1,17.2c-3.1-0.2-6.3-0.3-9.7-0.4C777.8,878.9,773.2,879,768.8,879.3z"/>
					<path d="M792.4,880.2C792.4,880.2,792.4,880.2,792.4,880.2c-3.3-0.2-6.5-0.3-9.7-0.4c-4.6-0.1-9.2,0-13.8,0.3
						c-0.3,0-0.6-0.2-0.7-0.4c-0.1-0.3-0.1-0.6,0.2-0.8l0,0c0.1-0.1,0.1-0.1,0.2-0.1l32.7-17c0.3-0.2,0.6-0.1,0.9,0.1
						c0.2,0.2,0.3,0.6,0.1,0.9l-9.1,17.2C792.9,880,792.7,880.2,792.4,880.2z M779.4,878.2c1.1,0,2.2,0,3.3,0
						c3.1,0.1,6.2,0.2,9.3,0.4l7.8-14.6l-27.6,14.3C774.6,878.3,777,878.2,779.4,878.2z"/>
				</g>
				<g>
					<polygon points="798.2,921.5 801.5,928.8 791.5,922.1 					"/>
					<path d="M801.5,929.5c-0.1,0-0.3,0-0.4-0.1l-10-6.7c-0.3-0.2-0.4-0.5-0.3-0.8c0.1-0.3,0.3-0.5,0.7-0.6l6.7-0.5
						c0.3,0,0.6,0.1,0.7,0.4l3.4,7.2c0.1,0.3,0.1,0.7-0.2,0.9C801.9,929.5,801.7,929.5,801.5,929.5z M793.7,922.6l6,4l-2-4.3
						L793.7,922.6z"/>
				</g>
			</g>
			<g id="fish1">
				<g>
					<path d="M429.9,856c0,2.8-2,5.6-5.3,8.2c-5.8-3.6-11.3-7.5-16.5-11.8c0.3-0.5,0.5-1.1,0.5-1.8c0-1.8-1.5-3.3-3.3-3.3
						c-0.9,0-1.6,0.3-2.2,0.9c-4.7-4.1-9.2-8.4-13.4-13c4.1,0.8,8.3,1.7,12.3,2.9h0C417.1,842.3,429.9,848.8,429.9,856z"/>
					<path d="M424.6,864.9c-0.1,0-0.3,0-0.4-0.1c-5.8-3.6-11.3-7.6-16.6-11.8c-0.3-0.2-0.4-0.7-0.2-1c0.3-0.4,0.4-0.9,0.4-1.4
						c0-1.4-1.2-2.6-2.6-2.6c-0.6,0-1.3,0.2-1.7,0.7c-0.3,0.3-0.7,0.3-1,0c-4.7-4.1-9.2-8.5-13.4-13c-0.2-0.2-0.3-0.6-0.1-0.9
						c0.2-0.3,0.5-0.4,0.8-0.4c4.3,0.8,8.4,1.8,12.3,2.9c0,0,0,0,0,0c8.6,2.4,28.5,9,28.6,18.6v0c0,2.9-1.9,5.9-5.6,8.8
						C424.9,864.8,424.7,864.9,424.6,864.9z M409,852.2c4.9,3.9,10.2,7.7,15.6,11c3.1-2.5,4.6-4.9,4.6-7.2l0,0
						c0-6-10.3-12.4-27.4-17.2c0,0,0,0,0,0c-3.1-0.9-6.5-1.7-9.9-2.4c3.6,3.8,7.4,7.4,11.3,10.8c0.7-0.4,1.4-0.7,2.2-0.7
						c2.3,0,4.1,1.8,4.1,4.1C409.3,851.2,409.2,851.7,409,852.2z"/>
				</g>
				<path d="M369.2,880c-1.6,0-5.5-0.1-11.2-0.9c-8.8-1.3-22.5-4.4-37.6-12.2l-0.3-0.1c-0.3-0.1-0.6-0.3-0.8-0.4
					c-2.1-1.1-4.8-2.7-6.9-4.6c-2-1.9-3-3.8-3-5.7c0-4.6,5.5-8.1,9.6-10.3c0.8-0.4,1.6-0.8,2.4-1.2c5.6-2.7,11.4-5.1,17.4-7
					c19.3-6,33.9-5.2,34-5.2c5.2,0.3,11,1.1,16.8,2.2c0.2,0,0.3,0.1,0.4,0.2c4,4.4,8.4,8.6,12.9,12.5c0.7-0.4,1.4-0.7,2.2-0.7
					c2.3,0,4.1,1.8,4.1,4.1c0,0.5-0.1,1.1-0.3,1.6c5.1,4.1,10.5,7.9,16,11.3c0.2,0.1,0.3,0.4,0.4,0.6c0,0.2-0.1,0.5-0.3,0.6
					c-5.1,3.9-13.7,7.6-24.3,10.5c-3.1,0.8-6.4,1.6-9.7,2.3c-7.2,1.4-14.5,2.3-21.1,2.6C369.9,880,369.7,880,369.2,880z
					 M370.9,833.7c-4.5,0-16.6,0.5-31.5,5.2c-5.9,1.8-11.7,4.2-17.2,6.9c-0.8,0.4-1.6,0.8-2.3,1.2c-6,3.2-8.8,6.1-8.8,9
					c0,1.5,0.9,3.1,2.5,4.7c1.9,1.8,4.5,3.3,6.6,4.4c0.3,0.1,0.5,0.3,0.8,0.4l0.3,0.1c14.9,7.7,28.4,10.8,37.1,12.1
					c7.2,1,11.6,0.9,11.7,0.9c6.5-0.2,13.7-1.1,20.8-2.5c3.3-0.7,6.5-1.4,9.6-2.2c9.8-2.7,17.9-6,22.9-9.6
					c-5.4-3.4-10.7-7.2-15.7-11.2c-0.3-0.2-0.4-0.7-0.2-1c0.3-0.4,0.4-0.9,0.4-1.4c0-1.4-1.2-2.6-2.6-2.6c-0.6,0-1.3,0.2-1.7,0.7
					c-0.3,0.3-0.7,0.3-1,0c-4.6-4-9.1-8.3-13.3-12.8c-5.7-1.1-11.3-1.8-16.4-2.1C372.8,833.8,372.1,833.7,370.9,833.7z"/>
				<path d="M408.5,850.6c0,0.6-0.2,1.3-0.5,1.8c-0.6,0.9-1.6,1.6-2.8,1.6c-1.8,0-3.3-1.5-3.3-3.3c0-1,0.4-1.9,1.1-2.5
					c0.6-0.5,1.4-0.9,2.2-0.9C407,847.3,408.5,848.8,408.5,850.6z"/>
				<path d="M298.4,880.4c-1.4,0-2.6-0.3-3.8-0.9c-0.4-0.2-0.6-0.4-0.8-0.6c-2.8-2.5-1.9-6.4-0.7-11.4l0.4-1.5
					c0.9-3.9,1.7-8.2,1.4-12.9c-0.2-3-0.8-5.8-1.3-8.3c-1-4.7-1.8-8.4,0.6-10.7c0.8-0.8,1.8-1.2,1.9-1.2c2.5-1.1,5.5-0.6,9.9,1.8
					c4.9,2.6,9.6,6.4,14,11.3c0.3,0.3,0.3,0.8-0.1,1.1c-0.3,0.3-0.8,0.3-1.1-0.1c-4.3-4.8-8.9-8.5-13.6-11c-3.9-2.1-6.6-2.7-8.6-1.8
					c0,0-0.8,0.4-1.4,1c-1.8,1.7-1.1,5.1-0.2,9.3c0.5,2.6,1.1,5.5,1.3,8.6c0.3,4.9-0.5,9.3-1.5,13.3l-0.4,1.5
					c-1.1,4.6-1.9,8,0.2,9.9c0.1,0.1,0.3,0.3,0.6,0.4c4.4,2.5,12.2-2.2,14.4-3.7c0.2-0.1,0.3-0.2,0.5-0.3l0.1-0.1
					c2.2-1.5,4.5-3.3,6.6-5.2c0.8-0.7,1.9-1.7,3.3-3.1c0.3-0.3,0.8-0.3,1.1,0c0.3,0.3,0.3,0.8,0,1.1c-1.4,1.4-2.6,2.5-3.3,3.2
					c-2.2,2-4.6,3.8-6.8,5.4l-0.1,0.1c-0.2,0.1-0.3,0.2-0.5,0.4C308.2,877.3,302.9,880.4,298.4,880.4z"/>
				<g>
					<path d="M401.9,838.1c-4-1.1-8.1-2.1-12.3-2.9c-0.9-1-1.9-2-2.8-3.1C394,834.7,399.7,837.1,401.9,838.1z"/>
					<path d="M401.9,838.8c-0.1,0-0.1,0-0.2,0c-3.8-1.1-7.9-2-12.2-2.8c-0.2,0-0.3-0.1-0.4-0.2c-0.9-1-1.9-2-2.8-3.1
						c-0.2-0.3-0.2-0.6-0.1-0.9c0.2-0.3,0.6-0.4,0.9-0.3c6.8,2.4,12.4,4.8,15.1,6c0.4,0.2,0.5,0.6,0.4,0.9
						C402.4,838.6,402.2,838.8,401.9,838.8z M390,834.5c0.8,0.1,1.6,0.3,2.3,0.5c-0.9-0.4-1.9-0.7-2.9-1.1
						C389.6,834.1,389.8,834.3,390,834.5z"/>
				</g>
				<path d="M339.1,839c-0.3,0-0.6-0.2-0.7-0.6c-1.1-4.5-0.8-8.1,1-10.6c6.3-8.9,29.4-3,47.7,3.6c0.4,0.1,0.6,0.6,0.5,1
					c-0.1,0.4-0.6,0.6-1,0.5c-25.1-9-41.4-10.5-45.9-4.1c-1.5,2.1-1.8,5.3-0.8,9.3c0.1,0.4-0.1,0.8-0.5,0.9
					C339.2,839,339.2,839,339.1,839z"/>
				<path d="M363,889c-3.8,0-4.9-1.4-5.5-2.1c-1.5-1.8-1.5-4.7-0.1-8.7c0.1-0.4,0.6-0.6,1-0.5c0.4,0.1,0.6,0.6,0.5,1
					c-1.2,3.4-1.3,5.9-0.2,7.3c2.1,2.6,9.7,3.2,34.2-8.5c2.3-1.1,4.7-2.3,7.3-3.6l0,0c0,0,0,0,0,0c0.3-0.1,0.6-0.1,0.9,0.1
					c0.3,0.3,0.3,0.8,0,1.1c-0.1,0.1-0.1,0.1-0.2,0.2c-2.6,1.3-5.1,2.5-7.4,3.6C376.6,886.9,367.8,889,363,889z"/>
			</g>
		</g>
		<g id="fish_food">
			<g>
				<circle cx="566.4" cy="541.1" r="2.5"/>
				<path d="M566.4,544.3c-1.8,0-3.2-1.4-3.2-3.2s1.4-3.2,3.2-3.2c1.8,0,3.2,1.4,3.2,3.2S568.2,544.3,566.4,544.3z M566.4,539.4
					c-0.9,0-1.7,0.8-1.7,1.7s0.8,1.7,1.7,1.7c0.9,0,1.7-0.8,1.7-1.7S567.4,539.4,566.4,539.4z"/>
			</g>
			<g>
				<circle cx="579.8" cy="556.2" r="2.5"/>
				<path d="M579.8,559.4c-1.8,0-3.2-1.4-3.2-3.2c0-1.8,1.4-3.2,3.2-3.2s3.2,1.4,3.2,3.2C583.1,557.9,581.6,559.4,579.8,559.4z
					 M579.8,554.4c-0.9,0-1.7,0.8-1.7,1.7c0,0.9,0.8,1.7,1.7,1.7s1.7-0.8,1.7-1.7C581.6,555.2,580.8,554.4,579.8,554.4z"/>
			</g>
			<g>
				<circle cx="564" cy="575.8" r="2.5"/>
				<path d="M564,579.1c-1.8,0-3.2-1.4-3.2-3.2s1.4-3.2,3.2-3.2s3.2,1.4,3.2,3.2S565.8,579.1,564,579.1z M564,574.1
					c-0.9,0-1.7,0.8-1.7,1.7s0.8,1.7,1.7,1.7s1.7-0.8,1.7-1.7S564.9,574.1,564,574.1z"/>
			</g>
			<g>
				<circle cx="594.7" cy="596.3" r="2.5"/>
				<path d="M594.7,599.5c-1.8,0-3.2-1.4-3.2-3.2s1.4-3.2,3.2-3.2c1.8,0,3.2,1.4,3.2,3.2S596.5,599.5,594.7,599.5z M594.7,594.6
					c-0.9,0-1.7,0.8-1.7,1.7s0.8,1.7,1.7,1.7c0.9,0,1.7-0.8,1.7-1.7S595.7,594.6,594.7,594.6z"/>
			</g>
			<g>
				<circle cx="546.2" cy="670.7" r="2.5"/>
				<path d="M546.2,673.9c-1.8,0-3.2-1.4-3.2-3.2c0-1.8,1.4-3.2,3.2-3.2s3.2,1.4,3.2,3.2C549.4,672.4,548,673.9,546.2,673.9z
					 M546.2,669c-0.9,0-1.7,0.8-1.7,1.7c0,0.9,0.8,1.7,1.7,1.7s1.7-0.8,1.7-1.7C547.9,669.7,547.2,669,546.2,669z"/>
			</g>
			<g>
				<circle cx="597.2" cy="708.8" r="2.5"/>
				<path d="M597.2,712.1c-1.8,0-3.2-1.4-3.2-3.2c0-1.8,1.4-3.2,3.2-3.2s3.2,1.4,3.2,3.2C600.4,710.6,599,712.1,597.2,712.1z
					 M597.2,707.1c-0.9,0-1.7,0.8-1.7,1.7c0,0.9,0.8,1.7,1.7,1.7s1.7-0.8,1.7-1.7C598.9,707.9,598.1,707.1,597.2,707.1z"/>
			</g>
			<g>
				<circle cx="474.7" cy="772.7" r="2.5"/>
				<path d="M474.7,776c-1.8,0-3.2-1.4-3.2-3.2c0-1.8,1.4-3.2,3.2-3.2s3.2,1.4,3.2,3.2C477.9,774.5,476.5,776,474.7,776z M474.7,771
					c-0.9,0-1.7,0.8-1.7,1.7c0,0.9,0.8,1.7,1.7,1.7s1.7-0.8,1.7-1.7C476.4,771.8,475.7,771,474.7,771z"/>
			</g>
			<g>
				<circle cx="526.5" cy="731" r="2.5"/>
				<path d="M526.5,734.2c-1.8,0-3.2-1.4-3.2-3.2c0-1.8,1.4-3.2,3.2-3.2s3.2,1.4,3.2,3.2C529.8,732.7,528.3,734.2,526.5,734.2z
					 M526.5,729.2c-0.9,0-1.7,0.8-1.7,1.7c0,0.9,0.8,1.7,1.7,1.7s1.7-0.8,1.7-1.7C528.3,730,527.5,729.2,526.5,729.2z"/>
			</g>
			<g>
				<circle cx="514.9" cy="706.4" r="2.5"/>
				<path d="M514.9,709.6c-1.8,0-3.2-1.4-3.2-3.2c0-1.8,1.4-3.2,3.2-3.2s3.2,1.4,3.2,3.2C518.2,708.1,516.7,709.6,514.9,709.6z
					 M514.9,704.7c-0.9,0-1.7,0.8-1.7,1.7c0,0.9,0.8,1.7,1.7,1.7s1.7-0.8,1.7-1.7C516.7,705.4,515.9,704.7,514.9,704.7z"/>
			</g>
			<g>
				<circle cx="561.5" cy="608.1" r="2.5"/>
				<path d="M561.5,611.4c-1.8,0-3.2-1.4-3.2-3.2s1.4-3.2,3.2-3.2s3.2,1.4,3.2,3.2S563.3,611.4,561.5,611.4z M561.5,606.4
					c-0.9,0-1.7,0.8-1.7,1.7s0.8,1.7,1.7,1.7s1.7-0.8,1.7-1.7S562.5,606.4,561.5,606.4z"/>
			</g>
		</g>
	</g>
</g>
</svg>
