<?xml version="1.0" encoding="utf-8"?>
<!-- Generator: Adobe Illustrator 22.1.0, SVG Export Plug-In . SVG Version: 6.00 Build 0)  -->
<svg version="1.1" xmlns="http://www.w3.org/2000/svg" xmlns:xlink="http://www.w3.org/1999/xlink" x="0px" y="0px"
	 viewBox="0 0 1025.9 1031.4" style="enable-background:new 0 0 1025.9 1031.4;" xml:space="preserve">
<style type="text/css">
	.st0{fill:#FFD6D3;}
	.st1{fill:#00BE75;}
</style>
<g id="background">
	<g id="background_1_">
		<path d="M28.4,776.2c-9,0-18.5-6.9-28.3-20.6c-0.2-0.3-0.2-0.8,0.2-1c0.3-0.2,0.8-0.2,1,0.2c9.8,13.7,19.2,20.4,27.9,19.9
			c7.1-0.4,12.1-5.2,17.3-10.4c5.3-5.2,10.7-10.6,18.6-10.9c8.8-0.4,18,5.5,27.2,17.5c0.3,0.3,0.2,0.8-0.1,1.1
			c-0.3,0.3-0.8,0.2-1.1-0.1c-8.9-11.6-17.6-17.3-25.9-16.9c-7.4,0.4-12.4,5.3-17.7,10.5c-5.2,5.1-10.6,10.4-18.3,10.8
			C29.1,776.2,28.7,776.2,28.4,776.2z"/>
		<path d="M971,699.2c-7.8,0-15.9-5.9-24.3-17.6c-0.2-0.3-0.2-0.8,0.2-1c0.3-0.2,0.8-0.2,1,0.2c8.3,11.7,16.4,17.4,23.8,17
			c6.1-0.3,10.3-4.5,14.7-8.9c4.5-4.5,9.2-9.1,16-9.4c7.6-0.4,15.4,4.7,23.3,15c0.3,0.3,0.2,0.8-0.1,1.1c-0.3,0.3-0.8,0.2-1.1-0.1
			c-7.6-9.9-15-14.8-22.1-14.4c-6.3,0.3-10.5,4.5-15,9c-4.4,4.4-9,8.9-15.7,9.3C971.5,699.2,971.2,699.2,971,699.2z"/>
		<path d="M159.1,78.6c-12.7,0-26.1-9.8-39.9-29.1c-0.2-0.3-0.2-0.8,0.2-1c0.3-0.2,0.8-0.2,1,0.2c13.9,19.6,27.4,29.1,40,28.4
			c10.3-0.6,17.3-7.5,24.8-14.8c7.4-7.3,15.1-14.9,26.3-15.5c12.4-0.6,25.3,7.7,38.3,24.7c0.3,0.3,0.2,0.8-0.1,1.1
			c-0.3,0.3-0.8,0.2-1.1-0.1c-12.7-16.6-25.2-24.7-37-24.1c-10.6,0.5-18.1,7.9-25.3,15c-7.3,7.2-14.9,14.7-25.7,15.3
			C160,78.6,159.6,78.6,159.1,78.6z"/>
		
			<rect x="937.6" y="285.3" transform="matrix(0.742 0.6704 -0.6704 0.742 442.0984 -558.9172)" class="st0" width="19.4" height="19.4"/>
		<path d="M105.8,570.7c-0.1,0-0.2,0-0.4-0.1c-0.4-0.2-0.5-0.7-0.3-1l11.2-20.1c0.2-0.4,0.7-0.5,1-0.3c0.4,0.2,0.5,0.7,0.3,1
			l-11.2,20.1C106.4,570.6,106.1,570.7,105.8,570.7z"/>
		<path d="M506.9,67.6c-0.1,0-0.3,0-0.4-0.1l-20-11.3c-0.4-0.2-0.5-0.7-0.3-1c0.2-0.4,0.7-0.5,1-0.3l20,11.3c0.4,0.2,0.5,0.7,0.3,1
			C507.5,67.4,507.2,67.6,506.9,67.6z"/>
		<path d="M974.5,550.5c-0.1,0-0.3,0-0.4-0.1l-20-11.3c-0.4-0.2-0.5-0.7-0.3-1c0.2-0.4,0.7-0.5,1-0.3l20,11.3c0.4,0.2,0.5,0.7,0.3,1
			C975,550.4,974.8,550.5,974.5,550.5z"/>
		<path d="M557.6,338.2c-0.1,0-0.3,0-0.4-0.1l-19.3-12.5c-0.3-0.2-0.4-0.7-0.2-1c0.2-0.3,0.7-0.4,1-0.2l19.3,12.5
			c0.3,0.2,0.4,0.7,0.2,1C558.1,338.1,557.8,338.2,557.6,338.2z"/>
		<path d="M464.3,220.2c-0.2,0-0.3-0.1-0.5-0.2c-0.3-0.3-0.4-0.7-0.1-1.1l14.8-17.6c0.3-0.3,0.7-0.4,1.1-0.1
			c0.3,0.3,0.4,0.7,0.1,1.1l-14.8,17.6C464.7,220.1,464.5,220.2,464.3,220.2z"/>
		<path d="M846.1,625.6c-0.3,0-0.5-0.1-0.6-0.4l-12-19.6c-0.2-0.4-0.1-0.8,0.2-1c0.4-0.2,0.8-0.1,1,0.2l12,19.6
			c0.2,0.4,0.1,0.8-0.2,1C846.3,625.5,846.2,625.6,846.1,625.6z"/>
		<path d="M788.1,783.5c-0.2,0-0.4-0.1-0.6-0.3c-0.3-0.3-0.2-0.8,0.1-1.1l17.6-14.7c0.3-0.3,0.8-0.2,1.1,0.1
			c0.3,0.3,0.2,0.8-0.1,1.1l-17.6,14.7C788.4,783.5,788.2,783.5,788.1,783.5z"/>
		<path d="M722.3,957c-0.1,0-0.2,0-0.3-0.1l-20.8-9.8c-0.4-0.2-0.5-0.6-0.4-1c0.2-0.4,0.6-0.5,1-0.4l20.8,9.8c0.4,0.2,0.5,0.6,0.4,1
			C722.9,956.9,722.6,957,722.3,957z"/>
		<path d="M948.2,955.3c-0.2,0-0.4-0.1-0.5-0.2c-0.3-0.3-0.3-0.8,0-1.1l16.3-16.2c0.3-0.3,0.8-0.3,1.1,0c0.3,0.3,0.3,0.8,0,1.1
			l-16.3,16.2C948.6,955.2,948.4,955.3,948.2,955.3z"/>
		<path d="M345.8,246C345.8,246,345.8,246,345.8,246c-0.5,0-0.8-0.4-0.7-0.8l1.4-22.9c0-0.4,0.4-0.8,0.8-0.7c0.4,0,0.7,0.4,0.7,0.8
			l-1.4,22.9C346.5,245.7,346.2,246,345.8,246z"/>
		<path d="M224.3,182c-0.2,0-0.4-0.1-0.5-0.2l-16.6-15.9c-0.3-0.3-0.3-0.8,0-1.1c0.3-0.3,0.8-0.3,1.1,0l16.6,15.9
			c0.3,0.3,0.3,0.8,0,1.1C224.7,181.9,224.5,182,224.3,182z"/>
		<path d="M272.8,368.6c-0.2,0-0.4-0.1-0.6-0.2l-15.3-17.1c-0.3-0.3-0.2-0.8,0.1-1.1c0.3-0.3,0.8-0.2,1.1,0.1l15.3,17.1
			c0.3,0.3,0.2,0.8-0.1,1.1C273.1,368.5,273,368.6,272.8,368.6z"/>
		<path d="M961.4,154.9c-0.2,0-0.5-0.1-0.6-0.3l-13.7-18.4c-0.2-0.3-0.2-0.8,0.2-1c0.3-0.2,0.8-0.2,1,0.2l13.7,18.4
			c0.2,0.3,0.2,0.8-0.2,1C961.7,154.9,961.5,154.9,961.4,154.9z"/>
		<path d="M802.8,44c-0.2,0-0.3-0.1-0.5-0.2c-0.3-0.3-0.4-0.7-0.1-1.1l14.4-17.9c0.3-0.3,0.7-0.4,1.1-0.1c0.3,0.3,0.4,0.7,0.1,1.1
			l-14.4,17.9C803.2,43.9,803,44,802.8,44z"/>
		<path d="M841.7,260.5C841.7,260.5,841.7,260.5,841.7,260.5l-22.9-2.1c-0.4,0-0.7-0.4-0.7-0.8s0.4-0.7,0.8-0.7l22.9,2.1
			c0.4,0,0.7,0.4,0.7,0.8C842.4,260.2,842.1,260.5,841.7,260.5z"/>
		<path d="M942.8,429.8c-0.2,0-0.3,0-0.4-0.1c-0.3-0.2-0.4-0.7-0.2-1l13.6-18.5c0.2-0.3,0.7-0.4,1-0.2c0.3,0.2,0.4,0.7,0.2,1
			l-13.6,18.5C943.3,429.7,943,429.8,942.8,429.8z"/>
		<path d="M64.4,414.8c-0.2,0-0.4-0.1-0.6-0.2l-15.6-16.9c-0.3-0.3-0.3-0.8,0-1.1c0.3-0.3,0.8-0.3,1.1,0l15.6,16.9
			c0.3,0.3,0.3,0.8,0,1.1C64.7,414.8,64.6,414.8,64.4,414.8z"/>
		<circle class="st0" cx="897.7" cy="862.3" r="14.1"/>
		<circle class="st0" cx="56.6" cy="201.1" r="8.7"/>
		<circle class="st0" cx="377.7" cy="69.5" r="11.3"/>
		<path d="M159.2,297.6c-2.4,0-4.8-0.6-6.9-1.9c-6.7-3.8-8.9-12.4-5.1-19s12.4-8.9,19-5.1c6.7,3.8,8.9,12.4,5.1,19
			C168.7,295.1,164.1,297.6,159.2,297.6z M159.3,271.3c-4.3,0-8.5,2.2-10.8,6.2c-3.4,5.9-1.4,13.6,4.6,17c5.9,3.4,13.6,1.4,17-4.6
			c3.4-5.9,1.4-13.6-4.6-17C163.5,271.8,161.4,271.3,159.3,271.3z"/>
		<path d="M986.2,59.8c-0.7,0-1.5-0.2-2.2-0.6c-2.1-1.2-2.8-3.8-1.6-5.9l0,0c1.2-2.1,3.8-2.8,5.9-1.6c2.1,1.2,2.8,3.8,1.6,5.9
			C989.2,59,987.7,59.8,986.2,59.8z M983.8,54.1c-0.8,1.3-0.3,3.1,1,3.9c0.7,0.4,1.4,0.5,2.1,0.3c0.7-0.2,1.3-0.7,1.7-1.3
			c0.8-1.3,0.3-3.1-1-3.9C986.3,52.2,984.6,52.7,983.8,54.1L983.8,54.1z"/>
	</g>
</g>
<g id="general_1_">
	<g id="general">
		<g id="ball">
			<path d="M539.9,707.7c-15.1,30.8-45.4,53.2-82.1,56.6c-48.3,4.5-91.9-25.6-106.3-69.8l34.7-22.5c-2.6-19.8-9.8-43.9-21.8-66.7
				c16.5-24.1,43.2-40.9,74.6-43.8c41.9-3.9,80.3,18.2,99.1,53.1C529.6,645.2,532.2,679.1,539.9,707.7z"/>
			<path class="st1" d="M386.2,671.9l-34.7,22.5c-2.3-7.1-3.9-14.5-4.6-22.2c-2.3-24.7,4.4-48.1,17.5-67.1
				C376.4,628,383.7,652.1,386.2,671.9z"/>
		</g>
		<g id="skittles">
			<g id="skittle4">
				<path class="st1" d="M635.1,653l-14.1,1.2c-5.4,22.9-18.6,45-23.8,72.3c-1.1,5.5-1.8,11.1-2.1,16.7l-42.9-1.9
					c-4.7-9.7-9-21.1-12.3-33.5c8-16.3,11.8-34.9,10-54.3c-1.3-14.1-5.4-27.2-11.8-39c0.6-2.1,1.2-4.1,1.9-6.2
					c8.4-25.2,23.7-44.6,31.7-65.7c4.5-11.9,6.7-24.3,4-38.5c-0.1-0.3-0.1-0.7-0.2-1.1c-2.3-11.2-9.3-28.6-2.1-48
					c3.2-8.6,11.1-22.5,20.3-22c11.2,0.6,17.2,22.4,17.6,23.7c5.4,20.2-3.2,37-6.4,47.6c-0.1,0.3-0.2,0.7-0.3,1
					c-3.9,14-2.9,26.5,0.4,38.7c1.6,5.9,3.8,11.8,6.2,17.7c-0.1,0.6-0.3,1.1-0.4,1.6c-4.9,21,4.8,38.1,8.7,49.4
					c0.1,0.4,0.2,0.7,0.4,1.1l10.9-0.9C634.1,626,635.3,639.5,635.1,653z"/>
				<path d="M571.7,542.6c4.5-11.9,6.7-24.3,4-38.5l28.9,1.3c-3.9,14-2.9,26.5,0.4,38.7L571.7,542.6z"/>
				<g>
					<path d="M635.1,653c-0.5,34.3-10.7,67.9-23,90.9l-17-0.8c0.4-5.6,1.1-11.2,2.1-16.7c5.2-27.2,18.4-49.4,23.8-72.3L635.1,653z"
						/>
					<path d="M612.2,744.7C612.1,744.7,612.1,744.7,612.2,744.7l-17.1-0.8c-0.2,0-0.4-0.1-0.5-0.2c-0.1-0.2-0.2-0.3-0.2-0.6
						c0.4-5.7,1.1-11.4,2.1-16.8c2.9-15.1,8.2-28.6,13.3-41.6c4.2-10.6,8.1-20.5,10.5-30.7c0.1-0.3,0.3-0.5,0.7-0.6l14.1-1.2
						c0.2,0,0.4,0.1,0.6,0.2c0.2,0.1,0.2,0.3,0.2,0.6c-0.5,31-9.1,65.1-23.1,91.3C612.7,744.5,612.4,744.7,612.2,744.7z
						 M595.9,742.4l15.8,0.7c13.6-25.6,22.1-58.9,22.7-89.3l-12.7,1.1c-2.4,10.1-6.3,20-10.4,30.4c-5.1,13-10.4,26.4-13.2,41.3
						C597,731.7,596.3,737,595.9,742.4z"/>
				</g>
				<g>
					<path d="M630.9,612.9l-10.9,0.9c-0.1-0.4-0.2-0.7-0.4-1.1c-3.9-11.3-13.5-28.3-8.7-49.4c0.1-0.5,0.3-1.1,0.4-1.6
						c6.5,15.6,14.7,31.7,19.5,50.6C630.8,612.6,630.8,612.7,630.9,612.9z"/>
					<path d="M619.9,614.6c-0.3,0-0.6-0.2-0.7-0.5l-0.4-1.1c-0.7-2-1.5-4.1-2.5-6.4c-4.3-10.9-10.3-25.8-6.2-43.4
						c0.1-0.5,0.3-1.1,0.4-1.7c0.1-0.3,0.4-0.5,0.7-0.6c0.3,0,0.6,0.2,0.7,0.5c1.6,4,3.4,7.9,5.2,12c5.3,12.1,10.8,24.6,14.3,38.7
						l0.1,0.5c0,0.2,0,0.4-0.1,0.6c-0.1,0.2-0.3,0.3-0.5,0.3L619.9,614.6C620,614.6,619.9,614.6,619.9,614.6z M611.5,564.1
						c-3.7,16.9,2.1,31.3,6.3,41.9c0.9,2.3,1.8,4.5,2.5,6.5l0.2,0.5l9.5-0.8c-3.5-13.9-8.9-26.2-14.1-38.1
						C614.3,570.7,612.9,567.4,611.5,564.1z"/>
				</g>
			</g>
			<g id="skittle5">
				<path d="M628,863c-0.3,0-0.5-0.1-0.6-0.3c-18.1-27.4-36.2-73.1-33-119.6c0-0.4,0.4-0.7,0.8-0.7l16.6,0.7
					c13.6-25.6,22.1-58.9,22.7-89.3l-13.2,1.1c-0.2,0-0.5-0.1-0.6-0.3c-0.2-0.2-0.2-0.4-0.2-0.7c3.4-14.6,3.1-27.3-1.1-40
					c-0.1-0.2,0-0.5,0.1-0.6s0.3-0.3,0.6-0.3l10.1-0.9c-3.5-13.9-8.9-26.2-14.1-38.1c-1.8-4.1-3.5-8.1-5.2-12
					c-0.1-0.2-0.1-0.3,0-0.5c1-3.9,6.8-23.6,18.2-24.5c5.2-0.4,10.4,3.2,15.6,10.5c3.9,5.6,6.4,11.4,6.6,12.1
					c6.9,16.8,3.6,32.5,1.2,44c-0.5,2.4-1,4.6-1.3,6.6c-0.1,0.4-0.1,0.7-0.2,1.1c-1.9,13.3-0.1,25.9,5.7,39.6
					c4.1,9.8,9.8,19.1,15.8,29c7.1,11.8,14.5,23.9,20.1,38.1c19.3,49,11.4,105.6-1.3,139.1c-0.1,0.3-0.3,0.5-0.6,0.5L628,863
					C628.1,863,628.1,863,628,863z M595.8,743.9c-2.9,45.6,14.9,90.5,32.6,117.6l61.4-5.3c13.4-35.9,18.9-92.3,1.1-137.6
					c-5.5-14.1-12.9-26.2-20-37.9c-6-9.9-11.7-19.3-15.9-29.2c-5.9-14-7.7-26.8-5.8-40.4c0.1-0.4,0.1-0.8,0.2-1.1
					c0.3-2,0.8-4.3,1.3-6.7c2.4-11.3,5.6-26.7-1.2-43.1c-0.1-0.3-2.6-6.2-6.5-11.8c-3.3-4.8-8.5-10.3-14.2-9.9
					c-8,0.6-14.1,12.8-16.8,23.1c1.6,3.9,3.3,7.7,5.1,11.8c5.3,12.1,10.8,24.6,14.3,38.7l0.1,0.5c0,0.2,0,0.4-0.1,0.6
					c-0.1,0.2-0.3,0.3-0.5,0.3l-10,0.9c3.9,12.4,4.3,24.8,1.1,38.9l13-1.1c0.2,0,0.4,0.1,0.6,0.2c0.2,0.1,0.2,0.3,0.2,0.6
					c-0.5,31-9.1,65.1-23.1,91.3c-0.1,0.3-0.4,0.4-0.7,0.4L595.8,743.9z M690.4,856.9L690.4,856.9L690.4,856.9z"/>
				<path d="M621.1,655c-0.2,0-0.4-0.1-0.6-0.3c-0.2-0.2-0.2-0.4-0.2-0.7c3.4-14.6,3.1-27.3-1.1-40c-0.1-0.2,0-0.5,0.1-0.6
					s0.3-0.3,0.6-0.3l30.1-2.6c0.2,0,0.5,0.1,0.6,0.2c0.2,0.2,0.2,0.4,0.2,0.6c-1.9,13.3-0.1,25.9,5.7,39.6c0.1,0.2,0.1,0.5,0,0.7
					c-0.1,0.2-0.3,0.3-0.6,0.4L621.1,655C621.1,655,621.1,655,621.1,655z M620.9,614.5c3.9,12.4,4.3,24.8,1.1,38.9l32.6-2.8
					c-5.5-13.3-7.2-25.6-5.5-38.5L620.9,614.5z"/>
			</g>
			<g id="skittle3">
				<g>
					<path class="st1" d="M299.1,958.7l-66.5-0.7c-19.4-36.6-33.6-95.8-18.6-146.7c8.3-28.2,24.5-50.3,32.6-74
						c4.5-13.3,6.5-27.1,2.9-42.8c-0.1-0.4-0.2-0.8-0.3-1.2c-3-12.3-11.4-31.4-4.1-53.1c1.9-5.7,5.5-13.5,10.3-18.9
						c8.3,17.5,20.1,33.4,33.2,47c-1.6,10.2-5.1,18.9-6.8,25.4c-0.1,0.4-0.2,0.8-0.3,1.2c-3.8,15.6-2.3,29.4,1.9,42.9
						c7.4,23.7,22.9,46.1,31,74.7C329.3,863.5,316.9,922.5,299.1,958.7z"/>
					<path d="M246.6,737.3c4.5-13.3,6.5-27.1,2.9-42.8l32.1,0.3c-3.8,15.6-2.3,29.4,1.9,42.9L246.6,737.3z"/>
				</g>
				<g>
					<path d="M288.8,668.2c-13.2-13.6-25-29.5-33.2-47c3.3-3.7,7.1-6.3,11.3-6.2c12.5,0.3,19.9,24.1,20.4,25.6
						C290.2,650.6,290.1,659.9,288.8,668.2z"/>
					<path d="M288.8,669c-0.2,0-0.4-0.1-0.5-0.2c-14.3-14.8-25.6-30.7-33.4-47.2c-0.1-0.3-0.1-0.6,0.1-0.8c3.9-4.4,7.8-6.6,11.9-6.5
						c13.1,0.3,20.8,25.1,21.1,26.1c2.7,8.8,3.2,17.9,1.6,27.9c0,0.3-0.2,0.5-0.5,0.6C288.9,669,288.8,669,288.8,669z M256.4,621.4
						c7.5,15.8,18.2,31,31.8,45.3c1.3-9.2,0.7-17.6-1.7-25.8c-0.3-1-7.7-24.8-19.7-25.1C263.3,615.7,259.9,617.6,256.4,621.4z"/>
				</g>
			</g>
			<g id="skittle2">
				<path d="M335.9,705.3c-0.1,0-0.2,0-0.4-0.1c-16.3-8.9-33.2-21.8-47.4-36.5c-0.2-0.2-0.2-0.4-0.2-0.6c1.6-9.8,1.1-18.7-1.5-27.3
					c-0.3-1-7.7-24.8-19.7-25.1c-3.6-0.1-7.2,1.9-10.7,6c-0.2,0.2-0.4,0.3-0.7,0.2c-0.2,0-0.5-0.2-0.6-0.4
					c-2.8-5.9-5.1-11.8-6.9-17.7c-4.4-14.1-6-27.9-7.5-41.2c-1.2-10.8-2.4-21-5-30.7c-3.7-13.9-9.7-24.4-19-33.3
					c-0.3-0.2-0.5-0.5-0.8-0.7c-1.5-1.4-3.2-2.8-5-4.3c-8.6-7.2-20.4-17.2-24.9-33.9c-2.4-8.9-4.3-25.3,4-30.5
					c9.8-6.2,27.1,7.5,29,9.1c13.5,11.1,17.8,25.9,20.9,36.6c0.6,2.2,1.3,4.3,1.9,6.1c0.1,0.4,0.2,0.7,0.4,1
					c4.4,12.1,11.6,21.9,22.7,30.9c7.9,6.4,16.9,11.8,26.5,17.4c11.3,6.7,23.1,13.7,34.2,23.2c15.5,13.2,28.9,30.5,39.8,51.3
					c0.2,0.4,0.1,0.8-0.3,1c-0.4,0.2-0.8,0.1-1-0.3c-10.8-20.6-24.1-37.7-39.5-50.8c-11-9.4-22.7-16.3-34-23
					c-9.6-5.7-18.6-11.1-26.6-17.5c-11.3-9.2-18.7-19.2-23.1-31.6c-0.1-0.3-0.2-0.7-0.4-1c-0.6-1.9-1.3-4-1.9-6.2
					c-3.1-10.6-7.3-25.1-20.4-35.9c-0.7-0.6-18.1-14.8-27.3-9c-4.1,2.6-5.1,8.4-5.3,12.8c-0.2,4.8,0.5,10.8,2,16.1
					c4.4,16.3,15.9,26,24.4,33.1c1.8,1.5,3.5,3,5,4.4c0.3,0.3,0.5,0.5,0.8,0.8c9.5,9.1,15.7,19.9,19.4,34c2.6,9.8,3.8,20.1,5,30.9
					c1.5,13.3,3.1,27,7.4,40.9c1.7,5.5,3.9,11,6.4,16.5c3.6-3.8,7.3-5.7,11.1-5.6c5.5,0.1,10.7,4.4,15.3,12.7
					c3.6,6.3,5.5,12.7,5.8,13.4c2.6,8.7,3.2,17.7,1.6,27.6c13.9,14.3,30.4,27,46.3,35.7l15.2-9.9c0.3-0.2,0.8-0.1,1,0.2
					c0.2,0.3,0.1,0.8-0.2,1l-15.6,10.1C336.2,705.3,336.1,705.3,335.9,705.3z"/>
				<path d="M236.1,531.7c-3.2-12.3-8.7-23.6-19.2-33.6l24.3-15.8c4.9,13.7,13,23.3,22.9,31.2L236.1,531.7z"/>
			</g>
			<g id="skittle1">
				<path d="M407.2,484c-8.2,0-14.5-3.8-16.9-5.3c-12.7-7.6-24.2-27.4-28.1-48.1c-3.6-19-0.3-36.2,9.3-48.6
					c3.2-4.1,15-17.6,34.3-19.4c15.6-1.4,32,5.4,41.9,17.4c7.5,9.1,14.5,25.6,5.9,53c-6,18.9-17.3,35-25.2,41.9
					c-3.1,2.7-9.5,8.3-19,9C408.5,484,407.9,484,407.2,484z M409.9,364c-1.3,0-2.7,0.1-4,0.2c-18.7,1.7-30.2,14.8-33.2,18.8
					c-9.3,12-12.5,28.8-9,47.4c3.8,20.3,15.1,39.7,27.4,47.1l0,0c2.8,1.7,9.4,5.7,18,5c9-0.7,15.2-6,18.1-8.6
					c7.8-6.8,18.9-22.6,24.8-41.2c8.4-26.7,1.6-42.8-5.6-51.6C437.7,370.4,423.7,364,409.9,364z"/>
				<circle cx="408.4" cy="458.6" r="21.8"/>
				<path d="M425.9,366.8c-0.1,0-0.2,0-0.2,0c-0.4-0.1-0.6-0.6-0.5-0.9c2.2-6.6,3.9-13.1,1.9-20.6c-1.6-6-6.3-16.4-13.7-16.8
					c-7.7-0.4-13.5,9.9-15.6,15.4c-2.4,6.6-1.6,12.4,0.2,21.1c0.1,0.4-0.2,0.8-0.6,0.9c-0.4,0.1-0.8-0.2-0.9-0.6
					c-1.8-9-2.7-14.9-0.1-21.9c2.2-5.9,8.5-16.9,17.1-16.4c8.3,0.5,13.4,11.5,15.1,17.9c2.1,7.9,0.3,14.6-2,21.4
					C426.5,366.6,426.2,366.8,425.9,366.8z"/>
				<path d="M396.5,360.9c3-1.2,9.2-3.3,17.1-2.5c6.1,0.7,10.7,2.8,13.4,4.3c-0.3,1-0.6,2-0.9,3c-3.6-1.2-8.9-2.5-15.4-2.5
					c-5.4,0-9.8,0.9-13.1,1.8C397.2,363.6,396.8,362.3,396.5,360.9z"/>
			</g>
		</g>
		<g id="lines">
			<path d="M105.9,695.6c-0.3,0-0.5-0.1-0.7-0.4c-0.2-0.4-0.1-0.8,0.3-1l442.1-249.7c0.4-0.2,0.8-0.1,1,0.3c0.2,0.4,0.1,0.8-0.3,1
				L106.2,695.5C106.1,695.5,106,695.6,105.9,695.6z"/>
			<path d="M580.9,1031.4c-0.1,0-0.2,0-0.3,0c-0.4-0.1-0.6-0.6-0.4-1C635.4,886.9,695.3,743.1,758.3,603c8.1-18,16.3-36.1,24.5-54
				c0.2-0.4,0.6-0.5,1-0.4c0.4,0.2,0.5,0.6,0.4,1c-8.2,17.9-16.4,36.1-24.5,54c-62.9,140-122.8,283.8-178.1,427.3
				C581.5,1031.2,581.2,1031.4,580.9,1031.4z"/>
		</g>
		<g id="man">
			<g id="hand_l">
				<path d="M659.8,115.2c-0.1,0-0.2,0-0.3-0.1c-0.4-0.2-0.6-0.6-0.4-1c1.2-2.9,7.6-17.6,11.5-24.7c0.7-1.3,2.4-4.3,5-4.5
					c1.1-0.1,2.6,0.4,3.4,1.6c1.2,1.9-0.1,4.5-0.7,5.8c-0.5,1.1-1,2.1-1.5,3c4.3-6.6,6.3-8.5,8.7-8.3c1.2,0.1,2.4,0.8,3,1.8
					c1.4,2.4-0.8,5.6-2.5,8.2l-1.5,2.3c-2.5,3.8-4.9,7.4-7.4,11.2l-0.3,0.4c-0.2,0.3-0.7,0.4-1,0.2c-0.3-0.2-0.4-0.7-0.2-1l0.2-0.4
					c0,0,0.1-0.1,0.1-0.1c2.5-3.8,4.9-7.4,7.4-11.2l1.5-2.3c1.4-2.1,3.4-5.1,2.5-6.6c-0.3-0.6-1.1-1-1.8-1.1c-1.8-0.2-4,2.3-8.7,9.9
					c-1.1,1.8-4.5,7.2-5.6,9.2c-0.4,0.9-0.5,1.2-1,1.2c-0.2,0-0.3-0.1-0.5-0.2c-0.5-0.4-0.3-0.9,0.2-1.7l0.3-0.7
					c1-2.2,3.1-6.8,6.9-14.6c0.5-0.9,1.6-3.1,0.8-4.3c-0.4-0.6-1.2-1-2.1-0.9c-1.8,0.1-3.2,2.6-3.8,3.7c-3.9,7-10.2,21.7-11.4,24.6
					C660.3,115,660.1,115.2,659.8,115.2z"/>
				<path d="M668.4,136.5c-0.2,0-0.4-0.1-0.5-0.2c-0.3-0.3-0.3-0.8,0-1.1c9.8-10,16.5-16.8,21.5-21.4l0.1-0.1
					c1.6-1.5,5.8-5.4,4.9-7.7c-0.1-0.4-0.4-0.6-0.6-0.8c-1.4-0.7-4.5,2.2-7.1,4.5c-1.9,1.8-3.8,3.7-5.6,5.8c-0.3,0.3-0.7,0.4-1,0.1
					c-0.3-0.2-0.4-0.7-0.2-1c2.6-3.9,5.3-7.7,8-11.2l0.5-0.7c2.2-2.8,4.3-5.5,3.5-6.9c-0.2-0.4-0.7-0.8-1.2-0.8
					c-1.6-0.3-3.6,2.2-6.7,6.2c-2.2,2.9-4.5,6-7,9.3c-0.2,0.3-0.7,0.4-1.1,0.2c-0.3-0.2-0.4-0.7-0.2-1c0,0,0.1-0.1,0.1-0.1
					c2.4-3.3,4.8-6.4,7-9.3c3.7-4.8,5.7-7.2,8.2-6.8c1,0.2,1.9,0.8,2.3,1.6c1.2,2.2-1.1,5.1-3.7,8.5l-0.5,0.7
					c-0.9,1.2-1.8,2.4-2.8,3.7c3.2-2.9,5.9-5.2,8.1-4.1c0.6,0.3,1.1,0.9,1.4,1.6c1.2,3.2-3.2,7.3-5.3,9.3l-0.1,0.1
					c-5,4.6-11.6,11.4-21.4,21.4C668.7,136.4,668.6,136.5,668.4,136.5z"/>
				<path d="M668.4,136.5c-0.1,0-0.3,0-0.4-0.1l-21.1-13.1c-0.3-0.2-0.4-0.6-0.3-0.9l0.7-1.7c3.3-8,5.9-14.3,7.5-18.4
					c0.5-1.4,1.7-4.5,4.2-5.1c0.9-0.2,2.3-0.1,3.2,0.8c1.5,1.4,1.1,3.9,0.7,5.8c-0.7,3.7-1.5,7.2-2.5,10.9c-0.1,0.4-0.5,0.6-0.9,0.5
					c-0.4-0.1-0.6-0.5-0.5-0.9c1-3.6,1.8-7.1,2.5-10.7c0.3-1.9,0.6-3.6-0.3-4.4c-0.5-0.5-1.3-0.5-1.9-0.4c-1.8,0.4-2.7,3-3.2,4.1
					c-1.6,4.1-4.2,10.5-7.5,18.5l-0.5,1.1l20.5,12.7c0.4,0.2,0.5,0.7,0.2,1C668.9,136.4,668.6,136.5,668.4,136.5z"/>
			</g>
			<path id="tshirt" d="M869,147.5c-26.2-16.4-56.7-34.3-91.3-52.9c-36.9-19.8-65.3-33.1-102.7-33.4c-2,0-3.6,0-4.7,0
				c-0.5,2.7-1.8,7.7-5.6,12.8c-0.6,0.8-4.8,6.3-11.4,9.3c-14.6,6.6-30.5-4.3-31.3-4.8c-11.4,8.6-39.2,32.2-46.9,71.3
				c-4.4,22-6.2,68.2,18.8,79.2c16.7,7.3,36.9-4.6,43.3-8.8c1.2,5.9,5.1,34.2,5.7,41.4c23.1-6.5,47-13.9,71.6-22.1
				c21.2-7.1,41.6-14.4,61.1-21.8c-6.5-17.4-13.1-34.8-19.7-52.2c-4.6-12.1-9.2-24.2-13.9-36.3c10.2,4.5,20.5,9,30.7,13.5
				c27.7,12.2,55.5,24.3,83.2,36.5C860.2,168.5,864.6,158,869,147.5z M689.8,114.4c-5.2,4.8-12.2,11.9-21.4,21.4
				c-7-4.4-14-8.7-21.1-13.1c3.7-8.9,6.5-15.8,8.2-20.2c0.5-1.2,1.5-4.1,3.7-4.6c0.8-0.2,1.9,0,2.6,0.6c1.2,1.1,0.9,3.2,0.5,5.1
				c-0.5,2.7-1.3,6.4-2.5,10.8c0.7-1.7,7.4-17.3,11.4-24.7c0.8-1.4,2.3-4,4.4-4.1c1-0.1,2.2,0.4,2.7,1.3c1,1.6-0.2,4-0.7,5.1
				c-4.4,8.8-6.5,13.6-7.3,15.3c1.1-2,4.5-7.5,5.6-9.3c5.1-8.2,7.3-10.5,9.4-10.3c0.9,0.1,1.9,0.6,2.4,1.4c1.1,2-0.9,5-2.5,7.4
				c-3.1,4.6-5.9,8.9-9,13.5c2.5-3.5,4.9-6.6,7-9.3c3.4-4.5,5.4-6.9,7.4-6.5c0.7,0.1,1.4,0.6,1.8,1.2c1,1.9-1.5,4.9-4.1,8.4
				c-2,2.6-4.8,6.4-7.9,11.1c2.2-2.6,4.2-4.5,5.6-5.8c3.2-2.9,6.1-5.5,7.9-4.6c0.7,0.3,1,1,1,1.2
				C696.1,108.6,691.6,112.6,689.8,114.4z M670.4,107.3c-0.3,0.5-0.4,0.7-0.4,0.8C670,108.1,670.1,107.8,670.4,107.3z"/>
			<g id="hand_r">
				<path d="M889.1,178.3c-0.4,0-0.7-0.3-0.7-0.6c-0.2-1.2-0.3-2.3-0.4-3.5c-0.1-1.3-0.1-2.7,0-4c-0.6,0.3-1.2,0.5-1.9,0.8
					c-3.1,1.1-5.8,1.4-7.1,1.4c-0.9,0-1.8,0-2.7-0.1c-0.4,0-0.7-0.4-0.7-0.8c0-0.4,0.4-0.7,0.8-0.7c0.8,0.1,1.7,0.1,2.5,0.1
					c1.2,0,3.7-0.3,6.6-1.3c1-0.4,2-0.8,2.9-1.3c0.2-0.1,0.5-0.1,0.8,0c0.2,0.2,0.4,0.4,0.3,0.7c-0.2,1.7-0.2,3.4-0.1,5.1
					c0.1,1.1,0.2,2.2,0.4,3.3c0.1,0.4-0.2,0.8-0.6,0.9C889.1,178.3,889.1,178.3,889.1,178.3z"/>
				<path d="M881.1,192.7c-0.4,0-0.8,0-1.1-0.1c-0.7-0.2-1.2-0.5-1.2-0.5c-0.6-0.4-1.2-0.8-1.6-1.3c0,0-0.2-0.3-0.4-0.8
					c0-0.1-0.4-0.9-0.4-1.8c0-1.6,2.9-3.7,6.5-4.8c0.4-0.1,0.8,0.1,0.9,0.5s-0.1,0.8-0.5,0.9c-3.6,1-5.3,2.8-5.4,3.3
					c0,0.6,0.3,1.2,0.3,1.2c0.1,0.3,0.3,0.5,0.3,0.5c0.3,0.3,0.6,0.6,1.1,0.9c0,0,0.4,0.2,0.9,0.4c1.9,0.5,5.4-1.2,6.6-2
					c4.8-2.9,7.2-4.4,8.3-6.5c0.3-0.6,0.6-3,1.2-6.6c0.7-4.9,0.8-7.5-0.4-10c-0.3-0.5-0.5-0.9-0.7-1.2c-0.5-0.8-1.2-1.5-2.1-2.3
					c-5.2-4.6-11.6-7.3-15.8-9.1c-0.5-0.2-1-0.4-1.5-0.6c-0.7-0.3-2-0.9-3.5-1.6c-3.3-1.5-7.9-3.6-9.2-4.1c-0.4-0.1-0.6-0.6-0.4-1
					c0.1-0.4,0.6-0.6,1-0.4c1.3,0.5,5.8,2.5,9.3,4.1c1.5,0.7,2.8,1.3,3.5,1.6c0.4,0.2,0.9,0.4,1.5,0.6c4,1.7,10.8,4.6,16.2,9.4
					c1,0.9,1.7,1.7,2.3,2.6c0.2,0.3,0.5,0.8,0.8,1.4c1.5,2.9,1.4,5.7,0.6,10.9c-0.7,4.6-0.9,6.3-1.3,7c-1.3,2.4-3.8,4-8.8,7
					C887.3,190.7,883.9,192.7,881.1,192.7z"/>
				<path d="M887.7,185.5c-1.3,0-2.9-0.2-4.8-0.6c-3.4-0.8-6.8-2-9.2-3c-0.6-0.2-1-0.4-1.3-0.5l-0.3-0.1c-0.9-0.4-1.8-0.8-2.8-1.2
					c0,0-1.5-0.7-2.7-1.2c-6.3-3-10.2-7.2-12-9.4c-0.3-0.3-0.2-0.8,0.1-1.1c0.3-0.3,0.8-0.2,1.1,0.1c1.7,2.1,5.4,6.1,11.4,9
					c1.2,0.6,2.6,1.2,2.6,1.2c0.9,0.4,1.9,0.8,2.8,1.2l0.3,0.1c0.3,0.1,0.7,0.3,1.3,0.5c2.3,0.9,5.7,2.2,8.9,2.9
					c4,0.9,6.7,0.8,7.7-0.4c0.5-0.5,0.8-1.6,0.6-2.4c-0.3-0.9-1.2-1.6-2.8-2.3c-0.6-0.2-1.1-0.4-1.6-0.6l-0.3-0.1
					c-0.9-0.3-1.7-0.6-2.6-1c-1.6-0.7-3.2-1.4-4.7-2.2c-0.8-0.4-1.6-0.9-2.4-1.3c-0.3-0.2-0.5-0.3-0.8-0.5c0,0,0,0,0,0
					c-0.2-0.1-0.3-0.2-0.4-0.3c-0.7-0.4-1.4-0.8-2.1-1.3c-0.3-0.2-0.4-0.7-0.2-1c0.2-0.3,0.7-0.4,1-0.2c0.7,0.5,1.4,0.9,2.1,1.3
					c0.1,0.1,0.3,0.2,0.4,0.2c0,0,0,0,0,0c0.2,0.1,0.5,0.3,0.7,0.4c0.8,0.5,1.6,0.9,2.4,1.3c1.5,0.8,3.1,1.5,4.6,2.2
					c0.8,0.3,1.7,0.7,2.5,1l0.3,0.1c0.5,0.2,1.1,0.4,1.7,0.6c2,0.9,3.2,1.9,3.6,3.2c0.5,1.5-0.1,3-0.9,3.9
					C891.2,185,889.7,185.5,887.7,185.5z"/>
				<path d="M881.1,174.6c-0.2,0-0.4-0.1-0.6-0.3c-0.3-0.3-0.2-0.8,0.1-1.1l3.8-3.3c0.3-0.3,0.8-0.2,1.1,0.1
					c0.3,0.3,0.2,0.8-0.1,1.1l-3.8,3.3C881.5,174.6,881.3,174.6,881.1,174.6z"/>
				<path d="M874.9,189.4c-0.7,0-1.4-0.1-2.1-0.5c-1.2-0.6-2.2-1.8-2.5-3c0-0.1,0-0.1,0-0.2c-0.2-1.1,0.2-2.1,1.1-3.1c0,0,0,0,0,0
					c0.5-0.6,1.3-1.3,2.2-2c0.3-0.2,0.8-0.2,1,0.2c0.2,0.3,0.2,0.8-0.2,1c-0.8,0.6-1.5,1.2-1.9,1.7c0,0,0,0,0,0
					c-0.6,0.7-0.9,1.4-0.8,1.9l0,0.1c0.2,0.7,0.8,1.6,1.7,2c1.4,0.7,2.9,0.1,3.4-0.1c0.4-0.2,0.8,0,1,0.4c0.2,0.4,0,0.8-0.4,1
					C877,189.1,876,189.4,874.9,189.4z"/>
				<path d="M871,186.5c0,0-0.1,0-0.1,0c-0.4-0.1-0.9-0.2-1.2-0.4c-1.3-0.7-2.4-2-2.6-3.3c0-0.1,0-0.2,0-0.3
					c-0.1-1.2,0.6-2.5,2.1-3.8c0.3-0.3,0.8-0.3,1.1,0.1c0.3,0.3,0.3,0.8-0.1,1.1c-1.1,1-1.6,1.9-1.6,2.6c0,0,0,0.1,0,0.1
					c0.1,0.7,0.8,1.7,1.7,2.2c0.3,0.1,0.5,0.2,0.8,0.3c0.4,0.1,0.7,0.4,0.6,0.9C871.7,186.3,871.4,186.5,871,186.5z"/>
				<path d="M871.9,183.8c0,0-0.1,0-0.1,0c-0.4-0.1-0.7-0.5-0.6-0.9l0,0c0.1-0.4,0.5-0.7,0.9-0.6c0.4,0.1,0.7,0.5,0.6,0.9
					C872.6,183.6,872.3,183.8,871.9,183.8z"/>
				<path d="M867.8,183.3c-0.2,0-0.3,0-0.5-0.2c-1-0.7-1.7-1.8-1.8-2.8c-0.1-0.9,0.1-1.8,0.8-2.7c0.2-0.3,0.7-0.4,1-0.2
					c0.3,0.2,0.4,0.7,0.2,1c-0.4,0.6-0.6,1.1-0.5,1.6c0.1,0.6,0.6,1.3,1.2,1.8c0.3,0.2,0.4,0.7,0.1,1.1
					C868.3,183.2,868.1,183.3,867.8,183.3z"/>
			</g>
			<g id="shoes">
				<path d="M866.2,450.4c-1.3,3.5-3.1,8.3-5.3,14.1l0,0c-3-1.7-6.6-0.5-7.7,1.9c-1.3,2.6,0.2,6.5,3.8,7.6
					c-2.9,7.4-5.7,14.9-8.6,22.3c-6.6,17-13.2,34.1-19.8,51.1c-9-7.4-11.5-14-12-18.7c-0.7-6.4,2.1-10.6,3.8-26
					c0.2-2.2,0.7-6.2-0.3-11.1c-0.9-4.4-2.7-9.5-6.1-15.4c0.1-0.4,0.3-0.8,0.4-1.1c1.4-3.8,2.9-7.6,4.4-11.5
					c2.9-3.2,5.9-6.5,8.8-9.7c3.1-3.4,6.2-6.8,9.3-10.2c0.3-0.3,0.6-0.7,0.9-1C847.2,445.3,856.7,447.9,866.2,450.4z"/>
				<path d="M737.2,540.2c-3.4,1.3-8.2,3.2-13.9,5.3l0,0c-0.7-3.4-4-5.3-6.6-4.6c-2.7,0.8-4.7,4.5-3.1,7.9
					c-7.4,2.8-14.8,5.5-22.2,8.3c-17,6.3-33.9,12.6-50.9,18.9c-0.5-11.8,2.7-18,5.9-21.5c4.3-4.8,9.2-5.4,21.7-14.4
					c1.8-1.3,5-3.6,8-7.6c0.5-0.7,2.3-3,3.9-6.4c1.8-3.8,2.7-7.3,3.2-9.9c13.3-1.5,26.7-2.9,40-4.4
					C727.8,521.3,732.5,530.8,737.2,540.2z"/>
			</g>
			<g id="head">
				<path d="M653.3,44.2c-0.4,0-0.7-0.3-0.7-0.6c-0.1-0.4,0.2-0.8,0.6-0.9c4.1-0.8,7.1-4.5,7-8.7c0-1.1-0.3-2.1-0.7-3
					c-0.1-0.2-0.1-0.3-0.2-0.4c-0.5-1-1.1-1.8-1.9-2.5c-1.7-1.5-3.8-2.3-6.1-2.2c-3,0.1-5.8,1.8-7.2,4.5c-0.5,0.9-0.8,1.9-0.9,2.9
					c-0.1,0.4-0.4,0.7-0.8,0.6c-0.4-0.1-0.7-0.4-0.6-0.8c0.2-1.2,0.5-2.3,1.1-3.4c1.7-3.1,4.9-5.1,8.5-5.2c2.6-0.1,5.2,0.8,7.1,2.6
					c0.9,0.8,1.7,1.8,2.2,2.9c0.1,0.2,0.2,0.3,0.2,0.5c0.5,1.1,0.8,2.3,0.8,3.6c0.2,4.9-3.3,9.3-8.2,10.2
					C653.4,44.2,653.3,44.2,653.3,44.2z"/>
				<path id="hair" d="M598.1,26.4c2.6-0.9,6.8-2.7,11-6.4c3.7-3.3,5.9-6.8,7-9.1c1.5,2.6,5.2,8.2,12.2,12.3
					c6.9,4.1,13.5,4.6,16.5,4.7c0.4-0.5,1.1-1.1,2-1.6c0.1-0.1,1.3-0.8,2.8-1.1c3.1-0.7,6,0.6,6.7,1c-0.1-0.6-0.3-1.4-0.5-2.4
					c-0.5-2-3.9-14.9-15.9-20.9c-6.6-3.3-12.7-3-14.8-2.9c-2.2,0.1-13.8,0.8-21.3,10.5C598.9,16.7,598.2,23.4,598.1,26.4z"/>
				<g id="face">
					<path d="M621.3,80.3c-0.2,0-0.4-0.1-0.6-0.3c-0.3-0.3-0.2-0.8,0.1-1.1c3.5-2.9,7.1-5.7,10.6-8.6l-0.5-1.7
						c-0.2-0.9-0.5-1.8-0.7-2.6c-0.6,0.1-1.2,0.2-1.8,0.2c-1.9,0.2-3.7,0.1-5.5-0.2c-13.7-2.2-23.6-17.4-25.3-30.9c-0.4-3-0.4-6,0-9
						c0.1-0.4,0.4-0.7,0.8-0.6c0.4,0.1,0.7,0.4,0.6,0.8c-0.4,2.9-0.4,5.8,0,8.7c1.6,12.9,11,27.5,24,29.6c1.7,0.3,3.4,0.3,5.1,0.2
						c0.8-0.1,1.6-0.2,2.4-0.3c0.4-0.1,0.8,0.2,0.9,0.6c0.3,1.1,0.5,2.2,0.8,3.3l0.6,2.1c0.1,0.3,0,0.6-0.2,0.8
						c-3.7,3-7.3,5.9-11,8.9C621.6,80.2,621.5,80.3,621.3,80.3z"/>
					<path d="M672.4,62.4C672.3,62.4,672.3,62.4,672.4,62.4l-10.6-0.5c-0.3,0-0.6-0.2-0.7-0.5L655,42.9c-0.1-0.4,0.1-0.8,0.5-0.9
						c0.4-0.1,0.8,0.1,0.9,0.5l5.9,18l10,0.5c0.4,0,0.7,0.4,0.7,0.8C673.1,62.1,672.8,62.4,672.4,62.4z"/>
					<path d="M645,55.9c-0.1,0.3-4.1,8-13,13.6c-0.1-0.3-0.2-0.6-0.3-1c-0.3-1.3-0.7-2.5-1.1-3.7c0.8-0.2,1.6-0.4,2.5-0.7
						C638.6,62.1,642.4,58.7,645,55.9z"/>
				</g>
			</g>
			<g id="legs">
				<path d="M670.7,312.6c-0.1,0-0.2,0-0.3-0.1c-0.4-0.1-0.6-0.6-0.4-1l0.6-1.5c2.1-5.6,4-10.4,7.5-18.9
					c4.5-10.9,8.9-21.4,13.6-32.2c0.2-0.4,0.6-0.6,1-0.4c0.4,0.2,0.6,0.6,0.4,1c-4.7,10.7-9.1,21.3-13.6,32.2
					c-3.5,8.5-5.3,13.3-7.5,18.8l-0.6,1.5C671.3,312.4,671,312.6,670.7,312.6z"/>
				<path d="M674.7,517.9c-0.4,0-0.7-0.3-0.7-0.6c-0.2-1.4-20.8-141.2-14-174.7c0.2-0.8,0.3-1.6,0.5-2.4c0,0,0,0,0,0
					c0.4-1.8,0.9-3.7,1.5-5.8c1.7-5.9,4-12.5,7.9-22.6c-6.3-14-11.6-28.6-15.6-43.4c-0.5-2-1.1-4-1.6-6.1c-0.3-1.2-0.6-2.3-0.8-3.5
					c-0.1-0.4,0.2-0.8,0.6-0.9c0.4-0.1,0.8,0.2,0.9,0.6c0.3,1.1,0.6,2.3,0.8,3.4c0.5,2,1,4.1,1.6,6c4.1,14.9,9.4,29.5,15.7,43.5
					c0.1,0.2,0.1,0.4,0,0.6c-4,10.3-6.3,16.9-8,22.8c-0.6,2-1.1,3.9-1.4,5.7c0,0,0,0,0,0c-0.2,0.8-0.4,1.6-0.5,2.4
					c-6.1,29.9,10.8,153.9,13.9,173.4l15.5-1.7c10.7-1.2,21.5-2.3,32.2-3.5l1.6-0.2l-6.4-111.9c-0.3-4.6-0.5-9.2-0.8-13.8l-1.6-28.5
					c0-0.1,0-0.3,0.1-0.4c1.9-3.3,3.8-6.6,5.7-10c0,0,0,0,0-0.1h0c0.3-0.4,0.5-0.9,0.7-1.3c0-0.1,0.1-0.1,0.1-0.1
					c4.8-8.8,9.4-17.9,13.6-26.9c2.2-4.7,4.3-9.5,6.4-14.5c8.6-20.3,15.9-37.9,18.8-59.9c0.3-2.2,0.5-4.5,0.7-6.7
					c0.2-2,0.3-4,0.4-6.1c0.1-2.8,0.2-5.7,0.2-8.5c0-0.4,0.3-0.8,0.7-0.8c0,0,0,0,0,0c0.4,0,0.7,0.3,0.8,0.7c0,2.8,0,5.7-0.2,8.6
					c-0.1,2.1-0.2,4.2-0.4,6.2c-0.2,2.3-0.4,4.6-0.7,6.8c-2.9,22.1-10.4,39.8-19,60.2c-2.1,5.1-4.2,9.8-6.4,14.6
					c-4.2,9.1-8.8,18.2-13.7,27.1c0,0,0,0.1-0.1,0.1c-0.2,0.4-0.4,0.8-0.7,1.3c0,0,0,0,0,0.1c-1.9,3.4-3.8,6.7-5.7,9.9l1.6,28.3
					c0.3,4.6,0.5,9.2,0.8,13.8l6.4,112.6c0,0.4-0.3,0.7-0.7,0.8l-2.3,0.3c-10.7,1.2-21.5,2.3-32.2,3.5L674.7,517.9
					C674.8,517.9,674.8,517.9,674.7,517.9z M723.1,345.3L723.1,345.3L723.1,345.3z"/>
				<path d="M807.4,476.7c-0.2,0-0.4-0.1-0.5-0.2c-25-21.7-48.8-45.2-70.8-69.8c-6.6-7.4-12.8-14.3-18.5-21
					c-0.3-0.3-0.2-0.8,0.1-1.1c0.3-0.3,0.8-0.2,1.1,0.1c5.7,6.7,11.9,13.6,18.5,21c21.8,24.4,45.4,47.7,70.1,69.2l2.8-3.1
					c2.7-2.9,5.3-5.8,8-8.8c2.9-3.2,5.9-6.5,8.8-9.7c2.8-3,5.5-6.1,8.3-9.1l1.9-2.1c0.2-0.2,0.4-0.5,0.6-0.7l-11.3-13.7
					c0,0,0,0,0-0.1c-0.8-1-1.7-2-2.5-3l-14.4-17.4c-24.4-29.6-48.9-59.1-73.3-88.7c-0.3-0.3-0.2-0.8,0.1-1.1
					c0.3-0.3,0.8-0.2,1.1,0.1c24.4,29.6,48.9,59.1,73.3,88.7l14.4,17.4c0.8,1,1.7,2,2.5,3c0,0,0,0,0,0.1l11.7,14.1
					c0.2,0.3,0.2,0.7,0,1c-0.4,0.4-0.7,0.8-1.1,1.2l-1.9,2.1c-2.8,3-5.5,6.1-8.3,9.1c-2.9,3.2-5.9,6.5-8.8,9.7
					c-2.7,2.9-5.3,5.8-8,8.8l-3.3,3.6C807.8,476.7,807.6,476.7,807.4,476.7z"/>
				<path d="M814.3,475.8c-0.2,0-0.3,0-0.4-0.1l-3.6-2.7c-0.3-0.2-0.4-0.7-0.2-1c0.2-0.3,0.7-0.4,1-0.2l3.6,2.7
					c0.3,0.2,0.4,0.7,0.2,1C814.8,475.7,814.5,475.8,814.3,475.8z"/>
				<g id="pattern">
					<path d="M716.6,238.7c0.2,0.4,0.4,0.8,0.4,1.3c0.2,1.7-1,3.3-2.7,3.6c-1.7,0.2-3.3-1-3.6-2.7c0,0,0-0.1,0-0.1L716.6,238.7z"/>
					<circle cx="738.9" cy="237.1" r="3.2"/>
					<path d="M763.3,230.7c-0.1,2.2-0.2,4.2-0.4,6.1c-1.1-0.4-2-1.4-2.1-2.6C760.5,232.6,761.7,231,763.3,230.7z"/>
					<path d="M655,268.2c-0.6-2.1-1.1-4.1-1.6-6c1.7-0.1,3.1,1.1,3.4,2.8C657,266.3,656.2,267.6,655,268.2z"/>
					<circle cx="678.6" cy="262.1" r="3.2"/>
					<circle cx="703.6" cy="258.8" r="3.2"/>
					<circle cx="728.6" cy="255.5" r="3.2"/>
					<circle cx="753.6" cy="252.2" r="3.2"/>
					<circle cx="669.9" cy="283" r="3.2"/>
					<circle cx="694.9" cy="279.7" r="3.2"/>
					<circle cx="719.9" cy="276.5" r="3.2"/>
					<circle cx="744.9" cy="273.2" r="3.2"/>
					<circle cx="684.6" cy="298.2" r="3.2"/>
					<circle cx="709.6" cy="294.9" r="3.2"/>
					<circle cx="734.6" cy="291.6" r="3.2"/>
					<circle cx="673.4" cy="319.4" r="3.2"/>
					<circle cx="698.4" cy="316.1" r="3.2"/>
					<circle cx="723.4" cy="312.9" r="3.2"/>
					<path d="M663.6,341c-0.8,0.1-1.6-0.1-2.3-0.6v0c0.4-1.9,0.9-3.8,1.5-5.7c1.7-0.2,3.3,1,3.6,2.7
						C666.5,339.2,665.3,340.8,663.6,341z"/>
					<circle cx="688.1" cy="334.6" r="3.2"/>
					<circle cx="713.1" cy="331.3" r="3.2"/>
					<circle cx="738.1" cy="328" r="3.2"/>
					<circle cx="675.5" cy="354" r="3.2"/>
					<circle cx="700.4" cy="350.7" r="3.2"/>
					<circle cx="725.4" cy="347.4" r="3.2"/>
					<circle cx="750.4" cy="344.2" r="3.2"/>
					<circle cx="665.2" cy="372.4" r="3.2"/>
					<circle cx="690.2" cy="369.1" r="3.2"/>
					<circle cx="715.1" cy="365.9" r="3.2"/>
					<circle cx="740.1" cy="362.6" r="3.2"/>
					<circle cx="765.1" cy="359.3" r="3.2"/>
					<circle cx="679" cy="390.4" r="3.2"/>
					<circle cx="704" cy="387.1" r="3.2"/>
					<circle cx="729" cy="383.8" r="3.2"/>
					<circle cx="754" cy="380.6" r="3.2"/>
					<circle cx="779" cy="377.3" r="3.2"/>
					<circle cx="668.7" cy="408.8" r="3.2"/>
					<circle cx="693.7" cy="405.5" r="3.2"/>
					<path d="M719.4,405.4c-0.1,0-0.2,0-0.3,0c-1.7,0.2-3.3-1-3.6-2.7c-0.2-1.7,1-3.3,2.7-3.6c0.2,0,0.5,0,0.7,0
						C719.1,401.2,719.3,403.3,719.4,405.4z"/>
					<circle cx="743.7" cy="399" r="3.2"/>
					<circle cx="768.7" cy="395.7" r="3.2"/>
					<circle cx="793.7" cy="392.4" r="3.2"/>
					<circle cx="685" cy="426.5" r="3.2"/>
					<circle cx="710" cy="423.2" r="3.2"/>
					<circle cx="760" cy="416.6" r="3.2"/>
					<circle cx="785" cy="413.4" r="3.2"/>
					<path d="M813.1,410.5c-0.2,1.4-1.3,2.6-2.7,2.8c-1.7,0.2-3.3-1-3.6-2.7c-0.2-1.7,1-3.3,2.7-3.6c0.2,0,0.4,0,0.6,0
						C811.1,408.1,812.1,409.3,813.1,410.5z"/>
					<circle cx="674.7" cy="444.9" r="3.2"/>
					<circle cx="699.7" cy="441.6" r="3.2"/>
					<circle cx="774.7" cy="431.8" r="3.2"/>
					<circle cx="799.7" cy="428.5" r="3.2"/>
					<path d="M827,427.3L827,427.3c-0.5,0.6-1.2,0.9-2,1.1c-1.7,0.2-3.3-1-3.6-2.7c-0.2-1.3,0.5-2.5,1.5-3.1
						C824.4,424.1,825.7,425.7,827,427.3z"/>
					<circle cx="688.5" cy="462.9" r="3.2"/>
					<circle cx="713.5" cy="459.6" r="3.2"/>
					<circle cx="788.5" cy="449.8" r="3.2"/>
					<circle cx="813.5" cy="446.5" r="3.2"/>
					<path d="M838.8,441.5c-0.4,0.4-0.7,0.8-1.1,1.2c-0.3,0.3-0.6,0.7-0.9,1c-0.3,0.4-0.7,0.7-1,1.1c-0.2-0.4-0.4-0.8-0.4-1.2
						c-0.2-1.6,0.8-3.1,2.3-3.5C838,440.6,838.4,441,838.8,441.5z"/>
					<circle cx="678.2" cy="481.3" r="3.2"/>
					<circle cx="703.2" cy="478" r="3.2"/>
					<circle cx="803.2" cy="464.9" r="3.2"/>
					<circle cx="692.6" cy="499.4" r="3.2"/>
					<circle cx="717.6" cy="496.1" r="3.2"/>
				</g>
			</g>
		</g>
	</g>
</g>
</svg>
