<?xml version="1.0" encoding="utf-8"?>
<!-- Generator: Adobe Illustrator 22.1.0, SVG Export Plug-In . SVG Version: 6.00 Build 0)  -->
<svg version="1.1" xmlns="http://www.w3.org/2000/svg" xmlns:xlink="http://www.w3.org/1999/xlink" x="0px" y="0px"
	 viewBox="0 0 1048.6 811.6" style="enable-background:new 0 0 1048.6 811.6;" xml:space="preserve">
<style type="text/css">
	.st0{fill:#78B5B2;}
	.st1{fill:#D6839F;}
</style>
<g id="background">
	<g id="background_1_">
		<path d="M978.2,628.3c-9.9,0-20.3-7.6-31-22.6c-0.2-0.3-0.2-0.8,0.2-1c0.3-0.2,0.8-0.2,1,0.2c10.8,15.1,21.1,22.5,30.7,21.9
			c7.9-0.4,13.3-5.8,19-11.4c5.8-5.7,11.8-11.6,20.4-12c9.7-0.5,19.7,6,29.8,19.2c0.3,0.3,0.2,0.8-0.1,1.1c-0.3,0.3-0.8,0.2-1.1-0.1
			c-9.8-12.8-19.4-19.1-28.5-18.6c-8.1,0.4-13.6,5.8-19.5,11.6c-5.7,5.6-11.6,11.4-20,11.9C978.9,628.3,978.5,628.3,978.2,628.3z"/>
		<path d="M245.9,74.7c-11.4,0-23.4-8.8-35.7-26c-0.2-0.3-0.2-0.8,0.2-1c0.3-0.2,0.8-0.2,1,0.2c12.4,17.5,24.5,26,35.6,25.4
			c9.1-0.5,15.4-6.7,22.1-13.2c6.7-6.6,13.6-13.3,23.5-13.8c11.1-0.6,22.7,6.9,34.3,22.1c0.3,0.3,0.2,0.8-0.1,1.1
			c-0.3,0.3-0.8,0.2-1.1-0.1c-11.3-14.8-22.4-22.1-33-21.5c-9.4,0.5-16.1,7-22.6,13.4c-6.6,6.5-13.3,13.1-23.1,13.7
			C246.7,74.7,246.3,74.7,245.9,74.7z"/>
		<path d="M945.2,264.4c-0.1,0-0.3,0-0.4-0.1l-9.9-6.6c-0.2-0.1-0.3-0.3-0.3-0.5c0-0.2,0-0.4,0.1-0.6l6.6-9.9c0.2-0.3,0.7-0.4,1-0.2
			l9.9,6.6c0.2,0.1,0.3,0.3,0.3,0.5c0,0.2,0,0.4-0.1,0.6l-6.6,9.9C945.6,264.3,945.4,264.4,945.2,264.4z M936.3,256.8l8.7,5.8
			l5.8-8.7l-8.7-5.8L936.3,256.8z"/>
		<path d="M92.8,123.5c-0.1,0-0.3,0-0.4-0.1l-9.9-6.6c-0.3-0.2-0.4-0.7-0.2-1l6.6-9.9c0.2-0.3,0.7-0.4,1-0.2l9.9,6.6
			c0.2,0.1,0.3,0.3,0.3,0.5c0,0.2,0,0.4-0.1,0.6l-6.6,9.9C93.2,123.4,93,123.5,92.8,123.5z M83.9,115.9l8.7,5.8l5.8-8.7l-8.7-5.8
			L83.9,115.9z"/>
		
			<rect x="330.9" y="603" transform="matrix(0.4205 0.9073 -0.9073 0.4205 753.8802 45.869)" class="st0" width="20.2" height="20.2"/>
		<path d="M703.5,663.4c-0.2,0-0.5-0.1-0.6-0.3l-10.4-15.4c-0.2-0.3-0.1-0.8,0.2-1s0.8-0.1,1,0.2l10.4,15.4c0.2,0.3,0.1,0.8-0.2,1
			C703.8,663.4,703.6,663.4,703.5,663.4z"/>
		<path d="M842.1,742.5c-0.2,0-0.4-0.1-0.5-0.2c-0.3-0.3-0.3-0.8,0-1.1l13-13.3c0.3-0.3,0.8-0.3,1.1,0c0.3,0.3,0.3,0.8,0,1.1
			l-13,13.3C842.5,742.4,842.3,742.5,842.1,742.5z"/>
		<path d="M418.9,115.2c-0.2,0-0.4-0.1-0.5-0.2c-0.3-0.3-0.3-0.8,0-1.1l12.7-13.5c0.3-0.3,0.8-0.3,1.1,0c0.3,0.3,0.3,0.8,0,1.1
			L419.4,115C419.3,115.1,419.1,115.2,418.9,115.2z"/>
		<path d="M625,14.2c-0.2,0-0.4-0.1-0.5-0.2L611,1.3c-0.3-0.3-0.3-0.8,0-1.1s0.8-0.3,1.1,0l13.5,12.7c0.3,0.3,0.3,0.8,0,1.1
			C625.4,14.2,625.2,14.2,625,14.2z"/>
		<path d="M44.1,419.1c-0.2,0-0.4-0.1-0.6-0.3l-12.2-14c-0.3-0.3-0.2-0.8,0.1-1.1c0.3-0.3,0.8-0.2,1.1,0.1l12.2,14
			c0.3,0.3,0.2,0.8-0.1,1.1C44.5,419.1,44.3,419.1,44.1,419.1z"/>
		<path d="M48.2,269.9c-0.1,0-0.2,0-0.3-0.1c-0.4-0.2-0.5-0.6-0.3-1l8.2-16.7c0.2-0.4,0.6-0.5,1-0.3c0.4,0.2,0.5,0.6,0.3,1
			l-8.2,16.7C48.8,269.8,48.5,269.9,48.2,269.9z"/>
		<path d="M723.6,577.6c-0.2,0-0.3-0.1-0.5-0.2L708.5,566c-0.3-0.3-0.4-0.7-0.1-1.1c0.3-0.3,0.7-0.4,1.1-0.1l14.6,11.5
			c0.3,0.3,0.4,0.7,0.1,1.1C724.1,577.5,723.9,577.6,723.6,577.6z"/>
		<path d="M979.3,811.6c-0.3,0-0.6-0.2-0.7-0.5c-0.2-0.4,0-0.8,0.4-1l17.1-7.2c0.4-0.2,0.8,0,1,0.4c0.2,0.4,0,0.8-0.4,1l-17.1,7.2
			C979.5,811.6,979.4,811.6,979.3,811.6z"/>
		<path d="M997.8,412c-0.3,0-0.5-0.1-0.6-0.4c-0.2-0.4-0.1-0.8,0.2-1l15.9-9.7c0.4-0.2,0.8-0.1,1,0.2c0.2,0.4,0.1,0.8-0.2,1
			l-15.9,9.7C998.1,411.9,997.9,412,997.8,412z"/>
		<path d="M30.3,13c-0.2,0-0.5-0.1-0.6-0.3c-0.2-0.3-0.1-0.8,0.2-1L45.4,1.4c0.3-0.2,0.8-0.1,1,0.2c0.2,0.3,0.1,0.8-0.2,1L30.7,12.9
			C30.5,12.9,30.4,13,30.3,13z"/>
		<path d="M987.1,180.1c-0.2,0-0.5-0.1-0.6-0.3l-10.6-15.3c-0.2-0.3-0.2-0.8,0.2-1c0.3-0.2,0.8-0.2,1,0.2l10.6,15.3
			c0.2,0.3,0.2,0.8-0.2,1C987.4,180,987.2,180.1,987.1,180.1z"/>
		<path d="M873,54.5c-0.2,0-0.4-0.1-0.5-0.2c-0.3-0.3-0.3-0.7-0.1-1.1l12.3-13.9c0.3-0.3,0.7-0.3,1.1-0.1c0.3,0.3,0.3,0.7,0.1,1.1
			l-12.3,13.9C873.4,54.5,873.2,54.5,873,54.5z"/>
		<path d="M1012.5,16.5c-0.1,0-0.2,0-0.3-0.1l-16.5-8.6c-0.4-0.2-0.5-0.6-0.3-1c0.2-0.4,0.6-0.5,1-0.3l16.5,8.6
			c0.4,0.2,0.5,0.6,0.3,1C1013.1,16.4,1012.8,16.5,1012.5,16.5z"/>
		<path d="M569,613.8c-0.1,0-0.1,0-0.2,0c-0.4-0.1-0.6-0.5-0.5-0.9l4.5-18c0.1-0.4,0.5-0.6,0.9-0.5c0.4,0.1,0.6,0.5,0.5,0.9l-4.5,18
			C569.7,613.6,569.4,613.8,569,613.8z"/>
		<path d="M375.1,498.8c-0.2,0-0.5-0.1-0.6-0.3l-10-15.7c-0.2-0.3-0.1-0.8,0.2-1c0.3-0.2,0.8-0.1,1,0.2l10,15.7
			c0.2,0.3,0.1,0.8-0.2,1C375.4,498.8,375.3,498.8,375.1,498.8z"/>
		<path d="M478.5,700c-0.3,0-0.5-0.1-0.7-0.4l-8.4-16.6c-0.2-0.4,0-0.8,0.3-1c0.4-0.2,0.8,0,1,0.3l8.4,16.6c0.2,0.4,0,0.8-0.3,1
			C478.7,700,478.6,700,478.5,700z"/>
		<path d="M403.3,797.8c-0.1,0-0.1,0-0.2,0l-18.1-4.1c-0.4-0.1-0.7-0.5-0.6-0.9c0.1-0.4,0.5-0.7,0.9-0.6l18.1,4.1
			c0.4,0.1,0.7,0.5,0.6,0.9C403.9,797.5,403.6,797.8,403.3,797.8z"/>
		<path d="M91.1,541.4c-0.1,0-0.1,0-0.2,0l-18.1-4.3c-0.4-0.1-0.7-0.5-0.6-0.9c0.1-0.4,0.5-0.7,0.9-0.6l18.1,4.3
			c0.4,0.1,0.7,0.5,0.6,0.9C91.8,541.2,91.5,541.4,91.1,541.4z"/>
		<path d="M44.1,676.7c-0.3,0-0.5-0.1-0.7-0.4c-0.2-0.4,0-0.8,0.3-1l16.5-8.5c0.4-0.2,0.8,0,1,0.3s0,0.8-0.3,1l-16.5,8.5
			C44.3,676.7,44.2,676.7,44.1,676.7z"/>
		<path d="M81.4,809.3c-0.1,0-0.2,0-0.3-0.1L64.4,801c-0.4-0.2-0.5-0.6-0.3-1c0.2-0.4,0.6-0.5,1-0.3l16.7,8.2c0.4,0.2,0.5,0.6,0.3,1
			C81.9,809.1,81.6,809.3,81.4,809.3z"/>
		<path d="M202.7,657.5c-0.1,0-0.1,0-0.2,0c-0.4-0.1-0.6-0.5-0.5-0.9l4.8-18c0.1-0.4,0.5-0.6,0.9-0.5c0.4,0.1,0.6,0.5,0.5,0.9
			l-4.8,18C203.3,657.3,203,657.5,202.7,657.5z"/>
		<path d="M563.3,787.4c-0.2,0-0.3-0.1-0.5-0.2c-0.3-0.3-0.4-0.7-0.1-1.1l11.6-14.5c0.3-0.3,0.7-0.4,1.1-0.1
			c0.3,0.3,0.4,0.7,0.1,1.1l-11.6,14.5C563.7,787.3,563.5,787.4,563.3,787.4z"/>
		<path d="M703.8,471.8c-0.1,0-0.1,0-0.2,0c-0.4-0.1-0.6-0.5-0.6-0.9l4.4-18.1c0.1-0.4,0.5-0.7,0.9-0.6c0.4,0.1,0.6,0.5,0.6,0.9
			l-4.4,18.1C704.5,471.5,704.2,471.8,703.8,471.8z"/>
		<circle class="st0" cx="458.5" cy="385.6" r="5.3"/>
		<path d="M9.5,580.7c-1.7,0-3.3-0.4-4.8-1.3c-4.6-2.6-6.1-8.5-3.5-13.1c2.6-4.6,8.5-6.1,13.1-3.5l0,0c2.2,1.3,3.8,3.3,4.5,5.8
			c0.7,2.5,0.3,5-1,7.3c-1.3,2.2-3.3,3.8-5.8,4.5C11.2,580.6,10.4,580.7,9.5,580.7z M9.6,563.1c-2.8,0-5.5,1.4-7,4
			c-2.2,3.8-0.9,8.8,3,11c1.9,1.1,4,1.4,6.1,0.8c2.1-0.6,3.8-1.9,4.9-3.8c1.1-1.9,1.4-4,0.8-6.1c-0.6-2.1-1.9-3.8-3.8-4.9l0,0
			C12.3,563.4,10.9,563.1,9.6,563.1z"/>
		<circle class="st0" cx="966.5" cy="707.6" r="7.8"/>
	</g>
</g>
<g id="general_1_">
	<g id="general">
		<g id="eye_l_1_">
			<path d="M306.3,301.4C306.3,301.4,306.2,301.4,306.3,301.4c-1.4-0.1-2.8-0.2-4.1-0.3c-4.5-0.4-9.2-1-13.7-1.8
				c-0.2,0-0.4-0.2-0.6-0.4c-0.1-0.2-0.1-0.5,0-0.7l1.7-3c-7.2-2.1-13.9-4.1-20.5-6.1c-5.8-1.8-11.8-3.7-17.7-5.6l-1.5,3.5
				c-0.1,0.2-0.2,0.3-0.4,0.4c-0.2,0.1-0.4,0.1-0.6,0c-14.2-6.3-28-14.5-40.9-24.6c-0.3-0.3-0.4-0.7-0.1-1.1
				c0.3-0.3,0.7-0.4,1.1-0.1c12.6,9.8,25.9,17.9,39.8,24.1l1.4-3.4c0.2-0.4,0.6-0.5,0.9-0.4c6.2,2,12.3,4,18.3,5.8
				c6.9,2.1,13.9,4.2,21.4,6.4c0.2,0.1,0.4,0.2,0.5,0.4c0.1,0.2,0.1,0.5,0,0.7l-1.7,2.9c4.2,0.7,8.4,1.2,12.6,1.6
				c1.4,0.1,2.7,0.2,4,0.3c0.4,0,0.7,0.4,0.7,0.8C307,301.1,306.7,301.4,306.3,301.4z"/>
			<path d="M347.3,298.8c-0.4,0-0.7-0.2-0.7-0.6c-0.1-0.4,0.2-0.8,0.6-0.9c51.5-9.8,86.6-41.5,99.7-55.2
				c-15.3-18.9-56.9-62.3-121.5-68.9c-62.5-6.4-110,25.8-132.7,45.5c-0.3,0.3-0.8,0.2-1.1-0.1s-0.2-0.8,0.1-1.1
				c22.9-19.9,70.7-52.3,133.8-45.9c65.8,6.7,107.9,51.2,122.9,70c0.2,0.3,0.2,0.7,0,1c-12.9,13.5-48.5,46.1-101,56.1
				C347.4,298.8,347.4,298.8,347.3,298.8z"/>
			<g id="time">
				<path class="st1" d="M374.9,205.3c0,7.7-2.2,15.4-2.4,16c-4.7,14.7-14.8,23.3-19.3,26.7c0.3-1,0.6-2.4,1-4
					c0.6-2.5,0.5-2.6,1.1-5c0.7-3.3,1.3-5.2,1-7.6c-0.1-0.5-0.2-1.3-0.8-1.9c-0.8-0.7-1.9-0.6-2.4-0.5c-2.1,0.5-2.8,3.8-4.8,10.4
					c-0.6,2-1.4,4.6-2.5,7.7c0.5-4.2,1-7.7,1.4-10.4c0.3-1.8,0.4-2.8,0.7-4.6c0.7-4.7,1.4-8.9-0.8-10.4c-0.9-0.7-2.3-0.7-3.3-0.3
					c-2.5,1-3.2,4.7-4.4,10.7c-0.2,1-0.3,1.7-0.5,2.9c-0.5,3-1.1,6.7-1.6,11l0,0c-0.1-7.7,0.2-13.8,0.6-18.2c0.4-4.6,1-9.6-1.6-11.3
					c-0.1,0-1.5-0.9-3-0.4c-3.5,1.3-3.7,9.3-4,16.7c-0.1,2,0,3.9,0,5.9c0,1.8,0.2,3.8,0.2,6.9c0,0.5,0,1,0,1.3
					c-0.9-7.9-1.7-14.7-2.4-20.5c-0.3-2.4-0.8-6.2-3.3-7.3c-1-0.4-2.4-0.4-3.4,0.1c-2.8,1.5-2.3,7.2-0.9,20.9
					c0.7,6.4,1.3,11.8,1.8,15.9c-1.4-3-2.6-5.6-3.6-7.5c-2.9-5.9-4.1-7.6-5.7-7.6c-1.4-0.1-2.4,1-2.5,1.2c-2,2.2-0.2,8.5-0.2,8.5
					c0.7,2.5,1.5,4.9,2.2,7.1c-3.4-0.7-6.6-1.6-9.7-2.9c-2-0.8-4-1.7-5.8-2.8c-0.7-0.4-1.4-0.8-2.1-1.2c-2.2-1.3-4.2-2.8-6.1-4.4
					c-0.7-0.6-1.4-1.2-2.1-1.8c-1.2-1.1-2.4-2.3-3.5-3.5c-8.6-9.5-13.8-22-13.8-35.8c0-29.5,23.9-53.4,53.4-53.4
					C351,151.9,374.9,175.8,374.9,205.3z"/>
				<path d="M362.1,205.5h-42c-0.4,0-0.7-0.3-0.8-0.7c-0.1-6.7-0.1-13.4-0.1-20.2c0-5.3,0-10.5,0-15.7c0-0.4,0.3-0.7,0.8-0.7
					c0.4,0,0.8,0.3,0.8,0.8c0,5.2,0,10.5,0,15.7c0,6.5,0,13,0.1,19.4h41.3c0.4,0,0.8,0.3,0.8,0.8S362.5,205.5,362.1,205.5z"/>
			</g>
		</g>
		<g id="eye_r_1_">
			<path d="M710.3,310.4c-3.8,0-7.7-0.1-11.5-0.4c-1-0.1-2.1-0.1-3.1-0.2c-14.4-1.3-28.7-4.4-42.4-9.4c0,0,0,0-0.1,0
				c-41.9-15.2-69.7-43.4-82.6-58.9c-0.2-0.3-0.2-0.7,0-1c8.2-9,38.5-39.3,83.6-53.4c21.2-6.6,43-8.9,64.8-6.6
				c7.1,0.7,14.1,1.9,21,3.5c19.6,4.6,38.5,12.9,56.3,24.7c0.3,0.2,0.4,0.7,0.2,1c-0.2,0.3-0.7,0.4-1,0.2
				c-17.6-11.7-36.4-19.9-55.8-24.5c-6.8-1.6-13.8-2.8-20.8-3.5c-21.6-2.2-43.2,0-64.2,6.6c-44,13.7-73.8,43-82.5,52.5
				c12.9,15.4,40.4,43,81.5,57.9c0,0,0,0,0.1,0c13.6,4.9,27.8,8.1,42,9.3c1,0.1,2,0.2,3.1,0.2c17.6,1.2,35.2-0.4,52.4-4.8
				c0.4-0.1,0.8,0.1,0.9,0.5c0.1,0.4-0.1,0.8-0.5,0.9C738.1,308.7,724.2,310.4,710.3,310.4z"/>
			<g id="coin">
				<path class="st1" d="M751.8,218.4c0,29.5-23.9,53.4-53.4,53.4c-6.1,0-12-1-17.5-2.9h0c-1.2-2.7-2.4-5.5-3.7-8.2
					c-0.6,0.4-1.2,0.8-1.8,1.2c0-1.7-0.3-3.3-0.8-4.9c-3.4-10.9-6-25.9-10.6-26.2c-0.3,0-1,0.1-1.5,0.4c-2.8,1.7-1.9,7.9-1.6,10.1
					c0.8,5.3,3,10.6,2.2,14c-0.1,0.5-0.5,2.1-1.1,2.1c-0.3,0-0.5-0.2-0.6-0.4c-3-2.9-7-7.4-10.4-13.9c-1.8-3.5-4.1-8.8-5.2-15.5
					c-0.5-3-0.8-6-0.8-9.1c0-29.5,23.9-53.4,53.4-53.4C727.9,165,751.8,188.9,751.8,218.4z"/>
				<path d="M698.4,264.2c-8.6,0-16.9-2.4-24.2-6.9c-0.2-0.1-0.3-0.2-0.3-0.4c-0.8-2.6-1.6-5.4-2.3-8.2c-2.2-8-4.6-17.1-7.6-17.3
					c-0.2,0-0.6,0-1.1,0.3c-0.9,0.5-2,2.1-1.2,9.3c0.1,1,0.2,1.9,0.4,2.8c0.1,0.3-0.1,0.7-0.5,0.8c-0.3,0.1-0.7,0-0.9-0.3
					c-5.3-7.7-8.1-16.7-8.1-26.1c0-25.3,20.6-45.8,45.8-45.8s45.8,20.6,45.8,45.8C744.2,243.7,723.7,264.2,698.4,264.2z
					 M675.3,256.2c6.9,4.3,14.9,6.5,23.1,6.5c24.4,0,44.3-19.9,44.3-44.3c0-24.4-19.9-44.3-44.3-44.3s-44.3,19.9-44.3,44.3
					c0,8,2.1,15.7,6.1,22.4c-0.6-6.1,0-9.1,2-10.3c0.7-0.5,1.5-0.6,2-0.6c4,0.3,6.3,8.7,8.9,18.4C673.8,251,674.5,253.7,675.3,256.2
					z"/>
				<path d="M708.3,243.3h-7.8c-0.4,0-0.8-0.3-0.8-0.8v-37.4l-9.5,9.5c-0.2,0.2-0.5,0.3-0.7,0.2l-8.8-2.3c-0.3-0.1-0.5-0.3-0.5-0.5
					c-0.1-0.3,0-0.5,0.2-0.7l17.7-17.7c0.1-0.1,0.3-0.2,0.5-0.2c0,0,0,0,0,0l9.6,0.1c0.4,0,0.7,0.3,0.7,0.7c0,0.9,0.1,33,0.1,48.3
					C709,243,708.7,243.3,708.3,243.3z M701.2,241.8h6.3c0-14.1-0.1-41.9-0.1-46.8l-8.5-0.1l-16.5,16.5l7.1,1.9l10.5-10.5
					c0.2-0.2,0.5-0.3,0.8-0.2c0.3,0.1,0.5,0.4,0.5,0.7V241.8z"/>
			</g>
		</g>
		<path d="M485.4,539.3c-0.3,0-0.6-0.2-0.7-0.5c-0.2-0.4,0-0.8,0.4-1L620,481.2c-5.3-6.6-40.1-51.3-67.2-110.8
			c-16.2-35.5-26.5-69.4-30.6-100.8c-5.2-39-0.8-74.3,12.9-104.9c18.1-40.2,49.3-66.3,52.8-69.1c48-39,114.3-52.4,173.1-35.2
			c48.1,14.1,79.3,44.4,97,67.2c0.3,0.3,0.2,0.8-0.1,1.1c-0.3,0.3-0.8,0.2-1.1-0.1c-14.4-18.6-46-52-96.2-66.7
			c-58.3-17.1-124.1-3.8-171.7,34.9c-3.5,2.8-34.4,28.7-52.3,68.6c-13.6,30.3-17.9,65.3-12.8,104c4.1,31.2,14.4,65,30.5,100.3
			c28.7,63,66.1,109.3,67.6,111.3c0.1,0.2,0.2,0.4,0.1,0.7c-0.1,0.2-0.2,0.4-0.4,0.5l-135.8,57C485.6,539.3,485.5,539.3,485.4,539.3
			z"/>
		<g id="man">
			<path id="legs_1_" d="M934.5,773.3c-18.4-1.3-36.7-2.7-55.1-4c-5-37.8-9.5-76.9-13.3-117.2c-3.4-36.2-6.1-71.5-8.2-105.8
				c-6.9,26.9-13.7,54.2-20.3,81.8c-12,50-23,99.2-33.1,147.5c-16.6-2.9-33.2-5.9-49.8-8.8c0.9-51.2,4.5-108.2,12.6-169.6
				c6.5-48.7,14.9-93.8,24.3-135c14.9,0,40.4,0.2,56.6,0.7c24.2,0.8,46.6,1.3,62.4,1.6c7.5,47.2,13.8,98.2,18,152.7
				C933,672.6,934.7,724.8,934.5,773.3z"/>
			<g id="shoes_1_">
				<path d="M764.9,754.5v21.1c-12.7,1.8-22.8,3.1-29.2,3.8c-20.3,2.5-27.5,2.9-33.8,8.8c-5.4,5.1-7.3,11.7-8.1,16.2h110.8v-46.7
					L764.9,754.5z"/>
				<path d="M894.8,754.5v21.1c-12.7,1.8-22.8,3.1-29.2,3.8c-20.3,2.5-27.5,2.9-33.8,8.8c-5.4,5.1-7.3,11.7-8.1,16.2h110.8v-46.7
					L894.8,754.5z"/>
			</g>
			<g id="tshirt_1_">
				<path class="st1" d="M972.9,470.7c-2,0.6-8.7,2.4-13.3,3.7c-1.8,0.5-3.2,0.9-4,1.1c-2.8,0.8-14.5,4-17.3,4.8
					c-0.6-1.7-1.2-3.3-1.8-5c-2.5-7-5-14.1-7.4-21.1c-3.4-9.7-6.9-19.5-10.3-29.2c-1.1-3-2.1-6.1-3.2-9.1c0.3,3,0.5,6.1,0.8,9.1
					c0.4,5.1,0.9,10.2,1.3,15.3c0.4,4.7,0.8,9.3,1.2,14c0.3,3.5,0.6,6.9,0.9,10.4c-0.3,0-2,0-2.3,0c-0.2,0-1.7,0-4.1-0.1
					c-4.6-0.1-12.9-0.2-23.1-0.4c-7-0.1-14.8-0.3-23.1-0.4c-7.4-0.1-15.2-0.3-22.9-0.4c-7.9-0.1-15.7-0.3-23.1-0.4
					c-8.6-0.2-16.5-0.3-23.1-0.4c-11.2-0.2-18.5-0.3-18.5-0.3c0.1-2.6,0.2-5.3,0.3-7.9c0.3-9.7,0.5-19.4,0.7-29.2
					c0.1-4.7,0.2-9.4,0.3-14.2c0.1-5,0.1-10.1,0.2-15.1c0.1-9.8,0.1-19.6,0.2-29.2c0-8,0-15.9-0.1-23.7c-1.8,1.3-3.8,2.7-6.1,4.2
					c-5.6,3.8-12.7,8.2-21.1,12.7c-0.7,0.4-1.3,0.7-1.9,1c-3.9,2.1-7.5,4-10.8,5.7c-4.6,2.4-8.6,4.4-12.2,6
					c-7.9,3.5-13.8,5-19.2,4.2c-1.3-0.2-2.6-0.5-3.9-0.9c-5.3-1.6-10.2-4.8-14.7-9.3c-2.9-2.8-5.6-6.2-8.3-10
					c-4-5.6-7.8-12.1-11.5-19.3c-3.8-7.3-7.6-15.2-11.5-23.6c-0.9-1.9-1.7-3.7-2.6-5.6c-0.2-0.4-0.4-0.9-0.6-1.4
					c-5-10.7-8.4-19.7-10.7-25.8c1.1-0.7,2.1-1.4,3.2-2c0.2-0.1,0.5-0.3,0.7-0.4c2.4-1.5,6.1-3.9,10-6.5c7.7-5,16.3-10.5,17.4-11.2
					c1.2,2.7,2.4,5.5,3.7,8.2h0c0.7,1.5,1.4,3.1,2,4.6c0.8,1.8,1.6,3.5,2.3,5.3c4.3,9.7,8.6,19.5,13,29.2c2.6,5.8,5.2,11.7,7.8,17.5
					c0.5,1.1,1,2.3,1.5,3.4c8.1-4.5,15.4-8.6,21.6-12.1c4.8-2.8,9-5.2,12.5-7.2c1-0.6,1.9-1.1,2.8-1.6c2.9-1.7,5.4-3.2,7.7-4.5
					c10.5-6.1,16.1-9.4,23.1-12.8c1.1-0.5,2.3-1.1,3.5-1.7c7.1-3.3,13.8-6,19.6-8.1c2.2-0.8,4.2-1.5,6.1-2.1c3.2-1,6.1-1.9,8.6-2.6
					c0.1-1.7,0.2-3.4,0.3-5.2c0-0.9,0.1-2.2,0.1-3.1c2.5-0.7,5-1.4,7.5-2.1l0.4-0.1c0.4-0.1,0.8-0.2,1.2-0.3c2-0.5,4-1,6-1.5
					l0.5-0.1c3.9-1,8-1.9,12.1-2.8c1.1-0.2,2.2-0.5,3.3-0.7c4.5-0.9,8.9-1.8,13.2-2.6c2.1-0.4,4.1-0.7,6.1-1.1
					c0.8,2,2.5,6.3,3.5,8.9c0.2,0.4,0.3,0.8,0.4,1.1c0.3,0.7,1.8,4.5,2,5.2c5.2,1,12.4,3,20.3,6.9c0.1,0,0.2,0.1,0.3,0.1
					c2.3,1.1,4.6,2.4,7,3.9c6.3,3.9,11.6,8.5,16.1,13.4c3.5,3.7,6.5,7.7,9.2,11.8c5.1,7.9,9,16.3,12.1,24.6c0.6,1.5,1.1,3.1,1.7,4.6
					c0,0.1,0.1,0.2,0.1,0.4c3.5,9.6,6.8,19.3,9.8,28.9c3.2,9.9,6,19.7,8.7,29.2c1.6,5.8,3.2,11.6,4.6,17.1c1.1,4.2,2.1,8.2,3.1,12.1
					c2.7,10.8,4.9,20.7,6.8,29.2C970.8,460.4,972,466,972.9,470.7z"/>
				<g id="pattern">
					<path d="M685.3,279.5h-36.1c-0.4,0-0.8-0.3-0.8-0.8s0.3-0.8,0.8-0.8h36.1c0.4,0,0.8,0.3,0.8,0.8S685.7,279.5,685.3,279.5z"/>
					<path d="M890.1,279.5h-85.7c-0.4,0-0.8-0.3-0.8-0.8s0.3-0.8,0.8-0.8h85.7c0.4,0,0.8,0.3,0.8,0.8S890.5,279.5,890.1,279.5z"/>
					<path d="M922.6,308.7H744.4c-0.4,0-0.8-0.3-0.8-0.8s0.3-0.8,0.8-0.8h178.2c0.4,0,0.8,0.3,0.8,0.8S923,308.7,922.6,308.7z"/>
					<path d="M698.3,308.7h-41c-0.4,0-0.8-0.3-0.8-0.8s0.3-0.8,0.8-0.8h41c0.4,0,0.8,0.3,0.8,0.8S698.7,308.7,698.3,308.7z"/>
					<path d="M936.4,338h-265c-0.4,0-0.8-0.3-0.8-0.8s0.3-0.8,0.8-0.8h265c0.4,0,0.8,0.3,0.8,0.8S936.8,338,936.4,338z"/>
					<path d="M946.3,367.2H781.4c-0.4,0-0.8-0.3-0.8-0.8s0.3-0.8,0.8-0.8h164.9c0.4,0,0.8,0.3,0.8,0.8S946.7,367.2,946.3,367.2z"/>
					<path d="M741.3,367.2h-50c-0.4,0-0.8-0.3-0.8-0.8s0.3-0.8,0.8-0.8h50c0.4,0,0.8,0.3,0.8,0.8S741.8,367.2,741.3,367.2z"/>
					<path d="M955,396.4H781.3c-0.4,0-0.8-0.3-0.8-0.8s0.3-0.8,0.8-0.8H955c0.4,0,0.8,0.3,0.8,0.8S955.4,396.4,955,396.4z"/>
					<path d="M962.7,425.6h-43.9c-0.4,0-0.8-0.3-0.8-0.8s0.3-0.8,0.8-0.8h43.9c0.4,0,0.8,0.3,0.8,0.8S963.1,425.6,962.7,425.6z"/>
					<path d="M916.4,425.6H780.8c-0.4,0-0.8-0.3-0.8-0.8s0.3-0.8,0.8-0.8h135.5c0.4,0,0.8,0.3,0.8,0.8S916.8,425.6,916.4,425.6z"/>
					<path d="M918.9,454.8H780.1c-0.4,0-0.8-0.3-0.8-0.8s0.3-0.8,0.8-0.8h138.9c0.4,0,0.8,0.3,0.8,0.8S919.4,454.8,918.9,454.8z"/>
					<path d="M969.4,454.8h-40.4c-0.4,0-0.8-0.3-0.8-0.8s0.3-0.8,0.8-0.8h40.4c0.4,0,0.8,0.3,0.8,0.8S969.9,454.8,969.4,454.8z"/>
					<path d="M659.9,314.4c-0.4,0-0.8-0.3-0.8-0.8v-41.8c0-0.4,0.3-0.8,0.8-0.8s0.8,0.3,0.8,0.8v41.8
						C660.7,314,660.3,314.4,659.9,314.4z"/>
					<path d="M683,357.2c-0.4,0-0.8-0.3-0.8-0.8v-83c0-0.4,0.3-0.8,0.8-0.8s0.8,0.3,0.8,0.8v83C683.7,356.9,683.4,357.2,683,357.2z"
						/>
					<path d="M706,376.5c-0.4,0-0.8-0.3-0.8-0.8v-50.2c0-0.4,0.3-0.8,0.8-0.8s0.8,0.3,0.8,0.8v50.2
						C706.8,376.1,706.5,376.5,706,376.5z"/>
					<path d="M729.1,373.2c-0.4,0-0.8-0.3-0.8-0.8v-55.6c0-0.4,0.3-0.8,0.8-0.8s0.8,0.3,0.8,0.8v55.6
						C729.9,372.8,729.5,373.2,729.1,373.2z"/>
					<path d="M752.2,361.4c-0.4,0-0.8-0.3-0.8-0.8v-57.2c0-0.4,0.3-0.8,0.8-0.8s0.8,0.3,0.8,0.8v57.2
						C752.9,361.1,752.6,361.4,752.2,361.4z"/>
					<path d="M775.2,347.7c-0.4,0-0.8-0.3-0.8-0.8v-56.3c0-0.4,0.3-0.8,0.8-0.8s0.8,0.3,0.8,0.8v56.3
						C776,347.3,775.7,347.7,775.2,347.7z"/>
					<path d="M798.3,463.1c-0.4,0-0.8-0.3-0.8-0.8V280.9c0-0.4,0.3-0.8,0.8-0.8s0.8,0.3,0.8,0.8v181.4
						C799.1,462.7,798.7,463.1,798.3,463.1z"/>
					<path d="M821.4,463.5c-0.4,0-0.8-0.3-0.8-0.8v-197c0-0.4,0.3-0.8,0.8-0.8s0.8,0.3,0.8,0.8v197
						C822.1,463.1,821.8,463.5,821.4,463.5z"/>
					<path d="M844.4,463.9c-0.4,0-0.8-0.3-0.8-0.8V260.3c0-0.4,0.3-0.8,0.8-0.8s0.8,0.3,0.8,0.8v202.9
						C845.2,463.5,844.9,463.9,844.4,463.9z"/>
					<path d="M867.3,464.3c-0.4,0-0.8-0.3-0.8-0.8V265.6c0-0.4,0.3-0.8,0.8-0.8s0.8,0.3,0.8,0.8v197.9
						C868.1,464,867.7,464.3,867.3,464.3z"/>
					<path d="M890.4,464.7c-0.4,0-0.8-0.3-0.8-0.8V278.9c0-0.4,0.3-0.8,0.8-0.8s0.8,0.3,0.8,0.8V464
						C891.1,464.4,890.8,464.7,890.4,464.7z"/>
					<path d="M913.5,465.1c-0.4,0-0.8-0.3-0.8-0.8V296.2c0-0.4,0.3-0.8,0.8-0.8s0.8,0.3,0.8,0.8v168.2
						C914.2,464.8,913.9,465.1,913.5,465.1z"/>
					<path d="M936.5,475.9c-0.4,0-0.8-0.3-0.8-0.8V337.6c0-0.4,0.3-0.8,0.8-0.8s0.8,0.3,0.8,0.8v137.6
						C937.3,475.6,936.9,475.9,936.5,475.9z"/>
					<path d="M959.6,475.1c-0.4,0-0.8-0.3-0.8-0.8v-61.6c0-0.4,0.3-0.8,0.8-0.8s0.8,0.3,0.8,0.8v61.6
						C960.3,474.7,960,475.1,959.6,475.1z"/>
				</g>
			</g>
			<g id="hand_l_1_">
				<path d="M649.9,279.1c-0.2,0-0.5-0.1-0.6-0.4c-2.4-3.8-4.6-7.6-6.8-11.7c-5.3-10-5.8-12.8-5.8-15.2c0-4.3,1.4-8,4.2-15.2
					c1.3-3.3,2.7-6.4,4.2-9.5c0.2-0.4,0.6-0.5,1-0.3s0.5,0.6,0.3,1c-1.5,3-2.9,6.1-4.1,9.3c-2.8,7.1-4.2,10.7-4.1,14.7
					c0,2.1,0.5,4.8,5.6,14.5c2.2,4,4.4,7.8,6.7,11.6c0.2,0.4,0.1,0.8-0.2,1C650.2,279,650,279.1,649.9,279.1z"/>
				<path d="M675.4,261c-9.3,4.5-18.6,9-27.9,13.4c0.7,1.1,1.4,2.3,2.1,3.4c8.6-5.3,17.2-10.7,25.9-16
					C675.5,261.5,675.4,261.3,675.4,261z"/>
			</g>
			<g id="hand_l_2_">
				<path d="M967.4,535.7c-0.2,0-0.4,0-0.7-0.1c-1.7-0.3-3.6-1.9-5.6-10.1c0,0.2,0.1,0.4,0.1,0.6c0.2,1.6,0.8,5.2-1.2,7
					c-0.9,0.9-2.3,1.2-3.5,0.9c-2.1-0.5-3.6-3-4.7-8c-1.4-6.8-2.1-23.3-2.5-31.2c-0.1-2.2-0.2-4.1-0.2-4.3c-0.1-0.4,0.2-0.8,0.6-0.9
					c0.4-0.1,0.8,0.2,0.9,0.6c0.1,0.3,0.1,1.3,0.2,4.5c0.3,7.9,1,24.3,2.4,31c0.9,4.2,2.1,6.5,3.6,6.9c0.7,0.2,1.6-0.1,2.2-0.6
					c1.4-1.3,0.9-4.5,0.7-5.7c-1.1-7.4-1.5-15.1-1.8-19.3c0,0,0,0,0,0c-0.6-4.5-0.5-4.8,0.2-5c0.2,0,0.5,0,0.6,0.1
					c0.4,0.3,0.4,0.4,0.6,4.4l0,0.3c0,0,0,0,0,0c0.4,3.2,1.1,7.5,1.6,10.9c1.8,10.3,3.8,16,5.8,16.4c0.7,0.1,1.5-0.1,2-0.6
					c1.7-1.5,0.6-5.8-0.4-10c-0.1-0.6-0.3-1.2-0.4-1.8c-1.4-6.1-2.3-12.6-2.5-19.4c0-0.4,0.3-0.8,0.7-0.8c0.4,0,0.8,0.3,0.8,0.7
					c0.3,6.7,1.1,13.1,2.5,19.1c0.1,0.6,0.3,1.2,0.4,1.8c1.2,4.8,2.2,9.3-0.1,11.4C969.3,535.3,968.3,535.7,967.4,535.7z"/>
				<path d="M975.8,529.9c-0.2,0-0.4,0-0.7-0.1c-2.9-0.5-4-4.5-5.9-12c-1.2-4.9-2.4-9.9-3.5-14.8c-0.1-0.4,0.2-0.8,0.6-0.9
					c0.4-0.1,0.8,0.2,0.9,0.6c1.1,4.9,2.2,9.8,3.4,14.7c1.6,6.5,2.7,10.5,4.7,10.8c0.7,0.1,1.4-0.1,1.9-0.6
					c1.6-1.5,0.5-5.8-0.6-10.4l-0.3-1.1c-1.4-5.5-2.6-11.4-3.7-17.4c-0.1-0.4,0.2-0.7,0.5-0.8c0.4-0.1,0.8,0.1,0.9,0.4
					c0.9,2,2.2,5.1,3.9,8.9c2.5,5.8,4.2,9.6,5.6,9.6c0,0,0,0,0,0c0.4,0,0.8-0.3,1.2-0.7c2.2-2.6-0.7-9.5-1.8-12.1l-0.1-0.1
					c-3-7-6.9-17.1-12.7-32.7c-0.1-0.4,0.1-0.8,0.4-1c0.4-0.1,0.8,0.1,1,0.4c5.8,15.5,9.7,25.6,12.6,32.6l0.1,0.1
					c1.4,3.4,4.4,10.3,1.6,13.6c-0.7,0.8-1.4,1.2-2.2,1.3c-2.4,0.1-3.8-3-7.1-10.5c-0.4-1-0.8-1.9-1.2-2.8c0.7,3.7,1.5,7.3,2.4,10.7
					l0.3,1.1c1.3,5.3,2.4,9.8,0.2,11.9C977.6,529.6,976.7,529.9,975.8,529.9z"/>
				<path d="M943.9,511.6c-0.6,0-1.3-0.2-1.9-0.5c-2.4-1.3-2.5-4.9-2.7-8.7c-0.5-11.4-0.7-18-0.6-22.6c0-0.4,0.3-0.7,0.8-0.7
					c0,0,0,0,0,0c0.4,0,0.7,0.4,0.7,0.8c-0.1,4.6,0.1,11.2,0.6,22.5c0.1,3.4,0.3,6.5,1.9,7.4c0.6,0.4,1.5,0.4,2.1,0.1
					c1.4-0.7,1.7-3.4,1.9-5.4l0-0.3c0.5-4.3,1.2-9.1,2.3-14.1c0.1-0.3,0.3-0.5,0.6-0.6c2.5-0.5,4.8-1.3,7-2.6c1.5-0.9,2.8-1.9,4-3.2
					c0.3-0.3,0.8-0.3,1.1,0s0.3,0.8,0,1.1c-1.3,1.3-2.8,2.5-4.3,3.4c-2.2,1.3-4.5,2.2-7,2.7c-1,4.8-1.8,9.3-2.2,13.4l0,0.3
					c-0.3,2.4-0.6,5.4-2.7,6.6C945.1,511.5,944.5,511.6,943.9,511.6z"/>
				<path d="M962.3,503.7c-3,0-5.4-0.8-7-1.5c-0.4-0.2-0.6-0.6-0.4-1c0.2-0.4,0.6-0.5,1-0.4c1.8,0.8,4.7,1.7,8.3,1.2
					c4.9-0.6,8.4-3.4,10-4.9c0.3-0.3,0.8-0.3,1.1,0c0.3,0.3,0.3,0.8,0,1.1c-1.8,1.7-5.5,4.7-10.9,5.4
					C963.7,503.6,963,503.7,962.3,503.7z"/>
				<path d="M939.3,482.5c10.7-3.5,21.5-7,32.2-10.5c-0.2-0.3-0.3-0.5-0.5-0.8c-10.5,2.9-21,5.8-31.4,8.6
					C939.5,480.7,939.4,481.6,939.3,482.5z"/>
			</g>
			<g id="head">
				<path d="M857.2,252c-3.2,0.8-6.5,1.5-9.7,2.3c-0.3,0.1-1.3,0.3-2.5,0.6c-1.3,0.3-2.4,0.6-3.1,0.7c-3.9-2.3-16.5-12.8-20-16.3
					c-0.2-0.2-0.4-0.4-0.5-0.6c1-0.5,4-2.2,5.1-5.6c0.1-0.3,0.4-1.3,0.4-2.8c0-1,0.1-7.4-4.9-10.3c-3.5-2-8.5-1.5-11,1.2
					c-1.4,1.5-1.9,3.4-2,4c-0.3,1.5-0.1,3.2,0.4,4.8c-1.4,1-2.5,1.1-3.2,1c-3.4-0.4-6.2-6.6-6.6-15.4c-0.7,1-2,2.6-4,3
					c-0.4,0.1-0.7,0.1-1.1,0.1c-0.1-0.2-0.2-0.4-0.4-0.6c0-2.2,0.2-5.9,2.2-9.5c1.3-2.5,3.2-4.5,6.3-6.7c6.6-4.7,14.8-10.3,25.8-8.6
					c10.8,1.6,16.9,9.2,20.2,15.2c0.5,0.9,0.9,1.8,0.9,1.8c1.1,2.4,1.8,4.3,2.1,5.6c1.1,4,2.1,9,3,14.4
					C855.5,237.2,856.4,244.8,857.2,252C857.2,251.9,857.2,251.9,857.2,252z"/>
				<g id="face">
					<path d="M822.6,266.2c-0.4,0-0.7-0.3-0.7-0.7l0-0.2c-0.1-0.7-0.1-1.5-0.2-2.2c-0.4,0-0.7,0.1-1.1,0.1
						c-6.6,0.3-12.8-2.6-16.1-5.2c-3.9-3.1-4.5-6.2-6-13.8c-0.8-4.1-2-9.8-4.1-17.6c-0.3-1.1-1.1-4-1-7.8c0-0.1,0-0.3,0-0.5
						c0-2.7,0.3-6.2,2.3-9.9c1.4-2.6,3.3-4.7,6.5-6.9c6.2-4.4,14.7-10.5,26.3-8.8c11,1.6,17.4,9.4,20.7,15.5
						c0.5,0.9,0.9,1.9,0.9,1.9c1.2,2.4,1.8,4.4,2.2,5.7c1,3.7,2,8.6,3,14.5c1,6.2,1.9,13.4,2.7,21.5c0,0.1,0,0.1,0,0.1l0.5,5.7
						c0,0.4-0.3,0.8-0.7,0.8c-0.4,0-0.8-0.3-0.8-0.7l-0.5-5.7c0,0,0-0.1,0-0.1c-0.8-8.1-1.7-15.3-2.7-21.5
						c-0.9-5.8-1.9-10.6-2.9-14.3c-0.3-1.2-1-3.1-2.1-5.4c0,0-0.4-0.9-0.9-1.8c-3.2-5.9-9.2-13.2-19.6-14.8
						c-11-1.6-19.2,4.2-25.2,8.5c-2.9,2.1-4.8,4-6,6.4c-1.8,3.4-2.1,6.7-2.1,9.2c0,0.2,0,0.3,0,0.4c0,3.6,0.7,6.3,1,7.4
						c2.1,7.9,3.3,13.6,4.1,17.7c1.5,7.4,2,10.1,5.5,12.9c3.1,2.4,8.8,5.2,15.1,4.9c0.4,0,0.8,0,1.2-0.1c0.2,0,0.5-0.1,0.6-0.1
						c0.2,0,0.4,0,0.6,0.2c0.2,0.1,0.3,0.3,0.3,0.5c0.1,1,0.1,2,0.2,3l0,0.2C823.4,265.8,823,266.1,822.6,266.2
						C822.6,266.2,822.6,266.2,822.6,266.2z"/>
					<path d="M832.3,256.3l-3.2,7.5l-0.5,0.1l-7.2,1.8c0.4-0.1,0.8-0.2,1.2-0.3c-0.1-1.1-0.1-2.1-0.2-3.2c-0.1,0-0.4,0-0.6,0.1
						c-0.4,0-0.8,0.1-1.2,0.1c0-0.2,0-0.3-0.1-0.5c1.1-0.1,2.4-0.2,3.8-0.6C828.3,260.1,830.9,257.7,832.3,256.3z"/>
				</g>
			</g>
		</g>
		<g id="woman">
			<g id="shoes">
				<path d="M120.9,752.2c12.8,2.4,25.5,4.8,38.3,7.3c3.2,6.1,6.5,10.4,9.8,13.4c0.9,0.9,3.2,2.7,9.3,6.2c8.5,4.8,13.2,6.3,16.5,8
					c5.4,2.8,12.1,8.7,17.2,22.7c-18.1-3.2-36.1-6.5-54.2-9.9c-4.9-0.9-9.9-1.8-14.8-2.8c-3.9-4.1-7.8-8.2-11.7-12.4
					c-2.4,3-4.9,6.1-7.3,9.1l0,0c-6.1-1.1-11.1-2.1-14.8-2.9C113,778.1,117,765.2,120.9,752.2z"/>
				<path d="M262.4,764.1c11.9-5.3,23.7-10.5,35.6-15.8c6,3.2,11.3,4.8,15.7,5.5c1.2,0.2,4.1,0.4,11.2-0.2
					c9.7-0.9,14.4-2.3,18.1-2.8c6-0.8,14.9,0.3,27.1,8.9c-16.7,7.6-33.4,15.2-50.2,22.7c-4.6,2.1-9.2,4.1-13.7,6.2
					c-5.6-1.2-11.1-2.3-16.7-3.5c-0.3,3.9-0.6,7.8-0.8,11.7l0,0c-5.6,2.5-10.4,4.6-13.8,6.1C270.7,789.8,266.6,777,262.4,764.1z"/>
			</g>
			<g id="tshirt">
				<path d="M274.4,324c-0.1,0-0.3,0-0.4-0.1c-0.4-0.2-0.5-0.7-0.3-1l15.8-27.7c-7.2-2.1-13.9-4.1-20.5-6.1
					c-5.8-1.8-11.8-3.7-17.7-5.6l-9.3,22.2c-0.2,0.4-0.6,0.6-1,0.4c-0.4-0.2-0.6-0.6-0.4-1l9.6-22.9c0.2-0.4,0.6-0.5,0.9-0.4
					c6.2,2,12.3,4,18.3,5.8c6.9,2.1,13.9,4.2,21.4,6.4c0.2,0.1,0.4,0.2,0.5,0.4c0.1,0.2,0.1,0.5,0,0.7l-16.3,28.5
					C274.9,323.9,274.7,324,274.4,324z"/>
				<path d="M140.5,401c-0.3,0-0.6-0.2-0.7-0.5c-9.8-27.7-17.5-65.5,1-87.8c1.3-1.6,2.8-3.1,4.3-4.5c19.2-17.3,47.3-19.6,65.6-16.4
					c7.9,1.4,17,5.6,30.9,12.9c4.8,2.5,10.2,5.4,15.3,8.1c8,4.3,16,8.7,23.6,13c6,3.4,11.9,6.8,17.5,10.1l15.1-71
					c0.1-0.3,0.4-0.6,0.7-0.6c6.2-0.3,12.4-0.4,18.6-0.4c6.6,0,13.3,0.1,19.9,0.4c0.2,0,0.4,0.1,0.5,0.3c0.1,0.2,0.2,0.4,0.2,0.6
					c-2,18.4-5.3,36.9-9.8,55c-7.9,31.4-12.3,48.7-25.3,56.2c-19.7,11.4-48.4,1.8-56.9-2.5c-0.3-0.1-3-1.5-6.5-3.5
					c-7.3-4.1-14.2-8.7-20.7-13.7c-0.3-0.3-0.4-0.7-0.1-1.1c0.3-0.3,0.7-0.4,1.1-0.1c6.4,4.9,13.3,9.5,20.5,13.6
					c3.5,2,6.1,3.3,6.4,3.4c8.3,4.2,36.3,13.6,55.5,2.5c11.9-6.9,16.2-21.9,24.6-55.3c4.5-17.8,7.7-35.9,9.7-54
					c-6.3-0.3-12.7-0.4-19-0.4c-6,0-12,0.1-18,0.4l-15.2,71.5c-0.1,0.2-0.2,0.4-0.4,0.5c-0.2,0.1-0.5,0.1-0.7,0
					c-5.8-3.4-12-7-18.3-10.7c-7.6-4.3-15.5-8.7-23.6-13c-5.1-2.7-10.5-5.6-15.3-8.1c-13.8-7.2-22.7-11.4-30.5-12.8
					c-17.9-3.2-45.4-0.9-64.3,16c-1.5,1.4-2.9,2.8-4.2,4.4c-10,12.1-18.3,36.8-0.8,86.4c0.1,0.4-0.1,0.8-0.5,1
					C140.7,401,140.6,401,140.5,401z"/>
				<path d="M133.5,488.7c-0.2,0-0.4-0.1-0.5-0.2c-0.2-0.2-0.2-0.4-0.2-0.6c0.7-11.3,4-53.1,7-87.7c1.7-19.8,3.1-34.3,3.9-42.1
					c0-0.4,0.4-0.7,0.8-0.7c0.4,0,0.7,0.4,0.7,0.8c-0.8,7.8-2.2,22.4-3.9,42.1c-2.9,33.7-6.2,74.3-6.9,86.8l154.4-15.4
					c-10.5-30.9-21-61.9-31.5-92.8l-3.1-9c-0.1-0.4,0.1-0.8,0.5-1c0.4-0.1,0.8,0.1,1,0.5l3.1,9c10.6,31.2,21.2,62.5,31.8,93.7
					c0.1,0.2,0,0.5-0.1,0.6c-0.1,0.2-0.3,0.3-0.6,0.3L133.5,488.7C133.6,488.7,133.5,488.7,133.5,488.7z"/>
			</g>
			<path id="hair" d="M198.4,220.1c2.5,5.3-1.2,11.7-3.2,15.1c-4.9,8.5-12.6,12.8-17.4,14.8c20.3,33.4,12.2,67.9-5.8,77.5
				c-15.7,8.4-40.7-1.2-52-18c-19.5-28.9,10.4-67.1,12.7-69.9c16-19.9,40.8-29.1,55.3-25.9C190.3,214.2,196.2,215.5,198.4,220.1z"/>
			<g id="face_1_">
				<path d="M193,291.4c-0.4,0-0.7-0.3-0.7-0.7l-0.8-11.9c0-0.2,0.1-0.4,0.2-0.5c0.1-0.2,0.3-0.2,0.5-0.3c0.4,0,0.7-0.1,1-0.1
					c3.7-0.4,6.7-1.6,9-3.6c3.8-3.3,5.8-9.4,5.9-17.3c0-6.1-1.7-10.6-3.1-14.3c-2.6-6.9-6.5-13.3-11.7-19.1
					c-0.3-0.3-0.2-0.8,0.1-1.1c0.3-0.3,0.8-0.2,1.1,0.1c5.3,5.9,9.3,12.5,12,19.5c1.4,3.8,3.2,8.5,3.2,14.8c0,5.9-1.1,13.9-6.4,18.4
					c-2.5,2.2-5.8,3.5-9.8,4c-0.1,0-0.2,0-0.3,0l0.8,11.2C193.8,291,193.5,291.3,193,291.4C193.1,291.4,193.1,291.4,193,291.4z"/>
				<path d="M192.4,278.2c-0.9,0.1-1.8,0.1-2.7,0c-3.3-0.1-6.1-1-8.1-1.8c3.7,3.1,7.4,6.2,11.2,9.3
					C192.6,283.2,192.5,280.7,192.4,278.2z"/>
			</g>
			<g id="hand_r">
				<path d="M313.8,265.8c-0.3,0-0.6-0.2-0.7-0.5c-0.9-2.4-1.7-4.9-2.5-7.4c-0.8-2.3-1.5-4.7-2.2-7.1c-0.2-0.7-1.9-6.8,0.4-9.2
					c0.2-0.2,1.4-1.5,3.1-1.4c2.6,0.1,4.2,3.4,6.2,8l0.1,0.1c0.3,0.6,0.5,1.1,0.7,1.6c0.3,0.8,0.7,1.6,1.2,2.7
					c-0.5-4.1-1-8.2-1.5-12.3c-1.6-14.3-2-19.9,1.2-21.7c1.2-0.6,2.8-0.7,4.1-0.2c3,1.3,3.5,5.8,3.8,7.9l0.5,4.5
					c0.1,0.8,0.2,1.5,0.3,2.3c0-0.1,0-0.3,0-0.4c0.2-7.8,0.5-15.9,4.5-17.3c1.9-0.7,3.6,0.5,3.6,0.5c2.8,1.8,2.4,6.5,2,11.1
					l-0.1,0.9c-0.2,2.2-0.3,4.5-0.4,6.8l0.1-0.3c0.2-0.9,0.3-1.6,0.4-2.4c1.3-6.3,2-10.2,4.9-11.3c1.1-0.4,2.7-0.5,4,0.4
					c2.5,1.7,1.9,5.9,1.1,10.8l0,0.3c-0.1,0.8-0.2,1.4-0.3,2c-0.1,0.8-0.2,1.5-0.4,2.5c-0.1,0.8-0.2,1.6-0.4,2.4
					c0.3-0.8,0.5-1.6,0.7-2.4c1.6-5.5,2.4-7.9,4.6-8.5c1.1-0.3,2.3,0,3.1,0.7c1.6,1.4,1.4,3.8-0.1,11.2c-1.2,5.8-1.7,7.3-1.7,7.3
					c-1.1,3.6-2.2,7.4-3.4,11.3l-1.9,6.3c-0.1,0.4-0.5,0.6-0.9,0.5c-0.4-0.1-0.6-0.5-0.5-0.9l1.9-6.3c1.2-4,2.3-7.7,3.4-11.3
					c0,0,0.4-1.5,1.7-7.2c1.4-6.7,1.6-8.9,0.6-9.7c-0.4-0.4-1.2-0.5-1.8-0.4c-1.4,0.4-2.2,2.7-3.6,7.5c-0.2,0.7-0.5,1.6-0.7,2.4
					c-0.8,2.6-1.6,5.2-2.5,7.7c-0.1,0.4-0.5,0.6-0.9,0.5c-0.4-0.1-0.6-0.4-0.6-0.8c0.4-3.5,0.8-7,1.4-10.5c0.2-1,0.3-1.7,0.4-2.5
					c0.1-0.6,0.2-1.3,0.3-2l0-0.3c0.6-4.2,1.2-8.1-0.5-9.3c-0.8-0.5-1.9-0.5-2.6-0.2c-2.1,0.8-2.8,4.5-4,10.2
					c-0.2,0.8-0.3,1.5-0.4,2.4l-0.1,0.5c-0.6,3.5-1.1,7.2-1.6,11c0,0.2-0.1,0.3-0.2,0.4c-0.2,0.2-0.5,0.3-0.8,0.2
					c-0.3-0.1-0.5-0.4-0.5-0.7c-0.1-6.4,0.1-12.6,0.6-18.3l0.1-0.9c0.4-4.1,0.7-8.4-1.3-9.7c0,0-1.2-0.7-2.3-0.3
					c-3,1.1-3.3,9.3-3.5,16c-0.1,1.9,0,3.8,0,5.8l0,0.1c0,0.6,0,1.3,0.1,2c0.1,1.4,0.1,2.9,0.1,4.9l0,1.3c0,0.4-0.3,0.7-0.7,0.7
					c-0.4,0-0.7-0.3-0.8-0.7c-0.7-5.9-1.3-11.2-1.9-16l-0.5-4.5c-0.2-1.9-0.7-5.8-2.9-6.7c-0.8-0.4-2-0.3-2.8,0.1
					c-2.4,1.3-1.9,7.4-0.5,20.2c0.6,5.5,1.3,11,2.1,16.5c0,0.4-0.2,0.7-0.5,0.8c-0.3,0.1-0.7,0-0.9-0.3c-0.6-1-1.1-2.1-1.7-3.1
					c-0.8-1.6-1.2-2.5-1.6-3.5c-0.2-0.5-0.4-1-0.7-1.6l-0.1-0.1c-1.7-3.8-3.2-7-4.9-7.1c-1.1,0-1.9,0.9-2,0.9
					c-1.3,1.4-0.7,5.5,0,7.8c0.7,2.3,1.4,4.7,2.2,7c0.8,2.5,1.6,4.9,2.5,7.3c0.1,0.4-0.1,0.8-0.4,1
					C314,265.8,313.9,265.8,313.8,265.8z"/>
				<path d="M313.5,264.5c11.9-0.9,23.7-1.7,35.6-2.6c-0.3,0.9-0.5,1.8-0.8,2.7c-11.5,0.1-23,0.3-34.5,0.4
					C313.7,264.9,313.6,264.7,313.5,264.5z"/>
			</g>
			<g id="hand_l">
				<path d="M267.5,278.3c-0.1,0-0.1,0-0.2,0c-0.4-0.1-0.7-0.5-0.6-0.9c3.9-16.5,6.7-27.6,7.7-31c0.3-0.9,1-3.3,3-4.1
					c1.2-0.5,2.6-0.3,3.5,0.4c1.8,1.3,1.5,4.3,1.4,5.6c-0.4,3.7-1.2,8.6-2,12.7c0.8-1.9,1.7-3.8,2.6-5.6c1.7-3.5,3.3-6.4,4.7-8.6
					c0.2-0.3,0.7-0.5,1-0.2c0.3,0.2,0.5,0.7,0.2,1c-1.4,2.2-2.9,5-4.6,8.4c-2,4.2-3.9,8.5-5.5,12.9c-0.1,0.4-0.5,0.6-0.9,0.5
					c-0.4-0.1-0.6-0.5-0.5-0.9c0.5-2.2,2.8-13.5,3.5-20.3c0.1-1,0.4-3.4-0.8-4.2c-0.6-0.4-1.5-0.4-2.1-0.2c-1.4,0.5-1.9,2.4-2.2,3.1
					c-1,3.3-3.8,14.4-7.7,30.9C268.1,278.1,267.8,278.3,267.5,278.3z"/>
				<path d="M285.2,271.6c-0.1,0-0.2,0-0.2,0c-0.4-0.1-0.6-0.5-0.5-0.9c1.9-6,4.3-11.5,7.1-16.6c0.3-0.5,0.5-0.9,0.8-1.4
					c0.4-0.6,0.7-1.3,1.1-1.9c0.2-0.4,0.6-0.5,1-0.3c0.4,0.2,0.5,0.6,0.3,1c-0.3,0.6-0.7,1.3-1.1,2c-0.3,0.5-0.5,0.9-0.8,1.4
					c-2.7,5-5.1,10.5-7,16.3C285.8,271.4,285.5,271.6,285.2,271.6z"/>
				<path d="M286.2,294.2c-0.2,0-0.3,0-0.4-0.1c-0.3-0.2-0.4-0.7-0.2-1c5.9-8,11.6-15.6,15.4-20.6l0.1-0.1c1.4-1.9,5.2-6.8,3.9-9
					c-0.1-0.1-0.4-0.6-0.8-0.7c-1.1-0.2-2.8,1.9-4.7,4.3c-0.5,0.7-1.1,1.4-1.6,2.1c-2.1,2.6-4.4,5.1-6.8,7.5c-0.3,0.3-0.8,0.3-1.1,0
					c-0.3-0.3-0.3-0.8,0-1.1c2.4-2.3,4.6-4.7,6.7-7.3c0.6-0.7,1.1-1.4,1.6-2.1c2.4-3.1,4.2-5.4,6.2-4.9c1,0.2,1.6,1.1,1.8,1.4
					c1.8,3-2.1,8.2-4,10.7l-0.1,0.1c-3.8,5-9.5,12.6-15.4,20.6C286.7,294,286.5,294.2,286.2,294.2z"/>
				<path d="M285.4,271.2c-0.1,0-0.3,0-0.4-0.1c-0.4-0.2-0.5-0.7-0.3-1c2.4-4.2,4.6-8.3,6.7-12.2l0.2-0.4c1.3-2.4,2.4-4.5,3.7-5.8
					c0.3-0.3,0.8-0.3,1.1,0c0.3,0.3,0.3,0.8,0,1.1c-1.2,1.1-2.2,3.1-3.4,5.4l-0.2,0.4c-2.1,3.9-4.4,8.1-6.7,12.2
					C285.9,271,285.7,271.2,285.4,271.2z"/>
				<path d="M290.6,276.6c-0.2,0-0.4-0.1-0.5-0.2c-0.3-0.2-0.3-0.6-0.1-0.9c2.4-5,4.9-9.9,7.6-14.5l0.5-0.8c1.2-2.1,2.3-4.1,2.8-5.6
					c0.1-0.4,0.5-0.6,0.9-0.5c0.4,0.1,0.6,0.5,0.5,0.9c-0.5,1.7-1.7,3.8-2.9,5.9l-0.5,0.8c-2.6,4.6-5.2,9.5-7.5,14.4
					c0,0.1-0.1,0.1-0.1,0.2C291,276.6,290.8,276.6,290.6,276.6z"/>
				<path d="M274,286.4c-0.3,0-0.6-0.2-0.7-0.5c-0.4-1.2-0.9-2.3-1.6-3.4c-1.1-1.8-2.7-3.2-4.6-4.3c-0.2-0.1-0.4-0.4-0.4-0.7
					c0.2-4.2,0.3-8.4,0.2-12.5c-0.1-3.4-0.2-5.9-1.6-6.7c-0.6-0.3-1.5-0.4-2.2,0c-1.5,0.7-1.9,2.9-2.4,6.1l-0.1,0.6l-4.1,19.2
					c-0.1,0.4-0.5,0.7-0.9,0.6c-0.4-0.1-0.7-0.5-0.6-0.9l4.2-19.7c0.6-3.5,1.1-6.2,3.3-7.2c1.1-0.5,2.5-0.5,3.5,0.1
					c2.1,1.1,2.3,3.9,2.4,8c0.1,4,0,8-0.1,12.1c1.9,1.2,3.5,2.7,4.7,4.5c0.8,1.2,1.3,2.4,1.7,3.8c0.1,0.4-0.1,0.8-0.5,0.9
					C274.1,286.4,274.1,286.4,274,286.4z"/>
				<path d="M291.4,278c-0.3,0-0.5-0.1-0.7-0.4c-1-1.8-3.4-5.1-7.6-6.9c-3-1.3-5.8-1.2-7.6-1c-0.4,0.1-0.8-0.2-0.8-0.6
					s0.2-0.8,0.6-0.8c2-0.3,5.1-0.3,8.4,1.1c4.6,1.9,7.2,5.5,8.4,7.5c0.2,0.4,0.1,0.8-0.3,1C291.7,277.9,291.5,278,291.4,278z"/>
				<path d="M255.9,283.1c10.6,2.7,21.2,5.5,31.8,8.2c-0.4,0.6-0.9,1.3-1.3,1.9c-10.2-3.2-20.4-6.3-30.6-9.5
					C255.9,283.6,255.9,283.3,255.9,283.1z"/>
			</g>
			<g id="legs">
				<path class="st1" d="M207.4,545.1c-8,66.9-15.9,133.7-23.9,200.6c-28.6-7-57.3-14-85.9-21c19.2-79.6,38.4-159.2,57.7-238.9
					c37.2-3.6,74.3-7.2,111.5-10.7c19.8,80.9,39.7,161.7,59.5,242.6c-16.5,5.5-33.6,10.8-51.5,15.8c-10.5,3-20.9,5.8-31.1,8.4
					C230.4,669.4,217,597,203.7,524.6"/>
				<path d="M298.2,754.3c-0.4,0-0.7-0.3-0.7-0.7c-0.1-1.8-0.2-3.5-0.3-5.2L296,727c0-0.4,0.3-0.8,0.7-0.8c0.4,0,0.8,0.3,0.8,0.7
					l1.2,21.3c0.1,1.7,0.2,3.5,0.3,5.2C299,753.9,298.7,754.3,298.2,754.3C298.3,754.3,298.2,754.3,298.2,754.3z"/>
				<path d="M265.1,765.3c-0.4,0-0.7-0.3-0.7-0.6l-4.4-27.2c-0.1-0.4,0.2-0.8,0.6-0.9c0.4-0.1,0.8,0.2,0.9,0.6l4.4,27.2
					c0.1,0.4-0.2,0.8-0.6,0.9C265.2,765.3,265.2,765.3,265.1,765.3z"/>
				<path d="M122.5,754.7C122.4,754.7,122.4,754.7,122.5,754.7c-0.5-0.1-0.8-0.4-0.7-0.8l3.1-22.5c0.1-0.4,0.4-0.7,0.8-0.6
					c0.4,0.1,0.7,0.4,0.6,0.8l-3.1,22.5C123.2,754.4,122.9,754.7,122.5,754.7z"/>
				<path d="M157.1,761.3c0,0-0.1,0-0.1,0c-0.4-0.1-0.7-0.5-0.6-0.9l0.3-1.4c1.1-5.8,2.2-11.7,3.3-17.5l0.3-1.6
					c0.1-0.4,0.5-0.7,0.9-0.6c0.4,0.1,0.7,0.5,0.6,0.9l-0.3,1.6c-1.1,5.8-2.2,11.7-3.3,17.5l-0.3,1.4
					C157.8,761.1,157.4,761.3,157.1,761.3z"/>
				<path d="M281.8,732.2c-0.4,0-0.7-0.3-0.7-0.7l-27.1-255.2c0-0.4,0.3-0.8,0.7-0.8c0.4,0,0.8,0.3,0.8,0.7l27.1,255.2
					C282.6,731.8,282.3,732.2,281.8,732.2C281.8,732.2,281.8,732.2,281.8,732.2z"/>
				<path d="M143.9,736.7c-0.1,0-0.1,0-0.2,0c-0.4-0.1-0.6-0.5-0.5-0.9l61.1-203.6c0.1-0.4,0.5-0.6,0.9-0.5c0.4,0.1,0.6,0.5,0.5,0.9
					l-61.1,203.6C144.6,736.5,144.3,736.7,143.9,736.7z"/>
				<path d="M125.4,732.4c5.4,2,11.5,4.3,16.9,6.3c5.8,2.2,12,4.5,17.8,6.7c0.3-1.7,0.6-3.5,0.9-5.2c-11.8-2.9-23.6-5.8-35.5-8.7
					C125.5,731.8,125.4,732.1,125.4,732.4z"/>
				<path d="M296.8,728c-11.7,5.1-23.4,10.2-35.1,15.3c-0.3-1.8-0.6-3.6-0.9-5.4c12-3.6,24-7.2,36-10.8
					C296.8,727.3,296.8,727.7,296.8,728z"/>
				<path d="M267,475.7c-37.7,5.5-75.5,10.9-113.2,16.4c0.5-2.1,1-4.2,1.5-6.3c37.2-3.7,74.3-7.4,111.5-11.1
					C266.9,475,266.9,475.4,267,475.7z"/>
			</g>
		</g>
	</g>
</g>
</svg>
