<?xml version="1.0" encoding="utf-8"?>
<!-- Generator: Adobe Illustrator 22.1.0, SVG Export Plug-In . SVG Version: 6.00 Build 0)  -->
<svg version="1.1" xmlns="http://www.w3.org/2000/svg" xmlns:xlink="http://www.w3.org/1999/xlink" x="0px" y="0px"
	 viewBox="0 0 969.6 790.4" style="enable-background:new 0 0 969.6 790.4;" xml:space="preserve">
<style type="text/css">
	.st0{fill:#FFDEE9;}
	.st1{fill:#762AE2;}
</style>
<g id="background">
	<g id="background_1_">
		<path d="M746.6,262c-11.3,0-23.1-8.7-35.3-25.7c-0.2-0.3-0.2-0.8,0.2-1c0.3-0.2,0.8-0.2,1,0.2c12.3,17.2,24.1,25.7,35.2,25.1
			c9-0.5,15.2-6.6,21.8-13.1c6.6-6.5,13.4-13.2,23.3-13.7c11-0.5,22.4,6.8,33.9,21.9c0.3,0.3,0.2,0.8-0.1,1.1
			c-0.3,0.3-0.8,0.2-1.1-0.1c-11.2-14.6-22.2-21.8-32.6-21.3c-9.3,0.5-15.9,7-22.3,13.2c-6.5,6.4-13.2,13-22.8,13.5
			C747.4,262,747,262,746.6,262z"/>
		<path d="M83.2,64.9c-9.3,0-19.1-7.1-29.1-21.2c-0.2-0.3-0.2-0.8,0.2-1c0.3-0.2,0.8-0.2,1,0.2c10.1,14.1,19.8,21,28.8,20.6
			c7.4-0.4,12.5-5.4,17.8-10.7c5.4-5.3,11-10.9,19.2-11.3c9.1-0.4,18.5,5.6,28,18c0.3,0.3,0.2,0.8-0.1,1.1c-0.3,0.3-0.8,0.2-1.1-0.1
			c-9.2-12-18.1-17.9-26.7-17.4c-7.6,0.4-12.8,5.5-18.2,10.8C97.7,59,92.1,64.4,84.2,64.8C83.9,64.9,83.6,64.9,83.2,64.9z"/>
		<path d="M34.6,605.9c-0.2,0-0.4-0.1-0.5-0.2L0.2,571.8c-0.3-0.3-0.3-0.8,0-1.1l33.9-33.9c0.3-0.3,0.8-0.3,1.1,0L69,570.8
			c0.1,0.1,0.2,0.3,0.2,0.5s-0.1,0.4-0.2,0.5l-33.9,33.9C35,605.8,34.8,605.9,34.6,605.9z M1.8,571.3l32.8,32.8l32.8-32.8
			l-32.8-32.8L1.8,571.3z"/>
		<path d="M472.8,176.7c-0.4,0-0.7-0.3-0.7-0.6l-4.3-28.2c-0.1-0.4,0.2-0.8,0.6-0.9l28.2-4.3c0.4-0.1,0.8,0.2,0.9,0.6l4.3,28.2
			c0.1,0.4-0.2,0.8-0.6,0.9l-28.2,4.3C472.9,176.7,472.9,176.7,472.8,176.7z M469.4,148.4l4.1,26.7l26.7-4.1l-4.1-26.7L469.4,148.4z
			"/>
		<path d="M835.9,61.4c-0.2,0-0.5-0.1-0.6-0.3l-13.4-20.2c-0.2-0.3-0.1-0.8,0.2-1c0.3-0.2,0.8-0.1,1,0.2l13.4,20.2
			c0.2,0.3,0.1,0.8-0.2,1C836.1,61.4,836,61.4,835.9,61.4z"/>
		<path d="M416.1,332.5c-0.2,0-0.4-0.1-0.6-0.3c-0.3-0.3-0.2-0.8,0.1-1.1l18.3-15.9c0.3-0.3,0.8-0.2,1.1,0.1
			c0.3,0.3,0.2,0.8-0.1,1.1l-18.3,15.9C416.5,332.4,416.3,332.5,416.1,332.5z"/>
		<path d="M810.9,753.3c-0.2,0-0.5-0.1-0.6-0.3l-14.2-19.6c-0.2-0.3-0.2-0.8,0.2-1c0.3-0.2,0.8-0.2,1,0.2l14.2,19.6
			c0.2,0.3,0.2,0.8-0.2,1C811.3,753.3,811.1,753.3,810.9,753.3z"/>
		<path d="M53.7,333.3c-0.2,0-0.4-0.1-0.5-0.2l-16.6-17.6c-0.3-0.3-0.3-0.8,0-1.1c0.3-0.3,0.8-0.3,1.1,0l16.6,17.6
			c0.3,0.3,0.3,0.8,0,1.1C54.1,333.3,53.9,333.3,53.7,333.3z"/>
		<path d="M141.3,652.1c-0.2,0-0.3,0-0.4-0.1c-0.3-0.2-0.4-0.7-0.2-1l14.4-19.5c0.2-0.3,0.7-0.4,1-0.2c0.3,0.2,0.4,0.7,0.2,1
			l-14.4,19.5C141.8,652,141.6,652.1,141.3,652.1z"/>
		<path d="M949.8,458.6c-0.2,0-0.4-0.1-0.6-0.3c-0.3-0.3-0.2-0.8,0.1-1.1l19.1-15c0.3-0.3,0.8-0.2,1.1,0.1c0.3,0.3,0.2,0.8-0.1,1.1
			l-19.1,15C950.1,458.6,949.9,458.6,949.8,458.6z"/>
		<circle class="st0" cx="866.1" cy="365.3" r="16.5"/>
		<circle class="st0" cx="521.7" cy="32.2" r="9.9"/>
		<circle class="st0" cx="151.4" cy="445.8" r="14"/>
		<circle class="st0" cx="904.4" cy="119.8" r="7"/>
		<circle class="st0" cx="71.7" cy="705.1" r="7"/>
		<path d="M923.8,278.6c-0.2,0-0.3-0.1-0.5-0.2l-32.8-25.9c-0.2-0.1-0.3-0.3-0.3-0.5c0-0.2,0-0.4,0.2-0.6l25.9-32.8
			c0.3-0.3,0.7-0.4,1.1-0.1l32.8,25.9c0.2,0.1,0.3,0.3,0.3,0.5c0,0.2,0,0.4-0.2,0.6l-25.9,32.8C924.3,278.5,924.1,278.6,923.8,278.6
			z M892.1,251.9l31.6,25l25-31.6l-31.6-25L892.1,251.9z"/>
	</g>
</g>
<g id="general_1_">
	<g id="general">
		<g id="test_tube_2">
			<g>
				<path class="st1" d="M624.4,616.4c3.9,5,7.9,10,11.8,15c-7.9,0-15.8,0-23.7,0C616.5,626.4,620.4,621.4,624.4,616.4z"/>
				<path d="M612.6,632.2c-0.3,0-0.5-0.2-0.7-0.4s-0.1-0.6,0.1-0.8c3.8-4.9,7.8-10,11.8-15.1c0.1-0.2,0.4-0.3,0.6-0.3c0,0,0,0,0,0
					c0.2,0,0.4,0.1,0.6,0.3c3.9,5,7.9,10,11.8,15c0.2,0.2,0.2,0.5,0.1,0.8c-0.1,0.3-0.4,0.4-0.7,0.4
					C628.4,632.2,620.5,632.2,612.6,632.2z M624.4,617.6c-3.5,4.4-7,8.8-10.3,13.1c6.9,0,13.7,0,20.6,0
					C631.3,626.3,627.9,622,624.4,617.6z"/>
			</g>
			<g>
				<path class="st1" d="M823.2,561.6c2.7,10.2,10.6,40.2,18.4,69.9c-16.2,0-32.5,0-48.7-0.1l5.2,0h-5.2c2.6-5.9,5.2-11.7,7.8-17.6
					C808.3,596.2,815.8,578.8,823.2,561.6z"/>
				<path d="M841.5,632.2L841.5,632.2l-48.7-0.1c-0.4,0-0.7-0.3-0.7-0.8c0,0,0,0,0,0c0-0.1,0-0.2,0.1-0.3c2.6-5.9,5.2-11.7,7.8-17.6
					c7.4-16.9,15-34.5,22.5-52.2c0.1-0.3,0.4-0.5,0.7-0.5c0.3,0,0.6,0.2,0.7,0.6c2.6,9.8,10.2,38.5,18.4,69.9c0.1,0.2,0,0.5-0.1,0.6
					C842,632.1,841.8,632.2,841.5,632.2z M798.3,630.7l42.3,0c-7.6-29-14.6-55.6-17.6-66.9c-7.3,17-14.6,33.9-21.7,50.2
					c-2.4,5.6-4.9,11.1-7.3,16.6h4.1C798.2,630.7,798.2,630.7,798.3,630.7z"/>
			</g>
			<g>
				<path class="st1" d="M936.7,624.4c-35.8-93.7-76.9-157.2-113.3-200.8l0,0c0,0.7-0.1,1.5-0.2,2.2c-0.6,4.4-2,7.6-2.7,9
					c-0.1,0.1-0.1,0.2-0.2,0.4c0.2,0.1,0.4,0.3,0.5,0.5c2.5,2.3,3.9,8.2,0.4,12.1c-3,3.3-8.1,3.5-11,1.5c-0.8-0.6-1.4-1.3-1.8-1.9
					l-4.6,16c1.1,0.5,2.2,1,3.3,1.6c23.8,12.5,39.9,39.6,49.8,66.8c10.7,29.3,18.3,47.9,30.4,85.9c1.5,4.8,3,9.4,4.5,13.9
					c15.7,0,29.2,0.1,40,0.1C935.5,631.7,938,627.9,936.7,624.4z M797.5,394.9c-0.5-0.5-0.9-1-1.4-1.5
					c-54.5-55.6-100.1-76-123.4-143.1c-9.8-28.1-13.1-57.3-12.6-85.4h-80.3c0.5,28.1-2.8,57.3-12.6,85.4
					c-23.3,67.1-68.9,87.5-123.4,143.1c-30.3,31-66.7,76.2-101.6,143.6c1,31.5,1.9,63.1,2.9,94.6c40.3,0,104.1-0.1,175.7-0.2
					c14.8-16.9,29.6-33.6,39.7-44.3c21.6-22.9,34.9-35.5,43.8-42.3c-8.4-4.3-16.9-8.5-25.3-12.8c0.9-2.6,1.8-5.2,2.7-7.8
					c-2.7-1.4-45.4-23.8-52.3-30.1c-1.1-1-4-3.6-3.5-6.4c0.2-1.1,0.7-2.5,1.9-3.3c1.7-1.2,4.1-0.6,6.2,0.2c-0.5-0.2-1-0.4-1.5-0.7
					c-1.4-1-3.2-2.6-4.3-5c-0.6-1.1-1.1-2.3-1-3.9c0-0.5,0.2-2.3,1.5-3.4c0,0,1.2-1.1,3.5-1.2c0.8,0,3.5,0.8,3.5,0.8
					s-3.9-4.5-4.6-5.9c-1-2-1.1-3.1-1-3.9c0-0.5,0.2-2.3,1.5-3.4c0,0,1.2-1.1,3.5-1.2c2.5-0.1,9.9,3.4,19.9,9.1h0
					c-1.5-1.5-10.1-9.6-11.2-11.6c-1-1.8-0.9-3.6-0.9-3.6c0-0.5,0.1-1.8,1-2.8c1-1.1,2.4-1.4,2.9-1.5c4-0.6,10.1,4.5,12.5,6.5
					c3,2.5,7.6,6.1,13.6,10.2c-0.5-3.1,0-5.7,2.2-6.9c7.4-3.9,20.7,27.9,20.7,27.9c28.1,15.5,56.2,31.1,84.3,46.6
					c21.2-38.9,48.9-64.3,71-71c9.7-2.9,18.7-3.5,24.2-3.5l3.3-7.7c-7.9-7.2-5-24.2-4.4-28.3c0.4-2.8,1.1-4.8,1.6-5.9
					c0.8-2.2,3.4-8.9,10.1-13.9c1.8-1.3,6.3-4.7,12-5.5C797.7,395,797.6,395,797.5,394.9z"/>
				<path d="M931.7,632.4C931.7,632.4,931.7,632.4,931.7,632.4c-10.8,0-24.3-0.1-40-0.1c-0.3,0-0.6-0.2-0.7-0.5l-0.8-2.4
					c-1.2-3.7-2.4-7.6-3.7-11.5c-9.2-28.9-15.7-46.3-23.1-66.3c-2.3-6.2-4.7-12.6-7.2-19.6c-8.3-22.8-23.7-52.9-49.4-66.4
					c-1-0.5-2.1-1-3.2-1.6c-0.3-0.2-0.5-0.5-0.4-0.9l4.6-16c0.1-0.3,0.3-0.5,0.6-0.5c0.3,0,0.6,0.1,0.7,0.3c0.4,0.7,1,1.2,1.6,1.7
					c2.5,1.8,7.3,1.7,10-1.3c3.2-3.5,1.9-8.9-0.3-11c-0.2-0.1-0.3-0.3-0.5-0.4c-0.3-0.2-0.4-0.6-0.2-1l0.2-0.4
					c0.3-0.6,1.9-3.8,2.6-8.7c0.1-0.7,0.2-1.4,0.2-2.1c0-0.3,0.2-0.6,0.6-0.7c0.3-0.1,0.6,0,0.8,0.3c44.8,53.6,82.9,121.2,113.4,201
					c0.7,1.9,0.5,4-0.7,5.7C935.6,631.4,933.7,632.4,931.7,632.4z M892.3,630.8c15.5,0,28.8,0.1,39.4,0.1c0,0,0,0,0,0
					c1.5,0,2.9-0.7,3.8-2c0.9-1.3,1.1-2.8,0.5-4.3v0c-30.2-78.9-67.9-145.9-112.1-199.2c0,0.1,0,0.3-0.1,0.4c-0.7,4.8-2.2,8.1-2.6,9
					c0,0,0.1,0.1,0.1,0.1c2.7,2.6,4.2,8.9,0.4,13.1c-3.3,3.6-8.9,3.8-12,1.6c-0.4-0.3-0.7-0.5-1-0.9l-4,14c1,0.5,1.9,0.9,2.7,1.4
					c26.2,13.7,41.7,44.1,50.2,67.2c2.6,7,4.9,13.4,7.2,19.6c7.5,20.1,13.9,37.4,23.2,66.4c1.3,3.9,2.5,7.8,3.7,11.5L892.3,630.8z
					 M345.1,632.4c-0.4,0-0.7-0.3-0.7-0.7l-2.9-94.6c0-0.1,0-0.3,0.1-0.4c29.1-56.2,63.4-104.5,101.8-143.8
					c16-16.3,30.9-29.4,45.4-42c34.3-30,61.4-53.6,77.8-100.8c8.9-25.6,13.1-54.2,12.5-85.1c0-0.2,0.1-0.4,0.2-0.5
					c0.1-0.1,0.3-0.2,0.5-0.2h80.3c0.2,0,0.4,0.1,0.5,0.2c0.1,0.1,0.2,0.3,0.2,0.5c-0.5,30.9,3.7,59.6,12.5,85.1
					c16.4,47.2,43.5,70.9,77.8,100.8c14.4,12.6,29.4,25.6,45.4,42c0.5,0.5,0.9,1,1.4,1.4l0.2,0.2c0.2,0.2,0.3,0.5,0.2,0.8
					c-0.1,0.3-0.3,0.5-0.6,0.5c-5.6,0.8-10,4.1-11.7,5.4c-4.4,3.3-7.7,7.9-9.8,13.5c-0.4,1.2-1.1,3.1-1.5,5.7l0,0.2
					c-2.8,17.1,0.7,24.4,4.2,27.5c0.2,0.2,0.3,0.6,0.2,0.8l-3.3,7.7c-0.1,0.3-0.4,0.5-0.7,0.5c-5.7,0-14.6,0.7-24,3.5
					c-23.6,7.2-50.7,34.2-70.6,70.6c-0.1,0.2-0.3,0.3-0.4,0.4c-0.2,0.1-0.4,0-0.6-0.1l-84.3-46.6c-0.1-0.1-0.3-0.2-0.3-0.4
					c-0.1-0.2-10.5-25-17.7-27.6c-0.8-0.3-1.4-0.3-2,0.1c-1.6,0.9-2.2,2.9-1.8,6.1c0,0.3-0.1,0.6-0.3,0.7c-0.3,0.2-0.6,0.2-0.8,0
					c-4.8-3.3-9.4-6.8-13.6-10.3l-0.2-0.2c-2.4-2-8.2-6.7-11.7-6.2c-0.5,0.1-1.7,0.3-2.5,1.2c-0.7,0.8-0.8,1.9-0.8,2.4
					c0,0-0.1,1.6,0.8,3.2c0.9,1.6,7.1,7.6,9.8,10.2c0.6,0.6,1.1,1,1.3,1.3c0.2,0.2,0.3,0.5,0.2,0.8c-0.2,0.4-0.7,0.6-1.1,0.4
					c-9.9-5.6-17.1-9-19.4-9c0,0,0,0-0.1,0c-2,0-3,0.9-3.1,1c-0.7,0.7-1.1,1.6-1.2,2.9c0,0.7,0,1.7,0.9,3.5c0.5,1.1,3.4,4.5,4.5,5.7
					c0.2,0.3,0.3,0.6,0.1,0.9c-0.2,0.3-0.5,0.4-0.9,0.3c-1.1-0.3-2.8-0.8-3.3-0.8c-2,0-3,0.9-3,1c-0.7,0.7-1.1,1.6-1.2,2.9
					c-0.1,1.4,0.4,2.4,0.9,3.5c0.9,1.8,2.3,3.4,4,4.7l1.4,0.6c0.4,0.2,0.5,0.6,0.4,1c-0.2,0.4-0.6,0.6-1,0.4c-2.5-1-4.3-1.1-5.5-0.3
					c-0.8,0.5-1.3,1.5-1.6,2.8c-0.4,2.4,2.2,4.7,3.3,5.7c6.9,6.3,50.3,29,52.1,29.9c0.3,0.2,0.5,0.6,0.4,0.9l-2.5,7.1l0.7,0.4
					c8,4,16,8.1,24,12.1c0.2,0.1,0.4,0.3,0.4,0.6c0,0.3-0.1,0.5-0.3,0.7c-9.7,7.5-23.6,20.9-43.7,42.2c-8.7,9.2-22,24.1-39.7,44.2
					c-0.1,0.2-0.3,0.3-0.6,0.3C449.2,632.3,385.4,632.4,345.1,632.4C345.1,632.4,345.1,632.4,345.1,632.4z M343,537.2l2.8,93.7
					c40.3,0,103.6-0.1,174.7-0.2c17.6-20,30.8-34.8,39.5-44c19.5-20.7,33.2-34,42.9-41.7c-7.6-3.9-15.3-7.7-23-11.6l-1.3-0.7
					c-0.3-0.2-0.5-0.6-0.4-0.9l2.5-7.2c-6.7-3.5-45.2-23.8-51.9-29.9c-1.3-1.2-4.3-3.9-3.8-7.1c0.4-1.8,1.1-3,2.2-3.8
					c0.8-0.5,1.7-0.8,2.8-0.8c-1.1-1.1-2-2.4-2.7-3.7c-0.6-1.3-1.2-2.6-1.1-4.3c0.1-1.7,0.7-3,1.7-3.9c0.1-0.1,1.5-1.3,4-1.4
					c0.3,0,0.8,0.1,1.3,0.2c-1.2-1.4-2.7-3.3-3.1-4.2c-1.1-2.2-1.1-3.4-1.1-4.3c0.1-1.7,0.7-3,1.7-4c0.1-0.1,1.5-1.3,4-1.4
					c0,0,0,0,0.1,0c2.7,0,9.1,3.1,15.3,6.4c-3.6-3.5-6.6-6.6-7.3-7.9c-1.1-2-1-3.9-1-4c0-0.6,0.1-2,1.2-3.2c1.2-1.4,2.8-1.6,3.4-1.7
					c4.2-0.7,10.1,4.2,12.9,6.5l0.2,0.2c3.8,3.1,7.9,6.3,12.2,9.3c-0.1-3,0.8-5,2.7-6c1-0.5,2-0.5,3.2-0.1
					c7.5,2.7,17.3,25.4,18.4,28.2l83.4,46.1c20-36.4,47.2-63.5,71.1-70.7c9.4-2.8,18.1-3.5,23.9-3.6l2.9-6.8
					c-5.1-5-6.5-14.6-4.2-28.5l0-0.2c0.4-2.8,1.1-4.8,1.6-6c2.2-6,5.7-10.7,10.3-14.2c1.6-1.2,5.7-4.2,10.9-5.4
					c-0.2-0.2-0.4-0.4-0.6-0.6c-16-16.3-30.9-29.3-45.3-41.9c-34.5-30.1-61.7-53.9-78.2-101.5c-8.9-25.5-13.1-54.1-12.6-84.9h-78.8
					c0.5,30.8-3.8,59.4-12.6,84.9c-16.5,47.6-43.8,71.4-78.2,101.5c-14.4,12.6-29.3,25.6-45.3,41.9C406.1,433.1,372,481.2,343,537.2
					z"/>
			</g>
			<path d="M797.7,395.9c-0.2,0-0.3-0.1-0.5-0.2l-0.5-0.5c-0.3-0.3-0.5-0.6-0.8-0.8l-0.4-0.4c-16-16.3-30.9-29.3-45.3-41.9
				c-34.5-30.1-61.7-53.9-78.3-101.5c-8.9-25.7-13.2-54.6-12.6-85.7c0-0.4,0.3-0.7,0.8-0.7c0,0,0,0,0,0c0.4,0,0.7,0.3,0.7,0.8
				c-0.5,30.9,3.7,59.6,12.5,85.1c16.4,47.2,43.5,70.9,77.8,100.9c14.4,12.6,29.4,25.6,45.4,42l0.4,0.4c0.3,0.3,0.5,0.5,0.8,0.8
				l0.4,0.4c0.3,0.3,0.3,0.7,0.1,1.1C798.2,395.8,798,395.9,797.7,395.9z"/>
			<path d="M579.8,165.7c-0.4,0-0.7-0.3-0.8-0.7c-0.3-18.2-2.3-37.6-5.9-57.6c-2.3-12.9-5.4-26.2-9.1-39.8c-0.5-1.9-0.1-3.8,1-5.3
				c1.2-1.5,2.9-2.4,4.8-2.4h100.1c1.9,0,3.7,0.9,4.8,2.4c1.2,1.5,1.5,3.5,1,5.3c-3.7,13.5-6.7,26.9-9.1,39.8
				c-3.6,20-5.6,39.4-5.9,57.6c0,0.4-0.4,0.7-0.8,0.7c-0.4,0-0.7-0.3-0.7-0.8c0.3-18.3,2.3-37.7,6-57.8c2.3-12.9,5.4-26.3,9.1-39.9
				c0.4-1.4,0.1-2.9-0.8-4c-0.9-1.1-2.2-1.8-3.6-1.8H569.9c-1.4,0-2.8,0.7-3.6,1.8c-0.9,1.1-1.2,2.6-0.8,4c3.7,13.6,6.8,27,9.1,39.9
				c3.6,20.1,5.6,39.5,6,57.8C580.6,165.4,580.2,165.7,579.8,165.7C579.8,165.7,579.8,165.7,579.8,165.7z"/>
			<path d="M345.1,631.6c-16.7,0-29.4,0-36.8,0c-3.7,0-6.3-3.7-5-7.3c12.5-32.7,25.6-61.6,39-87.4
				C343.2,568.6,344.1,600.1,345.1,631.6z"/>
		</g>
		<g id="test_tube_1">
			<path d="M288.3,231.5c-0.2,0-0.4-0.1-0.5-0.2c-0.3-0.3-0.3-0.8,0-1.1L419.3,89.7c2.1-2.3,2.2-5.8,0.2-8.1l-67.5-78
				c-1.1-1.3-2.8-2.1-4.5-2.1c-1.7,0-3.4,0.7-4.5,1.9L195.4,161.1c-0.3,0.3-0.8,0.3-1.1,0c-0.3-0.3-0.3-0.8,0-1.1L341.8,2.4
				c1.4-1.5,3.4-2.4,5.5-2.4c0,0,0.1,0,0.1,0c2.1,0,4.2,1,5.6,2.6l67.5,78c2.5,2.9,2.5,7.3-0.2,10.1L288.9,231.3
				C288.7,231.5,288.5,231.5,288.3,231.5z"/>
			<g>
				<path class="st1" d="M170.3,186.8c1.7-1.8,3.3-3.6,5-5.4c0.9,3.3,2,7,3.3,10.9v0c0.2,0.7,0.4,1.3,0.5,2
					C176.3,190.1,173,187.4,170.3,186.8z"/>
				<path d="M179.2,195.2c-0.2,0-0.5-0.1-0.6-0.3c-2.6-3.9-5.8-6.7-8.4-7.3c-0.3-0.1-0.5-0.3-0.5-0.5s0-0.5,0.2-0.7
					c1.7-1.8,3.3-3.6,5-5.4c0.2-0.2,0.5-0.3,0.7-0.2c0.3,0.1,0.5,0.3,0.5,0.5c0.9,3.4,2,7.1,3.3,10.9c0,0,0,0.1,0,0.1l0.5,1.9
					c0.1,0.4-0.1,0.7-0.4,0.9C179.4,195.1,179.3,195.2,179.2,195.2z M171.7,186.5c1.8,0.7,3.8,2.3,5.6,4.3c-0.9-2.7-1.6-5.4-2.3-7.8
					C173.9,184.1,172.8,185.3,171.7,186.5z"/>
			</g>
			<g>
				<path class="st1" d="M349.9,165l-16.1,17.2l-22.1,23.6l-20.5,22l-2.9,3.1c-4.1-1.8-8.5-2.5-12.8-1.3
					c-11.4,3.2-17.7,18.3-15.3,31.4c-15.3,16.4-30.7,32.8-46,49.2c-27.6,29.5-67.3,33.7-88.4,9.4c-14.1-16.3-16.4-41.6-7.9-65.3
					c4.1-11.6,10.8-22.8,19.8-32.4l27.5-29.4c0.3,1.1,0.9,2.1,1.5,3c4.1,5.8,16.2,16.8,17.6,18c-3.4-12.5-5.1-18.8-5.1-18.8
					c0,0,2.2,7.7,6.4,23.2c2.7,0.8,5.6,1.8,8.4,2.8c7.3,2.7,13.9,5.6,19.8,8.6c1.1-3.6,3.1-11.3,0.8-20.8
					c-1.6-6.6-4.6-11.4-6.6-14.2c2.5-6.6,4.8-12.7,6.8-18.4c0.8-2.2,2-5.7,0.3-7.9c-0.1-0.1-1.1-1.4-2.6-1.5c-2.3-0.1-4,2.8-5.1,4.8
					c-1.9,3.3-4.8,8.6-8,16.1c0,0,2.5-14.8,3.5-18.6c0.2-0.9,0.6-2.2,0.7-3.6H349.9z"/>
				<path d="M161.6,335.9c-0.4,0-0.7,0-1.1,0c-14-0.3-26.5-6-35.2-16c-13.8-15.9-16.9-41.3-8.1-66.1c4.3-12,11.2-23.3,20-32.7
					l27.5-29.4c0.2-0.2,0.5-0.3,0.7-0.2c0.3,0.1,0.5,0.3,0.5,0.6c0.2,1,0.8,1.9,1.3,2.7c3.2,4.6,11.5,12.4,15.6,16.1
					c-1.4-5-2.4-8.9-3.2-11.6c-0.5-1.7-0.8-2.9-1-3.7c-0.2-0.6-0.3-0.9-0.3-1l0.1,0c-0.1-0.8,0.1-0.8,0.4-0.9c0.2-0.1,0.4,0,0.6,0.1
					c0.1,0,0.1,0.1,0.3,0.5l0.1,0c0,0.1,0.1,0.6,0.5,1.8c0.8,2.6,2.3,8.4,5.8,20.9c2.6,0.8,5.4,1.7,8.1,2.7c6.5,2.4,12.9,5.1,19,8.2
					c1.4-4.7,2.4-11.6,0.6-19.5c-1.2-5-3.4-9.7-6.5-13.9c-0.2-0.2-0.2-0.5-0.1-0.7c2.3-5.9,4.5-11.9,6.8-18.4
					c0.7-1.8,1.9-5.2,0.4-7.2c0,0-0.9-1.1-2-1.2c-1.9-0.1-3.6,2.8-4.5,4.4c-2.7,4.7-5.4,10.1-8,16c-0.1,0.3-0.5,0.5-0.9,0.4
					c-0.4-0.1-0.6-0.5-0.5-0.8c0.1-0.6,2.5-14.8,3.5-18.6l0-0.1c0.2-0.9,0.6-2.1,0.6-3.3c0-0.4,0.4-0.7,0.7-0.7h146.4
					c0.3,0,0.6,0.2,0.7,0.5c0.1,0.3,0.1,0.6-0.1,0.8l-61.6,65.8c-0.2,0.2-0.6,0.3-0.9,0.2c-4.2-1.9-8.5-2.3-12.3-1.3
					c-11.6,3.2-17,18.4-14.8,30.5c0,0.2,0,0.5-0.2,0.6l-46,49.2C199.6,326.7,180.3,335.9,161.6,335.9z M164.9,193.7l-26.7,28.5
					c-8.7,9.2-15.4,20.4-19.6,32.2c-8.6,24.3-5.7,49,7.8,64.6c8.6,9.9,20.4,15.2,34.1,15.5c18.6,0.4,38-8.7,53.1-24.9l45.7-48.9
					c-2.7-15.7,6-29.1,15.9-31.9c4-1.1,8.4-0.7,12.8,1.1l60-64.2H213.5c1.4,0.4,2.2,1.6,2.2,1.6c2,2.5,0.5,6.5-0.2,8.6
					c-2.2,6.3-4.4,12.2-6.7,18c3.1,4.3,5.3,9.1,6.5,14.1c2.1,8.8,0.7,16.3-0.9,21.2c-0.1,0.2-0.2,0.4-0.4,0.5
					c-0.2,0.1-0.4,0.1-0.6,0c-6.3-3.2-13-6.1-19.7-8.6c-2.8-1-5.7-2-8.4-2.8c-0.2-0.1-0.4-0.3-0.5-0.5c-0.4-1.4-0.8-2.8-1.1-4.1
					c-2.4-2.1-13.7-12.5-17.7-18.1C165.7,195,165.3,194.4,164.9,193.7z M204.2,165.7c-0.1,1.1-0.4,2.1-0.6,2.9l0,0.1
					c-0.6,2.2-1.7,8.1-2.5,12.7c1.8-3.9,3.7-7.5,5.6-10.8c1-1.7,2.5-4.3,4.6-5H204.2z"/>
			</g>
		</g>
		<g id="man_1">
			<g id="shoes">
				<path d="M398.2,774.9c-32.7-2.6-65.4-5.2-98.1-7.8c-0.5-11.1-1.1-22.2-1.6-33.3c13.7-0.1,27.5-0.2,41.2-0.3
					c0.9,3.1,1.8,6.2,2.7,9.4c3.4-0.7,19.7-3.8,35.7,6.2C392.1,757.8,397,771.1,398.2,774.9z"/>
				<path d="M261.8,790.4c-29.5-13.7-59-27.4-88.6-41.1c3.4-10.3,6.9-20.6,10.4-30.9c13,3.2,26.1,6.4,39.1,9.6
					c-0.4,4.7-0.9,9.4-1.4,14c3.6,0.6,19.8,3.7,31,18.8C261.5,773.2,261.8,786.1,261.8,790.4z"/>
			</g>
			<path id="swaeter" d="M374.7,274.6c-3.1,8.1-6.9,14.2-14.4,26.1c-5.2,8.2-11.3,17.2-18.4,26.8c3.8,46.1,7.5,92.1,11.3,138.2
				c-49.5,0.1-98.9,0.3-148.4,0.4c2.9-14.4,5.7-29.2,8.3-44.4c4.2-24.6,7.5-48.4,10.2-71.3c-6.8-0.3-16.8-1.3-28.4-4.6
				c-17.6-5-39.3-11.1-47-27.3c-7.4-15.6,1.5-34.1,17.7-67.5c7.2-14.9,14.4-26.6,19.5-34.3c4.6,1.5,9.5,3.3,14.7,5.4
				c5.4,2.2,10.3,4.6,14.8,6.9c0,0.1-0.1,0.2-0.1,0.4c-4.3,13.5-19.7,43-27.9,64.1c10.5,2.1,19.5,3.5,26.2,4.4
				c24.3,3.3,39.8,3.2,43.6,3.2c2.6,0,4.8-0.1,6.4-0.1c-0.1-2.9-0.2-5.7-0.3-8.6c12.8,0.4,25.6,0.8,38.4,1.2c0,1.4-0.1,2.8-0.1,4.3
				c0,1.1,0,2.1,0,3.2c4.5-0.6,9-1.1,13.6-1.7c6.7-8.5,13.7-18.2,20.4-29.2c4.1-6.6,7.7-13.1,11-19.3c-4.6-6.7-9.7-13.6-15.3-20.7
				c-6.5-8.3-13.1-15.9-19.4-22.8c6.9-7.5,13.8-15,20.7-22.5c11.4,10.8,20.4,20.3,26.9,27.3c18.4,20.2,20.5,25.6,21.4,30.3
				C382.3,254.1,378.6,264.3,374.7,274.6z"/>
			<g id="head">
				<g id="face_1_">
					<path d="M294.1,285.3c-0.3,0-0.6-0.2-0.7-0.5c-0.1-0.4,0.1-0.8,0.5-0.9c0.7-0.2,1.3-0.5,1.9-0.8c5.6-2.7,8.2-8.1,9.4-12.2
						c2.6-8.7,1.3-19.2-3.2-26.8c-1.2-2.1-2.9-4.1-4.7-6c-2.8-2.8-6-5.1-9.3-6.6c-0.4-0.2-0.5-0.6-0.4-1c0.2-0.4,0.6-0.5,1-0.4
						c3.4,1.5,6.8,3.9,9.7,6.9c1.9,1.9,3.6,4.1,4.9,6.3c4.8,8,6.1,19,3.4,28c-1.9,6.3-5.4,10.8-10.2,13.1c-0.7,0.3-1.4,0.6-2.1,0.8
						C294.3,285.3,294.2,285.3,294.1,285.3z"/>
					<path d="M295.2,294.3c-0.4,0-0.7-0.3-0.7-0.7l-1.1-9c0,0,0-0.1,0-0.1c0-0.4,0.3-0.8,0.8-0.8s0.8,0.3,0.8,0.8v0l1.1,8.9
						C296,293.8,295.7,294.2,295.2,294.3C295.3,294.3,295.3,294.3,295.2,294.3z"/>
					<path d="M269.9,293.5C269.9,293.5,269.9,293.5,269.9,293.5c-0.5,0-0.8-0.4-0.7-0.8l0.8-13.9c0-0.4,0.4-0.7,0.8-0.7
						c0.4,0,0.7,0.4,0.7,0.8l-0.8,13.9C270.7,293.2,270.3,293.5,269.9,293.5z"/>
				</g>
				<path id="hair_1_" d="M297.8,237.5c-0.3,2.9-1.3,5.8-3.7,7.7c-0.3,0.3-1.8,1.4-5,1.8c-8.1,1.1-13.3-4.4-16.8-1.7
					c-0.8,0.6-1.1,1.3-1.4,1.8c-1.4,2.9,0.7,5.6,1.9,10.6c0.9,3.7,1.3,8.7-0.1,9.2c-1.1,0.4-2-2.1-5.5-3c-0.6-0.1-2.9-0.7-5.4,0.4
					c-0.6,0.3-1,0.6-1.3,0.8c-0.1,0-0.1,0.1-0.2,0.1c-0.4-2.4-0.7-5.3-0.7-8.7c0-1.5,0-2.9,0.1-4.7c0,0,0.5-4.7,2.1-8.8
					c0.6-1.4,4.4-11,13.5-13.7C283.1,227.2,291.9,230.4,297.8,237.5z"/>
				<path d="M294.4,283.6c-1.4,0.3-3.2,0.6-5.2,0.5c-5.1-0.2-8.8-2.5-10.6-3.7c1.3,1.5,3.1,3.3,5.7,4.9c4.2,2.6,8.3,3.4,10.7,3.7
					C294.8,287.2,294.6,285.4,294.4,283.6z"/>
				<path d="M266,280.4c-2.3,0-4.4-0.7-6-2c-3.2-2.7-4-8-1.8-11.8c0.4-0.6,2.5-3.9,6.6-4.3c3.1-0.3,5.5,1.2,6.4,1.9
					c0.3,0.3,0.4,0.7,0.1,1.1c-0.3,0.3-0.7,0.4-1.1,0.1c-0.7-0.6-2.7-1.8-5.3-1.6c-3.4,0.4-5.2,3.1-5.5,3.6
					c-1.9,3.2-1.2,7.6,1.5,9.9c1.4,1.2,3.5,1.8,5.8,1.6c1.2-0.1,2.4-0.4,3.5-1c0.4-0.2,0.8,0,1,0.3s0,0.8-0.3,1
					c-1.3,0.7-2.7,1.1-4.1,1.2C266.6,280.4,266.3,280.4,266,280.4z"/>
			</g>
			<g id="legs_1_">
				<path d="M279.3,518.4c-0.1,0-0.1,0-0.2,0c-0.4-0.1-0.7-0.5-0.6-0.9l8.2-35.6c0.1-0.4,0.5-0.7,0.9-0.6c0.4,0.1,0.7,0.5,0.6,0.9
					l-8.2,35.6C280,518.2,279.6,518.4,279.3,518.4z"/>
				<path d="M342.2,537.8c-0.4,0-0.7-0.3-0.7-0.7c-0.7-23.8-1.4-47.5-2.1-71.3c0-0.4,0.3-0.8,0.7-0.8c0.4,0,0.8,0.3,0.8,0.7
					c0.7,23.8,1.4,47.5,2.1,71.3C343,537.4,342.7,537.8,342.2,537.8C342.2,537.8,342.2,537.8,342.2,537.8z"/>
				<path d="M294.2,734.5c-0.4,0-0.7-0.3-0.7-0.7l-14.6-211.1l-47.6,207.3c0,0.2-0.2,0.4-0.3,0.5c-0.2,0.1-0.4,0.1-0.6,0.1
					l-46.9-11.5c-2.3-0.6-4.6-1.1-6.9-1.7c-0.4-0.1-0.6-0.5-0.6-0.9c14.2-81.6,28.3-163.2,42.5-244.8l1-5.8c0.1-0.4,0.5-0.7,0.9-0.6
					c0.4,0.1,0.7,0.5,0.6,0.9l-1,5.8c-14.1,81.4-28.2,162.8-42.4,244.1c2.1,0.5,4.2,1,6.2,1.5L230,729l48.6-211.5
					c0.1-0.4,0.4-0.6,0.8-0.6c0.4,0,0.7,0.3,0.7,0.7L294.9,733l52.4-0.4l-0.1-1.7c-1-33.1-2-66.2-3-99.2c0-0.4,0.3-0.8,0.7-0.8
					c0.4,0,0.8,0.3,0.8,0.7c1,33.1,2,66.2,3,99.2l0.1,2.5c0,0.2-0.1,0.4-0.2,0.5s-0.3,0.2-0.5,0.2L294.2,734.5
					C294.2,734.5,294.2,734.5,294.2,734.5z"/>
				<path d="M195.7,722.1c0,0-0.1,0-0.1,0c-0.4-0.1-0.7-0.5-0.6-0.9l49.2-255.4c0.1-0.4,0.5-0.7,0.9-0.6c0.4,0.1,0.7,0.5,0.6,0.9
					l-49.2,255.4C196.4,721.9,196.1,722.1,195.7,722.1z"/>
				<path d="M324,734.2c-0.4,0-0.7-0.3-0.7-0.6l-38.3-243.4c-0.1-0.4,0.2-0.8,0.6-0.9c0.4-0.1,0.8,0.2,0.9,0.6l38.3,243.4
					c0.1,0.4-0.2,0.8-0.6,0.9C324.1,734.2,324,734.2,324,734.2z"/>
			</g>
			<g id="hand">
				<path d="M176,184.4c-0.3,0-0.6-0.2-0.7-0.6c-1.1-4.7-2.4-9.2-3.8-13.4l-0.1-0.3c-0.8-2.5-1.6-4.8-0.3-6.8c1.3-1.9,4.1-2.8,6.2-2
					c0.7,0.3,1.8,1,3.5,4.5c0.6,1.2,1.1,2.4,1.6,3.7c1.5-5,2.9-8.9,3.5-10.3c0.4-1,1.2-2.3,2.6-2.9c0.1,0,0.2-0.1,0.3-0.1
					c0.6-0.2,2.2-0.5,3.8,0.2c1.4,0.7,2.5,2,3,3.8c0.6,2,0,3.7-0.3,4.5c-0.2,0.4-0.6,0.5-1,0.4c-0.4-0.2-0.6-0.6-0.4-1
					c0.3-0.6,0.7-2,0.3-3.5c-0.2-0.8-0.8-2.2-2.2-2.8c-1.1-0.5-2.2-0.3-2.7-0.2c-0.1,0-0.2,0-0.2,0.1c-0.7,0.3-1.2,0.9-1.7,2.1
					c-0.6,1.3-2.2,5.7-4.1,12.5c-0.1,0.3-0.4,0.5-0.7,0.5l0,0c-0.3,0-0.6-0.2-0.7-0.5c-0.6-2-1.3-3.9-2.3-5.8
					c-1.1-2.2-2-3.5-2.7-3.8c-1.5-0.6-3.5,0.1-4.4,1.4c-0.9,1.3-0.3,3.3,0.4,5.5l0.1,0.3c1.4,4.2,2.7,8.8,3.8,13.5
					c0.1,0.4-0.1,0.8-0.6,0.9C176.1,184.4,176,184.4,176,184.4z"/>
				<path d="M189.1,186.1c0,0-0.1,0-0.1,0c-0.4-0.1-0.7-0.5-0.6-0.9c1-6,2.8-14.5,5.5-21c0.5-1.3,2-4.9,4.7-5.3
					c0.1,0,3.1-0.5,4.6,1.4c0.9,1.1,1.3,2.6,1.2,4.6c0,0.4-0.4,0.7-0.8,0.7c-0.4,0-0.7-0.4-0.7-0.8c0.1-1.6-0.2-2.7-0.8-3.6
					c-0.8-1-2.6-1-3.2-0.9c-1.9,0.3-3.1,3.2-3.5,4.4c-2.6,6.3-4.4,14.7-5.4,20.7C189.8,185.9,189.5,186.1,189.1,186.1z"/>
				<path d="M166,194.9c-0.3,0-0.5-0.1-0.7-0.4c-0.5-0.9-1-2.4-0.7-4.1c0.1-0.5,0.3-1,0.5-1.4c0.3-0.5,0.9-1.9,2.6-2.6
					c1.4-0.6,2.7-0.3,3.3-0.1c0.4,0.1,0.6,0.5,0.5,0.9c-0.1,0.4-0.5,0.6-0.9,0.5c-0.5-0.1-1.3-0.3-2.3,0.1c-1.1,0.5-1.6,1.5-1.8,1.9
					c-0.2,0.3-0.3,0.7-0.4,1.1c-0.2,1.2,0.1,2.4,0.5,3.1c0.2,0.4,0,0.8-0.3,1C166.3,194.9,166.2,194.9,166,194.9z"/>
				<path d="M182.5,187.2c-0.3,0-0.7-0.2-0.7-0.6c-0.8-3.4,0-14.1,0-14.5c0-0.4,0.4-0.7,0.8-0.7c0.4,0,0.7,0.4,0.7,0.8
					c0,0.1-0.7,10.9,0,14.1c0.1,0.4-0.2,0.8-0.6,0.9C182.6,187.2,182.5,187.2,182.5,187.2z"/>
				<path d="M178.1,192.5c0.1,5.1,0.2,10.2,0.4,15.2l5.8,5.4C182.2,206.3,180.1,199.4,178.1,192.5z"/>
			</g>
		</g>
		<g id="man_2">
			<g id="legs">
				<path d="M714.9,715.3c-54.3,1.1-108.6,2.2-162.9,3.2c0-0.4,0-0.8,0-1.3c12.9-20.1,26.5-40,40.8-59.6c0.2-0.1,0.5-0.2,0.7-0.3
					l63.6,2.4c5.7,7.8,10.7,14.3,14.8,19.2c8.2,10.1,13.3,15.3,15.7,17.7c4.3,4.3,6.9,6.9,10.9,9.8
					C704.8,711.1,710.7,713.8,714.9,715.3z"/>
				<path d="M541.6,734.7c-0.1,0-0.3,0-0.4-0.1c-23.8-14.8-47.5-29.5-71.3-44.3c-0.2-0.1-0.3-0.3-0.3-0.5c0-0.2,0-0.4,0.2-0.6
					c2.5-2.8,7.6-8.7,14-16.1c9.8-11.3,23.2-26.8,36.6-42c0.3-0.3,0.7-0.3,1.1-0.1c0.3,0.3,0.3,0.7,0.1,1.1
					c-13.3,15.2-26.8,30.7-36.6,42c-6,6.9-10.7,12.4-13.4,15.4c23.3,14.5,46.6,29,69.9,43.5c3.5-5.7,6.8-11,10.1-16.1
					c13-20.3,26.7-40.3,40.8-59.6c6.2-8.5,12.9-17.4,19.7-26.2c0.3-0.3,0.7-0.4,1.1-0.1c0.3,0.3,0.4,0.7,0.1,1.1
					c-6.9,8.9-13.5,17.7-19.7,26.2c-14.1,19.3-27.8,39.3-40.8,59.5c-3.3,5.2-6.7,10.5-10.2,16.3c-0.1,0.1-0.1,0.1-0.1,0.2
					c-0.1,0.1-0.1,0.2-0.2,0.3C542,734.6,541.8,734.7,541.6,734.7z"/>
				<path d="M727.4,718.1c-27.3,0-49.4-29.4-70.8-57.8c-0.2-0.3-14-19.1-16.2-22.5l0,0c-0.1,0-0.1-0.1-0.1-0.2
					c-0.7-1-1.5-1.9-2.2-2.9c-0.8-1-1.5-1.9-2.3-2.9c-0.3-0.3-0.2-0.8,0.1-1.1c0.3-0.3,0.8-0.2,1.1,0.1c0.8,1,1.5,1.9,2.3,2.9
					c0.8,1,1.5,1.9,2.3,2.9c0,0,0,0.1,0.1,0.1c0.6,0.8,13.8,19.1,16.3,22.5c21.2,28.2,43.1,57.3,69.6,57.3c0.4,0,0.9,0,1.3,0
					c11.2-0.4,22.9-12.5,30.8-22.7c8.1-10.5,13.8-20.8,14.9-23c-7.1-7-13.6-13.6-20.1-20.4c-3.9-4.1-7.9-8.2-11.7-12.3
					c-4.8-5.1-9.4-10-13.9-14.8c-3.8-4.1-7.5-8.1-11.2-12c-17.1-18.1-32.5-33.6-51.9-49.8c-4.2-3.5-9.2-7.6-14.2-11.1
					c-13.2-9.1-24.1-12.4-34.6-10.3c-4.2,0.9-8.2,2.6-12,5.1c-0.3,0.2-0.8,0.1-1-0.2c-0.2-0.3-0.1-0.8,0.2-1
					c3.9-2.6,8.2-4.4,12.6-5.3c10.8-2.2,22.2,1.1,35.7,10.5c5.1,3.5,10.1,7.6,14.3,11.1c19.5,16.3,34.9,31.7,52,49.9
					c3.7,3.9,7.4,7.9,11.2,12c4.5,4.8,9,9.7,13.9,14.8c3.9,4.1,7.8,8.2,11.7,12.3c6.6,6.8,13.3,13.6,20.5,20.7
					c0.2,0.2,0.3,0.5,0.2,0.8c-0.1,0.5-24.4,46.3-47.3,47.1C728.3,718.1,727.8,718.1,727.4,718.1z"/>
				<path d="M501.8,653.9l-60.6-2.3l-3-0.1l-2.9,46c0.2,0,0.3,0,0.5,0c8.6,0.2,15.8,2.6,21.5,5.5c7.7,3.8,12.5,8.5,14,10.1
					c5.1-4.4,10.2-8.7,15.3-13.1c-5.4-3.4-10.8-6.7-16.3-10.1C477.6,681.6,488.2,669.4,501.8,653.9z"/>
			</g>
			<g id="head_1_">
				<path d="M775.1,457.2c-0.1,0-0.2,0-0.3-0.1c-0.4-0.2-0.6-0.6-0.4-1l3.1-7.3c-5.1-5-6.5-14.6-4.2-28.5l0-0.1
					c0.4-2.8,1.1-4.8,1.6-6c0.5-1.4,2-5.5,5.5-9.6c0.3-0.3,0.7-0.4,1.1-0.1c0.3,0.3,0.4,0.7,0.1,1.1c-3.3,3.9-4.7,7.8-5.2,9.1
					c-0.4,1.2-1.1,3.1-1.5,5.7l0,0.1c-2.7,16.8,0.6,24.1,3.9,27.3c0.1,0.1,0.2,0.2,0.2,0.2c0.2,0.2,0.3,0.6,0.2,0.9l-3.3,7.8
					C775.7,457.1,775.4,457.2,775.1,457.2z"/>
				<path id="hair" d="M823.7,424c-0.2,0.9-0.4,2.1-0.4,2.1c-0.2,0.9-0.4,1.9-0.7,2.9l0,0c-0.1,0.5-0.3,1-0.4,1.5
					c-0.5,1.7-1.2,3.2-1.9,4.6c-1.4-1.1-3.2-1.8-5.2-1.8c-0.4,0-0.8,0-1.2,0.1c-0.3-2.2-0.3-4.1-0.1-5.6c0.3-3.8,1.4-5.7,0.2-7.7
					c-1.9-3-5.7-1.1-9.4-4.1c-3.9-3.3-2.3-7.9-5.4-9.2c-3.3-1.4-6.2,3.2-11.3,2.6c-3.4-0.4-5.9-2.9-7.4-4.8c1.5-1.9,4.6-5.4,9.9-7.8
					c1.7-0.8,6.4-2.8,12.4-2.1c8.5,0.9,15.9,6.7,18.9,13.9c0.8,1.8,1.2,3.5,1.4,4.6C823.2,414.1,824.2,421.2,823.7,424z"/>
				<path d="M778.5,447.6c1.2,1.2,3,2.7,5.6,3.9c5.4,2.5,10.4,1.7,12.4,1.3c-1.5,0.8-3.5,1.7-6,2.1c-6.6,1.1-11.9-1.9-13.6-3
					C777.4,450.5,777.9,449.1,778.5,447.6z"/>
				<path d="M814.7,451.2c-1.9,0-3.6-0.5-5-1.5c-0.8-0.5-1.4-1.2-2-2.1c-0.2-0.3-0.1-0.8,0.2-1c0.4-0.2,0.8-0.1,1,0.2
					c0.4,0.7,1,1.2,1.6,1.7c2.5,1.8,7.3,1.7,10-1.3c3.2-3.5,1.9-8.9-0.3-11c-0.2-0.1-0.3-0.3-0.5-0.4c-1.7-1.4-4-1.9-6.1-1.6
					c-0.4,0.1-0.8-0.2-0.9-0.6c-0.1-0.4,0.2-0.8,0.6-0.9c2.6-0.4,5.2,0.2,7.3,1.9c0.2,0.2,0.4,0.3,0.6,0.5c2.7,2.6,4.2,8.9,0.4,13.1
					C819.9,450.2,817.2,451.2,814.7,451.2z"/>
			</g>
			<g id="tshirt">
				<path d="M877,699.1c-2.7,0-5.5-0.1-8.2-0.4c-3.5-0.3-7.1-0.9-10.5-1.7c-0.3-0.1-0.5-0.3-0.6-0.5c-1.1-4.2-2.6-10.1-4.5-17.2
					l-3-11.7c-2.9-11-6.1-23.4-9.4-36l-1.1-4c-1.5-5.9-3.1-11.7-4.6-17.4c-2.1-8.2-4.2-16-6-22.9l-3.4-12.8c-1-3.7-1.8-6.9-2.5-9.5
					l-0.3-1.1c-1.9,4.5-3.9,9-5.8,13.6c-5.4,12.6-10.8,25-15.9,36.6c-1.5,3.5-3.1,7-4.6,10.5c-1,2.4-2.1,4.7-3.1,7.1c0,0,0,0,0,0.1
					c-5.5,12.5-11.3,25.3-17.6,39.3c0,0.1-0.1,0.2-0.1,0.3c-0.2,0.4-0.6,0.5-1,0.3c-0.4-0.2-0.5-0.6-0.3-1c0-0.1,0.1-0.1,0.1-0.2
					c6.3-14,12.1-26.9,17.6-39.3c0,0,0,0,0-0.1c1.1-2.4,2.1-4.8,3.2-7.1c1.5-3.5,3.1-7,4.6-10.5c5.1-11.7,10.4-24,15.9-36.6
					c2.2-5.2,4.5-10.4,6.7-15.6c0.1-0.3,0.4-0.5,0.7-0.5c0.3,0,0.6,0.2,0.7,0.6l0.8,3.2c0.7,2.6,1.5,5.8,2.5,9.5l3.4,12.8
					c1.8,7,3.9,14.8,6,22.9c1.5,5.7,3,11.5,4.6,17.4l1.1,4c3.3,12.5,6.6,25,9.4,36l3,11.7c1.8,6.8,3.3,12.6,4.4,16.8
					c3.2,0.7,6.5,1.3,9.8,1.6c6.2,0.6,12.4,0.5,18.5-0.3c8-1,15.7-3.2,23.1-6.5l-0.1-0.3c-0.7-2-1.4-4.2-2.2-6.5
					c-2.4-7-5-14.7-7.7-22.9c-2.3-7-4.8-14.6-7.5-22.8l-2.8-8.6c-1.2-3.7-2.4-7.6-3.7-11.5c-3.1-9.6-5.9-18.3-8.8-26.5
					c-0.4-1.2-0.8-2.4-1.2-3.6l-1.8-5.1c-1.9-5.6-3.9-11.4-6.2-17.7c-4.1-11.5-8.1-22.3-12.5-33c-0.9-2.3-1.9-4.8-3-7.3
					c-3.7-8.8-9-20.5-16.8-31.7c-4.4-6.4-8.8-11.2-11.8-14.1c-0.5-0.5-1.1-1-1.1-1c-3.3-3.1-6.7-5.9-10.2-8.3
					c-11.4,8.6-24.5,13.1-35.1,12.1c-1.9-0.2-3.6-0.5-5.2-1c-7.2-2.4-12.5-7-12.8-7.2c-4.9-4.3-7.7-9.1-9.2-12.6
					c-4.7,1.6-9.3,3.7-13.6,6.1c-1.5,0.8-3.9,2.2-6.8,4.2c-4.9,3.4-10,7.8-15.1,12.9c-0.9,1-1.9,1.9-2.8,2.9
					c-8.5,9.1-17,20.2-25.3,33.1c-2.4,3.7-4.7,7.5-6.9,11.4c-0.2,0.4-0.7,0.5-1,0.3l-32.7-18.1c0,0-0.1,0-0.1-0.1
					c-4.1-2.3-8.3-4.6-12.4-6.9l-25.7-14.2c-2.2-1.2-4.4-2.5-6.7-3.7c-2-1.1-3.9-2.2-5.9-3.3l-16.1,46.2l7.2,3.7
					c5.8,2.9,11.7,5.9,17.5,8.8c0.4,0.2,0.5,0.6,0.3,1c-0.2,0.4-0.6,0.5-1,0.3c-5.8-3-11.6-5.9-17.5-8.8l-7.8-4
					c-0.3-0.2-0.5-0.6-0.4-0.9l16.6-47.7c0.1-0.2,0.2-0.4,0.4-0.5c0.2-0.1,0.4-0.1,0.6,0c2.2,1.2,4.4,2.5,6.7,3.7
					c2.2,1.2,4.4,2.5,6.7,3.7l25.7,14.2c4.2,2.3,8.4,4.6,12.5,6.9c0,0,0.1,0,0.1,0.1l32,17.7c2.1-3.6,4.3-7.3,6.6-10.8
					c8.3-13,16.9-24.2,25.5-33.3c0.9-1,1.9-2,2.9-3c5.1-5.2,10.3-9.6,15.3-13c3-2.1,5.4-3.5,6.9-4.3c4.6-2.5,9.4-4.7,14.5-6.4
					c0.4-0.1,0.8,0.1,0.9,0.4c1.4,3.4,4.1,8.3,9.1,12.7c0.1,0,5.3,4.6,12.2,6.9c1.5,0.5,3.2,0.8,4.9,1c10.4,1,23.3-3.6,34.5-12.1
					c0.3-0.2,0.6-0.2,0.9,0c3.7,2.5,7.4,5.5,10.8,8.8l0,0c0,0,0.5,0.5,1.1,1.1c3,2.9,7.5,7.8,11.9,14.3c7.8,11.3,13.1,23,16.9,32
					c1,2.5,2,4.9,3,7.3c4.3,10.8,8.4,21.6,12.5,33.1c2.2,6.2,4.2,12,6.2,17.7l1.8,5.1c0.4,1.2,0.8,2.4,1.2,3.6
					c2.8,8.3,5.7,17,8.8,26.6c1.3,3.9,2.5,7.8,3.7,11.5l2.8,8.6c2.7,8.2,5.2,15.8,7.5,22.8c2.7,8.2,5.3,15.9,7.7,22.9
					c0.8,2.3,1.5,4.5,2.2,6.5l0.3,0.9c0.1,0.4,0,0.8-0.4,0.9c-7.7,3.5-15.8,5.8-24.1,6.9C884.1,698.9,880.5,699.1,877,699.1z"/>
				<path d="M694.7,588c-0.1,0-0.2,0-0.3,0c-0.4-0.1-0.6-0.6-0.4-1l24-62.9c0.1-0.4,0.6-0.6,1-0.4c0.4,0.1,0.6,0.6,0.4,1l-24,62.9
					C695.3,587.8,695,588,694.7,588z"/>
				<g id="pattern">
					<circle cx="748" cy="476.5" r="1.4"/>
					<circle cx="722.4" cy="488.6" r="1.4"/>
					<circle cx="762.2" cy="505.3" r="1.4"/>
					<circle cx="741.2" cy="513.7" r="1.4"/>
					<circle cx="761.5" cy="539.1" r="1.4"/>
					<circle cx="769" cy="565.3" r="1.4"/>
					<circle cx="732.6" cy="561.6" r="1.4"/>
					<circle cx="727.8" cy="531.7" r="1.4"/>
					<circle cx="681.7" cy="541.7" r="1.4"/>
					<circle cx="689.8" cy="569.2" r="1.4"/>
					<circle cx="663.6" cy="550.8" r="1.4"/>
					<circle cx="641.2" cy="525" r="1.4"/>
					<circle cx="612.6" cy="538.3" r="1.4"/>
					<circle cx="614.6" cy="505.3" r="1.4"/>
					<circle cx="700.3" cy="530.9" r="1.4"/>
					<circle cx="706.7" cy="506.5" r="1.4"/>
					<circle cx="598.5" cy="517.3" r="1.4"/>
					<circle cx="723.8" cy="593.5" r="1.4"/>
					<circle cx="709" cy="579.1" r="1.4"/>
					<circle cx="782.5" cy="532.5" r="1.4"/>
					<circle cx="808.4" cy="539.1" r="1.4"/>
					<circle cx="791.5" cy="557.1" r="1.4"/>
					<circle cx="767.6" cy="593.5" r="1.4"/>
					<circle cx="738.7" cy="613.5" r="1.4"/>
					<circle cx="745.2" cy="579.1" r="1.4"/>
					<circle cx="756.4" cy="633.1" r="1.4"/>
					<circle cx="780.9" cy="636.2" r="1.4"/>
					<circle cx="786.6" cy="605.7" r="1.4"/>
					<circle cx="807.9" cy="579.1" r="1.4"/>
					<circle cx="769" cy="617.8" r="1.4"/>
					<circle cx="770.6" cy="652.1" r="1.4"/>
					<circle cx="829.1" cy="557.1" r="1.4"/>
					<circle cx="856.5" cy="571.3" r="1.4"/>
					<circle cx="841.5" cy="596.5" r="1.4"/>
					<circle cx="865" cy="598.9" r="1.4"/>
					<circle cx="855.1" cy="616.4" r="1.4"/>
					<circle cx="858.5" cy="641.6" r="1.4"/>
					<circle cx="874" cy="663.8" r="1.4"/>
					<circle cx="893.1" cy="680.6" r="1.4"/>
					<circle cx="858.5" cy="688" r="1.4"/>
					<circle cx="881.8" cy="652.1" r="1.4"/>
					<circle cx="874" cy="627" r="1.4"/>
					<circle cx="829.1" cy="529" r="1.4"/>
					<circle cx="850.1" cy="541.5" r="1.4"/>
					<circle cx="783.7" cy="490" r="1.4"/>
					<circle cx="791.5" cy="509.2" r="1.4"/>
					<circle cx="809.8" cy="493.8" r="1.4"/>
					<circle cx="824.7" cy="507.5" r="1.4"/>
					<circle cx="829.1" cy="488.6" r="1.4"/>
				</g>
			</g>
			<g id="hands">
				<path d="M922.4,721.2c-0.4,0-0.7-0.3-0.8-0.7c0-0.4,0.3-0.8,0.7-0.8c10-0.1,22.4-2,24.1-7c0.1-0.4,0.6-1.7,0-2.7
					c-1-1.8-4.6-1.9-9.6-1.9l-1.7,0c-5-0.1-10.1-0.3-15.3-0.7c-0.4,0-0.7-0.4-0.7-0.8c0-0.4,0.4-0.7,0.8-0.7
					c5.1,0.4,10.2,0.6,15.2,0.7l1.7,0c5.6,0,9.6,0.1,11,2.7c0.6,1.1,0.6,2.4,0,3.9C945.5,720.4,927.8,721.1,922.4,721.2
					C922.5,721.2,922.4,721.2,922.4,721.2z"/>
				<path d="M914.2,723.8c-6.3,0-14.9-1.5-23.4-3.2c-22-4.5-26-9.3-27.4-11c-3-3.6-4.9-8.1-5.7-13.2c-0.1-0.4,0.2-0.8,0.6-0.9
					c0.4-0.1,0.8,0.2,0.9,0.6c0.8,4.9,2.6,9.1,5.4,12.5c3.3,4,12.3,7.5,26.5,10.4c19,3.9,29.3,4.2,30.6,1.1c0,0,0-0.1,0-0.1
					c0.9-1.8-0.4-4.1-0.4-4.2c-1.4-2.6-5.2-3.2-8.2-3.6l-0.7-0.1c-6.3-1-12.7-3-19.3-6c-0.4-0.2-0.5-0.6-0.4-1
					c0.2-0.4,0.6-0.5,1-0.4c6.4,2.9,12.8,4.9,18.9,5.9l0.7,0.1c3.2,0.5,7.5,1.1,9.3,4.4c0.1,0.1,1.7,3,0.4,5.5
					C922.2,723,918.9,723.8,914.2,723.8z"/>
				<path d="M947.5,712.3c-0.3,0-0.6-0.2-0.7-0.6c-0.1-0.4,0.1-0.8,0.5-0.9c3.5-0.9,6-3.5,6-6.2c0-1.9-1.3-3.3-1.5-3.5
					c-2.4-2.4-6.6-1.8-9.6-1.4l-0.5,0.1c-6.6,0.9-13.7,1-21.3,0.4c-0.4,0-0.7-0.4-0.7-0.8c0-0.4,0.4-0.7,0.8-0.7
					c7.5,0.6,14.5,0.5,21-0.4l0.5-0.1c3.2-0.4,8-1.1,10.9,1.8c0.3,0.3,1.9,2,1.9,4.5c0,3.4-2.9,6.5-7.1,7.6
					C947.7,712.3,947.6,712.3,947.5,712.3z"/>
				<path d="M952.6,701.7c-0.2,0-0.4-0.1-0.5-0.2c-0.3-0.3-0.3-0.7-0.1-1.1c0.3-0.4,1.3-1.6,1.2-3.4c-0.1-1.8-1.3-2.9-1.8-3.3
					c-0.8-0.6-1.7-1-2.9-1.2c-2.2-0.3-4,0.2-4.3,0.3c-2.9,0.8-10.6,1.7-23.3,2.6c-0.4,0-0.8-0.3-0.8-0.7c0-0.4,0.3-0.8,0.7-0.8
					c12.5-0.9,20.3-1.8,23-2.6c0.5-0.2,2.5-0.6,4.9-0.3c1.4,0.2,2.7,0.7,3.7,1.5c0.6,0.5,2.1,2,2.3,4.3c0.2,2.4-1.1,4.1-1.5,4.5
					C953,701.6,952.8,701.7,952.6,701.7z"/>
				<path d="M940.6,693.4c-0.3,0-0.6-0.2-0.7-0.4c-0.6-1.4-1.5-2.4-2.5-3c-2-1.2-4.3-0.7-5.4-0.4c-4.2,0.9-10.7,1.5-20.5,2.1
					c-0.4,0-0.8-0.3-0.8-0.7s0.3-0.8,0.7-0.8c9.7-0.5,16.1-1.2,20.2-2c1.3-0.3,4-0.8,6.5,0.6c1.3,0.8,2.4,2,3.2,3.7
					c0.2,0.4,0,0.8-0.4,1C940.8,693.4,940.7,693.4,940.6,693.4z"/>
				<path d="M580.5,499.3c-0.3,0-0.6-0.2-0.7-0.5c-1.1-2.9-1.7-6-1.7-9.1c-0.1-2.9,0.4-5.7,1.2-8.5c-1.1-1.8-6.3-10.9-7.3-17.8
					c-0.1-0.4,0.2-0.8,0.6-0.9c0.4-0.1,0.8,0.2,0.9,0.6c1.1,7.2,7.2,17.4,7.3,17.5c0.1,0.2,0.1,0.4,0.1,0.6
					c-0.9,2.7-1.3,5.5-1.2,8.3c0,3,0.6,5.8,1.6,8.6c0.1,0.4,0,0.8-0.4,1C580.7,499.3,580.6,499.3,580.5,499.3z"/>
				<path d="M555.4,499.7c-0.3,0-0.7-0.2-0.7-0.6c-0.7-3.3-1.7-11.7,3.6-19.6c3.3-4.8,7.5-7.4,10.6-8.8c0.4-0.2,0.8,0,1,0.4
					c0.2,0.4,0,0.8-0.4,1c-2.8,1.3-6.9,3.7-9.9,8.2c-5,7.4-4,15.3-3.4,18.4c0.1,0.4-0.2,0.8-0.6,0.9
					C555.5,499.7,555.4,499.7,555.4,499.7z"/>
				<path d="M554.9,495.9c-0.1,0-0.2,0-0.3-0.1l-21-10.3c-0.4-0.2-0.5-0.6-0.3-1c0.2-0.4,0.6-0.5,1-0.3l21,10.3
					c0.4,0.2,0.5,0.6,0.3,1C555.4,495.7,555.2,495.9,554.9,495.9z"/>
				<path d="M556.3,484c-0.1,0-0.3,0-0.4-0.1l-20.7-11.8c-0.4-0.2-0.5-0.7-0.3-1c0.2-0.4,0.7-0.5,1-0.3l20.7,11.8
					c0.4,0.2,0.5,0.7,0.3,1C556.8,483.8,556.6,484,556.3,484z"/>
				<path d="M564.9,474.6c-0.2,0-0.3-0.1-0.5-0.2l-10.1-7.7c-0.3-0.3-0.4-0.7-0.1-1.1s0.7-0.4,1.1-0.1l10.1,7.7
					c0.3,0.3,0.4,0.7,0.1,1.1C565.4,474.5,565.1,474.6,564.9,474.6z"/>
				<path d="M595.2,483.5c-6.5,12.6-13,25.1-19.5,37.7l6.1,2.6C586.3,510.4,590.8,497,595.2,483.5z"/>
			</g>
			<g id="shoes_1_">
				<path d="M494.6,760.3c-0.1,0-0.2,0-0.4-0.1c-15.3-8.5-30.7-17-46-25.5c-15.3-8.5-30.7-17-46-25.5c-0.2-0.1-0.3-0.3-0.4-0.5
					c0-0.2,0-0.4,0.2-0.6c1.7-2,3.8-3.7,6.1-5.1c1.2-0.7,2.5-1.3,3.8-1.8c0.4-0.1,0.8,0.1,1,0.4c0.1,0.4-0.1,0.8-0.4,1
					c-1.2,0.5-2.4,1-3.6,1.7c-1.9,1.1-3.6,2.5-5.1,4.1c15.1,8.4,30.1,16.7,45.2,25.1c15.2,8.4,30.3,16.8,45.5,25.2l26.6-36.2
					c-11.8-7.1-23.5-14.3-35.3-21.4c-0.4-0.2-0.5-0.7-0.3-1c0.2-0.4,0.7-0.5,1-0.3c12,7.3,24,14.6,36,21.8c0.2,0.1,0.3,0.3,0.3,0.5
					c0,0.2,0,0.4-0.1,0.6L495.2,760C495.1,760.2,494.9,760.3,494.6,760.3z"/>
				<path d="M441.2,651.6l-3-0.1l-2.9,46c-10.7-0.2-19.3,3-25.2,6.2c-0.3-32.3-0.6-64.7-0.9-97c4,1.6,17.7,7.9,26,23.5
					C439.4,637.7,440.9,645.2,441.2,651.6z"/>
				<path d="M502.4,749.8c-0.1,0-0.2,0-0.4-0.1l-88.6-47.2c-0.4-0.2-0.5-0.6-0.3-1c0.2-0.4,0.6-0.5,1-0.3l88.6,47.2
					c0.4,0.2,0.5,0.6,0.3,1C502.9,749.6,502.6,749.8,502.4,749.8z"/>
				<path d="M521.7,722.7c-2.3,3.2-4.6,6.3-7,9.5c-10.2-10.1-20.4-20.2-30.5-30.3c0.7-0.6,1.4-1.1,2.1-1.7
					C498.1,707.7,509.9,715.2,521.7,722.7z"/>
			</g>
		</g>
	</g>
</g>
</svg>
