<?xml version="1.0" encoding="utf-8"?>
<!-- Generator: Adobe Illustrator 22.1.0, SVG Export Plug-In . SVG Version: 6.00 Build 0)  -->
<svg version="1.1" xmlns="http://www.w3.org/2000/svg" xmlns:xlink="http://www.w3.org/1999/xlink" x="0px" y="0px"
	 viewBox="0 0 900 770.9" style="enable-background:new 0 0 900 770.9;" xml:space="preserve">
<style type="text/css">
	.st0{fill:#2D3CFE;}
	.st1{fill:#FF1E00;}
</style>
<g id="background">
	<g id="background_1_">
		<path d="M657.5,156.2c-13.7,0-28.2-10.8-43-32.2c-0.2-0.2-0.1-0.6,0.1-0.7c0.2-0.2,0.5-0.1,0.7,0.1c15.2,21.8,29.8,32.5,43.6,31.7
			c11.2-0.6,18.9-8.4,27.1-16.6c8-8.1,16.3-16.5,28.3-17.1c13.4-0.7,27.3,8.5,41.3,27.3c0.2,0.2,0.1,0.6-0.1,0.7
			c-0.2,0.2-0.5,0.1-0.7-0.1c-13.8-18.5-27.4-27.6-40.4-26.9c-11.6,0.6-19.8,8.8-27.6,16.8c-7.9,8-16.1,16.2-27.7,16.9
			C658.5,156.1,658,156.2,657.5,156.2z"/>
		<path d="M121,701.4c-12.1,0-24.9-9.6-38.1-28.5c-0.2-0.2-0.1-0.6,0.1-0.7c0.2-0.2,0.5-0.1,0.7,0.1c13.4,19.2,26.4,28.7,38.5,28
			c9.9-0.6,16.7-7.4,23.9-14.6c7.1-7.2,14.4-14.6,25-15.1c11.8-0.6,24.1,7.5,36.6,24.2c0.2,0.2,0.1,0.6-0.1,0.7
			c-0.2,0.2-0.5,0.1-0.7-0.1c-12.2-16.3-24.2-24.3-35.7-23.8c-10.2,0.5-17.4,7.8-24.4,14.8c-7,7.1-14.2,14.4-24.5,14.9
			C121.9,701.3,121.5,701.4,121,701.4z"/>
		<path d="M71.2,71.5c-13.7,0-28.2-10.8-43-32.2c-0.2-0.2-0.1-0.6,0.1-0.7c0.2-0.2,0.5-0.1,0.7,0.1c15.2,21.8,29.9,32.5,43.6,31.7
			c11.2-0.6,18.9-8.4,27.1-16.6c8-8.1,16.3-16.5,28.3-17.1c13.4-0.7,27.2,8.5,41.3,27.3c0.2,0.2,0.1,0.6-0.1,0.7
			c-0.2,0.2-0.5,0.1-0.7-0.1C154.6,46.2,141,37.2,128,37.8c-11.6,0.6-19.8,8.8-27.6,16.8c-7.9,8-16.1,16.2-27.7,16.9
			C72.2,71.5,71.7,71.5,71.2,71.5z"/>
		<polygon class="st0" points="73.2,316.4 51.6,300.9 66.7,278.8 88.3,294.2 		"/>
		<path d="M855.7,446.4c-0.1,0-0.2,0-0.3-0.1l-15.8-14.6c-0.1-0.1-0.2-0.2-0.2-0.4c0-0.1,0-0.3,0.1-0.4l14.3-16.2
			c0.1-0.1,0.2-0.2,0.4-0.2c0.1,0,0.3,0,0.4,0.1l15.8,14.6c0.1,0.1,0.2,0.2,0.2,0.4c0,0.1,0,0.3-0.1,0.4l-14.3,16.2
			C856,446.3,855.8,446.4,855.7,446.4z M840.6,431.2l15.1,13.9l13.6-15.4l-15.1-14L840.6,431.2z"/>
		<path d="M432.6,37.3c-0.1,0-0.1,0-0.2,0c-0.3-0.1-0.4-0.4-0.3-0.7l5.8-15.7c0.1-0.3,0.4-0.4,0.7-0.3c0.3,0.1,0.4,0.4,0.3,0.7
			L433,36.9C433,37.1,432.8,37.3,432.6,37.3z"/>
		<path d="M160.7,372.9c-0.2,0-0.5-0.2-0.5-0.4c0-0.3,0.1-0.6,0.4-0.6l16.2-2.8c0.3,0,0.5,0.1,0.6,0.4s-0.1,0.6-0.4,0.6L160.7,372.9
			C160.8,372.9,160.8,372.9,160.7,372.9z"/>
		<path d="M797.5,88.1c-0.2,0-0.4-0.1-0.5-0.3c-0.1-0.3,0-0.6,0.3-0.7l15.4-5.7c0.3-0.1,0.6,0,0.6,0.3c0.1,0.3,0,0.6-0.3,0.7
			L797.6,88C797.6,88.1,797.5,88.1,797.5,88.1z"/>
		<path d="M173.1,146.5c-0.2,0-0.3-0.1-0.4-0.2l-8.6-14.3c-0.1-0.2-0.1-0.6,0.2-0.7c0.2-0.1,0.6-0.1,0.7,0.2l8.6,14.3
			c0.1,0.2,0.1,0.6-0.2,0.7C173.3,146.4,173.2,146.5,173.1,146.5z"/>
		<path d="M714.6,303.3c-0.2,0-0.3-0.1-0.4-0.2l-9.8-13.5c-0.2-0.2-0.1-0.6,0.1-0.7c0.2-0.2,0.5-0.1,0.7,0.1l9.8,13.5
			c0.2,0.2,0.1,0.6-0.1,0.7C714.8,303.3,714.7,303.3,714.6,303.3z"/>
		<path d="M779,507.3c0,0-0.1,0-0.1,0l-15.8-4.6c-0.3-0.1-0.4-0.4-0.3-0.6c0.1-0.3,0.4-0.4,0.6-0.4l15.8,4.6
			c0.3,0.1,0.4,0.4,0.3,0.6C779.5,507.2,779.2,507.3,779,507.3z"/>
		<path d="M812.1,709.3c-0.2,0-0.4-0.1-0.5-0.4l-5.1-15.9c-0.1-0.3,0.1-0.6,0.3-0.7s0.6,0.1,0.6,0.3l5.1,15.9
			c0.1,0.3-0.1,0.6-0.3,0.7C812.2,709.3,812.2,709.3,812.1,709.3z"/>
		<ellipse class="st0" cx="685" cy="656.6" rx="16.6" ry="17"/>
		<ellipse class="st0" cx="820.2" cy="235.4" rx="8.1" ry="8.3"/>
		<path d="M118.3,562.4c-2.1,0-4.2-0.8-5.9-2.5c-1.6-1.6-2.4-3.7-2.4-6s0.9-4.4,2.4-6l0,0l0,0c3.2-3.3,8.5-3.3,11.7,0
			c1.6,1.6,2.4,3.7,2.4,6s-0.9,4.4-2.4,6C122.6,561.5,120.4,562.4,118.3,562.4z M118.3,546.5c-1.9,0-3.7,0.7-5.1,2.2l0,0
			c-1.4,1.4-2.1,3.3-2.1,5.3s0.8,3.9,2.1,5.3c2.8,2.9,7.4,2.9,10.3,0c1.4-1.4,2.1-3.3,2.1-5.3s-0.8-3.9-2.1-5.3
			C122,547.2,120.2,546.5,118.3,546.5z M112.8,548.3L112.8,548.3L112.8,548.3z"/>
	</g>
</g>
<g id="general_1_">
	<g id="general_3_">
		<g id="picture_2_">
			<path class="st1" d="M527.8,112.8c-0.9-3.4-4.3-5.3-7.6-4.4l-89.3,25.5L377.6,149l-95.3,27.2c-3.3,0.9-5.2,4.4-4.3,7.8
				l33.8,124.3c0,0,2.3-13.4,8.1-13.2c5.8,0.2,6.3,14.5,6.3,14.5l-0.4,0.6c10.7-14.6,24.2-31.3,28.9-29.7c1.7,0.5,2.5,1.7,2.5,1.7
				c0.2,0.3,0.3,0.6,0.4,0.9v0c4.3-17.1,12.5-37.5,29.3-43.7c6-2.2,7.2,0.6,12.8-2.5c13.6-7.6,13.2-30.9,39.1-48.7
				c32.1-22.1,53.9,6.6,53.9,6.6s6.1-2,13.8-2c8.7,0,19.3,2.6,25,13.8c7.2,14.2,17.1,15.3,26.4,16.6L527.8,112.8z M370.8,354.5
				c-1.2,0.9-2.4,1.8-3.6,2.7C368.4,356.3,369.6,355.3,370.8,354.5z M361.2,430.4l0.5-0.7h-0.5V430.4z M358,372.8
				c0-0.1,0.1-0.3,0.1-0.4c0-0.1,0-0.1,0.1-0.2c0,0.1,0,0.1-0.1,0.2C358.1,372.5,358,372.6,358,372.8z M357.1,287.6
				c-0.7,2.2-2,4.4-2.9,5.9C355.3,292,356.5,290.2,357.1,287.6z M331.5,326.9c9.8-13.3,13.2-17.6,17.7-24.6c3-4.7,2.9-5,3.6-6.3
				c-2.3,3.7-5.1,8-8,12.2C339.8,315.4,334.7,322.5,331.5,326.9z M361.2,429.7v0.7l0.5-0.7H361.2z"/>
			<path class="st1" d="M620.6,466.1c-0.7,0.8-1.7,1.4-2.7,1.7l-1.7,0.5L610,470l-5.7,1.6l-0.3,0.1l-10.9,3.1l-1.8,0.5l-5.7,1.6
				l-13,3.7l-5.7,1.6l-10.4,3l-2.6,0.7l-4,1.1l-1.7,0.5l-13.1,3.7l-1.3,0.4c-3.3-10.5-10-30.1-15.3-28.5c-7.1,2-0.4,25.8-0.4,25.8
				l5.6,5.6c-2.4-2.3-4.8-4.7-7.2-7c-0.8-0.8-1.6-1.6-2.4-2.4c-4.8-4.7-9.7-9.4-14.5-14.1c-0.3-0.1-0.5-0.3-0.8-0.5
				c-0.2-0.1-0.4-0.2-0.6-0.3c-1.2-0.7-2.7-1.5-4.4-2.4c0,0,0,0,0,0c-0.4-0.2-0.7-0.4-1.2-0.6c-0.1-0.1-0.3-0.2-0.4-0.2
				c-0.1,0-0.1-0.1-0.2-0.1c-0.3-0.2-0.7-0.4-1.1-0.6c-0.3-0.1-0.6-0.3-0.8-0.4c-0.7-0.4-1.4-0.7-2.2-1.1c-0.3-0.2-0.6-0.3-0.9-0.5
				c-0.6-0.3-1.2-0.6-1.9-0.9c-0.2-0.1-0.5-0.2-0.7-0.4c-1.2-0.6-2.4-1.2-3.7-1.8c-0.3-0.1-0.5-0.2-0.8-0.4c-2.1-1-4.3-2-6.5-3
				c-0.4-0.2-0.8-0.4-1.3-0.6c-0.4-0.2-0.7-0.3-1-0.5c-1.7-0.7-3.4-1.4-5-2c-0.4-0.2-0.8-0.3-1.2-0.4c-0.4-0.1-0.8-0.3-1.2-0.4
				c-0.9-0.3-1.7-0.6-2.5-0.9c-0.3-0.1-0.5-0.2-0.8-0.3c-0.2-0.1-0.4-0.1-0.6-0.2c-0.6-0.2-1.3-0.4-1.9-0.5
				c-0.2-0.1-0.4-0.1-0.6-0.2c-0.2,0-0.4-0.1-0.5-0.1c-0.2,0-0.4-0.1-0.5-0.1c-0.2,0-0.4-0.1-0.6-0.1c-0.3-0.1-0.7-0.1-1-0.2
				c-0.2,0-0.4-0.1-0.6-0.1c0,0-0.1,0-0.1,0c-0.6-0.1-1.1-0.1-1.7-0.2c-0.6,0-1.2,0-1.8,0c-0.1,0-0.2,0-0.4,0c-0.1,0-0.3,0-0.4,0.1
				c-0.1,0-0.2,0-0.3,0.1c-0.1,0-0.2,0-0.3,0.1c-0.1,0-0.2,0.1-0.3,0.1c-0.1,0-0.1,0-0.2,0.1c-0.1,0-0.1,0.1-0.2,0.1
				c-0.1,0-0.2,0.1-0.3,0.2c-0.1,0-0.1,0.1-0.2,0.1c-0.1,0-0.1,0.1-0.2,0.1c-0.1,0-0.1,0.1-0.1,0.1c-0.1,0.1-0.2,0.2-0.3,0.3
				c-1.1,1.4-0.6,3.7-0.5,4.1c0,0,0,0,0,0.1c0,0.1,0.1,0.3,0.1,0.4c0,0.1,0.1,0.2,0.1,0.3c0,0,0,0.1,0.1,0.2c0,0.1,0.1,0.2,0.1,0.3
				c0,0.1,0.1,0.2,0.2,0.3c0.1,0.1,0.2,0.2,0.3,0.4c0,0.1,0.1,0.1,0.1,0.2c0,0.1,0.1,0.1,0.1,0.2c0.1,0.1,0.2,0.2,0.3,0.4
				c0.1,0.1,0.2,0.2,0.3,0.3c0,0,0,0,0,0c0.1,0.1,0.2,0.2,0.3,0.3c0,0,0.1,0.1,0.1,0.1c0.1,0.1,0.3,0.2,0.4,0.3
				c0.2,0.1,0.4,0.3,0.6,0.4c0.3,0.2,0.5,0.4,0.8,0.5c0.3,0.2,0.5,0.3,0.8,0.5c0,0,0,0,0.1,0c0.3,0.2,0.5,0.3,0.8,0.4
				c0.3,0.1,0.5,0.3,0.8,0.4c0.1,0.1,0.3,0.1,0.5,0.2c0.2,0.1,0.5,0.2,0.7,0.3c0.4,0.2,0.7,0.3,1,0.4c0.1,0,0.2,0.1,0.3,0.1
				c0.1,0,0.3,0.1,0.4,0.1c0.1,0,0.1,0.1,0.2,0.1c0,0,0.1,0,0.1,0c0,0,0.1,0,0.1,0c0,0,0,0,0,0c0,0,0,0,0,0c1.1,0.4,2.3,0.8,3.6,1.4
				c0.5,0.2,1.1,0.5,1.6,0.7c4,1.8,9.1,4.6,15.6,8.8c-1.5-0.5-2.9-1-4.3-1.5c-0.9-0.3-1.9-0.6-2.8-0.8c-0.3-0.1-0.5-0.1-0.8-0.2
				c-1.1-0.3-2.2-0.6-3.3-0.9c-0.5-0.1-0.9-0.2-1.4-0.3c-1.1-0.3-2.2-0.5-3.2-0.8c-0.3-0.1-0.7-0.1-1-0.2c-0.2,0-0.4-0.1-0.6-0.1
				c-0.7-0.1-1.4-0.3-2.2-0.5c-1.1-0.2-2.2-0.5-3.5-0.7c-1.8-0.3-3.7-0.6-5.6-0.9c-0.5-0.1-1-0.1-1.6-0.2c-0.7-0.1-1.4-0.2-2.2-0.2
				c-0.4,0-0.9-0.1-1.3-0.1c-0.4,0-0.7,0-1.1,0c-0.4,0-0.8,0-1.2,0c-0.1,0-0.3,0-0.4,0c-0.2,0-0.3,0-0.5,0c-0.1,0-0.3,0-0.5,0
				c-0.3,0-0.7,0-1,0.1c-0.3,0-0.5,0-0.8,0.1c-0.2,0-0.4,0-0.5,0.1c-0.3,0-0.7,0.1-1,0.2c-0.2,0-0.4,0.1-0.6,0.1
				c-0.2,0-0.4,0.1-0.6,0.2c-0.2,0-0.3,0.1-0.4,0.2c-0.1,0-0.1,0.1-0.2,0.1c-0.1,0-0.2,0.1-0.3,0.1c-0.1,0-0.1,0.1-0.2,0.1
				c-0.2,0.1-0.4,0.2-0.6,0.4l-0.1,0.1c-0.1,0-0.1,0.1-0.2,0.1c-0.1,0-0.1,0.1-0.2,0.2c0,0,0,0,0,0c-0.1,0-0.1,0.1-0.2,0.2
				c0,0-0.1,0-0.1,0.1c-0.1,0.1-0.2,0.2-0.3,0.4c-0.1,0.1-0.2,0.3-0.2,0.4c-1,2,0.2,4.5,0.4,4.8c0.1,0.1,0.1,0.2,0.2,0.3
				c0.1,0.1,0.1,0.2,0.2,0.3c0.1,0.1,0.2,0.3,0.3,0.4c0.1,0.2,0.2,0.3,0.4,0.5c0,0,0,0,0,0c0.1,0.1,0.1,0.1,0.2,0.2
				c0.2,0.2,0.4,0.4,0.5,0.5c0.1,0.1,0.2,0.2,0.3,0.3c0.2,0.2,0.4,0.3,0.6,0.4c0.2,0.1,0.4,0.3,0.6,0.4c0,0,0,0,0.1,0
				c0.1,0,0.1,0.1,0.2,0.1c0,0,0,0,0.1,0c0.2,0.1,0.4,0.2,0.6,0.3c0.2,0.1,0.4,0.2,0.6,0.3c0.1,0,0.2,0.1,0.3,0.1
				c0.1,0.1,0.3,0.1,0.4,0.2c0.1,0.1,0.3,0.1,0.4,0.2c0.4,0.1,0.9,0.3,1.3,0.4c0.2,0,0.4,0.1,0.5,0.1c0.3,0.1,0.5,0.1,0.7,0.2
				c0.3,0.1,0.5,0.1,0.8,0.2c0.2,0,0.4,0.1,0.6,0.1c0,0,0.1,0,0.1,0c0.3,0,0.5,0.1,0.8,0.1c0.2,0,0.3,0,0.5,0.1
				c0.7,0.1,1.4,0.1,1.9,0.2c0.2,0,0.4,0,0.5,0c0.2,0,0.5,0,0.6,0c2,0.1,4.3,0.5,7,1c0.3,0.1,0.7,0.1,1,0.2c0.3,0.1,0.7,0.2,1,0.2
				c0.3,0.1,0.6,0.1,0.9,0.2c0.8,0.2,1.6,0.4,2.4,0.6c0.2,0,0.3,0.1,0.5,0.1c0.1,0,0.3,0.1,0.4,0.1c1.2,0.3,2.4,0.7,3.7,1.2
				c0.2,0.1,0.4,0.2,0.7,0.2c0.5,0.2,1,0.4,1.5,0.5c0.2,0.1,0.4,0.1,0.6,0.2c1.1,0.4,2.1,0.8,3.3,1.3h0c0,0,0,0,0,0
				c0.9,0.3,1.7,0.7,2.6,1.1c0.3,0.1,0.6,0.2,0.8,0.4c0,0,0,0,0.1,0c0.6,0.3,1.2,0.5,1.8,0.8c0.8,0.3,1.6,0.7,2.4,1.1
				c0.3,0.2,0.7,0.3,1,0.5c0.9,0.4,1.8,0.8,2.7,1.3c0.5,0.2,0.9,0.4,1.4,0.7c0.5,0.2,0.9,0.5,1.4,0.7c0.2,0.1,0.3,0.2,0.5,0.3
				c1.3,0.7,2.7,1.4,4.1,2.1c-0.5-0.2-1-0.3-1.6-0.4c-0.6-0.2-1.2-0.3-1.8-0.5c-0.4-0.1-0.8-0.2-1.2-0.3c-0.4-0.1-0.8-0.2-1.2-0.3
				c-0.4-0.1-0.9-0.2-1.3-0.4c-0.6-0.2-1.1-0.3-1.7-0.5c-0.3-0.1-0.6-0.2-0.9-0.3c-1.3-0.4-2.6-0.7-3.8-1c-0.6-0.2-1.3-0.3-1.9-0.5
				c-0.3-0.1-0.6-0.2-0.9-0.2c-4-1-7.6-1.9-10.9-2.6c-0.7-0.2-1.3-0.3-2-0.4c-2.1-0.4-4-0.8-5.7-1.1c-0.6-0.1-1.2-0.2-1.7-0.3
				c-0.2,0-0.4-0.1-0.5-0.1c-0.4-0.1-0.9-0.1-1.3-0.2c-0.7-0.1-1.4-0.2-2-0.3c-0.5-0.1-1-0.1-1.5-0.2c-0.3,0-0.5-0.1-0.7-0.1
				c-0.5-0.1-0.9-0.1-1.4-0.1c-0.2,0-0.4,0-0.7-0.1c-0.2,0-0.4,0-0.6-0.1c-0.9-0.1-1.7-0.1-2.5-0.1c0,0-0.1,0-0.1,0
				c-0.2,0-0.3,0-0.5,0c-0.3,0-0.7,0-1,0c-0.1,0-0.3,0-0.4,0c-0.2,0-0.4,0-0.6,0c-0.4,0-0.8,0-1.1,0.1c-0.2,0-0.3,0-0.5,0.1
				c-0.1,0-0.2,0-0.4,0c-0.2,0-0.3,0.1-0.5,0.1c-0.1,0-0.2,0-0.3,0.1c-0.2,0-0.3,0.1-0.5,0.1c0,0-0.1,0-0.1,0c-0.1,0-0.1,0-0.2,0.1
				c-0.1,0-0.2,0.1-0.3,0.1c-0.1,0-0.2,0.1-0.3,0.1c-0.1,0-0.2,0.1-0.3,0.1c-0.1,0-0.2,0.1-0.3,0.2c-0.1,0.1-0.2,0.1-0.3,0.2
				c0,0-0.1,0.1-0.1,0.1c0,0-0.1,0.1-0.1,0.1c0,0-0.1,0.1-0.1,0.1c0,0-0.1,0.1-0.1,0.1c0,0-0.1,0.1-0.1,0.1
				c-0.1,0.2-0.2,0.3-0.3,0.5c-0.2,0.4-1.2,2.8-0.3,5.1c0.1,0.1,0.1,0.3,0.2,0.4c0,0,0,0.1,0,0.1c0.1,0.1,0.1,0.2,0.2,0.3
				c0,0,0,0,0,0c0,0.1,0.1,0.1,0.1,0.2c0.2,0.2,0.3,0.4,0.5,0.6c0,0,0.1,0.1,0.2,0.1c0.1,0.1,0.2,0.2,0.4,0.3
				c0.1,0.1,0.2,0.1,0.3,0.2c0,0,0,0,0,0c0.1,0.1,0.2,0.1,0.2,0.2c0.3,0.2,0.5,0.3,0.8,0.5c0.2,0.1,0.4,0.2,0.6,0.3
				c0.2,0.1,0.5,0.2,0.7,0.3c0.2,0.1,0.5,0.2,0.7,0.2c0.2,0.1,0.4,0.1,0.6,0.2c0.9,0.2,1.8,0.4,2.6,0.6c0,0,0.1,0,0.2,0
				c0,0,0.1,0,0.1,0c0,0,0,0,0.1,0c0,0,0.1,0,0.1,0c0,0,0,0,0,0c0.1,0,0.2,0,0.4,0.1c0.2,0,0.4,0.1,0.6,0.1c0.2,0,0.5,0.1,0.7,0.1
				c0.2,0,0.5,0.1,0.8,0.2c0,0,0,0,0,0c0,0,0.1,0,0.1,0c0.1,0,0.3,0.1,0.4,0.1c0.2,0,0.3,0.1,0.5,0.1c0.1,0,0.3,0.1,0.4,0.1
				c0.3,0.1,0.6,0.1,1,0.2c0,0,0,0,0,0c0.5,0.1,1.1,0.2,1.7,0.4c0,0,0.1,0,0.1,0c0.4,0.1,0.8,0.2,1.2,0.2c0,0,0.1,0,0.1,0
				c0.4,0.1,0.8,0.2,1.2,0.2c1.1,0.2,2.3,0.5,3.6,0.8c1.6,0.3,3.3,0.7,5.2,1.1c0.2,0,0.4,0.1,0.6,0.1c0.5,0.1,0.9,0.2,1.4,0.3
				c0.5,0.1,1,0.2,1.5,0.3c1.5,0.3,3.1,0.7,4.8,1.1c1.7,0.4,3.4,0.8,5.1,1.2c0.1,0,0.2,0,0.3,0.1c0.3,0.1,0.5,0.1,0.8,0.2
				c0.3,0.1,0.5,0.1,0.8,0.2c0.7,0.2,1.3,0.3,2,0.5c0.4,0.1,0.7,0.2,1,0.3c1.1,0.3,2,0.5,2.8,0.8c0.2,0,0.3,0.1,0.5,0.1
				c-0.9,0-1.9,0-2.8,0c-0.6,0-1.2,0-1.7,0c-1.1,0-2.2,0.1-3.3,0.1c-0.4,0-0.7,0-1.1,0.1c-0.9,0-1.7,0.1-2.5,0.2
				c-0.4,0-0.8,0.1-1.3,0.1c-0.9,0.1-1.8,0.2-2.7,0.3c-1.2,0.1-2.3,0.2-3.3,0.4c-0.3,0-0.7,0.1-1,0.1c-1.4,0.2-2.7,0.4-3.8,0.6
				c0,0-0.1,0-0.1,0c-0.1,0-0.1,0-0.2,0c-0.1,0-0.2,0-0.3,0.1c-0.1,0-0.2,0-0.4,0.1c-0.1,0-0.3,0.1-0.5,0.1c-0.2,0-0.5,0.1-0.7,0.2
				c-0.3,0.1-0.6,0.1-0.9,0.2c-1,0.2-2.2,0.5-3.5,0.9c-0.4,0.1-0.9,0.2-1.3,0.4c0,0,0,0,0,0c-0.2,0.1-0.4,0.1-0.6,0.2
				c-0.4,0.1-0.9,0.3-1.3,0.4c-0.4,0.1-0.9,0.3-1.3,0.4c-0.2,0.1-0.4,0.2-0.6,0.2c-0.3,0.1-0.6,0.2-0.9,0.3
				c-0.3,0.1-0.6,0.2-0.8,0.3c-0.3,0.1-0.6,0.2-0.8,0.4c-0.2,0.1-0.4,0.2-0.5,0.2c-0.2,0.1-0.4,0.2-0.6,0.3
				c-0.7,0.3-1.3,0.7-1.8,1.1c-0.2,0.1-0.4,0.3-0.6,0.4c-0.2,0.1-0.4,0.3-0.6,0.5c-0.1,0.1-0.2,0.2-0.3,0.3
				c-0.1,0.1-0.2,0.2-0.3,0.3c-0.1,0.1-0.1,0.2-0.2,0.2c-0.1,0.1-0.2,0.2-0.2,0.3c-0.1,0.1-0.1,0.2-0.2,0.3
				c-0.1,0.1-0.1,0.2-0.2,0.3c-0.1,0.2-0.2,0.4-0.3,0.6c-0.1,0.3-0.4,1.1-0.3,1.9l-1.2,0.3l-13.1,3.7l-0.7,0.2l-5,1.4l-1.6,0.5
				l-11.3,3.2l-5.7,1.6l-13,3.7l-5.7,1.6h0c-3.3,0.9-6.7-1-7.6-4.4l-1.6-5.8l-0.5-1.9l-3.3-12l-1.4-5.2l-0.5-1.9l-3.8-14l-0.9-3.3
				l-0.5-1.9l-4.7-17.2l-0.5-1.9l-4.7-17.3l-0.4-1.4c3.5-5.5,7.4-11.3,11.7-17.1l0.5-0.7c4.6-6.3,9.7-12.7,15.2-19.1
				c1-1.1,2-2.3,3-3.4c4.7-5.3,9.8-10.6,15.1-15.7c1.2-1.1,2.3-2.2,3.5-3.3c5.9-5.4,12.1-10.7,18.7-15.7c0.1,0,0.1-0.1,0.2-0.1
				c5.9-4.4,12-8.6,18.5-12.6c3.7-2.3,7.6-4.5,11.5-6.5c0.9-0.5,1.7-0.9,2.6-1.3c7.4-3.8,15.2-7.2,23.4-10.2
				c0.3-9.7,0.5-19.4,0.8-29.2c-3.7-2-9.1-5.5-14-11.6c-8.6-10.6-10.2-22.2-10.5-27c12.3-8.1,18.7-16.7,22.3-22.9
				c5.7-10.1,8.2-21.2,14.7-23.9c2,3.1,4.3,6.4,7.1,9.8c10.2,12.4,21.5,19.8,29.5,24.1c0.8-0.6,2.8-1.9,5.6-1.9c0.1,0,2.6,0,4.9,1.3
				c4.2,2.4,6.4,8.5,5.6,13.8c-1,7-7.2,12.6-13.2,12.8c-1.6,0.1-2.9-0.3-3.9-0.6c-0.6,7.1-1.1,14.5-1.4,22.1
				c-0.4,7.6-0.5,15-0.6,22.2c22.5-2.7,45.2-1.8,67.4,1.9l0.7,2.5l3.1,11.5l1.3,4.7l0.4,1.6l4.8,17.5l0.5,1.9l0.5,2l4.1,15.2
				l0.5,1.9l0.8,2.8l3.9,14.4l0.5,1.7l1.3,4.9l3.4,12.5l0.5,1.7l4.7,17.4l0.5,1.9l3,11.1C622.7,462.2,622.1,464.5,620.6,466.1z"/>
			<path d="M377.6,149.6C377.5,149.6,377.5,149.6,377.6,149.6c-0.4,0-0.6-0.3-0.6-0.7l6.9-68c0-0.2,0.2-0.4,0.4-0.5
				c0.2-0.1,0.5,0,0.6,0.2l46.3,52.8c0.2,0.2,0.2,0.6,0,0.8c-0.2,0.2-0.6,0.2-0.8,0l-45.5-51.8l-6.8,66.7
				C378.1,149.4,377.9,149.6,377.6,149.6z"/>
			<ellipse cx="385" cy="82.5" rx="3.4" ry="3.5"/>
		</g>
		<g id="head_2_">
			<path id="hair_2_" d="M587.5,332.5c-22.1-3.7-44.8-4.6-67.4-1.9c0.1-7.1,0.3-14.5,0.6-22.2c0.4-7.6,0.8-15,1.4-22.1
				c1,0.4,2.3,0.7,3.9,0.6c6-0.2,12.2-5.8,13.2-12.8c0.8-5.3-1.5-11.4-5.6-13.8c-2.3-1.3-4.7-1.3-4.9-1.3c-2.8,0-4.8,1.4-5.6,1.9
				c-8-4.3-19.3-11.6-29.5-24.1c-2.7-3.3-5.1-6.6-7.1-9.8c-6.6,2.7-9,13.8-14.7,23.9c-3.6,6.3-10,14.9-22.3,22.9
				c0.4,4.7,1.9,16.3,10.5,27c4.9,6,10.3,9.6,14,11.6c-0.3,9.7-0.5,19.4-0.8,29.2c-8.2,3-16,6.4-23.4,10.2c-0.9,0.4-1.7,0.9-2.6,1.3
				c-3.9,2.1-7.8,4.3-11.5,6.5c-6.5,3.9-12.6,8.2-18.5,12.6c-0.1,0-0.1,0.1-0.2,0.1c-6.6,5-12.8,10.2-18.7,15.7
				c-1.2,1.1-2.4,2.2-3.5,3.3c-5.4,5.1-10.4,10.4-15.1,15.7c-1,1.1-2,2.3-3,3.4c-5.5,6.4-10.6,12.8-15.2,19.1h-0.5v0.7
				c-4.2,5.8-8.1,11.6-11.7,17.1l-11.6-42.8c0.9-0.8,1.8-1.6,2.7-2.4c0.3-0.3,0.6-0.5,0.8-0.8c1.8-1.8,3.3-3.7,4.6-5.5
				c0.3-0.4,0.5-0.7,0.8-1.1c0.3-0.4,0.5-0.7,0.7-1.1c0.2-0.4,0.5-0.7,0.7-1.1c0.7-1.1,1.4-2.2,2-3.2c0.4-0.6,0.7-1.2,1-1.8
				c0.8-1.3,1.4-2.6,2.1-3.8c0.2-0.4,0.4-0.8,0.6-1.2c1.2-2.4,2.2-4.9,3-7.2c0.1-0.3,0.2-0.6,0.3-0.9c0.1-0.3,0.2-0.5,0.3-0.8
				c0.1-0.4,0.2-0.7,0.4-1.1c0-0.1,0.1-0.3,0.1-0.4c0-0.1,0-0.1,0.1-0.2c0-0.1,0.1-0.2,0.1-0.2c0.1-0.3,0.2-0.7,0.3-1
				c0.3-0.9,0.5-1.8,0.7-2.7c0.1-0.3,0.2-0.6,0.2-0.9c0-0.1,0.1-0.3,0.1-0.4c0.1-0.3,0.1-0.5,0.2-0.8c0-0.1,0.1-0.2,0.1-0.4
				c0.1-0.3,0.1-0.6,0.2-0.9c0.1-0.4,0.2-0.8,0.3-1.3c0.1-0.5,0.2-1.1,0.3-1.6c2.3-1.7,4.5-3.3,6.5-4.8c1.3-0.9,2.5-1.9,3.6-2.7
				c2-1.5,3.9-3,5.7-4.4c0.6-0.5,1.2-0.9,1.7-1.3c0.5-0.4,1-0.8,1.4-1.1c3-2.3,5.4-4.3,7.2-5.9c2.2-1.9,6.4-5.6,5.7-9.5
				c-0.2-1.1-0.7-2.3-1.4-2.9c-0.6-0.5-1.4-0.7-2.4-0.7c-0.2,0-0.5,0-0.7,0c0,0,0,0-0.1,0c-0.3,0-0.5,0.1-0.8,0.1
				c-0.1,0-0.3,0.1-0.4,0.1c-0.1,0-0.3,0.1-0.5,0.1c-0.5,0.1-0.9,0.3-1.5,0.4c-1.3,0.5-2.8,1.1-4.4,1.9c-0.4,0.2-0.8,0.4-1.2,0.6
				c0,0,0,0,0,0c-0.4,0.2-0.8,0.4-1.2,0.7c-0.4,0.2-0.8,0.5-1.3,0.7c-0.4,0.2-0.9,0.5-1.3,0.7c-0.3,0.2-0.7,0.4-1,0.6
				c-1.9,1.1-3.8,2.4-5.8,3.7c-0.5,0.3-0.9,0.6-1.4,0.9c-0.2,0.1-0.4,0.2-0.5,0.4c-0.3,0.2-0.6,0.4-0.8,0.6
				c-0.4,0.2-0.7,0.5-1.1,0.8c-0.3,0.2-0.7,0.5-1,0.7c-1.2,0.8-2.3,1.6-3.4,2.4c-0.4,0.3-0.9,0.7-1.3,1c-0.4,0.3-0.9,0.6-1.3,1
				c-2.8,2.1-5.4,4.1-7.7,5.9l-0.2-0.2c0.1-0.1,0.5-0.4,1.1-0.9c0.2-0.1,0.3-0.3,0.5-0.5c0.1-0.1,0.3-0.2,0.4-0.4
				c1.7-1.4,4.3-3.7,7.3-6.3c0.3-0.3,0.6-0.5,0.9-0.8c3.9-3.4,8.4-7.4,12.7-11.3c0.2-0.2,0.4-0.4,0.7-0.6c0.2-0.2,0.4-0.4,0.6-0.6
				c0.3-0.2,0.5-0.5,0.8-0.7c0.3-0.3,0.6-0.5,0.9-0.8c0.9-0.9,1.8-1.7,2.7-2.5c0.4-0.4,0.8-0.7,1.2-1.1c0.3-0.3,0.6-0.5,0.8-0.8
				c0.2-0.2,0.4-0.4,0.6-0.6c0.3-0.3,0.6-0.6,0.9-0.9c0.3-0.3,0.6-0.6,0.8-0.8c0.5-0.5,1.1-1.2,1.8-1.9c0.1-0.1,0.2-0.3,0.4-0.4
				c0.1-0.1,0.1-0.2,0.2-0.3c0.1-0.2,0.3-0.4,0.4-0.6c0,0,0.1-0.1,0.1-0.1c0.1-0.1,0.2-0.2,0.3-0.3c0.1-0.2,0.3-0.4,0.4-0.6
				c0.1-0.1,0.2-0.3,0.3-0.4c0-0.1,0.1-0.1,0.1-0.2c0.1-0.1,0.2-0.3,0.3-0.4c0,0,0.1-0.1,0.1-0.1c0.1-0.2,0.2-0.3,0.3-0.5
				c0.1-0.1,0.1-0.2,0.1-0.3c0.1-0.1,0.1-0.2,0.1-0.4c0-0.1,0.1-0.2,0.1-0.3c0-0.1,0.1-0.2,0.1-0.2c0.1-0.4,0.2-0.8,0.3-1.2
				c0-0.1,0-0.2,0-0.3c0-0.1,0-0.2,0-0.3c0-0.1,0-0.2,0-0.3c0-0.3,0-0.6-0.1-0.9c0,0,0-0.1,0-0.1c0-0.1,0-0.2-0.1-0.3
				c-0.4-1.6-1.4-2.7-1.7-2.9c-0.1-0.1-0.2-0.2-0.4-0.2c-0.1,0-0.1-0.1-0.2-0.1c-0.3-0.1-0.5-0.1-0.9-0.1c-0.1,0-0.3,0-0.4,0
				c-0.1,0-0.2,0-0.3,0c-0.1,0-0.2,0-0.4,0.1c-0.1,0-0.2,0-0.3,0.1c-0.2,0-0.4,0.1-0.6,0.1h0c-0.2,0.1-0.4,0.1-0.6,0.2
				c-0.1,0-0.2,0.1-0.3,0.1c-0.2,0.1-0.5,0.2-0.7,0.3c-2.3,1-5.5,2.8-9.9,5.8c-0.6,0.4-1.2,0.9-1.9,1.3c-0.2,0.2-0.5,0.4-0.7,0.5
				c-0.3,0.2-0.5,0.4-0.8,0.6c-0.8,0.6-1.6,1.2-2.4,1.8c-0.3,0.2-0.6,0.4-0.8,0.6c-0.3,0.2-0.6,0.4-0.9,0.7c-0.3,0.2-0.6,0.5-1,0.7
				c-0.3,0.3-0.7,0.5-1.1,0.8c-0.3,0.2-0.6,0.4-0.8,0.7c-0.1,0.1-0.2,0.2-0.3,0.2c-0.5,0.4-1,0.8-1.5,1.2c-0.7,0.5-1.3,1.1-2,1.6
				c-0.5,0.4-0.9,0.8-1.4,1.2c-1.7,1.4-3.6,2.9-5.5,4.6c-0.3,0.2-0.6,0.5-0.9,0.7c-3.2,2.7-6.7,5.7-10.4,8.9
				c16.9-16.2,29.8-29.1,36.1-35.8c2-2.1,6-6.4,4.8-10c0,0-0.6-2-3.1-3.2c-6.7-3.5-32.7,22.5-48.2,38.7c0.1-0.1,0.1-0.2,0.2-0.3
				c0.1-0.1,0.2-0.3,0.3-0.4c0.2-0.3,0.5-0.6,0.8-1c0.2-0.3,0.4-0.5,0.6-0.8c0.3-0.5,0.6-0.9,1-1.3c9.8-13.3,13.2-17.6,17.7-24.6
				c3-4.7,2.9-5,3.6-6.3c0.5-0.9,1.1-1.7,1.5-2.5c1-1.6,2.3-3.3,2.9-5.9c0.5-1.6,0.8-3.3,0.4-4.6v0c4.3-17.1,12.5-37.5,29.3-43.7
				c6-2.2,7.2,0.6,12.8-2.5c13.6-7.6,13.2-30.9,39.1-48.7c32.1-22.1,53.9,6.6,53.9,6.6s6.1-2,13.8-2c8.7,0,19.3,2.6,25,13.8
				c7.2,14.2,17.1,15.3,26.4,16.6L587.5,332.5z"/>
			<path d="M472.8,311.6c0.1,0,0.2,0.1,0.3,0.1c4.6,2,8.8,1.4,11.2,1.1c8.2-1.1,16.7-6.9,17.7-7.6c-1.5,2.6-4.1,6.4-8.5,9.6
				c-8.5,6.2-17.6,5.9-20.5,5.7C473,317.5,472.9,314.5,472.8,311.6z"/>
			<path d="M519.7,265.7c-0.1,0-0.2,0-0.3-0.1c-0.3-0.1-0.4-0.5-0.2-0.8c0.9-1.9,2.3-3.4,3.9-4.5c0.8-0.5,1.6-1,2.5-1.3
				c0.3-0.1,0.6,0,0.7,0.4c0.1,0.3,0,0.6-0.3,0.8c-0.8,0.3-1.5,0.7-2.2,1.1c-1.5,1-2.7,2.4-3.5,4.1
				C520.1,265.6,519.9,265.7,519.7,265.7z"/>
		</g>
		<g id="hand_l_2_">
			<path d="M326.1,309.5l-0.4,0.6c0,0-0.1,0.1-0.1,0.1c-1.6,1.9-2.7,3.5-3.4,4.7c-0.5,0.8-0.8,1.5-2.2,3.9c-0.6,1-1,1.8-1.4,2.3
				c-0.7,1.4-1.5,2.8-2.2,4.2l-1-3.8l-3.6-13.3c0,0,2.3-13.4,8.1-13.2C325.6,295.2,326.1,309.5,326.1,309.5z"/>
			<path d="M301.3,368.3c0,0-0.1,0-0.1,0c-0.3-0.1-0.5-0.4-0.4-0.7l10.4-59.4c0.1-0.3,0.4-0.5,0.7-0.5c0.3,0.1,0.5,0.4,0.5,0.7
				l-9.2,52.7l12.8-35.9c0.1-0.3,0.4-0.5,0.7-0.4c0.3,0.1,0.5,0.4,0.3,0.8l-15,42.3C301.8,368.1,301.6,368.3,301.3,368.3z"/>
			<path d="M328.6,331.4c-0.1,0-0.2,0-0.3-0.1c-0.3-0.2-0.3-0.6-0.1-0.8c7.5-10.2,12.9-17.9,16-22.5c4.1-5.9,7.3-10.9,9.6-14.7
				c1.4-2.4,4.7-8,2.8-10.8c0,0-0.7-1-2.2-1.5c-2-0.6-8.3,2.4-28.3,29.5c-0.2,0.3-0.6,0.3-0.8,0.1c-0.3-0.2-0.3-0.6-0.1-0.8
				c15.8-21.5,25.4-31.3,29.5-30c1.9,0.6,2.8,1.9,2.8,2c2.3,3.5-1.3,9.5-2.8,12.1c-2.3,3.9-5.5,8.8-9.6,14.8
				c-3.2,4.6-8.5,12.3-16,22.5C329,331.3,328.8,331.4,328.6,331.4z"/>
			<path d="M337.3,405.8c-0.2,0-0.3-0.1-0.4-0.2c-0.2-0.3-0.2-0.6,0.1-0.8l0.7-0.6c6.8-5.7,10.7-12.4,13.2-16.8
				c4.5-7.8,7.6-16.4,9.2-25.5c0-0.2,0.1-0.3,0.2-0.4c5.9-4.4,11.3-8.4,15.9-11.9c4.3-3.3,7.9-6.2,10.3-8.3c1.8-1.6,6.1-5.3,5.5-9
				c-0.2-1-0.7-2-1.2-2.5c-1.6-1.4-8.8-2.1-40.4,22.5c-0.2,0.2-0.5,0.2-0.7,0l-0.2-0.2c-0.2-0.2-0.2-0.6,0-0.8
				c0.2-0.2,0.4-0.2,0.6-0.1c16.3-12.7,36.5-26.7,41.5-22.2c0.8,0.7,1.4,2,1.6,3.2c0.7,4.4-4,8.4-5.9,10.1c-2.5,2.1-6.1,5-10.4,8.4
				c-4.5,3.5-9.8,7.5-15.7,11.8c-1.6,9.2-4.7,17.8-9.3,25.7c-2.6,4.5-6.5,11.2-13.5,17.1l-0.7,0.6
				C337.5,405.8,337.4,405.8,337.3,405.8z"/>
			<path d="M349.8,352.2c-0.2,0-0.3-0.1-0.4-0.2c-0.2-0.3-0.2-0.6,0.1-0.8c2.4-2,23.1-19.7,32.9-29.6c1.8-1.8,6-6,5.1-9.9
				c-0.4-1.6-1.5-2.6-1.5-2.6c-1.8-1.5-10.2,0.6-46.6,32.4c-0.2,0.2-0.6,0.2-0.8-0.1c-0.2-0.2-0.2-0.6,0.1-0.8
				c38.2-33.3,45.7-34.4,48.1-32.4c0.1,0,1.4,1.2,1.9,3.2c1.1,4.5-3.5,9-5.4,11c-9.6,9.7-29.1,26.4-32.9,29.6
				C350.1,352.2,350,352.2,349.8,352.2z"/>
			<path d="M338.9,341.7c-0.1,0-0.3-0.1-0.4-0.2c-0.2-0.2-0.2-0.6,0-0.8c0,0,0.1-0.1,0.1-0.1c18.1-17.4,30.5-29.8,36-35.7
				c1.7-1.8,5.8-6.1,4.7-9.4c0-0.1-0.6-1.7-2.8-2.9c-2.7-1.4-12.4,1.8-47.5,38.6c-0.2,0.2-0.6,0.2-0.8,0c-0.2-0.2-0.2-0.6,0-0.8
				c27.1-28.5,43.6-41.5,48.9-38.8c2.6,1.4,3.3,3.5,3.4,3.6c1.3,4-3.1,8.6-5,10.6c-5.5,5.9-17.9,18.3-36.1,35.8
				C339.2,341.6,339.1,341.7,338.9,341.7z"/>
			<polygon points="316.4,325.3 301.3,367.7 306.5,338 315.8,323.1 			"/>
			<path d="M316.4,325.9c-0.1,0-0.2,0-0.3-0.1c-0.3-0.2-0.4-0.5-0.2-0.8c0.9-1.8,1.9-3.6,2.9-5.4c1.9-3.4,4.1-6.7,6.4-9.8
				c0.2-0.3,0.5-0.3,0.8-0.1c0.3,0.2,0.3,0.6,0.1,0.8c-2.2,3.1-4.4,6.4-6.3,9.7c-1,1.7-2,3.5-2.9,5.3
				C316.8,325.8,316.6,325.9,316.4,325.9z"/>
		</g>
		<g id="hand_r_2_">
			<path d="M514.2,549.1c-0.1,0-0.1,0-0.2,0c-2.3-0.7-4.6-1.5-6.8-2.5c-1-0.5-2.1-1-3.2-1.5c-1.9-1-3.8-2.2-5.7-3.5
				c-9.5-6.7-15.1-15.2-18-21.3c-4.3-0.9-8.7-1.3-13-1.2c-2.9,0.1-5.9,0.4-8.7,1c-0.4,0.1-11.6,3.4-17.9,2.6
				c-1.7-0.2-2.9-0.8-3.5-1.9c-0.3-0.5-0.4-1-0.5-1.6c0-0.9,0.2-1.8,0.3-2.1c1.9-5.8,18.7-8.9,20.6-9.2c7.7-1.3,15.6-1.9,23.6-1.8
				c0.3,0,0.6,0.3,0.6,0.6c0,0.3-0.3,0.6-0.6,0.6h0c-7.9-0.1-15.8,0.5-23.4,1.8c-6.2,1.1-18.4,4.2-19.7,8.4c-0.1,0.3-0.3,1-0.3,1.7
				c0,0.4,0.1,0.8,0.3,1c0.4,0.7,1.3,1.1,2.7,1.3c6,0.8,17.4-2.6,17.5-2.6c3-0.6,6-0.9,9-1c4.6-0.1,9.1,0.3,13.6,1.3
				c0.2,0,0.3,0.2,0.4,0.3c2.9,6,8.3,14.5,17.8,21.1c1.8,1.3,3.7,2.4,5.6,3.4c1,0.5,2.1,1,3.1,1.5c2.1,1,4.4,1.8,6.6,2.4
				c0.3,0.1,0.5,0.4,0.4,0.7C514.7,548.9,514.5,549.1,514.2,549.1z"/>
			<path d="M528,499.6c-0.1,0-0.3-0.1-0.4-0.2l-1.2-1.2c-1-1.1-2.1-2.1-3.1-3.2c-2.8-2.8-5.3-5.3-7.6-7.5c-1.8-1.8-3.6-3.5-5.4-5.3
				c-3.6-3.5-7.4-7.1-11.2-10.6c-1.9-1-3.8-2.1-5.7-3.1c0,0,0,0,0,0c0,0,0,0,0,0v0l-1.6-0.8c-2.6-1.4-10.6-5.6-18.6-9.2
				c-7.9-3.5-14.2-5.7-18.5-6.4c-3.5-0.6-5.7-0.3-6.6,0.9c-0.9,1.2-0.5,3.2-0.4,3.6c0,0,0,0.1,0,0.1c0.7,2.7,4.9,4.9,7.3,5.9
				c1.2,0.5,2,0.8,2.1,0.8c2.8,1,5.5,2.2,8.2,3.5c3.4,1.7,6.1,3.3,8.7,4.9c1.4,0.8,2.8,1.7,4.1,2.6c0.3,0.2,0.3,0.5,0.2,0.8
				c-0.2,0.3-0.5,0.4-0.8,0.2c-1.4-0.9-2.7-1.7-4.1-2.6c-2.6-1.6-5.2-3.2-8.6-4.8c-2.6-1.3-5.3-2.4-8-3.4c0,0-0.9-0.3-2.1-0.8
				c-3.2-1.4-7.2-3.7-8-6.7c0,0,0-0.1,0-0.1c-0.2-0.7-0.6-3,0.6-4.7c1.2-1.6,3.7-2,7.7-1.4c4.5,0.7,10.8,2.9,18.8,6.5
				c8.1,3.6,16.1,7.8,18.7,9.2l1.6,0.8c0,0,0,0,0,0c0,0,0,0,0,0l0,0c2,1,3.9,2.1,5.8,3.2c0,0,0.1,0.1,0.1,0.1
				c3.8,3.6,7.6,7.2,11.2,10.7c1.8,1.7,3.6,3.5,5.4,5.3c2.3,2.2,4.7,4.7,7.6,7.5c1.1,1.1,2.1,2.1,3.1,3.2l1.2,1.2
				c0.2,0.2,0.2,0.6,0,0.8C528.3,499.5,528.1,499.6,528,499.6z"/>
			<path d="M481.3,507.3c-0.1,0-0.1,0-0.2,0c-2.7-0.8-5.2-1.4-7.8-2l-0.3-0.1c-6.2-1.5-12.5-2.9-18.5-4.2
				c-8.1-1.8-13.3-2.8-13.3-2.8l-0.1,0c-1.6-0.3-3.6-0.7-5.4-1.6c-1.6-0.8-2.7-1.9-3.2-3.2c-1-2.5,0.2-5.2,0.3-5.5
				c0.2-0.5,0.6-0.9,1-1.2c0.5-0.4,1.2-0.7,2-0.9c3.2-0.9,8.9-0.6,17.2,0.8l0.2,0c0.5,0.1,1,0.2,1.6,0.3c5.2,0.9,11.4,2.4,18.6,4.2
				c4.8,1.2,10.3,2.7,16.3,4.4c0.3,0.1,0.5,0.4,0.4,0.7c-0.1,0.3-0.4,0.5-0.7,0.4c-5.9-1.7-11.4-3.2-16.2-4.4
				c-7.1-1.8-13.4-3.2-18.5-4.2c-0.5-0.1-1-0.2-1.5-0.3l-0.2,0c-8.1-1.4-13.7-1.7-16.7-0.8c-0.7,0.2-1.2,0.4-1.6,0.7
				c-0.3,0.2-0.5,0.5-0.7,0.8c-0.1,0.3-1.2,2.5-0.3,4.6c0.4,1.1,1.3,1.9,2.7,2.6c1.6,0.8,3.5,1.2,5.1,1.5l0.1,0
				c0.1,0,5.3,1.1,13.4,2.8c6.1,1.3,12.3,2.7,18.5,4.2l0.3,0.1c2.6,0.6,5.2,1.3,7.9,2.1c0.2,0.1,0.4,0.3,0.4,0.6
				C481.9,507,481.6,507.3,481.3,507.3z"/>
			<path d="M489.4,496.6c-0.1,0-0.2,0-0.3-0.1c-5.8-3.1-11.2-5.7-16.2-7.8c0,0,0,0-0.1,0c-0.9-0.4-1.7-0.7-2.5-1c0,0,0,0,0,0
				c-5.8-2.3-11.1-4-15.9-5c-2.5-0.5-4.8-0.8-6.9-1l-0.4,0c-2.6-0.2-7.9-0.6-11.6-3c-1.3-0.9-2.3-1.9-2.9-3.2
				c-0.3-0.7-1.4-3.2-0.4-5.3c0.6-1.2,1.7-2,3.4-2.6c0.2-0.1,0.4-0.1,0.6-0.2c2.8-0.7,7.1-0.7,12.7,0c1.7,0.2,3.6,0.5,5.7,0.9
				c2.4,0.4,4.5,0.9,6.1,1.2l0.2,0c4.1,0.9,8.3,2,12.4,3.3c1.6,0.5,3,1,4.4,1.5c5.9,2.1,11.7,4.6,17.4,7.5c0.3,0.1,0.4,0.5,0.3,0.8
				s-0.5,0.4-0.8,0.3c-5.6-2.9-11.4-5.4-17.2-7.4c-1.3-0.5-2.8-1-4.3-1.4c-4.1-1.3-8.2-2.4-12.3-3.3l-0.2,0
				c-1.6-0.3-3.7-0.8-6.1-1.2c-2.1-0.4-3.9-0.7-5.6-0.9c-5.5-0.7-9.6-0.7-12.3,0c-0.2,0-0.4,0.1-0.5,0.2c-1.4,0.4-2.3,1.1-2.7,2
				c-0.8,1.6,0.2,3.8,0.4,4.3c0.5,1.1,1.3,2,2.5,2.7c3.4,2.3,8.7,2.7,11,2.8l0.4,0c2.2,0.2,4.5,0.5,7,1c4.8,1,10.2,2.7,16,5
				c0,0,0,0,0.1,0c0.9,0.3,1.7,0.7,2.6,1.1c0,0,0.1,0,0.1,0c5,2.1,10.4,4.7,16.1,7.7c0,0,0.1,0,0.1,0c0.3,0.1,0.4,0.5,0.3,0.8l0,0
				c-0.1,0.1-0.2,0.3-0.3,0.3C489.6,496.6,489.5,496.6,489.4,496.6z"/>
			<path d="M533.8,491.7l-0.3,0.1l-4.1,1.2l-5.7,1.6L518,489c0,0-6.6-23.8,0.4-25.8C523.8,461.7,530.5,481.2,533.8,491.7z"/>
			<path d="M540.2,511.3c-0.2,0-0.5-0.1-0.5-0.4l-4.5-12.6c-0.1-0.3-0.3-0.9-0.6-2c-0.3-1.1-0.8-2.6-1.3-4.4
				c-0.1-0.3,0.1-0.6,0.4-0.7c0.3-0.1,0.6,0.1,0.7,0.4c0.5,1.8,1,3.3,1.3,4.4c0.3,1,0.5,1.7,0.6,1.9l4.5,12.6c0.1,0.3,0,0.6-0.3,0.8
				C540.4,511.3,540.3,511.3,540.2,511.3z"/>
			<path d="M539.6,508.9l-32.1,37.1c2.5,1.1,4.7,1.9,6.7,2.4c8.7-12.6,17.3-25.2,26-37.8c0-0.2,0-0.5-0.1-0.8
				C540,509.4,539.8,509.1,539.6,508.9z"/>
		</g>
		<g id="body_2_">
			<path d="M299.6,615.2c-0.4,0-0.6,0-0.7,0c0,0,0,0,0,0c-4.3,0-8.2-0.7-11.4-2.2c-11.4-3.4-19.3-19.6-23.5-48.3
				c-0.9-5.9-1.4-11.5-1.8-15.2c-0.1-1.3-0.2-2.5-0.3-3.6c-2.6-27,1.9-61.8,13.4-103.4c6.5-23.8,15.4-49.7,25.6-75
				c0.1-0.2,0.2-0.3,0.4-0.4c0.2,0,0.4,0,0.5,0.2l35.9,37.6c0.1,0.1,0.2,0.3,0.2,0.4l-1.9,116.8c0,0.3-0.3,0.6-0.6,0.6c0,0,0,0,0,0
				c-0.3,0-0.6-0.3-0.6-0.6l1.9-116.6l-35.2-36.8c-10.1,25-18.8,50.6-25.2,74c-11.4,41.4-15.9,76-13.3,102.9
				c0.1,1.1,0.2,2.3,0.3,3.6c0.4,3.6,0.9,9.2,1.8,15.1c4.1,28.2,11.7,44.1,22.7,47.4c0,0,0.1,0,0.1,0c3.1,1.4,6.8,2.1,11,2.1
				c0.1,0,8.2,0.3,17.4-3.3c3.5-1.4,8.5-4.2,14.4-8.2c1.3-0.9,2.7-1.8,4.1-2.9c12.8-9.1,28.3-22.1,43.6-36.7c0.2-0.2,0.6-0.2,0.8,0
				c0.2,0.2,0.2,0.6,0,0.8c-15.3,14.6-30.8,27.7-43.7,36.8c-1.5,1.1-2.9,2-4.2,2.9c-5.9,4-11,6.8-14.6,8.3
				C308.8,614.9,301.8,615.2,299.6,615.2z"/>
			<path d="M593.1,500.6c-0.3,0-0.6-0.3-0.6-0.6c-0.1-20.5-0.1-40.9-0.2-61.4l0-5.4c0-0.3,0.3-0.6,0.6-0.6c0,0,0,0,0,0
				c0.3,0,0.6,0.3,0.6,0.6l0,5.4c0.1,20.5,0.1,40.9,0.2,61.4C593.7,500.3,593.4,500.6,593.1,500.6
				C593.1,500.6,593.1,500.6,593.1,500.6z"/>
			<path d="M315.8,760.8c-0.2,0-0.3-0.1-0.5-0.2c-0.1-0.2-0.1-0.4-0.1-0.5l62.7-196.5c3.2-10.1,6.5-20.3,9.7-30.4l10.4-32.7
				c1.4-4.5,2.9-8.9,4.3-13.4c2-6.4,4.1-12.8,6.1-19.1l4.9-15.4c0.1-0.3,0.4-0.5,0.7-0.4c0.3,0.1,0.5,0.4,0.4,0.7l-4.9,15.4
				c-2,6.4-4.1,12.8-6.1,19.1c-1.4,4.5-2.8,8.9-4.3,13.4l-10.4,32.7c-3.2,10.1-6.5,20.3-9.7,30.4l-62.4,195.7l276.7-14.5
				c0-27.1-0.1-54.6-0.2-81.6c-0.1-33.3-0.3-58.7-0.5-82.4c0-0.3,0.3-0.6,0.6-0.6c0,0,0,0,0,0c0.3,0,0.6,0.3,0.6,0.6
				c0.2,23.7,0.3,49.2,0.5,82.4c0.1,27.3,0.2,54.9,0.2,82.2c0,0.3-0.2,0.6-0.5,0.6L315.8,760.8C315.8,760.8,315.8,760.8,315.8,760.8
				z"/>
			<path d="M631.9,492.7c-0.2,0-0.4-0.1-0.5-0.3c-13-19.6-26-39.3-39-58.9c-0.2-0.3-0.1-0.6,0.2-0.8c0.3-0.2,0.6-0.1,0.8,0.2
				c13,19.6,26,39.3,39,58.9c0.2,0.3,0.1,0.6-0.2,0.8C632.2,492.7,632.1,492.7,631.9,492.7z"/>
			<path d="M472.6,431.6C472.6,431.6,472.5,431.6,472.6,431.6c-0.3,0-0.5-0.2-0.6-0.4L449.5,352c-0.1-0.3,0.1-0.6,0.4-0.7
				c0.3-0.1,0.6,0.1,0.7,0.4l22.2,78l25.1-35.3c15.5-21.9,31-43.8,46.5-65.6c0.2-0.3,0.5-0.3,0.8-0.1c0.3,0.2,0.3,0.6,0.1,0.8
				c-15.5,21.9-31,43.8-46.5,65.6l-25.7,36.3C473,431.6,472.8,431.6,472.6,431.6z"/>
			<path d="M336.2,471c-0.1,0-0.2,0-0.3-0.1c-0.3-0.2-0.4-0.5-0.2-0.8c1.2-2.3,2.6-4.7,4-7.2c3-5.3,6.2-10.6,9.4-15.7
				c23-36.1,63.2-83.7,123.8-105.9l0.4-28.6c0-0.3,0.3-0.6,0.6-0.6c0.3,0,0.6,0.3,0.6,0.6l-0.4,29c0,0.2-0.2,0.5-0.4,0.5
				c-60.5,22-100.6,69.6-123.6,105.6c-3.2,5.1-6.4,10.3-9.4,15.7c-1.4,2.4-2.7,4.9-4,7.2C336.6,470.8,336.4,471,336.2,471z"/>
			<path d="M589.8,581.7c-36,0-65.5-14.2-81.7-24.2c-0.1-0.1-0.2-0.2-0.3-0.4c0-0.2,0-0.3,0.1-0.5c3.5-5,7-10.1,10.4-15.2l5.7-8.3
				c5.2-7.6,10.4-15.2,15.7-22.8c0.1-0.1,0.2-0.2,0.4-0.2l4.2-0.8c1.1-0.2,2.2-0.4,3.3-0.7c35.5-7.2,70.9-14.3,106.4-21.5
				c0.3-0.1,0.6,0.1,0.7,0.5c0.1,0.3-0.1,0.6-0.5,0.7c-35.5,7.2-70.9,14.3-106.4,21.5c-1.1,0.2-2.2,0.4-3.3,0.7l-3.9,0.8
				c-5.2,7.5-10.4,15.1-15.5,22.6l-5.7,8.3c-3.4,4.9-6.7,9.8-10.1,14.6c20.6,12.5,62,31.5,110.4,20.3c9.3-2.2,34-7.9,54.3-23.7
				c2.3-1.8,4.5-3.6,6.5-5.6c7.8-7.4,13.6-16,17.3-25.4c7.4-18.7,4.4-35.6,1.8-50.5c-0.1-0.6-0.2-1.3-0.4-1.9l-0.1-0.6
				c-0.1-0.7-0.3-1.5-0.4-2.2c-16.4-80.3-70.2-122.5-111.4-134.1c-21.2-6-43.8-6.6-67.1-1.9c-0.2,0-0.3,0-0.5-0.1
				c-0.1-0.1-0.2-0.3-0.2-0.5c0.1-7.3,0.3-14.8,0.6-22.2c0.3-7.4,0.8-14.8,1.4-22.1c0-0.3,0.3-0.6,0.6-0.5c0.3,0,0.6,0.3,0.5,0.6
				c-0.6,7.3-1.1,14.7-1.4,22.1c-0.3,7.2-0.5,14.4-0.6,21.4c23.3-4.6,45.8-3.9,66.9,2c30.1,8.5,56.9,28,77.6,56.3
				c22.5,30.8,31.4,62.6,34.7,78.8c0.2,0.7,0.3,1.5,0.4,2.2l0.1,0.6c0.1,0.7,0.2,1.3,0.4,1.9c2.5,14.3,5.6,32.1-1.9,51.1
				c-3.8,9.6-9.7,18.3-17.6,25.8c-2,1.9-4.3,3.8-6.6,5.6c-20.5,16-45.3,21.7-54.7,23.9C609.5,580.6,599.5,581.7,589.8,581.7z"/>
			<g id="pattern_2_">
				<g>
					<path d="M450.4,353.8h-3c-0.3,0-0.6-0.3-0.6-0.6c0-0.3,0.3-0.6,0.6-0.6h3c0.3,0,0.6,0.3,0.6,0.6
						C451,353.5,450.7,353.8,450.4,353.8z"/>
					<path d="M566.9,353.8h-39.1c-0.3,0-0.6-0.3-0.6-0.6c0-0.3,0.3-0.6,0.6-0.6h57.8l7.4-0.3c0,0,0,0,0,0c0.3,0,0.6,0.2,0.6,0.6
						c0,0.3-0.2,0.6-0.6,0.6l-7.4,0.3L566.9,353.8z"/>
					<path d="M598.3,372.9h-84.1c-0.3,0-0.6-0.3-0.6-0.6c0-0.3,0.3-0.6,0.6-0.6h84.1c0.3,0,0.6,0.3,0.6,0.6
						C598.9,372.7,598.6,372.9,598.3,372.9z"/>
					<path d="M358.1,372.9L358.1,372.9c-0.3,0-0.6-0.3-0.6-0.6c0-0.3,0.3-0.6,0.6-0.6s0.6,0.3,0.6,0.6
						C358.7,372.7,358.4,372.9,358.1,372.9z"/>
					<path d="M455.9,372.9h-38.4c-0.3,0-0.6-0.3-0.6-0.6c0-0.3,0.3-0.6,0.6-0.6h38.4c0.3,0,0.6,0.3,0.6,0.6
						C456.5,372.7,456.2,372.9,455.9,372.9z"/>
					<path d="M603.5,392.1H500.7c-0.3,0-0.6-0.3-0.6-0.6s0.3-0.6,0.6-0.6h102.8c0.3,0,0.6,0.3,0.6,0.6S603.8,392.1,603.5,392.1z"/>
					<path d="M461.3,392.1H395c-0.3,0-0.6-0.3-0.6-0.6s0.3-0.6,0.6-0.6h66.3c0.3,0,0.6,0.3,0.6,0.6S461.6,392.1,461.3,392.1z"/>
					<path d="M585.6,411.2h-98.5c-0.3,0-0.6-0.3-0.6-0.6c0-0.3,0.3-0.6,0.6-0.6l117.1,0c1.5,0,2.9-0.1,4.4-0.1
						c0.3,0,0.6,0.2,0.6,0.6c0,0.3-0.2,0.6-0.6,0.6c-1.5,0-2.9,0.1-4.4,0.1l-1.8,0L585.6,411.2z"/>
					<path d="M466.8,411.2h-89.9c-0.3,0-0.6-0.3-0.6-0.6c0-0.3,0.3-0.6,0.6-0.6h89.9c0.3,0,0.6,0.3,0.6,0.6
						C467.4,410.9,467.1,411.2,466.8,411.2z"/>
					<path d="M585.6,430.3h-112c-0.3,0-0.6-0.3-0.6-0.6c0-0.3,0.3-0.6,0.6-0.6l130.8,0c3.1-0.1,6.3-0.1,9.4-0.2
						c0.3,0,0.6,0.3,0.6,0.6c0,0.3-0.2,0.6-0.6,0.6c-3.1,0-6.3,0.1-9.4,0.2l-0.2,0H585.6z"/>
					<path d="M472.2,430.3H361.7c-0.3,0-0.6-0.3-0.6-0.6c0-0.3,0.3-0.6,0.6-0.6h110.5c0.3,0,0.6,0.3,0.6,0.6
						C472.8,430.1,472.6,430.3,472.2,430.3z"/>
					<path d="M604.3,449.4h-1c-0.3,0-0.6-0.3-0.6-0.6s0.3-0.6,0.6-0.6l15.8,0h0c0.3,0,0.6,0.3,0.6,0.6c0,0.3-0.3,0.6-0.6,0.6
						L604.3,449.4z"/>
					<path d="M593,449.4h-243c-0.3,0-0.6-0.3-0.6-0.6s0.3-0.6,0.6-0.6h243c0.3,0,0.6,0.3,0.6,0.6S593.3,449.4,593,449.4z"/>
					<path d="M436.5,468.6h-81.4c-0.3,0-0.6-0.3-0.6-0.6c0-0.3,0.3-0.6,0.6-0.6h81.4c0.3,0,0.6,0.3,0.6,0.6
						C437.1,468.3,436.8,468.6,436.5,468.6z"/>
					<path d="M466.1,468.7C466.1,468.7,466.1,468.7,466.1,468.7c-2.2,0-4.4-0.1-6.6-0.1c-1.6,0-3.3,0-4.9,0H449
						c-0.3,0-0.6-0.3-0.6-0.6c0-0.3,0.3-0.6,0.6-0.6h5.6c1.6,0,3.3,0,4.9,0c2.2,0,4.4,0,6.6,0.1c0.3,0,0.6,0.3,0.6,0.6
						C466.7,468.4,466.4,468.7,466.1,468.7z"/>
					<path d="M566.9,468.6h-73.3c-0.3,0-0.6-0.3-0.6-0.6c0-0.3,0.3-0.6,0.6-0.6h92l7.5-0.1c0,0,0,0,0,0c0.3,0,0.6,0.3,0.6,0.6
						c0,0.3-0.2,0.6-0.6,0.6l-7.5,0.1H566.9z"/>
					<path d="M470.6,487.7L470.6,487.7c-5.3,0-10.6,0-16,0h-1.7c-0.3,0-0.6-0.3-0.6-0.6c0-0.3,0.3-0.6,0.6-0.6h1.7
						c5.3,0,10.6,0,15.9,0c0.3,0,0.6,0.3,0.6,0.6C471.2,487.5,470.9,487.7,470.6,487.7z"/>
					<path d="M434.2,487.7h-73.8c-0.3,0-0.6-0.3-0.6-0.6c0-0.3,0.3-0.6,0.6-0.6h73.8c0.3,0,0.6,0.3,0.6,0.6
						C434.7,487.4,434.5,487.7,434.2,487.7z"/>
					<path d="M549.9,487.7h-33.8c-0.3,0-0.6-0.3-0.6-0.6c0-0.3,0.3-0.6,0.6-0.6h33.8c0.3,0,0.6,0.3,0.6,0.6
						C550.5,487.4,550.2,487.7,549.9,487.7z"/>
					<path d="M436,506.8h-70.4c-0.3,0-0.6-0.3-0.6-0.6c0-0.3,0.3-0.6,0.6-0.6h89.1l23-0.3c0.3,0,0.6,0.3,0.6,0.6
						c0,0.3-0.2,0.6-0.6,0.6l-23,0.3H436z"/>
					<path d="M415.7,526h-44.9c-0.3,0-0.6-0.3-0.6-0.6s0.3-0.6,0.6-0.6h44.9c0.3,0,0.6,0.3,0.6,0.6S416,526,415.7,526z"/>
					<path d="M361.2,491c-0.3,0-0.6-0.3-0.6-0.6v-60c0-0.3,0.3-0.6,0.6-0.6s0.6,0.3,0.6,0.6v60C361.8,490.7,361.5,491,361.2,491z"/>
					<path d="M379.9,536.2c-0.3,0-0.6-0.3-0.6-0.6V407.2c0-0.3,0.3-0.6,0.6-0.6s0.6,0.3,0.6,0.6v128.4
						C380.5,535.9,380.2,536.2,379.9,536.2z"/>
					<path d="M398.6,530.8c-0.3,0-0.6-0.3-0.6-0.6V388.1c0-0.3,0.3-0.6,0.6-0.6s0.6,0.3,0.6,0.6v142.1
						C399.2,530.6,398.9,530.8,398.6,530.8z"/>
					<path d="M417.3,525.5c-0.3,0-0.6-0.3-0.6-0.6V372.5c0-0.3,0.3-0.6,0.6-0.6s0.6,0.3,0.6,0.6v152.4
						C417.9,525.2,417.6,525.5,417.3,525.5z"/>
					<path d="M436.1,520.1c-0.3,0-0.6-0.3-0.6-0.6l-0.2-13.3V496c0-0.3,0.3-0.6,0.6-0.6s0.6,0.3,0.6,0.6v10.2l0.2,13.3
						C436.7,519.9,436.5,520.1,436.1,520.1C436.2,520.1,436.2,520.1,436.1,520.1z"/>
					<path d="M436,468.7c-0.3,0-0.6-0.3-0.6-0.6V359.7c0-0.3,0.3-0.6,0.6-0.6s0.6,0.3,0.6,0.6v108.4
						C436.5,468.5,436.3,468.7,436,468.7z"/>
					<path d="M436,486.9c-0.3,0-0.6-0.3-0.6-0.6v-8.1c0-0.3,0.3-0.6,0.6-0.6s0.6,0.3,0.6,0.6v8.1C436.5,486.6,436.3,486.9,436,486.9
						z"/>
					<path d="M454.6,488c-0.3,0-0.6-0.3-0.6-0.6v-1.9c0-0.3,0.3-0.6,0.6-0.6s0.6,0.3,0.6,0.6v1.9C455.2,487.7,455,488,454.6,488z"/>
					<path d="M454.6,504.8c-0.3,0-0.6-0.3-0.6-0.6v-3.8c0-0.3,0.3-0.6,0.6-0.6s0.6,0.3,0.6,0.6v3.8
						C455.2,504.5,455,504.8,454.6,504.8z"/>
					<path d="M454.6,452.1c-0.3,0-0.6-0.3-0.6-0.6V368c0-0.3,0.3-0.6,0.6-0.6s0.6,0.3,0.6,0.6v83.5
						C455.2,451.8,455,452.1,454.6,452.1z"/>
					<path d="M454.6,487.7c-0.3,0-0.6-0.3-0.6-0.6v-5c0-0.3,0.3-0.6,0.6-0.6s0.6,0.3,0.6,0.6v5C455.2,487.4,455,487.7,454.6,487.7z"
						/>
					<path d="M454.6,469.5c-0.3,0-0.6-0.3-0.6-0.6v-5.7c0-0.3,0.3-0.6,0.6-0.6s0.6,0.3,0.6,0.6v5.7
						C455.2,469.2,455,469.5,454.6,469.5z"/>
					<path d="M454.6,509.7c-0.3,0-0.6-0.3-0.6-0.6v-5.6c0-0.3,0.3-0.6,0.6-0.6s0.6,0.3,0.6,0.6v5.6
						C455.2,509.4,455,509.7,454.6,509.7z"/>
					<path d="M473.3,458.6c-0.3,0-0.6-0.3-0.6-0.6v-27.9c0-0.3,0.3-0.6,0.6-0.6s0.6,0.3,0.6,0.6V458
						C473.9,458.3,473.6,458.6,473.3,458.6z"/>
					<path d="M473.3,474c-0.3,0-0.6-0.3-0.6-0.6l0-0.8c0-0.3,0.3-0.6,0.6-0.6s0.6,0.3,0.6,0.6l0,0.8
						C473.9,473.8,473.6,474,473.3,474z"/>
					<path d="M473.1,507.4c-0.3,0-0.6-0.3-0.6-0.6l0-0.8c0-0.5,0-1,0-1.5c0-0.3,0.3-0.6,0.6-0.6c0,0,0,0,0,0c0.3,0,0.6,0.3,0.6,0.6
						c0,0.5,0,1,0,1.5l0,0.8C473.7,507.1,473.5,507.4,473.1,507.4z"/>
					<path d="M473.2,492.2c-0.3,0-0.6-0.3-0.6-0.6c0-1.1,0-2.2,0-3.4c0-0.3,0.3-0.6,0.6-0.6c0,0,0,0,0,0c0.3,0,0.6,0.3,0.6,0.6
						c0,1.1,0,2.3,0,3.4C473.8,491.9,473.5,492.2,473.2,492.2z"/>
					<path d="M492,467.7c-0.3,0-0.6-0.3-0.6-0.6v-63.4c0-0.3,0.3-0.6,0.6-0.6s0.6,0.3,0.6,0.6v63.4
						C492.6,467.5,492.3,467.7,492,467.7z"/>
					<path d="M510.7,482.4c-0.3,0-0.6-0.3-0.6-0.6V377.3c0-0.3,0.3-0.6,0.6-0.6s0.6,0.3,0.6,0.6v104.5
						C511.3,482.2,511,482.4,510.7,482.4z"/>
					<path d="M529.4,491.2c-0.3,0-0.6-0.3-0.6-0.6V351c0-0.3,0.3-0.6,0.6-0.6c0.3,0,0.6,0.3,0.6,0.6v139.6
						C529.9,490.9,529.7,491.2,529.4,491.2z"/>
					<path d="M548.2,488.2c-0.3,0-0.6-0.3-0.6-0.6V329.1c0-0.3,0.3-0.6,0.6-0.6c0.3,0,0.6,0.3,0.6,0.6v158.5
						C548.8,487.9,548.5,488.2,548.2,488.2z"/>
					<path d="M566.9,482.9c-0.3,0-0.6-0.3-0.6-0.6V329.9c0-0.3,0.3-0.6,0.6-0.6c0.3,0,0.6,0.3,0.6,0.6v152.3
						C567.5,482.6,567.2,482.9,566.9,482.9z"/>
					<path d="M585.6,477.5c-0.3,0-0.6-0.3-0.6-0.6V332.2c0-0.3,0.3-0.6,0.6-0.6c0.3,0,0.6,0.3,0.6,0.6V477
						C586.1,477.3,585.9,477.5,585.6,477.5z"/>
					<path d="M604.2,450.9c-0.3,0-0.6-0.3-0.6-0.6v-56c0-0.3,0.3-0.6,0.6-0.6c0.3,0,0.6,0.3,0.6,0.6v56
						C604.8,450.6,604.6,450.9,604.2,450.9z"/>
				</g>
				<path d="M540.6,335.7c-0.1,0-0.2,0-0.3-0.1c-0.3-0.2-0.3-0.5-0.2-0.8c0.2-0.4,0.2-0.4,8.1-0.4c4.9,0,11.7,0,18.7,0
					c5.5,0,11.1,0,16.1,0.1l2.8,0c0.8,0,1.6,0,2.4,0c0.3,0,0.6,0.3,0.6,0.6c0,0.3-0.3,0.6-0.6,0.6c-0.8,0-1.6,0-2.4,0l-2.8,0
					c-5,0-10.6,0-16.1-0.1c-7,0-13.8,0-18.7,0c-5.9,0-7.2,0.1-7.4,0.1C540.7,335.7,540.7,335.7,540.6,335.7z"/>
			</g>
			<ellipse cx="453.2" cy="533.7" rx="3.4" ry="3.5"/>
			<ellipse cx="445.9" cy="594.4" rx="3.4" ry="3.5"/>
			<ellipse cx="437.8" cy="656.6" rx="3.4" ry="3.5"/>
			<ellipse cx="428.7" cy="720" rx="3.4" ry="3.5"/>
			<path d="M336.9,430.7C336.8,430.7,336.8,430.7,336.9,430.7l-55.2-7.9c-0.3,0-0.5-0.3-0.5-0.7c0-0.3,0.3-0.5,0.6-0.5l55.1,7.9
				c0.3,0,0.5,0.3,0.5,0.7C337.4,430.5,337.1,430.7,336.9,430.7z"/>
			<path d="M566.3,579.6c-0.3,0-0.6-0.3-0.6-0.6l-1.8-73.2c0-0.3,0.2-0.6,0.6-0.6c0.3,0,0.6,0.2,0.6,0.6l1.8,73.2
				C566.9,579.3,566.6,579.6,566.3,579.6C566.3,579.6,566.3,579.6,566.3,579.6z"/>
			<path d="M330.9,603c-6,4.1-11,6.8-14.5,8.2c-9.4,3.7-17.6,3.3-17.6,3.3c-6.1,0-9.7-1.5-11.2-2.2c-14.3-4.2-20.3-28.1-23.1-47.8
				C286.5,567.3,313,576.7,330.9,603z"/>
			<path d="M698.3,522.7c-4.1,10.3-10.3,18.7-17.5,25.6c-2.1,2-4.3,3.9-6.5,5.6c-9.3-19.2-9.9-41.1-1-59.4
				c6.9-14.3,17.9-22.7,26-27.4c0.2,0.7,0.3,1.5,0.4,2.2c0.2,0.9,0.3,1.7,0.5,2.5C702.9,487.4,705.6,504.2,698.3,522.7z"/>
		</g>
	</g>
</g>
</svg>
