<?xml version="1.0" encoding="utf-8"?>
<!-- Generator: Adobe Illustrator 22.1.0, SVG Export Plug-In . SVG Version: 6.00 Build 0)  -->
<svg version="1.1" xmlns="http://www.w3.org/2000/svg" xmlns:xlink="http://www.w3.org/1999/xlink" x="0px" y="0px"
	 viewBox="0 0 1000 719.6" style="enable-background:new 0 0 1000 719.6;" xml:space="preserve">
<style type="text/css">
	.st0{fill:#01BDB7;}
	.st1{fill:#FF749F;}
</style>
<g id="background">
	<g id="background_1_">
		<path d="M848.1,514.4c-13.3,0-27.3-10.2-41.7-30.4c-0.2-0.3-0.2-0.8,0.2-1c0.3-0.2,0.8-0.2,1,0.2c14.6,20.4,28.6,30.5,41.8,29.7
			c10.7-0.6,18.1-7.8,25.9-15.5c7.8-7.7,15.8-15.6,27.5-16.1c13-0.6,26.4,8.1,40,25.8c0.3,0.3,0.2,0.8-0.1,1.1
			c-0.3,0.3-0.8,0.2-1.1-0.1c-13.3-17.4-26.3-25.8-38.8-25.2c-11.1,0.5-18.9,8.3-26.5,15.7c-7.7,7.5-15.6,15.3-26.9,15.9
			C849.1,514.4,848.6,514.4,848.1,514.4z"/>
		<path d="M53.2,338.2c-10.3,0-21.2-7.9-32.4-23.6c-0.2-0.3-0.2-0.8,0.2-1c0.3-0.2,0.8-0.2,1,0.2c11.3,15.8,22.1,23.5,32.2,23
			c8.3-0.4,13.9-6,19.9-12c6-5.9,12.3-12.1,21.4-12.5c10.1-0.5,20.6,6.3,31.1,20.1c0.3,0.3,0.2,0.8-0.1,1.1
			c-0.3,0.3-0.8,0.2-1.1-0.1c-10.2-13.4-20.3-19.9-29.9-19.5c-8.5,0.4-14.3,6.1-20.4,12.1c-5.9,5.9-12.1,11.9-20.9,12.4
			C53.9,338.2,53.5,338.2,53.2,338.2z"/>
		<path d="M175.9,234.3c-0.2,0-0.3,0-0.4-0.1l-11.1-7.7c-0.3-0.2-0.4-0.7-0.2-1l7.7-11.1c0.1-0.2,0.3-0.3,0.5-0.3
			c0.2,0,0.4,0,0.6,0.1l11.1,7.7c0.3,0.2,0.4,0.7,0.2,1l-7.7,11.1c-0.1,0.2-0.3,0.3-0.5,0.3C176,234.3,175.9,234.3,175.9,234.3z
			 M165.8,225.6l9.9,6.9l6.9-9.9l-9.9-6.9L165.8,225.6z"/>
		<path d="M956.7,651.9c-0.1,0-0.3,0-0.4-0.1l-25.5-16.9c-0.3-0.2-0.4-0.7-0.2-1l16.9-25.5c0.2-0.3,0.7-0.4,1-0.2L974,625
			c0.3,0.2,0.4,0.7,0.2,1l-16.9,25.5C957.2,651.8,956.9,651.9,956.7,651.9z M932.2,634l24.3,16.1l16.1-24.3l-24.3-16.1L932.2,634z"
			/>
		
			<rect x="827.5" y="64.2" transform="matrix(0.1991 0.98 -0.98 0.1991 748.0591 -761.7029)" class="st0" width="25.1" height="25.1"/>
		<path d="M297.4,186.9c-0.2,0-0.4-0.1-0.5-0.2c-0.3-0.3-0.3-0.8,0-1.1l10.8-11.5c0.3-0.3,0.8-0.3,1.1,0c0.3,0.3,0.3,0.8,0,1.1
			L298,186.7C297.8,186.8,297.6,186.9,297.4,186.9z"/>
		<path d="M590.3,83.3c-0.2,0-0.4-0.1-0.5-0.2c-0.3-0.3-0.3-0.8,0-1.1l10.8-11.6c0.3-0.3,0.8-0.3,1.1,0c0.3,0.3,0.3,0.8,0,1.1
			l-10.8,11.6C590.7,83.2,590.5,83.3,590.3,83.3z"/>
		<path d="M730,25.7c-0.2,0-0.5-0.1-0.6-0.3l-8.5-13.3c-0.2-0.3-0.1-0.8,0.2-1c0.4-0.2,0.8-0.1,1,0.2l8.5,13.3
			c0.2,0.3,0.1,0.8-0.2,1C730.2,25.7,730.1,25.7,730,25.7z"/>
		<path d="M78.3,509.2c-0.3,0-0.5-0.1-0.6-0.4c-0.2-0.4-0.1-0.8,0.2-1l13.5-8.2c0.4-0.2,0.8-0.1,1,0.2c0.2,0.4,0.1,0.8-0.2,1
			l-13.5,8.2C78.6,509.2,78.4,509.2,78.3,509.2z"/>
		<path d="M843.3,325.9c-0.4,0-0.7-0.3-0.7-0.6c-0.1-0.4,0.2-0.8,0.6-0.9l15.6-2.6c0.4-0.1,0.8,0.2,0.9,0.6c0.1,0.4-0.2,0.8-0.6,0.9
			l-15.6,2.6C843.4,325.9,843.3,325.9,843.3,325.9z"/>
		<path d="M970.6,365.4c-0.1,0-0.3,0-0.4-0.1c-0.4-0.2-0.5-0.7-0.3-1l8-13.6c0.2-0.4,0.7-0.5,1-0.3c0.4,0.2,0.5,0.7,0.3,1l-8,13.6
			C971.1,365.2,970.9,365.4,970.6,365.4z"/>
		<path d="M386.9,617.4c-0.4,0-0.7-0.3-0.7-0.6c-0.1-0.4,0.2-0.8,0.6-0.9l15.6-2.6c0.4-0.1,0.8,0.2,0.9,0.6c0.1,0.4-0.2,0.8-0.6,0.9
			l-15.6,2.6C387,617.4,386.9,617.4,386.9,617.4z"/>
		<path d="M232.7,90.9c-0.2,0-0.5-0.1-0.6-0.3l-9-13c-0.2-0.3-0.2-0.8,0.2-1c0.3-0.2,0.8-0.2,1,0.2l9,13c0.2,0.3,0.2,0.8-0.2,1
			C233,90.8,232.8,90.9,232.7,90.9z"/>
		<path d="M261.1,602.7c-0.2,0-0.4-0.1-0.6-0.2c-0.3-0.3-0.3-0.8,0-1.1l11.6-10.7c0.3-0.3,0.8-0.3,1.1,0c0.3,0.3,0.3,0.8,0,1.1
			l-11.6,10.7C261.4,602.7,261.2,602.7,261.1,602.7z"/>
		<path d="M394.7,58.2c-2.1,0-4.2-0.8-5.8-2.4c-3.2-3.2-3.2-8.4,0-11.6l0,0c3.2-3.2,8.4-3.2,11.6,0c3.2,3.2,3.2,8.4,0,11.6
			C398.9,57.4,396.8,58.2,394.7,58.2z M389.9,45.2c-2.6,2.6-2.6,6.9,0,9.5s6.9,2.6,9.5,0c2.6-2.6,2.6-6.9,0-9.5
			C396.8,42.6,392.6,42.6,389.9,45.2L389.9,45.2z"/>
		<circle class="st0" cx="71.3" cy="651.2" r="5.7"/>
		<circle class="st0" cx="377.5" cy="220.9" r="4.5"/>
		<circle class="st0" cx="807" cy="591.3" r="7.5"/>
		<path d="M934.7,240.2c-1.4,0-2.8-0.4-4.1-1.1c-3.9-2.3-5.3-7.3-3-11.2c1.1-1.9,2.9-3.3,5-3.8c2.1-0.6,4.3-0.3,6.2,0.8
			c1.9,1.1,3.3,2.9,3.8,5c0.6,2.1,0.3,4.3-0.8,6.2c-1.1,1.9-2.9,3.3-5,3.8C936.2,240.1,935.4,240.2,934.7,240.2z M934.7,225.3
			c-2.3,0-4.6,1.2-5.8,3.4c-1.9,3.2-0.8,7.3,2.5,9.2c1.6,0.9,3.4,1.1,5.1,0.7c1.7-0.5,3.2-1.6,4.1-3.1s1.1-3.4,0.7-5.1
			c-0.5-1.7-1.6-3.2-3.1-4.1l0,0C937,225.6,935.9,225.3,934.7,225.3z"/>
		<circle class="st0" cx="90.8" cy="83.6" r="17.1"/>
	</g>
</g>
<g id="general_1_">
	<g id="general_2_">
		<path id="water_1_" class="st1" d="M760.1,189.8c-12.6,163-25.2,326-37.8,489.1H465.6c-6.4-81-12.8-162-19.2-242.9
			c1.5-0.3,2.7-0.6,3.6-0.9c3.1,2.1,5.6,3.9,7.2,5.1c5.2,3.8,7.8,6,9.8,5.1c0,0,0.9-0.4,1.2-1.2c1.6-3.6-8.8-11.7-12-14.2
			c5,2.1,8.8,3.9,11.5,5.2c2.6,1.3,5.4,2.8,7.1,1.7c0.9-0.6,1.1-1.6,1.1-1.9c0.1-0.7-0.2-1.5-0.7-2.2c1.5,0.7,3.1,0.5,3.9-0.2
			c0.3-0.3,0.9-1,1.1-1.9c0,0,0,0,0-0.1c0.4-1.8-2.7-4.6-2.7-4.6c-2.6-2.4-6.3-4.4-8.4-5.4c-0.1-0.1-0.2-0.1-0.3-0.2
			c2.8,0.2,5,0,6.7-0.1c2.9-0.3,3.9-0.7,4.4-1.6c0.5-0.8,0.6-1.9,0.2-2.7c-1.2-2.6-6.6-2.6-8.7-2.6c-5.7,0-14.8-0.4-26.8-1
			c-5.8-73-11.5-146-17.3-219c12.5-6.2,39.2-17.1,70.8-11.2c32.9,6.2,48.6,26.3,50.8,30.1c2.3,3.9,1.8,7.4,1.8,7.4
			c-0.1,0.7-0.6,4.8-4,6.5c-3.4,1.7-7.8,0-9.8-2.7c-2.6-3.5-1-8.4-0.3-10.5c4.1-12.6,30.4-30.9,59.7-27.3
			c30.3,3.8,48.4,29,49.2,37.3c0.2,1.8,0.6,5.8-1.5,7.1c-1.3,0.8-3.4,0.5-4.4-0.6c-1.4-1.6-0.3-4.6,0.2-5.9
			c2.3-6.3,26.9-33.9,72.7-38.2C723,184.4,739.7,184.2,760.1,189.8z"/>
		<path d="M738.5,701H448.1c-0.4,0-0.7-0.3-0.7-0.7l-44.6-562.1c0-0.2,0.1-0.4,0.2-0.6s0.3-0.2,0.6-0.2h383.2c0.2,0,0.4,0.1,0.6,0.2
			c0.1,0.2,0.2,0.4,0.2,0.6l-48.2,562.1C739.2,700.7,738.9,701,738.5,701z M448.8,699.5h289l48.1-560.6H404.3L448.8,699.5z"/>
		<g id="tablet_1_">
			<g>
				<path d="M614,520c-10.3,5-21.7,5.5-31.8,2.4l40.1-75.3c4.9,3.9,8.9,8.9,11.8,14.9C644.7,483.6,635.6,509.6,614,520z"/>
				<path d="M595.1,525.1c-4.4,0-8.8-0.7-13.1-2c-0.2-0.1-0.4-0.2-0.5-0.4c-0.1-0.2-0.1-0.4,0-0.6l40.1-75.3
					c0.1-0.2,0.3-0.3,0.5-0.4c0.2,0,0.4,0,0.6,0.1c5.1,4.1,9.2,9.2,12.1,15.2c5.1,10.6,5.8,22.6,2,33.8
					c-3.9,11.2-11.9,20.1-22.5,25.3c0,0,0,0,0,0C608.3,523.6,601.7,525.1,595.1,525.1z M583.3,521.9c10.1,2.9,20.9,2,30.4-2.6h0
					c10.3-5,18-13.6,21.7-24.4s3.1-22.4-1.9-32.6c-2.7-5.5-6.3-10.2-10.9-14.1L583.3,521.9z M614,520L614,520L614,520z"/>
			</g>
			<path d="M582.2,523.2c-0.1,0-0.1,0-0.2,0c-5.4-1.7-10.3-4.3-14.6-7.8c-5.1-4.1-9.2-9.2-12.1-15.2c-5.1-10.6-5.8-22.6-2-33.8
				c3.9-11.1,11.9-20.1,22.5-25.3c10.1-4.9,21.6-5.8,32.4-2.4c5.4,1.7,10.3,4.3,14.6,7.8c0.3,0.2,0.4,0.6,0.2,0.9l-40.1,75.3
				C582.8,523,582.5,523.2,582.2,523.2z M595.1,438.2c-6.4,0-12.7,1.4-18.6,4.3c-10.3,5-18,13.6-21.7,24.4
				c-3.7,10.8-3.1,22.4,1.9,32.6c2.8,5.8,6.7,10.7,11.6,14.7c4,3.3,8.6,5.7,13.5,7.3l39.6-74.2c-4.1-3.2-8.7-5.6-13.6-7.1
				C603.6,438.9,599.4,438.2,595.1,438.2z"/>
			<path d="M567.9,515.5c-0.1,0-0.2,0-0.4-0.1c-0.4-0.2-0.5-0.6-0.3-1l40.1-75.3c0.2-0.4,0.6-0.5,1-0.3c0.4,0.2,0.5,0.6,0.3,1
				l-40.1,75.3C568.4,515.4,568.1,515.5,567.9,515.5z"/>
			<path d="M622.4,447.8c-0.2,0-0.4-0.1-0.5-0.2c-0.3-0.3-0.3-0.8,0-1.1c0.3-0.3,0.8-0.3,1.1,0c0.3,0.3,0.3,0.8,0,1.1l0,0
				C622.8,447.8,622.6,447.8,622.4,447.8z"/>
		</g>
		<g id="lines_1_">
			<path d="M593.7,412.2c-0.4,0-0.8-0.3-0.8-0.8v-18.2c0-0.4,0.3-0.8,0.8-0.8s0.8,0.3,0.8,0.8v18.2
				C594.4,411.8,594.1,412.2,593.7,412.2z"/>
			<path d="M593.7,572.9c-0.4,0-0.8-0.3-0.8-0.8V553c0-0.4,0.3-0.8,0.8-0.8s0.8,0.3,0.8,0.8v19.2
				C594.4,572.6,594.1,572.9,593.7,572.9z"/>
			<path d="M522.9,482.7h-20.5c-0.4,0-0.8-0.3-0.8-0.8s0.3-0.8,0.8-0.8h20.5c0.4,0,0.8,0.3,0.8,0.8S523.3,482.7,522.9,482.7z"/>
			<path d="M685,482.7h-20.5c-0.4,0-0.8-0.3-0.8-0.8s0.3-0.8,0.8-0.8H685c0.4,0,0.8,0.3,0.8,0.8S685.4,482.7,685,482.7z"/>
			<path d="M658.3,547.5c-0.2,0-0.4-0.1-0.5-0.2l-14.5-14.5c-0.1-0.1-0.2-0.3-0.2-0.5c0-0.4,0.3-0.8,0.8-0.8c0.2,0,0.5,0.1,0.6,0.3
				l14.4,14.4c0.3,0.3,0.3,0.8,0,1.1C658.6,547.4,658.4,547.5,658.3,547.5z"/>
			<path d="M543.6,432.9c-0.2,0-0.4-0.1-0.5-0.2l-14.5-14.5c-0.3-0.3-0.3-0.8,0-1.1s0.8-0.3,1.1,0l14.5,14.5c0.3,0.3,0.3,0.8,0,1.1
				C544,432.8,543.8,432.9,543.6,432.9z"/>
			<path d="M643.8,432.9c-0.2,0-0.4-0.1-0.5-0.2c-0.3-0.3-0.3-0.8,0-1.1l14.5-14.5c0.3-0.3,0.8-0.3,1.1,0s0.3,0.8,0,1.1l-14.5,14.5
				C644.1,432.8,643.9,432.9,643.8,432.9z"/>
			<path d="M529.2,547.5c-0.2,0-0.4-0.1-0.5-0.2c-0.3-0.3-0.3-0.8,0-1.1l14.5-14.5c0.3-0.3,0.8-0.3,1.1,0c0.3,0.3,0.3,0.8,0,1.1
				l-14.5,14.5C529.5,547.4,529.3,547.5,529.2,547.5z"/>
		</g>
		<g id="man_1_">
			<g id="tshirt_1_">
				<g>
					<path d="M254,357.8c-0.2,0.4-0.4,0.8-0.5,1.3c-3.8,8.8-7.7,17.7-11.5,26.5c-1.4,3.2-2.8,6.4-4.1,9.6c0,0,0,0,0,0
						c-4.8,11.2-9.7,22.4-14.5,33.6c-1,2.3-2,4.5-2.9,6.8c29.4,9.4,58.8,18.7,88.2,28.1"/>
					<path d="M308.6,464.4c-0.1,0-0.2,0-0.2,0l-88.2-28.1c-0.2-0.1-0.4-0.2-0.5-0.4c-0.1-0.2-0.1-0.4,0-0.6l17.5-40.4
						c0,0,0-0.1,0-0.1c1.4-3.2,2.7-6.4,4.1-9.5l12-27.8c0.2-0.4,0.6-0.6,1-0.4c0.4,0.2,0.6,0.6,0.4,1l-12,27.8
						c-1.4,3.2-2.8,6.4-4.1,9.6c0,0,0,0.1,0,0.1l-17.1,39.5l87.4,27.9c0.4,0.1,0.6,0.5,0.5,0.9C309.2,464.2,308.9,464.4,308.6,464.4
						z"/>
				</g>
				<g>
					<path d="M242.1,385.5c0,0-0.1,0.1-0.1,0.1c-7.3,7.5-14.5,15-21.8,22.4c-3.3,7-6.6,14.1-9.8,21.1c-0.9,1.9-1.8,3.8-2.6,5.6
						c-3.9,8.3-7.7,16.6-11.6,24.9c-1.2,2.6-2.4,5.2-3.6,7.8c-0.5-0.3-1.3-0.7-2.3-1.2c0,0-0.1,0-0.2-0.1c-0.1,0-0.1-0.1-0.2-0.1
						c-0.6-0.3-1.2-0.7-1.9-1.1c-0.7-0.4-1.5-0.9-2.4-1.3v0c-1-0.5-2-1.1-3.1-1.7c0,0,0,0-0.1,0c-0.2-0.1-0.3-0.2-0.5-0.3
						c-4.2-2.4-8.8-5-12.2-7c-1.8-1.1-3.2-1.9-4-2.5c0.3-0.7,0.5-1.3,0.8-2c3.3-8.6,8.1-20.3,14.5-33.7
						c11.2-23.6,16.8-35.5,25.7-47.1c0,0,22.3-29.1,61.4-48.7c3.6-1.8,7.1-3.1,7.1-3.1c1.7-0.7,4.2-1.6,7.3-2.4
						c22-5.7,49.7,0.2,67.4,17.9c7.8,7.8,11.5,16.1,19.1,32.7c5.4,11.9,8.7,22.2,10.7,29.6c9,2.4,18.1,4.8,27.1,7.2
						c10,2.6,19.9,5.2,29.9,7.8c-0.5,4.3-0.9,8.7-1.2,13.2c-0.5,6.1-0.9,12.1-1.2,18c-21.4-3.8-67-11.4-73.3-16.7
						c-0.3-0.2-0.6-0.5-0.9-0.8c-6.6-6.6-15.2-27.1-19.1-31.2c-3.4,7.2-6.8,14.5-10.2,21.9c-7.6,16.6-15,33-22,49.3"/>
					<path d="M192.5,468.2c-0.1,0-0.2,0-0.3-0.1c-0.6-0.3-1.3-0.7-2.3-1.2c-0.1,0-0.1-0.1-0.2-0.1l-2.1-1.2
						c-0.8-0.4-1.5-0.9-2.4-1.3c0,0-0.1,0-0.1-0.1c-1-0.5-2-1.1-3-1.7c0,0,0,0,0,0c-0.1-0.1-0.3-0.1-0.4-0.2l-0.1-0.1
						c-4.4-2.5-8.9-5.1-12.2-7.1c-1.7-1-3.1-1.9-4.1-2.5c-0.3-0.2-0.4-0.6-0.3-0.9l0.3-0.8c0.2-0.4,0.3-0.8,0.5-1.3
						c4.4-11.3,9.2-22.7,14.5-33.8c11.2-23.7,16.8-35.5,25.8-47.3c0.2-0.3,22.9-29.4,61.6-48.9c3.5-1.8,7.1-3.2,7.1-3.2
						c2.4-0.9,4.8-1.8,7.4-2.4c23.8-6.2,51.2,1.1,68.1,18.1c7.9,7.9,11.7,16.2,19.2,32.8c4.3,9.5,7.9,19.3,10.7,29.3
						c8.9,2.4,17.8,4.7,26.7,7.1c10,2.6,19.9,5.2,29.9,7.8c0.4,0.1,0.6,0.4,0.6,0.8c-0.5,4.8-0.9,9.1-1.2,13.1
						c-0.5,6-0.9,12-1.2,17.9c0,0.2-0.1,0.4-0.3,0.5c-0.2,0.1-0.4,0.2-0.6,0.2c-2.1-0.4-4.5-0.8-7-1.2
						c-24.2-4.3-60.8-10.7-66.6-15.7c-0.3-0.2-0.6-0.5-0.9-0.8c-3.9-3.9-8.3-12.1-12.1-19.4c-2.4-4.5-4.6-8.7-6.3-10.9
						c-3.1,6.6-6.3,13.4-9.7,20.8c-7.4,16.1-14.8,32.7-22,49.3c-0.2,0.4-0.6,0.6-1,0.4c-0.4-0.2-0.6-0.6-0.4-1
						c7.2-16.6,14.6-33.2,22-49.3c3.6-7.9,7-15,10.2-21.9c0.1-0.2,0.3-0.4,0.6-0.4c0.2,0,0.5,0,0.7,0.2c1.8,1.8,4.3,6.6,7.2,12.1
						c3.8,7.2,8.2,15.4,11.9,19.1c0.3,0.3,0.5,0.5,0.8,0.7c5.4,4.7,43.3,11.4,65.9,15.3c2.2,0.4,4.3,0.8,6.2,1.1
						c0.3-5.6,0.7-11.4,1.2-17.1c0.3-3.9,0.7-8,1.2-12.5c-9.8-2.5-19.5-5.1-29.3-7.6c-9.1-2.4-18.1-4.8-27.1-7.2
						c-0.3-0.1-0.5-0.3-0.5-0.5c-2.8-10.1-6.4-20-10.7-29.5c-7.5-16.5-11.3-24.8-18.9-32.5c-16.6-16.6-43.3-23.7-66.6-17.7
						c-2.4,0.6-4.9,1.4-7.2,2.3c0,0-3.5,1.4-7,3.1c-38.4,19.3-60.9,48.2-61.1,48.5c-8.9,11.6-14.5,23.4-25.7,47
						c-5.2,11-10.1,22.4-14.5,33.7c-0.2,0.4-0.3,0.9-0.5,1.3l-0.1,0.2c0.9,0.6,2.1,1.3,3.5,2.1c3.2,1.9,7.8,4.6,12.1,7l0.1,0.1
						c0.1,0.1,0.2,0.1,0.4,0.2c0,0,0.1,0,0.1,0.1c1.1,0.6,2.1,1.2,3.1,1.7c0,0,0.1,0,0.1,0.1c0.8,0.4,1.6,0.9,2.3,1.3l2.1,1.1
						c0,0,0.2,0.1,0.2,0.1c0.6,0.3,1.2,0.6,1.6,0.9l3.3-7.1c3.9-8.3,7.7-16.6,11.6-24.9l2.6-5.6c2.2-4.7,4.4-9.3,6.5-14l3.3-7.1
						c0-0.1,0.1-0.1,0.1-0.2l21.9-22.6c0.3-0.3,0.8-0.3,1.1,0c0.3,0.3,0.3,0.8,0,1.1c0,0-0.1,0.1-0.1,0.1l-21.7,22.3l-3.3,7
						c-2.2,4.7-4.4,9.3-6.5,14l-2.6,5.6c-3.9,8.3-7.7,16.6-11.6,24.9l-3.6,7.8c-0.1,0.2-0.2,0.3-0.4,0.4
						C192.6,468.2,192.5,468.2,192.5,468.2z"/>
				</g>
			</g>
			<g id="shoes_1_">
				<path d="M310.8,668c-1.2,10.9-2.4,21.8-3.7,32.7c6.6-0.2,13.2-0.3,19.9-0.4c5.1-0.1,11-0.2,20.2-0.2c9.6-0.1,23-0.1,39.7-0.1
					c-1.2-5.5-3.9-13.5-10.9-18.1c-3.6-2.3-6.5-2.3-13.5-4.2c-8-2.1-14.3-4.7-18.6-6.7c0.1-0.8,0.2-1.5,0.2-2.3L310.8,668z"/>
				<path d="M140.7,650.2c-2.4,5-4.8,10.1-7.2,15.1c-2,4.1-3.9,8.3-5.8,12.4c7.4,3.4,14.8,6.9,22.4,10.6c7.8,3.8,15.4,7.6,22.9,11.4
					c10.3,0.1,20.6,0.1,30.9,0.2c-0.3-5.5-1.6-12.9-7-17.2c-3.6-2.9-6.9-2.8-12.5-4.6c-5.1-1.7-17.6-15-16.6-16.8L140.7,650.2z"/>
			</g>
			<g id="hand_r_1_">
				<g>
					<path d="M480.1,430.5C480.1,430.5,480.1,430.6,480.1,430.5c-0.2,1-0.8,1.7-1.1,2c-0.8,0.7-2.4,0.9-3.9,0.2
						c0.6,0.8,0.8,1.5,0.7,2.2c0,0.3-0.3,1.3-1.1,1.9c-1.7,1.2-4.5-0.4-7.1-1.7c-2.6-1.3-6.5-3.2-11.5-5.2
						c3.2,2.5,13.7,10.6,12,14.2c-0.3,0.8-1.2,1.1-1.2,1.2c-2,0.9-4.6-1.3-9.8-5.1c-1.6-1.2-4.1-3-7.2-5.1c-0.9,0.3-2.1,0.6-3.6,0.9
						c-0.6-7.9-1.2-15.7-1.9-23.6c12,0.6,21.1,0.9,26.8,1c2.1,0,7.5,0,8.7,2.6c0.3,0.8,0.3,1.9-0.2,2.7c-0.5,0.8-1.5,1.2-4.4,1.6
						c-1.7,0.2-4,0.3-6.7,0.1c0.1,0.1,0.2,0.1,0.3,0.2c2.1,1,5.8,3,8.4,5.4C477.4,425.9,480.5,428.7,480.1,430.5z"/>
					<path d="M466,446.2c-1.9,0-4.2-1.7-7.7-4.3l-1.5-1.1c-1.5-1.1-3.9-2.8-6.9-4.9c-1.1,0.3-2.2,0.6-3.3,0.8c-0.2,0-0.4,0-0.6-0.1
						c-0.2-0.1-0.3-0.3-0.3-0.5l-1.9-23.6c0-0.2,0.1-0.4,0.2-0.6c0.1-0.2,0.4-0.2,0.6-0.2c13.3,0.6,21.6,0.9,26.8,1l0.1,0
						c2.4,0,7.9,0.1,9.2,3.1c0.5,1.1,0.4,2.4-0.3,3.4c-0.7,1.1-2,1.6-5,1.9c-1.2,0.1-2.4,0.2-3.6,0.2c2,1.1,4.3,2.6,6,4.2
						c0.6,0.5,3.3,3.2,2.9,5.3c0,0,0,0.1,0,0.1c-0.2,1-0.9,1.9-1.3,2.3c-0.7,0.7-1.8,0.9-3,0.8c0.1,0.4,0.1,0.8,0.1,1.2
						c-0.1,0.4-0.3,1.7-1.4,2.4c-2,1.4-4.8-0.1-7.5-1.5l-0.3-0.2c-2-1-4.1-2-6.3-3c6.3,5.3,8.9,9.2,7.9,11.5
						c-0.4,0.9-1.3,1.4-1.6,1.5C466.9,446.1,466.4,446.2,466,446.2z M450,434.3c0.1,0,0.3,0,0.4,0.1c3.1,2.2,5.6,4,7.2,5.1l1.5,1.1
						c3.8,2.8,6.1,4.5,7.5,3.9c0.1,0,0.6-0.3,0.9-0.8c0.9-1.9-3.8-7.1-11.8-13.2c-0.3-0.2-0.4-0.6-0.2-1c0.2-0.3,0.6-0.5,0.9-0.3
						c4.1,1.7,8,3.5,11.5,5.3l0.3,0.2c2.2,1.1,4.7,2.4,6,1.6c0.6-0.4,0.8-1.3,0.8-1.4c0.1-0.5-0.1-1-0.6-1.7c-0.2-0.3-0.2-0.7,0-0.9
						c0.2-0.3,0.6-0.3,0.9-0.2c1.3,0.6,2.5,0.4,3.1,0c0.2-0.2,0.7-0.8,0.9-1.5l0.7,0.1l-0.7-0.2c0.2-1-1.3-2.9-2.4-3.9
						c-2.6-2.3-6.3-4.3-8.2-5.3l-0.3-0.2c-0.3-0.2-0.5-0.5-0.4-0.9c0.1-0.3,0.4-0.6,0.8-0.6c2.2,0.1,4.4,0.1,6.6-0.1
						c2.8-0.3,3.5-0.7,3.9-1.2c0.4-0.6,0.4-1.4,0.2-2c-0.9-2.1-6-2.2-7.9-2.2l-0.1,0c-5.1,0-13.2-0.3-26-0.9l1.7,21.9
						c0.9-0.2,1.8-0.4,2.7-0.7C449.9,434.3,449.9,434.3,450,434.3z"/>
				</g>
				<g>
					<path d="M475.1,433.4c-0.2,0-0.4-0.1-0.5-0.2c-0.1-0.1-0.2-0.3-0.2-0.5c0-0.4,0.3-0.8,0.8-0.8s0.8,0.3,0.8,0.8
						S475.5,433.4,475.1,433.4z"/>
					<path d="M468.7,421.1c-0.1,0-0.2,0-0.3-0.1l0,0c-0.4-0.2-0.6-0.6-0.4-1s0.5-0.6,0.9-0.5c0.1,0,0.2,0.1,0.2,0.1
						c0.4,0.2,0.5,0.6,0.3,1C469.2,420.9,469,421.1,468.7,421.1z"/>
					<path d="M468.3,420.9c-0.1,0-0.2,0-0.3-0.1c-0.2-0.1-0.3-0.2-0.5-0.2c-0.4-0.2-0.6-0.6-0.4-1c0.2-0.4,0.6-0.6,1-0.4
						c0.2,0.1,0.4,0.2,0.5,0.3c0.4,0.2,0.5,0.6,0.4,1C468.9,420.8,468.6,420.9,468.3,420.9z"/>
					<path d="M444.6,413.1C444.6,413.1,444.5,413.1,444.6,413.1c-2.7-0.1-5.4-0.3-8.3-0.4c-0.4,0-0.7-0.4-0.7-0.8s0.4-0.7,0.8-0.7
						c2.9,0.1,5.6,0.3,8.3,0.4c0.4,0,0.7,0.4,0.7,0.8C445.3,412.7,445,413.1,444.6,413.1z"/>
					<path d="M441.2,437.1c-1.9,0-3.9-0.2-5.8-0.6c-0.5-0.1-0.9-0.2-1.3-0.3c-0.4-0.1-0.6-0.5-0.5-0.9s0.5-0.6,0.9-0.5
						c0.4,0.1,0.8,0.2,1.3,0.3c3.5,0.7,7,0.7,10.6,0.1c0.4-0.1,0.8,0.2,0.9,0.6c0.1,0.4-0.2,0.8-0.6,0.9
						C444.8,437,443,437.1,441.2,437.1z"/>
					<path d="M475.1,433.4c-0.2,0-0.4-0.1-0.5-0.2c0,0-0.1-0.1-0.1-0.1c-1.8-2.5-7.5-5.9-15.9-9.5c-0.4-0.2-0.6-0.6-0.4-1
						c0.2-0.4,0.6-0.6,1-0.4c6.1,2.6,13.9,6.4,16.5,10c0.1,0.1,0.2,0.3,0.2,0.5C475.9,433.1,475.5,433.4,475.1,433.4z"/>
					<path d="M468.7,421.1c-0.1,0-0.2,0-0.3-0.1l0,0c-0.4-0.2-0.6-0.6-0.4-1s0.5-0.6,0.9-0.5c0.1,0,0.2,0.1,0.2,0.1
						c0.4,0.2,0.5,0.6,0.3,1C469.2,420.9,469,421.1,468.7,421.1z"/>
					<path d="M468.3,420.9c-0.1,0-0.2,0-0.3-0.1c0,0,0,0,0,0c-0.1-0.1-0.3-0.1-0.5-0.2c-2.4-1.1-5-1.8-7.6-2.1
						c-0.4,0-0.7-0.4-0.7-0.8s0.4-0.7,0.8-0.7c2.8,0.3,5.6,1,8.1,2.2c0.2,0.1,0.3,0.2,0.5,0.2c0.4,0.2,0.5,0.6,0.4,1
						C468.9,420.8,468.6,420.9,468.3,420.9z"/>
				</g>
			</g>
			<g id="head_1_">
				<path d="M318.7,295.7c-0.2,0-0.4,0-0.6,0c-0.5,0-1.1-0.1-1.6-0.3c-4.3-1.3-6.7-5.8-5.4-10c1.2-4.1,5.5-6.6,9.6-5.5
					c0.1,0,0.2,0.1,0.4,0.1c1.2,0.3,2,0.9,2.3,1.1c0.9,0.6,1.7,1.5,2.3,2.4c0.2,0.4,0.1,0.8-0.2,1c-0.4,0.2-0.8,0.1-1-0.2
					c-0.5-0.8-1.1-1.5-1.9-2c-0.3-0.2-0.9-0.6-1.9-0.9c-0.1,0-0.2-0.1-0.3-0.1c-3.4-0.8-6.9,1.1-7.9,4.5c-0.5,1.7-0.3,3.5,0.5,5
					c0.8,1.5,2.2,2.7,3.9,3.2c0.4,0.1,0.9,0.2,1.3,0.2c0.5,0,0.9,0,1.1,0c0.3,0,0.5-0.1,0.7-0.1c0.4-0.1,0.8,0.2,0.9,0.6
					c0.1,0.4-0.2,0.8-0.6,0.9c-0.2,0-0.5,0.1-0.8,0.1C319.2,295.7,319,295.7,318.7,295.7z"/>
				<path id="hair_1_" d="M339.1,270.2l-18,1.9l-0.7,8.5c-3.8-0.9-7.6,1.3-8.7,5c-1.2,3.9,1.1,7.9,4.9,9.1c0.9,0.3,1.8,0.3,2.7,0.3
					l-0.6,7.8h-12.4c0.4-1.3,0.9-2.5,1.3-3.8h0c-1.6-2.4-4-6.9-4.2-12.8c-0.3-10.4,6.5-23.6,17.8-25
					C328.5,260.4,334.8,264.7,339.1,270.2z"/>
				<g id="face_1_">
					<path d="M325.7,318.4c-0.1,0-0.1,0-0.2,0c-0.4-0.1-0.7-0.5-0.6-0.9l1-4.2c0.1-0.4,0.5-0.6,0.9-0.6c0.8,0.2,1.6,0.2,2.4,0.2
						c1,0,2-0.1,2.9-0.4c3.5-1,6.8-4,9.2-8.4c3.9-7,4.9-16,2.6-23.3c-1.1-3.5-3-7.1-5.4-10.3c-2.9-3.7-8.9-9.7-17.1-8.6
						c-8.6,1.1-17.6,11-17.2,24.2c0.1,4.2,1.5,8.5,4,12.4c0,0,0,0,0,0.1c0.1,0.2,0.2,0.5,0.1,0.7c-0.4,1.3-0.9,2.5-1.3,3.8
						l-3.5,10.2c-0.1,0.4-0.6,0.6-1,0.5c-0.4-0.1-0.6-0.6-0.5-1l3.5-10.2c0.4-1.1,0.8-2.3,1.2-3.4c-2.6-4-4-8.5-4.1-12.9
						c-0.2-5.4,1.6-11.5,4.7-16.3c3.5-5.4,8.4-8.8,13.8-9.4c9-1.1,15.4,5.3,18.5,9.2c2.5,3.3,4.6,7.1,5.7,10.8
						c2.4,7.7,1.3,17.1-2.7,24.5c-2.6,4.8-6.2,8-10.1,9.1c-1.1,0.3-2.1,0.4-3.3,0.4c-0.7,0-1.3-0.1-1.9-0.1l-0.8,3.5
						C326.4,318.2,326,318.4,325.7,318.4z"/>
					<path d="M326.1,315.9c-1.5-0.6-4.1-2-6.4-4.6c-1.7-1.9-2.7-3.9-3.3-5.2c1.3,1.5,3.3,3.5,6.3,5.1c1.5,0.8,2.9,1.4,4.1,1.7
						c-0.1,0.4-0.2,0.8-0.3,1.2C326.4,314.8,326.3,315.4,326.1,315.9z"/>
				</g>
			</g>
			<g id="hand_l_1_">
				<path d="M159.1,499.8c-0.3,0-0.6,0-0.8-0.1c-0.4-0.1-1.2-0.4-1.8-1.3c-1.3-1.9-0.3-5.2,2.5-8c0.3-0.3,0.8-0.3,1.1,0
					c0.3,0.3,0.3,0.8,0,1.1c-2.5,2.5-3.1,5-2.3,6.1c0.3,0.5,0.9,0.7,1,0.7c0.4,0.1,1.5,0.4,5.1-2.8c2.4-2.1,3.9-4,4.4-4.6
					c1.9-2.3,3.7-4.8,5.3-7.4c0.2-0.3,0.7-0.4,1-0.2c0.3,0.2,0.4,0.7,0.2,1c-1.7,2.6-3.5,5.1-5.4,7.5c-0.5,0.7-2.1,2.6-4.6,4.8
					C161.9,499.2,160.2,499.8,159.1,499.8z"/>
				<path d="M171.6,505.1c-1.7,0-2.5-0.8-2.6-0.9c-1.4-1.5-0.8-3.8,0.3-7.4l0.4-1.2c0.9-3.1,1.7-6.3,2.3-9.6
					c0.1-0.4,0.5-0.7,0.9-0.6s0.7,0.5,0.6,0.9c-0.7,3.3-1.5,6.6-2.4,9.7l-0.4,1.2c-0.9,3-1.5,5.1-0.7,5.9c0,0,0.6,0.6,1.9,0.4
					c0.8-0.1,3.6-1.8,8.6-21.4c0-0.2,0.1-0.3,0.1-0.5l0.2-0.6c0.1-0.6,0.3-1.2,0.4-1.8l0.1-0.3c0-0.2,0.1-0.3,0.1-0.5c0,0,0,0,0-0.1
					c0.5-2.1,1-4.4,1.6-6.8c0.1-0.4,0.5-0.7,0.9-0.6c0.4,0.1,0.7,0.5,0.6,0.9c-0.5,2.4-1.1,4.7-1.6,6.8c0,0,0,0,0,0
					c0,0.2-0.1,0.4-0.1,0.6l-0.1,0.3c-0.1,0.6-0.3,1.2-0.4,1.8l-0.2,0.7c0,0.2-0.1,0.3-0.1,0.5c-5,19.9-8.1,22.4-9.9,22.6
					C172,505.1,171.8,505.1,171.6,505.1z"/>
				<path d="M155,493.3c-0.7,0-1.2-0.2-1.7-0.5c-0.2-0.1-1.4-0.9-1.7-2.3c-0.5-2.3,2-4.3,4.3-6.3l0.4-0.3c1.9-1.6,3.7-3.1,5.2-4.4
					c-0.4,0.2-0.9,0.5-1.3,0.7c-7.9,4.3-10,4.6-11.3,3.6c-0.7-0.6-1.1-1.5-1.1-2.7c0-2.7,2.3-4.3,8.6-8.5l0.2-0.2
					c1-0.6,3.3-2.2,6.6-4.5c0.1-2.5,0.8-6.1,2.9-9.8c0.7-1.2,1.5-2.3,2.4-3.4c0.2-0.3,0.5-0.6,0.8-0.9c0.3-0.3,0.8-0.3,1.1,0
					c0.3,0.3,0.3,0.8,0,1.1c-0.2,0.3-0.5,0.5-0.7,0.8c-0.8,1-1.6,2-2.2,3.2c-2,3.6-2.6,7.2-2.7,9.5c0,0.2-0.1,0.5-0.3,0.6
					c-3.5,2.4-5.9,4-6.9,4.7l-0.2,0.2c-5.6,3.8-8,5.4-7.9,7.2c0,0.7,0.2,1.3,0.6,1.5c0.8,0.6,4-0.6,9.7-3.7c1.5-0.8,2.8-1.6,3.8-2.2
					c2.6-1.5,3-1.8,3.5-1.1c0.4,0.6,0.7,0.9-9.5,9.4l-0.4,0.3c-1.9,1.6-4,3.3-3.8,4.8c0.2,0.8,1,1.3,1,1.3c0.9,0.6,2.7,0.1,5.1-1.3
					c4.1-2.4,9.1-6.9,11.7-9.4c0.3-0.3,0.8-0.3,1.1,0c0.3,0.3,0.3,0.8,0,1.1c-2.7,2.5-7.8,7.1-12,9.6
					C157.9,492.7,156.3,493.3,155,493.3z"/>
				<path d="M185.7,485c-0.5,0-0.9-0.1-1.4-0.3c-1-0.4-1.7-1.2-2.1-2.6c-0.1-0.3-0.2-0.7-0.3-1c-0.1-0.6-0.2-1.2-0.3-1.9l-0.1-0.6
					c0-0.4,0.3-0.8,0.7-0.8c0.4,0,0.7,0.3,0.7,0.7l0.1,0.5c0.1,0.7,0.2,1.2,0.3,1.8c0.1,0.3,0.2,0.6,0.3,0.9
					c0.3,0.9,0.8,1.5,1.3,1.7c0.5,0.2,1.2,0.2,1.7-0.1c1.8-1,1.4-5.2,1.2-8c-0.1-0.7-0.1-1.3-0.1-2c0-0.6-0.1-1.3-0.1-2l-0.1-1.4
					c-0.1-0.7-0.1-1.5-0.2-2.3c-0.1-0.8-0.1-1.6-0.2-2.4c0-0.4,0.3-0.8,0.7-0.8c0.4-0.1,0.8,0.3,0.8,0.7c0.1,0.9,0.1,1.7,0.2,2.4
					c0.1,0.8,0.1,1.6,0.2,2.3l0.1,1.4c0,0.7,0.1,1.3,0.1,2c0,0.7,0.1,1.3,0.1,1.9c0.3,3.5,0.6,8.1-2,9.5
					C186.9,484.8,186.3,485,185.7,485z"/>
				<path d="M188.3,471.2c-1.2-1-2.4-2-3.7-3c-5.2-4.2-11-8.9-15.6-12.8c0.2-0.3,0.5-0.6,0.7-0.8c3.3,2,7.9,4.6,12.2,7
					c0.2,0.1,0.3,0.2,0.5,0.3c0,0,0,0,0.1,0c1.1,0.6,2.1,1.2,3.1,1.7v0c0.8,0.5,1.6,0.9,2.4,1.3c0.1,0.9,0.1,1.7,0.2,2.4
					c0.1,0.8,0.1,1.6,0.2,2.3C188.2,470.3,188.3,470.7,188.3,471.2z"/>
			</g>
			<g id="legs_1_">
				<path d="M347,669.6C346.9,669.6,346.9,669.6,347,669.6c-8.5-0.3-17.1-0.5-25.7-0.7c-8.9-0.2-18-0.4-26.9-0.5
					c-0.2,0-0.4-0.1-0.6-0.3s-0.2-0.4-0.1-0.6l34.4-132.4c-16.1-7.8-32.6-15.1-49.2-21.7c-16.6-6.7-33.7-12.8-50.8-18.3
					c-0.4-0.1-0.6-0.5-0.5-0.9c0.1-0.4,0.5-0.6,0.9-0.5c17.1,5.5,34.2,11.7,50.9,18.4c16.8,6.7,33.6,14.1,49.8,22
					c0.3,0.2,0.5,0.5,0.4,0.9l-34.3,132c8.6,0.1,17.4,0.3,26,0.5c8.4,0.2,16.8,0.4,25.1,0.7c16.5-66.1,27-112.8,31-132.7
					c0.7-3.6,2.4-11.9-0.8-21c-3-8.5-9.2-14.8-25.6-25.7c-13.4-8.9-27.8-17.1-42.6-24.3c-0.4-0.2-0.5-0.6-0.4-1s0.6-0.5,1-0.3
					c14.9,7.2,29.3,15.4,42.8,24.4c16.7,11.1,23.1,17.6,26.2,26.5c3.3,9.5,1.6,18.1,0.9,21.8c-4,20-14.5,66.9-31.1,133.4
					C347.6,669.4,347.3,669.6,347,669.6z"/>
				<path d="M175.3,664.9c-0.1,0-0.2,0-0.3,0c-8.1-3-16.2-6.2-24.2-9.5c-8.4-3.5-16.9-7.3-25.2-11.2c-0.2-0.1-0.3-0.2-0.4-0.4
					s-0.1-0.4,0-0.6l101-205.8c0.2-0.4,0.6-0.5,1-0.3c0.4,0.2,0.5,0.6,0.3,1L127,643.1c8.1,3.8,16.3,7.5,24.5,10.9
					c7.7,3.2,15.6,6.3,23.5,9.2l77.8-159.7c0.2-0.4,0.6-0.5,1-0.3c0.4,0.2,0.5,0.6,0.3,1L176,664.5
					C175.9,664.7,175.6,664.9,175.3,664.9z"/>
				<path d="M158.5,658.4c-0.1,0-0.2,0-0.3-0.1c-0.4-0.2-0.5-0.6-0.3-1l77.5-159.9c0.2-0.4,0.6-0.5,1-0.3c0.4,0.2,0.5,0.6,0.3,1
					L159.2,658C159,658.2,158.8,658.4,158.5,658.4z"/>
				<path d="M326.4,669.1c-0.4,0-0.8-0.3-0.8-0.7v0c0-0.1,0-0.1,0-0.2c9.4-41.1,17.9-82.2,24.5-118.9c1.6-9,3.6-20.2-2.4-29.8
					c-4.3-6.8-10.2-9.2-38.9-20.7c-4.6-1.9-9.8-4-15.7-6.3c-14.1-5.7-22.9-10.6-25.9-18.3c-1.5-3.7-1.8-7.8,0.3-19
					c0.3-1.3,0.5-2.7,0.9-4.1c0.1-0.4,0.5-0.7,0.9-0.6c0.4,0.1,0.7,0.5,0.6,0.9c-0.3,1.4-0.6,2.8-0.8,4.1
					c-2.1,10.8-1.8,14.7-0.4,18.2c2.8,7.2,11.3,11.8,25.1,17.4c5.9,2.4,11,4.5,15.6,6.3c29.1,11.7,35.1,14.2,39.6,21.3
					c6.4,10.1,4.2,22.1,2.6,30.9c-6.6,36.6-15.1,77.8-24.5,118.9C327.1,668.8,326.8,669.1,326.4,669.1z"/>
			</g>
		</g>
	</g>
</g>
</svg>
