<?xml version="1.0" encoding="utf-8"?>
<!-- Generator: Adobe Illustrator 22.1.0, SVG Export Plug-In . SVG Version: 6.00 Build 0)  -->
<svg version="1.1" xmlns="http://www.w3.org/2000/svg" xmlns:xlink="http://www.w3.org/1999/xlink" x="0px" y="0px"
	 viewBox="0 0 1138.6 647.4" style="enable-background:new 0 0 1138.6 647.4;" xml:space="preserve">
<style type="text/css">
	.st0{fill:#9050A6;}
	.st1{fill:#FEE200;}
</style>
<g id="background">
	<g id="background_1_">
		<path d="M87.5,196.7C87.5,196.7,87.5,196.7,87.5,196.7l-13.8-0.7c-0.4,0-0.7-0.4-0.7-0.8l0.7-13.7c0-0.2,0.1-0.4,0.2-0.5
			c0.1-0.1,0.3-0.2,0.5-0.2l13.7,0.7c0.4,0,0.7,0.4,0.7,0.8L88.3,196c0,0.2-0.1,0.4-0.2,0.5C87.9,196.6,87.7,196.7,87.5,196.7z
			 M74.6,194.5l12.2,0.7l0.7-12.2l-12.2-0.7L74.6,194.5z"/>
		
			<rect x="634.9" y="558.9" transform="matrix(0.6085 -0.7936 0.7936 0.6085 -198.5472 733.4227)" class="st0" width="18.1" height="18.1"/>
		<path d="M937.4,114.1c-0.2,0-0.3-0.1-0.5-0.2c-0.2-0.1-0.3-0.3-0.3-0.5l-1.3-9c-0.1-0.4,0.2-0.8,0.6-0.8l9-1.3
			c0.2,0,0.4,0,0.6,0.1c0.2,0.1,0.3,0.3,0.3,0.5l1.3,9c0.1,0.4-0.2,0.8-0.6,0.8l-9,1.3C937.4,114.1,937.4,114.1,937.4,114.1z
			 M936.9,105l1.1,7.5l7.5-1.1l-1.1-7.5L936.9,105z"/>
		<path d="M459.1,195.3c-0.1,0-0.2,0-0.3,0l-8.5-3.3c-0.2-0.1-0.3-0.2-0.4-0.4c-0.1-0.2-0.1-0.4,0-0.6l3.3-8.5
			c0.1-0.4,0.6-0.6,1-0.4l8.5,3.3c0.4,0.1,0.6,0.6,0.4,1l-3.3,8.5c-0.1,0.2-0.2,0.3-0.4,0.4C459.3,195.3,459.2,195.3,459.1,195.3z
			 M451.6,190.9l7.1,2.7l2.7-7.1l-7.1-2.7L451.6,190.9z"/>
		<path d="M83.7,626.5c-0.1,0-0.2,0-0.3,0l-8.5-3.3c-0.4-0.1-0.6-0.6-0.4-1l3.3-8.5c0.1-0.2,0.2-0.3,0.4-0.4s0.4-0.1,0.6,0l8.5,3.3
			c0.4,0.1,0.6,0.6,0.4,1l-3.3,8.5c-0.1,0.2-0.2,0.3-0.4,0.4C83.9,626.5,83.8,626.5,83.7,626.5z M76.2,622.1l7.1,2.7l2.7-7.1
			l-7.1-2.7L76.2,622.1z"/>
		<circle class="st0" cx="790.4" cy="13.7" r="13.7"/>
		<circle class="st0" cx="313.9" cy="641.5" r="5.9"/>
		<circle class="st0" cx="1098" cy="306.4" r="5.9"/>
		<path d="M319.7,151.8c-0.2,0-0.3-0.1-0.5-0.2c-0.3-0.3-0.4-0.7-0.1-1.1l10.7-13.4c0.3-0.3,0.7-0.4,1.1-0.1
			c0.3,0.3,0.4,0.7,0.1,1.1l-10.7,13.4C320.2,151.7,320,151.8,319.7,151.8z"/>
		<path d="M102.9,54.8c-0.2,0-0.5-0.1-0.6-0.3L93,39.9c-0.2-0.3-0.1-0.8,0.2-1c0.3-0.2,0.8-0.1,1,0.2l9.2,14.5
			c0.2,0.3,0.1,0.8-0.2,1C103.1,54.7,103,54.8,102.9,54.8z"/>
		<path d="M474.3,51.8c-0.1,0-0.3,0-0.4-0.1L459,43.1c-0.4-0.2-0.5-0.7-0.3-1c0.2-0.4,0.7-0.5,1-0.3l14.9,8.5c0.4,0.2,0.5,0.7,0.3,1
			C474.8,51.6,474.5,51.8,474.3,51.8z"/>
		<path d="M489.7,612.7c-0.2,0-0.5-0.1-0.6-0.3c-0.2-0.3-0.1-0.8,0.2-1l14.4-9.4c0.3-0.2,0.8-0.1,1,0.2c0.2,0.3,0.1,0.8-0.2,1
			l-14.4,9.4C490,612.7,489.8,612.7,489.7,612.7z"/>
		<path d="M134.4,534.5c-0.1,0-0.2,0-0.2,0c-0.4-0.1-0.6-0.5-0.5-0.9l5.2-16.4c0.1-0.4,0.5-0.6,0.9-0.5c0.4,0.1,0.6,0.5,0.5,0.9
			l-5.2,16.4C135,534.3,134.7,534.5,134.4,534.5z"/>
		<path d="M23.7,349.2c-0.3,0-0.5-0.2-0.7-0.4l-7.6-15.4c-0.2-0.4,0-0.8,0.3-1c0.4-0.2,0.8,0,1,0.3l7.6,15.4c0.2,0.4,0,0.8-0.3,1
			C23.9,349.2,23.8,349.2,23.7,349.2z"/>
		<path d="M1006.9,498.6c-0.3,0-0.5-0.1-0.6-0.4l-9.1-14.6c-0.2-0.4-0.1-0.8,0.2-1c0.4-0.2,0.8-0.1,1,0.2l9.1,14.6
			c0.2,0.4,0.1,0.8-0.2,1C1007.2,498.6,1007.1,498.6,1006.9,498.6z"/>
		<path d="M834.4,526c-0.1,0-0.2,0-0.3-0.1c-0.4-0.2-0.5-0.6-0.4-1l7-15.7c0.2-0.4,0.6-0.5,1-0.4c0.4,0.2,0.5,0.6,0.4,1l-7,15.7
			C835,525.8,834.7,526,834.4,526z"/>
		<path d="M774.1,621.7c-0.3,0-0.5-0.1-0.6-0.4c-0.2-0.4-0.1-0.8,0.3-1l14.8-8.6c0.4-0.2,0.8-0.1,1,0.3c0.2,0.4,0.1,0.8-0.3,1
			l-14.8,8.6C774.3,621.6,774.2,621.7,774.1,621.7z"/>
		<path d="M531.2,443.4c-0.2,0-0.4-0.1-0.6-0.3l-10.8-13.4c-0.3-0.3-0.2-0.8,0.1-1.1c0.3-0.3,0.8-0.2,1.1,0.1l10.8,13.4
			c0.3,0.3,0.2,0.8-0.1,1.1C531.5,443.3,531.4,443.4,531.2,443.4z"/>
		<path d="M858.8,405.7c-0.3,0-0.6-0.2-0.7-0.4c-0.2-0.4,0-0.8,0.4-1l15.7-6.9c0.4-0.2,0.8,0,1,0.4c0.2,0.4,0,0.8-0.4,1l-15.7,6.9
			C859,405.6,858.9,405.7,858.8,405.7z"/>
		<path d="M1031.2,214.5c-0.1,0-0.2,0-0.3-0.1c-0.4-0.2-0.6-0.6-0.4-1l6.5-15.9c0.2-0.4,0.6-0.6,1-0.4c0.4,0.2,0.6,0.6,0.4,1
			l-6.5,15.9C1031.7,214.3,1031.5,214.5,1031.2,214.5z"/>
		<path d="M808.5,152.9c-0.3,0-0.6-0.2-0.7-0.4l-7.2-15.6c-0.2-0.4,0-0.8,0.4-1c0.4-0.2,0.8,0,1,0.4l7.2,15.6c0.2,0.4,0,0.8-0.4,1
			C808.7,152.8,808.6,152.9,808.5,152.9z"/>
		<path d="M1048.9,58.4c-0.1,0-0.2,0-0.3-0.1l-15.6-7.3c-0.4-0.2-0.5-0.6-0.4-1c0.2-0.4,0.6-0.5,1-0.4l15.6,7.3
			c0.4,0.2,0.5,0.6,0.4,1C1049.5,58.2,1049.2,58.4,1048.9,58.4z"/>
		<circle class="st0" cx="170.4" cy="108.3" r="3.3"/>
		<path d="M650.6,115.6c-2.2,0-4-1.8-4-4s1.8-4,4-4s4,1.8,4,4S652.8,115.6,650.6,115.6z M650.6,109c-1.4,0-2.5,1.1-2.5,2.5
			s1.1,2.5,2.5,2.5s2.5-1.1,2.5-2.5S652,109,650.6,109z"/>
		<path d="M414.5,553.9c-2.2,0-4-1.8-4-4s1.8-4,4-4s4,1.8,4,4S416.7,553.9,414.5,553.9z M414.5,547.3c-1.4,0-2.5,1.1-2.5,2.5
			s1.1,2.5,2.5,2.5s2.5-1.1,2.5-2.5S415.9,547.3,414.5,547.3z"/>
		<path d="M1048.9,623.9c-2.2,0-4-1.8-4-4s1.8-4,4-4s4,1.8,4,4S1051.1,623.9,1048.9,623.9z M1048.9,617.4c-1.4,0-2.5,1.1-2.5,2.5
			s1.1,2.5,2.5,2.5s2.5-1.1,2.5-2.5S1050.3,617.4,1048.9,617.4z"/>
	</g>
</g>
<g id="general_1_">
	<g id="general_2_">
		<g id="circle_1_1_">
			<path d="M380.8,505.9C304.8,505.9,243,444,243,368c0-76,61.8-137.9,137.9-137.9S518.7,292,518.7,368
				C518.7,444,456.8,505.9,380.8,505.9z M380.8,231.7c-75.2,0-136.4,61.2-136.4,136.4c0,75.2,61.2,136.4,136.4,136.4
				S517.2,443.2,517.2,368C517.2,292.8,456,231.7,380.8,231.7z"/>
			<path d="M380.8,488c-66.2,0-120-53.8-120-120c0-66.2,53.8-120,120-120s120,53.8,120,120C500.8,434.2,447,488,380.8,488z
				 M380.8,249.5c-65.3,0-118.5,53.2-118.5,118.5c0,65.3,53.2,118.5,118.5,118.5S499.3,433.4,499.3,368
				C499.3,302.7,446.2,249.5,380.8,249.5z"/>
			<g id="eye_1_">
				<path d="M385.7,395.5c-8.7,0-17.3-0.8-25.8-2.4c-24.2-4.6-47.5-15.6-69.3-32.9c-0.2-0.1-0.3-0.4-0.3-0.6c0-0.2,0.1-0.5,0.3-0.6
					c0.2-0.2,23.3-16.5,57.5-23.8c31.6-6.8,79.4-7.1,127.8,29.8c0.2,0.1,0.3,0.4,0.3,0.6c0,0.2-0.1,0.5-0.3,0.6
					c-0.2,0.2-22.8,17.6-56.8,25.4C407.9,394.2,396.7,395.5,385.7,395.5z M292.3,359.7c21.4,16.8,44.2,27.5,67.8,32
					c19.1,3.6,38.9,3.1,58.6-1.5c30.1-7,51.2-21.5,55.4-24.6c-47.7-36-94.7-35.7-125.8-29C318.1,343.2,296.7,356.7,292.3,359.7z"/>
				<circle cx="383.2" cy="363.6" r="31.2"/>
			</g>
		</g>
		<g id="circle2_1_">
			<path d="M697.4,488c-66.2,0-120-53.8-120-120c0-66.2,53.8-120,120-120c28.6,0,56.3,10.2,77.9,28.7c1.2,1,2.3,2,3.3,3
				c1.2,1.1,2.2,2.1,3.2,3c0.2,0.2,0.3,0.4,0.2,0.7c0,0.2-0.2,0.4-0.4,0.5c-0.4,0.2-0.8,0.4-1.1,0.5c-2.7,1.3-3.9,1.9-4.1,2.9
				c-0.1,0.5,0,1.4,0.5,1.8c0.8,0.7,3.5,0,8.3-2.2c0.3-0.1,0.6-0.1,0.9,0.2c0.4,0.4,0.7,0.8,1.1,1.2c0.1,0.2,0.2,0.4,0.2,0.6
				c0,0.2-0.2,0.4-0.3,0.5l-1.4,0.9c-1.4,0.9-3.3,2.2-3.3,3.7c0,0.7,0.3,1.5,0.9,1.9c1.1,0.6,3.2-0.8,5.6-2.4
				c0.4-0.3,0.8-0.6,1.2-0.8c0.3-0.2,0.8-0.2,1,0.1c0.7,0.9,1.5,1.9,2.4,3.1c0.2,0.3,0.2,0.7,0,1c-2.1,2.3-3.1,3.5-2.9,4.4
				c0.2,0.5,0.6,1,1.2,1.1c0.9,0.2,2-0.7,3.6-2.4c0.2-0.2,0.4-0.2,0.6-0.2c0.2,0,0.4,0.1,0.6,0.3c13.7,20,21,43.5,21,67.8
				C817.4,434.2,763.6,488,697.4,488z M697.4,249.5c-65.3,0-118.5,53.2-118.5,118.5c0,65.3,53.2,118.5,118.5,118.5
				S815.9,433.4,815.9,368c0-23.8-7-46.6-20.2-66.2c-1.5,1.5-2.9,2.5-4.4,2.1c-1-0.3-1.9-1.1-2.2-2.1c-0.5-1.7,0.7-3.1,2.8-5.4
				c-0.6-0.7-1.1-1.4-1.6-2c-0.2,0.1-0.4,0.3-0.6,0.4c-2.9,2-5.2,3.5-7.1,2.5c-1.2-0.6-1.7-2.1-1.7-3.2c0-2.4,2.4-3.9,4-5l0.7-0.5
				c0,0-0.1-0.1-0.1-0.1c-6.3,2.8-8.2,2.7-9.4,1.7c-1-0.8-1.2-2.2-1-3.2c0.3-1.7,1.9-2.5,4.9-4c0,0,0.1,0,0.1-0.1
				c-0.7-0.7-1.5-1.4-2.3-2.2c-1-0.9-2.1-1.9-3.3-2.9C753,259.6,725.6,249.5,697.4,249.5z"/>
			<path d="M697.4,505.9c-76,0-137.9-61.8-137.9-137.9s61.8-137.9,137.9-137.9c37.4,0,72.4,14.7,98.6,41.5c0.2,0.2,0.3,0.5,0.2,0.8
				s-0.3,0.5-0.6,0.5c-7.4,1.2-11.9,1.9-15,2.2c-1.2,0.2-4.2,0.5-4.9,1.9c1,0.9,1.9,1.7,2.8,2.5c2.5,0,6.3-0.8,10.2-1.7
				c1.8-0.4,3.4-0.8,5-1.3c0.4-0.1,0.8,0.1,0.9,0.4c0.1,0.4,0,0.8-0.3,0.9c-2.2,1.2-7.1,3.5-10.6,5.1l-2.1,1
				c-0.4,0.2-0.8,0.4-1.1,0.5c-2.7,1.3-3.9,1.9-4.1,2.9c-0.1,0.5,0,1.4,0.5,1.8c0.8,0.7,3.5,0,8.3-2.2c1.3-0.6,2.7-1.2,4.1-1.9
				c2.9-1.4,5.3-2.7,6.7-3.5c0.4-0.2,0.8-0.1,1,0.3c0.2,0.3,0.1,0.8-0.2,1l-1.6,1.1c-3,2-5.7,3.8-8.2,5.5l-1.4,0.9
				c-1.4,0.9-3.3,2.2-3.3,3.7c0,0.7,0.3,1.5,0.9,1.9c1.1,0.6,3.2-0.8,5.6-2.4c0.4-0.3,0.8-0.6,1.2-0.8c1.8-1.3,3.4-2.3,4.6-3.2
				c4.6-3.2,5.1-3.5,5.7-2.9c0.5,0.4,1,0.9-3.9,6.7c-1,1.2-1.9,2.2-2.7,3.1l-0.4,0.4c-2.1,2.3-3.1,3.5-2.9,4.5
				c0.2,0.5,0.6,1,1.2,1.1c0.9,0.2,2-0.7,3.6-2.4c0.4-0.4,0.8-0.9,1.3-1.4c0.8-0.8,1.6-1.7,2.6-2.7c1.9-2,3.8-3.8,5.8-5.5
				c0.1-0.1,0.4-0.2,0.5-0.2c1.7,0,3.4-0.1,5-0.3c0.3,0,0.6,0.1,0.7,0.3c15.7,22.9,24,49.8,24,77.7
				C835.3,444,773.4,505.9,697.4,505.9z M697.4,231.7C622.2,231.7,561,292.8,561,368c0,75.2,61.2,136.4,136.4,136.4
				S833.8,443.2,833.8,368c0-27.4-8.1-53.9-23.5-76.5c-1.5,0.2-3,0.3-4.5,0.3c-1.9,1.6-3.7,3.4-5.5,5.2c-1,1-1.8,1.9-2.6,2.7
				c-0.5,0.5-0.9,1-1.3,1.4c-1.8,1.9-3.3,3.3-5.1,2.8c-1-0.3-1.9-1.1-2.2-2.1c-0.6-1.8,0.9-3.3,3.2-5.9l0.4-0.4
				c0.8-0.9,1.7-1.9,2.7-3.1c0.8-1,1.9-2.3,2.7-3.4c-0.7,0.5-1.6,1.1-2.5,1.7c-1.3,0.9-2.8,2-4.7,3.2c-0.4,0.3-0.8,0.5-1.2,0.8
				c-2.9,2-5.2,3.5-7.1,2.5c-1.2-0.6-1.7-2.1-1.7-3.2c0-2.4,2.4-3.9,4-5l1.4-0.9c-0.1,0-0.2,0.1-0.3,0.1c-6.7,3-8.7,3-9.9,1.9
				c-1-0.8-1.2-2.2-1-3.2c0.3-1.7,1.9-2.5,4.9-4c0.3-0.1,0.7-0.3,1.1-0.5l2.1-1c1.3-0.6,2.8-1.3,4.2-1.9c-3.6,0.8-6.8,1.4-9.2,1.3
				c-0.2,0-0.3-0.1-0.5-0.2c-1-0.9-2.1-1.9-3.3-2.9c-0.2-0.2-0.3-0.4-0.3-0.7c0-0.2,0.1-0.3,0.1-0.5c0.8-2.4,4.4-2.8,6.1-3
				c2.9-0.4,7-1,13.6-2C768.2,245.9,733.9,231.7,697.4,231.7z"/>
			<g id="eye2_1_">
				<path d="M702.3,395.5c-8.7,0-17.3-0.8-25.8-2.4c-24.2-4.6-47.5-15.6-69.3-32.9c-0.2-0.1-0.3-0.4-0.3-0.6s0.1-0.5,0.3-0.6
					c0.2-0.2,23.3-16.5,57.5-23.8c31.6-6.8,79.4-7.1,127.8,29.8c0.2,0.1,0.3,0.4,0.3,0.6c0,0.2-0.1,0.5-0.3,0.6
					c-0.2,0.2-22.8,17.6-56.8,25.4C724.5,394.2,713.3,395.5,702.3,395.5z M608.9,359.7c21.4,16.8,44.2,27.5,67.8,32
					c19.1,3.6,38.9,3.1,58.6-1.5c30.1-7,51.2-21.5,55.4-24.6c-47.7-36-94.7-35.7-125.8-29C634.7,343.1,613.3,356.7,608.9,359.7z"/>
				<circle cx="699.8" cy="363.6" r="31.2"/>
			</g>
		</g>
		<path id="line_1_" d="M535.5,207.7c-27.1,6.6-43.9,34.4-37.2,61.4c5.5-1.4,11-2.7,16.6-4.1c-4.3-17.7,6.4-35.8,23.8-40
			c17.4-4.3,35.3,6.8,39.6,24.5c6.2-1.5,12.5-3.1,18.7-4.6C590.3,217.8,562.6,201,535.5,207.7z"/>
		<g id="man_1_1_">
			<path id="tshirt_3_" class="st1" d="M160.5,251.9c0,0-3.1,22.4-1.6,43.7c1.3,18.6,2.5,27.9,7.9,32.7c0.8,0.7,1.7,1.4,2.6,1.9
				c6.5,3.9,15.8,5.6,47-4c5.6-1.7,13.1-4.2,22-7.5c1.1-4.5,7.4-23.2,9.1-27.1c-8.7,1.6-17.4,3.2-26.2,4.8
				c-10.4,1.9-20.7,3.7-31,5.4c0.3-2.4,0.6-5.5,1.1-9.2c0.6-4.8,1.1-8.6,1.3-10.8c0,0,0.1-0.9,0.2-1.7c2.7-20.2,7.7-36.6-0.3-50.1
				c-0.3-0.4-0.9-1.4-1.8-2.6c0.6-1.4,1.3-2.9,1.9-4.3c-5.8-3.5-11.7-7.1-17.5-10.6c-0.7,1.2-1.4,2.5-2.1,3.7
				c-4.2,0.3-10.1,1.1-16.7,3.7c-21.6,8.5-31.6,29-38.5,42.7c-13.4,26.7-28.4,55.4-46.4,89.4c12.7,2,25.4,3.9,38.3,5.8
				c16.9,2.5,33.6,4.9,50.2,7.1c1.6-6.2,3.3-12.4,5-18.7c1.5-5.4,2.9-10.8,4.4-16.2c0,0,0,0,0,0"/>
			<g id="shoes_3_">
				<path d="M260.7,590.3c-10.6,3.6-73.9,2.9-73.9,2.9l2.7-25.3l23.6-0.3c2.7,2.7,8.7,5.4,21.2,6.8
					C265.9,578,271.3,586.7,260.7,590.3z"/>
				<path d="M80.9,589.2c-0.5,1.7-2.9,2.7-6.7,3.3c-11.2,1.9-19.5-0.8-19.5-0.8C30.7,584.1,0,568.6,0,568.6l11-19.3
					c7.9,1.9,15.7,3.7,23.6,5.6c1.6,2.7,6,6.8,16.4,15.6c4.9,4.2,7.4,6.2,8.5,6.8c7.6,3.7,13,1.2,18.3,6
					C78.4,583.8,81.7,586.8,80.9,589.2z"/>
			</g>
			<g id="legs_3_">
				<path d="M185.1,568.7c-0.4,0-0.7-0.3-0.7-0.6l-21-118.7c-19-16.4-35-33.4-46.3-49.1c-4.8-6.6-8.5-12.8-11.3-19
					c-3.7-7.9-6.4-16.3-8.2-25c-0.1-0.4,0.2-0.8,0.6-0.9c0.4-0.1,0.8,0.2,0.9,0.6c1.7,8.5,4.4,16.8,8.1,24.6
					c2.8,6.1,6.5,12.2,11.2,18.7c11.3,15.7,27.2,32.6,46.2,49c0.1,0.1,0.2,0.3,0.2,0.4l21,118.3l33.6-0.4c-2.8-27-6.1-54-9.9-80.4
					c-5.3-37-7.6-45.6-12.5-55.9c-4.3-8.9-12.1-20.6-27.7-43.8l-2.4-3.5c-4.1-6.2-8.3-12.3-12.4-18.3c-0.2-0.3-0.1-0.8,0.2-1
					s0.8-0.1,1,0.2c4.1,6,8.3,12.2,12.5,18.4l2.4,3.5c15.6,23.2,23.4,34.9,27.8,44c5.1,10.5,7.3,19.2,12.7,56.4
					c3.8,26.7,7.2,54.1,10,81.3c0,0.2,0,0.4-0.2,0.6c-0.1,0.2-0.3,0.2-0.6,0.3L185.1,568.7C185.1,568.7,185.1,568.7,185.1,568.7z"/>
				<path d="M117.7,399.8C91.7,451.9,65.8,504,39.9,556.1c-1.8-0.4-3.5-0.8-5.3-1.2c-7.9-1.9-15.7-3.7-23.6-5.6
					c-1.4-0.3-2.8-0.7-4.3-1c24.1-65,48.3-130.1,72.4-195.1c6.4,1,12.8,2,19.1,3c1.1,5.6,2.9,12.2,5.8,19.4
					C108.2,385.9,113.3,393.9,117.7,399.8z"/>
				<path d="M205.4,568.5c-0.4,0-0.7-0.3-0.7-0.7c-3.4-29.1-6.4-55.3-9.2-80.1l-0.1-0.9c-2.5-22.5-3.7-32.8-9.3-46.8
					c-5.4-13.5-12.8-24.5-27.5-46.4l-0.3-0.5c-7.1-10.5-14.4-20.9-21.9-30.9c-0.2-0.3-0.2-0.8,0.2-1c0.3-0.2,0.8-0.2,1,0.2
					c7.5,10,14.8,20.4,21.9,30.9l0.3,0.5c14.8,22,22.2,33,27.7,46.7c5.7,14.2,6.9,24.6,9.4,47.2l0.1,0.9c2.8,24.8,5.8,51,9.2,80.1
					C206.2,568,205.9,568.4,205.4,568.5C205.5,568.5,205.4,568.5,205.4,568.5z"/>
			</g>
			<g id="head_3_">
				<path d="M182.6,208.2C182.6,208.2,182.6,208.2,182.6,208.2c-2-0.2-3.7-1.2-4.9-2.6c-1.2-1.5-1.7-3.3-1.5-5.2
					c0.2-1.9,1.2-3.7,2.8-4.9c0.2-0.2,0.4-0.3,0.7-0.4c0.2-0.1,0.5-0.3,0.7-0.4c0,0,0,0,0,0c0.2-0.1,0.5-0.2,0.7-0.3
					c0,0,0.1,0,0.1,0c0.2-0.1,0.5-0.1,0.7-0.2c0.3,0,0.5-0.1,0.8-0.1c0.4,0,0.8,0,1.3,0c1.9,0.2,3.6,1.1,4.8,2.6
					c1.2,1.5,1.7,3.3,1.5,5.2c0,0.4-0.3,0.7-0.7,0.7s-0.7-0.4-0.7-0.8v0c0.2-1.6-0.2-3-1.2-4.2c-0.9-1.2-2.3-1.9-3.8-2.1
					c-0.3,0-0.7,0-1,0c-0.2,0-0.4,0-0.6,0.1c-0.2,0-0.4,0.1-0.6,0.1c0,0-0.1,0-0.1,0c-0.2,0.1-0.4,0.1-0.6,0.2c0,0,0,0,0,0
					c-0.2,0.1-0.4,0.2-0.6,0.3c-0.2,0.1-0.4,0.2-0.5,0.3c-1.3,0.9-2.1,2.3-2.2,3.9c-0.2,1.5,0.3,2.9,1.2,4.1
					c0.9,1.2,2.3,1.9,3.8,2.1c0.4,0,0.7,0.4,0.7,0.8C183.3,207.9,183,208.2,182.6,208.2z"/>
				<path id="hair_1_" d="M212.2,181.6c0.3,0.3,0.5,0.5,0.6,0.6c-0.6,1.4-2.3,4.6-6,7c-4.6,3-9.4,2.7-10.8,2.6
					c-0.9,1.2-5.2,8.1-6.4,10.1c0.4-3.5-2.1-6.6-5.6-7c-0.5-0.1-0.9,0-1.1,0c-1.6,0.1-2.8,0.8-3.4,1.2c0.8-11.1,8.6-19.6,17.5-20.4
					C204.6,174.8,210.3,179.7,212.2,181.6"/>
				<g id="face_3_">
					<path d="M175.8,213.4c-0.1,0-0.2,0-0.3-0.1c-0.4-0.2-0.5-0.6-0.3-1l3.3-6.8c0.2-0.4,0.6-0.5,1-0.3c0.4,0.2,0.5,0.6,0.3,1
						l-3.3,6.8C176.3,213.2,176.1,213.4,175.8,213.4z"/>
					<path d="M192.5,223.5c-0.1,0-0.2,0-0.4-0.1c-0.4-0.2-0.5-0.7-0.3-1l2.7-4.9c0.2-0.3,0.6-0.5,1-0.3c0.2,0.1,0.4,0.2,0.6,0.3
						c2.6,1.1,6.6,2.2,10.7,0.9c8.7-2.7,14.2-15,11.2-25.4c-1.1-3.9-3.1-7.5-5.8-10.3c-4.8-5.1-11.2-7.1-17.1-5.5
						c-7,2-11.9,9.1-12.2,17.7c0,0.4-0.3,0.7-0.7,0.7c0,0,0,0,0,0c-0.4,0-0.7-0.3-0.7-0.7v0c0.3-9.3,5.6-16.9,13.3-19.1
						c6.4-1.8,13.3,0.4,18.5,5.9c2.9,3,5,6.8,6.2,10.9c3.2,11.1-2.8,24.4-12.2,27.3c-4.5,1.4-8.8,0.2-11.7-1c0,0,0,0,0,0l-2.4,4.3
						C193,223.4,192.7,223.5,192.5,223.5z"/>
					<path d="M196.2,217.7c-0.4,0.4-0.8,0.9-1.2,1.4c-0.6,0.8-1,1.5-1.3,2.1c-1.1-1.3-2.5-3-3.8-5.4c-1-1.9-1.6-3.6-2-5
						c1.1,1.7,3,4.1,6,5.8C194.8,217.1,195.5,217.4,196.2,217.7z"/>
				</g>
			</g>
			<g id="hand_3_">
				<path d="M246.5,295.1c-0.4,0-0.7-0.3-0.7-0.6c-0.1-0.4,0.2-0.8,0.6-0.8c0.7-0.2,1.2-0.3,1.8-0.4c6.8-1.8,12.3-4.8,16.2-9
					c0.3-0.3,0.7-0.8,1.2-1.4c5.8-6.5,9.6-10.1,11.6-9.7c1.1,0.2,1.6,0.9,1.6,0.9c0.8,1,0.5,2.4,0.3,3.1c-0.1,0.4-0.6,0.6-0.9,0.5
					c-0.4-0.1-0.6-0.6-0.5-0.9c0.1-0.3,0.3-1.2,0-1.7c0,0,0,0,0,0c0,0-0.3-0.3-0.8-0.4c-1.1-0.2-4.5,2.9-10.2,9.2
					c-0.5,0.6-0.9,1-1.3,1.4c-4.1,4.4-9.8,7.6-16.9,9.4c-0.6,0.2-1.2,0.3-1.8,0.4c0,0-0.1,0-0.2,0
					C246.5,295.1,246.5,295.1,246.5,295.1z"/>
				<path d="M273.7,276.3c-0.2,0-0.4-0.1-0.5-0.2c-0.3-0.3-0.3-0.8,0-1.1c3-3,5.9-4.2,7.4-3.1c0.6,0.4,0.9,1.1,1,2.2
					c0,0.4-0.3,0.8-0.7,0.8c-0.4,0-0.8-0.3-0.8-0.7c0-0.5-0.2-0.9-0.4-1.1c-0.6-0.4-2.8,0.2-5.5,3
					C274.1,276.2,273.9,276.3,273.7,276.3z"/>
				<path d="M274.9,275.2c-0.2,0-0.4-0.1-0.5-0.2c-0.3-0.3-0.3-0.8,0-1.1c3.3-3.1,6.2-4.3,7.8-3.2c0.5,0.4,0.8,1,0.9,1.8
					c0.1,0.4-0.2,0.8-0.6,0.8c-0.4,0-0.8-0.2-0.8-0.6c0-0.3-0.1-0.6-0.3-0.8c-0.6-0.4-2.8,0.2-5.9,3.1
					C275.3,275.2,275.1,275.2,274.9,275.2z"/>
				<path d="M239.7,315.6c-0.4,0-0.8-0.3-0.8-0.8c0-0.4,0.3-0.7,0.7-0.7c0,0,0.1,0,0.1,0c1.8-0.1,3.7-0.4,5.5-0.9
					c1.2-0.3,2.3-0.7,3.4-1.2c4.9-2.1,8.1-5.4,9.9-7.8c0.3-0.3,0.7-0.4,1.1-0.1c0.3,0.3,0.4,0.7,0.1,1.1c-1.9,2.5-5.3,6-10.5,8.3
					c-1.2,0.5-2.3,0.9-3.6,1.3c-1.9,0.5-3.9,0.8-5.8,0.9C239.8,315.6,239.8,315.6,239.7,315.6z"/>
				<path d="M247.5,294c-1.2,6.8-2.5,13.6-3.7,20.4c-0.6,0.1-1.3,0.3-2,0.4c-0.7,0.1-1.4,0.1-2,0.1c2.3-6.9,4.5-13.7,6.8-20.6
					C246.9,294.2,247.2,294.1,247.5,294z"/>
			</g>
		</g>
		<g id="man_2_1_">
			<g id="shoes_2_">
				<path d="M968.2,571.5c-2.6,1.7-6.6,3.9-11.9,5c-7,1.4-10.3-0.4-14.7,1.3c-3.5,1.3-7.8,4.8-10.9,14.7c15.3,0,27.6,0,36.5,0.1
					c2.6,0,9.4,0.2,18.6,0.2c6,0,10.9-0.1,14.2-0.1c-0.2-5.5-0.4-10.9-0.6-16.4C989,574.6,978.6,573.1,968.2,571.5z"/>
				<path d="M1100.2,558.6c-0.3,12.7-3.9,17.4-7.1,19.2c-4.4,2.5-8.7,0.3-13.7,3.4c-4.5,2.8-6.4,8-7.3,11.7c9.2,0,18.3-0.1,27.5-0.1
					c6.7-3.4,13.5-6.8,20.4-10.1c6.3-3.1,12.5-6,18.7-8.9c-1.7-4.4-10-22.9-12.1-27.4C1117.7,550.6,1109,554.6,1100.2,558.6z"/>
			</g>
			<g id="legs_2_">
				<path d="M1038.3,353.3c1-0.3,1.9-0.7,2.9-1c0,0,59.7,135.6,88.7,201.8c-9.3,2.4-18.6,4.9-27.9,7.3
					c-31-50.6-62.6-100.8-94.6-150.7c-2.1-3.3-4.2-6.6-6.4-9.9c-6.1-9.5-12.3-19-18.5-28.5L1038.3,353.3z"/>
				<path class="st1" d="M1041.1,352.3c-0.9,9.3-3.6,20.7-10.1,31.8c-6.7,11.4-15.7,19.7-20.1,23.5c-1.2,1-2.4,2.1-3.6,3.1
					c-13.6,11.7-30.2,25.7-49.6,41.1c6.6,20.5,34.4,103.8,41.4,124.3c-5.1-0.5-10.4-1.1-15.8-1.8c-5.5-0.7-10.8-1.5-15.9-2.3
					c-2.4-4.3-5.8-10.6-9.9-18.3c-7.1-13.5-11.4-21.9-16.2-31.6c-25-50.6-28.8-66.5-27.7-76.3c0.3-2.2,0.8-3.9,0.9-4.4
					c3.5-14,11.5-24.2,40.5-49c5.8-4.9,13.3-11.2,22.2-18.3"/>
			</g>
			<g id="head_2_">
				<path d="M946.4,233.3c-0.4,0-0.8-0.3-0.8-0.8s0.3-0.8,0.8-0.8c1,0,1.9-0.2,2.8-0.7c1.8-1,3-3,3-5c0-3.2-2.6-5.8-5.8-5.8
					c-1.6,0-3.2,0.7-4.3,1.9c-0.1,0.1-0.2,0.3-0.3,0.4c-0.2,0.3-0.7,0.4-1.1,0.1s-0.4-0.7-0.1-1.1c0.1-0.2,0.3-0.3,0.4-0.5
					c1.4-1.5,3.3-2.4,5.4-2.4c4,0,7.3,3.3,7.3,7.3c0,2.6-1.4,5.1-3.8,6.4C948.9,232.9,947.6,233.3,946.4,233.3z"/>
				<path id="face_2_" d="M955.5,224.1c-0.5,2.5-1.6,4.9-1.6,4.9c-1.2,2.7-2.8,4.5-3.9,5.7c0.7,1.2,1.5,2.3,2.2,3.5
					c-1,0.3-1.9,0.6-2.9,0.9c-0.7-2.2-1.5-4.4-2.2-6.6c0.5-0.1,3.3-0.6,4.8-3.1c0.2-0.4,0.9-1.6,0.9-3.4c0-3.6-2.9-6.5-6.5-6.5
					c-1.9,0-3.7,0.8-4.8,2.2l-2.6-8.5c-6.1-0.8-12.1-1.6-18.2-2.4c1.2-1.4,2.7-2.7,4.3-3.9c6.7-4.8,16.1-7.1,23.1-2.3
					C954.8,208.9,956.7,217.6,955.5,224.1z"/>
				<g>
					<path d="M931.5,243.5C931.5,243.5,931.5,243.5,931.5,243.5c-0.7,0-1.4-0.1-2.1-0.2c-0.4-0.1-0.9-0.2-1.4-0.3
						c-0.9-0.2-8.6-2.2-12.2-9.5c-3.9-7.8-0.7-17.2,4.2-23c0.1-0.1,0.2-0.2,0.3-0.3c1.3-1.4,2.8-2.8,4.5-4c6.1-4.4,16.1-7.7,24-2.3
						c6.9,4.6,8.7,13.8,7.5,20.4c-0.6,3.4-2.1,6.7-4.4,9.6c-0.4,0.5-0.8,1-1.2,1.4c-0.3,0.3-0.8,0.3-1.1,0s-0.3-0.8,0-1.1
						c0.4-0.4,0.8-0.9,1.1-1.3c2.2-2.7,3.6-5.7,4.1-8.9c1.1-6.1-0.6-14.6-6.9-18.8c-7.2-4.9-16.5-1.8-22.2,2.3
						c-1.6,1.2-3,2.4-4.2,3.8c-0.1,0.1-0.2,0.2-0.2,0.3c-3.5,4.1-8.2,13.2-4.1,21.4c3.3,6.6,10.4,8.5,11.2,8.7
						c0.4,0.1,0.8,0.2,1.3,0.2c0.6,0.1,1.3,0.2,1.9,0.2c0.4,0,0.7,0.4,0.7,0.8C932.2,243.2,931.9,243.5,931.5,243.5z"/>
					<path d="M937.5,253.3c-0.3,0-0.5-0.1-0.6-0.4l-6-9.9c-0.2-0.4-0.1-0.8,0.3-1c0.4-0.2,0.8-0.1,1,0.3l6,9.9
						c0.2,0.4,0.1,0.8-0.3,1C937.7,253.3,937.6,253.3,937.5,253.3z"/>
					<path d="M956,244.9c-0.2,0-0.5-0.1-0.6-0.3l-6-9.5c-0.2-0.4-0.1-0.8,0.2-1c0.3-0.2,0.8-0.1,1,0.2l6,9.5c0.2,0.4,0.1,0.8-0.2,1
						C956.3,244.8,956.2,244.9,956,244.9z"/>
					<path d="M940.5,237.7c-0.5,1.1-1.2,2.5-2.4,3.9c-1.8,2.2-3.7,3.4-5,4.1c-0.8-1.2-1.6-2.3-2.4-3.5c1,0,2.5,0,4.1-0.5
						C937.8,240.6,939.7,238.6,940.5,237.7z"/>
				</g>
			</g>
			<g id="hand_2_">
				<path d="M795.5,272.9c-0.4,0-0.7-0.3-0.7-0.6c-0.1-0.4,0.2-0.8,0.6-0.9c1.9-0.3,3.9-0.6,6-1l2.4-0.4c0.4-0.1,0.7-0.1,1.1-0.2
					c0.4-0.1,0.8,0.2,0.9,0.6c0.1,0.4-0.2,0.8-0.6,0.9c-0.4,0.1-0.7,0.1-1.1,0.2l-2.4,0.4c-2.1,0.3-4.1,0.7-6,1
					C795.5,272.9,795.5,272.9,795.5,272.9z"/>
				<g>
					<path d="M774.9,277.3c-0.1,0.5,0,1.2,0.3,1.8c0.5,0.8,1.6,1.1,3,1.2"/>
					<path d="M778.2,281C778.2,281,778.2,281,778.2,281c-1.8-0.1-3-0.6-3.6-1.5c-0.4-0.7-0.6-1.5-0.4-2.3c0.1-0.4,0.5-0.7,0.9-0.6
						c0.4,0.1,0.7,0.5,0.6,0.9c-0.1,0.4,0,0.9,0.2,1.2c0.3,0.5,1.2,0.8,2.4,0.9c0.4,0,0.7,0.4,0.7,0.8
						C778.9,280.7,778.6,281,778.2,281z"/>
				</g>
				<path d="M810.6,291.5c-0.4,0-0.7-0.3-0.7-0.6c-0.1-0.4,0.2-0.8,0.6-0.9c1.6-0.2,3-0.5,4.5-0.9c2.3-0.6,4.5-1.5,6.7-2.6
					c0.8-0.4,1.5-0.8,2.3-1.3l0.1-0.1c0.4-0.2,0.8-0.1,1,0.2c0.2,0.4,0.1,0.8-0.2,1l-0.1,0.1c-0.8,0.5-1.6,0.9-2.4,1.3
					c-2.2,1.1-4.6,2-6.9,2.7c-1.5,0.4-3,0.7-4.7,1C810.7,291.5,810.7,291.5,810.6,291.5z"/>
				<path d="M810.6,290.7c-2,0.3-3.7,0.3-5.1,0.3c-2.2,1.9-4.2,3.8-5.8,5.4c-1.6,1.6-2.8,3-3.9,4.1c-1-1.4-2-2.8-3-4.2
					c0.9-1,1.9-2.1,3.1-3.5c0.4-0.5,4.4-5.3,4-5.7c-0.3-0.3-3.1,1.8-9.4,6.2c-1.2-1.5-2.5-3.1-3.8-4.5c3-2,6.2-4.1,9.8-6.6
					c-1.5,0.8-3.8,2-6.8,3.5c-1.6,0.8-2.9,1.4-4.1,1.9c-1.4-1.5-2.7-2.9-4.2-4.4c3.3-1.5,10-4.5,12.7-6c-1.2,0.3-2.9,0.8-5,1.3
					c-4.2,0.9-8.1,1.8-10.8,1.7c-1.1-1-2.2-2-3.3-2.9c0-0.1,0-0.2,0.1-0.3c0.7-2,4.2-2.4,5.6-2.6c3.4-0.4,8.5-1.2,14.9-2.2
					C801,277.9,806.1,284.1,810.6,290.7z"/>
				<path d="M785.5,287.6c-6.8,3-8.3,2.7-9.1,2.1c-0.7-0.6-0.9-1.7-0.8-2.5c0.3-1.3,1.7-2.1,4.5-3.4c0.3-0.1,0.7-0.3,1.1-0.5
					C782.7,284.7,784.1,286.1,785.5,287.6z"/>
				<path d="M790.4,293.3c-0.4,0.3-0.8,0.5-1.2,0.8c-2.8,1.9-4.9,3.3-6.4,2.5c-0.9-0.5-1.3-1.6-1.3-2.5c0-2,2.2-3.4,3.6-4.4
					c0.5-0.3,0.9-0.6,1.4-0.9C787.9,290.3,789.1,291.8,790.4,293.3z"/>
				<path d="M795.8,300.6c-1.8,1.9-3.1,2.9-4.4,2.6c-0.8-0.2-1.5-0.9-1.7-1.6c-0.4-1.4,0.8-2.7,3-5.2
					C793.8,297.8,794.8,299.2,795.8,300.6z"/>
				<path d="M824.8,274.3c-0.1,0-0.2,0-0.3-0.1l-0.9-0.4c-11.8-4.7-21.2-8.2-24.4-9c-2.8-0.7-3.6-0.1-3.8,0.1
					c-0.2,0.2-0.2,0.5-0.3,0.6c-0.1,0.9,2.8,2.9,8.5,4.8c0.4,0.1,0.6,0.6,0.5,0.9c-0.1,0.4-0.6,0.6-0.9,0.5
					c-4.5-1.5-9.7-3.8-9.5-6.3c0-0.2,0.1-0.9,0.6-1.5c0.9-1,2.7-1.2,5.3-0.5c3.3,0.9,12.7,4.3,24.6,9.1l0.9,0.4
					c0.4,0.2,0.6,0.6,0.4,1C825.4,274.1,825.1,274.3,824.8,274.3z"/>
				<path d="M824.8,273.5c-0.1,4.1-0.3,8.2-0.4,12.4c-0.7,0.4-1.5,0.9-2.4,1.3l1.9-14v0C824.2,273.3,824.5,273.4,824.8,273.5z"/>
			</g>
			<g id="tshirt_2_">
				<path d="M964.2,379.3c-0.3,0-0.6-0.2-0.7-0.5l-27.6-80.1c-2.8,2.8-5.8,5.5-8.9,8c-10.9,9.1-21.2,17.6-33.4,19.3
					c-5.9,0.8-9.9-0.7-26.8-7.1l-1.5-0.6c-14.1-5.3-28-11.2-41.4-17.3c-0.3-0.1-0.4-0.4-0.4-0.7l0.5-26.8c0-0.2,0.1-0.4,0.3-0.6
					c0.2-0.1,0.4-0.2,0.6-0.1c23.3,6.1,46.5,12.1,69.8,18.1c7.7-7.9,15.8-15.7,24.1-23l0.1-0.1c17-15.2,25.5-22.8,31.6-24
					c23.9-4.7,48.9,27.9,67.1,51.7l0.6,0.8c12.5,16.3,23.2,34.1,31.7,53c0.1,0.2,0.1,0.4,0,0.6c-0.1,0.2-0.2,0.3-0.4,0.4l-23.8,8.1
					c-24.2,8.2-58.4,19.9-61.2,20.9C964.4,379.3,964.3,379.3,964.2,379.3z M936.2,296.6c0.1,0,0.1,0,0.2,0c0.3,0.1,0.5,0.2,0.5,0.5
					l27.7,80.5c5.7-1.9,37.6-12.8,60.5-20.6l23-7.9c-8.4-18.5-18.9-35.9-31.1-51.9l-0.6-0.8c-18-23.5-42.7-55.6-65.7-51.1
					c-5.7,1.1-14.1,8.6-30.9,23.6l-0.1,0.1c-8.4,7.5-16.5,15.3-24.3,23.3c-0.2,0.2-0.5,0.3-0.7,0.2c-23.1-6-46.2-12-69.3-18
					l-0.4,25.4c13.3,6.1,27,11.8,40.9,17.1l1.5,0.6c17,6.5,20.5,7.8,26.1,7c11.7-1.6,21.8-10,32.6-19c3.4-2.8,6.6-5.8,9.7-8.8
					C935.9,296.7,936.1,296.6,936.2,296.6z"/>
				<g id="pattern_1_">
					<path d="M837.9,289c-0.2,0-0.4-0.1-0.6-0.3l-7.1-8.1c-0.3-0.3-0.2-0.8,0.1-1.1c0.3-0.3,0.8-0.2,1.1,0.1l7.1,8.1
						c0.3,0.3,0.2,0.8-0.1,1.1C838.3,289,838.1,289,837.9,289z"/>
					<path d="M944,288.1c-0.2,0-0.4-0.1-0.6-0.3l-7.1-8.1c-0.3-0.3-0.2-0.8,0.1-1.1c0.3-0.3,0.8-0.2,1.1,0.1l7.1,8.1
						c0.3,0.3,0.2,0.8-0.1,1.1C944.4,288,944.2,288.1,944,288.1z"/>
					<path d="M984.3,324.9c-0.2,0-0.4-0.1-0.6-0.3l-7.1-8.1c-0.3-0.3-0.2-0.8,0.1-1.1c0.3-0.3,0.8-0.2,1.1,0.1l7.1,8.1
						c0.3,0.3,0.2,0.8-0.1,1.1C984.7,324.8,984.5,324.9,984.3,324.9z"/>
					<path d="M987.9,354.2c-0.2,0-0.4-0.1-0.6-0.3l-7.1-8.1c-0.3-0.3-0.2-0.8,0.1-1.1c0.3-0.3,0.8-0.2,1.1,0.1l7.1,8.1
						c0.3,0.3,0.2,0.8-0.1,1.1C988.2,354.1,988,354.2,987.9,354.2z"/>
					<path d="M950,313.2c0,0-0.1,0-0.1,0c-0.4-0.1-0.7-0.4-0.6-0.9l1.6-10.6c0.1-0.4,0.5-0.7,0.9-0.6c0.4,0.1,0.7,0.4,0.6,0.9
						l-1.6,10.6C950.7,312.9,950.4,313.2,950,313.2z"/>
					<path d="M981.4,373.5c-0.2,0-0.4-0.1-0.6-0.3l-4.1-4.7c-0.3-0.3-0.2-0.8,0.1-1.1c0.3-0.3,0.8-0.2,1.1,0.1l4.1,4.7
						c0.3,0.3,0.2,0.8-0.1,1.1C981.7,373.4,981.6,373.5,981.4,373.5z"/>
					<path d="M960.9,369.9c-0.4,0-0.7-0.3-0.7-0.7c0-0.4,0.3-0.8,0.7-0.8l3.4-0.2c0.4,0,0.8,0.3,0.8,0.7c0,0.4-0.3,0.8-0.7,0.8
						L960.9,369.9C961,369.9,961,369.9,960.9,369.9z"/>
					<path d="M966,290.6c-0.2,0-0.4-0.1-0.6-0.3l-7.1-8.1c-0.3-0.3-0.2-0.8,0.1-1.1c0.3-0.3,0.8-0.2,1.1,0.1l7.1,8.1
						c0.3,0.3,0.2,0.8-0.1,1.1C966.4,290.6,966.2,290.6,966,290.6z"/>
					<path d="M982.4,279.3C982.4,279.3,982.4,279.3,982.4,279.3c-0.4,0-0.8-0.3-0.8-0.8l0.1-10.7c0-0.4,0.3-0.7,0.8-0.7c0,0,0,0,0,0
						c0.4,0,0.7,0.3,0.7,0.8l-0.1,10.7C983.2,278.9,982.8,279.3,982.4,279.3z"/>
					<path d="M1024,319.2c-0.4,0-0.7-0.3-0.7-0.6l-1.5-10.6c-0.1-0.4,0.2-0.8,0.6-0.8c0.4-0.1,0.8,0.2,0.8,0.6l1.5,10.6
						c0.1,0.4-0.2,0.8-0.6,0.8C1024.1,319.2,1024,319.2,1024,319.2z"/>
					<path d="M844.8,302.5c-0.2,0-0.4-0.1-0.6-0.3c-0.3-0.3-0.2-0.8,0.1-1.1l8.4-6.7c0.3-0.3,0.8-0.2,1.1,0.1
						c0.3,0.3,0.2,0.8-0.1,1.1l-8.4,6.7C845.1,302.4,845,302.5,844.8,302.5z"/>
					<path d="M926.9,306.7c-0.1,0-0.2,0-0.4-0.1l-4.7-2.7c-0.4-0.2-0.5-0.7-0.3-1c0.2-0.4,0.7-0.5,1-0.3l4.7,2.7
						c0.4,0.2,0.5,0.7,0.3,1C927.4,306.5,927.1,306.7,926.9,306.7z"/>
					<path d="M968.2,307.4c-0.2,0-0.4-0.1-0.6-0.3c-0.3-0.3-0.2-0.8,0.1-1.1l8.4-6.7c0.3-0.3,0.8-0.2,1.1,0.1
						c0.3,0.3,0.2,0.8-0.1,1.1l-8.4,6.7C968.5,307.3,968.3,307.4,968.2,307.4z"/>
					<path d="M1006.9,361.6c-0.2,0-0.4-0.1-0.6-0.3c-0.3-0.3-0.2-0.8,0.1-1.1l8.4-6.7c0.3-0.3,0.8-0.2,1.1,0.1
						c0.3,0.3,0.2,0.8-0.1,1.1l-8.4,6.7C1007.2,361.6,1007,361.6,1006.9,361.6z"/>
					<path d="M1009,342.9c-0.3,0-0.6-0.2-0.7-0.6c-0.1-0.4,0.1-0.8,0.5-0.9l10.4-2.8c0.4-0.1,0.8,0.1,0.9,0.5
						c0.1,0.4-0.1,0.8-0.5,0.9l-10.4,2.8C1009.1,342.9,1009.1,342.9,1009,342.9z"/>
					<path d="M1000.5,334.7c0,0-0.1,0-0.1,0c-0.4-0.1-0.7-0.5-0.6-0.9l1.9-10.6c0.1-0.4,0.5-0.7,0.9-0.6c0.4,0.1,0.7,0.5,0.6,0.9
						l-1.9,10.6C1001.2,334.5,1000.9,334.7,1000.5,334.7z"/>
					<path d="M908.3,297.9c-0.2,0-0.4-0.1-0.6-0.3c-0.3-0.3-0.2-0.8,0.1-1.1l8.4-6.7c0.3-0.3,0.8-0.2,1.1,0.1
						c0.3,0.3,0.2,0.8-0.1,1.1l-8.4,6.7C908.6,297.8,908.5,297.9,908.3,297.9z"/>
					<path d="M953.1,335.2c-0.2,0-0.4-0.1-0.6-0.3c-0.3-0.3-0.2-0.8,0.1-1.1l8.4-6.7c0.3-0.3,0.8-0.2,1.1,0.1
						c0.3,0.3,0.2,0.8-0.1,1.1l-8.4,6.7C953.5,335.2,953.3,335.2,953.1,335.2z"/>
					<path d="M860.6,316.5C860.6,316.5,860.6,316.5,860.6,316.5c-0.4,0-0.8-0.4-0.8-0.8l0.2-6.4c0-0.4,0.4-0.8,0.8-0.7
						c0.4,0,0.7,0.4,0.7,0.8l-0.2,6.4C861.4,316.2,861,316.5,860.6,316.5z"/>
					<path d="M878.6,309.2c-0.3,0-0.6-0.2-0.7-0.5l-3.2-10.3c-0.1-0.4,0.1-0.8,0.5-0.9c0.4-0.1,0.8,0.1,0.9,0.5l3.2,10.3
						c0.1,0.4-0.1,0.8-0.5,0.9C878.8,309.1,878.7,309.2,878.6,309.2z"/>
					<path d="M888.4,320.7c-0.2,0-0.4-0.1-0.6-0.3c-0.3-0.3-0.2-0.8,0.1-1.1l8.4-6.7c0.3-0.3,0.8-0.2,1.1,0.1
						c0.3,0.3,0.2,0.8-0.1,1.1l-8.4,6.7C888.7,320.6,888.5,320.7,888.4,320.7z"/>
					<path d="M866.7,291.9c-0.4,0-0.7-0.3-0.7-0.7l-0.7-6.9c0-0.4,0.3-0.8,0.7-0.8c0.4,0,0.8,0.3,0.8,0.7l0.7,6.9
						C867.4,291.5,867.1,291.9,866.7,291.9C866.7,291.9,866.7,291.9,866.7,291.9z"/>
					<path d="M892.6,297.7c-0.1,0-0.1,0-0.2,0c-0.4-0.1-0.6-0.5-0.5-0.9l1.5-5.4c0.1-0.4,0.5-0.6,0.9-0.5c0.4,0.1,0.6,0.5,0.5,0.9
						l-1.5,5.4C893.2,297.5,892.9,297.7,892.6,297.7z"/>
					<path d="M946.3,263.4c-0.1,0-0.2,0-0.2,0l-10.1-3.5c-0.4-0.1-0.6-0.6-0.5-1c0.1-0.4,0.6-0.6,1-0.5l10.1,3.5
						c0.4,0.1,0.6,0.6,0.5,1C946.9,263.3,946.6,263.4,946.3,263.4z"/>
					<path d="M922.1,281.2c-0.4,0-0.7-0.3-0.7-0.7l-1-10.7c0-0.4,0.3-0.8,0.7-0.8c0.4,0,0.8,0.3,0.8,0.7l1,10.7
						C922.9,280.8,922.6,281.2,922.1,281.2C922.2,281.2,922.2,281.2,922.1,281.2z"/>
					<path d="M965.1,354.2c-0.4,0-0.7-0.3-0.7-0.7l-1-10.7c0-0.4,0.3-0.8,0.7-0.8c0.4,0,0.8,0.3,0.8,0.7l1,10.7
						C965.9,353.8,965.6,354.2,965.1,354.2C965.2,354.2,965.1,354.2,965.1,354.2z"/>
					<path d="M960.1,268.7c-0.2,0-0.4-0.1-0.6-0.3c-0.3-0.3-0.2-0.8,0.1-1.1l8.1-7.1c0.3-0.3,0.8-0.2,1.1,0.1
						c0.3,0.3,0.2,0.8-0.1,1.1l-8.1,7.1C960.4,268.7,960.2,268.7,960.1,268.7z"/>
					<path d="M1012.4,311.6c-0.2,0-0.4-0.1-0.6-0.3l-6.8-8.4c-0.3-0.3-0.2-0.8,0.1-1.1c0.3-0.3,0.8-0.2,1.1,0.1l6.8,8.4
						c0.3,0.3,0.2,0.8-0.1,1.1C1012.7,311.5,1012.5,311.6,1012.4,311.6z"/>
					<path d="M1033.5,331.2c-0.4,0-0.7-0.3-0.7-0.6c-0.1-0.4,0.2-0.8,0.6-0.9l5.6-0.9c0.4-0.1,0.8,0.2,0.9,0.6
						c0.1,0.4-0.2,0.8-0.6,0.9l-5.6,0.9C1033.6,331.2,1033.6,331.2,1033.5,331.2z"/>
					<path d="M992.1,299.7c-0.1,0-0.1,0-0.2,0c-0.4-0.1-0.6-0.5-0.5-0.9l2.7-10.4c0.1-0.4,0.5-0.6,0.9-0.5c0.4,0.1,0.6,0.5,0.5,0.9
						l-2.7,10.4C992.7,299.5,992.4,299.7,992.1,299.7z"/>
					<path d="M1035.4,355c-0.4,0-0.7-0.3-0.7-0.7l-1-10.2c0-0.4,0.3-0.8,0.7-0.8c0.4,0,0.8,0.3,0.8,0.7l1,10.2
						C1036.2,354.6,1035.9,355,1035.4,355C1035.5,355,1035.4,355,1035.4,355z"/>
					<path d="M961.3,250.2c-0.4,0-0.7-0.3-0.7-0.7l-0.4-4.7c0-0.4,0.3-0.8,0.7-0.8c0.4,0,0.8,0.3,0.8,0.7l0.4,4.7
						C962.1,249.8,961.8,250.2,961.3,250.2C961.4,250.2,961.4,250.2,961.3,250.2z"/>
					<path d="M999.4,277.7c-0.1,0-0.1,0-0.2,0c-0.4-0.1-0.6-0.5-0.5-0.9l0.7-2.4c0.1-0.4,0.5-0.6,0.9-0.5c0.4,0.1,0.6,0.5,0.5,0.9
						l-0.7,2.4C1000,277.5,999.7,277.7,999.4,277.7z"/>
				</g>
			</g>
		</g>
		<g id="floor_line_1_">
			<path d="M621.8,483.1H456.5c-0.4,0-0.8-0.3-0.8-0.8s0.3-0.8,0.8-0.8h165.3c0.4,0,0.8,0.3,0.8,0.8S622.2,483.1,621.8,483.1z"/>
			<path d="M773.1,483.1c-0.4,0-0.7-0.3-0.8-0.7s0.3-0.8,0.7-0.8l118.1-0.2h0c0.4,0,0.7,0.3,0.8,0.7s-0.3,0.8-0.7,0.8L773.1,483.1
				L773.1,483.1z"/>
			<path d="M305.2,483.1h-61.5c-0.4,0-0.8-0.3-0.8-0.8s0.3-0.8,0.8-0.8h61.5c0.4,0,0.8,0.3,0.8,0.8S305.6,483.1,305.2,483.1z"/>
		</g>
	</g>
</g>
</svg>
