<?xml version="1.0" encoding="utf-8"?>
<!-- Generator: Adobe Illustrator 22.1.0, SVG Export Plug-In . SVG Version: 6.00 Build 0)  -->
<svg version="1.1" xmlns="http://www.w3.org/2000/svg" xmlns:xlink="http://www.w3.org/1999/xlink" x="0px" y="0px"
	 viewBox="0 0 882.6 691.2" style="enable-background:new 0 0 882.6 691.2;" xml:space="preserve">
<style type="text/css">
	.st0{fill:#FFDEE9;}
	.st1{fill:#762AE2;}
</style>
<g id="background">
	<g id="background_1_">
		<path d="M678.7,440.6c-0.2,0-0.3-0.1-0.5-0.2l-10.4-8.2c-0.3-0.3-0.4-0.7-0.1-1.1l8.2-10.4c0.3-0.3,0.7-0.4,1.1-0.1l10.4,8.2
			c0.3,0.3,0.4,0.7,0.1,1.1l-8.2,10.4C679.2,440.5,679,440.6,678.7,440.6C678.8,440.6,678.7,440.6,678.7,440.6z M669.4,431.6
			l9.2,7.3l7.3-9.2l-9.2-7.3L669.4,431.6z"/>
		<path d="M174.3,549.4C174.3,549.4,174.2,549.4,174.3,549.4c-0.2,0-0.4-0.1-0.6-0.2l-5.4-5.9c-0.3-0.3-0.3-0.8,0.1-1.1l5.9-5.4
			c0.1-0.1,0.3-0.2,0.5-0.2c0.2,0,0.4,0.1,0.5,0.2l5.4,5.9c0.3,0.3,0.3,0.8-0.1,1.1l-5.9,5.4C174.6,549.4,174.5,549.4,174.3,549.4z
			 M169.9,542.8l4.4,4.8l4.8-4.4l-4.4-4.8L169.9,542.8z"/>
		
			<rect x="2.3" y="12.7" transform="matrix(0.8269 0.5624 -0.5624 0.8269 11.8991 -1.3828)" class="st0" width="11.8" height="11.8"/>
		<circle class="st0" cx="803.8" cy="255.1" r="6.5"/>
		<circle class="st0" cx="85.9" cy="355.5" r="10.7"/>
		<path d="M189.3,183.4c-7.4,0-15.1-5.6-23-16.7c-0.2-0.3-0.2-0.8,0.2-1c0.3-0.2,0.8-0.2,1,0.2c7.9,11.1,15.5,16.5,22.5,16.1
			c5.7-0.3,9.7-4.2,13.9-8.4c4.3-4.2,8.7-8.6,15.2-8.9c7.2-0.4,14.6,4.4,22.1,14.2c0.3,0.3,0.2,0.8-0.1,1.1
			c-0.3,0.3-0.8,0.2-1.1-0.1c-7.2-9.4-14.2-14-20.9-13.6c-5.9,0.3-9.9,4.3-14.2,8.5c-4.2,4.2-8.6,8.5-14.9,8.8
			C189.9,183.4,189.6,183.4,189.3,183.4z"/>
		<path d="M752.5,18.8c-7.4,0-15.1-5.6-23-16.7c-0.2-0.3-0.2-0.8,0.2-1c0.3-0.2,0.8-0.2,1,0.2c7.9,11.1,15.5,16.5,22.5,16.1
			c5.7-0.3,9.7-4.2,13.9-8.4c4.3-4.2,8.7-8.6,15.2-8.9c7.2-0.4,14.6,4.4,22.1,14.2c0.3,0.3,0.2,0.8-0.1,1.1
			c-0.3,0.3-0.8,0.2-1.1-0.1C796,5.8,789,1.2,782.3,1.5c-5.9,0.3-9.9,4.3-14.2,8.5c-4.2,4.2-8.6,8.5-14.9,8.8
			C753,18.8,752.7,18.8,752.5,18.8z"/>
		<path d="M661.3,644c-6.2,0-12.7-4.7-19.3-14c-0.2-0.3-0.2-0.8,0.2-1c0.3-0.2,0.8-0.2,1,0.2c6.5,9.2,12.8,13.7,18.6,13.4
			c4.7-0.3,8-3.5,11.5-6.9c3.6-3.5,7.3-7.2,12.7-7.5c6-0.3,12.3,3.7,18.5,11.9c0.3,0.3,0.2,0.8-0.1,1.1c-0.3,0.3-0.8,0.2-1.1-0.1
			c-5.9-7.8-11.8-11.6-17.3-11.3c-4.9,0.2-8.2,3.5-11.8,7c-3.5,3.5-7.2,7.1-12.5,7.4C661.8,644,661.5,644,661.3,644z"/>
		<path d="M161,657.9c-0.2,0-0.4-0.1-0.6-0.3c-0.3-0.3-0.2-0.8,0.1-1.1l11.8-10.3c0.3-0.3,0.8-0.2,1.1,0.1c0.3,0.3,0.2,0.8-0.1,1.1
			l-11.8,10.3C161.4,657.9,161.2,657.9,161,657.9z"/>
		<path d="M54.4,536.4c-0.1,0-0.2,0-0.2,0l-14.8-5.1c-0.4-0.1-0.6-0.6-0.5-1c0.1-0.4,0.6-0.6,1-0.5l14.8,5.1c0.4,0.1,0.6,0.6,0.5,1
			C55,536.2,54.7,536.4,54.4,536.4z"/>
		<path d="M79.5,101.7c-0.2,0-0.5-0.1-0.6-0.3c-0.2-0.3-0.2-0.8,0.2-1l12.9-8.9c0.3-0.2,0.8-0.2,1,0.2c0.2,0.3,0.2,0.8-0.2,1
			l-12.9,8.9C79.8,101.7,79.6,101.7,79.5,101.7z"/>
		<path d="M301,45c-0.2,0-0.3-0.1-0.5-0.2l-12.4-9.5c-0.3-0.3-0.4-0.7-0.1-1.1c0.3-0.3,0.7-0.4,1.1-0.1l12.4,9.5
			c0.3,0.3,0.4,0.7,0.1,1.1C301.4,44.9,301.2,45,301,45z"/>
		<path d="M815.2,544.6c-0.2,0-0.4-0.1-0.5-0.2l-11.4-10.7c-0.3-0.3-0.3-0.8,0-1.1c0.3-0.3,0.8-0.3,1.1,0l11.4,10.7
			c0.3,0.3,0.3,0.8,0,1.1C815.6,544.5,815.4,544.6,815.2,544.6z"/>
		<path d="M760,119.9c-0.3,0-0.5-0.1-0.7-0.4c-0.2-0.4,0-0.8,0.3-1l13.9-7.2c0.4-0.2,0.8,0,1,0.3c0.2,0.4,0,0.8-0.3,1l-13.9,7.2
			C760.2,119.8,760.1,119.9,760,119.9z"/>
		<path d="M868,377.5c-0.3,0-0.5-0.1-0.7-0.4c-0.2-0.4,0-0.8,0.3-1l13.9-7.2c0.4-0.2,0.8,0,1,0.3c0.2,0.4,0,0.8-0.3,1l-13.9,7.2
			C868.2,377.4,868.1,377.5,868,377.5z"/>
		<path d="M544.2,165c-0.1,0-0.3,0-0.4-0.1l-13-8.7c-0.3-0.2-0.4-0.7-0.2-1c0.2-0.3,0.7-0.4,1-0.2l13,8.7c0.3,0.2,0.4,0.7,0.2,1
			C544.7,164.9,544.5,165,544.2,165z"/>
	</g>
</g>
<g id="general_1_">
	<g id="general_2_">
		<g id="tshirt_1_">
			<g id="pattern_1_">
				<circle cx="326.1" cy="276.3" r="3.2"/>
				<circle cx="295.8" cy="407.8" r="3.2"/>
				<circle cx="228.7" cy="414.6" r="3.2"/>
				<path d="M329.3,475.4c-0.1,0.8-0.5,1.5-1,2c-1.7-0.4-3.4-0.8-5.2-1.2c-0.2-0.5-0.3-1.1-0.2-1.7c0.3-1.8,1.9-3,3.7-2.8
					C328.4,472,329.6,473.6,329.3,475.4z"/>
				<circle cx="368.8" cy="522.9" r="3.2"/>
				<circle cx="428.7" cy="496.9" r="3.2"/>
				<circle cx="474.2" cy="525.9" r="3.2"/>
				<circle cx="514.2" cy="478.2" r="3.2"/>
				<circle cx="542" cy="538.5" r="3.2"/>
				<circle cx="362.3" cy="430.6" r="3.2"/>
				<circle cx="255.1" cy="326.3" r="3.2"/>
				<circle cx="391" cy="228.5" r="3.2"/>
				<circle cx="404.2" cy="293" r="3.2"/>
				<circle cx="359.1" cy="357.4" r="3.2"/>
				<circle cx="467.9" cy="253.8" r="3.2"/>
				<circle cx="436.2" cy="195.9" r="3.2"/>
				<circle cx="486.2" cy="315.4" r="3.2"/>
				<path d="M669.6,300.8c-0.8,1.8-1.6,3.6-2.4,5.4c-0.2,0-0.4,0-0.5,0c-1.8-0.3-3-1.9-2.8-3.7c0.2-1.8,1.9-3,3.7-2.8
					C668.4,299.8,669.1,300.2,669.6,300.8z"/>
				<circle cx="644.2" cy="250.5" r="3.2"/>
				<circle cx="561.3" cy="349.8" r="3.2"/>
				<circle cx="614" cy="383" r="3.2"/>
				<circle cx="617.3" cy="318.6" r="3.2"/>
				<circle cx="424.8" cy="363.9" r="3.2"/>
				<circle cx="514.2" cy="371.8" r="3.2"/>
				<circle cx="534.5" cy="257" r="3.2"/>
			</g>
			<path d="M534.5,386.5c-0.4,0-0.8-0.3-0.8-0.7c-2.3-17-4.6-33.9-6.8-50.9c-0.1-0.5,0.3-0.9,0.7-1c0.5-0.1,0.9,0.3,1,0.7
				c2.3,17,4.6,33.9,6.8,50.9c0.1,0.5-0.3,0.9-0.7,1C534.6,386.5,534.5,386.5,534.5,386.5z"/>
			<path d="M314.4,398.9C314.4,398.9,314.4,398.9,314.4,398.9c-0.5,0-0.9-0.4-0.8-0.9c0.9-19.2,1.8-38.3,2.6-56.8
				c0-0.5,0.4-0.8,0.9-0.8c0.5,0,0.8,0.4,0.8,0.9c-0.8,18.5-1.7,37.6-2.6,56.8C315.2,398.5,314.9,398.9,314.4,398.9z"/>
			<path d="M557.3,556.2C557.3,556.2,557.3,556.2,557.3,556.2L322,544.5c-4.4-0.2-8.8-0.4-13.1-0.6l-2.4-0.1c-0.2,0-0.4-0.1-0.6-0.3
				s-0.2-0.4-0.2-0.6l0.3-5.6c0.3-5.8,0.7-11.7,1-17.5c0.9-15.6,1.8-31.1,2.7-46.7c0-0.5,0.4-0.8,0.9-0.8c0.5,0,0.8,0.4,0.8,0.9
				c-0.9,15.6-1.8,31.1-2.7,46.7c-0.3,5.8-0.7,11.7-1,17.5l-0.3,4.7l1.5,0.1c4.4,0.2,8.8,0.4,13.1,0.7l234.2,11.7
				c-0.9-6.5-5.5-41.1-5.7-42.6c-2.3-17.2-4.6-34.4-6.9-51.6l-6.8-50.6c-0.1-0.6-0.1-1.1-0.2-1.7c-0.1-0.5,0.3-0.9,0.7-1
				c0.5-0.1,0.9,0.3,1,0.7c0.1,0.6,0.2,1.1,0.2,1.7l6.8,50.6c2.3,17.2,4.6,34.4,6.9,51.6c0.2,1.6,5.7,42,5.9,43.7
				c0,0.2,0,0.5-0.2,0.7C557.8,556.1,557.6,556.2,557.3,556.2z"/>
			<path d="M407.1,428.3c-0.1,0-0.2,0-0.3,0c-14.9-4.6-29.9-9.3-44.6-14c-30.1-9.5-60.5-19.3-90.4-29c-0.4-0.1-0.7-0.6-0.5-1.1
				c0.1-0.4,0.6-0.7,1.1-0.5c29.9,9.8,60.3,19.5,90.4,29c14.7,4.7,29.8,9.4,44.6,14c0.4,0.1,0.7,0.6,0.6,1.1
				C407.8,428,407.5,428.3,407.1,428.3z"/>
			<path d="M390.1,488.6C390,488.6,390,488.6,390.1,488.6c-20.8-2.3-41.6-5.8-62-10.4c-1.7-0.4-3.4-0.8-5.2-1.2
				c-7.4-1.7-14.8-3.6-22-5.6c-55.2-15.1-82.8-22.7-93.7-43.1c-19.8-37.2,18.5-91.2,49.3-134.7l2.5-3.5
				c14.7-20.7,41.9-59.3,93.3-80.8c12-5,24.6-8.8,37.6-11.3c-1.8-2.5-2.4-4.8-1.9-6.8c0.3-1.3,1.1-2,1.8-2.7
				c0.6-0.5,1.1-1.1,1.5-1.9c0.8-1.8,0.1-3.4-0.6-4.9c-0.6-1.3-1.1-2.5-0.6-3.6c1.2-3.1,7-1.6,16.7,0.8c12.1,3,28.6,7.2,43.5,4.1
				l0.4-0.1c3.2-0.7,11.8-2.5,17.4,2c2,1.6,4.6,4.9,3.6,7.3c-0.4,1-1.3,1.5-2.2,2c-0.8,0.4-1.7,0.9-2.3,1.9
				c-0.6,0.9-0.9,1.9-0.9,3.1c0.3,0.3,0.5,0.5,0.6,0.5c20,2,37.4,8.3,51.6,18.6c22,15.9,32.8,38.6,49.1,72.9
				c4.8,10.1,9.3,20.5,13.2,31c0.2,0.4-0.1,0.9-0.5,1.1c-0.4,0.2-0.9-0.1-1.1-0.5c-3.9-10.4-8.4-20.7-13.2-30.8
				c-16.2-34.1-27-56.6-48.6-72.3c-14-10.2-31.2-16.3-50.9-18.3c0,0-0.1,0-0.1,0c-0.1,0-1.1-0.3-1.8-1.5c-0.1-0.1-0.1-0.3-0.1-0.4
				c0-1.7,0.3-3.1,1.1-4.4c0.9-1.4,2-2,2.9-2.4c0.8-0.4,1.2-0.7,1.4-1.1c0.5-1.3-1.2-3.8-3.1-5.4c-4.9-4-12.9-2.3-15.9-1.6l-0.4,0.1
				c-15.3,3.2-32-1-44.2-4.1c-7.2-1.8-14-3.5-14.7-1.8c-0.2,0.5,0.2,1.4,0.6,2.3c0.7,1.6,1.7,3.7,0.6,6.2c-0.5,1.2-1.2,1.9-1.9,2.5
				c-0.6,0.6-1.1,1.1-1.3,1.9c-0.5,1.7,0.4,3.9,2.4,6.4c0.2,0.2,0.3,0.5,0.1,0.8c-0.1,0.3-0.3,0.5-0.6,0.5
				c-13.3,2.4-26.3,6.3-38.6,11.5c-50.9,21.4-78,59.7-92.6,80.3l-2.5,3.5c-30.5,43.1-68.5,96.7-49.2,132.9
				c10.5,19.7,38,27.3,92.6,42.3c7.2,2,14.6,3.8,21.9,5.6c1.7,0.4,3.5,0.8,5.2,1.2c20.1,4.5,40.6,7.9,61,10.3l3.4-12.1
				c0,0,0-0.1,0-0.1c1.6-5.8,3.3-11.6,5-17.3l1.2-4.1c2.4-8.5,4.9-17,7.3-25.5l0-0.1c0.1-0.5,0.6-0.7,1.1-0.6
				c0.5,0.1,0.7,0.6,0.6,1.1l-0.8-0.2l0.8,0.3c-2.4,8.5-4.9,17-7.3,25.5l-1.2,4.1c-1.7,5.8-3.3,11.6-5,17.4c0,0,0,0.1,0,0.1
				l-3.6,12.7C390.8,488.3,390.5,488.6,390.1,488.6z"/>
			<path d="M291.5,390c-0.1,0-0.3,0-0.4-0.1c-0.4-0.2-0.6-0.7-0.4-1.1l25.5-47.9c0.2-0.4,0.7-0.6,1.1-0.4c0.4,0.2,0.6,0.7,0.4,1.1
				l-25.5,47.9C292.1,389.8,291.8,390,291.5,390z"/>
			<path d="M588.2,417c-1.6,0-3.3-0.1-4.9-0.3c-8.1-1-16.7-4.4-25.6-10.2c-0.4-0.3-0.5-0.8-0.3-1.2c0.3-0.4,0.8-0.5,1.2-0.3
				c8.7,5.6,17.1,9,24.9,9.9c4.3,0.5,8.6,0.3,12.6-0.6c10.2-2.3,21.8-9.3,51.7-68.9c6.6-13.1,12.9-26.5,18.7-39.7
				c0.8-1.8,1.6-3.6,2.4-5.4c8-18.5,15.5-37.4,22.1-56.1c-1.1-1-2.1-2-3.2-3c-2.7-2.5-5.4-5-8-7.3c-5.8-5.2-11.8-10.3-17.9-15.2
				c-6.2-5.1-12.6-10-19-14.8L573.5,337c-0.2,0.4-0.7,0.6-1.1,0.4c-0.4-0.2-0.6-0.7-0.4-1.1l69.8-133.8c0.1-0.2,0.3-0.4,0.6-0.4
				c0.2-0.1,0.5,0,0.7,0.1c6.7,4.9,13.4,10.1,19.9,15.4c6,4.9,12.1,10,17.9,15.2c2.6,2.3,5.3,4.8,8,7.3c1.2,1.1,2.4,2.3,3.6,3.4
				c0.2,0.2,0.3,0.6,0.2,0.9c-6.7,19-14.2,38.1-22.4,56.8c-0.8,1.8-1.6,3.6-2.4,5.4c-5.9,13.3-12.2,26.7-18.8,39.8
				c-30.2,60.2-42.2,67.4-52.8,69.8C593.8,416.7,591,417,588.2,417z"/>
		</g>
		<g id="stars_1_">
			<polygon class="st1" points="422.2,393.8 423.2,402.3 430.7,406.3 422.9,409.9 421.4,418.3 415.6,412 407.2,413.2 411.4,405.8 
				407.6,398.1 416,399.8 			"/>
			<polygon class="st1" points="402.6,389 391.7,399.6 394.2,414.6 380.8,407.4 367.3,414.5 369.9,399.5 359.1,388.8 374.1,386.7 
				380.9,373.1 387.6,386.7 			"/>
			<polyline class="st1" points="460.6,422.6 469.3,413.4 486.2,416.1 478.1,401 485.9,385.8 469.1,388.9 457,376.8 454.7,393.7 
				439.5,401.5 454.9,408.9 457.1,423 			"/>
			<polygon class="st1" points="522.4,394.9 516.4,404.4 520.8,414.8 509.9,412 501.4,419.3 500.7,408.1 491,402.3 501.5,398.2 
				504.1,387.2 511.2,395.9 			"/>
			<polygon class="st1" points="570.5,392 558,401.2 558.4,416.7 545.8,407.6 531.1,412.8 535.9,398 526.5,385.6 542,385.6 
				550.8,372.8 555.6,387.6 			"/>
		</g>
		<g id="fork_1_">
			<path d="M663.4,135.5c3.4,7.6,6.7,14.5,10,20.7c0,0,0,0,0,0c-0.4,0.8-0.8,1.5-1.2,2.2c-0.3,0.5-0.5,1-0.7,1.4c-1-6-3.3-10-6-10.3
				c-0.2,0-0.7-0.1-1.5,0.2c-2.1-3.4-4.4-7-6.9-10.6c-2.1,0.6-4.9,0.9-7.8-0.2c-4.2-1.6-6-5.3-8.8-10.7c0,0-15.7-29.9-15.3-37.9
				c0-0.4,0.1-0.8,0.3-0.9c0.9-0.4,3.7,4.6,7.3,11c1.7,2.9,4.2,7.3,7.4,12.8c0.6-0.3,1.1-0.7,1.7-1c-2.4-6.3-11.5-24.8-10-26.2
				c0.1-0.1,0.2-0.2,0.3-0.2c1.5-0.4,12.4,18.6,15.3,23.3c0.7-0.3,1.4-0.6,2.1-0.9c-1.9-3.3-12.1-21-11.8-25.2c0-0.1,0-0.3,0.1-0.3
				c1.7-1.1,17.3,21.8,24.5,34.2c4.9,8.5,4.7,11,4.5,12.2C666.5,131.9,664.9,134.1,663.4,135.5z"/>
			<path d="M712.7,221.5c-1.3,2.3-4.2,3.8-6.8,3.7c-5.6-0.2-10-7.3-13.5-15.1c-2.2-4.9-4-10.2-5.4-14.1c-2.9-7.9-6.9-17.4-12.6-28.2
				c0,0,0.1,0,0.1,0c1.5,0.2,3-0.3,4.6-1.4c0.8,1.4,1.7,2.8,2.5,4.2c-1.2,3-1.4,4.7-0.9,6.4c0.2,0.7,0.7,2.2,2.1,2.9
				c1.6,0.9,3.5,0.1,4.1-0.1c0.2-0.1,0.4-0.1,0.5-0.2c0.3,0.4,0.6,0.8,0.9,1.2c-0.5,1.2-0.6,2.4-0.2,3.5c0.4,1.2,1.5,2.4,2.7,2.8
				c0.7,0.2,1.4,0.2,2.2,0.1c2.2,2.9,4.3,5.4,6.3,7.7c0.2,0.2,0.4,0.4,0.6,0.7C704.9,201.5,716.5,214.6,712.7,221.5z"/>
		</g>
		<path id="pants_1_" d="M571.7,682.1c-0.1,2.9-47.2,3-103.1,2.2c-6.1-24.2-12.2-48.4-18.3-72.7c-12.4,24.8-24.8,49.7-37.2,74.5
			c-35.3,1.7-70.5,3.4-105.8,5.1c4.9-49.2,9.9-98.4,14.8-147.6c74.3,3.7,148.7,7.4,223,11.1c16.7,87.7,24.6,124.8,26.5,127.1
			C571.6,681.9,571.7,682,571.7,682.1z"/>
		<g id="head_1_">
			<path d="M400,169.4c-3.5,0-7-1.1-9.9-3.3c-3.6-2.6-5.9-6.5-6.6-10.9c-1.3-8.3,3.9-16.3,12-18.5c0.7-0.2,1.3-0.3,2-0.4
				c2-0.3,4.1-0.1,4.2-0.1c1.6,0.1,3.2,0.5,4.7,1.1c0.4,0.2,0.7,0.7,0.5,1.1c-0.2,0.4-0.7,0.7-1.1,0.5c-1.4-0.5-2.8-0.8-4.2-1
				c0,0-2-0.2-3.8,0.1c-0.6,0.1-1.2,0.2-1.8,0.4c-7.3,2-11.9,9.2-10.8,16.6c1.2,8.2,8.9,13.8,17,12.6c2.1-0.3,4.3-1.3,4.3-1.3
				c0.4-0.2,0.9,0,1.1,0.4c0.2,0.4,0,0.9-0.4,1.1c-0.1,0-2.4,1.1-4.8,1.5C401.7,169.3,400.8,169.4,400,169.4z"/>
			<path id="hair_1_" d="M458.5,91.7c-13.2,9.8-26.5,19.7-39.7,29.5c0.8,9.2,1.5,18.4,2.3,27.6c-2.1,0.3-4.1,0.7-6.2,1
				c-0.1-0.8-1.6-7.8-8.5-11.2c-7.1-3.4-13.6-0.1-14.3,0.3c-0.7-3.2-1.4-7.9-1.2-13.5c0.2-4.6,1.5-17.5,10.4-28.9
				c14.1-18,38.7-21.9,46.6-17.4c3.7,2.1,6.3,5.2,6.3,5.2C456.7,87.1,457.9,89.9,458.5,91.7z"/>
			<g id="glasses_1_">
				<path d="M467.9,125c-5.3,0-9.8-4-10.3-9.4c-0.6-5.7,3.6-10.8,9.3-11.3c2.8-0.3,5.5,0.5,7.6,2.3c2.1,1.8,3.5,4.2,3.7,7
					c0.3,2.8-0.5,5.5-2.3,7.6c-1.8,2.1-4.2,3.5-7,3.7C468.5,125,468.2,125,467.9,125z M467.9,105.9c-0.3,0-0.6,0-0.9,0
					c-4.8,0.5-8.3,4.7-7.8,9.5c0.5,4.8,4.7,8.3,9.5,7.8c2.3-0.2,4.4-1.3,5.9-3.1c1.5-1.8,2.2-4,1.9-6.4l0,0
					c-0.2-2.3-1.3-4.4-3.1-5.9C471.8,106.6,469.9,105.9,467.9,105.9z"/>
				<path d="M443.9,141.3c-2.5,0-4.9-0.9-6.9-2.5c-2.2-1.8-3.6-4.4-3.9-7.3c-0.6-5.9,3.8-11.2,9.7-11.8c2.9-0.3,5.7,0.6,7.9,2.4
					s3.6,4.4,3.9,7.3l0,0c0.3,2.9-0.6,5.7-2.4,7.9c-1.8,2.2-4.4,3.6-7.3,3.9C444.6,141.3,444.3,141.3,443.9,141.3z M443.9,121.4
					c-0.3,0-0.6,0-0.9,0c-5,0.5-8.7,5-8.2,10c0.2,2.4,1.4,4.6,3.3,6.2c1.9,1.5,4.3,2.3,6.7,2c2.4-0.2,4.6-1.4,6.2-3.3
					c1.5-1.9,2.3-4.3,2-6.7s-1.4-4.6-3.3-6.2C448.1,122.1,446,121.4,443.9,121.4z"/>
				<path d="M449.9,123.4c0,0-0.1,0-0.1,0c-0.5-0.1-0.8-0.5-0.7-1c0.1-0.7,0.8-4.5,4.2-6.6c1.5-0.9,3.4-1.3,5.2-1.1
					c0.5,0,0.8,0.5,0.8,0.9c0,0.5-0.4,0.8-0.9,0.8c-0.9-0.1-2.5-0.1-4.2,0.9c-2.8,1.6-3.3,4.7-3.4,5.3
					C450.7,123,450.3,123.4,449.9,123.4z"/>
				<path d="M420.3,139.8c-0.3,0-0.6-0.2-0.8-0.5c-0.2-0.4,0-0.9,0.4-1.1c3.7-1.6,7.3-3.3,11-4.9l2.8-1.3c0.4-0.2,0.9,0,1.1,0.4
					c0.2,0.4,0,0.9-0.4,1.1l-2.8,1.3c-3.7,1.6-7.3,3.3-11,4.9C420.6,139.7,420.5,139.8,420.3,139.8z"/>
				<path d="M453.4,134.5c-0.1,0-0.2,0-0.2,0c-1.6-0.4-2.4-1.7-3.1-2.9c-0.6-1-1.1-1.9-2.1-2.1c-1.2-0.3-2.4,0.5-3.7,1.4
					c-1.4,1-3.1,2.1-4.9,1.5c-1.5-0.5-2.2-2-2.9-3.4c-0.6-1.4-1.1-2.9-1.3-4.5c0,0,0-0.1,0-0.1c0-0.5,0.4-0.9,0.8-0.9
					c0.4,0,0.8,0.3,0.8,0.8c0.2,1.4,0.6,2.7,1.1,3.9c0.7,1.4,1.1,2.3,1.9,2.6c1,0.4,2.1-0.4,3.4-1.3c1.5-1,3.1-2.1,5.1-1.7
					c1.7,0.4,2.5,1.7,3.2,2.8c0.6,1,1.1,1.8,2.1,2.1c0.4,0.1,0.6,0.4,0.6,0.8C454.2,134.1,453.9,134.5,453.4,134.5z"/>
				<path d="M477.3,116.5c-0.1,0-0.2,0-0.2,0c-1.4-0.4-2.3-1.4-3.1-2.2c-0.8-0.8-1.5-1.5-2.5-1.7c-1.5-0.2-2.8,0.7-4.1,1.5
					c-1.4,1-2.9,1.9-4.5,1.4c-1.5-0.5-2.2-2-2.9-3.5c-0.3-0.8-0.6-1.5-0.8-2.3c-0.1-0.5,0.1-0.9,0.6-1c0.5-0.1,0.9,0.1,1,0.6
					c0.2,0.7,0.4,1.4,0.8,2.1c0.7,1.4,1.1,2.3,1.9,2.6c0.8,0.3,1.7-0.2,3-1.2c1.4-1,3.2-2.2,5.4-1.8c1.6,0.3,2.6,1.3,3.5,2.2
					c0.7,0.7,1.4,1.4,2.4,1.7c0.5,0.1,0.7,0.6,0.6,1.1C478,116.2,477.7,116.5,477.3,116.5z"/>
			</g>
			<g id="face_1_">
				<path d="M457.9,176c-0.3,0-0.6-0.2-0.8-0.5c-0.2-0.4,0-0.9,0.5-1.1c0.6-0.2,1.1-0.5,1.7-0.8c6.5-3,11.6-7.3,15.3-12.8
					c12.7-19,1.8-44.5-6.7-56.5c-2.1-3-5.4-7.6-10.3-11.5c-0.4-0.3-0.4-0.8-0.1-1.2c0.3-0.4,0.8-0.4,1.2-0.1
					c5.1,4.1,8.5,8.8,10.6,11.9c8.7,12.4,20,38.6,6.8,58.4c-3.8,5.7-9.2,10.2-15.9,13.4c-0.6,0.3-1.2,0.6-1.8,0.8
					C458.1,176,458,176,457.9,176z"/>
				<path d="M457.9,183.6c-0.5,0-0.8-0.4-0.8-0.9v-7.6c0-0.5,0.4-0.9,0.8-0.9s0.8,0.4,0.8,0.9v7.6
					C458.7,183.3,458.4,183.6,457.9,183.6z"/>
				<path d="M404.2,180C404.2,180,404.2,180,404.2,180c-0.5,0-0.9-0.4-0.8-0.9c0.3-3.9,0.5-7.8,0.8-11.4c0-0.5,0.4-0.8,0.9-0.8
					c0.5,0,0.8,0.4,0.8,0.9c-0.2,3.6-0.5,7.5-0.8,11.4C405,179.6,404.7,180,404.2,180z"/>
				<path d="M458.1,174.5c-0.1,2.1-0.2,4.3-0.2,6.4c-3.1,0.2-10.7,0.2-18.2-4.6c-3.7-2.4-6.2-5.2-7.8-7.3c4,2.8,12.9,8.3,23,6.3
					C456,175.2,457.1,174.9,458.1,174.5z"/>
			</g>
		</g>
		<path id="plate_1_" d="M587.5,399.3c-1.7,11.2-6,26.7-18.2,38.4c-12.9,12.4-27,13.2-71.3,14.5c-0.1,0-0.1,0-0.2,0
			c0.1,0,0.1-0.1,0.2-0.1c2.2-1.6,3.6-3.2,3.7-4.7c0.1-1.7-0.5-2.9-0.8-3.4c0.8-1.1,1.3-2.2,1.4-3.2c0-0.6,0.1-2.6-1.1-3.9
			c-1.1-1.1-2.8-1.2-4.7-0.8c0,0,0,0,0-0.1c0.2-0.5,0.9-2.4-0.1-3.8c-0.2-0.4-0.5-0.6-0.9-0.8c0,0-0.1,0-0.1-0.1c0,0,0,0,0,0
			c0,0-0.1-0.1-0.1-0.1c-0.7-0.4-1.6-0.5-2.3-0.5c0,0,0,0,0,0c-3-0.3-5.5,0.9-6.3,1.3c-1.1,0.5-2.1,1-3.2,1.5c0,0-0.1,0-0.1,0.1
			c-1.1,0.5-2.2,1-3.2,1.5c-0.2,0.1-0.3,0.1-0.5,0.2c0,0-0.1,0-0.1,0c-1.9,0.9-3.8,1.8-5.7,2.8c0,0-0.1,0-0.1,0.1
			c-2.2,1.1-5.5,2.7-9.8,4.3c-0.1,0-0.1,0.1-0.2,0.1c0,0-0.1,0-0.1,0.1c-1.8,0.7-4.2,1.6-6.9,2.2c-0.2,0.1-0.4,0.1-0.5,0.1
			c0,0,0,0-0.1,0c-1.1,0.3-2.3,0.5-3.5,0.7c0,0-0.1,0-0.1,0c-0.1,0-0.2,0-0.3,0.1c-0.4,0.1-0.7,0.1-1.1,0.2
			c-0.4,0.1-0.9,0.1-1.3,0.2c-0.5,0.1-0.9,0.1-1.4,0.1c-0.4,0-0.9,0.1-1.3,0.1c-0.4,0-0.8,0-1.2,0.1h-0.1c-0.1,0-0.2,0-0.4,0
			c-0.2,0-0.4,0-0.5,0h0c-6.8,0.1-12.3-1.1-16.1-2.2c4.3-1,17.8-4.3,28.1-8.7c2.4-1.1,6.7-3,8-7v0c0.1-0.2,0.2-0.5,0.3-0.9
			c0,0,0,0,0,0c0.3-1.9-0.4-2.9-0.6-3.2c-1.4-1.7-4.6-1.6-5.8-1.5c-0.1,0-0.2,0-0.3,0c-0.7,0.1-1.5,0.2-2.2,0.3
			c-3.2,0.5-6.2,1.1-9,1.9c0,0,0,0-0.1,0c0,0,0,0,0,0c-0.8,0.2-6,1.5-11.7,1.7c-6.1,0.2-8.7-1.1-12.8-1.3c0,0,0,0,0,0h0
			c-1-0.1-2.1,0-3.3,0.1c-0.1,0-0.2,0-0.4,0c-0.1,0-0.1,0-0.2,0c-3.4,0.3-6.8,1.1-7.7,1.2c-0.1,0-0.1,0-0.1,0
			c-1.3,0.7-2.4,0.8-3.1,0.8c-0.9-0.1-1.4-0.4-3.1-1c-1.1-0.4-1.9-0.7-2.5-0.8c-6.6-1.9-13.2-3.9-20-6c-6.7-2.1-13.3-4.2-19.7-6.3
			c-0.9-4.2-1.3-8.2-1.6-11.7c33.7,6.6,76.7,11.7,126.4,10C525.7,410.5,559.5,405.4,587.5,399.3z"/>
		<g id="hand_r_1_">
			<path d="M642.6,203.6c-0.4,0-0.8-0.3-0.8-0.8c-0.1-0.6-0.1-1.2-0.1-1.8c-0.2-4.2,0.4-8.1,1.8-11.7c2-5.2,4.7-7.5,7.3-9.7
				c2.4-2.1,4.6-4,6.3-8.1c1.6-4.1,1.8-8,1.9-11.5c0.1-4.4,0.3-8.1,3.5-10.3c0.5-0.3,0.9-0.6,1.4-0.7c0.9-0.3,1.6-0.3,1.8-0.2
				c3.2,0.4,5.7,4.5,6.8,11c0.1,0.5-0.2,0.9-0.7,1c-0.5,0.1-0.9-0.2-1-0.7c-0.9-5.6-3-9.4-5.3-9.6c-0.1,0-0.5,0-1.1,0.2
				c-0.3,0.1-0.7,0.3-1,0.5c-2.5,1.7-2.6,4.9-2.7,9c-0.1,3.6-0.2,7.7-2,12c-1.8,4.4-4.3,6.6-6.7,8.7c-2.6,2.2-5,4.3-6.8,9.1
				c-1.3,3.4-1.9,7.1-1.7,11.1c0,0.6,0.1,1.2,0.1,1.7C643.5,203.1,643.1,203.5,642.6,203.6C642.6,203.6,642.6,203.6,642.6,203.6z"/>
			<path d="M672.8,208.6c-0.1,0-0.2,0-0.2,0c-0.5-0.1-0.7-0.6-0.6-1.1c2.5-8.6-3.4-19.6-3.5-19.8c-0.1-0.3-0.1-0.6,0-0.8
				c2.6-5,4.1-10.2,4.3-15.4c0-1.2,0-2.4-0.1-3.4c0-0.5,0.3-0.9,0.8-0.9c0.5,0,0.9,0.3,0.9,0.8c0.1,1.1,0.1,2.4,0.1,3.6
				c-0.2,5.4-1.7,10.7-4.3,15.8c1.1,2.2,5.8,12.2,3.4,20.6C673.5,208.3,673.2,208.6,672.8,208.6z"/>
			<path d="M663.9,150.6c-0.1,0-0.3,0-0.4-0.1c-0.4-0.2-0.5-0.8-0.3-1.2c16.3-28.6,21.8-27.9,23.6-27.6c3,0.4,4.3,2.1,4.4,2.2
				c3.4,4.6-2.9,14.3-7,19.7c-0.3,0.4-0.8,0.4-1.2,0.2c-0.4-0.3-0.4-0.8-0.2-1.2c4.9-6.5,9.4-14.5,7-17.7c0,0-1-1.2-3.2-1.5
				c-2.3-0.3-8.2,2.8-21.9,26.8C664.5,150.5,664.2,150.6,663.9,150.6z"/>
			<path d="M644.2,190.4c-0.1,0-0.2,0-0.3-0.1c-0.4-0.2-0.6-0.7-0.4-1.1c2.2-5.1,4.5-10.3,6.8-15.3c2.9-6.2,5.9-12.4,9-18.4
				c0.2-0.4,0.7-0.6,1.1-0.4c0.4,0.2,0.6,0.7,0.4,1.1c-3.1,6.1-6.1,12.2-8.9,18.4c-2.3,5-4.6,10.2-6.8,15.3
				C644.8,190.2,644.5,190.4,644.2,190.4z"/>
			<path d="M675.2,168.8c-0.3,0-0.6,0-0.8-0.1c0,0-0.1,0-0.2,0c-0.1,0-0.3-0.1-0.6-0.1c-1.5-0.4-2.9-1.4-3.5-2.6
				c-0.7-1.3-0.7-2.8,0-4.8c0.2-0.5,0.4-1,0.6-1.6c0.2-0.5,0.4-0.9,0.7-1.4c0.4-0.7,0.8-1.5,1.2-2.2l0,0c0,0,0,0,0,0
				c0.5-0.8,1.8-3.3,4.4-6.7c3.9-5,5.8-7.6,8.8-7.8c2.8-0.2,5,1.7,6.1,2.8c2.3,2.4,3.2,6,2.5,10c-0.1,0.5-0.5,0.8-1,0.7
				c-0.5-0.1-0.8-0.5-0.7-1c0.6-3.4-0.1-6.5-2.1-8.5c-0.9-0.9-2.7-2.4-4.8-2.3c-2.2,0.1-4,2.5-7.5,7.1c-2.6,3.4-3.9,5.7-4.3,6.5
				c0,0,0,0,0,0.1c-0.4,0.8-0.8,1.5-1.1,2.2c-0.2,0.5-0.5,0.9-0.7,1.4c-0.2,0.5-0.4,1-0.6,1.5c-0.5,1.5-0.6,2.6-0.1,3.5
				c0.7,1.2,2.1,1.7,2.5,1.8c0.2,0.1,0.3,0.1,0.4,0.1c0,0,0.1,0,0.2,0c1.1,0.2,2.5-0.2,3.9-1.3c3-2.1,6.2-6.6,8.7-12.3
				c0.2-0.4,0.7-0.6,1.1-0.4c0.4,0.2,0.6,0.7,0.4,1.1c-2.7,6.1-6,10.7-9.3,13C678.1,168.3,676.6,168.8,675.2,168.8z"/>
			<path d="M684.5,181.3c-0.8,0-1.5-0.2-2.1-0.5c-1.7-0.9-2.3-2.7-2.5-3.4c-0.6-2-0.3-3.9,0.9-7c0.6-1.6,1.5-3.5,3-6.4
				c4.2-8.3,5.7-10.3,8.2-10.8c0.6-0.1,1.2-0.1,1.7-0.1c1.2,0.1,2.3,0.6,2.9,0.9c3.7,2.2,5.1,7.7,3.4,13.6c-0.1,0.5-0.6,0.7-1.1,0.6
				c-0.5-0.1-0.7-0.6-0.6-1.1c1.5-5,0.3-9.9-2.6-11.7c-0.7-0.4-1.5-0.6-2.2-0.7c-0.4,0-0.8,0-1.3,0.1c-1.5,0.3-2.7,1.4-7,9.9
				c-1.4,2.8-2.3,4.7-2.9,6.2c-1.2,3.1-1.2,4.5-0.8,5.9c0.2,0.5,0.6,1.8,1.7,2.4c1.3,0.7,2.9,0.1,3.4-0.2c0.2-0.1,0.3-0.1,0.5-0.2
				c1.3-0.6,2.5-1.9,5.3-6.7c1.4-2.4,2.7-5,4-7.5c0.2-0.4,0.7-0.6,1.1-0.4c0.4,0.2,0.6,0.7,0.4,1.1c-1.3,2.6-2.6,5.2-4,7.7
				c-2.7,4.7-4.2,6.5-6,7.4c-0.2,0.1-0.4,0.2-0.6,0.3C686.3,181.1,685.4,181.3,684.5,181.3z"/>
			<path d="M680.3,234.2c-0.1,0-0.3,0-0.4-0.1c-0.4-0.2-0.6-0.7-0.4-1.1l3.5-6.6c3-5.7,5.9-11.3,8.6-16.5c3.1-6.1,5.5-10.7,7.4-14.5
				c3.7-7.4,5.9-12.1,6.7-14.5l0.2-0.6c0.7-2,1.9-5.3,0.6-8.2c-0.8-1.8-2.7-3.8-5-4c-2.5-0.2-4.6,2.3-8.2,6.9
				c-1.8,2.3-3.5,4.4-4.3,6.3c-0.5,1.1-0.5,2.1-0.2,2.9c0.4,1,1.2,1.9,2.2,2.2c0.5,0.2,1.1,0.2,1.7,0c1.7-0.4,3.4-2,4.5-2.9
				c1.5-1.4,2.7-3,3.6-4.9c0.2-0.4,0.7-0.6,1.1-0.4c0.4,0.2,0.6,0.7,0.4,1.1c-1,2.1-2.3,3.9-3.9,5.4c-1.2,1.1-3.1,2.8-5.3,3.3
				c-0.9,0.2-1.8,0.2-2.6-0.1c-1.5-0.5-2.7-1.7-3.3-3.3c-0.4-1.3-0.4-2.6,0.3-4.1c0.8-2.1,2.6-4.3,4.5-6.7c4-5,6.2-7.8,9.7-7.6
				c3,0.2,5.4,2.6,6.4,5c1.6,3.6,0.2,7.4-0.6,9.5l-0.2,0.5c-0.8,2.4-3.1,7.2-6.8,14.7c-1.9,3.8-4.3,8.5-7.4,14.5
				c-2.7,5.2-5.6,10.8-8.6,16.6l-3.5,6.6C680.9,234,680.6,234.2,680.3,234.2z"/>
			<path d="M682.7,228.8c-0.8,1.5-1.6,3-2.4,4.6c-5.7-5-11.6-10.1-17.9-15.2c-6.7-5.5-13.3-10.6-19.8-15.4c-0.1-0.5-0.1-1.1-0.1-1.8
				c7.1,4.9,14.3,9.8,21.5,14.7C670.2,220.1,676.4,224.4,682.7,228.8z"/>
		</g>
		<g id="hand_l_1_">
			<path d="M428.3,445c-0.4,0-0.7-0.3-0.8-0.7c-0.1-0.5,0.2-0.9,0.6-1c6.8-1.5,16.7-4,25.7-7.7c2.7-1.1,9.8-4.7,10.4-8.3l0-0.2
				c0.1-1.2-0.5-2.2-0.6-2.3c-0.8-1.2-3.5-1.1-5.5-1.1c-1.8,0.1-3.2,0.3-3.8,0.4c-11.6,2.6-13,2.8-13.7,2.9
				c-2.4,0.3-5.1,0.6-8.6,0.4c-1.8-0.1-3.3-0.3-4.8-0.6c-1.5-0.2-3-0.5-4.7-0.5c-2.5-0.1-4.5,0.1-5.9,0.3l-0.3,0c-3,0.4-6,1-8.9,2
				c-0.5,0.1-0.9-0.1-1.1-0.5c-0.1-0.4,0.1-0.9,0.5-1.1c3.1-1,6.2-1.7,9.3-2.1l0.3,0c1.5-0.2,3.6-0.4,6.2-0.3
				c1.8,0.1,3.4,0.3,4.9,0.6c1.4,0.2,2.9,0.5,4.6,0.6c3.3,0.2,5.9-0.1,8.2-0.4c0.7-0.1,2.1-0.3,13.6-2.9c0.6-0.1,2.1-0.4,4.1-0.5
				c2.5-0.1,5.7-0.2,7,1.9c0.2,0.3,1,1.6,0.8,3.4l0,0.3c-0.8,5.2-11,9.4-11.4,9.6c-9.1,3.7-19.2,6.3-26,7.8
				C428.4,445,428.4,445,428.3,445z"/>
			<path d="M393.8,475.8l0-1.7h0c3-0.1,5.9-0.2,8.5-0.3c7.5-0.2,12.8-0.4,14.9-0.4c3.1-0.1,7.1-0.1,7.1-0.1l3.3,0
				c13.6-0.2,22.5-0.3,34.8-2.9c1.4-0.3,7.7-2.4,19.1-6.3l1.3-0.4c7-2.4,13.6-4.7,14.5-8.8c0.1-0.4,0.3-1.4-0.1-2.2
				c-0.2-0.4,0-1,0.4-1.2c0.4-0.2,0.9-0.1,1.1,0.3c0,0.1,0.1,0.1,0.1,0.2c0.6,1.3,0.3,2.7,0.2,3.2c-1.1,5.1-7.8,7.4-15.6,10
				l-1.3,0.4c-11.8,4-17.8,6.1-19.3,6.4c-12.4,2.6-22,2.8-35.1,2.9l-3.3,0c0,0-4,0.1-7.1,0.1c-2.2,0-7.4,0.2-14.9,0.4
				C399.7,475.6,396.8,475.7,393.8,475.8z"/>
			<path d="M456.3,458.6c-0.4,0-0.7-0.2-0.8-0.6c-0.1-0.4,0.1-0.9,0.6-1.1c4.4-1.3,8.8-2.9,12.9-4.6c1.9-0.8,3.7-1.6,5.4-2.4
				c5.6-2.6,18.7-8.8,21.4-14.3c0.3-0.7,0.5-1.3,0.5-1.9c0-0.2-0.1-0.6-0.5-1.1c-2.4-3.1-9.9,0.5-18.5,4.7c-5.9,2.9-12.6,6.1-19.2,8
				c-3.1,0.9-5,1.2-5.7,1.3l-0.1,0c-7.8,1.3-15.8,0.7-23.7-1.6c-0.5-0.1-0.7-0.6-0.6-1.1c0.1-0.4,0.6-0.7,1.1-0.6
				c7.7,2.2,15.4,2.7,23,1.5l0.1,0c0.7-0.1,2.4-0.4,5.5-1.2c6.5-1.8,13.1-5,18.9-7.9c9.6-4.7,17.3-8.4,20.6-4.2
				c0.5,0.7,0.8,1.3,0.8,2.1c0,0.9-0.2,1.8-0.7,2.8c-3,6-16.5,12.3-22.2,15.1c-1.7,0.8-3.6,1.6-5.4,2.4c-4.2,1.8-8.6,3.3-13.1,4.7
				C456.4,458.6,456.4,458.6,456.3,458.6z"/>
			<path d="M457.9,463.8c-0.4,0-0.7-0.2-0.8-0.6c-0.1-0.5,0.1-0.9,0.6-1.1c12.4-3.6,22.3-7.1,29.7-10.4c2.2-1,4.2-2,5.9-3
				c3.3-1.8,5.6-3.6,6.9-5.3c0.8-1,1.2-1.9,1.2-2.7c0.1-1.5-0.2-2.6-0.9-3.3c-0.7-0.7-2.1-0.9-3.9-0.6c-0.5,0.1-0.9-0.2-1-0.7
				s0.2-0.9,0.7-1c2.4-0.5,4.3-0.1,5.4,1.1c1,1,1.5,2.6,1.4,4.6c-0.1,1.2-0.6,2.4-1.6,3.7c-1.4,1.8-3.9,3.7-7.3,5.7
				c-1.7,1-3.8,2-6.1,3.1c-7.4,3.4-17.5,6.9-29.9,10.5C458.1,463.8,458,463.8,457.9,463.8z"/>
			<path d="M458.9,467.9c-0.4,0-0.7-0.2-0.8-0.6c-0.1-0.5,0.1-0.9,0.6-1c19.2-5.4,32.6-10.5,38.6-14.7c0,0,0,0,0.1,0l0.1-0.1
				c2.1-1.5,3.2-2.9,3.3-4.1c0.1-1.4-0.4-2.4-0.7-2.9c-0.2-0.4-0.1-0.9,0.3-1.2c0.4-0.2,0.9-0.1,1.2,0.3c0.4,0.6,1,2,0.9,3.8
				c-0.1,1.7-1.4,3.5-4,5.4l-0.6-0.6l0.5,0.7l-0.1,0.1c0,0,0,0,0,0c-7.8,5.5-25.5,11.1-39,14.9C459.1,467.9,459,467.9,458.9,467.9z"
				/>
			<path d="M408.1,427.6L408.1,427.6l-5.8,47.1c-2.6,0.1-5.5,0.2-8.5,0.3c2-7.2,4.1-14.4,6.2-21.5c2.4-8.5,4.9-17,7.3-25.5
				c0,0,0-0.1,0-0.1C407.5,427.7,407.8,427.6,408.1,427.6z"/>
		</g>
	</g>
</g>
</svg>
