<?xml version="1.0" encoding="utf-8"?>
<!-- Generator: Adobe Illustrator 22.1.0, SVG Export Plug-In . SVG Version: 6.00 Build 0)  -->
<svg version="1.1" xmlns="http://www.w3.org/2000/svg" xmlns:xlink="http://www.w3.org/1999/xlink" x="0px" y="0px"
	 viewBox="0 0 942 722.2" style="enable-background:new 0 0 942 722.2;" xml:space="preserve">
<style type="text/css">
	.st0{fill:#2D3CFE;}
	.st1{fill:#FF1E00;}
</style>
<g id="background">
	<g id="background_1_">
		<path d="M833.9,278.2c-7.8,0-16-5.7-24.4-16.9c-0.2-0.3-0.2-0.8,0.2-1c0.3-0.2,0.8-0.2,1,0.2c8.4,11.2,16.4,16.7,23.9,16.3
			c6.1-0.3,10.3-4.3,14.8-8.5c4.5-4.3,9.2-8.7,16.1-9c7.6-0.4,15.5,4.5,23.4,14.4c0.3,0.3,0.2,0.8-0.1,1.1s-0.8,0.2-1.1-0.1
			c-7.6-9.5-15.1-14.2-22.2-13.8c-6.3,0.3-10.6,4.3-15.1,8.6c-4.5,4.2-9.1,8.5-15.7,8.9C834.4,278.1,834.1,278.2,833.9,278.2z"/>
		<path d="M27.9,621.4c-8.9,0-18.2-6.5-27.8-19.3c-0.2-0.3-0.2-0.8,0.2-1c0.3-0.2,0.8-0.2,1,0.2c9.6,12.8,18.8,19.1,27.5,18.7
			c7-0.4,11.9-4.9,17-9.7c5.2-4.9,10.5-9.9,18.3-10.3c8.7-0.4,17.6,5.1,26.7,16.4c0.3,0.3,0.2,0.8-0.1,1.1c-0.3,0.3-0.8,0.2-1.1-0.1
			c-8.7-10.9-17.3-16.2-25.4-15.8c-7.2,0.3-12.2,5-17.4,9.9c-5.1,4.8-10.4,9.8-17.9,10.1C28.6,621.4,28.3,621.4,27.9,621.4z"/>
		<path d="M124.9,71.1c-8.3,0-17-6.1-26-18.1c-0.2-0.3-0.2-0.8,0.2-1c0.3-0.2,0.8-0.2,1,0.2c9,12,17.6,17.9,25.6,17.4
			c6.5-0.3,11.1-4.6,15.8-9.1c4.8-4.6,9.9-9.3,17.2-9.6c8.1-0.4,16.5,4.8,25,15.4c0.3,0.3,0.2,0.8-0.1,1.1c-0.3,0.3-0.8,0.2-1.1-0.1
			C174.3,57,166.3,52,158.7,52.4c-6.7,0.3-11.3,4.6-16.2,9.2c-4.8,4.5-9.7,9.1-16.8,9.5C125.5,71.1,125.2,71.1,124.9,71.1z"/>
		<polygon class="st0" points="73.8,254.4 57.5,243.6 68.9,228.1 85.1,238.9 		"/>
		<path d="M536.4,522.7c0,0-0.1,0-0.1,0l-9.9-1.7c-0.2,0-0.4-0.1-0.5-0.3c-0.1-0.2-0.2-0.4-0.1-0.6l1.8-9.4c0.1-0.4,0.5-0.7,0.9-0.6
			l9.9,1.7c0.2,0,0.4,0.1,0.5,0.3c0.1,0.2,0.2,0.4,0.1,0.6l-1.8,9.4C537,522.4,536.7,522.7,536.4,522.7z M527.4,519.6l8.4,1.5l1.5-8
			l-8.4-1.5L527.4,519.6z"/>
		<path d="M359.8,18.9c-0.1,0-0.2,0-0.3-0.1c-0.4-0.2-0.6-0.6-0.4-1l7-17.4c0.2-0.4,0.6-0.6,1-0.4c0.4,0.2,0.6,0.6,0.4,1l-7,17.4
			C360.4,18.7,360.1,18.9,359.8,18.9z"/>
		<path d="M175,321.7c-0.2,0-0.5-0.1-0.6-0.3c-0.2-0.3-0.1-0.8,0.2-1l16.1-10.5c0.3-0.2,0.8-0.1,1,0.2c0.2,0.3,0.1,0.8-0.2,1
			l-16.1,10.5C175.3,321.7,175.1,321.7,175,321.7z"/>
		<path d="M285.5,640.3c-0.2,0-0.4-0.1-0.5-0.2c-0.3-0.3-0.3-0.8,0-1.1l12.9-14c0.3-0.3,0.8-0.3,1.1,0c0.3,0.3,0.3,0.8,0,1.1
			L286,640C285.9,640.2,285.7,640.3,285.5,640.3z"/>
		<path d="M922.8,25.2c-0.3,0-0.6-0.2-0.7-0.5c-0.1-0.4,0.1-0.8,0.5-1l18.4-6.3c0.4-0.1,0.8,0.1,1,0.5s-0.1,0.8-0.5,1L923,25.2
			C923,25.2,922.9,25.2,922.8,25.2z"/>
		<path d="M291.9,167.7c-0.2,0-0.5-0.1-0.6-0.3l-10.2-15.9c-0.2-0.3-0.1-0.8,0.2-1c0.3-0.2,0.8-0.1,1,0.2l10.2,15.9
			c0.2,0.3,0.1,0.8-0.2,1C292.2,167.6,292.1,167.7,291.9,167.7z"/>
		<path d="M432.9,446.7c-0.1,0-0.2,0-0.3-0.1l-17.3-8.6c-0.4-0.2-0.5-0.6-0.3-1c0.2-0.4,0.6-0.5,1-0.3l17.3,8.6
			c0.4,0.2,0.5,0.6,0.3,1C433.4,446.5,433.2,446.7,432.9,446.7z"/>
		<path d="M637.2,710c-0.2,0-0.4-0.1-0.6-0.3l-12-14.7c-0.3-0.3-0.2-0.8,0.1-1.1c0.3-0.3,0.8-0.2,1.1,0.1l12,14.7
			c0.3,0.3,0.2,0.8-0.1,1.1C637.5,710,637.4,710,637.2,710z"/>
		<path d="M524.5,344.2c-0.2,0-0.5-0.1-0.6-0.3c-0.2-0.3-0.2-0.8,0.2-1l15.6-11.2c0.3-0.2,0.8-0.2,1,0.2c0.2,0.3,0.2,0.8-0.2,1
			L525,344C524.8,344.1,524.7,344.2,524.5,344.2z"/>
		<path d="M773.2,407.8c-0.2,0-0.4-0.1-0.5-0.2l-14-13c-0.3-0.3-0.3-0.8,0-1.1c0.3-0.3,0.8-0.3,1.1,0l14,13c0.3,0.3,0.3,0.8,0,1.1
			C773.6,407.7,773.4,407.8,773.2,407.8z"/>
		<path d="M853.6,650.8c-0.2,0-0.3-0.1-0.5-0.2l-14.9-12c-0.3-0.3-0.4-0.7-0.1-1.1c0.3-0.3,0.7-0.4,1.1-0.1l14.9,12
			c0.3,0.3,0.4,0.7,0.1,1.1C854,650.7,853.8,650.8,853.6,650.8z"/>
		<path d="M922.8,386.8c-0.3,0-0.6-0.2-0.7-0.5l-6.1-17.7c-0.1-0.4,0.1-0.8,0.5-1c0.4-0.1,0.8,0.1,1,0.5l6.1,17.7
			c0.1,0.4-0.1,0.8-0.5,1C923,386.8,922.9,386.8,922.8,386.8z"/>
		<ellipse class="st0" cx="470.4" cy="632.5" rx="8.3" ry="7.9"/>
		<ellipse class="st0" cx="817.5" cy="93.4" rx="9.6" ry="9.2"/>
		<path d="M90.2,459.4c-3.3,0-6.1-2.4-6.4-5.6c-0.2-1.6,0.3-3.2,1.4-4.4c1.1-1.3,2.7-2.1,4.4-2.3c3.5-0.3,6.7,2.2,7,5.5l0,0
			c0.2,1.6-0.3,3.2-1.4,4.4c-1.1,1.3-2.7,2.1-4.4,2.3C90.6,459.4,90.4,459.4,90.2,459.4z M90.2,448.6c-0.2,0-0.3,0-0.5,0
			c-1.4,0.1-2.6,0.8-3.4,1.8c-0.8,0.9-1.1,2.1-1,3.3c0.3,2.6,2.7,4.5,5.4,4.2c1.4-0.1,2.6-0.8,3.4-1.8c0.8-0.9,1.1-2.1,1-3.3l0,0
			C94.9,450.4,92.7,448.6,90.2,448.6z"/>
		<path d="M868.9,522.5c-1.6,0-3.3-0.6-4.5-1.8c-1.2-1.2-1.9-2.7-1.9-4.4c0-1.7,0.7-3.2,1.9-4.4l0,0c2.5-2.4,6.6-2.4,9.1,0
			c1.2,1.2,1.9,2.7,1.9,4.4c0,1.7-0.7,3.2-1.9,4.4C872.2,521.9,870.6,522.5,868.9,522.5z M865.4,513c-0.9,0.9-1.4,2-1.4,3.3
			c0,1.2,0.5,2.4,1.4,3.3c1.9,1.8,5.1,1.8,7,0c0.9-0.9,1.4-2,1.4-3.3c0-1.2-0.5-2.4-1.4-3.3C870.5,511.2,867.4,511.2,865.4,513
			L865.4,513z"/>
	</g>
</g>
<g id="general_1_">
	<g id="general_2_">
		<g id="basket_1_">
			<path d="M459.7,258.8c-0.2,0-0.5-0.1-0.6-0.3c-0.1-0.2-0.2-0.4-0.2-0.6l6.6-33.6c0.1-0.4,0.4-0.6,0.7-0.6c0,0,0,0,0,0
				c0.4,0,0.7,0.3,0.7,0.6c0,0.1,0,0.3,0,0.4c-2,10.3-4,20.5-6,30.4l-0.6,3C460.4,258.5,460.1,258.8,459.7,258.8z"/>
			<path d="M482.6,258.8c-0.2,0-0.5-0.1-0.6-0.3c-0.1-0.2-0.2-0.4-0.2-0.6l6.6-33.6l-10.6-54.7l-3.6,18.5
				c-2.3,11.9-4.7,24.3-7.2,36.7c-0.1,0.4-0.4,0.6-0.7,0.6h0c-0.4,0-0.7-0.3-0.7-0.6l0-0.2c0-0.1,0-0.2,0-0.3l11.5-58.8l-2.4-12.5
				c0-0.1,0-0.1,0-0.2c0-0.4,0.3-0.8,0.7-0.8c0.4,0,0.7,0.3,0.7,0.6l2.5,12.7c0,0,0,0.1,0,0.1c0,0,0,0.1,0,0.1l10.7,55
				c2.9-14.7,5.7-29.4,8.4-43l2.4-12.2c0.1-0.5,0.2-1,0.3-1.5l0.2-1c0.1-0.4,0.5-0.7,0.9-0.6c0.4,0.1,0.7,0.5,0.6,0.9l-0.2,1
				c-0.1,0.5-0.2,1-0.3,1.5l-2.4,12.2c-2.9,14.8-6,30.8-9.1,46.7c0,0,0,0,0,0.1c-2.2,11.3-4.4,22.7-6.6,33.6
				C483.3,258.5,483,258.8,482.6,258.8z"/>
			<path d="M472.1,137.3c-0.4,0-0.7-0.3-0.7-0.6l0-0.1c0-0.1,0-0.1,0-0.2c0-0.4,0.3-0.8,0.7-0.8h0c0.4,0,0.7,0.3,0.7,0.6l0,0.2
				c0.1,0.4-0.2,0.8-0.6,0.9C472.2,137.3,472.2,137.3,472.1,137.3z"/>
			<path d="M477.8,166.2C477.8,166.2,477.8,166.2,477.8,166.2c-0.4,0-0.7-0.3-0.7-0.6l-2.5-12.7c-0.1-0.4,0.2-0.8,0.6-0.9
				c0.4-0.1,0.8,0.2,0.9,0.6l1.7,8.9l1.8-9.3c0.1-0.4,0.5-0.7,0.9-0.6c0.4,0.1,0.7,0.5,0.6,0.9l-2.6,13.1
				C478.4,166,478.1,166.2,477.8,166.2z"/>
			<path d="M472.2,137.3c-0.4,0-0.7-0.3-0.7-0.6c0,0,0-0.1,0-0.1c-0.1-0.4,0.1-0.8,0.5-0.9c0.4-0.1,0.8,0.1,0.9,0.5
				c0,0.1,0,0.2,0.1,0.3c0.1,0.4-0.2,0.8-0.6,0.8C472.2,137.3,472.2,137.3,472.2,137.3z"/>
			<path d="M498.1,152.5c-0.4,0-0.7-0.2-0.7-0.6l-0.1-0.7c-0.1-0.4,0.2-0.8,0.6-0.9c0.4-0.1,0.8,0.2,0.9,0.6l0.1,0.7
				c0.1,0.4-0.2,0.8-0.6,0.9C498.2,152.5,498.1,152.5,498.1,152.5z"/>
			<path d="M489.2,225.1L489.2,225.1c-0.4,0-0.7-0.3-0.7-0.6c-1.7-8.7-3.4-17.4-5.1-26.1l-6.3-32.5c0,0,0-0.1,0-0.1c0,0,0-0.1,0-0.2
				l2.6-13.2c0.1-0.4,0.5-0.7,0.9-0.6c0.4,0.1,0.7,0.5,0.6,0.9l-2.5,13.1l6.3,32.4c1.4,7.4,2.9,14.9,4.3,22.3l10.8-55.1
				c0.1-0.4,0.5-0.7,0.9-0.6c0.4,0.1,0.7,0.5,0.6,0.9l-11.5,58.9C489.9,224.8,489.6,225.1,489.2,225.1z"/>
			<path d="M498.1,152.5c-0.4,0-0.7-0.2-0.7-0.6l-0.1-0.7c-0.1-0.4,0.2-0.8,0.6-0.9c0.4-0.1,0.8,0.2,0.9,0.6l0.1,0.7
				c0.1,0.4-0.2,0.8-0.6,0.9C498.2,152.5,498.1,152.5,498.1,152.5z"/>
			<path d="M409,166.4c0,0-0.1,0-0.1,0c-0.4-0.1-0.7-0.5-0.6-0.9l0,0l8.4-43.4c0.1-0.4,0.5-0.7,0.9-0.6c0.4,0.1,0.7,0.5,0.6,0.9l0,0
				l-8.4,43.4C409.7,166.1,409.4,166.4,409,166.4z"/>
			<path d="M472.7,258.8c-0.4,0-0.7-0.2-0.7-0.6l0,0l-5.3-27.6c-0.4-1.9-0.7-3.8-1.1-5.7h0l0,0c-0.1-0.4,0.2-0.8,0.6-0.9
				c0.4-0.1,0.8,0.2,0.9,0.6l0,0l1.1,5.7c1.5,7.6,2.9,15.1,4.4,22.7l1,5c0.1,0.4-0.2,0.8-0.6,0.9
				C472.8,258.8,472.8,258.8,472.7,258.8z"/>
			<path d="M423.3,239.8c-0.4,0-0.7-0.2-0.7-0.6l0-0.1c-2.7-13.9-5.3-27.1-5.5-28c-1.4-7.2-4-20.5-6.2-31.6l-2.7-13.6
				c-2-10.1-3.8-19.4-5.3-27.5l-3.1-16.1c-0.1-0.4,0.2-0.8,0.6-0.9c0.4-0.1,0.8,0.2,0.9,0.6v0l19.2,98.4l10.6-54.8
				c-2.2-11.5-4.3-22.1-6-31l-2.4-12.4c-0.1-0.4,0.2-0.8,0.6-0.9c0.4-0.1,0.8,0.2,0.9,0.6l0,0l7.7,39.5l5.3-27.2
				c0.7-3.7,1.4-7.4,2.2-11.2l0.2-1.2c0.1-0.4,0.5-0.7,0.9-0.6c0.4,0.1,0.7,0.5,0.6,0.9l0,0l-8.4,43.2l11.6,59.1c0,0.1,0,0.2,0,0.3
				l0,0.2c-0.1,0.4-0.4,0.6-0.7,0.6c0,0,0,0,0,0c-0.4,0-0.7-0.3-0.7-0.6l-1.4-7.2c-3.3-16.7-6.5-33.2-9.4-48.3l-10.6,54.7l2.8,14.5
				c0,0,0,0.1,0,0.1v0c0.1,0.4-0.2,0.8-0.6,0.9C423.4,239.8,423.4,239.8,423.3,239.8z"/>
			<path d="M458.6,147.4c0,0-0.1,0-0.1,0c-0.4-0.1-0.7-0.5-0.6-0.9l0.3-1.5c0.1-0.4,0.5-0.7,0.9-0.6c0.4,0.1,0.7,0.5,0.6,0.9
				l-0.3,1.5C459.3,147.2,459,147.4,458.6,147.4z"/>
			<path d="M460.4,138.2c0,0-0.1,0-0.1,0c-0.4-0.1-0.7-0.5-0.6-0.9l0.4-1.9c0.1-0.4,0.5-0.7,0.9-0.6c0.4,0.1,0.7,0.5,0.6,0.9
				l-0.4,1.9C461.1,137.9,460.8,138.2,460.4,138.2z"/>
			<path d="M443.6,226.1C443.6,226.1,443.6,226.1,443.6,226.1c-0.4,0-0.7-0.3-0.7-0.6l-0.1-0.6c0-0.1,0-0.2,0-0.3l11.4-58.7
				l-2.5-12.9c0,0,0-0.1,0-0.1c0-0.4,0.2-0.7,0.6-0.7c0.4-0.1,0.8,0.2,0.9,0.6l1.8,9.2l1.7-8.5c0.1-0.4,0.5-0.7,0.9-0.6
				c0.4,0.1,0.7,0.5,0.6,0.9l-2.4,12.3c0,0,0,0,0,0c0.1,0.2,0.1,0.3,0.1,0.5c-3.9,20.6-7.7,39.9-11.4,58.9
				C444.3,225.8,444,226.1,443.6,226.1z"/>
			<path d="M451.3,148.2c-0.4,0-0.7-0.2-0.7-0.6l-0.5-2.5c-0.1-0.4,0.2-0.8,0.6-0.9c0.4-0.1,0.8,0.2,0.9,0.6l0.5,2.5
				c0.1,0.4-0.2,0.8-0.6,0.9C451.4,148.2,451.4,148.2,451.3,148.2z"/>
			<path d="M449.5,139c-0.4,0-0.7-0.2-0.7-0.6l-0.6-3.1c0-0.2,0-0.4,0.2-0.6c0.1-0.2,0.4-0.3,0.6-0.3h0c0.4,0,0.7,0.3,0.7,0.6
				l0.6,3.1c0.1,0.4-0.2,0.8-0.6,0.9C449.6,139,449.6,139,449.5,139z"/>
			<path d="M458.7,147.4c0,0-0.1,0-0.1,0c-0.4-0.1-0.7-0.5-0.6-0.9l0.3-1.5c0.1-0.4,0.5-0.7,0.9-0.6c0.4,0.1,0.7,0.5,0.6,0.9
				l-0.3,1.5C459.4,147.2,459.1,147.4,458.7,147.4z"/>
			<path d="M460.5,138.2c0,0-0.1,0-0.1,0c-0.4-0.1-0.7-0.5-0.6-0.9l0.4-1.9c0.1-0.4,0.5-0.7,0.9-0.6c0.4,0.1,0.7,0.5,0.6,0.9
				l-0.4,1.9C461.1,137.9,460.8,138.2,460.5,138.2z"/>
			<path d="M466.2,225.2c-0.4,0-0.7-0.2-0.7-0.6l-11.2-58.1c0-0.1,0-0.2,0-0.3l2.4-12.9c0.1-0.4,0.5-0.7,0.9-0.6
				c0.4,0.1,0.7,0.5,0.6,0.9l-2.4,12.7l11.2,58c0.1,0.4-0.2,0.8-0.6,0.9C466.3,225.2,466.3,225.2,466.2,225.2z"/>
			<path d="M447.6,129.1c-0.4,0-0.7-0.2-0.7-0.6l-0.2-1.3c0,0,0,0,0,0l-0.9-4.8c-0.1-0.4,0.2-0.8,0.6-0.9c0.4-0.1,0.8,0.2,0.9,0.6
				l1.2,6.1c0,0,0,0.1,0,0.1c0,0.4-0.2,0.7-0.6,0.7C447.7,129.1,447.7,129.1,447.6,129.1z"/>
			<path d="M466.2,225.2c-0.4,0-0.7-0.3-0.7-0.6l-4.7-24.3c-0.1-0.4,0.2-0.8,0.6-0.9c0.4-0.1,0.8,0.2,0.9,0.6l4.7,24.3
				c0,0,0,0.1,0,0.1v0C467,224.9,466.7,225.2,466.2,225.2C466.3,225.2,466.3,225.2,466.2,225.2z"/>
			<path d="M732.6,569.9c-4.6,6.6-23.6,33.8-28.4,40.7l-0.8-79.8C704.7,532.6,731.8,568.8,732.6,569.9z"/>
			<path d="M470.4,127.1l-75.8,0l0-9.7l57.1,0c-1.6,0.2-2.9,0.7-3.8,1.8c-0.2,0.2-1,1.2-0.8,2.3c0.5,2.1,4.8,2.8,8.1,3.3
				c2.6,0.4,5.1,0.8,7.5,1.2l0,0C465.4,126.3,467.9,126.7,470.4,127.1L470.4,127.1L470.4,127.1C470.3,127,470.4,127.1,470.4,127.1z"
				/>
			<path d="M489.8,122.3c-13-1.6-22.3-3-29.6-4.4c-1.1-0.2-2.6-0.5-4.3-0.7h23.8C484.4,120.1,489.8,122.3,489.8,122.3z"/>
			<path d="M514.5,117.3v9.7h-1.1c-1.6-0.9-3.1-1.8-4.6-2.7c-4.4-2.6-8.3-4.9-11.8-7H514.5z"/>
		</g>
		<g id="ball_1_">
			<g>
				<path class="st1" d="M389.6,268.7c2.9-5.9,6.6-13.1,9.4-17.9c0.3-0.6,0.8-1.3,1.3-2c0.6-0.8,1.3-1.6,2-2.1h0
					c0.1-0.1,0.1-0.1,0.2-0.1c0.2-0.1,0.4-0.2,0.6-0.3h0c0.3-0.1,0.7-0.2,1.1-0.2c0.6,0,1.3,0.4,1.8,0.8c0.3,0.3,0.5,0.6,0.7,0.9
					c0,0.1,0.1,0.1,0.1,0.2c0.4,0.9,0.2,1.9-0.1,2.8c-0.2,0.6-0.5,1.1-0.8,1.5c-3.3,5.6-6.4,11.4-6.1,11.5c0.2,0.2,4.4-4.6,9.6-9.7
					c1.5-1.5,3.1-3,4.6-4.5c0.2-0.2,0.5-0.5,0.8-0.7c2.6-2.3,5.2-4.4,7.4-5.7c0.8-0.4,1.5-0.8,2.1-1c0.3-0.1,0.5-0.2,0.8-0.2
					c0.7-0.2,1.3-0.2,1.8,0c0.3,0.1,1.6,0.6,1.9,1.7c0.4,1.4-1,2.9-2,3.8c-0.2,0.2-0.4,0.4-0.5,0.5c-1,0.9-9.4,9.1-12.1,11.9
					c1.7-1,3.3-2,4.8-2.9c0.8-0.5,1.6-1,2.4-1.5c1.7-1,3.1-2,4.5-2.9c0.4-0.2,0.7-0.5,1.1-0.7c0.5-0.4,1-0.7,1.5-1
					c0.1-0.1,0.2-0.1,0.2-0.2c1.1-0.7,2.2-1.5,3.3-2.1c1.8-1,3.5-1.6,4.8-0.9c0.9,0.5,1.6,1.6,1.6,2.6c0,1.7-1.7,3-3,3.9
					c0,0,0,0,0,0l-1,0.6c-1,0.6-2,1.3-3.2,2.1c-0.6,0.4-1.2,0.8-1.8,1.2c-2.8,2-6.1,4.3-10,7.2c3.6-1.2,6.5-2.5,8.7-3.6
					c0.6-0.3,1.1-0.6,1.6-0.8c0.9-0.5,1.8-1,2.7-1.5c2.3-1.4,4.2-2.6,5.7-3.2h0c0.1,0,0.2-0.1,0.4-0.2c0.5-0.2,1-0.4,1.5-0.3
					c0.8,0,1.4,0.6,1.6,0.9c0.3,0.4,0.5,0.8,0.6,1.2c0.2,1.8-2.1,3.5-4.1,4.7c-0.1,0.1-0.2,0.1-0.3,0.2c-0.9,0.6-1.9,1.2-3,1.9
					c-2.7,1.6-6.1,3.6-10.2,5.7c3.4-0.3,6-1.2,7.7-2c1.3-0.6,2.4-1.2,3.4-1.7c1.2-0.6,2.1-1.2,3-1.4c0.6-0.2,1.2-0.2,1.8,0.1
					c0.8,0.3,1.5,1.1,1.6,1.9c0.1,1-0.7,1.9-1.6,2.6c-0.7,0.6-1.6,1.1-2.2,1.5c-0.1,0.1-0.2,0.1-0.3,0.2c-4.1,2.3-12,6-18.6,9v0
					c-0.6,0.3-1.2,0.5-1.8,0.8c-1.4,0.6-2.8,1.3-4,1.8c-2.5,1.1-4.3,1.9-5,2.2c-0.1,0.1-0.3,0.3-0.5,0.5c-0.1,0.2-0.2,0.4-0.3,0.5
					c2,0.9,3.6,1.4,4.4,1.7c0.9,0.3,1.7,0.5,1.7,0.5c0.2,0.1,0.4,0.1,0.7,0.2c1.6,0.4,3.2,0.7,4.8,0.9v0c8.8,1.1,17.4-0.7,24.7-4.7
					c0.7-0.4,1.5-0.8,2.2-1.3c0.6-0.4,1.2-0.8,1.8-1.2l0,0l0,0c6.6-4.8,11.6-11.6,13.9-19.8c0.1-0.2,0.1-0.4,0.2-0.6
					c2.4-9,1-18-3-25.7c-0.2-0.5-0.5-0.9-0.8-1.4c-4.9-8.4-13.2-14.9-23.7-17.6c-0.4-0.1-0.9-0.2-1.3-0.3c-0.4-0.1-0.9-0.2-1.3-0.3
					v0c-6.6-1.2-13.1-0.8-19.2,1.1c-0.9,0.3-1.7,0.6-2.6,0.9c-1.3,0.5-2.6,1-3.8,1.7c-7.3,3.7-13.4,9.7-17,17.2
					c-0.8,1.7-1.5,3.4-2,5.3c-0.1,0.2-0.1,0.4-0.2,0.6C384.8,252.2,385.8,261.1,389.6,268.7"/>
			</g>
			<path d="M419.4,290.4C419.4,290.4,419.4,290.4,419.4,290.4c-0.4,0-0.8-0.3-0.8-0.7v0c0.2-3,0.2-6-0.1-9.1c0-0.4,0.3-0.8,0.7-0.8
				c0.4,0,0.8,0.3,0.8,0.7c0.3,3.1,0.3,6.3,0.1,9.3C420.2,290.1,419.8,290.4,419.4,290.4z"/>
			<path d="M402.6,247.3c-0.2,0-0.4-0.1-0.5-0.2c-3.8-3.5-8.2-6.5-12.9-8.8c-0.4-0.2-0.5-0.6-0.3-1c0.2-0.4,0.6-0.5,1-0.3
				c4.9,2.4,9.3,5.5,13.3,9.1c0.3,0.3,0.3,0.8,0,1.1C403,247.2,402.8,247.3,402.6,247.3z"/>
			<path d="M409.4,254.9c-0.2,0-0.5-0.1-0.6-0.3c-0.1-0.1-0.2-0.3-0.3-0.4c-0.8-1-1.6-2-2.3-2.9c-0.3-0.3-0.2-0.8,0.1-1.1
				c0.3-0.3,0.8-0.2,1.1,0.1c0.8,0.9,1.6,1.9,2.4,3c0.1,0.2,0.2,0.3,0.3,0.5c0.2,0.3,0.1,0.8-0.2,1
				C409.7,254.8,409.5,254.9,409.4,254.9z"/>
			<path d="M461,266.4c-0.1,0-0.3,0-0.4-0.1c-6.4-3.6-11.9-8.3-16.3-13.9c-10.5-13.3-11.8-27.9-11.6-35.5c0-0.4,0.4-0.7,0.8-0.7
				c0.4,0,0.7,0.4,0.7,0.8c-0.2,7.3,1.1,21.6,11.3,34.5c4.3,5.4,9.7,10,15.9,13.5c0.4,0.2,0.5,0.7,0.3,1
				C461.5,266.3,461.3,266.4,461,266.4z"/>
			<path d="M424.3,243c-0.3,0-0.6-0.2-0.7-0.4l-11.4-24.4c-0.2-0.4,0-0.8,0.4-1c0.4-0.2,0.8,0,1,0.4l11.4,24.4c0.2,0.4,0,0.8-0.4,1
				C424.5,242.9,424.4,243,424.3,243z"/>
			<path d="M432.3,260.2c-0.3,0-0.6-0.2-0.7-0.4c-0.4-0.8-0.8-1.7-1.2-2.5c-0.2-0.4,0-0.8,0.4-1c0.4-0.2,0.8,0,1,0.4
				c0.4,0.8,0.8,1.7,1.2,2.5c0.2,0.4,0,0.8-0.4,1C432.5,260.2,432.4,260.2,432.3,260.2z"/>
			<path d="M444.2,285.7c-0.3,0-0.6-0.2-0.7-0.4l-6.2-13.4c-0.2-0.4,0-0.8,0.4-1c0.4-0.2,0.8,0,1,0.4l6.2,13.4c0.2,0.4,0,0.8-0.4,1
				C444.4,285.6,444.3,285.7,444.2,285.7z"/>
			<path d="M435.7,267.4c-0.3,0-0.5-0.2-0.7-0.4c-0.3-0.7-0.6-1.3-0.9-2c-0.2-0.4,0-0.8,0.4-1c0.4-0.2,0.8,0,1,0.4
				c0.3,0.7,0.6,1.3,0.9,2c0.2,0.4,0,0.8-0.4,1C435.9,267.4,435.8,267.4,435.7,267.4z"/>
			<path d="M428.3,251.7c-0.3,0-0.6-0.2-0.7-0.4l-0.5-1.2c-0.4-0.8-0.7-1.5-1.1-2.3c-0.2-0.4,0-0.8,0.4-1c0.4-0.2,0.8,0,1,0.4
				c0.3,0.8,0.7,1.5,1.1,2.3l0.5,1.2c0.2,0.4,0,0.8-0.4,1C428.5,251.7,428.4,251.7,428.3,251.7z"/>
			<path d="M436.7,248.5c-0.3,0-0.5-0.1-0.7-0.4c-0.2-0.4,0-0.8,0.3-1l22.5-11.4c0.4-0.2,0.8,0,1,0.3c0.2,0.4,0,0.8-0.3,1L437,248.4
				C436.9,248.5,436.8,248.5,436.7,248.5z"/>
		</g>
		<g id="man_2_1_">
			<g id="tshirt_3_">
				<path class="st1" d="M618.9,215.1c-3.5,7.7-12.2,25.8-22.7,30.9c-0.8,0.4-1.5,0.7-1.5,0.7c-9.7,4-18.9,2.7-22.2,2.1
					c-24.1-3.8-38.1-26.8-54.5-53.6c-4.9-8.1-10.9-18.8-16.8-32.2c0,0,0-0.1,0-0.1c-0.6-1.3-1.2-2.7-1.8-4.1v0c0,0,0,0,0,0
					c-0.8-2-1.7-4-2.5-6.1c0.4-0.3,0.7-0.6,1.1-0.9c0.3-0.3,0.7-0.5,1-0.8c7.7-6.2,15.5-12.5,23.2-18.8c1.2-0.9,2.4-1.9,3.5-2.8
					c15.8,24.1,31.7,48.3,47.5,72.4c7.1-18.7,19.7-47.9,39.2-74.3c7.4-10,15.9-19.7,29.9-24.5c2.6-0.9,13.7-4.6,23.8-2.2
					c18.6,4.4,27.8,27.9,39.8,69.2c7.6,26.2,16.6,60.7,24.9,102.2c-77.6,26.8-105.5,36.4-107.8,37.2c-3.9,1.3-7.9,2.7-7.9,2.7
					c0,0-0.1,0-0.1,0c0,0-0.4,0.2-0.5,0.2C616.1,279.8,617.5,247.4,618.9,215.1z"/>
				<path d="M617.1,219.6c-0.1,0-0.2,0-0.3-0.1c-0.4-0.2-0.5-0.6-0.3-1l16.5-33.4c0.2-0.4,0.6-0.5,1-0.3c0.4,0.2,0.5,0.6,0.3,1
					l-16.5,33.4C617.7,219.5,617.4,219.6,617.1,219.6z"/>
			</g>
			<g id="shoes_3_">
				<path d="M593.1,660.9c-0.4,0-0.7-0.3-0.7-0.7c-0.3-3.3-0.1-6.4,0.7-9.1c0.5-1.6,1.1-3.1,2-4.5c3.8-6.2,9.9-8.2,23.4-12.7
					c1.8-0.6,3.7-1.2,5.8-1.9c8.1-2.7,16.5-5.7,25-9c0.4-0.1,0.8,0,1,0.4c0.1,0.4,0,0.8-0.4,1c-8.6,3.2-17,6.3-25.1,9
					c-2.1,0.7-4,1.3-5.8,1.9c-13.2,4.4-19.2,6.3-22.6,12.1c-0.8,1.3-1.4,2.7-1.8,4.1c-0.7,2.4-0.9,5-0.7,7.8l71.7-3.8
					c4.4-0.2,8.8-0.5,13.2-0.7l24.8-1.3v-35.3c0-0.4,0.3-0.8,0.8-0.8s0.8,0.3,0.8,0.8v36c0,0.4-0.3,0.7-0.7,0.7l-25.5,1.3
					c-4.4,0.2-8.8,0.5-13.2,0.7L593.1,660.9C593.1,660.9,593.1,660.9,593.1,660.9z"/>
				<path d="M704.3,632.5v-14.2l-0.1-7.7l-0.3-25.8l22.2-22.7c8.2,9,16.5,18.1,24.7,27.1C735.4,603.7,719.8,618.1,704.3,632.5z"/>
				<path d="M704.3,644v10.3c-8.3,0.4-16.6,0.9-24.9,1.3c-4.6,0.2-9.2,0.5-13.8,0.7c-24.1,1.3-48.3,2.5-72.4,3.8
					c-0.2-2.3-0.3-5.5,0.7-8.8C618.1,649.6,673.8,646,704.3,644z"/>
			</g>
			<g id="head_3_">
				<path d="M645,79.1c-0.4,0-0.8-0.3-0.8-0.8s0.3-0.8,0.8-0.8c4.6,0,8.4-3.6,8.4-7.9c0-4.4-3.7-7.9-8.4-7.9c-2.6,0-5,1.1-6.6,3.1
					c-0.3,0.3-0.7,0.4-1.1,0.1c-0.3-0.3-0.4-0.7-0.1-1.1c1.9-2.3,4.7-3.7,7.8-3.7c5.4,0,9.9,4.2,9.9,9.4
					C654.8,74.9,650.4,79.1,645,79.1z"/>
				<path id="hair_3_" d="M608.7,40.7c0.2,1.9,0.9,5.3,3.3,8.6c4.9,6.6,12.9,7.4,14.3,7.6c2.4,5.5,4.9,11,7.3,16.5
					c1.2-0.6,2.5-1.3,3.7-1.9c-0.1-0.4-1.2-4.4,1.5-7.5c1.5-1.7,3.4-2.4,4.3-2.6c4.4-1.1,7.8,1.7,7.9,1.8c2.4,2,2.8,4.7,2.9,5.6
					c0.1,0.8,0.4,3.7-1.7,6.3c-1.2,1.5-2.7,2.2-3.5,2.5c1.3,3.8,2.6,7.5,3.9,11.3c2.5-0.8,5-1.6,7.4-2.5c-0.6-3.4-1.2-6.8-1.8-10.2
					c1.7-2.6,4.1-6.9,5.2-12.7c1.4-7.8,0.3-17.4-4.3-23.1C651.2,30.4,629.2,28.5,608.7,40.7z"/>
				<g id="face_3_">
					<path d="M665,101.2c-0.3,0-0.6-0.2-0.7-0.5l-5.6-14.2c-0.2-0.4,0-0.8,0.4-1c0.4-0.2,0.8,0,1,0.4l5.6,14.2c0.2,0.4,0,0.8-0.4,1
						C665.2,101.2,665.1,101.2,665,101.2z"/>
					<path d="M634.6,107.1c-0.3,0-0.6-0.2-0.7-0.5c-0.5-1.3-1-2.6-1.5-3.9l-1.3-3.4c0,0,0,0,0-0.1l-0.6-1.5
						c-1.6,0.4-3.2,0.6-4.6,0.7c-2.8,0.2-5.4-0.2-7.8-1.1c-5-1.9-9.1-6.3-11.8-12.3c-3.9-8.9-4-20-0.4-28.9c0,0,1.5-3.8,4.8-8.2
						c0.3-0.3,0.7-0.4,1.1-0.1s0.4,0.7,0.1,1.1c-3.2,4.2-4.6,7.8-4.6,7.8c-3.5,8.4-3.3,19.3,0.3,27.8c2.5,5.7,6.4,9.8,10.9,11.5
						c2.2,0.8,4.6,1.2,7.2,1c1.5-0.1,3.1-0.3,4.7-0.8c0.1,0,0.1,0,0.2,0l0.1,0c0.4-0.1,0.7,0.1,0.9,0.5l0.8,2.1c0,0,0,0,0,0.1
						l1.3,3.5c0.5,1.3,1,2.6,1.5,3.9c0.1,0.4,0,0.8-0.4,1C634.8,107.1,634.7,107.1,634.6,107.1z"/>
					<path d="M640.7,88.8c-0.2,1.5-0.8,3.5-2,5.7c-1.8,3.3-4.3,5.4-6.1,6.6c-0.2-0.7-0.5-1.4-0.8-2.2c-0.4-1-0.9-1.8-1.4-2.5
						c1.1-0.3,2.5-0.8,3.8-1.6C637.7,93,639.7,90.4,640.7,88.8z"/>
				</g>
			</g>
			<g id="hand_4_">
				<path d="M521.8,132.7c-0.1,0-0.3,0-0.4-0.1c-10.2-6.1-19.3-11.5-26.6-15.8l-7.3-4.3c-2.8-1.6-9.2-5.5-12.2-3.5
					c-0.6,0.4-1.1,1.1-1.2,1.8c-0.5,3.3,7.9,8.1,15.9,11.2c0.4,0.1,0.6,0.6,0.4,1c-0.1,0.4-0.6,0.6-1,0.4
					c-4.2-1.6-17.7-7.3-16.8-12.8c0.2-1.1,0.9-2.1,1.9-2.8c3.7-2.5,10.5,1.5,13.7,3.5l7.3,4.3c7.3,4.3,16.5,9.7,26.6,15.8
					c0.4,0.2,0.5,0.7,0.3,1C522.3,132.6,522,132.7,521.8,132.7z"/>
				<path d="M459.3,154.3c-0.6,0-1.3,0-1.9,0c-0.1,0-0.2,0-0.2,0c-2-0.1-3.7-0.3-5-0.7c-1.7-0.5-2.8-1.3-3.2-2.3
					c-0.3-0.9-0.3-2,0.2-2.8c0.4-0.7,1-1.2,1.8-1.6c1.9-0.9,4.6-0.9,5.9-0.9c0.6,0,1.1,0,1.6,0h0.1c0.2,0,0.5,0,0.7,0
					c-0.2,0-0.3,0-0.5,0c0,0-0.1,0-0.1,0c-2.5-0.1-4.7-0.2-6.6-0.2l-0.2,0c-0.4,0-0.8,0-1.3,0c-3.4-0.1-5.5-0.9-6.3-2.5
					c-0.1-0.2-0.7-1.5-0.2-2.8c0.6-1.5,2.2-2.4,5.1-2.9c1.7-0.3,3.9-0.5,6.7-0.6c0.9,0,2.2-0.1,4.2-0.2c0,0,0.1,0,0.1,0
					c1-0.1,2-0.1,3-0.2c-1-0.1-1.9-0.1-2.7-0.2c0,0-0.1,0-0.1,0c-4.4-0.3-8-0.4-10.8-0.4c-0.3,0-0.6,0-1,0c-3.7-0.1-6-0.9-6.9-2.5
					c-0.1-0.1-0.7-1.4-0.2-2.8c0.6-1.5,2.4-2.5,5.6-3c1.6-0.3,3.6-0.4,6.2-0.5c2-0.1,5.9-0.1,8.6-0.1c0.3,0,0.5,0,0.8,0
					c-2.5-0.4-6.3-1.1-11.8-2.1c-1.4-0.3-4.2-0.8-4.8-2.8c-0.1-0.4-0.1-1.1,0-1.7c0.2-1,0.6-1.7,0.8-1.9c0.1-0.1,1.1-1.4,3.6-1.8
					c2.6-0.4,17.9,1.8,39,5.4c0.4,0.1,0.7,0.5,0.6,0.9c-0.1,0.4-0.5,0.7-0.9,0.6c-23.9-4.1-36.5-5.6-38.6-5.3
					c-1.9,0.3-2.6,1.1-2.6,1.2c-0.1,0.1-0.4,0.6-0.5,1.3c-0.1,0.5,0,0.9,0,1c0.4,1.2,2.7,1.6,3.7,1.8c11,2.2,15.3,2.7,15.4,2.7
					c1.6,0.2,4.1,0.5,7.2,0.9c0.4,0.1,0.7,0.4,0.7,0.8c0,0.4-0.4,0.7-0.7,0.7c0,0-1.5,0-3.6,0c-2.2,0-5.2,0-8.1,0.1
					c-2.8,0-6.6,0.1-8.6,0.1c-2.5,0.1-4.5,0.2-6,0.5c-2.6,0.4-4.1,1.1-4.5,2c-0.3,0.7,0.1,1.5,0.1,1.6c0.6,1.1,2.5,1.7,5.5,1.7
					c0.5,0,0.9,0,1.2,0c2.8,0,6.4,0.1,10.7,0.4c0,0,0,0,0.1,0c2.9,0.2,6.4,0.4,11.3,0.8l1.2,0.1c0.4,0,0.7,0.4,0.7,0.7
					c0,0.4-0.3,0.7-0.7,0.8c0,0-0.4,0-1.2,0.1c-2.4,0.2-7.6,0.6-11.7,0.9c0,0-0.1,0-0.1,0c-2,0.1-3.4,0.2-4.3,0.2
					c-2.8,0.1-4.9,0.3-6.5,0.6c-2.3,0.4-3.6,1.1-4,2c-0.3,0.7,0.1,1.5,0.1,1.6c0.4,0.7,1.6,1.6,5,1.7c0.5,0,0.9,0,1.2,0l0.2,0
					c1.9,0,4.1,0.1,6.6,0.2c0,0,0.1,0,0.1,0c3.7,0.2,8.1,0.5,13.5,0.9c0.4,0,0.7,0.4,0.7,0.7c0,0.4-0.3,0.8-0.7,0.8
					c-5.8,0.4-10.3,0.6-13.8,0.6h-0.1c-0.5,0-1.1,0-1.6,0c-1.3,0-3.8,0-5.4,0.7c-0.5,0.3-0.9,0.6-1.1,1c-0.3,0.5-0.3,1.1-0.1,1.5
					c0.2,0.6,1,1.1,2.2,1.4c1.2,0.4,2.8,0.6,4.7,0.6l0.2,0c2.2,0.1,4.3,0,5.5-0.1c3.7-0.2,7.8-0.4,12.3-0.7l5-0.3c0,0,0,0,0.1,0
					c5.8-0.3,11.7-0.7,17.5-1.4l0.3,0c0.4,0,0.8,0.3,0.8,0.7c0,0.4-0.3,0.8-0.7,0.8l-0.3,0c-5.8,0.6-11.7,1.1-17.6,1.4
					c0,0,0,0-0.1,0c0,0,0,0,0,0l-5,0.3c-4.5,0.3-8.6,0.5-12.3,0.7C461.9,154.3,460.6,154.3,459.3,154.3z"/>
				<path d="M521,131.4c-9.3,6.7-18.6,13.4-27.9,20c1.9-0.1,3.7-0.1,5.6-0.2c1.1-0.9,5.3-4.2,6.4-5.1c5.7-4.6,11.5-9.3,17.2-13.9
					C521.9,132,521.4,131.7,521,131.4z"/>
			</g>
			<g id="legs_3_">
				<path d="M649.6,624.5c-0.2,0-0.3-0.1-0.5-0.2c-0.2-0.1-0.3-0.3-0.3-0.5l-5.2-61.6l-21.4-252.8c0-0.4,0.3-0.8,0.7-0.8
					c0.4,0,0.8,0.3,0.8,0.7l21.4,252.8l5.1,60.8l53.3-5.2l-0.9-86.8l-2.5-248c0-0.4,0.3-0.8,0.7-0.8c0,0,0,0,0,0
					c0.4,0,0.7,0.3,0.8,0.7l3.4,335.5c0,0.4-0.3,0.7-0.7,0.8L649.6,624.5C649.6,624.5,649.6,624.5,649.6,624.5z"/>
				<path d="M644.4,562.1c-10.7-14-24.2-32.1-39.6-53.3c-25.6-35.2-34.8-49.4-34.8-69.2c0-6.5,1.9-13.4,5.6-27.3
					c7.6-28.1,15.8-42.9,29.2-74.6c2.7-6.5,6.3-15.2,10.3-25.6c2.6-0.9,5.3-1.8,7.9-2.7L644.4,562.1z"/>
				<path d="M700.9,282.8c-25.8,10.5-51.6,20.9-77.4,31.4l-0.4-4.9C649,300.5,674.9,291.7,700.9,282.8z"/>
			</g>
		</g>
		<g id="man_1_1_">
			<path id="tshirt_2_" d="M408.6,285.3c-1.3,19.5-8,106.1-37.3,110.6c-6.2,1-16.9-1.3-32.9-21.7c-1.5,8.5-11.9,54.5-15.7,67.3
				c-17.9-2.8-37.1-6.4-57.4-11.3c-17.7-4.2-34.2-8.9-49.5-13.8c11.4-30.3,42-105.1,88-138.4c8.6-6.2,17.6-10.9,26.8-9.1
				c28,5.7,33,67.3,33.2,70.4c6.8-20.5,13.7-40.9,20.5-61.4C392.4,280.5,400.5,282.9,408.6,285.3z"/>
			<path d="M408.6,286.1c-0.1,0-0.1,0-0.2,0l-23.7-6.9c-0.2-0.1-0.4-0.2-0.5-0.4c-0.1-0.2-0.1-0.4,0-0.6c0.9-1.8,2.6-5.3,4.7-9.7
				l1.7-3.6c6.6-13.7,9.3-19.3,13.4-19.2c0.2,0,2.1,0.1,3,1.4c1.2,1.7,0,4.1-1.7,7.3L405,255c-0.8,1.5-1.6,3.1-2.4,4.6
				c4.4-4.7,10.8-11.3,15.9-15.2c2.2-1.7,5.4-3.8,8.3-2.9c1,0.3,1.7,0.9,2,1.6c0.8,1.8-1.1,3.8-2,4.8c-2,2.2-4.6,4.9-7,7.2
				c2.8-1.7,5.5-3.5,8.3-5.1c3.1-1.9,7-4.2,9.4-2.7c1.3,0.8,1.5,2.4,1.5,2.6c0.2,2.7-2.8,4.7-6.7,7.1l-1.2,0.8
				c-2.3,1.5-4.6,3.1-6.9,4.8c3.1-1.4,6-2.9,8.7-4.5l0.6-0.4c2.7-1.7,5.8-3.5,7.9-2.3c0.8,0.5,1.4,1.5,1.5,2.5c0.1,2.4-2.6,4-8,7.2
				l-0.1,0.1c-1.1,0.6-2.9,1.7-5.7,3.3c0.9-0.2,1.8-0.5,2.6-0.8c1.4-0.6,2.7-1.2,3.8-1.8c2.1-1.1,3.8-2,5.4-1.2
				c0.3,0.1,1.5,0.8,1.7,2.1c0.5,2.8-4.5,5.1-14.4,9.7c-2.5,1.2-5.3,2.5-8.4,3.9c-3.7,1.8-7.5,3.6-11,5.5
				C408.8,286,408.7,286.1,408.6,286.1z M385.9,278l22.6,6.5c3.5-1.8,7.2-3.6,10.8-5.4c3.1-1.5,5.9-2.8,8.4-3.9
				c7.7-3.6,13.8-6.4,13.5-8c-0.1-0.5-0.7-0.9-0.9-1c-0.9-0.4-2.1,0.1-4.1,1.2c-1.1,0.6-2.4,1.2-3.9,1.8c-2.2,0.8-4.5,1.4-7,1.6
				c-0.4,0-0.7-0.2-0.8-0.5c-0.1-0.3,0-0.7,0.3-0.9c4.7-2.7,7.7-4.5,9.2-5.4l0.1-0.1c4.6-2.7,7.3-4.3,7.2-5.8c0-0.5-0.3-1.1-0.7-1.3
				c-1.3-0.8-4.2,1-6.3,2.3l-0.7,0.4c-4.2,2.5-8.9,4.8-14,6.6c-0.3,0.1-0.7,0-0.9-0.3c-0.2-0.3-0.1-0.7,0.2-1
				c3.7-3,7.5-5.7,11.4-8.2l1.3-0.8c3.3-2.1,6.1-3.9,6-5.7c0,0-0.1-1-0.8-1.5c-1.6-1-5.3,1.2-7.8,2.7c-4.8,2.9-9.7,6-14.5,9.1
				c-0.3,0.2-0.8,0.1-1-0.2c-0.2-0.3-0.2-0.7,0.1-1c2.4-2.3,8.5-8.3,12.3-12.4c0.5-0.6,2.1-2.3,1.7-3.2c-0.1-0.3-0.5-0.6-1.1-0.7
				c-2.5-0.8-5.9,1.8-7,2.7c-6.5,5-15.5,14.7-19.1,18.7c-0.2,0.3-0.7,0.3-1,0.1c-0.3-0.2-0.4-0.6-0.3-0.9c1.5-3.2,3-6.3,4.5-9.2
				l0.4-0.7c1.4-2.7,2.5-4.8,1.8-5.8c-0.4-0.6-1.5-0.8-1.9-0.8c-3.1-0.1-5.9,5.7-12,18.4l-1.7,3.6C388.4,272.9,386.9,276,385.9,278z
				"/>
			<g id="shoes_2_">
				<path d="M143.6,651.6c3.7-1.6,6.6,2.9,17.7,7c9.1,3.3,13.5,2.6,14.9,5.7c0.9,1.9,0.5,5.3-5.3,11.6c1.3,6.3,4,10.1,6.2,12.5
					c9.5,10,24.6,7.4,27.9,16.1c0.2,0.5,1.2,3.3-0.1,5.8c-3,5.5-15.6,5.1-23.5,3.2c-6.6-1.5-9.1-3.8-25.3-15.4
					c-18.9-13.6-24.5-17.1-24.1-22.6c0.2-2.9,1.8-2.6,5.7-11.2C141.6,655.3,141,652.7,143.6,651.6z"/>
				<path d="M341.3,683.5c1.7-1.5,3.2-1.1,12.9-1.3c13.1-0.4,16-1.3,18,0.9c2.8,3-1,6.8,1.3,11c2.6,4.7,9.7,4.1,25.3,6.4
					c21.8,3.3,26.8,6.8,29.3,10.7c1.2,1.8,3.1,4.7,2,7.3c-3.8,9.8-40.5-3.6-72.7-0.1c-2.6,0.3-13.5,1.6-16.6-3.2
					c-0.9-1.4-1.1-3.4-1.4-6.2c-0.4-3.9,0.2-6.7,0.2-8.6C339.6,689.3,338.6,685.9,341.3,683.5z"/>
			</g>
			<g id="head_2_">
				<path d="M322.5,255.5c-1.5,0-3.7-0.3-5.7-1.9c-2.2-1.7-3.4-4.3-3.4-6.9c0.1-2.6,1.5-5.3,3.7-7.2c1.9-1.6,4-2.2,6.1-1.9
					c4.4,0.7,6.4,5.7,6.4,5.9c0.1,0.4-0.1,0.8-0.4,1c-0.4,0.1-0.8-0.1-1-0.4c0,0-1.7-4.4-5.3-4.9c-1.6-0.3-3.4,0.3-4.9,1.6
					c-1.9,1.6-3.1,3.9-3.1,6.1c-0.1,2.2,1,4.3,2.8,5.7c2.6,2,5.7,1.6,6.2,1.5c0.4-0.1,0.8,0.2,0.9,0.6c0.1,0.4-0.2,0.8-0.6,0.9
					C323.8,255.4,323.2,255.5,322.5,255.5z"/>
				<path id="hair_2_" d="M355.2,223.9c-7,2-14,4.1-21,6.1l-5.6,12.6c-0.2-0.5-0.9-2.5-3-3.6c-2.2-1.2-4.4-0.6-5.3-0.4
					c-3.4,0.9-5,3.6-5.2,4c-1.5,2.7-1.5,6.4,0.9,9.1c2.7,3.1,6.8,3,7.3,3c0.3,0.7,0.5,1.7,0.4,2.8c-0.3,3.7-3.8,5.7-4.3,6
					c0.1-0.3,0.7-2.4,0.8-2.6c0.1-0.2,0.6-2,0.7-2.2c-1.4-1-3.3-2.5-5.1-4.6c-0.4-0.5-3-3.7-4.3-7.9c-2.9-9.3,2-18,2.8-19.3
					c1.3-2.1,6.7-11.4,17.9-13C340.8,212.8,349.7,216.7,355.2,223.9z"/>
				<g id="face_2_">
					<path d="M342.3,276.3c-0.1,0-0.1,0-0.2,0c-0.4-0.1-0.6-0.5-0.5-0.9l2.7-9.1c0.1-0.3,0.3-0.5,0.6-0.5c0.3,0,0.7-0.1,1-0.1
						c2.4-0.4,4.6-1.2,6.5-2.4c9.4-5.9,11.4-20.5,7.4-30.5c-2.4-5.9-7.1-11.4-12.6-14.7c-4.8-2.9-9.9-4-15-3.3
						c-6.6,0.9-12.4,4.8-16.4,11c-4.1,6.3-5.4,14-3.6,20.3c1.7,5.8,5.9,9.8,9.1,12.1c0.3,0.2,0.4,0.5,0.3,0.8
						c-0.4,1.5-0.9,2.9-1.3,4.4c0,0,0,0.1,0,0.1l-2.1,7.1c-0.1,0.4-0.5,0.6-0.9,0.5c-0.4-0.1-0.6-0.5-0.5-0.9l2.1-7.2
						c0,0,0-0.1,0-0.1c0.4-1.3,0.8-2.6,1.1-3.8c-3.4-2.5-7.5-6.6-9.3-12.6c-2-6.8-0.5-14.8,3.8-21.5c4.2-6.5,10.4-10.7,17.5-11.7
						c5.4-0.8,10.9,0.4,16,3.5c5.8,3.5,10.7,9.2,13.2,15.4c5.5,13.5,0.1,27.3-8,32.4c-2.1,1.3-4.4,2.1-7,2.6c-0.2,0-0.4,0.1-0.6,0.1
						l-2.5,8.6C342.9,276.1,342.6,276.3,342.3,276.3z"/>
					<path d="M345.9,265.9c-0.4,0.8-0.8,1.6-1.2,2.6c-0.3,0.7-0.6,1.3-0.8,1.9c-1.6-0.7-4.4-2.3-6.5-5.4c-0.8-1.1-1.3-2.2-1.6-3.2
						c1.3,1.2,3.9,3.2,7.6,3.9C344.2,265.8,345.1,265.9,345.9,265.9z"/>
				</g>
			</g>
			<g id="legs_2_">
				<path d="M330.3,677.3c-0.4,0-0.7-0.3-0.7-0.7c-2.8-28.6-5.6-57.2-8.4-85.9l-4.3-43.8c-19.4-19.3-38.3-39-54.6-56.9
					c-2.9-3.2-5.6-6.2-8.2-9c-5-5.6-9.6-10.9-13.8-15.8c-5.2-6.1-14.9-17.5-17.2-34.3c-0.5-4-0.6-8.1-0.3-12.1
					c0-0.4,0.4-0.7,0.8-0.7c0.4,0,0.7,0.4,0.7,0.8c-0.3,3.9-0.3,7.8,0.3,11.7c2.2,16.3,11.7,27.5,16.8,33.5
					c4.2,4.9,8.8,10.2,13.8,15.8c2.5,2.8,5.3,5.9,8.2,9c16.4,17.9,35.3,37.7,54.7,57c0.1,0.1,0.2,0.3,0.2,0.5l4.3,44.1
					c2.8,28.4,5.5,56.8,8.3,85.2c7.5,0,14.9-0.1,22.4-0.1l22.3-0.1c0.5-25,1-72.1-1-111.1c-0.4-8.7-1.1-17.4-4.5-28.6
					c-2.3-7.5-5.3-15.2-23.6-45.1c-6-9.7-12.2-19.6-18.5-29.4c-4.4-6.5-8.9-13.5-13.3-20.5c-0.2-0.4-0.1-0.8,0.2-1
					c0.4-0.2,0.8-0.1,1,0.2c4.4,7.1,8.9,14,13.3,20.5c6.3,9.8,12.6,19.7,18.6,29.4c18.4,30.1,21.5,37.8,23.8,45.5
					c3.4,11.3,4.1,20.1,4.5,28.9c2,39.5,1.5,87.1,1,112c0,0.4-0.3,0.7-0.7,0.7l-23.1,0.1C345.6,677.2,337.9,677.3,330.3,677.3
					C330.3,677.3,330.3,677.3,330.3,677.3z M376.4,676.3L376.4,676.3L376.4,676.3z"/>
				<path d="M180.9,659.4c-0.1,0-0.1,0-0.2,0l-21.6-6.3c-7.2-2.1-14.3-4.2-21.5-6.3c-0.2-0.1-0.4-0.2-0.5-0.4
					c-0.1-0.2-0.1-0.4,0-0.6c23-61.8,46.1-123.7,69.1-185.5l15.6-41.9c0.1-0.4,0.6-0.6,1-0.4c0.4,0.1,0.6,0.6,0.4,1l-15.6,41.9
					c-23,61.6-45.9,123.2-68.9,184.7c6.9,2,13.8,4,20.7,6l21,6.1l81.6-168.5c0.2-0.4,0.6-0.5,1-0.3c0.4,0.2,0.5,0.6,0.3,1L181.6,659
					C181.4,659.2,181.2,659.4,180.9,659.4z"/>
				<path d="M369.2,681.8h-0.8l-0.2-5c0-0.4,0.3-0.8,0.7-0.8c0.4,0,0.8,0.3,0.8,0.7l0.2,5.1L369.2,681.8z"/>
				<path d="M342.3,683.6c-0.4,0-0.7-0.3-0.7-0.7l-0.3-6.4c0-0.4,0.3-0.8,0.7-0.8c0.4,0,0.8,0.3,0.8,0.7l0.3,6.4
					C343,683.2,342.7,683.6,342.3,683.6C342.3,683.6,342.3,683.6,342.3,683.6z"/>
				<path d="M172.1,662.3c-0.1,0-0.2,0-0.3-0.1c-0.4-0.2-0.6-0.6-0.4-1l1.7-4.2l-24.4-7.1l-0.8,1.9c-0.2,0.4-0.6,0.6-1,0.4
					c-0.4-0.2-0.6-0.6-0.4-1l1-2.5c0.1-0.4,0.5-0.5,0.9-0.4l25.9,7.6c0.2,0.1,0.4,0.2,0.5,0.4c0.1,0.2,0.1,0.4,0,0.6l-2,4.9
					C172.7,662.2,172.4,662.3,172.1,662.3z"/>
				<path d="M358,677.1c-0.4,0-0.7-0.3-0.7-0.7l-0.1-0.5c-5.2-53.1-9-91.4-10.1-105.3l0-0.4c-0.3-4.1-1-13.6-3.8-26.2
					c0-0.1-1.3-5.9-2.8-11c-4.5-15.5-18-37.8-39.2-64.4c-3.5-4.4-6.8-9-10.1-13.5c-4.1-5.7-8.3-11.5-12.9-17
					c-0.6-0.7-1.2-1.4-1.8-2.1c-0.9-1-1.7-2-2.6-3c-0.3-0.3-0.2-0.8,0.1-1.1c0.3-0.3,0.8-0.2,1.1,0.1c0.8,1,1.7,2,2.5,3
					c0.6,0.7,1.2,1.4,1.8,2.1c4.6,5.5,8.9,11.4,13,17c3.2,4.5,6.5,9.1,10,13.4c21.3,26.8,34.9,49.2,39.4,64.9
					c1.5,5.2,2.8,11,2.8,11.1c2.8,12.7,3.5,22.3,3.8,26.4l0,0.4c1,13.9,4.8,52.3,10.1,105.3l0.1,0.5
					C358.8,676.7,358.5,677.1,358,677.1C358,677.1,358,677.1,358,677.1z"/>
				<path d="M163.7,654.4c-0.1,0-0.2,0-0.3-0.1c-0.4-0.2-0.6-0.6-0.4-1c23.2-54.4,64.3-151,79-186.6c0.2-0.4,0.6-0.6,1-0.4
					c0.4,0.2,0.6,0.6,0.4,1c-14.7,35.6-55.8,132.2-79,186.6C164.3,654.2,164,654.4,163.7,654.4z"/>
				<path d="M342,676.5c9.2,0.6,18.3,1.1,27.5,1.7c0-0.5,0-1,0.1-1.5C360.3,676.6,351.2,676.5,342,676.5z"/>
				<path d="M148.1,649.5c8.3,3.3,16.6,6.6,24.9,9.9l1.1-2.8C165.4,654.3,156.7,651.9,148.1,649.5z"/>
			</g>
		</g>
	</g>
</g>
</svg>
