<?xml version="1.0" encoding="utf-8"?>
<!-- Generator: Adobe Illustrator 22.1.0, SVG Export Plug-In . SVG Version: 6.00 Build 0)  -->
<svg version="1.1" xmlns="http://www.w3.org/2000/svg" xmlns:xlink="http://www.w3.org/1999/xlink" x="0px" y="0px"
	 viewBox="0 0 1037 780.2" style="enable-background:new 0 0 1037 780.2;" xml:space="preserve">
<style type="text/css">
	.st0{fill:#01BDB7;}
	.st1{fill:#FF749F;}
</style>
<g id="background">
	<g id="background_1_">
		<path d="M938.6,598.4c-13.8,0-28.3-10.6-43.2-31.5c-0.2-0.3-0.2-0.8,0.2-1c0.3-0.2,0.8-0.2,1,0.2c15.1,21.2,29.7,31.6,43.4,30.9
			c11.2-0.6,18.8-8.1,26.9-16.1c8.1-7.9,16.4-16.1,28.5-16.7c13.4-0.7,27.4,8.4,41.5,26.8c0.3,0.3,0.2,0.8-0.1,1.1
			c-0.3,0.3-0.8,0.2-1.1-0.1c-13.8-18-27.3-26.8-40.2-26.2c-11.5,0.6-19.6,8.6-27.5,16.3c-7.9,7.8-16.1,15.9-27.9,16.5
			C939.6,598.4,939.1,598.4,938.6,598.4z"/>
		<path d="M41.2,213.9c-13.1,0-26.9-10.1-41.1-30c-0.2-0.3-0.2-0.8,0.2-1c0.3-0.2,0.8-0.2,1,0.2c14.4,20.1,28.2,30,41.2,29.3
			c10.6-0.6,17.8-7.7,25.5-15.3c7.7-7.5,15.6-15.3,27.1-15.9c12.8-0.6,26,7.9,39.4,25.5c0.3,0.3,0.2,0.8-0.1,1.1
			c-0.3,0.3-0.8,0.2-1.1-0.1c-13.1-17.1-25.9-25.5-38.2-24.9c-10.9,0.5-18.6,8.1-26.1,15.5c-7.5,7.4-15.3,15.1-26.5,15.7
			C42.1,213.9,41.7,213.9,41.2,213.9z"/>
		<path d="M640,718.2c-0.1,0-0.3,0-0.4-0.1l-14.1-9.8c-0.2-0.1-0.3-0.3-0.3-0.5c0-0.2,0-0.4,0.1-0.6l9.8-14.1c0.2-0.3,0.7-0.4,1-0.2
			l14.1,9.8c0.3,0.2,0.4,0.7,0.2,1l-9.8,14.1C640.5,718,640.3,718.2,640,718.2z M626.9,707.4l12.9,9l9-12.9l-12.9-9L626.9,707.4z"/>
		
			<rect x="891.3" y="204.5" transform="matrix(0.9942 0.1077 -0.1077 0.9942 28.4303 -95.9042)" class="st0" width="21.5" height="21.5"/>
		<path d="M272.5,242.7c-0.1,0-0.3,0-0.4-0.1l-17-10.7c-0.4-0.2-0.5-0.7-0.2-1c0.2-0.4,0.7-0.5,1-0.2l17,10.7c0.4,0.2,0.5,0.7,0.2,1
			C273,242.6,272.8,242.7,272.5,242.7z"/>
		<path d="M601.4,45.2c-0.2,0-0.4-0.1-0.5-0.2c-0.3-0.3-0.3-0.8,0-1.1l13.7-14.7c0.3-0.3,0.8-0.3,1.1,0c0.3,0.3,0.3,0.8,0,1.1
			L601.9,45C601.8,45.1,601.6,45.2,601.4,45.2z"/>
		<path d="M854.5,55c-0.2,0-0.5-0.1-0.6-0.3l-10.9-16.9c-0.2-0.3-0.1-0.8,0.2-1c0.3-0.2,0.8-0.1,1,0.2l10.9,16.9
			c0.2,0.3,0.1,0.8-0.2,1C854.7,55,854.6,55,854.5,55z"/>
		<path d="M42.2,406c-0.2,0-0.3,0-0.4-0.1c-0.3-0.2-0.4-0.7-0.2-1l11.6-16.4c0.2-0.3,0.7-0.4,1-0.2c0.3,0.2,0.4,0.7,0.2,1
			l-11.6,16.4C42.6,405.9,42.4,406,42.2,406z"/>
		<path d="M969,421.4c-0.2,0-0.5-0.1-0.6-0.3c-0.2-0.3-0.2-0.8,0.2-1l16.5-11.4c0.3-0.2,0.8-0.2,1,0.2c0.2,0.3,0.2,0.8-0.2,1
			l-16.5,11.4C969.3,421.3,969.2,421.4,969,421.4z"/>
		<path d="M1024.8,216c-0.1,0-0.3,0-0.4-0.1c-0.3-0.2-0.4-0.7-0.2-1l11.4-16.6c0.2-0.3,0.7-0.4,1-0.2s0.4,0.7,0.2,1l-11.4,16.6
			C1025.3,215.9,1025.1,216,1024.8,216z"/>
		<path d="M374.7,712.4c-0.2,0-0.4-0.1-0.6-0.3c-0.3-0.3-0.2-0.8,0.1-1.1l15.7-12.6c0.3-0.3,0.8-0.2,1.1,0.1
			c0.3,0.3,0.2,0.8-0.1,1.1l-15.7,12.6C375.1,712.4,374.9,712.4,374.7,712.4z"/>
		<path d="M302,18c-0.2,0-0.5-0.1-0.6-0.3L289.9,1.2c-0.2-0.3-0.2-0.8,0.2-1c0.3-0.2,0.8-0.2,1,0.2l11.5,16.5c0.2,0.3,0.2,0.8-0.2,1
			C302.3,18,302.1,18,302,18z"/>
		<path d="M33.6,38.8c-0.2,0-0.5-0.1-0.6-0.3L21.5,21.9c-0.2-0.3-0.2-0.8,0.2-1c0.3-0.2,0.8-0.2,1,0.2l11.5,16.5
			c0.2,0.3,0.2,0.8-0.2,1C33.9,38.7,33.7,38.8,33.6,38.8z"/>
		<path d="M110.3,685.9c-0.2,0-0.4-0.1-0.6-0.2l-13.5-14.9c-0.3-0.3-0.3-0.8,0.1-1.1c0.3-0.3,0.8-0.3,1.1,0.1l13.5,14.9
			c0.3,0.3,0.3,0.8-0.1,1.1C110.6,685.9,110.5,685.9,110.3,685.9z"/>
		<path d="M422.2,173.5c-2.6,0-5.3-1-7.3-3c-4-4-4-10.5,0-14.5c4-4,10.5-4,14.5,0c4,4,4,10.5,0,14.5
			C427.5,172.5,424.9,173.5,422.2,173.5z M422.2,154.5c-2.2,0-4.5,0.9-6.2,2.6c-3.4,3.4-3.4,9,0,12.4c3.4,3.4,9,3.4,12.4,0
			c3.4-3.4,3.4-9,0-12.4C426.7,155.3,424.5,154.5,422.2,154.5z"/>
		<circle class="st0" cx="27.9" cy="552.1" r="7.2"/>
		<circle class="st0" cx="933.8" cy="705.4" r="9.5"/>
		<path d="M1009.1,40c-1.8,0-3.5-0.5-5.1-1.4c-2.4-1.4-4.1-3.6-4.8-6.2c-0.7-2.7-0.3-5.4,1-7.8c1.4-2.4,3.6-4.1,6.2-4.8
			c2.7-0.7,5.4-0.3,7.8,1c2.4,1.4,4.1,3.6,4.8,6.2c0.7,2.7,0.3,5.4-1,7.8c-1.4,2.4-3.6,4.1-6.2,4.8C1010.9,39.9,1010,40,1009.1,40z
			 M1009.1,21c-0.8,0-1.5,0.1-2.3,0.3c-2.3,0.6-4.2,2.1-5.3,4.1s-1.5,4.4-0.9,6.7s2.1,4.2,4.1,5.3c2,1.2,4.4,1.5,6.7,0.9
			c2.3-0.6,4.2-2.1,5.3-4.1s1.5-4.4,0.9-6.7c-0.6-2.3-2.1-4.2-4.1-5.3C1012.2,21.4,1010.6,21,1009.1,21z"/>
		<circle class="st0" cx="202.4" cy="82" r="18.5"/>
	</g>
</g>
<g id="general_1_">
	<g id="general_2_">
		<g id="hand_1_">
			<path d="M506.8,384c-0.3,0-0.5-0.1-0.7-0.3c-0.3-0.4-0.2-0.9,0.1-1.2c5.5-4.4,11.5-8.3,17.8-11.6c5.9-3.1,12.1-5.7,18.4-7.6
				c1.4-0.4,2.8-0.9,4.5-1.3c0.1,0,0.2,0,0.3,0c7.4,0.3,14.8,0,21.8-0.8c5.1-0.6,7.8-1.3,9.1-3.5c1.3-2.1,1.2-5.3-0.2-7.2
				c-0.9-1.2-3-2.5-17.2-2.5l-0.2,0c-7.3,0-11,0-14.9,0.5c-2.3,0.3-4.5,0.8-6.8,1.3c-4.4,1.1-8,2.3-10.3,3.2
				c-3.7,1.3-7.2,2.7-10.9,4.2c-0.4,0.2-0.9,0-1.1-0.4c-0.2-0.4-0.1-0.9,0.2-1.1c6.8-4.8,13.6-8.7,20.4-11.5
				c6.8-2.8,13.7-4.6,20.6-5.4c1.4-0.1,2.8-0.3,4.4-0.4c7.1-0.6,16-1.3,17.2-5.3c0.6-1.8-0.6-3.7-1.1-4.4
				c-3.4-5.1-18.8-4.2-24.4-3.4c-6.7,0.9-13.5,2.6-20.2,5.1c-5.4,2-10.9,4.4-16.1,7.3c-0.1,0.1-0.3,0.1-0.5,0.1
				c-0.5,0-0.8-0.4-0.8-0.9c0-0.2,0.1-0.5,0.3-0.6c0.1-0.1,0.1-0.1,0.2-0.1c5.4-2.9,10.9-5.4,16.4-7.4c6.8-2.5,13.8-4.2,20.6-5.1
				c0.9-0.1,21.3-2.9,26,4.2c0.8,1.2,2,3.5,1.3,5.9c-1.6,5-10.7,5.8-18.7,6.4c-1.5,0.1-3,0.2-4.3,0.4c-6.7,0.7-13.5,2.5-20.1,5.2
				c-4.4,1.8-8.9,4.1-13.3,6.8c1.1-0.4,2.2-0.8,3.4-1.2c2.4-0.9,6-2.1,10.5-3.2c2.3-0.6,4.7-1,7-1.4c4-0.6,7.7-0.6,15.1-0.5l0.2,0
				c15.1,0.1,17.3,1.4,18.6,3.2c1.8,2.5,2,6.5,0.3,9.1c-1.9,3.1-5.7,3.7-10.4,4.3c-7.1,0.8-14.5,1.1-21.9,0.8
				c-1.6,0.4-3,0.9-4.3,1.3c-6.2,2-12.3,4.5-18.1,7.5c-6.2,3.2-12,7.1-17.5,11.4C507.2,384,507,384,506.8,384z"/>
			<path d="M435.8,374.8c-0.2,0-0.4-0.1-0.5-0.2c-0.4-0.3-0.5-0.8-0.2-1.2c0.3-0.5,0.7-0.9,1-1.4l0.7-0.9
				c5.5-7.2,11.1-14.2,16.6-20.8c10.8-12.8,23.2-25.2,46.2-47.8c8.8-8.7,16.6-16,22.3-17.2c1.5-0.3,2.9-0.2,4,0.4
				c2.4,1.2,3.2,4.2,3.3,4.5c0.7,2.8-0.3,5.9-3,9.4c-1.7,2.2-3.7,4.1-5.4,5.7l-0.5,0.5c-6.7,6.4-13.3,13.9-19.7,22.5
				c9.8-7.1,19.3-12.7,28.2-16.5c5-2.2,9.8-3.8,14.4-4.9c5.2-1.3,16.1-3.9,20.1,1.3c0.2,0.2,1.7,2.3,1.4,4.8
				c-0.7,5.1-8.1,7.3-16.7,9.8c-2.7,0.8-5.4,1.6-8,2.5c-2.3,0.8-4.4,1.7-6.6,2.7c-5.3,2.5-10.6,5.6-15.5,9.4c0,0,0,0,0,0l0,0
				c-2.6,1.9-5.1,4.1-7.5,6.3c-0.3,0.3-0.9,0.3-1.2,0c-0.3-0.3-0.3-0.9,0-1.2c2.4-2.3,5-4.4,7.6-6.4c0,0,0,0,0,0
				c5.1-3.9,10.4-7.1,15.9-9.6c2.2-1,4.4-1.9,6.7-2.8c2.7-0.9,5.4-1.8,8.1-2.6c7.7-2.3,14.9-4.4,15.5-8.4c0.3-1.8-1-3.4-1-3.5
				c-3.3-4.3-13.5-1.9-18.4-0.7c-4.5,1.1-9.2,2.7-14.1,4.8c-10.1,4.4-21,11-32.3,19.7c-0.3,0.3-0.8,0.2-1.1-0.1
				c-0.3-0.3-0.3-0.8-0.1-1.1c7.5-10.6,15.4-19.7,23.3-27.3l0.5-0.5c1.6-1.5,3.6-3.4,5.2-5.5c2.4-3.1,3.3-5.7,2.7-7.9
				c0,0-0.6-2.5-2.4-3.4c-0.8-0.4-1.7-0.5-2.9-0.2c-5.6,1.2-14.4,9.9-21.4,16.8c-22.9,22.5-35.3,34.9-46,47.7
				c-5.6,6.6-11.1,13.6-16.6,20.7l-0.6,0.9c-0.3,0.5-0.7,0.9-1,1.4C436.3,374.7,436.1,374.8,435.8,374.8z"/>
			<path d="M468.6,418.7c-0.4,0-0.7-0.2-0.8-0.6c-0.1-0.5,0.1-0.9,0.6-1.1c2.3-0.7,4.9-1.5,7.8-2.4c22.6-6.8,61.7-19,68.7-23.5
				c1.2-0.8,4.5-2.8,4.8-5.8c0.2-2.1-1-4-2.2-5c-2.8-2.5-7.6-1.7-15.1-0.1c-7.4,1.6-15,3.4-22.4,5.4c-0.2,0.1-0.5,0-0.7-0.1
				c-1-0.6-2-1.2-3-1.7c-6.1-3.4-12.6-5.5-19.4-6.4c-4-0.5-8-0.6-12-0.2c-0.5,0-0.9-0.3-0.9-0.8c0-0.5,0.3-0.9,0.8-0.9
				c4.1-0.4,8.3-0.3,12.4,0.2c7,0.9,13.7,3.1,20,6.6c0.9,0.5,1.8,1,2.7,1.6c7.3-2,14.8-3.8,22.1-5.4c8-1.8,13.2-2.6,16.6,0.5
				c1.4,1.3,3,3.7,2.7,6.4c-0.3,3.8-4.1,6.2-5.5,7.1c-7.2,4.6-46.4,16.8-69.1,23.6c-2.9,0.9-5.5,1.7-7.8,2.4
				C468.8,418.7,468.7,418.7,468.6,418.7z"/>
			<path d="M518.6,363.5c-0.4,0-0.8-0.3-0.8-0.8c-0.6-6.7-3.5-13.1-8.7-18.9c-3.5-3.9-7.8-7.5-12.9-10.6c-4.3-2.6-7.4-3.9-7.6-4
				c-0.4-0.1-0.7-0.5-0.6-1c0.1-0.5,0.5-0.8,1-0.7c0.2,0,3.7,1.5,8.1,4.2c5.3,3.2,9.7,6.9,13.3,11c5.4,6.1,8.4,12.8,9.1,19.9
				C519.4,363,519.1,363.4,518.6,363.5C518.6,363.5,518.6,363.5,518.6,363.5z"/>
			<path d="M476.4,415.5c-2.9,0.9-5.5,1.7-7.8,2.4c-10.9-14.6-21.9-29.2-32.8-43.8l0.8-1.1l0,0C449.9,387.1,463.2,401.3,476.4,415.5
				z"/>
		</g>
		<g id="tshirt_1_">
			<path d="M804.7,416.2c-0.4,0-0.7-0.3-0.8-0.7c-6.2-27-16.1-52.8-29.4-76.5c-22.4-40-55.5-76.1-93.2-101.7
				c-0.4-0.3-0.5-0.8-0.2-1.2c0.3-0.4,0.8-0.5,1.2-0.2c37.9,25.7,71.1,62,93.7,102.3c13.4,23.9,23.3,49.8,29.6,77
				c0.1,0.5-0.2,0.9-0.6,1C804.8,416.2,804.8,416.2,804.7,416.2z"/>
			<path d="M226.2,637.1c-7.7,0-14.5-1.7-20.3-5c-21.4-12.3-30.1-48.5-24.3-101.9l0.1-1c3.5-33.4,15.5-64.8,36.7-95.8
				c21.4-31.4,76.1-98.9,145.1-153.1c40.2-31.5,80-54.4,118.1-68.1c46-16.4,89.9-19.4,130.7-8.9c0.5,0.1,0.7,0.6,0.6,1
				c-0.1,0.5-0.6,0.7-1,0.6c-40.4-10.4-84-7.4-129.7,8.9c-38,13.6-77.6,36.4-117.7,67.8C295.7,335.7,241.2,403,219.8,434.3
				c-21,30.8-32.9,61.9-36.4,95l-0.1,1c-5.7,52.7,2.7,88.4,23.5,100.3c28.1,16.1,79.8-8.3,153.9-72.6c0.4-0.3,0.9-0.3,1.2,0.1
				c0.3,0.4,0.3,0.9-0.1,1.2C302.2,611,256.7,637.1,226.2,637.1z"/>
			<path d="M397.1,527c-0.2,0-0.5-0.1-0.6-0.3c-0.3-0.3-0.3-0.9,0-1.2c15.9-15,32.8-31.7,50.3-49.7c4.7-4.8,9.5-9.8,14.3-14.8
				c1.9-2,3.8-4,5.7-6c1.9-2,3.8-4,5.7-6c3.4-3.6,6.9-7.3,10.2-10.9l-10.3-13.7c-1.3-1.7-2.6-3.5-3.9-5.2l-36.7-49
				c-2-2.7-4.1-5.4-6.1-8.2l-123.3,68.6c-0.4,0.2-0.9,0.1-1.2-0.3c-0.2-0.4-0.1-0.9,0.3-1.2l124-69c0.4-0.2,0.8-0.1,1.1,0.2
				c2.2,2.9,4.4,5.8,6.5,8.7l36.7,49c1.3,1.7,2.6,3.5,3.9,5.2l10.7,14.3c0.2,0.3,0.2,0.8-0.1,1.1c-3.6,3.8-7.1,7.6-10.7,11.4
				c-1.9,2-3.8,4-5.7,6c-1.9,2-3.8,4-5.7,6c-4.8,5-9.6,10-14.3,14.8c-17.5,18-34.4,34.7-50.3,49.7C397.5,526.9,397.3,527,397.1,527z
				"/>
			<path d="M606,312.7c-0.1,0-0.2,0-0.3-0.1c-0.3-0.1-0.4-0.4-0.5-0.6l-18.3-112.4c-0.1-0.5,0.2-0.9,0.7-1c0.5-0.1,0.9,0.2,1,0.7
				l18.1,111.1l5.5-3.5c6.9-4.4,13.7-8.8,20.6-13.2l67.8-43.6c0.4-0.3,0.9-0.1,1.2,0.3c0.3,0.4,0.1,0.9-0.3,1.2l-67.8,43.6
				c-6.9,4.4-13.7,8.8-20.6,13.2l-6.5,4.2C606.3,312.7,606.2,312.7,606,312.7z"/>
			<path d="M555.6,413.5c-0.1,0-0.2,0-0.4-0.1c-0.2-0.1-0.4-0.3-0.5-0.6l-6.4-24c-0.1-0.5,0.1-0.9,0.6-1c0.5-0.1,0.9,0.1,1,0.6
				l6.1,23.1c68.4-31.8,136.8-63.6,205.2-95.4c0.4-0.2,0.9,0,1.1,0.4c0.2,0.4,0,0.9-0.4,1.1c-68.7,31.9-137.4,63.9-206.1,95.8
				C555.8,413.5,555.7,413.5,555.6,413.5z"/>
			<path d="M633.1,294.4c-9,5.8-18.1,11.6-27.1,17.4c-1.9-12-3.9-24-5.9-36C609.1,280.9,621.5,287.9,633.1,294.4z"/>
			<path d="M533.5,330.4c-0.4,0-0.7-0.2-0.8-0.6l-0.1-0.4c-0.2-0.6-0.3-1.2-0.5-1.9c-0.1-0.5,0.2-0.9,0.6-1c0.5-0.1,0.9,0.2,1,0.6
				c0.2,0.6,0.3,1.2,0.5,1.8l0.1,0.4c0.1,0.5-0.1,0.9-0.6,1C533.7,330.4,533.6,330.4,533.5,330.4z"/>
			<path d="M546.6,379.6c-0.4,0-0.7-0.3-0.8-0.6c-1.1-4.1-2.2-8.2-3.3-12.3l-0.6-2.3c-0.1-0.5,0.2-0.9,0.6-1c0.5-0.1,0.9,0.1,1,0.6
				l0.6,2.3c1.1,4.1,2.2,8.2,3.3,12.3c0.1,0.5-0.1,0.9-0.6,1C546.7,379.6,546.7,379.6,546.6,379.6z"/>
			<path d="M538.7,349.8c-0.4,0-0.7-0.2-0.8-0.6c-0.3-1.1-0.6-2.2-0.9-3.3l-0.2-0.7c-0.1-0.5,0.2-0.9,0.6-1c0.4-0.1,0.9,0.1,1,0.6
				l0.2,0.7c0.3,1.1,0.6,2.2,0.9,3.2c0.1,0.5-0.1,0.9-0.6,1C538.8,349.8,538.7,349.8,538.7,349.8z"/>
			<path d="M529.1,313.5c-0.4,0-0.7-0.3-0.8-0.6l-0.4-1.3c-1.1-4-2.2-8.1-3.2-12.1c-0.1-0.5,0.2-0.9,0.6-1c0.4-0.1,0.9,0.2,1,0.6
				c1.1,4,2.1,8.1,3.2,12.1l0.4,1.3c0.1,0.5-0.1,0.9-0.6,1C529.2,313.5,529.1,313.5,529.1,313.5z"/>
			<path d="M522,287.1c-0.4,0-0.7-0.3-0.8-0.6l-21.1-79.3c-0.1-0.5,0.1-0.9,0.6-1c0.4-0.1,0.9,0.1,1,0.6l21.1,79.3
				c0.1,0.5-0.1,0.9-0.6,1C522.2,287.1,522.1,287.1,522,287.1z"/>
		</g>
		<g id="head_1_">
			<path id="hair_1_" d="M731.9,176.7c-1.1-0.6,1.7-5.2,3.2-16.5c1.5-10.9,2.3-16.4-0.4-20.2c-5.8-8.2-19.9,1.9-34.9-5.7
				c-15.7-7.9-13.1-25.5-26-28c-9.7-1.8-21.6,6.1-27.8,12.8c-5.2,5.7-6.8,11-9,10.5c-2.7-0.7-4.8-10.2-1-16.2
				c2.1-3.4,4.8-3.6,6.1-7.6c1-3.1,0.4-6.2,0.1-7.9c-0.5-2.6-1.4-4.7-2.1-6c1.7-2.3,21.5-28.6,54.1-27.3
				c29.9,1.2,50.6,24.9,57.7,45.5c1.3,3.9,5.6,16.8,2,32.4C749.3,162.7,734.2,177.9,731.9,176.7z"/>
			<g id="face_1_">
				<path d="M681.8,237.5c-0.1,0-0.2,0-0.3-0.1c-0.4-0.2-0.6-0.7-0.4-1.1c1.8-4.2,3.7-8.5,5.5-12.7l5.9-13.7l0.8,0.2l-0.8-0.3
					c0.1-0.2,0.3-0.4,0.5-0.5c7.7-2.4,15-5.9,21.6-10.4c4.6-3.2,8.9-6.8,12.8-10.9c0.2-0.2,0.4-0.3,0.7-0.3c1.6,0.1,3.1,0.1,4.7,0
					c0,0,1.8-0.2,3.4-0.6c0.1,0,12.8-3.3,17.3-14.6c1.7-4.3,1.2-7.2,0.9-8.2c-0.3-1-0.8-2.8-2.5-4c-1.8-1.2-3.9-1.1-4.6-0.9
					c-0.5,0.1-0.9-0.2-1-0.7c-0.1-0.5,0.2-0.9,0.7-1c1-0.2,3.6-0.4,5.9,1.2c2.2,1.5,2.9,3.8,3.2,4.9c0.3,1.2,0.9,4.5-1,9.3
					c-4.9,12.1-18.3,15.6-18.5,15.6c-1.8,0.5-3.6,0.6-3.7,0.6c-1.5,0.2-3.1,0.2-4.6,0c-3.9,4-8.2,7.7-12.8,10.8
					c-6.6,4.5-13.9,8.1-21.6,10.5l-5.8,13.5c-1.8,4.2-3.7,8.5-5.5,12.7C682.4,237.3,682.1,237.5,681.8,237.5z"/>
				<path d="M612.2,205c-0.1,0-0.2,0-0.3-0.1c-0.4-0.2-0.6-0.7-0.4-1.1l16.7-37.6c-1.8-7-2.7-14.1-2.5-21.3c0.1-4.5,0.6-9,1.5-13.4
					c-5.2-2.7-7.8-10.5-7-21.2c0.8-10.6,5.1-22.5,10.8-24c0.7-0.2,2.2-0.4,3.8,0c7.5,2,9,15.5,9.2,18.2c0,0.5-0.3,0.9-0.8,0.9
					c-0.5,0-0.9-0.3-0.9-0.8c-0.1-1.5-1.4-14.9-7.9-16.7c-1.2-0.3-2.5-0.1-2.9,0c-4.3,1.1-8.7,11.4-9.6,22.4
					c-0.8,10.3,1.7,17.7,6.6,19.8c0.4,0.2,0.6,0.6,0.5,1c-1,4.5-1.5,9.1-1.6,13.8c-0.2,7.1,0.7,14.2,2.5,21.1c0,0.2,0,0.4,0,0.6
					l-16.9,37.9C612.8,204.8,612.5,205,612.2,205z"/>
				<path d="M693.2,210.2c0-0.3-0.1-0.5-0.1-0.8c-0.7,0.1-1.7,0.2-2.9,0.3c-5.6,0.5-9.9,0-10.9-0.1c0,0-7.2-0.8-14.3-4.1
					c-16.1-7.3-26.6-28.7-27-29.6c0.9,3.2,8.9,28.7,26.1,39.3c7.9,4.8,15.5,5.8,15.5,5.8c3.4,0.4,6.4,0.3,9-0.1L693.2,210.2z"/>
			</g>
			<g id="glasses_1_">
				<path d="M670.2,156.7c-2.7,0-5.4-0.6-7.8-2c-7.9-4.3-10.8-14.3-6.5-22.2c0.1-0.2,0.3-0.3,0.5-0.4c0.2-0.1,0.4,0,0.6,0.1
					l27.2,14.9c0.2,0.1,0.3,0.3,0.4,0.5c0.1,0.2,0,0.4-0.1,0.6C681.6,153.7,676,156.7,670.2,156.7z M656.9,134.1
					c-3.3,7-0.6,15.4,6.2,19.2c6.8,3.8,15.4,1.5,19.5-5.1L656.9,134.1z"/>
				<path d="M664.7,155.7c-0.2,0-0.4-0.1-0.5-0.2c-0.4-0.3-0.5-0.8-0.2-1.2c0.8-1.1,1.8-1.9,2.9-2.5c1.3-0.7,2.4-0.9,3.2-1
					c0.3,0,0.7-0.1,0.8-0.2c0-0.3-0.8-1.3-1.4-2c-1.2-1.5-2.6-3.1-2.1-4.9c0.4-1.5,2-2.5,4.8-3.1c0.5-0.1,0.9,0.2,1,0.7
					c0.1,0.5-0.2,0.9-0.7,1c-2.1,0.5-3.4,1.1-3.6,1.9c-0.2,0.9,0.9,2.3,1.8,3.3c1.1,1.4,2.2,2.6,1.5,3.9c-0.4,0.8-1.3,0.9-2,1
					c-0.7,0.1-1.6,0.2-2.6,0.8c-0.9,0.5-1.7,1.2-2.3,2C665.2,155.6,665,155.7,664.7,155.7z"/>
				<path d="M710.9,179.7c-2.7,0-5.4-0.6-7.8-2c-3.8-2.1-6.6-5.6-7.8-9.8c-1.2-4.2-0.8-8.6,1.3-12.5c0.2-0.4,0.7-0.6,1.2-0.3
					l27.2,14.9c0.2,0.1,0.3,0.3,0.4,0.5c0.1,0.2,0,0.4-0.1,0.6C722.3,176.6,716.7,179.7,710.9,179.7z M697.7,157
					c-1.5,3.2-1.8,6.9-0.8,10.4c1.1,3.8,3.6,6.9,7,8.8c6.8,3.8,15.4,1.5,19.5-5.1L697.7,157z"/>
				<path d="M705.4,178.7c-0.4,0-0.7-0.3-0.8-0.7c-0.1-0.5,0.2-0.9,0.6-1c4.9-1.1,5.9-2.4,6-3.1c0.1-0.7-0.5-1.5-1.2-2.3
					c-0.9-1.1-1.9-2.4-1.6-4c0.3-1.6,1.8-2.8,4.4-3.8c0.4-0.2,0.9,0.1,1.1,0.5c0.2,0.4-0.1,0.9-0.5,1.1c-2,0.7-3.2,1.6-3.4,2.5
					c-0.2,0.8,0.5,1.7,1.3,2.6c0.8,1,1.8,2.2,1.5,3.7c-0.3,2-2.6,3.4-7.3,4.5C705.6,178.7,705.5,178.7,705.4,178.7z"/>
				<path d="M697.3,156.7c-0.4,0-0.8-0.3-0.8-0.8c-0.1-0.9-0.4-4-3-6.2c-2.5-2.1-6.1-2.5-9.3-1.1c-0.4,0.2-0.9,0-1.1-0.4
					c-0.2-0.4,0-0.9,0.4-1.1c3.8-1.6,8.1-1.1,11.1,1.4c3,2.5,3.5,6,3.6,7.4C698.2,156.3,697.8,156.7,697.3,156.7
					C697.3,156.7,697.3,156.7,697.3,156.7z"/>
				<path d="M656.6,133.7c-0.3,0-0.7-0.2-0.8-0.5l-7.1-17.2c-0.2-0.4,0-0.9,0.5-1.1c0.4-0.2,0.9,0,1.1,0.5l7.1,17.2
					c0.2,0.4,0,0.9-0.5,1.1C656.8,133.7,656.7,133.7,656.6,133.7z"/>
				<path d="M724.5,171.7c-0.3,0-0.6-0.1-0.7-0.4c-0.2-0.4-0.1-0.9,0.3-1.2l9.9-6.1c0.4-0.2,0.9-0.1,1.2,0.3s0.1,0.9-0.3,1.2
					l-9.9,6.1C724.8,171.6,724.7,171.7,724.5,171.7z"/>
			</g>
		</g>
		<g id="counter_1_">
			<rect x="169.6" y="293.4" transform="matrix(0.9883 -0.1524 0.1524 0.9883 -79.6733 34.5602)" width="32.1" height="487.3"/>
			<rect x="769.4" y="303.1" transform="matrix(0.9806 0.1962 -0.1962 0.9806 117.8595 -143.9273)" width="32.1" height="439.6"/>
			<g>
				<path d="M362.4,447.8C362.4,447.8,362.3,447.8,362.4,447.8l-59.3-1.4c-0.5,0-0.8-0.4-0.8-0.9c0-0.5,0.4-0.8,0.9-0.8l59.2,1.4
					c0.5,0,0.8,0.4,0.8,0.9C363.2,447.4,362.8,447.8,362.4,447.8z"/>
				<path d="M859.9,459.5C859.9,459.5,859.9,459.5,859.9,459.5l-147.5-3.5c-0.5,0-0.8-0.4-0.8-0.9c0-0.5,0.4-0.8,0.8-0.8
					c0,0,0,0,0,0l147.5,3.5c0.5,0,0.8,0.4,0.8,0.9C860.7,459.2,860.4,459.5,859.9,459.5z"/>
				<path d="M672,455.1C672,455.1,672,455.1,672,455.1l-269.2-6.3c-0.5,0-0.8-0.4-0.8-0.9c0-0.5,0.4-0.8,0.9-0.8l269.2,6.3
					c0.5,0,0.8,0.4,0.8,0.9C672.8,454.7,672.4,455.1,672,455.1z"/>
				<path d="M262.7,445.5C262.7,445.5,262.7,445.5,262.7,445.5l-120.5-2.8c-0.5,0-0.8-0.4-0.8-0.9c0-0.5,0.4-0.8,0.9-0.8l120.5,2.8
					c0.5,0,0.8,0.4,0.8,0.9C263.5,445.1,263.1,445.5,262.7,445.5z"/>
				<path class="st1" d="M233.7,472.2L233.7,472.2c-11.2-0.3-20-9.5-19.7-20.7l0.4-16.1c0.3-11.2,9.5-20,20.7-19.7h0
					c11.2,0.3,20,9.5,19.7,20.7l-0.4,16.1C254.1,463.6,244.8,472.5,233.7,472.2z"/>
				<path d="M282.7,474.2c-0.2,0-0.3,0-0.5,0c-11.6-0.3-20.8-9.9-20.6-21.6l0.4-16.1c0.3-11.6,10-20.8,21.6-20.6
					c8.6,0.2,16.1,5.5,19.2,13.5c0.9,2.4,1.4,4.9,1.4,7.5l0,0.5l-0.4,16.1C303.5,465.1,294.1,474.2,282.7,474.2z M283.1,417.7
					c-10.5,0-19.1,8.4-19.4,18.9l-0.4,16.1c-0.2,10.7,8.2,19.6,18.9,19.8c10.7,0.2,19.6-8.2,19.8-18.9l0.4-16.5
					c0-2.4-0.4-4.7-1.3-6.9c-2.8-7.4-9.8-12.2-17.6-12.4C283.4,417.7,283.2,417.7,283.1,417.7z"/>
				<path class="st1" d="M357.2,438.3c0,0.2,0,0.3,0,0.5l-0.2,8l-0.2,8c-0.3,11.2-9.5,20-20.7,19.7c-11.2-0.3-20-9.5-19.7-20.7
					l0.2-8l0.2-8c0.3-11.2,9.5-20,20.7-19.7C348.5,418.4,357.2,427.4,357.2,438.3z"/>
				<path d="M382.4,476.5c-0.2,0-0.3,0-0.5,0c-5.6-0.1-10.9-2.4-14.8-6.5c-3.9-4.1-6-9.4-5.8-15l0.4-16.1c0.1-5.6,2.4-10.9,6.5-14.8
					c4.1-3.9,9.4-6,15-5.8c11.4,0.3,20.6,9.7,20.6,21.1l0,0.5l-0.4,16.1c-0.1,5.6-2.5,10.9-6.5,14.8
					C393,474.5,387.8,476.5,382.4,476.5z M382.8,420c-5,0-9.7,1.9-13.4,5.4c-3.7,3.6-5.9,8.4-6,13.6L363,455
					c-0.1,5.2,1.8,10.1,5.4,13.8c3.6,3.7,8.4,5.9,13.6,6c5.2,0.1,10.1-1.8,13.8-5.3c3.7-3.6,5.9-8.4,6-13.6l0.4-16.5
					c0-10.4-8.5-19.1-18.9-19.4C383.1,420,382.9,420,382.8,420z"/>
				<path class="st1" d="M543.3,479.5L543.3,479.5c-11.2-0.3-20-9.5-19.7-20.7l0.4-16.1c0.3-11.2,9.5-20,20.7-19.7h0
					c11.2,0.3,20,9.5,19.7,20.7l-0.4,16.1C563.7,470.9,554.5,479.8,543.3,479.5z"/>
				<path class="st1" d="M591.9,480.6L591.9,480.6c-11.2-0.3-20-9.5-19.7-20.7l0.4-16.1c0.3-11.2,9.5-20,20.7-19.7h0
					c11.2,0.3,20,9.5,19.7,20.7l-0.4,16.1C612.3,472.1,603,480.9,591.9,480.6z"/>
				<path class="st1" d="M645.8,481.9L645.8,481.9c-11.2-0.3-20-9.5-19.7-20.7l0.4-16.1c0.3-11.2,9.5-20,20.7-19.7l0,0
					c11.2,0.3,20,9.5,19.7,20.7l-0.4,16.1C666.2,473.3,656.9,482.2,645.8,481.9z"/>
				<path d="M692,483.8c-0.2,0-0.3,0-0.5,0c-5.6-0.1-10.9-2.4-14.8-6.5s-6-9.4-5.8-15l0.4-16.1c0.1-5.6,2.4-10.9,6.5-14.8
					s9.4-5.9,15-5.8c5.6,0.1,10.9,2.4,14.8,6.5s6,9.4,5.8,15l-0.4,16.1c-0.1,5.6-2.4,10.9-6.5,14.8
					C702.6,481.8,697.5,483.8,692,483.8z M692.4,427.3c-5,0-9.7,1.9-13.4,5.4c-3.7,3.6-5.9,8.4-6,13.6l-0.4,16.1
					c-0.1,5.2,1.8,10.1,5.4,13.8c3.6,3.7,8.4,5.9,13.6,6h0c5.2,0.1,10.1-1.8,13.8-5.4c3.7-3.6,5.9-8.4,6-13.6l0.4-16.1
					c0.1-5.2-1.8-10.1-5.4-13.8c-3.6-3.7-8.4-5.9-13.6-6C692.7,427.3,692.5,427.3,692.4,427.3z"/>
				<g>
					<path d="M462.7,440.8c0,0.2,0,0.3,0,0.5l-0.2,8l-0.2,8c0,1.5-0.2,2.9-0.6,4.2c-1.7,7.2-7.2,12.9-14.3,14.8
						c-1.9,0.5-3.8,0.8-5.8,0.7c-11.2-0.3-20-9.5-19.7-20.7l0.4-16.1c0.3-11.2,9.5-20,20.7-19.7
						C453.9,420.9,462.7,429.9,462.7,440.8z"/>
					<path d="M442.1,478c-0.2,0-0.3,0-0.5,0c-11.6-0.3-20.8-10-20.6-21.6l0.4-16.1c0.3-11.6,9.9-20.9,21.6-20.6
						c11.4,0.3,20.6,9.7,20.6,21.1l0,0.5l-0.4,16.1c0,1.5-0.2,3-0.6,4.4c-1.8,7.5-7.5,13.4-14.9,15.4C445.8,477.7,444,478,442.1,478
						z M442.4,421.4c-10.5,0-19.1,8.4-19.4,18.9l-0.4,16.1c-0.2,10.7,8.2,19.6,18.9,19.8c1.9,0,3.8-0.2,5.6-0.7
						c6.8-1.9,12.1-7.3,13.7-14.2c0.3-1.3,0.5-2.7,0.5-4l0.4-16.5c0-10.4-8.5-19.1-18.9-19.4C442.7,421.4,442.6,421.4,442.4,421.4z"
						/>
				</g>
				<g>
					<path d="M508.2,441.9c0,0.2,0,0.3,0,0.5l-0.2,8l-0.2,8c-0.3,11.2-9.5,20-20.7,19.7c-11.2-0.3-20-9.5-19.7-20.7l0-1.9l0.1-6.1
						l0.2-8c0.1-6.1,2.9-11.4,7.3-15c3.6-3,8.3-4.8,13.4-4.7C499.5,421.9,508.2,430.9,508.2,441.9z"/>
					<path d="M487.6,479c-0.2,0-0.3,0-0.5,0c-11.6-0.3-20.8-9.9-20.6-21.6l0.4-16.1c0.1-6.1,2.9-11.8,7.6-15.7c3.9-3.3,8.9-5,14-4.9
						c11.3,0.3,20.6,9.7,20.6,21.1l0,0.5l-0.4,16.1c-0.1,5.6-2.5,10.9-6.5,14.8C498.2,477,493.1,479,487.6,479z M488,422.5
						c-4.5,0-8.9,1.6-12.4,4.5c-4.3,3.6-6.8,8.8-7,14.4l-0.4,16.1c-0.3,10.7,8.2,19.6,18.9,19.8c0.2,0,0.3,0,0.5,0
						c10.5,0,19.1-8.4,19.4-18.9l0.4-16.5c0-10.4-8.5-19.1-18.9-19.4C488.3,422.5,488.1,422.5,488,422.5z"/>
				</g>
			</g>
			<g>
				<path d="M254.8,547c-0.5,0-0.8-0.4-0.8-0.8c0-0.5,0.3-0.9,0.8-0.9l103.2-4.9c0.5,0,0.9,0.3,0.9,0.8c0,0.5-0.3,0.9-0.8,0.9
					L254.8,547C254.8,547,254.8,547,254.8,547z"/>
				<path d="M398.4,540.3c-0.5,0-0.8-0.4-0.8-0.8c0-0.5,0.3-0.9,0.8-0.9l120.2-5.7c0.5,0,0.9,0.3,0.9,0.8s-0.3,0.9-0.8,0.9
					L398.4,540.3C398.4,540.3,398.4,540.3,398.4,540.3z"/>
				<path d="M620.5,529.8c-0.5,0-0.8-0.4-0.8-0.8c0-0.5,0.3-0.9,0.8-0.9l67.3-3.2c0.5,0,0.9,0.3,0.9,0.8c0,0.5-0.3,0.9-0.8,0.9
					L620.5,529.8C620.5,529.8,620.5,529.8,620.5,529.8z"/>
				<path d="M728.2,524.7c-0.5,0-0.8-0.4-0.8-0.8c0-0.5,0.3-0.9,0.8-0.9l98-4.6c0.5,0,0.9,0.3,0.9,0.8c0,0.5-0.3,0.9-0.8,0.9
					L728.2,524.7C728.2,524.7,728.2,524.7,728.2,524.7z"/>
				<path d="M559,532.7c-0.5,0-0.8-0.4-0.8-0.8c0-0.5,0.3-0.9,0.8-0.9l21.1-1c0.5,0,0.9,0.3,0.9,0.8c0,0.5-0.3,0.9-0.8,0.9
					L559,532.7C559,532.7,559,532.7,559,532.7z"/>
				<path d="M129.4,553c-0.5,0-0.8-0.4-0.8-0.8c0-0.5,0.3-0.9,0.8-0.9l85-4c0.5,0,0.9,0.3,0.9,0.8c0,0.5-0.3,0.9-0.8,0.9L129.4,553
					C129.4,553,129.4,553,129.4,553z"/>
				<path d="M234.9,576.2c-11.2,0-20.5-8.8-21-20.1l-0.8-16.1c-0.3-5.6,1.7-11,5.5-15.2c3.8-4.2,9-6.6,14.6-6.9
					c5.6-0.3,11,1.7,15.2,5.5c4.2,3.8,6.6,9,6.9,14.6l0.8,16.1c0.3,5.6-1.7,11-5.5,15.2c-3.8,4.2-9,6.6-14.6,6.9
					C235.6,576.2,235.3,576.2,234.9,576.2z M234.2,519.7c-0.3,0-0.6,0-0.9,0c-5.2,0.2-9.9,2.5-13.4,6.3c-3.5,3.8-5.3,8.8-5,14
					l0.8,16.1c0.5,10.7,9.6,19,20.3,18.4l0,0c5.2-0.2,9.9-2.5,13.4-6.3c3.5-3.8,5.3-8.8,5-14l-0.8-16.1
					C253,527.8,244.5,519.7,234.2,519.7z"/>
				<path class="st1" d="M279.9,573.1L279.9,573.1c-11.2,0.5-20.6-8.1-21.2-19.2l-0.8-16.1c-0.5-11.2,8.1-20.6,19.2-21.2h0
					c11.2-0.5,20.6,8.1,21.2,19.2l0.8,16.1C299.7,563.1,291.1,572.6,279.9,573.1z"/>
				<path class="st1" d="M332,570.5L332,570.5c-11.2,0.5-20.6-8.1-21.2-19.2l-0.8-16.1c-0.5-11.2,8.1-20.6,19.2-21.2h0
					c11.2-0.5,20.6,8.1,21.2,19.2l0.8,16.1C351.7,560.5,343.1,570,332,570.5z"/>
				<path d="M378.5,569.3c-5.3,0-10.2-1.9-14.2-5.5c-4.2-3.8-6.6-9-6.9-14.6l-0.8-16.1c-0.3-5.6,1.7-11,5.5-15.2
					c3.8-4.2,9-6.6,14.6-6.9c5.6-0.3,11,1.7,15.2,5.5c4.2,3.8,6.6,9,6.9,14.6l0.8,16.1c0.3,5.6-1.7,11-5.5,15.2
					c-3.8,4.2-9,6.6-14.6,6.9l0,0C379.2,569.2,378.9,569.3,378.5,569.3z M377.8,512.7c-0.3,0-0.6,0-0.9,0c-5.2,0.2-9.9,2.5-13.4,6.3
					c-3.5,3.8-5.3,8.8-5,14l0.8,16.1c0.2,5.2,2.5,9.9,6.3,13.4c3.8,3.5,8.8,5.3,14,5l0,0c5.2-0.2,9.9-2.5,13.4-6.3
					c3.5-3.8,5.3-8.8,5-14l-0.8-16.1c-0.2-5.2-2.5-9.9-6.3-13.4C387.2,514.5,382.6,512.7,377.8,512.7z"/>
				<path d="M539.1,561c-11.2,0-20.5-8.8-21-20.1l-0.8-16.1c-0.5-11.6,8.5-21.5,20.1-22c11.6-0.6,21.5,8.5,22,20.1l0.8,16.1
					c0.5,11.6-8.4,21.5-20.1,22l0,0C539.8,561,539.5,561,539.1,561z M540.1,560.2L540.1,560.2L540.1,560.2z M538.4,504.5
					c-0.3,0-0.6,0-0.9,0c-10.7,0.5-18.9,9.6-18.4,20.3l0.8,16.1c0.5,10.7,9.6,18.9,20.3,18.4l0,0c10.7-0.5,18.9-9.6,18.4-20.3
					l-0.8-16.1C557.2,512.6,548.6,504.5,538.4,504.5z"/>
				<path d="M600.6,558.5c-11.2,0-20.5-8.8-21-20.1l-0.8-16.1c-0.5-11.6,8.4-21.5,20.1-22c11.6-0.6,21.5,8.5,22,20.1l0.8,16.1
					c0.5,11.6-8.4,21.5-20.1,22l0,0C601.3,558.5,601,558.5,600.6,558.5z M601.6,557.7L601.6,557.7L601.6,557.7z M599.9,502
					c-0.3,0-0.6,0-0.9,0c-10.7,0.5-18.9,9.6-18.4,20.3l0.8,16.1c0.5,10.7,9.6,19,20.3,18.4l0,0c10.7-0.5,18.9-9.6,18.4-20.3
					l-0.8-16.1C618.8,510.1,610.2,502,599.9,502z"/>
				<path class="st1" d="M647.4,555.9L647.4,555.9c-11.2,0.5-20.6-8.1-21.2-19.2l-0.8-16.1c-0.5-11.2,8.1-20.6,19.2-21.2l0,0
					c11.2-0.5,20.6,8.1,21.2,19.2l0.8,16.1C667.2,545.9,658.6,555.4,647.4,555.9z"/>
				<path d="M708.3,553.5c-11.2,0-20.5-8.8-21-20.1l-0.8-16.1c-0.3-5.6,1.7-11,5.5-15.2c3.8-4.2,9-6.6,14.6-6.9
					c11.6-0.6,21.5,8.4,22,20.1l0.8,16.1c0.5,11.6-8.5,21.5-20.1,22l0,0C709,553.4,708.6,553.5,708.3,553.5z M707.6,496.9
					c-0.3,0-0.6,0-0.9,0c-5.2,0.2-9.9,2.5-13.4,6.3c-3.5,3.8-5.3,8.8-5,14l0.8,16.1c0.5,10.7,9.6,18.9,20.3,18.4
					c10.7-0.5,18.9-9.6,18.4-20.3l-0.8-16.1C726.4,505,717.8,496.9,707.6,496.9z"/>
				<g>
					<path d="M434.3,565.6L434.3,565.6c-11.2,0.5-20.6-8.1-21.2-19.2l-0.8-16.1c-0.5-11.2,8.1-20.6,19.2-21.2h0
						c11.2-0.5,20.6,8.1,21.2,19.2l0.8,16.1C454.1,555.6,445.5,565,434.3,565.6z"/>
					<path d="M433.3,566.4c-5.3,0-10.2-1.9-14.2-5.5c-4.2-3.8-6.6-9-6.9-14.6l-0.8-16.1c-0.5-11.6,8.4-21.5,20.1-22
						c11.6-0.6,21.5,8.4,22,20.1l0.8,16.1c0.3,5.6-1.7,11-5.5,15.2c-3.8,4.2-9,6.6-14.6,6.9C434,566.4,433.7,566.4,433.3,566.4z
						 M432.6,509.9c-0.3,0-0.6,0-0.9,0c-5.2,0.2-9.9,2.5-13.4,6.3s-5.3,8.8-5,14l0.8,16.1c0.2,5.2,2.5,9.9,6.3,13.4
						c3.8,3.5,8.8,5.3,14,5l0,0c5.2-0.2,9.9-2.5,13.4-6.3c3.5-3.8,5.3-8.8,5-14l-0.8-16.1C451.5,518,442.9,509.9,432.6,509.9z"/>
				</g>
				<g>
					<path d="M495.8,563.4L495.8,563.4c-11.2,0.5-20.6-8.1-21.2-19.2l-0.8-16.1c-0.5-11.2,8.1-20.6,19.2-21.2h0
						c11.2-0.5,20.6,8.1,21.2,19.2l0.8,16.1C515.6,553.4,507,562.9,495.8,563.4z"/>
					<path d="M494.8,564.3c-5.3,0-10.2-1.9-14.2-5.5c-4.2-3.8-6.6-9-6.9-14.6l-0.8-16.1c-0.3-5.6,1.7-11,5.5-15.2
						c3.8-4.2,9-6.6,14.6-6.9c5.6-0.3,11,1.7,15.2,5.5c4.2,3.8,6.6,9,6.9,14.6l0.8,16.1c0.3,5.6-1.7,11-5.5,15.2
						c-3.8,4.2-9,6.6-14.6,6.9C495.5,564.3,495.2,564.3,494.8,564.3z M494.1,507.8c-0.3,0-0.6,0-0.9,0c-10.7,0.5-18.9,9.6-18.4,20.3
						l0.8,16.1c0.2,5.2,2.5,9.9,6.3,13.4c3.8,3.5,8.8,5.3,14,5l0,0c5.2-0.2,9.9-2.5,13.4-6.3c3.5-3.8,5.3-8.8,5-14l-0.8-16.1
						c-0.2-5.2-2.5-9.9-6.3-13.4C503.6,509.6,499,507.8,494.1,507.8z"/>
				</g>
			</g>
			<g>
				<path d="M794.7,648.1C794.7,648.1,794.7,648.1,794.7,648.1l-0.8,0c-0.3,0-0.6,0-1,0l-0.2,0c-0.5,0-1.2-0.1-1.9-0.1l-3.9-0.2
					c-0.7,0-1.5-0.1-2.4-0.1l-1.7-0.1c-1.2-0.1-2.5-0.1-3.8-0.2l-4.3-0.2c-1.5-0.1-3.1-0.2-4.7-0.2c-1.2-0.1-2.4-0.1-3.8-0.2
					l-5.4-0.3c-1.3-0.1-2.8-0.1-4.3-0.2l-0.4,0c-0.8,0-1.7-0.1-2.6-0.1l-0.3,0c-0.9,0-1.8-0.1-2.7-0.1l-7-0.4
					c-1.4-0.1-2.8-0.1-4.2-0.2c-0.5,0-1-0.1-1.6-0.1c0,0-0.1,0-0.1,0l-4-0.2c-0.9,0-1.9-0.1-2.8-0.2c-2.3-0.1-4.7-0.2-7.1-0.4
					l-0.7,0c-2.2-0.1-4.4-0.2-6.6-0.3c-4.9-0.3-10-0.5-15.1-0.8l-11.7-0.6c-1.3-0.1-2.6-0.1-4-0.2c-14.5-0.8-29.5-1.6-44.3-2.3
					c-4-0.2-8-0.4-12-0.6c-4-0.2-7.9-0.4-11.8-0.6l-11.5-0.6c-0.5,0-0.8-0.4-0.8-0.9s0.4-0.8,0.9-0.8l11.5,0.6
					c3.9,0.2,7.8,0.4,11.8,0.6c4,0.2,8,0.4,12,0.6c14.8,0.8,29.7,1.6,44.3,2.3c1.3,0.1,2.6,0.1,4,0.2l11.7,0.6
					c5.1,0.3,10.2,0.5,15.1,0.8c2.2,0.1,4.4,0.2,6.6,0.3l0.7,0c2.4,0.1,4.8,0.2,7.1,0.4c1,0.1,1.9,0.1,2.8,0.2l4,0.2
					c0,0,0.2,0,0.2,0c0.5,0,1,0.1,1.5,0.1c1.4,0.1,2.8,0.2,4.2,0.2l7,0.4c0.9,0.1,1.8,0.1,2.7,0.1l0.3,0c0.9,0.1,1.7,0.1,2.6,0.1
					l0.4,0c1.5,0.1,2.9,0.2,4.3,0.2l5.4,0.3c1.3,0.1,2.6,0.1,3.8,0.2c1.6,0.1,3.2,0.2,4.7,0.2l4.3,0.2c1.4,0.1,2.6,0.1,3.8,0.2
					l1.7,0.1c0.8,0,1.6,0.1,2.4,0.1l3.9,0.2c0.7,0,1.3,0.1,1.9,0.1l0.2,0c0.4,0,0.7,0,1,0.1l0.1,0c0.1,0,0.1,0,0.2,0l0.4,0
					c0.5,0,0.8,0.4,0.8,0.9C795.5,647.7,795.1,648.1,794.7,648.1z"/>
				<path d="M795.2,648.1C795.2,648.1,795.2,648.1,795.2,648.1l-1.3-0.1c-0.3,0-0.6,0-1,0l-22.9-1.2c-1.2-0.1-2.4-0.1-3.8-0.2
					l-5.4-0.3c-1.4-0.1-2.8-0.1-4.3-0.2l-17.2-0.9c-0.5,0-1-0.1-1.6-0.1c0,0-0.1,0-0.1,0l-4-0.2c-0.9,0-1.9-0.1-2.8-0.2l-7.8-0.4
					c-2.2-0.1-4.4-0.2-6.6-0.3l-26.8-1.4c-1.3-0.1-2.6-0.1-4-0.2l-79.7-4.2c-0.5,0-0.8-0.4-0.8-0.9s0.4-0.8,0.9-0.8l35.4,1.9
					l44.3,2.3c1.3,0.1,2.6,0.1,4,0.2l26.8,1.4c2.2,0.1,4.4,0.2,6.6,0.3l7.8,0.4c1,0.1,1.9,0.1,2.8,0.2l4,0.2c0,0,0.2,0,0.2,0
					c0.5,0,1,0.1,1.5,0.1l17.2,0.9c1.5,0.1,2.9,0.2,4.3,0.2l5.4,0.3c1.3,0.1,2.6,0.1,3.8,0.2l22.9,1.2c0.4,0,0.7,0,1,0.1l0.1,0
					c0.1,0,0.1,0,0.2,0l0.9,0c0.5,0,0.8,0.4,0.8,0.9C796,647.8,795.6,648.1,795.2,648.1z"/>
				<path d="M565.8,636C565.8,636,565.7,636,565.8,636l-103.3-5.4c0,0-0.1,0-0.1,0l-108.6-5.7c-2.6-0.1-5.2-0.3-7.7-0.4l-2.2-0.1
					c-2.1-0.1-4.3-0.2-6.4-0.3l-7.4-0.4c-1.2-0.1-2.4-0.1-3.6-0.2l-7.1-0.4c-2-0.1-3.9-0.2-5.8-0.3l-1.8-0.1
					c-2.3-0.1-4.6-0.2-6.9-0.4l-35.5-1.9c-0.9,0-1.7-0.1-2.6-0.1l-36.1-1.9c-0.9,0-1.7-0.1-2.6-0.1l-62.8-3.3
					c-0.5,0-0.8-0.4-0.8-0.9c0-0.5,0.4-0.8,0.9-0.8l45.8,2.4l17,0.9c0.8,0,1.7,0.1,2.6,0.1l36.1,1.9c0.9,0,1.7,0.1,2.6,0.1l35.5,1.9
					c2.3,0.1,4.6,0.2,6.9,0.4l1.8,0.1c1.9,0.1,3.8,0.2,5.8,0.3l7.1,0.4c1.2,0.1,2.4,0.1,3.6,0.2l7.4,0.4c2.1,0.1,4.2,0.2,6.4,0.3
					l2.2,0.1c2.5,0.1,5.1,0.3,7.7,0.4l108.7,5.7c0,0,0.1,0,0.1,0l103.2,5.4c0.5,0,0.8,0.4,0.8,0.9C566.6,635.7,566.2,636,565.8,636z
					"/>
				<path d="M565.8,636.1C565.8,636.1,565.7,636.1,565.8,636.1l-212-11.2c-2.6-0.1-5.2-0.3-7.7-0.4l-2.2-0.1
					c-2.1-0.1-4.3-0.2-6.4-0.3l-2.9-0.2c-1.5-0.1-3-0.2-4.5-0.2c-1.2-0.1-2.4-0.1-3.6-0.2c-2.4-0.1-4.8-0.2-7.1-0.4
					c-2-0.1-3.9-0.2-5.8-0.3l-1.8-0.1c-2.3-0.1-4.6-0.2-6.9-0.4l-4.6-0.2c-1.2-0.1-2.5-0.1-3.7-0.2l-6.7-0.3c-3.1-0.2-6.1-0.3-9-0.5
					c-1.1-0.1-2.2-0.1-3.3-0.2l-8.2-0.4c-0.9,0-1.7-0.1-2.6-0.1l-11-0.6c-1.2-0.1-2.4-0.1-3.5-0.2l-21.5-1.1c-0.9,0-1.7-0.1-2.6-0.1
					l-30.3-1.6c-0.8,0-1.6-0.1-2.3-0.1l-18.3-1c-0.6,0-1.1-0.1-1.7-0.1l-9.5-0.5c0,0-0.1,0-0.1,0l-2.6-0.1c0,0-0.1,0-0.2,0l-1.4-0.1
					c-0.5,0-0.8-0.4-0.8-0.9s0.4-0.8,0.9-0.8l1.5,0.1c0,0,0.2,0,0.2,0l0.3,0c0,0,0.2,0,0.2,0l11.7,0.6c0.5,0,1.1,0.1,1.7,0.1l18.3,1
					c0.8,0,1.5,0.1,2.3,0.1l30.2,1.6c0.8,0,1.7,0.1,2.6,0.1l21.5,1.1c1.2,0.1,2.3,0.1,3.5,0.2l11,0.6c0.9,0,1.7,0.1,2.6,0.1l8.2,0.4
					c1.1,0.1,2.2,0.1,3.3,0.2c2.9,0.2,5.9,0.3,9,0.5l6.7,0.3c1.2,0.1,2.4,0.1,3.7,0.2l4.6,0.2c2.3,0.1,4.6,0.2,6.9,0.4l1.8,0.1
					c1.9,0.1,3.8,0.2,5.8,0.3c2.3,0.1,4.7,0.2,7.1,0.4c1.2,0.1,2.4,0.1,3.6,0.2c1.5,0.1,3,0.2,4.5,0.2l2.9,0.2
					c2.1,0.1,4.2,0.2,6.4,0.3l2.2,0.1c2.5,0.1,5.1,0.3,7.7,0.4l212,11.2c0.5,0,0.8,0.4,0.8,0.9C566.6,635.7,566.2,636.1,565.8,636.1
					z"/>
				<path class="st1" d="M396.4,654.6L396.4,654.6c-11.2-0.6-19.7-10.1-19.1-21.3l0.8-16c0.6-11.2,10.1-19.7,21.3-19.1h0
					c11.2,0.6,19.7,10.1,19.1,21.3l-0.8,16C417,646.6,407.5,655.2,396.4,654.6z"/>
				<path d="M585.6,665.4c-0.4,0-0.7,0-1.1,0c-11.6-0.6-20.5-10.5-19.9-22.2l0.8-16c0.6-11.6,10.5-20.5,22.2-19.9
					c11.6,0.6,20.5,10.5,19.9,22.2l-0.8,16C606,656.6,596.7,665.4,585.6,665.4z M586.4,608.9c-4.8,0-9.4,1.7-12.9,5
					c-3.8,3.5-6.1,8.2-6.4,13.4l-0.8,16c-0.6,10.7,7.7,19.8,18.3,20.4c10.7,0.5,19.8-7.7,20.4-18.3l0.8-16
					c0.6-10.7-7.7-19.8-18.3-20.4C587.1,608.9,586.7,608.9,586.4,608.9z"/>
				<g>
					<path d="M440.8,656.9L440.8,656.9c-11.2-0.6-19.7-10.1-19.1-21.3l0.8-16c0.6-11.2,10.1-19.7,21.3-19.1h0
						c11.2,0.6,19.7,10.1,19.1,21.3l-0.8,16C461.5,648.9,452,657.5,440.8,656.9z"/>
					<path d="M441.9,657.8c-0.4,0-0.7,0-1.1,0c-11.6-0.6-20.5-10.5-19.9-22.2l0.8-16c0.6-11.6,10.5-20.5,22.2-19.9
						c11.6,0.6,20.5,10.5,19.9,22.2l-0.8,16C462.3,649.1,453,657.8,441.9,657.8z M442.7,601.3c-10.2,0-18.8,8-19.3,18.4l-0.8,16
						c-0.6,10.7,7.7,19.8,18.3,20.4c10.7,0.5,19.8-7.7,20.4-18.3l0.8-16c0.6-10.7-7.7-19.8-18.3-20.4
						C443.4,601.3,443,601.3,442.7,601.3z"/>
				</g>
				<g>
					<path d="M506.5,660.4L506.5,660.4c-11.2-0.6-19.7-10.1-19.1-21.3l0.8-16c0.6-11.2,10.1-19.7,21.3-19.1h0
						c11.2,0.6,19.7,10.1,19.1,21.3l-0.8,16C527.2,652.4,517.7,661,506.5,660.4z"/>
					<path d="M507.6,661.3c-0.4,0-0.8,0-1.1,0c-11.6-0.6-20.5-10.5-19.9-22.2l0.8-16c0.3-5.6,2.8-10.8,6.9-14.6
						c4.2-3.8,9.6-5.7,15.2-5.4c5.6,0.3,10.8,2.8,14.6,6.9c3.8,4.2,5.7,9.6,5.4,15.2l-0.8,16c-0.3,5.6-2.8,10.8-6.9,14.6
						C517.8,659.4,512.8,661.3,507.6,661.3z M506.6,659.5c5.2,0.3,10.1-1.5,14-4.9c3.8-3.5,6.1-8.2,6.4-13.4l0.8-16
						c0.6-10.7-7.7-19.8-18.3-20.4c-10.6-0.5-19.8,7.7-20.4,18.3l-0.8,16C487.7,649.8,495.9,659,506.6,659.5z"/>
				</g>
			</g>
			<circle cx="142.2" cy="441.8" r="3.8"/>
			<circle cx="129.5" cy="552.1" r="3.8"/>
			<circle cx="859.9" cy="458.7" r="3.8"/>
			<circle cx="825.9" cy="519.2" r="3.8"/>
			<circle cx="795.2" cy="647.3" r="3.8"/>
			<circle cx="161.8" cy="613.7" r="3.8"/>
		</g>
	</g>
</g>
</svg>
