<?xml version="1.0" encoding="utf-8"?>
<!-- Generator: Adobe Illustrator 22.1.0, SVG Export Plug-In . SVG Version: 6.00 Build 0)  -->
<svg version="1.1" xmlns="http://www.w3.org/2000/svg" xmlns:xlink="http://www.w3.org/1999/xlink" x="0px" y="0px"
	 viewBox="0 0 849.9 848.9" style="enable-background:new 0 0 849.9 848.9;" xml:space="preserve">
<style type="text/css">
	.st0{fill:#9050A6;}
	.st1{fill:#FEE200;}
</style>
<g id="background">
	<g id="background_1_">
		<path d="M28.5,790.4c-4.7,0-8.5-3.8-8.5-8.5s3.8-8.5,8.5-8.5s8.5,3.8,8.5,8.5S33.2,790.4,28.5,790.4z M28.5,775c-3.8,0-7,3.1-7,7
			s3.1,7,7,7s7-3.1,7-7S32.3,775,28.5,775z"/>
		<path d="M136.1,277.4c-0.8,0-1.6-0.1-2.4-0.4c-2.1-0.6-3.8-2.1-4.9-4s-1.2-4.2-0.6-6.3c1.3-4.3,5.9-6.8,10.3-5.5
			c2.1,0.6,3.8,2.1,4.9,4s1.2,4.2,0.6,6.3l0,0c-0.6,2.1-2.1,3.8-4,4.9C138.8,277.1,137.5,277.4,136.1,277.4z M136.1,262.5
			c-2.9,0-5.5,1.9-6.4,4.8c-0.5,1.7-0.4,3.5,0.5,5.1c0.8,1.6,2.3,2.7,4,3.3c1.7,0.5,3.5,0.4,5.1-0.5s2.7-2.3,3.3-4l0,0
			c0.5-1.7,0.4-3.5-0.5-5.1c-0.8-1.6-2.3-2.7-4-3.3C137.4,262.6,136.8,262.5,136.1,262.5z"/>
		<circle class="st0" cx="601.7" cy="744.6" r="12.2"/>
		<circle class="st0" cx="17.2" cy="565" r="9.9"/>
		<path d="M757.9,84.8c-0.8,0-1.7-0.3-2.4-0.7c-1.9-1.3-2.4-3.9-1.1-5.9c1.3-1.9,3.9-2.4,5.9-1.1c0.9,0.6,1.6,1.6,1.8,2.7
			s0,2.2-0.7,3.2c-0.6,0.9-1.6,1.6-2.7,1.8C758.4,84.8,758.1,84.8,757.9,84.8z M757.9,77.8c-0.9,0-1.7,0.4-2.2,1.2
			c-0.8,1.2-0.5,2.9,0.7,3.8c0.6,0.4,1.3,0.6,2,0.4c0.7-0.1,1.3-0.5,1.7-1.1c0.4-0.6,0.6-1.3,0.4-2c-0.1-0.7-0.5-1.3-1.1-1.7
			C759,78,758.4,77.8,757.9,77.8z"/>
		<path d="M826.5,786.1c-0.8,0-1.7-0.3-2.4-0.7c-0.9-0.6-1.6-1.6-1.8-2.7s0-2.2,0.7-3.2c1.3-1.9,3.9-2.4,5.9-1.1
			c1.9,1.3,2.4,3.9,1.1,5.9l0,0c-0.6,0.9-1.6,1.6-2.7,1.8C827,786.1,826.7,786.1,826.5,786.1z M826.5,779.2c-0.9,0-1.7,0.4-2.2,1.2
			c-0.4,0.6-0.6,1.3-0.4,2c0.1,0.7,0.5,1.3,1.1,1.7c0.6,0.4,1.3,0.6,2,0.4c0.7-0.1,1.3-0.5,1.7-1.1l0,0c0.8-1.2,0.5-2.9-0.7-3.8
			C827.5,779.4,827,779.2,826.5,779.2z M829.3,783.9L829.3,783.9L829.3,783.9z"/>
		<path d="M698.3,456.6c-1.2,0-2.3-0.4-3.3-1c-2.7-1.8-3.4-5.5-1.5-8.2c0.9-1.3,2.2-2.2,3.8-2.5c1.5-0.3,3.1,0,4.4,0.9
			c2.7,1.8,3.4,5.5,1.5,8.2l0,0c-0.9,1.3-2.2,2.2-3.8,2.5C699,456.6,698.6,456.6,698.3,456.6z M698.3,446.4c-0.3,0-0.5,0-0.8,0.1
			c-1.2,0.2-2.2,0.9-2.8,1.8c-1.4,2-0.9,4.7,1.1,6.1c1,0.7,2.1,0.9,3.3,0.7c1.2-0.2,2.2-0.9,2.8-1.8l0,0c1.4-2,0.9-4.7-1.1-6.1
			C700,446.6,699.2,446.4,698.3,446.4z M702.5,453.7L702.5,453.7L702.5,453.7z"/>
		<path d="M14.6,123c-0.2,0-0.4-0.1-0.5-0.2L0.2,108.9c-0.1-0.1-0.2-0.3-0.2-0.5s0.1-0.4,0.2-0.5L14.1,94c0.3-0.3,0.8-0.3,1.1,0
			L29,107.9c0.1,0.1,0.2,0.3,0.2,0.5s-0.1,0.4-0.2,0.5l-13.9,13.9C15,123,14.8,123,14.6,123z M1.8,108.4l12.8,12.8l12.8-12.8
			L14.6,95.6L1.8,108.4z"/>
		<path d="M125.4,701.7C125.4,701.7,125.3,701.7,125.4,701.7l-15.1-1.4c-0.2,0-0.4-0.1-0.5-0.3c-0.1-0.2-0.2-0.4-0.2-0.5l1.4-15
			c0-0.4,0.4-0.7,0.8-0.7l15,1.4c0.4,0,0.7,0.4,0.7,0.8l-1.4,15C126.1,701.4,125.8,701.7,125.4,701.7z M111.2,698.9l13.5,1.2
			l1.2-13.5l-13.5-1.2L111.2,698.9z"/>
		
			<rect x="813.1" y="152.7" transform="matrix(0.9841 -0.1779 0.1779 0.9841 -15.1458 148.2003)" class="st0" width="11.7" height="11.7"/>
		<path d="M530.4,590.4c0,0-0.1,0-0.1,0c-0.2,0-0.4-0.1-0.5-0.3l-8.2-10.9c-0.1-0.2-0.2-0.4-0.1-0.6c0-0.2,0.1-0.4,0.3-0.5l10.9-8.2
			c0.3-0.2,0.8-0.2,1,0.1L542,581c0.2,0.3,0.2,0.8-0.1,1l-10.9,8.2C530.8,590.4,530.6,590.4,530.4,590.4z M523.3,578.9l7.3,9.7
			l9.7-7.3l-7.3-9.7L523.3,578.9z"/>
		<path d="M818.9,487.7c-0.2,0-0.3-0.1-0.5-0.2c-0.3-0.3-0.4-0.7-0.1-1.1l15.1-18.9c0.3-0.3,0.7-0.4,1.1-0.1
			c0.3,0.3,0.4,0.7,0.1,1.1l-15.1,18.9C819.4,487.6,819.1,487.7,818.9,487.7z"/>
		<path d="M834,39c-0.2,0-0.3-0.1-0.5-0.2c-0.3-0.3-0.4-0.7-0.1-1.1l15.1-18.9c0.3-0.3,0.7-0.4,1.1-0.1c0.3,0.3,0.4,0.7,0.1,1.1
			l-15.1,18.9C834.5,38.9,834.3,39,834,39z"/>
		<path d="M804.2,674.1c-0.2,0-0.5-0.1-0.6-0.3c-0.2-0.3-0.2-0.8,0.2-1l19.9-13.9c0.3-0.2,0.8-0.2,1,0.2c0.2,0.3,0.2,0.8-0.2,1
			l-19.9,13.9C804.5,674,804.4,674.1,804.2,674.1z"/>
		<path d="M754.4,310.8c-0.2,0-0.5-0.1-0.6-0.3c-0.2-0.3-0.2-0.8,0.2-1l19.8-13.9c0.3-0.2,0.8-0.2,1,0.2c0.2,0.3,0.2,0.8-0.2,1
			l-19.8,13.9C754.7,310.8,754.6,310.8,754.4,310.8z"/>
		<path d="M88.9,451.5c-0.2,0-0.3-0.1-0.5-0.2c-0.3-0.3-0.4-0.7-0.1-1.1l15.1-18.9c0.3-0.3,0.7-0.4,1.1-0.1c0.3,0.3,0.4,0.7,0.1,1.1
			l-15.1,18.9C89.3,451.4,89.1,451.5,88.9,451.5z"/>
		<path d="M28.5,269.7c-0.1,0-0.2,0-0.3-0.1L6.4,259.1c-0.4-0.2-0.5-0.6-0.3-1c0.2-0.4,0.6-0.5,1-0.3l21.8,10.6
			c0.4,0.2,0.5,0.6,0.3,1C29.1,269.6,28.8,269.7,28.5,269.7z"/>
		<path d="M127.4,151.7c-0.3,0-0.6-0.2-0.7-0.5l-8.9-22.5c-0.2-0.4,0-0.8,0.4-1c0.4-0.2,0.8,0,1,0.4l8.9,22.5c0.2,0.4,0,0.8-0.4,1
			C127.6,151.7,127.5,151.7,127.4,151.7z"/>
		<path d="M241.2,56.2c-0.2,0-0.4-0.1-0.5-0.2l-17.1-17.1c-0.3-0.3-0.3-0.8,0-1.1c0.3-0.3,0.8-0.3,1.1,0l17.1,17.1
			c0.3,0.3,0.3,0.8,0,1.1C241.6,56.1,241.4,56.2,241.2,56.2z"/>
		<path d="M233.5,389.9c-0.2,0-0.4-0.1-0.5-0.2l-17.6-16.6c-0.3-0.3-0.3-0.8,0-1.1c0.3-0.3,0.8-0.3,1.1,0l17.6,16.6
			c0.3,0.3,0.3,0.8,0,1.1C233.9,389.9,233.7,389.9,233.5,389.9z"/>
		<path d="M349.7,765.7c-0.2,0-0.5-0.1-0.6-0.3L335.9,745c-0.2-0.3-0.1-0.8,0.2-1c0.3-0.2,0.8-0.1,1,0.2l13.1,20.4
			c0.2,0.3,0.1,0.8-0.2,1C350,765.7,349.8,765.7,349.7,765.7z"/>
		<path d="M177.9,534.6c-0.3,0-0.5-0.1-0.7-0.4c-0.2-0.4-0.1-0.8,0.3-1l21.4-11.4c0.4-0.2,0.8-0.1,1,0.3c0.2,0.4,0.1,0.8-0.3,1
			l-21.4,11.4C178.2,534.6,178.1,534.6,177.9,534.6z"/>
		<path d="M698.3,589.8c-0.2,0-0.4-0.1-0.6-0.2l-16.3-17.9c-0.3-0.3-0.3-0.8,0.1-1.1c0.3-0.3,0.8-0.3,1.1,0.1l16.3,17.9
			c0.3,0.3,0.3,0.8-0.1,1.1C698.6,589.8,698.5,589.8,698.3,589.8z"/>
		<path d="M700.2,815.6c-0.1,0-0.2,0-0.3-0.1c-0.4-0.2-0.6-0.6-0.4-1l9.5-22.3c0.2-0.4,0.6-0.6,1-0.4c0.4,0.2,0.6,0.6,0.4,1
			l-9.5,22.3C700.8,815.4,700.5,815.6,700.2,815.6z"/>
	</g>
</g>
<g id="general_1_">
	<g id="general">
		<g id="lines">
			<path d="M503.4,307c-0.4,0-0.7-0.3-0.7-0.6c-0.1-0.4,0.2-0.8,0.6-0.9c20.1-3.1,28.6-11.9,31.4-14.8c4.3-4.4,5.5-7.5,7.5-12.3
				c1.6-4,3.6-8.9,8.2-16.5c6.1-10.1,10.8-15,14.2-18.6c2.3-2.4,3.9-4.1,4.8-6.2c0.3-0.6,0.8-2.2,0.8-3.7c0.2-5.5-6.3-9.7-13.3-14.2
				c-7.9-5.1-16-10.3-17-18.5c-0.3-2.2,0.2-3.3,0.8-4.6c0.5-1.2,1.2-2.7,1.6-6c0.8-6.6-0.5-14.1-3.5-20.4c-2.7-5.8-6.4-9.7-9.6-10.2
				c-2.6-0.4-4.4,1.9-7.2,5.3c-2.9,3.6-7,8.6-14,12.3c-6.3,3.3-10.5,3.3-16.3,3.3c-4.3,0-9.6,0-17.4,1.4c-13.5,2.5-30.2,5.5-37.5,18
				c-8.3,14.1-0.3,32.6,0,33.4c2.9,6.7,6.8,10.4,10.5,14c4.3,4.1,8.3,8,9.9,15.7c1.2,5.5,0.3,8.8-0.5,11.8c-0.7,2.8-1.4,5.3-0.2,9.1
				c1.2,4,3.9,7.7,7.9,11c0.3,0.3,0.4,0.7,0.1,1.1c-0.3,0.3-0.7,0.4-1.1,0.1c-4.2-3.5-7.1-7.4-8.4-11.8c-1.3-4.3-0.6-7,0.2-10
				c0.8-2.9,1.6-6,0.5-11.1c-1.6-7.3-5.2-10.8-9.5-15c-3.6-3.5-7.8-7.5-10.8-14.5c-0.4-0.8-8.6-20,0.1-34.8
				c7.7-13.1,24.8-16.2,38.5-18.7c7.9-1.5,13.3-1.4,17.7-1.4c5.6,0,9.6,0,15.6-3.1c6.7-3.6,10.5-8.2,13.5-12
				c2.9-3.6,5.2-6.4,8.6-5.8c3.8,0.6,7.8,4.7,10.8,11.1c3.1,6.6,4.4,14.4,3.7,21.2c-0.4,3.5-1.1,5.1-1.7,6.4c-0.5,1.2-0.9,2-0.7,3.9
				c0.8,7.5,8.7,12.5,16.3,17.4c7.3,4.7,14.3,9.2,14,15.5c-0.1,1.7-0.6,3.5-0.9,4.2c-1,2.4-2.7,4.2-5.1,6.7c-3.4,3.5-8,8.4-14,18.3
				c-4.5,7.4-6.5,12.3-8.1,16.3c-1.9,4.7-3.3,8.1-7.8,12.7c-2.9,3-11.7,12.1-32.2,15.3C503.5,307,503.5,307,503.4,307z"/>
			<path d="M475.1,368.9c-0.3,0-0.6-0.2-0.7-0.5c-0.1-0.4,0.1-0.8,0.5-0.9c49.5-15.2,80.9-29.8,85.4-35.8c1.4-1.9,2.4-3.4,3.2-5
				c2.5-4.7,4.6-9.8,5.8-14.6c1.8-6.9,9.5-11.4,18.5-16.6c7.9-4.6,16.9-9.9,23.6-17.8c8.9-10.5,16.1-29.3,11.2-45.6
				c-3.5-11.7-13.1-20.5-27.6-33.9c-3.8-3.5-6.9-6.1-9.4-8.1c-5.5-4.5-8.5-7-10.5-12.6c-2.6-7.1-1-12.4,0.7-18.1
				c1.3-4.3,2.6-8.7,2.4-14.5c-0.3-12.8-9.1-31-28-42.9c-22.2-13.9-47.4-7.6-74.1-0.9c-17.3,4.4-27.8,7-38.7,15.6
				c-5.9,4.6-10.1,9.2-14.6,14.1c-5.5,6-11.8,12.8-22.5,21.1c-10.5,8.2-17.6,10.7-23.9,12.8c-5.9,2-10.5,3.6-16.1,9.3
				c-6.3,6.3-10.5,14.4-12.7,24.6c-0.1,0.4-0.5,0.7-0.9,0.6c-0.4-0.1-0.7-0.5-0.6-0.9c2.3-10.5,6.6-18.8,13.1-25.3
				c5.9-5.9,10.9-7.7,16.7-9.7c6.2-2.1,13.2-4.6,23.5-12.6c10.6-8.3,16.8-15,22.3-21c4.5-4.9,8.8-9.5,14.7-14.2
				c11.2-8.8,21.7-11.5,39.3-15.9c27-6.8,52.5-13.2,75.3,1c14,8.8,28.3,25.8,28.7,44.1c0.1,6-1.3,10.8-2.5,15
				c-1.7,5.6-3.1,10.5-0.7,17.2c1.9,5.2,4.6,7.4,10.1,11.9c2.5,2.1,5.6,4.6,9.5,8.2c14.7,13.5,24.4,22.4,28.1,34.5
				c5.1,16.9-2.4,36.2-11.5,47c-6.9,8.1-15.9,13.4-24,18.1c-8.7,5.1-16.1,9.4-17.8,15.7c-1.3,5-3.4,10.1-6,15
				c-0.9,1.6-1.9,3.2-3.3,5.2c-5.5,7.4-41.7,22.7-86.1,36.3C475.3,368.9,475.2,368.9,475.1,368.9z"/>
			<path d="M479.4,478.2c-13,0-27.8-2-43.2-8.1c-7.5-3-14.7-6.7-21.4-11.2c-0.3-0.2-0.4-0.7-0.2-1c0.2-0.3,0.7-0.4,1-0.2
				c6.7,4.4,13.8,8.2,21.1,11.1c37.3,14.8,71.6,5.1,82.8,1.9c5.2-1.5,51.3-15.4,75.9-52.2c8.6-12.8,13-22.8,13.1-22.9
				c3.7-7.9,6.1-14.7,8.2-20.7c2.8-8.1,5.2-15.1,9.9-21.9c3.5-5.1,7.6-8.8,10.3-11.3c0.6-0.6,1.1-1,1.6-1.5
				c14.9-14.3,26.5-19.7,35.8-24.1c7.5-3.5,13.4-6.3,18.1-12.5c6.5-8.5,5-15.9,2.3-29.2c-2.1-10.3-4.9-24.4-4.8-45
				c0-22.5,2.8-35.8,5.1-46.4c2.5-12,4.2-19.9,0.1-32.9c-4.7-15.1-12.2-21-27.1-32.6c-8.5-6.6-19-14.8-32.6-27.6
				c-25.5-23.9-41.1-44.1-52.4-58.9c-14.8-19.4-23-30-38-29.3c-9,0.4-14.3,4.1-22.5,9.7c-8.5,5.8-20.2,13.8-41.9,21.3
				c-26.4,9.1-42,7.6-55.8,6.3c-12.1-1.2-22.5-2.2-37.4,4.4c-18.4,8.1-25,21.2-33.2,37.9c-8.6,17.4-19.4,39.1-48.1,61.7
				c-8.9,7-15.4,10.9-20.6,14c-7.7,4.6-12.3,7.3-17.8,15.8c-21.5,32.9-6.7,78.4,1.3,102.9c1.4,4.3,2.7,7.6,3.1,8.9l0.1,0.1
				c6.9,18,16.2,35,27.8,50.3c0.2,0.3,0.2,0.8-0.1,1.1c-0.3,0.2-0.8,0.2-1.1-0.1c-11.6-15.5-21.1-32.5-28-50.7l-0.1-0.1
				c-0.5-1.3-1.7-4.6-3.2-8.9c-8-24.7-22.9-70.7-1.1-104.2c5.7-8.8,10.7-11.8,18.3-16.3c5.2-3.1,11.6-6.9,20.5-13.9
				c28.4-22.5,39.1-43.9,47.7-61.2c8.4-16.9,15.1-30.3,34-38.6c15.3-6.7,25.9-5.7,38.2-4.5c13.6,1.3,29.1,2.8,55.2-6.2
				c21.5-7.5,33.1-15.4,41.6-21.1c8.1-5.5,13.9-9.5,23.3-9.9c15.8-0.8,24.1,10.1,39.3,29.9c11.3,14.8,26.8,35,52.3,58.8
				c13.6,12.7,24.1,20.9,32.5,27.5c14.7,11.5,22.8,17.8,27.6,33.4c4.2,13.4,2.4,21.9-0.1,33.7c-2.2,10.6-5,23.8-5,46.1
				c0,20.5,2.8,34.5,4.8,44.7c2.6,13.3,4.2,21.3-2.6,30.4c-4.9,6.5-11,9.3-18.7,12.9c-9.2,4.3-20.7,9.7-35.4,23.8
				c-0.5,0.4-1,0.9-1.6,1.5c-2.6,2.4-6.7,6.1-10,11c-4.5,6.7-6.9,13.6-9.7,21.6c-2.1,6.1-4.5,12.9-8.2,20.9
				c0,0.1-4.6,10.2-13.2,23.2c-24.8,37.3-71.5,51.3-76.7,52.8C513.3,474,498.3,478.2,479.4,478.2z"/>
			<path d="M438.7,344.9c-0.1,0-0.3,0-0.4-0.1c-5.9-3.7-12.1-6-19.4-7c-9.3-1.3-14.9,0.2-18.9,1.3c-0.4,0.1-0.8-0.1-0.9-0.5
				c-0.1-0.4,0.1-0.8,0.5-0.9c4.2-1.1,9.9-2.6,19.5-1.3c7.6,1.1,14,3.4,20,7.2c0.3,0.2,0.5,0.7,0.2,1
				C439.2,344.8,439,344.9,438.7,344.9z"/>
		</g>
		<g id="hand">
			<path d="M500.6,289.7c-0.2,0-0.5-0.1-0.6-0.3c-0.2-0.3-0.2-0.8,0.2-1c2.4-1.7,4.5-3.7,6.2-6c1.3-1.7,2.1-2.9,2.5-4.7
				c0.7-2.9-0.1-5.7-0.9-7.5c-0.2-0.4,0-0.8,0.4-1c0.4-0.2,0.8,0,1,0.4c0.9,2,1.8,5.1,1,8.4c-0.5,2.2-1.6,3.6-2.8,5.2
				c-1.8,2.5-4,4.6-6.6,6.4C500.9,289.7,500.8,289.7,500.6,289.7z"/>
			<path d="M503.9,297.1c-0.2,0-0.4-0.1-0.5-0.2c-0.3-0.3-0.3-0.8,0-1.1c0.8-0.7,1.5-1.6,2.1-2.4c0.9-1.2,2.2-3.1,2.7-5.8
				c0.5-2.7,0-5-0.6-6.5c-0.1-0.4,0.1-0.8,0.5-1c0.4-0.1,0.8,0.1,1,0.5c0.6,1.7,1.2,4.3,0.6,7.3c-0.6,3-2,5-3,6.4
				c-0.7,1-1.4,1.8-2.3,2.7C504.3,297,504.1,297.1,503.9,297.1z"/>
			<path d="M491.2,318.2c-0.2,0-0.4-0.1-0.6-0.3c-0.3-0.3-0.2-0.8,0.1-1.1c4.3-3.6,8.4-7.3,12.2-11.2c2.7-2.8,4.7-5,5.1-8.2
				c0.2-1.7,0-3.5-0.7-5.3c-0.1-0.4,0-0.8,0.4-1c0.4-0.1,0.8,0,1,0.4c0.8,2,1,4,0.8,6c-0.5,3.7-2.6,6.1-5.5,9.1
				c-3.8,3.9-8,7.7-12.3,11.3C491.5,318.2,491.3,318.2,491.2,318.2z"/>
			<path d="M496.1,282.6c-0.2,0-0.4-0.1-0.5-0.2c-0.3-0.3-0.3-0.8,0-1.1c4.3-4.4,8.6-8.8,12.8-13.2c0.9-1,1.9-2,2.8-2.9l0.2-0.2
				c0,0,0.1-0.1,0.1-0.1c3.9-4.1,5.4-7.1,4.7-8.9c-0.2-0.6-0.7-0.9-0.9-1.1c-0.9-0.6-2.5-0.1-4.8,1.5c-0.9,0.6-1.9,1.3-3.1,2.3
				c-1.4,1.1-2.8,2.4-4.4,3.7c-1.1,0.9-2.2,1.9-3.4,2.9c-5,4.2-10.4,8.3-16.1,12.2c-0.3,0.2-0.8,0.2-1-0.2c-0.2-0.3-0.2-0.8,0.2-1
				c5.6-3.9,11-8,16-12.2c1.2-1,2.3-1.9,3.4-2.9c1.6-1.3,3.1-2.6,4.4-3.7c1.2-1,2.3-1.8,3.2-2.4c2-1.3,4.5-2.7,6.4-1.5
				c0.4,0.3,1.1,0.8,1.5,1.8c1.3,3.2-2.2,7.5-4.9,10.4c0,0-0.1,0.1-0.1,0.1l-0.2,0.2c-0.9,1-1.8,2-2.8,3c-4.2,4.4-8.5,8.9-12.8,13.3
				C496.5,282.6,496.3,282.6,496.1,282.6z"/>
			<path d="M468.8,290.2c-0.1,0-0.2,0-0.3-0.1c-0.4-0.2-0.5-0.6-0.4-1c1.5-3.2,3.1-6.4,5-9.3c4.3-6.7,8.7-13.7,16.6-17.1
				c1.3-0.6,3.3-1.2,7.3-2.6c3.2-1.1,6.4-2,9.6-2.9c0.4-0.1,0.8,0.1,0.9,0.5c0.1,0.4-0.1,0.8-0.5,0.9c-3.1,0.9-6.3,1.9-9.4,2.9
				c-4,1.3-6,2-7.2,2.5c-7.5,3.3-11.8,10.1-16,16.6c-1.8,2.9-3.5,5.9-4.9,9.1C469.3,290,469,290.2,468.8,290.2z"/>
			<path d="M469.1,288.7c8.5,8.6,17.1,17.1,25.6,25.7c-1.2,1-2.3,2.1-3.5,3.1c-7.5-9.4-14.9-18.7-22.4-28.1
				C468.9,289.2,469,289,469.1,288.7z"/>
		</g>
		<g id="match">
			<path d="M509.9,255.8c-1,0.6-2,1.4-3.1,2.3l0-0.2l-2.7-13.4c0.5,0,1.1-0.1,1.7-0.2c0.6-0.1,1.2-0.3,1.7-0.5
				C508.4,247.8,509.2,251.8,509.9,255.8z"/>
			<path d="M514.2,277l-3.4,0.7l-1.8-9c1-1,2-2.1,3-3.1L514.2,277z"/>
			<path d="M504.9,245.5c-0.2,0-0.4-0.1-0.5-0.2c-2-2-2.8-4.3-2-5.7c0.1-0.2,0.8-1.2,1.9-1.4c0.9-0.1,1.6,0.3,1.9,0.5
				c1.3,0.9,1.9,3.1,1.4,5.7c-0.1,0.4-0.5,0.7-0.9,0.6c-0.4-0.1-0.7-0.5-0.6-0.9c0.4-2,0.1-3.6-0.7-4.2c-0.1-0.1-0.5-0.3-0.9-0.3
				c-0.5,0.1-0.8,0.6-0.9,0.6c-0.4,0.7,0.2,2.3,1.8,3.9c0.3,0.3,0.3,0.8,0,1.1C505.3,245.4,505.1,245.5,504.9,245.5z"/>
		</g>
		<g id="legs">
			<path d="M266,804.8C266,804.8,266,804.8,266,804.8l-64.6-7.2c-0.2,0-0.4-0.1-0.5-0.3c-0.1-0.2-0.2-0.4-0.1-0.6l87.1-293.5
				c0.1-0.4,0.5-0.6,0.9-0.5c0.4,0.1,0.6,0.5,0.5,0.9l-86.8,292.6l63.1,7c20.6-57.7,41.5-116.3,62.2-174c15.4-43,31-86.6,46.5-129.5
				c0.1-0.4,0.6-0.6,1-0.5c0.4,0.1,0.6,0.6,0.5,1c-15.4,42.9-31.1,86.5-46.5,129.5c-20.7,57.9-41.7,116.7-62.4,174.6
				C266.6,804.6,266.3,804.8,266,804.8z"/>
			<path d="M224.7,799.1c-0.1,0-0.2,0-0.2,0c-0.4-0.1-0.6-0.6-0.5-1l101.3-295.9c0.1-0.4,0.6-0.6,1-0.5c0.4,0.1,0.6,0.6,0.5,1
				L225.4,798.6C225.3,798.9,225,799.1,224.7,799.1z"/>
			<path d="M525.8,848.9c-0.5-5.9-2.1-13.8-8-19.7c-7.4-7.4-16.9-6.8-36.4-10c-8-1.3-19.2-3.5-32.6-7.4c-0.9-2.9-1.8-5.8-2.8-8.8
				c6.1-0.7,11.1-1.2,13.5-1.4C445,700.3,430.4,599,415.9,497.7c-13.7,0.7-27.3,1.5-41,2.2l-30,81.3c18.2,76,36.4,152.1,54.6,228.1
				c1.4-0.3,3.5-0.6,5.9-1c3.1,13.3,6.1,26.6,9.2,39.9C451.7,848.4,488.8,848.6,525.8,848.9z"/>
			<path d="M313.7,538.7c-0.4,0-0.8-0.3-0.8-0.8s0.3-0.8,0.8-0.8c4.4,0,19.6-1,30.6-13.5c7.4-8.4,9.2-17.9,9.6-22.9
				c0-0.4,0.4-0.7,0.8-0.7c0.4,0,0.7,0.4,0.7,0.8c-0.5,5.1-2.4,15-10,23.7C334.1,537.7,318.3,538.7,313.7,538.7z"/>
		</g>
		<g id="flame">
			<path d="M505.1,248.6c-3.8,0-7.2-3-8.7-5c-4.5-6-3.1-16.5,3.6-26.6c0.2-0.3,0.7-0.4,1-0.2c9.5,6.2,14.6,15,13,22.3
				c-0.7,3.1-3,8.5-7.6,9.4l0,0C506,248.6,505.6,248.6,505.1,248.6z M506.3,247.8L506.3,247.8L506.3,247.8z M500.9,218.4
				c-6,9.4-7.3,18.9-3.2,24.2c1.5,1.9,4.9,5.1,8.5,4.3l0,0c3.9-0.8,5.9-5.7,6.5-8.3C514,232.2,509.4,224.3,500.9,218.4z"/>
			<path d="M505.3,248.6c-2.6,0-4.9-2.1-5.9-3.4c-3-4-2.1-11,2.3-17.7c0.2-0.3,0.7-0.4,1-0.2c6.3,4.1,9.7,10,8.6,14.9
				c-0.4,2.1-2,5.7-5.2,6.4h0C505.9,248.6,505.6,248.6,505.3,248.6z M502.6,229c-3.8,6-4.6,12-2,15.4c0.9,1.1,3.1,3.2,5.3,2.7
				c0,0,0,0,0,0c2.4-0.5,3.7-3.6,4-5.2C510.8,237.7,508,232.7,502.6,229z"/>
		</g>
		<g id="head">
			<path id="hair" d="M338.4,217.6c0.4,4.8,0.8,9.5,1.2,14.3c-0.2,0.4-4.1,2.4-4.6,2.3c-0.3-0.9-1-2.5-2.6-4
				c-0.5-0.5-2.7-2.4-6.1-2.7c0,0-3.4-0.3-6.7,1.9c-0.2,0.1-0.3,0.2-0.5,0.3c-0.8,0.6-1.3,1.1-1.5,1.2c-0.4,0.4-4.9,5.5-2.8,11.7
				c1.2,3.6,4.1,5.9,6.7,6.9c0.7,0.3,1.3,0.4,1.7,0.5c0.7,2.8,1.7,6.8,2.3,9.6c0.8,3.2,1.6,6.4,2.3,9.6h-5.6
				c-0.1-3.6-0.2-7.2-0.3-10.8c-3.2-2.7-9.9-9.2-11.9-19.4c-3.2-15.8,5.5-36.2,22.9-40.6c10-2.5,19.3,1.1,26.5,6.7
				C351.7,209.8,338.4,217.6,338.4,217.6z"/>
			<path d="M325.5,251.8c-1,0-2.1-0.1-3.1-0.3c-0.4-0.1-0.7-0.5-0.6-0.9c0.1-0.4,0.5-0.7,0.9-0.6c1.3,0.3,2.7,0.4,4,0.2
				c0.9-0.1,1.8-0.3,2.7-0.6c0.4-0.1,0.8,0.1,1,0.5c0.1,0.4-0.1,0.8-0.5,1c-1,0.3-2,0.6-3,0.7C326.4,251.7,326,251.8,325.5,251.8z"
				/>
			<g id="face">
				<path d="M359.9,286.9c-0.4,0-0.7-0.3-0.7-0.6c0-0.3-0.1-0.7-0.1-1.1l0-0.1c-0.5-3.8-1.5-12.2-2.1-18.4c-0.3-2.4-0.5-4.5-0.6-5.8
					c0-0.4,0.3-0.8,0.7-0.8c1.2-0.1,2.4-0.3,3.5-0.6c4.1-1,7.6-2.9,10.1-5.4c9.2-9.6,4.6-27.1-0.5-35.9c-2.7-4.6-6.5-9-10.9-12.4
					c-4-3.2-8.2-5.3-12.6-6.5c-4.4-1.2-8.9-1.2-13.2-0.1c-17.1,4.4-25.4,24.4-22.3,39.7c1.8,9,7.4,15.3,11.7,19
					c0.2,0.1,0.3,0.3,0.3,0.6c0.1,2.2,0.2,8.6,0.3,10.8c0.1,2.9,0.2,8.7,0.3,12.4l0,1.3c0,0.4-0.3,0.8-0.7,0.8
					c-0.4,0-0.8-0.3-0.8-0.7l0-1.3c-0.1-3.6-0.2-9.4-0.3-12.4c0-2.1-0.2-8-0.3-10.5c-4.5-3.9-10-10.3-11.9-19.6
					c-3.3-16,5.5-36.9,23.4-41.5c4.6-1.2,9.3-1.1,14,0.1c4.5,1.2,8.9,3.4,13.1,6.7c4.5,3.5,8.5,8,11.3,12.8
					c5.3,9.2,10.1,27.5,0.3,37.7c-2.7,2.8-6.4,4.8-10.8,5.9c-1,0.2-1.9,0.4-2.9,0.5c0.1,1.3,0.3,3.1,0.5,5
					c0.7,6.2,1.6,14.6,2.1,18.4l0,0.2c0.1,0.4,0.1,0.8,0.1,1c0.1,0.4-0.2,0.8-0.6,0.9C360,286.9,359.9,286.9,359.9,286.9z"/>
				<path d="M360.6,260.1c-1.1,0.2-2.3,0.5-3.6,0.6c0.1,1.2,0.3,3.3,0.6,5.8c-3.6-1.1-8.5-3.1-13.1-7.2c-2.4-2.2-4.2-4.4-5.5-6.4
					c2.2,2,7.9,6.6,15.9,7c2.2,0.1,4.1-0.2,5.8-0.5C360.7,259.6,360.7,259.9,360.6,260.1z"/>
			</g>
		</g>
		<g id="shoe">
			<path d="M199.7,848.5c-0.2,0-0.5-0.1-0.6-0.3c-0.1-0.2-0.2-0.4-0.1-0.7l4.1-15.1c3.1-11.5,6.3-23,9.4-34.6
				c0.1-0.4,0.5-0.6,0.9-0.5c0.4,0.1,0.6,0.5,0.5,0.9c-3.1,11.5-6.3,23-9.4,34.6l-3.8,14.1l113.7-0.7c0.7-5.5-0.2-9.9-2.6-13.2
				c-3.9-5.4-10.9-6.3-22.5-7.7c-2.9-0.4-6.1-0.8-9.6-1.3c-10.5-1.5-20.6-3.6-30.9-6.3c-0.2-0.1-0.4-0.2-0.5-0.3
				c-0.1-0.2-0.1-0.4-0.1-0.6l3.9-14.5c0.1-0.4,0.5-0.6,0.9-0.5c0.4,0.1,0.6,0.5,0.5,0.9l-3.7,13.8c10,2.6,19.9,4.6,30,6.1
				c3.5,0.5,6.8,0.9,9.6,1.3c12,1.5,19.2,2.4,23.5,8.3c2.7,3.8,3.6,8.8,2.7,15c-0.1,0.4-0.4,0.6-0.7,0.6L199.7,848.5
				C199.7,848.5,199.7,848.5,199.7,848.5z"/>
			<path d="M314.7,838.1C314.7,838.1,314.7,838.1,314.7,838.1c-30.4-0.1-85.3-0.2-112.1-0.1l0-1.5h0c26.8-0.1,81.7,0,112.1,0.1
				c0.4,0,0.7,0.3,0.7,0.8S315.1,838.1,314.7,838.1z"/>
			<path d="M212.3,801.6c12.9,2.5,25.9,5,38.8,7.4c0.6-2.1,1.2-4.3,1.9-6.4c-13.3-1.4-26.5-2.8-39.8-4.1
				C212.9,799.5,212.6,800.5,212.3,801.6z"/>
		</g>
		<g id="tshirt">
			<path class="st1" d="M475.1,368.1c-1.1,2.5-2.2,4.9-3.2,7.1c-27.2,59.5-39.2,64.6-46.5,64.7c-5.8,0.1-10.6-3-13.8-5.6
				c3.2,20.9,6.3,41.9,9.5,62.8c-1.6,0.1-3.3,0.2-4.9,0.3l-4.9,0.3c-12.9,0.7-25.7,1.5-38.6,2.2c-15.9,0.9-31.9,1.8-47.8,2.7
				c-12.3,0.7-24.5,1.3-36.8,2c-2.2,0.1-4.4,0.2-6.5,0.4c4.7-43.1,8.1-76.7,10-96.2c7-71.3,7.8-111.8,31.2-127.2
				c0.4-0.3,0.8-0.5,1.2-0.8c2.9-1.8,9-5.2,16.9-5c2.8,0.1,5.4,0.6,8,1.7c3.6,1.5,7,3.9,10.8,7.5c8.2,7.9,17.8,21.2,32.1,41.9
				c2.7,4,5.4,7.8,7.9,11.5c9.3,13.6,17.4,25.6,23.9,35.3c5-9.8,10-19.6,15.1-29.5"/>
			<path class="st1" d="M438.7,344.2c3.2-6.2,6.3-12.3,9.5-18.5c6.5-12.6,13-25.1,19.5-37.5c4.9,6.2,9.8,12.4,14.8,18.7
				c3.9,4.8,7.7,9.6,11.5,14.3c-6.8,18.6-13.4,34.5-19,47"/>
			<path d="M333.5,360.3c8.8,12.3,18.7,25.1,29.9,38.2c17.3,20.2,34.5,37.6,50.7,52.3c-0.7-5.7-1.4-11.4-2.1-17
				c-12.1-9.2-24.9-19.8-38-31.9C358.4,387.6,345,373.5,333.5,360.3z"/>
		</g>
	</g>
</g>
</svg>
