<?xml version="1.0" encoding="UTF-8" standalone="no"?>
<!DOCTYPE svg PUBLIC "-//W3C//DTD SVG 1.1//EN" "http://www.w3.org/Graphics/SVG/1.1/DTD/svg11.dtd">
<svg width="100%" height="100%" viewBox="0 0 1020 1249" version="1.1" xmlns="http://www.w3.org/2000/svg" xmlns:xlink="http://www.w3.org/1999/xlink" xml:space="preserve" xmlns:serif="http://www.serif.com/" style="fill-rule:evenodd;clip-rule:evenodd;stroke-linecap:round;stroke-miterlimit:10;">
    <g transform="matrix(1,0,0,1,-542.171,-1054.61)">
        <g transform="matrix(4.16667,0,0,4.16667,1325.62,1301.81)">
            <path d="M0,220.905L-130.184,220.905C-136.784,220.905 -142.184,215.505 -142.184,208.905L-142.184,12C-142.184,5.4 -136.784,0 -130.184,0L0,0C6.6,0 12,5.4 12,12L12,208.905C12,215.505 6.6,220.905 0,220.905" style="fill:rgb(113,139,198);fill-rule:nonzero;"/>
        </g>
        <g transform="matrix(4.16667,0,0,4.16667,777.065,1934.37)">
            <path d="M0,2.607C-0.406,2.424 -0.813,2.242 -1.226,2.065L-1.121,0C-0.757,0.907 -0.382,1.774 0,2.607Z" style="fill:rgb(253,253,253);fill-rule:nonzero;stroke:rgb(113,139,198);stroke-width:1px;"/>
        </g>
        <g transform="matrix(4.16667,0,0,4.16667,1314.22,1469.04)">
            <path d="M0,180.498L-124.999,180.498C-129.705,180.498 -133.327,176.029 -133.05,170.602L-132.853,166.784C-125.08,170.163 -117.17,171.521 -110,170.095C-99.769,168.057 -94.607,159.046 -94.077,149.818C-93.948,147.581 -87.912,142.741 -100.847,131.75C-106.668,126.808 -115.766,120.147 -128.911,114.286L-128.917,114.286C-129.299,113.453 -129.674,112.586 -130.038,111.679L-128.048,72.728L-128.048,72.723L-125.116,15.368C-125.092,14.935 -125.036,14.513 -124.944,14.102C-124.913,14.084 -124.888,14.067 -124.857,14.05C-122.985,12.977 -121.076,11.978 -119.123,11.037C-116.825,9.93 -114.324,8.788 -111.503,7.682C-101.13,3.601 -86.47,0 -61.912,0.57C-39.404,1.09 -23.555,3.932 -11.956,7.682L-0.758,12.121C-0.247,13.108 0.062,14.21 0.117,15.368L2.895,69.721L5.272,116.198C-23.259,128.548 -36.74,138.651 -35.132,150.967C-34.584,155.19 -30.582,161.548 -26.147,164.544C-15.078,172.014 -3.375,168.291 6.19,164.564C6.702,164.364 7.207,164.165 7.712,163.96L8.051,170.602C8.328,176.029 4.706,180.498 0,180.498" style="fill:rgb(251,236,163);fill-rule:nonzero;"/>
        </g>
        <g transform="matrix(2.52459,-3.31475,-3.31475,-2.52459,814.267,1778.54)">
            <path d="M-3.644,7.356C5.328,8.931 12.646,7.753 14.849,7.356" style="fill:none;fill-rule:nonzero;stroke:rgb(253,253,253);stroke-width:1px;"/>
        </g>
        <g transform="matrix(4.16667,0,0,4.16667,1326.28,2221.11)">
            <path d="M0,-110.777L2.377,-64.299C-26.154,-51.95 -39.635,-41.846 -38.027,-29.531C-37.479,-25.307 -33.477,-18.95 -29.042,-15.954C-17.973,-8.484 -6.271,-12.207 3.295,-15.933C3.807,-16.133 4.312,-16.333 4.817,-16.538L5.156,-9.895C5.433,-4.468 1.811,0 -2.895,0L-127.894,0C-132.6,0 -136.222,-4.468 -135.945,-9.895L-135.748,-13.714C-127.975,-10.335 -120.065,-8.976 -112.895,-10.403C-102.664,-12.441 -97.502,-21.452 -96.972,-30.679C-96.843,-32.917 -90.807,-37.756 -103.742,-48.748C-109.563,-53.69 -118.661,-60.35 -131.806,-66.212L-131.812,-66.212C-132.194,-67.045 -132.569,-67.912 -132.933,-68.819L-130.943,-107.769L-130.943,-107.775" style="fill:none;fill-rule:nonzero;stroke:rgb(253,253,253);stroke-width:1px;"/>
        </g>
        <g transform="matrix(4.16667,0,0,4.16667,793.62,1464.34)">
            <path d="M0,15.221C0.031,15.202 0.056,15.184 0.086,15.165C1.959,14.008 3.868,12.93 5.821,11.913C8.119,10.718 10.62,9.487 13.44,8.291C23.813,3.887 38.474,0 63.032,0.617C85.54,1.177 101.389,4.244 112.988,8.291L124.186,13.083" style="fill:none;fill-rule:nonzero;stroke:rgb(253,253,253);stroke-width:1px;"/>
        </g>
        <g transform="matrix(-4.16667,0,0,4.16667,2103.67,790.042)">
            <rect x="135.146" y="343.352" width="234.59" height="14.868" style="fill:rgb(253,253,253);stroke:rgb(113,139,198);stroke-width:1px;"/>
        </g>
        <g transform="matrix(4.16667,0,0,4.16667,1086.52,2167.81)">
            <path d="M0,13.531C-1.126,13.825 -2.316,13.435 -3.129,12.622C-3.5,12.251 -3.795,11.787 -3.962,11.261L-6.405,-0.232L-6.473,-0.294L-4.495,0.544L1.889,10.651C1.971,10.76 2.058,10.859 2.15,10.952C2.045,12.163 1.232,13.208 0,13.531" style="fill:rgb(253,253,253);fill-rule:nonzero;"/>
        </g>
        <g transform="matrix(4.16667,0,0,4.16667,1086.52,2167.81)">
            <path d="M0,13.531C-1.126,13.825 -2.316,13.435 -3.129,12.622C-3.5,12.251 -3.795,11.787 -3.962,11.261L-6.405,-0.232L-6.473,-0.294L-4.495,0.544L1.889,10.651C1.971,10.76 2.058,10.859 2.15,10.952C2.045,12.163 1.232,13.208 0,13.531Z" style="fill:none;fill-rule:nonzero;stroke:rgb(113,139,198);stroke-width:1px;"/>
        </g>
        <g transform="matrix(4.16667,0,0,4.16667,1001.2,2125.18)">
            <path d="M0,0.248L-0.182,0.161C-0.098,0.101 -0.01,0.049 0.081,0C0.058,0.083 0.032,0.169 0,0.248Z" style="fill:rgb(253,253,253);fill-rule:nonzero;stroke:rgb(113,139,198);stroke-width:1px;"/>
        </g>
        <g transform="matrix(4.16667,0,0,4.16667,1001.2,2125.18)">
            <path d="M0,0.248L-0.182,0.161C-0.098,0.101 -0.01,0.049 0.081,0C0.058,0.083 0.032,0.169 0,0.248Z" style="fill:rgb(253,253,253);fill-rule:nonzero;stroke:rgb(113,139,198);stroke-width:1px;"/>
        </g>
        <g transform="matrix(4.16667,0,0,4.16667,931.954,2182.59)">
            <path d="M0,-1.871L11.15,5.564C12.747,6.629 14.84,6.248 15.802,4.718C16.763,3.189 16.243,1.066 14.646,0L3.496,-7.434C1.899,-8.5 -0.194,-8.119 -1.156,-6.589C-2.117,-5.059 -1.597,-2.936 0,-1.871Z" style="fill:rgb(253,253,253);fill-rule:nonzero;stroke:rgb(113,139,198);stroke-width:1px;"/>
        </g>
        <g transform="matrix(4.16667,0,0,4.16667,1100.8,2126.99)">
            <path d="M0,21.35C-1.228,22.272 -3.012,22.07 -4.142,20.939C-4.181,20.901 -4.216,20.865 -4.25,20.82C-3.046,19.78 -2.902,17.908 -3.956,16.551L-11.452,5.649L-14.173,4.375L-16.179,3.432L-23.905,-0.187C-23.874,-0.266 -23.847,-0.352 -23.824,-0.435C-23.003,-0.874 -21.967,-0.922 -21.015,-0.474L-17.29,1.273L-17.251,1.288L-7.053,6.066L0.441,16.97C1.536,18.374 1.337,20.348 0,21.35" style="fill:rgb(253,253,253);fill-rule:nonzero;"/>
        </g>
        <g transform="matrix(4.16667,0,0,4.16667,1100.8,2126.99)">
            <path d="M0,21.35C-1.228,22.272 -3.012,22.07 -4.142,20.939C-4.181,20.901 -4.216,20.865 -4.25,20.82C-3.046,19.78 -2.902,17.908 -3.956,16.551L-11.452,5.649L-14.173,4.375L-16.179,3.432L-23.905,-0.187C-23.874,-0.266 -23.847,-0.352 -23.824,-0.435C-23.003,-0.874 -21.967,-0.922 -21.015,-0.474L-17.29,1.273L-17.251,1.288L-7.053,6.066L0.441,16.97C1.536,18.374 1.337,20.348 0,21.35Z" style="fill:none;fill-rule:nonzero;stroke:rgb(113,139,198);stroke-width:1px;"/>
        </g>
        <g transform="matrix(4.16667,0,0,4.16667,1001.2,2125.18)">
            <path d="M0,0.248L-0.182,0.161C-0.098,0.101 -0.01,0.049 0.081,0C0.058,0.083 0.032,0.169 0,0.248Z" style="fill:rgb(253,253,253);fill-rule:nonzero;stroke:rgb(113,139,198);stroke-width:1px;"/>
        </g>
        <g transform="matrix(4.16667,0,0,4.16667,1024.5,2149.54)">
            <path d="M0,3.365C-0.274,3.567 -0.572,3.733 -0.88,3.862C-2.662,4.62 -4.887,4.214 -6.417,2.681L-10.35,-1.255C-10.093,-1.009 -9.794,-0.806 -9.463,-0.647L-2.389,2.351L0,3.365Z" style="fill:rgb(253,253,253);fill-rule:nonzero;stroke:rgb(113,139,198);stroke-width:1px;"/>
        </g>
        <g transform="matrix(4.16667,0,0,4.16667,1001.2,2125.18)">
            <path d="M0,0.248L-0.182,0.161C-0.098,0.101 -0.01,0.049 0.081,0C0.058,0.083 0.032,0.169 0,0.248Z" style="fill:rgb(253,253,253);fill-rule:nonzero;stroke:rgb(113,139,198);stroke-width:1px;"/>
        </g>
        <g transform="matrix(4.16667,0,0,4.16667,985.907,2095.03)">
            <path d="M0,18.698L-5.072,16.594C-7.015,18.552 -10.056,19.283 -12.948,18.201L-16.274,16.955C-20.296,15.457 -22.569,11.011 -21.33,7.084L-20.502,4.452C-19.267,0.52 -14.962,-1.464 -10.945,0.039L-7.615,1.28C-7.278,1.409 -6.949,1.554 -6.633,1.722C-6.271,1.807 -5.911,1.923 -5.551,2.074L4.476,6.245C5.388,6.626 6.189,7.176 6.85,7.837C8.752,9.74 9.538,12.593 8.626,15.132C7.397,18.555 3.517,20.162 0,18.698Z" style="fill:rgb(253,253,253);fill-rule:nonzero;stroke:rgb(113,139,198);stroke-width:1px;"/>
        </g>
        <g transform="matrix(4.16667,0,0,4.16667,1083.1,2125.91)">
            <path d="M0,21.079C-0.045,21.118 -0.096,21.157 -0.146,21.196C-1.374,22.117 -3.155,21.913 -4.285,20.782L-4.306,20.762C-4.399,20.669 -4.486,20.57 -4.567,20.461L-10.951,10.353L-12.93,9.515L-14.064,9.034L-16.453,8.02L-23.527,5.022C-23.858,4.863 -24.157,4.66 -24.414,4.414C-24.426,4.408 -24.435,4.399 -24.441,4.388L-24.569,4.259C-25.429,3.337 -25.742,1.981 -25.257,0.821C-25.106,0.468 -24.9,0.159 -24.645,-0.095C-24.631,-0.108 -24.617,-0.123 -24.6,-0.134C-24.317,-0.41 -23.977,-0.619 -23.608,-0.754C-22.857,-1.038 -21.978,-1.02 -21.162,-0.634L-19.837,-0.015L-19.655,0.072L-11.929,3.691L-9.923,4.635L-7.202,5.908L0.294,16.81C1.348,18.167 1.204,20.039 0,21.079" style="fill:rgb(253,253,253);fill-rule:nonzero;"/>
        </g>
        <g transform="matrix(4.16667,0,0,4.16667,1001.2,2218.07)">
            <path d="M0,-22.045L7.727,-18.426L9.732,-17.483L12.454,-16.209L19.95,-5.307C21.003,-3.95 20.859,-2.078 19.655,-1.038C19.61,-0.999 19.56,-0.96 19.509,-0.921C18.281,0 16.5,-0.204 15.37,-1.335L15.349,-1.356C15.256,-1.448 15.169,-1.547 15.088,-1.656L8.705,-11.764L6.726,-12.603L5.591,-13.083L3.202,-14.097" style="fill:none;fill-rule:nonzero;stroke:rgb(253,253,253);stroke-width:1px;"/>
        </g>
        <g transform="matrix(-4.16667,0,0,4.16667,2102.75,745.312)">
            <rect x="215.7" y="352.018" width="73.26" height="8.271" style="fill:rgb(113,139,198);"/>
        </g>
        <g transform="matrix(4.16667,0,0,4.16667,1114.6,2217.26)">
            <path d="M0,-11.838L0,0L-30.346,0L-30.346,-11.838C-30.346,-11.094 -23.55,-10.493 -15.173,-10.493C-6.796,-10.493 0,-11.094 0,-11.838" style="fill:rgb(241,142,135);fill-rule:nonzero;"/>
        </g>
        <g transform="matrix(0,-4.16667,-4.16667,0,1051.39,2104.7)">
            <path d="M-15.176,-15.171C-15.919,-15.171 -16.52,-8.375 -16.52,0.002C-16.52,8.38 -15.919,15.176 -15.176,15.176C-14.431,15.176 -13.826,8.38 -13.826,0.002C-13.826,-8.375 -14.431,-15.171 -15.176,-15.171" style="fill:rgb(241,142,135);fill-rule:nonzero;"/>
        </g>
        <g transform="matrix(4.16667,0,0,4.16667,1114.6,2173.54)">
            <path d="M0,-1.345C0,-0.601 -6.796,0 -15.173,0C-23.55,0 -30.346,-0.601 -30.346,-1.345" style="fill:rgb(245,159,160);fill-rule:nonzero;stroke:rgb(113,139,198);stroke-width:1px;"/>
        </g>
        <g transform="matrix(2.09145,3.60374,3.60374,-2.09145,1326.08,1699.14)">
            <path d="M-4.165,-7.233C-0.255,-6.783 5.606,-6.417 12.561,-7.234" style="fill:none;fill-rule:nonzero;stroke:rgb(253,253,253);stroke-width:1px;"/>
        </g>
        <g transform="matrix(4.16667,0,0,4.16667,1120.3,2113.78)">
            <path d="M0,0.253L0.19,0.257C0.141,0.165 0.086,0.08 0.027,-0.004C0.014,0.08 0.003,0.168 0,0.253Z" style="fill:rgb(253,253,253);fill-rule:nonzero;stroke:rgb(113,139,198);stroke-width:1px;"/>
        </g>
        <g transform="matrix(4.16667,0,0,4.16667,1120.3,2113.78)">
            <path d="M0,0.253L0.19,0.257C0.141,0.165 0.086,0.08 0.027,-0.004C0.014,0.08 0.003,0.168 0,0.253Z" style="fill:rgb(253,253,253);fill-rule:nonzero;stroke:rgb(113,139,198);stroke-width:1px;"/>
        </g>
        <g transform="matrix(4.16667,0,0,4.16667,1157.44,2194.12)">
            <path d="M0,-7.765L-10.236,-6.144L-9.829,0.232L0.844,-1.27C2.63,-1.502 3.902,-3.154 3.67,-4.94C3.438,-6.726 1.786,-7.997 0,-7.765" style="fill:rgb(253,253,253);fill-rule:nonzero;"/>
        </g>
        <g transform="matrix(4.12539,-0.585011,-0.585011,-4.12539,1119.97,2198.81)">
            <path d="M-0.51,0.991L10.074,0.991C11.876,0.971 13.366,2.427 13.388,4.228C13.409,6.029 11.952,7.52 10.151,7.54L0.926,7.445" style="fill:none;fill-rule:nonzero;stroke:rgb(253,253,253);stroke-width:1px;"/>
        </g>
        <g transform="matrix(4.16667,0,0,4.16667,999.827,2114.88)">
            <path d="M0,8.429C0.697,9.794 2.31,10.412 3.72,9.913C3.768,9.896 3.813,9.88 3.859,9.856C3.229,8.395 3.832,6.67 5.264,5.937L15.941,-0.39L18.775,-0.305L20.866,-0.248L28.913,-0.01C28.916,-0.095 28.927,-0.183 28.94,-0.267C28.404,-1.022 27.532,-1.528 26.541,-1.555L22.66,-1.668L22.621,-1.671L11.999,-1.983L1.322,4.347C-0.165,5.105 -0.761,6.944 0,8.429" style="fill:rgb(253,253,253);fill-rule:nonzero;"/>
        </g>
        <g transform="matrix(4.16667,0,0,4.16667,999.827,2114.88)">
            <path d="M0,8.429C0.697,9.794 2.31,10.412 3.72,9.913C3.768,9.896 3.813,9.88 3.859,9.856C3.229,8.395 3.832,6.67 5.264,5.937L15.941,-0.39L18.775,-0.305L20.866,-0.248L28.913,-0.01C28.916,-0.095 28.927,-0.183 28.94,-0.267C28.404,-1.022 27.532,-1.528 26.541,-1.555L22.66,-1.668L22.621,-1.671L11.999,-1.983L1.322,4.347C-0.165,5.105 -0.761,6.944 0,8.429Z" style="fill:none;fill-rule:nonzero;stroke:rgb(113,139,198);stroke-width:1px;"/>
        </g>
        <g transform="matrix(4.16667,0,0,4.16667,1120.3,2113.78)">
            <path d="M0,0.253L0.19,0.257C0.141,0.165 0.086,0.08 0.027,-0.004C0.014,0.08 0.003,0.168 0,0.253Z" style="fill:rgb(253,253,253);fill-rule:nonzero;stroke:rgb(113,139,198);stroke-width:1px;"/>
        </g>
        <g transform="matrix(4.16667,0,0,4.16667,1120.3,2113.78)">
            <path d="M0,0.253L0.19,0.257C0.141,0.165 0.086,0.08 0.027,-0.004C0.014,0.08 0.003,0.168 0,0.253Z" style="fill:rgb(253,253,253);fill-rule:nonzero;stroke:rgb(113,139,198);stroke-width:1px;"/>
        </g>
        <g transform="matrix(4.16667,0,0,4.16667,1115.3,2134.22)">
            <path d="M0,6.933L5.178,7.329C6.087,9.935 8.417,11.939 11.324,12.27L14.666,12.649C18.705,13.114 22.386,10.184 22.846,6.147L23.156,3.443C23.622,-0.596 20.692,-4.277 16.655,-4.737L13.311,-5.122C12.971,-5.158 12.631,-5.175 12.294,-5.167C11.95,-5.255 11.596,-5.312 11.228,-5.338L0.989,-6.113C0.057,-6.181 -0.845,-6.051 -1.669,-5.759C-4.044,-4.92 -5.828,-2.74 -6.03,-0.081C-6.303,3.505 -3.592,6.662 0,6.933Z" style="fill:rgb(253,253,253);fill-rule:nonzero;stroke:rgb(113,139,198);stroke-width:1px;"/>
        </g>
        <g transform="matrix(4.16667,0,0,4.16667,1015.91,2122.2)">
            <path d="M0,8.099C0.023,8.154 0.052,8.21 0.081,8.267C0.778,9.633 2.389,10.246 3.799,9.747L3.825,9.738C3.94,9.698 4.054,9.649 4.167,9.588L13.579,3.469L15.605,3.609L16.767,3.689L19.215,3.855L26.46,4.352C26.807,4.359 27.143,4.312 27.458,4.208C27.471,4.207 27.482,4.203 27.492,4.196L27.652,4.139C28.749,3.704 29.545,2.643 29.578,1.397C29.586,1.016 29.528,0.65 29.408,0.311C29.402,0.292 29.395,0.274 29.385,0.256C29.249,-0.116 29.038,-0.452 28.773,-0.737C28.238,-1.324 27.475,-1.7 26.624,-1.722L25.245,-1.763L25.054,-1.767L17.007,-2.005L14.916,-2.062L12.083,-2.147L1.405,4.18C-0.027,4.913 -0.63,6.638 0,8.099" style="fill:rgb(253,253,253);fill-rule:nonzero;"/>
        </g>
        <g transform="matrix(4.16667,0,0,4.16667,1120.3,2163.31)">
            <path d="M0,-11.634L-8.047,-11.871L-10.138,-11.929L-12.972,-12.014L-23.649,-5.687C-25.082,-4.953 -25.685,-3.229 -25.054,-1.768C-25.031,-1.713 -25.002,-1.656 -24.974,-1.6C-24.276,-0.234 -22.666,0.38 -21.255,-0.119L-21.229,-0.129C-21.114,-0.169 -21,-0.218 -20.888,-0.279L-11.475,-6.398L-9.449,-6.258L-8.287,-6.178L-5.839,-6.012" style="fill:none;fill-rule:nonzero;stroke:rgb(253,253,253);stroke-width:1px;"/>
        </g>
        <g transform="matrix(4.16667,0,0,4.16667,856.958,1488.82)">
            <path d="M0,175.26L-14.203,175.26L-14.203,7.102C-14.203,3.197 -11.007,0 -7.101,0C-3.195,0 0,3.197 0,7.102L0,175.26Z" style="fill:rgb(113,139,198);fill-rule:nonzero;"/>
        </g>
        <g transform="matrix(4.16667,0,0,4.16667,1303.4,1488.82)">
            <path d="M0,175.26L-14.203,175.26L-14.203,7.102C-14.203,3.197 -11.007,0 -7.102,0C-3.196,0 0,3.197 0,7.102L0,175.26Z" style="fill:rgb(113,139,198);fill-rule:nonzero;"/>
        </g>
        <g transform="matrix(-3.90721,-1.44734,-1.44734,3.90721,718.889,1911.72)">
            <path d="M-14.549,2.608C-9.901,2.352 -4.893,2.326 0.468,2.608" style="fill:rgb(253,253,253);fill-rule:nonzero;stroke:rgb(113,139,198);stroke-width:1px;"/>
        </g>
        <g transform="matrix(4.16667,0,0,4.16667,870.569,1540.21)">
            <path d="M0,-29.827C0,-29.827 -14.6,-30.694 -15.087,-17.484C-15.542,-5.971 0,0.848 0,0.848L0.368,2.396C0.427,3.193 0.31,4.261 -0.072,4.807C-1.068,6.234 -5.056,5.793 -7.573,5.087C-7.573,5.087 -13.058,2.773 -17.655,-2.606C-27.754,-14.421 -21.326,-34.011 -3.646,-36.061L0,-29.827Z" style="fill:rgb(66,99,174);fill-rule:nonzero;"/>
        </g>
        <g transform="matrix(-3.88655,1.50194,1.50194,3.88655,1346.31,1964.94)">
            <path d="M-18.941,-3.533C-12.097,-3.767 -5.544,-3.76 0.659,-3.532" style="fill:rgb(253,253,253);fill-rule:nonzero;stroke:rgb(113,139,198);stroke-width:1px;"/>
        </g>
        <g transform="matrix(-3.8055,1.69685,1.69685,3.8055,1336.49,1953.61)">
            <path d="M-0.561,-0.119C-0.366,-0.12 -0.173,-0.125 0.025,-0.12" style="fill:rgb(253,253,253);fill-rule:nonzero;stroke:rgb(113,139,198);stroke-width:1px;"/>
        </g>
        <g transform="matrix(0,-4.16667,-4.16667,0,1061.95,1054.6)">
            <path d="M-58.317,-58.317C-90.524,-58.317 -116.634,-32.208 -116.634,0C-116.634,32.207 -90.524,58.317 -58.317,58.317C-26.109,58.317 -0.001,32.207 -0.001,0C-0.001,-32.208 -26.109,-58.317 -58.317,-58.317" style="fill:rgb(66,99,174);fill-rule:nonzero;"/>
        </g>
        <g transform="matrix(4.16667,0,0,4.16667,1237.94,1460.1)">
            <path d="M0,22.771C-5.279,26.334 -11.058,28.29 -34.753,29.46C-34.753,29.46 -56.945,30.556 -77.722,26.988C-77.722,26.988 -87.157,25.367 -92.463,19.684C-94.36,17.652 -95.076,15.366 -95.076,15.366C-95.384,14.375 -95.55,13.323 -95.55,12.231L-95.55,2.755C-95.55,-3.066 -90.831,-7.785 -85.009,-7.785L0,-7.785C5.821,-7.785 10.54,-3.066 10.54,2.755L10.54,7.319C10.54,10.889 9.197,14.328 6.771,16.949C4.977,18.886 2.743,20.919 0,22.771" style="fill:rgb(66,99,174);fill-rule:nonzero;"/>
        </g>
        <g transform="matrix(0,-4.16667,-4.16667,0,1070.24,1087.38)">
            <path d="M-50.348,-46.367C-77.17,-46.367 -82.416,-18.223 -82.416,4.898C-82.416,28.019 -75.578,50.348 -50.348,50.348C-30.439,50.348 -14.299,39.807 -14.299,1.99C-14.299,-40.154 -30.439,-46.367 -50.348,-46.367" style="fill:rgb(113,139,198);fill-rule:nonzero;"/>
        </g>
        <g transform="matrix(4.16667,0,0,4.16667,1263.44,1540.58)">
            <path d="M0,-25.711C-10.48,-10.198 -28.228,0 -48.357,0C-68.487,0 -86.235,-10.198 -96.715,-25.711" style="fill:none;fill-rule:nonzero;stroke:rgb(253,253,253);stroke-width:1px;"/>
        </g>
        <g transform="matrix(4.16667,0,0,4.16667,852.696,1139.65)">
            <path d="M0,23.843C-4.065,23.843 -7.392,20.517 -7.392,16.451L-7.392,7.392C-7.392,3.326 -4.065,0 0,0C4.065,0 7.392,3.326 7.392,7.392L7.392,16.451C7.392,20.517 4.065,23.843 0,23.843" style="fill:rgb(113,139,198);fill-rule:nonzero;"/>
        </g>
        <g transform="matrix(4.16667,0,0,4.16667,1184.8,1679.27)">
            <path d="M0,49.515L-65.214,49.515C-71.814,49.515 -77.214,44.115 -77.214,37.515L-77.214,12C-77.214,5.401 -71.814,0 -65.214,0L0,0C6.6,0 12,5.401 12,12L12,37.515C12,44.115 6.6,49.515 0,49.515" style="fill:rgb(253,253,253);fill-rule:nonzero;"/>
        </g>
        <g transform="matrix(4.16667,0,0,4.16667,1205.44,1739.64)">
            <path d="M0,6.427L-8.555,6.427C-10.322,6.427 -11.768,4.981 -11.768,3.213C-11.768,1.446 -10.322,0 -8.555,0L0,0C1.768,0 3.214,1.446 3.214,3.213C3.214,4.981 1.768,6.427 0,6.427" style="fill:rgb(214,221,240);fill-rule:nonzero;"/>
        </g>
        <g transform="matrix(-3.46246,-2.31786,-2.31786,3.46246,839.822,1179.18)">
            <path d="M-1.859,-6.119C-3.704,-6.12 -5.201,-4.623 -5.201,-2.777C-5.201,-0.932 -3.704,0.564 -1.859,0.565C-0.014,0.564 1.483,-0.931 1.483,-2.777C1.482,-4.622 -0.014,-6.118 -1.859,-6.119" style="fill:rgb(118,202,188);fill-rule:nonzero;"/>
        </g>
        <g transform="matrix(0,-4.16667,-4.16667,0,852.698,1195.92)">
            <path d="M-3.773,-3.772C-5.104,-3.772 -6.182,-2.083 -6.182,0C-6.182,2.084 -5.104,3.773 -3.773,3.773C-2.442,3.773 -1.363,2.084 -1.363,0C-1.363,-2.083 -2.442,-3.772 -3.773,-3.772" style="fill:rgb(118,202,188);fill-rule:nonzero;"/>
        </g>
        <g transform="matrix(4.16667,0,0,4.16667,1205.44,1792.92)">
            <path d="M0,6.428L-8.555,6.428C-10.322,6.428 -11.768,4.982 -11.768,3.214C-11.768,1.447 -10.322,0 -8.555,0L0,0C1.768,0 3.214,1.447 3.214,3.214C3.214,4.982 1.768,6.428 0,6.428" style="fill:rgb(214,221,240);fill-rule:nonzero;"/>
        </g>
        <g transform="matrix(4.16667,0,0,4.16667,1081.61,1714.88)">
            <path d="M0,20.378L-12.523,20.378C-18.127,20.378 -22.712,15.793 -22.712,10.189C-22.712,4.585 -18.127,0 -12.523,0L0,0C5.604,0 10.189,4.585 10.189,10.189C10.189,15.793 5.604,20.378 0,20.378" style="fill:rgb(156,215,210);fill-rule:nonzero;"/>
        </g>
        <g transform="matrix(4.16667,0,0,4.16667,917.295,1679.27)">
            <path d="M0,49.515L-1.013,49.515C-7.613,49.515 -13.013,44.115 -13.013,37.515L-13.013,12C-13.013,5.401 -7.613,0 -1.013,0L0,0C6.6,0 12,5.401 12,12L12,37.515C12,44.115 6.6,49.515 0,49.515Z" style="fill:none;fill-rule:nonzero;stroke:rgb(118,202,188);stroke-width:1px;"/>
        </g>
        <g transform="matrix(4.16667,0,0,4.16667,915.981,1720.94)">
            <path d="M0,3.806L-0.302,3.806C-1.348,3.806 -2.205,2.95 -2.205,1.903C-2.205,0.856 -1.348,0 -0.302,0L0,0C1.047,0 1.903,0.856 1.903,1.903C1.903,2.95 1.047,3.806 0,3.806" style="fill:rgb(214,221,240);fill-rule:nonzero;"/>
        </g>
        <g transform="matrix(4.16667,0,0,4.16667,915.981,1766.12)">
            <path d="M0,3.806L-0.302,3.806C-1.348,3.806 -2.205,2.95 -2.205,1.904C-2.205,0.857 -1.348,0 -0.302,0L0,0C1.047,0 1.903,0.857 1.903,1.904C1.903,2.95 1.047,3.806 0,3.806" style="fill:rgb(214,221,240);fill-rule:nonzero;"/>
        </g>
        <g transform="matrix(4.16667,0,0,4.16667,915.981,1806.55)">
            <path d="M0,3.806L-0.302,3.806C-1.348,3.806 -2.205,2.95 -2.205,1.903C-2.205,0.856 -1.348,0 -0.302,0L0,0C1.047,0 1.903,0.856 1.903,1.903C1.903,2.95 1.047,3.806 0,3.806" style="fill:rgb(214,221,240);fill-rule:nonzero;"/>
        </g>
        <g transform="matrix(4.16667,0,0,4.16667,1112.19,1814.48)">
            <path d="M0,1.903L-27.328,1.903C-27.852,1.903 -28.28,1.474 -28.28,0.951C-28.28,0.428 -27.852,0 -27.328,0L0,0C0.523,0 0.951,0.428 0.951,0.951C0.951,1.474 0.523,1.903 0,1.903" style="fill:rgb(241,142,135);fill-rule:nonzero;"/>
        </g>
        <g transform="matrix(0,4.16667,4.16667,0,1251.3,1782.43)">
            <path d="M-24.758,-24.758L24.758,-24.758" style="fill:none;fill-rule:nonzero;stroke:rgb(118,202,188);stroke-width:1px;"/>
        </g>
        <g transform="matrix(4.16667,0,0,4.16667,922.233,1618.22)">
            <path d="M0,114.014C-2.904,122.855 -5.692,132.252 -15.924,134.29C-23.094,135.717 -31.003,134.359 -38.776,130.98C-56.214,123.402 -72.975,105.659 -79.19,86.364C-91.577,47.905 -66.84,-1.118 -30.867,-21.703C-30.959,-21.292 -31.015,-20.87 -31.04,-20.436L-33.972,36.918L-33.972,36.924C-36.897,42.591 -39.245,49.713 -39.324,58.097C-39.386,64.968 -37.914,70.96 -35.961,75.874C-35.961,75.874 -35.247,78.299 -34.84,78.482L-34.834,78.482C-21.689,84.343 -12.591,91.003 -6.771,95.946C6.165,106.937 0,114.014 0,114.014" style="fill:rgb(251,236,163);fill-rule:nonzero;"/>
        </g>
        <g transform="matrix(4.16667,0,0,4.16667,780.684,1939.43)">
            <path d="M0,-40.166C-2.926,-34.499 -5.273,-27.377 -5.353,-18.993C-5.415,-12.122 -3.942,-6.13 -1.99,-1.216C-1.99,-1.216 -1.275,1.209 -0.869,1.392L-0.862,1.392C12.283,7.253 21.38,13.913 27.201,18.855C40.137,29.847 33.972,36.924 33.972,36.924C31.067,45.765 28.279,55.162 18.048,57.2C10.878,58.627 2.969,57.269 -4.805,53.89C-22.243,46.312 -39.003,28.568 -45.219,9.273C-57.605,-29.186 -32.868,-78.208 3.104,-98.793" style="fill:none;fill-rule:nonzero;stroke:rgb(253,253,253);stroke-width:1px;"/>
        </g>
        <g transform="matrix(0,4.16667,4.16667,0,780.697,1772.06)">
            <path d="M-0.003,-0.003L0.003,-0.003" style="fill:none;fill-rule:nonzero;stroke:rgb(253,253,253);stroke-width:1px;"/>
        </g>
        <g transform="matrix(-2.2287,-3.52051,-3.52051,2.2287,803.699,1943.6)">
            <path d="M-10.181,5.605C-7.866,5.911 -2.987,6.394 3.085,5.605" style="fill:none;fill-rule:nonzero;stroke:rgb(253,253,253);stroke-width:1px;"/>
        </g>
        <g transform="matrix(4.16667,0,0,4.16667,1422.42,1591.19)">
            <path d="M0,125.5C-5.734,129.101 -11.907,132.085 -18.257,134.643C-18.762,134.848 -19.268,135.047 -19.779,135.247C-29.345,138.974 -41.047,142.696 -52.116,135.227C-56.551,132.23 -60.553,125.873 -61.102,121.649C-62.709,109.334 -49.229,99.23 -20.697,86.881L-20.629,88.193C-20.469,87.686 -20.309,87.172 -20.161,86.642L-20.155,86.642C-17.968,79.091 -16.428,69.104 -18.128,57.633C-19.101,51.053 -20.955,45.289 -23.074,40.403L-25.853,-13.949C-25.908,-15.107 -26.216,-16.209 -26.727,-17.196C-24.596,-16.181 -22.667,-15.136 -20.894,-14.086C-8.476,-6.741 -1.103,4.992 5.71,16.726C25.976,51.658 42.964,98.563 0,125.5" style="fill:rgb(251,236,163);fill-rule:nonzero;"/>
        </g>
        <g transform="matrix(4.16667,0,0,4.16667,1311.06,2185.76)">
            <path d="M0,-159.893C2.131,-158.877 4.06,-157.832 5.833,-156.783C18.251,-149.438 25.625,-137.705 32.438,-125.971C52.703,-91.039 69.691,-44.133 26.727,-17.197C20.993,-13.596 14.82,-10.612 8.47,-8.054C7.965,-7.849 7.459,-7.65 6.948,-7.45C-2.618,-3.723 -14.32,0 -25.389,-7.47C-29.824,-10.466 -33.826,-16.824 -34.375,-21.047C-35.982,-33.363 -22.501,-43.466 6.03,-55.816L6.098,-54.503C6.258,-55.011 6.418,-55.525 6.566,-56.055L6.572,-56.055C8.759,-63.606 10.299,-73.593 8.599,-85.064C7.626,-91.644 5.772,-97.408 3.653,-102.293" style="fill:none;fill-rule:nonzero;stroke:rgb(253,253,253);stroke-width:1px;"/>
        </g>
        <g transform="matrix(-1.56284,3.86247,3.86247,1.56284,1344.52,1996.73)">
            <path d="M-7.734,-5.214C-2.974,-4.836 0.931,-5.009 3.515,-5.214" style="fill:none;fill-rule:nonzero;stroke:rgb(253,253,253);stroke-width:1px;"/>
        </g>
        <g transform="matrix(4.16667,0,0,4.16667,908.628,2155.19)">
            <path d="M0,-22.922L-8.049,-4.347C-9.339,-1.368 -7.766,2.046 -4.551,3.242C-1.336,4.437 2.349,2.979 3.64,0.001L11.688,-18.573C12.979,-21.552 11.405,-24.967 8.19,-26.162C4.976,-27.359 1.291,-25.9 0,-22.922" style="fill:rgb(113,139,198);fill-rule:nonzero;"/>
        </g>
        <g transform="matrix(4.16667,0,0,4.16667,1244.6,2104.17)">
            <path d="M0,10.782L-11.455,-6.189C-13.291,-8.909 -17.197,-9.743 -20.133,-8.041C-23.07,-6.34 -23.971,-2.722 -22.134,-0.001L-10.679,16.969C-8.843,19.691 -4.937,20.525 -2,18.823C0.937,17.122 1.836,13.504 0,10.782" style="fill:rgb(113,139,198);fill-rule:nonzero;"/>
        </g>
        <g transform="matrix(0.30533,4.15546,4.15546,-0.30533,1258.81,1271.83)">
            <path d="M-4.301,-4.858C-1.143,-4.416 2.054,-4.395 5.211,-4.858" style="fill:none;fill-rule:nonzero;stroke:rgb(253,253,253);stroke-width:1px;"/>
        </g>
        <g transform="matrix(3.82043,1.66296,1.66296,-3.82043,1124.88,1150.38)">
            <path d="M-1.171,-5.94C7.599,-1.747 20.23,-0.054 28.665,-5.94" style="fill:none;fill-rule:nonzero;stroke:rgb(253,253,253);stroke-width:1px;"/>
        </g>
        <g transform="matrix(4.16667,0,0,4.16667,833.508,1596.8)">
            <path d="M0,19.794L-2.946,19.794C-6.547,19.794 -9.494,16.848 -9.494,13.247L-9.494,6.548C-9.494,2.946 -6.547,0 -2.946,0L0,0C3.601,0 6.547,2.946 6.547,6.548L6.547,13.247C6.547,16.848 3.601,19.794 0,19.794Z" style="fill:none;fill-rule:nonzero;stroke:rgb(66,99,174);stroke-width:1px;"/>
        </g>
        <g transform="matrix(4.16667,0,0,4.16667,1279.95,1603.82)">
            <path d="M0,19.794L-2.946,19.794C-6.547,19.794 -9.494,16.848 -9.494,13.246L-9.494,6.548C-9.494,2.946 -6.547,0 -2.946,0L0,0C3.601,0 6.547,2.946 6.547,6.548L6.547,13.246C6.547,16.848 3.601,19.794 0,19.794Z" style="fill:none;fill-rule:nonzero;stroke:rgb(66,99,174);stroke-width:1px;"/>
        </g>
    </g>
</svg>
