<?xml version="1.0" encoding="UTF-8" standalone="no"?>
<!DOCTYPE svg PUBLIC "-//W3C//DTD SVG 1.1//EN" "http://www.w3.org/Graphics/SVG/1.1/DTD/svg11.dtd">
<svg width="100%" height="100%" viewBox="0 0 834 1696" version="1.1" xmlns="http://www.w3.org/2000/svg" xmlns:xlink="http://www.w3.org/1999/xlink" xml:space="preserve" xmlns:serif="http://www.serif.com/" style="fill-rule:evenodd;clip-rule:evenodd;stroke-linecap:round;stroke-miterlimit:10;">
    <g transform="matrix(1,0,0,1,-5326.31,-4916.91)">
        <g transform="matrix(4.16667,0,0,4.16667,4714.06,4177.42)">
            <g transform="matrix(0.995854,0.0909667,0.0909667,-0.995854,240.275,578.869)">
                <path d="M8.063,0.285C2.603,10.814 -3.791,26.845 -3.671,46.426C-3.487,76.486 11.846,82.102 8.063,107.401C5.685,123.297 -2.869,134.016 -4.539,158.944C-5.012,166.031 -4.624,170.182 -4.446,177.078" style="fill:none;fill-rule:nonzero;stroke:rgb(113,139,198);stroke-width:1px;"/>
            </g>
        </g>
        <g transform="matrix(4.16667,0,0,4.16667,4714.06,4177.42)">
            <g transform="matrix(1,0,0,1,256.407,417.654)">
                <path d="M0,-16.055L6.67,-4.717C8.112,-2.268 3.902,0 0.067,-1.161L-2.454,-1.924C-3.937,-2.373 -5.699,-2.322 -7.104,-1.786C-10.741,-0.403 -15.299,-2.419 -14.243,-4.945L-9.691,-16.055L0,-16.055Z" style="fill:rgb(241,142,135);fill-rule:nonzero;"/>
            </g>
        </g>
        <g transform="matrix(4.16667,0,0,4.16667,4714.06,4177.42)">
            <g transform="matrix(1,0,0,1,321.164,301.361)">
                <path d="M0,-4.459C-3.828,36.67 -31.361,91.837 -70.033,91.837C-101.301,92.323 -135.666,60.237 -138.576,26.979C-139.359,17.585 -137.679,15.556 -137.679,15.556C-137.679,15.556 -138.957,14.963 -140.58,13.51C-143.033,11.313 -144.731,8.394 -145.548,5.204C-150.185,-12.917 -147.762,-35.076 -140.521,-51.662C-133.991,-66.62 -116.558,-96.782 -69.461,-94.543C-22.364,-92.304 3.828,-45.588 0,-4.459" style="fill:rgb(241,142,135);fill-rule:nonzero;"/>
            </g>
        </g>
        <g transform="matrix(4.16667,0,0,4.16667,4714.06,4177.42)">
            <g transform="matrix(-0.328758,-0.944414,-0.944414,0.328758,187.584,341.651)">
                <path d="M-24.459,17.384C-12.327,19.765 0.222,19.78 12.356,17.384" style="fill:none;fill-rule:nonzero;stroke:rgb(113,139,198);stroke-width:1px;"/>
            </g>
        </g>
        <g transform="matrix(4.16667,0,0,4.16667,4714.06,4177.42)">
            <g transform="matrix(-0.817473,0.575966,0.575966,0.817473,279.143,409.702)">
                <path d="M-34.745,-11.011C-22.342,-7.375 -8.914,-7.394 3.489,-11.011" style="fill:none;fill-rule:nonzero;stroke:rgb(113,139,198);stroke-width:1px;"/>
            </g>
        </g>
        <g transform="matrix(4.16667,0,0,4.16667,4714.06,4177.42)">
            <g transform="matrix(-0.00789899,0.999969,0.999969,0.00789899,366.485,286.09)">
                <path d="M-23.848,-27.23C-7.101,-23.528 10.259,-24.05 27.044,-27.23" style="fill:none;fill-rule:nonzero;stroke:rgb(113,139,198);stroke-width:1px;"/>
            </g>
        </g>
        <g transform="matrix(4.16667,0,0,4.16667,4714.06,4177.42)">
            <g transform="matrix(1,0,0,1,164.656,180.565)">
                <path d="M0,56.143C6.127,42.105 15.058,29.229 27.195,19.735C46.201,4.87 71.417,0 95.074,2.61C108.493,4.089 121.439,8.738 132.674,16.233" style="fill:none;fill-rule:nonzero;stroke:rgb(113,139,198);stroke-width:1px;"/>
            </g>
        </g>
        <g transform="matrix(4.16667,0,0,4.16667,4714.06,4177.42)">
            <g transform="matrix(1,0,0,1,151.643,313.388)">
                <path d="M0,12.772C-1.437,13.01 -2.667,12.826 -2.743,12.365C-2.828,11.904 -1.721,11.328 -0.277,11.089C1.16,10.851 2.39,11.036 2.467,11.497C2.543,11.965 1.437,12.534 0,12.772M-2.835,10.182C-4.081,10.436 -4.895,11.643 -4.665,12.895L-4.619,13.149C-4.365,14.509 -2.997,15.354 -1.667,14.97L59.094,-2.582L-2.835,10.182Z" style="fill:rgb(66,99,174);fill-rule:nonzero;"/>
            </g>
        </g>
        <g transform="matrix(4.16667,0,0,4.16667,4714.06,4177.42)">
            <g transform="matrix(1,0,0,1,260.679,395.597)">
                <path d="M0,0.101L0,0.116C0,1.207 -0.761,2.129 -1.783,2.375C-2.067,1.807 -2.567,1.361 -3.212,1.176L-13.909,-1.913C-15.139,-2.274 -16.43,-1.559 -16.783,-0.33C-16.806,-0.238 -16.829,-0.145 -16.845,-0.053C-16.722,-1.213 -15.738,-2.121 -14.555,-2.128L-2.336,-2.212C-1.061,-2.22 -0.008,-1.182 0,0.101" style="fill:rgb(242,110,94);fill-rule:nonzero;"/>
            </g>
        </g>
        <g transform="matrix(4.16667,0,0,4.16667,4714.06,4177.42)">
            <g transform="matrix(1,0,0,1,258.704,399.14)">
                <path d="M0,1.214C-0.399,1.913 -1.145,2.382 -2.005,2.39L-11.942,2.459C-13.217,2.467 -14.27,1.43 -14.278,0.153L-14.278,0.139C-14.278,-0.384 -14.109,-0.86 -13.809,-1.253C-13.632,-1.144 -13.44,-1.053 -13.225,-0.991L-2.528,2.098C-1.567,2.374 -0.553,1.99 0,1.214" style="fill:rgb(242,110,94);fill-rule:nonzero;"/>
            </g>
        </g>
        <g transform="matrix(4.16667,0,0,4.16667,4714.06,4177.42)">
            <g transform="matrix(1,0,0,1,255.251,395.619)">
                <path d="M0,-2.15L3.093,-2.235C4.368,-2.243 5.421,-1.205 5.429,0.079L5.429,0.093" style="fill:none;fill-rule:nonzero;stroke:rgb(113,139,198);stroke-width:1px;"/>
            </g>
        </g>
        <g transform="matrix(4.16667,0,0,4.16667,4714.06,4177.42)">
            <g transform="matrix(1,0,0,1,246.762,397.895)">
                <path d="M0,3.704C-1.275,3.712 -2.328,2.675 -2.336,1.398L-2.336,1.384C-2.336,0.861 -2.167,0.385 -1.867,-0.008" style="fill:none;fill-rule:nonzero;stroke:rgb(113,139,198);stroke-width:1px;"/>
            </g>
        </g>
        <g transform="matrix(4.16667,0,0,4.16667,4714.06,4177.42)">
            <g transform="matrix(1,0,0,1,259.142,395.827)">
                <path d="M0,3.182C0,3.39 -0.031,3.605 -0.092,3.82C-0.161,4.058 -0.269,4.281 -0.407,4.481C-0.415,4.496 -0.422,4.512 -0.438,4.527C-0.991,5.303 -2.005,5.687 -2.966,5.411L-13.663,2.322C-13.878,2.26 -14.07,2.168 -14.247,2.06C-14.923,1.63 -15.338,0.884 -15.338,0.085C-15.338,-0.03 -15.331,-0.145 -15.308,-0.268L-15.308,-0.284C-15.292,-0.376 -15.269,-0.468 -15.246,-0.56C-14.893,-1.79 -13.602,-2.505 -12.372,-2.143L-1.675,0.946C-1.03,1.13 -0.53,1.577 -0.246,2.145C-0.084,2.459 0,2.813 0,3.182" style="fill:rgb(242,110,94);fill-rule:nonzero;"/>
            </g>
        </g>
        <g transform="matrix(4.16667,0,0,4.16667,4714.06,4177.42)">
            <g transform="matrix(1,0,0,1,246.77,397.972)">
                <path d="M0,-4.288L10.697,-1.199C11.342,-1.015 11.842,-0.568 12.126,0" style="fill:none;fill-rule:nonzero;stroke:rgb(113,139,198);stroke-width:1px;"/>
            </g>
        </g>
        <g transform="matrix(4.16667,0,0,4.16667,4714.06,4177.42)">
            <g transform="matrix(1,0,0,1,256.176,395.913)">
                <path d="M0,5.325L-10.697,2.236C-10.912,2.175 -11.104,2.083 -11.281,1.974C-11.957,1.545 -12.372,0.799 -12.372,0" style="fill:none;fill-rule:nonzero;stroke:rgb(113,139,198);stroke-width:1px;"/>
            </g>
        </g>
        <g transform="matrix(4.16667,0,0,4.16667,4714.06,4177.42)">
            <g transform="matrix(0.964541,0.263935,0.263935,-0.964541,187.624,299.188)">
                <path d="M-1.038,-3.413C5.664,-10.507 17.367,-9.93 24.225,-3.413" style="fill:none;fill-rule:nonzero;stroke:rgb(253,253,253);stroke-width:1px;"/>
            </g>
        </g>
        <g transform="matrix(4.16667,0,0,4.16667,4714.06,4177.42)">
            <g transform="matrix(1,0,0,1,207.81,334.964)">
                <path d="M0,-20.192C-4.529,-20.13 -8.647,-17.616 -10.644,-13.673C-12.885,-9.246 -12.075,-3.758 -8.585,0" style="fill:none;fill-rule:nonzero;stroke:rgb(253,253,253);stroke-width:1px;"/>
            </g>
        </g>
        <g transform="matrix(4.16667,0,0,4.16667,4714.06,4177.42)">
            <g transform="matrix(1,0,0,1,182.437,321.857)">
                <path d="M0,-8.186C2.404,-8.638 4.659,-7.401 5.344,-5.589C6.199,-3.332 4.613,-0.201 1.488,0.452" style="fill:none;fill-rule:nonzero;stroke:rgb(253,253,253);stroke-width:1px;"/>
            </g>
        </g>
        <g transform="matrix(4.16667,0,0,4.16667,4714.06,4177.42)">
            <g transform="matrix(-0.00982942,0.999952,0.999952,0.00982942,321.48,293.805)">
                <path d="M-8.365,-8.706C-2.714,-8.227 2.976,-8.191 8.625,-8.706" style="fill:none;fill-rule:nonzero;stroke:rgb(253,253,253);stroke-width:1px;"/>
            </g>
        </g>
        <g transform="matrix(4.16667,0,0,4.16667,4714.06,4177.42)">
            <g transform="matrix(1,0,0,1,262.305,264.805)">
                <path d="M0,-44.594C16.224,-39.759 30.55,-28.982 39.575,-14.646C42.461,-10.06 44.788,-5.125 46.542,0" style="fill:none;fill-rule:nonzero;stroke:rgb(253,253,253);stroke-width:1px;"/>
            </g>
        </g>
        <g transform="matrix(4.16667,0,0,4.16667,4714.06,4177.42)">
            <g transform="matrix(0.86631,0.499507,0.499507,-0.86631,218.784,368.743)">
                <path d="M-1.636,-6.111C6.392,-8.017 14.79,-7.836 22.833,-6.111" style="fill:none;fill-rule:nonzero;stroke:rgb(253,253,253);stroke-width:1px;"/>
            </g>
        </g>
        <g transform="matrix(4.16667,0,0,4.16667,4714.06,4177.42)">
            <g transform="matrix(0.387081,0.922046,0.922046,-0.387081,203.765,351.198)">
                <path d="M-2.346,-3.529C0.201,-3.695 2.76,-3.697 5.309,-3.529" style="fill:none;fill-rule:nonzero;stroke:rgb(253,253,253);stroke-width:1px;"/>
            </g>
        </g>
    </g>
</svg>
