<?xml version="1.0" encoding="UTF-8" standalone="no"?>
<!DOCTYPE svg PUBLIC "-//W3C//DTD SVG 1.1//EN" "http://www.w3.org/Graphics/SVG/1.1/DTD/svg11.dtd">
<svg width="100%" height="100%" viewBox="0 0 1291 1223" version="1.1" xmlns="http://www.w3.org/2000/svg" xmlns:xlink="http://www.w3.org/1999/xlink" xml:space="preserve" xmlns:serif="http://www.serif.com/" style="fill-rule:evenodd;clip-rule:evenodd;stroke-linecap:round;stroke-miterlimit:10;">
    <g transform="matrix(1,0,0,1,-12227.7,-1023.97)">
        <g transform="matrix(4.16667,0,0,4.16667,11785.1,0)">
            <g transform="matrix(1,0,0,1,140.95,512.134)">
                <path d="M0,-227.018L-34.73,-251.583C-34.73,-251.583 -30.495,-192.711 -32.189,-171.111C-33.884,-149.51 -32.189,-78.779 -30.071,-64.378C-27.954,-49.978 -22.448,24.565 -22.448,24.565L6.776,-12.283L0,-227.018Z" style="fill:rgb(156,215,210);fill-rule:nonzero;"/>
            </g>
        </g>
        <g transform="matrix(4.16667,0,0,4.16667,11785.1,0)">
            <g transform="matrix(1,0,0,1,128.579,285.116)">
                <path d="M0,-39.362L12.371,0L229.647,-3.812L261.413,-33.46C261.413,-33.46 225.412,-33.883 208.047,-33.46C190.682,-33.036 95.809,-37.695 83.103,-37.695C70.396,-37.695 0,-39.362 0,-39.362" style="fill:rgb(156,215,210);fill-rule:nonzero;"/>
            </g>
        </g>
        <g transform="matrix(4.16667,0,0,4.16667,11785.1,0)">
            <g transform="matrix(1,0,0,1,362.462,289.774)">
                <path d="M0,210.5C0,210.5 53.789,229.983 53.366,228.712C52.942,227.441 44.472,183.394 45.742,157.134C47.013,130.875 38.118,22.024 39.389,2.965C40.66,-16.094 39.813,-19.483 39.813,-19.483L-4.235,-8.471L-4.235,156.296C-4.235,164.482 -3.823,172.663 -3,180.807L0,210.5Z" style="fill:rgb(156,215,210);fill-rule:nonzero;"/>
            </g>
        </g>
        <g transform="matrix(4.16667,0,0,4.16667,11785.1,0)">
            <g transform="matrix(1,0,0,1,147.726,536.414)">
                <path d="M0,-36.563L-16.941,0.285C-16.941,0.285 9.741,-6.491 36.425,-4.374C63.466,-2.228 142.891,-4.784 172.805,-2.256C202.876,0.285 236.76,4.097 236.76,2.403C236.76,0.709 214.735,-36.139 214.735,-36.139C187.219,-38.134 158.354,-39.477 128.24,-39.948C82.739,-40.66 39.876,-39.294 0,-36.563" style="fill:rgb(156,215,210);fill-rule:nonzero;"/>
            </g>
        </g>
        <g transform="matrix(4.16667,0,0,4.16667,11785.1,0)">
            <g transform="matrix(1,0,0,1,140.95,492.694)">
                <path d="M0,-207.578C0,-207.578 38.809,-217.932 95.72,-216.473C163.541,-214.733 169.766,-211.896 201.605,-211.813C213.355,-211.783 217.276,-211.39 217.276,-211.39C217.276,-211.39 223.296,-167.96 220.664,-127.953C215.194,-44.783 221.512,7.581 221.512,7.581C221.512,7.581 206.785,7.898 159.251,5.886C131.827,4.726 108.915,5.894 75.813,7.581C21.393,10.354 6.776,7.157 6.776,7.157C6.776,7.157 2.138,-32.117 1.271,-95.764C0.278,-168.621 0,-207.578 0,-207.578" style="fill:rgb(118,202,188);fill-rule:nonzero;"/>
            </g>
        </g>
        <g transform="matrix(4.16667,0,0,4.16667,11785.1,0)">
            <g transform="matrix(1,0,0,1,350.927,316.69)">
                <path d="M0,150.71C-8.904,154.613 -19.933,157.757 -32.783,158.183C-46.153,158.624 -57.667,155.993 -66.759,152.626C-64.944,144.307 -63.391,135.272 -62.285,125.588C-60.29,107.99 -60.226,91.88 -61.136,77.765C-62.56,100.206 -65.479,118.903 -68.327,133.242C-69.541,139.349 -71.232,144.885 -73.422,149.865C-83.793,173.491 -105.31,184.483 -139.783,183.284C-178.602,181.939 -202.893,149.901 -206,95.768C-209.187,40.385 -192.631,-3.074 -155.012,-18.424C-117.394,-33.773 -99.572,-15.815 -95.688,14.227C-95.669,14.372 -95.65,14.518 -95.632,14.664C-91.96,43.731 -98.92,67.286 -103.813,80.013C-102.534,78.134 -107.06,82.952 -94.008,54.126C-84.323,32.736 -82.379,5.085 -65.571,-12.266C-53.714,-24.506 -35.21,-27.628 -19.259,-24.592C-3.308,-21.555 1.444,3.757 2.549,12.595C5.581,36.846 6.172,61.337 5.804,85.752C5.632,97.144 5.138,108.512 4.146,119.864C3.669,125.311 3.091,130.749 2.364,136.168C2.123,137.967 1.478,150.062 0,150.71" style="fill:rgb(66,99,174);fill-rule:nonzero;"/>
            </g>
        </g>
        <g transform="matrix(4.16667,0,0,4.16667,11785.1,0)">
            <g transform="matrix(-0.100182,-0.994969,-0.994969,0.100182,298.393,382.778)">
                <path d="M-10.757,9.728C-3.75,9.48 2.79,9.512 8.798,9.728" style="fill:none;fill-rule:nonzero;stroke:rgb(113,139,198);stroke-width:1px;"/>
            </g>
        </g>
        <g transform="matrix(4.16667,0,0,4.16667,11785.1,0)">
            <g transform="matrix(-0.378279,0.925691,0.925691,0.378279,255.57,398.796)">
                <path d="M-13.898,-9.335C-10.444,-10.069 2.717,-8.607 6.269,-9.335" style="fill:none;fill-rule:nonzero;stroke:rgb(113,139,198);stroke-width:1px;"/>
            </g>
        </g>
        <g transform="matrix(4.16667,0,0,4.16667,11785.1,0)">
            <g transform="matrix(1,0,0,1,304.172,499.312)">
                <path d="M0,-22.334L-3.461,0L55.5,0L29.604,-12.322L24.574,-22.334L0,-22.334Z" style="fill:rgb(113,139,198);fill-rule:nonzero;"/>
            </g>
        </g>
        <g transform="matrix(4.16667,0,0,4.16667,11785.1,0)">
            <g transform="matrix(1,0,0,1,250.03,338.643)">
                <path d="M0,-52.579C7.032,-56.347 20.934,-58.19 32.914,-53.822C38.869,-51.651 45.256,-47.205 47.757,-35.805C51.083,-20.641 32.923,3.457 28.778,5.052C27.327,5.611 24.518,-0.155 22.99,0.263C13.414,2.889 2.081,4.419 -6.858,-1.215C-13.484,-5.391 -17.76,-13.067 -18.762,-20.738C-20.455,-33.718 -11.022,-46.674 0,-52.579" style="fill:rgb(253,253,253);fill-rule:nonzero;"/>
            </g>
        </g>
        <g transform="matrix(4.16667,0,0,4.16667,11785.1,0)">
            <g transform="matrix(1,0,0,1,250.03,338.643)">
                <path d="M0,-52.579C7.032,-56.347 20.934,-58.19 32.914,-53.822C38.869,-51.651 45.256,-47.205 47.757,-35.805C51.083,-20.641 32.923,3.457 28.778,5.052C27.327,5.611 24.518,-0.155 22.99,0.263C13.414,2.889 2.081,4.419 -6.858,-1.215C-13.484,-5.391 -17.76,-13.067 -18.762,-20.738C-20.455,-33.718 -11.022,-46.674 0,-52.579Z" style="fill:none;fill-rule:nonzero;stroke:rgb(113,139,198);stroke-width:1px;"/>
            </g>
        </g>
        <g transform="matrix(4.16667,0,0,4.16667,11785.1,0)">
            <g transform="matrix(0.900125,-0.435632,-0.435632,-0.900125,262.304,300.905)">
                <path d="M-2.297,-2.855C-1.765,-2.568 2.935,-0.039 2.436,4.002C2.014,7.423 -1.823,9.415 -2.297,9.653C-7.927,12.479 -16.539,9.571 -17.267,4.531C-17.69,1.608 -15.309,-0.989 -14.926,-1.395" style="fill:none;fill-rule:nonzero;stroke:rgb(113,139,198);stroke-width:1px;"/>
            </g>
        </g>
        <g transform="matrix(4.16667,0,0,4.16667,11785.1,0)">
            <g transform="matrix(1,0,0,1,345.304,392.147)">
                <path d="M0,3.579C-0.889,4.225 -1.867,4.756 -2.607,5.186C-4.471,6.267 -6.393,7.248 -8.361,8.121C-9.009,8.409 -14.903,10.471 -13.979,11.389C-13.72,11.646 -13.301,11.623 -12.94,11.561C-10.859,11.205 -8.998,10.158 -7.209,9.087C-5.895,8.3 -4.765,7.282 -3.259,6.846C-2.889,6.738 -2.493,6.667 -2.118,6.755C-1.662,6.861 -1.293,7.186 -0.95,7.506C3.588,11.746 -8.123,16.538 -10.885,17.355C-16.826,19.111 -22.771,19.876 -28.589,19.173C-33.565,18.571 -38.599,17.477 -41.554,13.738C-47.046,6.788 -41.405,-1.971 -36.321,-7.256C-32.86,-10.854 -28.883,-14.095 -24.011,-15.517C-22.929,-15.833 -21.672,-15.947 -20.574,-15.655C-19.604,-15.397 -18.701,-14.769 -18.268,-13.862C-17.401,-12.048 -18.856,-10.565 -20.327,-9.726C-21.943,-8.803 -23.679,-8.254 -25.177,-7.098C-26.437,-6.126 -27.514,-4.887 -28.155,-3.432C-28.251,-3.215 -28.338,-2.977 -28.285,-2.747C-28.092,-1.909 -26.719,-2.656 -26.347,-2.895C-20.326,-6.771 -15.385,-12.027 -8.409,-14.725C-6.562,-15.44 -4.162,-16.297 -2.809,-14.436C-1.454,-12.575 -2.771,-11.581 -4.714,-10.561C-7.008,-9.359 -9.242,-8.043 -11.426,-6.65C-12.5,-5.964 -13.563,-5.26 -14.614,-4.54C-15.561,-3.892 -16.521,-3.304 -17.15,-2.315C-17.222,-2.204 -17.29,-2.083 -17.285,-1.95C-17.262,-1.232 -16.214,-1.908 -15.951,-2.098C-14.144,-3.405 -12.335,-4.713 -10.527,-6.02C-8.889,-7.205 -7.136,-8.11 -5.299,-8.972C-3.388,-9.868 -1.244,-10.773 0.853,-9.866C3.152,-8.871 1.49,-6.345 0.163,-5.313C-2.241,-3.444 -4.776,-1.746 -7.421,-0.237C-9.058,0.696 -10.737,1.558 -12.312,2.595C-12.618,2.797 -15.654,4.797 -14.714,5.378C-14.181,5.707 -12.555,4.411 -12.141,4.159L-9.015,2.259C-6.931,0.992 -4.846,-0.275 -2.762,-1.541C-1.082,-2.563 1.371,-3.23 2.162,-0.796C2.762,1.05 1.509,2.482 0,3.579" style="fill:rgb(253,253,253);fill-rule:nonzero;"/>
            </g>
        </g>
        <g transform="matrix(4.16667,0,0,4.16667,11785.1,0)">
            <g transform="matrix(1,0,0,1,345.304,392.147)">
                <path d="M0,3.579C-0.889,4.225 -1.867,4.756 -2.607,5.186C-4.471,6.267 -6.393,7.248 -8.361,8.121C-9.009,8.409 -14.903,10.471 -13.979,11.389C-13.72,11.646 -13.301,11.623 -12.94,11.561C-10.859,11.205 -8.998,10.158 -7.209,9.087C-5.895,8.3 -4.765,7.282 -3.259,6.846C-2.889,6.738 -2.493,6.667 -2.118,6.755C-1.662,6.861 -1.293,7.186 -0.95,7.506C3.588,11.746 -8.123,16.538 -10.885,17.355C-16.826,19.111 -22.771,19.876 -28.589,19.173C-33.565,18.571 -38.599,17.477 -41.554,13.738C-47.046,6.788 -41.405,-1.971 -36.321,-7.256C-32.86,-10.854 -28.883,-14.095 -24.011,-15.517C-22.929,-15.833 -21.672,-15.947 -20.574,-15.655C-19.604,-15.397 -18.701,-14.769 -18.268,-13.862C-17.401,-12.048 -18.856,-10.565 -20.327,-9.726C-21.943,-8.803 -23.679,-8.254 -25.177,-7.098C-26.437,-6.126 -27.514,-4.887 -28.155,-3.432C-28.251,-3.215 -28.338,-2.977 -28.285,-2.747C-28.092,-1.909 -26.719,-2.656 -26.347,-2.895C-20.326,-6.771 -15.385,-12.027 -8.409,-14.725C-6.562,-15.44 -4.162,-16.297 -2.809,-14.436C-1.454,-12.575 -2.771,-11.581 -4.714,-10.561C-7.008,-9.359 -9.242,-8.043 -11.426,-6.65C-12.5,-5.964 -13.563,-5.26 -14.614,-4.54C-15.561,-3.892 -16.521,-3.304 -17.15,-2.315C-17.222,-2.204 -17.29,-2.083 -17.285,-1.95C-17.262,-1.232 -16.214,-1.908 -15.951,-2.098C-14.144,-3.405 -12.335,-4.713 -10.527,-6.02C-8.889,-7.205 -7.136,-8.11 -5.299,-8.972C-3.388,-9.868 -1.244,-10.773 0.853,-9.866C3.152,-8.871 1.49,-6.345 0.163,-5.313C-2.241,-3.444 -4.776,-1.746 -7.421,-0.237C-9.058,0.696 -10.737,1.558 -12.312,2.595C-12.618,2.797 -15.654,4.797 -14.714,5.378C-14.181,5.707 -12.555,4.411 -12.141,4.159L-9.015,2.259C-6.931,0.992 -4.846,-0.275 -2.762,-1.541C-1.082,-2.563 1.371,-3.23 2.162,-0.796C2.762,1.05 1.509,2.482 0,3.579Z" style="fill:none;fill-rule:nonzero;stroke:rgb(113,139,198);stroke-width:1px;"/>
            </g>
        </g>
        <g transform="matrix(4.16667,0,0,4.16667,11785.1,0)">
            <g transform="matrix(-0.615972,-0.787768,-0.787768,0.615972,270.675,323.104)">
                <path d="M-3.943,-8.09C-4.926,-8.09 -5.723,-5.849 -5.723,-3.084C-5.724,-0.32 -4.927,1.922 -3.943,1.922C-2.961,1.922 -2.164,-0.319 -2.164,-3.084C-2.164,-5.849 -2.961,-8.09 -3.943,-8.09" style="fill:rgb(66,99,174);fill-rule:nonzero;"/>
            </g>
        </g>
        <g transform="matrix(4.16667,0,0,4.16667,11785.1,0)">
            <g transform="matrix(0.21219,0.977228,0.977228,-0.21219,265.164,335.83)">
                <path d="M-4.299,-3.468C-1.832,-5.956 2.196,-5.957 4.707,-3.468" style="fill:none;fill-rule:nonzero;stroke:rgb(113,139,198);stroke-width:1px;"/>
            </g>
        </g>
        <g transform="matrix(4.16667,0,0,4.16667,11785.1,0)">
            <g transform="matrix(1,0,0,1,229.712,464.823)">
                <path d="M0,-150.783C-2.537,-155.346 -7.117,-157.291 -8.848,-157.894C-20.709,-162.026 -34.283,-150.308 -40.134,-145.257C-56.284,-131.315 -83.554,-95.033 -70.48,-53.142C-59.012,-16.395 -24.888,-2.222 -17.554,0.585C10.297,11.243 42.449,7.491 65.242,-8.729C69.584,-11.819 96.897,-31.256 91.949,-51.862C89.341,-62.725 78.586,-70.501 69.37,-73.365C57.312,-77.111 46.42,-72.901 41.218,-70.89C24.275,-64.341 22.256,-53.863 9.316,-53.313C8.353,-53.272 -0.96,-53.008 -8.067,-59.14C-19.243,-68.782 -17.038,-87.393 -16.201,-94.455C-12.679,-124.179 7.113,-137.993 0,-150.783" style="fill:rgb(214,221,240);fill-rule:nonzero;"/>
            </g>
        </g>
        <g transform="matrix(4.16667,0,0,4.16667,11785.1,0)">
            <g transform="matrix(1,0,0,1,330.797,481.97)">
                <path d="M0,0.386C0.848,-0.973 2.702,-3.739 3.788,-3.352C4.006,-3.275 4.187,-3.073 4.248,-2.86C4.636,-1.502 0.16,0.421 0.344,0.753C0.519,1.069 4.458,-0.851 5.212,0.077C5.333,0.226 5.367,0.443 5.308,0.61C4.916,1.708 0.434,0.863 0.4,1.161C0.38,1.344 2.102,1.516 3.88,2.638C4.693,3.151 5.277,3.711 5.658,4.125" style="fill:none;fill-rule:nonzero;stroke:rgb(113,139,198);stroke-width:1px;"/>
            </g>
        </g>
    </g>
</svg>
