<?xml version="1.0" encoding="UTF-8" standalone="no"?>
<!DOCTYPE svg PUBLIC "-//W3C//DTD SVG 1.1//EN" "http://www.w3.org/Graphics/SVG/1.1/DTD/svg11.dtd">
<svg width="100%" height="100%" viewBox="0 0 1250 1837" version="1.1" xmlns="http://www.w3.org/2000/svg" xmlns:xlink="http://www.w3.org/1999/xlink" xml:space="preserve" xmlns:serif="http://www.serif.com/" style="fill-rule:evenodd;clip-rule:evenodd;stroke-linecap:round;stroke-miterlimit:10;">
    <g transform="matrix(1,0,0,1,-7499.25,-702.762)">
        <g transform="matrix(4.16667,0,0,4.16667,7071.09,0)">
            <g transform="matrix(1,0,0,1,157.564,453.812)">
                <path d="M0,19.572C-0.002,19.456 4.058,19.66 9.853,18.477C12.866,17.863 15.284,17.091 16.42,16.724C16.42,16.724 19.937,15.59 23.265,14.098C33.255,9.617 50.748,-11.058 53.645,-9.166C54.707,-8.473 53.985,-4.635 52.003,-2.324C50.424,-0.483 48.389,-0.014 47.077,0.413C40.891,2.427 35.668,8.421 33.665,13.277C32.004,17.302 32.968,19.549 29.927,27.625C29.927,27.626 28.796,30.63 28.465,30.52C27.938,30.345 33.34,18.528 30.071,15.78C28.124,14.142 24.884,17.225 16.696,19.025C7.539,21.037 0.003,19.73 0,19.572Z" style="fill:none;fill-rule:nonzero;stroke:rgb(241,142,135);stroke-width:1px;"/>
            </g>
        </g>
        <g transform="matrix(4.16667,0,0,4.16667,7071.09,0)">
            <g transform="matrix(1,0,0,1,219.345,583.213)">
                <path d="M0,-35.151C0.356,-35.208 1.878,-30.397 2.129,-24.517C2.254,-21.606 2.416,-17.818 1.052,-13.653C-1.877,-4.706 -9.908,0.057 -10.154,-0.185C-10.334,-0.362 -6.404,-3.335 -3.27,-9.634C-2.715,-10.747 -1.105,-14.136 -0.168,-19.021C1.583,-28.141 -0.428,-35.083 0,-35.151Z" style="fill:none;fill-rule:nonzero;stroke:rgb(241,142,135);stroke-width:1px;"/>
            </g>
        </g>
        <g transform="matrix(4.16667,0,0,4.16667,7071.09,0)">
            <g transform="matrix(1,0,0,1,264.644,269.417)">
                <path d="M0,29.839C-2.196,20.853 -0.727,14.231 0.384,10.785C2.757,3.422 8.293,-4.341 10.503,-3.594C11.117,-3.386 11.389,-2.552 11.691,-1.63C12.466,0.743 11.697,2.814 11.172,4.766C11.172,4.766 10.146,8.581 10.103,12.319C10.026,18.823 23.708,24.492 26.854,25.619C50.764,34.18 98.211,6.704 104.093,3.24" style="fill:none;fill-rule:nonzero;stroke:rgb(113,139,198);stroke-width:1px;"/>
            </g>
        </g>
        <g transform="matrix(4.16667,0,0,4.16667,7071.09,0)">
            <g transform="matrix(1,0,0,1,372.702,333.6)">
                <path d="M0,-21.556C-4.982,-17.093 -25.797,0.53 -57.417,0.567C-87.045,0.601 -107.515,-14.825 -115.669,-22.157" style="fill:none;fill-rule:nonzero;stroke:rgb(113,139,198);stroke-width:1px;"/>
            </g>
        </g>
        <g transform="matrix(4.16667,0,0,4.16667,7071.09,0)">
            <g transform="matrix(1,0,0,1,280.606,250.799)">
                <path d="M0,8.181L0.007,8.181C4.404,4.556 8.858,1.91 12.584,0" style="fill:none;fill-rule:nonzero;stroke:rgb(113,139,198);stroke-width:1px;"/>
            </g>
        </g>
        <g transform="matrix(4.16667,0,0,4.16667,7071.09,0)">
            <g transform="matrix(1,0,0,1,107.783,393.534)">
                <path d="M0,5.456C18.828,-3.096 34.404,-4.795 45.858,-4.461C57.611,-4.118 59.706,-1.79 79.071,0.424C93.927,2.123 104.499,2.102 124.531,2.062C157.722,1.998 156.439,-2.783 173.448,-1.403C197.234,0.527 197.3,7.175 215.048,6.947C234.263,6.7 240.018,2.011 257.583,2.895C271.578,3.599 282.78,7.324 289.885,10.251" style="fill:none;fill-rule:nonzero;stroke:rgb(214,221,240);stroke-width:1px;"/>
            </g>
        </g>
        <g transform="matrix(4.16667,0,0,4.16667,7071.09,0)">
            <g transform="matrix(1,0,0,1,300.131,440.542)">
                <path d="M0,33.557C-0.224,33.968 6.285,37.802 6.133,38.061C6.025,38.242 2.71,36.411 -3.733,33.225C-3.733,33.225 -5.535,32.331 -7.784,31.25C-14.667,27.928 -26.473,22.227 -32.678,25.802C-34.978,27.12 -35.453,29.11 -37.997,38.645C-45.147,65.428 -46.675,69.5 -48.131,72.945C-51.489,80.873 -52.448,80.152 -55.677,88.477C-58.92,96.837 -58.812,99.792 -62.164,106.078C-64.78,110.993 -69.22,119.325 -73.854,118.935C-80.088,118.424 -83.433,102.431 -84.376,97.89C-86.467,87.915 -84.744,85.954 -85.94,71.388C-86.921,59.381 -88.182,59.64 -89.84,44.101C-91.317,30.213 -90.366,29.492 -91.786,20.324C-93.761,7.589 -95.887,7.077 -98.798,-6.177C-101.688,-19.309 -101.941,-29.457 -102.301,-43.987C-102.683,-59.569 -102.878,-67.354 -101.141,-70.496C-96.874,-78.193 -86.452,-82.799 -74.149,-84.716C-72.312,-85.004 -70.438,-85.228 -68.535,-85.394C-66.474,-85.581 -64.376,-85.689 -62.264,-85.739C-60.758,-85.768 -59.245,-85.768 -57.731,-85.732C-55.828,-85.689 -53.925,-85.595 -52.03,-85.444C-50.12,-85.3 -48.225,-85.098 -46.358,-84.846C-29.867,-82.611 -15.344,-76.406 -11.914,-67.072C-10.696,-63.772 -11.842,-58.481 -14.134,-47.908C-17.716,-31.324 -20.923,-30.257 -25.132,-12.419C-29.896,7.769 -27.229,4.518 -29.81,10.19C-30.473,11.646 -32.246,15.272 -30.768,18.321C-29.745,20.432 -27.597,21.362 -26.48,21.823C-18.379,25.189 -10.328,27.431 -8.375,27.993C-0.425,30.285 5.261,33.211 8.505,34.897C14.508,38.033 19.849,41.665 19.633,42.054C19.236,42.768 0.368,32.865 0,33.557" style="fill:rgb(241,142,135);fill-rule:nonzero;"/>
            </g>
        </g>
        <g transform="matrix(4.16667,0,0,4.16667,7071.09,0)">
            <g transform="matrix(-0.0450679,0.998984,0.998984,0.0450679,246.596,330.522)">
                <path d="M73.452,-70.127C65.875,-53.19 65.006,-39.616 65.783,-30.032C67.185,-12.755 73.79,-10.252 73.452,6.114C73.093,23.396 65.57,28.225 66.391,44.783C66.947,56.031 70.974,64.966 74.089,70.531" style="fill:none;fill-rule:nonzero;stroke:rgb(214,221,240);stroke-width:1px;"/>
            </g>
        </g>
        <g transform="matrix(4.16667,0,0,4.16667,7071.09,0)">
            <g transform="matrix(1,0,0,1,231.597,355.047)">
                <path d="M0,-11.15L0,0.1C-1.903,0.267 -3.777,0.49 -5.615,0.778L-5.615,-10.746L-5.615,-11.15C-5.615,-11.575 -4.36,-11.928 -2.811,-11.928C-1.261,-11.928 0,-11.575 0,-11.15" style="fill:rgb(118,202,188);fill-rule:nonzero;"/>
            </g>
        </g>
        <g transform="matrix(4.16667,0,0,4.16667,7071.09,0)">
            <g transform="matrix(1,0,0,1,242.4,354.032)">
                <path d="M0,-7.965L0,0.778C-1.514,0.742 -3.027,0.742 -4.533,0.77L-4.533,-7.965C-4.533,-8.39 -3.517,-8.743 -2.263,-8.743C-1.016,-8.743 0,-8.39 0,-7.965" style="fill:rgb(118,202,188);fill-rule:nonzero;"/>
            </g>
        </g>
        <g transform="matrix(4.16667,0,0,4.16667,7071.09,0)">
            <g transform="matrix(1,0,0,1,253.773,354.399)">
                <path d="M0,-10.098L0,1.297C-1.867,1.045 -3.762,0.842 -5.672,0.698L-5.672,-10.098C-5.672,-10.819 -4.403,-11.395 -2.833,-11.395C-1.269,-11.395 0,-10.819 0,-10.098" style="fill:rgb(118,202,188);fill-rule:nonzero;"/>
            </g>
        </g>
        <g transform="matrix(4.16667,0,0,4.16667,7071.09,0)">
            <g transform="matrix(0.14321,-0.989692,-0.989692,-0.14321,224.076,369.815)">
                <path d="M-2.633,-2.28C-5.806,-2.279 -8.378,-1.089 -8.378,0.381C-8.378,1.85 -5.805,3.042 -2.633,3.041C0.54,3.041 3.112,1.85 3.113,0.381C3.112,-1.089 0.54,-2.28 -2.633,-2.28" style="fill:rgb(118,202,188);fill-rule:nonzero;"/>
            </g>
        </g>
        <g transform="matrix(4.16667,0,0,4.16667,7071.09,0)">
            <g transform="matrix(0.14321,-0.989692,-0.989692,-0.14321,224.076,369.815)">
                <ellipse cx="-2.633" cy="0.381" rx="5.745" ry="2.661" style="fill:none;stroke:rgb(113,139,198);stroke-width:1px;"/>
            </g>
        </g>
        <g transform="matrix(4.16667,0,0,4.16667,7071.09,0)">
            <g transform="matrix(1,0,0,1,248.61,381.956)">
                <path d="M0,6.644C1.236,6.733 1.89,5.208 0.968,4.379C-0.635,2.939 -2.97,1.375 -5.998,0.782C-10.442,-0.089 -14.096,1.577 -16.392,3.137C-17.411,3.83 -16.974,5.42 -15.745,5.509L0,6.644Z" style="fill:rgb(253,253,253);fill-rule:nonzero;"/>
            </g>
        </g>
        <g transform="matrix(4.16667,0,0,4.16667,7071.09,0)">
            <g transform="matrix(1,0,0,1,217.123,361.066)">
                <path d="M0,7.442C0.124,6.661 0.604,4.292 2.679,2.315C4.421,0.653 6.353,0.16 7.167,0" style="fill:none;fill-rule:nonzero;stroke:rgb(253,253,253);stroke-width:1px;"/>
            </g>
        </g>
        <g transform="matrix(4.16667,0,0,4.16667,7071.09,0)">
            <g transform="matrix(-0.0501813,0.99874,0.99874,0.0501813,259.584,372.826)">
                <path d="M2.658,-2.794C5.831,-2.794 8.403,-1.602 8.404,-0.132C8.403,1.337 5.831,2.527 2.658,2.527C-0.515,2.528 -3.087,1.336 -3.088,-0.134C-3.088,-1.603 -0.515,-2.794 2.658,-2.794" style="fill:rgb(118,202,188);fill-rule:nonzero;"/>
            </g>
        </g>
        <g transform="matrix(4.16667,0,0,4.16667,7071.09,0)">
            <g transform="matrix(-0.0501813,0.99874,0.99874,0.0501813,259.584,372.826)">
                <ellipse cx="2.658" cy="-0.133" rx="5.746" ry="2.661" style="fill:none;stroke:rgb(113,139,198);stroke-width:1px;"/>
            </g>
        </g>
        <g transform="matrix(4.16667,0,0,4.16667,7071.09,0)">
            <g transform="matrix(1,0,0,1,264.945,363.697)">
                <path d="M0,8.396C-0.011,7.605 -0.145,5.192 -1.913,2.936C-3.398,1.042 -5.239,0.275 -6.022,0" style="fill:none;fill-rule:nonzero;stroke:rgb(253,253,253);stroke-width:1px;"/>
            </g>
        </g>
        <g transform="matrix(4.16667,0,0,4.16667,7071.09,0)">
            <g transform="matrix(1,0,0,1,220.502,608.702)">
                <path d="M0,-77.49C-2.742,-76.876 -3.142,-68.789 -3.227,-67.065C-3.465,-62.252 -2.548,-58.667 -1.198,-53.86C3.728,-36.324 6.119,-32.098 5.957,-23.626C5.935,-22.448 5.777,-20.606 5.461,-16.924C4.399,-4.556 3.166,0.627 3.478,0.693C3.992,0.802 10.223,-12.662 8.936,-29.087C8.45,-35.288 6.829,-42.727 7.708,-42.949C8.239,-43.083 9.296,-40.579 9.432,-40.257C12.254,-33.572 17.398,-29.259 17.74,-29.193C18.04,-29.136 14.354,-32.431 13.652,-39.512C12.67,-49.427 12.299,-57.035 11.667,-58.873C9.25,-65.891 3.584,-78.292 0,-77.49" style="fill:rgb(241,142,135);fill-rule:nonzero;"/>
            </g>
        </g>
        <g transform="matrix(4.16667,0,0,4.16667,7071.09,0)">
            <g transform="matrix(0,1,1,0,195.57,416.275)">
                <path d="M6.992,-6.993C9.051,-6.993 10.721,-3.862 10.721,0C10.721,3.862 9.051,6.992 6.992,6.992C4.933,6.992 3.264,3.862 3.264,0C3.264,-3.862 4.933,-6.993 6.992,-6.993" style="fill:rgb(253,253,253);fill-rule:nonzero;"/>
            </g>
        </g>
        <g transform="matrix(4.16667,0,0,4.16667,7071.09,0)">
            <g transform="matrix(0,1,1,0,195.57,416.275)">
                <ellipse cx="6.992" cy="0" rx="3.729" ry="6.992" style="fill:none;stroke:rgb(214,221,240);stroke-width:1px;"/>
            </g>
        </g>
        <g transform="matrix(4.16667,0,0,4.16667,7071.09,0)">
            <g transform="matrix(0,1,1,0,188.128,427.759)">
                <ellipse cx="3.497" cy="0" rx="1.864" ry="3.497" style="fill:none;stroke:rgb(214,221,240);stroke-width:1px;"/>
            </g>
        </g>
        <g transform="matrix(4.16667,0,0,4.16667,7071.09,0)">
            <g transform="matrix(0,1,1,0,249.318,519.402)">
                <path d="M4.67,-4.67C2.319,-4.67 0.413,-2.58 0.413,-0.001C0.413,2.579 2.319,4.67 4.67,4.67C7.021,4.67 8.927,2.579 8.927,-0.001C8.927,-2.58 7.021,-4.67 4.67,-4.67" style="fill:rgb(253,253,253);fill-rule:nonzero;"/>
            </g>
        </g>
        <g transform="matrix(4.16667,0,0,4.16667,7071.09,0)">
            <g transform="matrix(0,1,1,0,249.318,519.402)">
                <ellipse cx="4.67" cy="0" rx="4.257" ry="4.67" style="fill:none;stroke:rgb(214,221,240);stroke-width:1px;"/>
            </g>
        </g>
        <g transform="matrix(4.16667,0,0,4.16667,7071.09,0)">
            <g transform="matrix(0,1,1,0,263.244,518.903)">
                <ellipse cx="2.334" cy="0" rx="1.423" ry="2.334" style="fill:none;stroke:rgb(214,221,240);stroke-width:1px;"/>
            </g>
        </g>
        <g transform="matrix(4.16667,0,0,4.16667,7071.09,0)">
            <g transform="matrix(1,0,0,1,230.595,410.995)">
                <path d="M0,-1.174C2.203,-0.305 6.248,0.96 11.409,0.697C16.343,0.445 20.099,-1.092 22.191,-2.134" style="fill:none;fill-rule:nonzero;stroke:rgb(253,253,253);stroke-width:1px;"/>
            </g>
        </g>
        <g transform="matrix(4.16667,0,0,4.16667,7071.09,0)">
            <g transform="matrix(1,0,0,1,221.294,479.345)">
                <path d="M0,-1.132C2.205,-0.266 6.251,0.993 11.412,0.722C16.346,0.463 20.099,-1.079 22.19,-2.125" style="fill:none;fill-rule:nonzero;stroke:rgb(253,253,253);stroke-width:1px;"/>
            </g>
        </g>
        <g transform="matrix(4.16667,0,0,4.16667,7071.09,0)">
            <g transform="matrix(1,0,0,1,219.01,444.539)">
                <path d="M0,-2.86C1.345,-2.049 3.85,-0.776 7.253,-0.379C10.507,0 13.132,-0.591 14.615,-1.042" style="fill:none;fill-rule:nonzero;stroke:rgb(253,253,253);stroke-width:1px;"/>
            </g>
        </g>
        <g transform="matrix(4.16667,0,0,4.16667,7071.09,0)">
            <g transform="matrix(1,0,0,1,244.649,501.017)">
                <path d="M0,-2.27C1.067,-1.626 3.055,-0.616 5.756,-0.301C8.338,0 10.422,-0.469 11.599,-0.827" style="fill:none;fill-rule:nonzero;stroke:rgb(253,253,253);stroke-width:1px;"/>
            </g>
        </g>
        <g transform="matrix(4.16667,0,0,4.16667,7071.09,0)">
            <g transform="matrix(1,0,0,1,250.314,434.91)">
                <path d="M0,-1.735C1.159,-1.146 3.305,-0.243 6.14,-0.119C8.85,0 10.983,-0.645 12.181,-1.106" style="fill:none;fill-rule:nonzero;stroke:rgb(253,253,253);stroke-width:1px;"/>
            </g>
        </g>
        <g transform="matrix(4.16667,0,0,4.16667,7071.09,0)">
            <g transform="matrix(1,0,0,1,197.59,401.997)">
                <path d="M0,-1.258C0.958,-0.863 2.729,-0.254 5.051,-0.124C7.27,0 9.003,-0.37 9.975,-0.641" style="fill:none;fill-rule:nonzero;stroke:rgb(253,253,253);stroke-width:1px;"/>
            </g>
        </g>
        <g transform="matrix(4.16667,0,0,4.16667,7071.09,0)">
            <g transform="matrix(1,0,0,1,221.568,522.238)">
                <path d="M0,-1.261C0.842,-0.832 2.402,-0.177 4.462,-0.086C6.432,0 7.982,-0.469 8.853,-0.803" style="fill:none;fill-rule:nonzero;stroke:rgb(253,253,253);stroke-width:1px;"/>
            </g>
        </g>
        <g transform="matrix(4.16667,0,0,4.16667,7071.09,0)">
            <g transform="matrix(1,0,0,1,232.389,539.955)">
                <path d="M0,-1.261C0.842,-0.832 2.401,-0.177 4.462,-0.087C6.432,0 7.982,-0.469 8.853,-0.804" style="fill:none;fill-rule:nonzero;stroke:rgb(253,253,253);stroke-width:1px;"/>
            </g>
        </g>
        <g transform="matrix(4.16667,0,0,4.16667,7071.09,0)">
            <g transform="matrix(1,0,0,1,208.385,463.216)">
                <path d="M0,-1.261C0.842,-0.832 2.402,-0.177 4.462,-0.086C6.432,0 7.982,-0.469 8.853,-0.803" style="fill:none;fill-rule:nonzero;stroke:rgb(253,253,253);stroke-width:1px;"/>
            </g>
        </g>
        <g transform="matrix(4.16667,0,0,4.16667,7071.09,0)">
            <g transform="matrix(1,0,0,1,225.989,232.868)">
                <path d="M0,93.328C1.629,72.412 6.991,46.552 30.307,16.022C32.102,13.672 33.932,11.431 35.77,9.305C38.675,5.946 41.615,2.847 44.549,0L33.411,0.41C25.178,10.48 14.328,26.13 6.328,47.389C-0.352,65.139 -2.978,80.816 -3.928,92.59" style="fill:rgb(118,202,188);fill-rule:nonzero;stroke:rgb(113,139,198);stroke-width:1px;"/>
            </g>
        </g>
        <g transform="matrix(4.16667,0,0,4.16667,7071.09,0)">
            <g transform="matrix(-0.62773,0.778431,0.778431,0.62773,273.701,248.929)">
                <path d="M-8.522,-4.076C-5.124,-4.168 -1.635,-4.178 1.949,-4.076" style="fill:none;fill-rule:nonzero;stroke:rgb(113,139,198);stroke-width:1px;"/>
            </g>
        </g>
        <g transform="matrix(4.16667,0,0,4.16667,7071.09,0)">
            <g transform="matrix(1,0,0,1,273.975,332.971)">
                <path d="M0,-76.412C-2.285,-73.342 -4.663,-69.76 -7.25,-66.026C-8.324,-64.484 -9.449,-62.696 -10.674,-60.152C-15.308,-52.123 -19.683,-42.84 -23.179,-32.296C-27.734,-18.544 -29.536,-7.993 -30.285,2.148C-30.285,1.579 -31.474,1.11 -32.945,1.11C-34.321,1.11 -35.453,1.521 -35.59,2.047C-33.881,-9.852 -30.941,-23.265 -25.463,-37.528C-25.456,-37.557 -25.442,-37.579 -25.435,-37.607C-24.8,-39.128 -24.137,-40.678 -23.438,-42.249C-16.916,-56.916 -9.355,-68.995 -2.299,-78.56C-1.65,-77.745 -0.872,-77.025 0,-76.412Z" style="fill:rgb(118,202,188);fill-rule:nonzero;stroke:rgb(113,139,198);stroke-width:1px;"/>
            </g>
        </g>
        <g transform="matrix(4.16667,0,0,4.16667,7071.09,0)">
            <g transform="matrix(-0.61279,0.790246,0.790246,0.61279,274.184,254.609)">
                <path d="M-5.244,-2.57C-3.117,-2.607 -0.95,-2.614 1.259,-2.57" style="fill:none;fill-rule:nonzero;stroke:rgb(113,139,198);stroke-width:1px;"/>
            </g>
        </g>
        <g transform="matrix(4.16667,0,0,4.16667,7071.09,0)">
            <g transform="matrix(1,0,0,1,280.606,333.553)">
                <path d="M0,-74.573C-4.987,-70.465 -9.903,-65.095 -13.593,-58.133C-16.26,-53.095 -17.391,-48.915 -19.748,-39.271C-22.33,-28.672 -25.254,-14.667 -28.841,2.258C-28.855,2.326 -28.941,2.364 -28.991,2.315C-29.242,2.07 -29.955,1.89 -30.797,1.89C-31.658,1.89 -32.379,2.076 -32.618,2.329C-32.636,2.349 -32.67,2.327 -32.666,2.3C-30.683,-10.931 -28.708,-20.682 -26.854,-28.972C-22.948,-46.428 -19.907,-55.315 -17.305,-60.735C-13.773,-66.861 -10.097,-72.26 -6.551,-76.937C-4.706,-75.64 -2.443,-74.818 0,-74.573Z" style="fill:rgb(118,202,188);fill-rule:nonzero;stroke:rgb(113,139,198);stroke-width:1px;"/>
            </g>
        </g>
        <g transform="matrix(4.16667,0,0,4.16667,7071.09,0)">
            <g transform="matrix(1,0,0,1,273.976,248.659)">
                <path d="M0,7.899C1.405,5.989 2.774,4.281 4.123,2.847C5.189,1.708 6.241,0.742 7.301,0" style="fill:none;fill-rule:nonzero;stroke:rgb(113,139,198);stroke-width:1px;"/>
            </g>
        </g>
        <g transform="matrix(4.16667,0,0,4.16667,7071.09,0)">
            <g transform="matrix(1,0,0,1,225.989,325.547)">
                <path d="M0,0.649C0,0.678 0,0.707 -0.007,0.735C-0.115,1.232 -1.074,1.456 -2.155,1.226C-3.243,1.002 -4.036,0.411 -3.928,-0.086C-3.82,-0.591 -2.861,-0.807 -1.78,-0.583C-0.764,-0.374 0,0.166 0,0.649Z" style="fill:rgb(253,253,253);fill-rule:nonzero;stroke:rgb(113,139,198);stroke-width:1px;"/>
            </g>
        </g>
        <g transform="matrix(4.16667,0,0,4.16667,7071.09,0)">
            <g transform="matrix(0,-1,-1,0,230.061,327.068)">
                <path d="M-2.45,-2.451C-2.904,-2.451 -3.272,-1.356 -3.272,-0.001C-3.272,1.354 -2.904,2.45 -2.45,2.45C-1.996,2.45 -1.629,1.354 -1.629,-0.001C-1.629,-1.356 -1.996,-2.451 -2.45,-2.451" style="fill:rgb(253,253,253);fill-rule:nonzero;"/>
            </g>
        </g>
        <g transform="matrix(4.16667,0,0,4.16667,7071.09,0)">
            <g transform="matrix(0,-1,-1,0,230.061,327.068)">
                <ellipse cx="-2.451" cy="-0.001" rx="0.822" ry="2.451" style="fill:none;stroke:rgb(113,139,198);stroke-width:1px;"/>
            </g>
        </g>
        <g transform="matrix(4.16667,0,0,4.16667,7071.09,0)">
            <g transform="matrix(1,0,0,1,243.69,335.126)">
                <path d="M0,-0.007C0,0.57 -1.189,1.038 -2.66,1.038C-4.13,1.038 -5.319,0.57 -5.319,-0.007C-5.319,-0.043 -5.312,-0.079 -5.305,-0.108C-5.167,-0.634 -4.036,-1.045 -2.66,-1.045C-1.189,-1.045 0,-0.576 0,-0.007" style="fill:rgb(253,253,253);fill-rule:nonzero;"/>
            </g>
        </g>
        <g transform="matrix(4.16667,0,0,4.16667,7071.09,0)">
            <g transform="matrix(1,0,0,1,243.69,335.126)">
                <path d="M0,-0.007C0,0.57 -1.189,1.038 -2.66,1.038C-4.13,1.038 -5.319,0.57 -5.319,-0.007C-5.319,-0.043 -5.312,-0.079 -5.305,-0.108C-5.167,-0.634 -4.036,-1.045 -2.66,-1.045C-1.189,-1.045 0,-0.576 0,-0.007Z" style="fill:none;fill-rule:nonzero;stroke:rgb(113,139,198);stroke-width:1px;"/>
            </g>
        </g>
        <g transform="matrix(4.16667,0,0,4.16667,7071.09,0)">
            <g transform="matrix(1,0,0,1,251.712,336.063)">
                <path d="M0,0C0,0.339 -0.851,0.62 -1.903,0.62C-2.955,0.62 -3.806,0.339 -3.806,0C-3.806,-0.021 -3.798,-0.05 -3.791,-0.072L-3.791,-0.079C-3.668,-0.382 -2.876,-0.62 -1.903,-0.62C-0.851,-0.62 0,-0.339 0,0" style="fill:rgb(253,253,253);fill-rule:nonzero;"/>
            </g>
        </g>
        <g transform="matrix(4.16667,0,0,4.16667,7071.09,0)">
            <g transform="matrix(1,0,0,1,251.712,336.063)">
                <path d="M0,0C0,0.339 -0.851,0.62 -1.903,0.62C-2.955,0.62 -3.806,0.339 -3.806,0C-3.806,-0.021 -3.798,-0.05 -3.791,-0.072L-3.791,-0.079C-3.668,-0.382 -2.876,-0.62 -1.903,-0.62C-0.851,-0.62 0,-0.339 0,0Z" style="fill:none;fill-rule:nonzero;stroke:rgb(113,139,198);stroke-width:1px;"/>
            </g>
        </g>
        <g transform="matrix(4.16667,0,0,4.16667,7071.09,0)">
            <g transform="matrix(1,0,0,1,238.862,325.368)">
                <path d="M0,0.511L0,0.526C-0.036,0.821 -1.038,0.944 -2.234,0.792C-3.431,0.648 -4.375,0.281 -4.332,-0.015C-4.296,-0.31 -3.294,-0.433 -2.098,-0.289C-0.923,-0.137 0,0.208 0,0.511Z" style="fill:rgb(253,253,253);fill-rule:nonzero;stroke:rgb(113,139,198);stroke-width:1px;"/>
            </g>
        </g>
        <g transform="matrix(4.16667,0,0,4.16667,7071.09,0)">
            <g transform="matrix(1,0,0,1,274.055,244.911)">
                <path d="M0,11.705C1.369,9.889 2.724,8.188 4.043,6.595C6.068,4.137 8.007,1.939 9.795,0" style="fill:none;fill-rule:nonzero;stroke:rgb(113,139,198);stroke-width:1px;"/>
            </g>
        </g>
        <g transform="matrix(4.16667,0,0,4.16667,7071.09,0)">
            <g transform="matrix(1,0,0,1,269.284,327.558)">
                <path d="M0,-81.847C-9.514,-69.356 -19.553,-53.025 -26.833,-32.779C-31.69,-20.57 -34.667,-9.096 -36.772,1.96C-36.772,1.506 -37.867,1.139 -39.222,1.139C-40.577,1.139 -41.673,1.506 -41.673,1.96C-40.548,-10.061 -37.651,-24.087 -29.99,-42.812C-22.696,-60.628 -13.499,-74.272 -5.859,-83.807C-5.528,-83.562 -5.182,-83.331 -4.822,-83.13C-3.358,-82.301 -1.708,-81.883 0,-81.847Z" style="fill:rgb(118,202,188);fill-rule:nonzero;stroke:rgb(113,139,198);stroke-width:1px;"/>
            </g>
        </g>
        <g transform="matrix(4.16667,0,0,4.16667,7071.09,0)">
            <g transform="matrix(-0.636188,0.771534,0.771534,0.636188,265.382,244.249)">
                <path d="M-3.875,-1.827C-2.376,-1.843 -0.8,-1.852 0.862,-1.827" style="fill:none;fill-rule:nonzero;stroke:rgb(113,139,198);stroke-width:1px;"/>
            </g>
        </g>
        <g transform="matrix(4.16667,0,0,4.16667,7071.09,0)">
            <g transform="matrix(-0.614486,0.788928,0.788928,0.614486,276.041,255.328)">
                <path d="M-8.2,-4.007C-5.041,-4.087 -1.649,-4.102 1.958,-4.007" style="fill:none;fill-rule:nonzero;stroke:rgb(113,139,198);stroke-width:1px;"/>
            </g>
        </g>
        <g transform="matrix(4.16667,0,0,4.16667,7071.09,0)">
            <g transform="matrix(-0.63226,0.774757,0.774757,0.63226,274.78,247.064)">
                <path d="M-10.773,-5.113C-6.709,-5.249 -2.291,-5.271 2.427,-5.113" style="fill:none;fill-rule:nonzero;stroke:rgb(113,139,198);stroke-width:1px;"/>
            </g>
        </g>
        <g transform="matrix(4.16667,0,0,4.16667,7071.09,0)">
            <g transform="matrix(1,0,0,1,271.381,319.631)">
                <path d="M0,-65.602C-2.09,-62.798 -4.159,-59.851 -6.184,-56.751C-13.442,-45.638 -18.818,-34.726 -22.84,-24.268C-22.848,-24.239 -22.862,-24.217 -22.869,-24.188C-27.531,-12.93 -30.415,-3.038 -32.48,6.074C-32.492,6.127 -32.552,6.141 -32.588,6.101C-32.821,5.84 -33.63,5.575 -34.617,5.448C-35.813,5.304 -36.815,5.427 -36.852,5.722C-35.648,-1.99 -34.235,-8.282 -31.532,-17.046C-30.711,-19.713 -29.846,-22.314 -28.931,-24.852C-24.123,-36.945 -17.463,-49.768 -7.964,-63.62C-6.025,-66.445 -4.065,-69.148 -2.076,-71.743C-1.989,-69.811 -1.478,-67.966 -0.512,-66.366C-0.354,-66.106 -0.18,-65.847 0,-65.602Z" style="fill:rgb(118,202,188);fill-rule:nonzero;stroke:rgb(113,139,198);stroke-width:1px;"/>
            </g>
        </g>
        <g transform="matrix(4.16667,0,0,4.16667,7071.09,0)">
            <g transform="matrix(-0.020561,0.999789,0.999789,0.020561,287.207,423.987)">
                <path d="M29.727,-26.805C25.587,-20.446 25.104,-15.54 25.468,-12.186C26.063,-6.697 28.889,-5.708 29.727,0.723C30.48,6.5 28.517,8.141 28.367,15.124C28.294,18.568 28.66,23.377 30.65,29.213" style="fill:none;fill-rule:nonzero;stroke:rgb(214,221,240);stroke-width:1px;"/>
            </g>
        </g>
        <g transform="matrix(4.16667,0,0,4.16667,7071.09,0)">
            <g transform="matrix(0.997933,-0.0642567,-0.0642567,-0.997933,244.496,218.554)">
                <path d="M-0.061,0.38C3.404,2.034 7.731,2.16 11.704,0.38" style="fill:rgb(156,215,210);fill-rule:nonzero;stroke:rgb(113,139,198);stroke-width:1px;"/>
            </g>
        </g>
        <g transform="matrix(4.16667,0,0,4.16667,7071.09,0)">
            <g transform="matrix(-0.885187,0.465235,0.465235,0.885187,261.389,241.662)">
                <path d="M-1.52,-0.375C-0.977,-0.351 -0.439,-0.349 0.093,-0.375" style="fill:rgb(253,253,253);fill-rule:nonzero;stroke:rgb(113,139,198);stroke-width:1px;"/>
            </g>
        </g>
        <g transform="matrix(4.16667,0,0,4.16667,7071.09,0)">
            <g transform="matrix(1,0,0,1,344.103,228.804)">
                <path d="M0,-16.405C0.288,-14.408 0.742,-8.462 -3.459,-3.59C-5.117,-1.658 -7.236,-0.217 -9.615,0.691C-9.665,4.814 -11.409,8.763 -14.537,11.473C-15.647,12.425 -16.88,13.189 -18.199,13.743C-17.557,15.502 -16.858,18.364 -17.831,21.34C-20.339,29.045 -31.676,30.342 -33.24,30.515C-35.756,30.803 -38.077,30.652 -40.131,30.277C-38.134,39.698 -56.974,44.469 -59.036,37.268C-59.59,35.877 -59.562,30.976 -60.275,30.162C-61.363,30.284 -62.445,30.284 -63.49,30.177L-63.497,30.177C-65.94,29.931 -68.203,29.11 -70.048,27.812C-70.077,27.798 -70.099,27.783 -70.128,27.755C-71,27.142 -71.778,26.421 -72.427,25.607C-72.528,25.484 -72.628,25.355 -72.722,25.225C-72.902,24.98 -73.076,24.72 -73.234,24.461C-74.2,22.861 -74.711,21.016 -74.798,19.084C-74.834,18.371 -74.805,17.643 -74.719,16.915C-74.755,16.915 -74.784,16.915 -74.82,16.908C-76.528,16.872 -78.178,16.453 -79.642,15.625C-80.002,15.423 -80.348,15.192 -80.679,14.947C-81.299,14.486 -81.854,13.952 -82.344,13.369C-82.567,13.116 -82.776,12.843 -82.971,12.569C-85.912,13.974 -89.076,14.493 -92.067,14.183C-95.425,13.83 -98.568,12.439 -100.932,10.09C-104.961,6.09 -107.613,-1.529 -103.534,-7.223C-102.525,-8.628 -101.206,-9.781 -99.692,-10.625C-102.532,-12.318 -105.617,-14.913 -107.685,-18.826C-108.766,-20.873 -112.096,-27.165 -109.069,-31.814C-106.294,-36.081 -100.11,-35.98 -99.202,-35.966C-98.46,-35.951 -97.746,-35.879 -97.076,-35.757C-96.651,-39.807 -94.352,-43.548 -90.719,-45.659C-87.043,-47.807 -82.589,-47.937 -78.82,-46.229C-78.099,-48.809 -76.6,-52.254 -73.407,-55.18C-71.821,-56.636 -66.639,-60.874 -60.592,-60.031C-56.657,-59.483 -52.981,-56.867 -50.408,-52.903C-47.936,-54.799 -44.376,-56.809 -39.821,-57.436C-37.313,-57.782 -29.168,-58.906 -26.487,-54.142C-25.68,-52.708 -25.564,-51.101 -25.781,-49.588C-22.603,-49.616 -19.013,-49.234 -15.236,-48.088C-12.137,-47.144 0.36,-43.339 1.564,-34.927C1.975,-32.03 1.167,-27.742 -2.249,-25.407C-2.674,-25.118 -3.128,-24.866 -3.597,-24.664C-1.687,-22.236 -0.425,-19.418 0,-16.405" style="fill:rgb(156,215,210);fill-rule:nonzero;"/>
            </g>
        </g>
        <g transform="matrix(4.16667,0,0,4.16667,7071.09,0)">
            <g transform="matrix(-0.916814,-0.399315,-0.399315,0.916814,245.208,217.053)">
                <path d="M-6.488,1.352C-5.256,1.502 -2.733,1.737 0.282,1.352" style="fill:rgb(253,253,253);fill-rule:nonzero;stroke:rgb(113,139,198);stroke-width:1px;"/>
            </g>
        </g>
        <g transform="matrix(4.16667,0,0,4.16667,7071.09,0)">
            <g transform="matrix(0.882993,0.469386,0.469386,-0.882993,248.446,191.471)">
                <path d="M-0.513,-2.057C3.623,-0.716 7.305,-1.762 8.254,-2.057" style="fill:rgb(156,215,210);fill-rule:nonzero;stroke:rgb(113,139,198);stroke-width:1px;"/>
            </g>
        </g>
        <g transform="matrix(4.16667,0,0,4.16667,7071.09,0)">
            <g transform="matrix(-0.29039,-0.956908,-0.956908,0.29039,300.78,178.434)">
                <path d="M-8.15,6.044C-3.633,4.846 0.747,4.955 4.482,6.044" style="fill:rgb(156,215,210);fill-rule:nonzero;stroke:rgb(113,139,198);stroke-width:1px;"/>
            </g>
        </g>
        <g transform="matrix(4.16667,0,0,4.16667,7071.09,0)">
            <g transform="matrix(-0.181547,0.983382,0.983382,0.181547,266.627,184.967)">
                <path d="M-2.109,-1.755C-0.424,-1.906 0.864,-1.814 1.461,-1.755" style="fill:rgb(156,215,210);fill-rule:nonzero;stroke:rgb(113,139,198);stroke-width:1px;"/>
            </g>
        </g>
        <g transform="matrix(4.16667,0,0,4.16667,7071.09,0)">
            <g transform="matrix(0.998024,0.062832,0.062832,-0.998024,331.534,203.288)">
                <path d="M-0.047,-0.286C3.002,-1.697 6.367,-1.679 9.008,-0.286" style="fill:rgb(156,215,210);fill-rule:nonzero;stroke:rgb(113,139,198);stroke-width:1px;"/>
            </g>
        </g>
        <g transform="matrix(4.16667,0,0,4.16667,7071.09,0)">
            <g transform="matrix(-0.995641,0.0932678,0.0932678,0.995641,311.599,180.164)">
                <path d="M-6.783,-0.317C-4.234,-0.549 -1.926,-0.482 0.015,-0.317" style="fill:rgb(156,215,210);fill-rule:nonzero;stroke:rgb(113,139,198);stroke-width:1px;"/>
            </g>
        </g>
        <g transform="matrix(4.16667,0,0,4.16667,7071.09,0)">
            <g transform="matrix(1,0,0,1,271.462,195.851)">
                <path d="M0,11.106C0.037,10.617 0.589,4.568 5.79,1.746C8.858,0.08 14.146,-0.788 17.394,2.602C19.61,4.913 20.214,8.513 19.121,11.894" style="fill:rgb(156,215,210);fill-rule:nonzero;stroke:rgb(113,139,198);stroke-width:1px;"/>
            </g>
        </g>
        <g transform="matrix(4.16667,0,0,4.16667,7071.09,0)">
            <g transform="matrix(1,0,0,1,284.374,208.377)">
                <path d="M0,1.051C-2.86,-6.428 -9.9,-10.005 -15.139,-8.303C-18.421,-7.236 -21.336,-3.987 -21.8,-0.019C-22.33,4.526 -19.537,9.12 -14.844,11.056" style="fill:rgb(156,215,210);fill-rule:nonzero;stroke:rgb(113,139,198);stroke-width:1px;"/>
            </g>
        </g>
        <g transform="matrix(4.16667,0,0,4.16667,7071.09,0)">
            <g transform="matrix(1,0,0,1,317.474,218.329)">
                <path d="M0,10.639C1.19,6.149 -1.683,1.634 -5.918,0.784C-9.819,0 -13.916,2.517 -15.002,6.64" style="fill:rgb(156,215,210);fill-rule:nonzero;stroke:rgb(113,139,198);stroke-width:1px;"/>
            </g>
        </g>
        <g transform="matrix(4.16667,0,0,4.16667,7071.09,0)">
            <g transform="matrix(1,0,0,1,306.356,215.819)">
                <path d="M0,11.09C0.767,7.042 -1.395,3.065 -4.955,1.623C-8.964,0 -13.866,1.946 -15.771,6.221" style="fill:rgb(156,215,210);fill-rule:nonzero;stroke:rgb(113,139,198);stroke-width:1px;"/>
            </g>
        </g>
        <g transform="matrix(4.16667,0,0,4.16667,7071.09,0)">
            <g transform="matrix(0.99954,-0.0303315,-0.0303315,-0.99954,315.183,243.035)">
                <path d="M0.016,0.162C3.544,-1.184 7.375,-1.15 10.731,0.162" style="fill:rgb(156,215,210);fill-rule:nonzero;stroke:rgb(113,139,198);stroke-width:1px;"/>
            </g>
        </g>
        <g transform="matrix(4.16667,0,0,4.16667,7071.09,0)">
            <g transform="matrix(0.169402,0.985547,0.985547,-0.169402,336.655,225.804)">
                <path d="M-2.302,-2.76C-0.414,-2.412 1.472,-2.422 3.27,-2.76" style="fill:rgb(156,215,210);fill-rule:nonzero;stroke:rgb(113,139,198);stroke-width:1px;"/>
            </g>
        </g>
        <g transform="matrix(4.16667,0,0,4.16667,7071.09,0)">
            <g transform="matrix(1,0,0,1,303.973,246.512)">
                <path d="M0,12.569C-0.108,11.568 -0.144,10.393 -0.036,9.002C0.087,7.459 0.555,3.56 2.566,0" style="fill:rgb(156,215,210);fill-rule:nonzero;stroke:rgb(113,139,198);stroke-width:1px;"/>
            </g>
        </g>
        <g transform="matrix(4.16667,0,0,4.16667,7071.09,0)">
            <g transform="matrix(0.957405,-0.288747,-0.288747,-0.957405,269.878,246.785)">
                <path d="M-0.164,1.163C2.298,0.368 5.142,0.361 7.898,1.163" style="fill:rgb(156,215,210);fill-rule:nonzero;stroke:rgb(113,139,198);stroke-width:1px;"/>
            </g>
        </g>
        <g transform="matrix(4.16667,0,0,4.16667,7071.09,0)">
            <g transform="matrix(1,0,0,1,261.132,224.161)">
                <path d="M0,17.211C-3.085,12.851 -3.229,6.263 0.043,2.782C2.494,0.173 6.22,0 7.662,0.014" style="fill:rgb(156,215,210);fill-rule:nonzero;stroke:rgb(113,139,198);stroke-width:1px;"/>
            </g>
        </g>
        <g transform="matrix(4.16667,0,0,4.16667,7071.09,0)">
            <g transform="matrix(-0.947037,0.321124,0.321124,0.947037,284.363,259.967)">
                <path d="M-6.794,-1.12C-4.354,-0.593 -1.987,-0.635 0.185,-1.121" style="fill:rgb(253,253,253);fill-rule:nonzero;stroke:rgb(113,139,198);stroke-width:1px;"/>
            </g>
        </g>
        <g transform="matrix(4.16667,0,0,4.16667,7071.09,0)">
            <g transform="matrix(1,0,0,1,255.888,257.702)">
                <path d="M0,17.235L-15.268,10.9C-18.117,9.718 -19.465,6.319 -18.28,3.31C-17.095,0.299 -13.824,-1.182 -10.976,0L4.292,6.335C7.141,7.517 8.49,10.916 7.304,13.925C6.119,16.935 2.849,18.417 0,17.235Z" style="fill:rgb(253,253,253);fill-rule:nonzero;stroke:rgb(113,139,198);stroke-width:1px;"/>
            </g>
        </g>
        <g transform="matrix(4.16667,0,0,4.16667,7071.09,0)">
            <g transform="matrix(1,0,0,1,248.123,265.868)">
                <path d="M0,22.254L-17.955,9.734C-21.305,7.399 -22.562,3.326 -20.763,0.637C-18.963,-2.051 -14.789,-2.336 -11.438,0L6.517,12.519C9.867,14.855 11.124,18.928 9.324,21.616C7.525,24.304 3.35,24.59 0,22.254Z" style="fill:rgb(253,253,253);fill-rule:nonzero;stroke:rgb(113,139,198);stroke-width:1px;"/>
            </g>
        </g>
        <g transform="matrix(4.16667,0,0,4.16667,7071.09,0)">
            <g transform="matrix(1,0,0,1,240.655,276.42)">
                <path d="M0,21.112L-16.303,9.728C-19.345,7.604 -20.35,3.704 -18.547,1.018C-16.745,-1.668 -12.817,-2.124 -9.775,0L6.528,11.384C9.569,13.508 10.574,17.408 8.771,20.094C6.969,22.78 3.042,23.236 0,21.112Z" style="fill:rgb(253,253,253);fill-rule:nonzero;stroke:rgb(113,139,198);stroke-width:1px;"/>
            </g>
        </g>
        <g transform="matrix(4.16667,0,0,4.16667,7071.09,0)">
            <g transform="matrix(1,0,0,1,234.312,289.078)">
                <path d="M0,17.287L-11.622,8.454C-13.791,6.807 -14.164,3.578 -12.456,1.244C-10.747,-1.091 -7.604,-1.648 -5.436,0L6.186,8.833C8.354,10.481 8.728,13.709 7.019,16.044C5.311,18.378 2.168,18.935 0,17.287Z" style="fill:rgb(253,253,253);fill-rule:nonzero;stroke:rgb(113,139,198);stroke-width:1px;"/>
            </g>
        </g>
        <g transform="matrix(4.16667,0,0,4.16667,7071.09,0)">
            <g transform="matrix(-0.0419049,0.999122,0.999122,0.0419049,199.973,484.652)">
                <path d="M28.059,-25.228C26.591,-22.375 24.807,-17.875 25.085,-12.431C25.423,-5.814 28.487,-4.126 28.059,1.905C27.649,7.693 24.641,8.769 23.826,14.969C23.17,19.961 24.465,24.236 25.589,26.965" style="fill:none;fill-rule:nonzero;stroke:rgb(214,221,240);stroke-width:1px;"/>
            </g>
        </g>
        <g transform="matrix(4.16667,0,0,4.16667,7071.09,0)">
            <g transform="matrix(0,1,1,0,237.003,349.763)">
                <path d="M-5.407,-5.407L5.407,-5.407" style="fill:none;fill-rule:nonzero;stroke:rgb(113,139,198);stroke-width:1px;"/>
            </g>
        </g>
        <g transform="matrix(4.16667,0,0,4.16667,7071.09,0)">
            <g transform="matrix(0,1,1,0,246.772,350.438)">
                <path d="M-4.371,-4.371L4.371,-4.371" style="fill:none;fill-rule:nonzero;stroke:rgb(113,139,198);stroke-width:1px;"/>
            </g>
        </g>
        <g transform="matrix(4.16667,0,0,4.16667,7071.09,0)">
            <g transform="matrix(0,1,1,0,259.471,349.999)">
                <path d="M-5.698,-5.698L5.698,-5.698" style="fill:none;fill-rule:nonzero;stroke:rgb(113,139,198);stroke-width:1px;"/>
            </g>
        </g>
    </g>
</svg>
