<?xml version="1.0" encoding="UTF-8" standalone="no"?>
<!DOCTYPE svg PUBLIC "-//W3C//DTD SVG 1.1//EN" "http://www.w3.org/Graphics/SVG/1.1/DTD/svg11.dtd">
<svg width="100%" height="100%" viewBox="0 0 1450 1128" version="1.1" xmlns="http://www.w3.org/2000/svg" xmlns:xlink="http://www.w3.org/1999/xlink" xml:space="preserve" xmlns:serif="http://www.serif.com/" style="fill-rule:evenodd;clip-rule:evenodd;stroke-linecap:round;stroke-miterlimit:10;">
    <g transform="matrix(1,0,0,1,-7429.13,-5346.38)">
        <g transform="matrix(4.16667,0,0,4.16667,7071.09,4177.42)">
            <g transform="matrix(1,0,0,1,275.405,429.698)">
                <path d="M0,-106.49L-63.672,-5.716L-83.798,26.143C-90.386,36.57 -105.155,37.709 -113.256,28.409C-133.304,5.398 -165.702,-31.703 -173.396,-39.999C-183.124,-50.485 -188.298,-62.435 -181.049,-73.911C-176.375,-81.31 -168.393,-85.361 -160.242,-85.361C-155.752,-85.361 -150.347,-85.103 -142.055,-76.003C-129.794,-62.545 -105.238,-31.974 -105.238,-31.974L-41.565,-132.749C-36.89,-140.148 -28.908,-144.199 -20.757,-144.199C-16.268,-144.199 -11.729,-142.975 -7.653,-140.402C3.823,-133.145 7.249,-117.966 0,-106.49" style="fill:rgb(241,142,135);fill-rule:nonzero;"/>
            </g>
        </g>
        <g transform="matrix(4.16667,0,0,4.16667,7071.09,4177.42)">
            <g transform="matrix(0.534144,-0.845393,-0.845393,-0.534144,219.062,355.727)">
                <path d="M-17.167,31.154C12.03,31.129 26.971,31.611 56.535,31.154" style="fill:none;fill-rule:nonzero;stroke:rgb(113,139,198);stroke-width:1px;"/>
            </g>
        </g>
        <g transform="matrix(4.16667,0,0,4.16667,7071.09,4177.42)">
            <g transform="matrix(0.534148,-0.845391,-0.845391,-0.534148,175.902,380.843)">
                <path d="M-4.454,8.082C1.92,8.082 8.293,8.082 14.667,8.082" style="fill:none;fill-rule:nonzero;stroke:rgb(113,139,198);stroke-width:1px;"/>
            </g>
        </g>
        <g transform="matrix(4.16667,0,0,4.16667,7071.09,4177.42)">
            <g transform="matrix(-0.661318,-0.750106,-0.750106,0.661318,117.45,387.867)">
                <path d="M-55.955,25.265C-33.677,25.101 -11.588,24.211 11.407,25.265" style="fill:none;fill-rule:nonzero;stroke:rgb(113,139,198);stroke-width:1px;"/>
            </g>
        </g>
        <g transform="matrix(4.16667,0,0,4.16667,7071.09,4177.42)">
            <g transform="matrix(-0.657074,-0.753826,-0.753826,0.657074,148.001,454.059)">
                <path d="M-9.848,4.48C-5.886,4.48 -1.923,4.478 2.038,4.48" style="fill:none;fill-rule:nonzero;stroke:rgb(113,139,198);stroke-width:1px;"/>
            </g>
        </g>
        <g transform="matrix(4.16667,0,0,4.16667,7071.09,4177.42)">
            <g transform="matrix(1,0,0,1,402.65,312.027)">
                <path d="M0,186.943C-8.387,198.326 -20.698,206.468 -34.022,211.194C-52.45,217.725 -73.064,217.885 -91.585,211.65C-105.803,206.857 -118.713,198.326 -128.789,187.221C-140.77,174.016 -152.938,161.064 -165.553,148.314C-174.581,139.184 -183.584,129.978 -191.93,120.215C-195.6,115.929 -199.33,111.516 -202.14,106.605C-203.279,104.63 -205.337,101.222 -204.03,98.877C-200.46,92.464 -181.492,93.974 -165.789,100.286C-145.445,108.462 -131.759,123.583 -126.24,120.426C-122.755,118.435 -120.19,118.216 -124.173,97.113C-132.012,55.564 -135.936,34.79 -144.896,18.217C-150.466,7.923 -160.33,-1.079 -156.955,-14.235C-156.33,-16.673 -153.233,-24.039 -148.862,-25.718C-135.286,-30.942 -118.52,-6.691 -115.33,-2.565C-111.347,2.59 -108.065,7.822 -105.365,12.877C-101.019,12.927 -95.492,13.594 -89.628,15.83C-86.261,11.982 -83.046,10.506 -81.046,9.856C-75.832,8.151 -69.63,8.995 -63.2,12.151C-61.479,9.856 -59.234,7.822 -56.307,6.843C-34.326,-0.464 -8.826,43.068 -1.35,58.34C16.353,94.455 25.677,152.103 0,186.943" style="fill:rgb(253,253,253);fill-rule:nonzero;"/>
            </g>
        </g>
        <g transform="matrix(4.16667,0,0,4.16667,7071.09,4177.42)">
            <g transform="matrix(1,0,0,1,402.65,312.027)">
                <path d="M0,186.943C-8.387,198.326 -20.698,206.468 -34.022,211.194C-52.45,217.725 -73.064,217.885 -91.585,211.65C-105.803,206.857 -118.713,198.326 -128.789,187.221C-140.77,174.016 -152.938,161.064 -165.553,148.314C-174.581,139.184 -183.584,129.978 -191.93,120.215C-195.6,115.929 -199.33,111.516 -202.14,106.605C-203.279,104.63 -205.337,101.222 -204.03,98.877C-200.46,92.464 -181.492,93.974 -165.789,100.286C-145.445,108.462 -131.759,123.583 -126.24,120.426C-122.755,118.435 -120.19,118.216 -124.173,97.113C-132.012,55.564 -135.936,34.79 -144.896,18.217C-150.466,7.923 -160.33,-1.079 -156.955,-14.235C-156.33,-16.673 -153.233,-24.039 -148.862,-25.718C-135.286,-30.942 -118.52,-6.691 -115.33,-2.565C-111.347,2.59 -108.065,7.822 -105.365,12.877C-101.019,12.927 -95.492,13.594 -89.628,15.83C-86.261,11.982 -83.046,10.506 -81.046,9.856C-75.832,8.151 -69.63,8.995 -63.2,12.151C-61.479,9.856 -59.234,7.822 -56.307,6.843C-34.326,-0.464 -8.826,43.068 -1.35,58.34C16.353,94.455 25.677,152.103 0,186.943Z" style="fill:none;fill-rule:nonzero;stroke:rgb(113,139,198);stroke-width:1px;"/>
            </g>
        </g>
        <g transform="matrix(4.16667,0,0,4.16667,7071.09,4177.42)">
            <g transform="matrix(1,0,0,1,313.022,361.331)">
                <path d="M0,-33.474C2.81,-32.411 5.704,-30.985 8.582,-29.086C24.031,-18.893 27.415,-2.903 27.972,0" style="fill:rgb(253,253,253);fill-rule:nonzero;stroke:rgb(113,139,198);stroke-width:1px;"/>
            </g>
        </g>
        <g transform="matrix(4.16667,0,0,4.16667,7071.09,4177.42)">
            <g transform="matrix(0.671019,0.74144,0.74144,-0.671019,356.846,318.452)">
                <path d="M-7.428,-16.74C3.578,-12.351 19.677,-11.739 37.729,-16.74" style="fill:rgb(253,253,253);fill-rule:nonzero;stroke:rgb(113,139,198);stroke-width:1px;"/>
            </g>
        </g>
        <g transform="matrix(4.16667,0,0,4.16667,7071.09,4177.42)">
            <g transform="matrix(1,0,0,1,297.285,367.018)">
                <path d="M0,-42.114C7.442,-28.225 10.556,-15.661 12.007,-9.611C12.952,-5.662 13.568,-2.329 13.957,0" style="fill:rgb(253,253,253);fill-rule:nonzero;stroke:rgb(113,139,198);stroke-width:1px;"/>
            </g>
        </g>
        <g transform="matrix(4.16667,0,0,4.16667,7071.09,4177.42)">
            <g transform="matrix(-0.33408,-0.942545,-0.942545,0.33408,333.618,470.263)">
                <path d="M-58.837,-83.665C-81.027,-85.503 -77.402,-54.984 -77.402,-19.606C-77.403,15.773 -79.422,45.03 -58.837,44.454C-38.252,43.878 -40.272,15.774 -40.271,-19.605C-40.272,-54.985 -36.649,-81.828 -58.837,-83.665" style="fill:rgb(118,202,188);fill-rule:nonzero;"/>
            </g>
        </g>
        <g transform="matrix(4.16667,0,0,4.16667,7071.09,4177.42)">
            <g transform="matrix(0.23989,0.9708,0.9708,-0.23989,387.626,490.613)">
                <path d="M23.061,-18.056C38.792,-18.056 51.547,-7.42 51.546,5.699C51.547,18.818 38.792,29.453 23.061,29.453C7.328,29.453 -5.425,18.817 -5.426,5.698C-5.426,-7.421 7.329,-18.056 23.061,-18.056" style="fill:rgb(156,215,210);fill-rule:nonzero;"/>
            </g>
        </g>
        <g transform="matrix(4.16667,0,0,4.16667,7071.09,4177.42)">
            <g transform="matrix(0.23991,0.970795,0.970795,-0.23991,391.143,489.744)">
                <path d="M23.061,-18.056C38.792,-18.056 51.547,-7.42 51.547,5.699C51.547,18.818 38.793,29.453 23.061,29.454C7.328,29.453 -5.425,18.818 -5.426,5.699C-5.425,-7.42 7.329,-18.055 23.061,-18.056" style="fill:rgb(253,253,253);fill-rule:nonzero;"/>
            </g>
        </g>
        <g transform="matrix(4.16667,0,0,4.16667,7071.09,4177.42)">
            <g transform="matrix(0.23991,0.970795,0.970795,-0.23991,391.143,489.744)">
                <ellipse cx="23.061" cy="5.699" rx="28.487" ry="23.755" style="fill:none;stroke:rgb(113,139,198);stroke-width:1px;"/>
            </g>
        </g>
        <g transform="matrix(4.16667,0,0,4.16667,7071.09,4177.42)">
            <g transform="matrix(0.24001,0.97077,0.97077,-0.24001,401.144,508.744)">
                <path d="M2.216,-1.735C3.728,-1.736 4.953,-0.713 4.954,0.548C4.955,1.809 3.728,2.831 2.216,2.832C0.705,2.831 -0.521,1.809 -0.522,0.549C-0.522,-0.713 0.704,-1.735 2.216,-1.735" style="fill:rgb(253,253,253);fill-rule:nonzero;"/>
            </g>
        </g>
    </g>
</svg>
