<?xml version="1.0" encoding="UTF-8" standalone="no"?>
<!DOCTYPE svg PUBLIC "-//W3C//DTD SVG 1.1//EN" "http://www.w3.org/Graphics/SVG/1.1/DTD/svg11.dtd">
<svg width="100%" height="100%" viewBox="0 0 1555 1659" version="1.1" xmlns="http://www.w3.org/2000/svg" xmlns:xlink="http://www.w3.org/1999/xlink" xml:space="preserve" xmlns:serif="http://www.serif.com/" style="fill-rule:evenodd;clip-rule:evenodd;stroke-linecap:round;stroke-miterlimit:10;">
    <g transform="matrix(1,0,0,1,-235.694,-9271.15)">
        <g transform="matrix(4.16667,0,0,4.16667,0,8354.83)">
            <g transform="matrix(1,0,0,1,239.95,608.382)">
                <path d="M0,-265.026C0,-265.026 138.534,-269.621 172.684,-258.582C183.181,-255.188 188.728,-246.082 181.436,-236.081C172.043,-223.2 151.86,-219.588 137.275,-217.026C122.021,-214.346 33.223,-214.57 33.742,-209.213C34.578,-200.598 138.537,-215.367 169.769,-176.882C184.936,-158.194 179.567,-133.374 174.583,-110.327C160.767,-46.441 110.788,-7.099 95.509,4.595" style="fill:none;fill-rule:nonzero;stroke:rgb(113,139,198);stroke-width:1px;"/>
            </g>
        </g>
        <g transform="matrix(4.16667,0,0,4.16667,0,8354.83)">
            <g transform="matrix(0,-1,-1,0,178.112,260.363)">
                <path d="M-7.11,-7.109C-11.814,-7.109 -15.627,-3.925 -15.627,0C-15.627,3.927 -11.814,7.11 -7.11,7.11C-2.406,7.11 1.408,3.927 1.408,0C1.408,-3.925 -2.406,-7.109 -7.11,-7.109" style="fill:rgb(253,253,253);fill-rule:nonzero;"/>
            </g>
        </g>
        <g transform="matrix(4.16667,0,0,4.16667,0,8354.83)">
            <g transform="matrix(0,-1,-1,0,178.112,260.363)">
                <ellipse cx="-7.109" cy="0" rx="8.518" ry="7.11" style="fill:none;stroke:rgb(113,139,198);stroke-width:1px;"/>
            </g>
        </g>
        <g transform="matrix(4.16667,0,0,4.16667,0,8354.83)">
            <g transform="matrix(1,0,0,1,61.5915,352.937)">
                <path d="M0,168.796C63.546,119.708 187.227,97.018 248.795,95.454C290.521,94.395 287.545,82.787 282.867,81.834C240.104,73.114 132.761,55.804 132.101,41.291C131.361,25.034 324.612,35.256 325.494,12.26C325.964,0 173.194,4.284 173.194,4.284" style="fill:none;fill-rule:nonzero;stroke:rgb(113,139,198);stroke-width:1px;"/>
            </g>
        </g>
        <g transform="matrix(4.16667,0,0,4.16667,0,8354.83)">
            <g transform="matrix(0,-1,-1,0,199.687,239.309)">
                <path d="M-23.423,-23.423C-41.972,-23.423 -57.009,-12.936 -57.009,-0.001C-57.009,12.935 -41.972,23.423 -23.423,23.423C-4.874,23.423 10.163,12.935 10.163,-0.001C10.163,-12.936 -4.874,-23.423 -23.423,-23.423" style="fill:rgb(253,253,253);fill-rule:nonzero;"/>
            </g>
        </g>
        <g transform="matrix(4.16667,0,0,4.16667,0,8354.83)">
            <g transform="matrix(0,-1,-1,0,199.687,239.309)">
                <ellipse cx="-23.423" cy="0" rx="33.586" ry="23.423" style="fill:none;stroke:rgb(113,139,198);stroke-width:1px;"/>
            </g>
        </g>
        <g transform="matrix(4.16667,0,0,4.16667,0,8354.83)">
            <g transform="matrix(1,0,0,1,230.995,237.964)">
                <path d="M0,-5.02C1.218,-5.777 3.174,-6.708 5.474,-6.485C7.622,-6.276 9.022,-5.161 10.717,-3.941C12.793,-2.445 15.775,-0.456 19.736,1.688" style="fill:rgb(253,253,253);fill-rule:nonzero;stroke:rgb(113,139,198);stroke-width:1px;"/>
            </g>
        </g>
        <g transform="matrix(4.16667,0,0,4.16667,0,8354.83)">
            <g transform="matrix(1,0,0,1,226.733,246.467)">
                <path d="M0,-13.782C0.54,-14.392 1.471,-15.255 2.27,-15.467C4.208,-15.98 6.088,-14.646 6.814,-14.155C9.676,-12.22 12.896,-10.903 16.16,-9.813C19.417,-8.725 22.765,-7.943 25.889,-6.487C26.729,-6.095 27.588,-5.69 28.397,-5.239C28.653,-5.096 28.895,-4.883 28.962,-4.596C29.005,-4.417 28.975,-4.228 28.937,-4.048C28.611,-2.465 27.286,0.591 25.826,1.402C24.391,2.198 22.714,1.875 21.17,1.696C18.447,1.377 15.776,0.734 13.061,0.393C9.147,-0.097 4.752,-0.375 1.242,-2.338C0.735,-2.621 0.208,-2.95 0.03,-3.54C-0.227,-4.397 0.409,-5.232 1.147,-5.595C1.743,-5.889 2.426,-5.955 3.091,-5.958C6.332,-5.972 9.576,-5.845 12.82,-5.857C13.214,-5.859 13.746,-5.772 14.13,-5.884C14.13,-5.884 -6.481,-9.917 -6.491,-9.92C-7.224,-10.091 -7.914,-10.535 -8.359,-11.21C-8.767,-11.826 -9.077,-12.724 -8.762,-13.486C-8.599,-13.882 -8.292,-14.187 -7.953,-14.4C-7.372,-14.766 -6.643,-15.015 -5.981,-14.999C-5.104,-14.977 -4.263,-14.672 -3.408,-14.494C-2.166,-14.234 -0.923,-13.975 0.32,-13.716C3.676,-13.015 7.379,-11.761 10.799,-10.211" style="fill:rgb(253,253,253);fill-rule:nonzero;stroke:rgb(113,139,198);stroke-width:1px;"/>
            </g>
        </g>
        <g transform="matrix(4.16667,0,0,4.16667,0,8354.83)">
            <g transform="matrix(1,0,0,1,228.091,241.552)">
                <path d="M0,-3.468C3.541,-2.938 6.658,-2.297 9.919,-1.697C12.652,-1.194 15.226,-0.616 17.629,0" style="fill:rgb(253,253,253);fill-rule:nonzero;stroke:rgb(113,139,198);stroke-width:1px;"/>
            </g>
        </g>
        <g transform="matrix(4.16667,0,0,4.16667,0,8354.83)">
            <g transform="matrix(1,0,0,1,132.283,406.165)">
                <path d="M0,-25.335C-1.77,-31.389 -10.661,-42.689 -23.451,-52.134C-23.005,-55.708 -21.375,-58.318 -20.666,-59.554C-15.418,-68.69 -5.957,-71.214 -2.216,-72.222C0.973,-73.071 3.986,-73.378 6.702,-73.369C3.461,-58.87 1.893,-42.111 0,-25.335M188.877,-139.52C179.582,-159.003 160.082,-174.133 138.574,-177.155C135.43,-177.602 131.636,-177.891 128.553,-176.875C123.567,-175.236 119.45,-171.724 117.979,-166.476C113.8,-151.583 123.874,-140.282 134.649,-131.478C149.998,-118.933 154.37,-111.688 152.959,-108.858C150.83,-104.592 133.047,-112.161 101.246,-116.839C89.095,-118.635 72.521,-120.991 52.433,-119.87C39.8,-119.16 20.509,-116.647 -1.848,-108.429C-23.285,-100.553 -46.299,-87.736 -53.08,-64.275C-62.962,-30.083 -33.701,1.998 -18.511,11.415C-16.294,12.791 -8.944,17.354 -5.046,14.718C-10.346,63.217 -9.487,106.923 -6.062,143.944C0.562,147.055 9.243,150.06 19.677,151.216C31.792,152.556 42.218,150.962 49.997,148.859C48.087,124.075 49.112,94.763 56.804,62.357C57.364,60.001 58.626,54.701 59.809,49.883C59.853,50.032 59.888,50.189 59.932,50.338C68.929,83.795 79.651,133.756 82.577,147.589C91.784,148.851 103.742,149.385 117.374,147.177C121.685,146.477 125.714,145.574 129.455,144.558C133.187,143.533 136.63,142.402 139.757,141.228C139.6,139.494 139.363,136.831 139.074,133.59C132.416,58.337 115.236,39.23 110.777,0.07C110.208,-4.914 109.394,-11.345 108.719,-18.782C108.438,-22.023 108.176,-25.458 107.974,-29.041C107.316,-41.069 107.369,-54.841 109.41,-68.963C110.497,-68.84 111.565,-68.726 112.626,-68.63C136.595,-66.466 165.898,-71.608 175.78,-79.606C186.118,-87.973 190.577,-98.179 190.577,-98.179C191.996,-101.394 193.047,-104.863 193.695,-108.656C195.474,-119.16 193.424,-129.962 188.877,-139.52" style="fill:rgb(118,202,188);fill-rule:nonzero;"/>
            </g>
        </g>
        <g transform="matrix(4.16667,0,0,4.16667,0,8354.83)">
            <g transform="matrix(1,0,0,1,241.002,289.843)">
                <path d="M0,99.291C-0.763,99.37 -1.674,99.414 -2.751,99.396C-12.273,99.405 -17.372,93.79 -17.863,88.297C-17.881,88.103 -17.89,87.902 -17.89,87.701L-17.89,8.55C-17.89,6.5 -16.952,4.634 -15.384,3.145C-13.272,1.156 -10.022,-0.123 -6.369,-0.123C-4.267,-0.123 -2.296,0.306 -0.596,1.042C-3.417,2.26 -5.484,4.353 -6.142,6.833L-6.142,82.331C-6.142,84.626 -3.68,88.314 -0.745,89.032C-0.543,92.615 -0.28,96.05 0,99.291Z" style="fill:none;fill-rule:nonzero;stroke:rgb(253,253,253);stroke-width:1px;"/>
            </g>
        </g>
        <g transform="matrix(4.16667,0,0,4.16667,0,8354.83)">
            <g transform="matrix(1,0,0,1,169.735,288.258)">
                <path d="M0,99.11C-0.763,99.191 -1.674,99.236 -2.751,99.217C-12.274,99.226 -17.373,95.257 -17.863,89.614C-17.881,89.416 -17.89,89.209 -17.89,89.003L-17.89,9.434C-17.89,7.328 -16.952,5.411 -15.384,3.881C-13.272,1.838 -9.798,1.173 -6.369,0.524C-2.941,-0.126 -0.596,-0.032 -0.596,-0.032C-0.596,-0.032 -6.142,3.888 -6.142,7.671L-6.142,83.485C-6.142,85.842 -3.68,87.832 -0.745,88.57C-0.544,92.252 -0.281,95.78 0,99.11Z" style="fill:none;fill-rule:nonzero;stroke:rgb(253,253,253);stroke-width:1px;"/>
            </g>
        </g>
        <g transform="matrix(4.16667,0,0,4.16667,0,8354.83)">
            <g transform="matrix(1,0,0,1,108.832,332.674)">
                <path d="M0,21.357C0.455,18.983 1.305,16.399 2.785,13.823C8.033,4.686 17.494,2.163 21.235,1.156C24.424,0.305 27.437,0 30.153,0.007" style="fill:none;fill-rule:nonzero;stroke:rgb(113,139,198);stroke-width:1px;"/>
            </g>
        </g>
        <g transform="matrix(4.16667,0,0,4.16667,0,8354.83)">
            <g transform="matrix(1,0,0,1,126.221,332.682)">
                <path d="M0,217.314C-3.426,180.292 -4.284,136.585 1.016,88.087L1.024,88.087C1.796,80.904 2.716,73.615 3.784,66.23C4.056,64.346 4.31,62.454 4.555,60.552C5.099,56.4 5.598,52.212 6.062,48.034C7.954,31.257 9.522,14.499 12.764,0" style="fill:none;fill-rule:nonzero;stroke:rgb(113,139,198);stroke-width:1px;"/>
            </g>
        </g>
        <g transform="matrix(4.16667,0,0,4.16667,0,8354.83)">
            <g transform="matrix(1,0,0,1,188.574,553.34)">
                <path d="M0,-107.382C0,-107.382 1.258,-105.235 3.641,-96.95C12.638,-63.494 23.273,-13.833 26.199,0" style="fill:none;fill-rule:nonzero;stroke:rgb(113,139,198);stroke-width:1px;"/>
            </g>
        </g>
        <g transform="matrix(4.16667,0,0,4.16667,0,8354.83)">
            <g transform="matrix(1,0,0,1,142.636,581.44)">
                <path d="M0,-23.345L15.563,-21.863L15.563,-12.043L40.02,-1.112L-6.113,0L0,-23.345Z" style="fill:rgb(113,139,198);fill-rule:nonzero;"/>
            </g>
        </g>
        <g transform="matrix(4.16667,0,0,4.16667,0,8354.83)">
            <g transform="matrix(1,0,0,1,221.772,238.418)">
                <path d="M0,-7.989L1.752,10.198C1.752,10.303 1.752,10.407 1.743,10.513L-44.556,10.513C-44.564,10.407 -44.564,10.303 -44.564,10.198L-42.813,-7.989C-42.813,-13.771 -38.082,-18.502 -32.3,-18.502L-10.513,-18.502C-4.73,-18.502 0,-13.771 0,-7.989" style="fill:rgb(113,139,198);fill-rule:nonzero;"/>
            </g>
        </g>
        <g transform="matrix(4.16667,0,0,4.16667,0,8354.83)">
            <g transform="matrix(1,0,0,1,239.95,254.03)">
                <path d="M0,0C0,1.401 -0.569,2.672 -1.498,3.601C-2.427,4.529 -3.696,5.099 -5.099,5.099L-74.062,5.099C-76.864,5.099 -79.16,2.803 -79.16,0C-79.16,-1.401 -78.591,-2.672 -77.662,-3.601C-76.733,-4.529 -75.463,-5.099 -74.062,-5.099L-5.099,-5.099C-2.295,-5.099 0,-2.804 0,0" style="fill:rgb(113,139,198);fill-rule:nonzero;"/>
            </g>
        </g>
        <g transform="matrix(4.16667,0,0,4.16667,0,8354.83)">
            <g transform="matrix(1,0,0,1,229.622,421.171)">
                <path d="M0,-110.207L0,-5.633C0,0.149 -4.73,4.88 -10.513,4.88L-79.081,4.88C-84.863,4.88 -89.594,0.149 -89.594,-5.633L-89.594,-56.628C-87.93,-55.516 -85.933,-54.867 -83.795,-54.867L-17.021,-54.867C-11.24,-54.867 -6.51,-59.598 -6.51,-65.38L-6.51,-110.207C-6.51,-110.392 -6.518,-110.566 -6.526,-110.75C-6.535,-110.768 -6.535,-110.776 -6.526,-110.785C-6.396,-113.186 -4.416,-115.087 -1.989,-115.087C-1.709,-115.087 -1.428,-115.061 -1.165,-115.008C-0.421,-113.571 0,-111.933 0,-110.207" style="fill:rgb(253,253,253);fill-rule:nonzero;"/>
            </g>
        </g>
        <g transform="matrix(4.16667,0,0,4.16667,0,8354.83)">
            <g transform="matrix(1,0,0,1,228.457,360.593)">
                <path d="M0,-54.429C-0.263,-54.482 -0.544,-54.508 -0.824,-54.508C-3.251,-54.508 -5.23,-52.607 -5.361,-50.206C-5.37,-50.198 -5.37,-50.189 -5.361,-50.171C-5.353,-49.988 -5.345,-49.813 -5.345,-49.628L-5.345,-4.801C-5.345,0.981 -10.075,5.712 -15.856,5.712L-82.63,5.712C-84.768,5.712 -86.765,5.063 -88.429,3.951C-91.268,2.068 -93.143,-1.157 -93.143,-4.801L-93.143,-49.628C-93.143,-55.41 -88.411,-60.141 -82.63,-60.141L-9.348,-60.141C-5.292,-60.141 -1.752,-57.811 0,-54.429" style="fill:rgb(214,221,240);fill-rule:nonzero;"/>
            </g>
        </g>
        <g transform="matrix(4.16667,0,0,4.16667,0,8354.83)">
            <g transform="matrix(1,0,0,1,229.622,421.171)">
                <path d="M0,-110.207L0,-5.633C0,0.149 -4.73,4.88 -10.513,4.88L-14.245,4.88C-20.026,4.88 -24.758,0.149 -24.758,-5.633L-24.758,-54.867L-17.021,-54.867C-11.24,-54.867 -6.51,-59.598 -6.51,-65.38L-6.51,-110.207C-6.51,-110.392 -6.523,-110.619 -6.526,-110.785C-6.345,-113.249 -4.416,-115.087 -1.989,-115.087C-1.709,-115.087 -1.428,-115.061 -1.165,-115.008C-0.421,-113.571 0,-111.933 0,-110.207" style="fill:rgb(113,139,198);fill-rule:nonzero;"/>
            </g>
        </g>
        <g transform="matrix(4.16667,0,0,4.16667,0,8354.83)">
            <g transform="matrix(1,0,0,1,187.699,353.813)">
                <path d="M0,18.876C1.955,18.876 3.555,17.276 3.555,15.322L3.555,3.555C3.555,1.6 1.955,0 0,0C-1.955,0 -3.555,1.6 -3.555,3.555L-3.555,15.322C-3.555,17.276 -1.955,18.876 0,18.876" style="fill:rgb(241,142,135);fill-rule:nonzero;"/>
            </g>
        </g>
        <g transform="matrix(4.16667,0,0,4.16667,0,8354.83)">
            <g transform="matrix(1,0,0,1,148.433,353.813)">
                <path d="M0,18.876C1.955,18.876 3.555,17.276 3.555,15.322L3.555,3.555C3.555,1.6 1.955,0 0,0C-1.955,0 -3.555,1.6 -3.555,3.555L-3.555,15.322C-3.555,17.276 -1.955,18.876 0,18.876" style="fill:rgb(241,142,135);fill-rule:nonzero;"/>
            </g>
        </g>
        <g transform="matrix(4.16667,0,0,4.16667,0,8354.83)">
            <g transform="matrix(1,0,0,1,154.17,375.536)">
                <path d="M0,37.831L32.73,37.831C39.33,37.831 44.73,32.431 44.73,25.831L44.73,12C44.73,5.399 39.33,0 32.73,0L0,0C-6.6,0 -12,5.399 -12,12L-12,25.831C-12,32.431 -6.6,37.831 0,37.831Z" style="fill:rgb(253,253,253);fill-rule:nonzero;stroke:rgb(113,139,198);stroke-width:1px;"/>
            </g>
        </g>
        <g transform="matrix(4.16667,0,0,4.16667,0,8354.83)">
            <g transform="matrix(1,0,0,1,144.93,386.987)">
                <path d="M0,3.886L49.078,3.886C50.146,3.886 51.021,3.012 51.021,1.944C51.021,0.874 50.146,0 49.078,0L0,0C-1.068,0 -1.942,0.874 -1.942,1.944C-1.942,3.012 -1.068,3.886 0,3.886" style="fill:rgb(113,139,198);fill-rule:nonzero;"/>
            </g>
        </g>
        <g transform="matrix(4.16667,0,0,4.16667,0,8354.83)">
            <g transform="matrix(1,0,0,1,102.253,380.715)">
                <path d="M0,-31.038C2.313,-29.628 4.512,-28.165 6.579,-26.684C20,-17.03 28.209,-6.22 30.03,0" style="fill:none;fill-rule:nonzero;stroke:rgb(113,139,198);stroke-width:1px;"/>
            </g>
        </g>
        <g transform="matrix(4.16667,0,0,4.16667,0,8354.83)">
            <g transform="matrix(1,0,0,1,230.94,580.388)">
                <path d="M0,-23.394L14.525,-23.357L19.607,-12.383L44.267,0L-3.164,-0.504L0,-23.394Z" style="fill:rgb(113,139,198);fill-rule:nonzero;"/>
            </g>
        </g>
        <g transform="matrix(4.16667,0,0,4.16667,0,8354.83)">
            <g transform="matrix(1,0,0,1,247.024,561.135)">
                <path d="M0,0.436C1.014,-1.181 3.232,-4.473 4.526,-4.009C4.785,-3.917 5.001,-3.676 5.073,-3.421C5.531,-1.801 0.19,0.479 0.408,0.875C0.616,1.251 5.317,-1.026 6.214,0.082C6.358,0.26 6.397,0.519 6.326,0.718C5.856,2.026 0.515,1.006 0.475,1.361C0.45,1.58 2.502,1.79 4.619,3.132C5.587,3.746 6.282,4.415 6.735,4.909" style="fill:none;fill-rule:nonzero;stroke:rgb(113,139,198);stroke-width:1px;"/>
            </g>
        </g>
        <g transform="matrix(4.16667,0,0,4.16667,0,8354.83)">
            <g transform="matrix(1,0,0,1,174.886,249.329)">
                <path d="M0,0L50.56,0" style="fill:none;fill-rule:nonzero;stroke:rgb(66,99,174);stroke-width:1px;"/>
            </g>
        </g>
        <g transform="matrix(4.16667,0,0,4.16667,0,8354.83)">
            <g transform="matrix(0,-1,-1,0,221.817,260.363)">
                <path d="M-7.11,-7.109C-11.814,-7.109 -15.627,-3.925 -15.627,0C-15.627,3.927 -11.814,7.11 -7.11,7.11C-2.406,7.11 1.408,3.927 1.408,0C1.408,-3.925 -2.406,-7.109 -7.11,-7.109" style="fill:rgb(253,253,253);fill-rule:nonzero;"/>
            </g>
        </g>
        <g transform="matrix(4.16667,0,0,4.16667,0,8354.83)">
            <g transform="matrix(0,-1,-1,0,221.817,260.363)">
                <ellipse cx="-7.109" cy="0" rx="8.518" ry="7.11" style="fill:none;stroke:rgb(113,139,198);stroke-width:1px;"/>
            </g>
        </g>
        <g transform="matrix(4.16667,0,0,4.16667,0,8354.83)">
            <g transform="matrix(1,0,0,1,300.032,588.196)">
                <path d="M0,-82.963C-0.076,-81.664 -0.501,-80.631 -0.949,-80.654C-1.405,-80.685 -1.709,-81.756 -1.641,-83.054C-1.564,-84.353 -1.14,-85.386 -0.684,-85.363C-0.235,-85.333 0.076,-84.262 0,-82.963M14.286,8.213C13.808,-6.066 12.364,-17.709 10.967,-26.261C9.296,-36.46 7.671,-42.498 6.684,-45.885C4.822,-52.25 2.757,-57.68 0.903,-62.025C1.755,-61.872 2.62,-61.85 3.479,-61.963C7.724,-62.51 10.754,-66.179 11.658,-69.824C10.132,-69.855 8.833,-70.53 8.301,-71.503C7.526,-72.9 8.119,-75.308 10.078,-76.75C9.175,-77.996 7.884,-79.523 6.091,-81.619C-2.035,-91.097 -3.693,-94.14 -8.521,-96.793C-13.987,-99.796 -21.402,-98.191 -26.179,-95.486C-36.538,-89.616 -37.792,-74.206 -38.779,-53.541C-39.493,-38.746 -40.085,-20.951 -40.207,-0.575C-42.972,1.544 -46.384,3.798 -50.392,5.979C-61.549,12.053 -64.912,14.124 -64.617,15.132C-64.373,15.968 -62.847,15.45 -44.68,14.979C-43.169,14.941 -41.673,14.903 -40.207,14.881C-1.048,14.099 21.736,16.833 22.291,13.308C22.534,11.744 18.296,9.42 14.286,8.213" style="fill:rgb(250,242,203);fill-rule:nonzero;"/>
            </g>
        </g>
        <g transform="matrix(4.16667,0,0,4.16667,0,8354.83)">
            <g transform="matrix(-0.134541,-0.990908,-0.990908,0.134541,310.749,512.557)">
                <path d="M-3.774,-0.714C-4.473,-0.619 -5.184,-0.429 -5.889,-0.151C-5.654,1.358 -4.809,2.554 -3.774,2.95C-2.286,3.53 0.021,2.619 1.187,0.484C-0.888,-0.63 -2.194,-0.936 -3.774,-0.714" style="fill:rgb(66,99,174);fill-rule:nonzero;"/>
            </g>
        </g>
        <g transform="matrix(4.16667,0,0,4.16667,0,8354.83)">
            <g transform="matrix(1,0,0,1,279.412,542.539)">
                <path d="M0,-41.567C-1.315,-37.228 -3.018,-29.57 -1.527,-20.359C-1.134,-17.921 1.549,-1.334 8.975,-0.435C12.581,0 16.114,-3.406 17.764,-6.065C19.03,-8.11 20.179,-11.318 17.736,-25.002C17.052,-28.838 15.958,-34.21 14.196,-40.6" style="fill:none;fill-rule:nonzero;stroke:rgb(113,139,198);stroke-width:1px;"/>
            </g>
        </g>
        <g transform="matrix(4.16667,0,0,4.16667,0,8354.83)">
            <g transform="matrix(1,0,0,1,307.55,556.437)">
                <path d="M0,39.083C2.378,33.151 5.811,21.781 1.808,11.073C-0.113,5.932 -2.59,4.033 -3.69,3.304C-4.397,2.841 -5.134,2.468 -5.878,2.18C-11.452,0 -17.673,2.399 -19.374,3.137C-29.687,7.609 -31.981,19.617 -32.209,20.916" style="fill:none;fill-rule:nonzero;stroke:rgb(113,139,198);stroke-width:1px;"/>
            </g>
        </g>
        <g transform="matrix(4.16667,0,0,4.16667,0,8354.83)">
            <g transform="matrix(1,0,0,1,301.695,595.459)">
                <path d="M0,1.063C1.458,0.615 3.479,0.144 5.855,0.061C7.397,0 9.084,0.106 10.868,0.494C11.438,0.615 12.03,0.775 12.623,0.95" style="fill:none;fill-rule:nonzero;stroke:rgb(113,139,198);stroke-width:1px;"/>
            </g>
        </g>
        <g transform="matrix(4.16667,0,0,4.16667,0,8354.83)">
            <g transform="matrix(-0.140278,-0.990112,-0.990112,0.140278,306.848,550.618)">
                <path d="M-7.194,6.247C-2.982,6.249 1.222,6.251 5.424,6.247" style="fill:none;fill-rule:nonzero;stroke:rgb(113,139,198);stroke-width:1px;"/>
            </g>
        </g>
        <g transform="matrix(4.16667,0,0,4.16667,0,8354.83)">
            <g transform="matrix(0.0553689,-0.998466,-0.998466,-0.0553689,299.306,504.375)">
                <path d="M-0.817,-0.772C-2.118,-0.768 -3.173,-0.401 -3.175,0.047C-3.169,0.504 -2.116,0.867 -0.817,0.871C0.485,0.866 1.539,0.5 1.542,0.044C1.537,-0.406 0.484,-0.776 -0.817,-0.772" style="fill:rgb(66,99,174);fill-rule:nonzero;"/>
            </g>
        </g>
        <g transform="matrix(4.16667,0,0,4.16667,0,8354.83)">
            <g transform="matrix(1,0,0,1,282.089,304.62)">
                <path d="M0,-15.343C0.88,-14.443 2.536,-12.491 3.267,-9.519C4.436,-4.763 2.368,-0.913 1.845,0" style="fill:none;fill-rule:nonzero;stroke:rgb(113,139,198);stroke-width:1px;"/>
            </g>
        </g>
        <g transform="matrix(4.16667,0,0,4.16667,0,8354.83)">
            <g transform="matrix(1,0,0,1,157.589,565.617)">
                <path d="M0,0.435C1.015,-1.182 3.233,-4.474 4.526,-4.01C4.785,-3.918 5.001,-3.677 5.073,-3.422C5.531,-1.802 0.19,0.478 0.409,0.874C0.616,1.25 5.317,-1.027 6.214,0.081C6.358,0.259 6.397,0.518 6.326,0.717C5.856,2.025 0.515,1.005 0.475,1.36C0.45,1.579 2.502,1.789 4.619,3.131C5.587,3.745 6.282,4.414 6.735,4.909" style="fill:none;fill-rule:nonzero;stroke:rgb(113,139,198);stroke-width:1px;"/>
            </g>
        </g>
    </g>
</svg>
