<?xml version="1.0" encoding="UTF-8" standalone="no"?>
<!DOCTYPE svg PUBLIC "-//W3C//DTD SVG 1.1//EN" "http://www.w3.org/Graphics/SVG/1.1/DTD/svg11.dtd">
<svg width="100%" height="100%" viewBox="0 0 1436 1367" version="1.1" xmlns="http://www.w3.org/2000/svg" xmlns:xlink="http://www.w3.org/1999/xlink" xml:space="preserve" xmlns:serif="http://www.serif.com/" style="fill-rule:evenodd;clip-rule:evenodd;stroke-linecap:round;stroke-miterlimit:10;">
    <g transform="matrix(1,0,0,1,-5025.07,-9380.33)">
        <g transform="matrix(4.16667,0,0,4.16667,4714.06,8354.83)">
            <g transform="matrix(1,0,0,1,167.966,251.146)">
                <path d="M0,43.556L-68.234,43.556C-74.834,43.556 -80.234,38.156 -80.234,31.556L-80.234,12C-80.234,5.401 -74.834,0 -68.234,0L0,0C6.601,0 12,5.401 12,12L12,31.556C12,38.156 6.601,43.556 0,43.556Z" style="fill:rgb(118,202,188);fill-rule:nonzero;stroke:rgb(253,253,253);stroke-width:1px;"/>
            </g>
        </g>
        <g transform="matrix(4.16667,0,0,4.16667,4714.06,8354.83)">
            <g transform="matrix(1,0,0,1,322.556,251.146)">
                <path d="M0,43.556L-68.234,43.556C-74.835,43.556 -80.234,38.156 -80.234,31.556L-80.234,12C-80.234,5.401 -74.835,0 -68.234,0L0,0C6.601,0 12,5.401 12,12L12,31.556C12,38.156 6.601,43.556 0,43.556Z" style="fill:rgb(118,202,188);fill-rule:nonzero;stroke:rgb(253,253,253);stroke-width:1px;"/>
            </g>
        </g>
        <g transform="matrix(4.16667,0,0,4.16667,4714.06,8354.83)">
            <g transform="matrix(1,0,0,1,230.322,251.146)">
                <path d="M0,43.556L-38.355,43.556C-44.955,43.556 -50.355,38.156 -50.355,31.556L-50.355,12C-50.355,5.401 -44.955,0 -38.355,0L0,0C6.6,0 12,5.401 12,12L12,31.556C12,38.156 6.6,43.556 0,43.556Z" style="fill:rgb(156,215,210);fill-rule:nonzero;stroke:rgb(253,253,253);stroke-width:1px;"/>
            </g>
        </g>
        <g transform="matrix(4.16667,0,0,4.16667,4714.06,8354.83)">
            <g transform="matrix(1,0,0,1,230.322,294.701)">
                <path d="M0,43.555L-68.235,43.555C-74.835,43.555 -80.235,38.156 -80.235,31.555L-80.235,12C-80.235,5.4 -74.835,0 -68.235,0L0,0C6.6,0 12,5.4 12,12L12,31.555C12,38.156 6.6,43.555 0,43.555Z" style="fill:rgb(118,202,188);fill-rule:nonzero;stroke:rgb(253,253,253);stroke-width:1px;"/>
            </g>
        </g>
        <g transform="matrix(4.16667,0,0,4.16667,4714.06,8354.83)">
            <g transform="matrix(1,0,0,1,384.911,294.701)">
                <path d="M0,43.555L-68.234,43.555C-74.834,43.555 -80.234,38.156 -80.234,31.555L-80.234,12C-80.234,5.4 -74.834,0 -68.234,0L0,0C6.601,0 12,5.4 12,12L12,31.555C12,38.156 6.601,43.555 0,43.555Z" style="fill:rgb(118,202,188);fill-rule:nonzero;stroke:rgb(253,253,253);stroke-width:1px;"/>
            </g>
        </g>
        <g transform="matrix(4.16667,0,0,4.16667,4714.06,8354.83)">
            <g transform="matrix(1,0,0,1,292.676,294.701)">
                <path d="M0,43.555L-38.354,43.555C-44.955,43.555 -50.354,38.156 -50.354,31.555L-50.354,12C-50.354,5.4 -44.955,0 -38.354,0L0,0C6.6,0 12,5.4 12,12L12,31.555C12,38.156 6.6,43.555 0,43.555Z" style="fill:rgb(156,215,210);fill-rule:nonzero;stroke:rgb(253,253,253);stroke-width:1px;"/>
            </g>
        </g>
        <g transform="matrix(4.16667,0,0,4.16667,4714.06,8354.83)">
            <g transform="matrix(1,0,0,1,138.086,294.701)">
                <path d="M0,43.555L-38.354,43.555C-44.954,43.555 -50.354,38.156 -50.354,31.555L-50.354,12C-50.354,5.4 -44.954,0 -38.354,0L0,0C6.601,0 12,5.4 12,12L12,31.555C12,38.156 6.601,43.555 0,43.555Z" style="fill:rgb(156,215,210);fill-rule:nonzero;stroke:rgb(253,253,253);stroke-width:1px;"/>
            </g>
        </g>
        <g transform="matrix(4.16667,0,0,4.16667,4714.06,8354.83)">
            <g transform="matrix(1,0,0,1,384.911,251.146)">
                <path d="M0,43.556L-38.354,43.556C-44.954,43.556 -50.354,38.156 -50.354,31.556L-50.354,12C-50.354,5.401 -44.954,0 -38.354,0L0,0C6.601,0 12,5.401 12,12L12,31.556C12,38.156 6.601,43.556 0,43.556Z" style="fill:rgb(156,215,210);fill-rule:nonzero;stroke:rgb(253,253,253);stroke-width:1px;"/>
            </g>
        </g>
        <g transform="matrix(4.16667,0,0,4.16667,4714.06,8354.83)">
            <g transform="matrix(1,0,0,1,167.966,512.478)">
                <path d="M0,43.555L-68.234,43.555C-74.834,43.555 -80.234,38.156 -80.234,31.555L-80.234,12C-80.234,5.4 -74.834,0 -68.234,0L0,0C6.601,0 12,5.4 12,12L12,31.555C12,38.156 6.601,43.555 0,43.555Z" style="fill:rgb(118,202,188);fill-rule:nonzero;stroke:rgb(253,253,253);stroke-width:1px;"/>
            </g>
        </g>
        <g transform="matrix(4.16667,0,0,4.16667,4714.06,8354.83)">
            <g transform="matrix(1,0,0,1,322.556,512.478)">
                <path d="M0,43.555L-68.234,43.555C-74.835,43.555 -80.234,38.156 -80.234,31.555L-80.234,12C-80.234,5.4 -74.835,0 -68.234,0L0,0C6.601,0 12,5.4 12,12L12,31.555C12,38.156 6.601,43.555 0,43.555Z" style="fill:rgb(118,202,188);fill-rule:nonzero;stroke:rgb(253,253,253);stroke-width:1px;"/>
            </g>
        </g>
        <g transform="matrix(4.16667,0,0,4.16667,4714.06,8354.83)">
            <g transform="matrix(1,0,0,1,230.322,512.478)">
                <path d="M0,43.555L-38.355,43.555C-44.955,43.555 -50.355,38.156 -50.355,31.555L-50.355,12C-50.355,5.4 -44.955,0 -38.355,0L0,0C6.6,0 12,5.4 12,12L12,31.555C12,38.156 6.6,43.555 0,43.555Z" style="fill:rgb(156,215,210);fill-rule:nonzero;stroke:rgb(253,253,253);stroke-width:1px;"/>
            </g>
        </g>
        <g transform="matrix(4.16667,0,0,4.16667,4714.06,8354.83)">
            <g transform="matrix(1,0,0,1,384.911,512.478)">
                <path d="M0,43.555L-38.354,43.555C-44.954,43.555 -50.354,38.156 -50.354,31.555L-50.354,12C-50.354,5.4 -44.954,0 -38.354,0L0,0C6.601,0 12,5.4 12,12L12,31.555C12,38.156 6.601,43.555 0,43.555Z" style="fill:rgb(156,215,210);fill-rule:nonzero;stroke:rgb(253,253,253);stroke-width:1px;"/>
            </g>
        </g>
        <g transform="matrix(4.16667,0,0,4.16667,4714.06,8354.83)">
            <g transform="matrix(1,0,0,1,322.556,338.256)">
                <path d="M0,43.556L-68.234,43.556C-74.835,43.556 -80.234,38.156 -80.234,31.556L-80.234,12C-80.234,5.401 -74.835,0 -68.234,0L0,0C6.601,0 12,5.401 12,12L12,31.556C12,38.156 6.601,43.556 0,43.556Z" style="fill:rgb(118,202,188);fill-rule:nonzero;stroke:rgb(253,253,253);stroke-width:1px;"/>
            </g>
        </g>
        <g transform="matrix(4.16667,0,0,4.16667,4714.06,8354.83)">
            <g transform="matrix(1,0,0,1,230.322,338.256)">
                <path d="M0,43.556L-38.355,43.556C-44.955,43.556 -50.355,38.156 -50.355,31.556L-50.355,12C-50.355,5.401 -44.955,0 -38.355,0L0,0C6.6,0 12,5.401 12,12L12,31.556C12,38.156 6.6,43.556 0,43.556Z" style="fill:rgb(156,215,210);fill-rule:nonzero;stroke:rgb(253,253,253);stroke-width:1px;"/>
            </g>
        </g>
        <g transform="matrix(4.16667,0,0,4.16667,4714.06,8354.83)">
            <g transform="matrix(1,0,0,1,384.911,381.812)">
                <path d="M0,43.556L-68.234,43.556C-74.834,43.556 -80.234,38.156 -80.234,31.556L-80.234,12C-80.234,5.4 -74.834,0 -68.234,0L0,0C6.601,0 12,5.4 12,12L12,31.556C12,38.156 6.601,43.556 0,43.556Z" style="fill:rgb(118,202,188);fill-rule:nonzero;stroke:rgb(253,253,253);stroke-width:1px;"/>
            </g>
        </g>
        <g transform="matrix(4.16667,0,0,4.16667,4714.06,8354.83)">
            <g transform="matrix(1,0,0,1,304.68,414.753)">
                <path d="M0,-22.322L0,0C0,5.839 -4.777,10.617 -10.617,10.617L-51.74,10.617C-56.598,10.617 -60.72,7.308 -61.968,2.84C-62.225,1.938 -62.356,0.982 -62.356,0L-62.356,-22.322C-62.356,-28.162 -57.579,-32.939 -51.74,-32.939L-10.617,-32.939C-4.777,-32.939 0,-28.162 0,-22.322Z" style="fill:rgb(156,215,210);fill-rule:nonzero;stroke:rgb(253,253,253);stroke-width:1px;"/>
            </g>
        </g>
        <g transform="matrix(4.16667,0,0,4.16667,4714.06,8354.83)">
            <g transform="matrix(1,0,0,1,384.911,338.256)">
                <path d="M0,43.556L-38.354,43.556C-44.954,43.556 -50.354,38.156 -50.354,31.556L-50.354,12C-50.354,5.401 -44.954,0 -38.354,0L0,0C6.601,0 12,5.401 12,12L12,31.556C12,38.156 6.601,43.556 0,43.556Z" style="fill:rgb(118,202,188);fill-rule:nonzero;stroke:rgb(253,253,253);stroke-width:1px;"/>
            </g>
        </g>
        <g transform="matrix(4.16667,0,0,4.16667,4714.06,8354.83)">
            <g transform="matrix(1,0,0,1,179.966,458.31)">
                <path d="M0,-22.323L0,-0.001C0,0.982 -0.133,1.937 -0.39,2.84C-1.637,7.308 -5.76,10.616 -10.617,10.616L-81.618,10.616C-87.458,10.616 -92.235,5.839 -92.235,-0.001L-92.235,-22.323C-92.235,-28.162 -87.458,-32.939 -81.618,-32.939L-10.617,-32.939C-4.777,-32.939 0,-28.162 0,-22.323Z" style="fill:rgb(118,202,188);fill-rule:nonzero;stroke:rgb(253,253,253);stroke-width:1px;"/>
            </g>
        </g>
        <g transform="matrix(4.16667,0,0,4.16667,4714.06,8354.83)">
            <g transform="matrix(1,0,0,1,334.558,458.31)">
                <path d="M0,-22.323L0,-0.001C0,5.839 -4.777,10.616 -10.617,10.616L-81.618,10.616C-86.476,10.616 -90.598,7.308 -91.846,2.84C-92.103,1.937 -92.234,0.982 -92.234,-0.001L-92.234,-22.323C-92.234,-28.162 -87.457,-32.939 -81.618,-32.939L-10.617,-32.939C-4.777,-32.939 0,-28.162 0,-22.323Z" style="fill:rgb(118,202,188);fill-rule:nonzero;stroke:rgb(253,253,253);stroke-width:1px;"/>
            </g>
        </g>
        <g transform="matrix(4.16667,0,0,4.16667,4714.06,8354.83)">
            <g transform="matrix(1,0,0,1,179.966,461.15)">
                <path d="M0,-2.841C0,-1.859 0.133,-0.904 0.389,0L-0.39,0C-0.133,-0.904 0,-1.859 0,-2.841Z" style="fill:rgb(253,253,253);fill-rule:nonzero;stroke:rgb(118,202,188);stroke-width:1px;"/>
            </g>
        </g>
        <g transform="matrix(4.16667,0,0,4.16667,4714.06,8354.83)">
            <g transform="matrix(1,0,0,1,150.088,414.753)">
                <path d="M0,-22.322L0,0C0,0.982 -0.133,1.938 -0.39,2.84C-1.124,5.459 -2.831,7.671 -5.105,9.06L-5.123,9.069C-6.725,10.051 -8.608,10.617 -10.617,10.617L-51.74,10.617C-57.58,10.617 -62.357,5.839 -62.357,0L-62.357,-22.322C-62.357,-28.162 -57.58,-32.939 -51.74,-32.939L-10.617,-32.939C-4.778,-32.939 0,-28.162 0,-22.322Z" style="fill:rgb(156,215,210);fill-rule:nonzero;stroke:rgb(253,253,253);stroke-width:1px;"/>
            </g>
        </g>
        <g transform="matrix(4.16667,0,0,4.16667,4714.06,8354.83)">
            <g transform="matrix(1,0,0,1,193.299,430.962)">
                <path d="M0,-8.343L-7.308,-4.538L-7.432,-4.477C-10.927,-2.734 -13.333,0.876 -13.333,5.025C-13.333,-0.814 -18.11,-5.591 -23.95,-5.591L-53.828,-5.591C-51.819,-5.591 -49.936,-6.157 -48.334,-7.14L-48.316,-7.149L-36.337,-13.368L-9.007,-13.368C-5.22,-13.368 -1.876,-11.351 0,-8.343" style="fill:rgb(118,202,188);fill-rule:nonzero;"/>
            </g>
        </g>
        <g transform="matrix(4.16667,0,0,4.16667,4714.06,8354.83)">
            <g transform="matrix(1,0,0,1,242.324,458.31)">
                <path d="M0,-22.323L0,-0.001C0,0.982 -0.133,1.937 -0.39,2.84C-1.638,7.308 -5.76,10.616 -10.617,10.616L-51.74,10.616C-56.598,10.616 -60.721,7.308 -61.969,2.84C-62.225,1.937 -62.357,0.982 -62.357,-0.001L-62.357,-22.323C-62.357,-26.472 -59.951,-30.082 -56.456,-31.825L-56.332,-31.886C-54.943,-32.559 -53.387,-32.939 -51.74,-32.939L-10.617,-32.939C-4.778,-32.939 0,-28.162 0,-22.323Z" style="fill:rgb(156,215,210);fill-rule:nonzero;stroke:rgb(253,253,253);stroke-width:1px;"/>
            </g>
        </g>
        <g transform="matrix(4.16667,0,0,4.16667,4714.06,8354.83)">
            <g transform="matrix(1,0,0,1,242.324,461.15)">
                <path d="M0,-2.841C0,-1.859 0.132,-0.904 0.389,0L-0.39,0C-0.133,-0.904 0,-1.859 0,-2.841Z" style="fill:rgb(118,202,188);fill-rule:nonzero;stroke:rgb(253,253,253);stroke-width:1px;"/>
            </g>
        </g>
        <g transform="matrix(4.16667,0,0,4.16667,4714.06,8354.83)">
            <g transform="matrix(1,0,0,1,252.94,428.21)">
                <path d="M0,-2.839C-5.839,-2.839 -10.616,1.938 -10.616,7.777C-10.616,1.938 -15.395,-2.839 -21.233,-2.839L-62.356,-2.839C-64.003,-2.839 -65.56,-2.459 -66.948,-1.786L-59.641,-5.591L-52.456,-9.333L-52.253,-9.44C-50.802,-10.192 -49.156,-10.616 -47.413,-10.616L-10.228,-10.616C-8.979,-6.149 -4.857,-2.839 0,-2.839" style="fill:rgb(118,202,188);fill-rule:nonzero;"/>
            </g>
        </g>
        <g transform="matrix(4.16667,0,0,4.16667,4714.06,8354.83)">
            <g transform="matrix(1,0,0,1,230.322,468.922)">
                <path d="M0,43.556L-68.235,43.556C-74.835,43.556 -80.235,38.156 -80.235,31.556L-80.235,12C-80.235,5.401 -74.835,0 -68.235,0L0,0C6.6,0 12,5.401 12,12L12,31.556C12,38.156 6.6,43.556 0,43.556Z" style="fill:rgb(118,202,188);fill-rule:nonzero;stroke:rgb(253,253,253);stroke-width:1px;"/>
            </g>
        </g>
        <g transform="matrix(4.16667,0,0,4.16667,4714.06,8354.83)">
            <g transform="matrix(1,0,0,1,384.911,468.922)">
                <path d="M0,43.556L-68.234,43.556C-74.834,43.556 -80.234,38.156 -80.234,31.556L-80.234,12C-80.234,5.401 -74.834,0 -68.234,0L0,0C6.601,0 12,5.401 12,12L12,31.556C12,38.156 6.601,43.556 0,43.556Z" style="fill:rgb(118,202,188);fill-rule:nonzero;stroke:rgb(253,253,253);stroke-width:1px;"/>
            </g>
        </g>
        <g transform="matrix(4.16667,0,0,4.16667,4714.06,8354.83)">
            <g transform="matrix(1,0,0,1,292.676,468.922)">
                <path d="M0,43.556L-38.354,43.556C-44.955,43.556 -50.354,38.156 -50.354,31.556L-50.354,12C-50.354,5.401 -44.955,0 -38.354,0L0,0C6.6,0 12,5.401 12,12L12,31.556C12,38.156 6.6,43.556 0,43.556Z" style="fill:rgb(156,215,210);fill-rule:nonzero;stroke:rgb(253,253,253);stroke-width:1px;"/>
            </g>
        </g>
        <g transform="matrix(4.16667,0,0,4.16667,4714.06,8354.83)">
            <g transform="matrix(1,0,0,1,138.086,468.922)">
                <path d="M0,43.556L-38.354,43.556C-44.954,43.556 -50.354,38.156 -50.354,31.556L-50.354,12C-50.354,5.401 -44.954,0 -38.354,0L0,0C6.601,0 12,5.401 12,12L12,31.556C12,38.156 6.601,43.556 0,43.556Z" style="fill:rgb(156,215,210);fill-rule:nonzero;stroke:rgb(253,253,253);stroke-width:1px;"/>
            </g>
        </g>
        <g transform="matrix(4.16667,0,0,4.16667,4714.06,8354.83)">
            <g transform="matrix(1,0,0,1,384.911,425.367)">
                <path d="M0,43.555L-38.354,43.555C-44.954,43.555 -50.354,38.156 -50.354,31.555L-50.354,12C-50.354,5.4 -44.954,0 -38.354,0L0,0C6.601,0 12,5.4 12,12L12,31.555C12,38.156 6.601,43.555 0,43.555Z" style="fill:rgb(118,202,188);fill-rule:nonzero;stroke:rgb(253,253,253);stroke-width:1px;"/>
            </g>
        </g>
        <g transform="matrix(4.16667,0,0,4.16667,4714.06,8354.83)">
            <g transform="matrix(1,0,0,1,179.966,371.198)">
                <path d="M0,-22.323L0,-0.001C0,5.839 -4.777,10.616 -10.617,10.616L-81.618,10.616C-87.458,10.616 -92.235,5.839 -92.235,-0.001L-92.235,-22.323C-92.235,-28.162 -87.458,-32.939 -81.618,-32.939L-10.617,-32.939C-4.777,-32.939 0,-28.162 0,-22.323Z" style="fill:rgb(118,202,188);fill-rule:nonzero;stroke:rgb(253,253,253);stroke-width:1px;"/>
            </g>
        </g>
        <g transform="matrix(4.16667,0,0,4.16667,4714.06,8354.83)">
            <g transform="matrix(1,0,0,1,165.023,420.973)">
                <path d="M0,-36.319L0,-13.997C0,-9.865 -2.397,-6.263 -5.866,-4.521L-6.025,-4.432L-6.114,-4.397L-8.061,-3.38L-20.04,2.84C-17.766,1.452 -16.059,-0.76 -15.324,-3.38C-15.067,-4.282 -14.935,-5.238 -14.935,-6.219L-14.935,-28.542C-14.935,-34.382 -19.713,-39.159 -25.552,-39.159L-0.39,-39.159C-0.133,-38.256 0,-37.3 0,-36.319" style="fill:rgb(118,202,188);fill-rule:nonzero;"/>
            </g>
        </g>
        <g transform="matrix(4.16667,0,0,4.16667,4714.06,8354.83)">
            <g transform="matrix(-0.894427,0.447214,0.447214,0.894427,185.888,426.51)">
                <path d="M-0.131,-0.031L0.007,-0.031" style="fill:none;fill-rule:nonzero;stroke:rgb(118,202,188);stroke-width:1px;"/>
            </g>
        </g>
        <g transform="matrix(4.16667,0,0,4.16667,4714.06,8354.83)">
            <g transform="matrix(-1,0,0,1,79.6667,525.38)">
                <path d="M-10.696,34.733L0,34.733C0,15.548 -2.401,0 -5.348,0C-5.621,0 -5.894,0.135 -6.158,0.406C-8.728,2.921 -10.696,17.328 -10.696,34.733Z" style="fill:rgb(156,215,210);fill-rule:nonzero;stroke:rgb(118,202,188);stroke-width:1px;"/>
            </g>
        </g>
        <g transform="matrix(4.16667,0,0,4.16667,4714.06,8354.83)">
            <g transform="matrix(-1,0,0,1,85.0149,544.281)">
                <path d="M-10.051,15.89L0,15.89C0,7.114 -2.256,0 -5.026,0C-5.281,0 -5.538,0.062 -5.786,0.186C-8.201,1.336 -10.051,7.927 -10.051,15.89Z" style="fill:rgb(156,215,210);fill-rule:nonzero;stroke:rgb(118,202,188);stroke-width:1px;"/>
            </g>
        </g>
        <g transform="matrix(4.16667,0,0,4.16667,4714.06,8354.83)">
            <g transform="matrix(1,0,0,1,101.064,548.624)">
                <path d="M0,-2.822C-1.345,-0.699 -2.256,3.424 -2.256,8.157C-2.256,9.334 -2.203,10.467 -2.097,11.546L-5.998,11.546C-5.998,3.583 -7.848,-3.008 -10.263,-4.158C-9.271,-10.262 -7.388,-14.368 -5.237,-14.368C-2.928,-14.368 -0.937,-9.652 0,-2.831L0,-2.822Z" style="fill:rgb(156,215,210);fill-rule:nonzero;stroke:rgb(118,202,188);stroke-width:1px;"/>
            </g>
        </g>
        <g transform="matrix(4.16667,0,0,4.16667,4714.06,8354.83)">
            <g transform="matrix(1,0,0,1,115.397,539.265)">
                <path d="M0,15.898C0,17.624 -0.053,19.304 -0.159,20.906L-16.43,20.906C-16.536,19.827 -16.589,18.694 -16.589,17.517C-16.589,12.784 -15.678,8.661 -14.333,6.538L-14.333,6.529C-13.723,5.564 -13.015,5.016 -12.271,5.016C-11.439,5.016 -10.67,5.688 -10.006,6.865C-9.157,-0.151 -7.353,-5.008 -5.255,-5.008C-2.354,-5.008 0,4.352 0,15.898" style="fill:rgb(156,215,210);fill-rule:nonzero;"/>
            </g>
        </g>
        <g transform="matrix(4.16667,0,0,4.16667,4714.06,8354.83)">
            <g transform="matrix(1,0,0,1,115.397,539.265)">
                <path d="M0,15.898C0,17.624 -0.053,19.304 -0.159,20.906L-16.43,20.906C-16.536,19.827 -16.589,18.694 -16.589,17.517C-16.589,12.784 -15.678,8.661 -14.333,6.538L-14.333,6.529C-13.723,5.564 -13.015,5.016 -12.271,5.016C-11.439,5.016 -10.67,5.688 -10.006,6.865C-9.157,-0.151 -7.353,-5.008 -5.255,-5.008C-2.354,-5.008 0,4.352 0,15.898Z" style="fill:none;fill-rule:nonzero;stroke:rgb(118,202,188);stroke-width:1px;"/>
            </g>
        </g>
        <g transform="matrix(4.16667,0,0,4.16667,4714.06,8354.83)">
            <g transform="matrix(1,0,0,1,259.287,407.058)">
                <path d="M0,50.262L0.671,0.185C0.705,-0.32 0.835,-0.763 1.061,-1.147C1.084,-1.213 1.115,-1.269 1.153,-1.315L1.194,-1.38C2.152,-2.806 4.226,-3.205 5.874,-2.012C5.961,-1.944 6.062,-1.857 6.155,-1.78L10.609,2.137L46.015,33.276L48.386,35.355C49.318,36.178 49.456,37.327 48.97,38.277L48.766,38.612L48.688,38.723C48.337,39.161 47.825,39.533 47.176,39.754L4.075,52.828C2.197,53.467 -0.11,52.012 0,50.262Z" style="fill:rgb(241,142,135);fill-rule:nonzero;stroke:rgb(241,142,135);stroke-width:1px;"/>
            </g>
        </g>
        <g transform="matrix(4.16667,0,0,4.16667,4714.06,8354.83)">
            <g transform="matrix(1,0,0,1,266.78,443.284)">
                <path d="M0,-45.306L0.007,-45.297C0.969,-46.926 3.325,-47.356 5.051,-45.842L44.859,-9.791C45.839,-8.93 45.933,-7.684 45.342,-6.71L45.223,-6.536L41.478,2.05C41.964,1.101 41.826,-0.048 40.894,-0.871L38.522,-2.951L3.117,-34.089L-1.337,-38.006C-1.431,-38.083 -1.531,-38.17 -1.618,-38.239C-3.267,-39.431 -5.34,-39.033 -6.298,-37.606L0,-45.306Z" style="fill:rgb(253,253,253);fill-rule:nonzero;stroke:rgb(241,142,135);stroke-width:1px;"/>
            </g>
        </g>
        <g transform="matrix(4.16667,0,0,4.16667,4714.06,8354.83)">
            <g transform="matrix(1,0,0,1,356.752,365.55)">
                <path d="M0,20.832C-1.112,14.743 -6.179,8.341 -12.467,7.228C-22.21,5.505 -27.523,17.784 -36.206,15.519C-41.431,14.155 -45.936,8.031 -46.091,2.431C-46.381,-8.02 -31.127,-13.163 -33.369,-20.978C-34.537,-25.05 -39.088,-26.894 -40.076,-27.294C-48.205,-30.587 -57.705,-24.324 -62.108,-19.851C-71.569,-10.236 -72.111,6.28 -67.301,17.968C-58.217,40.04 -27.301,51.419 -11.336,41.895C-5.204,38.238 1.63,29.762 0,20.832" style="fill:rgb(214,221,240);fill-rule:nonzero;"/>
            </g>
        </g>
        <g transform="matrix(4.16667,0,0,4.16667,4714.06,8354.83)">
            <g transform="matrix(1,0,0,1,313.648,340.082)">
                <path d="M0,7.552L-5.642,4.711C-6.328,4.365 -6.607,3.521 -6.262,2.835L-5.146,0.618C-4.8,-0.068 -3.955,-0.346 -3.27,-0.001L2.373,2.84C3.06,3.186 3.338,4.031 2.992,4.716L1.876,6.933C1.53,7.619 0.687,7.898 0,7.552Z" style="fill:rgb(253,253,253);fill-rule:nonzero;stroke:rgb(113,139,198);stroke-width:1px;"/>
            </g>
        </g>
        <g transform="matrix(4.16667,0,0,4.16667,4714.06,8354.83)">
            <g transform="matrix(1,0,0,1,407.323,396.572)">
                <path d="M0,113.135C-4.942,131.396 -10.536,146.295 -14.931,156.91C-21.66,160.004 -32.079,163.428 -44.855,162.754C-52.878,162.331 -59.575,160.411 -64.558,158.438C-65.294,158.148 -65.999,157.858 -66.657,157.569C-67.033,158.14 -67.409,158.704 -67.777,159.26C-72.164,160.271 -77.366,161.007 -83.21,160.976C-90.252,160.929 -96.229,159.778 -100.758,158.508C-88.991,142.089 -75.353,118.305 -68.396,88.474C-67.088,82.858 -64.041,68.576 -63.313,49.822C-62.834,37.406 -63.492,26.337 -64.581,16.991L-64.581,16.984C-68.921,6.729 -73.527,0.196 -74.758,-11.704C-75.36,-17.587 -75.964,-22.279 -74.758,-27.466C-74.318,-29.361 -72.195,-38.487 -66.735,-42.577C-56.419,-50.293 -35.149,-39.262 -23.9,-30.771C0.838,-12.111 7.333,17.007 9.4,26.941C15.464,55.995 8.892,80.265 0,113.135" style="fill:rgb(66,99,174);fill-rule:nonzero;"/>
            </g>
        </g>
        <g transform="matrix(4.16667,0,0,4.16667,4714.06,8354.83)">
            <g transform="matrix(1,0,0,1,339.545,445.126)">
                <path d="M0,110.706C8.602,97.593 19.913,77.248 27.089,53.394C33.341,32.643 35.447,14.147 35.988,0" style="fill:none;fill-rule:nonzero;stroke:rgb(113,139,198);stroke-width:1px;"/>
            </g>
        </g>
        <g transform="matrix(4.16667,0,0,4.16667,4714.06,8354.83)">
            <g transform="matrix(1,0,0,1,359.536,462.403)">
                <path d="M0,-101.825C-3.313,-100.501 -4.84,-97.452 -5.028,-97.061C-7.689,-91.553 -3.256,-86.893 -2.117,-79.329C-0.467,-68.361 -6.901,-58.976 -8.733,-56.304C-16.404,-45.117 -28.41,-41.467 -31.229,-40.689C-42.392,-37.613 -47.397,-41.58 -53.46,-36.72C-58.048,-33.042 -60.697,-26.348 -59.547,-20.576C-57.358,-9.589 -42.136,-5.61 -38.64,-4.697C-13.87,1.776 8.188,-17.995 9.263,-18.988C24.208,-32.79 26.843,-50.23 27.523,-55.246C28.074,-59.3 29.74,-72.855 23.024,-86.475C19.066,-94.503 14.448,-97.985 11.38,-99.708C9.006,-101.04 4.442,-103.601 0,-101.825" style="fill:rgb(214,221,240);fill-rule:nonzero;"/>
            </g>
        </g>
        <g transform="matrix(4.16667,0,0,4.16667,4714.06,8354.83)">
            <g transform="matrix(1,0,0,1,334.632,329.285)">
                <path d="M0,45.069C9.739,43.773 15.277,34.648 15.213,25.351C15.184,21.268 14.035,18.258 13.334,16.471C12.132,13.407 9.446,6.562 2.233,2.979C-2.083,0.836 -8.465,-0.362 -13.138,1.784C-20.035,4.325 -23.3,11.316 -23.504,18.303C-23.697,24.922 -21.153,31.319 -16.943,36.366C-14.536,39.252 -11.362,42.058 -8.014,43.783C-5.512,45.072 -2.724,45.431 0,45.069" style="fill:rgb(253,253,253);fill-rule:nonzero;"/>
            </g>
        </g>
        <g transform="matrix(4.16667,0,0,4.16667,4714.06,8354.83)">
            <g transform="matrix(1,0,0,1,334.632,329.285)">
                <path d="M0,45.069C9.739,43.773 15.277,34.648 15.213,25.351C15.184,21.268 14.035,18.258 13.334,16.471C12.132,13.407 9.446,6.562 2.233,2.979C-2.083,0.836 -8.465,-0.362 -13.138,1.784C-20.035,4.325 -23.3,11.316 -23.504,18.303C-23.697,24.922 -21.153,31.319 -16.943,36.366C-14.536,39.252 -11.362,42.058 -8.014,43.783C-5.512,45.072 -2.724,45.431 0,45.069Z" style="fill:none;fill-rule:nonzero;stroke:rgb(113,139,198);stroke-width:1px;"/>
            </g>
        </g>
        <g transform="matrix(4.16667,0,0,4.16667,4714.06,8354.83)">
            <g transform="matrix(0.952818,0.303541,0.303541,-0.952818,341.514,341.892)">
                <path d="M0.354,-1.207C-0.014,0.3 -0.62,1.765 -0.565,3.349C-0.535,4.193 -0.247,5.048 0.354,5.642C2.917,8.182 6.874,4.386 7.784,1.895C8.802,-0.898 7.932,-4.113 6.602,-6.668" style="fill:rgb(253,253,253);fill-rule:nonzero;stroke:rgb(113,139,198);stroke-width:1px;"/>
            </g>
        </g>
        <g transform="matrix(4.16667,0,0,4.16667,4714.06,8354.83)">
            <g transform="matrix(1,0,0,1,331.342,574.104)">
                <path d="M0,-14.639L2.728,-0.086L-34.819,0L-17.192,-7.431L-13.786,-14.608L0,-14.639Z" style="fill:rgb(113,139,198);fill-rule:nonzero;"/>
            </g>
        </g>
        <g transform="matrix(4.16667,0,0,4.16667,4714.06,8354.83)">
            <g transform="matrix(1,0,0,1,372.213,572.358)">
                <path d="M0,-11.301L2.411,1.566L-35.135,1.653L-17.508,-5.779L-14.103,-12.954L0,-11.301Z" style="fill:rgb(113,139,198);fill-rule:nonzero;"/>
            </g>
        </g>
        <g transform="matrix(4.16667,0,0,4.16667,4714.06,8354.83)">
            <g transform="matrix(1,0,0,1,342.477,502.338)">
                <path d="M0,-12.379C-2.47,-9.85 -3.147,-6.269 -1.769,-3.536C-0.513,-1.048 1.981,-0.19 2.585,0" style="fill:none;fill-rule:nonzero;stroke:rgb(113,139,198);stroke-width:1px;"/>
            </g>
        </g>
        <g transform="matrix(4.16667,0,0,4.16667,4714.06,8354.83)">
            <g transform="matrix(1,0,0,1,374.707,505.602)">
                <path d="M0,-12.379C-2.471,-9.85 -3.147,-6.269 -1.769,-3.536C-0.513,-1.048 1.981,-0.19 2.584,0" style="fill:none;fill-rule:nonzero;stroke:rgb(113,139,198);stroke-width:1px;"/>
            </g>
        </g>
        <g transform="matrix(4.16667,0,0,4.16667,4714.06,8354.83)">
            <g transform="matrix(1,0,0,1,308.757,430.431)">
                <path d="M0,-4.664C-0.156,-5.06 -0.33,-5.447 -0.519,-5.821C-2.299,-9.361 -6.822,-14.064 -12.015,-13.159C-13.322,-12.932 -15.247,-13.1 -14.15,-12.292C-12.391,-10.995 -12.142,-10.228 -10.751,-9.839C-9.36,-9.449 -8.896,-9.37 -9.418,-8.364C-10.044,-7.157 -12.187,-7.375 -13.489,-7.53C-20.162,-8.328 -19.098,-9.469 -21.239,-12.559C-22.196,-13.939 -23.424,-14.574 -24.632,-13.621C-25.84,-12.668 -25.05,-11.251 -24.224,-10.084C-22.784,-8.048 -22.406,-5.97 -20.03,-4.787C-19.206,-4.378 -18.368,-4.007 -16.596,-3.723C-16.443,-3.698 -16.579,-3.45 -16.733,-3.372C-16.888,-3.294 -17.01,-3.239 -17.234,-3.269C-20.092,-3.661 -21.069,-4.224 -22.486,-5.404C-24.373,-6.975 -23.187,-8.605 -25.344,-10.538C-26.31,-11.403 -28.015,-10.417 -28.133,-9.172C-28.252,-7.926 -26.956,-5.568 -26.209,-4.494C-24.634,-2.226 -23.497,-1.347 -20.166,0.227C-19.549,0.519 -19.37,0.996 -20.392,0.69C-24.736,-0.615 -26.955,-3.114 -27.352,-6.152C-27.358,-6.201 -27.378,-6.249 -27.399,-6.283C-27.946,-7.134 -29.062,-7.229 -29.836,-6.348C-30.61,-5.466 -30.404,-4.287 -29.957,-3.094C-28.755,0.112 -26.569,2.831 -22.701,3.776C-20.667,4.273 -20.317,4.947 -21.353,5.492C-22.434,6.063 -23.621,3.675 -25.13,2.847C-26.826,1.915 -28.105,0.523 -28.105,0.523C-30.073,0.796 -26.578,5.349 -25.175,6.705C-22.825,8.976 -18.12,9.484 -14.93,9.636C-9.119,9.91 -0.502,8.279 0.751,1.853C1.169,-0.293 0.812,-2.609 0,-4.664" style="fill:rgb(253,253,253);fill-rule:nonzero;"/>
            </g>
        </g>
        <g transform="matrix(4.16667,0,0,4.16667,4714.06,8354.83)">
            <g transform="matrix(1,0,0,1,308.757,430.431)">
                <path d="M0,-4.664C-0.156,-5.06 -0.33,-5.447 -0.519,-5.821C-2.299,-9.361 -6.822,-14.064 -12.015,-13.159C-13.322,-12.932 -15.247,-13.1 -14.15,-12.292C-12.391,-10.995 -12.142,-10.228 -10.751,-9.839C-9.36,-9.449 -8.896,-9.37 -9.418,-8.364C-10.044,-7.157 -12.187,-7.375 -13.489,-7.53C-20.162,-8.328 -19.098,-9.469 -21.239,-12.559C-22.196,-13.939 -23.424,-14.574 -24.632,-13.621C-25.84,-12.668 -25.05,-11.251 -24.224,-10.084C-22.784,-8.048 -22.406,-5.97 -20.03,-4.787C-19.206,-4.378 -18.368,-4.007 -16.596,-3.723C-16.443,-3.698 -16.579,-3.45 -16.733,-3.372C-16.888,-3.294 -17.01,-3.239 -17.234,-3.269C-20.092,-3.661 -21.069,-4.224 -22.486,-5.404C-24.373,-6.975 -23.187,-8.605 -25.344,-10.538C-26.31,-11.403 -28.015,-10.417 -28.133,-9.172C-28.252,-7.926 -26.956,-5.568 -26.209,-4.494C-24.634,-2.226 -23.497,-1.347 -20.166,0.227C-19.549,0.519 -19.37,0.996 -20.392,0.69C-24.736,-0.615 -26.955,-3.114 -27.352,-6.152C-27.358,-6.201 -27.378,-6.249 -27.399,-6.283C-27.946,-7.134 -29.062,-7.229 -29.836,-6.348C-30.61,-5.466 -30.404,-4.287 -29.957,-3.094C-28.755,0.112 -26.569,2.831 -22.701,3.776C-20.667,4.273 -20.317,4.947 -21.353,5.492C-22.434,6.063 -23.621,3.675 -25.13,2.847C-26.826,1.915 -28.105,0.523 -28.105,0.523C-30.073,0.796 -26.578,5.349 -25.175,6.705C-22.825,8.976 -18.12,9.484 -14.93,9.636C-9.119,9.91 -0.502,8.279 0.751,1.853C1.169,-0.293 0.812,-2.609 0,-4.664Z" style="fill:none;fill-rule:nonzero;stroke:rgb(113,139,198);stroke-width:1px;"/>
            </g>
        </g>
        <g transform="matrix(4.16667,0,0,4.16667,4714.06,8354.83)">
            <g transform="matrix(1,0,0,1,349.031,407.264)">
                <path d="M0,1.758C0.698,1.294 3.211,-0.252 6.566,0.18C8.753,0.461 10.298,1.454 11.041,2.01" style="fill:none;fill-rule:nonzero;stroke:rgb(113,139,198);stroke-width:1px;"/>
            </g>
        </g>
        <g transform="matrix(4.16667,0,0,4.16667,4714.06,8354.83)">
            <g transform="matrix(1,0,0,1,357.858,409.022)">
                <path d="M0,-4.168C-1.04,-4.097 -2.489,-3.877 -4.095,-3.23C-6.43,-2.289 -7.981,-0.892 -8.827,0" style="fill:none;fill-rule:nonzero;stroke:rgb(113,139,198);stroke-width:1px;"/>
            </g>
        </g>
        <g transform="matrix(4.16667,0,0,4.16667,4714.06,8354.83)">
            <g transform="matrix(1,0,0,1,356.76,562.211)">
                <path d="M0,0.44C-1.024,-1.193 -3.265,-4.518 -4.571,-4.049C-4.833,-3.956 -5.051,-3.712 -5.124,-3.456C-5.586,-1.82 -0.192,0.484 -0.413,0.883C-0.623,1.264 -5.37,-1.037 -6.275,0.083C-6.421,0.263 -6.461,0.524 -6.389,0.725C-5.915,2.045 -0.521,1.016 -0.479,1.375C-0.455,1.595 -2.526,1.806 -4.665,3.163C-5.643,3.783 -6.345,4.459 -6.802,4.958" style="fill:none;fill-rule:nonzero;stroke:rgb(113,139,198);stroke-width:1px;"/>
            </g>
        </g>
        <g transform="matrix(4.16667,0,0,4.16667,4714.06,8354.83)">
            <g transform="matrix(1,0,0,1,316.989,561.57)">
                <path d="M0,0.441C-1.024,-1.193 -3.265,-4.517 -4.571,-4.049C-4.832,-3.955 -5.051,-3.712 -5.123,-3.455C-5.586,-1.82 -0.191,0.484 -0.412,0.884C-0.622,1.264 -5.37,-1.037 -6.275,0.083C-6.421,0.263 -6.461,0.524 -6.389,0.725C-5.914,2.045 -0.52,1.016 -0.479,1.375C-0.454,1.595 -2.526,1.807 -4.665,3.164C-5.643,3.783 -6.345,4.459 -6.802,4.958" style="fill:none;fill-rule:nonzero;stroke:rgb(113,139,198);stroke-width:1px;"/>
            </g>
        </g>
        <g transform="matrix(4.16667,0,0,4.16667,4714.06,8354.83)">
            <g transform="matrix(0.406846,0.913497,0.913497,-0.406846,326.829,348.754)">
                <path d="M1.438,-0.933C3.249,-0.933 4.717,-0.228 4.716,0.64C4.717,1.509 3.249,2.213 1.438,2.213C-0.374,2.213 -1.843,1.509 -1.843,0.641C-1.842,-0.228 -0.374,-0.932 1.438,-0.933" style="fill:rgb(66,99,174);fill-rule:nonzero;"/>
            </g>
        </g>
        <g transform="matrix(4.16667,0,0,4.16667,4714.06,8354.83)">
            <g transform="matrix(0.659225,0.751946,0.751946,-0.659225,326.54,366.361)">
                <path d="M3.326,-1.006C3.705,-0.31 4.217,0.852 4.356,2.367C4.575,4.755 3.732,6.584 3.326,7.342C1.427,6.436 0.331,4.467 0.595,2.531C0.925,0.126 3.181,-0.941 3.326,-1.006Z" style="fill:none;fill-rule:nonzero;stroke:rgb(113,139,198);stroke-width:1px;"/>
            </g>
        </g>
        <g transform="matrix(4.16667,0,0,4.16667,4714.06,8354.83)">
            <g transform="matrix(0.406964,0.913444,0.913444,-0.406964,314.84,356.098)">
                <path d="M1.436,-0.933C3.247,-0.934 4.716,-0.229 4.716,0.639C4.716,1.507 3.248,2.212 1.436,2.212C-0.375,2.214 -1.843,1.509 -1.843,0.641C-1.843,-0.228 -0.375,-0.933 1.436,-0.933" style="fill:rgb(66,99,174);fill-rule:nonzero;"/>
            </g>
        </g>
        <g transform="matrix(4.16667,0,0,4.16667,4714.06,8354.83)">
            <g transform="matrix(1,0,0,1,317.315,366.498)">
                <path d="M0,-16.162C-0.382,-14.183 -0.784,-10.455 0.695,-5.951C1.521,-3.434 2.689,-1.425 3.674,0L9.834,-4.758" style="fill:rgb(253,253,253);fill-rule:nonzero;stroke:rgb(113,139,198);stroke-width:1px;"/>
            </g>
        </g>
        <g transform="matrix(4.16667,0,0,4.16667,4714.06,8354.83)">
            <g transform="matrix(1,0,0,1,317.635,333.812)">
                <path d="M0,-0.185L-7.436,3.586C-8.422,4.086 -9.638,3.689 -10.138,2.703C-10.638,1.716 -10.24,0.501 -9.254,0.001L-1.818,-3.771C-0.832,-4.271 0.384,-3.873 0.884,-2.887C1.385,-1.901 0.986,-0.685 0,-0.185Z" style="fill:rgb(253,253,253);fill-rule:nonzero;stroke:rgb(113,139,198);stroke-width:1px;"/>
            </g>
        </g>
        <g transform="matrix(4.16667,0,0,4.16667,4714.06,8354.83)">
            <g transform="matrix(1,0,0,1,316.097,333.411)">
                <path d="M0,3.471L-7.124,3.471C-8.078,3.471 -8.859,2.691 -8.859,1.736C-8.859,0.782 -8.078,0 -7.124,0L0,0C0.955,0 1.736,0.782 1.736,1.736C1.736,2.691 0.955,3.471 0,3.471Z" style="fill:rgb(253,253,253);fill-rule:nonzero;stroke:rgb(113,139,198);stroke-width:1px;"/>
            </g>
        </g>
        <g transform="matrix(4.16667,0,0,4.16667,4714.06,8354.83)">
            <g transform="matrix(1,0,0,1,317.127,337.592)">
                <path d="M0,3.471L-8.154,3.471C-9.108,3.471 -9.89,2.69 -9.89,1.736C-9.89,0.782 -9.108,0 -8.154,0L0,0C0.955,0 1.735,0.782 1.735,1.736C1.735,2.69 0.955,3.471 0,3.471Z" style="fill:rgb(253,253,253);fill-rule:nonzero;stroke:rgb(113,139,198);stroke-width:1px;"/>
            </g>
        </g>
        <g transform="matrix(4.16667,0,0,4.16667,4714.06,8354.83)">
            <g transform="matrix(1,0,0,1,314.614,341.047)">
                <path d="M0,3.471L-5.641,3.471C-6.595,3.471 -7.376,2.691 -7.376,1.736C-7.376,0.782 -6.595,0 -5.641,0L0,0C0.955,0 1.735,0.782 1.735,1.736C1.735,2.691 0.955,3.471 0,3.471Z" style="fill:rgb(253,253,253);fill-rule:nonzero;stroke:rgb(113,139,198);stroke-width:1px;"/>
            </g>
        </g>
    </g>
</svg>
