<?xml version="1.0" encoding="UTF-8" standalone="no"?>
<!DOCTYPE svg PUBLIC "-//W3C//DTD SVG 1.1//EN" "http://www.w3.org/Graphics/SVG/1.1/DTD/svg11.dtd">
<svg width="100%" height="100%" viewBox="0 0 1095 1586" version="1.1" xmlns="http://www.w3.org/2000/svg" xmlns:xlink="http://www.w3.org/1999/xlink" xml:space="preserve" xmlns:serif="http://www.serif.com/" style="fill-rule:evenodd;clip-rule:evenodd;stroke-linecap:round;stroke-miterlimit:10;">
    <g transform="matrix(1,0,0,1,-2883.79,-965.987)">
        <g transform="matrix(4.16667,0,0,4.16667,2357.03,0)">
            <g transform="matrix(1,0,0,1,360.368,235.798)">
                <path d="M0,111.78C0,111.78 -1.985,109.604 -10.397,102.54C-15.394,98.344 -21.089,93.559 -27.53,88.706C-44.3,76.098 -66.148,63.066 -93.897,58.918C-101.283,57.816 -111.824,56.926 -124.794,58.213C-114.835,35.981 -111.208,10.846 -117.101,5.22C-121.687,0.84 -140.449,9.264 -140.449,9.264C-129.467,3.122 -129.371,0 -112.647,1.391C-95.559,2.811 -55.621,19.197 -37.811,28.273C-34.724,29.855 -20.562,37.172 -5.428,49.752C-1.45,53.059 2.584,56.884 5.093,61.582C7.732,66.526 7.97,71.787 7.729,77.267C7.217,88.902 4.755,101.115 0,111.78Z" style="fill:rgb(214,221,240);fill-rule:nonzero;stroke:rgb(113,139,198);stroke-width:1px;"/>
            </g>
        </g>
        <g transform="matrix(4.16667,0,0,4.16667,2357.03,0)">
            <g transform="matrix(1,0,0,1,346.195,238.059)">
                <path d="M0,268.127C-21.561,275.3 -39.925,278.004 -55.313,278.271C-65.799,278.449 -74.91,277.498 -82.719,276.06C-92.774,274.205 -106.622,270.434 -125.459,268.367C-133.508,267.477 -142.468,266.902 -152.427,266.916C-161.797,266.929 -170.183,267.463 -177.267,268.161C-187.434,240.161 -199.001,195.457 -193.297,141.751C-190.878,118.964 -183.368,78.232 -164.694,49.326C-155.994,34.984 -120.686,-10.322 -101.857,2.959C-92.402,11.426 -99.592,33.719 -109.551,55.951C-96.58,54.665 -86.039,55.554 -78.654,56.656C-50.905,60.804 -29.056,73.837 -12.286,86.445C-18.077,106.76 -20.733,132.572 -21.444,148.945C-22.602,175.701 -20.336,217.516 0,268.127Z" style="fill:rgb(253,253,253);fill-rule:nonzero;stroke:rgb(113,139,198);stroke-width:1px;"/>
            </g>
        </g>
        <g transform="matrix(4.16667,0,0,4.16667,2357.03,0)">
            <g transform="matrix(1,0,0,1,305.561,591.904)">
                <path d="M0,-76.652C-2.874,-66.678 -4.266,-55.318 -2.676,-42.91C-0.828,-28.488 8.043,-11.144 14.539,0" style="fill:none;fill-rule:nonzero;stroke:rgb(113,139,198);stroke-width:1px;"/>
            </g>
        </g>
        <g transform="matrix(4.16667,0,0,4.16667,2357.03,0)">
            <g transform="matrix(1,0,0,1,212.164,591.904)">
                <path d="M0,-85.478C4.771,-73.589 7.796,-59.146 5.716,-42.91C3.868,-28.488 -5.003,-11.144 -11.499,0" style="fill:none;fill-rule:nonzero;stroke:rgb(113,139,198);stroke-width:1px;"/>
            </g>
        </g>
        <g transform="matrix(4.16667,0,0,4.16667,2357.03,0)">
            <g transform="matrix(1,0,0,1,196.087,604.349)">
                <path d="M0,-16.366L12.809,-19.342L12.809,-8.706L39.137,2.976L-12.1,2.976C-12.1,2.976 -7.875,-3.144 -2.113,-12.786L0,-16.366Z" style="fill:rgb(113,139,198);fill-rule:nonzero;"/>
            </g>
        </g>
        <g transform="matrix(4.16667,0,0,4.16667,2357.03,0)">
            <g transform="matrix(-0.508234,-0.861219,-0.861219,0.508234,321.313,591.887)">
                <path d="M-1.846,1.054C-1.061,1.059 -0.243,1.058 0.602,1.054" style="fill:none;fill-rule:nonzero;stroke:rgb(113,139,198);stroke-width:1px;"/>
            </g>
        </g>
        <g transform="matrix(4.16667,0,0,4.16667,2357.03,0)">
            <g transform="matrix(1,0,0,1,324.676,604.349)">
                <path d="M0,-16.366L-12.809,-19.342L-12.809,-8.706L-39.137,2.976L12.101,2.976C12.101,2.976 7.875,-3.144 2.114,-12.786L0,-16.366Z" style="fill:rgb(113,139,198);fill-rule:nonzero;"/>
            </g>
        </g>
        <g transform="matrix(4.16667,0,0,4.16667,2357.03,0)">
            <g transform="matrix(1,0,0,1,258.858,406.798)">
                <path d="M0,-24.482C-9.137,20.048 -70.857,34.738 -100.063,11.373C-129.268,-11.991 -104.25,-54.405 -100.637,-59.22" style="fill:none;fill-rule:nonzero;stroke:rgb(113,139,198);stroke-width:1px;"/>
            </g>
        </g>
        <g transform="matrix(4.16667,0,0,4.16667,2357.03,0)">
            <g transform="matrix(1,0,0,1,224.691,521.077)">
                <path d="M0,-62.871C-0.09,-62.689 -0.163,-62.496 -0.215,-62.293C-0.49,-61.216 -0.135,-60.074 0.703,-59.346L12.577,-49.013L9.129,-45.778C8.323,-45.021 8.01,-43.876 8.318,-42.815C8.626,-41.753 9.504,-40.954 10.59,-40.747L22.251,-38.522L5.533,-25.906C4.654,-25.243 4.22,-24.143 4.408,-23.058C4.595,-21.974 5.374,-21.084 6.424,-20.755L11.028,-19.31L4.981,-5.094C4.546,-4.071 4.725,-2.891 5.443,-2.043L5.535,-1.935C6.252,-1.088 7.388,-0.717 8.468,-0.978L23.484,-4.608L24.153,0.171C24.306,1.261 25.055,2.176 26.094,2.539C27.134,2.902 28.289,2.654 29.088,1.897L44.279,-12.522L44.558,-0.653C44.584,0.451 45.228,1.449 46.225,1.927C47.221,2.406 48.401,2.285 49.281,1.614L53.039,-1.255L61.28,12.154C61.861,13.102 62.929,13.639 64.036,13.544C65.144,13.448 66.104,12.736 66.515,11.703L72.186,-2.537L76.117,-0.383C77.105,0.158 78.315,0.087 79.232,-0.565C80.151,-1.218 80.615,-2.337 80.428,-3.448L75.928,-30.247L84.318,-32.614C85.282,-32.886 86.04,-33.627 86.332,-34.584C86.625,-35.54 86.41,-36.58 85.764,-37.343L61.069,-49.078L53.552,-75.365L53.551,-75.365C52.904,-76.128 51.914,-76.51 50.923,-76.379C49.931,-76.247 49.074,-75.621 48.648,-74.716L44.936,-66.829L19.24,-75.67C18.175,-76.037 16.994,-75.763 16.2,-74.965C15.405,-74.166 15.137,-72.984 15.508,-71.921L16.987,-67.69L2.009,-64.435C1.126,-64.244 0.392,-63.661 0,-62.871" style="fill:rgb(241,142,135);fill-rule:nonzero;"/>
            </g>
        </g>
        <g transform="matrix(4.16667,0,0,4.16667,2357.03,0)">
            <g transform="matrix(1,0,0,1,270.166,462.912)">
                <path d="M0,26.257C3.175,21.075 9.366,12.632 20.02,6.156C25.114,3.059 29.97,1.177 33.957,0" style="fill:none;fill-rule:nonzero;stroke:rgb(66,99,174);stroke-width:1px;"/>
            </g>
        </g>
        <g transform="matrix(4.16667,0,0,4.16667,2357.03,0)">
            <g transform="matrix(1,0,0,1,284.712,469.789)">
                <path d="M0,20.243C0.238,19.295 1.749,12.838 -2.369,7.161C-5.849,2.365 -11.985,0 -18.128,1.064" style="fill:none;fill-rule:nonzero;stroke:rgb(66,99,174);stroke-width:1px;"/>
            </g>
        </g>
        <g transform="matrix(4.16667,0,0,4.16667,2357.03,0)">
            <g transform="matrix(1,0,0,1,325.645,470.024)">
                <path d="M0,-96.564C8.206,-84.938 21.895,-71.074 28.628,-55.392C32.193,-47.091 33.958,-37.606 23.794,-28.611C21.231,-26.342 18.924,-24.955 16.65,-24.091C1.903,-18.492 -7.361,-23.632 -18.654,-17.856C-18.654,-17.856 -24.062,-16.183 -30.143,-11.678C-32.191,-10.161 -35.082,-7.983 -35.432,-5.189C-35.72,-2.885 -34.748,-0.053 -33.851,-0.016C-33.439,0 -33.076,-0.571 -32.827,-1.08" style="fill:none;fill-rule:nonzero;stroke:rgb(113,139,198);stroke-width:1px;"/>
            </g>
        </g>
        <g transform="matrix(4.16667,0,0,4.16667,2357.03,0)">
            <g transform="matrix(1,0,0,1,131.448,607.325)">
                <path d="M0,0L252.622,0" style="fill:none;fill-rule:nonzero;stroke:rgb(113,139,198);stroke-width:1px;"/>
            </g>
        </g>
        <g transform="matrix(4.16667,0,0,4.16667,2357.03,0)">
            <g transform="matrix(1,0,0,1,260.442,382.688)">
                <path d="M0,-16.485C1.009,-15.575 2.297,-14.085 2.834,-11.976C3.88,-7.873 1.658,-3.093 -2.785,0" style="fill:none;fill-rule:nonzero;stroke:rgb(113,139,198);stroke-width:1px;"/>
            </g>
        </g>
        <g transform="matrix(4.16667,0,0,4.16667,2357.03,0)">
            <g transform="matrix(1,0,0,1,258.018,382.688)">
                <path d="M0,-15.071C0.81,-14.526 2.946,-12.921 3.505,-10.198C3.968,-7.942 3.117,-6.046 2.236,-4.087C1.396,-2.217 0.372,-0.855 -0.361,0" style="fill:none;fill-rule:nonzero;stroke:rgb(113,139,198);stroke-width:1px;"/>
            </g>
        </g>
        <g transform="matrix(4.16667,0,0,4.16667,2357.03,0)">
            <g transform="matrix(1,0,0,1,249.616,382.688)">
                <path d="M0,-6.418C0.215,-5.675 1.013,-3.267 3.45,-1.568C5.324,-0.262 7.208,-0.045 8.042,0" style="fill:none;fill-rule:nonzero;stroke:rgb(113,139,198);stroke-width:1px;"/>
            </g>
        </g>
        <g transform="matrix(4.16667,0,0,4.16667,2357.03,0)">
            <g transform="matrix(1,0,0,1,263.722,382.688)">
                <path d="M0,-14.822C0.705,-13.757 1.575,-12.038 1.589,-9.889C1.614,-5.837 -1.416,-1.933 -6.064,0" style="fill:none;fill-rule:nonzero;stroke:rgb(113,139,198);stroke-width:1px;"/>
            </g>
        </g>
        <g transform="matrix(4.16667,0,0,4.16667,2357.03,0)">
            <g transform="matrix(1,0,0,1,267.344,382.688)">
                <path d="M0,-9.228C-0.124,-8.192 -0.429,-6.905 -1.15,-5.59C-3.611,-1.1 -8.802,-0.148 -9.687,0" style="fill:none;fill-rule:nonzero;stroke:rgb(113,139,198);stroke-width:1px;"/>
            </g>
        </g>
        <g transform="matrix(4.16667,0,0,4.16667,2357.03,0)">
            <g transform="matrix(1,0,0,1,295.448,469.261)">
                <path d="M0,-10.864C-1.225,-9.598 -3.45,-6.889 -3.226,-3.577C-3.198,-3.156 -2.971,-0.385 -1.749,-0.149C-0.98,0 -0.188,-0.927 0.08,-1.266" style="fill:none;fill-rule:nonzero;stroke:rgb(113,139,198);stroke-width:1px;"/>
            </g>
        </g>
        <g transform="matrix(4.16667,0,0,4.16667,2357.03,0)">
            <g transform="matrix(1,0,0,1,297.424,459.987)">
                <path d="M0,6.484C-0.496,7.434 -1.224,8.074 -1.896,8.008C-2.902,7.909 -3.368,6.274 -3.553,5.625C-4.386,2.7 -2.859,-0.196 -1.976,-1.59" style="fill:none;fill-rule:nonzero;stroke:rgb(113,139,198);stroke-width:1px;"/>
            </g>
        </g>
        <g transform="matrix(4.16667,0,0,4.16667,2357.03,0)">
            <g transform="matrix(1,0,0,1,290.481,459.46)">
                <path d="M0,10.398C-0.376,10.932 -0.865,11.46 -1.321,11.38C-2.222,11.223 -2.563,8.767 -2.54,7.587C-2.451,3.094 3.284,-0.168 4.967,-1.062" style="fill:none;fill-rule:nonzero;stroke:rgb(113,139,198);stroke-width:1px;"/>
            </g>
        </g>
        <g transform="matrix(4.16667,0,0,4.16667,2357.03,0)">
            <g transform="matrix(-0.853363,0.521317,0.521317,0.853363,288.953,465.35)">
                <path d="M-8.152,-2.293C-5.22,-2.293 -2.288,-2.293 0.645,-2.293" style="fill:none;fill-rule:nonzero;stroke:rgb(113,139,198);stroke-width:1px;"/>
            </g>
        </g>
        <g transform="matrix(4.16667,0,0,4.16667,2357.03,0)">
            <g transform="matrix(-0.135282,0.990807,0.990807,0.135282,231.465,333.353)">
                <path d="M3.662,-4.196C8.851,-4.195 13.055,-2.54 13.055,-0.499C13.055,1.542 8.85,3.197 3.662,3.196C-1.527,3.195 -5.732,1.54 -5.732,-0.501C-5.731,-2.542 -1.526,-4.197 3.662,-4.196" style="fill:rgb(66,99,174);fill-rule:nonzero;"/>
            </g>
        </g>
        <g transform="matrix(4.16667,0,0,4.16667,2357.03,0)">
            <g transform="matrix(-0.135282,0.990807,0.990807,0.135282,281.808,338.172)">
                <path d="M3.662,-4.196C8.851,-4.195 13.055,-2.54 13.055,-0.499C13.055,1.542 8.85,3.197 3.662,3.196C-1.527,3.195 -5.732,1.54 -5.732,-0.501C-5.731,-2.542 -1.526,-4.197 3.662,-4.196" style="fill:rgb(66,99,174);fill-rule:nonzero;"/>
            </g>
        </g>
        <g transform="matrix(4.16667,0,0,4.16667,2357.03,0)">
            <g transform="matrix(1,0,0,1,240.31,325.235)">
                <path d="M0,-7.683C-1.23,-8.131 -5.862,-9.649 -11.113,-7.626C-17.721,-5.079 -20.016,1.038 -20.346,1.966" style="fill:none;fill-rule:nonzero;stroke:rgb(113,139,198);stroke-width:1px;"/>
            </g>
        </g>
        <g transform="matrix(4.16667,0,0,4.16667,2357.03,0)">
            <g transform="matrix(1,0,0,1,275.249,333.722)">
                <path d="M0,-14.626C1.306,-14.716 6.177,-14.896 10.664,-11.5C16.312,-7.226 16.826,-0.713 16.887,0.27" style="fill:none;fill-rule:nonzero;stroke:rgb(113,139,198);stroke-width:1px;"/>
            </g>
        </g>
        <g transform="matrix(4.16667,0,0,4.16667,2357.03,0)">
            <g transform="matrix(1,0,0,1,262.978,353.344)">
                <path d="M0,7.94C-0.14,9.15 -0.55,10.08 -1.17,10.36C-2.72,11.08 -4.7,11.1 -8.89,10.45C-13.3,9.76 -15.63,9.47 -17.14,8.24C-17.27,8.13 -17.39,7.99 -17.48,7.83C-18.36,6.3 -17.59,2.53 -15.41,0.36C-11.89,-3.16 -4.62,-2.54 -1.61,1.58C-0.22,3.48 0.23,6.05 0,7.94" style="fill:rgb(66,99,174);fill-rule:nonzero;"/>
            </g>
        </g>
        <g transform="matrix(4.16667,0,0,4.16667,2357.03,0)">
            <g transform="matrix(-0.707055,0.707158,0.707158,0.707055,218.929,359.944)">
                <path d="M-8.32,-3.447L1.428,-3.447" style="fill:none;fill-rule:nonzero;stroke:rgb(113,139,198);stroke-width:1px;"/>
            </g>
        </g>
        <g transform="matrix(4.16667,0,0,4.16667,2357.03,0)">
            <g transform="matrix(-0.707107,0.707107,0.707107,0.707107,222.934,358.67)">
                <path d="M-4.854,-2.011L0.833,-2.011" style="fill:none;fill-rule:nonzero;stroke:rgb(113,139,198);stroke-width:1px;"/>
            </g>
        </g>
        <g transform="matrix(4.16667,0,0,4.16667,2357.03,0)">
            <g transform="matrix(-0.707107,0.707107,0.707107,0.707107,213.471,359.35)">
                <path d="M-4.854,-2.011L0.833,-2.011" style="fill:none;fill-rule:nonzero;stroke:rgb(113,139,198);stroke-width:1px;"/>
            </g>
        </g>
        <g transform="matrix(4.16667,0,0,4.16667,2357.03,0)">
            <g transform="matrix(-0.707107,0.707107,0.707107,0.707107,225.7,361.748)">
                <path d="M-6.678,-2.766L1.146,-2.766" style="fill:none;fill-rule:nonzero;stroke:rgb(113,139,198);stroke-width:1px;"/>
            </g>
        </g>
        <g transform="matrix(4.16667,0,0,4.16667,2357.03,0)">
            <g transform="matrix(0.707107,0.707107,0.707107,-0.707107,288.345,354.686)">
                <path d="M-1.428,-3.447L8.321,-3.447" style="fill:none;fill-rule:nonzero;stroke:rgb(113,139,198);stroke-width:1px;"/>
            </g>
        </g>
        <g transform="matrix(4.16667,0,0,4.16667,2357.03,0)">
            <g transform="matrix(0.707107,0.707107,0.707107,-0.707107,284.339,357.472)">
                <path d="M-0.833,-2.011L4.854,-2.011" style="fill:none;fill-rule:nonzero;stroke:rgb(113,139,198);stroke-width:1px;"/>
            </g>
        </g>
        <g transform="matrix(4.16667,0,0,4.16667,2357.03,0)">
            <g transform="matrix(0.707107,0.707107,0.707107,-0.707107,293.801,358.152)">
                <path d="M-0.833,-2.011L4.854,-2.011" style="fill:none;fill-rule:nonzero;stroke:rgb(113,139,198);stroke-width:1px;"/>
            </g>
        </g>
        <g transform="matrix(4.16667,0,0,4.16667,2357.03,0)">
            <g transform="matrix(0.707107,0.707107,0.707107,-0.707107,281.573,358.414)">
                <path d="M-1.146,-2.766L6.678,-2.766" style="fill:none;fill-rule:nonzero;stroke:rgb(113,139,198);stroke-width:1px;"/>
            </g>
        </g>
        <g transform="matrix(4.16667,0,0,4.16667,2357.03,0)">
            <g transform="matrix(1,0,0,1,262.978,359.354)">
                <path d="M0,1.93C-0.14,3.14 -0.55,4.07 -1.17,4.35C-2.72,5.07 -4.7,5.09 -8.89,4.44C-13.3,3.75 -15.63,3.46 -17.14,2.23C-17.27,2.12 -17.39,1.98 -17.48,1.82C-16.41,0.58 -14.86,-0.72 -12.71,-1.46C-7.78,-3.16 -3.51,-0.6 -2.43,0.06C-1.48,0.63 -0.67,1.27 0,1.93" style="fill:rgb(113,139,198);fill-rule:nonzero;"/>
            </g>
        </g>
    </g>
</svg>
