<?xml version="1.0" encoding="UTF-8" standalone="no"?>
<!DOCTYPE svg PUBLIC "-//W3C//DTD SVG 1.1//EN" "http://www.w3.org/Graphics/SVG/1.1/DTD/svg11.dtd">
<svg width="100%" height="100%" viewBox="0 0 1543 1947" version="1.1" xmlns="http://www.w3.org/2000/svg" xmlns:xlink="http://www.w3.org/1999/xlink" xml:space="preserve" xmlns:serif="http://www.serif.com/" style="fill-rule:evenodd;clip-rule:evenodd;stroke-linecap:round;stroke-miterlimit:10;">
    <g transform="matrix(1,0,0,1,-254.547,-720.538)">
        <g transform="matrix(4.16667,0,0,4.16667,0,0)">
            <g transform="matrix(1,0,0,1,420.309,451.276)">
                <path d="M0,-115.544L0,0.009C0,5.882 -4.756,10.638 -10.638,10.638L-126.182,10.638C-132.064,10.638 -136.82,5.882 -136.82,0.009L-136.67,-33.94C-136.661,-36.867 -134.278,-39.231 -131.351,-39.231L-125.253,-39.231C-114.344,-39.231 -105.348,-48.218 -105.348,-59.306C-105.348,-70.403 -114.344,-79.39 -125.432,-79.39L-131.501,-79.39C-134.439,-79.39 -136.82,-81.772 -136.82,-84.71L-136.82,-115.544C-136.82,-121.417 -132.064,-126.182 -126.182,-126.182L-85.797,-126.182C-82.86,-126.182 -80.479,-123.801 -80.479,-120.864L-80.479,-116.006C-80.479,-105.123 -72.018,-95.854 -61.142,-95.463C-49.717,-95.054 -40.319,-104.192 -40.319,-115.525L-40.319,-120.864C-40.319,-123.801 -37.938,-126.182 -35.001,-126.182L-10.638,-126.182C-4.756,-126.182 0,-121.417 0,-115.544Z" style="fill:rgb(113,139,198);fill-rule:nonzero;stroke:white;stroke-width:2px;"/>
            </g>
        </g>
        <g transform="matrix(4.16667,0,0,4.16667,0,0)">
            <g transform="matrix(1,0,0,1,293.519,263.184)">
                <path d="M0,-21.06L-8.166,-21.06C-11.135,-21.06 -13.542,-23.467 -13.542,-26.436L-13.542,-69.53C-13.542,-75.14 -18.089,-79.687 -23.698,-79.687L-141.698,-79.687C-147.312,-79.687 -151.864,-75.135 -151.864,-69.521L-151.864,48.47C-151.864,54.074 -147.312,58.627 -141.698,58.627L-98.568,58.627C-95.599,58.627 -93.191,56.219 -93.191,53.25L-93.191,47.127C-93.191,36.118 -84.632,26.742 -73.631,26.349C-62.083,25.937 -52.594,35.174 -52.594,46.63L-52.594,53.25C-52.594,56.219 -50.187,58.627 -47.217,58.627L-23.708,58.627C-18.094,58.627 -13.542,54.074 -13.542,48.47L-13.542,19.045C-13.542,16.076 -11.135,13.669 -8.166,13.669L0.416,13.669C10.217,13.669 18.121,5.55 17.77,-4.329C17.435,-13.738 9.416,-21.06 0,-21.06Z" style="fill:rgb(241,142,135);fill-rule:nonzero;stroke:white;stroke-width:2px;"/>
            </g>
        </g>
        <g transform="matrix(4.16667,0,0,4.16667,0,0)">
            <g transform="matrix(1,0,0,1,410.493,352.81)">
                <path d="M0,-169.831L-117.188,-169.831C-123.153,-169.831 -127.977,-165.007 -127.977,-159.051L-127.977,-119.348C-127.977,-116.369 -125.562,-113.954 -122.583,-113.954L-116.907,-113.954C-105.868,-113.954 -96.465,-105.372 -96.07,-94.34C-95.655,-82.754 -104.933,-73.223 -116.426,-73.223L-122.583,-73.223C-125.562,-73.223 -127.977,-70.808 -127.977,-67.829L-127.977,-41.854C-127.977,-35.898 -123.153,-31.065 -117.188,-31.065L-73.288,-31.065C-70.309,-31.065 -67.894,-28.65 -67.894,-25.671L-67.894,-18.18C-67.894,-8.733 -60.548,-0.687 -51.108,-0.352C-41.197,0 -33.051,-7.93 -33.051,-17.762L-33.051,-25.671C-33.051,-28.65 -30.636,-31.065 -27.657,-31.065L0,-31.065C5.965,-31.065 10.79,-35.898 10.79,-41.854L10.79,-159.051C10.79,-165.007 5.965,-169.831 0,-169.831Z" style="fill:rgb(251,236,163);fill-rule:nonzero;stroke:white;stroke-width:2px;"/>
            </g>
        </g>
        <g transform="matrix(4.16667,0,0,4.16667,0,0)">
            <g transform="matrix(1,0,0,1,293.914,380.47)">
                <path d="M0,-5.698L-8.199,-5.698C-11.186,-5.698 -13.607,-8.119 -13.607,-11.107L-13.607,-45.421C-13.607,-51.395 -18.451,-56.239 -24.425,-56.239L-50.433,-56.239C-53.42,-56.239 -55.842,-58.66 -55.842,-61.647L-55.842,-70.381C-55.842,-79.853 -63.208,-87.921 -72.674,-88.257C-82.613,-88.611 -90.781,-80.659 -90.781,-70.799L-90.781,-61.647C-90.781,-58.66 -93.202,-56.239 -96.189,-56.239L-141.942,-56.239C-147.917,-56.239 -152.76,-51.395 -152.76,-45.421L-152.76,72.096C-152.76,78.07 -147.917,82.913 -141.942,82.913L-24.425,82.913C-18.451,82.913 -13.607,78.07 -13.607,72.096L-13.607,34.65C-13.607,31.662 -11.186,29.241 -8.199,29.241L0.418,29.241C10.278,29.241 18.23,21.073 17.876,11.135C17.54,1.668 9.472,-5.698 0,-5.698Z" style="fill:rgb(156,215,210);fill-rule:nonzero;stroke:white;stroke-width:2px;"/>
            </g>
        </g>
        <g transform="matrix(4.16667,0,0,4.16667,0,0)">
            <g transform="matrix(-0.26684,-0.963741,-0.963741,0.26684,122.755,403.092)">
                <path d="M-9.353,7.115C-4.305,6.983 0.628,6.998 5.413,7.115" style="fill:none;fill-rule:nonzero;stroke:rgb(35,31,32);stroke-width:1px;"/>
            </g>
        </g>
        <g transform="matrix(4.16667,0,0,4.16667,0,0)">
            <g transform="matrix(1,0,0,1,173.373,465.874)">
                <path d="M0,14.24C2.23,9.32 5.71,5.02 10.19,1.82C11.14,1.14 12.06,0.51 12.9,0" style="fill:none;fill-rule:nonzero;stroke:rgb(35,31,32);stroke-width:1px;"/>
            </g>
        </g>
        <g transform="matrix(4.16667,0,0,4.16667,0,0)">
            <g transform="matrix(0.612844,0.790204,0.790204,-0.612844,188.088,365.455)">
                <path d="M-7.334,-14.97C3.787,-14.484 16.637,-13.971 30.554,-14.97" style="fill:none;fill-rule:nonzero;stroke:rgb(35,31,32);stroke-width:1px;"/>
            </g>
        </g>
        <g transform="matrix(4.16667,0,0,4.16667,0,0)">
            <g transform="matrix(1,0,0,1,243.793,505.754)">
                <path d="M0,-56.49C-1.06,-55 -10.61,-42.05 -22.42,-41.64C-24.51,-51.71 -27.179,-61.826 -29.918,-69.746C-32.329,-76.712 -34.86,-82.4 -37.97,-88.51C-36.65,-90.21 -35.14,-91.8 -33.48,-93.24C-37.64,-99.55 -43.54,-103.99 -48.81,-106.98C-45,-101.27 -41.33,-95.13 -37.97,-88.51C-37.97,-88.51 -34.122,-80.392 -32.727,-77.112C-27.578,-65.015 -26.274,-59.086 -23.936,-48.573C-22.906,-43.942 -22.645,-42.713 -22.42,-41.64C-12.25,7.61 -9.37,75.61 -8.75,94.03C-16.47,97.41 -25.93,100.25 -36.89,101.09C-44.14,101.64 -50.71,101.21 -56.36,100.35C-56.51,83.98 -57.31,66.47 -59.04,47.99C-61.56,21.15 -65.63,-3.49 -70.42,-25.64C-71.68,-22.89 -72.54,-19.93 -72.96,-16.88L-89.23,101.6C-96.35,103.78 -106.93,105.64 -118.64,104.15C-127.52,103.01 -134.47,99.56 -139.27,96.34C-135.59,84.26 -119.75,29.64 -117.91,-23.22L-117.9,-23.23C-117.784,-38.441 -117.379,-49.032 -119.79,-63.57C-121.26,-73.47 -123.17,-82.87 -125.4,-91.75C-127.25,-89.48 -129.12,-86.92 -130.9,-84.06C-133.78,-79.43 -135.88,-74.94 -137.43,-70.89C-132.58,-70.52 -125.46,-68.97 -119.79,-63.57C-117.89,-50.77 -117.42,-37.06 -117.91,-23.22C-127.41,-12.77 -142.89,-15.1 -148.86,-16C-152.37,-16.53 -166.28,-18.63 -175.35,-30.35C-184.91,-42.71 -182.86,-57.7 -181.61,-66.78C-178.45,-89.78 -164.96,-105.17 -155.49,-115.71C-148.65,-123.31 -136.07,-137.3 -116.85,-145.51C-77.97,-162.13 -19.77,-151.6 0.14,-115.34C9.38,-98.52 12,-73.23 0,-56.49" style="fill:rgb(66,99,174);fill-rule:nonzero;"/>
            </g>
        </g>
        <g transform="matrix(4.16667,0,0,4.16667,0,0)">
            <g transform="matrix(1,0,0,1,152.785,356.533)">
                <path d="M0,3.743C3.404,2.008 4.495,-0.721 6.071,-3.666C-4.509,-2.936 -14.811,-0.722 -24.095,3C-16.214,4.978 -7.19,7.409 0,3.743" style="fill:rgb(214,221,240);fill-rule:nonzero;"/>
            </g>
        </g>
        <g transform="matrix(4.16667,0,0,4.16667,0,0)">
            <g transform="matrix(1,0,0,1,125.285,379.8)">
                <path d="M0,103.355C0.671,93.754 0.487,84.213 -0.545,74.635C-1,70.41 -1.308,66.168 -1.76,61.955C-7.348,56.91 -14.206,55.423 -18.922,55.064C-17.372,51.014 -15.271,46.524 -12.392,41.894C-10.612,39.034 -8.742,36.474 -6.892,34.204C-6.889,34.213 -6.887,34.224 -6.885,34.233C-3.535,25.1 -1.15,15.748 -3.737,5.93C-5.064,0.893 -7.392,-4.53 -11.753,-7.663C-12.929,-8.508 -14.216,-9.166 -15.56,-9.725C-25.386,-2.621 -32.452,5.21 -36.981,10.244C-46.452,20.784 -59.942,36.174 -63.102,59.174C-64.352,68.254 -66.402,83.244 -56.842,95.604C-47.771,107.324 -33.862,109.424 -30.352,109.954C-24.505,110.835 -9.539,113.08 0,103.355" style="fill:rgb(214,221,240);fill-rule:nonzero;"/>
            </g>
        </g>
        <g transform="matrix(4.16667,0,0,4.16667,0,0)">
            <g transform="matrix(1,0,0,1,186.898,436.072)">
                <path d="M0,-53.028C2.082,-43.901 8.085,-37.299 8.085,-37.299C15.477,-33.01 20.187,-28.455 23.415,-23.558C21.755,-22.118 20.245,-20.528 18.925,-18.828C21.121,-14.515 23.025,-10.404 24.805,-5.913C24.596,-6.413 24.391,-6.909 24.168,-7.43C22.773,-10.71 18.925,-18.828 18.925,-18.828C18.633,-19.404 28.46,4.024 32.239,18.159C32.898,20.624 33.94,25.547 34.475,28.042C48.5,25.844 55.869,14.634 56.895,13.192C68.895,-3.549 66.275,-28.839 57.035,-45.658C46.727,-64.431 26.15,-76.288 3.311,-81.07C3.311,-81.07 -2.082,-62.155 0,-53.028" style="fill:rgb(214,221,240);fill-rule:nonzero;"/>
            </g>
        </g>
        <g transform="matrix(4.16667,0,0,4.16667,0,0)">
            <g transform="matrix(-0.852418,0.522862,0.522862,0.852418,212.657,414.678)">
                <path d="M-10.877,-3.07C-6.88,-3.727 -2.915,-3.707 0.867,-3.07" style="fill:none;fill-rule:nonzero;stroke:rgb(113,139,198);stroke-width:1px;"/>
            </g>
        </g>
        <g transform="matrix(4.16667,0,0,4.16667,0,0)">
            <g transform="matrix(1,0,0,1,86.233,434.644)">
                <path d="M0,5.6C2.56,3.86 7.67,0.9 14.71,0.23C15.35,0.17 17.38,0 20.13,0.22" style="fill:none;fill-rule:nonzero;stroke:rgb(113,139,198);stroke-width:1px;"/>
            </g>
        </g>
        <g transform="matrix(4.16667,0,0,4.16667,0,0)">
            <g transform="matrix(1,0,0,1,121.002,320.348)">
                <path d="M0,35.287C-2.144,32.867 -9.641,20.851 -6.646,7.255C-5.432,1.741 -2.499,-4.413 6.776,-7.723C19.113,-12.127 26.579,-7.052 33.327,-0.502C42.687,8.583 48.686,29.162 41.235,39.373C35.367,47.414 23.168,47.202 16.451,45.639C7.461,43.547 2.029,37.578 0,35.287" style="fill:rgb(253,253,253);fill-rule:nonzero;"/>
            </g>
        </g>
        <g transform="matrix(4.16667,0,0,4.16667,0,0)">
            <g transform="matrix(1,0,0,1,121.002,320.348)">
                <path d="M0,35.287C-2.144,32.867 -9.641,20.851 -6.646,7.255C-5.432,1.741 -2.499,-4.413 6.776,-7.723C19.113,-12.127 26.579,-7.052 33.327,-0.502C42.687,8.583 48.686,29.162 41.235,39.373C35.367,47.414 23.168,47.202 16.451,45.639C7.461,43.547 2.029,37.578 0,35.287Z" style="fill:none;fill-rule:nonzero;stroke:rgb(113,139,198);stroke-width:1px;"/>
            </g>
        </g>
        <g transform="matrix(4.16667,0,0,4.16667,0,0)">
            <g transform="matrix(1,0,0,1,118.64,359.496)">
                <path d="M0,-12.306C-0.392,-12.493 -3.851,-14.141 -5.963,-12.003C-7.75,-10.194 -7.26,-7.002 -7.194,-6.612C-6.419,-1.972 -1.074,1.835 2.136,-0.026C3.997,-1.105 4.476,-3.705 4.546,-4.118C4.79,-5.561 4.542,-6.937 3.997,-8.151" style="fill:rgb(253,253,253);fill-rule:nonzero;stroke:rgb(113,139,198);stroke-width:1px;"/>
            </g>
        </g>
        <g transform="matrix(4.16667,0,0,4.16667,0,0)">
            <g transform="matrix(1,0,0,1,116.468,461.01)">
                <path d="M0,6.245C-1.818,6.585 -3.568,5.386 -3.908,3.567C-4.248,1.749 -3.049,-0.001 -1.23,-0.34" style="fill:rgb(253,253,253);fill-rule:nonzero;stroke:rgb(113,139,198);stroke-width:1px;"/>
            </g>
        </g>
        <g transform="matrix(4.16667,0,0,4.16667,0,0)">
            <g transform="matrix(0.982988,-0.183667,-0.183667,-0.982988,114.951,461.993)">
                <path d="M0.525,1.247L10.44,1.247C12.289,1.248 13.789,-0.252 13.79,-2.103C13.79,-3.952 12.29,-5.452 10.44,-5.453L0.525,-5.451" style="fill:rgb(253,253,253);fill-rule:nonzero;"/>
            </g>
        </g>
        <g transform="matrix(4.16667,0,0,4.16667,0,0)">
            <g transform="matrix(1,0,0,1,127.495,467.312)">
                <path d="M0,6.686L-14.752,6.686C-16.59,6.686 -18.095,5.182 -18.095,3.343C-18.095,1.504 -16.59,0 -14.752,0L0,0C1.838,0 3.343,1.504 3.343,3.343C3.343,5.182 1.838,6.686 0,6.686" style="fill:rgb(253,253,253);fill-rule:nonzero;"/>
            </g>
        </g>
        <g transform="matrix(4.16667,0,0,4.16667,0,0)">
            <g transform="matrix(1,0,0,1,126.002,474.195)">
                <path d="M0,7.022L-11.784,7.022C-13.715,7.022 -15.295,5.442 -15.295,3.511C-15.295,1.58 -13.715,0 -11.784,0L0,0C1.931,0 3.511,1.58 3.511,3.511C3.511,5.442 1.931,7.022 0,7.022" style="fill:rgb(253,253,253);fill-rule:nonzero;"/>
            </g>
        </g>
        <g transform="matrix(4.16667,0,0,4.16667,0,0)">
            <g transform="matrix(1,0,0,1,125.863,481.216)">
                <path d="M0,5.82L-8.369,5.82C-9.97,5.82 -11.279,4.51 -11.279,2.91C-11.279,1.31 -9.97,0 -8.369,0L0,0C1.6,0 2.91,1.31 2.91,2.91C2.91,4.51 1.6,5.82 0,5.82" style="fill:rgb(253,253,253);fill-rule:nonzero;"/>
            </g>
        </g>
        <g transform="matrix(4.16667,0,0,4.16667,0,0)">
            <g transform="matrix(1,0,0,1,116.468,461.01)">
                <path d="M0,6.245C-1.818,6.585 -3.568,5.386 -3.908,3.567C-4.248,1.749 -3.049,-0.001 -1.23,-0.34" style="fill:none;fill-rule:nonzero;stroke:rgb(113,139,198);stroke-width:1px;"/>
            </g>
        </g>
        <g transform="matrix(4.16667,0,0,4.16667,0,0)">
            <g transform="matrix(-0.982992,0.183649,0.183649,0.982992,116.718,468.135)">
                <path d="M-9.831,-0.911L0.084,-0.911" style="fill:none;fill-rule:nonzero;stroke:rgb(113,139,198);stroke-width:1px;"/>
            </g>
        </g>
        <g transform="matrix(4.16667,0,0,4.16667,0,0)">
            <g transform="matrix(1,0,0,1,114.797,466.679)">
                <path d="M0,7.515C-4.267,7.624 -5.397,5.815 -5.397,3.976C-5.397,2.138 -4.282,-0.109 1.059,0.632" style="fill:none;fill-rule:nonzero;stroke:rgb(113,139,198);stroke-width:1px;"/>
            </g>
        </g>
        <g transform="matrix(4.16667,0,0,4.16667,0,0)">
            <g transform="matrix(-1,0,0,1,114.219,481.217)">
                <path d="M-3.275,0L0,0" style="fill:none;fill-rule:nonzero;stroke:rgb(113,139,198);stroke-width:1px;"/>
            </g>
        </g>
        <g transform="matrix(4.16667,0,0,4.16667,0,0)">
            <g transform="matrix(-1,0,0,1,117.494,481.217)">
                <path d="M-8.508,0L0,0" style="fill:none;fill-rule:nonzero;stroke:rgb(113,139,198);stroke-width:1px;"/>
            </g>
        </g>
        <g transform="matrix(4.16667,0,0,4.16667,0,0)">
            <g transform="matrix(1,0,0,1,114.218,474.194)">
                <path d="M0,0L11.784,0" style="fill:none;fill-rule:nonzero;stroke:rgb(113,139,198);stroke-width:1px;"/>
            </g>
        </g>
        <g transform="matrix(4.16667,0,0,4.16667,0,0)">
            <g transform="matrix(1,0,0,1,114.218,474.195)">
                <path d="M0,7.022C-1.931,7.022 -3.511,5.442 -3.511,3.511C-3.511,1.58 -1.931,0 0,0" style="fill:none;fill-rule:nonzero;stroke:rgb(113,139,198);stroke-width:1px;"/>
            </g>
        </g>
        <g transform="matrix(4.16667,0,0,4.16667,0,0)">
            <g transform="matrix(1,0,0,1,117.494,481.217)">
                <path d="M0,0L8.369,0" style="fill:none;fill-rule:nonzero;stroke:rgb(113,139,198);stroke-width:1px;"/>
            </g>
        </g>
        <g transform="matrix(4.16667,0,0,4.16667,0,0)">
            <g transform="matrix(1,0,0,1,117.494,481.216)">
                <path d="M0,5.82C-1.601,5.82 -2.91,4.51 -2.91,2.91C-2.91,1.31 -1.601,0 0,0" style="fill:none;fill-rule:nonzero;stroke:rgb(113,139,198);stroke-width:1px;"/>
            </g>
        </g>
        <g transform="matrix(4.16667,0,0,4.16667,0,0)">
            <g transform="matrix(1,0,0,1,208.74,426.739)">
                <path d="M0,6.938C1.752,6.344 2.69,4.442 2.096,2.69C1.502,0.938 -0.4,0 -2.152,0.594" style="fill:rgb(253,253,253);fill-rule:nonzero;stroke:rgb(113,139,198);stroke-width:1px;"/>
            </g>
        </g>
        <g transform="matrix(4.16667,0,0,4.16667,0,0)">
            <g transform="matrix(-0.947006,0.321216,0.321216,0.947006,198.549,438.783)">
                <path d="M-11.291,-8.261L-1.375,-8.261C0.474,-8.261 1.974,-6.762 1.974,-4.912C1.973,-3.061 0.474,-1.561 -1.377,-1.562L-11.291,-1.562" style="fill:rgb(253,253,253);fill-rule:nonzero;"/>
            </g>
        </g>
        <g transform="matrix(4.16667,0,0,4.16667,0,0)">
            <g transform="matrix(1,0,0,1,202.428,431.902)">
                <path d="M0,13.054L12.862,5.83C14.465,4.929 15.04,2.882 14.14,1.279C13.239,-0.324 11.191,-0.9 9.588,0.001L-3.274,7.225C-4.877,8.125 -5.452,10.173 -4.552,11.776C-3.651,13.379 -1.603,13.954 0,13.054" style="fill:rgb(253,253,253);fill-rule:nonzero;"/>
            </g>
        </g>
        <g transform="matrix(4.16667,0,0,4.16667,0,0)">
            <g transform="matrix(1,0,0,1,207.264,438.625)">
                <path d="M0,11.893L10.274,6.122C11.958,5.177 12.562,3.026 11.616,1.342C10.671,-0.342 8.52,-0.946 6.835,0L-3.438,5.77C-5.123,6.716 -5.726,8.868 -4.781,10.551C-3.835,12.235 -1.684,12.839 0,11.893" style="fill:rgb(253,253,253);fill-rule:nonzero;"/>
            </g>
        </g>
        <g transform="matrix(4.16667,0,0,4.16667,0,0)">
            <g transform="matrix(1,0,0,1,210.236,446.352)">
                <path d="M0,9.172L7.297,5.074C8.692,4.29 9.193,2.507 8.409,1.112C7.625,-0.284 5.842,-0.784 4.447,0L-2.85,4.098C-4.245,4.881 -4.746,6.665 -3.962,8.06C-3.178,9.456 -1.396,9.956 0,9.172" style="fill:rgb(253,253,253);fill-rule:nonzero;"/>
            </g>
        </g>
        <g transform="matrix(4.16667,0,0,4.16667,0,0)">
            <g transform="matrix(1,0,0,1,208.74,426.739)">
                <path d="M0,6.938C1.752,6.344 2.69,4.442 2.096,2.69C1.502,0.938 -0.4,0 -2.152,0.594" style="fill:none;fill-rule:nonzero;stroke:rgb(113,139,198);stroke-width:1px;"/>
            </g>
        </g>
        <g transform="matrix(4.16667,0,0,4.16667,0,0)">
            <g transform="matrix(0.946996,-0.321246,-0.321246,-0.946996,200.111,438.286)">
                <path d="M-0.263,1.592L9.652,1.593" style="fill:none;fill-rule:nonzero;stroke:rgb(113,139,198);stroke-width:1px;"/>
            </g>
        </g>
        <g transform="matrix(4.16667,0,0,4.16667,0,0)">
            <g transform="matrix(1,0,0,1,213.595,430.165)">
                <path d="M0,8.744C3.773,6.75 3.873,4.619 2.973,3.016C2.072,1.413 0,0 -4.294,3.262" style="fill:none;fill-rule:nonzero;stroke:rgb(113,139,198);stroke-width:1px;"/>
            </g>
        </g>
        <g transform="matrix(4.16667,0,0,4.16667,0,0)">
            <g transform="matrix(0.871901,-0.489681,-0.489681,-0.871901,215.258,446.948)">
                <path d="M-0.21,0.802L3.066,0.802" style="fill:none;fill-rule:nonzero;stroke:rgb(113,139,198);stroke-width:1px;"/>
            </g>
        </g>
        <g transform="matrix(4.16667,0,0,4.16667,0,0)">
            <g transform="matrix(0.871858,-0.489759,-0.489759,-0.871858,208.76,452.068)">
                <path d="M-0.545,2.083L7.963,2.083" style="fill:none;fill-rule:nonzero;stroke:rgb(113,139,198);stroke-width:1px;"/>
            </g>
        </g>
        <g transform="matrix(4.16667,0,0,4.16667,0,0)">
            <g transform="matrix(-0.87187,0.489737,0.489737,0.87187,205.897,446.542)">
                <path d="M-11.029,-2.886L0.755,-2.886" style="fill:none;fill-rule:nonzero;stroke:rgb(113,139,198);stroke-width:1px;"/>
            </g>
        </g>
        <g transform="matrix(4.16667,0,0,4.16667,0,0)">
            <g transform="matrix(1,0,0,1,217.539,437.68)">
                <path d="M0,7.068C1.684,6.123 2.288,3.971 1.342,2.287C0.396,0.604 -1.755,0 -3.439,0.945" style="fill:none;fill-rule:nonzero;stroke:rgb(113,139,198);stroke-width:1px;"/>
            </g>
        </g>
        <g transform="matrix(4.16667,0,0,4.16667,0,0)">
            <g transform="matrix(-0.87191,0.489665,0.489665,0.87191,208.856,451.974)">
                <path d="M-7.833,-2.049L0.536,-2.049" style="fill:none;fill-rule:nonzero;stroke:rgb(113,139,198);stroke-width:1px;"/>
            </g>
        </g>
        <g transform="matrix(4.16667,0,0,4.16667,0,0)">
            <g transform="matrix(1,0,0,1,217.533,445.568)">
                <path d="M0,5.858C1.396,5.074 1.896,3.292 1.112,1.896C0.329,0.501 -1.455,0 -2.85,0.784" style="fill:none;fill-rule:nonzero;stroke:rgb(113,139,198);stroke-width:1px;"/>
            </g>
        </g>
        <g transform="matrix(4.16667,0,0,4.16667,0,0)">
            <g transform="matrix(1,0,0,1,204.906,632.792)">
                <path d="M0,-19.816L-17.941,-22.059L-22.375,2.243L29.676,2.243L1.978,-7.903L0,-19.816Z" style="fill:rgb(113,139,198);fill-rule:nonzero;"/>
            </g>
        </g>
        <g transform="matrix(4.16667,0,0,4.16667,0,0)">
            <g transform="matrix(1,0,0,1,134.567,631.067)">
                <path d="M0,-16.657L19.677,-20.626L21.906,3.311L-30.292,3.969L-3.002,-8.041L0,-16.657Z" style="fill:rgb(113,139,198);fill-rule:nonzero;"/>
            </g>
        </g>
        <g transform="matrix(4.16667,0,0,4.16667,0,0)">
            <g transform="matrix(-0.50003,-0.866008,-0.866008,0.50003,129.598,333.085)">
                <path d="M-1.95,-3.379C-4.545,-3.379 -6.649,-2.371 -6.648,-1.126C-6.648,0.119 -4.545,1.127 -1.95,1.127C0.644,1.126 2.748,0.118 2.748,-1.126C2.747,-2.371 0.644,-3.379 -1.95,-3.379" style="fill:rgb(66,99,174);fill-rule:nonzero;"/>
            </g>
        </g>
        <g transform="matrix(4.16667,0,0,4.16667,0,0)">
            <g transform="matrix(0.960374,-0.278716,-0.278716,-0.960374,140.174,353.425)">
                <path d="M0.112,2.357C4.916,-2.446 12.688,-2.446 17.492,2.357" style="fill:none;fill-rule:nonzero;stroke:rgb(113,139,198);stroke-width:1px;"/>
            </g>
        </g>
        <g transform="matrix(4.16667,0,0,4.16667,0,0)">
            <g transform="matrix(-0.50003,-0.866008,-0.866008,0.50003,148.199,325.373)">
                <path d="M-1.951,-3.379C-4.545,-3.379 -6.649,-2.37 -6.648,-1.126C-6.649,0.118 -4.545,1.127 -1.951,1.126C0.644,1.127 2.746,0.118 2.747,-1.127C2.747,-2.37 0.643,-3.38 -1.951,-3.379" style="fill:rgb(66,99,174);fill-rule:nonzero;"/>
            </g>
        </g>
        <g transform="matrix(4.16667,0,0,4.16667,0,0)">
            <g transform="matrix(1,0,0,1,141.154,343.272)">
                <path d="M0,-20.995C2.614,-19.772 7.273,-17.1 11.248,-11.595C13.469,-8.518 14.814,-5.474 15.637,-3.134L4.938,0" style="fill:rgb(253,253,253);fill-rule:nonzero;stroke:rgb(113,139,198);stroke-width:1px;"/>
            </g>
        </g>
        <g transform="matrix(4.16667,0,0,4.16667,0,0)">
            <g transform="matrix(0.707079,0.707135,0.707135,-0.707079,137.091,536.282)">
                <path d="M-2.59,-6.253C2.298,-11.141 10.208,-11.141 15.095,-6.253" style="fill:none;fill-rule:nonzero;stroke:rgb(113,139,198);stroke-width:1px;"/>
            </g>
        </g>
        <g transform="matrix(4.16667,0,0,4.16667,0,0)">
            <g transform="matrix(-0.707107,0.707107,0.707107,0.707107,214.1,545)">
                <path d="M-15.095,-6.253C-10.207,-1.365 -2.298,-1.365 2.59,-6.253" style="fill:none;fill-rule:nonzero;stroke:rgb(113,139,198);stroke-width:1px;"/>
            </g>
        </g>
        <g transform="matrix(4.16667,0,0,4.16667,0,0)">
            <g transform="matrix(1,0,0,1,185.045,480.296)">
                <path d="M0,-12.195C-0.176,-10.926 -0.824,-7.568 -3.718,-4.481C-6.737,-1.261 -10.373,-0.287 -11.672,0" style="fill:none;fill-rule:nonzero;stroke:rgb(113,139,198);stroke-width:1px;"/>
            </g>
        </g>
        <g transform="matrix(4.16667,0,0,4.16667,0,0)">
            <g transform="matrix(1,0,0,1,133.396,617.184)">
                <path d="M0,5.829C-0.203,3.624 -0.766,-0.944 -2.24,-1.131C-2.535,-1.168 -2.86,-1.029 -3.052,-0.802C-4.274,0.645 -0.205,5.775 -0.606,6.074C-0.989,6.358 -4.439,1.561 -5.84,2.25C-6.065,2.361 -6.228,2.609 -6.254,2.852C-6.429,4.454 -0.772,6.155 -0.904,6.545C-0.986,6.785 -3.07,5.942 -5.765,6.243C-6.996,6.381 -7.99,6.717 -8.666,6.997" style="fill:none;fill-rule:nonzero;stroke:rgb(113,139,198);stroke-width:1px;"/>
            </g>
        </g>
        <g transform="matrix(4.16667,0,0,4.16667,0,0)">
            <g transform="matrix(1,0,0,1,205.135,620.175)">
                <path d="M0,0.589C1.17,-1.292 3.729,-5.122 5.214,-4.597C5.512,-4.492 5.759,-4.214 5.841,-3.92C6.362,-2.049 0.218,0.637 0.468,1.094C0.706,1.528 6.114,-1.149 7.141,0.127C7.306,0.332 7.351,0.631 7.268,0.862C6.724,2.38 0.59,1.245 0.542,1.656C0.514,1.909 2.87,2.134 5.299,3.671C6.409,4.374 7.206,5.142 7.725,5.711" style="fill:none;fill-rule:nonzero;stroke:rgb(113,139,198);stroke-width:1px;"/>
            </g>
        </g>
        <g transform="matrix(4.16667,0,0,4.16667,0,0)">
            <g transform="matrix(1,0,0,1,78.9362,635.035)">
                <path d="M0,0L280.402,0" style="fill:none;fill-rule:nonzero;stroke:rgb(113,139,198);stroke-width:1px;"/>
            </g>
        </g>
    </g>
</svg>
