<?xml version="1.0" encoding="UTF-8" standalone="no"?>
<!DOCTYPE svg PUBLIC "-//W3C//DTD SVG 1.1//EN" "http://www.w3.org/Graphics/SVG/1.1/DTD/svg11.dtd">
<svg width="100%" height="100%" viewBox="0 0 1386 1836" version="1.1" xmlns="http://www.w3.org/2000/svg" xmlns:xlink="http://www.w3.org/1999/xlink" xml:space="preserve" xmlns:serif="http://www.serif.com/" style="fill-rule:evenodd;clip-rule:evenodd;stroke-linecap:round;stroke-miterlimit:10;">
    <g transform="matrix(1,0,0,1,-316.509,-4707.16)">
        <g transform="matrix(4.16667,0,0,4.16667,0,4177.42)">
            <g transform="matrix(-0.707107,0.707107,0.707107,0.707107,139.333,262.328)">
                <path d="M-11.694,-4.844L2.006,-4.844" style="fill:none;fill-rule:nonzero;stroke:rgb(113,139,198);stroke-width:1px;"/>
            </g>
        </g>
        <g transform="matrix(4.16667,0,0,4.16667,0,4177.42)">
            <g transform="matrix(-0.70707,0.707143,0.707143,0.70707,165.082,303.61)">
                <path d="M-11.694,-4.844L2.007,-4.844" style="fill:none;fill-rule:nonzero;stroke:rgb(113,139,198);stroke-width:1px;"/>
            </g>
        </g>
        <g transform="matrix(4.16667,0,0,4.16667,0,4177.42)">
            <g transform="matrix(-0.707107,0.707107,0.707107,0.707107,151.115,162.335)">
                <path d="M-11.694,-4.844L2.006,-4.844" style="fill:none;fill-rule:nonzero;stroke:rgb(113,139,198);stroke-width:1px;"/>
            </g>
        </g>
        <g transform="matrix(4.16667,0,0,4.16667,0,4177.42)">
            <g transform="matrix(-0.70707,0.707143,0.707143,0.70707,327.842,176.754)">
                <path d="M-11.694,-4.844L2.007,-4.844" style="fill:none;fill-rule:nonzero;stroke:rgb(113,139,198);stroke-width:1px;"/>
            </g>
        </g>
        <g transform="matrix(4.16667,0,0,4.16667,0,4177.42)">
            <g transform="matrix(-0.707143,0.70707,0.70707,0.707143,280.713,143.857)">
                <path d="M-11.694,-4.844L2.006,-4.844" style="fill:none;fill-rule:nonzero;stroke:rgb(113,139,198);stroke-width:1px;"/>
            </g>
        </g>
        <g transform="matrix(4.16667,0,0,4.16667,0,4177.42)">
            <g transform="matrix(-0.707107,0.707107,0.707107,0.707107,212.518,143.857)">
                <path d="M-11.693,-4.844L2.006,-4.844" style="fill:none;fill-rule:nonzero;stroke:rgb(113,139,198);stroke-width:1px;"/>
            </g>
        </g>
        <g transform="matrix(4.16667,0,0,4.16667,0,4177.42)">
            <g transform="matrix(-0.707107,0.707107,0.707107,0.707107,110.926,208.504)">
                <path d="M-11.694,-4.844L2.006,-4.844" style="fill:none;fill-rule:nonzero;stroke:rgb(113,139,198);stroke-width:1px;"/>
            </g>
        </g>
        <g transform="matrix(4.16667,0,0,4.16667,0,4177.42)">
            <g transform="matrix(-0.707107,0.707107,0.707107,0.707107,85.8312,409.793)">
                <path d="M-11.694,-4.844L2.006,-4.844" style="fill:none;fill-rule:nonzero;stroke:rgb(113,139,198);stroke-width:1px;"/>
            </g>
        </g>
        <g transform="matrix(4.16667,0,0,4.16667,0,4177.42)">
            <g transform="matrix(-0.707107,0.707107,0.707107,0.707107,292.496,333.639)">
                <path d="M-11.694,-4.844L2.006,-4.844" style="fill:none;fill-rule:nonzero;stroke:rgb(113,139,198);stroke-width:1px;"/>
            </g>
        </g>
        <g transform="matrix(4.16667,0,0,4.16667,0,4177.42)">
            <g transform="matrix(-0.707143,0.70707,0.70707,0.707143,358.342,143.857)">
                <path d="M-11.694,-4.844L2.006,-4.844" style="fill:none;fill-rule:nonzero;stroke:rgb(113,139,198);stroke-width:1px;"/>
            </g>
        </g>
        <g transform="matrix(4.16667,0,0,4.16667,0,4177.42)">
            <g transform="matrix(-0.707107,0.707107,0.707107,0.707107,287.608,275.923)">
                <path d="M-11.694,-4.844L2.006,-4.844" style="fill:none;fill-rule:nonzero;stroke:rgb(113,139,198);stroke-width:1px;"/>
            </g>
        </g>
        <g transform="matrix(4.16667,0,0,4.16667,0,4177.42)">
            <g transform="matrix(-0.707107,0.707107,0.707107,0.707107,106.082,331.452)">
                <path d="M-11.694,-4.844L2.006,-4.844" style="fill:none;fill-rule:nonzero;stroke:rgb(113,139,198);stroke-width:1px;"/>
            </g>
        </g>
        <g transform="matrix(4.16667,0,0,4.16667,0,4177.42)">
            <g transform="matrix(-0.707107,0.707107,0.707107,0.707107,163.671,420.693)">
                <path d="M-11.694,-4.844L2.006,-4.844" style="fill:none;fill-rule:nonzero;stroke:rgb(113,139,198);stroke-width:1px;"/>
            </g>
        </g>
        <g transform="matrix(4.16667,0,0,4.16667,0,4177.42)">
            <g transform="matrix(-0.707143,0.70707,0.70707,0.707143,316.059,476.26)">
                <path d="M-11.694,-4.844L2.006,-4.844" style="fill:none;fill-rule:nonzero;stroke:rgb(113,139,198);stroke-width:1px;"/>
            </g>
        </g>
        <g transform="matrix(4.16667,0,0,4.16667,0,4177.42)">
            <g transform="matrix(-0.707107,0.707107,0.707107,0.707107,304.277,219.541)">
                <path d="M-11.694,-4.844L2.006,-4.844" style="fill:none;fill-rule:nonzero;stroke:rgb(113,139,198);stroke-width:1px;"/>
            </g>
        </g>
        <g transform="matrix(4.16667,0,0,4.16667,0,4177.42)">
            <g transform="matrix(-0.707107,0.707107,0.707107,0.707107,233.587,205.279)">
                <path d="M-11.694,-4.844L2.006,-4.844" style="fill:none;fill-rule:nonzero;stroke:rgb(113,139,198);stroke-width:1px;"/>
            </g>
        </g>
        <g transform="matrix(4.16667,0,0,4.16667,0,4177.42)">
            <g transform="matrix(-0.70707,0.707143,0.707143,0.70707,374.969,233.803)">
                <path d="M-11.694,-4.844L2.007,-4.844" style="fill:none;fill-rule:nonzero;stroke:rgb(113,139,198);stroke-width:1px;"/>
            </g>
        </g>
        <g transform="matrix(4.16667,0,0,4.16667,0,4177.42)">
            <g transform="matrix(-0.70707,0.707143,0.707143,0.70707,398.533,319.376)">
                <path d="M-11.694,-4.844L2.007,-4.844" style="fill:none;fill-rule:nonzero;stroke:rgb(113,139,198);stroke-width:1px;"/>
            </g>
        </g>
        <g transform="matrix(4.16667,0,0,4.16667,0,4177.42)">
            <g transform="matrix(-0.707107,0.707107,0.707107,0.707107,363.187,275.923)">
                <path d="M-11.694,-4.844L2.006,-4.844" style="fill:none;fill-rule:nonzero;stroke:rgb(113,139,198);stroke-width:1px;"/>
            </g>
        </g>
        <g transform="matrix(4.16667,0,0,4.16667,0,4177.42)">
            <g transform="matrix(-0.707143,0.70707,0.70707,0.707143,115.769,447.736)">
                <path d="M-11.694,-4.844L2.006,-4.844" style="fill:none;fill-rule:nonzero;stroke:rgb(113,139,198);stroke-width:1px;"/>
            </g>
        </g>
        <g transform="matrix(4.16667,0,0,4.16667,0,4177.42)">
            <g transform="matrix(-0.707107,0.707107,0.707107,0.707107,188.379,253.593)">
                <path d="M-11.694,-4.844L2.006,-4.844" style="fill:none;fill-rule:nonzero;stroke:rgb(113,139,198);stroke-width:1px;"/>
            </g>
        </g>
        <g transform="matrix(4.16667,0,0,4.16667,0,4177.42)">
            <g transform="matrix(-0.707143,0.70707,0.70707,0.707143,339.622,433.474)">
                <path d="M-11.694,-4.844L2.006,-4.844" style="fill:none;fill-rule:nonzero;stroke:rgb(113,139,198);stroke-width:1px;"/>
            </g>
        </g>
        <g transform="matrix(4.16667,0,0,4.16667,0,4177.42)">
            <g transform="matrix(-0.707143,0.70707,0.70707,0.707143,386.749,419.211)">
                <path d="M-11.694,-4.844L2.006,-4.844" style="fill:none;fill-rule:nonzero;stroke:rgb(113,139,198);stroke-width:1px;"/>
            </g>
        </g>
        <g transform="matrix(4.16667,0,0,4.16667,0,4177.42)">
            <g transform="matrix(-0.707107,0.707107,0.707107,0.707107,351.405,376.425)">
                <path d="M-11.693,-4.844L2.006,-4.844" style="fill:none;fill-rule:nonzero;stroke:rgb(113,139,198);stroke-width:1px;"/>
            </g>
        </g>
        <g transform="matrix(4.16667,0,0,4.16667,0,4177.42)">
            <g transform="matrix(-0.707143,0.70707,0.70707,0.707143,148.464,370.668)">
                <path d="M-11.694,-4.844L2.006,-4.844" style="fill:none;fill-rule:nonzero;stroke:rgb(113,139,198);stroke-width:1px;"/>
            </g>
        </g>
        <g transform="matrix(4.16667,0,0,4.16667,0,4177.42)">
            <g transform="matrix(1,0,0,1,299.671,452.092)">
                <path d="M0,-53.1C-2.055,-51.709 -5.409,-49.967 -8.913,-49.258L-8.913,-49.251C-10.643,-49.063 -13.242,-48.985 -16.136,-49.752C-17.514,-50.116 -20.628,-51.117 -24.639,-54.992C-21.869,-43.01 -18.346,-25.217 -16.253,-15.667C-9.83,13.653 -5.48,41.178 -2.601,66.421C-5.532,68.749 -9.134,71.05 -13.477,72.877C-25.536,77.955 -36.692,76.629 -42.764,75.244C-45.819,63.483 -48.882,51.723 -51.95,39.963C-55.233,27.402 -58.516,14.849 -61.812,2.296C-61.773,2.952 -61.734,3.608 -61.688,4.265C-59.849,32.915 -54.778,58.133 -48.843,79.222C-56.364,82.278 -67.299,85.554 -80.697,85.86C-86.191,85.983 -91.203,85.58 -95.63,84.923C-100.824,59.68 -104.875,29.008 -104.823,-5.876C-109.543,-7.209 -115.088,-9.745 -119.177,-14.744C-120.842,-16.785 -126.134,-23.962 -121.953,-52.762C-117.61,-82.751 -107.911,-102.287 -102.02,-112.565C-97.354,-120.711 -90.853,-127.205 -85.092,-131.21C-82.966,-132.692 -80.944,-133.83 -79.157,-134.591C-68.566,-139.083 -59.081,-137.977 -50.793,-132.959C-40.996,-127.017 -32.876,-115.601 -26.628,-101.507C-23.768,-104.484 -20.231,-105.966 -19.607,-106.116C-18.717,-106.324 -17.826,-106.434 -16.922,-106.454C-7.477,-106.578 2.802,-96.287 6.91,-87.087C11.786,-76.198 10.863,-60.459 0,-53.1" style="fill:rgb(66,99,174);fill-rule:nonzero;"/>
            </g>
        </g>
        <g transform="matrix(4.16667,0,0,4.16667,0,4177.42)">
            <g transform="matrix(1,0,0,1,241.877,318.683)">
                <path d="M0,14.843C-1.606,16.442 -4.057,18.874 -7.964,19.537C-13.718,20.518 -18.301,16.91 -19.991,15.584C-23.378,12.919 -28.735,6.86 -27.298,2.198C-25.172,0.716 -23.15,-0.422 -21.363,-1.182C-10.772,-5.675 -1.287,-4.569 7.001,0.449C7.547,4.974 3.484,11.391 0,14.843" style="fill:rgb(214,221,240);fill-rule:nonzero;"/>
            </g>
        </g>
        <g transform="matrix(4.16667,0,0,4.16667,0,4177.42)">
            <g transform="matrix(1,0,0,1,275.364,350.26)">
                <path d="M0,5.474L-2.281,0C-1.495,1.781 -0.728,3.608 0,5.474" style="fill:rgb(214,221,240);fill-rule:nonzero;"/>
            </g>
        </g>
        <g transform="matrix(4.16667,0,0,4.16667,0,4177.42)">
            <g transform="matrix(1,0,0,1,275.072,390.086)">
                <path d="M0,6.689L-1.632,0C-1.132,1.878 -0.586,4.153 0,6.689" style="fill:rgb(214,221,240);fill-rule:nonzero;"/>
            </g>
        </g>
        <g transform="matrix(4.16667,0,0,4.16667,0,4177.42)">
            <g transform="matrix(1,0,0,1,209.917,446.541)">
                <path d="M0,-122.158C-3.619,-106.086 -6.881,-88.631 -9.445,-69.904C-12.9,-44.682 -14.533,-21.232 -15.03,0C-19.157,-1.023 -24.863,-3.337 -29.384,-8.907C-31.049,-10.957 -36.341,-18.165 -32.16,-47.09C-27.817,-77.21 -18.118,-96.83 -12.229,-107.154C-9.12,-112.592 -5.207,-117.3 -1.234,-121.022C-0.825,-121.413 -0.416,-121.792 0,-122.158" style="fill:rgb(214,221,240);fill-rule:nonzero;"/>
            </g>
        </g>
        <g transform="matrix(4.16667,0,0,4.16667,0,4177.42)">
            <g transform="matrix(1,0,0,1,299.71,325.265)">
                <path d="M0,73.401C-2.055,74.793 -5.409,76.535 -8.913,77.243L-8.913,77.25C-10.643,77.438 -13.243,77.516 -16.136,76.749C-17.514,76.385 -20.628,75.384 -24.639,71.509C-25.225,68.974 -25.771,66.698 -26.271,64.82L-24.639,71.509C-25.19,70.966 -26.021,70.12 -26.967,69.032C-34.063,60.865 -36.173,52.262 -37.85,45.852C-45.619,16.162 -47.844,-4.115 -47.844,-4.115C-39.314,2.103 -31.68,13.598 -26.628,24.994L-24.347,30.468C-25.074,28.603 -25.842,26.776 -26.628,24.994C-23.768,22.017 -20.231,20.535 -19.607,20.385C-18.717,20.177 -17.826,20.067 -16.922,20.047C-7.477,19.923 2.802,30.215 6.91,39.414C11.786,50.303 10.863,66.042 0,73.401" style="fill:rgb(214,221,240);fill-rule:nonzero;"/>
            </g>
        </g>
        <g transform="matrix(4.16667,0,0,4.16667,0,4177.42)">
            <g transform="matrix(1,0,0,1,275.072,390.086)">
                <path d="M0,6.689L-1.632,0C-1.132,1.878 -0.586,4.153 0,6.689" style="fill:rgb(214,221,240);fill-rule:nonzero;"/>
            </g>
        </g>
        <g transform="matrix(4.16667,0,0,4.16667,0,4177.42)">
            <g transform="matrix(1,0,0,1,275.364,350.26)">
                <path d="M0,5.474L-2.281,0C-1.495,1.781 -0.728,3.608 0,5.474" style="fill:rgb(214,221,240);fill-rule:nonzero;"/>
            </g>
        </g>
        <g transform="matrix(4.16667,0,0,4.16667,0,4177.42)">
            <g transform="matrix(-1,0,0,1,237.131,418.944)">
                <path d="M-13.743,112.045L-13.736,112.045C-7.801,90.956 -2.73,65.738 -0.89,37.088C-0.845,36.432 -0.805,35.775 -0.766,35.118C-0.039,22.669 0,10.928 -0.429,0" style="fill:none;fill-rule:nonzero;stroke:rgb(113,139,198);stroke-width:1px;"/>
            </g>
        </g>
        <g transform="matrix(4.16667,0,0,4.16667,0,4177.42)">
            <g transform="matrix(1,0,0,1,278.826,360.514)">
                <path d="M0,26.942C-0.443,26.336 -1.09,25.35 -1.625,24.032C-2.441,22.02 -2.545,20.346 -2.593,19.844C-3.057,14.98 -8.586,12.255 -10.296,6.322C-11.677,1.535 -9.854,-2.852 -9.095,-4.676C-6.049,-12.001 0.437,-14.662 1.28,-14.862C2.165,-15.073 3.06,-15.185 3.963,-15.199C13.409,-15.325 23.687,-5.037 27.794,4.162C32.672,15.055 31.75,30.79 20.885,38.152C18.831,39.546 15.473,41.284 11.975,41.997L11.975,42.003C10.24,42.191 7.644,42.267 4.748,41.499C-0.606,40.078 -6.08,33.782 -6.08,33.782C-7.78,31.855 -9.797,29.198 -11.582,25.763C-13.73,21.629 -14.79,17.82 -15.343,15.003" style="fill:none;fill-rule:nonzero;stroke:rgb(113,139,198);stroke-width:1px;"/>
            </g>
        </g>
        <g transform="matrix(4.16667,0,0,4.16667,0,4177.42)">
            <g transform="matrix(1,0,0,1,221.774,566.121)">
                <path d="M0,-27.374L14.139,-28.852L7.629,-7.808L-6.834,1.478L-10.584,-10.478L0,-27.374Z" style="fill:rgb(113,139,198);fill-rule:nonzero;"/>
            </g>
        </g>
        <g transform="matrix(4.16667,0,0,4.16667,0,4177.42)">
            <g transform="matrix(1,0,0,1,276.88,538.633)">
                <path d="M0,-8.48L11.388,-13.614L20.279,-5.303L38.33,5.134L1.144,5.134L0,-8.48Z" style="fill:rgb(113,139,198);fill-rule:nonzero;"/>
            </g>
        </g>
        <g transform="matrix(4.16667,0,0,4.16667,0,4177.42)">
            <g transform="matrix(1,0,0,1,244.513,242.246)">
                <path d="M0,-8.747L15.028,0L16.188,0L31.442,-5.964" style="fill:none;fill-rule:nonzero;stroke:rgb(66,99,174);stroke-width:1px;"/>
            </g>
        </g>
        <g transform="matrix(4.16667,0,0,4.16667,0,4177.42)">
            <g transform="matrix(-0.474335,-0.880345,-0.880345,0.474335,262.225,233.155)">
                <path d="M-7.11,4.246L2.535,4.246" style="fill:none;fill-rule:nonzero;stroke:rgb(66,99,174);stroke-width:1px;"/>
            </g>
        </g>
        <g transform="matrix(4.16667,0,0,4.16667,0,4177.42)">
            <g transform="matrix(-0.351123,0.936329,0.936329,0.351123,265.076,158.367)">
                <path d="M-0.052,-0.036C-0.024,-0.035 -0.003,-0.038 0.025,-0.036" style="fill:none;fill-rule:nonzero;stroke:rgb(66,99,174);stroke-width:1px;"/>
            </g>
        </g>
        <g transform="matrix(4.16667,0,0,4.16667,0,4177.42)">
            <g transform="matrix(1,0,0,1,234.072,241.213)">
                <path d="M0,-5.539C12.3,-1.451 23.23,1.105 25.47,1.032L26.63,1.032L35.503,-6.644" style="fill:none;fill-rule:nonzero;stroke:rgb(66,99,174);stroke-width:1px;"/>
            </g>
        </g>
        <g transform="matrix(4.16667,0,0,4.16667,0,4177.42)">
            <g transform="matrix(-0.970143,0.242536,0.242536,0.970143,264.958,158.345)">
                <path d="M-0.11,-0.014C-0.075,-0.022 -0.038,-0.022 0.002,-0.014" style="fill:none;fill-rule:nonzero;stroke:rgb(66,99,174);stroke-width:1px;"/>
            </g>
        </g>
        <g transform="matrix(4.16667,0,0,4.16667,0,4177.42)">
            <g transform="matrix(1,0,0,1,373.011,190.047)">
                <path d="M0,14.439C-7.858,19.034 -17.584,23.675 -28.696,26.82C-34.025,28.334 -39.174,29.784 -46.343,30.473C-52.761,31.089 -55.045,30.545 -59.785,31.66L-97.056,46.235C-99.004,45.619 -101.134,45.029 -103.437,44.522C-107.135,43.706 -111.249,43.099 -115.728,42.89C-116.76,42.845 -117.803,42.818 -118.872,42.818C-122.316,42.818 -125.534,43.054 -128.498,43.452C-132.459,43.978 -135.967,44.776 -138.939,45.627C-151.584,41.422 -165.66,35.594 -173.174,29.331C-180.859,22.923 -184.449,12.925 -192.462,-3.136C-195.652,-9.535 -199.124,-15.091 -201.235,-19.351C-194.7,-18.59 -184.286,-18.445 -173.745,-22.415C-174.216,-25.396 -174.624,-28.524 -174.95,-31.796C-165.913,-29.357 -154.021,-27.137 -140.019,-27.082C-126.459,-27.028 -116.543,-29.457 -108.059,-31.714C-108.032,-31.696 -108.005,-31.687 -107.978,-31.669C-97.363,-25.687 -89.007,-22.895 -83.088,-21.463C-80.596,-20.856 -75.438,-19.75 -68.151,-17.475C-61.716,-15.472 -57.8,-13.858 -55.488,-13.024C-50.104,-11.076 -43.216,-8.692 -32.276,-9.009C-32.285,-8.846 -32.276,-8.692 -32.267,-8.538C-32.23,-7.369 -32.059,-6.308 -31.823,-5.348C-29.34,4.532 -16.958,11.801 0,14.439" style="fill:rgb(113,139,198);fill-rule:nonzero;"/>
            </g>
        </g>
        <g transform="matrix(4.16667,0,0,4.16667,0,4177.42)">
            <g transform="matrix(1,0,0,1,244.513,242.246)">
                <path d="M0,-8.747L15.028,0L16.188,0L31.442,-5.964" style="fill:none;fill-rule:nonzero;stroke:rgb(66,99,174);stroke-width:1px;"/>
            </g>
        </g>
        <g transform="matrix(4.16667,0,0,4.16667,0,4177.42)">
            <g transform="matrix(1,0,0,1,216.366,213.497)">
                <path d="M0,15.278L20.125,15.66L33.849,-0.382L95.19,8.863" style="fill:none;fill-rule:nonzero;stroke:rgb(66,99,174);stroke-width:1px;"/>
            </g>
        </g>
        <g transform="matrix(4.16667,0,0,4.16667,0,4177.42)">
            <g transform="matrix(-0.15382,-0.988099,-0.988099,0.15382,262.047,235.882)">
                <path d="M-4.966,4.253L3.642,4.253" style="fill:none;fill-rule:nonzero;stroke:rgb(66,99,174);stroke-width:1px;"/>
            </g>
        </g>
        <g transform="matrix(4.16667,0,0,4.16667,0,4177.42)">
            <g transform="matrix(-0.351123,0.936329,0.936329,0.351123,265.076,158.367)">
                <path d="M-0.052,-0.036C-0.024,-0.035 -0.003,-0.038 0.025,-0.036" style="fill:none;fill-rule:nonzero;stroke:rgb(66,99,174);stroke-width:1px;"/>
            </g>
        </g>
        <g transform="matrix(4.16667,0,0,4.16667,0,4177.42)">
            <g transform="matrix(1,0,0,1,234.072,241.213)">
                <path d="M0,-5.539C12.3,-1.451 23.23,1.105 25.47,1.032L26.63,1.032L35.503,-6.644" style="fill:none;fill-rule:nonzero;stroke:rgb(66,99,174);stroke-width:1px;"/>
            </g>
        </g>
        <g transform="matrix(4.16667,0,0,4.16667,0,4177.42)">
            <g transform="matrix(1,0,0,1,245.032,216.74)">
                <path d="M0,22.299L29.236,0L33.096,10.585" style="fill:none;fill-rule:nonzero;stroke:rgb(66,99,174);stroke-width:1px;"/>
            </g>
        </g>
        <g transform="matrix(4.16667,0,0,4.16667,0,4177.42)">
            <g transform="matrix(1,0,0,1,244.513,169.807)">
                <path d="M0,63.692C-3.961,64.218 -7.469,65.016 -10.441,65.867C-23.086,61.662 -37.162,55.834 -44.676,49.571C-52.361,43.163 -55.951,33.165 -63.964,17.104C-67.154,10.705 -70.626,5.149 -72.737,0.889C-66.202,1.65 -55.788,1.795 -45.247,-2.175C-42.826,13.424 -38.839,25.08 -35.611,32.857C-32.313,40.806 -27.49,47.024 -27.49,47.024C-27.49,47.024 -15.825,54.139 -1.341,62.913L0,63.692Z" style="fill:none;fill-rule:nonzero;stroke:rgb(66,99,174);stroke-width:1px;"/>
            </g>
        </g>
        <g transform="matrix(4.16667,0,0,4.16667,0,4177.42)">
            <g transform="matrix(1,0,0,1,265.809,232.772)">
                <path d="M0,-76.561C-1.441,-72.7 -3.612,-66.554 -4.972,-62.457C-11.643,-42.372 -14.407,-34.613 -15.296,-24.344C-15.477,-22.313 -15.55,-20.664 -15.595,-19.658L-8.525,0.165C-9.558,0.12 -10.601,0.092 -11.67,0.092C-15.114,0.092 -18.332,0.328 -21.296,0.727L-22.637,-0.053C-37.121,-8.827 -48.786,-15.942 -48.786,-15.942C-48.786,-15.942 -53.608,-22.16 -56.907,-30.108C-60.135,-37.885 -64.122,-49.541 -66.543,-65.14C-67.014,-68.122 -67.727,-73.797 -67.933,-77.288" style="fill:none;fill-rule:nonzero;stroke:rgb(66,99,174);stroke-width:1px;"/>
            </g>
        </g>
        <g transform="matrix(4.16667,0,0,4.16667,0,4177.42)">
            <g transform="matrix(1,0,0,1,198.399,163.01)">
                <path d="M0,-4.668C9.036,-2.23 20.591,-0.1 34.594,-0.045C48.153,0.009 58.069,-2.42 66.554,-4.677C66.58,-4.659 66.607,-4.65 66.635,-4.632" style="fill:none;fill-rule:nonzero;stroke:rgb(66,99,174);stroke-width:1px;"/>
            </g>
        </g>
        <g transform="matrix(4.16667,0,0,4.16667,0,4177.42)">
            <g transform="matrix(-0.970143,0.242536,0.242536,0.970143,264.958,158.345)">
                <path d="M-0.11,-0.014C-0.075,-0.022 -0.038,-0.022 0.002,-0.014" style="fill:none;fill-rule:nonzero;stroke:rgb(66,99,174);stroke-width:1px;"/>
            </g>
        </g>
        <g transform="matrix(4.16667,0,0,4.16667,0,4177.42)">
            <g transform="matrix(1,0,0,1,340.745,211.438)">
                <path d="M0,-29.929C-6.581,-22.841 -15.481,-14.756 -27.146,-7.568C-39.021,-0.254 -41.231,-1.595 -50.387,5.148L-71.17,23.131C-74.868,22.315 -78.982,21.708 -83.461,21.499L-90.53,1.677C-90.485,0.671 -90.412,-0.979 -90.231,-3.009C-89.343,-13.279 -86.578,-21.037 -79.907,-41.123C-78.548,-45.22 -77.151,-49.199 -75.711,-53.06C-65.097,-47.078 -56.74,-44.286 -50.821,-42.854C-48.329,-42.247 -43.172,-41.141 -35.885,-38.866C-29.449,-36.863 -25.533,-35.249 -23.222,-34.415C-17.838,-32.467 -10.949,-30.083 -0.01,-30.4C-0.019,-30.237 -0.01,-30.083 0,-29.929Z" style="fill:none;fill-rule:nonzero;stroke:rgb(66,99,174);stroke-width:1px;"/>
            </g>
        </g>
        <g transform="matrix(4.16667,0,0,4.16667,0,4177.42)">
            <g transform="matrix(1,0,0,1,340.735,234.322)">
                <path d="M0,-53.284C0.036,-52.115 0.218,-50.583 0.453,-49.622C2.937,-39.742 15.318,-32.473 32.276,-29.836C24.418,-25.241 14.692,-20.6 3.58,-17.454C-1.749,-15.941 -6.897,-14.491 -14.066,-13.802C-20.484,-13.185 -22.769,-13.729 -27.509,-12.615L-64.779,1.96C-66.728,1.344 -68.857,0.755 -71.16,0.247L-50.377,-17.736C-41.222,-24.479 -39.011,-23.138 -27.137,-30.452C-15.472,-37.64 -4.542,-48.156 2.039,-55.244" style="fill:none;fill-rule:nonzero;stroke:rgb(66,99,174);stroke-width:1px;"/>
            </g>
        </g>
        <g transform="matrix(4.16667,0,0,4.16667,0,4177.42)">
            <g transform="matrix(1,0,0,1,325.248,203.557)">
                <path d="M0,17.086C2.393,14.5 2.98,14.26 5.4,12.444C19.926,1.543 37.356,0 50.558,0.898" style="fill:none;fill-rule:nonzero;stroke:rgb(66,99,174);stroke-width:1px;"/>
            </g>
        </g>
        <g transform="matrix(4.16667,0,0,4.16667,0,4177.42)">
            <g transform="matrix(1,0,0,1,169.328,217.39)">
                <path d="M0,-49.039C8.551,-40.91 14.459,-33.031 18.378,-27.04C23.085,-19.844 28.243,-11.794 30.66,0" style="fill:none;fill-rule:nonzero;stroke:rgb(66,99,174);stroke-width:1px;"/>
            </g>
        </g>
        <g transform="matrix(4.16667,0,0,4.16667,0,4177.42)">
            <g transform="matrix(1,0,0,1,192.8,225.419)">
                <path d="M0,-9.045C2.632,-9.024 7.047,-8.624 11.832,-6.309C16.786,-3.913 19.628,-0.679 20.212,0" style="fill:none;fill-rule:nonzero;stroke:rgb(66,99,174);stroke-width:1px;"/>
            </g>
        </g>
        <g transform="matrix(4.16667,0,0,4.16667,0,4177.42)">
            <g transform="matrix(1,0,0,1,206.658,234.787)">
                <path d="M0,-8.788C3.04,-9.365 7.843,-9.842 13.413,-8.512C21.461,-6.589 24.832,-2.331 27.916,1.054" style="fill:none;fill-rule:nonzero;stroke:rgb(66,99,174);stroke-width:1px;"/>
            </g>
        </g>
        <g transform="matrix(4.16667,0,0,4.16667,0,4177.42)">
            <g transform="matrix(1,0,0,1,258.551,241.432)">
                <path d="M0,93.704L0.057,1.628C0.058,0.733 0.781,0.007 1.675,0.003C2.576,0 3.308,0.729 3.308,1.63L3.251,93.69L0,93.704Z" style="fill:rgb(241,142,135);fill-rule:nonzero;"/>
            </g>
        </g>
        <g transform="matrix(4.16667,0,0,4.16667,0,4177.42)">
            <g transform="matrix(1,0,0,1,270.093,334.754)">
                <path d="M0,24.056C-0.126,24.056 -0.252,24.054 -0.38,24.051C-5.411,23.906 -9.395,21.186 -11.598,16.393C-13.072,13.183 -13.261,10.094 -13.277,9.752L-13.679,0.213L-5.763,0L-5.484,9.393C-5.444,10.042 -4.937,16.115 -0.155,16.252C-0.115,16.254 -0.074,16.254 -0.034,16.254C4.544,16.254 5.856,8.779 5.869,8.702L13.57,9.95C12.783,14.873 8.937,24.056 0,24.056" style="fill:rgb(66,99,174);fill-rule:nonzero;"/>
            </g>
        </g>
        <g transform="matrix(4.16667,0,0,4.16667,0,4177.42)">
            <g transform="matrix(-0.999407,0.0344237,0.0344237,0.999407,188.97,450.248)">
                <path d="M-4.399,7.928C-4.66,8.727 -4.979,10.013 -4.918,11.607C-4.878,12.655 -4.823,14.08 -4.399,14.173C-3.611,14.346 -1.721,9.877 -0.801,6.081C-0.155,3.418 0.488,-0.877 -0.418,-6.512" style="fill:rgb(253,253,253);fill-rule:nonzero;stroke:rgb(113,139,198);stroke-width:1px;"/>
            </g>
        </g>
        <g transform="matrix(4.16667,0,0,4.16667,0,4177.42)">
            <g transform="matrix(1,0,0,1,192.24,459.453)">
                <path d="M0,-11.657C-0.337,-10.384 -1.561,-5.207 1.399,-1.433C1.77,-0.961 2.238,-0.469 2.834,0" style="fill:rgb(253,253,253);fill-rule:nonzero;stroke:rgb(113,139,198);stroke-width:1px;"/>
            </g>
        </g>
        <g transform="matrix(4.16667,0,0,4.16667,0,4177.42)">
            <g transform="matrix(1,0,0,1,260.887,345.174)">
                <path d="M0,11.518C-0.985,11.094 -1.444,9.941 -1.021,8.956L2.396,1.02C2.82,0.035 3.974,-0.424 4.959,0C5.944,0.425 6.403,1.578 5.979,2.563L2.563,10.498C2.138,11.483 0.985,11.942 0,11.518" style="fill:rgb(253,253,253);fill-rule:nonzero;"/>
            </g>
        </g>
        <g transform="matrix(4.16667,0,0,4.16667,0,4177.42)">
            <g transform="matrix(1,0,0,1,260.887,345.174)">
                <path d="M0,11.518C-0.985,11.094 -1.444,9.941 -1.021,8.956L2.396,1.02C2.82,0.035 3.974,-0.424 4.959,0C5.944,0.425 6.403,1.578 5.979,2.563L2.563,10.498C2.138,11.483 0.985,11.942 0,11.518Z" style="fill:none;fill-rule:nonzero;stroke:rgb(113,139,198);stroke-width:1px;"/>
            </g>
        </g>
        <g transform="matrix(4.16667,0,0,4.16667,0,4177.42)">
            <g transform="matrix(1,0,0,1,264.086,344.907)">
                <path d="M0,13.693C-0.985,13.269 -1.444,12.115 -1.021,11.13L3.333,1.02C3.757,0.035 4.91,-0.424 5.896,0C6.881,0.424 7.34,1.577 6.915,2.563L2.563,12.673C2.138,13.658 0.984,14.117 0,13.693" style="fill:rgb(253,253,253);fill-rule:nonzero;"/>
            </g>
        </g>
        <g transform="matrix(4.16667,0,0,4.16667,0,4177.42)">
            <g transform="matrix(1,0,0,1,264.086,344.907)">
                <path d="M0,13.693C-0.985,13.269 -1.444,12.115 -1.021,11.13L3.333,1.02C3.757,0.035 4.91,-0.424 5.896,0C6.881,0.424 7.34,1.577 6.915,2.563L2.563,12.673C2.138,13.658 0.984,14.117 0,13.693Z" style="fill:none;fill-rule:nonzero;stroke:rgb(113,139,198);stroke-width:1px;"/>
            </g>
        </g>
        <g transform="matrix(4.16667,0,0,4.16667,0,4177.42)">
            <g transform="matrix(1,0,0,1,267.523,346.387)">
                <path d="M0,13.693C-0.985,13.269 -1.444,12.116 -1.021,11.13L3.333,1.02C3.757,0.035 4.91,-0.424 5.896,0C6.881,0.424 7.34,1.578 6.915,2.563L2.563,12.673C2.138,13.658 0.985,14.117 0,13.693" style="fill:rgb(253,253,253);fill-rule:nonzero;"/>
            </g>
        </g>
        <g transform="matrix(4.16667,0,0,4.16667,0,4177.42)">
            <g transform="matrix(1,0,0,1,267.523,346.387)">
                <path d="M0,13.693C-0.985,13.269 -1.444,12.116 -1.021,11.13L3.333,1.02C3.757,0.035 4.91,-0.424 5.896,0C6.881,0.424 7.34,1.578 6.915,2.563L2.563,12.673C2.138,13.658 0.985,14.117 0,13.693Z" style="fill:none;fill-rule:nonzero;stroke:rgb(113,139,198);stroke-width:1px;"/>
            </g>
        </g>
        <g transform="matrix(4.16667,0,0,4.16667,0,4177.42)">
            <g transform="matrix(1,0,0,1,272.451,348.356)">
                <path d="M0,10.696C-1.11,10.491 -1.852,9.415 -1.646,8.304L-0.418,1.646C-0.213,0.535 0.863,-0.205 1.974,-0.001C3.084,0.204 3.825,1.28 3.62,2.391L2.392,9.049C2.187,10.16 1.11,10.901 0,10.696" style="fill:rgb(253,253,253);fill-rule:nonzero;"/>
            </g>
        </g>
        <g transform="matrix(4.16667,0,0,4.16667,0,4177.42)">
            <g transform="matrix(1,0,0,1,272.451,348.356)">
                <path d="M0,10.696C-1.11,10.491 -1.852,9.415 -1.646,8.304L-0.418,1.646C-0.213,0.535 0.863,-0.205 1.974,-0.001C3.084,0.204 3.825,1.28 3.62,2.391L2.392,9.049C2.187,10.16 1.11,10.901 0,10.696Z" style="fill:none;fill-rule:nonzero;stroke:rgb(113,139,198);stroke-width:1px;"/>
            </g>
        </g>
        <g transform="matrix(4.16667,0,0,4.16667,0,4177.42)">
            <g transform="matrix(1,0,0,1,259.258,346.444)">
                <path d="M0,4.852C-1.061,5.557 -2.504,5.266 -3.208,4.206L-3.872,3.207C-4.576,2.147 -4.286,0.704 -3.226,-0.001C-2.166,-0.705 -0.723,-0.414 -0.018,0.645L0.646,1.644C1.351,2.704 1.06,4.148 0,4.852" style="fill:rgb(253,253,253);fill-rule:nonzero;"/>
            </g>
        </g>
        <g transform="matrix(4.16667,0,0,4.16667,0,4177.42)">
            <g transform="matrix(1,0,0,1,259.258,346.444)">
                <path d="M0,4.852C-1.061,5.557 -2.504,5.266 -3.208,4.206L-3.872,3.207C-4.576,2.147 -4.286,0.704 -3.226,-0.001C-2.166,-0.705 -0.723,-0.414 -0.018,0.645L0.646,1.644C1.351,2.704 1.06,4.148 0,4.852Z" style="fill:none;fill-rule:nonzero;stroke:rgb(113,139,198);stroke-width:1px;"/>
            </g>
        </g>
        <g transform="matrix(4.16667,0,0,4.16667,0,4177.42)">
            <g transform="matrix(-0.203334,-0.979109,-0.979109,0.203334,220.108,278.26)">
                <path d="M-20.416,-29.065C-36.856,-28.417 -51.617,-21.716 -50.373,-4.66C-49.464,7.836 -38.577,15.686 -20.416,15.478C-3.964,15.289 7.7,4.234 6.506,-8.238C5.312,-20.709 -2.059,-29.79 -20.416,-29.065" style="fill:rgb(253,253,253);fill-rule:nonzero;"/>
            </g>
        </g>
        <g transform="matrix(4.16667,0,0,4.16667,0,4177.42)">
            <g transform="matrix(-0.203334,-0.979109,-0.979109,0.203334,220.108,278.26)">
                <path d="M-20.416,-29.065C-36.856,-28.417 -51.617,-21.716 -50.373,-4.66C-49.464,7.836 -38.577,15.686 -20.416,15.478C-3.964,15.289 7.7,4.234 6.506,-8.238C5.312,-20.709 -2.059,-29.79 -20.416,-29.065Z" style="fill:none;fill-rule:nonzero;stroke:rgb(113,139,198);stroke-width:1px;"/>
            </g>
        </g>
        <g transform="matrix(4.16667,0,0,4.16667,0,4177.42)">
            <g transform="matrix(-0.310808,-0.950473,-0.950473,0.310808,206.555,300.648)">
                <path d="M-4.791,-6.608C-10.243,-6.609 -14.662,-4.352 -14.662,-1.567C-14.662,1.217 -10.242,3.475 -4.791,3.475C0.66,3.475 5.079,1.219 5.078,-1.567C5.079,-4.351 0.66,-6.608 -4.791,-6.608" style="fill:rgb(253,253,253);fill-rule:nonzero;"/>
            </g>
        </g>
        <g transform="matrix(4.16667,0,0,4.16667,0,4177.42)">
            <g transform="matrix(0.355413,-0.934709,-0.934709,-0.355413,216.218,301.135)">
                <path d="M-8.89,-2.178C-10.862,-2.597 -12.522,-2.313 -13.401,-1.226C-15.15,0.941 -13.131,5.473 -8.89,8.899C-4.649,12.324 0.207,13.345 1.957,11.178C3.11,9.75 2.624,7.292 0.944,4.801" style="fill:none;fill-rule:nonzero;stroke:rgb(113,139,198);stroke-width:1px;"/>
            </g>
        </g>
        <g transform="matrix(4.16667,0,0,4.16667,0,4177.42)">
            <g transform="matrix(0,-1,-1,0,227.172,291.969)">
                <path d="M-1.189,-1.189C-3.366,-1.189 -5.131,-0.657 -5.131,0C-5.131,0.657 -3.366,1.189 -1.189,1.189C0.988,1.189 2.753,0.657 2.753,0C2.753,-0.657 0.988,-1.189 -1.189,-1.189" style="fill:rgb(66,99,174);fill-rule:nonzero;"/>
            </g>
        </g>
        <g transform="matrix(4.16667,0,0,4.16667,0,4177.42)">
            <g transform="matrix(0,-1,-1,0,247.078,292.065)">
                <path d="M-1.093,-1.093C-3.27,-1.093 -5.035,-0.604 -5.035,0C-5.035,0.603 -3.27,1.093 -1.093,1.093C1.084,1.093 2.849,0.603 2.849,0C2.849,-0.604 1.084,-1.093 -1.093,-1.093" style="fill:rgb(66,99,174);fill-rule:nonzero;"/>
            </g>
        </g>
        <g transform="matrix(4.16667,0,0,4.16667,0,4177.42)">
            <g transform="matrix(1,0,0,1,228.156,307.665)">
                <path d="M0,-0.456C0,-0.456 1.107,-3.009 6.453,-1.51C11.799,-0.011 11.521,2.553 11.521,2.553" style="fill:none;fill-rule:nonzero;stroke:rgb(113,139,198);stroke-width:1px;"/>
            </g>
        </g>
        <g transform="matrix(4.16667,0,0,4.16667,0,4177.42)">
            <g transform="matrix(1,0,0,1,237.901,302.135)">
                <path d="M0,-12.817C1.981,-10.967 5.429,-7.384 4.59,-1.374C4.527,-0.928 4.432,-0.469 4.295,0L-1.93,0" style="fill:none;fill-rule:nonzero;stroke:rgb(113,139,198);stroke-width:1px;"/>
            </g>
        </g>
        <g transform="matrix(4.16667,0,0,4.16667,0,4177.42)">
            <g transform="matrix(-0.67348,-0.739205,-0.739205,0.67348,204.488,356.499)">
                <path d="M-4.134,-0.438C-3.787,0.391 -3.438,1.566 -3.529,2.952C-3.635,4.584 -4.292,5.577 -4.134,5.663C-3.888,5.796 -1.955,3.531 -0.972,0.511C-0.315,-1.506 -0.263,-3.302 -0.328,-4.51" style="fill:none;fill-rule:nonzero;stroke:rgb(113,139,198);stroke-width:1px;"/>
            </g>
        </g>
        <g transform="matrix(4.16667,0,0,4.16667,0,4177.42)">
            <g transform="matrix(1,0,0,1,274.88,380.359)">
                <path d="M0,7.364C-0.244,6.682 -0.815,4.793 -0.122,2.6C0.265,1.379 0.902,0.513 1.353,0" style="fill:none;fill-rule:nonzero;stroke:rgb(113,139,198);stroke-width:1px;"/>
            </g>
        </g>
        <g transform="matrix(4.16667,0,0,4.16667,0,4177.42)">
            <g transform="matrix(1,0,0,1,174.912,545.297)">
                <path d="M0,0L182.291,0" style="fill:none;fill-rule:nonzero;stroke:rgb(113,139,198);stroke-width:1px;"/>
            </g>
        </g>
        <g transform="matrix(4.16667,0,0,4.16667,0,4177.42)">
            <g transform="matrix(1,0,0,1,260.235,241.442)">
                <path d="M0,8.101C-0.895,8.101 -1.626,7.37 -1.626,6.476L-1.626,1.625C-1.626,0.731 -0.895,0 0,0C0.894,0 1.625,0.731 1.625,1.625L1.625,6.476C1.625,7.37 0.894,8.101 0,8.101Z" style="fill:none;fill-rule:nonzero;stroke:rgb(66,99,174);stroke-width:1px;"/>
            </g>
        </g>
        <g transform="matrix(4.16667,0,0,4.16667,0,4177.42)">
            <g transform="matrix(1,0,0,1,262.498,248.521)">
                <path d="M0,1.532L-4.448,1.532C-4.869,1.532 -5.214,1.187 -5.214,0.766C-5.214,0.345 -4.869,0 -4.448,0L0,0C0.421,0 0.766,0.345 0.766,0.766C0.766,1.187 0.421,1.532 0,1.532" style="fill:rgb(66,99,174);fill-rule:nonzero;"/>
            </g>
        </g>
        <g transform="matrix(4.16667,0,0,4.16667,0,4177.42)">
            <g transform="matrix(1,0,0,1,262.429,241.897)">
                <path d="M0,1.532L-4.448,1.532C-4.87,1.532 -5.214,1.188 -5.214,0.766C-5.214,0.345 -4.87,0 -4.448,0L0,0C0.421,0 0.766,0.345 0.766,0.766C0.766,1.188 0.421,1.532 0,1.532" style="fill:rgb(66,99,174);fill-rule:nonzero;"/>
            </g>
        </g>
        <g transform="matrix(4.16667,0,0,4.16667,0,4177.42)">
            <g transform="matrix(1,0,0,1,291.612,528.288)">
                <path d="M0,0.356C0.784,-0.9 2.499,-3.457 3.503,-3.101C3.704,-3.029 3.872,-2.842 3.928,-2.645C4.286,-1.39 0.147,0.389 0.318,0.696C0.479,0.987 4.121,-0.788 4.818,0.07C4.931,0.208 4.962,0.409 4.907,0.563C4.545,1.578 0.4,0.797 0.37,1.072C0.352,1.242 1.942,1.4 3.588,2.439C4.339,2.913 4.88,3.43 5.231,3.813" style="fill:none;fill-rule:nonzero;stroke:rgb(113,139,198);stroke-width:1px;"/>
            </g>
        </g>
    </g>
</svg>
