<?xml version="1.0" encoding="UTF-8" standalone="no"?>
<!DOCTYPE svg PUBLIC "-//W3C//DTD SVG 1.1//EN" "http://www.w3.org/Graphics/SVG/1.1/DTD/svg11.dtd">
<svg width="100%" height="100%" viewBox="0 0 1631 1629" version="1.1" xmlns="http://www.w3.org/2000/svg" xmlns:xlink="http://www.w3.org/1999/xlink" xml:space="preserve" xmlns:serif="http://www.serif.com/" style="fill-rule:evenodd;clip-rule:evenodd;stroke-linecap:round;stroke-miterlimit:10;">
    <g transform="matrix(1,0,0,1,-9641.34,-9297.89)">
        <g transform="matrix(4.16667,0,0,4.16667,9428.12,8354.83)">
            <g transform="matrix(1,0,0,1,293.657,344.515)">
                <path d="M0,19.047C-3.77,17.02 -6.002,12.218 -5.288,7.782C-5.148,6.912 -4.727,4.298 -2.563,2.31C1.761,-1.663 9.854,-0.197 10.617,2.161C10.905,3.051 10.2,4.229 9.377,4.837C7.008,6.586 3.013,4.09 2.543,4.91C2.156,5.585 5.024,6.995 6.411,10.063C7.969,13.51 7.424,18.536 4.876,19.815C3.092,20.71 0.849,19.504 0,19.047Z" style="fill:none;fill-rule:nonzero;stroke:rgb(113,139,198);stroke-width:1px;"/>
            </g>
        </g>
        <g transform="matrix(4.16667,0,0,4.16667,9428.12,8354.83)">
            <g transform="matrix(1,0,0,1,418.373,323.954)">
                <path d="M0,192.04C-36.36,258.23 -105.5,294.97 -176.12,293.16C-197.74,292.61 -219.49,288.45 -240.49,280.42C-230.35,282.14 -219.93,283.04 -209.3,283.04C-107.02,283.04 -24.1,200.13 -24.1,97.85C-24.1,-4.44 -107.02,-87.35 -209.3,-87.35C-217.2,-87.35 -224.99,-86.86 -232.63,-85.89C-215.03,-89.74 -174.56,-102.93 -124.61,-91.43C-108.16,-87.64 -94.7,-81.83 -84.41,-76.71C-81.94,-75.5 -79.49,-74.21 -77.06,-72.88C17.37,-21 51.87,97.61 0,192.04" style="fill:rgb(251,236,163);fill-rule:nonzero;"/>
            </g>
        </g>
        <g transform="matrix(4.16667,0,0,4.16667,9428.12,8354.83)">
            <g transform="matrix(1,0,0,1,334.414,440.462)">
                <path d="M0,-28.324C8.984,-24.956 18.347,-19.367 23.737,-10.022C27.493,-3.512 29.552,4.144 30.708,8.794C33.055,18.202 33.66,26.635 33.597,33.29C32.143,34.816 30.455,36.342 28.504,37.777C18.058,45.515 6.393,46.237 -0.271,45.903C1.896,37.542 2.32,30.373 2.221,25.046C2.05,16.009 1.923,9.516 -2.609,4.036C-5.246,0.84 -8.641,-1.102 -11.99,-2.275C-15.882,-0.84 -20.749,0.442 -26.401,0.848C-29.38,1.056 -32.161,1.002 -34.734,0.749C-31.15,-9.986 -27.99,-22.329 -26.066,-36.107C-25.904,-37.254 -25.759,-38.4 -25.615,-39.529C-25.353,-39.863 -25.073,-40.206 -24.793,-40.567C-20.351,-46.084 -13.191,-54.192 -4.045,-61.406C3.115,-67.049 7.278,-70.273 13.092,-71.807C23.494,-74.561 33.669,-70.48 40.64,-66.372C41.263,-64.458 41.822,-62.408 42.292,-60.223C43.7,-53.704 43.944,-47.709 43.646,-42.563C36.504,-44.947 24.279,-47.158 12.578,-40.531C6.42,-37.037 2.447,-32.252 0,-28.324" style="fill:rgb(66,99,174);fill-rule:nonzero;"/>
            </g>
        </g>
        <g transform="matrix(4.16667,0,0,4.16667,9428.12,8354.83)">
            <g transform="matrix(-0.97319,-0.230005,-0.230005,0.97319,315.063,405.115)">
                <path d="M-20.448,2.383C-11.859,1.296 -4.007,1.908 0.278,2.383" style="fill:none;fill-rule:nonzero;stroke:rgb(113,139,198);stroke-width:1px;"/>
            </g>
        </g>
        <g transform="matrix(4.16667,0,0,4.16667,9428.12,8354.83)">
            <g transform="matrix(-0.707107,0.707107,0.707107,0.707107,308.794,400.944)">
                <path d="M-0.011,-0.005L0.002,-0.005" style="fill:none;fill-rule:nonzero;stroke:rgb(35,31,32);stroke-width:1px;"/>
            </g>
        </g>
        <g transform="matrix(4.16667,0,0,4.16667,9428.12,8354.83)">
            <g transform="matrix(1,0,0,1,303.977,371.669)">
                <path d="M0,39.891C-9.995,53.777 -35.114,55.664 -40.441,48.134C-42.59,45.092 -42.129,39.728 -39.511,37.047C-35.222,32.677 -27.701,38.004 -20.441,34.627C-18.167,33.579 -15.485,31.467 -13.236,26.835C-12.057,24.404 -12.866,20.555 -13.38,18.041C-14.494,12.597 -15.843,7.177 -17.393,1.84C-18.371,-1.529 -20.121,-5.515 -18.13,-8.857C-15.656,-13.028 -8.496,-15.773 -4.28,-13.642C-4.135,-13.57 -3.847,-13.416 -3.512,-13.172C3.729,-7.99 3.801,11.17 3.801,11.17C3.864,26.718 3.892,34.482 0,39.891" style="fill:rgb(214,221,240);fill-rule:nonzero;"/>
            </g>
        </g>
        <g transform="matrix(4.16667,0,0,4.16667,9428.12,8354.83)">
            <g transform="matrix(1,0,0,1,308.934,432.868)">
                <path d="M0,-33.1L-0.135,-31.935C-0.279,-30.807 -0.424,-29.66 -0.586,-28.514C-2.51,-14.735 -5.67,-2.392 -9.254,8.343C-16.504,7.648 -22.193,5.508 -26.463,3.846C-34.635,0.677 -52.964,-6.437 -55.013,-19.674C-56.106,-26.689 -52.647,-32.17 -52.647,-32.17C-52.223,-32.856 -49.93,-36.369 -45.361,-38.508C-39.086,-41.443 -32.676,-39.854 -29.57,-39.113C-21.669,-37.226 -11.882,-35.294 0,-33.1" style="fill:rgb(214,221,240);fill-rule:nonzero;"/>
            </g>
        </g>
        <g transform="matrix(4.16667,0,0,4.16667,9428.12,8354.83)">
            <g transform="matrix(-0.241721,0.970346,0.970346,0.241721,387.185,317.227)">
                <path d="M11.91,-15.241C18.69,-15.242 24.185,-9.746 24.185,-2.966C24.186,3.813 18.689,9.308 11.91,9.307C5.131,9.308 -0.364,3.812 -0.365,-2.967C-0.365,-9.746 5.131,-15.241 11.91,-15.241" style="fill:rgb(113,139,198);fill-rule:nonzero;"/>
            </g>
        </g>
        <g transform="matrix(4.16667,0,0,4.16667,9428.12,8354.83)">
            <g transform="matrix(1,0,0,1,351.35,500.472)">
                <path d="M0,-14.341L5.347,2.895L30.9,-15.584L10.434,-12.355L6.6,-17.236L0,-14.341Z" style="fill:rgb(113,139,198);fill-rule:nonzero;"/>
            </g>
        </g>
        <g transform="matrix(4.16667,0,0,4.16667,9428.12,8354.83)">
            <g transform="matrix(1,0,0,1,379.889,369.714)">
                <path d="M0,12.92L1.371,20.04L14.383,19.644L6.431,-7.12L4.499,10.286L0,12.92Z" style="fill:rgb(113,139,198);fill-rule:nonzero;"/>
            </g>
        </g>
        <g transform="matrix(4.16667,0,0,4.16667,9428.12,8354.83)">
            <g transform="matrix(1,0,0,1,242.709,409.913)">
                <path d="M0,-21.111C0.698,-23.059 1.3,-24.832 1.3,-24.832C1.3,-24.832 -9.483,-27.77 -16.689,-22.416C-21.336,-18.962 -23.044,-12.926 -21.599,-7.418C-20.242,-2.244 -15.814,1.986 -10.869,3.816C-3.186,6.659 6.714,4.032 9.564,-4.254C11.78,-10.694 7.523,-18.04 0,-21.111Z" style="fill:none;fill-rule:nonzero;stroke:rgb(113,139,198);stroke-width:1px;"/>
            </g>
        </g>
        <g transform="matrix(4.16667,0,0,4.16667,9428.12,8354.83)">
            <g transform="matrix(-0.808792,-0.588095,-0.588095,0.808792,233.716,404.298)">
                <path d="M-4.482,-5.875C-6.246,-6.446 -6.976,-6.272 -7.278,-5.917C-8.062,-4.997 -6.693,-2.02 -4.482,-0.442C-2.244,1.155 1.037,1.449 1.601,0.442C1.813,0.064 1.723,-0.644 0.563,-2.07" style="fill:none;fill-rule:nonzero;stroke:rgb(113,139,198);stroke-width:1px;"/>
            </g>
        </g>
        <g transform="matrix(4.16667,0,0,4.16667,9428.12,8354.83)">
            <g transform="matrix(0.335623,-0.941997,-0.941997,-0.335623,237.228,389.91)">
                <path d="M-2.759,-1.945C-3.24,-1.945 -3.629,-0.634 -3.63,0.983C-3.63,2.601 -3.239,3.912 -2.759,3.912C-2.278,3.912 -1.887,2.601 -1.887,0.983C-1.887,-0.634 -2.278,-1.946 -2.759,-1.945" style="fill:rgb(66,99,174);fill-rule:nonzero;"/>
            </g>
        </g>
        <g transform="matrix(4.16667,0,0,4.16667,9428.12,8354.83)">
            <g transform="matrix(1,0,0,1,392.322,411.557)">
                <path d="M0,-63.552L-34.567,-78.788L-43.774,-76.159L-9.222,-60.919L12.303,15.236L21.525,12.604L0,-63.552Z" style="fill:rgb(253,253,253);fill-rule:nonzero;stroke:rgb(113,139,198);stroke-width:1px;"/>
            </g>
        </g>
        <g transform="matrix(4.16667,0,0,4.16667,9428.12,8354.83)">
            <g transform="matrix(-0.241721,0.970346,0.970346,0.241721,414.945,406.998)">
                <path d="M7.845,-10.038C12.309,-10.038 15.928,-6.419 15.928,-1.954C15.928,2.511 12.309,6.129 7.845,6.129C3.38,6.13 -0.239,2.511 -0.239,-1.954C-0.239,-6.419 3.38,-10.037 7.845,-10.038" style="fill:rgb(113,139,198);fill-rule:nonzero;"/>
            </g>
        </g>
        <g transform="matrix(4.16667,0,0,4.16667,9428.12,8354.83)">
            <g transform="matrix(-0.241779,0.970331,0.970331,0.241779,413.342,410.018)">
                <path d="M4.527,-5.793C7.103,-5.793 9.192,-3.704 9.192,-1.128C9.192,1.448 7.103,3.537 4.527,3.537C1.95,3.537 -0.138,1.448 -0.138,-1.128C-0.138,-3.705 1.951,-5.793 4.527,-5.793" style="fill:rgb(253,253,253);fill-rule:nonzero;"/>
            </g>
        </g>
        <g transform="matrix(4.16667,0,0,4.16667,9428.12,8354.83)">
            <g transform="matrix(-0.241779,0.970331,0.970331,0.241779,413.342,410.018)">
                <circle cx="4.527" cy="-1.128" r="4.665" style="fill:none;stroke:rgb(113,139,198);stroke-width:1px;"/>
            </g>
        </g>
        <g transform="matrix(4.16667,0,0,4.16667,9428.12,8354.83)">
            <g transform="matrix(1,0,0,1,340.222,594.184)">
                <path d="M0,-343.7C-1.12,-344.02 -2.59,-344.45 -4.38,-344.93C-4.44,-344.95 -4.51,-344.97 -4.58,-344.99C-21.28,-349.93 -38.96,-352.59 -57.27,-352.59C-159.55,-352.59 -242.46,-269.67 -242.46,-167.39C-242.46,-65.11 -159.55,17.81 -57.27,17.81C-54.34,17.81 -51.43,17.74 -48.53,17.6C-48.45,17.67 -48.38,17.74 -48.3,17.81C-72.18,24.15 -88.98,23 -93.72,23C-125.95,23 -156.59,14.51 -183.37,0.66C-246.14,-31.76 -289.05,-97.25 -289.05,-172.76C-289.05,-280.51 -201.7,-367.85 -93.96,-367.85C-91.19,-367.85 -88.42,-367.8 -85.68,-367.67C-74.19,-367.2 -59.66,-365.59 -43.35,-361.22C-27.84,-357.06 -9.9,-348.77 0,-343.7" style="fill:rgb(118,202,188);fill-rule:nonzero;"/>
            </g>
        </g>
        <g transform="matrix(4.16667,0,0,4.16667,9428.12,8354.83)">
            <g transform="matrix(1,0,0,1,244.105,389.989)">
                <path d="M0,5.841C0.425,5.247 1.044,4.226 1.373,2.82C1.644,1.663 1.62,0.669 1.55,0" style="fill:none;fill-rule:nonzero;stroke:rgb(113,139,198);stroke-width:1px;"/>
            </g>
        </g>
        <g transform="matrix(4.16667,0,0,4.16667,9428.12,8354.83)">
            <g transform="matrix(-0.241684,0.970355,0.970355,0.241684,384.242,322.429)">
                <path d="M6.3,-8.061C9.885,-8.061 12.792,-5.155 12.792,-1.569C12.792,2.016 9.886,4.923 6.3,4.923C2.714,4.923 -0.193,2.017 -0.192,-1.568C-0.193,-5.154 2.714,-8.06 6.3,-8.061" style="fill:rgb(253,253,253);fill-rule:nonzero;"/>
            </g>
        </g>
        <g transform="matrix(4.16667,0,0,4.16667,9428.12,8354.83)">
            <g transform="matrix(-0.241684,0.970355,0.970355,0.241684,384.242,322.429)">
                <ellipse cx="6.3" cy="-1.569" rx="6.492" ry="6.492" style="fill:none;stroke:rgb(113,139,198);stroke-width:1px;"/>
            </g>
        </g>
        <g transform="matrix(4.16667,0,0,4.16667,9428.12,8354.83)">
            <g transform="matrix(1,0,0,1,308.377,425.857)">
                <path d="M0,-34.947C0.527,-27.901 0.686,-20.041 -3.528,-13.977C-6.199,-10.134 -10.349,-7.576 -14.6,-5.617C-24.694,-0.966 -36.179,0 -45.424,-7.067" style="fill:none;fill-rule:nonzero;stroke:rgb(113,139,198);stroke-width:1px;"/>
            </g>
        </g>
        <g transform="matrix(4.16667,0,0,4.16667,9428.12,8354.83)">
            <g transform="matrix(0.365226,0.930919,0.930919,-0.365226,309.02,361.514)">
                <path d="M-4.213,-6.179C0.14,-5.088 4.703,-5.15 9.061,-6.179" style="fill:none;fill-rule:nonzero;stroke:rgb(113,139,198);stroke-width:1px;"/>
            </g>
        </g>
        <g transform="matrix(4.16667,0,0,4.16667,9428.12,8354.83)">
            <g transform="matrix(1,0,0,1,284.439,375.435)">
                <path d="M0,30.861C4.571,28.62 6.596,23.294 6.971,18.498C7.47,12.11 4.986,6.064 3.398,0" style="fill:none;fill-rule:nonzero;stroke:rgb(113,139,198);stroke-width:1px;"/>
            </g>
        </g>
        <g transform="matrix(4.16667,0,0,4.16667,9428.12,8354.83)">
            <g transform="matrix(1,0,0,1,380.634,353.645)">
                <path d="M0,-27.421L-83.583,-3.606L-82.466,0.308L1.116,-23.506C2.197,-23.814 2.824,-24.941 2.515,-26.023C2.207,-27.103 1.081,-27.729 0,-27.421Z" style="fill:rgb(253,253,253);fill-rule:nonzero;stroke:rgb(113,139,198);stroke-width:1px;"/>
            </g>
        </g>
        <g transform="matrix(4.16667,0,0,4.16667,9428.12,8354.83)">
            <g transform="matrix(0.00718643,-0.999974,-0.999974,-0.00718643,300.082,347.115)">
                <path d="M-4.244,-4.213C-6.589,-4.213 -8.488,-2.313 -8.488,0.031C-8.488,2.375 -6.589,4.275 -4.244,4.275C-1.9,4.275 0,2.375 -0.001,0.03C-0.001,-2.314 -1.9,-4.213 -4.244,-4.213" style="fill:rgb(113,139,198);fill-rule:nonzero;"/>
            </g>
        </g>
        <g transform="matrix(4.16667,0,0,4.16667,9428.12,8354.83)">
            <g transform="matrix(-0.877879,0.478882,0.478882,0.877879,264.764,590.574)">
                <path d="M-74.483,-18.994C-48.305,-10.577 -21.011,-10.658 4.844,-18.994" style="fill:none;fill-rule:nonzero;stroke:rgb(113,139,198);stroke-width:1px;"/>
            </g>
        </g>
        <g transform="matrix(4.16667,0,0,4.16667,9428.12,8354.83)">
            <g transform="matrix(-0.626254,0.779619,0.779619,0.626254,337.91,525.793)">
                <path d="M-9.724,-4.662C-5.74,-4.481 -1.749,-4.48 2.235,-4.662" style="fill:none;fill-rule:nonzero;stroke:rgb(113,139,198);stroke-width:1px;"/>
            </g>
        </g>
        <g transform="matrix(4.16667,0,0,4.16667,9428.12,8354.83)">
            <g transform="matrix(-0.977592,0.210508,0.210508,0.977592,223.939,589.721)">
                <path d="M-53.116,-5.654C-35.4,-2.443 -17.114,-2.453 0.602,-5.654" style="fill:none;fill-rule:nonzero;stroke:rgb(113,139,198);stroke-width:1px;"/>
            </g>
        </g>
        <g transform="matrix(4.16667,0,0,4.16667,9428.12,8354.83)">
            <g transform="matrix(-0.737698,0.675131,0.675131,0.737698,315.4,572.95)">
                <path d="M-52.214,-20.286C-32.451,-16.305 -11.849,-15.883 7.882,-20.286" style="fill:none;fill-rule:nonzero;stroke:rgb(113,139,198);stroke-width:1px;"/>
            </g>
        </g>
    </g>
</svg>
