<?xml version="1.0" encoding="UTF-8" standalone="no"?>
<!DOCTYPE svg PUBLIC "-//W3C//DTD SVG 1.1//EN" "http://www.w3.org/Graphics/SVG/1.1/DTD/svg11.dtd">
<svg width="100%" height="100%" viewBox="0 0 2322 1323" version="1.1" xmlns="http://www.w3.org/2000/svg" xmlns:xlink="http://www.w3.org/1999/xlink" xml:space="preserve" xmlns:serif="http://www.serif.com/" style="fill-rule:evenodd;clip-rule:evenodd;stroke-linecap:round;stroke-miterlimit:10;">
    <g transform="matrix(1,0,0,1,-9323.56,-5309.95)">
        <g transform="matrix(4.16667,0,0,4.16667,9428.12,4177.42)">
            <g transform="matrix(0.0643712,0.997926,0.997926,-0.0643712,54.2914,294.455)">
                <path d="M2.808,-7.583C3.03,-7.197 8.979,3.315 8.979,3.315L2.808,4.007L1.927,-7.735C2.102,-8.208 2.586,-7.969 2.808,-7.583" style="fill:rgb(241,142,135);fill-rule:nonzero;"/>
            </g>
        </g>
        <g transform="matrix(4.16667,0,0,4.16667,9428.12,4177.42)">
            <g transform="matrix(0.0643712,0.997926,0.997926,-0.0643712,54.8031,295.105)">
                <path d="M3.321,-8.128C3.586,-7.607 9.58,4.144 9.58,4.144L3.321,3.461C3.321,3.461 2.469,-7.832 2.44,-8.281C2.411,-8.73 3.055,-8.649 3.321,-8.128" style="fill:rgb(241,142,135);fill-rule:nonzero;"/>
            </g>
        </g>
        <g transform="matrix(4.16667,0,0,4.16667,9428.12,4177.42)">
            <g transform="matrix(1,0,0,1,102.502,311.133)">
                <path d="M0,8.098C-1.078,3.991 -3.618,-0.419 -7.463,-4.263C-13.876,-10.676 -21.903,-13.53 -27.41,-11.869C-28.354,-14.295 -30.554,-16.403 -33.515,-17.37C-38.313,-18.937 -43.278,-16.917 -44.604,-12.856C-45.93,-8.797 -43.116,-4.234 -38.317,-2.668C-36.709,-2.142 -35.086,-2.028 -33.583,-2.251C-33.386,2.769 -30.546,8.781 -25.523,13.796C-18.187,21.133 -8.753,23.797 -3.377,20.38C1.53,24.799 5.831,27.035 7.479,25.655C9.688,23.806 6.365,16.149 0,8.098" style="fill:rgb(241,142,135);fill-rule:nonzero;"/>
            </g>
        </g>
        <g transform="matrix(4.16667,0,0,4.16667,9428.12,4177.42)">
            <g transform="matrix(1,0,0,1,89.1167,334.962)">
                <path d="M0,-1.916C-1.632,-2.966 -3.331,-2.564 -3.723,-1.802C-4.073,-1.123 -3.568,0.195 -2.283,1.05" style="fill:none;fill-rule:nonzero;stroke:rgb(214,221,240);stroke-width:1px;"/>
            </g>
        </g>
        <g transform="matrix(4.16667,0,0,4.16667,9428.12,4177.42)">
            <g transform="matrix(1,0,0,1,289.638,501.259)">
                <path d="M0,-72.65C-1.33,-64.82 -3.35,-57.78 -5.66,-51.57C-7.46,-46.74 -9.43,-42.4 -11.38,-38.61C-12.33,-38.96 -13.27,-39.299 -14.2,-39.61C-31.4,-45.479 -44.49,-44.929 -53.71,-43.04C-73.31,-39.03 -78.68,-28.309 -100.64,-26.729C-118.76,-25.429 -127.735,-31.244 -141.31,-39.62C-143.187,-40.777 -152.06,-44.35 -161.39,-47.799C-162.99,-46.37 -165.01,-44.229 -166.73,-41.219C-167.79,-39.35 -168.49,-37.589 -168.96,-36.1C-164.53,-34.889 -161.48,-32.95 -161.16,-32.75C-149.79,-25.299 -148.62,-11 -148.15,-5.299C-146.57,13.84 -155.9,40.04 -175.54,44.991C-176.58,45.25 -189.38,48.26 -200.07,40.491C-221.86,24.661 -213.51,-20.37 -202.23,-41.96C-196.04,-53.809 -186.86,-62.83 -186.86,-62.83C-180.55,-69.04 -174.31,-73.15 -169.66,-75.77C-159.26,-88.889 -142.31,-98.36 -127.99,-106.429C-108.09,-117.66 -88.41,-120.91 -65.84,-119.87C-46.51,-118.979 -26.62,-117.07 -7.85,-112.19C-4.63,-111.35 -1.33,-110.45 1.66,-108.95C1.71,-108.509 1.76,-108.049 1.81,-107.589C2.73,-98.129 2.05,-84.69 0,-72.65" style="fill:rgb(66,99,174);fill-rule:nonzero;"/>
            </g>
        </g>
        <g transform="matrix(4.16667,0,0,4.16667,9428.12,4177.42)">
            <g transform="matrix(0.306594,-0.95184,-0.95184,-0.306594,168.809,399.26)">
                <path d="M-28.86,-21.024C-51.003,-21.024 -68.955,-7.45 -68.955,9.295C-68.955,26.041 -51.004,39.616 -28.86,39.616C-6.717,39.616 11.235,26.042 11.235,9.297C11.235,-7.449 -6.716,-21.024 -28.86,-21.024" style="fill:rgb(253,253,253);fill-rule:nonzero;"/>
            </g>
        </g>
        <g transform="matrix(4.16667,0,0,4.16667,9428.12,4177.42)">
            <g transform="matrix(0.306594,-0.95184,-0.95184,-0.306594,168.809,399.26)">
                <ellipse cx="-28.86" cy="9.296" rx="40.095" ry="30.32" style="fill:none;stroke:rgb(113,139,198);stroke-width:1px;"/>
            </g>
        </g>
        <g transform="matrix(4.16667,0,0,4.16667,9428.12,4177.42)">
            <g transform="matrix(1,0,0,1,154.017,433.171)">
                <path d="M0,18.464C-6.092,18.464 -11.031,13.526 -11.031,7.434C-11.031,4.569 -9.939,1.96 -8.149,0" style="fill:rgb(253,253,253);fill-rule:nonzero;stroke:rgb(113,139,198);stroke-width:1px;"/>
            </g>
        </g>
        <g transform="matrix(4.16667,0,0,4.16667,9428.12,4177.42)">
            <g transform="matrix(1,0,0,1,134.792,445.912)">
                <path d="M0,-14.324C0.979,-10.693 0.075,-6.652 -2.736,-3.759C-5.341,-1.075 -8.979,0 -12.412,-0.553" style="fill:rgb(253,253,253);fill-rule:nonzero;stroke:rgb(113,139,198);stroke-width:1px;"/>
            </g>
        </g>
        <g transform="matrix(4.16667,0,0,4.16667,9428.12,4177.42)">
            <g transform="matrix(1,0,0,1,141.168,345.476)">
                <path d="M0,95.969C-2.85,103.409 -5.422,106.676 -12.698,107.782C-25.669,109.754 -37.788,100.834 -39.76,87.864L-55.017,-12.483L-46.455,-13.785C-45.226,-5.698 -33.227,80.676 -30.784,87.603C-28.155,95.06 -22.25,100.495 -13.997,99.24C-9.924,98.621 -7.412,97.563 -5.117,94.492L0,95.969Z" style="fill:rgb(242,110,94);fill-rule:nonzero;"/>
            </g>
        </g>
        <g transform="matrix(4.16667,0,0,4.16667,9428.12,4177.42)">
            <g transform="matrix(1,0,0,1,129.793,465.82)">
                <path d="M0,-30.486C-0.034,-30.537 -0.068,-30.591 -0.103,-30.646C-0.483,-31.218 -1.109,-31.911 -1.692,-32.056C-1.698,-32.059 -1.702,-32.058 -1.707,-32.06C-1.832,-32.09 -1.961,-32.091 -2.082,-32.063C-2.35,-31.993 -2.554,-31.772 -2.717,-31.447C-2.727,-31.423 -2.738,-31.4 -2.749,-31.376C-3.039,-30.74 -3.183,-29.758 -3.348,-28.783C-3.832,-25.861 -4.606,-22.966 -5.233,-20.061C-6.055,-16.249 -6.52,-14.35 -7.954,-12.361C-9.693,-9.946 -13.021,-7.105 -15.056,-7.788C-16.193,-8.17 -16.917,-9.646 -17.358,-11.041C-17.386,-11.132 -17.414,-11.222 -17.437,-11.312C-17.468,-11.4 -17.492,-11.494 -17.515,-11.581C-17.791,-12.583 -17.917,-13.448 -17.956,-13.688C-18.028,-14.185 -18.077,-14.738 -18.222,-15.314C-18.224,-15.317 -18.224,-15.317 -18.225,-15.321C-18.779,-16.1 -19.984,-17.284 -20.752,-16.988C-21.558,-16.68 -21.325,-14.992 -21.515,-12.751C-21.804,-9.378 -22.676,-9.114 -23.952,-4.124C-24.364,-2.515 -24.685,-1.248 -24.909,-0.151C-23.858,-0.952 -22.604,-1.55 -21.156,-1.859C-18.256,-2.477 -15.376,-2.142 -12.482,-1.687C-9.48,-1.215 -7.396,-0.699 -5.421,1.605C-5.035,0.522 -4.63,-0.646 -4.189,-1.924C-2.576,-6.595 -1.698,-10.097 -1.287,-11.834C-0.606,-15.12 -0.505,-18.465 -0.113,-21.777C0.022,-22.946 0.2,-24.111 0.447,-25.266C0.469,-25.366 0.492,-25.466 0.514,-25.57C0.671,-26.263 1.202,-28.539 0,-30.486" style="fill:rgb(253,253,253);fill-rule:nonzero;"/>
            </g>
        </g>
        <g transform="matrix(4.16667,0,0,4.16667,9428.12,4177.42)">
            <g transform="matrix(1,0,0,1,129.793,463.649)">
                <path d="M0,-28.314C-0.034,-28.365 -0.068,-28.419 -0.103,-28.474C-0.533,-29.109 -1.191,-29.73 -1.692,-29.884C-1.698,-29.887 -1.702,-29.886 -1.707,-29.888C-1.849,-29.93 -1.974,-29.932 -2.082,-29.891C-2.426,-29.75 -2.465,-29.166 -2.67,-29.168C-2.701,-29.166 -2.727,-29.178 -2.749,-29.204C-2.871,-29.329 -2.908,-29.755 -3.139,-30.232C-3.173,-30.298 -3.207,-30.366 -3.248,-30.425C-3.715,-31.224 -4.479,-31.597 -4.724,-31.713C-4.802,-31.75 -4.88,-31.787 -4.967,-31.822C-5.022,-31.845 -5.08,-31.872 -5.136,-31.895C-5.191,-31.915 -5.246,-31.934 -5.302,-31.958C-5.305,-31.953 -5.305,-31.953 -5.306,-31.957C-5.579,-32.047 -5.859,-32.091 -6.111,-31.998C-6.148,-31.987 -6.18,-31.972 -6.215,-31.958C-6.657,-31.729 -6.775,-31.141 -6.849,-30.77C-6.852,-30.752 -6.855,-30.736 -6.855,-30.719C-6.896,-30.52 -6.907,-30.338 -6.907,-30.176C-6.906,-30.16 -6.907,-30.148 -6.903,-30.136L-6.903,-30.092C-6.9,-30.024 -6.898,-29.96 -6.894,-29.901L-6.894,-29.888C-6.873,-29.615 -6.837,-29.439 -6.911,-29.405L-6.919,-29.402C-7.037,-29.366 -7.229,-29.733 -7.547,-30.073C-8.15,-30.732 -9.256,-31.363 -9.788,-31.093C-9.812,-31.083 -9.835,-31.072 -9.852,-31.054C-9.874,-31.039 -9.892,-31.026 -9.913,-31.007C-10.024,-30.904 -10.101,-30.747 -10.153,-30.568C-10.176,-30.484 -10.191,-30.39 -10.211,-30.279C-10.218,-30.2 -10.23,-30.111 -10.238,-30.019C-10.244,-29.953 -10.25,-29.885 -10.256,-29.815C-10.256,-29.802 -10.257,-29.791 -10.258,-29.778C-10.278,-29.204 -10.22,-28.666 -10.315,-28.658C-10.413,-28.643 -10.406,-29.23 -10.85,-29.588C-11.188,-29.862 -11.763,-29.982 -12.153,-29.862C-12.174,-29.856 -12.197,-29.844 -12.217,-29.838C-12.281,-29.814 -12.338,-29.781 -12.391,-29.736C-12.46,-29.687 -12.521,-29.624 -12.574,-29.55C-12.582,-29.544 -12.583,-29.536 -12.589,-29.526C-13.054,-28.82 -12.943,-27.166 -13.087,-24.919C-13.099,-24.753 -13.109,-24.585 -13.123,-24.41C-13.142,-24.136 -13.171,-23.856 -13.211,-23.551C-13.322,-22.763 -13.549,-21.558 -13.931,-19.535L-13.941,-19.483C-14.003,-19.148 -14.07,-18.815 -14.139,-18.486C-14.144,-18.472 -14.148,-18.459 -14.149,-18.446C-14.156,-18.412 -14.162,-18.373 -14.172,-18.334C-15.218,-13.292 -16.762,-8.799 -17.343,-8.865C-17.349,-8.867 -17.353,-8.866 -17.358,-8.869C-17.416,-8.883 -17.454,-8.949 -17.473,-9.056C-17.495,-9.142 -17.506,-9.265 -17.515,-9.409C-17.555,-10.078 -17.511,-11.287 -17.89,-12.594C-18.089,-13.304 -18.417,-14.039 -18.949,-14.728C-18.569,-14.2 -18.356,-13.665 -18.225,-13.149C-18.779,-13.928 -19.984,-15.112 -20.752,-14.816C-21.558,-14.508 -21.325,-12.82 -21.515,-10.579C-21.804,-7.206 -22.676,-6.942 -23.952,-1.952C-24.364,-0.343 -24.685,0.924 -24.909,2.021C-23.858,1.22 -22.604,0.622 -21.156,0.313C-18.256,-0.305 -15.376,0.03 -12.482,0.485C-9.48,0.957 -7.396,1.473 -5.421,3.777C-5.035,2.694 -4.63,1.526 -4.189,0.248C-2.576,-4.423 -1.698,-7.925 -1.287,-9.662C-0.606,-12.948 -0.505,-16.293 -0.113,-19.605C0.022,-20.774 0.2,-21.939 0.447,-23.094C0.469,-23.194 0.492,-23.294 0.514,-23.398C0.671,-24.091 1.202,-26.367 0,-28.314" style="fill:rgb(253,253,253);fill-rule:nonzero;"/>
            </g>
        </g>
        <g transform="matrix(4.16667,0,0,4.16667,9428.12,4177.42)">
            <g transform="matrix(0.985574,0.169246,0.169246,-0.985574,121.884,465.776)">
                <path d="M2.931,-0.045C2.742,3.319 4.206,6.614 4.684,9.74C5.47,16.977 5.102,25.031 2.931,31.761C2.762,32.747 0.453,34.379 -0.842,30.098C-1.797,23.846 -0.951,18.919 -2.127,12.131" style="fill:none;fill-rule:nonzero;stroke:rgb(113,139,198);stroke-width:1px;"/>
            </g>
        </g>
        <g transform="matrix(4.16667,0,0,4.16667,9428.12,4177.42)">
            <g transform="matrix(1,0,0,1,112.353,458.05)">
                <path d="M0,-3.585C0.287,-5.16 -0.333,-8.533 -2.32,-9.026C-4.516,-9.57 -3.906,-6.846 -4.053,-5.279C-4.414,-1.436 -6.18,2.243 -7.101,5.985" style="fill:none;fill-rule:nonzero;stroke:rgb(113,139,198);stroke-width:1px;"/>
            </g>
        </g>
        <g transform="matrix(4.16667,0,0,4.16667,9428.12,4177.42)">
            <g transform="matrix(-0.865459,-0.500981,-0.500981,0.865459,102.625,456.643)">
                <path d="M-3.438,-27.761C-2.791,-27.914 -1.93,-27.839 -1.501,-27.252C-0.861,-26.371 -2.116,-24.824 -3.438,-22.098C-4.016,-20.904 -4.522,-19.41 -5.535,-16.425C-6.286,-14.212 -8.163,-3.701 -7.868,1.635" style="fill:none;fill-rule:nonzero;stroke:rgb(113,139,198);stroke-width:1px;"/>
            </g>
        </g>
        <g transform="matrix(4.16667,0,0,4.16667,9428.12,4177.42)">
            <g transform="matrix(1,0,0,1,122.877,449.661)">
                <path d="M0,-15.275L0.033,-16.157C0.033,-16.157 -1.144,-17.958 -2.874,-17.107C-3.404,-16.846 -3.314,-16.034 -3.463,-13.378C-3.464,-13.378 -3.585,-11.212 -3.845,-9.029C-3.845,-9.029 -4.022,-7.544 -4.36,-5.758C-4.975,-2.516 -5.931,0.486 -6.725,2.683" style="fill:none;fill-rule:nonzero;stroke:rgb(113,139,198);stroke-width:1px;"/>
            </g>
        </g>
        <g transform="matrix(4.16667,0,0,4.16667,9428.12,4177.42)">
            <g transform="matrix(1,0,0,1,127.123,449.425)">
                <path d="M0,-14.944C-0.271,-15.499 -0.213,-15.917 -1.016,-16.7C-1.547,-17.218 -2.767,-18.088 -3.542,-17.736C-4.434,-17.332 -4.202,-15.564 -4.251,-13.277C-4.251,-13.277 -4.3,-11.048 -5.446,-5.474C-5.87,-3.41 -6.713,-0.437 -8.579,3.144" style="fill:none;fill-rule:nonzero;stroke:rgb(113,139,198);stroke-width:1px;"/>
            </g>
        </g>
        <g transform="matrix(4.16667,0,0,4.16667,9428.12,4177.42)">
            <g transform="matrix(1,0,0,1,141.146,435.231)">
                <path d="M0,42.403C-2.708,43.905 -6.507,43.892 -9.341,42.416C-12.417,40.816 -13.875,36.743 -16.663,28.666C-18.276,23.994 -19.153,20.492 -19.565,18.756C-20.245,15.469 -20.346,12.125 -20.738,8.812C-20.874,7.643 -21.051,6.478 -21.298,5.323C-21.321,5.223 -21.344,5.123 -21.365,5.019C-21.522,4.326 -22.054,2.049 -20.852,0.103C-20.818,0.052 -20.784,-0.002 -20.749,-0.057C-20.369,-0.629 -19.743,-1.322 -19.159,-1.467C-19.154,-1.47 -19.15,-1.468 -19.145,-1.471C-19.02,-1.501 -18.89,-1.502 -18.77,-1.474C-18.502,-1.404 -18.298,-1.183 -18.135,-0.858C-18.125,-0.834 -18.114,-0.81 -18.103,-0.786C-17.813,-0.151 -17.668,0.831 -17.504,1.806C-17.02,4.728 -16.246,7.622 -15.618,10.528C-14.796,14.341 -14.332,16.239 -12.898,18.228C-11.158,20.643 -7.83,23.484 -5.795,22.801C-4.659,22.421 -3.935,20.943 -3.494,19.549C-3.465,19.456 -3.438,19.367 -3.415,19.277C-3.384,19.189 -3.359,19.095 -3.337,19.008C-3.062,18.007 -2.934,17.141 -2.896,16.901C-2.824,16.404 -2.775,15.851 -2.629,15.275C-2.628,15.272 -2.628,15.272 -2.627,15.268C-2.072,14.489 -0.868,13.305 -0.099,13.601C0.706,13.909 0.473,15.598 0.664,17.839C0.952,21.212 1.824,21.475 3.1,26.465C4.102,30.374 4.598,32.327 4.352,34.482C4.157,36.178 3.68,40.363 0,42.403" style="fill:rgb(253,253,253);fill-rule:nonzero;"/>
            </g>
        </g>
        <g transform="matrix(4.16667,0,0,4.16667,9428.12,4177.42)">
            <g transform="matrix(1,0,0,1,141.146,433.059)">
                <path d="M0,44.575C-2.708,46.077 -6.507,46.064 -9.341,44.588C-12.417,42.988 -13.875,38.915 -16.663,30.838C-18.276,26.166 -19.153,22.664 -19.565,20.928C-20.245,17.641 -20.346,14.297 -20.738,10.984C-20.874,9.815 -21.051,8.65 -21.298,7.495C-21.321,7.395 -21.344,7.295 -21.365,7.191C-21.522,6.498 -22.054,4.221 -20.852,2.275C-20.818,2.224 -20.784,2.17 -20.749,2.115C-20.319,1.481 -19.661,0.859 -19.159,0.705C-19.154,0.702 -19.15,0.704 -19.145,0.701C-19.003,0.659 -18.877,0.657 -18.77,0.698C-18.426,0.841 -18.387,1.424 -18.181,1.422C-18.15,1.424 -18.125,1.411 -18.103,1.386C-17.98,1.261 -17.943,0.834 -17.712,0.357C-17.679,0.291 -17.645,0.223 -17.604,0.163C-17.137,-0.634 -16.372,-1.008 -16.127,-1.124C-16.049,-1.161 -15.971,-1.197 -15.885,-1.233C-15.829,-1.255 -15.771,-1.282 -15.715,-1.306C-15.661,-1.325 -15.605,-1.345 -15.549,-1.368C-15.546,-1.363 -15.546,-1.363 -15.545,-1.367C-15.272,-1.458 -14.992,-1.502 -14.74,-1.408C-14.704,-1.398 -14.672,-1.384 -14.637,-1.368C-14.195,-1.14 -14.077,-0.552 -14.003,-0.181C-14,-0.163 -13.996,-0.147 -13.997,-0.13C-13.955,0.069 -13.944,0.251 -13.945,0.413C-13.945,0.429 -13.945,0.441 -13.948,0.453C-13.949,0.469 -13.949,0.484 -13.948,0.497C-13.952,0.565 -13.953,0.63 -13.958,0.688L-13.958,0.701C-13.979,0.974 -14.015,1.15 -13.941,1.184L-13.933,1.187C-13.815,1.223 -13.622,0.856 -13.304,0.516C-12.702,-0.143 -11.596,-0.773 -11.063,-0.504C-11.04,-0.493 -11.017,-0.483 -11,-0.465C-10.978,-0.45 -10.959,-0.437 -10.938,-0.418C-10.828,-0.315 -10.751,-0.157 -10.699,0.02C-10.676,0.105 -10.66,0.199 -10.641,0.31C-10.634,0.389 -10.621,0.478 -10.614,0.57C-10.607,0.637 -10.601,0.704 -10.596,0.774C-10.595,0.787 -10.595,0.799 -10.594,0.811C-10.574,1.386 -10.632,1.923 -10.537,1.932C-10.438,1.946 -10.446,1.359 -10.002,1.001C-9.665,0.727 -9.089,0.607 -8.698,0.727C-8.678,0.733 -8.655,0.745 -8.634,0.751C-8.57,0.774 -8.514,0.808 -8.46,0.853C-8.391,0.902 -8.331,0.966 -8.277,1.039C-8.27,1.045 -8.269,1.054 -8.263,1.063C-7.798,1.769 -7.908,3.424 -7.764,5.67C-7.752,5.836 -7.742,6.005 -7.729,6.179C-7.71,6.453 -7.681,6.733 -7.64,7.038C-7.53,7.826 -7.303,9.031 -6.921,11.054C-6.917,11.072 -6.914,11.089 -6.911,11.106C-6.849,11.441 -6.781,11.774 -6.713,12.103C-6.708,12.117 -6.704,12.131 -6.703,12.143C-6.696,12.178 -6.689,12.217 -6.68,12.256C-5.633,17.298 -4.089,21.79 -3.508,21.724C-3.503,21.722 -3.499,21.723 -3.494,21.721C-3.436,21.706 -3.398,21.64 -3.378,21.533C-3.356,21.447 -3.346,21.324 -3.337,21.18C-3.297,20.512 -3.34,19.303 -2.962,17.995C-2.762,17.285 -2.435,16.551 -1.903,15.861C-2.283,16.389 -2.496,16.925 -2.627,17.44C-2.072,16.661 -0.868,15.477 -0.099,15.773C0.706,16.081 0.473,17.77 0.664,20.011C0.952,23.384 1.824,23.647 3.1,28.637C4.102,32.546 4.598,34.499 4.352,36.654C4.157,38.35 3.68,42.535 0,44.575" style="fill:rgb(253,253,253);fill-rule:nonzero;"/>
            </g>
        </g>
        <g transform="matrix(4.16667,0,0,4.16667,9428.12,4177.42)">
            <g transform="matrix(1,0,0,1,128.248,459.407)">
                <path d="M0,-5.947C-1.575,-9.147 -2.326,-11.811 -2.72,-13.647C-3.348,-16.553 -4.122,-19.447 -4.606,-22.369C-4.771,-23.344 -4.915,-24.326 -5.205,-24.962C-5.216,-24.985 -5.227,-25.009 -5.237,-25.033C-5.4,-25.358 -5.604,-25.579 -5.872,-25.649C-5.992,-25.677 -6.122,-25.676 -6.247,-25.646C-6.252,-25.643 -6.256,-25.645 -6.261,-25.642C-6.845,-25.497 -7.471,-24.804 -7.851,-24.232C-7.886,-24.177 -7.92,-24.123 -7.954,-24.073C-9.156,-22.126 -8.625,-19.849 -8.467,-19.156C-8.446,-19.052 -8.423,-18.952 -8.4,-18.852C-8.057,-17.299 -7.908,-16.231 -7.84,-15.363C-7.64,-12.734 -8.225,-11.988 -6.667,-5.42C-6.255,-3.683 -5.378,-0.181 -3.765,4.491C-0.978,12.568 0.481,16.641 3.557,18.24C6.391,19.717 10.189,19.73 12.898,18.228C16.578,16.188 17.055,12.003 17.25,10.307C17.496,8.152 17,6.199 15.998,2.29C14.722,-2.7 13.85,-2.964 13.562,-6.337C13.371,-8.577 13.604,-10.266 12.799,-10.574C12.03,-10.87 10.826,-9.686 10.271,-8.907C10.27,-8.903 10.27,-8.903 10.269,-8.9C10.142,-8.719 10.032,-8.534 9.936,-8.352C9.213,-6.952 9.382,-5.529 9.487,-4.941" style="fill:none;fill-rule:nonzero;stroke:rgb(113,139,198);stroke-width:1px;"/>
            </g>
        </g>
        <g transform="matrix(4.16667,0,0,4.16667,9428.12,4177.42)">
            <g transform="matrix(-0.865459,0.500981,0.500981,0.865459,147.463,456.643)">
                <path d="M3.438,-27.761C2.791,-27.914 1.93,-27.839 1.502,-27.252C0.862,-26.372 2.116,-24.824 3.438,-22.098C4.016,-20.904 4.522,-19.41 5.535,-16.425C6.286,-14.212 8.163,-3.701 7.868,1.635" style="fill:none;fill-rule:nonzero;stroke:rgb(113,139,198);stroke-width:1px;"/>
            </g>
        </g>
        <g transform="matrix(4.16667,0,0,4.16667,9428.12,4177.42)">
            <g transform="matrix(1,0,0,1,127.211,449.661)">
                <path d="M0,-15.275L-0.033,-16.157C-0.033,-16.157 1.144,-17.958 2.873,-17.107C3.404,-16.846 3.314,-16.034 3.463,-13.378C3.463,-13.378 3.585,-11.212 3.845,-9.029C3.845,-9.029 4.022,-7.544 4.36,-5.758C4.975,-2.516 5.93,0.486 6.725,2.683" style="fill:none;fill-rule:nonzero;stroke:rgb(113,139,198);stroke-width:1px;"/>
            </g>
        </g>
        <g transform="matrix(4.16667,0,0,4.16667,9428.12,4177.42)">
            <g transform="matrix(1,0,0,1,122.965,449.425)">
                <path d="M0,-14.944C0.272,-15.499 0.213,-15.917 1.017,-16.7C1.547,-17.218 2.767,-18.088 3.543,-17.736C4.434,-17.332 4.202,-15.564 4.252,-13.277C4.252,-13.277 4.301,-11.048 5.446,-5.474C5.871,-3.41 6.713,-0.437 8.58,3.144" style="fill:none;fill-rule:nonzero;stroke:rgb(113,139,198);stroke-width:1px;"/>
            </g>
        </g>
        <g transform="matrix(4.16667,0,0,4.16667,9428.12,4177.42)">
            <g transform="matrix(1,0,0,1,175.989,534.409)">
                <path d="M0,-88.644C1.358,-99.277 5.052,-100.804 11.818,-103.208C21.544,-106.664 28.429,-100.609 34.493,-94.336C57.019,-71.037 69.502,-30.679 50.146,-1.708C40.359,12.94 24.308,18.02 7.385,15.776C-17.325,12.5 -39.181,0.321 -49.738,-23.189C-53.486,-31.534 -55.072,-42.049 -52.65,-50.972C-50.11,-60.33 -38.735,-70.249 -28.665,-69.656C-5.925,-68.314 -4.37,-31.713 16.322,-26.769C23.687,-25.008 19.013,-35.841 17.482,-38.302C13.607,-44.533 3.443,-65.113 0.706,-71.92C-1.91,-78.425 -0.543,-84.388 0,-88.644" style="fill:rgb(66,99,174);fill-rule:nonzero;"/>
            </g>
        </g>
        <g transform="matrix(4.16667,0,0,4.16667,9428.12,4177.42)">
            <g transform="matrix(1,0,0,1,137.171,471.041)">
                <path d="M0,56.863C-4.359,52.104 -8.056,46.559 -10.921,40.179C-14.668,31.835 -16.255,21.319 -13.833,12.396C-12.641,8.007 -9.506,3.494 -5.473,0" style="fill:none;fill-rule:nonzero;stroke:rgb(113,139,198);stroke-width:1px;"/>
            </g>
        </g>
        <g transform="matrix(4.16667,0,0,4.16667,9428.12,4177.42)">
            <g transform="matrix(1,0,0,1,225.957,552.43)">
                <path d="M0,-90.597C11.446,-68.326 14.368,-40.967 0.178,-19.729C-9.609,-5.08 -25.661,0 -42.583,-2.244" style="fill:none;fill-rule:nonzero;stroke:rgb(113,139,198);stroke-width:1px;"/>
            </g>
        </g>
        <g transform="matrix(4.16667,0,0,4.16667,9428.12,4177.42)">
            <g transform="matrix(0.579579,0.814916,0.814916,-0.579579,222.601,438.341)">
                <path d="M-5.613,-10.88C2.939,-9.585 12.067,-9.577 21.089,-10.88" style="fill:none;fill-rule:nonzero;stroke:rgb(113,139,198);stroke-width:1px;"/>
            </g>
        </g>
        <g transform="matrix(4.16667,0,0,4.16667,9428.12,4177.42)">
            <g transform="matrix(-0.416783,-0.909006,-0.909006,0.416783,183.881,463.505)">
                <path d="M-9.522,6.109C-3.928,6.228 1.128,6.242 3.92,6.109" style="fill:none;fill-rule:nonzero;stroke:rgb(113,139,198);stroke-width:1px;"/>
            </g>
        </g>
        <g transform="matrix(4.16667,0,0,4.16667,9428.12,4177.42)">
            <g transform="matrix(1,0,0,1,192.311,502.702)">
                <path d="M0,4.938C0.514,5.153 3.421,6.309 6.577,4.908C10.522,3.155 11.318,-1.024 11.378,-1.371" style="fill:none;fill-rule:nonzero;stroke:rgb(113,139,198);stroke-width:1px;"/>
            </g>
        </g>
        <g transform="matrix(4.16667,0,0,4.16667,9428.12,4177.42)">
            <g transform="matrix(1,0,0,1,134.423,441.318)">
                <path d="M0,-3.489C0.263,-3.088 1.545,-1.222 4.035,-0.677C7.133,0 8.457,-1.946 8.715,-2.171" style="fill:none;fill-rule:nonzero;stroke:rgb(113,139,198);stroke-width:1px;"/>
            </g>
        </g>
        <g transform="matrix(4.16667,0,0,4.16667,9428.12,4177.42)">
            <g transform="matrix(0.35079,-0.936454,-0.936454,-0.35079,108.795,292.351)">
                <path d="M-21.931,-12.99C-25.596,-8.526 -28.468,-2.202 -29.645,4.921C-31.621,16.84 -28.26,27.154 -21.931,30.438C-14.594,27.237 -10.95,14.693 -13.795,2.136C-15.3,-4.51 -18.314,-9.828 -21.931,-12.99Z" style="fill:rgb(241,142,135);fill-rule:nonzero;stroke:rgb(253,253,253);stroke-width:1px;"/>
            </g>
        </g>
        <g transform="matrix(4.16667,0,0,4.16667,9428.12,4177.42)">
            <g transform="matrix(-0.683521,0.729931,0.729931,0.683521,192.426,437.51)">
                <path d="M1.848,-16.33C-1.294,-16.419 -3.916,-15.299 -4.948,-13.111C-6.6,-9.61 -3.558,-4.703 1.848,-2.152C7.253,0.4 12.975,-0.37 14.628,-3.871C15.398,-5.503 15.147,-7.441 14.114,-9.302" style="fill:rgb(253,253,253);fill-rule:nonzero;stroke:rgb(113,139,198);stroke-width:1px;"/>
            </g>
        </g>
        <g transform="matrix(4.16667,0,0,4.16667,9428.12,4177.42)">
            <g transform="matrix(1,0,0,1,161.238,392.649)">
                <path d="M0,38.94C-1.36,38.95 -2.73,38.66 -4.04,38.12C-5.26,37.62 -6.42,36.9 -7.5,36.009C-9.62,33.52 -10.82,30.08 -12.83,27.96C-13.3,27.47 -13.78,27.009 -14.27,26.58C-14.28,26.58 -14.29,26.57 -14.3,26.56C-14.34,26.5 -14.4,26.43 -14.46,26.37C-16.37,24.36 -18.48,22.95 -20.85,22.49C-26.43,21.41 -33.12,27.21 -38.14,24.91C-38.4,24.79 -38.65,24.66 -38.88,24.5C-42.58,22.11 -42.69,15.87 -40.22,10.339C-37.44,4.13 -32.46,0.61 -27.67,0.4C-18.62,-0.01 -7.38,2.81 2.25,7.13C3.95,7.9 5.46,9.07 6.75,10.53C6.75,10.54 6.76,10.54 6.76,10.54C14.6,19.44 14.27,38.83 0,38.94" style="fill:rgb(214,221,240);fill-rule:nonzero;"/>
            </g>
        </g>
        <g transform="matrix(4.16667,0,0,4.16667,9428.12,4177.42)">
            <g transform="matrix(1,0,0,1,146.778,415.636)">
                <path d="M0,3.383C0.06,3.444 0.12,3.513 0.16,3.573C-1.35,2.314 -2.98,1.433 -4.76,1.093C-10.34,0.013 -16.721,4.96 -22.05,3.513C-24.016,2.98 -25.362,0.907 -25.952,0.047C-24.42,1.513 -23.94,1.803 -23.68,1.923C-18.66,4.223 -11.97,-1.577 -6.39,-0.497C-4.02,-0.037 -1.91,1.373 0,3.383" style="fill:rgb(241,142,135);fill-rule:nonzero;"/>
            </g>
        </g>
        <g transform="matrix(4.16667,0,0,4.16667,9428.12,4177.42)">
            <g transform="matrix(1,0,0,1,162.868,403.199)">
                <path d="M0,29.98C-1.37,29.99 -2.73,29.7 -4.04,29.16C-5.57,28.52 -7.01,27.56 -8.31,26.34C-8.6,26.06 -8.88,25.77 -9.13,25.459C-8.05,26.35 -6.89,27.07 -5.67,27.57C-4.36,28.11 -2.99,28.4 -1.63,28.39C12.64,28.28 12.97,8.89 5.13,-0.01C14.59,7.9 15.19,29.86 0,29.98" style="fill:rgb(241,142,135);fill-rule:nonzero;"/>
            </g>
        </g>
        <g transform="matrix(4.16667,0,0,4.16667,9428.12,4177.42)">
            <g transform="matrix(1,0,0,1,141.88,429.115)">
                <path d="M0,-16.184L-3.971,-3.855C-4.488,-2.251 -3.598,-0.517 -1.995,0" style="fill:none;fill-rule:nonzero;stroke:rgb(113,139,198);stroke-width:1px;"/>
            </g>
        </g>
        <g transform="matrix(4.16667,0,0,4.16667,9428.12,4177.42)">
            <g transform="matrix(0.35778,-0.933806,-0.933806,-0.35778,135.624,407.66)">
                <path d="M-1.435,-0.987C-3.982,-0.987 -6.047,-0.3 -6.048,0.549C-6.047,1.399 -3.982,2.087 -1.435,2.087C1.112,2.088 3.176,1.4 3.176,0.55C3.176,-0.299 1.112,-0.987 -1.435,-0.987" style="fill:rgb(113,139,198);fill-rule:nonzero;"/>
            </g>
        </g>
        <g transform="matrix(4.16667,0,0,4.16667,9428.12,4177.42)">
            <g transform="matrix(0.35778,-0.933806,-0.933806,-0.35778,161.038,416.032)">
                <path d="M-1.435,-0.988C-3.982,-0.988 -6.047,-0.301 -6.047,0.549C-6.046,1.398 -3.982,2.086 -1.435,2.087C1.112,2.087 3.176,1.399 3.176,0.549C3.176,-0.3 1.112,-0.988 -1.435,-0.988" style="fill:rgb(113,139,198);fill-rule:nonzero;"/>
            </g>
        </g>
        <g transform="matrix(4.16667,0,0,4.16667,9428.12,4177.42)">
            <g transform="matrix(0.974498,0.224394,0.224394,-0.974498,174.032,418.327)">
                <path d="M-0.68,-1.082L9.369,-1.082L9.693,-5.943L-0.421,-6.432L-0.68,-1.082Z" style="fill:rgb(241,142,135);fill-rule:nonzero;"/>
            </g>
        </g>
        <g transform="matrix(4.16667,0,0,4.16667,9428.12,4177.42)">
            <g transform="matrix(1,0,0,1,355.768,286.62)">
                <path d="M0,73.638C0.86,80.448 -4.95,86.139 -14.35,87.449C-23.2,88.679 -32.18,83.409 -36.709,76.509C-46.03,62.279 -32.379,47.349 -33.689,20.859C-34.32,7.979 -38.26,-2.861 -42.33,-10.962C-35.7,-12.951 -27.709,-14.541 -18.629,-14.781C-8.6,-15.041 0.51,-13.601 8.5,-11.331C7.17,7.589 1.63,20.288 -3.689,28.739C-9.649,38.199 -17.229,45.359 -14.899,53.239C-12.089,62.788 -1.03,65.548 0,73.638" style="fill:rgb(113,139,198);fill-rule:nonzero;"/>
            </g>
        </g>
        <g transform="matrix(4.16667,0,0,4.16667,9428.12,4177.42)">
            <g transform="matrix(0.905253,-0.424873,-0.424873,-0.905253,133.242,402.647)">
                <path d="M-0.368,1.65L7.397,1.649" style="fill:none;fill-rule:nonzero;stroke:rgb(113,139,198);stroke-width:1px;"/>
            </g>
        </g>
        <g transform="matrix(4.16667,0,0,4.16667,9428.12,4177.42)">
            <g transform="matrix(0.559659,0.828723,0.828723,-0.559659,165.132,406.85)">
                <path d="M-1.524,-2.868L5.397,-2.868" style="fill:none;fill-rule:nonzero;stroke:rgb(113,139,198);stroke-width:1px;"/>
            </g>
        </g>
        <g transform="matrix(4.16667,0,0,4.16667,9428.12,4177.42)">
            <g transform="matrix(1,0,0,1,394.428,437.339)">
                <path d="M0,25.93C4.03,19.41 6.21,11.89 7.36,6.691C7.91,4.15 8.229,2.17 8.39,1.13C9.03,-2.93 9.24,-6.92 9.1,-10.84C8.14,-36.88 -8.53,-59.58 -19.76,-74.87C-23.07,-79.37 -26.271,-83.28 -29.17,-86.57C-35.6,-85.44 -43.67,-83.25 -52.3,-78.93C-62.4,-73.88 -69.73,-67.68 -74.6,-62.74C-71.23,-61.219 -68.49,-59.63 -66.39,-58.27C-61.85,-55.34 -54.12,-50.21 -48.73,-40.75C-45.49,-35.059 -43.9,-29.219 -43.36,-27.19C-42.56,-24.18 -42.12,-21.59 -41.85,-19.67C-41.85,-19.67 -58.62,-32.77 -80.88,-40.12C-89.17,-42.85 -96.84,-43.63 -102.98,-43.67C-102.06,-34.21 -102.74,-20.77 -104.79,-8.73C-106.12,-0.9 -108.14,6.14 -110.45,12.35C-112.25,17.18 -114.22,21.52 -116.17,25.31C-117.12,24.96 -118.06,24.62 -118.99,24.31C-117.7,29.89 -116.43,35.991 -115.28,42.55C-109.16,77.57 -112.34,92.06 -101.38,101.04C-87.39,112.5 -63.26,104.41 -58.58,102.85C-28.46,92.75 -13.39,62.17 -3.71,42.55C-1.24,37.531 0.75,32.87 2.34,28.781C1.62,27.861 0.84,26.91 0,25.93C-2.06,23.51 -7.225,18.306 -7.225,18.306C-9.604,16.117 -12.21,13.991 -15.18,11.861C-22.33,6.73 -35.679,1.241 -35.679,1.241C-37.371,0.62 -38.971,0.1 -40.46,-0.35C-40.23,3.34 -40.36,6.51 -40.59,9.01C-41.05,14.09 -41.93,22.62 -47.05,31.29L-48.533,33.632C-52.093,39.143 -56.03,42.441 -57.59,43.861C-59.91,45.97 -62.03,47.57 -63.63,48.701C-63.63,48.701 -61.87,39.08 -61.95,25.68C-51.626,28.942 -28.022,44.512 -37.345,5.14C-39.902,-5.658 -27.302,12.845 -30.752,7.105" style="fill:rgb(156,215,210);fill-rule:nonzero;"/>
            </g>
        </g>
        <g transform="matrix(4.16667,0,0,4.16667,9428.12,4177.42)">
            <g transform="matrix(1,0,0,1,353.968,487.249)">
                <path d="M0,-50.26C0.23,-46.57 0.1,-43.4 -0.13,-40.9C-0.59,-35.82 -1.47,-27.289 -6.59,-18.619C-6.59,-18.619 -16.701,-1.154 -26.604,0" style="fill:none;fill-rule:nonzero;stroke:rgb(66,99,174);stroke-width:1px;"/>
            </g>
        </g>
        <g transform="matrix(4.16667,0,0,4.16667,9428.12,4177.42)">
            <g transform="matrix(1,0,0,1,353.968,436.989)">
                <path d="M0,0L0,0" style="fill:none;fill-rule:nonzero;stroke:rgb(66,99,174);stroke-width:1px;"/>
            </g>
        </g>
        <g transform="matrix(4.16667,0,0,4.16667,9428.12,4177.42)">
            <g transform="matrix(1,0,0,1,332.478,416.709)">
                <path d="M0,46.31C-0.03,39.94 -0.49,32.72 -1.75,25.27C-3.61,14.331 -7.81,5.741 -11.26,0" style="fill:none;fill-rule:nonzero;stroke:rgb(66,99,174);stroke-width:1px;"/>
            </g>
        </g>
        <g transform="matrix(4.16667,0,0,4.16667,9428.12,4177.42)">
            <g transform="matrix(-1,0,0,1,319.818,374.599)">
                <path d="M-0.01,0L0,0" style="fill:none;fill-rule:nonzero;stroke:rgb(35,31,32);stroke-width:1px;"/>
            </g>
        </g>
        <g transform="matrix(4.16667,0,0,4.16667,9428.12,4177.42)">
            <g transform="matrix(-1,0,0,1,291.438,393.67)">
                <path d="M-0.01,0L0,0" style="fill:none;fill-rule:nonzero;stroke:rgb(35,31,32);stroke-width:1px;"/>
            </g>
        </g>
        <g transform="matrix(4.16667,0,0,4.16667,9428.12,4177.42)">
            <g transform="matrix(-1,0,0,1,319.818,374.599)">
                <path d="M-0.01,0L0,0" style="fill:none;fill-rule:nonzero;stroke:rgb(35,31,32);stroke-width:1px;"/>
            </g>
        </g>
        <g transform="matrix(4.16667,0,0,4.16667,9428.12,4177.42)">
            <g transform="matrix(1,0,0,1,83.8482,463.5)">
                <path d="M0,48.41C0,34.809 3.91,25.05 6.54,19.79C10.25,12.349 13.72,5.399 21.66,2.21C27.19,0 32.63,0.51 36.83,1.66" style="fill:none;fill-rule:nonzero;stroke:rgb(113,139,198);stroke-width:1px;"/>
            </g>
        </g>
        <g transform="matrix(4.16667,0,0,4.16667,9428.12,4177.42)">
            <g transform="matrix(1,0,0,1,-18.6919,346.846)">
                <path d="M0,55.891C14.229,41.042 38.373,20.383 72.157,13.339C131.657,0.933 158.345,43.833 232.683,41.415C290.729,39.528 284.704,13.037 345.808,11.928C403.751,10.875 429.667,34.325 485.318,23.31C511.944,18.04 532.262,7.477 544.562,0" style="fill:none;fill-rule:nonzero;stroke:rgb(113,139,198);stroke-width:1px;"/>
            </g>
        </g>
        <g transform="matrix(4.16667,0,0,4.16667,9428.12,4177.42)">
            <g transform="matrix(1,0,0,1,-20.0683,356.675)">
                <path d="M0,15.974C20.509,20.579 45.81,24.247 74.78,24.075C137.413,23.702 153.962,-1.351 208.138,-4.59C269.716,-8.273 266.103,20.721 331.526,19.089C389.7,17.639 407.289,-5.654 471.116,-4.59C503.413,-4.053 529.79,2.425 547.143,7.872" style="fill:none;fill-rule:nonzero;stroke:rgb(113,139,198);stroke-width:1px;"/>
            </g>
        </g>
        <g transform="matrix(4.16667,0,0,4.16667,9428.12,4177.42)">
            <g transform="matrix(1,0,0,1,462.381,416.049)">
                <path d="M0,59.164C0,59.164 -14.669,51.144 -16.257,50.5C-23.951,47.375 -31.318,44.588 -38.616,40.568C-47.137,35.876 -56.734,30.521 -66.832,31.953C-71.776,32.653 -76.092,34.059 -75.123,39.68C-77.503,37.49 -80.163,35.28 -83.133,33.15C-90.283,28.019 -97.263,24.7 -103.133,22.53C-103.503,17.98 -102.883,13.53 -100.103,10.4C-93.103,2.519 -76.793,8 -62.193,10.04C-61.113,10.189 -60.003,10.33 -58.853,10.45C-43.803,12.05 -23.043,10.92 3.507,0C5.587,6.78 7.267,15.05 7.487,24.49C7.807,38.25 0,59.164 0,59.164" style="fill:rgb(113,139,198);fill-rule:nonzero;"/>
            </g>
        </g>
        <g transform="matrix(4.16667,0,0,4.16667,9428.12,4177.42)">
            <g transform="matrix(0,-1,-1,0,62.4143,297.666)">
                <path d="M-0.407,-0.407C-0.632,-0.407 -0.813,-0.225 -0.813,0.001C-0.813,0.224 -0.632,0.407 -0.407,0.407C-0.182,0.407 -0.001,0.224 -0.001,0.001C-0.001,-0.225 -0.182,-0.407 -0.407,-0.407" style="fill:rgb(241,142,135);fill-rule:nonzero;"/>
            </g>
        </g>
        <g transform="matrix(4.16667,0,0,4.16667,9428.12,4177.42)">
            <g transform="matrix(0,-1,-1,0,62.4143,297.666)">
                <ellipse cx="-0.406" cy="0" rx="0.406" ry="0.407" style="fill:none;stroke:rgb(214,221,240);stroke-width:1px;"/>
            </g>
        </g>
        <g transform="matrix(4.16667,0,0,4.16667,9428.12,4177.42)">
            <g transform="matrix(0.974754,0.223281,0.223281,-0.974754,369.413,313.654)">
                <path d="M-0.073,-1.839C5.035,0.583 11.394,0.495 16.538,-1.839" style="fill:none;fill-rule:nonzero;stroke:rgb(113,139,198);stroke-width:1px;"/>
            </g>
        </g>
        <g transform="matrix(4.16667,0,0,4.16667,9428.12,4177.42)">
            <g transform="matrix(0.348618,-0.937265,-0.937265,-0.348618,358.85,330.481)">
                <path d="M-2.765,3.979C0.023,4.592 2.936,4.595 5.725,3.979" style="fill:none;fill-rule:nonzero;stroke:rgb(113,139,198);stroke-width:1px;"/>
            </g>
        </g>
        <g transform="matrix(4.16667,0,0,4.16667,9428.12,4177.42)">
            <g transform="matrix(1,0,0,1,357.952,329.685)">
                <path d="M0,5.488C0.471,4.791 2.886,1.375 7.343,0.62C11.552,-0.093 15.929,1.848 18.583,5.581" style="fill:none;fill-rule:nonzero;stroke:rgb(113,139,198);stroke-width:1px;"/>
            </g>
        </g>
        <g transform="matrix(4.16667,0,0,4.16667,9428.12,4177.42)">
            <g transform="matrix(1,0,0,1,304.757,331.751)">
                <path d="M0,6.993C-1.234,5.727 -5.129,2.061 -11.405,1.117C-18.827,0 -24.34,3.478 -25.638,4.347" style="fill:none;fill-rule:nonzero;stroke:rgb(113,139,198);stroke-width:1px;"/>
            </g>
        </g>
        <g transform="matrix(4.16667,0,0,4.16667,9428.12,4177.42)">
            <g transform="matrix(1,0,0,1,308.168,322.62)">
                <path d="M0,13.44C0.001,12.703 -0.104,5.413 -5.71,1.794C-7.677,0.523 -9.672,0.125 -11.052,0" style="fill:none;fill-rule:nonzero;stroke:rgb(113,139,198);stroke-width:1px;"/>
            </g>
        </g>
        <g transform="matrix(4.16667,0,0,4.16667,9428.12,4177.42)">
            <g transform="matrix(1,0,0,1,306.366,350.889)">
                <path d="M0,-6.429C-0.407,-6.593 -4.328,-8.1 -8.114,-5.761C-12.15,-3.268 -12.358,1.326 -12.368,1.671" style="fill:none;fill-rule:nonzero;stroke:rgb(113,139,198);stroke-width:1px;"/>
            </g>
        </g>
        <g transform="matrix(4.16667,0,0,4.16667,9428.12,4177.42)">
            <g transform="matrix(0,-1,-1,0,69.401,431.608)">
                <path d="M-6.58,-6.58C-10.214,-6.58 -13.16,-3.634 -13.16,0C-13.16,3.634 -10.214,6.58 -6.58,6.58C-2.946,6.58 0,3.634 0,0C0,-3.634 -2.946,-6.58 -6.58,-6.58" style="fill:rgb(253,253,253);fill-rule:nonzero;"/>
            </g>
        </g>
        <g transform="matrix(4.16667,0,0,4.16667,9428.12,4177.42)">
            <g transform="matrix(0,-1,-1,0,69.401,431.608)">
                <circle cx="-6.58" cy="0" r="6.58" style="fill:none;stroke:rgb(113,139,198);stroke-width:1px;"/>
            </g>
        </g>
        <g transform="matrix(4.16667,0,0,4.16667,9428.12,4177.42)">
            <g transform="matrix(0,-1,-1,0,86.5128,427.842)">
                <path d="M-2.665,-2.665C-4.137,-2.665 -5.329,-1.471 -5.329,0.001C-5.329,1.472 -4.137,2.665 -2.665,2.665C-1.192,2.665 0.001,1.472 0.001,0.001C0.001,-1.471 -1.192,-2.665 -2.665,-2.665" style="fill:rgb(253,253,253);fill-rule:nonzero;"/>
            </g>
        </g>
        <g transform="matrix(4.16667,0,0,4.16667,9428.12,4177.42)">
            <g transform="matrix(0,-1,-1,0,86.5128,427.842)">
                <ellipse cx="-2.664" cy="0" rx="2.665" ry="2.665" style="fill:none;stroke:rgb(113,139,198);stroke-width:1px;"/>
            </g>
        </g>
        <g transform="matrix(4.16667,0,0,4.16667,9428.12,4177.42)">
            <g transform="matrix(0,-1,-1,0,148.568,570.964)">
                <path d="M-6.407,-6.408C-9.946,-6.408 -12.815,-3.539 -12.815,0C-12.815,3.539 -9.946,6.407 -6.407,6.407C-2.868,6.407 0,3.539 0,0C0,-3.539 -2.868,-6.408 -6.407,-6.408" style="fill:rgb(253,253,253);fill-rule:nonzero;"/>
            </g>
        </g>
        <g transform="matrix(4.16667,0,0,4.16667,9428.12,4177.42)">
            <g transform="matrix(0,-1,-1,0,148.568,570.964)">
                <circle cx="-6.408" cy="0" r="6.408" style="fill:none;stroke:rgb(113,139,198);stroke-width:1px;"/>
            </g>
        </g>
        <g transform="matrix(4.16667,0,0,4.16667,9428.12,4177.42)">
            <g transform="matrix(0,-1,-1,0,159.503,580.745)">
                <path d="M-1.676,-1.676C-2.602,-1.676 -3.352,-0.926 -3.352,0C-3.352,0.926 -2.602,1.676 -1.676,1.676C-0.751,1.676 0,0.926 0,0C0,-0.926 -0.751,-1.676 -1.676,-1.676" style="fill:rgb(253,253,253);fill-rule:nonzero;"/>
            </g>
        </g>
        <g transform="matrix(4.16667,0,0,4.16667,9428.12,4177.42)">
            <g transform="matrix(0,-1,-1,0,159.503,580.745)">
                <circle cx="-1.676" cy="0" r="1.676" style="fill:none;stroke:rgb(113,139,198);stroke-width:1px;"/>
            </g>
        </g>
        <g transform="matrix(4.16667,0,0,4.16667,9428.12,4177.42)">
            <g transform="matrix(0,1,1,0,157.635,570.963)">
                <path d="M1.869,-1.869C2.899,-1.869 3.737,-1.033 3.737,0C3.737,1.031 2.899,1.869 1.869,1.869C0.837,1.869 0,1.031 0,0C0,-1.033 0.837,-1.869 1.869,-1.869" style="fill:rgb(253,253,253);fill-rule:nonzero;"/>
            </g>
        </g>
        <g transform="matrix(4.16667,0,0,4.16667,9428.12,4177.42)">
            <g transform="matrix(0,1,1,0,157.635,570.963)">
                <ellipse cx="1.869" cy="0" rx="1.868" ry="1.869" style="fill:none;stroke:rgb(113,139,198);stroke-width:1px;"/>
            </g>
        </g>
        <g transform="matrix(4.16667,0,0,4.16667,9428.12,4177.42)">
            <g transform="matrix(0,-1,-1,0,412.13,403.189)">
                <path d="M-4.556,-4.554C-7.072,-4.554 -9.111,-2.514 -9.111,0.001C-9.111,2.517 -7.072,4.556 -4.556,4.556C-2.04,4.556 0,2.517 0,0.001C0,-2.514 -2.04,-4.554 -4.556,-4.554" style="fill:rgb(253,253,253);fill-rule:nonzero;"/>
            </g>
        </g>
        <g transform="matrix(4.16667,0,0,4.16667,9428.12,4177.42)">
            <g transform="matrix(0,-1,-1,0,412.13,403.189)">
                <ellipse cx="-4.555" cy="0.001" rx="4.556" ry="4.555" style="fill:none;stroke:rgb(113,139,198);stroke-width:1px;"/>
            </g>
        </g>
        <g transform="matrix(4.16667,0,0,4.16667,9428.12,4177.42)">
            <g transform="matrix(0,-1,-1,0,424.618,398.011)">
                <path d="M-2.363,-2.364C-3.669,-2.364 -4.726,-1.306 -4.726,-0.001C-4.726,1.305 -3.669,2.363 -2.363,2.363C-1.057,2.363 -0.001,1.305 -0.001,-0.001C-0.001,-1.306 -1.057,-2.364 -2.363,-2.364" style="fill:rgb(253,253,253);fill-rule:nonzero;"/>
            </g>
        </g>
        <g transform="matrix(4.16667,0,0,4.16667,9428.12,4177.42)">
            <g transform="matrix(0,-1,-1,0,424.618,398.011)">
                <ellipse cx="-2.363" cy="-0.001" rx="2.363" ry="2.363" style="fill:none;stroke:rgb(113,139,198);stroke-width:1px;"/>
            </g>
        </g>
        <g transform="matrix(4.16667,0,0,4.16667,9428.12,4177.42)">
            <g transform="matrix(0,-1,-1,0,426.824,412.299)">
                <path d="M-2.205,-2.205C-3.423,-2.205 -4.41,-1.218 -4.41,0C-4.41,1.217 -3.423,2.205 -2.205,2.205C-0.987,2.205 0,1.217 0,0C0,-1.218 -0.987,-2.205 -2.205,-2.205" style="fill:rgb(253,253,253);fill-rule:nonzero;"/>
            </g>
        </g>
        <g transform="matrix(4.16667,0,0,4.16667,9428.12,4177.42)">
            <g transform="matrix(0,-1,-1,0,426.824,412.299)">
                <circle cx="-2.205" cy="0" r="2.205" style="fill:none;stroke:rgb(113,139,198);stroke-width:1px;"/>
            </g>
        </g>
    </g>
</svg>
