<?xml version="1.0" encoding="UTF-8" standalone="no"?>
<!DOCTYPE svg PUBLIC "-//W3C//DTD SVG 1.1//EN" "http://www.w3.org/Graphics/SVG/1.1/DTD/svg11.dtd">
<svg width="100%" height="100%" viewBox="0 0 1511 1173" version="1.1" xmlns="http://www.w3.org/2000/svg" xmlns:xlink="http://www.w3.org/1999/xlink" xml:space="preserve" xmlns:serif="http://www.serif.com/" style="fill-rule:evenodd;clip-rule:evenodd;stroke-linecap:round;stroke-miterlimit:10;">
    <g transform="matrix(1,0,0,1,-7360.48,-9437.95)">
        <g transform="matrix(4.16667,0,0,4.16667,7071.09,8354.83)">
            <g transform="matrix(1,0,0,1,252.436,307.37)">
                <path d="M0,190.258L105.702,136.454C110.235,134.797 113.929,129.189 113.929,123.983L113.929,6.711C113.929,1.505 110.235,-1.68 105.702,-0.363L0,44.199C-5.193,45.509 -9.462,51.174 -9.462,56.781L-9.462,183.12C-9.462,188.729 -5.193,191.938 0,190.258" style="fill:rgb(214,221,240);fill-rule:nonzero;"/>
            </g>
        </g>
        <g transform="matrix(4.16667,0,0,4.16667,7071.09,8354.83)">
            <g transform="matrix(1,0,0,1,246.898,307.37)">
                <path d="M0,190.258L-105.702,136.453C-110.236,134.797 -113.929,129.189 -113.929,123.983L-113.929,6.711C-113.929,1.505 -110.236,-1.68 -105.702,-0.363L0,44.199C5.192,45.509 9.461,51.174 9.461,56.781L9.461,183.12C9.461,188.729 5.192,191.938 0,190.258" style="fill:rgb(156,215,210);fill-rule:nonzero;"/>
            </g>
        </g>
        <g transform="matrix(4.16667,0,0,4.16667,7071.09,8354.83)">
            <g transform="matrix(-0.891175,-0.45366,-0.45366,0.891175,286.5,414.352)">
                <path d="M-17.452,4.187L1.004,4.187" style="fill:none;fill-rule:nonzero;"/>
            </g>
        </g>
        <g transform="matrix(4.16667,0,0,4.16667,7071.09,8354.83)">
            <g transform="matrix(1,0,0,1,137.875,312.427)">
                <path d="M0,3.339L98.749,48.041C105.903,51.279 117.358,51.476 124.105,48.447L224.059,3.595C230.481,0.712 229.36,-3.972 221.668,-6.79L115.219,-45.794C108.826,-48.137 98.796,-47.975 92.852,-45.454L0.599,-6.306C-5.612,-3.67 -5.916,0.661 0,3.339Z" style="fill:rgb(253,253,253);fill-rule:nonzero;stroke:rgb(113,139,198);stroke-width:1px;"/>
            </g>
        </g>
        <g transform="matrix(4.16667,0,0,4.16667,7071.09,8354.83)">
            <g transform="matrix(1,0,0,1,427.02,482.455)">
                <path d="M0,-33.464C0.067,-32.189 -0.928,-30.885 -3.054,-29.792L-26.453,-17.76L-78.642,9.063C-83.612,11.623 -92.189,11.994 -97.871,9.943C-98.023,9.895 -98.156,9.846 -98.3,9.788L-119.826,0.978C-122.086,0.099 -123.243,-1.137 -123.313,-2.44C-123.387,-3.845 -122.195,-5.318 -119.757,-6.512L-44.515,-42.726C-40.011,-44.925 -32.244,-45.458 -27.196,-43.905L-5.333,-37.736C-1.917,-36.686 -0.087,-35.093 0,-33.464" style="fill:rgb(113,139,198);fill-rule:nonzero;"/>
            </g>
        </g>
        <g transform="matrix(4.16667,0,0,4.16667,7071.09,8354.83)">
            <g transform="matrix(1,0,0,1,427.02,482.455)">
                <path d="M0,-33.464C0.067,-32.189 -0.928,-30.885 -3.054,-29.792L-26.453,-17.76L-78.642,9.063C-83.612,11.623 -92.189,11.994 -97.871,9.943C-98.023,9.895 -98.156,9.846 -98.3,9.788L-119.826,0.978C-122.086,0.099 -123.243,-1.137 -123.313,-2.44C-123.387,-3.845 -122.195,-5.318 -119.757,-6.512L-44.515,-42.726C-40.011,-44.925 -32.244,-45.458 -27.196,-43.905L-5.333,-37.736C-1.917,-36.686 -0.087,-35.093 0,-33.464Z" style="fill:none;fill-rule:nonzero;stroke:rgb(113,139,198);stroke-width:1px;"/>
            </g>
        </g>
        <g transform="matrix(4.16667,0,0,4.16667,7071.09,8354.83)">
            <g transform="matrix(1,0,0,1,312.158,303.399)">
                <path d="M0,2.209L-10.879,7.084L-57.227,27.881C-61.086,29.615 -67.64,29.503 -71.741,27.648L-120.975,8.264L-130.269,4.06C-133.661,2.531 -133.484,0.052 -129.933,-1.459L-75.115,-25.878C-71.713,-27.313 -65.971,-27.406 -62.308,-26.064L-1.371,-3.738C3.038,-2.126 3.672,0.559 0,2.209Z" style="fill:rgb(214,221,240);fill-rule:nonzero;stroke:rgb(113,139,198);stroke-width:1px;"/>
            </g>
        </g>
        <g transform="matrix(4.16667,0,0,4.16667,7071.09,8354.83)">
            <g transform="matrix(1,0,0,1,301.279,312.469)">
                <path d="M0,-1.986L-46.348,18.811C-50.207,20.545 -56.761,20.433 -60.862,18.578L-110.096,-0.806L-65.225,-20.993C-61.822,-22.438 -56.08,-22.531 -52.417,-21.189L0,-1.986Z" style="fill:rgb(253,253,253);fill-rule:nonzero;stroke:rgb(113,139,198);stroke-width:1px;"/>
            </g>
        </g>
        <g transform="matrix(4.16667,0,0,4.16667,7071.09,8354.83)">
            <g transform="matrix(1,0,0,1,345.871,387.758)">
                <path d="M0,32.711L-4.229,38.281C-9.079,44.761 -15.06,47.65 -19.22,44.511L-32.86,34.201L-37.45,41.791L-49.14,61.121C-49.79,62.131 -50.5,63.061 -51.27,63.9C-55.54,68.65 -61.239,70.4 -64.97,67.701L-72.25,62.411C-72.75,62.051 -73.2,61.621 -73.579,61.131L-71.489,62.65C-67.76,65.361 -62.05,63.601 -57.78,58.861C-57.02,58.022 -56.31,57.091 -55.659,56.071L-43.97,36.751L-39.37,29.161L-25.729,39.471C-21.579,42.611 -15.55,39.4 -10.739,33.231L-6.51,27.671C-2.479,21.211 -2.489,13.351 -6.54,10.161L-13.18,4.931L-19.81,-0.289L-19.77,-0.339L-6.6,-21.049C-2.88,-26.879 -2.61,-34.019 -5.77,-37.689L-0.11,-33.478C3.931,-30.169 3.95,-22.319 -0.079,-15.999L-13.25,4.701L-13.29,4.761L-6.659,9.981L-0.02,15.211C4.021,18.391 4.04,26.251 0,32.711" style="fill:rgb(113,139,198);fill-rule:nonzero;"/>
            </g>
        </g>
        <g transform="matrix(4.16667,0,0,4.16667,7071.09,8354.83)">
            <g transform="matrix(1,0,0,1,227.888,373.881)">
                <path d="M0,56.155C-7.038,66.791 -18.923,72.953 -32.683,71.573C-34.407,71.405 -36.169,71.116 -37.949,70.697C-61.067,65.29 -75.712,40.932 -73.493,18.383C-72.374,6.945 -66.986,-2.796 -59.138,-9.098C-53.228,-13.833 -45.929,-16.63 -38.005,-16.714C-31.34,-16.798 -24.666,-14.99 -18.578,-11.643C-5.845,-4.66 4.316,9.014 6.395,26.083C7.803,37.754 5.258,48.203 0,56.155" style="fill:rgb(118,202,188);fill-rule:nonzero;"/>
            </g>
        </g>
        <g transform="matrix(4.16667,0,0,4.16667,7071.09,8354.83)">
            <g transform="matrix(1,0,0,1,227.888,373.881)">
                <path d="M0,56.155C-7.038,66.791 -18.923,72.953 -32.683,71.573C-34.407,71.405 -36.169,71.116 -37.949,70.697C-61.067,65.29 -75.712,40.932 -73.493,18.383C-72.374,6.945 -66.986,-2.796 -59.138,-9.098C-53.228,-13.833 -45.929,-16.63 -38.005,-16.714C-31.34,-16.798 -24.666,-14.99 -18.578,-11.643C-5.845,-4.66 4.316,9.014 6.395,26.083C7.803,37.754 5.258,48.203 0,56.155Z" style="fill:none;fill-rule:nonzero;stroke:rgb(113,139,198);stroke-width:1px;"/>
            </g>
        </g>
        <g transform="matrix(4.16667,0,0,4.16667,7071.09,8354.83)">
            <g transform="matrix(1,0,0,1,339.361,381.879)">
                <path d="M0,33.55L-4.229,39.11C-9.04,45.279 -15.069,48.49 -19.22,45.35L-32.86,35.04L-37.46,42.63L-49.149,61.95C-49.8,62.97 -50.51,63.901 -51.271,64.74C-55.54,69.48 -61.25,71.24 -64.979,68.529L-67.069,67.01L-67.08,67C-67.21,66.85 -67.33,66.68 -67.45,66.51C-70.09,62.6 -69.521,55.76 -65.76,49.96L-51.521,28.071L-58.09,23.1L-59.021,22.401L-65.79,17.279C-66.08,17.06 -66.36,16.81 -66.62,16.54C-66.8,16.35 -66.979,16.14 -67.14,15.94C-70.18,12.04 -69.729,4.89 -65.81,-1.02L-63.43,-4.599C-63.42,-4.61 -63.41,-4.62 -63.399,-4.63L-58.53,-11.96C-54.68,-17.76 -48.75,-20.33 -44.39,-18.66C-42.79,-18.05 -31.271,-8.06 -31.271,-8.06L-31.2,-8.01L-21.55,-22.87L-17.62,-28.9C-13.479,-35.26 -6.74,-37.69 -2.64,-34.33L0.29,-32.15L0.72,-31.82C0.72,-31.82 0.729,-31.81 0.74,-31.81C3.899,-28.14 3.63,-21 -0.09,-15.17L-13.26,5.54L-13.3,5.59L-6.67,10.81L-0.03,16.04C4.021,19.23 4.03,27.09 0,33.55Z" style="fill:rgb(253,253,253);fill-rule:nonzero;stroke:rgb(113,139,198);stroke-width:1px;"/>
            </g>
        </g>
        <g transform="matrix(4.16667,0,0,4.16667,7071.09,8354.83)">
            <g transform="matrix(1,0,0,1,191.291,491.075)">
                <path d="M0,-30.827L0,-10.487C-0.429,-9.462 -1.687,-8.502 -3.784,-7.756L-25.579,0L-50.691,-11.205L-20.834,-21.832L-3.868,-27.863C-1.612,-28.665 0,-30.827 0,-30.827" style="fill:rgb(251,236,163);fill-rule:nonzero;"/>
            </g>
        </g>
        <g transform="matrix(4.16667,0,0,4.16667,7071.09,8354.83)">
            <g transform="matrix(1,0,0,1,189.539,511.75)">
                <path d="M0,-7.7L0,12.92C-0.354,14.113 -1.706,15.232 -4.055,16.062L-24.545,23.304C-29.933,25.206 -38.462,24.805 -43.458,22.428L-94.206,-1.697C-94.57,-1.837 -94.924,-1.976 -95.26,-2.135L-112.113,-10.151C-114.099,-11.094 -115.06,-12.259 -115.06,-13.405L-115.06,-32.906C-115.06,-32.906 -113.848,-31.032 -112.197,-30.259L-95.949,-22.531L-95.344,-22.242C-95.018,-22.084 -94.663,-21.944 -94.29,-21.804L-43.542,2.321C-38.546,4.698 -30.025,5.099 -24.638,3.197L-19.427,1.352L-4.139,-4.046C-1.473,-4.997 -0.084,-6.311 0,-7.7Z" style="fill:rgb(251,236,163);fill-rule:nonzero;stroke:rgb(251,236,163);stroke-width:1px;"/>
            </g>
        </g>
        <g transform="matrix(4.16667,0,0,4.16667,7071.09,8354.83)">
            <g transform="matrix(1,0,0,1,78.9412,487.91)">
                <path d="M0,0L0,0" style="fill:none;fill-rule:nonzero;stroke:rgb(35,31,32);stroke-width:1px;"/>
            </g>
        </g>
        <g transform="matrix(4.16667,0,0,4.16667,7071.09,8354.83)">
            <g transform="matrix(1,0,0,1,427.02,520.779)">
                <path d="M0,-71.788L1.396,-45.463C1.463,-44.187 0.468,-42.884 -1.658,-41.791L-77.246,-2.935C-82.344,-0.322 -91.232,0 -96.903,-2.211L-118.431,-11.02C-120.623,-11.875 -121.777,-13.055 -121.91,-14.317L-123.313,-40.764C-123.243,-39.461 -122.086,-38.225 -119.826,-37.346L-98.3,-28.536C-98.156,-28.478 -98.023,-28.429 -97.871,-28.381C-92.189,-26.33 -83.612,-26.701 -78.642,-29.261L-26.453,-56.084L-3.054,-68.116C-0.928,-69.209 0.067,-70.513 0,-71.788" style="fill:rgb(214,221,240);fill-rule:nonzero;"/>
            </g>
        </g>
        <g transform="matrix(4.16667,0,0,4.16667,7071.09,8354.83)">
            <g transform="matrix(1,0,0,1,191.291,504.339)">
                <path d="M0,-45.192L0,-44.091C-0.316,-42.992 -1.612,-41.929 -3.868,-41.128L-20.834,-35.096L-50.691,-24.469L-25.579,-13.264L-5.546,-4.325C-3.085,-3.234 -1.817,-1.874 -1.752,-0.549L-1.752,-0.289C-1.836,1.1 -3.225,2.414 -5.891,3.366L-21.179,8.763L-26.39,10.609C-31.777,12.51 -40.298,12.11 -45.294,9.732L-96.042,-14.392C-96.415,-14.533 -96.77,-14.672 -97.096,-14.831L-97.701,-15.12L-113.949,-22.847C-115.6,-23.621 -116.531,-24.544 -116.812,-25.495C-116.839,-25.588 -116.857,-25.681 -116.877,-25.774L-116.877,-26.464C-116.857,-26.548 -116.839,-26.641 -116.812,-26.725C-116.484,-27.9 -115.143,-29.028 -112.831,-29.848L-94.038,-36.569C-93.675,-36.7 -93.292,-36.811 -92.9,-36.923L-39.72,-55.921C-34.732,-57.702 -26.791,-57.581 -22.027,-55.651L-3.552,-48.137C-1.481,-47.298 -0.298,-46.254 0,-45.192" style="fill:rgb(250,242,203);fill-rule:nonzero;"/>
            </g>
        </g>
        <g transform="matrix(4.16667,0,0,4.16667,7071.09,8354.83)">
            <g transform="matrix(1,0,0,1,227.888,365.137)">
                <path d="M0,64.899C-6.768,70.24 -15.455,72.953 -25.066,71.993C-26.791,71.825 -28.553,71.536 -30.333,71.116C-53.451,65.71 -68.096,41.352 -65.877,18.802C-65.178,11.596 -62.773,5.062 -59.138,-0.354C-53.228,-5.089 -45.929,-7.886 -38.005,-7.97C-31.34,-8.054 -24.666,-6.246 -18.578,-2.899C-5.845,4.084 4.316,17.758 6.395,34.827C7.803,46.498 5.258,56.947 0,64.899Z" style="fill:rgb(253,253,253);fill-rule:nonzero;stroke:rgb(113,139,198);stroke-width:1px;"/>
            </g>
        </g>
    </g>
</svg>
