<svg xmlns="http://www.w3.org/2000/svg" viewBox="0 0 1658.85 980.61"><defs><style>.cls-1,.cls-4,.cls-5{fill:#ecf6ff;}.cls-2{fill:#dceeff;}.cls-3{fill:#cce3ff;}.cls-4,.cls-5{stroke:#cce3ff;}.cls-4{stroke-linejoin:round;stroke-width:7px;}.cls-11,.cls-12,.cls-5,.cls-7{stroke-linecap:round;}.cls-10,.cls-11,.cls-12,.cls-19,.cls-20,.cls-5,.cls-7{stroke-miterlimit:10;}.cls-5{stroke-width:29px;}.cls-6{fill:#afb3c6;}.cls-11,.cls-12,.cls-19,.cls-20,.cls-7{fill:none;}.cls-7{stroke:#a0253f;}.cls-11,.cls-12,.cls-7{stroke-width:47px;}.cls-8{fill:#edf5f7;}.cls-10,.cls-9{fill:#4866e5;}.cls-10{stroke:#4866e5;stroke-width:10px;}.cls-11{stroke:#cf3e83;}.cls-12{stroke:#c1367f;}.cls-13{fill:#0d0b6d;}.cls-14{fill:#e576c6;}.cls-15{fill:#ffc000;}.cls-16{fill:#3030a0;}.cls-17{fill:#cf3e83;}.cls-18{fill:#2f2f3d;}.cls-19{stroke:#0d0b6d;stroke-width:9px;}.cls-20{stroke:#bf571d;stroke-width:3px;}.cls-21{fill:#fff;}.cls-22{fill:#db8b21;}.cls-23{fill:#1a1d21;}.cls-24{fill:#405fd3;}.cls-25{fill:#18181c;}</style></defs><title>back and obj 6</title><g id="Back"><path class="cls-1" d="M950.85,199.28V241.4a53.55,53.55,0,0,1-53.55,53.54H643.78a53.55,53.55,0,0,1-53.55-53.54V199.28Z" transform="translate(-163.39 -199.28)"/><path class="cls-1" d="M950.85,995.75v17.87H590.23V995.75a53.55,53.55,0,0,1,53.55-53.55H897.3A53.55,53.55,0,0,1,950.85,995.75Z" transform="translate(-163.39 -199.28)"/><path class="cls-1" d="M1822.24,995.13v18.49H1461.62V995.13a53.56,53.56,0,0,1,53.55-53.55h253.52A53.56,53.56,0,0,1,1822.24,995.13Z" transform="translate(-163.39 -199.28)"/><path class="cls-1" d="M1822.24,199.28V223.9a53.56,53.56,0,0,1-53.55,53.55H1515.17a53.56,53.56,0,0,1-53.55-53.55V199.28Z" transform="translate(-163.39 -199.28)"/><path class="cls-1" d="M537.92,199.28V341.92a53.55,53.55,0,0,1-53.54,53.55H220a53.56,53.56,0,0,1-53.55-53.55V199.28Z" transform="translate(-163.39 -199.28)"/><path class="cls-2" d="M510.23,199.28V246a18,18,0,0,1-18,18H209.4a18,18,0,0,1-18-18V199.28Z" transform="translate(-163.39 -199.28)"/><path class="cls-1" d="M343.77,344.86a3.57,3.57,0,0,1-1.35-.27,3.52,3.52,0,0,1-2.15-3.18l-.06-4.77h-2.35a8,8,0,0,1-8.13-7.76V309.25a8,8,0,0,1,8.13-7.76h27.88a8,8,0,0,1,8.13,7.76v19.63a8,8,0,0,1-8.13,7.76h-12l-7.52,7.24A3.51,3.51,0,0,1,343.77,344.86Z" transform="translate(-163.39 -199.28)"/><path class="cls-3" d="M365.74,305a4.46,4.46,0,0,1,4.63,4.26v19.63a4.46,4.46,0,0,1-4.63,4.26H352.31l-8.54,8.22-.11-8.22h-5.8a4.46,4.46,0,0,1-4.63-4.26V309.25a4.46,4.46,0,0,1,4.63-4.26h27.88m0-7H337.86a11.46,11.46,0,0,0-11.63,11.26v19.63a11.42,11.42,0,0,0,10.52,11.21l0,1.37a7,7,0,0,0,4.31,6.36,6.84,6.84,0,0,0,2.69.54,7,7,0,0,0,4.86-1.95l6.51-6.27h10.6a11.46,11.46,0,0,0,11.63-11.26V309.25A11.46,11.46,0,0,0,365.74,298Z" transform="translate(-163.39 -199.28)"/><path class="cls-3" d="M247.24,300.33c1.36,0,3.59,1.79,3.81,3.85.33,3-1.82,10.94.68,12.21s10.52,1.21,12.13,2.84c2,2,.34,5.36-.84,6a5,5,0,0,1-.94,6.22s.75,3.84-3,4.94c0,0-.48,3.48-5.13,3.5-1.47,0-3.84.2-6.52.2a28.41,28.41,0,0,1-9.7-1.4L231.5,337l-1.14-18.2,6.26.17a5.23,5.23,0,0,0,4.29-3c1.52-2.95,5.59-8.05,5.29-14.34,0-.94.4-1.33,1-1.33m0-7h0a7.94,7.94,0,0,0-5.81,2.45,8.31,8.31,0,0,0-2.21,6.22c.14,2.93-1.69,6-3.16,8.41-.31.52-.62,1-.9,1.52l-4.61-.12-7.65-.21.48,7.64,1.14,18.2.32,5,4.84,1.31,6,1.61a35.23,35.23,0,0,0,11.81,1.72c1.73,0,3.32-.07,4.6-.13.8,0,1.49-.07,2-.07a11.93,11.93,0,0,0,10.41-5.35,11,11,0,0,0,4.63-7.63,11.63,11.63,0,0,0,1.61-7.39,12.24,12.24,0,0,0,1-3.27,10.39,10.39,0,0,0-2.81-8.94c-2.56-2.6-6.26-3.1-10.55-3.68l-.65-.09.14-1.42a27.14,27.14,0,0,0,.23-5.69c-.57-5.38-5.61-10.1-10.77-10.1Z" transform="translate(-163.39 -199.28)"/><polygon class="cls-1" points="51.84 114.07 70.76 114.06 70.78 144.32 56.19 144.33 51.84 114.07"/><path class="cls-3" d="M230.66,316.84V340.1h-8l-3.34-23.26h11.38m7-7H211.2l1.15,8,3.34,23.25.86,6h21.12V309.84Z" transform="translate(-163.39 -199.28)"/><path class="cls-4" d="M459.05,296.24,480.81,318l-21.76,21.76V327.64s-7.53-.23-13.28,3.74a139.54,139.54,0,0,0-13.32,10.8s-.86-13.41,8.12-23.88a28.87,28.87,0,0,1,18.48-9.95Z" transform="translate(-163.39 -199.28)"/><path class="cls-1" d="M1396.39,884.21v129.41H1016.08V884.21a53.54,53.54,0,0,1,53.54-53.55h273.22A53.55,53.55,0,0,1,1396.39,884.21Z" transform="translate(-163.39 -199.28)"/><circle class="cls-3" cx="928.57" cy="706.51" r="39.38"/><rect class="cls-3" x="998.88" y="681.21" width="180.92" height="21.13"/><rect class="cls-3" x="998.88" y="712.61" width="119.08" height="21.13"/><path class="cls-2" d="M1365.66,995.94v17.68H1046.8V995.94a18,18,0,0,1,18-18h282.8A18,18,0,0,1,1365.66,995.94Z" transform="translate(-163.39 -199.28)"/><rect class="cls-1" x="426.84" y="140" width="360.62" height="554.9" rx="53.55"/><circle class="cls-3" cx="497.22" cy="211.64" r="39.38"/><rect class="cls-3" x="561.61" y="199.8" width="123.69" height="23.69"/><rect class="cls-2" x="426.84" y="278.57" width="360.62" height="294.62"/><polyline class="cls-5" points="482.21 623.13 495.82 637.73 509.45 623.09"/><path class="cls-4" d="M791.23,852.26l-11.54-2.64a18.81,18.81,0,0,1-11.4,3.51,20.44,20.44,0,1,1,20.44-20.44,20.16,20.16,0,0,1-1.51,7.69Z" transform="translate(-163.39 -199.28)"/><polygon class="cls-4" points="738.91 615.55 689.95 615.62 710.46 631.49 738.91 615.55"/><polygon class="cls-4" points="738.91 615.55 713.28 657.27 710.46 631.49 738.91 615.55"/><path class="cls-3" d="M950.85,506.43V713.87a108,108,0,1,1,0-207.44Z" transform="translate(-163.39 -199.28)"/><path class="cls-3" d="M723.83,733.26a89.55,89.55,0,0,1-9,39.2H590.23V654.73A89.29,89.29,0,0,1,634,643.38h.73a89.81,89.81,0,0,1,89.14,89.87Z" transform="translate(-163.39 -199.28)"/><circle class="cls-3" cx="533.67" cy="434.53" r="63.11"/><rect class="cls-1" y="259.45" width="371.45" height="554.9" rx="53.55"/><circle class="cls-3" cx="68.53" cy="332.03" r="39.38"/><rect class="cls-3" x="138.84" y="306.72" width="180.92" height="21.13"/><rect class="cls-3" x="138.84" y="338.13" width="119.08" height="21.13"/><path class="cls-3" d="M510.23,619.2V867a18,18,0,0,1-18,18H209.4a18,18,0,0,1-18-18V619.2a18,18,0,0,1,18-18H492.21A18,18,0,0,1,510.23,619.2Z" transform="translate(-163.39 -199.28)"/><path class="cls-1" d="M343.77,966.86a3.57,3.57,0,0,1-1.35-.27,3.52,3.52,0,0,1-2.15-3.18l-.06-4.77h-2.35a8,8,0,0,1-8.13-7.76V931.25a8,8,0,0,1,8.13-7.76h27.88a8,8,0,0,1,8.13,7.76v19.63a8,8,0,0,1-8.13,7.76h-12l-7.52,7.24A3.51,3.51,0,0,1,343.77,966.86Z" transform="translate(-163.39 -199.28)"/><path class="cls-3" d="M365.74,927a4.46,4.46,0,0,1,4.63,4.26v19.63a4.46,4.46,0,0,1-4.63,4.26H352.31l-8.54,8.22-.11-8.22h-5.8a4.46,4.46,0,0,1-4.63-4.26V931.25a4.46,4.46,0,0,1,4.63-4.26h27.88m0-7H337.86a11.46,11.46,0,0,0-11.63,11.26v19.63a11.42,11.42,0,0,0,10.52,11.21l0,1.37a7,7,0,0,0,4.31,6.36,6.84,6.84,0,0,0,2.69.54,7,7,0,0,0,4.86-2l6.51-6.27h10.6a11.46,11.46,0,0,0,11.63-11.26V931.25A11.46,11.46,0,0,0,365.74,920Z" transform="translate(-163.39 -199.28)"/><path class="cls-3" d="M247.24,922.33c1.36,0,3.59,1.79,3.81,3.85.33,3-1.82,10.94.68,12.21s10.52,1.21,12.13,2.84c2,2,.34,5.36-.84,6a5,5,0,0,1-.94,6.22s.75,3.84-3,4.94c0,0-.48,3.48-5.13,3.5-1.47,0-3.84.2-6.52.2a28.41,28.41,0,0,1-9.7-1.4L231.5,959l-1.14-18.2,6.26.17a5.23,5.23,0,0,0,4.29-3c1.52-3,5.59-8,5.29-14.34,0-.94.4-1.33,1-1.33m0-7h0a7.94,7.94,0,0,0-5.81,2.45,8.31,8.31,0,0,0-2.21,6.22c.14,2.93-1.69,6-3.16,8.41-.31.52-.62,1-.9,1.52l-4.61-.12-7.65-.21.48,7.64,1.14,18.2.32,5,4.84,1.31,6,1.61a35.23,35.23,0,0,0,11.81,1.72c1.73,0,3.32-.07,4.6-.13.8,0,1.49-.07,2-.07a11.93,11.93,0,0,0,10.41-5.35,11,11,0,0,0,4.63-7.63,11.63,11.63,0,0,0,1.61-7.39,12.24,12.24,0,0,0,1-3.27,10.39,10.39,0,0,0-2.81-8.94c-2.56-2.6-6.26-3.1-10.55-3.68l-.65-.09.14-1.42a27.14,27.14,0,0,0,.23-5.69c-.57-5.38-5.61-10.1-10.77-10.1Z" transform="translate(-163.39 -199.28)"/><polygon class="cls-1" points="51.84 736.07 70.76 736.06 70.78 766.32 56.19 766.33 51.84 736.07"/><path class="cls-3" d="M230.66,938.84V962.1h-8l-3.34-23.26h11.38m7-7H211.2l1.15,8,3.34,23.25.86,6h21.12V931.84Z" transform="translate(-163.39 -199.28)"/><path class="cls-4" d="M459.05,918.24,480.81,940l-21.76,21.76V949.64s-7.53-.23-13.28,3.74a139.54,139.54,0,0,0-13.32,10.8s-.86-13.41,8.12-23.88a28.87,28.87,0,0,1,18.48-9.95Z" transform="translate(-163.39 -199.28)"/><path class="cls-2" d="M510.23,828.88V867a18,18,0,0,1-18,18H213.8L329.31,727.38l87.38,99.08,54.77-54Z" transform="translate(-163.39 -199.28)"/><path class="cls-2" d="M298.54,635a64.31,64.31,0,0,1-107.17,47.93V619.2a18,18,0,0,1,18-18h79.53A64,64,0,0,1,298.54,635Z" transform="translate(-163.39 -199.28)"/><rect class="cls-1" x="852.68" width="380.31" height="554.9" rx="53.55"/><circle class="cls-3" cx="923.96" cy="73.47" r="39.38"/><rect class="cls-3" x="994.27" y="48.17" width="180.92" height="21.13"/><rect class="cls-3" x="994.27" y="79.57" width="119.08" height="21.13"/><rect class="cls-3" x="883.41" y="140" width="318.86" height="292.17" rx="18.03"/><path class="cls-1" d="M1199.2,713.31a3.5,3.5,0,0,1-3.5-3.45l-.06-4.78h-2.35a8,8,0,0,1-8.13-7.75V677.7a8,8,0,0,1,8.13-7.76h27.88a8,8,0,0,1,8.13,7.76v19.63a8,8,0,0,1-8.13,7.75h-12l-7.52,7.25A3.51,3.51,0,0,1,1199.2,713.31Z" transform="translate(-163.39 -199.28)"/><path class="cls-3" d="M1221.17,673.44a4.45,4.45,0,0,1,4.63,4.26v19.63a4.45,4.45,0,0,1-4.63,4.25h-13.43l-8.54,8.23-.11-8.23h-5.8a4.45,4.45,0,0,1-4.63-4.25V677.7a4.45,4.45,0,0,1,4.63-4.26h27.88m0-7h-27.88a11.46,11.46,0,0,0-11.63,11.26v19.63a11.42,11.42,0,0,0,10.52,11.2l0,1.37a7,7,0,0,0,11.85,5l6.51-6.27h10.61a11.46,11.46,0,0,0,11.63-11.25V677.7a11.46,11.46,0,0,0-11.63-11.26Z" transform="translate(-163.39 -199.28)"/><path class="cls-3" d="M1102.66,668.77c1.36,0,3.6,1.79,3.82,3.86.33,3-1.82,10.93.68,12.2s10.52,1.21,12.13,2.84c2,2,.34,5.36-.85,6a5,5,0,0,1-.93,6.22s.75,3.83-3,4.93c0,0-.48,3.48-5.13,3.5-1.48,0-3.84.21-6.52.21a28.42,28.42,0,0,1-9.7-1.41l-6.27-1.69-1.14-18.19,6.26.17a5.21,5.21,0,0,0,4.28-3c1.53-2.94,5.6-8,5.3-14.33-.05-.94.4-1.34,1-1.34m0-7h0a7.92,7.92,0,0,0-5.81,2.46,8.31,8.31,0,0,0-2.21,6.22c.14,2.92-1.69,6-3.16,8.4-.31.53-.62,1-.9,1.53l-4.61-.13-7.65-.2.48,7.64,1.14,18.19.31,5,4.85,1.31,6,1.62a35.44,35.44,0,0,0,11.81,1.72c1.73,0,3.32-.08,4.59-.14l2-.07a11.93,11.93,0,0,0,10.41-5.35,10.87,10.87,0,0,0,4.62-7.63,11.54,11.54,0,0,0,1.62-7.38,12.31,12.31,0,0,0,1-3.28,10.4,10.4,0,0,0-2.81-8.94c-2.56-2.59-6.27-3.09-10.55-3.67l-.65-.09c0-.51.1-1,.14-1.42a27.17,27.17,0,0,0,.23-5.69c-.57-5.38-5.61-10.11-10.78-10.11Z" transform="translate(-163.39 -199.28)"/><polygon class="cls-1" points="907.27 482.52 926.19 482.51 926.21 512.76 911.62 512.77 907.27 482.52"/><path class="cls-3" d="M1086.08,685.29l0,23.26h-8l-3.35-23.25h11.38m7-7h-26.45l1.15,8,3.34,23.26.86,6h21.12v-7l0-23.26v-7Z" transform="translate(-163.39 -199.28)"/><path class="cls-4" d="M1314.48,664.68l21.76,21.76-21.76,21.76V696.09s-7.53-.24-13.28,3.74a137.83,137.83,0,0,0-13.32,10.8s-.86-13.42,8.12-23.88a28.92,28.92,0,0,1,18.48-10Z" transform="translate(-163.39 -199.28)"/><path class="cls-2" d="M1272.35,524.52a65.12,65.12,0,1,1-118.71-37h107.19A64.83,64.83,0,0,1,1272.35,524.52Z" transform="translate(-163.39 -199.28)"/><path class="cls-2" d="M1261.05,479.9c-23,32.48-67.84,40.28-67.84,40.28s-7.5-44.87,15.52-77.36,67.84-40.28,67.84-40.28S1284.07,447.41,1261.05,479.9Z" transform="translate(-163.39 -199.28)"/><path class="cls-2" d="M1203,441.07c25.19,30.83,20.8,76.11,20.8,76.11s-45.26-4.7-70.45-35.53-20.8-76.11-20.8-76.11S1177.76,410.24,1203,441.07Z" transform="translate(-163.39 -199.28)"/><path class="cls-2" d="M1239.28,434.19c1.3,39.8-29.7,73.1-29.7,73.1s-33.09-31.21-34.39-71,29.69-73.1,29.69-73.1S1238,394.39,1239.28,434.19Z" transform="translate(-163.39 -199.28)"/><rect class="cls-2" x="947.84" y="378.52" width="192" height="23.69"/><rect class="cls-1" x="1298.23" y="127.45" width="360.62" height="554.9" rx="53.55"/><circle class="cls-3" cx="1368.61" cy="199.09" r="39.38"/><rect class="cls-3" x="1433" y="187.25" width="123.69" height="23.69"/><rect class="cls-2" x="1298.23" y="266.02" width="360.62" height="294.62"/><polyline class="cls-5" points="1353.6 610.58 1367.21 625.18 1380.84 610.54"/><path class="cls-4" d="M1662.62,839.71l-11.54-2.64a18.84,18.84,0,0,1-11.4,3.51,20.44,20.44,0,1,1,20.44-20.45,20.17,20.17,0,0,1-1.51,7.7Z" transform="translate(-163.39 -199.28)"/><polygon class="cls-4" points="1610.31 603 1561.34 603.07 1581.85 618.94 1610.31 603"/><polygon class="cls-4" points="1610.31 603 1584.67 644.72 1581.85 618.94 1610.31 603"/><path class="cls-3" d="M1624.08,516.3a110.8,110.8,0,0,1-162.46,98v-149h150A110.26,110.26,0,0,1,1624.08,516.3Z" transform="translate(-163.39 -199.28)"/><path class="cls-3" d="M1822.24,534.4V640.78a60.46,60.46,0,1,1,0-106.38Z" transform="translate(-163.39 -199.28)"/><path class="cls-3" d="M1822.24,625.3V759.91H1590.53c0-.63,0-1.25,0-1.88a153.86,153.86,0,0,1,144.86-153.6q4.45-.25,9-.26A153.12,153.12,0,0,1,1822.24,625.3Z" transform="translate(-163.39 -199.28)"/></g><g id="Man"><ellipse class="cls-6" cx="839.52" cy="976.99" rx="402.98" ry="3.62"/><polyline class="cls-7" points="541.84 236 560.42 258.76 584.16 240.28"/><path class="cls-8" d="M741.44,460.66c-8.17-4.18-14.76-12-19.13-17.21-1-1.17-1.84-2.18-2.54-2.94-4.65-5.09-4-10-2.57-12.8a9.74,9.74,0,0,1,3.23-10.86,11,11,0,0,1,6.9-9.21,11.89,11.89,0,0,1,2.32-5.45,8.57,8.57,0,0,1,6.8-3.54h.27c2.88.1,6.26,2.73,11.48,7,2.76,2.28,5.88,4.86,7.57,5.48h0c2,0,6.21-4.84,8.75-7.74a42.42,42.42,0,0,1,5.58-5.71,10.12,10.12,0,0,1,6-1.84c3.17,0,6.83,1.24,7.84,4,.3.83.75,3-1.68,5-6.28,5.27-8.59,13.22-10.28,19-.43,1.47-.83,2.85-1.25,4a6.85,6.85,0,0,0,.77,6.62l9.6,9.84L752.6,467.67Z" transform="translate(-163.39 -199.28)"/><path class="cls-9" d="M776.15,398.38c3.85,0,7.39,2.26,4.56,4.63-8.55,7.16-10.29,18.59-12.29,24.11a9.26,9.26,0,0,0,1.28,9.15l7.75,8-25,20.38-9.74-6.12c-9.61-4.87-17.24-15.49-21.06-19.66-5.56-6.07-1.61-10.88-1.61-10.88-3-6.15,2.86-9.78,2.86-9.78,0-7.35,7-8.7,7-8.7-.59-2.28,1.8-8.31,6.61-8.31h.19c4,.14,13.62,10.66,18.27,12.37a2.69,2.69,0,0,0,.94.16c4.69,0,11.7-10.95,15.75-14a7.63,7.63,0,0,1,4.55-1.34m0-5h0a12.49,12.49,0,0,0-7.54,2.33,44.23,44.23,0,0,0-6,6.07c-1.79,2-5,5.68-6.69,6.71a66,66,0,0,1-6.17-4.72c-5.61-4.64-9.24-7.49-13-7.61h-.36a11,11,0,0,0-8.77,4.51A14.39,14.39,0,0,0,725.1,406a13.3,13.3,0,0,0-7,9.67,12.24,12.24,0,0,0-3.52,11.92c-1.44,3.58-1.7,9.1,3.38,14.65.66.73,1.5,1.72,2.47,2.87,4.48,5.32,11.23,13.35,19.8,17.77l9.55,6,3,1.9,2.78-2.26,25-20.38,4.24-3.45L781,440.73,773.45,433a4.4,4.4,0,0,1-.32-4.14c.44-1.23.86-2.66,1.3-4.16,1.6-5.5,3.79-13,9.49-17.81a6.93,6.93,0,0,0,2.42-7.81c-1.53-4.18-6.44-5.66-10.19-5.66Z" transform="translate(-163.39 -199.28)"/><polygon class="cls-10" points="583.97 267.96 593.64 278.44 627.91 254.83 614.24 240.02 583.97 267.96"/><circle class="cls-8" cx="591.62" cy="267.01" r="4.39"/><polyline class="cls-11" points="482 277.34 507.55 291.87 523.02 266.07"/><polyline class="cls-11" points="547.03 299.5 574.26 288.43 563.57 260.3"/><polyline class="cls-12" points="621.76 245.41 641.02 267.6 664.2 248.41"/><path class="cls-8" d="M699.72,510.59c-.72.05-1.47.08-2.23.08-8.48,0-17.23-3-23-5-1.44-.5-2.69-.93-3.68-1.22-6.61-2-8.57-6.55-8.78-9.66a9.73,9.73,0,0,1-2.8-11,11,11,0,0,1,1.19-11.44,11.72,11.72,0,0,1-.78-6.05,8.47,8.47,0,0,1,4.23-6.49,8.8,8.8,0,0,1,4.32-.85,67.2,67.2,0,0,1,9.14,1,61.89,61.89,0,0,0,8,.91,7.46,7.46,0,0,0,1.3-.09c1.57-.3,3-8.18,3.54-11.15a42.91,42.91,0,0,1,1.85-7.76c1.62-3.91,6.28-6.32,9.67-6.32a4.83,4.83,0,0,1,4.1,1.85,4.63,4.63,0,0,1,.41,4.39c-2.69,7.74-.59,15.76.94,21.61.39,1.48.75,2.88,1,4.09a6.87,6.87,0,0,0,4.06,5.28l13.29,3.52-12.56,34.6Z" transform="translate(-163.39 -199.28)"/><path class="cls-9" d="M701.67,438.05c1.72,0,2.85.89,2.15,2.92-3.66,10.53.71,21.23,1.84,27a9.24,9.24,0,0,0,5.79,7.19L722.18,478l-11,30.35-11.5-.26c-.71.05-1.44.08-2.17.08-10.15,0-20.94-4.63-26-6.14-7.88-2.35-7-8.51-7-8.51-5.75-3.72-2.57-9.86-2.57-9.86-3.77-6.3,1.52-11,1.52-11-1.7-1.68-2.76-8.23,1.57-10.62a6.7,6.7,0,0,1,3.11-.54c4.75,0,12.62,1.91,17.15,1.91a9.16,9.16,0,0,0,1.76-.14c4.87-.92,5.18-15.42,7.24-20.41,1.22-2.94,4.9-4.77,7.36-4.77m0-5h0c-4.3,0-9.95,2.94-12,7.86a43.75,43.75,0,0,0-2,8.28c-.49,2.66-1.35,7.4-2.29,9.18h-.09a61.67,61.67,0,0,1-7.63-.88,68,68,0,0,0-9.52-1,11.09,11.09,0,0,0-5.54,1.17,10.93,10.93,0,0,0-5.49,8.33,14.26,14.26,0,0,0,.48,6.09,13.26,13.26,0,0,0-1.07,11.9,12.26,12.26,0,0,0,3.1,12c.6,3.81,3.21,8.68,10.42,10.83.94.28,2.17.71,3.59,1.2,6,2.05,14.94,5.15,23.84,5.15.77,0,1.54,0,2.28-.07l11.28.25,3.59.08,1.22-3.38,11-30.34,1.87-5.14-5.29-1.4L713,470.39a4.4,4.4,0,0,1-2.4-3.38c-.25-1.29-.62-2.72-1-4.24-1.45-5.55-3.44-13.14-1-20.16a7.12,7.12,0,0,0-.73-6.66,7.25,7.25,0,0,0-6.13-2.9Z" transform="translate(-163.39 -199.28)"/><polygon class="cls-10" points="544.79 313.92 558.47 317.95 575.75 280.1 556.42 274.41 544.79 313.92"/><circle class="cls-8" cx="550.86" cy="309.18" r="4.39"/><path class="cls-8" d="M746.38,487.06c-5.14-7.61-7.14-17.65-8.47-24.31-.29-1.5-.55-2.79-.79-3.8-1.63-6.7,1.33-10.69,3.92-12.45a9.72,9.72,0,0,1,8.07-7.95,10.75,10.75,0,0,1,9.15-4.79,12.75,12.75,0,0,1,1.3.07,11.17,11.17,0,0,1,8.47-4.49,8,8,0,0,1,4.12,1.13c2.47,1.47,4.17,5.4,6.66,11.71,1.32,3.32,2.81,7.09,4,8.45a2,2,0,0,0,1.2.23c2.53,0,6.61-1.48,10.2-2.79a42.35,42.35,0,0,1,7.64-2.31,7.28,7.28,0,0,1,1.14-.08c4.59,0,9.63,3.83,10,7.58.17,1.78-.75,4.08-3.92,4.7-8,1.58-13.91,7.43-18.19,11.71-1.09,1.08-2.11,2.1-3,2.91a6.86,6.86,0,0,0-2.52,6.17L789,492l-36.22,6.59Z" transform="translate(-163.39 -199.28)"/><path class="cls-9" d="M768,431.84a5.47,5.47,0,0,1,2.84.78c3.48,2.07,6.79,15.9,10,19.65a3.92,3.92,0,0,0,3.09,1.09c5.11,0,14-4.55,18.18-5.13a7.16,7.16,0,0,1,.8-.05c5.13,0,10.48,6.37,5.59,7.33-10.93,2.15-18,11.32-22.38,15.19a9.25,9.25,0,0,0-3.3,8.63l3,10.7-31.76,5.78-5.57-10.06c-6.07-8.9-7.63-21.89-9-27.39-1.94-8,3.85-10.3,3.85-10.3.31-6.84,7.22-7.19,7.22-7.19a8.36,8.36,0,0,1,7.65-4.61,9.36,9.36,0,0,1,2.65.36c.47-1.81,3.7-4.78,7.12-4.78m0-5h0a13.4,13.4,0,0,0-9.59,4.42h-.18a13.31,13.31,0,0,0-10.62,5.07,12.26,12.26,0,0,0-8.85,8.75c-3,2.44-5.88,7.15-4.1,14.46.23.95.48,2.23.77,3.7,1.36,6.83,3.41,17.12,8.78,25.13l5.47,9.86,1.74,3.14,3.53-.64L786.74,495l5.38-1-1.46-5.27-2.89-10.47a4.39,4.39,0,0,1,1.72-3.77c1-.87,2-1.91,3.14-3,4.06-4.05,9.61-9.59,16.91-11,4.51-.89,6.22-4.36,5.93-7.4-.49-5.06-6.56-9.84-12.49-9.84h0a10.27,10.27,0,0,0-1.47.1,43.34,43.34,0,0,0-8.16,2.44c-3.11,1.13-7,2.53-9.1,2.63a64.06,64.06,0,0,1-3.12-7.1c-2.68-6.77-4.48-11-7.7-12.93a10.47,10.47,0,0,0-5.4-1.48Z" transform="translate(-163.39 -199.28)"/><polygon class="cls-10" points="585 296.4 588.41 310.25 629.81 306.1 624.99 286.53 585 296.4"/><circle class="cls-8" cx="592.15" cy="299.26" r="4.39"/><path class="cls-9" d="M790.84,441.81a2.8,2.8,0,0,0-1.84-.44c-3,.36-12.15,1.66-17,4.75-17.59,11.07-54.37,39.81-71,44.81-17,5.12-54.67,7.49-67.77,6.6-3.44-.23-4.17,3.19-3.75,5.4,2.18,11.53,12.71,24.44,12.71,24.44l1.24,17.78L594.81,702.09a62.59,62.59,0,0,0,4.82,46.79L620.35,787c5.88,10.82,14.83,18.89,25.29,22.81l.22.07L780,850.23a2.87,2.87,0,0,0,1.59,0l111.95-32.39a3.07,3.07,0,0,0,2.14-3.19L873.08,496a3.12,3.12,0,0,0-1.39-2.4Z" transform="translate(-163.39 -199.28)"/><path class="cls-13" d="M899.59,1122.47l-.28,24.35s54.36,8.6,72.78,29.45H863.8l4.53-69.62Z" transform="translate(-163.39 -199.28)"/><path class="cls-13" d="M763.87,1120.42l-.28,27.35s22.9,3,32.21,28.5H721.68l7.42-30,2.9-27.36Z" transform="translate(-163.39 -199.28)"/><path class="cls-14" d="M1108.62,459.16c-3.22,3.81-13.22,10.19-21.08,18.06-6.1,6.11-9.09,11.9-17.61,18.76a53.83,53.83,0,0,1-9.87,6l-50.36,87.6c-9.09,14.3-22.4,18.41-32.5,13.72l-89-49.54s.76-73.85,13.41-65.53c24.61,16.21,80.62,64.15,80.62,64.15l55-64.53-.5-8.68a121.27,121.27,0,0,1,.79-12.56c.78-6.52,5.28-14.23.52-25.74s6.62-3.56,9.14,1.91c2.1,4.56,1,14.15,3.57,17.66a16,16,0,0,0,3.63-2.74l24.53-31.82a2.68,2.68,0,0,1,3.42-.76l1.32.72a2.66,2.66,0,0,1,.94,3.84c-4.79,7-19.63,27.65-19.23,27.86l.65.79L1094.75,428a2.67,2.67,0,0,1,3.52-.42l1.73,1.2a2.64,2.64,0,0,1,.59,3.81c-5.73,7.4-27.23,30.89-26.82,31.12l.86.83,26.82-23.69a2.68,2.68,0,0,1,3.67-.29l1.31,1.07a2.66,2.66,0,0,1,.38,3.76l-25.33,23.82.73,1.15,22-15.45a2.68,2.68,0,0,1,3.55,0l.61.55A2.67,2.67,0,0,1,1108.62,459.16Z" transform="translate(-163.39 -199.28)"/><path class="cls-15" d="M983.13,551.6a17.51,17.51,0,0,0-7.77-16.33c-16.34-10.77-44.08-31.06-62.55-43.21-12.64-8.32-24.64,54.73-24.64,54.73l61.76,52.92c5,3.43,11.78,5.48,16.39-.74Z" transform="translate(-163.39 -199.28)"/><path class="cls-13" d="M931.72,352.29s28.57,37.24-10.22,47.12Z" transform="translate(-163.39 -199.28)"/><path class="cls-16" d="M738.94,527.58a551.68,551.68,0,0,1-97.24-.21l1.24,17.78s67.69,5.81,96-2S738.94,527.58,738.94,527.58Z" transform="translate(-163.39 -199.28)"/><polygon class="cls-17" points="704.94 913.76 702.42 946.03 735.92 947.54 736.2 923.19 704.94 913.76"/><polygon class="cls-17" points="569.22 911.71 565.7 946.98 600.2 948.49 600.48 921.14 569.22 911.71"/><polygon class="cls-18" points="757.95 455.48 753.31 935.39 694.69 936.25 684.73 452.45 757.95 455.48"/><polygon class="cls-18" points="711.26 453.66 613.87 937.25 557.63 937.25 625.85 449.17 711.26 453.66"/><path class="cls-15" d="M748.8,511l34.9,44.37-11.78,80.46a11.65,11.65,0,0,0,11,13.17l143.57,6a13.31,13.31,0,0,0,13.9-12.75l-16.62-84.82s18.52-11.95,6.16-44.1c-8.65-22.46-33.57-29.6-35.21-30.56,0,0-12.31-3.26-18.64-4.41,0,0-45.14-1.62-60.06,0C777,482.65,748.8,511,748.8,511Z" transform="translate(-163.39 -199.28)"/><path class="cls-14" d="M833.35,400.74c-2.84-8.36-28.65-18.85-34.85-.08-8,24.19,38.07,36.91,38.07,36.91l-2,40.14h-5.11s9.19,19.86,37,21.49,18.19-18.73,18.19-18.73l-4.7-1.28-2.4-31.72s40.9,3.17,49.44-1.26c0,0,6.48-39.9.31-68.19L893.69,347.7l-54.19,4Z" transform="translate(-163.39 -199.28)"/><path class="cls-13" d="M812.15,390.2s-26.31-10.71,4.34-42.42,58-15.26,58-15.26,7.71-32.32,29-32.23c30.39.14,35.07,47.08,35.07,47.08s15.32-25.53,24-21.88,8.95,88.44-111.93,47.12c0,0,10.39,23.38-17.3,28.13C833.35,400.74,828.52,390.76,812.15,390.2Z" transform="translate(-163.39 -199.28)"/><polyline class="cls-19" points="660.32 123.44 664.12 144.63 656.19 148.42 641.53 133.49"/><path class="cls-20" d="M802.27,537.45" transform="translate(-163.39 -199.28)"/><path class="cls-20" d="M777,554.27" transform="translate(-163.39 -199.28)"/><path class="cls-21" d="M906.41,430.77c-.63,4.06-6.65,6.49-13.43,5.43s-11.55-6.74-10.91-10.8,8-.53,14.81.53S907.05,426.71,906.41,430.77Z" transform="translate(-163.39 -199.28)"/><polygon class="cls-17" points="714.13 248.19 687.23 242.42 714 260.51 714.13 248.19"/><polygon class="cls-22" points="765.07 382.04 758.41 355.56 776.4 391.75 765.07 382.04"/><path class="cls-23" d="M1012,423" transform="translate(-163.39 -199.28)"/><polygon class="cls-24" points="736.84 198.78 746.13 221.51 734.99 221.65 736.84 198.78"/><circle class="cls-13" cx="720.18" cy="201.99" r="5.63"/><circle class="cls-13" cx="749.42" cy="201.99" r="5.63"/><polygon class="cls-25" points="687.41 570.36 700.07 514.02 690.55 684.83 687.41 570.36"/><path class="cls-15" d="M806,480,690,523s-17.25,14-5.85,37.47C691,574.65,705.9,576.28,714,574.6c22.09-4.57,85.65-23.27,85.65-23.27Z" transform="translate(-163.39 -199.28)"/><path class="cls-14" d="M788.69,488.58l-14,14.21-24.3-18.32,20.32-18s6.65-27.16,11.22-30.32a35.71,35.71,0,0,1,17.56-5.86c4.54-.06,9.15,5.75,8.52,8.36,0,0,8.77,3.72,8.9,12,0,0,4.44,4.64,2.38,10.71,0,0,3.31,5.83-1.53,10.1S799.37,483,788.69,488.58Z" transform="translate(-163.39 -199.28)"/><path class="cls-14" d="M715.14,567.35c-10.61,4.3-25.15,4.3-32-7.87C670.28,536.75,690,523,690,523l80.8-56.57,17.37,22.71S737.47,558.29,715.14,567.35Z" transform="translate(-163.39 -199.28)"/><path class="cls-9" d="M804.69,479.29l-12.43,75.35,41.8,3.26L816,472.55s-1.52-1.45-5.81.66A12.45,12.45,0,0,0,804.69,479.29Z" transform="translate(-163.39 -199.28)"/><path class="cls-16" d="M804.69,479.29l-14.43,84.35,20.9,1.63v-9.15l-4.47-.32,3.47-82.59a12.11,12.11,0,0,0-3.25,2.35A11.24,11.24,0,0,0,804.69,479.29Z" transform="translate(-163.39 -199.28)"/><path class="cls-8" d="M1177.94,986.78c-8.47-3.56-15.63-10.87-20.38-15.72-1.07-1.1-2-2-2.74-2.75-5-4.72-4.74-9.69-3.53-12.57a9.73,9.73,0,0,1,2.41-11.07,11,11,0,0,1,6.18-9.69,11.81,11.81,0,0,1,2-5.77,8.45,8.45,0,0,1,6.68-3.9h.21c2.84,0,6.34,2.33,11.76,6.17,2.92,2.06,6.23,4.4,8,4.89h0c1.85,0,6-5.45,8.15-8.38a42.74,42.74,0,0,1,5.13-6.11,10.35,10.35,0,0,1,6.82-2.32c2.67,0,6.16.94,7.24,3.59.33.8.84,2.87-1.35,5-5.87,5.72-7.58,13.82-8.83,19.74-.32,1.5-.61,2.91-1,4.1a6.83,6.83,0,0,0,1.28,6.55l10.3,9.09-26.72,25.31Z" transform="translate(-163.39 -199.28)"/><path class="cls-9" d="M1208.62,922.05c3.55,0,6.62,1.9,4.15,4.31-8,7.78-8.87,19.3-10.44,25a9.23,9.23,0,0,0,2,9l8.33,7.35-23.44,22.2L1179,984.52c-9.94-4.14-18.35-14.16-22.47-18-6-5.63-2.42-10.73-2.42-10.73-3.48-5.9,2.12-10,2.12-10-.55-7.32,6.3-9.19,6.3-9.19-.77-2.26,1.22-8.59,6.16-8.8h.1c4.12,0,14.31,9.62,19,11a2.57,2.57,0,0,0,.73.1c4.7,0,11-11.75,14.88-15.11a8,8,0,0,1,5.18-1.71m0-5h0a12.86,12.86,0,0,0-8.46,2.93,43.53,43.53,0,0,0-5.49,6.5c-1.63,2.17-4.53,6-6.17,7.19a64.21,64.21,0,0,1-6.5-4.24c-5.81-4.11-9.55-6.63-13.21-6.63h-.32a10.93,10.93,0,0,0-8.64,5,14.52,14.52,0,0,0-2.3,5.66,13.28,13.28,0,0,0-6.28,10.17,12.25,12.25,0,0,0-2.62,12.15c-1.16,3.67-1,9.2,4.47,14.35.72.67,1.63,1.6,2.68,2.68,4.87,5,12.2,12.47,21.08,16.23l10,5.27L1190,996l2.6-2.47,23.44-22.2,4-3.76-4.1-3.62-8.15-7.18a4.45,4.45,0,0,1-.63-4.1c.36-1.26.66-2.72,1-4.25,1.18-5.61,2.8-13.28,8.13-18.47a7,7,0,0,0,1.92-7.74c-1.29-3.18-5-5.15-9.56-5.15Z" transform="translate(-163.39 -199.28)"/><polygon class="cls-10" points="1020.94 793.62 1031.37 803.34 1063.77 777.24 1049.03 763.49 1020.94 793.62"/><circle class="cls-8" cx="1028.49" cy="792.1" r="4.39"/><polyline class="cls-11" points="915.27 772.44 940.81 786.97 956.29 761.17"/><polyline class="cls-11" points="1011.57 776.22 1024.99 802.37 1052.07 789.24"/><polyline class="cls-11" points="1117.75 788.54 1134.4 812.75 1159.58 796.28"/><path class="cls-8" d="M1242.11,1022c-7.56-5.19-13.1-13.81-16.77-19.51-.83-1.29-1.55-2.41-2.14-3.25-4-5.64-2.68-10.44-.91-13a9.73,9.73,0,0,1,4.59-10.36,11,11,0,0,1,8-8.24,11.64,11.64,0,0,1,2.51-4.59,8.93,8.93,0,0,1,6.66-3.24,8.15,8.15,0,0,1,1.3.11c2.84.46,5.86,3.5,10.49,8.45,2.44,2.61,5.21,5.57,6.8,6.41l.17,0c2.06,0,6.54-4,9.51-6.58a43.72,43.72,0,0,1,6.26-5,9.68,9.68,0,0,1,4.7-1.15c3.54,0,7.8,1.7,8.72,4.83.56,1.9-.28,3.79-2.23,5-6.91,4.42-10.22,12-12.64,17.55-.61,1.41-1.19,2.73-1.75,3.83a6.8,6.8,0,0,0-.08,6.66l8.26,11-31.29,19.39Z" transform="translate(-163.39 -199.28)"/><path class="cls-9" d="M1244.06,962.33a5.67,5.67,0,0,1,.9.08c4,.65,12.14,12.31,16.54,14.6a2.82,2.82,0,0,0,1.32.31c4.73,0,12.72-9.46,17-11.86a7.12,7.12,0,0,1,3.47-.83c4.29,0,8.57,3.06,5.14,5.26-9.39,6-12.58,17.12-15.27,22.34a9.27,9.27,0,0,0,.1,9.24l6.67,8.87-27.44,17-8.87-7.32c-8.91-6.06-15.12-17.57-18.38-22.2-4.73-6.73-.2-11-.2-11-2.21-6.48,4.09-9.34,4.09-9.34.94-7.28,8-7.73,8-7.73-.28-2.22,2.53-7.45,6.9-7.45m0-5a11.37,11.37,0,0,0-8.53,4.08,14.61,14.61,0,0,0-2.62,4.28,13.3,13.3,0,0,0-8.22,8.7,12.25,12.25,0,0,0-5,11.37c-1.88,3.36-2.85,8.8,1.49,15,.56.8,1.26,1.89,2.07,3.16,3.77,5.85,9.44,14.67,17.38,20.16l8.7,7.17,2.77,2.29,3-1.89,27.44-17,4.65-2.88-3.29-4.37-6.52-8.68a4.4,4.4,0,0,1,.21-4.14c.6-1.17,1.19-2.53,1.82-4,2.29-5.25,5.43-12.44,11.69-16.44a6.86,6.86,0,0,0,3.29-7.85c-1.27-4.35-6.56-6.63-11.12-6.63a12.14,12.14,0,0,0-5.92,1.47,43.58,43.58,0,0,0-6.69,5.26c-2,1.8-5.65,5-7.49,5.8a62.69,62.69,0,0,1-5.52-5.48c-5-5.31-8.21-8.6-11.9-9.21a11.06,11.06,0,0,0-1.71-.14Z" transform="translate(-163.39 -199.28)"/><polygon class="cls-10" points="1083.75 830.04 1092 841.67 1129.01 822.65 1117.35 806.21 1083.75 830.04"/><circle class="cls-8" cx="1091.46" cy="830.08" r="4.39"/><path class="cls-8" d="M1126.77,1011.14a96.94,96.94,0,0,1-16.43-1.77c-1.51-.25-2.81-.48-3.84-.61-6.83-.88-9.51-5.08-10.22-8.12a9.74,9.74,0,0,1-4.54-10.38,11,11,0,0,1-.66-11.48,11.75,11.75,0,0,1-1.75-5.85,8.46,8.46,0,0,1,3.13-7.08c2.25-1.78,6.53-2,13.31-2,3.57,0,7.63-.08,9.32-.69,1.5-.55,1.64-8.56,1.69-11.57a43.31,43.31,0,0,1,.58-8c1.06-4.52,5.94-7.89,9.6-7.89a4.43,4.43,0,0,1,3.49,1.5,4.74,4.74,0,0,1,.89,4c-1.4,8.07,2,15.64,4.41,21.17.62,1.4,1.21,2.72,1.64,3.87a6.82,6.82,0,0,0,4.87,4.56l13.67,1.33-6.82,36.17-13,1.84a41.44,41.44,0,0,1-9.29,1Z" transform="translate(-163.39 -199.28)"/><path class="cls-9" d="M1127,938.21c1.34,0,2.23.77,1.92,2.6-1.91,11,4.13,20.83,6.17,26.34a9.26,9.26,0,0,0,6.87,6.17l11,1.07-6,31.73-11.39,1.6a38.71,38.71,0,0,1-8.83.92c-8,0-15.86-1.83-20-2.36-8.16-1-8.24-7.27-8.24-7.27-6.28-2.75-4.13-9.32-4.13-9.32-4.73-5.61-.28-11.14-.28-11.14-2-1.39-4-7.68-.16-10.74,3.17-2.51,17.27-.64,21.93-2.33s2.62-16.06,3.85-21.31c.8-3.4,4.73-6,7.17-6m0-5c-4.6,0-10.68,4-12,9.82a43.48,43.48,0,0,0-.65,8.48c0,2.72-.13,7.54-.78,9.45a64.32,64.32,0,0,1-7.76.36c-7.28.08-11.89.25-14.83,2.57a10.9,10.9,0,0,0-4.08,9.1,14.37,14.37,0,0,0,1.45,5.94,13.29,13.29,0,0,0,.87,11.92,12.23,12.23,0,0,0,5,11.38c1.21,3.66,4.57,8,12,9,1,.13,2.26.34,3.74.6a99.63,99.63,0,0,0,16.85,1.8,43.87,43.87,0,0,0,9.75-1l11.17-1.57,3.55-.5.66-3.53,6-31.72,1-5.38-5.44-.52-10.81-1a4.42,4.42,0,0,1-2.92-3c-.45-1.24-1-2.59-1.69-4-2.33-5.23-5.51-12.4-4.24-19.73a7.19,7.19,0,0,0-1.44-6.06,6.89,6.89,0,0,0-5.4-2.39Z" transform="translate(-163.39 -199.28)"/><polygon class="cls-10" points="981.44 812.11 995.59 813.88 1006.54 773.74 986.54 771.24 981.44 812.11"/><circle class="cls-8" cx="986.67" cy="806.45" r="4.39"/><path class="cls-9" d="M1054.41,1176.27s-48.46-37.85-35.34-84.62,51.88-72.18,51.88-72.18l.76-14.16s-17.45-15.64-20.45-26a2.35,2.35,0,0,1,3.08-2.81c20.65,7.5,77.63,26.08,142.83,29.31,79.33,3.92,137.71-2.63,156.12-5.12a1.82,1.82,0,0,1,2,2.32c-3.13,9.85-22,20.7-22,20.7l-1.52,12.55s54.69,35.44,54.69,85.49c0,41.64-28.31,54.54-28.31,54.54Z" transform="translate(-163.39 -199.28)"/><path class="cls-16" d="M1332.88,1023.69s-58,8.24-136.09,2.76c-76.89-5.4-125.54-21.14-125.54-21.14l-.77,14.16s49,14.83,124.73,19.7c76.07,4.89,136.15-2.93,136.15-2.93Z" transform="translate(-163.39 -199.28)"/></g></svg>