<svg xmlns="http://www.w3.org/2000/svg" viewBox="0 0 1771.38 1001.71"><defs><style>.cls-1{fill:#cce3ff;}.cls-18,.cls-2,.cls-43,.cls-47,.cls-48,.cls-49,.cls-55,.cls-6,.cls-8{fill:none;}.cls-2,.cls-3,.cls-6{stroke:#b6d4ff;}.cls-18,.cls-2,.cls-3,.cls-43,.cls-47,.cls-48,.cls-49,.cls-55,.cls-6,.cls-8,.cls-9{stroke-miterlimit:10;}.cls-2,.cls-3,.cls-55{stroke-width:7px;}.cls-3,.cls-46{fill:#fff;}.cls-4{fill:#dceeff;}.cls-5,.cls-9{fill:#ecf6ff;}.cls-48,.cls-6{stroke-width:9px;}.cls-7{fill:#b6d4ff;}.cls-8{stroke:#cce3ff;stroke-width:13px;}.cls-9{stroke:#dceeff;stroke-linecap:round;stroke-width:20px;}.cls-10{fill:#1e1f23;opacity:0.81;}.cls-11{fill:#240040;}.cls-12{fill:#e576c6;}.cls-13{fill:#2b2a38;}.cls-14{fill:#6ca1ff;}.cls-15{fill:#2e4aaf;}.cls-16{fill:#405fd3;}.cls-17{fill:#0d0b6d;}.cls-18{stroke:#1c295e;}.cls-18,.cls-43,.cls-49{stroke-width:3px;}.cls-19{fill:#ffc000;}.cls-20{fill:#cf3e83;}.cls-21{fill:#ededf7;}.cls-22{fill:#b0b4c1;}.cls-23{fill:#aa2d3f;}.cls-24{fill:#4c505b;}.cls-25{fill:#727b84;}.cls-26{fill:#5f646d;}.cls-27{fill:#838c93;}.cls-28{fill:#1e2126;}.cls-28,.cls-29{opacity:0.22;}.cls-29,.cls-40{fill:#b0bbcc;}.cls-30{fill:#2d2e33;}.cls-31{fill:#5f6266;}.cls-32{fill:#343742;opacity:0.59;}.cls-33{fill:#212326;}.cls-34{fill:#383d42;}.cls-35{fill:#797c82;}.cls-36{fill:#ee4037;}.cls-37{fill:#393;}.cls-38{fill:#b8bfc1;}.cls-39{fill:#92989b;}.cls-41{fill:#838c9b;}.cls-42{fill:#505760;}.cls-43{stroke:#c94791;}.cls-44{fill:#262933;}.cls-45{fill:#606a75;}.cls-47{stroke:#fff;}.cls-48{stroke:#032466;}.cls-49{stroke:#182084;}.cls-50{fill:#db8b21;}.cls-51{fill:#14143f;}.cls-52{fill:#2f2f3d;}.cls-53{fill:#18181c;}.cls-54{fill:#0042bd;}.cls-55{stroke:#0042bd;}</style></defs><title>back and obj 13</title><g id="Back"><polygon class="cls-1" points="667.6 634.54 655.02 634.54 601.15 851.33 613.73 851.33 667.6 634.54"/><line class="cls-2" x1="718.6" y1="741.92" x2="748.4" y2="636.75"/><line class="cls-2" x1="695.28" y1="636.75" x2="772.93" y2="741.63"/><line class="cls-3" x1="695.28" y1="636.75" x2="583.92" y2="740.46"/><polygon class="cls-1" points="741.83 634.42 754.24 634.42 807.33 851.33 794.93 851.33 741.83 634.42"/><line class="cls-2" x1="608.28" y1="636.75" x2="718.6" y2="740.46"/><polygon class="cls-4" points="614.46 634.54 601.88 634.54 548.01 851.33 560.59 851.33 614.46 634.54"/><polygon class="cls-4" points="688.78 634.54 701.36 634.54 755.24 851.33 742.65 851.33 688.78 634.54"/><path class="cls-4" d="M638.94,792.1v1.66A25.07,25.07,0,0,0,664,818.83H860.38c30.29,0,53.6-27.81,49.42-59L887.63,586.24c-1.92-14.38-13.75-25.08-27.73-25.08H801.7c-14,0-25.8,10.7-27.73,25.08L751.8,759.86c-.17,1.24-.29,2.48-.36,3.71l-.12,0s-4.1,28.55-42.22,28.55Z" transform="translate(-108.92 -181.72)"/><path class="cls-5" d="M849,791.11H720.63c27.45-5,30.69-27.56,30.69-27.56l.12,0c.07-1.23.19-2.47.36-3.71L774,586.24c1.93-14.38,13.76-25.08,27.73-25.08h56.2c7.67,0,14.1,1.53,19.84,6.67l20.68,164.31C902.6,763.3,879.29,791.11,849,791.11Z" transform="translate(-108.92 -181.72)"/><polygon class="cls-1" points="1511.15 634.54 1498.56 634.54 1444.69 851.33 1457.28 851.33 1511.15 634.54"/><line class="cls-2" x1="1562.14" y1="741.92" x2="1591.94" y2="636.75"/><line class="cls-2" x1="1538.82" y1="636.75" x2="1616.47" y2="741.63"/><line class="cls-3" x1="1538.82" y1="636.75" x2="1427.46" y2="740.46"/><polygon class="cls-1" points="1585.38 634.42 1597.78 634.42 1650.88 851.33 1638.47 851.33 1585.38 634.42"/><line class="cls-2" x1="1451.83" y1="636.75" x2="1562.14" y2="740.46"/><polygon class="cls-4" points="1458.01 634.54 1445.42 634.54 1391.55 851.33 1404.13 851.33 1458.01 634.54"/><polygon class="cls-4" points="1532.32 634.54 1544.91 634.54 1598.78 851.33 1586.19 851.33 1532.32 634.54"/><path class="cls-4" d="M1482.48,792.1v1.66a25.07,25.07,0,0,0,25.07,25.07h196.37c30.29,0,53.6-27.81,49.42-59l-22.17-173.62c-1.92-14.38-13.75-25.08-27.73-25.08h-58.2c-14,0-25.8,10.7-27.73,25.08l-22.17,173.62c-.17,1.24-.29,2.48-.36,3.71l-.12,0s-4.1,28.55-42.22,28.55Z" transform="translate(-108.92 -181.72)"/><path class="cls-5" d="M1692.54,791.11H1564.17c27.45-5,30.69-27.56,30.69-27.56l.12,0c.07-1.23.19-2.47.36-3.71l22.17-173.62c1.93-14.38,13.76-25.08,27.73-25.08h56.2c7.67,0,14.18,1.53,20,6.79L1742,732.14C1746.14,763.3,1722.83,791.11,1692.54,791.11Z" transform="translate(-108.92 -181.72)"/><line class="cls-6" x1="327.91" y1="417.1" x2="284.01" y2="378.33"/><path class="cls-4" d="M510.54,581.41c0,31.07-23.63,56.26-52.77,56.26S405,612.48,405,581.41" transform="translate(-108.92 -181.72)"/><polyline class="cls-2" points="487.63 328.94 510.37 324.19 550.17 399.01"/><line class="cls-6" x1="669.05" y1="415.54" x2="707.82" y2="371.64"/><rect class="cls-7" x="104.08" y="437.98" width="248.31" height="32.7"/><rect class="cls-7" x="466.85" y="450.11" width="16.15" height="401.22"/><rect class="cls-4" x="483" y="450.11" width="17.7" height="401.22"/><path class="cls-4" d="M802.74,581.41c0,31.07-23.62,56.26-52.77,56.26s-52.76-25.19-52.76-56.26" transform="translate(-108.92 -181.72)"/><rect class="cls-1" x="352.39" y="437.98" width="479.46" height="32.7"/><polygon class="cls-1" points="471.17 372.76 469.95 389.05 467.28 424.66 466.28 437.98 429.71 437.98 428.7 424.66 426.02 389.05 424.8 372.76 471.17 372.76"/><polygon class="cls-5" points="472.95 385.94 469.92 420.55 426.07 420.55 423.02 385.94 472.95 385.94"/><polygon class="cls-5" points="470.65 371.54 425.33 371.54 427.36 358.16 468.63 358.16 470.65 371.54"/><polygon class="cls-5" points="475.97 375.95 420.01 375.95 422.51 366.17 473.47 366.17 475.97 375.95"/><polygon class="cls-4" points="568 354.29 558.73 437.98 528.91 437.98 519.64 354.29 568 354.29"/><polygon class="cls-5" points="1161.77 412.69 1146.02 426.96 1135.26 406.08 1151.01 391.81 1161.77 412.69"/><polygon class="cls-5" points="1230.54 412.68 1214.79 426.95 1204.03 406.07 1219.78 391.8 1230.54 412.68"/><polygon class="cls-5" points="1168.26 423.22 1150.46 414.1 1157.34 390.51 1175.13 399.63 1168.26 423.22"/><polygon class="cls-5" points="1205.37 416.7 1186.68 421.8 1182.84 397.03 1201.53 391.93 1205.37 416.7"/><polygon class="cls-5" points="1186.7 416.7 1168.02 421.8 1164.17 397.03 1182.86 391.93 1186.7 416.7"/><polygon class="cls-5" points="1421.99 407.43 1406.24 421.7 1395.48 400.82 1411.23 386.55 1421.99 407.43"/><polygon class="cls-5" points="1490.76 407.42 1475.01 421.69 1464.25 400.81 1480 386.54 1490.76 407.42"/><polygon class="cls-5" points="1428.48 417.96 1410.68 408.85 1417.56 385.26 1435.35 394.37 1428.48 417.96"/><polygon class="cls-5" points="1465.59 411.45 1446.9 416.54 1443.06 391.77 1461.75 386.68 1465.59 411.45"/><polygon class="cls-5" points="1446.92 411.45 1428.24 416.54 1424.39 391.77 1443.08 386.68 1446.92 411.45"/><path class="cls-4" d="M1345.73,585.2c0,25.92-23.62,46.93-52.77,46.93s-52.77-21-52.77-46.93" transform="translate(-108.92 -181.72)"/><path class="cls-4" d="M1604.81,585.2c0,25.92-23.63,46.93-52.77,46.93s-52.77-21-52.77-46.93" transform="translate(-108.92 -181.72)"/><rect class="cls-7" x="947.62" y="437.98" width="248.31" height="32.7"/><rect class="cls-7" x="1310.39" y="450.11" width="16.15" height="401.22"/><rect class="cls-4" x="1326.54" y="450.11" width="17.7" height="401.22"/><rect class="cls-1" x="1195.93" y="437.98" width="479.46" height="32.7"/><polyline class="cls-2" points="1236.81 310.69 1259.85 307.66 1293.91 385.26"/><polyline class="cls-2" points="1363.13 305.56 1333.2 305.63 1309.25 387.44"/><polygon class="cls-4" points="1329.19 344.85 1317.34 437.98 1279.22 437.98 1267.37 344.85 1329.19 344.85"/><line class="cls-2" x1="161.71" y1="92.69" x2="163.86" y2="109.79"/><rect class="cls-1" x="263.39" y="287.13" width="20.92" height="25.85" transform="translate(-144.22 -145.21) rotate(-7.17)"/><circle class="cls-5" cx="169.72" cy="156.4" r="27.69"/><line class="cls-2" x1="266.53" y1="68.95" x2="272.84" y2="84.99"/><rect class="cls-1" x="374.45" y="261.8" width="20.92" height="25.85" transform="translate(-182.79 -21.65) rotate(-21.49)"/><circle class="cls-5" cx="290.04" cy="128.7" r="27.69"/><line class="cls-2" x1="714.19" y1="87.15" x2="716.34" y2="104.25"/><rect class="cls-1" x="815.87" y="281.59" width="20.92" height="25.85" transform="translate(-139.21 -76.32) rotate(-7.17)"/><circle class="cls-5" cx="722.2" cy="150.86" r="27.69"/><line class="cls-2" x1="819.01" y1="63.41" x2="825.32" y2="79.45"/><rect class="cls-1" x="926.93" y="256.26" width="20.92" height="25.85" transform="matrix(0.93, -0.37, 0.37, 0.93, -142.37, 180.32)"/><circle class="cls-5" cx="842.52" cy="123.16" r="27.69"/><line class="cls-2" x1="1239.37" y1="89.05" x2="1241.52" y2="106.14"/><rect class="cls-1" x="1341.05" y="283.49" width="20.92" height="25.85" transform="translate(-135.34 -10.78) rotate(-7.17)"/><circle class="cls-5" cx="1247.38" cy="152.75" r="27.69"/><line class="cls-2" x1="1344.19" y1="65.31" x2="1350.5" y2="81.34"/><rect class="cls-1" x="1452.11" y="258.15" width="20.92" height="25.85" transform="translate(-106.57 372.8) rotate(-21.49)"/><circle class="cls-5" cx="1367.7" cy="125.05" r="27.69"/><line class="cls-2" x1="1606.22" y1="89.33" x2="1604.07" y2="106.43"/><rect class="cls-1" x="1701.46" y="283.77" width="20.92" height="25.85" transform="translate(3264.52 622.93) rotate(-172.83)"/><circle class="cls-5" cx="1598.21" cy="153.03" r="27.69"/><line class="cls-2" x1="1501.4" y1="65.59" x2="1495.09" y2="81.62"/><rect class="cls-1" x="1590.39" y="258.43" width="20.92" height="25.85" transform="translate(2882.16 928.47) rotate(-158.51)"/><circle class="cls-5" cx="1477.89" cy="125.33" r="27.69"/><line class="cls-2" x1="1092.59" y1="94.87" x2="1090.44" y2="111.96"/><rect class="cls-1" x="1187.82" y="289.31" width="20.92" height="25.85" transform="translate(2240.58 569.88) rotate(-172.83)"/><circle class="cls-5" cx="1084.58" cy="158.57" r="27.69"/><line class="cls-2" x1="987.77" y1="71.13" x2="981.46" y2="87.16"/><rect class="cls-1" x="1076.76" y="263.97" width="20.92" height="25.85" transform="translate(1888.56 751.04) rotate(-158.51)"/><circle class="cls-5" cx="964.25" cy="130.87" r="27.69"/><line class="cls-2" x1="566.23" y1="94.87" x2="564.08" y2="111.96"/><rect class="cls-1" x="661.47" y="289.31" width="20.92" height="25.85" transform="translate(1191.98 504.21) rotate(-172.83)"/><circle class="cls-5" cx="558.22" cy="158.57" r="27.69"/><line class="cls-2" x1="461.41" y1="71.13" x2="455.1" y2="87.16"/><rect class="cls-1" x="550.41" y="263.97" width="20.92" height="25.85" transform="translate(872.43 558.25) rotate(-158.51)"/><circle class="cls-5" cx="437.9" cy="130.87" r="27.69"/><path class="cls-8" d="M212.16,275.84c127,0,233.57-35.55,263.14-91.07" transform="translate(-108.92 -181.72)"/><path class="cls-8" d="M475.3,184.77c29.58,55.52,136.19,91.07,263.16,91.07S972,240.29,1001.62,184.77" transform="translate(-108.92 -181.72)"/><path class="cls-8" d="M1001.62,184.77c29.57,55.52,136.18,91.07,263.15,91.07s233.59-35.55,263.16-91.07" transform="translate(-108.92 -181.72)"/><path class="cls-8" d="M1527.93,184.77c29.58,55.52,136.18,91.07,263.15,91.07" transform="translate(-108.92 -181.72)"/><polygon class="cls-1" points="245.84 634.54 233.26 634.54 179.39 851.33 191.97 851.33 245.84 634.54"/><line class="cls-2" x1="296.84" y1="741.92" x2="326.64" y2="636.75"/><line class="cls-2" x1="273.52" y1="636.75" x2="351.17" y2="741.63"/><line class="cls-3" x1="273.52" y1="636.75" x2="162.16" y2="740.46"/><polygon class="cls-1" points="320.07 634.42 332.48 634.42 385.57 851.33 373.17 851.33 320.07 634.42"/><line class="cls-2" x1="186.53" y1="636.75" x2="296.84" y2="740.46"/><polygon class="cls-4" points="192.7 634.54 180.12 634.54 126.25 851.33 138.83 851.33 192.7 634.54"/><polygon class="cls-4" points="267.02 634.54 279.61 634.54 333.48 851.33 320.89 851.33 267.02 634.54"/><path class="cls-4" d="M502.48,792.1v1.66a25.07,25.07,0,0,1-25.07,25.07H281c-30.29,0-53.6-27.81-49.42-59l22.17-173.62c1.92-14.38,13.75-25.08,27.73-25.08h58.2c14,0,25.8,10.7,27.73,25.08l22.17,173.62c.17,1.24.29,2.48.36,3.71l.12,0s4.1,28.55,42.22,28.55Z" transform="translate(-108.92 -181.72)"/><polygon class="cls-1" points="1089.39 634.54 1076.8 634.54 1022.93 851.33 1035.52 851.33 1089.39 634.54"/><line class="cls-2" x1="1140.38" y1="741.92" x2="1170.18" y2="636.75"/><line class="cls-2" x1="1117.06" y1="636.75" x2="1194.71" y2="741.63"/><line class="cls-3" x1="1117.06" y1="636.75" x2="1005.71" y2="740.46"/><polygon class="cls-1" points="1163.62 634.42 1176.02 634.42 1229.12 851.33 1216.71 851.33 1163.62 634.42"/><line class="cls-2" x1="1030.07" y1="636.75" x2="1140.38" y2="740.46"/><polygon class="cls-4" points="1036.25 634.54 1023.66 634.54 969.79 851.33 982.38 851.33 1036.25 634.54"/><polygon class="cls-4" points="1110.56 634.54 1123.15 634.54 1177.02 851.33 1164.43 851.33 1110.56 634.54"/><path class="cls-4" d="M1346,792.1v1.66A25.07,25.07,0,0,1,1321,818.83H1124.59c-30.29,0-53.6-27.81-49.42-59l22.17-173.62c1.92-14.38,13.75-25.08,27.73-25.08h58.2c14,0,25.8,10.7,27.73,25.08l22.17,173.62c.17,1.24.29,2.48.36,3.71l.12,0s4.1,28.55,42.22,28.55Z" transform="translate(-108.92 -181.72)"/><line class="cls-9" x1="1761.38" y1="859.33" x2="10" y2="859.33"/></g><g id="Man"><ellipse class="cls-10" cx="898.26" cy="998.09" rx="539.36" ry="3.62"/><circle class="cls-11" cx="759.33" cy="206.79" r="77.2"/><path class="cls-12" d="M927.92,542.13c-1.43,9-4.63,65.58,5.57,95.64,9.75,28.74,35,90.84,35,90.84l22-.66L959.35,621.66,942.49,513Z" transform="translate(-108.92 -181.72)"/><path class="cls-13" d="M908.47,1128l-43.71-.21-9.54-423.38L785.8,1117.33l-41.64-15.4s7.28-218.1,18.84-327.47c10.1-95.54,43.45-120.71,43.23-122.27L931.3,741.83Z" transform="translate(-108.92 -181.72)"/><circle class="cls-11" cx="709.63" cy="116.78" r="41.45"/><rect class="cls-11" x="682.14" y="212.19" width="154.39" height="107.54"/><path class="cls-14" d="M963.41,571.49l-41.44,42-7.43-58.12s16.28,15.9,12.4,28.19c-7.7,24.33-25.75,29.4-30.15,51.85-5.09,26-48.43,8.83-99.64,29,0,0,9.93-17.87,10.31-55.59.21-20.23-3.83-27.29-3.44-29.28l-13,32.77L739.8,564.64s31.94-59.88,51.92-73.1c21.86-14.46,28-27.52,60.87-27.42,31,.09,51.47-13.4,65.28-1.83C946.67,486.42,963.41,571.49,963.41,571.49Z" transform="translate(-108.92 -181.72)"/><path class="cls-12" d="M886.85,515c-21.14,0-35-10.32-41.1-30.66-3.56-11.85-6.48-19.79-6.5-19.87l-.93-2.51,2.68-.17,20-1.28c5.65-.37,12-.45,16.27-.45,2.94,0,4.88,0,4.88,0l.89,0,.59.67A138.45,138.45,0,0,1,898.24,482c5.4,9.68,6.35,19.33,2.55,25.81C898,512.44,893.09,515,886.85,515Z" transform="translate(-108.92 -181.72)"/><path class="cls-15" d="M877.26,462.09c2.92,0,4.85,0,4.85,0a138.43,138.43,0,0,1,14.38,20.79c9,16.18,4.28,30.11-9.64,30.11-14.9,0-32-5.39-39.18-29.24-3.63-12.06-6.55-20-6.55-20s12.31-.77,20-1.28c5.62-.36,11.92-.44,16.14-.44m0-4h0c-4.34,0-10.7.08-16.39.45-7.7.51-20,1.28-20,1.28l-5.35.34,1.85,5c0,.08,2.92,8,6.47,19.76,6.32,21,21.19,32.08,43,32.08,7,0,12.54-2.94,15.66-8.26,4.17-7.1,3.23-17.49-2.53-27.8a141.06,141.06,0,0,0-14.85-21.46L884,458.16l-1.78,0c-.08,0-2,0-4.92,0Z" transform="translate(-108.92 -181.72)"/><path class="cls-12" d="M850.09,426.88c4.2,6.72,2.46,15.57.06,20.73-.81,1.78-6.1,16.67-6.87,17.35-3,2.61,33.52,18.58,33.52,18.58l2.47-30.07c10.59.63,23,.09,29.85-4.44,20.35-13.49,21.62-60.38,21.29-62.73l-17-19.1s-25.7-11.91-29.62-6.87c-7.17,9.23-24,50.56-36.1,45.82,0,0,1.54-12.86-9.19-12.86-8,0-10.17,6.41-10.17,10.12C828.31,415.91,844.46,417.82,850.09,426.88Z" transform="translate(-108.92 -181.72)"/><polygon class="cls-16" points="797.18 230.38 804.81 248.97 795.92 248.78 797.18 230.38"/><ellipse class="cls-17" cx="893.41" cy="408.62" rx="6.73" ry="4.54" transform="matrix(0.05, -1, 1, 0.05, 333.74, 1099.81)"/><ellipse class="cls-17" cx="916.9" cy="408.06" rx="6.73" ry="4.54" transform="translate(356.67 1122.75) rotate(-87.27)"/><path class="cls-11" d="M904.57,361.92A30.55,30.55,0,0,0,907,373.83c.21.46.41.94.66,1.41a34.18,34.18,0,0,0,6,8.58,42.37,42.37,0,0,0,27.15,12.6c.56.05,1.11.09,1.67.11V383.82h0c0-.39,0-.78,0-1.18,0-15.68-6.31-30.09-16.89-41.45a70.82,70.82,0,0,0-6.34-6,35.65,35.65,0,0,0-11.71,13.72A30.31,30.31,0,0,0,904.57,361.92Z" transform="translate(-108.92 -181.72)"/><path class="cls-11" d="M847.67,366c0,11.15,10.09,20.56,23.88,23.44,1.1.24,2.21.42,3.35.57a43.3,43.3,0,0,0,5.63.36c18.15,0,32.86-10.91,32.86-24.37a17.69,17.69,0,0,0-.4-3.8c-2.46-11.66-16-20.58-32.46-20.58-18,0-32.57,10.71-32.85,24C847.67,365.73,847.67,365.86,847.67,366Z" transform="translate(-108.92 -181.72)"/><path class="cls-18" d="M905,437.39s-5.8,1.86-11.59-4.6" transform="translate(-108.92 -181.72)"/><path class="cls-19" d="M828,487.18c18.46,22.15,17.65,59.08,17.65,59.08,0,32.78-28.77,87.79-28.77,87.79-7,.41-13.91-3.69-13.91-3.69l-1.23,12.31c4.51,4.51,15.14,4.3,15.14,4.3L792.22,899.9C921,912.21,940.49,882.67,940.49,882.67c6.25-182.16-23.08-248.19-23.08-248.19l28.31-91.85s-37.66-66.77-47-81.21c-3.74-5.79-12.42-2.3-12.42-2.3s4.54.88,7.58,6.38c6.61,12,33.8,66,33.8,66l-66.39,9.34s-17.22-54.05-30.76-66.76Z" transform="translate(-108.92 -181.72)"/><path class="cls-20" d="M879.27,453.47s-13.39.38-19.09-2.75l18.36,11.57Z" transform="translate(-108.92 -181.72)"/><path class="cls-12" d="M733.42,665l77.71,30.33,9.19-20.9-61.89-36.3,22.72-34.62-31.66-29.78-28.9,61.08C716.66,644.32,720.57,656.72,733.42,665Z" transform="translate(-108.92 -181.72)"/><path class="cls-11" d="M791.06,435h31.58a30,30,0,0,1,30,30v55.18a0,0,0,0,1,0,0H791.06a0,0,0,0,1,0,0V435A0,0,0,0,1,791.06,435Z" transform="translate(1534.73 773.45) rotate(-180)"/><polygon class="cls-16" points="694.7 399.34 704.44 384.72 699.03 417.25 694.7 399.34"/><polygon class="cls-20" points="769.13 475.83 767.2 493.88 762.96 533.34 761.37 548.09 720.75 546.79 720.11 531.96 718.4 492.31 717.63 474.17 769.13 475.83"/><polygon class="cls-16" points="770.64 490.54 766.04 528.87 717.33 527.3 715.18 488.75 770.64 490.54"/><polygon class="cls-21" points="768.6 474.46 718.26 472.84 720.98 458.05 766.83 459.52 768.6 474.46"/><polygon class="cls-21" points="774.35 479.54 712.19 477.55 715.32 466.77 771.92 468.59 774.35 479.54"/><polygon class="cls-22" points="728.36 467.19 719.35 466.9 767.89 468.46 767.41 464.45 728.36 467.19"/><polygon class="cls-23" points="717.88 477.73 717.98 479.94 768.13 484.2 768.65 479.36 717.88 477.73"/><polygon class="cls-12" points="702.21 513.57 721.44 519.41 722.78 487.68 709.68 491.66 702.21 513.57"/><path class="cls-12" d="M975.62,714.6s47.62,4.17,58.58,14H968.44Z" transform="translate(-108.92 -181.72)"/><path class="cls-12" d="M830.36,701.12s15.09.61,22.29,0,5.07-4.69,5.07-4.69,5.51-1.54,4.82-4.88c-.52-2.51-4.57-2.8-6.28-3.26,9.27,2.51,11.47-1.47,9.86-3.59-1.46-1.9-28.39-6.76-28.39-6.76l8.42-1.09s15.43,2.27,17.16,1.89c.87-.2,3-1.92,1.43-3.28-5.59-4.74-27.45-6.75-33-6.09-2,.23-4.66,1.87-7.44,3.93-.25.17-.5.35-.74.54-5,3.75-10,8.52-11.26,8.62" transform="translate(-108.92 -181.72)"/><rect class="cls-24" x="382.08" y="546.9" width="226.43" height="48.81"/><rect class="cls-25" x="608.51" y="546.9" width="833.26" height="48.81"/><rect class="cls-26" x="484.33" y="595.7" width="183.28" height="91.27"/><rect class="cls-27" x="667.61" y="595.7" width="674.47" height="91.27"/><rect class="cls-26" x="484.33" y="686.97" width="183.28" height="91.27"/><rect class="cls-27" x="667.61" y="686.97" width="674.47" height="91.27"/><rect class="cls-26" x="484.33" y="778.24" width="183.28" height="91.27"/><rect class="cls-27" x="667.61" y="778.24" width="674.47" height="91.27"/><rect class="cls-28" x="484.33" y="778.24" width="857.75" height="91.27"/><rect class="cls-28" x="484.33" y="595.7" width="857.75" height="91.27"/><rect class="cls-29" x="484.33" y="686.97" width="857.75" height="91.27"/><rect class="cls-26" x="484.33" y="869.5" width="183.28" height="91.27"/><rect class="cls-27" x="667.61" y="869.5" width="674.47" height="91.27"/><rect class="cls-30" x="506.33" y="960.77" width="173.71" height="37.4"/><rect class="cls-31" x="680.05" y="960.77" width="639.26" height="37.4"/><rect class="cls-32" x="484.33" y="595.7" width="857.75" height="29.35"/><rect class="cls-33" x="905.24" y="444.46" width="22.97" height="102.44"/><rect class="cls-33" x="1028.73" y="590.99" width="22.97" height="51.26" transform="translate(631.77 -736.66) rotate(45)"/><path class="cls-34" d="M1102.41,651.84h-38.67a9.12,9.12,0,0,1-8.68-6.31L1022.19,543.9a9.12,9.12,0,0,1,8.68-11.93h38.91a9.09,9.09,0,0,1,8.43,6.31l17.15,53,15.73,48.62A9.13,9.13,0,0,1,1102.41,651.84Z" transform="translate(-108.92 -181.72)"/><path class="cls-35" d="M1109.89,651.85h-29.48a9.1,9.1,0,0,1-8.43-6.31L1052.39,585l-13.29-41.08a9.13,9.13,0,0,1,8.68-11.93H1077a9.12,9.12,0,0,1,7.94,4.62,8.28,8.28,0,0,1,.75,1.69l6.06,18.74,8.91,27.56,17.9,55.33A9.12,9.12,0,0,1,1109.89,651.85Z" transform="translate(-108.92 -181.72)"/><path class="cls-34" d="M1095.36,591.29a7.69,7.69,0,0,1-3,.62h-26.65a16.15,16.15,0,0,1-15.39-11.2L1034.51,532H1077a9.12,9.12,0,0,1,7.94,4.62l14.64,45.31A7.66,7.66,0,0,1,1095.36,591.29Z" transform="translate(-108.92 -181.72)"/><path class="cls-36" d="M1090,646.67h-10.4c-4.18-.56-5.74-8.16-5.74-8.16h13.5Z" transform="translate(-108.92 -181.72)"/><polygon class="cls-19" points="995.95 464.95 981.08 464.95 978.44 456.79 993.31 456.79 995.95 464.95"/><path class="cls-37" d="M1113.51,646.67h-8.64l-2.64-8.16h12.27l.46,1.41C1115.72,642.28,1115.22,645.83,1113.51,646.67Z" transform="translate(-108.92 -181.72)"/><polygon class="cls-38" points="1004.72 454.13 964.08 454.13 961.44 445.97 1002.08 445.97 1004.72 454.13"/><polygon class="cls-38" points="1001.22 443.3 960.57 443.3 957.93 435.14 998.58 435.14 1001.22 443.3"/><polygon class="cls-38" points="997.72 432.47 957.07 432.47 954.43 424.31 995.08 424.31 997.72 432.47"/><polygon class="cls-38" points="994.22 421.64 953.56 421.64 950.93 413.49 991.58 413.49 994.22 421.64"/><polygon class="cls-39" points="982.5 393.49 947.4 393.49 938.51 365.93 973.59 365.93 982.5 393.49"/><polygon class="cls-40" points="448.93 546.84 450.15 530.55 452.82 494.94 453.82 481.63 490.39 481.63 491.39 494.94 494.07 530.55 495.3 546.84 448.93 546.84"/><polygon class="cls-40" points="513.79 546.84 515.02 530.55 517.68 494.94 518.69 481.63 555.26 481.63 556.26 494.94 558.94 530.55 560.16 546.84 513.79 546.84"/><polygon class="cls-40" points="513.79 499.86 515.02 483.57 517.68 447.96 518.69 434.65 555.26 434.65 556.26 447.96 558.94 483.57 560.16 499.86 513.79 499.86"/><polygon class="cls-41" points="480.87 546.84 482.09 530.55 484.76 494.94 485.77 481.63 522.34 481.63 523.34 494.94 526.02 530.55 527.24 546.84 480.87 546.84"/><polygon class="cls-41" points="480.87 499.86 482.09 483.57 484.76 447.96 485.77 434.65 522.34 434.65 523.34 447.96 526.02 483.57 527.24 499.86 480.87 499.86"/><polygon class="cls-41" points="480.87 452.88 482.09 436.59 484.76 400.99 485.77 387.67 522.34 387.67 523.34 400.99 526.02 436.59 527.24 452.88 480.87 452.88"/><polygon class="cls-42" points="484.39 452.88 523.71 452.88 524.28 460.43 484.39 452.88"/><polygon class="cls-41" points="517.04 499.89 556.63 499.86 557.21 507.5 517.04 499.89"/><polygon class="cls-42" points="484.39 499.89 523.71 499.89 524.28 507.44 484.39 499.89"/><path class="cls-12" d="M1402.36,533.31c2.65,9.07,12.12,67.71,2.61,103-9.1,33.74-33.54,106.19-33.54,106.19l-27.27,8.78,27.61-123.07,9.92-120.62Z" transform="translate(-108.92 -181.72)"/><path class="cls-17" d="M1252.85,343.68s-32.19,38.49,9.94,50" transform="translate(-108.92 -181.72)"/><polygon class="cls-16" points="1146.89 218.44 1136.82 238.89 1147.44 239.62 1146.89 218.44"/><path class="cls-12" d="M1353.29,396.82c3.31-8.75-.14,39.13-.14,39.13l3.16,42.58L1309,490.14l.62-44.51s-44.77,2.21-54-2.71c0,0-6-42.28,1.43-72l37.48-31,59.1,5.73Z" transform="translate(-108.92 -181.72)"/><path class="cls-43" d="M1313.84,424.89s23.88-3.46,33.51-18.72" transform="translate(-108.92 -181.72)"/><path class="cls-17" d="M1357.23,424.58c13.93,1.32,37.39-47,18.09-76.11-26.06-39.23-59.4-24-59.4-24s-7.57-34.32-30.87-34.82c-33.2-.71-39.55,48.69-39.55,48.69s-7.62-27.15-17.23-23.55-15.18,83.19,60.29,54.3c0,0-3.47,24.55,14.36,25.44,7.69.38,11.3-9.88,11.3-9.88s16.13,16.58,27.86,24.63C1342.08,409.24,1350.79,424,1357.23,424.58Z" transform="translate(-108.92 -181.72)"/><path class="cls-44" d="M1119.21,596.11h-30.54a4.54,4.54,0,0,1-4.31-3.12l-26-79.34a4.52,4.52,0,0,1,4.3-5.94h30.55a4.52,4.52,0,0,1,4.3,3.11l26,79.35A4.53,4.53,0,0,1,1119.21,596.11Z" transform="translate(-108.92 -181.72)"/><path class="cls-45" d="M1127.6,596.11h-30.54a4.54,4.54,0,0,1-4.31-3.12l-26-79.34a4.53,4.53,0,0,1,4.31-5.94h30.54a4.54,4.54,0,0,1,4.31,3.12l1,3.19,25,76.14A4.54,4.54,0,0,1,1127.6,596.11Z" transform="translate(-108.92 -181.72)"/><path class="cls-46" d="M1122.27,592.45h-21.54a4.52,4.52,0,0,1-4.31-3.12l-24.19-73.75a3.21,3.21,0,0,1,3-4.22h23.36a4.54,4.54,0,0,1,4.31,3.12l23.62,72A4.53,4.53,0,0,1,1122.27,592.45Z" transform="translate(-108.92 -181.72)"/><path class="cls-14" d="M1125.44,592.29h-25.17l-14-42.6a3.67,3.67,0,0,1,3.49-4.81h17.45a3.66,3.66,0,0,1,3.48,2.53Z" transform="translate(-108.92 -181.72)"/><polyline class="cls-47" points="981.65 348.17 985.31 351.63 985.64 341.02"/><ellipse class="cls-14" cx="1092.57" cy="527.44" rx="6.92" ry="10.13" transform="translate(-204.93 102.47) rotate(-14.2)"/><polyline class="cls-47" points="980.27 347.54 983.99 350.25 986.15 340.48"/><polyline class="cls-48" points="1256.1 128.47 1248.07 153.26 1255.42 156.96 1271.83 141.61"/><polygon class="cls-20" points="1200.66 263.92 1221.37 261.86 1200.48 276.92 1200.66 263.92"/><path class="cls-49" d="M1257.17,428.63s5.38,0,6.67-4.14" transform="translate(-108.92 -181.72)"/><ellipse class="cls-17" cx="1258.56" cy="400.09" rx="6.13" ry="3.66" transform="matrix(0.04, -1, 1, 0.04, 700.63, 1460.33)"/><path class="cls-12" d="M1185.71,627.73l-80.87-26.82,4.86-24.58,76.53,9.23,50-76.41L1276,535l-52.09,82.88C1216.4,628.48,1206.78,632,1185.71,627.73Z" transform="translate(-108.92 -181.72)"/><path class="cls-19" d="M1393.05,671.49l-137.12-10,9.77-94.93L1256.31,580l-50.57-40.18c24.36-45.6,42.85-61.17,63.14-68.86,31.47-11.92,43.5-12.49,73.81-8,25.81,3.83,45.08,12.56,54.64,41.33,8.94,26.91,4.8,69.08,1.67,103.67C1395.29,649,1393.05,671.49,1393.05,671.49Z" transform="translate(-108.92 -181.72)"/><path class="cls-12" d="M1360.83,466.2c3.92,1.72,5.68,4.41-12,2.75-22.28-2.08-39.6-2.92-43.3-8.05C1331.1,459.29,1338.59,461.34,1360.83,466.2Z" transform="translate(-108.92 -181.72)"/><path class="cls-12" d="M1126.2,589.86l-8.76-22.74A97.74,97.74,0,0,0,1111,558c-3.69-4.67-5.65-6.27-9.12-15.93-2.41-6.72-7.18-.88-7.37,3.8s10.29,18.26,5.25,20.07-18.33.26-27-10.5c-1.17-1.45-9.25.37-5.91,18,1.65,8.67,9.83,20.63,15.73,22.43,0,0,16.66,2.7,23.46,4.67S1114.55,592.77,1126.2,589.86Z" transform="translate(-108.92 -181.72)"/><polygon class="cls-50" points="1156.78 384.89 1169.85 361.57 1151.03 440.73 1156.78 384.89"/><path class="cls-12" d="M1347.43,404.06c-7.77,16.69-38.42,20.31-38.42,20.31l1.12-8.55,4.09-31.21c3.49-8.59,29.84-15.17,34.44,6.48A20.07,20.07,0,0,1,1347.43,404.06Z" transform="translate(-108.92 -181.72)"/><path class="cls-43" d="M1318.25,409.94s7-.47,6.08-6.27c-.87-5.61-6.5-6-6.5-6s2.09-14.31,15.57-11.67" transform="translate(-108.92 -181.72)"/><path class="cls-51" d="M1235.8,1122.35,1236,1148s-60.66,9.48-80.78,31.42l119.4.57-4.77-74.27Z" transform="translate(-108.92 -181.72)"/><path class="cls-51" d="M1371.37,1121l.23,28.86s-27.22,3.1-37.45,30H1413l-3.82-31.47-3.07-28.87Z" transform="translate(-108.92 -181.72)"/><polygon class="cls-20" points="1160.94 930.78 1163.58 964.83 1127.11 966.33 1126.88 940.63 1160.94 930.78"/><polygon class="cls-20" points="1296.24 929.32 1299.97 966.54 1262.41 968.03 1262.19 939.18 1296.24 929.32"/><path class="cls-52" d="M1256.76,658.73l-42.71,209a110.07,110.07,0,0,0-2.2,25l6.3,242.89,66.91,1,3.35-235.67,70.51-243.77Z" transform="translate(-108.92 -181.72)"/><path class="cls-52" d="M1309.88,658.55l14.84,242.24c.09,1.44.23,2.87.43,4.3l32.4,231.47,61.22.16L1399.9,897.09,1394.56,656Z" transform="translate(-108.92 -181.72)"/><polygon class="cls-53" points="1209.46 615.57 1228.26 543.95 1214.64 700.17 1209.46 615.57"/><path class="cls-54" d="M1308.08,625s-36.77-16.56-45-54.63l2.65-3.79s20.53,46,50.84,47.09" transform="translate(-108.92 -181.72)"/><polygon class="cls-14" points="1297.34 362.44 1256.51 375.9 1244.58 338.98 1289.42 325.52 1297.34 362.44"/><rect class="cls-55" x="1232.75" y="261.86" width="51.77" height="157.61" rx="12"/><rect class="cls-14" x="1195.1" y="280.49" width="133.14" height="175.95" rx="19.08"/><rect class="cls-55" x="1254.96" y="360.69" width="51.77" height="61.36" rx="12"/><path class="cls-54" d="M1326.08,507.38c0,.7-10,1.4-10,2.1-4-23.29-7.11-41.1-33.75-41.1a57.79,57.79,0,0,0-10,.86,38.16,38.16,0,0,1,21.77-6.86C1316.71,462.38,1326.08,482.53,1326.08,507.38Z" transform="translate(-108.92 -181.72)"/><rect class="cls-54" x="1195.1" y="280.49" width="38.16" height="175.95" rx="19.08"/><circle class="cls-46" cx="1280.85" cy="322.3" r="16.93"/></g></svg>