<svg xmlns="http://www.w3.org/2000/svg" viewBox="0 0 1771.38 968.95"><defs><style>.cls-1,.cls-8{fill:#ecf6ff;}.cls-2{fill:#cce3ff;}.cls-3{fill:#e9f6ff;}.cls-4{fill:#b6d4ff;}.cls-5{fill:#dceeff;}.cls-6{fill:#c0ddff;}.cls-7{fill:#bbd7ff;}.cls-8{stroke:#dceeff;stroke-width:20px;}.cls-36,.cls-8{stroke-linecap:round;}.cls-18,.cls-23,.cls-36,.cls-38,.cls-8{stroke-miterlimit:10;}.cls-9{fill:#afb3c6;}.cls-10{fill:#989ba5;opacity:0.36;}.cls-11{fill:#2e2f33;}.cls-12{fill:#232428;}.cls-13{fill:#0f0f11;}.cls-14{fill:#42444c;}.cls-15{fill:#b5b9c6;}.cls-16{fill:#21262a;}.cls-17{fill:#e8e8ea;}.cls-18,.cls-23,.cls-36,.cls-38{fill:none;}.cls-18,.cls-23,.cls-38{stroke:#838487;}.cls-18{stroke-width:3px;}.cls-19{fill:#bdbdc6;}.cls-20{fill:#4c4e56;}.cls-21,.cls-29{fill:#fff;}.cls-22{fill:#c0f5f9;}.cls-23{stroke-width:5px;}.cls-24{fill:#1d1e22;}.cls-24,.cls-25,.cls-29,.cls-30{fill-rule:evenodd;}.cls-25{fill:#34363a;}.cls-26{fill:#727272;}.cls-27{fill:#e576c6;}.cls-28{fill:#cf3e83;}.cls-30{fill:#25252b;}.cls-31{fill:#d3dbe0;}.cls-32{fill:#240040;}.cls-33{fill:#6ca1ff;}.cls-34{fill:#405fd3;}.cls-35{fill:#0d0b6d;}.cls-36{stroke:#c14999;stroke-width:2px;}.cls-37{fill:#c8c9d3;}.cls-38{stroke-width:6px;}</style></defs><title>back and obj 11</title><g id="Back"><rect class="cls-1" x="112.13" y="742.3" width="209.83" height="15.86"/><polygon class="cls-2" points="247.45 123.25 221.51 242.93 193.58 242.93 167.62 123.25 247.45 123.25"/><polygon class="cls-3" points="256.97 123.25 231.02 242.93 203.09 242.93 177.13 123.25 256.97 123.25"/><path class="cls-2" d="M428.43,531.74V900.87H410V534.23a94.26,94.26,0,0,0-188.52,0V900.87H203V531.74a112.72,112.72,0,0,1,225.44,0Z" transform="translate(-108.92 -196.31)"/><path class="cls-2" d="M420.23,533.28V899.92H231.71V533.28a94.26,94.26,0,1,1,188.52,0Z" transform="translate(-108.92 -196.31)"/><path class="cls-4" d="M200.87,242.7h0A94.26,94.26,0,0,1,295.13,337V703.61a0,0,0,0,1,0,0H106.61a0,0,0,0,1,0,0V337A94.26,94.26,0,0,1,200.87,242.7Z"/><path class="cls-3" d="M438.69,530.79V899.92H420.23V533.28a94.26,94.26,0,1,0-188.52,0V899.92H213.25V530.79a112.72,112.72,0,0,1,225.44,0Z" transform="translate(-108.92 -196.31)"/><rect class="cls-5" x="122.79" y="365.98" width="179.46" height="18.83"/><path class="cls-3" d="M288.67,841.24c3.8,25.72-9.11,47.65-9.11,47.65s-19.07-19.76-22.87-45.47,9.11-47.65,9.11-47.65S284.88,815.53,288.67,841.24Z" transform="translate(-108.92 -196.31)"/><path class="cls-3" d="M283.12,858c17,23.13,16.37,46.74,16.37,46.74s-28.16-13.89-45.15-37S238,821,238,821,266.13,834.91,283.12,858Z" transform="translate(-108.92 -196.31)"/><path class="cls-3" d="M304.45,844c-4.52,25.66-24.14,45.17-24.14,45.17s-12.3-22.09-7.79-47.75,24.14-45.17,24.14-45.17S309,818.38,304.45,844Z" transform="translate(-108.92 -196.31)"/><path class="cls-3" d="M318.59,862.63c-14.21,24-40.65,39.35-40.65,39.35s-3.39-23.51,10.83-47.48,40.65-39.35,40.65-39.35S332.81,838.65,318.59,862.63Z" transform="translate(-108.92 -196.31)"/><path class="cls-3" d="M368.14,841.77c4,23.16-9.62,42.92-9.62,42.92s-20.13-17.8-24.14-41S344,800.81,344,800.81,364.13,818.61,368.14,841.77Z" transform="translate(-108.92 -196.31)"/><path class="cls-3" d="M363.37,861.73c17.93,20.84,17.28,42.1,17.28,42.1S350.93,891.32,333,870.49s-17.28-42.11-17.28-42.11S345.44,840.9,363.37,861.73Z" transform="translate(-108.92 -196.31)"/><path class="cls-3" d="M386,842.07c-4.76,23.11-25.47,40.69-25.47,40.69s-13-19.9-8.22-43,25.47-40.68,25.47-40.68S390.76,819,386,842.07Z" transform="translate(-108.92 -196.31)"/><path class="cls-3" d="M400.93,858.81c-15,21.6-42.91,35.44-42.91,35.44s-3.57-21.17,11.43-42.76,42.91-35.44,42.91-35.44S415.94,837.22,400.93,858.81Z" transform="translate(-108.92 -196.31)"/><rect class="cls-4" x="122.79" y="657.26" width="197.91" height="45.99"/><rect class="cls-6" x="122.79" y="657.26" width="22.24" height="45.99"/><rect class="cls-1" x="104.33" y="703.25" width="225.44" height="39.05"/><rect class="cls-2" x="94.07" y="703.25" width="10.26" height="39.05"/><rect class="cls-2" x="101.88" y="742.3" width="10.26" height="15.86"/><rect class="cls-5" x="104.33" y="742.3" width="217.64" height="5.32"/><rect class="cls-5" x="122.79" y="703.25" width="188.52" height="6.7"/><rect class="cls-1" x="412.23" y="742.3" width="209.83" height="15.86"/><polygon class="cls-2" points="547.55 123.25 521.6 242.93 493.67 242.93 467.71 123.25 547.55 123.25"/><polygon class="cls-3" points="557.06 123.25 531.12 242.93 503.19 242.93 477.23 123.25 557.06 123.25"/><path class="cls-2" d="M728.53,531.74V900.87H710.07V534.23a94.26,94.26,0,0,0-188.52,0V900.87H503.09V531.74a112.72,112.72,0,0,1,225.44,0Z" transform="translate(-108.92 -196.31)"/><path class="cls-2" d="M720.33,533.28V899.92H531.8V533.28a94.27,94.27,0,1,1,188.53,0Z" transform="translate(-108.92 -196.31)"/><path class="cls-4" d="M501,242.7h0A94.26,94.26,0,0,1,595.23,337V703.61a0,0,0,0,1,0,0H406.71a0,0,0,0,1,0,0V337A94.26,94.26,0,0,1,501,242.7Z"/><path class="cls-3" d="M738.79,530.79V899.92H720.33V533.28a94.27,94.27,0,1,0-188.53,0V899.92H513.34V530.79a112.73,112.73,0,0,1,225.45,0Z" transform="translate(-108.92 -196.31)"/><rect class="cls-5" x="422.89" y="365.98" width="179.46" height="18.83"/><path class="cls-3" d="M588.77,841.24c3.8,25.72-9.11,47.65-9.11,47.65s-19.08-19.76-22.88-45.47,9.12-47.65,9.12-47.65S585,815.53,588.77,841.24Z" transform="translate(-108.92 -196.31)"/><path class="cls-3" d="M583.21,858c17,23.13,16.38,46.74,16.38,46.74s-28.16-13.89-45.15-37S538.06,821,538.06,821,566.22,834.91,583.21,858Z" transform="translate(-108.92 -196.31)"/><path class="cls-3" d="M604.54,844c-4.51,25.66-24.13,45.17-24.13,45.17s-12.3-22.09-7.79-47.75,24.13-45.17,24.13-45.17S609.05,818.38,604.54,844Z" transform="translate(-108.92 -196.31)"/><path class="cls-3" d="M618.69,862.63C604.47,886.61,578,902,578,902s-3.38-23.51,10.83-47.48,40.66-39.35,40.66-39.35S632.91,838.65,618.69,862.63Z" transform="translate(-108.92 -196.31)"/><path class="cls-3" d="M668.24,841.77c4,23.16-9.62,42.92-9.62,42.92s-20.13-17.8-24.14-41,9.62-42.92,9.62-42.92S664.23,818.61,668.24,841.77Z" transform="translate(-108.92 -196.31)"/><path class="cls-3" d="M663.46,861.73c17.93,20.84,17.28,42.1,17.28,42.1S651,891.32,633.09,870.49s-17.28-42.11-17.28-42.11S645.53,840.9,663.46,861.73Z" transform="translate(-108.92 -196.31)"/><path class="cls-3" d="M686.1,842.07c-4.77,23.11-25.47,40.69-25.47,40.69s-13-19.9-8.22-43,25.46-40.68,25.46-40.68S690.86,819,686.1,842.07Z" transform="translate(-108.92 -196.31)"/><path class="cls-3" d="M701,858.81c-15,21.6-42.91,35.44-42.91,35.44s-3.58-21.17,11.43-42.76,42.91-35.44,42.91-35.44S716,837.22,701,858.81Z" transform="translate(-108.92 -196.31)"/><rect class="cls-4" x="422.88" y="657.26" width="197.91" height="45.99"/><rect class="cls-6" x="422.88" y="657.26" width="22.24" height="45.99"/><rect class="cls-1" x="404.42" y="703.25" width="225.44" height="39.05"/><rect class="cls-2" x="394.17" y="703.25" width="10.26" height="39.05"/><rect class="cls-2" x="401.97" y="742.3" width="10.26" height="15.86"/><rect class="cls-5" x="404.42" y="742.3" width="217.64" height="5.32"/><rect class="cls-5" x="422.88" y="703.25" width="188.52" height="6.7"/><rect class="cls-1" x="1184.95" y="742.29" width="209.9" height="15.86"/><polygon class="cls-2" points="1320.31 123.04 1294.36 242.76 1266.42 242.76 1240.45 123.04 1320.31 123.04"/><polygon class="cls-3" points="1329.83 123.04 1303.88 242.76 1275.94 242.76 1249.97 123.04 1329.83 123.04"/><path class="cls-2" d="M1501.32,531.61V900.85h-18.47V534.09a94.29,94.29,0,1,0-188.58,0V900.85H1275.8V531.61a112.76,112.76,0,0,1,225.52,0Z" transform="translate(-108.92 -196.31)"/><path class="cls-2" d="M1493.11,533.14V899.9H1304.53V533.14a94.29,94.29,0,0,1,188.58,0Z" transform="translate(-108.92 -196.31)"/><path class="cls-4" d="M1273.37,242.54h.7A93.94,93.94,0,0,1,1368,336.48V703.6a0,0,0,0,1,0,0H1179.43a0,0,0,0,1,0,0V336.48A93.94,93.94,0,0,1,1273.37,242.54Z"/><path class="cls-3" d="M1511.58,530.65V899.9h-18.47V533.14a94.29,94.29,0,0,0-188.58,0V899.9h-18.47V530.65a112.76,112.76,0,0,1,225.52,0Z" transform="translate(-108.92 -196.31)"/><rect class="cls-5" x="1195.61" y="365.86" width="179.52" height="18.83"/><path class="cls-3" d="M1361.51,841.21c3.8,25.72-9.12,47.66-9.12,47.66s-19.07-19.77-22.87-45.49,9.11-47.66,9.11-47.66S1357.71,815.49,1361.51,841.21Z" transform="translate(-108.92 -196.31)"/><path class="cls-3" d="M1356,858c17,23.14,16.38,46.76,16.38,46.76s-28.17-13.9-45.16-37S1310.79,821,1310.79,821,1339,834.87,1356,858Z" transform="translate(-108.92 -196.31)"/><path class="cls-3" d="M1377.29,844c-4.52,25.66-24.14,45.18-24.14,45.18s-12.31-22.1-7.79-47.77,24.14-45.18,24.14-45.18S1381.8,818.34,1377.29,844Z" transform="translate(-108.92 -196.31)"/><path class="cls-3" d="M1391.44,862.6c-14.22,24-40.67,39.36-40.67,39.36s-3.39-23.51,10.84-47.5,40.67-39.35,40.67-39.35S1405.66,838.62,1391.44,862.6Z" transform="translate(-108.92 -196.31)"/><path class="cls-3" d="M1441,841.73c4,23.17-9.62,42.93-9.62,42.93s-20.14-17.8-24.15-41,9.63-42.93,9.63-42.93S1437,818.57,1441,841.73Z" transform="translate(-108.92 -196.31)"/><path class="cls-3" d="M1436.23,861.7c17.93,20.84,17.28,42.12,17.28,42.12s-29.73-12.52-47.66-33.36-17.29-42.12-17.29-42.12S1418.29,840.86,1436.23,861.7Z" transform="translate(-108.92 -196.31)"/><path class="cls-3" d="M1458.87,842c-4.77,23.12-25.48,40.7-25.48,40.7s-13-19.9-8.22-43,25.47-40.7,25.47-40.7S1463.63,818.91,1458.87,842Z" transform="translate(-108.92 -196.31)"/><path class="cls-3" d="M1473.8,858.78c-15,21.6-42.92,35.45-42.92,35.45s-3.57-21.17,11.44-42.78S1485.24,816,1485.24,816,1488.81,837.18,1473.8,858.78Z" transform="translate(-108.92 -196.31)"/><rect class="cls-4" x="1195.61" y="657.23" width="197.97" height="46"/><rect class="cls-6" x="1195.61" y="657.23" width="22.25" height="46"/><rect class="cls-1" x="1177.14" y="703.23" width="225.52" height="39.06"/><rect class="cls-2" x="1166.88" y="703.23" width="10.26" height="39.06"/><rect class="cls-2" x="1174.69" y="742.29" width="10.26" height="15.86"/><rect class="cls-5" x="1177.14" y="742.29" width="217.71" height="5.32"/><rect class="cls-5" x="1195.61" y="703.23" width="188.58" height="6.71"/><rect class="cls-1" x="1485.14" y="742.29" width="209.9" height="15.86"/><polygon class="cls-2" points="1620.51 123.04 1594.55 242.76 1566.61 242.76 1540.64 123.04 1620.51 123.04"/><polygon class="cls-3" points="1630.02 123.04 1604.07 242.76 1576.13 242.76 1550.16 123.04 1630.02 123.04"/><path class="cls-2" d="M1801.51,531.61V900.85H1783V534.09a94.29,94.29,0,0,0-188.58,0V900.85H1576V531.61a112.76,112.76,0,1,1,225.51,0Z" transform="translate(-108.92 -196.31)"/><path class="cls-2" d="M1793.3,533.14V899.9H1604.72V533.14a94.29,94.29,0,0,1,188.58,0Z" transform="translate(-108.92 -196.31)"/><path class="cls-4" d="M1573.56,242.54h.7a93.94,93.94,0,0,1,93.94,93.94V703.6a0,0,0,0,1,0,0H1479.62a0,0,0,0,1,0,0V336.48A93.94,93.94,0,0,1,1573.56,242.54Z"/><path class="cls-3" d="M1811.77,530.65V899.9H1793.3V533.14a94.29,94.29,0,0,0-188.58,0V899.9h-18.47V530.65a112.76,112.76,0,0,1,225.52,0Z" transform="translate(-108.92 -196.31)"/><rect class="cls-5" x="1495.8" y="365.86" width="179.52" height="18.83"/><path class="cls-3" d="M1661.71,841.21c3.8,25.72-9.12,47.66-9.12,47.66s-19.08-19.77-22.88-45.49,9.12-47.66,9.12-47.66S1657.91,815.49,1661.71,841.21Z" transform="translate(-108.92 -196.31)"/><path class="cls-3" d="M1656.15,858c17,23.14,16.38,46.76,16.38,46.76s-28.17-13.9-45.17-37S1611,821,1611,821,1639.15,834.87,1656.15,858Z" transform="translate(-108.92 -196.31)"/><path class="cls-3" d="M1677.48,844c-4.51,25.66-24.14,45.18-24.14,45.18s-12.3-22.1-7.79-47.77,24.14-45.18,24.14-45.18S1682,818.34,1677.48,844Z" transform="translate(-108.92 -196.31)"/><path class="cls-3" d="M1691.64,862.6C1677.41,886.58,1651,902,1651,902s-3.39-23.51,10.83-47.5,40.67-39.35,40.67-39.35S1705.86,838.62,1691.64,862.6Z" transform="translate(-108.92 -196.31)"/><path class="cls-3" d="M1741.2,841.73c4,23.17-9.63,42.93-9.63,42.93s-20.13-17.8-24.14-41,9.62-42.93,9.62-42.93S1737.19,818.57,1741.2,841.73Z" transform="translate(-108.92 -196.31)"/><path class="cls-3" d="M1736.42,861.7c17.94,20.84,17.29,42.12,17.29,42.12S1724,891.3,1706,870.46s-17.28-42.12-17.28-42.12S1718.49,840.86,1736.42,861.7Z" transform="translate(-108.92 -196.31)"/><path class="cls-3" d="M1759.06,842c-4.76,23.12-25.47,40.7-25.47,40.7s-13-19.9-8.23-43,25.48-40.7,25.48-40.7S1763.83,818.91,1759.06,842Z" transform="translate(-108.92 -196.31)"/><path class="cls-3" d="M1774,858.78c-15,21.6-42.92,35.45-42.92,35.45s-3.58-21.17,11.43-42.78S1785.43,816,1785.43,816,1789,837.18,1774,858.78Z" transform="translate(-108.92 -196.31)"/><rect class="cls-4" x="1495.8" y="657.23" width="197.97" height="46"/><rect class="cls-6" x="1495.8" y="657.23" width="22.25" height="46"/><rect class="cls-1" x="1477.33" y="703.23" width="225.52" height="39.06"/><rect class="cls-2" x="1467.08" y="703.23" width="10.26" height="39.06"/><rect class="cls-2" x="1474.88" y="742.29" width="10.26" height="15.86"/><rect class="cls-5" x="1477.33" y="742.29" width="217.71" height="5.32"/><rect class="cls-5" x="1495.8" y="703.23" width="188.58" height="6.71"/><polygon class="cls-2" points="887.02 0 908.99 0 908.99 9.89 889.47 18.19 887.02 0"/><polygon class="cls-2" points="1118.32 111.83 1118.32 123.94 1027.32 123.94 887.02 56.11 746.73 123.94 655.72 123.94 655.72 111.83 887.02 0 1118.32 111.83"/><rect class="cls-2" x="670.71" y="123.94" width="102.46" height="18.07"/><rect class="cls-2" x="689.5" y="142.01" width="71.24" height="55.54"/><rect class="cls-2" x="694.9" y="142.01" width="56.19" height="697.73"/><polygon class="cls-5" points="1096.39 118.35 1096.39 128.48 1020.19 128.48 902.71 71.69 785.23 128.48 709.01 128.48 709.01 118.35 902.71 24.7 1096.39 118.35"/><rect class="cls-5" x="688.21" y="123.94" width="104.21" height="18.07"/><polygon class="cls-1" points="1140.29 111.83 1140.29 123.94 1049.29 123.94 909 56.11 768.7 123.94 677.69 123.94 677.69 111.83 909 0 1140.29 111.83"/><rect class="cls-1" x="712.04" y="142.01" width="56.56" height="697.73"/><rect class="cls-2" x="1009.06" y="123.94" width="102.46" height="18.07"/><rect class="cls-2" x="1027.85" y="142.01" width="71.24" height="55.54"/><rect class="cls-2" x="1033.25" y="142.01" width="56.19" height="697.73"/><rect class="cls-1" x="790.77" y="315.32" width="224.14" height="418.92"/><rect class="cls-2" x="813.2" y="339.29" width="85.15" height="385.26"/><path class="cls-7" d="M1002.76,540.1V916.36H926.61V540.1h76.15m9-9H917.61V925.36h94.15V531.1Z" transform="translate(-108.92 -196.31)"/><rect class="cls-2" x="907.34" y="339.29" width="85.15" height="385.26"/><path class="cls-7" d="M1096.91,540.1V916.36h-76.15V540.1h76.15m9-9h-94.15V925.36h94.15V531.1Z" transform="translate(-108.92 -196.31)"/><rect class="cls-1" x="790.77" y="168.19" width="224.14" height="109.47"/><rect class="cls-2" x="784.8" y="168.19" width="5.97" height="109.47"/><rect class="cls-2" x="784.8" y="315.32" width="5.97" height="413.73"/><rect class="cls-5" x="805.4" y="180.48" width="194.87" height="84.89"/><rect class="cls-1" x="870.48" y="260.91" width="64.71" height="33.51"/><path class="cls-2" d="M1058.83,746.45a20.16,20.16,0,1,1,20.34-20.16A20.27,20.27,0,0,1,1058.83,746.45Z" transform="translate(-108.92 -196.31)"/><path class="cls-7" d="M1058.83,711.64A14.66,14.66,0,1,1,1044,726.29a14.76,14.76,0,0,1,14.83-14.65m0-11a25.66,25.66,0,1,0,25.84,25.65,25.74,25.74,0,0,0-25.84-25.65Z" transform="translate(-108.92 -196.31)"/><path class="cls-2" d="M1058.83,728.94a2.67,2.67,0,1,1,2.76-2.67A2.71,2.71,0,0,1,1058.83,728.94Z" transform="translate(-108.92 -196.31)"/><path class="cls-7" d="M1058.83,718.1a8.17,8.17,0,1,0,8.26,8.17,8.2,8.2,0,0,0-8.26-8.17Z" transform="translate(-108.92 -196.31)"/><path class="cls-2" d="M964.69,746.28A20.07,20.07,0,1,1,985,726.21,20.23,20.23,0,0,1,964.69,746.28Z" transform="translate(-108.92 -196.31)"/><path class="cls-7" d="M964.69,711.64a14.57,14.57,0,1,1-14.84,14.57,14.72,14.72,0,0,1,14.84-14.57m0-11a25.57,25.57,0,1,0,25.84,25.57,25.7,25.7,0,0,0-25.84-25.57Z" transform="translate(-108.92 -196.31)"/><path class="cls-2" d="M964.69,728.94a2.67,2.67,0,1,1,2.75-2.67A2.72,2.72,0,0,1,964.69,728.94Z" transform="translate(-108.92 -196.31)"/><path class="cls-7" d="M964.69,718.1a8.17,8.17,0,1,0,8.25,8.17,8.21,8.21,0,0,0-8.25-8.17Z" transform="translate(-108.92 -196.31)"/><rect class="cls-5" x="1026.56" y="123.94" width="104.21" height="18.07"/><rect class="cls-1" x="1050.39" y="142.01" width="56.56" height="697.73"/><rect class="cls-1" x="1045.98" y="142.01" width="65.37" height="55.54"/><rect class="cls-4" x="740.32" y="784.4" width="341.33" height="55.34"/><rect class="cls-4" x="762.25" y="729.05" width="291.43" height="55.34"/><rect class="cls-2" x="771.37" y="784.4" width="324.71" height="55.34"/><rect class="cls-5" x="788.49" y="729.05" width="285.09" height="55.34"/><rect class="cls-1" x="707.63" y="142.01" width="65.37" height="55.54"/><rect class="cls-5" x="707.47" y="154.26" width="65.7" height="11.27"/><rect class="cls-5" x="1045.82" y="154.26" width="65.7" height="11.27"/><line class="cls-8" x1="1761.38" y1="844.74" x2="10" y2="844.74"/></g><g id="Layer_3" data-name="Layer 3"><ellipse class="cls-9" cx="923.67" cy="965.33" rx="677.64" ry="3.62"/><path class="cls-10" d="M1530.79,1161.64H1404.45a63.24,63.24,0,0,1,63.17-60.41c1.17,0,2.34,0,3.49.1A63.24,63.24,0,0,1,1530.79,1161.64Z" transform="translate(-108.92 -196.31)"/><path class="cls-10" d="M1645.62,1126.07a88.63,88.63,0,0,1-7.4,35.57H1475a89,89,0,1,1,170.6-35.57Z" transform="translate(-108.92 -196.31)"/><path class="cls-10" d="M1692.39,1154.77a53.69,53.69,0,0,1-.44,6.87h-106.2a53.56,53.56,0,0,1,53.1-60.41c1.1,0,2.19,0,3.28.1A53.54,53.54,0,0,1,1692.39,1154.77Z" transform="translate(-108.92 -196.31)"/><path class="cls-10" d="M1020.05,1161.64H913.23a53.53,53.53,0,0,1,106.82,0Z" transform="translate(-108.92 -196.31)"/><path class="cls-10" d="M1136.83,1154.77q0,3.48-.31,6.87H984.83q-.32-3.39-.31-6.87a76.16,76.16,0,1,1,152.31,0Z" transform="translate(-108.92 -196.31)"/><path class="cls-10" d="M1214.23,1158c0,1.22,0,2.42-.13,3.62H1111.82c-.09-1.2-.13-2.4-.13-3.62a51.27,51.27,0,1,1,102.54,0Z" transform="translate(-108.92 -196.31)"/><path class="cls-10" d="M1267.28,1161.64h-66.71a33.36,33.36,0,1,1,66.71,0Z" transform="translate(-108.92 -196.31)"/><path class="cls-11" d="M856.49,1088.61H1419l32.82-60.3s11.49-131.9-42.67-152.82-365.54-22.36-365.54-22.36Z" transform="translate(-108.92 -196.31)"/><ellipse class="cls-12" cx="734.22" cy="841.64" rx="52.4" ry="123.69"/><rect class="cls-12" x="734.22" y="717.95" width="65.74" height="247.38"/><ellipse class="cls-13" cx="799.96" cy="841.64" rx="52.4" ry="123.69"/><ellipse class="cls-13" cx="799.96" cy="841.64" rx="35.67" ry="92.85"/><ellipse class="cls-12" cx="886.01" cy="841.64" rx="52.4" ry="123.69"/><rect class="cls-12" x="886.01" y="717.95" width="65.74" height="247.38"/><ellipse class="cls-14" cx="951.75" cy="841.64" rx="52.4" ry="123.69"/><ellipse class="cls-15" cx="951.75" cy="841.64" rx="35.67" ry="92.85"/><ellipse class="cls-12" cx="370.99" cy="841.64" rx="52.4" ry="123.69"/><rect class="cls-12" x="370.99" y="717.95" width="65.74" height="247.38"/><ellipse class="cls-13" cx="436.73" cy="841.64" rx="52.4" ry="123.69"/><ellipse class="cls-13" cx="436.73" cy="841.64" rx="35.67" ry="92.85"/><ellipse class="cls-12" cx="1225.49" cy="841.64" rx="52.4" ry="123.69"/><rect class="cls-12" x="1225.49" y="717.95" width="65.74" height="247.38"/><ellipse class="cls-14" cx="1291.23" cy="841.64" rx="52.4" ry="123.69"/><ellipse class="cls-15" cx="1291.23" cy="841.64" rx="35.67" ry="92.85"/><path class="cls-16" d="M1034.23,479.38H923.06l10-65.18a46.12,46.12,0,0,1,45.59-39.12h0a46.11,46.11,0,0,1,45.58,39.12Z" transform="translate(-108.92 -196.31)"/><path class="cls-17" d="M1452.55,1036.34c.73-2.71,2.1-155.6-45.09-155.6-35,0-55.07,122-62.81,177.72-.64,4.62-1.2,8.84-1.67,12.57a20.12,20.12,0,0,1-20,17.58h-190.3a11.58,11.58,0,0,1-10.84-15.63,140.35,140.35,0,0,0,4.42-14.52c14.47-57,16.82-174.1-44.06-178.24-55.49-3.76-82.28,102.29-95.53,164.52a55.42,55.42,0,0,1-54.3,43.87H472.12a75.25,75.25,0,0,1-74.5-64.61c-11.08-138.46,94.05-302.16,94.05-302.16h0S586.54,562.43,671.38,517c148.92-79.75,481.38-53.73,586.75,1.36,27.89,14.58,51.19,40.75,70.55,72.55,22.39,36.77,39.52,81.07,52.38,123.68,25.39,84.06,34.2,152.51,34.2,152.51C1466.19,913,1453.54,1033.88,1452.55,1036.34Z" transform="translate(-108.92 -196.31)"/><ellipse class="cls-18" cx="1379.61" cy="796.37" rx="8.39" ry="34.8" transform="translate(-180.24 -57.45) rotate(-5.62)"/><path class="cls-19" d="M1329.12,976.84a77.85,77.85,0,0,1-75.62,59.5h-54.77a39.27,39.27,0,0,1-39.27-39.27V577.66a38.76,38.76,0,0,1,38.76-38.76h19.18c50.32,0,91.31,36.21,105,84.63a702.4,702.4,0,0,1,20.42,98.34A688.09,688.09,0,0,1,1329.12,976.84Z" transform="translate(-108.92 -196.31)"/><path class="cls-20" d="M1342.82,721.87H1159.46V577.66a38.76,38.76,0,0,1,38.76-38.76h19.18c50.32,0,91.31,36.21,105,84.63A702.4,702.4,0,0,1,1342.82,721.87Z" transform="translate(-108.92 -196.31)"/><path class="cls-21" d="M1320.66,721.87H1174.18V586.3a31,31,0,0,1,31-31h15.32c40.2,0,72.94,28.93,83.88,67.61C1312.08,650.28,1317.33,696.91,1320.66,721.87Z" transform="translate(-108.92 -196.31)"/><rect class="cls-22" x="1089.35" y="571.28" width="120.58" height="22.48" rx="11.24"/><line class="cls-23" x1="385.62" y1="525.54" x2="1234.01" y2="525.54"/><path class="cls-20" d="M1113.07,517.13a58,58,0,0,0-5.72,8.88c-22.27,42.57-46.82,115.91-69.89,195.83H491.67s5.1-8.57,14-22.31C535.13,654,606.22,551.89,671.38,517l1.84-1c62.9-15.76,137.62-24.89,217.77-24.89C973,491.14,1049.29,500.7,1113.07,517.13Z" transform="translate(-108.92 -196.31)"/><path class="cls-21" d="M1063,527.28a6.54,6.54,0,0,1,4.35,9.57l0,.08c-16.55,30.11-34.54,78.58-52,133.24-5.83,18.27-23.25,30.75-43,30.75H533.5a4.43,4.43,0,0,1-3.88-6.81c2-3.08,4.69-7.1,7.93-11.87,25.94-38.1,88.53-123.64,145.9-152.85h0a14.18,14.18,0,0,1,3.22-1.2c55.05-13,120.24-20.46,190.12-20.46C945,507.73,1008.78,514.88,1063,527.28Z" transform="translate(-108.92 -196.31)"/><path class="cls-19" d="M1037.46,721.84c-29.14,100.8-59.73,230-76.91,305a79.48,79.48,0,0,1-77.48,61.73H472.12a75.25,75.25,0,0,1-74.5-64.61c-11.08-138.46,94.05-302.16,94.05-302.16Z" transform="translate(-108.92 -196.31)"/><path id="Rounded_Rectangle_2" data-name="Rounded Rectangle 2" class="cls-24" d="M683.21,812.6c13.37,0,22.09,10.84,19.47,24.22l-16.95,86.52c-2.61,13.38-15.58,24.21-29,24.21s-22.09-10.83-19.47-24.21l16.94-86.52C656.87,823.44,669.84,812.6,683.21,812.6Z" transform="translate(-108.92 -196.31)"/><path id="Rounded_Rectangle_2-2" data-name="Rounded Rectangle 2" class="cls-25" d="M671.49,853.41c9.28-.14,15.42,6.27,13.72,14.32l-11,52c-1.7,8.05-10.6,14.68-19.88,14.81s-15.41-6.27-13.72-14.32l11-52C653.32,860.18,662.21,853.55,671.49,853.41Z" transform="translate(-108.92 -196.31)"/><rect class="cls-26" x="879.21" y="218.08" width="17.85" height="10.46"/><path class="cls-27" d="M1447.78,589l-7.68,115.82a18.67,18.67,0,0,1-28,11.64l-89.51-53.81,23.67-41,61.51,43.6,15.77-87.74" transform="translate(-108.92 -196.31)"/><polygon class="cls-28" points="1298.8 468.88 1296.99 481.32 1283.27 457.88 1298.8 468.88"/><rect class="cls-26" x="841.88" y="218.08" width="17.85" height="10.46"/><path class="cls-29" d="M920.25,859.76l-6.43,33.84-1.29,6.79c-5,26.05-30.09,47.16-56.13,47.16s-43.15-21.11-38.2-47.16l7.73-40.63c5-26,30.08-47.16,56.13-47.16,14.79,0,26.7,6.81,33.33,17.47C920.42,838.17,922.39,848.51,920.25,859.76Z" transform="translate(-108.92 -196.31)"/><path class="cls-30" d="M920.25,859.76l-6.43,33.84a37.74,37.74,0,1,1,1.57-63.53C920.42,838.17,922.39,848.51,920.25,859.76Z" transform="translate(-108.92 -196.31)"/><path class="cls-29" d="M533.79,859.76l-6.43,33.84-1.29,6.79c-5,26.05-30.09,47.16-56.13,47.16s-43.15-21.11-38.2-47.16l7.73-40.63c4.95-26,30.08-47.16,56.13-47.16,14.79,0,26.7,6.81,33.33,17.47C534,838.17,535.93,848.51,533.79,859.76Z" transform="translate(-108.92 -196.31)"/><path class="cls-30" d="M533.79,859.76l-6.43,33.84a37.74,37.74,0,1,1,1.57-63.53C534,838.17,535.93,848.51,533.79,859.76Z" transform="translate(-108.92 -196.31)"/><path class="cls-21" d="M655.83,1006.32c7,17.95,34.38,24,61.18,13.62s40.37-40.18,33.39-58.13-33.66,4.19-60.47,14.62S648.85,988.37,655.83,1006.32Z" transform="translate(-108.92 -196.31)"/><path class="cls-31" d="M894.25,507.89l-134,193H630.92l129-185.87a912.36,912.36,0,0,1,116.86-7.32Q885.58,507.73,894.25,507.89Z" transform="translate(-108.92 -196.31)"/><path class="cls-31" d="M963.87,511.73,832.55,700.92H793.69L926.88,509Q945.71,510,963.87,511.73Z" transform="translate(-108.92 -196.31)"/><path class="cls-27" d="M1423.88,581.77l-2.23-9.08a65.49,65.49,0,0,1-1.89-11.25c-.66-7,1.25-10.74-1.11-22.09-2.68-12.88,6-5.7,8.32.2,1.8,4.61.18,9.84,3.18,13.1,1.67-1.63,5.09-3.71,10.72-20,1-2.91,2.05-12.91,2.05-12.91.69-2.91,1.81-9,5.31-9.16.87,0,1.71,1.14,1.71,1.14s.61-3.86,4.15-3.79c1.39,0,2,8.84,2,8.84s1.42-4,4-3.89c.74,0,3.27,25.76,3.27,25.76l.81-5.47.24-5.74s.82-2.93,3.3-2.87c1,0,1.56,5.38,1.82,11.57a54.8,54.8,0,0,1-3.75,22.92c-2.93,7.89-3.19,10.72-9.24,19.8a84.37,84.37,0,0,1-9.62,11.38" transform="translate(-108.92 -196.31)"/><circle class="cls-32" cx="1181.39" cy="331.89" r="77.66"/><circle class="cls-32" cx="1247.96" cy="252.7" r="41.7"/><rect class="cls-32" x="1235.05" y="503.01" width="108.19" height="155.33" transform="translate(583.21 1666.03) rotate(-89.27)"/><path class="cls-33" d="M1385.92,642.31l-25.07,69.23-25.39-23.08-15.14,30.82-135.27.08c-4.37-7.88-25.45-48.5-25.45-48.5s22.88-39.28,38.67-50.52c24.92-17.74,55.68-18.39,87.92-16C1331.88,607.69,1385.92,642.31,1385.92,642.31Z" transform="translate(-108.92 -196.31)"/><path class="cls-27" d="M1262.63,650.58a30.63,30.63,0,0,1-8.23-1.09c-5.17-1.47-9.14-5.46-11.17-11.25-3-8.46-1.36-19.55,3.94-27,9-12.62,14.55-13.37,15.57-13.39h.19l.19,0c.44.07,10.94,1.9,19.65,4.36l18.33,5.15.69.19.41.58c.4.58,3.74,6-3.44,19.55-7.36,13.88-21.54,22.84-36.13,22.84Z" transform="translate(-108.92 -196.31)"/><path class="cls-34" d="M1262.78,599.88s10.74,1.85,19.45,4.31c7,2,18.33,5.15,18.33,5.15s3.25,4.61-3.57,17.47c-7.67,14.46-22,21.77-34.36,21.77a28.45,28.45,0,0,1-7.69-1c-12.73-3.6-14.37-23.6-6.15-35.13,8.89-12.44,14-12.55,14-12.55m.3-4h-.39c-1.66,0-7.83,1.17-17.15,14.23a32.91,32.91,0,0,0-4.2,28.79c2.26,6.43,6.7,10.87,12.52,12.51a32.25,32.25,0,0,0,8.77,1.17c15.32,0,30.19-9.38,37.9-23.9,7.39-13.94,4.39-20.09,3.3-21.64l-.82-1.17-1.37-.38s-11.28-3.15-18.32-5.15c-8.82-2.48-19.41-4.33-19.86-4.41l-.38-.06Z" transform="translate(-108.92 -196.31)"/><path class="cls-27" d="M1300.78,569.6c-5.45,5.82-5.46,14.89-4.09,20.46.46,1.91,2.78,17.63,3.41,18.45,2.44,3.16-36.7,11.83-36.7,11.83l3.41-30.16c-10.57-1.44-22.74-4.39-28.6-10.19-17.46-17.28-9.6-63.81-8.82-66.06l20.51-15.54s27.69-6.77,30.58-1c5.28,10.51,13.84,54.57,26.73,52.25,0,0,1-13,11.56-10.91,7.89,1.56,8.79,8.31,8.07,12C1324.41,563,1308.1,561.75,1300.78,569.6Z" transform="translate(-108.92 -196.31)"/><polygon class="cls-34" points="1136.67 352.19 1125.52 369.05 1134.33 370.59 1136.67 352.19"/><ellipse class="cls-35" cx="1256.03" cy="550.97" rx="6.77" ry="4.56" transform="translate(418.35 1516.59) rotate(-81.59)"/><ellipse class="cls-35" cx="1233.29" cy="548.21" rx="6.77" ry="4.56" transform="translate(401.66 1491.75) rotate(-81.59)"/><path class="cls-32" d="M1259.07,497.06a33.83,33.83,0,0,1-4.84,12c-.3.45-.61.91-.94,1.34a36.78,36.78,0,0,1-7.66,7.8,41.74,41.74,0,0,1-29.39,7.87c-.57-.06-1.12-.12-1.67-.21l2.61-13.26h0c.07-.42.15-.82.23-1.23a66.45,66.45,0,0,1,25.2-40,71,71,0,0,1,7.49-5,37.35,37.35,0,0,1,8.73,16.6A33.52,33.52,0,0,1,1259.07,497.06Z" transform="translate(-108.92 -196.31)"/><path class="cls-32" d="M1308.44,512.3c-2.17,11-14,18.33-28.14,18.5-1.12,0-2.25,0-3.4-.1a42.34,42.34,0,0,1-5.63-.73c-17.92-3.53-30.32-17.16-27.7-30.45a18.37,18.37,0,0,1,1.13-3.67c4.7-11,19.85-17.19,36-14,17.75,3.49,30.08,16.9,27.77,30.07C1308.49,512.05,1308.47,512.18,1308.44,512.3Z" transform="translate(-108.92 -196.31)"/><path class="cls-28" d="M1266.81,590.18s13.14,3,19.38,1L1265.81,599Z" transform="translate(-108.92 -196.31)"/><path class="cls-32" d="M1297.49,576.6h68.77a0,0,0,0,1,0,0v65.31a30,30,0,0,1-30,30h-38.81a0,0,0,0,1,0,0V576.6A0,0,0,0,1,1297.49,576.6Z" transform="translate(-100.88 -213.19) rotate(0.73)"/><path class="cls-27" d="M1276.25,757.74c-5.4,5.58-8.89,4.07-8.89,4.07s-.7,2.56-2.45,2.8-7.31-2.2-3.9-11.56c-.72,1.87-2.92,6.5-5.52,5.84-3.26-.79-4.54-4.65-4.54-4.65s-5-2.52-4.47-6.57c1-7.86,1.27-18.85,1.27-18.85l-12.38-8.08-61.19-1.59-.64-40.77,97.77,28.79c0,1.34,4.69,7.13,8.28,12.75.18.26.36.54.52.82,2,3.15,3.5,6.16,3.56,8.24C1283.88,734.93,1281.66,752.15,1276.25,757.74Z" transform="translate(-108.92 -196.31)"/><path class="cls-36" d="M1268.5,759.55s5.69-12.67,6.71-18.48a85.69,85.69,0,0,0,1.32-15.27" transform="translate(-108.92 -196.31)"/><path class="cls-36" d="M1260.54,755.25s3.91-10.84,5.4-15.25c1.67-4.93,1.68-16,1.68-16" transform="translate(-108.92 -196.31)"/><path class="cls-36" d="M1257.39,722.83s.93,8.23.1,14.08a47.75,47.75,0,0,1-5.41,15.07" transform="translate(-108.92 -196.31)"/><path class="cls-37" d="M1220.34,663.44V688a20.88,20.88,0,0,1-20.89,20.89h-77.3a17.38,17.38,0,0,1-16.75-12.75l-15-54.89a5.1,5.1,0,0,1,4.92-6.45h96.38A28.67,28.67,0,0,1,1220.34,663.44Z" transform="translate(-108.92 -196.31)"/><path class="cls-20" d="M1220.34,684.85V688a20.88,20.88,0,0,1-20.89,20.89h-20.18v-24Z" transform="translate(-108.92 -196.31)"/><line class="cls-38" x1="1002.77" y1="488.54" x2="1111.67" y2="488.54"/><polygon class="cls-32" points="1134.41 406.59 1156.27 408.24 1157.42 398 1138.9 393.87 1134.41 406.59"/><path class="cls-21" d="M1243.36,575.38c1.09,2.81,5.17,3.84,9.12,2.31s5.86-6.11,4.77-8.92-5,.54-8.93,2.08S1242.27,572.57,1243.36,575.38Z" transform="translate(-108.92 -196.31)"/></g></svg>