<svg xmlns="http://www.w3.org/2000/svg" xmlns:xlink="http://www.w3.org/1999/xlink" viewBox="0 0 1771.38 919.72"><defs><style>.cls-1,.cls-10,.cls-11,.cls-12,.cls-2,.cls-25,.cls-26,.cls-3,.cls-30,.cls-36,.cls-8,.cls-9{fill:none;}.cls-1,.cls-10{stroke:#cce3ff;}.cls-1,.cls-3,.cls-36{stroke-linejoin:bevel;}.cls-1,.cls-2,.cls-3{stroke-width:14px;}.cls-11,.cls-13,.cls-2,.cls-3{stroke:#dceeff;}.cls-10,.cls-11,.cls-12,.cls-13,.cls-2,.cls-25,.cls-26,.cls-30,.cls-35,.cls-8,.cls-9{stroke-miterlimit:10;}.cls-4{fill:#b6d4ff;}.cls-5{fill:#cce3ff;}.cls-6{fill:#dceeff;}.cls-13,.cls-7{fill:#ecf6ff;}.cls-8,.cls-9{stroke:#ecf6ff;}.cls-8{stroke-width:28px;}.cls-9{stroke-width:6px;}.cls-10,.cls-30{stroke-width:9px;}.cls-11{stroke-width:8px;}.cls-12{stroke:#b6d4ff;stroke-width:13px;}.cls-13,.cls-35{stroke-linecap:round;}.cls-13{stroke-width:20px;}.cls-14{fill:#afb3c6;}.cls-15{fill:#ff3933;}.cls-16{fill:#232249;}.cls-17{fill:#e576c6;}.cls-18{fill:#0d0b6d;}.cls-19{fill:#cf3e83;}.cls-20{fill:#240040;}.cls-21{fill:#2b2a38;}.cls-22{fill:#ffc000;}.cls-23{fill:#824f16;}.cls-24{fill:#405fd3;}.cls-25{stroke:#1c295e;}.cls-25,.cls-26{stroke-width:3px;}.cls-26{stroke:#ff9929;}.cls-27{fill:#d82b2b;}.cls-28{fill:#d5d3e2;}.cls-29{fill:#adacbc;}.cls-30{stroke:#000;}.cls-31{fill:#e4842b;}.cls-32{fill:#363544;}.cls-33{fill:url(#linear-gradient);}.cls-34{fill:#bc3579;}.cls-35{fill:#d2d1db;}.cls-35,.cls-36{stroke:#bc2085;stroke-width:1.6px;}</style><linearGradient id="linear-gradient" x1="687.95" y1="750.11" x2="1012.88" y2="749.49" gradientUnits="userSpaceOnUse"><stop offset="0" stop-color="#e0dfea"/><stop offset="1" stop-color="#dedde8" stop-opacity="0.9"/></linearGradient></defs><title>back and obj 24</title><g id="Back"><line class="cls-1" x1="329.84" y1="104.07" x2="1332.87" y2="104.07"/><line class="cls-1" x1="329.84" y1="7" x2="1332.87" y2="7"/><polyline class="cls-1" points="530.57 9.66 454.03 106.73 377.49 9.66"/><polyline class="cls-1" points="683.35 9.66 606.8 106.73 530.26 9.66"/><polyline class="cls-1" points="836.12 9.66 759.58 106.73 683.03 9.66"/><polyline class="cls-1" points="988.89 9.66 912.35 106.73 835.81 9.66"/><polyline class="cls-1" points="1141.66 9.66 1065.12 106.73 988.58 9.66"/><polyline class="cls-1" points="1294.44 9.66 1217.89 106.73 1141.35 9.66"/><line class="cls-2" x1="196.36" y1="104.07" x2="1199.39" y2="104.07"/><line class="cls-2" x1="196.36" y1="7" x2="1199.39" y2="7"/><polyline class="cls-3" points="397.09 9.66 320.55 106.73 244 9.66"/><polyline class="cls-3" points="549.86 9.66 473.32 106.73 396.77 9.66"/><polyline class="cls-3" points="702.63 9.66 626.09 106.73 549.55 9.66"/><polyline class="cls-3" points="855.4 9.66 778.86 106.73 702.32 9.66"/><polyline class="cls-3" points="1008.18 9.66 931.63 106.73 855.09 9.66"/><polyline class="cls-3" points="1160.95 9.66 1084.41 106.73 1007.87 9.66"/><circle class="cls-4" cx="1470.56" cy="681.5" r="96.71"/><rect class="cls-4" x="1433.35" y="584.78" width="37.21" height="193.43"/><circle class="cls-4" cx="1433.35" cy="681.5" r="96.71"/><circle class="cls-4" cx="749.17" cy="681.5" r="96.71"/><rect class="cls-4" x="711.96" y="584.78" width="37.21" height="193.43"/><circle class="cls-4" cx="711.96" cy="681.5" r="96.71"/><rect class="cls-5" x="170.56" y="111.63" width="534.28" height="543.25"/><polygon class="cls-4" points="1457.5 165.14 1457.5 601.33 1131.6 601.33 1131.6 111.64 1422.13 111.64 1457.5 165.14"/><rect class="cls-4" x="702.17" y="111.63" width="325.91" height="543.25"/><rect class="cls-6" x="726.88" y="199.12" width="160.28" height="455.77"/><rect class="cls-6" x="450.92" y="182.15" width="210.85" height="283.93"/><rect class="cls-6" x="203.29" y="182.15" width="210.85" height="283.93"/><rect class="cls-7" x="203.29" y="140.95" width="36.06" height="12.45"/><rect class="cls-7" x="450.92" y="140.95" width="36.06" height="12.45"/><rect class="cls-4" x="450.92" y="182.15" width="210.85" height="27.29"/><rect class="cls-4" x="203.29" y="182.15" width="210.85" height="27.29"/><polygon class="cls-5" points="1308.58 165.19 1308.58 654.88 954.61 654.88 954.61 111.64 1131.6 111.64 1166.97 165.14 1167 165.19 1308.58 165.19"/><rect class="cls-4" x="1308.58" y="165.19" width="325.91" height="489.69"/><rect class="cls-7" x="151.86" y="634.23" width="1504" height="50.15"/><path class="cls-5" d="M405.44,936c0-79.83,58.6-144.55,130.89-144.55S667.23,856.13,667.23,936" transform="translate(-121.67 -251.58)"/><circle class="cls-4" cx="451.66" cy="681.75" r="96.71"/><rect class="cls-4" x="414.45" y="585.04" width="37.21" height="193.43"/><circle class="cls-5" cx="414.45" cy="681.75" r="96.71"/><path class="cls-8" d="M405.44,936c0-76.7,58.6-138.87,130.89-138.87S667.23,859.26,667.23,936" transform="translate(-121.67 -251.58)"/><circle class="cls-7" cx="414.45" cy="681.75" r="57.02"/><circle class="cls-5" cx="414.45" cy="681.75" r="20.49"/><path class="cls-5" d="M1125.71,935.69c0-76.69,58.61-138.87,130.9-138.87s130.9,62.18,130.9,138.87" transform="translate(-121.67 -251.58)"/><circle class="cls-4" cx="1173.05" cy="681.5" r="96.71"/><rect class="cls-4" x="1135.84" y="584.78" width="37.21" height="193.43"/><circle class="cls-5" cx="1135.84" cy="681.5" r="96.71"/><path class="cls-8" d="M1125.71,935.68c0-79.83,58.61-144.55,130.9-144.55s130.9,64.72,130.9,144.55" transform="translate(-121.67 -251.58)"/><circle class="cls-7" cx="1135.84" cy="681.5" r="57.02"/><circle class="cls-5" cx="1135.84" cy="681.5" r="20.49"/><line class="cls-9" x1="203.29" y1="437.2" x2="414.13" y2="437.2"/><line class="cls-9" x1="203.29" y1="403.99" x2="414.13" y2="403.99"/><line class="cls-9" x1="414.13" y1="370.78" x2="203.29" y2="370.78"/><line class="cls-9" x1="203.29" y1="337.58" x2="414.13" y2="337.58"/><line class="cls-9" x1="414.13" y1="304.37" x2="203.29" y2="304.37"/><line class="cls-9" x1="203.29" y1="271.16" x2="414.13" y2="271.16"/><line class="cls-9" x1="414.13" y1="237.95" x2="203.29" y2="237.95"/><line class="cls-9" x1="450.92" y1="437.2" x2="661.77" y2="437.2"/><line class="cls-9" x1="450.92" y1="403.99" x2="661.77" y2="403.99"/><line class="cls-9" x1="661.77" y1="370.78" x2="450.92" y2="370.78"/><line class="cls-10" x1="1348.51" y1="519.92" x2="1603.77" y2="519.92"/><line class="cls-10" x1="1348.51" y1="493.93" x2="1603.77" y2="493.93"/><line class="cls-10" x1="1603.77" y1="467.93" x2="1348.51" y2="467.93"/><line class="cls-9" x1="450.92" y1="337.58" x2="661.77" y2="337.58"/><line class="cls-9" x1="661.77" y1="304.37" x2="450.92" y2="304.37"/><line class="cls-9" x1="450.92" y1="271.16" x2="661.77" y2="271.16"/><line class="cls-9" x1="661.77" y1="237.95" x2="450.92" y2="237.95"/><polygon class="cls-6" points="545.06 503.94 661.77 503.94 661.77 586.54 599.79 586.54 545.06 503.94"/><circle class="cls-6" cx="231.67" cy="557.21" r="29.85"/><circle class="cls-5" cx="771" cy="252.37" r="25.74"/><circle class="cls-5" cx="771.94" cy="581.93" r="23.36"/><circle class="cls-5" cx="844.04" cy="252.37" r="25.74"/><circle class="cls-5" cx="761.71" cy="319.67" r="16.38"/><circle class="cls-5" cx="808.22" cy="319.67" r="16.38"/><circle class="cls-5" cx="852.2" cy="566.47" r="12.23"/><circle class="cls-5" cx="824.26" cy="597.01" r="12.23"/><circle class="cls-5" cx="854.74" cy="319.67" r="16.38"/><path class="cls-5" d="M980.8,620.78V697.4H878.37V620.78H980.8m6-6H872.37V703.4H986.8V614.78Z" transform="translate(-121.67 -251.58)"/><path class="cls-5" d="M917.13,723.66v61.47H878.37V723.66h38.76m6-6H872.37v73.47h50.76V717.66Z" transform="translate(-121.67 -251.58)"/><path class="cls-5" d="M980.8,723.66v61.47H942V723.66H980.8m6-6H936v73.47H986.8V717.66Z" transform="translate(-121.67 -251.58)"/><line class="cls-11" x1="887.17" y1="203.91" x2="954.61" y2="203.91"/><rect class="cls-6" x="1349.81" y="207.24" width="254.14" height="220.29"/><path class="cls-5" d="M1719.12,465.32V672.61H1478V465.32h241.14m13-13H1465V685.61h267.14V452.32Z" transform="translate(-121.67 -251.58)"/><rect class="cls-6" x="1155.34" y="207.24" width="105.33" height="220.29"/><path class="cls-4" d="M1375.85,465.32V672.61h-92.34V465.32h92.34m13-13H1270.51V685.61h118.34V452.32Z" transform="translate(-121.67 -251.58)"/><rect class="cls-6" x="1009.2" y="207.24" width="105.33" height="220.29"/><path class="cls-4" d="M1229.71,465.32V672.61h-92.33V465.32h92.33m13-13H1124.38V685.61h118.33V452.32Z" transform="translate(-121.67 -251.58)"/><rect class="cls-6" x="1308.58" y="553.82" width="325.91" height="80.42"/><rect class="cls-7" x="1332.23" y="573.92" width="78.51" height="40.21"/><rect class="cls-7" x="1217.89" y="457.69" width="47.93" height="16.79"/><rect class="cls-7" x="1531.93" y="573.92" width="78.51" height="40.21"/><polyline class="cls-12" points="1004.04 171.09 981.33 171.09 981.33 466.09 1008.18 466.09"/><polygon class="cls-6" points="1599.48 165.19 1294.44 165.19 1294.44 103.7 1588.63 103.7 1599.48 165.19"/><polygon class="cls-4" points="1461.12 165.19 1443.65 165.19 1432.8 103.7 1450.27 103.7 1461.12 165.19"/><polygon class="cls-5" points="1305.4 165.19 1231.01 165.19 1241.86 103.7 1294.55 103.7 1305.4 165.19"/><line class="cls-13" x1="1761.38" y1="788.24" x2="10" y2="788.24"/></g><g id="Man"><ellipse class="cls-14" cx="872.56" cy="916.11" rx="713.38" ry="3.62"/><rect class="cls-15" x="1000.71" y="482.44" width="160.62" height="381.97"/><rect class="cls-15" x="1314.56" y="496.31" width="126.46" height="267.5"/><path class="cls-15" d="M1233.92,1166.68s134,22.24,136-151.3c.52-43.49,34.67-195.38-38.64-310.76-29.84-47-30.65-90.74-28.49-101a2.92,2.92,0,0,0-3.75-3.36c-11.86,3.7-39.86,15.42-53,46.31a2.9,2.9,0,0,1-5,.56c-6.24-8.69-19.28-32.13-19.17-76.12a2.91,2.91,0,0,0-5.16-1.87c-20.08,24.64-89.4,113.21-78.11,147.71" transform="translate(-121.67 -251.58)"/><path class="cls-15" d="M1122.39,734s-10.48-47.16-52.91-80.34a2.91,2.91,0,0,0-4.7,2.6c1.74,16,4.77,59.74-4.34,120.55-6.71,44.71-78.82,420.72,135.33,391.87" transform="translate(-121.67 -251.58)"/><path class="cls-15" d="M1549.77,719.44c8.09-32.06-49.92-82.56-73.88-101.8a2.9,2.9,0,0,0-4.56,3.21c13.27,39.1-18.82,102.44-26.78,117.19a2.9,2.9,0,0,1-4.66.63c-11-11.5-15.13-41.37-16.66-58.74a2.91,2.91,0,0,0-5.64-.72c-7,19.4-20.47,62-32.13,129.41-18.07,104.55-151.36,308.86,82.31,282.46,54.46-6.16,8.62,77.61,69.4,75.6" transform="translate(-121.67 -251.58)"/><path class="cls-15" d="M1597.77,685.85s17.54-36.19,10-68.11a2.9,2.9,0,0,1,5-2.56c14.07,16.38,32.51,47,50.09,83.9,37.84,79.58,97.84,443.69-32.08,467.6" transform="translate(-121.67 -251.58)"/><path class="cls-16" d="M892.78,1057.48H743.38v-73.8l126.6-303h116.4v302.4h45v74.4h-45v109.2h-93.6Zm0-74.4V780.88l-73.2,202.2Z" transform="translate(-121.67 -251.58)"/><path class="cls-16" d="M1109.38,1131.87q-34.2-36.82-34.2-98.78V818.57q0-64.87,33.3-102t99.3-37.12q66,0,99,37.12t33,102v214.52q0,61.37-34.5,98.49t-97.5,37.11Q1143.57,1168.69,1109.38,1131.87Zm122.7-65.47q5.68-15.18,5.7-35.65V820.91q0-23.37-5.1-38.87t-24.9-15.49q-19.8,0-24.9,15.2t-5.1,39.16v209.84q0,50.85,30,50.85Q1226.37,1081.6,1232.08,1066.4Z" transform="translate(-121.67 -251.58)"/><path class="cls-16" d="M1537.17,1057.48h-149.4v-73.8l126.6-303h116.4v302.4h45v74.4h-45v109.2h-93.6Zm0-74.4V780.88L1464,983.08Z" transform="translate(-121.67 -251.58)"/><path class="cls-15" d="M1123.57,639.94a2.9,2.9,0,0,1-4.85,1.62c-5.39-5.1-14.94-16.45-18.92-35.52-3.91-18.71,3.91-37.55,9.22-47.55a2.91,2.91,0,0,1,5.45.93c1.35,9.09,4.06,25,8.73,44.19C1126.61,617.6,1124.87,632.48,1123.57,639.94Z" transform="translate(-121.67 -251.58)"/><path class="cls-15" d="M1554.71,580.49a2.9,2.9,0,0,0-5.29-1.65c-6.92,9.94-17.66,28.34-14.19,42.78s17.46,23.16,25.73,27.17a2.91,2.91,0,0,0,4-3.52,261.09,261.09,0,0,1-8-31.2C1555.12,604.27,1554.73,589.74,1554.71,580.49Z" transform="translate(-121.67 -251.58)"/><path class="cls-15" d="M1676.58,619a2.9,2.9,0,0,1,5.17-1.55c5,6.36,11.85,17.84,9.31,31.17-2,10.39-3.61,17.88-4.7,22.61a2.91,2.91,0,0,1-5.31.89c-4.12-6.57-9.83-18.39-7.59-30.94C1675.31,630.85,1676.17,623.65,1676.58,619Z" transform="translate(-121.67 -251.58)"/><circle class="cls-15" cx="823.18" cy="748.53" r="7.9"/><circle class="cls-15" cx="739.17" cy="715.81" r="4.65"/><circle class="cls-15" cx="1141.02" cy="319.71" r="10.67"/><circle class="cls-15" cx="1374.87" cy="349.25" r="4.1"/><circle class="cls-15" cx="1276.9" cy="403.55" r="6.04"/><path class="cls-15" d="M1341.77,1168.69H1190.2c10.52-35.63,23.88-63.46,28.2-75.44a2.91,2.91,0,0,1,5.64.72c1.53,17.37,5.71,47.24,16.66,58.74,1.36,1.43,3.28.78,4.66-.63,11.68-11.89,40.05-78.09,26.78-117.19a2.91,2.91,0,0,1,4.57-3.21C1294.54,1046,1328.54,1074.08,1341.77,1168.69Z" transform="translate(-121.67 -251.58)"/><path class="cls-15" d="M1702.06,1168.69H1527.17c19.44-35.53,49.53-73.73,61.65-88.62a2.91,2.91,0,0,1,5.16,1.87c-.1,44,12.94,67.44,19.18,76.13a2.91,2.91,0,0,0,5-.57c13.09-30.88,41.09-42.61,52.94-46.31a2.92,2.92,0,0,1,3.75,3.36C1673.31,1122.05,1687.25,1133.83,1702.06,1168.69Z" transform="translate(-121.67 -251.58)"/><path class="cls-15" d="M987.51,1168.69c4.5-11.32,13.37-38.21,7.59-62.6a2.9,2.9,0,0,1,5-2.56c11.61,13.52,26.2,36.7,40.82,65.16Z" transform="translate(-121.67 -251.58)"/><path class="cls-15" d="M949.66,1168.69H775.46c5.16-36.74,55.57-114.63,69.73-132a2.32,2.32,0,0,1,4.12,1.49c-.09,35.1,2.72,57,15.3,80.73.84,1.59,3.3,1.21,4-.45,10.45-24.64,32.78-54,42.24-57a2.33,2.33,0,0,1,3,2.68c-1.73,8.2-1.08,43.11,22.73,80.58A209.54,209.54,0,0,1,949.66,1168.69Z" transform="translate(-121.67 -251.58)"/><path class="cls-17" d="M577.54,742.78s8.31,12.8,18.88,14.5c3.17.51,21.25-10.95,21.25-10.95l-3-15-10.82-6.1s-12.15,1.07-15.95,1.48" transform="translate(-121.67 -251.58)"/><path class="cls-18" d="M395.65,1119.77l-5.22,22.09s22.72,3.24,30.25,23.83H357.42l7.23-24.81,6.49-21.53Z" transform="translate(-121.67 -251.58)"/><polygon class="cls-19" points="250.91 862.38 242.97 889.3 268.75 890.29 273.88 869 250.91 862.38"/><path class="cls-18" d="M547.51,1124.09l-2.32,17.36s43.1,9.7,59.3,24.12l-84.77.12,7.44-49.71Z" transform="translate(-121.67 -251.58)"/><polygon class="cls-19" points="405.02 868.18 401.7 889.19 423.52 889.88 425.48 875.47 405.02 868.18"/><circle class="cls-20" cx="364.51" cy="271.75" r="62.36"/><path class="cls-17" d="M495.65,649.17s16,46.63,27.25,60.27c17,15.75,65.74,40.71,65.74,40.71L599.51,734,544.43,692.1l-19.32-54.29Z" transform="translate(-121.67 -251.58)"/><path class="cls-21" d="M555.05,1124.94l-38.53-.12,9.4-180L476.64,796.1s13.45,108.32,7,146c-8.24,48-83.17,185.66-83.17,185.66H361.61l65.06-188.53s-14.54-53.74-17.58-109.13c-4.24-77.49,4.23-96.14,4.23-96.14H521.16s20.9,31,32.05,73.87c22.38,86.17,31.14,104.78,28.63,137.92C578.43,990.79,555.05,1124.94,555.05,1124.94Z" transform="translate(-121.67 -251.58)"/><circle class="cls-20" cx="324.24" cy="199.1" r="33.48"/><rect class="cls-20" x="423.89" y="527.69" width="124.71" height="82.07" transform="translate(-122.52 -250.85) rotate(-0.09)"/><path class="cls-22" d="M546.24,674.82l-59.06,16.56,33.09-29s6.61-1.23,1.88,8.05c-9.12,17.94-17.93,19.89-9.41,42.46,5.18,13.7,8.42,21.09,8.42,21.09H413.32l21.48-52.57-52.37-21.59S397,617,426,592.72c15.19-12.71,19.27-7.08,45.84-7,25,.05,32.81,5.07,44,14.4C539.07,619.54,546.24,674.82,546.24,674.82Z" transform="translate(-121.67 -251.58)"/><path class="cls-17" d="M496.14,624.23c-17.18,0-28.44-7.28-33.48-21.64-2.93-8.35-5.32-16.72-5.34-16.8l-.74-2.59,2.69,0s1.93,0,4.6,0c3.3,0,8,0,11.41-.24.36,0,.73,0,1.1,0,7.88,0,16.55,4.64,16.92,4.84a38.75,38.75,0,0,1,12.36,12.34c4.27,6.58,5.23,13.09,2.64,17.87-2.16,4-6.44,6.18-12.07,6.19Z" transform="translate(-121.67 -251.58)"/><path class="cls-23" d="M476.38,585c7.46,0,16,4.6,16,4.6A36.81,36.81,0,0,1,504,601.26c7.31,11.25,3.49,21-7.76,21h-.08c-12,0-25.78-3.75-31.59-20.3-2.95-8.39-5.31-16.69-5.31-16.69s1.94,0,4.63,0c3.42,0,8.05,0,11.53-.25.32,0,.65,0,1,0m0-4h0c-.41,0-.82,0-1.21,0-3.41.2-8,.24-11.3.24-2.65,0-4.56,0-4.57,0l-5.37-.08,1.46,5.17c.1.35,2.43,8.51,5.38,16.92,5.28,15,17.51,23,35.37,23h.09c6.3,0,11.34-2.65,13.83-7.24,2.95-5.44,2-12.7-2.72-19.91a40.92,40.92,0,0,0-13.07-13c-.41-.22-9.51-5.09-17.89-5.09Z" transform="translate(-121.67 -251.58)"/><path class="cls-17" d="M471.56,554.34c3.39,5.43,2,12.58.06,16.75-.65,1.44-4.9,13.47-5.52,14-2.41,2.11,27.09,15,27.09,15l2-24.29c8.56.49,18.6,0,24.11-3.62,16.42-10.93,17.4-48.81,17.13-50.7l-13.78-15.41s-20.77-9.59-23.93-5.52c-5.78,7.47-19.31,40.87-29.11,37.06,0,0,1.23-10.39-7.43-10.37-6.46,0-8.21,5.19-8.21,8.18C454,545.51,467,547,471.56,554.34Z" transform="translate(-121.67 -251.58)"/><polygon class="cls-24" points="395.1 290.76 401.29 305.76 394.11 305.62 395.1 290.76"/><ellipse class="cls-18" cx="506.53" cy="542.77" rx="5.44" ry="3.66" transform="translate(-180.74 772.11) rotate(-87.35)"/><ellipse class="cls-18" cx="525.5" cy="542.29" rx="5.44" ry="3.66" transform="translate(-162.16 790.61) rotate(-87.35)"/><path class="cls-20" d="M517.91,505.89a36.28,36.28,0,0,0,2,11.82c.17.46.34.94.53,1.4a35.52,35.52,0,0,0,4.84,8.52,32,32,0,0,0,22,12.48c.45,0,.9.08,1.35.1l0-12.61h0c0-.4,0-.78,0-1.18a68,68,0,0,0-13.71-41.14,63.51,63.51,0,0,0-5.12-6A34.44,34.44,0,0,0,520.27,493,35.82,35.82,0,0,0,517.91,505.89Z" transform="translate(-121.67 -251.58)"/><path class="cls-20" d="M469.52,505.16c0,9,8.18,16.59,19.33,18.91q1.32.28,2.7.45a33.89,33.89,0,0,0,4.55.29c14.66,0,26.53-8.85,26.51-19.73a14.29,14.29,0,0,0-.33-3.07c-2-9.42-13-16.6-26.24-16.58-14.52,0-26.3,8.68-26.51,19.42C469.52,505,469.52,505.06,469.52,505.16Z" transform="translate(-121.67 -251.58)"/><path class="cls-25" d="M505.55,559.06s4.68-1.51,9.37,3.71" transform="translate(-121.67 -251.58)"/><path class="cls-19" d="M495.15,575.79s-10.81.32-15.42-2.2l14.85,9.33Z" transform="translate(-121.67 -251.58)"/><path class="cls-20" d="M508.68,585.54s-2.83-.13-7.18.14c-6.09.39-7.18.4-7.18.4l.72-8.87,16.44,2.17Z" transform="translate(-121.67 -251.58)"/><rect class="cls-21" x="514.98" y="1124.15" width="42.75" height="10.89" transform="translate(952.59 2006.88) rotate(179.92)"/><polygon class="cls-21" points="236.54 883.5 280.8 883.44 281.54 872.55 237.28 872.61 236.54 883.5"/><path class="cls-20" d="M423.93,560.95h19.75a30,30,0,0,1,30,30V635a0,0,0,0,1,0,0h-49.7a0,0,0,0,1,0,0V560.95A0,0,0,0,1,423.93,560.95Z" transform="matrix(-1, 0, 0, -1, 776.79, 943.71)"/><path class="cls-26" d="M517,680.51s8-14,6.36-27.25" transform="translate(-121.67 -251.58)"/><path class="cls-27" d="M493.53,769.6h0a29.6,29.6,0,0,1,29.6,29.6V927.5a12,12,0,0,1-12,12h-35.2a12,12,0,0,1-12-12V799.2A29.6,29.6,0,0,1,493.53,769.6Z" transform="translate(111.58 -348.91) rotate(14.72)"/><rect class="cls-28" x="485.21" y="815.77" width="38.13" height="78.65" transform="translate(112.07 -351.62) rotate(14.72)"/><rect class="cls-29" x="504.46" y="831.78" width="23.75" height="11.44" transform="translate(108 -355.26) rotate(14.72)"/><path class="cls-30" d="M450.58,770.31s40.27-37.69,78.63-17.39" transform="translate(-121.67 -251.58)"/><path class="cls-30" d="M450.58,778.91S485.94,744.24,528,755" transform="translate(-121.67 -251.58)"/><path class="cls-17" d="M454.77,767.19l7-18.27-49.47-40,14.91-30.57-33-13.59s-17.34,33.12-11.94,52.36C389.09,741.24,454.77,767.19,454.77,767.19Z" transform="translate(-121.67 -251.58)"/><path class="cls-30" d="M525.24,754.35s30.43,14.78,45,11.91,14.16-31,52.31-34.88" transform="translate(-121.67 -251.58)"/><rect class="cls-27" x="505.54" y="748.93" width="24" height="38.79" rx="12" transform="matrix(-0.97, -0.25, 0.25, -0.97, 701.26, 1391.34)"/><path class="cls-17" d="M457,746.84s19.12.72,22.07,3.25c3.54,3,7,9.81,7.89,12.72s-3.47,5.58-5.31,5.52a6.61,6.61,0,0,1-5.48,6.12,7.06,7.06,0,0,1-6.6,2.93,5.68,5.68,0,0,1-6.94.34c-3.73-2.55-11.09-10.34-16.82-16.47" transform="translate(-121.67 -251.58)"/><circle class="cls-31" cx="399.14" cy="502.33" r="15.85"/><circle class="cls-28" cx="399.14" cy="502.33" r="10.75"/><circle class="cls-32" cx="399.14" cy="502.33" r="5.12"/><line class="cls-26" x1="313.12" y1="429.86" x2="326.25" y2="401.69"/><rect class="cls-17" x="377.22" y="282.89" width="32.31" height="5.75"/><path class="cls-33" d="M987.46,781.67a21.35,21.35,0,0,1,3,10.94,21.59,21.59,0,0,1-32.36,18.71,79.12,79.12,0,0,1-156-18.71,78,78,0,0,1,.78-11.09,19.84,19.84,0,0,1-8.26-31.86L631.21,735.11V722.53l155.06-13.81a42.31,42.31,0,0,1,41.81-35.8l1.25,0a17,17,0,0,1,24.09-14.73A36.9,36.9,0,0,1,918.92,642,19.72,19.72,0,0,1,950,654a67.24,67.24,0,0,1,37.45,127.71Z" transform="translate(-121.67 -251.58)"/><polygon points="555.64 490.49 499.78 489.07 498.97 469.77 554.51 463.67 555.64 490.49"/><polygon class="cls-34" points="272.58 413.15 305.54 426.74 268.58 421.73 272.58 413.15"/><path class="cls-17" d="M597.27,734c7.09-2.8,9.15,1.8,12.46,5.25s14.29,6.33,7.79-1.1l-2.81-6.76-9-5.05" transform="translate(-121.67 -251.58)"/><rect class="cls-17" x="591.65" y="740.36" width="6.94" height="17.92" rx="3.18" transform="translate(1356.31 866.78) rotate(151.14)"/><rect class="cls-17" x="596.44" y="735.45" width="5.93" height="20.62" rx="2.71" transform="translate(-442.85 233.47) rotate(-35.4)"/><rect class="cls-17" x="601.87" y="734.34" width="6.43" height="19.24" rx="2.95" transform="translate(1437.33 590.59) rotate(135)"/><rect class="cls-17" x="607.51" y="731.77" width="6.58" height="19.24" rx="3.01" transform="translate(1448.56 442.51) rotate(126.66)"/><line class="cls-35" x1="472.45" y1="491.58" x2="478.74" y2="500.98"/><line class="cls-35" x1="480.97" y1="485.73" x2="488.9" y2="493.79"/><line class="cls-35" x1="476.31" y1="487.68" x2="483.41" y2="497.09"/><path class="cls-36" d="M611.57,737.87c-4.45-3.32-6.44-4.12-7.75-3.33a2.42,2.42,0,0,0-1.07,2.88s-1.78-2.1-3.7-.82c-1.75,1.15-.39,3.56-.39,3.56s-2.52-4.13-5-2.63c-3.21,2,1.44,7.11,1.44,7.11s-2.26-4.22-4.63-3a2.77,2.77,0,0,0-1.26,4.12l4.57,8.35" transform="translate(-121.67 -251.58)"/></g></svg>