<svg xmlns="http://www.w3.org/2000/svg" viewBox="0 0 1771.38 1101.48"><defs><style>.cls-1,.cls-15{fill:#ecf6ff;}.cls-11,.cls-12,.cls-14,.cls-18,.cls-2,.cls-21,.cls-23,.cls-25,.cls-28,.cls-3,.cls-30,.cls-32,.cls-5,.cls-6,.cls-9{fill:none;}.cls-2,.cls-3{stroke:#b6d4ff;}.cls-2,.cls-28,.cls-3,.cls-32,.cls-5,.cls-6{stroke-linecap:square;}.cls-10,.cls-11,.cls-13,.cls-14,.cls-15,.cls-18,.cls-2,.cls-21,.cls-23,.cls-25,.cls-28,.cls-3,.cls-30,.cls-32,.cls-5,.cls-6,.cls-9{stroke-miterlimit:10;}.cls-2,.cls-5{stroke-width:15px;}.cls-3{stroke-width:12px;}.cls-4{fill:#cce3ff;}.cls-10,.cls-11,.cls-12,.cls-13,.cls-14,.cls-5,.cls-6{stroke:#ecf6ff;}.cls-6{stroke-width:10px;}.cls-7{fill:#dceeff;}.cls-10,.cls-13,.cls-8{fill:#b6d4ff;}.cls-9{stroke:#cce3ff;}.cls-10,.cls-11,.cls-9{stroke-width:13px;}.cls-12{stroke-linejoin:bevel;stroke-width:16px;}.cls-13,.cls-14{stroke-width:7px;}.cls-15{stroke:#dceeff;stroke-width:20px;}.cls-15,.cls-25,.cls-30{stroke-linecap:round;}.cls-16{fill:#afb3c6;}.cls-17{fill:#ffc000;}.cls-18,.cls-21{stroke:#0d0b6d;}.cls-18{stroke-width:9px;}.cls-19{fill:#0d0b6d;}.cls-20{fill:#e576c6;}.cls-21,.cls-25,.cls-28,.cls-30,.cls-32{stroke-width:3px;}.cls-22{fill:#405fd3;}.cls-23{stroke:#db8b21;stroke-width:4px;}.cls-24{fill:#cacace;}.cls-25,.cls-28{stroke:#b6b6b7;}.cls-26{fill:#e2e2e8;}.cls-27{fill:#ededef;}.cls-29{fill:#d2d2d8;}.cls-30,.cls-32{stroke:#515256;}.cls-31{fill:#f2f2f4;}.cls-33{fill:#fff;}.cls-34{fill:#27272d;}.cls-35{fill:#bbbbbc;}.cls-36{fill:#cfcfd3;}.cls-37{fill:#212226;}.cls-38{fill:#54565b;}.cls-39{fill:#8a8b96;}.cls-40{fill:#c33;}</style></defs><title>back and obj 26</title><g id="Back"><circle class="cls-1" cx="1261.15" cy="510.78" r="237.97"/><line class="cls-2" x1="1261.15" y1="464.65" x2="1261.15" y2="928.74"/><line class="cls-3" x1="1317.57" y1="672.87" x2="1355.63" y2="634.82"/><line class="cls-3" x1="1317.57" y1="502.26" x2="1355.63" y2="464.21"/><line class="cls-3" x1="1204.73" y1="591.46" x2="1166.68" y2="553.41"/><line class="cls-3" x1="1204.73" y1="506.15" x2="1166.68" y2="468.1"/><path class="cls-4" d="M1846.25,668.29c0,114.54-74.75,178.44-172.11,178.44S1502,782.83,1502,668.29c0-241.16,109.85-519.18,172.11-519.18S1846.25,427.13,1846.25,668.29Z" transform="translate(-121.63 -97.85)"/><line class="cls-5" x1="1552.51" y1="400.07" x2="1552.51" y2="928.74"/><line class="cls-6" x1="1599.72" y1="671.95" x2="1637.77" y2="633.9"/><line class="cls-6" x1="1599.72" y1="457.44" x2="1637.77" y2="419.39"/><path class="cls-4" d="M988.94,1028.6l429.07,2.25c24.5-31.11,81.53-109,58.57-132-15.1-15.15-60.37,33.59-72.59,19S1472,812,1451.65,799.2c-35.92-22.63-151.48,139.77-166.39,126.7-15.69-13.74,58-109.24,32-119.36C1287.07,794.77,1207,940.81,1183.9,925.9c-12.12-7.81,11.4-55.43-6.08-63.56-30.43-14.18-81.22,123.34-102.81,111.08-10.21-5.8,1.28-25.67-14-30.61C1042.27,936.77,1004.58,1000.38,988.94,1028.6Z" transform="translate(-121.63 -97.85)"/><rect class="cls-7" x="500.81" y="19.55" width="97.23" height="131.84"/><rect class="cls-4" x="437.93" y="19.55" width="81.34" height="131.84"/><rect class="cls-7" x="497.11" width="118.16" height="19.55"/><rect class="cls-4" x="420.69" width="105.55" height="19.55"/><polygon class="cls-8" points="15.52 419.42 583.38 419.42 867.31 92.31 299.46 92.31 15.52 419.42"/><polygon class="cls-8" points="1151.61 419.42 583.75 419.42 299.82 92.31 867.67 92.31 1151.61 419.42"/><line class="cls-9" x1="816.67" y1="92.31" x2="1100.61" y2="419.42"/><line class="cls-9" x1="741.67" y1="92.31" x2="1025.61" y2="419.42"/><line class="cls-9" x1="666.67" y1="92.31" x2="950.61" y2="419.42"/><line class="cls-9" x1="591.67" y1="92.31" x2="875.61" y2="419.42"/><line class="cls-9" x1="516.67" y1="92.31" x2="800.61" y2="419.42"/><line class="cls-9" x1="366.67" y1="92.31" x2="650.61" y2="419.42"/><line class="cls-9" x1="441.67" y1="92.31" x2="725.61" y2="419.42"/><rect class="cls-4" x="56.23" y="419.41" width="535.58" height="518.52"/><polygon class="cls-4" points="591.82 419.41 56.23 419.41 324.03 110.89 591.82 419.41"/><path class="cls-7" d="M155.61,485.54h0a30,30,0,0,1,30,30V840.62a0,0,0,0,1,0,0h-60a0,0,0,0,1,0,0V515.54a30,30,0,0,1,30-30Z"/><path class="cls-7" d="M508.44,485.54h0a30,30,0,0,1,30,30V840.62a0,0,0,0,1,0,0h-60a0,0,0,0,1,0,0V515.54a30,30,0,0,1,30-30Z"/><rect class="cls-7" x="591.82" y="419.41" width="535.58" height="518.52"/><rect class="cls-4" x="697.85" y="545.77" width="134.34" height="281.45"/><rect class="cls-8" x="698.71" y="833.72" width="142.85" height="0.4"/><polygon class="cls-1" points="848.06 827.22 692.21 827.22 692.21 840.62 848.06 840.62 848.06 827.22 848.06 827.22"/><rect class="cls-4" x="692.21" y="827.22" width="15.23" height="13.4"/><rect class="cls-8" x="889.77" y="833.72" width="142.85" height="0.4"/><polygon class="cls-1" points="1039.12 827.22 883.27 827.22 883.27 840.62 1039.12 840.62 1039.12 827.22 1039.12 827.22"/><rect class="cls-4" x="883.27" y="827.22" width="15.23" height="13.4"/><rect class="cls-4" x="886.7" y="545.77" width="134.34" height="281.45"/><rect class="cls-8" x="711.68" y="552.27" width="121.34" height="268.45"/><path class="cls-1" d="M948.15,656.61V912.06H839.81V656.61H948.15m13-13H826.81V925.06H961.15V643.61Z" transform="translate(-121.63 -97.85)"/><rect class="cls-7" x="234.46" y="517.85" width="179.14" height="415.16"/><path class="cls-8" d="M245.74,932V613.38a23.5,23.5,0,0,1,47,0V932Z" transform="translate(-121.63 -97.85)"/><path class="cls-1" d="M269.24,596.38a17,17,0,0,1,17,17V925.46h-34V613.38a17,17,0,0,1,17-17m0-13a30,30,0,0,0-30,30V938.46h60V613.38a30,30,0,0,0-30-30Z" transform="translate(-121.63 -97.85)"/><path class="cls-8" d="M598.58,932V613.38a23.5,23.5,0,0,1,47,0V932Z" transform="translate(-121.63 -97.85)"/><path class="cls-1" d="M622.07,596.38a17,17,0,0,1,17,17V925.46h-34V613.38a17,17,0,0,1,17-17m0-13h0a30,30,0,0,0-30,30V938.46h60V613.38a30,30,0,0,0-30-30Z" transform="translate(-121.63 -97.85)"/><rect class="cls-8" x="900.53" y="552.27" width="121.34" height="268.45"/><path class="cls-1" d="M1137,656.61V912.06H1028.66V656.61H1137m13-13H1015.66V925.06H1150V643.61Z" transform="translate(-121.63 -97.85)"/><polygon class="cls-7" points="981.66 419.42 737.56 419.42 859.61 278.81 981.66 419.42"/><circle class="cls-10" cx="859.61" cy="440" r="59.69"/><line class="cls-11" x1="711.41" y1="686.49" x2="834.84" y2="686.49"/><line class="cls-11" x1="772.35" y1="554.65" x2="772.35" y2="687.7"/><line class="cls-11" x1="961.2" y1="552.89" x2="961.2" y2="821.64"/><line class="cls-11" x1="900.18" y1="686.49" x2="1022.61" y2="686.49"/><line class="cls-11" x1="805.6" y1="440" x2="918.53" y2="440"/><line class="cls-11" x1="859.61" y1="380.31" x2="859.61" y2="499.69"/><circle class="cls-10" cx="324.02" cy="310.55" r="61.55"/><line class="cls-11" x1="266.02" y1="310.55" x2="382.47" y2="310.55"/><line class="cls-11" x1="324.02" y1="249" x2="324.02" y2="372.1"/><line class="cls-11" x1="125.9" y1="562.31" x2="167.14" y2="562.31"/><line class="cls-11" x1="128.06" y1="632.05" x2="164.98" y2="632.05"/><line class="cls-11" x1="128.06" y1="701.79" x2="164.98" y2="701.79"/><line class="cls-11" x1="125.9" y1="771.54" x2="167.14" y2="771.54"/><line class="cls-11" x1="478.9" y1="562.31" x2="520.14" y2="562.31"/><line class="cls-11" x1="481.06" y1="632.05" x2="517.98" y2="632.05"/><line class="cls-11" x1="481.06" y1="701.79" x2="517.98" y2="701.79"/><line class="cls-11" x1="478.9" y1="771.54" x2="520.14" y2="771.54"/><rect class="cls-8" x="275.33" y="672.54" width="97.46" height="93.68"/><path class="cls-1" d="M489.92,774.89v84.67H401.46V774.89h88.46m9-9H392.46V868.56H498.92V765.89Z" transform="translate(-121.63 -97.85)"/><rect class="cls-1" x="289.63" y="785.35" width="68.78" height="16.65"/><rect class="cls-8" x="275.33" y="552.73" width="97.46" height="93.68"/><path class="cls-1" d="M489.92,655.08v84.67H401.46V655.08h88.46m9-9H392.46V748.75H498.92V646.08Z" transform="translate(-121.63 -97.85)"/><circle class="cls-8" cx="254.74" cy="731.32" r="8.6"/><polyline class="cls-12" points="15.52 424.42 299.82 97.31 583.75 424.42"/><polyline class="cls-12" points="735.43 419.41 859.69 276.44 983.78 419.41"/><line class="cls-13" x1="591.82" y1="440.67" x2="56.23" y2="440.67"/><line class="cls-14" x1="56.23" y1="422.34" x2="591.82" y2="422.34"/><line class="cls-14" x1="56.23" y1="459" x2="591.82" y2="459"/><rect class="cls-8" x="288.29" y="860.31" width="71.48" height="68.1"/><rect class="cls-1" x="304.64" y="857.54" width="38.77" height="5.54"/><path class="cls-7" d="M1632.29,956.17c.75.94,16.62,37.45,14.73,72.07h55.9c1.07-18.92,13.07-46,13.07-46s-24.62,10-41.26,38.43C1674.73,1020.67,1662.14,969.32,1632.29,956.17Z" transform="translate(-121.63 -97.85)"/><path class="cls-7" d="M1814.06,943.38a765.91,765.91,0,0,0-16.56,80.44h-24.25C1791,972.57,1813.4,944.18,1814.06,943.38Z" transform="translate(-121.63 -97.85)"/><path class="cls-7" d="M1565.19,976.92c.63.84,19.68,26.26,22.07,49.67h33.49C1604.94,995.17,1566.06,977.31,1565.19,976.92Z" transform="translate(-121.63 -97.85)"/><line class="cls-15" x1="1761.38" y1="933" x2="10" y2="933"/></g><g id="Man"><ellipse class="cls-16" cx="849.37" cy="1097.76" rx="606.54" ry="3.72"/><path class="cls-17" d="M966.6,688.33l-4-62-52.16-9.25s16-78.33,33.81-93.94C960.85,508.56,975,495,1023,492.73c51.5-2.4,77.91,1,104.15,21,20.47,15.62,42,90.54,42,90.54l-65.72,7,1.8,77.09Z" transform="translate(-121.63 -97.85)"/><polyline class="cls-18" points="935.61 246.23 936.25 268.35 945.03 270.49 956.63 252.37"/><path class="cls-19" d="M947.06,387.42s-24.81,43.05,17.28,48Z" transform="translate(-121.63 -97.85)"/><path class="cls-20" d="M1050.72,457.52l6.15,35.06,12.68.61s-4.07,29.95-44.33,29.95c-36.84,0-23.83-28.94-23.83-28.94l9.05-.84-3.74-28.64" transform="translate(-121.63 -97.85)"/><path class="cls-20" d="M1017.17,479.76s-42.48,9-52,5.56c0,0-12.36-41-9.82-71.51l31-36.5,57.43-3.35L1057,424.58c1.81-9.17,27.44-23.77,36.56-4.94,11.75,24.29-34.82,44-34.82,44" transform="translate(-121.63 -97.85)"/><path class="cls-19" d="M1077.81,410.57s26.12-14.9-10.46-43.92-63-7.94-63-7.94-12.58-32.85-34.95-29.78c-31.86,4.36-30.25,54.28-30.25,54.28s-19.62-24.66-28.25-19.62,2.91,94.06,124,33.88c0,0-7.66,26,22.07,27.11C1057,424.58,1060.71,413.44,1077.81,410.57Z" transform="translate(-121.63 -97.85)"/><path class="cls-21" d="M997.26,462c-6.09,0-10.18,5.77-8.61,9.82" transform="translate(-121.63 -97.85)"/><polygon class="cls-22" points="854.15 337.88 850.49 363.62 861.96 360.88 854.15 337.88"/><circle class="cls-19" cx="869.93" cy="340.85" r="5.96"/><circle class="cls-19" cx="843.36" cy="343.97" r="5.96"/><line class="cls-23" x1="839.6" y1="521.86" x2="835.31" y2="466.71"/><polyline class="cls-23" points="961.87 468.06 967.78 516.27 981.91 515.51"/><path class="cls-20" d="M1063.6,697.75l40.26-57.15-.34-29.36,57.45-6.1s6.28,12,4.12,26.08c-6.19,40.37-86.28,99.24-86.28,99.24" transform="translate(-121.63 -97.85)"/><line class="cls-21" x1="835.68" y1="334.3" x2="846.86" y2="335.47"/><line class="cls-21" x1="872.12" y1="329.78" x2="861.96" y2="334.61"/><polygon class="cls-24" points="436.33 1097.76 430.28 1067.9 515.06 1048.73 578.64 957.89 542.31 915.08 630.11 868.07 648.28 784.3 626.08 724 673.51 697.5 663.42 652.09 690.99 634.47 705.22 601.04 695.75 594.18 722.67 552.89 740.04 557.22 735.08 539.2 795.29 485.07 855.39 520.55 865.27 503.73 918.81 522.9 946.9 521.22 990.16 529.8 1046.94 494.77 1052.99 534 1094.37 534 1122.63 575.13 1116.58 596.58 1170.07 652.09 1187.22 707.6 1178.14 724 1226.59 777.82 1267.97 831.65 1262.92 854.95 1320.45 939.73 1314.39 963.95 1336.14 1024.5 1403.59 1060.16 1384.42 1097.76 436.33 1097.76"/><line class="cls-25" x1="941.97" y1="782.69" x2="975.62" y2="760.29"/><line class="cls-25" x1="997.41" y1="760.29" x2="1031.07" y2="782.69"/><polyline class="cls-25" points="1031.07 737.88 986.51 767.54 941.97 737.88"/><line class="cls-25" x1="659.27" y1="966.32" x2="699.21" y2="960.06"/><line class="cls-25" x1="718.99" y1="969.18" x2="740.19" y2="1003.61"/><polyline class="cls-25" points="758.94 962.92 706.07 971.21 678.02 925.63"/><line class="cls-25" x1="668.54" y1="795.04" x2="689.36" y2="760.38"/><line class="cls-25" x1="709.05" y1="751.06" x2="749.06" y2="756.89"/><polyline class="cls-25" points="729.88 716.4 702.31 762.27 649.35 754.54"/><rect class="cls-26" x="738.87" y="772.98" width="100.08" height="60"/><rect class="cls-27" x="1073.55" y="595.89" width="60" height="100.08" transform="translate(206.27 1564.66) rotate(-83)"/><line class="cls-28" x1="563.65" y1="1076.52" x2="598.32" y2="1065.3"/><line class="cls-28" x1="566.19" y1="1084.39" x2="600.87" y2="1073.18"/><line class="cls-28" x1="574.45" y1="1089.67" x2="597.27" y2="1082.29"/><rect class="cls-25" x="736.44" y="1144.61" width="15.14" height="15.14" rx="6.92" transform="translate(-440.05 186.97) rotate(-17.92)"/><rect class="cls-27" x="761.66" y="932.08" width="60" height="100.08" transform="translate(-401.28 1550.31) rotate(-83)"/><rect class="cls-27" x="902.03" y="708.39" width="100.08" height="60" transform="translate(-363.04 475.41) rotate(-29.92)"/><line class="cls-28" x1="761.36" y1="569.29" x2="796.87" y2="577.51"/><line class="cls-28" x1="759.5" y1="577.35" x2="795" y2="585.58"/><line class="cls-28" x1="763.86" y1="586.13" x2="787.23" y2="591.54"/><rect class="cls-25" x="937.2" y="670.75" width="15.14" height="15.14" rx="6.92" transform="translate(55.77 -293.51) rotate(13.04)"/><rect class="cls-27" x="995.22" y="1086.02" width="60" height="100.08" transform="translate(-348.98 1917.3) rotate(-83)"/><rect class="cls-27" x="803.94" y="755.54" width="60" height="100.08" transform="translate(-188.92 1437.25) rotate(-83)"/><rect class="cls-27" x="1161.48" y="760.78" width="100.08" height="60" transform="translate(-356.86 688.21) rotate(-32.95)"/><rect class="cls-29" x="1003.35" y="658.33" width="100.08" height="60" transform="translate(-326.58 585.73) rotate(-32.95)"/><rect class="cls-27" x="1167.68" y="1111.54" width="100.08" height="60" transform="translate(-348.08 206.84) rotate(-13.06)"/><rect class="cls-27" x="1338.08" y="949.82" width="100.08" height="60" transform="translate(-431.27 814.66) rotate(-32.95)"/><rect class="cls-27" x="733.34" y="1084.27" width="60" height="100.08" transform="translate(-577.19 1655.83) rotate(-83)"/><rect class="cls-27" x="857.32" y="935.56" width="100.08" height="60" transform="translate(-500.83 550.9) rotate(-32.95)"/><rect class="cls-26" x="926.11" y="647.22" width="100.08" height="60" transform="translate(-211.42 54.7) rotate(-8.54)"/><rect class="cls-26" x="548.61" y="954.41" width="100.08" height="60"/><rect class="cls-26" x="780.83" y="1038.22" width="100.08" height="60"/><line class="cls-28" x1="1210.26" y1="971.49" x2="1244.94" y2="960.28"/><line class="cls-28" x1="1212.81" y1="979.37" x2="1247.48" y2="968.15"/><line class="cls-28" x1="1221.06" y1="984.65" x2="1243.89" y2="977.27"/><rect class="cls-25" x="1383.05" y="1039.58" width="15.14" height="15.14" rx="6.92" transform="translate(-376.37 380.83) rotate(-17.92)"/><rect class="cls-26" x="1278.9" y="950.32" width="60" height="100.08" transform="translate(-120.86 1903.89) rotate(-74.82)"/><rect class="cls-26" x="906.4" y="573.65" width="60" height="100.08" transform="translate(-216.64 975.33) rotate(-57.21)"/><line class="cls-30" x1="765.71" y1="519.73" x2="806.13" y2="519.12"/><line class="cls-30" x1="824.45" y1="530.92" x2="840.62" y2="567.98"/><polyline class="cls-30" points="864.88 530.31 811.36 531.11 789.97 482.06"/><rect class="cls-26" x="1347.99" y="978.89" width="60" height="65.24" transform="translate(-435.03 1161.07) rotate(-44.6)"/><line class="cls-30" x1="1292" y1="919.29" x2="1260.65" y2="919.41"/><line class="cls-30" x1="1250.68" y1="909.29" x2="1251.22" y2="877.94"/><polyline class="cls-30" points="1219.32 909.4 1260.83 909.26 1260.1 950.76"/><rect class="cls-26" x="910.55" y="814.07" width="100.08" height="60" transform="translate(-243.71 65.77) rotate(-9.16)"/><line class="cls-30" x1="798.38" y1="774.47" x2="828.04" y2="746.99"/><line class="cls-30" x1="849.55" y1="743.52" x2="886.35" y2="760.29"/><polyline class="cls-30" points="879.22 716.05 839.95 752.42 791.25 730.23"/><rect class="cls-26" x="671.02" y="986.32" width="100.08" height="60" transform="translate(-437.44 227.29) rotate(-20.96)"/><line class="cls-30" x1="565.49" y1="954.41" x2="588.9" y2="921.45"/><line class="cls-30" x1="609.25" y1="913.66" x2="648.69" y2="922.54"/><polyline class="cls-30" points="632.67 880.7 601.67 924.33 549.46 912.57"/><rect class="cls-26" x="1189.19" y="727.5" width="88.4" height="60" transform="translate(287.82 1849.68) rotate(-86.86)"/><line class="cls-30" x1="1092.52" y1="619.18" x2="1113.26" y2="650.09"/><line class="cls-30" x1="1112.2" y1="669.31" x2="1088.2" y2="697.76"/><polyline class="cls-30" points="1132.94 700.22 1105.49 659.3 1137.26 621.64"/><rect class="cls-26" x="1144.84" y="1043.88" width="53.13" height="100.08" transform="matrix(0.18, -0.98, 0.98, 0.18, -232.42, 1957.77)"/><line class="cls-30" x1="1002.58" y1="1006.96" x2="1039.19" y2="993.32"/><line class="cls-30" x1="1060.64" y1="997.13" x2="1090.31" y2="1022.56"/><polyline class="cls-30" points="1097.26 983.5 1048.79 1001.55 1009.53 967.89"/><rect class="cls-31" x="801.47" y="722.01" width="100.08" height="60" transform="translate(-254 86.2) rotate(-11.45)"/><line class="cls-32" x1="693.97" y1="653.36" x2="729.69" y2="646.12"/><line class="cls-32" x1="695.61" y1="661.47" x2="731.33" y2="654.23"/><line class="cls-32" x1="703.22" y1="667.65" x2="726.73" y2="662.89"/><rect class="cls-33" x="877.32" y="719.94" width="13.79" height="15.14" transform="translate(-248.48 92.21) rotate(-11.45)"/><rect class="cls-32" x="868.89" y="728.21" width="15.14" height="15.14" rx="6.92" transform="translate(-250.28 90.83) rotate(-11.45)"/><rect class="cls-31" x="1284.38" y="839.22" width="60" height="100.08" transform="translate(29.86 1871.26) rotate(-76.96)"/><line class="cls-32" x1="1160.4" y1="775.79" x2="1195.9" y2="784.02"/><line class="cls-32" x1="1158.53" y1="783.86" x2="1194.04" y2="792.08"/><line class="cls-32" x1="1162.89" y1="792.63" x2="1186.26" y2="798.05"/><rect class="cls-33" x="1347.4" y="872.95" width="13.79" height="15.14" transform="translate(111.95 -380.7) rotate(13.04)"/><rect class="cls-32" x="1336.24" y="877.26" width="15.14" height="15.14" rx="6.92" transform="translate(112.65 -378.22) rotate(13.04)"/><rect class="cls-31" x="924.96" y="1078.8" width="60" height="100.08" transform="translate(-613.14 1337.58) rotate(-61.74)"/><line class="cls-32" x1="806.22" y1="1007.43" x2="838.32" y2="1024.69"/><line class="cls-32" x1="802.3" y1="1014.72" x2="834.4" y2="1031.98"/><line class="cls-32" x1="804.2" y1="1024.34" x2="825.33" y2="1035.69"/><rect class="cls-33" x="988.88" y="1123.33" width="13.79" height="15.14" transform="translate(532.57 -434.54) rotate(28.26)"/><rect class="cls-32" x="976.95" y="1124.72" width="15.14" height="15.14" rx="6.92" transform="translate(531.89 -429.05) rotate(28.26)"/><rect class="cls-26" x="598.75" y="1092.33" width="60" height="100.08" transform="translate(-747.66 1399.32) rotate(-76.96)"/><line class="cls-32" x1="474.77" y1="1028.91" x2="510.28" y2="1037.13"/><line class="cls-32" x1="472.9" y1="1036.97" x2="508.41" y2="1045.19"/><line class="cls-32" x1="477.27" y1="1045.75" x2="500.63" y2="1051.16"/><rect class="cls-33" x="661.78" y="1126.06" width="13.79" height="15.14" transform="translate(151.38 -219.48) rotate(13.04)"/><rect class="cls-32" x="650.61" y="1130.37" width="15.14" height="15.14" rx="6.92" transform="translate(152.08 -217) rotate(13.04)"/><rect class="cls-26" x="1139.24" y="582.39" width="60" height="100.08" transform="translate(167.68 1530.98) rotate(-76.96)"/><line class="cls-32" x1="1015.26" y1="518.96" x2="1050.77" y2="527.18"/><line class="cls-32" x1="1013.4" y1="527.02" x2="1048.9" y2="535.24"/><line class="cls-32" x1="1017.76" y1="535.8" x2="1041.13" y2="541.21"/><rect class="cls-33" x="1202.27" y="616.12" width="13.79" height="15.14" transform="translate(50.26 -354.57) rotate(13.04)"/><rect class="cls-32" x="1191.1" y="620.42" width="15.14" height="15.14" rx="6.92" transform="translate(50.96 -352.1) rotate(13.04)"/><line class="cls-28" x1="893.49" y1="953.26" x2="929" y2="961.48"/><line class="cls-28" x1="891.63" y1="961.32" x2="927.13" y2="969.54"/><line class="cls-28" x1="895.99" y1="970.1" x2="919.36" y2="975.51"/><rect class="cls-25" x="1069.33" y="1054.72" width="15.14" height="15.14" rx="6.92" transform="translate(145.81 -313.42) rotate(13.04)"/><line class="cls-28" x1="930.63" y1="596.93" x2="966.14" y2="605.16"/><line class="cls-28" x1="928.77" y1="605" x2="964.27" y2="613.22"/><line class="cls-28" x1="933.13" y1="613.77" x2="956.5" y2="619.18"/><rect class="cls-25" x="1106.47" y="698.4" width="15.14" height="15.14" rx="6.92" transform="translate(66.37 -330.99) rotate(13.04)"/><rect class="cls-26" x="1373.98" y="1120.1" width="109.29" height="62.01" transform="matrix(1, -0.08, 0.08, 1, -213.99, 27.28)"/><line class="cls-32" x1="1268.18" y1="1048.34" x2="1307.83" y2="1044.97"/><line class="cls-32" x1="1268.9" y1="1056.87" x2="1308.56" y2="1053.5"/><line class="cls-32" x1="1276.34" y1="1064.08" x2="1302.44" y2="1061.87"/><rect class="cls-33" x="1459.73" y="1121.82" width="15.06" height="15.65" transform="translate(-212.03 30.48) rotate(-4.86)"/><rect class="cls-32" x="1449.51" y="1129.44" width="16.53" height="15.65" rx="6.92" transform="translate(-212.71 29.7) rotate(-4.86)"/><rect class="cls-26" x="1075.42" y="763.57" width="100.08" height="60" transform="translate(-341.82 403.08) rotate(-22.92)"/><rect class="cls-27" x="980.4" y="950.32" width="60" height="100.08" transform="translate(-227.31 1783.43) rotate(-83)"/><rect class="cls-31" x="984.31" y="920.15" width="100.08" height="60" transform="translate(-481.9 685.89) rotate(-35.77)"/><line class="cls-32" x1="879.66" y1="866.35" x2="909.24" y2="845.04"/><line class="cls-32" x1="884.5" y1="873.06" x2="914.07" y2="851.76"/><line class="cls-32" x1="893.98" y1="875.56" x2="913.44" y2="861.54"/><rect class="cls-33" x="1047.18" y="906.78" width="13.79" height="15.14" transform="translate(-457.26 690.66) rotate(-35.77)"/><rect class="cls-32" x="1042.83" y="917.51" width="15.14" height="15.14" rx="6.92" transform="matrix(0.81, -0.58, 0.58, 0.81, -464.22, 690.54)"/><rect class="cls-29" x="1051.39" y="936.58" width="100.08" height="60" transform="translate(-205.21 6.66) rotate(-5.23)"/><rect class="cls-29" x="858.67" y="1112.38" width="100.08" height="60" transform="translate(-222.05 -10.19) rotate(-5.23)"/><rect class="cls-29" x="1089.43" y="1044.58" width="100.08" height="60" transform="translate(-522.8 694.66) rotate(-32.95)"/><rect class="cls-29" x="799.01" y="1095.54" width="100.08" height="60" transform="translate(-569.87 475.62) rotate(-29.92)"/><line class="cls-25" x1="1015.86" y1="898.72" x2="1040.65" y2="866.79"/><line class="cls-25" x1="1061.31" y1="859.87" x2="1100.34" y2="870.42"/><polyline class="cls-25" points="1086.11 827.93 1053.29 870.21 1001.62 856.24"/><rect class="cls-27" x="1164.11" y="884.35" width="100.08" height="60" transform="matrix(0.97, -0.25, 0.25, 0.97, -312.05, 235.66)"/><path class="cls-34" d="M715.57,649.23v100.7H644.48V649.23a35.56,35.56,0,0,1,35.44-35.55H680l1.72.05a35.53,35.53,0,0,1,33.78,33.77C715.56,648.07,715.57,648.65,715.57,649.23Z" transform="translate(-121.63 -97.85)"/><rect class="cls-35" x="601.97" y="638.83" width="100.08" height="60" transform="matrix(0.98, -0.17, 0.17, 0.98, -227.47, 24.98)"/><line class="cls-30" x1="490.21" y1="599.79" x2="519.48" y2="571.9"/><line class="cls-30" x1="540.94" y1="568.13" x2="577.97" y2="584.38"/><polyline class="cls-30" points="570.22 540.25 531.46 577.16 482.46 555.65"/><rect class="cls-36" x="469.45" y="553.96" width="100.08" height="60"/><line class="cls-30" x1="474.94" y1="605.39" x2="508.59" y2="582.98"/><line class="cls-30" x1="530.38" y1="582.98" x2="564.04" y2="605.39"/><polyline class="cls-30" points="564.04 560.58 519.49 590.23 474.94 560.58"/><rect class="cls-36" x="682.87" y="671.16" width="60" height="100.08" transform="translate(-311.44 1085.4) rotate(-72.44)"/><line class="cls-30" x1="542.3" y1="630.34" x2="581.14" y2="619.13"/><line class="cls-30" x1="601.91" y1="625.71" x2="627.25" y2="657.22"/><polyline class="cls-30" points="640.77 614.5 589.34 629.33 555.82 587.62"/><rect class="cls-37" x="480.68" y="652.08" width="10.6" height="445.67"/><rect class="cls-38" x="470.08" y="652.08" width="10.6" height="445.67"/><path class="cls-39" d="M715.57,749.93H644.48l24,31.29a51.28,51.28,0,0,0,40.71,20.1h20.3a12.58,12.58,0,0,0,10-20.23Z" transform="translate(-121.63 -97.85)"/><rect class="cls-26" x="657.42" y="685.73" width="60" height="100.08" transform="translate(-399.05 926.03) rotate(-63.57)"/><line class="cls-32" x1="537.94" y1="615.24" x2="570.58" y2="631.46"/><line class="cls-32" x1="534.26" y1="622.65" x2="566.89" y2="638.88"/><line class="cls-32" x1="536.47" y1="632.2" x2="557.95" y2="642.88"/><rect class="cls-33" x="721.39" y="728.95" width="13.79" height="15.14" transform="translate(282.29 -345.02) rotate(26.43)"/><rect class="cls-32" x="709.51" y="730.71" width="15.14" height="15.14" rx="6.92" transform="translate(281.9 -339.85) rotate(26.43)"/><rect class="cls-36" x="596.33" y="666.61" width="60" height="100.08" transform="translate(-284.88 1150.26) rotate(-82.79)"/><line class="cls-30" x1="457.8" y1="634.47" x2="494" y2="616.47"/><line class="cls-30" x1="515.62" y1="619.2" x2="546.2" y2="645.65"/><polyline class="cls-30" points="551.82 601.2 503.9 625.03 463.43 590.02"/><path class="cls-40" d="M679.92,613.68a35.56,35.56,0,0,0-35.44,35.55v100.7h-141V649.34a35.67,35.67,0,0,1,35.67-35.66Z" transform="translate(-121.63 -97.85)"/><polygon class="cls-37" points="470.08 652.08 470.08 676.14 480.68 703.47 480.68 652.08 470.08 652.08"/><path class="cls-37" d="M619.69,578.7V692.52H605.78V585.24H588.15V571.73l20-3A10.08,10.08,0,0,1,619.69,578.7Z" transform="translate(-121.63 -97.85)"/></g></svg>