<svg xmlns="http://www.w3.org/2000/svg" xmlns:xlink="http://www.w3.org/1999/xlink" viewBox="0 0 1771.38 1024.85"><defs><style>.cls-1,.cls-18,.cls-20,.cls-26,.cls-36,.cls-37,.cls-39,.cls-41,.cls-5{fill:none;}.cls-2{fill:#dceeff;}.cls-3,.cls-7{fill:#ecf6ff;}.cls-4{fill:#cce3ff;}.cls-5{stroke:#cce3ff;}.cls-18,.cls-20,.cls-26,.cls-36,.cls-37,.cls-39,.cls-41,.cls-5,.cls-7{stroke-miterlimit:10;}.cls-39,.cls-5{stroke-width:5px;}.cls-6{fill:#b6d4ff;}.cls-7{stroke:#dceeff;stroke-width:20px;}.cls-39,.cls-7{stroke-linecap:round;}.cls-8{fill:#16181e;}.cls-9{fill:#3b4349;}.cls-10{clip-path:url(#clip-path);}.cls-11{fill:#fff;}.cls-12{fill:#6e7782;}.cls-13{fill:#818d96;}.cls-14{fill:#262933;opacity:0.51;}.cls-15{fill:#69737c;}.cls-16{fill:#2e323d;}.cls-17{fill:#ffc000;}.cls-18,.cls-39{stroke:#ffc000;}.cls-18{stroke-width:8px;}.cls-19{fill:#6ca1ff;}.cls-20{stroke:#6ca1ff;}.cls-20,.cls-26{stroke-width:7px;}.cls-21{fill:#edeff4;}.cls-22{fill:#696977;}.cls-23{fill:#9797a0;}.cls-24{fill:#828196;}.cls-25{fill:#a7a7bc;}.cls-26{stroke:#464f56;}.cls-27{fill:#7d8089;}.cls-28{fill:#e576c6;}.cls-29{fill:#0d0b6d;}.cls-30{fill:#774829;}.cls-31{fill:#cf3e83;}.cls-32{fill:#181821;}.cls-33{fill:#a5acaf;}.cls-34{fill:#c0c9cc;}.cls-35{fill:#405fd3;}.cls-36{stroke:#c94791;}.cls-36,.cls-41{stroke-width:3px;}.cls-37{stroke:#032466;stroke-width:9px;}.cls-38{fill:#555468;}.cls-40{fill:#515166;}.cls-41{stroke:#182084;}.cls-42{fill:#1a1d21;}.cls-43{fill:#2b2a38;}</style><clipPath id="clip-path" transform="translate(-98.24 -116.86)"><rect class="cls-1" x="861.28" y="331.38" width="367.28" height="776.56" rx="24.08"/></clipPath></defs><title>back and obj 10</title><g id="Back"><rect class="cls-2" x="266.77" y="373.34" width="60.23" height="23.18"/><rect class="cls-3" x="327" y="373.34" width="1182.23" height="23.18"/><path class="cls-3" d="M512.17,393.77v96.44h-42.3V393.77a31.36,31.36,0,0,1,4.51-16.2l9.27-15.36V325.08H498.4v37.13l9.26,15.36A31.36,31.36,0,0,1,512.17,393.77Z" transform="translate(-98.24 -116.86)"/><rect class="cls-2" x="371.64" y="292.15" width="14.82" height="60.76"/><rect class="cls-2" x="266.77" y="165.13" width="60.23" height="23.18"/><rect class="cls-3" x="327" y="165.13" width="1182.23" height="23.18"/><path class="cls-3" d="M501.36,199.83v82.68h-50.1V199.83a21.63,21.63,0,0,1,5.34-13.9l11-13.17V140.92h17.48v31.84l11,13.17A21.68,21.68,0,0,1,501.36,199.83Z" transform="translate(-98.24 -116.86)"/><rect class="cls-2" x="374.46" y="97.79" width="28.66" height="52.1"/><path class="cls-2" d="M606.71,393.77v96.44h-42.3V393.77a31.36,31.36,0,0,1,4.51-16.2l9.26-15.36V325.08h14.76v37.13l9.26,15.36A31.36,31.36,0,0,1,606.71,393.77Z" transform="translate(-98.24 -116.86)"/><rect class="cls-4" x="466.17" y="292.15" width="26.11" height="60.76"/><path class="cls-2" d="M668.55,393.77v96.44H626.26V393.77a31.36,31.36,0,0,1,4.51-16.2L640,362.21V325.08h14.75v37.13L664,377.57A31.36,31.36,0,0,1,668.55,393.77Z" transform="translate(-98.24 -116.86)"/><rect class="cls-4" x="540.27" y="292.15" width="30.05" height="60.76"/><path class="cls-2" d="M1186.21,185.56V282h-42.3V185.56a31.39,31.39,0,0,1,4.51-16.21l9.27-15.36V116.86h14.75V154l9.26,15.36A31.39,31.39,0,0,1,1186.21,185.56Z" transform="translate(-98.24 -116.86)"/><rect class="cls-4" x="1061.86" y="83.94" width="26.11" height="60.76"/><path class="cls-3" d="M1275,198.17V282h-48.47V198.17a22.61,22.61,0,0,1,5.16-14.09l10.62-13.35V138.46h16.9v32.27l10.62,13.35A22.62,22.62,0,0,1,1275,198.17Z" transform="translate(-98.24 -116.86)"/><rect class="cls-2" x="1128.24" y="94.56" width="29.92" height="52.81"/><path class="cls-2" d="M1337.59,185.56V282H1295.3V185.56a31.39,31.39,0,0,1,4.51-16.21l9.26-15.36V116.86h14.75V154l9.27,15.36A31.38,31.38,0,0,1,1337.59,185.56Z" transform="translate(-98.24 -116.86)"/><rect class="cls-4" x="1209.07" y="83.94" width="30.29" height="60.76"/><path class="cls-3" d="M816.54,403.39v86.82H763.35V403.39a22.62,22.62,0,0,1,5.67-14.6L780.67,375V341.54h18.55V375l11.65,13.82A22.62,22.62,0,0,1,816.54,403.39Z" transform="translate(-98.24 -116.86)"/><rect class="cls-2" x="665.11" y="300.25" width="32.84" height="54.7"/><path class="cls-2" d="M1226.48,391.41v98.8h-42.3v-98.8a32.77,32.77,0,0,1,4.51-16.61l9.26-15.73V321h14.75v38L1222,374.8A32.77,32.77,0,0,1,1226.48,391.41Z" transform="translate(-98.24 -116.86)"/><rect class="cls-4" x="1093.99" y="290.16" width="34.25" height="62.25"/><path class="cls-2" d="M1525.2,393.77v96.44h-42.3V393.77a31.36,31.36,0,0,1,4.51-16.2l9.26-15.36V325.08h14.75v37.13l9.27,15.36A31.36,31.36,0,0,1,1525.2,393.77Z" transform="translate(-98.24 -116.86)"/><rect class="cls-4" x="1384.66" y="292.15" width="26.11" height="60.76"/><path class="cls-3" d="M1473.44,185.56V282h-42.29V185.56a31.38,31.38,0,0,1,4.5-16.21l9.27-15.36V116.86h14.75V154l9.26,15.36A31.39,31.39,0,0,1,1473.44,185.56Z" transform="translate(-98.24 -116.86)"/><rect class="cls-2" x="1332.91" y="83.94" width="31.86" height="60.76"/><path class="cls-2" d="M1118,400.51v89.7h-42.29v-89.7a27.67,27.67,0,0,1,4.51-15.07l9.26-14.29V336.62h14.75v34.53l9.26,14.29A27.67,27.67,0,0,1,1118,400.51Z" transform="translate(-98.24 -116.86)"/><rect class="cls-4" x="986.48" y="297.83" width="33.3" height="56.52"/><path class="cls-3" d="M1048.27,393.77v96.44H1006V393.77a31.36,31.36,0,0,1,4.51-16.2l9.27-15.36V325.08h14.75v37.13l9.26,15.36A31.36,31.36,0,0,1,1048.27,393.77Z" transform="translate(-98.24 -116.86)"/><rect class="cls-2" x="907.74" y="292.15" width="35.49" height="60.76"/><path class="cls-3" d="M661.8,185.56V282H619.5V185.56A31.39,31.39,0,0,1,624,169.35L633.28,154V116.86H648V154l9.26,15.36A31.39,31.39,0,0,1,661.8,185.56Z" transform="translate(-98.24 -116.86)"/><rect class="cls-2" x="521.27" y="83.94" width="26.11" height="60.76"/><path class="cls-3" d="M1080.23,188.11V282h-45.34V188.11a28.49,28.49,0,0,1,4.83-15.78l9.93-15V121.23h15.82v36.15l9.93,15A28.49,28.49,0,0,1,1080.23,188.11Z" transform="translate(-98.24 -116.86)"/><rect class="cls-2" x="948.98" y="86.09" width="33.02" height="59.15"/><path class="cls-2" d="M974.39,199.61V282h-48V199.61a22.08,22.08,0,0,1,5.11-13.85L942,172.64V140.92h16.73v31.72l10.5,13.12A22.09,22.09,0,0,1,974.39,199.61Z" transform="translate(-98.24 -116.86)"/><rect class="cls-4" x="828.19" y="95.77" width="21.24" height="51.91"/><path class="cls-3" d="M899,185.56V282h-42.3V185.56a31.39,31.39,0,0,1,4.51-16.21L870.45,154V116.86h14.76V154l9.26,15.36A31.39,31.39,0,0,1,899,185.56Z" transform="translate(-98.24 -116.86)"/><rect class="cls-2" x="758.44" y="83.94" width="32.16" height="60.76"/><rect class="cls-4" x="208.69" y="488.83" width="1197.12" height="324.61"/><rect class="cls-2" x="173.46" y="454.83" width="1267.59" height="34"/><rect class="cls-2" x="198.4" y="759.97" width="1217.7" height="110.16"/><rect class="cls-2" x="356.82" y="488.83" width="1197.12" height="324.61"/><rect class="cls-4" x="339.76" y="472.63" width="1214.18" height="28.15"/><rect class="cls-3" x="339.76" y="454.83" width="1243.69" height="34"/><rect class="cls-3" x="351.07" y="759.97" width="1212.99" height="110.16"/><path class="cls-3" d="M1313.19,657.14V831.92H1097.48V657.14h215.71m21-21H1076.48V852.92h257.71V636.14Z" transform="translate(-98.24 -116.86)"/><path class="cls-3" d="M1020.47,657.14V831.92H804.75V657.14h215.72m21-21H783.75V852.92h257.72V636.14Z" transform="translate(-98.24 -116.86)"/><path class="cls-3" d="M727.74,657.14V831.92H512V657.14H727.74m21-21H491V852.92H748.74V636.14Z" transform="translate(-98.24 -116.86)"/><path class="cls-3" d="M1605.92,657.14V831.92H1390.21V657.14h215.71m21-21H1369.21V852.92h257.71V636.14Z" transform="translate(-98.24 -116.86)"/><polygon class="cls-4" points="396.77 419.43 430.32 419.43 423.13 454.83 403.96 454.83 396.77 419.43"/><polygon class="cls-4" points="464.3 419.43 497.85 419.43 490.66 454.83 471.49 454.83 464.3 419.43"/><polygon class="cls-4" points="383.06 454.83 349.5 454.83 356.69 419.43 375.87 419.43 383.06 454.83"/><polygon class="cls-4" points="383.06 441.5 349.5 441.5 356.69 406.09 375.87 406.09 383.06 441.5"/><path class="cls-2" d="M1346.65,447.86h24.95a5.68,5.68,0,0,1,5.68,5.68v1.68a0,0,0,0,1,0,0H1341a0,0,0,0,1,0,0v-1.68A5.68,5.68,0,0,1,1346.65,447.86Z"/><rect class="cls-2" x="1354.21" y="412.68" width="9.83" height="36.86"/><path class="cls-2" d="M1238.24,447.86h24.95a5.68,5.68,0,0,1,5.68,5.68v1.68a0,0,0,0,1,0,0h-36.3a0,0,0,0,1,0,0v-1.68A5.68,5.68,0,0,1,1238.24,447.86Z"/><rect class="cls-2" x="1245.8" y="412.68" width="9.83" height="36.86"/><path class="cls-2" d="M1489.78,499c0,22-14.51,39.84-32.42,39.84S1425,521,1425,499" transform="translate(-98.24 -116.86)"/><polyline class="cls-5" points="1258.05 408.21 1278.98 357.44 1308.21 344.52"/><path class="cls-2" d="M1381.37,499c0,22-14.51,39.84-32.42,39.84S1316.54,521,1316.54,499" transform="translate(-98.24 -116.86)"/><rect class="cls-4" x="648.48" y="669.24" width="25.85" height="314.72" transform="translate(1224.57 1536.33) rotate(-180)"/><rect class="cls-4" x="590.09" y="825.27" width="142.62" height="14.56" rx="7.04" transform="translate(1224.57 1548.25) rotate(-180)"/><path class="cls-4" d="M730.36,983.8H592.45c-3.5,0-4.69-4.84-1.6-6.56,23.28-13,70.55-43.67,70.55-79.5,0,35.83,47.28,66.54,70.56,79.5C735.05,979,733.87,983.8,730.36,983.8Z" transform="translate(-98.24 -116.86)"/><rect class="cls-6" x="582.87" y="645.23" width="157.08" height="36.31" rx="11.67" transform="translate(1224.57 1209.91) rotate(-180)"/><path class="cls-4" d="M594.53,662.76H728.28a11.67,11.67,0,0,1,11.67,11.67v16.11a0,0,0,0,1,0,0H582.87a0,0,0,0,1,0,0V674.42A11.67,11.67,0,0,1,594.53,662.76Z" transform="translate(1224.57 1236.43) rotate(-180)"/><rect class="cls-4" x="966.48" y="669.24" width="25.85" height="314.72" transform="translate(1860.57 1536.33) rotate(-180)"/><rect class="cls-4" x="908.09" y="825.27" width="142.62" height="14.56" rx="7.04" transform="translate(1860.57 1548.25) rotate(-180)"/><path class="cls-4" d="M1048.36,983.8H910.45c-3.5,0-4.69-4.84-1.6-6.56,23.28-13,70.55-43.67,70.55-79.5,0,35.83,47.28,66.54,70.56,79.5C1053.05,979,1051.87,983.8,1048.36,983.8Z" transform="translate(-98.24 -116.86)"/><rect class="cls-6" x="900.87" y="645.23" width="157.08" height="36.31" rx="11.67" transform="translate(1860.57 1209.91) rotate(-180)"/><path class="cls-4" d="M912.53,662.76h133.75a11.67,11.67,0,0,1,11.67,11.67v16.11a0,0,0,0,1,0,0H900.87a0,0,0,0,1,0,0V674.42A11.67,11.67,0,0,1,912.53,662.76Z" transform="translate(1860.57 1236.43) rotate(-180)"/><rect class="cls-4" x="1284.48" y="669.24" width="25.85" height="314.72" transform="translate(2496.57 1536.33) rotate(-180)"/><rect class="cls-4" x="1226.09" y="825.27" width="142.62" height="14.56" rx="7.04" transform="translate(2496.57 1548.25) rotate(-180)"/><path class="cls-4" d="M1366.36,983.8H1228.45c-3.5,0-4.69-4.84-1.6-6.56,23.28-13,70.55-43.67,70.55-79.5,0,35.83,47.28,66.54,70.56,79.5C1371.05,979,1369.87,983.8,1366.36,983.8Z" transform="translate(-98.24 -116.86)"/><rect class="cls-6" x="1218.87" y="645.23" width="157.08" height="36.31" rx="11.67" transform="translate(2496.57 1209.91) rotate(-180)"/><path class="cls-4" d="M1230.53,662.76h133.75a11.67,11.67,0,0,1,11.67,11.67v16.11a0,0,0,0,1,0,0H1218.87a0,0,0,0,1,0,0V674.42A11.67,11.67,0,0,1,1230.53,662.76Z" transform="translate(2496.57 1236.43) rotate(-180)"/><rect class="cls-4" x="1602.48" y="669.24" width="25.85" height="314.72" transform="translate(3132.57 1536.33) rotate(-180)"/><rect class="cls-4" x="1544.09" y="825.27" width="142.62" height="14.56" rx="7.04" transform="translate(3132.57 1548.25) rotate(-180)"/><path class="cls-4" d="M1684.36,983.8H1546.45c-3.5,0-4.69-4.84-1.6-6.56,23.28-13,70.55-43.67,70.55-79.5,0,35.83,47.28,66.54,70.56,79.5C1689.05,979,1687.87,983.8,1684.36,983.8Z" transform="translate(-98.24 -116.86)"/><rect class="cls-6" x="1536.87" y="645.23" width="157.08" height="36.31" rx="11.67" transform="translate(3132.57 1209.91) rotate(-180)"/><path class="cls-4" d="M1548.53,662.76h133.75a11.67,11.67,0,0,1,11.67,11.67v16.11a0,0,0,0,1,0,0H1536.87a0,0,0,0,1,0,0V674.42A11.67,11.67,0,0,1,1548.53,662.76Z" transform="translate(3132.57 1236.43) rotate(-180)"/><line class="cls-7" x1="1761.38" y1="875.56" x2="10" y2="875.56"/></g><g id="Man"><rect class="cls-8" x="733.73" y="184.56" width="467.68" height="836.47" rx="36.65"/><rect class="cls-9" x="734.73" y="184.56" width="423.9" height="836.47" rx="36.65"/><g class="cls-10"><rect class="cls-11" x="745.23" y="194.62" width="397.7" height="810.56"/><rect class="cls-12" x="760.27" y="585.69" width="372.82" height="405.39"/><rect class="cls-13" x="1088.37" y="585.69" width="24.43" height="405.39"/><rect class="cls-13" x="1044.55" y="585.69" width="24.43" height="405.39"/><rect class="cls-13" x="1000.73" y="585.69" width="24.43" height="405.39"/><rect class="cls-13" x="956.91" y="585.69" width="24.43" height="405.39"/><rect class="cls-13" x="913.09" y="585.69" width="24.43" height="405.39"/><rect class="cls-13" x="869.26" y="585.69" width="24.43" height="405.39"/><rect class="cls-13" x="825.44" y="585.69" width="24.43" height="405.39"/><rect class="cls-13" x="781.62" y="585.69" width="24.43" height="405.39"/><rect class="cls-14" x="763.04" y="585.69" width="367.28" height="46.74"/><rect class="cls-15" x="696" y="561.26" width="434.32" height="24.43"/><rect class="cls-16" x="1028.98" y="561.26" width="101.34" height="24.43"/><circle class="cls-17" cx="1115.52" cy="371.75" r="25.13"/><line class="cls-18" x1="1115.52" y1="214.51" x2="1115.52" y2="308.28"/><path class="cls-15" d="M1269.7,491.66H1157.82a12.18,12.18,0,0,1-8.61-20.79l55.93-55.94a12.2,12.2,0,0,1,17.23,0l55.94,55.94A12.18,12.18,0,0,1,1269.7,491.66Z" transform="translate(-98.24 -116.86)"/><circle class="cls-17" cx="867.63" cy="371.75" r="25.13"/><line class="cls-18" x1="867.63" y1="215" x2="867.63" y2="308.28"/><path class="cls-15" d="M1021.81,491.66H909.93a12.18,12.18,0,0,1-8.61-20.79l55.93-55.94a12.2,12.2,0,0,1,17.23,0l55.94,55.94A12.18,12.18,0,0,1,1021.81,491.66Z" transform="translate(-98.24 -116.86)"/><path class="cls-19" d="M1132,627.56c0,19.3,2,37,5.43,50.63H1173c3.38-13.68,5.42-31.33,5.42-50.63" transform="translate(-98.24 -116.86)"/><path class="cls-20" d="M1133.78,636a15,15,0,0,0,5.76,29.52" transform="translate(-98.24 -116.86)"/><rect class="cls-21" x="812.68" y="680.95" width="268.77" height="257.18" rx="25.59"/><rect class="cls-19" x="844.3" y="867.91" width="205.53" height="46.56" rx="11.33"/><path class="cls-22" d="M1119.13,835.06a1.32,1.32,0,0,1-.09.48c-1.76,5.5-34.11,9.87-73.74,9.87s-72-4.37-73.74-9.87a1.32,1.32,0,0,1-.09-.48c0-5.72,33.06-10.35,73.83-10.35S1119.13,829.34,1119.13,835.06Z" transform="translate(-98.24 -116.86)"/><ellipse class="cls-17" cx="947.06" cy="725.59" rx="54.22" ry="10.36"/><path class="cls-23" d="M1119.13,835.54a73.83,73.83,0,0,1-147.66,0h.09c1.76,5.5,34.11,9.87,73.74,9.87s72-4.37,73.74-9.87Z" transform="translate(-98.24 -116.86)"/><rect class="cls-21" x="901.38" y="886.05" width="91.36" height="10.28"/><rect class="cls-24" x="890.47" y="811.86" width="113.18" height="15.57"/><rect class="cls-25" x="899.18" y="836.45" width="95.76" height="5.28"/><rect class="cls-25" x="899.18" y="845.89" width="58.1" height="5.28"/></g><rect class="cls-9" x="842.93" y="184.56" width="207.49" height="63.64" rx="24.92"/><rect x="900.62" y="211.3" width="77.58" height="10.17" rx="4.08"/><circle cx="996.99" cy="216.38" r="8.47"/><rect class="cls-26" x="1184.17" y="303.25" width="37.54" height="59.09"/><rect class="cls-26" x="1184.17" y="396.39" width="37.54" height="59.09"/><ellipse class="cls-27" cx="927.17" cy="1021.23" rx="383.15" ry="3.62"/><path class="cls-28" d="M984.16,589.45h0c-4.9-4.56-9.48-4.91-7.27-7.15l18.53-20.39c2.22-2.24,8.22,4.08,9.93,6.42,2.6,3.56,7.88,14,6,16.71l-14.2,8.63C994.9,595.91,989.07,594,984.16,589.45Z" transform="translate(-98.24 -116.86)"/><path class="cls-28" d="M994.09,564.19h0a4.34,4.34,0,0,1,5.73-1.71l14,7.64c2,1.06.18,3.47-.65,4.14a6.36,6.36,0,0,1-6,.91l-11.43-5.43A4,4,0,0,1,994.09,564.19Z" transform="translate(-98.24 -116.86)"/><polygon class="cls-29" points="715.69 759.29 686.45 801.51 702.78 835.39 740.29 854.77 682.38 854.77 643 808.06 692.72 733.92 715.69 759.29"/><polygon class="cls-30" points="917.02 480.53 925.86 484.78 921.63 476.14 868.41 423.68 863.81 428.07 917.02 480.53"/><polygon class="cls-30" points="917.06 482.92 924.46 489.23 922.65 479.79 885.16 415.74 879.57 418.87 917.06 482.92"/><polygon class="cls-28" points="887.69 480.9 800 531.14 780.46 504.51 883.06 463.32 887.69 480.9"/><path class="cls-28" d="M972.38,600l15.54.75a30.71,30.71,0,0,0,8.48-2.9c4.78-2.37,6.53-3.78,15.72-5.09,6.4-.9,2-6-2.18-7s-18,5.69-18.78,1S971.7,589.4,972.38,600Z" transform="translate(-98.24 -116.86)"/><path class="cls-28" d="M1010.43,569.35h0a4.23,4.23,0,0,1,5,3.3l2.08,15.44c.34,2.19-2.86,2.31-3.94,2.09a6,6,0,0,1-4.5-4L1006.67,574A4.28,4.28,0,0,1,1010.43,569.35Z" transform="translate(-98.24 -116.86)"/><polygon class="cls-31" points="689.24 728.64 660.18 782.42 686.45 801.14 715.69 759.15 689.24 728.64"/><polygon class="cls-32" points="744.33 612.01 655.6 768.46 704.53 795.02 823.46 616.52 744.33 612.01"/><rect class="cls-33" x="817.14" y="808.11" width="28.04" height="329.98" transform="translate(1564.07 1829.34) rotate(-180)"/><rect class="cls-34" x="749.29" y="971.72" width="163.73" height="15.27" rx="7.63" transform="translate(1564.07 1841.84) rotate(180)"/><path class="cls-29" d="M901.91,453.86s27.43,33.37-8.92,43" transform="translate(-98.24 -116.86)"/><polygon class="cls-35" points="800.72 385.58 809.25 403.26 800.09 403.81 800.72 385.58"/><path class="cls-28" d="M810.1,499.48c-2.79-7.55,2.67,33.43,2.67,33.43l-4.92,37.43,44.71,9.19-.21-38.32s38.51,2.22,46.48-2c0,0,5.5-36.35-.72-61.95l-32-27-50.91,4.51Z" transform="translate(-98.24 -116.86)"/><path class="cls-36" d="M848.82,523.32s-20.52-3.14-28.7-16.35" transform="translate(-98.24 -116.86)"/><path class="cls-29" d="M926.44,911.62,916,944.09s37.26,20.36,58.1,48.33l-116.93-27,49.67-67.29Z" transform="translate(-98.24 -116.86)"/><polygon class="cls-31" points="807.86 780.78 781.62 817.65 817.73 827.22 841.68 799.28 807.86 780.78"/><path class="cls-29" d="M811.48,522.75c-12,1-31.85-40.76-15-65.65,22.72-33.59,51.3-20.27,51.3-20.27s6.77-29.48,26.83-29.75c28.58-.37,33.69,42.2,33.69,42.2s6.75-23.32,15-20.14,12.46,71.71-52.29,46.3c0,0,2.81,21.16-12.55,21.79-6.62.28-9.65-8.58-9.65-8.58s-14,14.16-24.16,21C824.63,509.65,817,522.27,811.48,522.75Z" transform="translate(-98.24 -116.86)"/><polyline class="cls-37" points="707.36 307.36 714.1 328.75 707.74 331.89 693.73 318.56"/><path class="cls-33" d="M921.81,1138.09H740.5a4.43,4.43,0,0,1-2.11-8.34c30.61-16.47,92.76-55.5,92.76-101,0,45.54,62.16,84.57,92.77,101A4.43,4.43,0,0,1,921.81,1138.09Z" transform="translate(-98.24 -116.86)"/><rect class="cls-38" x="745.96" y="782.94" width="170.39" height="38.07" rx="11.67" transform="translate(1564.07 1487.09) rotate(-180)"/><path class="cls-34" d="M757.63,801.32H904.68A11.67,11.67,0,0,1,916.35,813v17.46a0,0,0,0,1,0,0H746a0,0,0,0,1,0,0V813A11.67,11.67,0,0,1,757.63,801.32Z" transform="translate(1564.07 1514.9) rotate(-180)"/><path class="cls-24" d="M1088.88,626.21a1,1,0,0,1-.07.28c-1.26,3.19-20.65,4.46-44.22,2.82s-42.61-5.57-43.41-8.9a.74.74,0,0,1,0-.29c.23-3.4,20.07-4.79,44.29-3.11S1089.11,622.81,1088.88,626.21Z" transform="translate(-98.24 -116.86)"/><path class="cls-17" d="M1078.41,631.34a.63.63,0,0,1-.06.27c-1,3.21-15.86,4.8-33.86,3.55s-32.49-4.87-33-8.19a.67.67,0,0,1,0-.28c.24-3.4,15.43-5.12,33.92-3.83S1078.65,627.94,1078.41,631.34Z" transform="translate(-98.24 -116.86)"/><line class="cls-39" x1="920.14" y1="481.17" x2="920.14" y2="531.14"/><line class="cls-39" x1="924.31" y1="479.67" x2="924.31" y2="529.64"/><path class="cls-40" d="M1088.86,626.49a44,44,0,1,1-87.73-6.09h0c.8,3.33,19.84,7.27,43.41,8.9s43,.37,44.22-2.82Z" transform="translate(-98.24 -116.86)"/><polygon class="cls-31" points="754.11 424.35 736.3 422.43 754.17 435.54 754.11 424.35"/><path class="cls-41" d="M897.58,527s-4.63,0-5.71-3.61" transform="translate(-98.24 -116.86)"/><path class="cls-42" d="M976.91,491.44" transform="translate(-98.24 -116.86)"/><ellipse class="cls-29" cx="896.43" cy="506.14" rx="3.15" ry="5.27" transform="translate(-113.38 -89.06) rotate(-1.76)"/><path class="cls-43" d="M950.18,782.94l-71.1,132.93,58,22,107.79-171.81c8.89-18.78-4.81-48.42-25.59-48.42l-262.09-15v35.41a44.89,44.89,0,0,0,44.9,44.89Z" transform="translate(-98.24 -116.86)"/><path class="cls-28" d="M964.64,694.69l62.83-23-6.23-23L957.14,662l-38.38-61.5-40.32,25,47.31,64.39C932.84,698.36,947.12,699.83,964.64,694.69Z" transform="translate(-98.24 -116.86)"/><path class="cls-19" d="M756.67,708.14,872,710.36l10.79-64.81,12,18.32,59.62-33.56c-31.34-49.51-47.65-61.73-63.62-68-11.55-4.55-16.15-5.51-26.71-7.22-24-3.87-37-3.44-61.52,2.23-13.66,3.16-32.13,17.08-41.45,39.21C749.23,624.49,756.67,708.14,756.67,708.14Z" transform="translate(-98.24 -116.86)"/><path class="cls-28" d="M804.49,556.9c-3.46,2.31-4.59,11,10.53,10.91,19-.16,37.14-5.81,40.65-13.94C831.69,550,823.66,552,804.49,556.9Z" transform="translate(-98.24 -116.86)"/><path class="cls-28" d="M1017.44,650.6l19-13a93.69,93.69,0,0,1,9.88-3.69c5.37-1.64,7.74-1.83,15.6-7.46,5.48-3.93,6,3.16,3.68,6.89s-17.75,8.65-14.82,12.76,14.09,10,26.61,6.34c1.69-.5,7,5.24-5,17.1-5.92,5.84-18.68,10.74-24.21,9,0,0-15.75-4.56-22.07-6.68S1024.92,659.09,1017.44,650.6Z" transform="translate(-98.24 -116.86)"/><polygon class="cls-35" points="784.5 528.69 773.55 509.23 777.45 571.05 784.5 528.69"/><path class="cls-28" d="M820.06,505.15c6.57,14.43,32.93,17.76,32.93,17.76l-.91-7.36-3.29-26.9c-2.94-7.42-25.57-13.27-29.69,5.33A17.3,17.3,0,0,0,820.06,505.15Z" transform="translate(-98.24 -116.86)"/><path class="cls-36" d="M845.14,510.42s-6-.45-5.19-5.44c.79-4.82,5.64-5.11,5.64-5.11s-1.69-12.34-13.32-10.16" transform="translate(-98.24 -116.86)"/></g></svg>