<svg xmlns="http://www.w3.org/2000/svg" viewBox="0 0 1771.38 920.9"><defs><style>.cls-1,.cls-13,.cls-14,.cls-15,.cls-17,.cls-19,.cls-22,.cls-26,.cls-35,.cls-37,.cls-41,.cls-42,.cls-5{fill:none;}.cls-1{stroke:#ecf6ff;}.cls-1,.cls-11,.cls-13,.cls-14,.cls-15,.cls-17,.cls-19,.cls-22,.cls-26,.cls-35,.cls-37,.cls-41,.cls-42,.cls-5,.cls-7,.cls-8,.cls-9{stroke-miterlimit:10;}.cls-1,.cls-14,.cls-17{stroke-width:10px;}.cls-11,.cls-2{fill:#ecf6ff;}.cls-3,.cls-8,.cls-9{fill:#fff;}.cls-4{fill:#b6d4ff;}.cls-11,.cls-5,.cls-7,.cls-8,.cls-9{stroke:#dceeff;}.cls-5{stroke-width:15px;}.cls-6,.cls-7{fill:#dceeff;}.cls-35,.cls-7,.cls-8{stroke-width:9px;}.cls-19,.cls-37,.cls-9{stroke-width:2px;}.cls-10{fill:#cce3ff;}.cls-11,.cls-37{stroke-linecap:round;}.cls-11{stroke-width:20px;}.cls-12{fill:#4866e5;}.cls-13,.cls-17{stroke:#6ca1ff;}.cls-13,.cls-42{stroke-width:4px;}.cls-14,.cls-22{stroke:#4866e5;}.cls-15{stroke:#3043b2;}.cls-15,.cls-22{stroke-width:13px;}.cls-16{fill:#6ca1ff;}.cls-18{fill:#cf3e83;}.cls-19{stroke:#1a1d21;}.cls-20{fill:#ffc000;}.cls-21{fill:#d6d6e8;}.cls-23{fill:#a0a3af;}.cls-24{fill:#db8b21;}.cls-25{fill:#afb2bf;}.cls-26{stroke:#51555b;stroke-width:8px;}.cls-27{fill:#525866;}.cls-28{fill:#9da8b2;}.cls-29{fill:#e576c6;}.cls-30{fill:#0d0b6d;}.cls-31{fill:#656b7c;}.cls-32{fill:#240040;}.cls-33{fill:#1a1d21;}.cls-34{fill:#402768;}.cls-35{stroke:#0d0b6d;}.cls-36{fill:#405fd3;}.cls-37{stroke:#c14999;}.cls-38{fill:#0f0f11;}.cls-39{fill:#30303d;}.cls-40{fill:#17307f;}.cls-41{stroke:#182084;stroke-width:3px;}.cls-42{stroke:#3253a5;}</style></defs><title>back and obj 9</title><g id="Back"><line class="cls-1" x1="1113.29" y1="516" x2="1172.75" y2="793.85"/><rect class="cls-2" x="13.49" y="750.15" width="1744.4" height="56.8"/><rect class="cls-2" x="13.49" y="722.29" width="1744.4" height="14.52"/><rect class="cls-3" x="227.99" width="313.69" height="586.1"/><rect class="cls-2" x="495.85" y="13.16" width="29.67" height="558.5"/><rect class="cls-4" x="218.39" width="9.6" height="586.1"/><line class="cls-5" x1="336.28" y1="0.2" x2="336.28" y2="292.41"/><line class="cls-5" x1="434.48" y1="0.2" x2="434.48" y2="292.41"/><line class="cls-5" x1="227.99" y1="293.05" x2="505.05" y2="293.05"/><path class="cls-6" d="M644.32,269.62v528.1H388.62V269.62h255.7m29-29H359.62v586.1h313.7V240.62Z" transform="translate(-131.64 -240.62)"/><rect class="cls-2" x="509.85" y="625.42" width="13.24" height="329.45" transform="translate(1174.98 33.06) rotate(90)"/><rect class="cls-4" x="341.06" y="786.08" width="13.24" height="8.13" transform="translate(1006.19 201.85) rotate(90)"/><rect class="cls-3" x="1254.45" width="313.69" height="586.1"/><rect class="cls-2" x="1522.31" y="13.16" width="29.67" height="558.5"/><rect class="cls-4" x="1244.85" width="9.6" height="586.1"/><line class="cls-5" x1="1362.74" y1="0.2" x2="1362.74" y2="292.41"/><line class="cls-5" x1="1460.94" y1="0.2" x2="1460.94" y2="292.41"/><line class="cls-5" x1="1254.45" y1="293.05" x2="1531.51" y2="293.05"/><path class="cls-6" d="M1670.78,269.62v528.1H1415.09V269.62h255.69m29-29H1386.09v586.1h313.69V240.62Z" transform="translate(-131.64 -240.62)"/><rect class="cls-2" x="1536.31" y="625.42" width="13.24" height="329.45" transform="translate(2201.44 -993.4) rotate(90)"/><rect class="cls-4" x="1367.52" y="786.08" width="13.24" height="8.13" transform="translate(2032.65 -824.61) rotate(90)"/><circle class="cls-1" cx="1108.82" cy="497.51" r="21.08"/><rect class="cls-7" x="759.85" y="71.79" width="130.99" height="194.26"/><rect class="cls-8" x="766.94" y="71.79" width="245.5" height="194.26"/><rect class="cls-8" x="789.54" y="92.93" width="200.3" height="151.99"/><rect class="cls-4" x="839.19" y="129.64" width="99.98" height="78.56"/><rect class="cls-6" x="918.65" y="583.12" width="59.92" height="36.04" transform="translate(1418.11 -588.09) rotate(90)"/><rect class="cls-2" x="971.5" y="601.4" width="37.47" height="21.92" transform="translate(1470.97 -618.49) rotate(90)"/><rect class="cls-2" x="900.78" y="594.94" width="42.89" height="29.43" transform="translate(1400.25 -553.19) rotate(90)"/><line class="cls-9" x1="790.59" y1="339.73" x2="790.59" y2="347.59"/><line class="cls-9" x1="816.97" y1="322.7" x2="816.97" y2="330.56"/><line class="cls-9" x1="858.6" y1="345.15" x2="858.6" y2="353.01"/><path class="cls-10" d="M1163.34,598.1c0,14.42-5.54,24.9-14.23,30.79h-38c-8.68-5.89-14.22-16.37-14.22-30.79,0-18.85,2.79-37.69,21.38-68.79H1142C1160.54,560.41,1163.34,579.25,1163.34,598.1Z" transform="translate(-131.64 -240.62)"/><path class="cls-6" d="M1117.08,620.14c0,11-12,11-22.57,11s-24.58-.53-24.58-11.48,14-14.09,24.58-14.09S1117.08,609.19,1117.08,620.14Z" transform="translate(-131.64 -240.62)"/><path class="cls-6" d="M1166.11,623.45c0,6.58,5.82,6.58,10.9,6.58s11.87-.32,11.87-6.89-6.79-8.46-11.87-8.46S1166.11,616.88,1166.11,623.45Z" transform="translate(-131.64 -240.62)"/><rect class="cls-2" x="1000.9" y="847.2" width="32.86" height="335.96" transform="translate(1900.88 -242.76) rotate(90)"/><rect class="cls-2" x="984.37" y="581.96" width="65.91" height="335.96" transform="translate(1635.63 -508.01) rotate(90)"/><rect class="cls-2" x="870.98" y="756.54" width="63.38" height="264.9" transform="translate(1673.71 1537.37) rotate(180)"/><rect class="cls-2" x="1100.29" y="770.54" width="63.38" height="264.9" transform="translate(2132.33 1565.37) rotate(180)"/><rect class="cls-6" x="691.43" y="476.37" width="47.91" height="325.89"/><rect class="cls-6" x="990.17" y="480.35" width="69.54" height="403.73" transform="translate(1575.51 -583.34) rotate(90)"/><rect class="cls-10" x="1017.67" y="428.83" width="14.53" height="422.7" transform="translate(1533.48 -625.37) rotate(90)"/><rect class="cls-6" x="1021.3" y="405.96" width="7.27" height="446.65" transform="translate(1522.58 -636.27) rotate(90)"/><rect class="cls-4" x="676.22" y="476.37" width="15.22" height="325.89"/><rect class="cls-4" x="669.92" y="722.29" width="15.22" height="84.66"/><rect class="cls-4" x="1025.74" y="722.29" width="15.22" height="84.66"/><rect class="cls-4" x="1032.04" y="476.37" width="15.22" height="325.89"/><rect class="cls-4" x="915.83" y="542.28" width="52.83" height="218.41"/><rect class="cls-10" x="802.73" y="542.28" width="113.1" height="218.41"/><rect class="cls-4" x="780.69" y="674.61" width="69.54" height="15.22" transform="translate(1366.04 -373.86) rotate(90)"/><rect class="cls-4" x="798.71" y="632.57" width="14.53" height="15.22" transform="translate(1314.52 -406.41) rotate(90)"/><rect class="cls-4" x="798.71" y="702.11" width="14.53" height="15.22" transform="translate(1384.06 -336.88) rotate(90)"/><rect class="cls-4" x="795.84" y="962.57" width="14.53" height="15.22" transform="translate(1641.65 -73.55) rotate(90)"/><rect class="cls-4" x="790.37" y="621.67" width="7.27" height="15.22" transform="translate(1291.65 -405.33) rotate(90)"/><rect class="cls-6" x="1047.26" y="476.37" width="47.91" height="325.89"/><rect class="cls-6" x="1042.94" y="722.29" width="60.51" height="84.66"/><rect class="cls-6" x="685.13" y="722.29" width="60.51" height="84.66"/><rect class="cls-6" x="1000.95" y="910.62" width="31.14" height="150.23" transform="translate(1870.62 -271.41) rotate(90)"/><polygon class="cls-6" points="817.13 711.91 827.43 682.67 950.39 729.52 940.08 758.76 817.13 711.91"/><polygon class="cls-6" points="824.62 760.1 813.83 727.5 934.08 684.49 944.86 717.08 824.62 760.1"/><rect class="cls-10" x="1017.67" y="498.37" width="14.53" height="422.7" transform="translate(1603.02 -555.83) rotate(90)"/><rect class="cls-10" x="839.76" y="933.87" width="14.53" height="72.61" transform="translate(1685.56 -117.46) rotate(90)"/><rect class="cls-4" x="1153.45" y="962.55" width="14.53" height="15.22" transform="translate(1999.24 -431.17) rotate(90)"/><rect class="cls-10" x="1197.57" y="933.87" width="14.53" height="72.61" transform="translate(2043.37 -475.27) rotate(90)"/><line class="cls-11" x1="1761.38" y1="800" x2="10" y2="800"/></g><g id="Man"><path class="cls-12" d="M875,184.2h19.08a0,0,0,0,1,0,0V211a9.54,9.54,0,0,1-9.54,9.54h0A9.54,9.54,0,0,1,875,211V184.2a0,0,0,0,1,0,0Z"/><line class="cls-13" x1="884.55" y1="162.95" x2="884.55" y2="184.18"/><path class="cls-14" d="M840,430.07s-1.79,32.31,68.26,32.31" transform="translate(-131.64 -240.62)"/><path class="cls-15" d="M977,461.08v71.11a36.82,36.82,0,1,0,73.64,0V461.08" transform="translate(-131.64 -240.62)"/><rect class="cls-16" x="885.27" y="439.15" width="190.77" height="46.31" rx="23.15" transform="translate(1829.67 683.99) rotate(-180)"/><rect class="cls-12" x="1000.14" y="439.15" width="75.9" height="46.31" rx="23.15" transform="translate(1944.54 683.99) rotate(-180)"/><path class="cls-14" d="M921.1,436.25s-.86,27.06,32.59,27.06" transform="translate(-131.64 -240.62)"/><path class="cls-17" d="M1118,430s1.85,32.31-70.15,32.31" transform="translate(-131.64 -240.62)"/><path class="cls-16" d="M1118.26,424.92h0a9.54,9.54,0,0,1,9.54,9.54v26.77a0,0,0,0,1,0,0h-19.08a0,0,0,0,1,0,0V434.46A9.54,9.54,0,0,1,1118.26,424.92Z" transform="translate(2104.88 645.53) rotate(180)"/><path class="cls-12" d="M922.1,424h0a9.54,9.54,0,0,1,9.54,9.54v26.77a0,0,0,0,1,0,0H912.56a0,0,0,0,1,0,0V433.56A9.54,9.54,0,0,1,922.1,424Z" transform="translate(1712.56 643.74) rotate(-180)"/><path class="cls-12" d="M840,425h0a9.54,9.54,0,0,1,9.54,9.54v26.77a0,0,0,0,1,0,0H830.46a0,0,0,0,1,0,0V434.54A9.54,9.54,0,0,1,840,425Z" transform="translate(1548.37 645.69) rotate(180)"/><line class="cls-13" x1="987.09" y1="163.07" x2="987.09" y2="184.31"/><path class="cls-18" d="M1118.72,403.7h34.41c0-4.17-8.19-7.76-20-9.38C1126.7,398.49,1118.72,403.7,1118.72,403.7Z" transform="translate(-131.64 -240.62)"/><path class="cls-19" d="M1087.11,396.92c7.23-5.44,19.39-7.59,30.84-6" transform="translate(-131.64 -240.62)"/><path class="cls-19" d="M987.39,398.87c7.23-5.44,19.39-7.59,30.84-6" transform="translate(-131.64 -240.62)"/><path class="cls-19" d="M890.46,396.56c6.9-5.86,18.9-8.73,30.43-7.82" transform="translate(-131.64 -240.62)"/><path class="cls-19" d="M810.67,398.69c7.23-5.44,19.39-7.59,30.84-6" transform="translate(-131.64 -240.62)"/><polygon class="cls-20" points="827.27 294.08 826.04 310.36 823.38 345.97 822.37 359.29 785.8 359.29 784.8 345.97 782.12 310.36 780.9 294.08 827.27 294.08"/><polygon class="cls-18" points="829.05 308.47 826.01 343.08 782.16 343.08 779.12 308.47 829.05 308.47"/><polygon class="cls-21" points="826.75 294.07 781.42 294.07 783.45 280.69 824.72 280.69 826.75 294.07"/><path class="cls-18" d="M1084.31,403.7c0,3.86,7,7.21,17.43,9l17-9Z" transform="translate(-131.64 -240.62)"/><polygon class="cls-21" points="832.07 298.48 776.11 298.48 778.61 288.7 829.57 288.7 832.07 298.48"/><line class="cls-13" x1="790.46" y1="162.15" x2="790.46" y2="183.38"/><path class="cls-18" d="M922.1,402.78h34.41c0-4.17-8.2-7.76-20-9.39C930.08,397.56,922.1,402.78,922.1,402.78Z" transform="translate(-131.64 -240.62)"/><rect class="cls-16" x="753.01" y="323.39" width="180.77" height="10.02" rx="3.46"/><rect class="cls-12" x="868.54" y="323.39" width="75.87" height="10.02" rx="3.46"/><path class="cls-18" d="M887.68,402.78c0,3.86,7,7.2,17.44,9l17-9Z" transform="translate(-131.64 -240.62)"/><path class="cls-18" d="M1016.18,403.56h34.41c0-4.17-8.19-7.75-20-9.38C1024.16,398.35,1016.18,403.56,1016.18,403.56Z" transform="translate(-131.64 -240.62)"/><path class="cls-18" d="M981.77,403.56c0,3.86,7,7.21,17.43,9l17-9Z" transform="translate(-131.64 -240.62)"/><line class="cls-13" x1="708.37" y1="163.15" x2="708.37" y2="184.38"/><path class="cls-18" d="M840,403.78h34.41c0-4.17-8.19-7.76-20-9.39C848,398.56,840,403.78,840,403.78Z" transform="translate(-131.64 -240.62)"/><path class="cls-18" d="M805.59,403.78c0,3.86,7,7.2,17.43,9l17-9Z" transform="translate(-131.64 -240.62)"/><path class="cls-22" d="M910.32,460c-12.63,0-12.63,11.33-12.63,11.33v60.91A36.83,36.83,0,0,0,934.51,569c10.17,0,20.37-3.12,27-9.79s9.78-11.62,9.78-24V476s-.91-13.92,13.86-13.92" transform="translate(-131.64 -240.62)"/><path class="cls-19" d="M866,409.47c-7.23,5.44-19.39,7.59-30.84,6" transform="translate(-131.64 -240.62)"/><path class="cls-19" d="M1046.74,410.5c-7.23,5.44-19.39,7.59-30.84,6" transform="translate(-131.64 -240.62)"/><path class="cls-19" d="M1156.09,401.54c5.43,6.74-7.34,12.41-18.86,13.48" transform="translate(-131.64 -240.62)"/><path class="cls-19" d="M961.71,400.53c5.44,6.73-7.33,12.41-18.85,13.47" transform="translate(-131.64 -240.62)"/><polygon class="cls-23" points="790.34 288.7 782.24 288.7 825.93 288.7 825.39 285.1 790.34 288.7"/><polygon class="cls-24" points="781.23 298.48 781.38 300.47 826.61 302.85 826.94 298.48 781.23 298.48"/><ellipse class="cls-25" cx="526.54" cy="917.29" rx="297.9" ry="3.62"/><line class="cls-26" x1="727.69" y1="869.54" x2="727.69" y2="917.29"/><line class="cls-26" x1="594.76" y1="869.54" x2="594.76" y2="917.29"/><line class="cls-26" x1="415.89" y1="869.54" x2="415.89" y2="917.29"/><line class="cls-26" x1="282.97" y1="869.54" x2="282.97" y2="917.29"/><path class="cls-27" d="M900.4,870.1v246.5H684.89V870.1a18.41,18.41,0,0,1,18.41-18.41H882A18.41,18.41,0,0,1,900.4,870.1Z" transform="translate(-131.64 -240.62)"/><path class="cls-28" d="M900.4,870.1v246.5H817.81V870.1a18.41,18.41,0,0,1,18.41-18.41H882A18.41,18.41,0,0,1,900.4,870.1Z" transform="translate(-131.64 -240.62)"/><path class="cls-29" d="M876.4,589.86c-3.22,3.81-13.22,10.19-21.08,18.06-6.1,6.11-9.09,11.9-17.61,18.76a53.83,53.83,0,0,1-9.87,6l-22,24.72-.88-38.85-.5-8.68a121.27,121.27,0,0,1,.79-12.56c.78-6.52,5.28-14.23.52-25.74s6.62-3.56,9.14,1.91c2.1,4.56,1,14.15,3.57,17.66a16,16,0,0,0,3.63-2.74l24.53-31.82a2.68,2.68,0,0,1,3.42-.76l1.32.72a2.66,2.66,0,0,1,.94,3.84c-4.79,7-19.63,27.65-19.23,27.86l.65.79,28.81-30.38a2.67,2.67,0,0,1,3.52-.42l1.73,1.2a2.64,2.64,0,0,1,.59,3.81c-5.73,7.4-27.23,30.89-26.82,31.12l.86.83,26.82-23.69a2.68,2.68,0,0,1,3.67-.29l1.31,1.07a2.66,2.66,0,0,1,.38,3.76L849.26,599.9l.73,1.15,22-15.45a2.68,2.68,0,0,1,3.55,0l.61.55A2.67,2.67,0,0,1,876.4,589.86Z" transform="translate(-131.64 -240.62)"/><path class="cls-20" d="M531.56,863.38H423.9s53.59-141.71,159-153.23c85.84-9.38,150.87-10.95,218.56-96.68l30,37.4S795,705.44,683.8,753.85c0,0,13.33,77.53,19.07,127.18H564l-25.28-95.11L504,814.31l59.15,15.51S538.13,836.72,531.56,863.38Z" transform="translate(-131.64 -240.62)"/><path class="cls-30" d="M838.35,1100.82l-3.21,29s46.36,8.28,68.58,28.12l-114.16-.24,20.86-62.9Z" transform="translate(-131.64 -240.62)"/><polygon class="cls-18" points="676.43 854.21 667.47 888.18 703.5 889.16 706.22 864.25 676.43 854.21"/><rect class="cls-31" x="457.19" y="693.34" width="200.74" height="182.65"/><path class="cls-32" d="M830.33,930,791.05,1112.6h60.36L909,918.15c5.42-22.77-6.28-48.52-33-48.52H714.69l-2,64.33Z" transform="translate(-131.64 -240.62)"/><path class="cls-33" d="M700.15,669.22" transform="translate(-131.64 -240.62)"/><path class="cls-30" d="M698.05,1100.82l-3.22,29s46.36,8.28,68.58,28.12l-114.16-.24,20.86-62.9Z" transform="translate(-131.64 -240.62)"/><polygon class="cls-18" points="536.12 854.21 527.16 888.18 563.19 889.16 565.91 864.25 536.12 854.21"/><path class="cls-34" d="M688,934,650.74,1112.6H711.1l57.56-194.45c5.42-22.77-6.27-48.52-33-48.52H574.38l-2,64.33Z" transform="translate(-131.64 -240.62)"/><path class="cls-30" d="M654,585.59s31.36,32-4.26,45.82Z" transform="translate(-131.64 -240.62)"/><path class="cls-29" d="M566.35,642.8c-3.65-7.6-29.31-14.57-33,3.92-4.79,23.85,40.31,30.6,40.31,30.6l2.66,33.79-8.68,1.54s22.55,21.92,49.07,20.27,10.08-27.72,10.08-27.72l-7.14.75-6-24s39.11-1.69,46.69-6.87c0,0,1.56-38.55-7.54-64.64l-35.3-24.87-50.89,10Z" transform="translate(-131.64 -240.62)"/><path class="cls-30" d="M545.06,635.24s-26.16-7.11-.76-40.69,53.17-21.12,53.17-21.12,3.58-31.5,23.8-33.86c28.8-3.37,38.64,40.57,38.64,40.57s11.57-25.95,20.24-23.49,18.64,82.76-100.64,57.51c0,0,12.54,21-13.16,28.64C566.35,642.8,560.63,633.9,545.06,635.24Z" transform="translate(-131.64 -240.62)"/><polyline class="cls-35" points="416.62 329.37 422.66 349 415.58 353.51 399.97 341.04"/><path class="cls-3" d="M642.58,663.87c-.14,3.91-5.56,6.91-12.1,6.68s-11.72-5-11.59-9,7.55-1.43,14.1-1.2S642.71,660,642.58,663.87Z" transform="translate(-131.64 -240.62)"/><polygon class="cls-18" points="481.94 441.38 455.79 439 483.23 453.06 481.94 441.38"/><polygon class="cls-36" points="505.58 391.96 517 412.42 506.46 413.84 505.58 391.96"/><circle class="cls-30" cx="491.93" cy="393.1" r="5.37"/><circle class="cls-30" cx="518.08" cy="390.51" r="5.37"/><path class="cls-27" d="M588.82,870.1v246.5H373.31V870.1a18.41,18.41,0,0,1,18.41-18.41H570.41A18.41,18.41,0,0,1,588.82,870.1Z" transform="translate(-131.64 -240.62)"/><path class="cls-28" d="M588.82,870.1v246.5H506.23V870.1a18.41,18.41,0,0,1,18.41-18.41h45.77A18.41,18.41,0,0,1,588.82,870.1Z" transform="translate(-131.64 -240.62)"/><circle class="cls-31" cx="416.89" cy="652.18" r="21.16"/><path class="cls-29" d="M530.06,851.38H536l13,5.8s1.64,11,1.91,19.05c.14,4.14,5.73,5.78,5.73,5.78a7.39,7.39,0,0,0,5.31,2.85c2.88.2,4.35-5.12,4.72-7-2,10.11,4.24,11.55,6,11s2-3.22,2-3.22,3.84.89,8.46-5.64S587.25,856.89,586,851c-.42-2.06-2.52-4.8-5.08-7.59-.22-.24-.45-.5-.68-.74-4.67-5-10.48-9.92-10.71-11.26l-26.7-5.47a20.31,20.31,0,0,0-10.7,10.23C527.85,845.38,530.06,851.38,530.06,851.38Z" transform="translate(-131.64 -240.62)"/><path class="cls-37" d="M574.64,885.53s3.7-13.65,3.76-19.64a84.39,84.39,0,0,0-1.26-15.48" transform="translate(-131.64 -240.62)"/><path class="cls-37" d="M565.71,882.64s2.16-11.51,2.95-16.18c.87-5.22-1-16.22-1-16.22" transform="translate(-131.64 -240.62)"/><path class="cls-37" d="M556.91,850.82s2.36,8.06,2.51,14c.19,7.9-3,16-3,16" transform="translate(-131.64 -240.62)"/><polygon class="cls-24" points="372.37 573.69 342.67 566.85 389.89 559.35 372.37 573.69"/><ellipse class="cls-25" cx="1256.72" cy="917.29" rx="302.44" ry="3.62"/><line class="cls-26" x1="1047.98" y1="869.54" x2="1047.98" y2="917.29"/><line class="cls-26" x1="1180.91" y1="869.54" x2="1180.91" y2="917.29"/><line class="cls-26" x1="1359.78" y1="869.54" x2="1359.78" y2="917.29"/><line class="cls-26" x1="1492.7" y1="869.54" x2="1492.7" y2="917.29"/><rect class="cls-32" x="1245.11" y="391.07" width="142.84" height="99.49"/><polyline class="cls-29" points="1367.02 591.04 1394.08 587.28 1374.39 553.23 1404.65 530.05 1451.21 611.08 1373.67 611.08"/><polyline class="cls-29" points="1131.21 565.1 1195.51 577.59 1228.12 511.95 1264.84 520.97 1214.79 614.64 1127 592.29"/><polygon class="cls-20" points="1140.66 545.86 1139.44 562.15 1136.77 597.76 1135.76 611.08 1099.19 611.08 1098.19 597.76 1095.51 562.15 1094.29 545.86 1140.66 545.86"/><polygon class="cls-18" points="1142.44 559.05 1139.4 593.65 1095.56 593.65 1092.51 559.05 1142.44 559.05"/><polygon class="cls-21" points="1140.14 544.65 1094.82 544.65 1096.84 531.26 1138.12 531.26 1140.14 544.65"/><polygon class="cls-21" points="1145.46 549.05 1089.5 549.05 1092 539.27 1142.96 539.27 1145.46 549.05"/><polygon class="cls-23" points="1103.74 539.27 1095.63 539.27 1139.33 539.27 1138.78 535.68 1103.74 539.27"/><polygon class="cls-24" points="1094.62 549.05 1094.77 551.04 1140 553.42 1140.33 549.05 1094.62 549.05"/><path class="cls-27" d="M1138.54,870.1v246.5H1373V870.1c0-10.17-9-18.41-20-18.41h-194.4C1147.51,851.69,1138.54,859.93,1138.54,870.1Z" transform="translate(-131.64 -240.62)"/><path class="cls-28" d="M1138.54,870.1v246.5h82.59V870.1a18.41,18.41,0,0,0-18.41-18.41H1157A18.41,18.41,0,0,0,1138.54,870.1Z" transform="translate(-131.64 -240.62)"/><circle class="cls-31" cx="1047.96" cy="652.18" r="21.16"/><path class="cls-16" d="M1458.08,704c-37.21-3-60.25,7.28-77.89,17.54-25,14.54-45.13,66.56-45.13,66.56l41.14,16.69-1.25-42.5s-7.4,13.44-6.3,28.81c1.26,17.7,8.81,25.85,8.09,41.5-1.41,30.57-22.15,50.89-22.15,50.89l131.63-4.65s-5.69-42-3.48-56.91c3.88-26,11.18-33.75,11.18-33.75l11.16,24.25,55.38-44.69S1524.65,709.43,1458.08,704Z" transform="translate(-131.64 -240.62)"/><path class="cls-30" d="M1236.2,1100.82l2.79,29s-40.15,8.28-59.4,28.12l98.88-.24-18.07-62.9Z" transform="translate(-131.64 -240.62)"/><rect class="cls-31" x="1249.38" y="933.96" width="200.74" height="182.65" transform="translate(2567.87 1809.95) rotate(-180)"/><polygon class="cls-18" points="1130.8 854.21 1138.56 888.18 1107.36 889.16 1105 864.25 1130.8 854.21"/><path class="cls-38" d="M1245.62,934.15l31.55,178.45H1224.9L1175,918.15c-4.69-22.77,5.44-48.52,28.57-48.52h139.7L1345,934Z" transform="translate(-131.64 -240.62)"/><path class="cls-30" d="M1357.72,1100.82l2.79,29s-40.15,8.28-59.4,28.12l98.88-.24-18.08-62.9Z" transform="translate(-131.64 -240.62)"/><polygon class="cls-18" points="1252.32 854.21 1260.08 888.18 1228.87 889.16 1226.52 864.25 1252.32 854.21"/><path class="cls-39" d="M1366.41,934l32.28,178.64h-52.27l-49.86-194.45c-4.69-22.77,5.44-48.52,28.57-48.52h139.7l1.73,64.33Z" transform="translate(-131.64 -240.62)"/><polygon class="cls-38" points="1150.79 871.99 1087.38 871.99 1081.48 851.69 1146.49 851.69 1150.79 871.99"/><polygon class="cls-39" points="1272.17 871.99 1208.77 871.99 1202.86 851.69 1268 851.69 1272.17 871.99"/><path class="cls-27" d="M1450.12,870.1v246.5h215.51V870.1a18.41,18.41,0,0,0-18.41-18.41H1468.53A18.41,18.41,0,0,0,1450.12,870.1Z" transform="translate(-131.64 -240.62)"/><path class="cls-28" d="M1450.12,870.1v246.5h82.59V870.1a18.41,18.41,0,0,0-18.41-18.41h-45.77A18.41,18.41,0,0,0,1450.12,870.1Z" transform="translate(-131.64 -240.62)"/><circle class="cls-31" cx="1358.78" cy="652.18" r="21.16"/><path class="cls-29" d="M1509.38,851.62h-5.13l-11.2,5s-1.42,9.51-1.65,16.44c-.12,3.58-5,5-5,5a6.37,6.37,0,0,1-4.58,2.47c-2.49.16-3.75-4.43-4.07-6,1.74,8.73-3.66,10-5.16,9.52s-1.76-2.78-1.76-2.78-3.32.77-7.31-4.87-3.56-20-2.49-25.08c.36-1.78,2.17-4.15,4.38-6.55l.59-.64c4-4.29,8-5.56,8.25-6.72l24-5.72s6.08.08,9.23,6.83C1511.29,846.44,1509.38,851.62,1509.38,851.62Z" transform="translate(-131.64 -240.62)"/><path class="cls-37" d="M1470.9,881.09s-3.2-11.78-3.24-17a73.29,73.29,0,0,1,1.08-13.37" transform="translate(-131.64 -240.62)"/><path class="cls-37" d="M1478.61,878.6s-1.87-9.94-2.55-14c-.75-4.51.87-14,.87-14" transform="translate(-131.64 -240.62)"/><path class="cls-37" d="M1486.21,851.13a58.6,58.6,0,0,0-2.17,12.13,40.81,40.81,0,0,0,2.58,13.81" transform="translate(-131.64 -240.62)"/><circle class="cls-32" cx="1316.53" cy="389.85" r="71.42"/><circle class="cls-32" cx="1369.84" cy="311.05" r="38.35"/><path class="cls-29" d="M1420.64,750.92c-.89,0-1.81,0-2.71-.07-6.12-.32-10.93-3-13.52-7.42-3.39-5.83-2.77-14,1.74-22.92,5.79-11.51,13-16.62,13.27-16.83l.46-.33.56,0c.08,0,8.19-.5,16-.5,1.19,0,2.38,0,3.53,0,7.11.16,33.18,2.14,34.29,2.23l2.69.2-1,2.52c-.17.43-17.3,43.11-55.37,43.11Z" transform="translate(-131.64 -240.62)"/><path class="cls-40" d="M1436.49,704.82c1.17,0,2.35,0,3.49,0,7.13.16,34.17,2.22,34.17,2.22s-16.36,41.84-53.51,41.84c-.85,0-1.72,0-2.6-.07-12.86-.67-17.81-12.14-10.11-27.44,5.63-11.19,12.63-16.09,12.63-16.09s8-.5,15.93-.5m0-4c-7.92,0-15.84.48-16.17.5l-1.13.07-.92.65c-.32.22-7.9,5.62-13.91,17.57-4.82,9.58-5.42,18.39-1.68,24.82,3,5.07,8.33,8.06,15.15,8.42.94,0,1.88.07,2.81.07,16.42,0,31.55-7.73,43.76-22.36a88.22,88.22,0,0,0,13.48-22l2-5-5.39-.41c-1.11-.08-27.24-2.07-34.39-2.23-1.12,0-2.32,0-3.58,0Z" transform="translate(-131.64 -240.62)"/><path class="cls-29" d="M1461.7,667.33c-4.42,5.84-3.56,14.14-1.78,19.1.6,1.71,4.23,15.87,4.88,16.55,2.54,2.66-32.43,14.33-32.43,14.33l.23-27.91c-9.81-.3-21.22-1.84-27.13-6.58-17.63-14.13-14.89-57.44-14.39-59.58l17.28-16.18s24.67-8.83,27.86-3.86c5.84,9.1,17.88,48.58,29.45,45.23,0,0-.36-12,9.53-11.08,7.37.67,8.84,6.76,8.53,10.17C1482.69,659,1467.65,659.45,1461.7,667.33Z" transform="translate(-131.64 -240.62)"/><polygon class="cls-36" points="1277.35 407.94 1268.77 424.43 1276.97 424.99 1277.35 407.94"/><ellipse class="cls-30" cx="1420.71" cy="649.32" rx="6.23" ry="4.2" transform="translate(579.85 1800.48) rotate(-87.56)"/><ellipse class="cls-30" cx="1397.82" cy="648.75" rx="6.23" ry="4.2" transform="translate(558.51 1777.07) rotate(-87.56)"/><path class="cls-32" d="M1411.78,605.55a38.31,38.31,0,0,1-3.06,11.92c-.21.46-.42.93-.66,1.38a36.23,36.23,0,0,1-5.62,8.29A32.06,32.06,0,0,1,1379.35,638c-.46,0-.91,0-1.36,0l1.17-12.91h0c0-.4.06-.79.1-1.2A70.92,70.92,0,0,1,1396.73,583a64.19,64.19,0,0,1,5.67-5.64,35.46,35.46,0,0,1,8.2,14.8A37.88,37.88,0,0,1,1411.78,605.55Z" transform="translate(-131.64 -240.62)"/><path class="cls-32" d="M1465.32,611.43c-.93,10.28-11,18.1-24,19.6-1,.13-2.07.21-3.13.24a38.2,38.2,0,0,1-5.22-.13c-16.72-1.51-29.37-12.79-28.24-25.2a15.94,15.94,0,0,1,.68-3.46c3.24-10.54,16.51-17.63,31.63-16.26,16.56,1.5,29.12,12.58,28.27,24.85C1465.35,611.19,1465.33,611.31,1465.32,611.43Z" transform="translate(-131.64 -240.62)"/><path class="cls-18" d="M1432.6,689.4s12.31,1.46,17.82-.94l-17.89,9.13Z" transform="translate(-131.64 -240.62)"/><polygon class="cls-32" points="1300.82 463.87 1283.48 466.47 1292.87 452.78 1300.95 455.17 1300.82 463.87"/><path class="cls-32" d="M1331,434.28H1388a0,0,0,0,1,0,0v48.81a30,30,0,0,1-30,30h-27a0,0,0,0,1,0,0V434.28A0,0,0,0,1,1331,434.28Z"/><path class="cls-29" d="M1231.36,830.32c4.44.43,7.14-4.22,7.14-4.22a7.1,7.1,0,0,0,3.94-4.24c.7-2.48-4.72-.48-6.66-1,7.68,2.17,10.53-2.66,10.77-4.74a2.08,2.08,0,0,0-1.09-2.2s1.61-3.23-4.58-8.12-10.88-4.43-17.39-4.14c-2.28.1-6.92,6.58-5.6,16.34C1219.45,829.45,1222.74,829.5,1231.36,830.32Z" transform="translate(-131.64 -240.62)"/><path class="cls-41" d="M1417.22,667.31s-2.14,5.33-7,4.71" transform="translate(-131.64 -240.62)"/><path class="cls-42" d="M1370,802.31s-6.35-26,4.58-43.39" transform="translate(-131.64 -240.62)"/></g></svg>