<svg xmlns="http://www.w3.org/2000/svg" viewBox="0 0 1771.38 1082.63"><defs><style>.cls-1,.cls-10,.cls-11,.cls-12,.cls-13,.cls-2,.cls-20,.cls-22,.cls-23,.cls-24,.cls-28,.cls-38,.cls-43,.cls-44,.cls-46,.cls-47,.cls-6,.cls-7,.cls-8{fill:none;}.cls-1,.cls-2,.cls-7,.cls-8{stroke:#cce3ff;}.cls-1,.cls-10,.cls-11,.cls-13,.cls-14,.cls-2,.cls-20,.cls-22,.cls-23,.cls-24,.cls-27,.cls-28,.cls-38,.cls-43,.cls-44,.cls-46,.cls-47,.cls-6,.cls-8{stroke-miterlimit:10;}.cls-1{stroke-width:9px;}.cls-11,.cls-14,.cls-2,.cls-6{stroke-linecap:round;}.cls-2,.cls-27,.cls-28,.cls-47{stroke-width:6px;}.cls-3{fill:#b6d4ff;}.cls-4{fill:#cce3ff;}.cls-5{fill:#dceeff;}.cls-6{stroke:#b6d4ff;}.cls-46,.cls-6{stroke-width:8px;}.cls-12,.cls-7{stroke-linejoin:round;}.cls-10,.cls-7,.cls-8{stroke-width:7px;}.cls-14,.cls-9{fill:#ecf6ff;}.cls-10,.cls-11,.cls-12,.cls-13,.cls-14{stroke:#dceeff;}.cls-11,.cls-12,.cls-13,.cls-22{stroke-width:5px;}.cls-14{stroke-width:20px;}.cls-15{fill:#afb3c6;}.cls-16{fill:#9ea5b5;}.cls-17{fill:#dfe2e8;}.cls-18{fill:#61697e;}.cls-19{fill:#fcfcfc;}.cls-20{stroke:#fcfcfc;stroke-width:11px;stroke-dasharray:30;}.cls-21,.cls-27{fill:#fff;}.cls-22,.cls-38{stroke:#fff;}.cls-23{stroke:#3c3c42;}.cls-23,.cls-24,.cls-38{stroke-width:12px;}.cls-24{stroke:#878a93;}.cls-25{fill:#3c3c42;}.cls-26{fill:#878a93;}.cls-27,.cls-28{stroke:#505463;}.cls-29{fill:#cf3e83;}.cls-30{fill:#66666b;}.cls-31{fill:#ffc000;}.cls-32{fill:#e576c6;}.cls-33{fill:#0d0b6d;}.cls-34{fill:#101016;}.cls-35{fill:#ea9421;}.cls-36{fill:#ea5911;}.cls-37{fill:#405fd3;}.cls-39{fill:#db8b21;}.cls-40{fill:#367ee8;}.cls-41{font-size:27.56px;fill:#f7f7f9;font-family:Roboto-Medium, Roboto;font-weight:500;}.cls-42{letter-spacing:-0.03em;}.cls-43{stroke:#bf571d;}.cls-43,.cls-44{stroke-width:3px;}.cls-44{stroke:#182084;}.cls-45{fill:#1a1d21;}.cls-46{stroke:#ffc000;}.cls-47{stroke:#ea9421;}.cls-48{fill:#dadde5;}</style></defs><title>back and obj 27</title><g id="Back"><rect class="cls-1" x="943.99" y="934.77" width="68.43" height="68.43" transform="translate(1831.34 -104.91) rotate(90)"/><line class="cls-1" x1="828.14" y1="839.08" x2="896.57" y2="907.51"/><line class="cls-1" x1="828.14" y1="907.51" x2="896.57" y2="839.08"/><rect class="cls-1" x="807.13" y="934.77" width="68.43" height="68.43" transform="translate(1694.48 31.95) rotate(90)"/><line class="cls-1" x1="691.28" y1="839.08" x2="759.71" y2="907.51"/><line class="cls-1" x1="691.28" y1="907.51" x2="759.71" y2="839.08"/><rect class="cls-1" x="875.56" y="934.77" width="68.43" height="68.43" transform="translate(1762.91 -36.48) rotate(90)"/><line class="cls-1" x1="759.71" y1="839.08" x2="828.14" y2="907.51"/><line class="cls-1" x1="759.71" y1="907.51" x2="828.14" y2="839.08"/><rect class="cls-1" x="807.13" y="866.34" width="68.43" height="68.43" transform="translate(1626.05 -36.48) rotate(90)"/><line class="cls-1" x1="691.28" y1="770.65" x2="759.71" y2="839.08"/><line class="cls-1" x1="691.28" y1="839.08" x2="759.71" y2="770.65"/><rect class="cls-1" x="636.8" y="934.77" width="68.43" height="68.43" transform="translate(1524.16 202.27) rotate(90)"/><line class="cls-1" x1="520.96" y1="839.08" x2="589.39" y2="907.51"/><line class="cls-1" x1="520.96" y1="907.51" x2="589.39" y2="839.08"/><line class="cls-2" x1="609.75" y1="453.37" x2="523.51" y2="539.6"/><line class="cls-2" x1="610.07" y1="453.04" x2="696.95" y2="539.92"/><line class="cls-2" x1="610.07" y1="231.67" x2="610.07" y2="453.82"/><rect class="cls-3" x="699.47" y="307.74" width="52.89" height="27.21" transform="translate(1335.99 546.99) rotate(-180)"/><circle class="cls-3" cx="610.07" cy="182.01" r="23.14"/><line class="cls-2" x1="86.05" y1="174.12" x2="279.87" y2="4"/><line class="cls-2" x1="610.85" y1="153.89" x2="279.87" y2="4"/><rect class="cls-1" x="361.5" y="874.81" width="68.43" height="68.43" transform="translate(675.59 1722.35) rotate(-180)"/><line class="cls-1" x1="314.08" y1="779.12" x2="245.65" y2="847.55"/><line class="cls-1" x1="245.65" y1="779.12" x2="314.08" y2="847.55"/><rect class="cls-1" x="361.5" y="737.95" width="68.43" height="68.43" transform="translate(675.59 1448.63) rotate(-180)"/><line class="cls-1" x1="314.08" y1="642.26" x2="245.65" y2="710.69"/><line class="cls-1" x1="245.65" y1="642.26" x2="314.08" y2="710.69"/><rect class="cls-1" x="361.5" y="806.38" width="68.43" height="68.43" transform="translate(675.59 1585.49) rotate(-180)"/><line class="cls-1" x1="314.08" y1="710.69" x2="245.65" y2="779.12"/><line class="cls-1" x1="245.65" y1="710.69" x2="314.08" y2="779.12"/><rect class="cls-3" x="343.4" y="312.54" width="104.64" height="81.92" transform="translate(675.59 611.31) rotate(-180)"/><rect class="cls-1" x="361.5" y="669.52" width="68.43" height="68.43" transform="translate(675.59 1311.77) rotate(-180)"/><line class="cls-1" x1="314.08" y1="573.83" x2="245.65" y2="642.26"/><line class="cls-1" x1="245.65" y1="573.83" x2="314.08" y2="642.26"/><rect class="cls-1" x="361.5" y="532.66" width="68.43" height="68.43" transform="translate(675.59 1038.05) rotate(-180)"/><line class="cls-1" x1="314.08" y1="436.96" x2="245.65" y2="505.39"/><line class="cls-1" x1="245.65" y1="436.96" x2="314.08" y2="505.39"/><rect class="cls-1" x="361.5" y="601.09" width="68.43" height="68.43" transform="translate(675.59 1174.91) rotate(-180)"/><line class="cls-1" x1="314.08" y1="505.39" x2="245.65" y2="573.83"/><line class="cls-1" x1="245.65" y1="505.39" x2="314.08" y2="573.83"/><rect class="cls-1" x="361.5" y="464.23" width="68.43" height="68.43" transform="translate(675.59 901.19) rotate(-180)"/><line class="cls-1" x1="314.08" y1="368.53" x2="245.65" y2="436.96"/><line class="cls-1" x1="245.65" y1="368.53" x2="314.08" y2="436.96"/><rect class="cls-1" x="361.5" y="327.37" width="68.43" height="68.43" transform="translate(675.59 627.47) rotate(-180)"/><line class="cls-1" x1="314.08" y1="231.67" x2="245.65" y2="300.1"/><line class="cls-1" x1="245.65" y1="231.67" x2="314.08" y2="300.1"/><rect class="cls-1" x="361.5" y="395.8" width="68.43" height="68.43" transform="translate(675.59 764.33) rotate(-180)"/><line class="cls-1" x1="314.08" y1="300.1" x2="245.65" y2="368.53"/><line class="cls-1" x1="245.65" y1="300.1" x2="314.08" y2="368.53"/><rect class="cls-4" x="256.52" y="943.24" width="278.39" height="66.92" transform="translate(675.59 1857.7) rotate(-180)"/><rect class="cls-5" x="484.4" y="532.06" width="252.89" height="181.81" rx="16.62"/><path class="cls-4" d="M501,532.06H720.68a16.62,16.62,0,0,1,16.62,16.62v26.44a0,0,0,0,1,0,0H484.4a0,0,0,0,1,0,0V548.68A16.62,16.62,0,0,1,501,532.06Z"/><rect class="cls-4" x="313.97" y="356.95" width="163.5" height="38.49" transform="translate(675.59 656.7) rotate(-180)"/><rect class="cls-3" x="161.89" y="269.88" width="332.18" height="30.4" transform="translate(540.11 474.48) rotate(-180)"/><rect class="cls-5" x="251.28" y="253.69" width="65.48" height="31.4" transform="translate(452.2 443.08) rotate(-180)"/><rect class="cls-5" x="172.17" y="253.69" width="65.48" height="31.4" transform="translate(293.97 443.08) rotate(-180)"/><line class="cls-6" x1="279.87" y1="152.81" x2="279.87" y2="4"/><line class="cls-6" x1="344.69" y1="138.67" x2="279.87" y2="4"/><line class="cls-6" x1="215.05" y1="138.67" x2="279.87" y2="4"/><rect class="cls-4" x="326.87" y="226.89" width="137.7" height="102.18" transform="translate(675.59 460.27) rotate(-180)"/><rect class="cls-3" x="391.77" y="245.74" width="72.79" height="64.49" transform="translate(740.49 460.27) rotate(-180)"/><polygon class="cls-7" points="790.11 212.04 731.96 153.89 731.96 212.04 790.11 212.04"/><rect class="cls-8" x="726.7" y="249.58" width="58.16" height="58.16" transform="translate(918.58 -572.81) rotate(90)"/><line class="cls-8" x1="610.85" y1="153.89" x2="669.01" y2="212.04"/><line class="cls-8" x1="610.85" y1="212.04" x2="669.01" y2="153.89"/><rect class="cls-8" x="784.85" y="249.58" width="58.16" height="58.16" transform="translate(976.74 -630.96) rotate(90)"/><line class="cls-8" x1="669.01" y1="153.89" x2="727.16" y2="212.04"/><line class="cls-8" x1="669.01" y1="212.04" x2="727.16" y2="153.89"/><rect class="cls-8" x="668.54" y="249.58" width="58.16" height="58.16" transform="translate(860.43 -514.65) rotate(90)"/><line class="cls-8" x1="552.69" y1="153.89" x2="610.85" y2="212.04"/><line class="cls-8" x1="552.69" y1="212.04" x2="610.85" y2="153.89"/><rect class="cls-8" x="552.23" y="249.58" width="58.16" height="58.16" transform="translate(744.12 -398.34) rotate(90)"/><line class="cls-8" x1="436.38" y1="153.89" x2="494.54" y2="212.04"/><line class="cls-8" x1="436.38" y1="212.04" x2="494.54" y2="153.89"/><rect class="cls-8" x="610.38" y="249.58" width="58.16" height="58.16" transform="translate(802.27 -456.5) rotate(90)"/><line class="cls-8" x1="494.54" y1="153.89" x2="552.69" y2="212.04"/><line class="cls-8" x1="494.54" y1="212.04" x2="552.69" y2="153.89"/><rect class="cls-8" x="494.07" y="249.58" width="58.16" height="58.16" transform="translate(685.96 -340.18) rotate(90)"/><line class="cls-8" x1="378.22" y1="153.89" x2="436.38" y2="212.04"/><line class="cls-8" x1="378.22" y1="212.04" x2="436.38" y2="153.89"/><circle class="cls-9" cx="509.6" cy="553.27" r="11.37"/><circle class="cls-9" cx="545.57" cy="553.27" r="11.37"/><circle class="cls-9" cx="581.53" cy="553.27" r="11.37"/><rect class="cls-9" x="711.31" y="534.13" width="29.22" height="29.22" transform="translate(735.36 1354.36) rotate(-135)"/><rect class="cls-10" x="1363.97" y="945.7" width="57.45" height="57.45" transform="translate(302.43 2271.43) rotate(-90)"/><line class="cls-10" x1="1248.13" y1="907.46" x2="1305.58" y2="850.01"/><line class="cls-10" x1="1248.13" y1="850.01" x2="1305.58" y2="907.46"/><rect class="cls-10" x="1189.07" y="945.7" width="57.45" height="57.45" transform="translate(127.52 2096.52) rotate(-90)"/><line class="cls-10" x1="1073.22" y1="907.46" x2="1130.67" y2="850.01"/><line class="cls-10" x1="1073.22" y1="850.01" x2="1130.67" y2="907.46"/><rect class="cls-10" x="1306.52" y="945.7" width="57.45" height="57.45" transform="translate(244.97 2213.98) rotate(-90)"/><line class="cls-10" x1="1190.67" y1="907.46" x2="1248.13" y2="850.01"/><line class="cls-10" x1="1190.67" y1="850.01" x2="1248.13" y2="907.46"/><line class="cls-11" x1="1227.83" y1="527.33" x2="1300.23" y2="599.73"/><line class="cls-11" x1="1227.56" y1="527.06" x2="1154.61" y2="600"/><line class="cls-11" x1="1227.56" y1="341.2" x2="1227.56" y2="527.71"/><rect class="cls-4" x="1205.35" y="324.72" width="44.41" height="22.85"/><circle class="cls-4" cx="1227.56" cy="299.5" r="19.43"/><line class="cls-11" x1="1667.52" y1="292.87" x2="1504.79" y2="150.04"/><line class="cls-11" x1="1226.9" y1="275.89" x2="1504.79" y2="150.04"/><rect class="cls-10" x="1476.07" y="800.83" width="57.45" height="57.45"/><line class="cls-10" x1="1476.07" y1="800.83" x2="1533.52" y2="858.28"/><line class="cls-10" x1="1533.52" y1="800.83" x2="1476.07" y2="858.28"/><rect class="cls-10" x="1476.07" y="685.92" width="57.45" height="57.45"/><line class="cls-10" x1="1476.07" y1="685.92" x2="1533.52" y2="743.37"/><line class="cls-10" x1="1533.52" y1="685.92" x2="1476.07" y2="743.37"/><rect class="cls-10" x="1476.07" y="743.37" width="57.45" height="57.45"/><line class="cls-10" x1="1476.07" y1="743.37" x2="1533.52" y2="800.83"/><line class="cls-10" x1="1533.52" y1="743.37" x2="1476.07" y2="800.83"/><rect class="cls-4" x="1460.86" y="328.75" width="87.86" height="68.78"/><rect class="cls-10" x="1476.07" y="628.47" width="57.45" height="57.45"/><line class="cls-10" x1="1476.07" y1="628.47" x2="1533.52" y2="685.92"/><line class="cls-10" x1="1533.52" y1="628.47" x2="1476.07" y2="685.92"/><rect class="cls-10" x="1476.07" y="513.56" width="57.45" height="57.45"/><line class="cls-10" x1="1476.07" y1="513.56" x2="1533.52" y2="571.01"/><line class="cls-10" x1="1533.52" y1="513.56" x2="1476.07" y2="571.01"/><rect class="cls-10" x="1476.07" y="571.01" width="57.45" height="57.45"/><line class="cls-10" x1="1476.07" y1="571.01" x2="1533.52" y2="628.47"/><line class="cls-10" x1="1533.52" y1="571.01" x2="1476.07" y2="628.47"/><rect class="cls-10" x="1476.07" y="456.1" width="57.45" height="57.45"/><line class="cls-10" x1="1476.07" y1="456.1" x2="1533.52" y2="513.56"/><line class="cls-10" x1="1533.52" y1="456.1" x2="1476.07" y2="513.56"/><rect class="cls-8" x="1476.07" y="341.2" width="57.45" height="57.45"/><line class="cls-8" x1="1476.07" y1="341.2" x2="1533.52" y2="398.65"/><line class="cls-8" x1="1533.52" y1="341.2" x2="1476.07" y2="398.65"/><rect class="cls-10" x="1476.07" y="398.65" width="57.45" height="57.45"/><line class="cls-10" x1="1476.07" y1="398.65" x2="1533.52" y2="456.1"/><line class="cls-10" x1="1533.52" y1="398.65" x2="1476.07" y2="456.1"/><rect class="cls-5" x="1387.93" y="858.28" width="233.73" height="56.18"/><rect class="cls-5" x="1124.94" y="593.4" width="203.92" height="146.6"/><rect class="cls-5" x="1436.16" y="366.03" width="137.27" height="32.32"/><rect class="cls-4" x="1422.21" y="292.94" width="278.9" height="25.52"/><rect class="cls-5" x="1571.08" y="279.34" width="54.98" height="26.36"/><rect class="cls-5" x="1637.5" y="279.34" width="54.98" height="26.36"/><line class="cls-2" x1="1504.79" y1="274.99" x2="1504.79" y2="150.04"/><line class="cls-2" x1="1450.37" y1="263.11" x2="1504.79" y2="150.04"/><line class="cls-2" x1="1559.21" y1="263.11" x2="1504.79" y2="150.04"/><rect class="cls-5" x="1446.99" y="256.84" width="115.61" height="85.79"/><rect class="cls-4" x="1446.99" y="272.66" width="61.12" height="54.14"/><polygon class="cls-12" points="1076.39 324.72 1125.22 275.89 1125.22 324.72 1076.39 324.72"/><rect class="cls-13" x="1293.92" y="371.58" width="48.83" height="48.83" transform="translate(1598.48 -1018.03) rotate(90)"/><line class="cls-13" x1="1226.9" y1="275.89" x2="1178.08" y2="324.72"/><line class="cls-13" x1="1226.9" y1="324.72" x2="1178.08" y2="275.89"/><rect class="cls-13" x="1245.09" y="371.58" width="48.83" height="48.83" transform="translate(1549.66 -969.21) rotate(90)"/><line class="cls-13" x1="1178.08" y1="275.89" x2="1129.25" y2="324.72"/><line class="cls-13" x1="1178.08" y1="324.72" x2="1129.25" y2="275.89"/><rect class="cls-13" x="1342.75" y="371.58" width="48.83" height="48.83" transform="translate(1647.31 -1066.86) rotate(90)"/><line class="cls-13" x1="1275.73" y1="275.89" x2="1226.9" y2="324.72"/><line class="cls-13" x1="1275.73" y1="324.72" x2="1226.9" y2="275.89"/><rect class="cls-13" x="1440.41" y="371.58" width="48.83" height="48.83" transform="translate(1744.97 -1164.52) rotate(90)"/><line class="cls-13" x1="1373.39" y1="275.89" x2="1324.56" y2="324.72"/><line class="cls-13" x1="1373.39" y1="324.72" x2="1324.56" y2="275.89"/><rect class="cls-13" x="1391.58" y="371.58" width="48.83" height="48.83" transform="translate(1696.14 -1115.69) rotate(90)"/><line class="cls-13" x1="1324.56" y1="275.89" x2="1275.73" y2="324.72"/><line class="cls-13" x1="1324.56" y1="324.72" x2="1275.73" y2="275.89"/><rect class="cls-13" x="1489.23" y="371.58" width="48.83" height="48.83" transform="translate(1793.8 -1213.35) rotate(90)"/><line class="cls-13" x1="1422.21" y1="275.89" x2="1373.39" y2="324.72"/><line class="cls-13" x1="1422.21" y1="324.72" x2="1373.39" y2="275.89"/><rect class="cls-9" x="1331.14" y="610.48" width="24.53" height="24.53" transform="translate(-162.72 1036.64) rotate(-45)"/><polygon class="cls-4" points="1124.94 708.71 1193.53 635.72 1256.33 704.05 1297.4 667.41 1328.86 701.98 1328.86 740 1124.94 740 1124.94 708.71"/><circle class="cls-4" cx="1270.66" cy="628.33" r="18.25"/><line class="cls-14" x1="1761.38" y1="920.52" x2="10" y2="920.52"/></g><g id="Man"><ellipse class="cls-15" cx="889.46" cy="1079.01" rx="700.77" ry="3.62"/><rect class="cls-16" x="811" y="254.46" width="573.38" height="633.85" rx="19.28"/><path class="cls-15" d="M830.28,254.46h534.81a19.28,19.28,0,0,1,19.28,19.28v33.64a0,0,0,0,1,0,0H811a0,0,0,0,1,0,0V273.74A19.28,19.28,0,0,1,830.28,254.46Z"/><circle class="cls-17" cx="844.74" cy="282.05" r="13.64"/><circle class="cls-17" cx="889.26" cy="282.05" r="13.64"/><circle class="cls-17" cx="933.77" cy="282.05" r="13.64"/><rect class="cls-18" x="811" y="307.38" width="573.38" height="75.69"/><path class="cls-19" d="M1422.39,548.67h-19v5h19v-5Zm-38,0h-19v5h19v-5Zm-38,0h-19v5h19v-5Zm-38,0h-19v5h19v-5Zm-38,0h-19v5h19v-5Zm-38,0h-19v5h19v-5Zm-38,0h-19v5h19v-5Zm-38,0h-19v5h19v-5Zm-38,0h-19v5h19v-5Zm-38,0h-19v5h19v-5Zm-38,0h-19v5h19v-5Zm-38,0h-19v5h19v-5Zm-38,0h-5.8v5h0v8.2h5v-8.2h.8v-5Zm-.8,32.2h-5v19h5v-19Zm0,38h-5v5.49H974.1v-5h-8.51v-.49Zm46.51.49h-19v5h19v-5Zm38,0h-19v5h19v-5Zm38,0h-19v5h19v-5Zm38,0h-19v5h19v-5Zm38,0h-19v5h19v-5Zm38,0h-19v5h19v-5Zm38,0h-19v5h19v-5Zm38,0h-19v5h19v-5Zm38,0h-19v5h19v-5Zm38,0h-19v5h19v-5Zm38,0h-19v5h19v-5Zm38,0h-19v5h19v-5Zm30.29-2.72h-5v2.72h-6.29v5h11.29v-7.72Zm0-38h-5v19h5v-19Zm0-30h-19v5h14v6h5v-11Z" transform="translate(-115.85 -95.69)"/><path class="cls-19" d="M1422.39,701.67h-19v5h19v-5Zm-38,0h-19v5h19v-5Zm-38,0h-19v5h19v-5Zm-38,0h-19v5h19v-5Zm-38,0h-19v5h19v-5Zm-38,0h-19v5h19v-5Zm-38,0h-19v5h19v-5Zm-38,0h-19v5h19v-5Zm-38,0h-19v5h19v-5Zm-38,0h-19v5h19v-5Zm-38,0h-19v5h19v-5Zm-38,0h-19v5h19v-5Zm-38,0h-5.8v5h0v8.2h5v-8.2h.8v-5Zm-.8,32.2h-5v19h5v-19Zm0,38h-5v5.49H974.1v-5h-8.51v-.49Zm46.51.49h-19v5h19v-5Zm38,0h-19v5h19v-5Zm38,0h-19v5h19v-5Zm38,0h-19v5h19v-5Zm38,0h-19v5h19v-5Zm38,0h-19v5h19v-5Zm38,0h-19v5h19v-5Zm38,0h-19v5h19v-5Zm38,0h-19v5h19v-5Zm38,0h-19v5h19v-5Zm38,0h-19v5h19v-5Zm38,0h-19v5h19v-5Zm30.29-2.72h-5v2.72h-6.29v5h11.29v-7.72Zm0-38h-5v19h5v-19Zm0-30h-19v5h14v6h5v-11Z" transform="translate(-115.85 -95.69)"/><line class="cls-20" x1="844.74" y1="418.67" x2="1057.56" y2="418.67"/><line class="cls-20" x1="844.74" y1="568.97" x2="1057.56" y2="568.97"/><circle class="cls-21" cx="855" cy="345.23" r="20.62"/><rect class="cls-21" x="898.9" y="332.72" width="97.13" height="25.03"/><line class="cls-22" x1="1359.51" y1="330.97" x2="1318.9" y2="330.97"/><line class="cls-22" x1="1359.51" y1="343.82" x2="1318.9" y2="343.82"/><line class="cls-22" x1="1359.51" y1="356.67" x2="1318.9" y2="356.67"/><line class="cls-23" x1="1061.32" y1="968.73" x2="1212.25" y2="968.73"/><line class="cls-24" x1="1047.31" y1="1078.32" x2="1078.79" y2="832.13"/><line class="cls-23" x1="1087.48" y1="1078.32" x2="1118.96" y2="832.13"/><line class="cls-23" x1="1226.76" y1="1078.32" x2="1195.28" y2="832.13"/><line class="cls-24" x1="1186.59" y1="1078.32" x2="1155.11" y2="832.13"/><path class="cls-25" d="M1061.77,809.54h156.92a12,12,0,0,1,12,12v15.08a0,0,0,0,1,0,0H1049.77a0,0,0,0,1,0,0V821.54A12,12,0,0,1,1061.77,809.54Z"/><path class="cls-26" d="M1061.77,809.54h104.82a12,12,0,0,1,12,12v15.08a0,0,0,0,1,0,0H1049.77a0,0,0,0,1,0,0V821.54A12,12,0,0,1,1061.77,809.54Z"/><rect class="cls-27" x="910.69" y="727.46" width="443.19" height="79.08"/><rect class="cls-27" x="961.35" y="648.38" width="443.19" height="79.08"/><line class="cls-28" x1="985.77" y1="667.62" x2="985.77" y2="708.23"/><line class="cls-28" x1="936.54" y1="746.69" x2="936.54" y2="787.31"/><path class="cls-29" d="M715.55,773.18c1.31,11.66-7.4,16.17-18.63,17.43s-20.73-1.21-22-12.87,4.21-33.07,15.45-34.32S714.25,761.52,715.55,773.18Z" transform="translate(-115.85 -95.69)"/><path class="cls-26" d="M701.7,771.88v6a30.8,30.8,0,0,1,3.39,61.41,31.37,31.37,0,0,1-3.48.2,30.81,30.81,0,0,1-3.39-61.42,31.35,31.35,0,0,1,3.48-.19v-6m0,0a36.15,36.15,0,0,0-4.14.23,36.8,36.8,0,0,0,4.05,73.38,36.18,36.18,0,0,0,4.14-.24,36.8,36.8,0,0,0-4-73.37Z" transform="translate(-115.85 -95.69)"/><rect class="cls-26" x="669.6" y="808.34" width="73.6" height="85.33" transform="translate(-206.24 -11.72) rotate(-6.4)"/><rect class="cls-30" x="714.59" y="805.82" width="28.48" height="85.33" transform="translate(-205.82 -9.23) rotate(-6.4)"/><path class="cls-31" d="M676,811h11.57a0,0,0,0,1,0,0v37.92a5.79,5.79,0,0,1-5.79,5.79h0a5.79,5.79,0,0,1-5.79-5.79V811A0,0,0,0,1,676,811Z" transform="translate(-204.37 -14.57) rotate(-6.4)"/><path class="cls-31" d="M719.58,806.06h11.57a0,0,0,0,1,0,0v30.21a5.79,5.79,0,0,1-5.79,5.79h0a5.79,5.79,0,0,1-5.79-5.79V806.06A0,0,0,0,1,719.58,806.06Z" transform="translate(-203.12 -9.77) rotate(-6.4)"/><path class="cls-31" d="M693.11,809h11.57a0,0,0,0,1,0,0v21.46a5.79,5.79,0,0,1-5.79,5.79h0a5.79,5.79,0,0,1-5.79-5.79V809A0,0,0,0,1,693.11,809Z" transform="translate(-203.12 -12.73) rotate(-6.4)"/><path class="cls-31" d="M691.63,809.73l1.77,15.79a3.3,3.3,0,0,0-3.64-2.91,3.34,3.34,0,0,0-2.21,1.22,3.27,3.27,0,0,0-.7,2.42l-1.77-15.79Z" transform="translate(-115.85 -95.69)"/><path class="cls-29" d="M713.75,775c1.1,9.87-6.85,14-17.12,15.18s-18.94-1.14-20-11,6.31-18.81,16.57-20S712.64,765.1,713.75,775Z" transform="translate(-115.85 -95.69)"/><path class="cls-29" d="M707.75,757.27s13.77,14.33,11.79,19.46-28.27,8.85-28.27,8.85.72-16.15,20.57-18.38" transform="translate(-115.85 -95.69)"/><polygon class="cls-29" points="574.76 501.94 576.4 576.83 591.39 663.57 559.87 665.03 539.6 501.94 574.76 501.94"/><path class="cls-32" d="M522.44,746.46s41.63,23.66,49.17-21.73-46.4,11.84-46.4,11.84" transform="translate(-115.85 -95.69)"/><path class="cls-33" d="M744,1115.64l6.66,20.63s49.69-21.21,75.48-13.72l-86,51.46-23.25-56.6Z" transform="translate(-115.85 -95.69)"/><polygon class="cls-33" points="374.89 964.09 347.2 990.23 355.07 1068.09 305.45 983.56 364.83 938.11 374.89 964.09"/><path class="cls-33" d="M648.57,386.53s32.81,31.35-2.79,46.53" transform="translate(-115.85 -95.69)"/><polygon class="cls-29" points="602.54 1026.19 612.73 1050.14 634.77 1040.58 629.29 1023.43 602.54 1026.19"/><polygon class="cls-29" points="364.42 938.09 330.25 964.75 347.2 990.23 367.91 970.75 364.42 938.09"/><path class="cls-34" d="M609,688.16C605.33,879,446.1,1033.78,446.1,1033.78l35,51.58s44.44-39.47,116.71-131.44C705,817.5,686.71,670.73,686.71,670.73Z" transform="translate(-115.85 -95.69)"/><polygon class="cls-25" points="539.46 582.43 639.41 1028.15 586.64 1042.39 452.2 601.65 539.46 582.43"/><path class="cls-35" d="M663,604.92h33.08s-5.54-89.61-84.58-89.61" transform="translate(-115.85 -95.69)"/><path class="cls-31" d="M686.7,670.73,568.05,697.34l-28-84.09-64.18-25.37c36.32-83.73,97.39-73.19,97.39-73.19l38.2.61a64.86,64.86,0,0,1,18.26,1.43h0c1.77.51,19.8,6.2,33.22,25.16,19.2,27.14,17.76,58.3,17.76,58.3Z" transform="translate(-115.85 -95.69)"/><path class="cls-36" d="M686.7,670.73,568.05,697.34l-21.24-63.88c14.4-7.65,24.76-28.83,24.76-53.77,0-31.38-16.4-56.82-36.62-56.82a23.55,23.55,0,0,0-4.12.36c7-3.59,7.88-4.24,13.76-5.56,0,0,7.5-2.18,27,12C616.69,562.46,636,592.82,636,592.82s5.83-70.57-12.41-77.15c1.87.25,21.44,1.64,39.44,26.23,19.63,26.83,17.76,58.3,17.76,58.3Z" transform="translate(-115.85 -95.69)"/><rect class="cls-37" x="378.03" y="663.89" width="303.33" height="69.56" rx="34.78" transform="translate(-53.53 -138.83) rotate(4.95)"/><line class="cls-38" x1="566.75" y1="526.28" x2="454.54" y2="536.62"/><line class="cls-38" x1="568.65" y1="548.94" x2="466.85" y2="558.15"/><polygon class="cls-39" points="425.31 523.14 449.27 494.58 442.23 544.62 425.31 523.14"/><rect class="cls-40" x="372.6" y="610.97" width="303.33" height="69.56" rx="34.78" transform="translate(-58.12 -138.55) rotate(4.95)"/><text class="cls-41" transform="translate(355.33 555.51) rotate(4.98)">SIGN UP</text><text class="cls-41" transform="translate(348.29 606.14) rotate(4.98)">SIGN OU<tspan class="cls-42" x="106.6" y="0">T</tspan></text><path class="cls-32" d="M458.91,654.28c-5.27,37.77,63.53,92.18,63.53,92.18l22.15-12.61-37.13-69.08,28.08-53.34-54.71-21.6S463.15,623.82,458.91,654.28Z" transform="translate(-115.85 -95.69)"/><path class="cls-32" d="M561.77,447.36c-3.95-7.57-30.16-13.77-33.3,5.07-4.06,24.3,40.9,29.78,40.9,29.78l-.52,32.06-7.53.45s21.74,20.72,48.29,20.56c26.92-.16,8.9-20,8.9-20l-7.18-.36-.45-29.48s35,.22,44.13-4.64c0,0,3.2-42.94-6.88-69.05l-36.56-24-51.18,11.82Z" transform="translate(-115.85 -95.69)"/><path class="cls-33" d="M574.06,418.67S587.6,439,561.89,447.26c0,0-6.15-8.63-21.87-6.91,0,0-26.78-6.36-2.41-40.12s53-22.19,53-22.19" transform="translate(-115.85 -95.69)"/><path class="cls-43" d="M555.21,586.44" transform="translate(-115.85 -95.69)"/><path class="cls-43" d="M535.54,608.18" transform="translate(-115.85 -95.69)"/><polygon class="cls-29" points="495.03 389.77 468.48 388.24 495.22 402.23 495.03 389.77"/><polygon class="cls-37" points="520.92 342.54 530.19 361.12 520.8 361.94 520.92 342.54"/><path class="cls-44" d="M639.19,469.21s-7.68,1.68-10.69-4.29" transform="translate(-115.85 -95.69)"/><path class="cls-45" d="M716,439.41" transform="translate(-115.85 -95.69)"/><circle class="cls-33" cx="507.68" cy="344" r="4.94"/><circle class="cls-33" cx="531.03" cy="343.71" r="4.94"/><path class="cls-32" d="M535.54,723.4a102.6,102.6,0,0,1,10.56,3.84c5.4,2.33,10.3,6.3,21.92,6.84,11.14.52,4,9.41-3.9,7.9-5.3-1-15.7-4.13-17.64.44" transform="translate(-115.85 -95.69)"/><polygon class="cls-31" points="414.86 513.75 432.01 521.15 451.71 492.64 414.86 513.75"/><path class="cls-31" d="M594.05,344h2.05a72.25,72.25,0,0,1,72.25,72.25v11.09a0,0,0,0,1,0,0H521.8a0,0,0,0,1,0,0V416.22A72.25,72.25,0,0,1,594.05,344Z" transform="translate(-156.71 -23.76) rotate(-6.69)"/><path class="cls-35" d="M638,372.21h0a23.22,23.22,0,0,1,23.22,23.22v22a0,0,0,0,1,0,0H614.79a0,0,0,0,1,0,0v-22A23.22,23.22,0,0,1,638,372.21Z" transform="translate(-157.49 -18.7) rotate(-6.69)"/><line class="cls-46" x1="408.4" y1="339.25" x2="587.51" y2="318.49"/><line class="cls-47" x1="411.09" y1="332.94" x2="556.08" y2="316.14"/><path class="cls-26" d="M1498.34,1028.36a38.54,38.54,0,1,1-38.53,38.54,38.58,38.58,0,0,1,38.53-38.54m0-8a46.54,46.54,0,1,0,46.54,46.54,46.54,46.54,0,0,0-46.54-46.54Z" transform="translate(-115.85 -95.69)"/><rect class="cls-26" x="1335.96" y="971.11" width="93.07" height="107.9"/><rect class="cls-26" x="1470.73" y="971.11" width="93.07" height="107.9"/><rect class="cls-30" x="1390.49" y="971.11" width="38.54" height="107.9"/><rect class="cls-30" x="1522.69" y="971.11" width="41.11" height="107.9"/><rect class="cls-48" x="1478.73" y="996.62" width="61.96" height="58.46"/><ellipse class="cls-29" cx="1509.71" cy="1025.85" rx="23.55" ry="15.86"/><rect class="cls-48" x="1349.77" y="995.83" width="66.77" height="58.46"/><ellipse class="cls-40" cx="1383.15" cy="1025.06" rx="25.37" ry="15.86"/></g></svg>