<svg xmlns="http://www.w3.org/2000/svg" viewBox="0 0 1771.38 965.71"><defs><style>.cls-1{fill:#dceeff;}.cls-10,.cls-14,.cls-15,.cls-16,.cls-2,.cls-28,.cls-3,.cls-31,.cls-37,.cls-38,.cls-43,.cls-44,.cls-45,.cls-46,.cls-47,.cls-5,.cls-7,.cls-8,.cls-9{fill:none;}.cls-2,.cls-3,.cls-5{stroke:#ecf6ff;}.cls-10,.cls-16,.cls-2,.cls-3,.cls-5,.cls-7,.cls-8,.cls-9{stroke-linecap:square;}.cls-10,.cls-14,.cls-15,.cls-16,.cls-17,.cls-2,.cls-28,.cls-3,.cls-31,.cls-37,.cls-38,.cls-43,.cls-44,.cls-45,.cls-46,.cls-47,.cls-5,.cls-7,.cls-8,.cls-9{stroke-miterlimit:10;}.cls-15,.cls-16,.cls-2,.cls-7,.cls-8{stroke-width:15px;}.cls-3{stroke-width:12px;}.cls-17,.cls-4{fill:#ecf6ff;}.cls-10,.cls-5{stroke-width:10px;}.cls-6{fill:#f3faff;}.cls-7{stroke:#e3f2ff;}.cls-10,.cls-17,.cls-8,.cls-9{stroke:#dceeff;}.cls-37,.cls-9{stroke-width:9px;}.cls-11{fill:#b6d4ff;}.cls-12{fill:#cce3ff;}.cls-13{fill:#d7edff;}.cls-14,.cls-16{stroke:#d9efff;}.cls-14{stroke-width:8px;}.cls-15{stroke:#cce3ff;}.cls-17,.cls-43,.cls-44,.cls-45,.cls-46,.cls-47{stroke-linecap:round;}.cls-17{stroke-width:20px;}.cls-18{fill:#0d0b6d;}.cls-19{fill:#e576c6;}.cls-20{fill:#cf3e83;}.cls-21{fill:#d5cdc0;}.cls-22{fill:#240040;}.cls-23{fill:#afb3c6;}.cls-24{fill:#db8b21;}.cls-25{fill:#19191e;}.cls-26{fill:#3c3c42;}.cls-27{fill:#ffc000;}.cls-28{stroke:#bf571d;}.cls-28,.cls-31,.cls-38{stroke-width:3px;}.cls-29{fill:#1a1d21;}.cls-30{fill:#405fd3;}.cls-31{stroke:#1c295e;}.cls-32{fill:#90909e;}.cls-33{fill:#0e0e0e;}.cls-34{fill:#53535e;}.cls-35{fill:#e04c9a;}.cls-36{fill:#6ca1ff;}.cls-37{stroke:#032466;}.cls-38{stroke:#182084;}.cls-39{fill:#7d7d8c;}.cls-40{fill:#b8b8c1;}.cls-41{fill:#040406;}.cls-42{fill:#c9c9d3;}.cls-43{stroke:#c42c2c;}.cls-44{stroke:#fff;stroke-width:2px;}.cls-45{stroke:#d61d7e;}.cls-45,.cls-46,.cls-47{stroke-width:24px;}.cls-46{stroke:#abef16;}.cls-47{stroke:#01f5be;}</style></defs><title>back and obj 16</title><g id="Back"><path class="cls-1" d="M1381.16,619.26c-5.73-15.65-37.1-13-37.11-56.64,0-65.7,99.1-58.2,105-107.71s-57.85-48.32-59.82-90.07,46.46-127.92,119.93-127.92c57.94,0,10,66.48,56.71,96.21s100.16-8.35,126.58,38.39c36.41,64.4-56.68,141.74-47.5,191.1s63.76,37.7,65.43,91.94-77.6,63.79-70.13,110.3c4.7,29.32,54.87,19.53,57.5,77.34,2.23,48.95-170.14,109.52-299.62,9.91S1403,679,1381.16,619.26Z" transform="translate(-117.67 -204.8)"/><line class="cls-2" x1="1405.29" y1="293.03" x2="1405.29" y2="819.93"/><line class="cls-3" x1="1456.42" y1="599.41" x2="1490.84" y2="566.67"/><line class="cls-3" x1="1445.93" y1="423.39" x2="1480.35" y2="390.65"/><circle class="cls-4" cx="1618.79" cy="651.6" r="117.85"/><line class="cls-3" x1="1445.93" y1="335.38" x2="1480.35" y2="302.64"/><line class="cls-3" x1="1355.63" y1="352.37" x2="1321.21" y2="317.95"/><path class="cls-1" d="M309.46,728.3c0,99,73.42,154.15,169,154.15s169-55.2,169-154.15c0-208.33-107.89-448.5-169-448.5S309.46,520,309.46,728.3Z" transform="translate(-117.67 -204.8)"/><line class="cls-2" x1="360.83" y1="300.7" x2="360.83" y2="819.93"/><line class="cls-5" x1="314.46" y1="440.46" x2="277.09" y2="401.21"/><line class="cls-5" x1="314.46" y1="377.06" x2="277.09" y2="337.81"/><circle class="cls-6" cx="575.6" cy="529.73" r="179.42"/><line class="cls-7" x1="575.6" y1="494.94" x2="575.6" y2="825.56"/><line class="cls-7" x1="618.14" y1="523.3" x2="646.83" y2="494.61"/><line class="cls-7" x1="533.06" y1="590.55" x2="504.37" y2="561.86"/><line class="cls-7" x1="533.06" y1="526.23" x2="504.37" y2="497.54"/><line class="cls-8" x1="1618.87" y1="658.32" x2="1618.87" y2="819.93"/><line class="cls-9" x1="1647.92" y1="676.42" x2="1672.05" y2="652.69"/><line class="cls-9" x1="1592.51" y1="701.21" x2="1563.04" y2="674.6"/><path class="cls-6" d="M1458.09,820.68c0,102.49-66.92,148.48-149.15,148.48s-149.15-46-149.15-148.48c0-190.92,81.4-369.2,149.15-369.2S1458.09,629.76,1458.09,820.68Z" transform="translate(-117.67 -204.8)"/><line class="cls-8" x1="1191.27" y1="449.94" x2="1191.27" y2="819.93"/><line class="cls-8" x1="1224.65" y1="656.27" x2="1259.07" y2="621.85"/><line class="cls-8" x1="1224.65" y1="491.09" x2="1259.07" y2="456.67"/><line class="cls-8" x1="1150.79" y1="504.77" x2="1115.91" y2="469.89"/><path class="cls-4" d="M433.92,804c0,79.39-38.36,151.49-125.23,151.49S183.46,883.36,183.46,804c0-93.13,65.64-185.74,125.23-185.74S433.92,710.84,433.92,804Z" transform="translate(-117.67 -204.8)"/><line class="cls-8" x1="191.02" y1="581.04" x2="191.02" y2="819.93"/><line class="cls-10" x1="223.96" y1="610.18" x2="254.61" y2="575.76"/><line class="cls-10" x1="158.08" y1="680.9" x2="127.42" y2="646.48"/><line class="cls-10" x1="158.08" y1="611.59" x2="127.42" y2="577.17"/><path class="cls-1" d="M650.88,978.69c-.6.79-13.43,31.54-11.9,60.69H593.81a47.32,47.32,0,0,0-10.55-26.74s19.89-3.61,33.33,20.36C616.59,1033,626.76,989.76,650.88,978.69Z" transform="translate(-117.67 -204.8)"/><path class="cls-1" d="M593,977.54c.74.79,16.61,31.54,14.72,60.69h55.9c1.07-15.94,13.07-38.74,13.07-38.74a91.86,91.86,0,0,0-41.25,32.36S622.83,988.61,593,977.54Z" transform="translate(-117.67 -204.8)"/><path class="cls-1" d="M1467.83,984.15c.63.84,19.68,26.26,22.07,49.67h33.49C1507.58,1002.4,1468.7,984.54,1467.83,984.15Z" transform="translate(-117.67 -204.8)"/><path class="cls-1" d="M1554.54,997.45c-.45.62-13.94,19.23-15.63,36.37h-23.73C1526.38,1010.82,1553.92,997.74,1554.54,997.45Z" transform="translate(-117.67 -204.8)"/><path class="cls-1" d="M1772.39,999.25c-.45.62-13.94,19.23-15.64,36.37H1733C1744.23,1012.62,1771.77,999.54,1772.39,999.25Z" transform="translate(-117.67 -204.8)"/><path class="cls-1" d="M1416.41,997.45c-.44.62-13.94,19.23-15.63,36.37h-23.72C1388.26,1010.82,1415.8,997.74,1416.41,997.45Z" transform="translate(-117.67 -204.8)"/><path class="cls-1" d="M1654.57,1033.82h-35.49c-.2-25.49-13.29-58.67-13.29-58.67S1644.72,1006.94,1654.57,1033.82Z" transform="translate(-117.67 -204.8)"/><path class="cls-1" d="M1665.22,1033.82c8.58-18.15,9.1-32.77,9.1-32.77s16.82,18.29,24,32.77Z" transform="translate(-117.67 -204.8)"/><path class="cls-1" d="M209.22,1033.82c8.58-18.15,9.1-32.77,9.1-32.77s16.82,18.29,24,32.77Z" transform="translate(-117.67 -204.8)"/><path class="cls-1" d="M436.65,975.38c.75.79,16.62,31.54,14.73,60.69h55.9c1.07-15.93,13.07-38.73,13.07-38.73a91.91,91.91,0,0,0-41.26,32.36S466.5,986.45,436.65,975.38Z" transform="translate(-117.67 -204.8)"/><path class="cls-1" d="M359.19,980.37c-.66,1.29-14.12,24.6-17.66,51.86l-53.29,5.46c-3.63-24.23-11.47-37.72-11.47-37.72s22.38,6.51,34.33,25.54C311.1,1025.51,324.94,996.24,359.19,980.37Z" transform="translate(-117.67 -204.8)"/><path class="cls-11" d="M940.7,578H1066a57.79,57.79,0,0,1,57.79,57.79v0a0,0,0,0,1,0,0H882.91a0,0,0,0,1,0,0v0A57.79,57.79,0,0,1,940.7,578Z" transform="translate(1889.06 1008.96) rotate(180)"/><path class="cls-12" d="M896.39,921.81h214a13.48,13.48,0,0,1,13.48,13.48v3.16a0,0,0,0,1,0,0H882.91a0,0,0,0,1,0,0v-3.16A13.48,13.48,0,0,1,896.39,921.81Z" transform="translate(1889.06 1655.47) rotate(180)"/><path class="cls-13" d="M685.71,538.66h400a56.94,56.94,0,0,1,56.94,56.94v0a0,0,0,0,1,0,0H628.77a0,0,0,0,1,0,0v0A56.94,56.94,0,0,1,685.71,538.66Z"/><path class="cls-11" d="M687.21,595.6h397a0,0,0,0,1,0,0v0A75.14,75.14,0,0,1,1009,670.74H762.35a75.14,75.14,0,0,1-75.14-75.14v0A0,0,0,0,1,687.21,595.6Z"/><path class="cls-12" d="M1126.15,743.47H880.59c45.73-.26,82.74-48.37,82.74-107.69h80.07C1043.4,695.1,1080.41,743.21,1126.15,743.47Z" transform="translate(-117.67 -204.8)"/><path class="cls-12" d="M1083.84,520.19H922.89c45.74-.19,58.05-35.47,58.05-79h44.85C1025.79,484.72,1038.1,520,1083.84,520.19Z" transform="translate(-117.67 -204.8)"/><path class="cls-13" d="M846.09,520.19h314.56a0,0,0,0,1,0,0v0A57.79,57.79,0,0,1,1102.85,578h-199a57.79,57.79,0,0,1-57.79-57.79v0A0,0,0,0,1,846.09,520.19Z" transform="translate(1889.06 893.38) rotate(180)"/><polygon class="cls-12" points="1263.64 830.46 507.74 830.46 504.04 754.84 1267.35 754.84 1263.64 830.46"/><path class="cls-1" d="M479.23,733.39h812.93a0,0,0,0,1,0,0v4.08a17.37,17.37,0,0,1-17.37,17.37H496.6a17.37,17.37,0,0,1-17.37-17.37v-4.08a0,0,0,0,1,0,0Z"/><path class="cls-1" d="M610,1010.75h786.74a0,0,0,0,1,0,0v4.08a17.37,17.37,0,0,1-17.37,17.37h-752A17.37,17.37,0,0,1,610,1014.83v-4.08A0,0,0,0,1,610,1010.75Z" transform="translate(1889.06 1838.15) rotate(180)"/><line class="cls-14" x1="632.33" y1="595.8" x2="632.33" y2="691.92"/><line class="cls-14" x1="632.33" y1="706.73" x2="632.33" y2="728.24"/><line class="cls-14" x1="674.25" y1="595.8" x2="674.25" y2="691.92"/><line class="cls-14" x1="674.25" y1="706.33" x2="674.25" y2="728.24"/><line class="cls-14" x1="718.17" y1="672.1" x2="718.17" y2="694.01"/><line class="cls-14" x1="800.69" y1="437.73" x2="800.69" y2="483.83"/><line class="cls-14" x1="968.78" y1="434.95" x2="968.78" y2="454.45"/><line class="cls-14" x1="696.91" y1="650.37" x2="696.91" y2="720.1"/><line class="cls-14" x1="653.08" y1="595.8" x2="653.08" y2="627.25"/><line class="cls-14" x1="653.08" y1="643.46" x2="653.08" y2="720.1"/><line class="cls-14" x1="777.3" y1="529.3" x2="777.3" y2="452.03"/><line class="cls-14" x1="777.3" y1="441.95" x2="777.3" y2="420.47"/><line class="cls-14" x1="732.59" y1="532.56" x2="732.59" y2="452.03"/><line class="cls-14" x1="732.59" y1="439.95" x2="732.59" y2="418.25"/><line class="cls-14" x1="732.59" y1="409.61" x2="732.59" y2="372.93"/><line class="cls-14" x1="755.17" y1="525.98" x2="755.17" y2="506.21"/><line class="cls-14" x1="755.17" y1="495.79" x2="755.17" y2="433.61"/><line class="cls-14" x1="755.17" y1="422.94" x2="755.17" y2="372.93"/><line class="cls-14" x1="1074.12" y1="703.36" x2="1074.12" y2="726.04"/><line class="cls-14" x1="1074.12" y1="651.6" x2="1074.12" y2="693.11"/><line class="cls-14" x1="1116.6" y1="595.6" x2="1116.6" y2="638.29"/><line class="cls-14" x1="1116.6" y1="647.64" x2="1116.6" y2="729.36"/><line class="cls-14" x1="1139.55" y1="595.6" x2="1139.55" y2="658.28"/><line class="cls-14" x1="1139.55" y1="674.11" x2="1139.55" y2="726.81"/><line class="cls-14" x1="1095.15" y1="595.6" x2="1095.15" y2="627.05"/><line class="cls-14" x1="1052.17" y1="669.51" x2="1052.17" y2="700.96"/><line class="cls-14" x1="1095.15" y1="637.09" x2="1095.15" y2="720.45"/><line class="cls-14" x1="1016.39" y1="372.3" x2="1016.39" y2="430.98"/><line class="cls-14" x1="1016.39" y1="442.68" x2="1016.39" y2="476.23"/><line class="cls-14" x1="1016.39" y1="485.21" x2="1016.39" y2="520.52"/><line class="cls-14" x1="1039.09" y1="372.3" x2="1039.09" y2="422.85"/><line class="cls-14" x1="1039.09" y1="433.21" x2="1039.09" y2="464.74"/><line class="cls-14" x1="1039.09" y1="475.9" x2="1039.09" y2="525.98"/><line class="cls-14" x1="993.82" y1="429.1" x2="993.82" y2="467.56"/><line class="cls-14" x1="993.82" y1="477.83" x2="993.82" y2="525.98"/><line class="cls-14" x1="783.46" y1="272.22" x2="783.46" y2="308.42"/><line class="cls-14" x1="783.46" y1="243.16" x2="783.46" y2="259.45"/><line class="cls-14" x1="783.46" y1="175.74" x2="783.46" y2="232.31"/><line class="cls-14" x1="802.78" y1="237.99" x2="802.78" y2="298.78"/><line class="cls-14" x1="968.04" y1="211.91" x2="968.04" y2="285.9"/><line class="cls-14" x1="802.78" y1="208.93" x2="802.78" y2="225.22"/><path class="cls-14" d="M906,305.46a53.7,53.7,0,0,0-4.9,22.48v36.59" transform="translate(-117.67 -204.8)"/><path class="cls-14" d="M922.76,284.91a52.69,52.69,0,0,0-9.4,8.88" transform="translate(-117.67 -204.8)"/><path class="cls-14" d="M1003.37,364.53V327.94c0-29-23-52.77-51.12-52.77h0a49.23,49.23,0,0,0-21.84,5.1" transform="translate(-117.67 -204.8)"/><line class="cls-14" x1="987.92" y1="230.13" x2="987.92" y2="308.42"/><line class="cls-14" x1="987.92" y1="175.74" x2="987.92" y2="207.13"/><line class="cls-14" x1="949.49" y1="232.31" x2="949.49" y2="263.7"/><polyline class="cls-14" points="987.92 142.95 987.92 148.08 987.92 162.06"/><polyline class="cls-14" points="821.9 231.98 821.9 237.11 821.9 251.09"/><path class="cls-14" d="M1096.26,297.63a53.53,53.53,0,0,1,9.34,30.31" transform="translate(-117.67 -204.8)"/><path class="cls-14" d="M1003.37,364.53V327.94c0-29,23-52.77,51.11-52.77h0a49.64,49.64,0,0,1,29.31,9.61" transform="translate(-117.67 -204.8)"/><path class="cls-14" d="M960.52,372.49V358.36c0-11.2-8.88-20.36-19.73-20.36h0a19,19,0,0,0-8.43,2" transform="translate(-117.67 -204.8)"/><path class="cls-14" d="M1047.67,372.49V358.36c0-11.2,8.88-20.36,19.73-20.36h0a19.21,19.21,0,0,1,11.32,3.7" transform="translate(-117.67 -204.8)"/><path class="cls-14" d="M946.27,307.49a31.46,31.46,0,0,0-12,3.19" transform="translate(-117.67 -204.8)"/><path class="cls-14" d="M980.9,364.53V341.15a33.8,33.8,0,0,0-21.69-31.75" transform="translate(-117.67 -204.8)"/><path class="cls-14" d="M1031.29,320.94a32.34,32.34,0,0,1,26.1-13.51h0a31.73,31.73,0,0,1,18.74,6.14" transform="translate(-117.67 -204.8)"/><path class="cls-14" d="M1024.73,364.53V341.15a34.34,34.34,0,0,1,1.66-10.6" transform="translate(-117.67 -204.8)"/><path class="cls-14" d="M977,218.44c-7.35-6.14-15.81-9.64-24.79-9.64h0" transform="translate(-117.67 -204.8)"/><path class="cls-14" d="M1003.37,338V285.09c0-21.12-5.83-40.3-15.2-54.14" transform="translate(-117.67 -204.8)"/><path class="cls-14" d="M1043.58,210.56a34.89,34.89,0,0,1,10.9-1.76h0" transform="translate(-117.67 -204.8)"/><path class="cls-14" d="M1003.37,338V285.09c0-29.52,11.38-55.26,27.92-67.93" transform="translate(-117.67 -204.8)"/><path class="cls-13" d="M923.54,364.53H1083.2a0,0,0,0,1,0,0v0a35.89,35.89,0,0,1-35.89,35.89H959.43a35.89,35.89,0,0,1-35.89-35.89v0a0,0,0,0,1,0,0Z" transform="translate(1889.06 560.16) rotate(180)"/><path class="cls-11" d="M913.7,875.55H1093a0,0,0,0,1,0,0v0a46.53,46.53,0,0,1-46.53,46.53H960.24a46.53,46.53,0,0,1-46.53-46.53v0A0,0,0,0,1,913.7,875.55Z" transform="translate(1889.06 1592.82) rotate(-180)"/><path class="cls-11" d="M980.36,400.43h46a40.79,40.79,0,0,1,40.79,40.79v0a0,0,0,0,1,0,0H939.57a0,0,0,0,1,0,0v0A40.79,40.79,0,0,1,980.36,400.43Z" transform="translate(1889.06 636.85) rotate(180)"/><path class="cls-12" d="M898.54,981.18" transform="translate(-117.67 -204.8)"/><line class="cls-15" x1="628.77" y1="595.6" x2="1142.61" y2="595.6"/><path class="cls-16" d="M623.66,978.48c29.24,0,29.24,11.34,58.47,11.34s29.24-11.34,58.47-11.34,29.24,11.34,58.47,11.34,29.24-11.34,58.47-11.34,29.24,11.34,58.48,11.34,29.24-11.34,58.47-11.34,29.24,11.34,58.48,11.34,29.23-11.34,58.47-11.34,29.24,11.34,58.47,11.34,29.24-11.34,58.48-11.34,29.24,11.34,58.47,11.34,29.24-11.34,58.48-11.34,29.24,11.34,58.48,11.34" transform="translate(-117.67 -204.8)"/><path class="cls-15" d="M758.23,763.93c27.72,0,27.72,12,55.44,12s27.72-12,55.45-12,27.72,12,55.44,12,27.72-12,55.44-12,27.72,12,55.44,12,27.72-12,55.44-12,27.73,12,55.45,12,27.72-12,55.45-12,27.72,12,55.45,12" transform="translate(-117.67 -204.8)"/><line class="cls-15" x1="728.41" y1="373.18" x2="1042.97" y2="373.18"/><path class="cls-15" d="M1154.74,552.31c-25.29,0-25.29-11.33-50.59-11.33s-25.3,11.33-50.6,11.33S1028.26,541,1003,541s-25.3,11.33-50.6,11.33S927.06,541,901.76,541s-25.3,11.33-50.61,11.33" transform="translate(-117.67 -204.8)"/><line class="cls-15" x1="805.86" y1="195.62" x2="965.52" y2="195.62"/><line class="cls-17" x1="1761.38" y1="835.01" x2="10" y2="835.01"/></g><g id="Woman"><path class="cls-18" d="M321.83,886s-30,33.64-50.95,43.77L313,839.22,339.33,856Z" transform="translate(-117.67 -204.8)"/><path class="cls-19" d="M640.28,766.39,525.17,938.22a40.35,40.35,0,0,1-49.41,14.63l-153.13-65.6,22.12-27L494.37,900.2l95.7-157.69Z" transform="translate(-117.67 -204.8)"/><polygon class="cls-20" points="446.39 679.44 405.51 649.54 398.01 661.89 446.39 679.44"/><polygon class="cls-21" points="238.61 657.5 222.46 690.38 204.15 681.15 221.66 651.23 238.61 657.5"/><rect class="cls-22" x="682.86" y="482.23" width="100.67" height="144.53" transform="translate(-81.44 949.09) rotate(-77.8)"/><circle class="cls-22" cx="627.23" cy="295.55" r="72.26"/><ellipse class="cls-23" cx="496.9" cy="962.1" rx="301.62" ry="3.62"/><path class="cls-19" d="M718.5,690.78c4.85,19.5,113.5,60.33,113.5,60.33l9.82-21.05-78.91-49.69L753,631.72l-51.29-3.3S712.6,667.1,718.5,690.78Z" transform="translate(-117.67 -204.8)"/><polygon class="cls-20" points="643.53 467.19 598.78 478.67 600.37 485.38 643.53 467.19"/><path class="cls-18" d="M883.39,1048.76s33.64-15.1,61.34-13.72L875,1092.72l-11.4-22.93Z" transform="translate(-117.67 -204.8)"/><polygon class="cls-19" points="764.72 842.22 745.88 864.98 634.58 721.96 568.46 648.72 608.56 611.49 667.34 682.79 764.72 842.22"/><polygon class="cls-24" points="572.68 486.02 650.2 465.41 628.6 394.49 560.51 415.65 572.68 486.02"/><polygon class="cls-25" points="561.63 525.12 454.93 684.45 391.15 642.88 476.14 489.27 561.63 525.12"/><path class="cls-26" d="M680.55,729.64l79.59,110.64L703,893.11,626,811.41c-43.24-48.74-52.23-81-32.14-117.33h0Z" transform="translate(-117.67 -204.8)"/><path class="cls-27" d="M660.52,579.49c-19.16,11.23-30.46,37.8-30.46,37.8s-.37,19.41-11,42.3c-8.31,17.85-25.23,34.49-25.23,34.49l86.74,35.56s36.79-42.33,51.63-55.45c18.78-16.6,20.55-30.78,20-50.44-.61-22.4-9.4-31.29-10.48-32.63v0a60.35,60.35,0,0,0-13.25-10.88L714,569.79S693.11,560.37,660.52,579.49Z" transform="translate(-117.67 -204.8)"/><path class="cls-19" d="M573.15,555.51c-24.43,1.5-83.71,98.63-83.71,98.63l17.28,9.92,68.15-74.37L622,605.31l27.69-39.08S602.84,553.68,573.15,555.51Z" transform="translate(-117.67 -204.8)"/><path class="cls-19" d="M718.19,544.24l-11.5,26.67-2.33.3s2.59,30.47,24.32,30.14c15.35-.23,10.81-10.49,10.81-10.49l-2.92-4,9.35-27.33" transform="translate(-117.67 -204.8)"/><path class="cls-28" d="M647.13,604.65" transform="translate(-117.67 -204.8)"/><path class="cls-28" d="M620.38,610.79" transform="translate(-117.67 -204.8)"/><polygon class="cls-20" points="520.48 357.94 488.6 395.39 495.98 397.84 520.48 357.94"/><polygon class="cls-27" points="485.44 410.48 569.67 435.33 562.16 367.83 521.86 354.79 485.44 410.48"/><polygon class="cls-24" points="511.31 418.06 509.38 427.33 548.44 429.9 511.31 418.06"/><path class="cls-29" d="M859.65,565" transform="translate(-117.67 -204.8)"/><polygon class="cls-21" points="765.72 843.96 745.88 864.98 732.37 847.78 754.71 825.99 765.72 843.96"/><circle class="cls-22" cx="599.56" cy="203.36" r="38.8"/><path class="cls-19" d="M720.69,531.87c2.51,7-.83,14.73-4.05,19-1.1,1.47-8.88,14-9.72,14.51-3.25,1.8,27,23.64,27,23.64l8.21-27c9.57,2.66,21,4.63,28.19,1.84,21.29-8.32,31.74-51,31.9-53.18l-11.79-20.85s-21.16-16-25.74-12.15c-8.39,7-31.95,41.51-42.11,34.78,0,0,4-11.45-5.85-13.58-7.32-1.58-10.58,3.85-11.31,7.24C702.94,517.53,717.33,522.46,720.69,531.87Z" transform="translate(-117.67 -204.8)"/><polygon class="cls-30" points="675.12 329.19 674.42 347.99 666.92 344.38 675.12 329.19"/><path class="cls-19" d="M510.37,663s-1,26.66-4.52,30.76c-4.24,4.93-13.68,9.75-17.73,11s-7.77-4.84-7.69-7.4a9.23,9.23,0,0,1-8.54-7.64,9.85,9.85,0,0,1-4.08-9.2,7.92,7.92,0,0,1-.47-9.67c3.56-5.19,14.41-15.45,23-23.43" transform="translate(-117.67 -204.8)"/><path class="cls-19" d="M868.43,741.8a8.73,8.73,0,0,1-4.92,9.65,9.32,9.32,0,0,1-7.42,5.95,7.49,7.49,0,0,1-8.72,2.77c-5.26-1.87-16.15-8.53-25.18-14.19h0l-1.78-1.12,3.25-7.63L828.86,725l3.79-1.6s7.58-2.13,13.48-3.63c1.71-.43,3.27-.82,4.47-1.07a10.63,10.63,0,0,1,6,.31h0a12.31,12.31,0,0,1,6.35,5.92s7.55,3.92,9.72,8.12C874.55,736.56,870.79,741.26,868.43,741.8Z" transform="translate(-117.67 -204.8)"/><ellipse class="cls-18" cx="782.97" cy="531.29" rx="6.3" ry="4.25" transform="translate(62.97 1056.23) rotate(-84.62)"/><path class="cls-22" d="M783.39,483.21a28.53,28.53,0,0,0-.14,11.38c.1.47.2,1,.33,1.42a32.29,32.29,0,0,0,3.77,9A39.72,39.72,0,0,0,809.69,522c.51.15,1,.3,1.51.43l2.52-11.63h0l.24-1.08c3.1-14.34.18-28.78-7.25-41.27a66,66,0,0,0-4.61-6.75,33.27,33.27,0,0,0-13.43,10.24A28.33,28.33,0,0,0,783.39,483.21Z" transform="translate(-117.67 -204.8)"/><path class="cls-22" d="M730.52,475.68c-2.2,10.2,5.17,20.8,17.22,26.17,1,.43,1.93.82,3,1.18a38.74,38.74,0,0,0,5.08,1.45c16.6,3.59,32.22-3.48,34.89-15.8a17.14,17.14,0,0,0,.38-3.55c.06-11.16-10.61-22-25.63-25.26-16.44-3.56-31.92,3.35-34.8,15.45C730.57,475.44,730.55,475.56,730.52,475.68Z" transform="translate(-117.67 -204.8)"/><path class="cls-31" d="M777.39,553.48s-5.5-.42-3.52-8.46" transform="translate(-117.67 -204.8)"/><path class="cls-20" d="M744.62,563.55s-17.33-5.18-21.72-9.4l18.9,17.19Z" transform="translate(-117.67 -204.8)"/><path class="cls-22" d="M656,532.82h27.65a30,30,0,0,1,30,30v49.74a0,0,0,0,1,0,0H656a0,0,0,0,1,0,0V532.82A0,0,0,0,1,656,532.82Z" transform="translate(1115.37 1072.35) rotate(-167.8)"/><path class="cls-32" d="M488.67,642.84l2.94-3.88a2.74,2.74,0,0,1,3.36-.81l3.44,1.64a2.83,2.83,0,0,1,.47.29l16.18,12.23a2.4,2.4,0,0,1,.4.38l2.53,2.86a2.74,2.74,0,0,1,.13,3.45l-2.94,3.88a2.73,2.73,0,0,1-3.36.82l-3.44-1.65a2.25,2.25,0,0,1-.47-.28l-16.18-12.23a2.89,2.89,0,0,1-.4-.38l-2.53-2.86A2.76,2.76,0,0,1,488.67,642.84Z" transform="translate(-117.67 -204.8)"/><rect class="cls-33" x="498.24" y="636.66" width="10.31" height="28.52" rx="5.16" transform="translate(1208.54 437.17) rotate(127.09)"/><rect class="cls-34" x="493.36" y="642.67" width="5.43" height="5.43" rx="2.72" transform="translate(1192.39 434.14) rotate(127.09)"/></g><g id="Man"><ellipse class="cls-23" cx="1233.95" cy="962.1" rx="314.72" ry="3.62"/><path class="cls-18" d="M1045.92,816.43s-47.5,28.62-76.21,33.63l80.92-88.77L1077,788.16Z" transform="translate(-117.67 -204.8)"/><path class="cls-19" d="M1396.25,725.8l-149.9,213.49a31.89,31.89,0,0,1-46.57,6.13L1049.51,819.7l27.81-31.38,135.5,93.11L1333.12,698Z" transform="translate(-117.67 -204.8)"/><path class="cls-18" d="M1641,1072.69s50.65-14.77,79.67-8.92L1619.88,1126l-11.41-33.52Z" transform="translate(-117.67 -204.8)"/><path class="cls-19" d="M1639.86,1070.72l-31.39,21.71-95-174.45-81.62-86.07,58.72-30.82,54.27,63.23a165.78,165.78,0,0,1,27.12,44Z" transform="translate(-117.67 -204.8)"/><path class="cls-35" d="M1307.07,566.88c-21.16,3.57-70.62,119.38-70.62,119.38l21.61,12.19L1314.51,615l52.64-6.57,7.72-54.36S1332.78,562.55,1307.07,566.88Z" transform="translate(-117.67 -204.8)"/><polygon class="cls-25" points="1315.7 519.48 1416.23 628.53 1348.79 690.3 1204.61 538.73 1233.58 493.22 1315.7 519.48"/><polygon class="cls-30" points="1246.54 423.16 1332.17 420.04 1326.44 341.04 1250.5 346.97 1246.54 423.16"/><path class="cls-18" d="M1559.79,457.74s18.71,43-21.31,43.23" transform="translate(-117.67 -204.8)"/><polygon class="cls-26" points="1293.56 512.78 1185.98 686.19 1109.31 634.3 1202.23 474.48 1293.56 512.78"/><path class="cls-36" d="M1391.16,556.88c-20.46,12-32.53,40.38-32.53,40.38l-38.72,82,116.51,48.85,35.5-61.22s19-24.73,18.81-58c-.14-23.24-11.68-38.22-12.83-39.65v0a64.72,64.72,0,0,0-14.16-11.63l-15.41-11.13S1426,536.46,1391.16,556.88Z" transform="translate(-117.67 -204.8)"/><path class="cls-19" d="M1363.45,709.89c15.83,20.81,148.63,15,148.63,15l.07-27.77-111.6-17.3L1416.34,633l-55.73-7.43S1344.21,684.6,1363.45,709.89Z" transform="translate(-117.67 -204.8)"/><path class="cls-19" d="M1452.68,481c-.73-8.8-23.23-25.21-33.77-8.51-13.6,21.54,27.57,42.08,27.57,42.08l-10.55,29.79H1433s8,36.47,35.69,39.44c19.54,2.1,12.16-10.74,12.16-10.74l-4.34-5.17,7.7-30.9s38.89,13,48.24,10.73c0,0,15.94-37.12,16.8-66L1524,444.1l-53.52-9.23Z" transform="translate(-117.67 -204.8)"/><path class="cls-18" d="M1434.67,465.6s-22.92-16.74,14.47-40.09,59.91-.78,59.91-.78,15.28-29.48,35.94-24.23c29.43,7.47,22.63,54.13,22.63,54.13s13.52-22.92,21.09-17.28-5.22,89.8-112.45,20.5c0,0,4.42,25.19-23.58,23.1C1452.68,481,1450.41,470.1,1434.67,465.6Z" transform="translate(-117.67 -204.8)"/><polyline class="cls-37" points="1351.69 194.91 1350.26 216.37 1341.65 218.13 1331.04 200.1"/><path class="cls-28" d="M1376.86,583.75" transform="translate(-117.67 -204.8)"/><path class="cls-28" d="M1348.28,590.31" transform="translate(-117.67 -204.8)"/><polygon class="cls-20" points="1366.55 332.14 1341.85 320.04 1363.44 344.05 1366.55 332.14"/><polygon class="cls-20" points="1298.66 428.16 1242.94 420.73 1239.79 434.85 1297.31 432.18 1298.66 428.16"/><polygon class="cls-20" points="1170.13 675.46 1118.73 640.68 1109.31 655.05 1170.13 675.46"/><polygon class="cls-20" points="1407.44 636.58 1362.32 677.91 1371.13 687.2 1407.44 636.58"/><polygon class="cls-30" points="1426.23 301.1 1429.45 322.33 1419.95 320.15 1426.23 301.1"/><path class="cls-38" d="M1533.3,530.16s-10.23-1.31-7.77-11.08" transform="translate(-117.67 -204.8)"/><polygon class="cls-30" points="1298.66 428.16 1297.31 432.18 1310.42 429.92 1298.66 428.16"/><polygon class="cls-30" points="1242.94 420.73 1239.79 434.85 1225.45 435.19 1232.69 419.44 1242.94 420.73"/><path class="cls-29" d="M1603.89,541.43" transform="translate(-117.67 -204.8)"/><circle class="cls-18" cx="1415.15" cy="298.93" r="4.81"/><path class="cls-19" d="M1505.79,699.46l5.66-6.28a119.7,119.7,0,0,1,9.24-8c5-3.91,13.45-6.06,18.17-17.21s7,2.15,4.92,7.63c-1.73,4.57-9.12,10.35-9.79,14.53a15.76,15.76,0,0,0,4.38.64l38.77-4.75a2.6,2.6,0,0,1,2.86,1.85l.4,1.41a2.58,2.58,0,0,1-2,3.27c-8.14,1.48-32.54,5.29-32.42,5.71l-.1,1,40.7-.8a2.59,2.59,0,0,1,2.69,2.15l.36,2a2.58,2.58,0,0,1-2.24,3c-9,1.09-40,2.25-39.85,2.69v1.16l34.71,2.39a2.61,2.61,0,0,1,2.71,2.34l.15,1.64a2.59,2.59,0,0,1-2.34,2.83L1549,717.37l-.29,1.29,25.71,4.67a2.62,2.62,0,0,1,2.43,2.45l0,.8a2.59,2.59,0,0,1-2.39,2.72c-4.84.37-16.08-2.19-26.9-2.26-8.39,0-14.44,1.84-25,.62a52.09,52.09,0,0,1-10.92-2.71" transform="translate(-117.67 -204.8)"/><polygon class="cls-21" points="977.83 595.56 947.42 627.56 928.25 611.63 959.34 583.36 977.83 595.56"/><polygon class="cls-21" points="1523.32 867.89 1490.8 887.62 1478.21 864.26 1513.7 845.63 1523.32 867.89"/><path class="cls-39" d="M1482.28,711.06h1a.77.77,0,0,1,.77.77v4.49a.77.77,0,0,1-.77.77h-1a0,0,0,0,1,0,0v-6A0,0,0,0,1,1482.28,711.06Z" transform="translate(2848.61 1223.36) rotate(-180)"/><path class="cls-40" d="M1504.62,721.14a19.08,19.08,0,0,0-1.15,5.72,2.64,2.64,0,0,1-2.48,2.48h-9.19a2.64,2.64,0,0,1-2.48-2.48,19.08,19.08,0,0,0-1.15-5.72,4.78,4.78,0,0,0,1.19.14h14.07A4.73,4.73,0,0,0,1504.62,721.14Z" transform="translate(-117.67 -204.8)"/><path class="cls-40" d="M1488.17,699.18a18.9,18.9,0,0,0,1.15-5.71,2.63,2.63,0,0,1,2.48-2.48H1501a2.64,2.64,0,0,1,2.48,2.48,18.9,18.9,0,0,0,1.15,5.71,5.29,5.29,0,0,0-1.19-.13h-14.07A5.23,5.23,0,0,0,1488.17,699.18Z" transform="translate(-117.67 -204.8)"/><path class="cls-32" d="M1508.78,701.21v17.9a5.37,5.37,0,0,1-4.16,5.22,4.73,4.73,0,0,1-1.19.14h-14.07a4.78,4.78,0,0,1-1.19-.14,5.37,5.37,0,0,1-4.16-5.22v-17.9a5.37,5.37,0,0,1,5.35-5.35h14.07A5.37,5.37,0,0,1,1508.78,701.21Z" transform="translate(-117.67 -204.8)"/><rect class="cls-41" x="1367.49" y="492.39" width="22.46" height="25.95" rx="4.18"/><rect class="cls-42" x="1369.24" y="494.38" width="18.97" height="21.96" rx="3.45"/><line class="cls-43" x1="1382.05" y1="513.02" x2="1378.72" y2="505.36"/><line class="cls-44" x1="1378.72" y1="505.36" x2="1382.56" y2="501.6"/><line class="cls-44" x1="1373.22" y1="499.37" x2="1378.72" y2="505.36"/><path class="cls-45" d="M1496.6,609.16c55.08,0,99.74,45.2,99.74,101s-44.66,100.95-99.74,100.95c-39.58,0-73.78-23.34-89.89-57.17" transform="translate(-117.67 -204.8)"/><path class="cls-46" d="M1496.8,637.46a72.84,72.84,0,1,1-45.52,129.7" transform="translate(-117.67 -204.8)"/><path class="cls-47" d="M1499.3,665.84c23.8,0,43.09,19.2,43.09,43.78a43.69,43.69,0,0,1-27.34,40.79" transform="translate(-117.67 -204.8)"/><path class="cls-35" d="M1237.22,733.87a9.8,9.8,0,0,1-10.18-6.64,10.43,10.43,0,0,1-5.75-9,8.39,8.39,0,0,1-2-10.06c2.71-5.64,11.43-17,18.83-26.4h0l1.46-1.85,8.13,4.53,13.07,7.28,1.33,4.42s1.48,8.71,2.45,15.47c.28,2,.52,3.74.67,5.12a11.92,11.92,0,0,1-1.07,6.67h0a13.83,13.83,0,0,1-7.36,6.39s-5.27,8-10.22,9.87C1242.34,741.32,1237.54,736.57,1237.22,733.87Z" transform="translate(-117.67 -204.8)"/></g></svg>