<svg xmlns="http://www.w3.org/2000/svg" viewBox="0 0 1771.38 1048.91"><defs><style>.cls-1{fill:#cce3ff;}.cls-2{fill:#dceeff;}.cls-11,.cls-3{fill:#ecf6ff;}.cls-13,.cls-24,.cls-25,.cls-31,.cls-32,.cls-4,.cls-5,.cls-6,.cls-7,.cls-9{fill:none;}.cls-11,.cls-4,.cls-7{stroke:#dceeff;}.cls-11,.cls-13,.cls-14,.cls-24,.cls-25,.cls-31,.cls-32,.cls-4,.cls-5,.cls-6,.cls-7,.cls-9{stroke-miterlimit:10;}.cls-24,.cls-4,.cls-5,.cls-6,.cls-9{stroke-width:9px;}.cls-5{stroke:#c5dfff;}.cls-6{stroke:#fff;}.cls-7{stroke-width:10px;}.cls-8{fill:#e9f6ff;}.cls-9{stroke:#b6d4ff;}.cls-10{fill:#b6d4ff;}.cls-11{stroke-linecap:round;stroke-width:20px;}.cls-12{fill:#afb3c6;}.cls-13,.cls-14{stroke:#000;stroke-width:7px;}.cls-14,.cls-36{fill:#fff;}.cls-15,.cls-34{fill:#ffc000;}.cls-16,.cls-35{fill:#db8b21;}.cls-17{fill:#18181c;}.cls-18{fill:#d1d1db;}.cls-19{fill:#0d0b6d;}.cls-20{fill:#cf3e83;}.cls-21{fill:#2f2f3d;}.cls-22{fill:#e576c6;}.cls-23{fill:#398aff;}.cls-24,.cls-25{stroke:#0d0b6d;}.cls-25{stroke-width:4px;}.cls-26{fill:#4e5154;}.cls-27{fill:#7c7d7f;}.cls-28{fill:#989da5;}.cls-29{fill:#1f1a3a;opacity:0.82;}.cls-30{fill:#405fd3;}.cls-31{stroke:#545659;}.cls-32{stroke:#2e49e5;stroke-width:5px;}.cls-33{fill:#2e49e5;}.cls-34,.cls-35,.cls-36{opacity:0.64;}.cls-37{fill:#ffe8cf;}</style></defs><title>back and obj 15</title><g id="Layer_3" data-name="Layer 3"><path class="cls-1" d="M1027.42,186.12c3.34,22.6-8,41.87-8,41.87s-16.76-17.36-20.09-40,8-41.86,8-41.86S1024.09,163.53,1027.42,186.12Z" transform="translate(-110.74 -146.17)"/><path class="cls-1" d="M1022.54,200.88c14.93,20.33,14.39,41.08,14.39,41.08s-24.75-12.21-39.68-32.54-14.38-41.07-14.38-41.07S1007.61,180.56,1022.54,200.88Z" transform="translate(-110.74 -146.17)"/><path class="cls-1" d="M1041.28,188.58c-4,22.55-21.2,39.69-21.2,39.69s-10.81-19.41-6.85-42,21.21-39.69,21.21-39.69S1045.25,166,1041.28,188.58Z" transform="translate(-110.74 -146.17)"/><path class="cls-1" d="M1053.71,204.91C1041.22,226,1018,239.49,1018,239.49a69.74,69.74,0,0,1,9.52-41.72c12.49-21.07,35.72-34.58,35.72-34.58A69.74,69.74,0,0,1,1053.71,204.91Z" transform="translate(-110.74 -146.17)"/><rect class="cls-2" x="854.77" y="47.24" width="115.38" height="270.15" rx="57.69"/><rect class="cls-2" x="854.77" y="292.16" width="115.38" height="489.85" rx="57.69"/><path class="cls-2" d="M1037.82,600v16.41a32.41,32.41,0,0,1-32.41,32.41H896.07A105.33,105.33,0,0,1,790.74,543.45v-74.2a43.69,43.69,0,0,1,43.69-43.69h0a43.7,43.7,0,0,1,43.7,43.69v63.54a34.77,34.77,0,0,0,34.77,34.77h92.51A32.41,32.41,0,0,1,1037.82,600Z" transform="translate(-110.74 -146.17)"/><path class="cls-2" d="M1014.48,781.17v14.89a29.4,29.4,0,0,0,29.4,29.4h99.19a95.56,95.56,0,0,0,95.56-95.56V662.58A39.64,39.64,0,0,0,1199,622.94h0a39.64,39.64,0,0,0-39.64,39.64v57.64a31.55,31.55,0,0,1-31.54,31.55h-83.93A29.4,29.4,0,0,0,1014.48,781.17Z" transform="translate(-110.74 -146.17)"/><path class="cls-3" d="M793.85,701.39h256.62a0,0,0,0,1,0,0V822.62a62.15,62.15,0,0,1-62.15,62.15H856a62.15,62.15,0,0,1-62.15-62.15V701.39A0,0,0,0,1,793.85,701.39Z"/><line class="cls-4" x1="1050.47" y1="766.01" x2="843.7" y2="766.01"/><line class="cls-4" x1="1050.47" y1="815.57" x2="840.21" y2="815.57"/><line class="cls-5" x1="688.62" y1="348.03" x2="664" y2="328.95"/><line class="cls-5" x1="755.08" y1="305.7" x2="775.39" y2="292.16"/><line class="cls-5" x1="755.7" y1="388.16" x2="782.16" y2="376.16"/><line class="cls-5" x1="729.48" y1="431.24" x2="702.92" y2="412.78"/><line class="cls-5" x1="808.62" y1="433.08" x2="821.29" y2="412.78"/><line class="cls-5" x1="931.42" y1="349.08" x2="958.16" y2="334.31"/><line class="cls-5" x1="900.31" y1="450.62" x2="880.93" y2="431.24"/><line class="cls-5" x1="963.7" y1="529.85" x2="989.54" y2="515.24"/><line class="cls-5" x1="890.62" y1="584.42" x2="872.13" y2="563.95"/><line class="cls-5" x1="1006.16" y1="616.16" x2="990.47" y2="596.79"/><line class="cls-5" x1="1064.31" y1="529.85" x2="1040.31" y2="506.96"/><line class="cls-5" x1="1118.47" y1="574.18" x2="1140.62" y2="557.9"/><line class="cls-5" x1="1102.77" y1="488.47" x2="1112" y2="465.39"/><line class="cls-5" x1="952.8" y1="230.01" x2="982.16" y2="211.54"/><line class="cls-5" x1="872.13" y1="100.78" x2="854.77" y2="82.11"/><line class="cls-5" x1="960.93" y1="91.44" x2="983.08" y2="71.24"/><line class="cls-5" x1="899.16" y1="193.08" x2="872.13" y2="177.39"/><line class="cls-5" x1="867.7" y1="279.39" x2="840.21" y2="269.7"/><line class="cls-6" x1="927.08" y1="150.62" x2="952.8" y2="132.16"/><line class="cls-6" x1="908.93" y1="395.24" x2="885.23" y2="379.7"/><line class="cls-6" x1="928.69" y1="628.78" x2="936" y2="596.79"/><line class="cls-6" x1="1066.16" y1="628.78" x2="1086.47" y2="616.16"/><line class="cls-6" x1="795.2" y1="470.93" x2="765.23" y2="461.7"/><path class="cls-2" d="M334.9,959.38h28.31a14.92,14.92,0,0,1,14.92,14.92v57.08a0,0,0,0,1,0,0H320a0,0,0,0,1,0,0V974.3A14.92,14.92,0,0,1,334.9,959.38Z" transform="translate(587.37 1844.6) rotate(-180)"/><path class="cls-7" d="M376.6,1011.1a17.55,17.55,0,0,0,0-35.1" transform="translate(-110.74 -146.17)"/><path class="cls-2" d="M276.41,976.06c6.61,6.62,16.73,7.23,22.59,1.37s5.25-16-1.36-22.6" transform="translate(-110.74 -146.17)"/><rect class="cls-2" x="284.8" y="984.86" width="56.05" height="12.79" transform="translate(-277.63 1767.21) rotate(-135)"/><path class="cls-8" d="M877.85,746.48c4.13,27.93-9.9,51.75-9.9,51.75s-20.72-21.46-24.84-49.39,9.9-51.75,9.9-51.75S873.72,718.55,877.85,746.48Z" transform="translate(-110.74 -146.17)"/><path class="cls-8" d="M871.81,764.72c18.46,25.13,17.79,50.77,17.79,50.77s-30.59-15.09-49-40.21-17.79-50.77-17.79-50.77S853.36,739.6,871.81,764.72Z" transform="translate(-110.74 -146.17)"/><path class="cls-8" d="M895,749.51c-4.9,27.88-26.21,49.07-26.21,49.07s-13.36-24-8.46-51.87,26.21-49.06,26.21-49.06S899.88,721.64,895,749.51Z" transform="translate(-110.74 -146.17)"/><path class="cls-8" d="M910.35,769.71c-15.44,26-44.16,42.73-44.16,42.73s-3.68-25.53,11.76-51.57,44.16-42.74,44.16-42.74S925.79,743.66,910.35,769.71Z" transform="translate(-110.74 -146.17)"/><ellipse class="cls-1" cx="761.9" cy="706.64" rx="145.05" ry="99.93"/><rect class="cls-2" x="640.91" y="785.18" width="256.67" height="99.59" rx="45.85"/><line class="cls-9" x1="679.01" y1="636.12" x2="652.28" y2="615.4"/><line class="cls-9" x1="640.91" y1="743.34" x2="616.85" y2="759.82"/><line class="cls-9" x1="710.85" y1="734.35" x2="752.37" y2="741.09"/><line class="cls-9" x1="817.03" y1="632.75" x2="842.11" y2="601.95"/><line class="cls-9" x1="862.83" y1="666.28" x2="890.23" y2="648.82"/><line class="cls-9" x1="868.17" y1="756.44" x2="894.24" y2="773.15"/><line class="cls-6" x1="722.9" y1="673.18" x2="710.5" y2="644.5"/><line class="cls-6" x1="841.57" y1="704.45" x2="811.76" y2="718.57"/><line class="cls-6" x1="697.37" y1="688.05" x2="668.99" y2="669.28"/><polyline class="cls-9" points="640.91 824.97 692.24 844.99 743.58 824.97 794.91 844.99 846.25 824.97 897.58 844.99"/><path class="cls-10" d="M533,945l131-253.53c10.6,39.12,58.27,59.31,49.62,88s-28.41.38-40.41,25.22,27,81-1.79,109.47c-20.9,20.68-44.16-8.19-73.54.16s-13.1,51.48-44.24,42.18A55.42,55.42,0,0,1,533,945Z" transform="translate(-110.74 -146.17)"/><path class="cls-2" d="M605.88,502.19,582.53,943.55c-37.72.61-66.44-11.59-68.08-27-4-37.78,29.91-37.6,30.09-57.18.28-31-52.75-27.48-57-62.82s32.72-34.49,33.85-67.6S453.61,657.15,471.13,611c12.71-33.53,51.59-15.43,79.35-40.44s-10.37-62.17,27.69-69.3A63.89,63.89,0,0,1,605.88,502.19Z" transform="translate(-110.74 -146.17)"/><path class="cls-1" d="M427.16,696c-40.61-28.54-96.17,13.53-120.67,42.32L571.41,971.38c13.86-26.81,10.72-61.16,1.11-74.74-12.83-18.12-43.06,3.91-54.35-20.34s38.41-54.34,19.7-83.91c-12.43-19.64-96.67-18.8-103.87-23.91C406.51,749,460.9,719.66,427.16,696Z" transform="translate(-110.74 -146.17)"/><path class="cls-3" d="M600.39,1030.94H520.71c-.59,0-1.19,0-1.78,0-36.34-1.36-56.55-47.31-36-80.47L501.21,921H619.89l18.26,29.41c20.57,33.16.36,79.11-36,80.47C601.59,1030.93,601,1030.94,600.39,1030.94Z" transform="translate(-110.74 -146.17)"/><line class="cls-9" x1="363.99" y1="842.51" x2="535.64" y2="842.51"/><line class="cls-9" x1="367.97" y1="814.08" x2="532.21" y2="814.08"/><path class="cls-10" d="M1395,904.16,1527.5,521.57c11.09,52.07,60,69.41,51.36,111.25s-29.09,6.95-41.22,44.25,28.13,106.67-1.16,152.83c-21.26,33.51-45.26-1.43-75.3,16.83s-13.09,74.64-45,68.74A41.47,41.47,0,0,1,1395,904.16Z" transform="translate(-110.74 -146.17)"/><path class="cls-1" d="M1383.43,888.36l-137.37-366c-29.44,10.73-48.44,29.61-45.54,43.17,7.08,33.12,33.38,22.85,38.81,39.34,8.6,26.15-33.53,39-27.32,70.11s34.73,19.39,44.54,47-33.18,80.85-7.11,114.65c18.93,24.55,44.22-2.35,72.53,10.5s8.74,55.64,40.22,50.31A50.25,50.25,0,0,0,1383.43,888.36Z" transform="translate(-110.74 -146.17)"/><path class="cls-2" d="M1321.37,821.7c5.55,68.7,80.36,82.45,121.83,78.38l2.62-494.56c-32.18,12.72-58.38,49.82-62.71,72.83-5.79,30.72,34.2,39,22.23,74.28s-72.64,15.48-83.68,63.37c-7.34,31.81,53.94,114.91,54.88,127.14C1380.15,789.82,1316.75,764.63,1321.37,821.7Z" transform="translate(-110.74 -146.17)"/><path class="cls-3" d="M1485.74,1030.94h-168a37.68,37.68,0,0,1-37.69-37.69l23-140.15h197.38l23,140.15A37.68,37.68,0,0,1,1485.74,1030.94Z" transform="translate(-110.74 -146.17)"/><rect class="cls-2" x="1203.36" y="769.73" width="56.39" height="56.39"/><rect class="cls-2" x="1408.27" y="915.9" width="56.39" height="56.39" transform="translate(977.57 -885.38) rotate(45)"/><ellipse class="cls-1" cx="1473.88" cy="737.21" rx="95.43" ry="83.76"/><ellipse class="cls-1" cx="1450.17" cy="629.23" rx="55.91" ry="53.57"/><circle class="cls-1" cx="1578.09" cy="685.72" r="36.3"/><path class="cls-2" d="M1388.4,797.54H1573.7a0,0,0,0,1,0,0v72.31a14.92,14.92,0,0,1-14.92,14.92H1403.32a14.92,14.92,0,0,1-14.92-14.92V797.54A0,0,0,0,1,1388.4,797.54Z"/><line class="cls-9" x1="1459.24" y1="587.76" x2="1463.34" y2="559.85"/><line class="cls-9" x1="1494.37" y1="629.23" x2="1523.05" y2="617.23"/><line class="cls-9" x1="1391.91" y1="749.54" x2="1362.64" y2="755.98"/><line class="cls-9" x1="1450.17" y1="718.51" x2="1418.84" y2="703.87"/><line class="cls-9" x1="1599.75" y1="671.09" x2="1617.31" y2="647.48"/><line class="cls-9" x1="1555.84" y1="745.44" x2="1586.87" y2="752.76"/><line class="cls-6" x1="1417.67" y1="623.23" x2="1384.3" y2="607.86"/><line class="cls-6" x1="1497.88" y1="767.01" x2="1522.47" y2="779.69"/><line class="cls-6" x1="1455.73" y1="647.48" x2="1476.36" y2="671.09"/><line class="cls-6" x1="1438.95" y1="764.37" x2="1422.65" y2="775.33"/><polyline class="cls-10" points="1401.72 854.35 1435.11 820.96 1468.5 854.35"/><polyline class="cls-10" points="1493.6 854.35 1526.99 820.96 1560.38 854.35"/><line class="cls-11" x1="1761.38" y1="894.44" x2="10" y2="894.44"/></g><g id="Man"><ellipse class="cls-12" cx="1058.25" cy="1045.06" rx="288.76" ry="3.85"/><line class="cls-13" x1="1190.42" y1="900.41" x2="1230.25" y2="779.17"/><line class="cls-13" x1="1159.25" y1="779.17" x2="1263.03" y2="900.08"/><line class="cls-14" x1="1159.25" y1="779.17" x2="1010.42" y2="898.73"/><line class="cls-13" x1="1042.98" y1="779.17" x2="1190.42" y2="898.73"/><polygon class="cls-15" points="1051.24 779.17 1034.42 779.17 962.42 1045.47 979.24 1045.47 1051.24 779.17"/><polygon class="cls-16" points="1221.13 779.17 1237.95 779.17 1309.95 1045.47 1293.13 1045.47 1221.13 779.17"/><polygon class="cls-16" points="1131.8 779.17 1114.98 779.17 1042.98 1045.47 1059.8 1045.47 1131.8 779.17"/><polygon class="cls-15" points="1150.56 779.17 1167.38 779.17 1239.38 1045.47 1222.56 1045.47 1150.56 779.17"/><ellipse class="cls-17" cx="1300.93" cy="1038.18" rx="3.69" ry="6.37" transform="translate(-323.76 200.5) rotate(-14.04)"/><path class="cls-18" d="M1366.39,926.15H1295.6a59.73,59.73,0,0,1-59.16-67.95L1263,667.38a33.52,33.52,0,0,1,33.19-28.89h69.66A33.51,33.51,0,0,1,1399,667.38l26.53,190.82A59.72,59.72,0,0,1,1366.39,926.15Z" transform="translate(-110.74 -146.17)"/><path class="cls-18" d="M990.62,751.68h246.56a0,0,0,0,1,0,0V780a0,0,0,0,1,0,0H1015.85a25.23,25.23,0,0,1-25.23-25.23v-3.08A0,0,0,0,1,990.62,751.68Z"/><ellipse class="cls-17" cx="1271.85" cy="934.34" rx="3.69" ry="6.37" transform="translate(-299.43 190.34) rotate(-14.04)"/><path class="cls-19" d="M1028,1125.48l.33,29.76s-62.41,10.51-83.57,36H1069.1l-5.21-85.06Z" transform="translate(-110.74 -146.17)"/><path class="cls-19" d="M1227.1,1118.67l.34,35.39s-27.83,3.89-39.17,36.88h90.13l-9-38.84-3.52-35.4Z" transform="translate(-110.74 -146.17)"/><polygon class="cls-20" points="953.16 967.79 956.05 1007.23 917.59 1009.07 917.27 979.32 953.16 967.79"/><polygon class="cls-20" points="1154.37 960.29 1158.65 1005.94 1116.71 1007.89 1116.36 972.5 1154.37 960.29"/><path class="cls-17" d="M1051.83,812.51h216.78L1279,903.32H1071.66l3.06,234.73h-66.49L976.82,897.29A75.5,75.5,0,0,1,1051.83,812.51Z" transform="translate(-110.74 -146.17)"/><path class="cls-21" d="M1373.77,812.51H1231.06c-29.49,0-52.54,25.15-49.65,54.16l28.11,271.38h65.37l-11.06-234.73h46.36c35.11,0,63.58-28.14,63.58-62.87Z" transform="translate(-110.74 -146.17)"/><path class="cls-22" d="M1121.15,625.86l-50.46,12.45L937.77,620.2l-8,28.86s99.08,39.54,139.69,39.86,87.08-19.2,87.08-19.2Z" transform="translate(-110.74 -146.17)"/><path class="cls-23" d="M1182.05,681.36l15.31,131.15h176.41s40.62-195.11-101.33-227.69c-67.13-15.41-165.75,40.87-165.75,40.87l14.36,73.52Z" transform="translate(-110.74 -146.17)"/><path class="cls-22" d="M1303.13,595.59c-1.77,20.86-29.85,40.54-53.44,36.13-25.09-4.69-34-22.46-22.23-44.16,23.56-5.44,31.54-8.61,52.23-1.29C1288,589.19,1296.11,591.65,1303.13,595.59Z" transform="translate(-110.74 -146.17)"/><path class="cls-19" d="M1150.91,488.5c-3.17,2.41-28,39.73,19.07,51.79Z" transform="translate(-110.74 -146.17)"/><path class="cls-22" d="M1270.87,519.54l2.16,9c-32.42-1-24.27-30.4-24.27-30.4-38,19.24-66.24,24.39-86.87,21.84,0-.81.07-1.62.13-2.42l1.75-2.45,31.8-44.58,62.59-4.09,7.88,32.92Z" transform="translate(-110.74 -146.17)"/><path class="cls-22" d="M1276.79,520.83a32.74,32.74,0,0,0-3.75,7.68A21.75,21.75,0,0,1,1276.79,520.83Z" transform="translate(-110.74 -146.17)"/><path class="cls-22" d="M1283.31,558.84l3.32,32.5-48.92,26.06-4.37-25.65s-40.26,7.57-50.72,3.86a240.24,240.24,0,0,1-14.34-35.86c-3.75-12.2-6.69-25.91-6.44-38.37,0-.46,0-.92.05-1.37,20.63,2.55,48.83-2.6,86.87-21.84,0,0-8.15,29.39,24.27,30.4a.15.15,0,0,0,0-.06,32.74,32.74,0,0,1,3.75-7.68c.6-.83,1.24-1.67,1.94-2.5a42.58,42.58,0,0,1,6.8-6.52.1.1,0,0,1,0,0,27.41,27.41,0,0,1,10.3-5.11h0a14.08,14.08,0,0,1,14.47,4.84l.1.12C1328.41,532.54,1283.31,558.84,1283.31,558.84Z" transform="translate(-110.74 -146.17)"/><path class="cls-19" d="M1295.89,506.65h0c-3.57.79-10.16,3.08-19.09,14.17a19.42,19.42,0,0,0-3.75,7.68.15.15,0,0,1,0,.06c-32.42-1-24.27-30.4-24.27-30.4-38,19.24-66.24,24.39-86.87,21.84-51-6.29-55.74-59.61-48.63-63.84,9.37-5.56,31,21.18,31,21.18s-2.14-54.41,32.57-59.42c24.37-3.51,38.34,32.21,38.34,32.21s28.6-23.18,68.71,8.18C1318.74,485.61,1301.07,502.67,1295.89,506.65Z" transform="translate(-110.74 -146.17)"/><polyline class="cls-24" points="1160.86 284.67 1159.89 309.49 1169.56 312.57 1183.94 293.15"/><path class="cls-25" d="M1207.33,577.17s12.85,0,11.85-10.86" transform="translate(-110.74 -146.17)"/><polygon class="cls-20" points="1122.6 445.59 1148.63 440.1 1125.8 463.23 1122.6 445.59"/><circle class="cls-19" cx="1104.11" cy="398.69" r="6.63"/><circle class="cls-19" cx="1070.43" cy="403.6" r="6.63"/><path class="cls-22" d="M1303.61,747,1360,771.06s-9.86,41.63-30.56,60.35-144.13,84.8-144.13,84.8V876.82l100.28-81.07Z" transform="translate(-110.74 -146.17)"/><ellipse class="cls-17" cx="1375.32" cy="1030.52" rx="1.11" ry="6.37" transform="translate(-335.59 257.53) rotate(-15.45)"/><ellipse class="cls-17" cx="1348.52" cy="934.15" rx="1.11" ry="6.37" transform="translate(-310.89 246.91) rotate(-15.45)"/><ellipse class="cls-17" cx="1144.63" cy="932.87" rx="6.38" ry="1.09" transform="translate(-150.6 1668.4) rotate(-75.84)"/><ellipse class="cls-17" cx="1118.41" cy="1034.67" rx="6.38" ry="1.09" transform="translate(-269.12 1719.89) rotate(-75.84)"/><path class="cls-22" d="M1190.62,872.56l-33.5,12.58a133,133,0,0,0-12.66,8.3c-6.46,4.83-10.22,7.91-23.41,12.22-9.2,3,3.06,10.06,9.36,9.35,6.49-.73,22.11-12.93,24.37-6s-10.38,21.73-24.88,33.61a6,6,0,0,0-1.52,6.66c1.1,2.68,12.42-2.72,12.42-2.72s-1.82,3.71,2.71,5.31c1.6.57,10.73-1.91,10.73-1.91a39.36,39.36,0,0,0,10-2.17c8-3.15,20.19-11.17,22.69-14.43,6-7.91,15.7-22,18.63-31.1S1194.1,888.43,1190.62,872.56Z" transform="translate(-110.74 -146.17)"/><path class="cls-22" d="M941.76,647.87,933,654.2a79,79,0,0,1-11.27,7c-7.28,3.83-12.26,3.61-23.4,11.1-12.65,8.5-9.14-3.43-3.88-8.39,4.11-3.88,10.58-4.63,12.64-9.09-2.59-.94-6.53-3.41-26.92-1.67-3.65.31-15,3.8-15,3.8-3.49.64-10.69,2.3-12.54-1.15-.46-.85.39-2.21.39-2.21s-4.48,1.13-6.15-2.43c-.65-1.4,8.61-6,8.61-6s-5.85,2-6.22-3c-.06-.81,26.33-14.18,26.33-14.18l-5.26,1.93-7.12,2.92s-3.92.24-5.08-2.26c-.46-1,5.12-4.55,11.71-7.61a70.1,70.1,0,0,1,26.69-6.63c10-.65,13.2-1.67,26,.25A107.53,107.53,0,0,1,939.62,621" transform="translate(-110.74 -146.17)"/><path class="cls-26" d="M1310.36,511.49c-9.69-11.11-23.78-2.55-31.63,6.84l-7.86,1.21L1266,499.39l41.47-6.39Z" transform="translate(-110.74 -146.17)"/><polygon class="cls-27" points="1155.3 353.23 1160.13 373.38 1138.72 376.67 1138.03 376.78 1135.78 362.18 1134.89 356.37 1137.73 355.93 1155.3 353.23"/><rect class="cls-28" x="1138.05" y="510.55" width="111.52" height="5.88" transform="matrix(0.99, -0.15, 0.15, 0.99, -174.98, 41.52)"/><path class="cls-29" d="M1248.57,541.69s-7,12.62-50.56,18.31c-23.15,3-36.65-.61-44.09-7.92-5.72-5.63-14.78-27.2-14.78-27.2l110.23-17Z" transform="translate(-110.74 -146.17)"/><polygon class="cls-30" points="1087.9 396.23 1080.77 424.22 1093.77 422.57 1087.9 396.23"/><line class="cls-31" x1="1112.81" y1="359.77" x2="1113.89" y2="365.55"/><rect class="cls-27" x="1215.44" y="515.87" width="19.95" height="8.53" rx="4.27" transform="translate(-175.63 46.4) rotate(-8.75)"/><path class="cls-27" d="M1141.27,529.73a4.55,4.55,0,0,1,1.39-.46l8.19-1.26a4.27,4.27,0,0,1,4.87,3.57h0a4.27,4.27,0,0,1-3.57,4.86l-7.18,1.11" transform="translate(-110.74 -146.17)"/><path class="cls-32" d="M1307.61,688.49c-13.16,18.46-19.85,49.31-19.85,49.31l16.85,7.2" transform="translate(-110.74 -146.17)"/><polygon class="cls-20" points="1192.88 600.83 1249.29 624.9 1244.72 640.1 1192.88 600.83"/><polygon class="cls-20" points="996.65 483.09 1007.01 536.11 997.08 538.36 996.65 483.09"/><polygon class="cls-33" points="1070.43 479.68 1071.24 535.14 1043.44 543.35 1070.43 479.68"/><rect class="cls-34" x="469.65" y="916.34" width="183.99" height="128.43"/><rect class="cls-35" x="653.64" y="916.34" width="220.93" height="128.43"/><rect class="cls-34" x="536.86" y="759.26" width="183.99" height="128.43"/><rect class="cls-35" x="720.85" y="759.26" width="220.93" height="128.43"/><polygon class="cls-34" points="691.31 720.11 429.05 720.11 560.18 599.75 691.31 720.11"/><polyline class="cls-36" points="507 693.42 558.73 645.95 610.45 693.42"/><polygon class="cls-35" points="904.22 720.11 691.31 720.11 560.18 599.75 773.09 599.75 904.22 720.11"/><rect class="cls-36" x="747.69" y="972.9" width="36.83" height="71.87"/><rect class="cls-36" x="494.77" y="972.9" width="36.83" height="71.87"/><path class="cls-36" d="M701.8,982.36h0a23.49,23.49,0,0,1,23.49,23.49v38.93a0,0,0,0,1,0,0h-47a0,0,0,0,1,0,0v-38.93A23.49,23.49,0,0,1,701.8,982.36Z"/><path class="cls-36" d="M830.41,982.36h0a23.49,23.49,0,0,1,23.49,23.49v38.93a0,0,0,0,1,0,0h-47a0,0,0,0,1,0,0v-38.93A23.49,23.49,0,0,1,830.41,982.36Z"/><rect class="cls-36" x="745.49" y="759.26" width="23.18" height="76.67"/><rect class="cls-37" x="672.88" y="615.79" width="23.18" height="54.38"/><rect class="cls-36" x="784.52" y="759.26" width="23.18" height="76.67"/><rect class="cls-36" x="823.55" y="759.26" width="23.18" height="76.67"/><rect class="cls-36" x="862.57" y="759.26" width="23.18" height="76.67"/><rect class="cls-36" x="901.6" y="759.26" width="23.18" height="76.67"/><rect class="cls-36" x="745.49" y="848.77" width="23.18" height="24.2"/><rect class="cls-36" x="784.52" y="848.77" width="23.18" height="24.2"/><rect class="cls-36" x="823.55" y="848.77" width="23.18" height="24.2"/><rect class="cls-36" x="862.57" y="848.77" width="23.18" height="24.2"/><rect class="cls-36" x="901.6" y="848.77" width="23.18" height="24.2"/><rect class="cls-36" x="706.47" y="679.87" width="23.18" height="24.2"/><rect class="cls-37" x="664.67" y="608.48" width="39.59" height="24.2"/><polyline class="cls-37" points="484.11 669.57 484.11 615.79 507.29 615.79 507.29 648.3"/><rect class="cls-37" x="475.9" y="608.48" width="39.59" height="24.2"/><rect class="cls-37" x="792.72" y="615.79" width="23.18" height="54.38"/><rect class="cls-37" x="784.52" y="608.48" width="39.59" height="24.2"/><rect class="cls-36" x="745.49" y="679.87" width="23.18" height="24.2"/><rect class="cls-36" x="784.52" y="679.87" width="23.18" height="24.2"/><rect class="cls-36" x="823.55" y="679.87" width="23.18" height="24.2"/><rect class="cls-36" x="862.57" y="679.87" width="23.18" height="24.2"/><rect class="cls-36" x="558.73" y="759.26" width="23.18" height="76.67"/><rect class="cls-36" x="597.75" y="759.26" width="23.18" height="76.67"/><rect class="cls-36" x="636.78" y="759.26" width="23.18" height="76.67"/><rect class="cls-36" x="675.81" y="759.26" width="23.18" height="76.67"/><rect class="cls-36" x="558.73" y="848.77" width="23.18" height="24.2"/><rect class="cls-36" x="597.75" y="848.77" width="23.18" height="24.2"/><rect class="cls-36" x="636.78" y="848.77" width="23.18" height="24.2"/><rect class="cls-36" x="675.81" y="848.77" width="23.18" height="24.2"/><rect class="cls-36" x="676.47" y="929.53" width="23.18" height="24.2"/><rect class="cls-36" x="715.49" y="929.53" width="23.18" height="24.2"/><rect class="cls-36" x="754.52" y="929.53" width="23.18" height="24.2"/><rect class="cls-36" x="793.54" y="929.53" width="23.18" height="24.2"/><rect class="cls-36" x="832.57" y="929.53" width="23.18" height="24.2"/><rect class="cls-36" x="494.77" y="929.53" width="23.18" height="24.2"/><rect class="cls-36" x="533.8" y="929.53" width="23.18" height="24.2"/><rect class="cls-36" x="572.82" y="929.53" width="23.18" height="24.2"/><rect class="cls-36" x="611.85" y="929.53" width="23.18" height="24.2"/></g></svg>