<svg xmlns="http://www.w3.org/2000/svg" viewBox="0 0 1771.38 1029.47"><defs><style>.cls-1,.cls-5{fill:#dceeff;}.cls-2{fill:#b6d4ff;}.cls-3,.cls-7{fill:#ecf6ff;}.cls-4{fill:#cce3ff;}.cls-5,.cls-6,.cls-7{stroke:#dceeff;}.cls-18,.cls-21,.cls-22,.cls-23,.cls-30,.cls-5,.cls-6,.cls-7{stroke-miterlimit:10;}.cls-22,.cls-5,.cls-6{stroke-width:9px;}.cls-14,.cls-6{fill:#fff;}.cls-18,.cls-7{stroke-linecap:round;}.cls-7{stroke-width:20px;}.cls-8{fill:#afb2bf;}.cls-9{fill:#464754;}.cls-10{fill:#767784;}.cls-11{fill:#2b2a38;}.cls-12{fill:#555468;}.cls-13{fill:#9aa1a8;}.cls-15{fill:#ffc000;}.cls-16{fill:#405fd3;}.cls-17{fill:#cf3e83;}.cls-18,.cls-21,.cls-22,.cls-23,.cls-30{fill:none;}.cls-18,.cls-30{stroke:#cf3e83;}.cls-18{stroke-width:14px;}.cls-19{fill:#e576c6;}.cls-20{fill:#0d0b6d;}.cls-21{stroke:#c94791;}.cls-21,.cls-23,.cls-30{stroke-width:3px;}.cls-22{stroke:#0d0b6d;}.cls-23{stroke:#182084;}.cls-24{fill:#1a1d21;}.cls-25{fill:#09070f;}.cls-26{fill:#282739;}.cls-27{fill:#6ca1ff;}.cls-28{fill:#db8b21;}.cls-29{fill:#747a7f;}</style></defs><title>back and obj 8</title><g id="Back"><rect class="cls-1" x="199.06" y="793.53" width="26.53" height="86.2"/><rect class="cls-1" x="420.08" y="793.53" width="26.53" height="86.2"/><rect class="cls-1" x="460.47" y="793.53" width="26.53" height="86.2"/><rect class="cls-1" x="681.49" y="793.53" width="26.53" height="86.2"/><rect class="cls-1" x="721.88" y="793.53" width="26.53" height="86.2"/><rect class="cls-1" x="942.9" y="793.53" width="26.53" height="86.2"/><rect class="cls-1" x="983.29" y="793.53" width="26.53" height="86.2"/><rect class="cls-1" x="1204.31" y="793.53" width="26.53" height="86.2"/><rect class="cls-1" x="1244.7" y="793.53" width="26.53" height="86.2"/><rect class="cls-1" x="1465.72" y="793.53" width="26.53" height="86.2"/><rect class="cls-2" x="1338.66" y="793.53" width="26.53" height="86.2"/><rect class="cls-2" x="1559.68" y="793.53" width="26.53" height="86.2"/><rect class="cls-2" x="1076.97" y="793.53" width="26.53" height="86.2"/><rect class="cls-2" x="1297.99" y="793.53" width="26.53" height="86.2"/><rect class="cls-2" x="815.71" y="793.53" width="26.53" height="86.2"/><rect class="cls-2" x="1036.73" y="793.53" width="26.53" height="86.2"/><rect class="cls-2" x="554.02" y="793.53" width="26.53" height="86.2"/><rect class="cls-2" x="775.04" y="793.53" width="26.53" height="86.2"/><rect class="cls-2" x="293.18" y="793.53" width="26.53" height="86.2"/><rect class="cls-2" x="514.19" y="793.53" width="26.53" height="86.2"/><rect class="cls-2" x="293.02" y="76.56" width="247.55" height="732.26"/><rect class="cls-2" x="554.43" y="635.74" width="247.55" height="173.08"/><rect class="cls-2" x="815.84" y="635.74" width="247.55" height="173.08"/><rect class="cls-2" x="1077.25" y="433.46" width="247.55" height="375.36"/><rect class="cls-2" x="1338.66" y="76.56" width="247.55" height="732.26"/><rect class="cls-1" x="199.56" y="76.56" width="247.55" height="732.26"/><rect class="cls-1" x="460.47" y="635.74" width="247.55" height="173.08"/><rect class="cls-1" x="721.88" y="635.74" width="247.55" height="173.08"/><rect class="cls-1" x="983.29" y="433.46" width="247.55" height="375.36"/><rect class="cls-1" x="1244.7" y="76.56" width="247.55" height="732.26"/><rect class="cls-3" x="1006.13" y="631.75" width="201.62" height="151.27"/><rect class="cls-3" x="744.85" y="658.15" width="201.62" height="128.26"/><rect class="cls-3" x="483.44" y="658.15" width="201.62" height="128.26"/><rect class="cls-3" x="1267.67" y="458.67" width="201.62" height="324.36"/><rect class="cls-3" x="1267.67" y="105.1" width="201.62" height="324.36"/><rect class="cls-3" x="222.53" y="454.97" width="201.62" height="324.36"/><rect class="cls-3" x="222.53" y="105.1" width="201.62" height="324.36"/><rect class="cls-2" x="1006.13" y="458.67" width="201.62" height="151.27"/><rect class="cls-4" x="1149.29" y="458.67" width="58.46" height="151.27"/><rect class="cls-4" x="889.57" y="458.67" width="133.56" height="151.27"/><rect class="cls-3" x="999.44" y="590.72" width="11.31" height="151.27" transform="translate(1900.32 1200.66) rotate(180)"/><rect class="cls-4" x="407.63" y="479.08" width="16.51" height="69.49"/><rect class="cls-4" x="407.63" y="336.82" width="16.51" height="69.49"/><rect class="cls-4" x="1452.77" y="479.08" width="16.51" height="69.49"/><rect class="cls-4" x="1191.24" y="672.65" width="16.51" height="69.49"/><rect class="cls-4" x="947.27" y="763.71" width="16.51" height="69.49" transform="translate(47.2 1621.93) rotate(-90)"/><rect class="cls-4" x="685.86" y="763.71" width="16.51" height="69.49" transform="translate(-214.21 1360.52) rotate(-90)"/><rect class="cls-4" x="1452.77" y="336.82" width="16.51" height="69.49"/><rect class="cls-4" x="989.82" y="620.66" width="9.62" height="91.38" transform="translate(1879.39 1200.66) rotate(180)"/><path class="cls-4" d="M1219.19,472.07H1244a0,0,0,0,1,0,0V572.18a12.19,12.19,0,0,1-12.19,12.19h-.49a12.19,12.19,0,0,1-12.19-12.19V472.07A0,0,0,0,1,1219.19,472.07Z" transform="translate(593.53 1627.79) rotate(-90)"/><path class="cls-1" d="M1190.58,506.06h14.1a.15.15,0,0,1,.15.15v37.12a7.06,7.06,0,0,1-7.06,7.06h-.28a7.06,7.06,0,0,1-7.06-7.06V506.21A.15.15,0,0,1,1190.58,506.06Z" transform="translate(559.54 1593.8) rotate(-90)"/><path class="cls-4" d="M1240.86,492.31h.49a12.19,12.19,0,0,1,12.19,12.19V613.86a0,0,0,0,1,0,0h-24.86a0,0,0,0,1,0,0V504.5A12.19,12.19,0,0,1,1240.86,492.31Z" transform="translate(578.15 1662.13) rotate(-90)"/><path class="cls-1" d="M1275.84,527.18h.28a7,7,0,0,1,7,7V579a0,0,0,0,1,0,0h-14.25a0,0,0,0,1,0,0V534.17A7,7,0,0,1,1275.84,527.18Z" transform="translate(613.03 1697.01) rotate(-90)"/><path class="cls-1" d="M725.32,718a58.45,58.45,0,0,1-27.79,49.79h-61.2a58.51,58.51,0,0,1-21.14-76.89H718.66A58.1,58.1,0,0,1,725.32,718Z" transform="translate(-109.86 -132.05)"/><rect class="cls-1" x="630.98" y="539.33" width="25.24" height="96.4"/><rect class="cls-4" x="605.74" y="539.33" width="25.24" height="96.4"/><rect class="cls-4" x="656.21" y="539.33" width="25.24" height="96.4"/><path class="cls-2" d="M681.45,539.33h67.79a5.13,5.13,0,0,1,5.13,5.13V630.6a5.13,5.13,0,0,1-5.13,5.13H681.45a0,0,0,0,1,0,0v-96.4A0,0,0,0,1,681.45,539.33Z"/><rect class="cls-4" x="823" y="664.55" width="9.54" height="51.31" transform="translate(27.7 1385.92) rotate(-90)"/><rect class="cls-4" x="823" y="690.71" width="9.54" height="28.44" transform="translate(12.98 1400.65) rotate(-90)"/><rect class="cls-1" x="742.38" y="521.08" width="52.44" height="59.64" transform="translate(107.84 1187.45) rotate(-90)"/><rect class="cls-4" x="821.48" y="479.91" width="52.44" height="59.64" transform="translate(228.1 1225.38) rotate(-90)"/><rect class="cls-4" x="725.46" y="428.41" width="52.44" height="59.64"/><rect class="cls-1" x="815.71" y="378.29" width="52.45" height="59.64"/><rect class="cls-4" x="886.68" y="351.46" width="52.44" height="59.65"/><polygon class="cls-3" points="708.01 392.63 729.6 367.49 747.24 387.8 756.47 377.68 767.66 388 767.66 403.9 708.01 403.9 708.01 392.63"/><circle class="cls-3" cx="842.03" cy="404.24" r="11.9"/><path class="cls-3" d="M971.18,567.47a18.9,18.9,0,0,1-.18,2.62H932.79a18.9,18.9,0,0,1-.18-2.62,19.29,19.29,0,0,1,38.57,0Z" transform="translate(-109.86 -132.05)"/><circle class="cls-3" cx="900.57" cy="383.99" r="9.55"/><path class="cls-3" d="M1025.91,541.05a16.26,16.26,0,0,1-.14,2.11H996.55v-8.95a15.48,15.48,0,0,1,29.36,6.84Z" transform="translate(-109.86 -132.05)"/><circle class="cls-3" cx="925.59" cy="389.72" r="10.2"/><path class="cls-3" d="M1049,527.79v15.37h-32a17.87,17.87,0,0,1-.17-2.54A18.64,18.64,0,0,1,1035.46,522h0A18.54,18.54,0,0,1,1049,527.79Z" transform="translate(-109.86 -132.05)"/><circle class="cls-3" cx="650.83" cy="413.03" r="15.38"/><circle class="cls-3" cx="673.08" cy="432" r="6.26"/><circle class="cls-3" cx="751.69" cy="455.64" r="17.69"/><rect class="cls-1" x="865.46" y="587.69" width="52.44" height="59.64" transform="translate(164.31 1377.15) rotate(-90)"/><polygon class="cls-3" points="752 500.4 773.58 475.26 791.22 495.57 800.45 485.46 811.64 495.78 811.64 511.68 752 511.68 752 500.4"/><rect class="cls-5" x="739.22" y="252.92" width="140.42" height="161.45" transform="translate(1509 535.25) rotate(-180)"/><rect class="cls-6" x="733.9" y="252.92" width="140.42" height="161.45" transform="translate(1498.36 535.25) rotate(-180)"/><rect class="cls-4" x="653.66" y="154.7" width="79.16" height="93.8"/><rect class="cls-5" x="937.39" y="252.92" width="140.42" height="161.45" transform="translate(1905.33 535.25) rotate(-180)"/><rect class="cls-6" x="932.07" y="252.92" width="140.42" height="161.45" transform="translate(1894.69 535.25) rotate(-180)"/><rect class="cls-1" x="851.83" y="154.7" width="79.16" height="93.8"/><rect class="cls-5" x="1135.56" y="252.92" width="140.42" height="161.45" transform="translate(2301.67 535.25) rotate(-180)"/><rect class="cls-6" x="1130.24" y="252.92" width="140.42" height="161.45" transform="translate(2291.03 535.25) rotate(-180)"/><rect class="cls-4" x="1050" y="154.7" width="79.16" height="93.8"/><path class="cls-1" d="M1061.67,579.69h90.54a0,0,0,0,1,0,0v0a42.74,42.74,0,0,1-42.74,42.74h-5.06a42.74,42.74,0,0,1-42.74-42.74v0A0,0,0,0,1,1061.67,579.69Z"/><path class="cls-1" d="M1061.67,543.75h90.54a0,0,0,0,1,0,0v0a42.74,42.74,0,0,1-42.74,42.74h-5.06a42.74,42.74,0,0,1-42.74-42.74v0A0,0,0,0,1,1061.67,543.75Z"/><path class="cls-1" d="M1061.67,507.82h90.54a0,0,0,0,1,0,0v0a42.74,42.74,0,0,1-42.74,42.74h-5.06a42.74,42.74,0,0,1-42.74-42.74v0A0,0,0,0,1,1061.67,507.82Z"/><rect class="cls-3" x="298.62" width="109.01" height="76.56"/><rect class="cls-4" x="323.88" y="11.86" width="59.32" height="15.06" rx="7.53"/><rect class="cls-4" x="407.63" width="66.58" height="76.56"/><line class="cls-7" x1="1761.38" y1="880.96" x2="10" y2="880.96"/></g><g id="Man"><ellipse class="cls-8" cx="882.9" cy="1025.85" rx="472.69" ry="3.62"/><rect class="cls-9" x="995.15" y="688.25" width="24.82" height="337.6"/><rect class="cls-9" x="1019.97" y="688.25" width="24.82" height="337.6"/><rect class="cls-9" x="1169.84" y="688.25" width="24.82" height="337.6"/><rect class="cls-10" x="1194.66" y="688.25" width="24.82" height="337.6"/><rect class="cls-11" x="859.68" y="537.45" width="77.15" height="129.55"/><path class="cls-12" d="M1228,796.21H1016.58L929.21,689a7,7,0,0,1-1.22-6.26l2.9-10.36,193.35-3.53Z" transform="translate(-109.86 -132.05)"/><path class="cls-13" d="M1229.25,796.21H1030.36a4.28,4.28,0,0,1-3.32-1.66L931.87,677.73c-2.75-3.38-.69-8.93,3.32-8.93h196a10.57,10.57,0,0,1,8.18,4.08l93.19,114.4C1235.32,790.66,1233.26,796.21,1229.25,796.21Z" transform="translate(-109.86 -132.05)"/><path class="cls-14" d="M1216.65,788.63h-183a.68.68,0,0,1-.53-.26L944.86,680.05c-1.34-1.64-.33-4.32,1.6-4.32h181.13a8.1,8.1,0,0,1,6.26,3.12l84.88,104.2C1220.45,785.16,1219.16,788.63,1216.65,788.63Z" transform="translate(-109.86 -132.05)"/><rect class="cls-10" x="694.52" y="664.1" width="597.54" height="24.15"/><rect class="cls-9" x="557.9" y="688.25" width="24.82" height="337.6"/><rect class="cls-10" x="582.73" y="688.25" width="24.82" height="337.6"/><rect class="cls-9" x="733.6" y="688.25" width="24.82" height="337.6"/><rect class="cls-9" x="562.73" y="688.25" width="195.69" height="144.62"/><rect class="cls-10" x="758.42" y="688.25" width="24.82" height="337.6"/><rect class="cls-10" x="776.61" y="688.25" width="130.83" height="144.62"/><rect class="cls-9" x="478.21" y="664.1" width="216.31" height="24.15"/><rect class="cls-9" x="571.75" y="688.25" width="335.69" height="15.48"/><rect class="cls-9" x="829.79" y="893.87" width="134.38" height="7.74" transform="translate(-110.63 1662.66) rotate(-90)"/><circle class="cls-9" cx="850.03" cy="787.79" r="10.31"/><circle class="cls-9" cx="850.03" cy="734.49" r="10.31"/><ellipse class="cls-15" cx="972.99" cy="688.65" rx="6.63" ry="10.29" transform="translate(-247.24 990.24) rotate(-56.62)"/><ellipse class="cls-16" cx="997.01" cy="688.62" rx="6.63" ry="10.29" transform="translate(-236.4 1010.29) rotate(-56.62)"/><ellipse class="cls-11" cx="1021.04" cy="688.58" rx="6.63" ry="10.29" transform="translate(-225.56 1030.34) rotate(-56.62)"/><ellipse class="cls-17" cx="1045.07" cy="688.55" rx="6.63" ry="10.29" transform="translate(-214.72 1050.39) rotate(-56.62)"/><path class="cls-15" d="M810,477.42c-11.18-17.7,7.41-92.18,53.44-110.45s102.85,23.39,89,67c-10.32,32.52-36.5-3.62-76.4,14.52S823.23,498.36,810,477.42Z" transform="translate(-109.86 -132.05)"/><path class="cls-18" d="M1095.14,332.93c-13.26,21.52-47.34.52-60.6,22s20.81,42.52,7.55,64-47.34.52-60.6,22,20.81,42.52,7.54,64-47.34.53-60.6,22" transform="translate(-109.86 -132.05)"/><path class="cls-18" d="M1182.06,406.56c-19.75,15.78-44.73-15.49-64.48.29s5.23,47-14.52,62.83-44.73-15.5-64.48.28,5.23,47.06-14.52,62.84-44.74-15.49-64.49.29" transform="translate(-109.86 -132.05)"/><path class="cls-15" d="M854.69,645.13C853.82,663.47,797,697.8,737,675.35c-43.18-16.16-74.39-71.88-41.21-93.87,20.45-13.55,33.22,25.61,72.11,35.12S855.72,623.41,854.69,645.13Z" transform="translate(-109.86 -132.05)"/><path class="cls-17" d="M1058.34,568.84c8.45-1.81,32.51,18.62,31.3,47.17-.87,20.56-21.46,40.68-36.39,29-9.2-7.21,6.64-17.39,5.14-35.3S1048.35,571,1058.34,568.84Z" transform="translate(-109.86 -132.05)"/><path class="cls-17" d="M750.93,492.82a31,31,0,0,1,41.91,12.8c8,15.11,1.52,25.19-13.58,33.23s-33.09,11-41.13-4.12A31,31,0,0,1,750.93,492.82Z" transform="translate(-109.86 -132.05)"/><path class="cls-16" d="M737.9,420l13.81,48.23S777.23,433,776.94,433,737.9,420,737.9,420Z" transform="translate(-109.86 -132.05)"/><path class="cls-16" d="M643.71,530.61l59.93-21.34s-47.76-15.43-47.72-15.17S643.71,530.61,643.71,530.61Z" transform="translate(-109.86 -132.05)"/><path class="cls-16" d="M648.32,445.29l74,40.91s-24.49-63-24.72-62.76S648.32,445.29,648.32,445.29Z" transform="translate(-109.86 -132.05)"/><path class="cls-16" d="M1070.59,720.87s-70.82-33.7-37.28-79.55S993,463.94,908.59,466.61c-58.51,1.85-65.74,71.18-152.82,95.18-58.25,16.06,87.7,76.92,170.05,32.82,84.08-45,49.24,41,87.8,96.41C1035.51,722.46,1070.59,720.87,1070.59,720.87Z" transform="translate(-109.86 -132.05)"/><circle class="cls-11" cx="1104.73" cy="1008.42" r="17.44"/><path class="cls-19" d="M1109.08,698.11h0c4-6.08,8.68-7.58,5.85-9.44l-24-17.36c-2.82-1.86-7.55,6.39-8.77,9.31-1.86,4.45-4.88,16.89-2.25,19.38l16.74,5.79C1099.49,707.65,1105.08,704.19,1109.08,698.11Z" transform="translate(-109.86 -132.05)"/><path class="cls-20" d="M1154,543.49s-25.8,39.18,13.59,46.24" transform="translate(-109.86 -132.05)"/><polygon class="cls-16" points="1050.82 467.58 1043.51 487.77 1053.24 487.5 1050.82 467.58"/><path class="cls-19" d="M1255.53,584.7c2.22-8.54,4.91,37.25,4.91,37.25l7.26,38.34-49.36,16.17-3.48-42s-40.54,6.11-49.36,2.31c0,0-9.35-39.31-5.24-67.95l31.29-32.64,54.31.07Z" transform="translate(-109.86 -132.05)"/><path class="cls-21" d="M1216.86,614.52s21.41-5.41,28.79-20.66" transform="translate(-109.86 -132.05)"/><path class="cls-20" d="M1256.32,610.32c12.79,0,29.75-47.7,9.54-73.36-27.28-34.63-56.23-17.3-56.23-17.3s-10-31.66-31.26-30c-30.28,2.32-31.57,49.45-31.57,49.45s-9.4-24.9-17.82-20.64-6.26,79.77,59.8,45.73c0,0-.93,23.46,15.38,22.69,7-.34,9.39-10.33,9.39-10.33s16.17,14.17,27.58,20.7C1241.13,597.23,1250.4,610.33,1256.32,610.32Z" transform="translate(-109.86 -132.05)"/><polyline class="cls-22" points="1143.15 369.75 1138.09 393.84 1145.12 396.67 1158.66 380.72"/><polygon class="cls-17" points="1105 502.41 1123.65 498.61 1106.01 514.68 1105 502.41"/><path class="cls-23" d="M1165.93,623.68s6.28.45,6.37-5.68" transform="translate(-109.86 -132.05)"/><path class="cls-24" d="M1114.36,585.61" transform="translate(-109.86 -132.05)"/><circle class="cls-20" cx="1057.3" cy="467.98" r="4.75"/><polygon class="cls-20" points="1200.59 930.38 1229.83 972.6 1213.5 1006.48 1175.98 1025.85 1233.9 1025.85 1273.28 979.14 1223.56 905 1200.59 930.38"/><polygon class="cls-17" points="1227.03 899.72 1256.1 953.5 1229.83 972.22 1200.59 930.24 1227.03 899.72"/><path class="cls-20" d="M1136.21,1091.05,1140,1125s-54.29,9.71-80.32,32.94l133.7-.28L1168.92,1084Z" transform="translate(-109.86 -132.05)"/><circle class="cls-11" cx="1235.15" cy="1008.42" r="17.44"/><polygon class="cls-17" points="1061.82 951.98 1072.31 991.76 1030.12 992.91 1026.93 963.74 1061.82 951.98"/><polygon class="cls-25" points="1166.89 753.04 1260.67 939.54 1211.75 966.1 1092.82 776.12 1166.89 753.04"/><path class="cls-26" d="M1140.23,888.62l51.1,220.92h-62L1050.92,870.7a38.42,38.42,0,0,1,36.5-50.39H1315.2v68.31Z" transform="translate(-109.86 -132.05)"/><path class="cls-19" d="M1101.91,807.23l-75.29-28.9,8.88-24.15,70.36,14.75,39-64.56,40.31,33.48-47.38,67.06C1130.78,813.68,1117.62,814.2,1101.91,807.23Z" transform="translate(-109.86 -132.05)"/><polygon class="cls-19" points="998.35 575.82 1094.76 617.59 1114.67 591.14 1002.47 555.95 998.35 575.82"/><rect class="cls-15" x="1083.29" y="789.03" width="173.9" height="6"/><rect class="cls-12" x="1074.47" y="756.56" width="151.08" height="32.46" rx="11.67"/><path class="cls-27" d="M1332.14,750.06l-7.08,70.42-122.18-.35-15.42-66.28-13.19,19.48-59.75-34.25s21.6-38.19,34.66-51.61c29-29.85,54.9-37.93,83-37.88s20.67-3.8,46.68,2.75c18.16,4.58,34.27,17.2,43.5,48.58C1331.89,733.5,1332.14,750.06,1332.14,750.06Z" transform="translate(-109.86 -132.05)"/><path class="cls-15" d="M1390,927.08h-81l-15-97V755.23a66,66,0,0,1,66-66h0a66,66,0,0,1,66,66v74.85l8,46.47A44.42,44.42,0,0,1,1390,927.08Z" transform="translate(-109.86 -132.05)"/><path class="cls-15" d="M1308.2,921.08h-51A44.42,44.42,0,0,0,1301.25,871Z" transform="translate(-109.86 -132.05)"/><path class="cls-28" d="M1387.31,754.16a24.12,24.12,0,0,1-24.12,24.12c-.66,0-1.32,0-2-.08s-1-.1-1.51-.18a24.11,24.11,0,0,1,0-47.71c.5-.08,1-.14,1.51-.18s1.3-.08,2-.08A24.12,24.12,0,0,1,1387.31,754.16Z" transform="translate(-109.86 -132.05)"/><path class="cls-14" d="M1380.34,754.16a20.85,20.85,0,1,1-20.62-23.85A24.12,24.12,0,0,1,1380.34,754.16Z" transform="translate(-109.86 -132.05)"/><rect class="cls-29" x="1096.96" y="987.91" width="196.31" height="24" rx="12"/><rect class="cls-29" x="1189.65" y="795.03" width="10.92" height="211.18"/><polygon class="cls-29" points="1255.7 795.03 1195.11 822.62 1134.52 795.03 1255.7 795.03"/><rect class="cls-12" x="1153.39" y="987.91" width="46.36" height="24" rx="12"/><path class="cls-19" d="M1274.08,651.18c1.19,3.84-2.69,9.23-17.48,9.53-18.17.37-38.31-3.19-41.7-10.06C1237.82,647,1253.21,645.9,1274.08,651.18Z" transform="translate(-109.86 -132.05)"/><path class="cls-19" d="M1045.9,758.9l-16.53-15.65a79.83,79.83,0,0,0-8.8-4.8c-4.81-2.21-7-2.6-13.8-9.38-4.77-4.72-5.74,3-3.81,7.29s15.7,10.84,12.75,15.12-13.53,9.93-24.75,4.93c-1.51-.67-6.72,5.23,3.52,19.15,5,6.86,16.4,13.21,21.58,11.69,0,0,14.7-3.81,20.62-5.64S1038.52,767.66,1045.9,758.9Z" transform="translate(-109.86 -132.05)"/><circle class="cls-11" cx="1155.65" cy="1008.42" r="17.44"/><circle class="cls-11" cx="1286.65" cy="1008.42" r="17.44"/><polygon class="cls-16" points="1077.6 621.79 1082.49 614.4 1085.45 655.56 1077.6 621.79"/><path class="cls-19" d="M1092.86,673.44h0a4.51,4.51,0,0,0-6.34-.45l-12.7,11.61c-1.83,1.63.63,3.77,1.66,4.29a6.54,6.54,0,0,0,6.47-.5l10.57-8.61A4.52,4.52,0,0,0,1092.86,673.44Z" transform="translate(-109.86 -132.05)"/><polygon class="cls-20" points="968.88 582.15 960.72 588.87 963.08 578.57 1005.85 509.33 1011.65 512.91 968.88 582.15"/><path class="cls-19" d="M1123.77,706.53l-15.92,4.59a31.54,31.54,0,0,1-9.47-1c-5.51-1.39-7.65-2.48-17.47-1.63-6.85.59-3.47-6,.59-8.08s20,1.71,19.7-3.49S1122,695,1123.77,706.53Z" transform="translate(-109.86 -132.05)"/><path class="cls-19" d="M1077.14,683h0a4.6,4.6,0,0,0-4.39,4.76l1.48,17.06c.17,2.44,3.5,1.79,4.58,1.28a6.57,6.57,0,0,0,3.7-5.42l-.36-13.57A4.61,4.61,0,0,0,1077.14,683Z" transform="translate(-109.86 -132.05)"/><path class="cls-19" d="M1245.53,591.86c-5.55,16.44-33.12,22.61-33.12,22.61l.25-8.16.88-29.78c2.4-8.41,25.78-17,31.93,3A19.58,19.58,0,0,1,1245.53,591.86Z" transform="translate(-109.86 -132.05)"/><path class="cls-21" d="M1219.51,600s6.3-1.08,5-6.46a6.6,6.6,0,0,0-6.46-5.07s.61-13.67,13.11-12.4" transform="translate(-109.86 -132.05)"/><polygon class="cls-17" points="1011.05 610.62 1054.51 635.45 1045.14 648.71 1011.05 610.62"/><line class="cls-30" x1="996.99" y1="636.88" x2="989.57" y2="649.23"/></g></svg>