<svg xmlns="http://www.w3.org/2000/svg" xmlns:xlink="http://www.w3.org/1999/xlink" viewBox="0 0 1658.82 1001.87"><defs><style>.cls-1,.cls-20,.cls-21{fill:none;}.cls-2{fill:#ecf6ff;}.cls-3{fill:#cce3ff;}.cls-4{fill:#b6d4ff;}.cls-5{fill:#d9f0fe;}.cls-6{fill:#dceeff;}.cls-7{fill:#afb3c6;}.cls-8{fill:url(#linear-gradient);}.cls-9{clip-path:url(#clip-path);}.cls-10{fill:url(#linear-gradient-2);}.cls-11{fill:#d7dadd;}.cls-12,.cls-13{opacity:0.29;}.cls-12{fill:url(#linear-gradient-3);}.cls-13{fill:url(#linear-gradient-4);}.cls-14{fill:#e576c6;}.cls-15{fill:#0d0b6d;}.cls-16{fill:#cf3e83;}.cls-17{fill:#405fd3;}.cls-18{fill:#101016;}.cls-19{fill:#6ca1ff;}.cls-20{stroke:#032466;stroke-width:9px;}.cls-20,.cls-21{stroke-miterlimit:10;}.cls-21{stroke:#182084;stroke-width:3px;}.cls-22{fill:#3c3c42;}</style><linearGradient id="linear-gradient" x1="703.31" y1="748.74" x2="2042.39" y2="740.13" gradientUnits="userSpaceOnUse"><stop offset="0" stop-color="#cf3e83"/><stop offset="0.21" stop-color="#d7546d"/><stop offset="0.65" stop-color="#ec8d33"/><stop offset="1" stop-color="#ffc000"/></linearGradient><clipPath id="clip-path" transform="translate(-159.71 -228.39)"><circle class="cls-1" cx="1157.13" cy="745.04" r="208.83"/></clipPath><linearGradient id="linear-gradient-2" x1="1013.49" y1="710.22" x2="978.92" y2="293.97" gradientUnits="userSpaceOnUse"><stop offset="0" stop-color="#b1b7bc"/><stop offset="1" stop-color="#eaedef"/></linearGradient><linearGradient id="linear-gradient-3" x1="819.17" y1="579.95" x2="855.1" y2="681.42" gradientUnits="userSpaceOnUse"><stop offset="0" stop-color="#939aa0"/><stop offset="1" stop-color="#d7dadd" stop-opacity="0"/></linearGradient><linearGradient id="linear-gradient-4" x1="953.82" y1="755.37" x2="988.38" y2="852.96" gradientTransform="translate(-15.23 -391.85) rotate(9.75)" xlink:href="#linear-gradient-3"/></defs><title>back and obj 2</title><g id="Back"><path class="cls-2" d="M1818.54,963.7v46.75A53.55,53.55,0,0,1,1765,1064H1034.6a53.56,53.56,0,0,1-53.55-53.55V963.7a53.55,53.55,0,0,1,53.55-53.55H1765A53.54,53.54,0,0,1,1818.54,963.7Z" transform="translate(-159.71 -228.39)"/><path class="cls-2" d="M1019.27,976l.89.89v33.56c0,29.57-13.15,49.34-39.11,53.55-4.33.7-19.21,1.1-31.65,1.31-3.21.06-3.4-4.33-.32-5.23,25.08-7.33,32-30.12,32-49.63V976.89l.89-.89Z" transform="translate(-159.71 -228.39)"/><rect class="cls-3" x="877.31" y="715.61" width="725.54" height="15.69"/><rect class="cls-3" x="877.31" y="750.84" width="725.54" height="15.69"/><rect class="cls-3" x="877.31" y="786.07" width="548.92" height="15.69"/><rect class="cls-2" x="126.42" y="482.25" width="384.09" height="150.51" rx="53.55"/><path class="cls-2" d="M324.36,771.84l.89.89v33.56c0,29.57-13.15,49.33-39.11,53.55-4.34.7-19.21,1.1-31.66,1.31-3.2.06-3.4-4.33-.32-5.24,25.09-7.32,32-30.11,32-49.62V772.73l.88-.89Z" transform="translate(-159.71 -228.39)"/><rect class="cls-3" x="171.15" y="514.43" width="294.65" height="15.69"/><rect class="cls-3" x="171.15" y="549.66" width="294.65" height="15.69"/><rect class="cls-3" x="171.15" y="584.89" width="222.92" height="15.69"/><rect class="cls-2" y="681.76" width="721.34" height="153.85" rx="53.55"/><rect class="cls-3" x="168.77" y="715.61" width="496.21" height="15.69"/><rect class="cls-3" x="168.77" y="750.84" width="496.21" height="15.69"/><rect class="cls-3" x="168.77" y="786.07" width="375.42" height="15.69"/><circle class="cls-4" cx="87.49" cy="758.69" r="43.08"/><rect class="cls-2" x="895.75" y="482.25" width="604.97" height="150.51" rx="53.55"/><rect class="cls-3" x="1064.36" y="512.66" width="382.77" height="15.69"/><rect class="cls-3" x="1064.36" y="547.89" width="382.77" height="15.69"/><rect class="cls-3" x="1064.36" y="583.12" width="289.59" height="15.69"/><circle class="cls-4" cx="983.34" cy="555.74" r="43.08"/><rect class="cls-2" x="780.03" width="198.72" height="198.72" rx="99.36"/><path class="cls-4" d="M1061.15,340.2h-5.06l-1.79-1.73a41.7,41.7,0,1,0-4.48,4.48l1.73,1.8v5.06l32,32,9.55-9.54Zm-38.43,0a28.83,28.83,0,1,1,28.83-28.82A28.78,28.78,0,0,1,1022.72,340.2Z" transform="translate(-159.71 -228.39)"/><rect class="cls-2" x="11.49" width="692.92" height="425.56" rx="53.55"/><path class="cls-4" d="M500.45,456.91l51.65-38.73-51.65-38.74ZM517.67,332.1a86.08,86.08,0,1,0,86.07,86.08A86.11,86.11,0,0,0,517.67,332.1Zm0,154.94a68.86,68.86,0,1,1,68.86-68.86A69,69,0,0,1,517.67,487Z" transform="translate(-159.71 -228.39)"/><rect class="cls-4" x="71" y="373.66" width="80.82" height="9.44"/><rect class="cls-3" x="208.01" y="373.66" width="442.89" height="9.44"/><circle class="cls-4" cx="179.52" cy="378.38" r="20.31"/><rect class="cls-2" x="792.34" y="262.71" width="855.38" height="161.01" rx="53.55"/><path class="cls-3" d="M1807.44,544.64v9.66H952.05v-9.66a53.55,53.55,0,0,1,53.55-53.54h748.29A53.55,53.55,0,0,1,1807.44,544.64Z" transform="translate(-159.71 -228.39)"/><circle class="cls-2" cx="843.88" cy="296.29" r="15.26"/><circle class="cls-2" cx="884.76" cy="296.29" r="15.26"/><circle class="cls-2" cx="925.64" cy="296.29" r="15.26"/><path class="cls-2" d="M991,764.18V807.6a53.55,53.55,0,0,1-53.55,53.55H824.68a53.54,53.54,0,0,1-53.54-53.55V764.18a53.38,53.38,0,0,1,8.07-28.29,54,54,0,0,1,6.66-8.6c.83-.87,1.69-1.72,2.58-2.53a53.33,53.33,0,0,1,36.23-14.12H937.43a53.33,53.33,0,0,1,36.23,14.12c.89.81,1.75,1.66,2.58,2.53A53.54,53.54,0,0,1,991,764.18Z" transform="translate(-159.71 -228.39)"/><path class="cls-5" d="M982.9,735.9,881.07,798.59l-101.86-62.7a54,54,0,0,1,6.66-8.6c.83-.87,1.69-1.72,2.58-2.53l92.62,57,92.59-57c.89.81,1.75,1.66,2.58,2.53A53.63,53.63,0,0,1,982.9,735.9Z" transform="translate(-159.71 -228.39)"/><circle class="cls-3" cx="817.52" cy="491.85" r="37.31"/><path class="cls-2" d="M1762.56,281.94v91.63A53.54,53.54,0,0,1,1709,427.11H1293.6a53.55,53.55,0,0,1-53.55-53.54V281.94a53.56,53.56,0,0,1,53.55-53.55H1709A53.55,53.55,0,0,1,1762.56,281.94Z" transform="translate(-159.71 -228.39)"/><rect class="cls-3" x="1289" y="34.28" width="264.9" height="15.69"/><rect class="cls-3" x="1289" y="69.11" width="264.9" height="15.69"/><rect class="cls-3" x="1289" y="103.93" width="264.9" height="15.69"/><rect class="cls-3" x="1289" y="138.75" width="200.42" height="15.69"/><path class="cls-6" d="M1414.23,228.39V427.11H1293.6a53.55,53.55,0,0,1-53.55-53.54V281.94a53.56,53.56,0,0,1,53.55-53.55Z" transform="translate(-159.71 -228.39)"/></g><g id="Man"><ellipse class="cls-7" cx="799.48" cy="998.25" rx="732.78" ry="3.62"/><path class="cls-8" d="M1665.62,745a146,146,0,0,1-146,146h-483a146,146,0,1,1,0-292.06h483A146,146,0,0,1,1665.62,745Z" transform="translate(-159.71 -228.39)"/><g class="cls-9"><circle class="cls-10" cx="997.41" cy="516.65" r="208.83"/><circle class="cls-11" cx="997.41" cy="516.65" r="186.2"/><polygon class="cls-12" points="846.52 544.12 850.54 546.99 885 667.3 868.6 681.03 789.95 618.99 794.52 535.91 842.66 530.52 846.52 544.12"/><polygon class="cls-13" points="815.45 462.45 843.51 597.17 805.59 621.76 763.94 511.19 815.45 462.45"/></g><path class="cls-14" d="M924.17,704.37s-2.37,18.53,3.05,22.34c6.17,4.32,23.19-7.68,23.19-7.68s12.89-12.12,21-18.28,2.23-11.12,2.23-11.12l-20,10c-.59,1.7,1.32-6.85,5.11-17.95,5.89-17.29,11.32-29.45,11.32-29.45l-17.43,16.46-9.06,23.13Z" transform="translate(-159.71 -228.39)"/><path class="cls-15" d="M706.37,1181.83l-10.3,18.33s49.46,8.84,71,26.45H654.67l32.13-55.93Z" transform="translate(-159.71 -228.39)"/><polygon class="cls-16" points="525.1 945.75 512.46 967.75 536.35 971.77 545.58 955.17 525.1 945.75"/><path class="cls-15" d="M368,1226.64H308.68l-34.59-41.37,46.41-58.74L336,1149.82l-20.52,32.28,20.07,31.18a135.68,135.68,0,0,1,17.1,5.58A141.91,141.91,0,0,1,368,1226.64Z" transform="translate(-159.71 -228.39)"/><polygon class="cls-16" points="160.39 898.21 133.79 932.51 155.72 953.71 171.08 929.64 160.39 898.21"/><path class="cls-17" d="M916.53,698.67l13.72-.42V736.7L916.53,736c0,4.59-5.33,10.19-10.72,9.73l-128-16.4-7.21,19.07L705.3,692.91l-20.42-42.83,28.89-1A136.32,136.32,0,0,1,749,652.4l159.71,36.13A9.55,9.55,0,0,1,916.53,698.67Z" transform="translate(-159.71 -228.39)"/><polygon class="cls-18" points="499.49 601.18 320.43 802.92 184.24 956.37 136.35 918.56 331.19 653.09 361.73 611.48 373.16 583.01 499.49 601.18"/><path class="cls-19" d="M770.55,744l-49,75.65c-8.15,12.93-17.08,16.16-32.09,14.23L529.83,811a15.76,15.76,0,0,1-9.55-26l111.6-118.41a36,36,0,0,1,25-11.29l28-.91,20.42,39.09Z" transform="translate(-159.71 -228.39)"/><path class="cls-15" d="M779.55,536.8s26.73,38.55-12.48,46.55" transform="translate(-159.71 -228.39)"/><path class="cls-14" d="M702.83,674.87l24.84-37.08s41.48,7.5,50.42,4c0,0,10.6-39,7.4-67.75l-30.23-33.63L701,538.73l-11.21,48.12c-1.95-8.61-26.52-21.72-34.63-3.71-10.46,23.23,32.69,40.28,32.69,40.28l-27.92,36.76Z" transform="translate(-159.71 -228.39)"/><path class="cls-15" d="M664,574.83s-23.1-16.16,10.67-44.51,59.21-9.14,59.21-9.14,11-31.32,32.2-29c30.18,3.29,30,50.44,30,50.44s10.19-24.59,18.47-20.06,7.38,89.65-108.48,36c0,0,11.78,26.45-16.24,28.29C689.77,586.85,681.86,571.87,664,574.83Z" transform="translate(-159.71 -228.39)"/><polyline class="cls-20" points="531.34 273.56 532.92 295.01 524.64 297.96 511.62 281.59"/><polygon class="cls-17" points="606 369.69 611.89 390.33 602.19 389.38 606 369.69"/><path class="cls-21" d="M757.53,627s-8.11-.35-9.56-7.11" transform="translate(-159.71 -228.39)"/><circle class="cls-15" cx="593.39" cy="367.74" r="4.92"/><circle class="cls-15" cx="616.76" cy="369.19" r="4.92"/><path class="cls-22" d="M723.14,1187.85l-50.41-4.34,75.33-182.1S607.91,890.49,571.76,864.8c-34.43-24.46-34.37-52.75-34.37-52.75l137.93,19.84S817.42,946.13,826.53,987C834.36,1022.08,723.14,1187.85,723.14,1187.85Z" transform="translate(-159.71 -228.39)"/><path class="cls-14" d="M933,764.61s10.11-22.27,12.58-30.61a4.51,4.51,0,0,1,3.36-3.25s-.18,13.52.77,18.46a7.85,7.85,0,0,0,7.12,6.47l43.08,2a3.06,3.06,0,0,1,3.06,2.72l.09,1.72a2.46,2.46,0,0,1-2.37,2.45L959.44,766a1.17,1.17,0,0,0-1.14,1.15h0a1.17,1.17,0,0,0,1.1,1.19l47.74,3.28a3.11,3.11,0,0,1,3.12,2.91v2.27a3,3,0,0,1-3.2,2.8l-45.95-1.89a1.13,1.13,0,0,0-1.18,1.09h0a1.14,1.14,0,0,0,1.05,1.18l40.43,3.11a2.59,2.59,0,0,1,2.52,2.62l-.2,2.46a2.55,2.55,0,0,1-2.73,2.18l-43.8-.9a1.3,1.3,0,0,0-1.33,1.3h0a1.38,1.38,0,0,0,1.32,1.38l33.07,1.7a2.51,2.51,0,0,1,2.43,2.51l-.07,1.6a3.14,3.14,0,0,1-2.62,2.66L949.55,802l-22.88-8.88Z" transform="translate(-159.71 -228.39)"/><path class="cls-19" d="M657.36,723.9S691.61,737,770,764.45c61.76,21.66,121,41.38,121,41.38,8.9,3.13,20.67.38,24.13-7.7l13.93,2.47,5.15-47.29-13.61-1.53c0-7.63-3-10.9-11.87-13.65,0,0-168-67.09-220-79-33.25-7.62-31.36-1.84-31.36-1.84Z" transform="translate(-159.71 -228.39)"/><polygon class="cls-16" points="567.96 409.4 539.02 398.75 560.09 421.45 567.96 409.4"/><path class="cls-22" d="M490.91,881.48c-3.09,43.08-7.19,100.17-10.76,149.83L344,1184.76,296.07,1147Z" transform="translate(-159.71 -228.39)"/><polygon class="cls-17" points="483.67 489.53 601 532.85 472.59 509.32 483.67 489.53"/></g></svg>