<svg xmlns="http://www.w3.org/2000/svg" viewBox="0 0 1771.38 1130.97"><defs><style>.cls-1{fill:#b6d4ff;}.cls-2,.cls-6{fill:#dceeff;}.cls-3{fill:#cce3ff;}.cls-10,.cls-4{fill:#ecf6ff;}.cls-14,.cls-15,.cls-16,.cls-17,.cls-27,.cls-5,.cls-8,.cls-9{fill:none;}.cls-5{stroke:#b6d4ff;}.cls-10,.cls-14,.cls-15,.cls-16,.cls-17,.cls-27,.cls-5,.cls-6,.cls-7,.cls-8,.cls-9{stroke-miterlimit:10;}.cls-15,.cls-5{stroke-width:9px;}.cls-10,.cls-6,.cls-7{stroke:#dceeff;}.cls-6,.cls-7{stroke-width:5px;}.cls-13,.cls-7{fill:#fff;}.cls-8,.cls-9{stroke:#cce3ff;}.cls-8{stroke-width:8px;}.cls-9{stroke-width:10px;}.cls-10{stroke-linecap:round;stroke-width:20px;}.cls-11{fill:#afb3c6;}.cls-12{fill:#247dff;}.cls-14,.cls-15{stroke:#fff;}.cls-14{stroke-width:6px;}.cls-16{stroke:#a5a6ad;}.cls-16,.cls-17,.cls-27{stroke-width:3px;}.cls-17{stroke:#c2c6ce;}.cls-18{fill:#e576c6;}.cls-19{fill:#ff9100;}.cls-20{fill:#ffc000;}.cls-21{fill:#2b2a38;}.cls-22{fill:#0d0b6d;}.cls-23{fill:#cf3e83;}.cls-24{fill:#240040;}.cls-25{fill:#405fd3;}.cls-26{fill:#101016;}.cls-27{stroke:#1c295e;}</style></defs><title>back and obj 17</title><g id="Layer_2" data-name="Layer 2"><path class="cls-1" d="M404.34,932.35l131-253.52c10.59,39.12,58.27,59.31,49.62,87.95s-28.41.38-40.41,25.22,27,81-1.79,109.48c-20.9,20.68-44.16-8.19-73.54.15s-13.1,51.48-44.25,42.19A55.48,55.48,0,0,1,404.34,932.35Z" transform="translate(-112.93 -87.77)"/><path class="cls-2" d="M477.26,489.6,453.91,931c-37.72.61-66.44-11.59-68.08-27.05-4-37.77,29.91-37.6,30.09-57.17.28-31.05-52.75-27.48-57.05-62.82s32.72-34.49,33.85-67.6S325,644.55,342.5,598.37c12.72-33.54,51.6-15.44,79.36-40.44s-10.38-62.18,27.69-69.3A63.59,63.59,0,0,1,477.26,489.6Z" transform="translate(-112.93 -87.77)"/><path class="cls-3" d="M298.54,683.36c-40.61-28.54-96.17,13.52-120.68,42.32l264.93,233.1c13.86-26.8,10.72-61.15,1.11-74.73-12.84-18.13-43.07,3.91-54.36-20.34s38.41-54.35,19.7-83.91c-12.42-19.64-96.66-18.8-103.86-23.91C277.89,736.39,332.28,707.07,298.54,683.36Z" transform="translate(-112.93 -87.77)"/><path class="cls-4" d="M471.77,1018.35H392.09c-.6,0-1.19,0-1.79,0-36.33-1.35-56.54-47.31-36-80.46l18.25-29.41H491.27l18.25,29.41c20.58,33.15.37,79.11-36,80.46C473,1018.34,472.37,1018.35,471.77,1018.35Z" transform="translate(-112.93 -87.77)"/><line class="cls-5" x1="233.17" y1="888.31" x2="404.83" y2="888.31"/><line class="cls-5" x1="237.16" y1="859.89" x2="401.4" y2="859.89"/><path class="cls-1" d="M1676.3,903.78,1796.05,558c10,47.06,54.26,62.73,46.41,100.54s-26.29,6.28-37.25,40,25.43,96.4-1,138.11c-19.22,30.29-40.91-1.29-68.05,15.21s-11.83,67.45-40.7,62.12A37.44,37.44,0,0,1,1676.3,903.78Z" transform="translate(-112.93 -87.77)"/><path class="cls-3" d="M1665.86,889.5,1541.72,558.73c-26.61,9.7-43.77,26.76-41.15,39,6.4,29.94,30.16,20.65,35.07,35.55,7.77,23.64-30.3,35.21-24.69,63.36s31.38,17.52,40.26,42.5-30,73.07-6.43,103.62c17.11,22.18,40-2.13,65.54,9.48s7.9,50.28,36.34,45.46A45.38,45.38,0,0,0,1665.86,889.5Z" transform="translate(-112.93 -87.77)"/><path class="cls-2" d="M1609.77,829.27c5,62.07,72.62,74.5,110.1,70.82l2.37-446.91c-29.08,11.48-52.76,45-56.68,65.81-5.23,27.76,30.92,35.27,20.1,67.12s-65.65,14-75.62,57.27c-6.63,28.75,48.74,103.84,49.59,114.89C1662.9,800.46,1605.6,777.69,1609.77,829.27Z" transform="translate(-112.93 -87.77)"/><path class="cls-4" d="M1758.31,1018.35H1606.5a34.06,34.06,0,0,1-34.06-34.06l20.78-126.66h178.37l20.78,126.66A34.06,34.06,0,0,1,1758.31,1018.35Z" transform="translate(-112.93 -87.77)"/><rect class="cls-2" x="1490.28" y="826.62" width="50.96" height="50.96"/><rect class="cls-2" x="1688.31" y="914.39" width="50.96" height="50.96" transform="translate(1053.61 -1024.32) rotate(45)"/><rect class="cls-6" x="1510.9" y="237.36" width="125.25" height="105.25" transform="translate(3034.13 492.2) rotate(-180)"/><rect class="cls-7" x="1503.54" y="237.5" width="125.25" height="105.25" transform="translate(3019.4 492.48) rotate(-180)"/><rect class="cls-2" x="1411.94" y="171.19" width="80.8" height="62.04"/><rect class="cls-6" x="573.62" y="414.18" width="195.08" height="165.44" transform="translate(1229.39 906.04) rotate(-180)"/><rect class="cls-7" x="562.15" y="414.41" width="195.08" height="165.44" transform="translate(1206.45 906.48) rotate(-180)"/><rect class="cls-2" x="482.45" y="360.37" width="125.85" height="97.53"/><rect class="cls-6" x="833.8" y="398.97" width="76.12" height="88.73" transform="translate(1630.8 798.91) rotate(-180)"/><rect class="cls-7" x="828.54" y="398.97" width="77.53" height="88.73" transform="translate(1621.68 798.91) rotate(-180)"/><rect class="cls-3" x="733.96" y="334.13" width="37.26" height="42.71"/><rect class="cls-6" x="1283.91" y="191.48" width="125.25" height="197.14" transform="translate(2580.15 492.33) rotate(-180)"/><rect class="cls-7" x="1165.24" y="191.48" width="234.74" height="197.14" transform="translate(2452.3 492.33) rotate(-180)"/><rect class="cls-7" x="1186.85" y="212.93" width="191.53" height="154.25" transform="translate(2452.3 492.33) rotate(-180)"/><rect class="cls-1" x="1113.88" y="157.5" width="111.6" height="89.56"/><polygon class="cls-6" points="544.98 210.46 650.36 210.46 664.59 68.31 559.21 68.31 544.98 210.46"/><polygon class="cls-7" points="539.29 210.46 646.63 210.46 660.86 68.31 553.52 68.31 539.29 210.46"/><polygon class="cls-2" points="559.85 191.69 629.83 191.69 640.3 87.08 570.32 87.08 559.85 191.69"/><polygon class="cls-6" points="512.08 106.56 501.67 210.46 365.07 210.46 375.48 106.56 512.08 106.56"/><polygon class="cls-7" points="509.02 106.56 498.62 210.46 359.48 210.46 369.88 106.56 509.02 106.56"/><polygon class="cls-3" points="479.68 126.95 473.36 190.08 388.81 190.08 395.13 126.95 479.68 126.95"/><rect class="cls-2" x="257.4" y="210.46" width="394.01" height="17.64"/><rect class="cls-3" x="651.41" y="210.46" width="64.82" height="17.64"/><polygon class="cls-1" points="346.07 228.1 367.2 266.67 367.2 228.1 346.07 228.1"/><polygon class="cls-3" points="334.38 228.1 355.51 266.67 367.2 266.67 346.07 228.1 334.38 228.1"/><polygon class="cls-1" points="587.07 228.1 608.2 266.67 608.2 228.1 587.07 228.1"/><polygon class="cls-3" points="575.38 228.1 596.51 266.67 608.2 266.67 587.07 228.1 575.38 228.1"/><circle class="cls-3" cx="881.63" cy="200.11" r="70.76"/><circle class="cls-2" cx="867.76" cy="200.11" r="70.76"/><path class="cls-3" d="M1034.31,287.87a53.64,53.64,0,0,1-47.7,53.31,55.2,55.2,0,0,1-5.92.32,53.63,53.63,0,1,1,0-107.25,55.2,55.2,0,0,1,5.92.32A53.64,53.64,0,0,1,1034.31,287.87Z" transform="translate(-112.93 -87.77)"/><path class="cls-4" d="M1034.31,287.87a53.64,53.64,0,0,1-47.7,53.31,53.63,53.63,0,0,1,0-106.61A53.64,53.64,0,0,1,1034.31,287.87Z" transform="translate(-112.93 -87.77)"/><line class="cls-8" x1="870.08" y1="170.29" x2="887.46" y2="208.18"/><line class="cls-8" x1="889.11" y1="192.3" x2="851.05" y2="233.66"/><path class="cls-3" d="M728.88,693.24h0a12.5,12.5,0,0,1,12.5,12.5V818.21a0,0,0,0,1,0,0h-25a0,0,0,0,1,0,0V705.75a12.5,12.5,0,0,1,12.5-12.5Z" transform="translate(-139.78 1396.84) rotate(-90)"/><path class="cls-2" d="M766.7,731.07h0a7.24,7.24,0,0,1,7.24,7.24v41.79a.3.3,0,0,1-.3.3H759.77a.3.3,0,0,1-.3-.3V738.3a7.24,7.24,0,0,1,7.24-7.24Z" transform="translate(-101.96 1434.66) rotate(-90)"/><path class="cls-3" d="M705.83,713.1h25a0,0,0,0,1,0,0V835.86a12.5,12.5,0,0,1-12.5,12.5h0a12.5,12.5,0,0,1-12.5-12.5V713.1A0,0,0,0,1,705.83,713.1Z" transform="translate(-175.33 1411.29) rotate(-90)"/><path class="cls-2" d="M672.35,751.91h14.33a0,0,0,0,1,0,0v50.47a7.17,7.17,0,0,1-7.17,7.17h0a7.17,7.17,0,0,1-7.17-7.17V751.91a0,0,0,0,1,0,0Z" transform="translate(-214.14 1372.48) rotate(-90)"/><polygon class="cls-6" points="859.16 705.46 1073.56 705.46 1102.52 416.23 888.12 416.23 859.16 705.46"/><polygon class="cls-7" points="847.59 705.46 1065.98 705.46 1094.93 416.23 876.54 416.23 847.59 705.46"/><polygon class="cls-3" points="889.42 667.27 1031.8 667.27 1053.11 454.42 910.72 454.42 889.42 667.27"/><polygon class="cls-6" points="1139.07 705.46 1353.47 705.46 1382.42 416.23 1168.02 416.23 1139.07 705.46"/><polygon class="cls-7" points="1127.49 705.46 1345.88 705.46 1374.84 416.23 1156.45 416.23 1127.49 705.46"/><polygon class="cls-2" points="1169.32 667.27 1311.7 667.27 1333.01 454.42 1190.63 454.42 1169.32 667.27"/><polygon class="cls-6" points="961.1 502.15 940.74 705.46 726.34 705.46 746.69 502.15 961.1 502.15"/><polygon class="cls-7" points="953.51 502.15 933.16 705.46 714.77 705.46 735.12 502.15 953.51 502.15"/><polygon class="cls-2" points="907.86 541.03 895.29 666.58 760.42 666.58 772.99 541.03 907.86 541.03"/><rect class="cls-3" x="432" y="724.11" width="873.98" height="144.69"/><rect class="cls-2" x="454.59" y="739.59" width="141.1" height="113.74"/><rect class="cls-2" x="625.39" y="739.59" width="141.1" height="48.33"/><rect class="cls-2" x="625.39" y="805" width="141.1" height="48.33"/><rect class="cls-2" x="1137.81" y="739.59" width="141.1" height="48.33"/><rect class="cls-2" x="1137.81" y="805" width="141.1" height="48.33"/><rect class="cls-2" x="796.2" y="739.59" width="141.1" height="113.74"/><rect class="cls-2" x="967" y="739.59" width="141.1" height="113.74"/><rect class="cls-1" x="1305.98" y="724.11" width="117.95" height="144.69"/><rect class="cls-2" x="413.1" y="705.46" width="907.3" height="18.65"/><rect class="cls-1" x="1320.39" y="705.46" width="122.45" height="18.65"/><line class="cls-9" x1="1311.38" y1="868.81" x2="1311.38" y2="934.23"/><line class="cls-9" x1="1418.62" y1="868.81" x2="1418.62" y2="934.23"/><line class="cls-9" x1="436.15" y1="868.81" x2="436.15" y2="934.23"/><line class="cls-9" x1="538.53" y1="868.81" x2="538.53" y2="934.23"/><path class="cls-2" d="M697.86,728l8-77.81h25l8,77.81A13.83,13.83,0,0,1,725,743.23H711.62A13.83,13.83,0,0,1,697.86,728Z" transform="translate(-112.93 -87.77)"/><path class="cls-1" d="M478.49,739.59h93.28a0,0,0,0,1,0,0v0a10,10,0,0,1-10,10H488.49a10,10,0,0,1-10-10v0A0,0,0,0,1,478.49,739.59Z"/><path class="cls-1" d="M649.3,739.59h93.28a0,0,0,0,1,0,0v0a10,10,0,0,1-10,10H659.3a10,10,0,0,1-10-10v0A0,0,0,0,1,649.3,739.59Z"/><path class="cls-1" d="M822.35,739.59h93.28a0,0,0,0,1,0,0v0a10,10,0,0,1-10,10H832.35a10,10,0,0,1-10-10v0a0,0,0,0,1,0,0Z"/><path class="cls-1" d="M990.91,739.59h93.28a0,0,0,0,1,0,0v0a10,10,0,0,1-10,10h-73.28a10,10,0,0,1-10-10v0A0,0,0,0,1,990.91,739.59Z"/><path class="cls-1" d="M649.3,805h93.28a0,0,0,0,1,0,0v0a10,10,0,0,1-10,10H659.3a10,10,0,0,1-10-10v0a0,0,0,0,1,0,0Z"/><path class="cls-1" d="M1161.72,739.59H1255a0,0,0,0,1,0,0v0a10,10,0,0,1-10,10h-73.28a10,10,0,0,1-10-10v0a0,0,0,0,1,0,0Z"/><path class="cls-1" d="M1161.72,805H1255a0,0,0,0,1,0,0v0a10,10,0,0,1-10,10h-73.28a10,10,0,0,1-10-10v0a0,0,0,0,1,0,0Z"/><line class="cls-10" x1="1761.38" y1="938.31" x2="10" y2="938.31"/></g><g id="Man"><ellipse class="cls-11" cx="899.78" cy="1127.36" rx="264.84" ry="3.62"/><rect class="cls-12" x="622.46" width="556.92" height="731.08" rx="17"/><rect class="cls-13" x="771.27" y="303.87" width="349.85" height="13.54"/><rect class="cls-13" x="771.27" y="332.18" width="246.46" height="13.54"/><rect class="cls-13" x="771.27" y="649.03" width="238.88" height="18.62"/><rect class="cls-14" x="664.3" y="290.95" width="67.69" height="67.69" rx="33.85"/><rect class="cls-14" x="664.3" y="515.94" width="67.69" height="67.69" rx="33.85"/><rect class="cls-14" x="664.3" y="403.45" width="67.69" height="67.69" rx="33.85"/><rect class="cls-13" x="771.27" y="416.37" width="349.85" height="13.54"/><rect class="cls-13" x="771.27" y="444.68" width="246.46" height="13.54"/><rect class="cls-13" x="771.27" y="528.87" width="349.85" height="13.54"/><rect class="cls-13" x="771.27" y="557.17" width="246.46" height="13.54"/><polyline class="cls-15" points="664.27 198.12 689.12 217.76 733.15 166.84"/><polyline class="cls-15" points="664.27 85.63 689.12 105.27 733.15 54.35"/><rect class="cls-13" x="771.27" y="53.35" width="349.85" height="17.12"/><rect class="cls-13" x="771.27" y="89.15" width="246.46" height="17.12"/><line class="cls-16" x1="757.27" y1="61.91" x2="1135.12" y2="61.91"/><line class="cls-16" x1="757.27" y1="97.71" x2="1031.07" y2="97.71"/><rect class="cls-13" x="771.27" y="165.84" width="349.85" height="17.12"/><rect class="cls-13" x="771.27" y="201.64" width="246.46" height="17.12"/><line class="cls-16" x1="757.27" y1="174.4" x2="1135.12" y2="174.4"/><line class="cls-16" x1="757.27" y1="210.2" x2="1031.07" y2="210.2"/><line class="cls-17" x1="682.86" y1="260.13" x2="1116.92" y2="260.13"/><line class="cls-15" x1="698.15" y1="632.28" x2="698.15" y2="684.38"/><line class="cls-15" x1="672.1" y1="658.33" x2="724.2" y2="658.33"/><path class="cls-18" d="M845.32,471.42l2.22-7.15a105.24,105.24,0,0,0,2-10.69c.73-5.62-1.35-13.08,5-21.65s-4.68-4.45-7.89-.44c-2.68,3.35-3.78,11.62-6.63,14a14.39,14.39,0,0,1-2.4-3.11L817,408.49a2.28,2.28,0,0,0-2.64-1.4l-1.24.31a2.28,2.28,0,0,0-1.57,3c2.45,7,10.31,24.87,9.94,25l-11.29,16.72s1,11.15,6.52,18.79a70,70,0,0,0,8.49,8.9" transform="translate(-112.93 -87.77)"/><path class="cls-18" d="M940.08,618s-69.36-39.37-83.73-54.92c-16-22.73-33.65-91.82-33.65-91.82L845,469.21l34,72.2,75.35,49.34Z" transform="translate(-112.93 -87.77)"/><path class="cls-18" d="M1057.21,802l-15.78-6.51,15-85.12-23.34-48.91,33.73-19.29s16.67,47,17.14,62.38C1084.74,731.47,1057.21,802,1057.21,802Z" transform="translate(-112.93 -87.77)"/><polygon class="cls-19" points="963.66 564.2 918.72 579.5 905.37 526.54 940.62 515.81 963.66 564.2"/><path class="cls-20" d="M909.89,555.37l-6.38,57.46,25.69,12.93s9.23,20.22,16.11,30.7c10.11,15.42,19.17,56.41,19.17,56.41h83.08l.53-32.16s20.54-76.7.74-85.37c-20.25-8.87-30.15-6.29-59.83-6.24C961.07,589.14,909.89,555.37,909.89,555.37Z" transform="translate(-112.93 -87.77)"/><path class="cls-21" d="M1043.58,1130.05l-41.16,14.38L956.1,837.14a269.49,269.49,0,0,1,5.35-112.86l3-11.41h60l12.72,224.52Z" transform="translate(-112.93 -87.77)"/><path class="cls-21" d="M1108,1142.47l-43-3.33-27.75-201.75-35.9-224.52h46.27l15.72,23.46a105.28,105.28,0,0,1,17.36,49.15Z" transform="translate(-112.93 -87.77)"/><polygon class="cls-22" points="933.33 1091.35 903.4 1127.46 861.72 1127.46 889.05 1108.62 900.54 1075.49 900.09 1058.97 927.02 1045.18 933.33 1091.35"/><polygon class="cls-23" points="926.88 1047.84 929.75 1065.16 900.53 1075.48 899.16 1057.39 926.88 1047.84"/><polygon class="cls-22" points="996.87 1091.35 966.93 1127.46 925.25 1127.46 952.59 1108.62 964.07 1075.49 963.62 1058.97 990.55 1045.18 996.87 1091.35"/><polygon class="cls-23" points="989.89 1043.74 992.89 1060.97 964.11 1070.96 962.58 1052.98 989.89 1043.74"/><rect class="cls-21" x="995.99" y="1134.29" width="55.6" height="15.86" transform="matrix(0.98, -0.18, 0.18, 0.98, -303.17, 116.93)"/><polygon class="cls-21" points="1002.47 1054.02 947.79 1063.21 944.92 1049 999.6 1039.8 1002.47 1054.02"/><path class="cls-24" d="M1057,537.57a52.74,52.74,0,0,1-102.23-25.26,51.65,51.65,0,0,1,1.45-5.86A52.74,52.74,0,1,1,1057,537.57Z" transform="translate(-112.93 -87.77)"/><circle class="cls-24" cx="940.02" cy="391.07" r="29.23"/><polygon class="cls-25" points="844 440.83 828.88 457.4 837.95 460.94 844 440.83"/><path class="cls-18" d="M974.72,581.44s-22.82-9.85-25.5-18.63c-7.53-24.71,28.15-73.18,28.15-73.18l43,52.64s-6.86,51.68-7,51.68l-38.21-.45Z" transform="translate(-112.93 -87.77)"/><ellipse class="cls-22" cx="958.62" cy="530.11" rx="4.55" ry="3.19" transform="translate(-57.8 1061.76) rotate(-63.38)"/><path class="cls-24" d="M1022.55,548.3c-13.59,9.78-31.92,8.46-44.84-2.08a35.61,35.61,0,0,1-3-2.67,38.59,38.59,0,0,1-4.29-5c-12.38-17.2-9.14-40.7,7.25-52.51a34.91,34.91,0,0,1,4.91-2.95c15.88-7.89,36-2.84,47.21,12.71,12.26,17,9.18,40.26-6.8,52.17Z" transform="translate(-112.93 -87.77)"/><path class="cls-24" d="M1033.92,646l-61.64,1.13-2.4-123.45,89.51-1.64,1.82,93.71C1061.53,632.15,1049.31,645.7,1033.92,646Z" transform="translate(-112.93 -87.77)"/><polygon class="cls-26" points="909.25 692.46 915.71 711.06 924.33 850.1 909.25 692.46"/><path class="cls-18" d="M969.67,544.17s-1.13-11.35,6.85-11.34c5.94,0,7.55,5.67,7.54,8.94,0,11-12,12.7-16.22,20.69" transform="translate(-112.93 -87.77)"/><path class="cls-27" d="M948.22,555.72s2.62.72,5.66-3.07" transform="translate(-112.93 -87.77)"/></g></svg>