<svg xmlns="http://www.w3.org/2000/svg" viewBox="0 0 1771.38 1038.69"><defs><style>.cls-1{fill:#e9f5ff;}.cls-2{fill:#f3faff;}.cls-3{fill:#dceeff;}.cls-22,.cls-23,.cls-24,.cls-28,.cls-29,.cls-31,.cls-4{fill:none;}.cls-4{stroke:#d7ebff;stroke-width:18px;}.cls-22,.cls-23,.cls-24,.cls-28,.cls-29,.cls-31,.cls-4,.cls-9{stroke-miterlimit:10;}.cls-5{fill:#c7e3ff;}.cls-6{fill:#b6d4ff;}.cls-7{fill:#d7ebff;}.cls-8{fill:#cce3ff;}.cls-9{fill:#ecf6ff;stroke:#dceeff;stroke-linecap:round;stroke-width:20px;}.cls-10{fill:#afb3c6;}.cls-11{fill:#e576c6;}.cls-12{fill:#0d0b6d;}.cls-13{fill:#cf3e83;}.cls-14{fill:#240040;}.cls-15{fill:#247dff;}.cls-16{fill:#3030c1;}.cls-17{fill:#2b2a38;}.cls-18{fill:#bc3579;}.cls-19{fill:#ffc000;}.cls-20{fill:#824f16;}.cls-21{fill:#405fd3;}.cls-22{stroke:#1c295e;}.cls-22,.cls-23,.cls-31{stroke-width:3px;}.cls-23{stroke:#ff9929;}.cls-24,.cls-28{stroke:#2f2f3d;}.cls-24,.cls-29{stroke-width:9px;}.cls-25{fill:#2f2f3d;}.cls-26{fill:#1a1d21;}.cls-27{fill:#db8b21;}.cls-28{stroke-width:5px;}.cls-29{stroke:#36363a;}.cls-30{fill:#7b7f8e;}.cls-31{stroke:#6e7284;}</style></defs><title>back and obj 7</title><g id="Back"><g id="city"><rect class="cls-1" x="473.79" y="537.68" width="205.54" height="205.54"/><polygon class="cls-2" points="563.58 841.99 360.56 841.99 360.56 442.74 563.58 310.96 563.58 841.99"/><rect class="cls-1" x="617.79" y="249.43" width="39.12" height="553.69"/><rect class="cls-2" x="656.91" y="249.43" width="107.91" height="553.69"/><rect class="cls-1" x="1284.87" y="347.43" width="50.1" height="475.9"/><rect class="cls-2" x="1334.96" y="347.43" width="138.19" height="475.9"/><rect class="cls-2" x="1509.52" y="510.36" width="122.42" height="297.07"/><rect class="cls-2" x="262.71" y="469.74" width="54.43" height="310.54"/><rect class="cls-1" x="191.46" y="492.74" width="71.26" height="310.54"/><rect class="cls-2" x="821.37" y="333.69" width="107.91" height="533.19"/><rect class="cls-1" x="822.99" y="333.69" width="38.5" height="533.19"/><rect class="cls-1" x="894.69" y="286.68" width="38.5" height="47.01"/><rect class="cls-2" x="953.32" y="415" width="158.31" height="409.98"/><rect class="cls-2" x="929.28" y="286.68" width="48.08" height="533.19"/><rect class="cls-1" x="977.36" y="415" width="38.5" height="450.22"/><rect class="cls-2" x="1135.62" y="144.82" width="60.95" height="646.27"/><rect class="cls-2" x="1087.59" y="205.77" width="55.95" height="646.27"/><rect class="cls-2" x="1184.61" y="193.59" width="55.95" height="646.27"/><rect class="cls-1" x="1157.6" y="196.07" width="14.97" height="493.68"/><rect class="cls-1" x="1110.11" y="231.45" width="14.97" height="493.68"/><rect class="cls-1" x="1205.09" y="231.45" width="14.97" height="493.68"/></g><g id="shrubbery"><path class="cls-1" d="M160.2,1006.48S282.53,786.51,427,791.43s141.85,82.81,242.77,82.67,216.26-111.17,384-114.87,230.15,127,403.92,119.82c177.4-7.38,327.16,9.07,404.7,125.86" transform="translate(-119.64 -139.61)"/><path class="cls-3" d="M1005.34,1001.67,358,1002.78C309,960.87,234.44,843.36,268.2,810.83,290.41,789.43,377,865.72,395,845.06S292.75,700,336.82,674.65c53.54-30.75,227.7,198.91,249.64,180.44,23.06-19.42-56.05-124.79-22.16-147.46,40.21-26.9,128.05,168.93,162.06,147.87,17.82-11-24.5-77.27,1.22-88.76,44.75-20,119.43,174.28,151.18,157,15-8.2-1.87-36.28,20.64-43.27C926.91,871.92,982.34,961.8,1005.34,1001.67Z" transform="translate(-119.64 -139.61)"/></g><g id="street_light" data-name="street light"><path class="cls-1" d="M739.88,173.34h81.78a23,23,0,0,1,23,23v13.4a0,0,0,0,1,0,0H716.85a0,0,0,0,1,0,0v-13.4A23,23,0,0,1,739.88,173.34Z" transform="translate(1441.88 243.49) rotate(180)"/><path class="cls-4" d="M517,860.18V349.54a179.2,179.2,0,0,1,179.2-179.2" transform="translate(-119.64 -139.61)"/><polygon class="cls-5" points="425.48 865.31 369.13 865.31 375.08 661.58 419.53 661.58 425.48 865.31"/><path class="cls-5" d="M595.78,0H726.46a23,23,0,0,1,23,23V50.36a0,0,0,0,1,0,0H572.76a0,0,0,0,1,0,0V23A23,23,0,0,1,595.78,0Z"/></g><g id="bench"><rect class="cls-6" x="1358.46" y="671.23" width="112.27" height="195.65"/><rect class="cls-7" x="751.24" y="671.23" width="747.2" height="28.82"/><polygon class="cls-7" points="1363.16 568.03 731.99 568.03 721.23 510.36 1352.4 510.36 1363.16 568.03"/><polygon class="cls-7" points="1378.17 648.47 747 648.47 736.24 590.79 1367.41 590.79 1378.17 648.47"/><polygon class="cls-6" points="731.99 568.03 701.54 568.03 690.13 510.36 721.23 510.36 731.99 568.03"/><polygon class="cls-6" points="747 648.47 717.45 648.47 706.04 590.79 736.24 590.79 747 648.47"/><polygon class="cls-8" points="1315.98 510.36 1346 671.23 1309.77 671.23 1279.75 510.36 1315.98 510.36"/><polygon class="cls-8" points="793.87 510.36 823.89 671.23 787.67 671.23 757.65 510.36 793.87 510.36"/><rect class="cls-8" x="863.51" y="671.23" width="27.71" height="195.65"/><rect class="cls-8" x="891.22" y="671.23" width="27.71" height="28.88"/><rect class="cls-8" x="1443.02" y="671.23" width="27.71" height="28.88"/><rect class="cls-8" x="1470.73" y="671.23" width="27.71" height="195.65"/><rect class="cls-6" x="751.24" y="671.23" width="112.27" height="195.65"/></g><line class="cls-9" x1="1761.38" y1="865.25" x2="10" y2="865.25"/></g><g id="Woman"><ellipse class="cls-10" cx="1281.49" cy="1035.08" rx="178.97" ry="3.62"/><path class="cls-11" d="M1594.14,651.73l6.44-3.25a100.94,100.94,0,0,1,9.81-3.56c5.21-1.57,12.56-.71,19.74-8.13s4.89,3.84,1.56,7.56c-2.77,3.1-10.43,5.44-12.25,8.55a13.34,13.34,0,0,0,3.29,1.85l32.28,8.06a2.2,2.2,0,0,1,1.71,2.34l-.11,1.23a2.22,2.22,0,0,1-2.61,2c-6.93-1.3-27.5-5.73-27.53-5.35l-.39.75,32.61,11.78a2.21,2.21,0,0,1,1.48,2.53l-.34,1.71a2.19,2.19,0,0,1-2.7,1.7c-7.52-1.89-32.47-10.41-32.51-10l-.35.93,26.86,12.48a2.21,2.21,0,0,1,1.43,2.69l-.38,1.34a2.22,2.22,0,0,1-2.73,1.54L1623,679.13l-.63.94,19,11.55a2.21,2.21,0,0,1,1.18,2.69l-.22.64a2.22,2.22,0,0,1-2.74,1.43c-4-1.18-12.11-6.65-20.69-10-6.66-2.6-12-3-20.07-7.14a66.15,66.15,0,0,1-9.63-6.83" transform="translate(-119.64 -139.61)"/><path class="cls-12" d="M1336.45,1116.84l-.28,27.35s26.89,4,36.21,29.5h-72.12l5.23-30.72,3.08-26.65Z" transform="translate(-119.64 -139.61)"/><polygon class="cls-13" points="1189.48 970.03 1185.84 1003.37 1216.52 1004.59 1216.67 978.24 1189.48 970.03"/><path class="cls-11" d="M1182.63,482.3c-7.52,5.66-4.6,11.05-9.29,13.12-3.44,1.52-11.78.73-17.56-.48l-.31-.07h0l-.15,0-1-.23-.19-.05a22.48,22.48,0,0,1-3.26-1c-7.41-3.15-18.32-17.7-16.86-20.78l0-.07c1.7-3,18.73-4,21.81-7s-4.79-9.23-5.87-13.59,2.53-14.44,5.18-5.54,9.59,11.14,13.43,14.5a86.15,86.15,0,0,1,6.93,6.81Z" transform="translate(-119.64 -139.61)"/><path class="cls-12" d="M1465,1122.19l-2.87,21.49s53.35,12,73.41,29.87l-104.94.14,9.2-61.54Z" transform="translate(-119.64 -139.61)"/><polygon class="cls-13" points="1319.6 977.22 1315.49 1003.22 1342.5 1004.07 1344.93 986.24 1319.6 977.22"/><path class="cls-11" d="M1163.57,491l10.24-17.61,89.72,36.07,58.94-23.84L1337,528.74S1281.44,545,1264.49,543C1234.84,539.53,1163.57,491,1163.57,491Z" transform="translate(-119.64 -139.61)"/><circle class="cls-14" cx="1307.51" cy="238.85" r="77.2"/><path class="cls-15" d="M1181.77,484.27h0l-155-62.49h0c2.06-5.82,9.67-11.42,15.42-10.42a362.17,362.17,0,0,1,70.92,20.21,372.12,372.12,0,0,1,65.71,34.9C1183.79,469.77,1183.84,478.47,1181.77,484.27Z" transform="translate(-119.64 -139.61)"/><ellipse class="cls-16" cx="1104.28" cy="453.03" rx="10.09" ry="83.56" transform="translate(150.92 1167.58) rotate(-68)"/><path class="cls-11" d="M1482.8,538.54s14.58,59.74,28.5,76.63c21,19.49,80.23,58.84,80.23,58.84l5-22.92-60.29-56.71-23.92-67.21Z" transform="translate(-119.64 -139.61)"/><path class="cls-17" d="M1474.36,1123.24l-47.71-.15,11.64-222.79-18.08-198.15-72.88,424.65h-48.07s20-224.18,29-360.49c6.34-95.87,19-127,19-127h139.69a737.56,737.56,0,0,1,11.2,97.63c5.07,104.55,6.37,123.53,3.26,164.56C1497.11,957.16,1474.36,1123.24,1474.36,1123.24Z" transform="translate(-119.64 -139.61)"/><circle class="cls-14" cx="1357.35" cy="148.92" r="41.45"/><rect class="cls-14" x="1376.27" y="357.46" width="101.6" height="154.39" transform="translate(870.64 1721.48) rotate(-89.91)"/><polygon class="cls-18" points="1382.02 458.09 1410.87 438.74 1407.98 430.61 1378.17 448.44 1382.02 458.09"/><polygon class="cls-18" points="1199.43 394.02 1187.02 352.37 1182.97 354.01 1188.02 396.88 1199.43 394.02"/><path class="cls-19" d="M1536.85,564.69l-50.39,30.16-6.88-44.21s15.09-.43,9.25,11.06c-11.3,22.21-12.62,25.38-6,54.51,1.1,4.84,4.07,23.07,4.07,23.07H1347.18s7.23-20.82,27.63-57.23c13-23.15-11.3-57-11.3-57l-38,30.31-20.81-69.86s26.46-11.84,48.41-21.45c22.45-9.84,33.57-8.39,66.46-8.34,31,0,51.2,1.71,65,13.26C1513.45,493,1536.85,564.69,1536.85,564.69Z" transform="translate(-119.64 -139.61)"/><path class="cls-11" d="M1449.7,502.9c-21,0-34.83-8.91-41-26.47-3.63-10.33-6.58-20.67-6.61-20.78l-.73-2.58,2.69,0s2.38,0,5.7,0c4.09,0,9.86-.05,14.15-.3.44,0,.88,0,1.33,0,9.63,0,20.27,5.69,20.72,5.93s8.32,4.64,15.13,15.12c5.19,8,6.37,15.88,3.25,21.64-2.58,4.77-7.74,7.4-14.53,7.41Z" transform="translate(-119.64 -139.61)"/><path class="cls-20" d="M1425.24,454.8c9.24,0,19.77,5.69,19.77,5.69s7.79,4.27,14.4,14.45c9,13.93,4.32,25.94-9.6,26h-.11c-14.88,0-31.91-4.64-39.11-25.13-3.64-10.39-6.56-20.66-6.56-20.66s2.39,0,5.73,0c4.22,0,10-.05,14.27-.3.4,0,.8,0,1.21,0m0-4h0c-.49,0-1,0-1.44,0-4.25.25-10,.3-14,.3-3.26,0-5.64,0-5.67,0l-5.37-.08,1.47,5.17c0,.1,3,10.51,6.64,20.89,6.39,18.19,21.21,27.81,42.88,27.81h.12c7.55,0,13.33-3,16.28-8.46,3.48-6.43,2.27-15.06-3.33-23.68-7.08-10.89-15.49-15.58-15.84-15.78s-11.56-6.18-21.69-6.18Z" transform="translate(-119.64 -139.61)"/><path class="cls-11" d="M1445.26,416.85c-4.21,6.72-2.49,15.57-.09,20.74.81,1.78,6.08,16.68,6.84,17.35,3,2.62-33.54,18.54-33.54,18.54L1416,443.41c-10.59.61-23,0-29.84-4.49-20.33-13.52-21.54-60.41-21.2-62.76l17-19.08s25.71-11.87,29.63-6.82c7.16,9.24,23.91,50.59,36,45.87,0,0-1.53-12.86,9.2-12.84,8,0,10.16,6.42,10.15,10.13C1467.05,405.92,1450.91,407.8,1445.26,416.85Z" transform="translate(-119.64 -139.61)"/><polygon class="cls-21" points="1269.63 262.38 1261.97 280.96 1270.86 280.78 1269.63 262.38"/><ellipse class="cls-12" cx="1401.97" cy="402.53" rx="4.54" ry="6.73" transform="translate(-136.74 -74.43) rotate(-2.65)"/><ellipse class="cls-12" cx="1378.47" cy="401.94" rx="4.54" ry="6.73" transform="translate(-136.74 -75.51) rotate(-2.65)"/><path class="cls-14" d="M1387.87,356.87a45,45,0,0,1-2.45,14.64c-.21.57-.42,1.16-.66,1.73a43.78,43.78,0,0,1-6,10.55,39.72,39.72,0,0,1-27.17,15.45c-.56.05-1.11.1-1.67.12l0-15.62h0c0-.48,0-1,0-1.45a84.24,84.24,0,0,1,17-50.94,79.75,79.75,0,0,1,6.35-7.37A42.65,42.65,0,0,1,1385,340.87,44.27,44.27,0,0,1,1387.87,356.87Z" transform="translate(-119.64 -139.61)"/><path class="cls-14" d="M1447.77,356c0,11.16-10.12,20.54-23.92,23.41-1.09.23-2.2.42-3.34.56a43.42,43.42,0,0,1-5.63.35c-18.15,0-32.85-11-32.83-24.42a17.84,17.84,0,0,1,.41-3.8c2.48-11.66,16.08-20.56,32.49-20.53,18,0,32.56,10.76,32.82,24C1447.78,355.71,1447.77,355.84,1447.77,356Z" transform="translate(-119.64 -139.61)"/><path class="cls-22" d="M1390.34,427.29s5.79,1.87,11.6-4.59" transform="translate(-119.64 -139.61)"/><path class="cls-13" d="M1416,443.41s13.39.39,19.1-2.72l-18.38,11.54Z" transform="translate(-119.64 -139.61)"/><path class="cls-14" d="M1399.3,455.47s3.5-.15,8.88.19c7.54.47,8.89.49,8.89.49l-.88-11-20.36,2.68Z" transform="translate(-119.64 -139.61)"/><rect class="cls-17" x="1424.75" y="1122.27" width="52.92" height="13.48" transform="translate(2784.33 2116.41) rotate(179.92)"/><polygon class="cls-17" points="1175.4 996.18 1230.19 996.11 1231.12 982.62 1176.32 982.7 1175.4 996.18"/><path class="cls-14" d="M1442.68,425h61.53a0,0,0,0,1,0,0v61.73a30,30,0,0,1-30,30h-31.58a0,0,0,0,1,0,0V425A0,0,0,0,1,1442.68,425Z" transform="translate(-118.94 -141.8) rotate(0.09)"/><path class="cls-11" d="M1150.57,484.71h0c-.62,2.07-4.67,2.62-9,1.22l-30.25-10c-4.32-1.39-2.76-3.84-1.74-4.48,1.54-1,5.5-1.58,10.11-.29l24.14,7.3C1148.17,479.82,1151.19,482.65,1150.57,484.71Z" transform="translate(-119.64 -139.61)"/><path class="cls-11" d="M1152,487.73h0c-1.18,2-5.35,1.6-9.26-.81l-27.29-17.13c-3.91-2.4-1.7-4.54-.51-5,1.8-.64,5.9-.36,10.12,2l22,12.94C1151,482.19,1153.18,485.77,1152,487.73Z" transform="translate(-119.64 -139.61)"/><path class="cls-11" d="M1157,492h0c-1.72,1.71-5.44.74-8.25-2.16l-19.55-20.54c-2.82-2.9-.08-4.62,1.15-4.85,1.86-.34,5.54.54,8.66,3.45l16,15.73C1157.87,486.5,1158.76,490.27,1157,492Z" transform="translate(-119.64 -139.61)"/><path class="cls-11" d="M1156.49,493.72h0c-1.75,1-4.32-.4-5.72-3l-9.61-18.57c-1.4-2.63,1.13-3.43,2.12-3.38a8,8,0,0,1,5.7,4.05l8.16,14.4C1158.54,489.81,1158.25,492.75,1156.49,493.72Z" transform="translate(-119.64 -139.61)"/><path class="cls-23" d="M1481.65,573.05s10-17.39,7.87-33.73" transform="translate(-119.64 -139.61)"/></g><g id="Dog"><ellipse class="cls-10" cx="542.47" cy="1035.08" rx="325.06" ry="3.62"/><path class="cls-24" d="M557.21,1134.57s-41.67-47-60.66-58.36-56-24.09-56-24.09" transform="translate(-119.64 -139.61)"/><rect class="cls-17" x="554.58" y="1146.21" width="36.44" height="26.22" rx="12" transform="translate(-614.8 290.61) rotate(-29.38)"/><path class="cls-25" d="M558.31,1136.22l15.24,9.79-13.31,7.49-1.93-17.28m-7.37-11.85,4.34,38.81,29.91-16.84-34.25-22Z" transform="translate(-119.64 -139.61)"/><path class="cls-24" d="M756.62,1136.25s-31.72-49.08-47.61-62.14-48.14-30-48.14-30" transform="translate(-119.64 -139.61)"/><rect class="cls-17" x="750.55" y="1149" width="33.89" height="24.38" rx="11.26" transform="translate(-481.03 207.32) rotate(-20.73)"/><path class="cls-25" d="M757.79,1138.82l11.46,10.09-12,4.55.58-14.64m-5.5-12.83-1.44,36.3L780.7,1151l-28.41-25Z" transform="translate(-119.64 -139.61)"/><path class="cls-24" d="M887.46,1141.66s-47.25-34.4-66.76-40.88S765,1090.1,765,1090.1" transform="translate(-119.64 -139.61)"/><rect class="cls-17" x="889.63" y="1148.83" width="33.89" height="24.38" rx="11.26" transform="translate(-662.76 760.19) rotate(-41.8)"/><path class="cls-25" d="M889.47,1143.64l14.32,5.29-9.6,8.58-4.72-13.87m-9.74-10,11.7,34.39,23.79-21.28-35.49-13.11Z" transform="translate(-119.64 -139.61)"/><path class="cls-17" d="M672.31,983.87s-38.36,58.79-15.37,67.68c15.69,6.07,22.14-22.87,22.14-22.87l135.7-91.81s4.5-7.16-5.58-19.2-15.07-9-15.07-9l-61.45,41.58-8.27-1.59Z" transform="translate(-119.64 -139.61)"/><path class="cls-26" d="M566.62,1052.39" transform="translate(-119.64 -139.61)"/><path class="cls-17" d="M447.76,991.74s-31.84,66.51-6.68,72.6c17.19,4.15,19.9-26.88,19.9-26.88L589.61,923.15s3.7-8.07-8.46-19.22-16.93-7.33-16.93-7.33L506,948.36l-8.83-.51Z" transform="translate(-119.64 -139.61)"/><path class="cls-25" d="M813.08,962.14l-49.9-2.9A9.7,9.7,0,0,1,754.06,949l2.39-41.18a9.7,9.7,0,0,1,10.25-9.12l64.63,3.76a9.7,9.7,0,0,1,8.36,13.47l-17.12,40.32A9.7,9.7,0,0,1,813.08,962.14Z" transform="translate(-119.64 -139.61)"/><path class="cls-19" d="M761.86,903.6l-3,50.95a12.78,12.78,0,0,1-13.5,12l-33.54-1.95h0A8.34,8.34,0,0,0,704,955.8l-122.43-7.11a8.34,8.34,0,0,0-8.81,7.84h0L460.8,950a12.77,12.77,0,0,1-12-13.49l3-50.95a12.77,12.77,0,0,1,13.49-12l284.6,16.54A12.77,12.77,0,0,1,761.86,903.6Z" transform="translate(-119.64 -139.61)"/><path class="cls-27" d="M760.52,926.72l-1.62,27.82a12.78,12.78,0,0,1-13.5,12l-33.54-1.95c0-.17,0-.33,0-.5A8.33,8.33,0,0,0,704,955.8L581.6,948.68a8.34,8.34,0,0,0-8.81,7.85L460.8,950a12.75,12.75,0,0,1-9.88-5.66L497.54,928l22.15-30.77,35.84,1.9,13.53-6.38,51.58,5.95L650,920.61Z" transform="translate(-119.64 -139.61)"/><rect class="cls-25" x="479.11" y="882.99" width="58.34" height="61.38" rx="10.54" transform="translate(-65.78 -167.56) rotate(3.33)"/><rect class="cls-25" x="555.4" y="895.93" width="70.58" height="22.2" rx="10.54" transform="translate(-66.03 -172.35) rotate(3.33)"/><polyline class="cls-28" points="640.85 787.43 530.34 781.01 497.49 756.45 445.36 753.42 435.88 759.5 413.92 758.22"/><line class="cls-29" x1="631.77" y1="766.97" x2="571.29" y2="763.8"/><circle class="cls-25" cx="669.06" cy="720.69" r="20.83"/><rect class="cls-25" x="769.74" y="860.24" width="34.5" height="50.49" transform="translate(-66.95 -183.77) rotate(3.33)"/><path class="cls-19" d="M739.13,1045.51s8,69.74,31.38,61.91c16-5.35,2.43-31.74,2.43-31.74l45.84-157.3s-1.11-8.38-16.55-11.21-17.37,2.66-17.37,2.66l-20.75,71.23-7.38,4.06Z" transform="translate(-119.64 -139.61)"/><path class="cls-24" d="M391.91,1131.17s-3.4-62.76-11.24-83.43-28.92-53.69-28.92-53.69" transform="translate(-119.64 -139.61)"/><rect class="cls-17" x="370.53" y="1147.14" width="36.44" height="26.22" rx="12" transform="translate(67.56 -186.29) rotate(9.04)"/><path class="cls-25" d="M391.75,1133.14l5.86,17.14-15.09-2.4,9.23-14.74m1.6-13.86-20.72,33.1,33.89,5.39-13.17-38.49Z" transform="translate(-119.64 -139.61)"/><rect class="cls-25" x="700.62" y="765.87" width="25.42" height="154" transform="translate(1563.74 175.74) rotate(101.7)"/><path class="cls-25" d="M784,777.37,653.47,810.26,642,834A12.73,12.73,0,0,1,619,823l16.53-34.4,142.22-35.84Z" transform="translate(-119.64 -139.61)"/><polygon class="cls-25" points="681.19 629.88 661.83 613.4 676.35 596.53 695.7 613.02 681.19 629.88"/><path class="cls-25" d="M811.79,759.06l26.05,1a2.7,2.7,0,0,0,2.56-1.53l25.36-51.71a2.74,2.74,0,0,0-2.9-3.9l-56.43,9.16a2.73,2.73,0,0,0-2.12,1.73l-10.72,28.27a2.75,2.75,0,0,0,.8,3.07l15.75,13.23A2.75,2.75,0,0,0,811.79,759.06Z" transform="translate(-119.64 -139.61)"/><path class="cls-19" d="M382.48,949.86s-53.56,50.66-32.27,65.37c14.55,10,28.22-18,28.22-18L539.5,936.71s6.35-6.21-1-21-13.18-12.91-13.18-12.91l-72.94,27.43-8.06-3.65Z" transform="translate(-119.64 -139.61)"/><circle class="cls-25" cx="239.22" cy="864.43" r="6.9"/><circle class="cls-25" cx="646.23" cy="954.05" r="6.9"/><circle class="cls-30" cx="512.7" cy="685.13" r="6.42"/><circle class="cls-30" cx="696.13" cy="585.49" r="6.42"/><circle class="cls-25" cx="670.13" cy="622.38" r="17.66"/><path class="cls-31" d="M798.22,729.91l6,6.47A17.44,17.44,0,0,0,828,738l37.32-34.24" transform="translate(-119.64 -139.61)"/></g></svg>