<svg xmlns="http://www.w3.org/2000/svg" xmlns:xlink="http://www.w3.org/1999/xlink" viewBox="0 0 1771.38 1034.51"><defs><style>.cls-1,.cls-11,.cls-12,.cls-13,.cls-14,.cls-16,.cls-22,.cls-24,.cls-25,.cls-3,.cls-36,.cls-37,.cls-39,.cls-4,.cls-41,.cls-44,.cls-45,.cls-6,.cls-7,.cls-8,.cls-9{fill:none;}.cls-2{fill:#cce3ff;}.cls-13,.cls-3,.cls-4{stroke:#ecf6ff;}.cls-11,.cls-12,.cls-13,.cls-14,.cls-16,.cls-3,.cls-4,.cls-6,.cls-7,.cls-8,.cls-9{stroke-linecap:square;}.cls-11,.cls-12,.cls-13,.cls-14,.cls-16,.cls-17,.cls-22,.cls-24,.cls-25,.cls-3,.cls-36,.cls-37,.cls-39,.cls-4,.cls-41,.cls-44,.cls-45,.cls-6,.cls-7,.cls-8,.cls-9{stroke-miterlimit:10;}.cls-11,.cls-3,.cls-6,.cls-8{stroke-width:15px;}.cls-16,.cls-4,.cls-9{stroke-width:10px;}.cls-17,.cls-5{fill:#ecf6ff;}.cls-14,.cls-6,.cls-7{stroke:#b6d4ff;}.cls-13,.cls-7{stroke-width:12px;}.cls-8,.cls-9{stroke:#cce3ff;}.cls-10{fill:#dceeff;}.cls-11,.cls-12,.cls-16,.cls-17{stroke:#dceeff;}.cls-12,.cls-14,.cls-44{stroke-width:9px;}.cls-15{fill:#b6d4ff;}.cls-17,.cls-24,.cls-36,.cls-39{stroke-linecap:round;}.cls-17{stroke-width:20px;}.cls-18{fill:#afb3c6;}.cls-19{fill:#262933;}.cls-20{fill:#606a75;}.cls-21{fill:#fff;}.cls-22{stroke:#606a75;}.cls-22,.cls-41{stroke-width:5px;}.cls-23{fill:#dcdfe2;}.cls-24{stroke:#cf3e83;}.cls-24,.cls-39{stroke-width:22px;}.cls-25{stroke:#202033;stroke-width:4px;}.cls-26{fill:#d8e0e5;}.cls-27{fill:#71abff;}.cls-28{fill:#d4e0e8;}.cls-29{fill:#c0cdd3;}.cls-30{fill:#240040;}.cls-31{fill:#e576c6;}.cls-32{fill:#6ca1ff;}.cls-33{fill:#405fd3;}.cls-34{fill:#0d0b6d;}.cls-35{fill:#cf3e83;}.cls-36,.cls-37{stroke:#c14999;stroke-width:2px;}.cls-38{clip-path:url(#clip-path);}.cls-39{stroke:#ced1e0;}.cls-40{fill:#dce8ef;}.cls-41{stroke:#cfd8e2;}.cls-42{fill:#d1dce0;}.cls-43{fill:#ffc000;}.cls-44{stroke:#032466;}.cls-45{stroke:#182084;stroke-width:3px;}.cls-46{fill:#c6661e;}</style><clipPath id="clip-path" transform="translate(-112.13 -164.21)"><path class="cls-1" d="M824.67,976.18H569.52a20.77,20.77,0,0,1-20.66-18.65L490.43,389.64a20.77,20.77,0,0,1,20.67-22.9h61.67a16.93,16.93,0,0,1,16.84,15.19l1.07,10.37a20,20,0,0,0,19.86,17.92h69.28a15.55,15.55,0,0,0,15.48-17.15l-1-9.91a14.9,14.9,0,0,1,14.82-16.42h57.14a20.77,20.77,0,0,1,20.66,18.65l58.44,567.89A20.77,20.77,0,0,1,824.67,976.18Z"/></clipPath></defs><title>back and obj 3</title><g id="Back"><path class="cls-2" d="M1734.1,707.84c0,114.54-74.75,178.44-172.11,178.44s-172.11-63.9-172.11-178.44c0-241.16,109.85-519.18,172.11-519.18S1734.1,466.68,1734.1,707.84Z" transform="translate(-112.13 -164.21)"/><line class="cls-3" x1="1449.86" y1="373.27" x2="1449.86" y2="901.94"/><line class="cls-4" x1="1497.07" y1="645.15" x2="1535.12" y2="607.1"/><line class="cls-4" x1="1497.07" y1="430.64" x2="1535.12" y2="392.58"/><circle class="cls-5" cx="1158.5" cy="483.98" r="237.97"/><line class="cls-6" x1="1158.5" y1="437.84" x2="1158.5" y2="901.94"/><line class="cls-7" x1="1214.93" y1="646.07" x2="1252.98" y2="608.02"/><line class="cls-7" x1="1214.93" y1="475.45" x2="1252.98" y2="437.4"/><line class="cls-7" x1="1102.08" y1="564.66" x2="1064.03" y2="526.6"/><line class="cls-7" x1="1102.08" y1="479.35" x2="1064.03" y2="441.29"/><path class="cls-5" d="M940,840.54c0,113.31-74,164.16-164.9,164.16S610.2,953.85,610.2,840.54c0-211.07,90-408.18,164.89-408.18S940,629.47,940,840.54Z" transform="translate(-112.13 -164.21)"/><line class="cls-8" x1="662.96" y1="492.88" x2="662.96" y2="901.94"/><line class="cls-9" x1="699.87" y1="720.99" x2="737.93" y2="682.94"/><line class="cls-9" x1="699.87" y1="538.38" x2="737.93" y2="500.32"/><line class="cls-9" x1="631.97" y1="721.02" x2="593.41" y2="682.46"/><line class="cls-9" x1="629.27" y1="630.89" x2="590.71" y2="592.33"/><path class="cls-2" d="M1485.46,1063.89l-429.07,2.25c-24.5-31.11-81.53-109-58.57-132.05,15.1-15.15,60.37,33.59,72.59,19s-68-105.73-47.66-118.57c35.92-22.62,151.48,139.77,166.39,126.7,15.68-13.74-58-109.24-32.05-119.36,30.24-11.77,110.29,134.27,133.41,119.36,12.12-7.81-11.4-55.42,6.08-63.56,30.43-14.18,81.21,123.34,102.8,111.09,10.21-5.81-1.27-25.68,14-30.62C1432.13,972.07,1469.81,1035.68,1485.46,1063.89Z" transform="translate(-112.13 -164.21)"/><path class="cls-2" d="M1689.9,1008.94c-.63.84-19.68,26.26-22.07,49.67h-33.49C1650.15,1027.19,1689,1009.33,1689.9,1008.94Z" transform="translate(-112.13 -164.21)"/><path class="cls-10" d="M202.67,1013.09c.63.84,19.68,26.26,22.07,49.67h33.49C242.42,1031.34,203.54,1013.48,202.67,1013.09Z" transform="translate(-112.13 -164.21)"/><path class="cls-10" d="M930.77,1013.82c.63.84,19.68,26.26,22.07,49.67h33.49C970.52,1032.07,931.64,1014.21,930.77,1013.82Z" transform="translate(-112.13 -164.21)"/><path class="cls-10" d="M1800.06,1029.4a147.39,147.39,0,0,0-16.56,29.21h-24.25C1777,1040,1799.4,1029.69,1800.06,1029.4Z" transform="translate(-112.13 -164.21)"/><path class="cls-10" d="M417.18,1062.76H381.7c-.21-25.49-13.29-58.67-13.29-58.67S407.34,1035.88,417.18,1062.76Z" transform="translate(-112.13 -164.21)"/><path class="cls-10" d="M427.84,1062.76c8.57-18.15,9.09-32.77,9.09-32.77s16.83,18.29,24,32.77Z" transform="translate(-112.13 -164.21)"/><path class="cls-10" d="M1574.38,914.48c-.5,1.54-28.19,77.93-30.87,144.13H1498.8c2.66-29.89-10.67-66-10.67-66s23.79,18.25,29.95,44.3C1518.08,1036.92,1536.54,953.88,1574.38,914.48Z" transform="translate(-112.13 -164.21)"/><path class="cls-10" d="M1614.46,996.3s-26.16,34.72-33.15,62.31H1557C1565.28,1041.58,1585.2,1007.05,1614.46,996.3Z" transform="translate(-112.13 -164.21)"/><path class="cls-5" d="M1825.65,897.77c0,58.17-27.71,111-90.46,111s-90.46-52.83-90.46-111c0-68.24,47.41-136.09,90.46-136.09S1825.65,829.53,1825.65,897.77Z" transform="translate(-112.13 -164.21)"/><line class="cls-11" x1="1623.06" y1="728.13" x2="1623.06" y2="901.94"/><line class="cls-12" x1="1654.31" y1="747.59" x2="1680.26" y2="722.08"/><line class="cls-12" x1="1594.71" y1="774.25" x2="1563.03" y2="745.64"/><path class="cls-2" d="M301.15,627.19c-6.33-19-41-15.74-41-68.58,0-79.57,109.56-70.49,116-130.43S312.21,369.66,310,319.1s51.36-154.89,132.59-154.89c64.05,0,11,80.5,62.69,116.5s110.73-10.12,140,46.49c40.25,78-62.67,171.63-52.52,231.41s70.49,45.64,72.34,111.32-85.8,77.24-77.54,133.57c5.2,35.5,60.67,23.65,63.58,93.65,2.46,59.28-188.11,132.62-331.26,12S325.31,699.52,301.15,627.19Z" transform="translate(-112.13 -164.21)"/><line class="cls-3" x1="345.8" y1="319.41" x2="345.8" y2="901.94"/><line class="cls-13" x1="402.33" y1="691.89" x2="440.39" y2="653.84"/><line class="cls-13" x1="390.73" y1="487.3" x2="428.79" y2="449.25"/><line class="cls-13" x1="390.73" y1="385.01" x2="428.79" y2="346.96"/><line class="cls-13" x1="290.9" y1="385.01" x2="252.84" y2="346.96"/><path class="cls-14" d="M611,1060.42s-33.84-76.07-84.92-112.31" transform="translate(-112.13 -164.21)"/><path class="cls-14" d="M628,1062.76s-5.54-115.1,36.3-157.32" transform="translate(-112.13 -164.21)"/><circle class="cls-15" cx="546.42" cy="741.24" r="25.83"/><circle class="cls-15" cx="423.69" cy="794.88" r="25.83"/><path class="cls-14" d="M1093.16,1056.4s-3.91-52.14,25.24-113.08" transform="translate(-112.13 -164.21)"/><path class="cls-14" d="M1076.84,1061.73s-25-109.33-89.69-162.69" transform="translate(-112.13 -164.21)"/><circle class="cls-15" cx="874.2" cy="728.13" r="25.83"/><circle class="cls-15" cx="1013.33" cy="759.95" r="25.83"/><path class="cls-2" d="M717.09,934c-.82,1.08-53.52,70.29-54.87,124.53H619.66C625.36,1040.91,650.07,976.31,717.09,934Z" transform="translate(-112.13 -164.21)"/><path class="cls-2" d="M596.74,1058.61H562.83c-6.71-25.49-27-41.38-27-41.38S576.14,1025.12,596.74,1058.61Z" transform="translate(-112.13 -164.21)"/><path class="cls-10" d="M1219.84,991.43c.74.93,16.61,37.45,14.73,72.06h55.89c1.07-18.92,13.07-46,13.07-46s-24.61,10-41.25,38.43C1262.28,1055.92,1249.68,1004.57,1219.84,991.43Z" transform="translate(-112.13 -164.21)"/><path class="cls-10" d="M1132.22,1007.79c-.67,1.29-14.12,24.6-17.66,51.86l-53.29,5.46c-3.63-24.23-11.47-37.72-11.47-37.72s22.38,6.51,34.32,25.54C1084.12,1052.93,1098,1023.65,1132.22,1007.79Z" transform="translate(-112.13 -164.21)"/><path class="cls-5" d="M421.75,822c0,92.74-38.36,177-125.21,177S171.33,914.77,171.33,822c0-108.79,65.63-217,125.21-217S421.75,713.24,421.75,822Z" transform="translate(-112.13 -164.21)"/><line class="cls-11" x1="184.41" y1="637.83" x2="184.41" y2="901.94"/><line class="cls-16" x1="220.83" y1="670.04" x2="254.72" y2="631.98"/><line class="cls-16" x1="147.99" y1="748.23" x2="114.1" y2="710.17"/><line class="cls-16" x1="147.99" y1="671.6" x2="114.1" y2="633.55"/><line class="cls-17" x1="1761.38" y1="901.94" x2="10" y2="901.94"/></g><g id="Woman_phone" data-name="Woman phone"><ellipse class="cls-18" cx="1255.69" cy="1030.89" rx="222.46" ry="3.62"/><path class="cls-19" d="M1223.77,1012.93h278.79a30.44,30.44,0,0,0,30.28-27.33l63-612A30.45,30.45,0,0,0,1565.52,340H1286.75a30.45,30.45,0,0,0-30.29,27.33l-63,612A30.45,30.45,0,0,0,1223.77,1012.93Z" transform="translate(-112.13 -164.21)"/><path class="cls-20" d="M1560.77,373.55l-63,612a30.45,30.45,0,0,1-30.29,27.33H1188.73a30.45,30.45,0,0,1-30.29-33.56l63-612A30.43,30.43,0,0,1,1251.7,340h278.78A30.45,30.45,0,0,1,1560.77,373.55Z" transform="translate(-112.13 -164.21)"/><path class="cls-21" d="M1202.44,987.81h253.78a20.68,20.68,0,0,0,20.58-18.57l60-583.31a20.68,20.68,0,0,0-20.58-22.81H1262.46a20.68,20.68,0,0,0-20.58,18.57l-60,583.31A20.7,20.7,0,0,0,1202.44,987.81Z" transform="translate(-112.13 -164.21)"/><polygon class="cls-22" points="1489.78 277.73 1485.74 317.02 1457.12 317.02 1461.15 277.73 1489.78 277.73"/><polygon class="cls-22" points="1483.88 344.25 1479.83 383.54 1451.21 383.54 1455.25 344.25 1483.88 344.25"/><path class="cls-20" d="M1476.5,343.4l-3.33,32.4a21.14,21.14,0,0,1-21,19h-121a21.14,21.14,0,0,1-21-23.3L1313,343.4Z" transform="translate(-112.13 -164.21)"/><rect x="1243.47" y="201.02" width="62.23" height="8.15" rx="4.08"/><circle cx="1320.77" cy="205.1" r="6.8"/><path class="cls-5" d="M1504.26,471.61l-18.31,178A16,16,0,0,1,1470,664h-215a16,16,0,0,1-15.91-17.63l18.32-178A16,16,0,0,1,1273.39,454l215-.06A16,16,0,0,1,1504.26,471.61Z" transform="translate(-112.13 -164.21)"/><path class="cls-5" d="M1472.43,773.78l-18.32,178a16,16,0,0,1-15.91,14.35h-215a16,16,0,0,1-15.91-17.63l18.32-178a16,16,0,0,1,15.9-14.35l215-.06A16,16,0,0,1,1472.43,773.78Z" transform="translate(-112.13 -164.21)"/><path class="cls-23" d="M1335.76,695.83,1334,712.67a8,8,0,0,1-8,7.18h-22.55a8,8,0,0,1-8-8.82l1.73-16.83a8,8,0,0,1,8-7.18h22.55A8,8,0,0,1,1335.76,695.83Z" transform="translate(-112.13 -164.21)"/><path class="cls-23" d="M1316.2,707l-.19.19v7.16c0,6.31,2.81,10.53,8.35,11.43.92.15,4.1.23,6.75.28.69,0,.73-.93.07-1.12-5.35-1.56-6.82-6.43-6.82-10.59v-7.16l-.19-.19Z" transform="translate(-112.13 -164.21)"/><polyline class="cls-24" points="1136.85 532.34 1144.29 544.03 1156.07 532.34"/><line class="cls-25" x1="1125.43" y1="518.35" x2="1118.52" y2="511.45"/><line class="cls-25" x1="1118.89" y1="536.5" x2="1109.12" y2="536.5"/><line class="cls-25" x1="1126.58" y1="554.66" x2="1119.67" y2="561.56"/><circle class="cls-26" cx="1152.72" cy="215.95" r="8.15"/><circle class="cls-26" cx="1175.18" cy="215.95" r="8.15"/><circle class="cls-26" cx="1402.64" cy="215.95" r="8.15"/><path class="cls-27" d="M1205.71,462.88l-.6.6V486.3c0,20.1,8.93,33.53,26.58,36.39,2.94.48,13.06.75,21.51.89,2.18,0,2.31-2.94.22-3.55-17.05-5-21.73-20.47-21.73-33.73V463.48l-.6-.6Z" transform="translate(-112.13 -164.21)"/><path class="cls-28" d="M1462.5,870.32l-8.39,81.49a16,16,0,0,1-15.91,14.36h-75a69.22,69.22,0,0,1,99.29-95.85Z" transform="translate(-112.13 -164.21)"/><circle class="cls-28" cx="1171.85" cy="700.07" r="54.69"/><path class="cls-29" d="M1388.92,800.9a41.93,41.93,0,0,0,44.26,71.23Z" transform="translate(-112.13 -164.21)"/><path class="cls-29" d="M1284.5,823.31a29.46,29.46,0,0,0,36.35-46.38Z" transform="translate(-112.13 -164.21)"/><rect class="cls-27" x="996.23" y="403.4" width="268.62" height="102.3" rx="20.48" transform="translate(2148.95 744.9) rotate(-180)"/><image width="120" height="120" transform="translate(908.33 257.3) scale(0.54)" xlink:href="../../thumbs-up-sign_1f44d.png"/><image width="120" height="120" transform="translate(990.62 258.3) scale(0.54)" xlink:href="../../heavy-black-heart_2764.png"/><image width="120" height="120" transform="translate(1066.93 257.33) scale(0.53)" xlink:href="../../ok-hand-sign_1f44c.png"/><circle class="cls-30" cx="1270.19" cy="253.87" r="35.69"/><path class="cls-30" d="M1413.16,500.62c0,.42,0,.83,0,1.25a70.3,70.3,0,0,1-137,20.87,69.5,69.5,0,0,1-2-7.53,70.51,70.51,0,0,1-1.51-13.34c0-.42,0-.83,0-1.25a70.29,70.29,0,0,1,140.57,0Z" transform="translate(-112.13 -164.21)"/><path class="cls-31" d="M1102.23,611l157.37-7.32,53.74-48.9-217.1,33.3a103.13,103.13,0,0,0-4.59-10.26c-2.71-5.22-9.1-10.26-8.39-21.38s-7-.9-7.59,4.46,5.23,15.36.82,17.62-16.74,2.06-19.48,5-1.61,9.5.49,10.63c0,0-2.73,8,2.66,13,0,0,.46,5.71,5.71,7.95,0,0,1.91,5.66,7.63,5S1092.14,614.76,1102.23,611Z" transform="translate(-112.13 -164.21)"/><rect class="cls-30" x="1160.46" y="337.67" width="140.57" height="92.61"/><path class="cls-32" d="M1474.44,573.64,1449.06,634a43.78,43.78,0,0,1-23.53,30H1365.6c-47.51-15.83-67-59.28-67-59.28L1231,637.13V563.57s109.79-15.62,109.08-16c-1-.56,67.44-4.36,81-2.84S1474.44,573.64,1474.44,573.64Z" transform="translate(-112.13 -164.21)"/><path class="cls-33" d="M1308.59,552.46a25.92,25.92,0,0,0-8.82,10.72c-4.34,9.57-4.46,23.12-3.38,32.1a40,40,0,0,0,2.21,9.44s-62.59,30.2-67.6,32.41V563.57C1238.3,562.51,1308.59,552.46,1308.59,552.46Z" transform="translate(-112.13 -164.21)"/><path class="cls-31" d="M1489.28,617.21,1486,649.64A16,16,0,0,1,1470,664h-72.38l-10.92,7.13s.21,9.69,1.13,16.61c.48,3.58-3.94,5.8-3.94,5.8s-1.13,3.39-4,4.1c-2.37.59-4.35-3.75-4.92-5.3,3.12,8.38-1.88,10.53-3.39,10.33s-2.16-2.46-2.16-2.46-3.07,1.33-7.84-3.59-6.72-20.11-6.54-25.36c.06-1.83,1.41-4.49,3.14-7.26.15-.24.3-.49.46-.73,3.17-4.95,7.3-10,7.3-11.23L1449.05,634l17.59-41.78Z" transform="translate(-112.13 -164.21)"/><path class="cls-31" d="M1359.41,530.26c-3.82,5.79-2.24,13.41-.05,17.86a10.24,10.24,0,0,0,2.26,3.27c2.72,2.25-14.72,18.87-14.72,18.87l-15.35-16.88c-9.64.54-19.66-.14-25.88-4-18.53-11.62-19.69-52-19.39-54l15.5-16.45s23.4-10.26,27-5.92c6.53,7.95,21.84,43.54,32.87,39.46,0,0-1.41-11.07,8.36-11.07,7.28,0,9.26,5.52,9.26,8.71C1379.24,520.82,1364.54,522.46,1359.41,530.26Z" transform="translate(-112.13 -164.21)"/><polygon class="cls-33" points="1196.3 354.14 1189.34 370.15 1197.44 369.98 1196.3 354.14"/><ellipse class="cls-34" cx="1319.98" cy="517.99" rx="4.13" ry="5.8" transform="translate(-139 -89.66) rotate(-3.2)"/><ellipse class="cls-34" cx="1298.59" cy="517.51" rx="4.13" ry="5.8" transform="translate(-139.01 -90.86) rotate(-3.2)"/><path class="cls-30" d="M1307.08,478.68a36.9,36.9,0,0,1-2.21,12.61c-.19.49-.38,1-.6,1.49a37.1,37.1,0,0,1-5.44,9.09,36.65,36.65,0,0,1-24.72,13.34c-.51,0-1,.09-1.52.11V501.87h0c0-.42,0-.83,0-1.25a70,70,0,0,1,21.15-50.25,36.67,36.67,0,0,1,13.34,28.31Z" transform="translate(-112.13 -164.21)"/><path class="cls-30" d="M1361.62,477.83c0,9.61-9.19,17.7-21.75,20.19-1,.2-2,.36-3,.48a41.08,41.08,0,0,1-5.13.32c-16.52,0-29.92-9.4-29.92-21a14.77,14.77,0,0,1,.37-3.27c2.24-10.05,14.62-17.73,29.55-17.73,16.37,0,29.66,9.22,29.91,20.66C1361.62,477.61,1361.62,477.72,1361.62,477.83Z" transform="translate(-112.13 -164.21)"/><path class="cls-21" d="M1309.57,540.42s9.38.87,9.38-5.65" transform="translate(-112.13 -164.21)"/><path class="cls-31" d="M1364.63,550.37c5.27,4.61,5.62,12.84.77,18.39s-14.19,6.58-18.5,1.5c-4.53-5.34-5.45-12.63-.6-18.18S1359.35,545.76,1364.63,550.37Z" transform="translate(-112.13 -164.21)"/><path class="cls-30" d="M1245,373.07h56a0,0,0,0,1,0,0v31.14a30,30,0,0,1-30,30H1245a0,0,0,0,1,0,0V373.07A0,0,0,0,1,1245,373.07Z"/><path class="cls-35" d="M1331.55,553.38s10.26-1.53,15.45-4.23l-9.76,10.49Z" transform="translate(-112.13 -164.21)"/><polygon class="cls-35" points="1118.87 403.2 1118.87 440.8 1114.1 441.02 1116.08 403.63 1118.87 403.2"/><polygon class="cls-35" points="1336.92 469.75 1346 467.38 1354.51 427.97 1336.92 469.75"/><polygon class="cls-33" points="1300.05 434.16 1327.32 471.84 1313.04 474.95 1300.05 434.16"/><path class="cls-36" d="M1077.82,583.72c1,2.84-3,5.66-3,5.66s4.17-.35,5.38,3.54c1.08,3.46-3.3,6.13-3.3,6.13s5-.72,6.28,3.21c1.54,4.63-4.1,7.12-4.1,7.12s5.47-2,6.7,2.34c1.18,4.12-4.12,5.4-4.12,5.4" transform="translate(-112.13 -164.21)"/><line class="cls-37" x1="945.37" y1="429.99" x2="962.72" y2="425.18"/><line class="cls-37" x1="948.03" y1="443" x2="964.8" y2="434.84"/><line class="cls-37" x1="953.74" y1="450.95" x2="966.98" y2="445.18"/><path class="cls-36" d="M1369.46,699.21s-5-11.16-5.92-16.29a75.66,75.66,0,0,1-1.16-13.46" transform="translate(-112.13 -164.21)"/><path class="cls-36" d="M1376.47,695.42s-3.44-9.55-4.76-13.44c-1.47-4.35-1.48-14.06-1.48-14.06" transform="translate(-112.13 -164.21)"/><path class="cls-36" d="M1379.25,666.85a60.58,60.58,0,0,0-.09,12.41,42.11,42.11,0,0,0,4.77,13.28" transform="translate(-112.13 -164.21)"/></g><g id="Man_phone" data-name="Man phone"><ellipse class="cls-18" cx="602.1" cy="1030.89" rx="222.46" ry="3.62"/><path class="cls-19" d="M801.77,1020H523a30.45,30.45,0,0,1-30.29-27.33l-63-612A30.45,30.45,0,0,1,460,347.09H738.79a30.46,30.46,0,0,1,30.29,27.33l63,612A30.44,30.44,0,0,1,801.77,1020Z" transform="translate(-112.13 -164.21)"/><path class="cls-20" d="M836.81,1020H558a30.45,30.45,0,0,1-30.29-27.33l-63-612a30.45,30.45,0,0,1,30.29-33.56H773.84a30.43,30.43,0,0,1,30.28,27.33l63,612A30.45,30.45,0,0,1,836.81,1020Z" transform="translate(-112.13 -164.21)"/><g id="screen_mask" data-name="screen mask"><g class="cls-38"><rect class="cls-21" x="317.44" y="168.72" width="463.43" height="700.92"/><path class="cls-5" d="M564.56,855.73l18.31,178a16,16,0,0,0,15.91,14.36h215a16,16,0,0,0,15.91-17.63l-18.32-178a16,16,0,0,0-15.91-14.35l-215-.06A16,16,0,0,0,564.56,855.73Z" transform="translate(-112.13 -164.21)"/><path class="cls-5" d="M533.56,552.49l18.31,178a16,16,0,0,0,15.91,14.36h215a16,16,0,0,0,15.91-17.63l-18.32-178a16,16,0,0,0-15.91-14.35l-215-.07A16,16,0,0,0,533.56,552.49Z" transform="translate(-112.13 -164.21)"/><path class="cls-5" d="M501.6,249l18.32,178a16,16,0,0,0,15.91,14.36h215a16,16,0,0,0,15.91-17.63l-18.32-178a16,16,0,0,0-15.91-14.35l-215-.07A16,16,0,0,0,501.6,249Z" transform="translate(-112.13 -164.21)"/><path class="cls-23" d="M624.83,775.47l1.74,16.83a8,8,0,0,0,8,7.19h22.55a8,8,0,0,0,8-8.82l-1.73-16.83a8,8,0,0,0-8-7.19H632.8A8,8,0,0,0,624.83,775.47Z" transform="translate(-112.13 -164.21)"/><path class="cls-23" d="M649.64,786.29l-.19.19v7.16c0,6.31,2.81,10.53,8.34,11.43.93.15,4.1.23,6.76.28.68,0,.72-.93.07-1.12-5.36-1.56-6.83-6.42-6.83-10.59v-7.16l-.18-.19Z" transform="translate(-112.13 -164.21)"/><polyline class="cls-24" points="483.78 612.97 476.34 624.65 464.56 612.97"/><path class="cls-23" d="M590,472.28l1.73,16.84a8,8,0,0,0,8,7.18H622.2a8,8,0,0,0,8-8.82l-1.73-16.83a8,8,0,0,0-8-7.18H597.91A8,8,0,0,0,590,472.28Z" transform="translate(-112.13 -164.21)"/><path class="cls-23" d="M614.75,483.11l-.19.19v7.16c0,6.31,2.81,10.52,8.35,11.42.92.15,4.1.24,6.75.28.69,0,.73-.92.07-1.12-5.35-1.56-6.82-6.42-6.82-10.58V483.3l-.19-.19Z" transform="translate(-112.13 -164.21)"/><polyline class="cls-39" points="448.9 309.78 441.46 321.47 429.68 309.78"/><path class="cls-40" d="M684.88,927.35a50.85,50.85,0,0,1-74-69.76" transform="translate(-112.13 -164.21)"/><path class="cls-40" d="M724.81,991a64.49,64.49,0,0,1,86.4-95.77" transform="translate(-112.13 -164.21)"/><path class="cls-40" d="M762.94,565.22c0,34-16.21,64.93-52.92,64.93s-52.91-30.92-52.91-64.93a96.5,96.5,0,0,1,5.09-30.37h95.64A96.51,96.51,0,0,1,762.94,565.22Z" transform="translate(-112.13 -164.21)"/><line class="cls-41" x1="597.86" y1="409.56" x2="597.86" y2="505.31"/><path class="cls-42" d="M630.34,632.14c-32.25,6.48-52-17.82-58-47.72a86.62,86.62,0,0,1-.92-27.38A90.82,90.82,0,0,1,577,534.86H610.8l6.59,32.8Z" transform="translate(-112.13 -164.21)"/><path class="cls-40" d="M641.92,722.87S615.67,689,624.28,681.23s17.46,12.36,31.2,11.34,1.35-14.75,4.73-21.11,44.9,14.34,44.9,14.34Z" transform="translate(-112.13 -164.21)"/><path class="cls-40" d="M644.89,620.15A63.85,63.85,0,0,1,546,673.51l-10.13-98.45a63.83,63.83,0,0,1,109,45.09Z" transform="translate(-112.13 -164.21)"/><line class="cls-41" x1="471.33" y1="455.95" x2="471.33" y2="551.69"/><circle class="cls-42" cx="551.99" cy="736.25" r="16.45"/></g></g><rect x="515.15" y="215.33" width="31.61" height="9.18" rx="4.59"/><circle cx="561.45" cy="216.55" r="7.65"/><circle cx="500.45" cy="216.85" r="7.65"/><path class="cls-34" d="M800.16,981.22l-7.45,20.35s49.49,23.27,65.21,45l-96.69-21.73L777.73,966Z" transform="translate(-112.13 -164.21)"/><polygon class="cls-35" points="664.03 806.19 657.32 831.34 680.58 837.37 686.8 820.48 664.03 806.19"/><path class="cls-30" d="M610.2,744.88s66.19-77.39,143.11-75.14,52,56.36,52,56.36,37.86,70.55,41.59,122.52c2.51,35.07-42.23,146.61-42.23,146.61l-35.7-10.14S805.31,880.92,797,837.85c-6-31.22-52.58-89.63-67.83-93Z" transform="translate(-112.13 -164.21)"/><path class="cls-43" d="M997.79,660.21l-5.92,45.15-52.66-4.3s-22.82,16.48-58.24,25-88.89,21-119.66,0-21.23-47.41-21.23-47.41l35,.42,8.67-45.87c28-3.62,51.47-2.11,71.47-.71a325,325,0,0,1,59.23,9.85l5.69,1.41C947,650.32,997.79,660.21,997.79,660.21Z" transform="translate(-112.13 -164.21)"/><path class="cls-31" d="M872,682.26c-14.15-4.52-19.28-18.11-17.43-36.21.49-4.82,3.7-12.12,10.85-12.65,25.9,1.81,49.46,4.85,50.38,9.27C923,677.13,883.71,686,872,682.26Z" transform="translate(-112.13 -164.21)"/><path class="cls-31" d="M881,669.74l33.5-21.57s33.83,11.75,42,9.43c0,0,19.62-32.09,19.28-57.62l-23.67-32.12-47.53-6.11-14,41.3c-1-7.73-21.43-21.34-30.1-6.22-11.17,19.5,22,36.35,22,36.35l-20.94,11.54Z" transform="translate(-112.13 -164.21)"/><path class="cls-34" d="M869,590.28s-18.9-16.17,13.18-38.17,52.78-3,52.78-3,12.35-26.56,30.76-22.72c26.23,5.47,22,46.85,22,46.85s11.06-20.72,17.94-16-1.19,79.36-98.35,22.34c0,0,8.09,24.24-16.68,23.46C890.58,603.05,884.91,589.22,869,590.28Z" transform="translate(-112.13 -164.21)"/><polyline class="cls-44" points="786.84 364.39 786.4 383.37 778.88 385.25 768.84 369.76"/><polygon class="cls-33" points="839.88 453.9 843.28 472.53 834.85 470.87 839.88 453.9"/><circle class="cls-34" cx="829.48" cy="450.47" r="4.34"/><circle class="cls-34" cx="851.84" cy="451.6" r="4.34"/><polygon class="cls-35" points="802.34 483.82 777.84 471.99 792.02 490.61 802.34 483.82"/><path class="cls-45" d="M935.16,604.72A7.11,7.11,0,0,1,947.77,606" transform="translate(-112.13 -164.21)"/><path class="cls-45" d="M957.53,606.91a7.1,7.1,0,0,1,12.6,1.22" transform="translate(-112.13 -164.21)"/><polygon class="cls-35" points="1067.71 537.49 1055.68 548.41 1035.99 540.56 1042.76 527.95 1067.71 537.49"/><path class="cls-31" d="M992.48,700.71l139.69,8.37s12.15,6,18.61,7.3,17.69-.69,24.31,2.39,5.38-5.08-.62-6.46-19.23-7.54-19.23-7.54l7.69-5.23s26.16,5.69,30.77,4.92,10.93-4.31,10.93-6.77c0,0-29.85-2.15-40.16-9.38s-32.77,1.07-32.77,1.07L997.62,661.54Z" transform="translate(-112.13 -164.21)"/><path class="cls-31" d="M783.46,635s-56.61,3-69.74,7.4-73,102.25-73,102.25l18.77,1.23s-7.69,12.3-13.54,14.15,1.23,4.92,1.23,4.92-.91,3.66,6.16,4c12.62.62,31.38-7.69,39.38-20.61,0,0,4.31-7.52-1.84-10.68s-18.46-3.78-18.46-3.78l49.73-55.39,53,.65Z" transform="translate(-112.13 -164.21)"/><path class="cls-21" d="M949.42,644.33c-1.49,2.8-6.48,3.06-11.16.58s-6.73-7.81-5.25-10.61,6,1.62,10.67,4.1S950.9,641.53,949.42,644.33Z" transform="translate(-112.13 -164.21)"/><path class="cls-46" d="M740.08,678.68l35,.42-.93,4.46,36-2.28-70.91,13.9a36.17,36.17,0,0,1-.37-10.7A44.69,44.69,0,0,1,740.08,678.68Z" transform="translate(-112.13 -164.21)"/><path class="cls-36" d="M647.67,764.31a29.51,29.51,0,0,0,11.45-5.66c9.69-7.84,11.34-15.5,11.34-15.5" transform="translate(-112.13 -164.21)"/><path class="cls-36" d="M653.65,768.12s5.14-.75,12-5.81c10.81-8,13.79-17,13.79-17" transform="translate(-112.13 -164.21)"/></g></svg>