<svg xmlns="http://www.w3.org/2000/svg" xmlns:xlink="http://www.w3.org/1999/xlink" viewBox="0 0 1771.38 925.32"><defs><style>.cls-1{fill:#b6d4ff;}.cls-2{fill:#cce3ff;}.cls-3,.cls-6{fill:#ecf6ff;}.cls-4{fill:#dceeff;}.cls-15,.cls-18,.cls-24,.cls-30,.cls-5{fill:none;}.cls-5{stroke:#cce3ff;stroke-width:17px;}.cls-15,.cls-18,.cls-24,.cls-30,.cls-5,.cls-6{stroke-miterlimit:10;}.cls-6{stroke:#dceeff;stroke-width:20px;}.cls-24,.cls-6{stroke-linecap:round;}.cls-7{fill:#afb2bf;}.cls-8{fill:#0d0b6d;}.cls-9{fill:#cf3e83;}.cls-10{fill:#240040;}.cls-11{fill:#e576c6;}.cls-12{fill:#2b2a38;}.cls-13{fill:#6ca1ff;}.cls-14{fill:#405fd3;}.cls-15{stroke:#1c295e;stroke-width:3px;}.cls-16{fill:#e2dad5;}.cls-17{fill:#f2ede7;}.cls-18{stroke:#405fd3;stroke-width:5px;}.cls-19{fill:#bc3579;}.cls-20{fill:#0f0f16;}.cls-21{fill:url(#linear-gradient);}.cls-22{opacity:0.57;fill:url(#linear-gradient-2);}.cls-23{fill:#ffc000;}.cls-24,.cls-30{stroke:#51595e;}.cls-24{stroke-width:18px;}.cls-25{fill:#db8b21;}.cls-26{fill:url(#linear-gradient-3);}.cls-27{fill:#6d757a;}.cls-28{fill:#798184;}.cls-29{fill:#51595e;}.cls-30{stroke-width:8px;}.cls-31{fill:url(#linear-gradient-4);}.cls-32{fill:url(#linear-gradient-5);}</style><linearGradient id="linear-gradient" x1="1070.62" y1="1021.3" x2="1292.92" y2="1021.3" gradientUnits="userSpaceOnUse"><stop offset="0" stop-color="#9aa2a8"/><stop offset="1" stop-color="#61686d"/></linearGradient><linearGradient id="linear-gradient-2" x1="1028.85" y1="811.84" x2="1178.52" y2="811.84" gradientUnits="userSpaceOnUse"><stop offset="0" stop-color="#51595e" stop-opacity="0.2"/><stop offset="1" stop-color="#51595e"/></linearGradient><linearGradient id="linear-gradient-3" x1="1303.9" y1="979.31" x2="1320.25" y2="1174.23" gradientTransform="translate(-182.22 289.55) rotate(-11.44)" gradientUnits="userSpaceOnUse"><stop offset="0" stop-color="#919ba3"/><stop offset="1" stop-color="#788287"/></linearGradient><linearGradient id="linear-gradient-4" x1="949.77" y1="615.25" x2="1195.16" y2="615.25" xlink:href="#linear-gradient"/><linearGradient id="linear-gradient-5" x1="961.84" y1="633.29" x2="1183.86" y2="633.29" gradientUnits="userSpaceOnUse"><stop offset="0" stop-color="#70777c" stop-opacity="0.5"/><stop offset="1" stop-color="#4f555b" stop-opacity="0.77"/></linearGradient></defs><title>back and obj 22</title><g id="Back"><polygon class="cls-1" points="804.03 134.25 737.82 378.54 672.15 378.54 738.36 134.25 804.03 134.25"/><polygon class="cls-2" points="793.93 134.25 727.72 378.54 662.06 378.54 728.27 134.25 793.93 134.25"/><rect class="cls-2" x="591.98" y="371.38" width="129.44" height="7.16"/><rect class="cls-1" x="686.01" y="371.38" width="45.51" height="7.16"/><path class="cls-1" d="M696.8,320.78h337.79a5.24,5.24,0,0,1,4.85,6.73L971.59,577.83a5.06,5.06,0,0,1-4.84,3.84H629a5.24,5.24,0,0,1-4.85-6.73L692,324.62A5.09,5.09,0,0,1,696.8,320.78Z" transform="translate(-108.92 -257.52)"/><path class="cls-3" d="M691.56,320.78h332.32a6.48,6.48,0,0,1,6,8.33L963.53,573.9a10.28,10.28,0,0,1-9.81,7.77H626.65c-6.77,0-11.66-6.79-9.81-13.61l64.92-239.51A10.27,10.27,0,0,1,691.56,320.78Z" transform="translate(-108.92 -257.52)"/><polygon class="cls-2" points="906.82 74.98 844.3 305.66 523.09 305.66 585.62 74.98 906.82 74.98"/><rect class="cls-4" x="809.68" y="493.31" width="96.34" height="283.03"/><rect class="cls-1" x="906.03" y="493.31" width="227.5" height="283.03"/><rect class="cls-1" x="822.26" y="506.16" width="71.19" height="19.66" rx="9.83"/><rect class="cls-1" x="822.26" y="534.18" width="71.19" height="19.66" rx="9.83"/><rect class="cls-1" x="822.26" y="563.56" width="71.19" height="126.73" rx="11.12"/><rect class="cls-3" x="362.57" y="378.54" width="576.57" height="78.87"/><rect class="cls-2" x="939.14" y="378.54" width="252.39" height="78.87"/><rect class="cls-2" x="657.65" y="390.51" width="268.7" height="54.94"/><rect class="cls-2" x="376.17" y="390.51" width="268.7" height="54.94"/><path class="cls-1" d="M463.11,390.51h94.83a0,0,0,0,1,0,0v0a13.1,13.1,0,0,1-13.1,13.1H476.21a13.1,13.1,0,0,1-13.1-13.1v0A0,0,0,0,1,463.11,390.51Z"/><path class="cls-1" d="M744.59,390.51h94.83a0,0,0,0,1,0,0v0a13.1,13.1,0,0,1-13.1,13.1H757.69a13.1,13.1,0,0,1-13.1-13.1v0A0,0,0,0,1,744.59,390.51Z"/><rect class="cls-3" x="362.57" y="457.41" width="12.65" height="325.08"/><rect class="cls-2" x="375.22" y="457.41" width="12.65" height="325.08"/><rect class="cls-4" x="602.31" y="457.41" width="12.65" height="325.08"/><rect class="cls-2" x="614.95" y="457.41" width="12.65" height="325.08"/><rect class="cls-3" x="926.49" y="457.41" width="12.65" height="325.08"/><rect class="cls-2" x="939.14" y="457.41" width="12.65" height="325.08"/><rect class="cls-3" x="1166.23" y="457.41" width="12.65" height="325.08"/><rect class="cls-2" x="1178.88" y="457.41" width="12.65" height="325.08"/><path class="cls-4" d="M1007.13,361.14h48.41a17.41,17.41,0,0,1,17.41,17.41v0a0,0,0,0,1,0,0H989.72a0,0,0,0,1,0,0v0A17.41,17.41,0,0,1,1007.13,361.14Z"/><line class="cls-5" x1="1047.38" y1="367.66" x2="1140.94" y2="274.54"/><line class="cls-5" x1="1052.28" y1="170.22" x2="1140.94" y2="274.54"/><line class="cls-5" x1="1052.28" y1="170.22" x2="1003.8" y2="170.22"/><path class="cls-4" d="M1068.18,467.55a44.54,44.54,0,1,1,89.07,0" transform="translate(-108.92 -257.52)"/><circle class="cls-1" cx="857.85" cy="715.1" r="9.38"/><circle class="cls-1" cx="610.06" cy="97.53" r="9.72"/><circle class="cls-1" cx="583.54" cy="188.1" r="9.72"/><circle class="cls-1" cx="825.66" cy="284.65" r="9.72"/><circle class="cls-1" cx="601.22" cy="127.72" r="9.72"/><circle class="cls-1" cx="646.91" cy="97.53" r="9.72"/><circle class="cls-1" cx="638.07" cy="127.72" r="9.72"/><circle class="cls-1" cx="592.38" cy="157.91" r="9.72"/><rect class="cls-2" x="594.52" y="845.96" width="12.65" height="233.42" transform="translate(-470.74 1305.99) rotate(-90)"/><rect class="cls-2" x="1123.38" y="887.93" width="12.65" height="149.48" transform="translate(58.11 1834.85) rotate(-90)"/><path class="cls-2" d="M1513.92,595.3c4,34.67-9,64.3-9,64.3s-19.45-26.59-23.44-61.27,9-64.3,9-64.3S1509.92,560.62,1513.92,595.3Z" transform="translate(-108.92 -257.52)"/><path class="cls-2" d="M1505.49,623.12c17.36,31.15,16.86,63,16.86,63s-28.63-18.65-46-49.8-16.85-63-16.85-63S1488.14,592,1505.49,623.12Z" transform="translate(-108.92 -257.52)"/><path class="cls-2" d="M1529.92,599c-4.43,34.63-24.23,61-24.23,61s-12.59-29.77-8.15-64.4,24.23-61,24.23-61S1534.36,564.38,1529.92,599Z" transform="translate(-108.92 -257.52)"/><path class="cls-2" d="M1544.37,624.05c-14.29,32.39-41,53.21-41,53.21s-3.56-31.69,10.73-64.09,41-53.21,41-53.21S1558.66,591.66,1544.37,624.05Z" transform="translate(-108.92 -257.52)"/><rect class="cls-1" x="1104.36" y="742.25" width="440.18" height="34.09"/><rect class="cls-3" x="1095.52" y="440.55" width="277.68" height="301.7"/><rect class="cls-3" x="1104.36" y="474.64" width="22.85" height="301.7"/><rect class="cls-3" x="1341.51" y="474.64" width="22.85" height="301.7"/><rect class="cls-1" x="1373.2" y="440.55" width="184.39" height="301.7"/><rect class="cls-2" x="1104.36" y="742.25" width="22.85" height="11.6"/><rect class="cls-2" x="1341.51" y="742.25" width="22.85" height="11.6"/><rect class="cls-2" x="1109.74" y="457.41" width="249.24" height="54.94"/><rect class="cls-2" x="1109.74" y="527.4" width="249.24" height="54.94"/><rect class="cls-2" x="1109.74" y="597.38" width="249.24" height="54.94"/><rect class="cls-2" x="1109.74" y="667.37" width="249.24" height="54.94"/><path class="cls-1" d="M1186.95,457.41h94.83a0,0,0,0,1,0,0v0a13.1,13.1,0,0,1-13.1,13.1H1200a13.1,13.1,0,0,1-13.1-13.1v0a0,0,0,0,1,0,0Z"/><path class="cls-1" d="M1186.95,527.4h94.83a0,0,0,0,1,0,0v0a13.1,13.1,0,0,1-13.1,13.1H1200a13.1,13.1,0,0,1-13.1-13.1v0A0,0,0,0,1,1186.95,527.4Z"/><path class="cls-1" d="M1186.95,597.38h94.83a0,0,0,0,1,0,0v0a13.1,13.1,0,0,1-13.1,13.1H1200a13.1,13.1,0,0,1-13.1-13.1v0A0,0,0,0,1,1186.95,597.38Z"/><path class="cls-1" d="M1186.95,667.37h94.83a0,0,0,0,1,0,0v0a13.1,13.1,0,0,1-13.1,13.1H1200a13.1,13.1,0,0,1-13.1-13.1v0A0,0,0,0,1,1186.95,667.37Z"/><polygon class="cls-3" points="1358.03 375.93 1440.06 375.93 1431.4 440.55 1366.69 440.55 1358.03 375.93"/><polygon class="cls-2" points="1318.41 440.68 1260.78 440.68 1266.87 395.27 1312.33 395.27 1318.41 440.68"/><path class="cls-4" d="M571.62,793v1.66c0,13.85-10.75,25.07-24,25.07H359.72c-29,0-51.29-27.81-47.29-59l21.22-173.62c1.84-14.38,13.16-25.08,26.53-25.08h55.69c13.37,0,24.69,10.7,26.54,25.08l21.21,173.62c.16,1.24.28,2.48.35,3.71l.11,0S468,793,504.48,793Z" transform="translate(-108.92 -257.52)"/><circle class="cls-1" cx="246.62" cy="757.8" r="16.03"/><rect class="cls-2" x="239.48" y="738.94" width="180.53" height="22.07" rx="11.04"/><rect class="cls-2" x="321.61" y="561.56" width="16.26" height="194.21"/><polygon class="cls-2" points="385.46 561.56 329.74 586.93 274.02 561.56 385.46 561.56"/><rect class="cls-1" x="299.38" y="738.94" width="42.63" height="22.07" rx="11.04"/><circle class="cls-1" cx="301.45" cy="757.8" r="16.03"/><circle class="cls-1" cx="413.92" cy="757.8" r="16.03"/><line class="cls-6" x1="1761.38" y1="783.53" x2="10" y2="783.53"/></g><g id="Man"><ellipse class="cls-7" cx="917.13" cy="921.7" rx="409.15" ry="3.62"/><path class="cls-8" d="M902.53,1127.77l-2.9,21.48s53.34,12.09,73.37,30H873.87l3.48-61.53Z" transform="translate(-108.92 -257.52)"/><polygon class="cls-9" points="767.85 864.84 766.7 890.84 790.71 891.73 793.16 873.89 767.85 864.84"/><path class="cls-8" d="M757,1109.23l-6.48,22.18s-24-25.56-40.19-32.23L748,1178l25,1.27,8.31-57.37Z" transform="translate(-108.92 -257.52)"/><polygon class="cls-9" points="671.13 873.17 668.35 892.33 641.62 873.89 645.09 861.99 671.13 873.17"/><circle class="cls-10" cx="757.77" cy="131.46" r="77.2"/><path class="cls-11" d="M921.18,558.93s4.62,54.94,17.94,72.3c20.29,20.24,62.26,58.6,62.26,58.6l14.79-17.73-51.41-60.75-13.69-62.74Z" transform="translate(-108.92 -257.52)"/><path class="cls-12" d="M911.87,1128.82l-43.71-.2-8.73-368.41L789.2,1118.15l-41.64-15.4S771.1,780.08,784.69,718C793.5,677.77,808,653.36,808,653.36l107.45-4.74a384.21,384.21,0,0,1,10.67,65.64C933.29,810.7,911.87,1128.82,911.87,1128.82Z" transform="translate(-108.92 -257.52)"/><circle class="cls-10" cx="708.07" cy="41.45" r="41.45"/><rect class="cls-10" x="680.58" y="136.86" width="154.39" height="107.54"/><path class="cls-13" d="M965.46,568.3l-41.85,24.45a39.38,39.38,0,0,0-2.3,4.93c-11.34,39-4.14,58-4.14,58l-109.73-1.45s14.67-21,11.25-42c-1.8-11.08-10.43-25.2-10.43-25.2l-54.85-11.24s21.75-79.94,43.71-89.51c22.47-9.81,28.61-19.79,61.5-19.69,31,.09,42.86,5.77,56.67,17.34C944.09,508.14,965.46,568.3,965.46,568.3Z" transform="translate(-108.92 -257.52)"/><path class="cls-11" d="M882.36,512c-.43,0-.88,0-1.33,0-19.46-1.25-31.59-11.36-36.06-30-2.48-10.39-4.79-14.05-4.81-14.09l-2-3.09h3.67s11.33,0,18.41,0c8.74,0,19.32.88,19.43.89l.55,0,.45.32c.3.22,7.33,5.35,12.85,16.66,4.34,8.87,4.77,17.25,1.19,23C892.16,509.75,887.77,512,882.36,512Z" transform="translate(-108.92 -257.52)"/><path class="cls-14" d="M841.83,466.73s11.33,0,18.42,0c8.75,0,19.27.88,19.27.88s6.85,4.92,12.22,15.9c7.11,14.55,2.5,26.46-9.38,26.46-.39,0-.79,0-1.2,0-13.67-.88-29-6.71-34.24-28.52-2.64-11-5.09-14.71-5.09-14.71m-7.73-4,4.39,6.21c.19.33,2.27,4,4.54,13.45,4.62,19.37,17.72,30.29,37.87,31.58.49,0,1,0,1.46,0,6.13,0,11.12-2.59,14.06-7.29,4-6.33,3.56-15.42-1.09-24.92-5.74-11.76-13.17-17.18-13.48-17.4l-.9-.65-1.1-.09c-.44,0-10.78-.88-19.6-.89-7.08,0-18.4,0-18.4,0l-7.75,0Z" transform="translate(-108.92 -257.52)"/><path class="cls-11" d="M848.53,427.34c4.2,6.73,2.46,15.58.06,20.74-.81,1.78-6.1,16.67-6.87,17.34-3,2.62,33.52,18.59,33.52,18.59l2.47-30.07c10.59.63,23,.09,29.85-4.44,20.35-13.49,21.62-60.38,21.29-62.73l-17-19.1s-25.7-11.91-29.62-6.87c-7.17,9.23-24,50.55-36.1,45.82,0,0,1.54-12.86-9.19-12.86-8,0-10.17,6.41-10.17,10.12C826.75,416.38,842.9,418.29,848.53,427.34Z" transform="translate(-108.92 -257.52)"/><polygon class="cls-14" points="795.62 159.04 803.25 177.63 794.36 177.44 795.62 159.04"/><ellipse class="cls-8" cx="891.85" cy="419.09" rx="6.73" ry="4.54" transform="translate(321.79 1032.42) rotate(-87.27)"/><ellipse class="cls-8" cx="915.34" cy="418.53" rx="6.73" ry="4.54" transform="translate(344.72 1055.36) rotate(-87.27)"/><path class="cls-10" d="M906,367.45a45,45,0,0,0,2.43,14.64c.2.57.41,1.16.65,1.73a43.82,43.82,0,0,0,6,10.56,39.7,39.7,0,0,0,27.15,15.49c.56.06,1.11.1,1.67.13V394.38h0c0-.49,0-1,0-1.45A84.27,84.27,0,0,0,927,342a80,80,0,0,0-6.34-7.38A42.64,42.64,0,0,0,909,351.45,44.42,44.42,0,0,0,906,367.45Z" transform="translate(-108.92 -257.52)"/><path class="cls-10" d="M846.11,366.46c0,11.15,10.09,20.56,23.88,23.44,1.1.23,2.21.42,3.35.56a41.6,41.6,0,0,0,5.63.37c18.15,0,32.86-10.91,32.86-24.37a17.69,17.69,0,0,0-.4-3.8C909,351,895.38,342.07,879,342.07c-18,0-32.58,10.71-32.85,24C846.11,366.2,846.11,366.33,846.11,366.46Z" transform="translate(-108.92 -257.52)"/><path class="cls-15" d="M903.44,440.86s-5.8,1.86-11.59-4.6" transform="translate(-108.92 -257.52)"/><path class="cls-9" d="M877.71,453.94s-13.39.38-19.09-2.75L877,462.76Z" transform="translate(-108.92 -257.52)"/><path class="cls-10" d="M876.56,467.92a46.88,46.88,0,0,0,8.67,1.25c7.54.49,10.21,2.6,10.21,2.6l-9-14.14-9.19,1.83Z" transform="translate(-108.92 -257.52)"/><rect class="cls-12" x="866.25" y="1128.82" width="48.92" height="13.48" transform="translate(1672.5 2013.61) rotate(-180)"/><polygon class="cls-12" points="633.14 856.86 683.33 878.42 684.04 862.11 632.93 840.15 633.14 856.86"/><path class="cls-10" d="M789.5,435.48h31.58a30,30,0,0,1,30,30v55.18a0,0,0,0,1,0,0H789.5a0,0,0,0,1,0,0V435.48A0,0,0,0,1,789.5,435.48Z" transform="translate(1531.6 698.58) rotate(-180)"/><rect class="cls-16" x="764.51" y="304.89" width="54.06" height="66.55"/><polygon class="cls-16" points="807.98 383.4 763.95 356.43 808.86 302.23 852.88 329.2 807.98 383.4"/><polygon class="cls-17" points="817.69 374.33 766.18 360.21 789.68 296.8 841.19 310.92 817.69 374.33"/><path class="cls-11" d="M853.15,619.22l-.48-23.1-58.21,2.77,6.06-13.36-39.08-7.9s-14.13,31.7-4.9,45.67C768.85,641.94,853.15,619.22,853.15,619.22Z" transform="translate(-108.92 -257.52)"/><path class="cls-11" d="M1012.81,671l7.56,3.3a59.07,59.07,0,0,1,8.92,4.71c5.28,3.31,6.86,6.65,16.1,11.08,10.49,5,.77,7.29-4.61,5.74-4.2-1.22-7-5.16-10.9-4.81.25,2-.13,5.57,8.26,18.25,1.5,2.27,8,8.37,8,8.37,1.68,2,5.38,6.12,3.58,8.64-.45.63-1.71.59-1.71.59s2.38,2.5.43,4.95c-.77,1-7.28-3.35-7.28-3.35s2.08,3.17.57,4.93c-.43.49-19.84-11.54-19.84-11.54l3.4,3.51,3.9,3.25s1.62,2.14.25,3.85c-.55.68-4.62-1.79-9.1-4.93a48.54,48.54,0,0,1-14.08-14.93c-4-6.3-5.82-8-8.94-17.12a74.79,74.79,0,0,1-2.83-12.86" transform="translate(-108.92 -257.52)"/><path class="cls-11" d="M849.78,597.73l6.42-3.58a50.27,50.27,0,0,1,8.14-3.77c2.19-.81,9.09-1.58,9.09-1.58v8.53s3.84,2.66,17.44,3.77c2.44.2,10.28-1,10.28-1,2.36-.05,7.28-.42,8.14,2.31.21.67-.49,1.56-.49,1.56s3.07-.3,3.8,2.49c.28,1.1-6.29,3.36-6.29,3.36s3.39.29,3.85,2.37c.13.59-18.89,7.78-18.89,7.78l4.34-.47,4.43-1s2.4,0,2.9,2c.2.78-3.74,2.32-8.4,3.77A42.18,42.18,0,0,1,876.27,626c-6.65-.69-8.86-.32-17.1-3.22a68.71,68.71,0,0,1-10.78-5.24" transform="translate(-108.92 -257.52)"/><line class="cls-18" x1="705.62" y1="331.56" x2="711.34" y2="293.09"/><polygon class="cls-19" points="649.3 328.54 691.6 328.01 652.52 320.11 649.3 328.54"/><polygon class="cls-20" points="750.51 502.68 759.11 451.43 752.85 601.15 750.51 502.68"/><polygon class="cls-17" points="1060.07 587.87 1108.37 638.57 1170.92 581.47 1126.34 539.62 1060.07 587.87"/><polygon class="cls-13" points="1162.59 581.53 1110.25 629.31 1105.05 623.86 1074.13 591.39 1069.84 586.89 1125.28 546.52 1162.59 581.53"/><path class="cls-14" d="M1218.55,878a29.89,29.89,0,0,1-4.58,3.41l-30.92-32.47a29.57,29.57,0,0,1,4.56-5.19c10.85-9.8,26.56-10.07,35.11-.61S1229.39,868.18,1218.55,878Z" transform="translate(-108.92 -257.52)"/><ellipse class="cls-14" cx="1230.89" cy="836.42" rx="13.29" ry="10.65" transform="translate(-359.04 724.87) rotate(-39.83)"/><path class="cls-21" d="M1292.88,880.67l-20.61,298.55h-181l-20.61-298.55a16.17,16.17,0,0,1,16.13-17.29h190A16.17,16.17,0,0,1,1292.88,880.67Z" transform="translate(-108.92 -257.52)"/><polygon class="cls-22" points="1147.26 726.75 1028.85 921.29 1163.35 921.7 1178.52 701.99 1147.26 726.75"/><polygon class="cls-17" points="1075.31 533.53 1019.41 569.94 975.32 505.99 1025.77 476.86 1075.31 533.53"/><polygon class="cls-23" points="1066.11 530.68 1020.5 560.4 984.52 508.21 1025.68 484.44 1066.11 530.68"/><line class="cls-24" x1="1072.85" y1="657.56" x2="1072.85" y2="890.17"/><line class="cls-24" x1="1140.05" y1="657.56" x2="1123.05" y2="890.17"/><line class="cls-24" x1="1005.64" y1="657.56" x2="1022.64" y2="890.17"/><polygon class="cls-25" points="986.6 507.01 1024.13 511.09 1018.7 534.27 1032.75 535.5 1028.26 555.34 1020.5 560.4 984.52 508.21 986.6 507.01"/><ellipse class="cls-25" cx="1039.36" cy="519.82" rx="6.62" ry="5.96"/><path class="cls-26" d="M1383,1054.79c9.86,48.72-2.08,94.12-27.26,114.12l1.09,5.39-22,4.45c-38.68,7.65-79.9-35.07-92.14-95.56s9.12-115.9,47.73-123.88l22-4.45,1.09,5.39C1344.45,968.89,1373.1,1006.08,1383,1054.79Z" transform="translate(-108.92 -257.52)"/><ellipse class="cls-27" cx="1334.58" cy="1064.58" rx="71.56" ry="111.94" transform="translate(-293.58 28.37) rotate(-11.44)"/><ellipse class="cls-28" cx="1337.28" cy="1064.03" rx="45.49" ry="82.44" transform="translate(-293.42 28.9) rotate(-11.44)"/><rect class="cls-29" x="1351.05" y="1015.42" width="16" height="88.41" transform="translate(-292.11 33.13) rotate(-11.44)"/><rect class="cls-29" x="1318.94" y="1006.42" width="16" height="14.46" transform="translate(-283.63 25.85) rotate(-11.44)"/><rect class="cls-29" x="1339.14" y="1107.29" width="16" height="14.46" transform="translate(-303.23 31.86) rotate(-11.44)"/><line class="cls-30" x1="1249.21" y1="757.19" x2="1211.61" y2="764.8"/><line class="cls-30" x1="1266.54" y1="843.89" x2="1228.95" y2="851.5"/><rect class="cls-31" x="949.77" y="605.86" width="245.38" height="18.77" rx="9.39"/><polygon class="cls-32" points="1183.27 633.09 963.04 641.95 961.84 624.63 1183.86 624.63 1183.27 633.09"/></g></svg>