<svg xmlns="http://www.w3.org/2000/svg" xmlns:xlink="http://www.w3.org/1999/xlink" viewBox="0 0 1771.38 1003.08"><defs><style>.cls-1,.cls-10,.cls-11,.cls-13,.cls-14,.cls-15,.cls-24,.cls-3,.cls-8,.cls-9{fill:none;}.cls-2,.cls-6{fill:#ecf6ff;}.cls-10,.cls-11,.cls-14,.cls-2,.cls-8,.cls-9{stroke:#dceeff;}.cls-2{stroke-linecap:round;stroke-width:20px;}.cls-10,.cls-11,.cls-12,.cls-13,.cls-15,.cls-2,.cls-24,.cls-3,.cls-8,.cls-9{stroke-miterlimit:10;}.cls-3{stroke:#f0f7fc;stroke-width:47px;}.cls-12,.cls-4{fill:#dceeff;}.cls-5{fill:#cce3ff;}.cls-7{fill:#b6d4ff;}.cls-14,.cls-8{stroke-width:12px;}.cls-9{stroke-width:8px;}.cls-10{stroke-width:21px;}.cls-11{stroke-width:2px;}.cls-12,.cls-15{stroke:#cce3ff;}.cls-12{stroke-width:16px;}.cls-13{stroke:#b6d4ff;stroke-width:11px;}.cls-14{stroke-linejoin:bevel;}.cls-15{stroke-width:13px;}.cls-16{fill:#afb3c6;}.cls-17{fill:#e576c6;}.cls-18{fill:#405fd3;}.cls-19{fill:#81818c;}.cls-20{fill:#b6b7bf;}.cls-21{fill:#6ca1ff;}.cls-22{fill:#ffc000;}.cls-23{fill:#db8b21;}.cls-24{stroke:#0d0b6d;stroke-width:9px;}.cls-25{fill:#0d0b6d;}.cls-26,.cls-31{fill:#fff;}.cls-27{fill:#cf3e83;}.cls-28{fill:#2f2f3d;}.cls-29{clip-path:url(#clip-path);}.cls-30{fill:#4893ff;}.cls-31{font-size:66.07px;font-family:Montserrat-ExtraBold, Montserrat;font-weight:800;}.cls-32{letter-spacing:-0.01em;}.cls-33{letter-spacing:-0.01em;}.cls-34{fill:#1d1960;opacity:0.38;}</style><clipPath id="clip-path" transform="translate(-121.63 -209.53)"><path class="cls-1" d="M1163.82,587.38l26,63.94c51.15,129.14-38.14,236.34-42.52,241.49-6.73-.63-146.57-14.72-198.92-143.39l-26-63.94,104.45-89.09Z"/></clipPath></defs><title>back and obj 14</title><g id="Back"><line class="cls-2" x1="1761.38" y1="821.32" x2="10" y2="821.32"/><line class="cls-3" x1="22.63" y1="661.35" x2="1747.33" y2="661.35"/><rect class="cls-4" x="1597.07" y="114.34" width="83.46" height="373.36"/><rect class="cls-5" x="1351.73" y="110.14" width="30.37" height="393.36"/><rect class="cls-5" x="1335.63" y="503.5" width="258.54" height="14.79"/><rect class="cls-5" x="1347.48" y="518.29" width="234.83" height="10.8"/><rect class="cls-5" x="1337" y="87.78" width="257.8" height="22.36"/><rect class="cls-5" x="1327.99" y="73.06" width="275.82" height="14.71"/><rect class="cls-5" x="1321.07" y="57.17" width="289.65" height="15.89"/><rect class="cls-6" x="1366.73" y="110.14" width="30.37" height="393.36"/><rect class="cls-6" x="1570.69" y="110.14" width="30.37" height="393.36"/><rect class="cls-7" x="1401.1" y="114.14" width="165.59" height="385.36"/><path class="cls-4" d="M1684.33,327.67V705h-157.6V327.67h157.6m8-8h-173.6V713h173.6V319.67Z" transform="translate(-121.63 -209.53)"/><line class="cls-8" x1="1401.67" y1="297.07" x2="1566.12" y2="297.07"/><line class="cls-9" x1="1401.67" y1="388.43" x2="1566.12" y2="388.43"/><line class="cls-9" x1="1401.67" y1="209.16" x2="1566.12" y2="209.16"/><line class="cls-9" x1="1458.71" y1="114.34" x2="1458.71" y2="498.07"/><line class="cls-9" x1="1509.08" y1="498.07" x2="1509.08" y2="114.34"/><line class="cls-10" x1="1400.43" y1="485.23" x2="1567.36" y2="485.23"/><rect class="cls-4" x="1276.27" y="114.34" width="83.46" height="373.36"/><rect class="cls-5" x="1269.72" y="114.34" width="6.54" height="373.36"/><rect class="cls-6" x="1354.63" y="503.5" width="258.54" height="14.79"/><rect class="cls-4" x="1366.48" y="518.29" width="234.83" height="10.8"/><rect class="cls-6" x="1355" y="87.78" width="257.8" height="22.36"/><rect class="cls-4" x="1345.99" y="73.06" width="275.82" height="14.71"/><rect class="cls-6" x="1339.07" y="57.17" width="289.65" height="15.89"/><rect class="cls-4" x="1061.26" y="114.34" width="83.46" height="373.36"/><rect class="cls-5" x="815.93" y="110.14" width="30.37" height="393.36"/><rect class="cls-5" x="799.83" y="503.5" width="258.54" height="14.79"/><rect class="cls-5" x="811.68" y="518.29" width="234.83" height="10.8"/><rect class="cls-5" x="801.2" y="87.78" width="257.8" height="22.36"/><rect class="cls-5" x="792.19" y="73.06" width="275.82" height="14.71"/><rect class="cls-5" x="785.27" y="57.17" width="289.65" height="15.89"/><rect class="cls-6" x="830.93" y="110.14" width="30.37" height="393.36"/><rect class="cls-6" x="1034.89" y="110.14" width="30.37" height="393.36"/><rect class="cls-7" x="865.3" y="114.14" width="165.59" height="385.36"/><path class="cls-4" d="M1148.53,327.67V705H990.93V327.67h157.6m8-8H982.93V713h173.6V319.67Z" transform="translate(-121.63 -209.53)"/><line class="cls-8" x1="865.87" y1="297.07" x2="1030.32" y2="297.07"/><line class="cls-9" x1="865.87" y1="388.43" x2="1030.32" y2="388.43"/><line class="cls-9" x1="865.87" y1="209.16" x2="1030.32" y2="209.16"/><line class="cls-9" x1="922.91" y1="114.34" x2="922.91" y2="498.07"/><line class="cls-9" x1="973.28" y1="498.07" x2="973.28" y2="114.34"/><line class="cls-10" x1="864.63" y1="485.23" x2="1031.56" y2="485.23"/><rect class="cls-4" x="740.47" y="114.34" width="83.46" height="373.36"/><rect class="cls-5" x="733.92" y="114.34" width="6.54" height="373.36"/><rect class="cls-6" x="818.83" y="503.5" width="258.54" height="14.79"/><rect class="cls-4" x="830.68" y="518.29" width="234.83" height="10.8"/><rect class="cls-6" x="819.2" y="87.78" width="257.8" height="22.36"/><rect class="cls-4" x="810.19" y="73.06" width="275.82" height="14.71"/><rect class="cls-6" x="803.27" y="57.17" width="289.65" height="15.89"/><line class="cls-11" x1="1247.14" y1="644.02" x2="1247.14" y2="809.19"/><line class="cls-11" x1="1164.56" y1="726.61" x2="1329.73" y2="726.61"/><line class="cls-11" x1="1188.74" y1="668.21" x2="1305.54" y2="785.01"/><line class="cls-11" x1="1188.74" y1="785.01" x2="1305.54" y2="668.21"/><line class="cls-11" x1="971.82" y1="645.36" x2="1001.53" y2="807.85"/><line class="cls-11" x1="905.43" y1="741.46" x2="1067.92" y2="711.75"/><line class="cls-11" x1="918.72" y1="679.67" x2="1054.63" y2="773.55"/><line class="cls-11" x1="939.73" y1="794.56" x2="1033.62" y2="658.65"/><circle class="cls-12" cx="986.86" cy="726.61" r="30.03"/><circle class="cls-12" cx="1247.14" cy="726.61" r="14.51"/><circle class="cls-13" cx="986.86" cy="726.61" r="82.59"/><circle class="cls-13" cx="1247.14" cy="726.61" r="82.59"/><polyline class="cls-14" points="1052.25 589.9 1092.45 726.61 1219.56 616.32 1059.13 614.61 986.86 726.61 1092.45 726.61"/><polyline class="cls-8" points="1154.54 566.43 1204.6 566.43 1247.14 727.62"/><path class="cls-5" d="M1200.89,807.65,1153,812.76c-5.17.55-9.71-3-9.71-7.66V800c0-4.26,3.88-7.72,8.68-7.72h47.89c4.8,0,8.68,3.46,8.68,7.72h0C1208.54,803.89,1205.26,807.18,1200.89,807.65Z" transform="translate(-121.63 -209.53)"/><polyline class="cls-15" points="1094.56 726.61 1094.56 763.05 1079.58 763.05 1109.55 763.05"/><rect class="cls-5" x="1150.95" y="558.77" width="33.16" height="15.17"/><rect class="cls-5" x="153.73" y="340.92" width="29.07" height="69.54"/><rect class="cls-5" x="213.94" y="43.53" width="374.51" height="637.94"/><rect class="cls-5" x="182.23" width="436.05" height="19.51"/><rect class="cls-5" x="195.92" y="19.51" width="408.66" height="24.02"/><rect class="cls-5" x="213.94" y="681.47" width="80.92" height="43.28"/><rect class="cls-5" x="213.94" y="724.75" width="111.84" height="43.28"/><rect class="cls-5" x="213.94" y="768.03" width="142.76" height="43.28"/><rect class="cls-6" x="229.38" y="43.53" width="374.51" height="637.94"/><rect class="cls-5" x="316.06" y="207.14" width="201.14" height="457.82"/><rect class="cls-4" x="248.81" y="146.35" width="48.78" height="457.07"/><rect class="cls-4" x="541.59" y="638.19" width="85.72" height="43.28"/><rect class="cls-4" x="535.67" y="146.35" width="48.78" height="457.07"/><path class="cls-4" d="M518.26,453.85V569.94H473.47V453.85h44.79m8-8H465.47V577.94h60.79V445.85Z" transform="translate(-121.63 -209.53)"/><path class="cls-4" d="M518.26,613v29.78H473.47V613h44.79m8-8H465.47v45.78h60.79V605Z" transform="translate(-121.63 -209.53)"/><path class="cls-4" d="M518.26,706.12V819.21H473.47V706.12h44.79m8-8H465.47V827.21h60.79V698.12Z" transform="translate(-121.63 -209.53)"/><path class="cls-4" d="M603.07,453.85V569.94h-44.8V453.85h44.8m8-8h-60.8V577.94h60.8V445.85Z" transform="translate(-121.63 -209.53)"/><path class="cls-4" d="M603.07,613v29.78h-44.8V613h44.8m8-8h-60.8v45.78h60.8V605Z" transform="translate(-121.63 -209.53)"/><path class="cls-4" d="M603.07,706.12V819.21h-44.8V706.12h44.8m8-8h-60.8V827.21h60.8V698.12Z" transform="translate(-121.63 -209.53)"/><rect class="cls-7" x="316.06" y="635.69" width="201.14" height="29.27"/><rect class="cls-4" x="379.11" y="456.89" width="75.05" height="13.69"/><rect class="cls-7" x="320.06" y="133.84" width="193.14" height="53.17"/><path class="cls-4" d="M630.84,347.37v45.16H445.7V347.37H630.84m8-8H437.7v61.16H638.84V339.37Z" transform="translate(-121.63 -209.53)"/><rect class="cls-5" x="229.38" y="105.57" width="374.51" height="10.82"/><rect class="cls-6" x="209.86" width="436.05" height="19.51"/><rect class="cls-4" x="223.56" y="19.51" width="408.66" height="24.02"/><rect class="cls-6" x="241.57" y="43.53" width="374.51" height="62.04"/><rect class="cls-4" x="241.57" y="638.19" width="85.72" height="43.28"/><rect class="cls-4" x="272.49" y="681.47" width="385.74" height="43.28"/><rect class="cls-6" x="303.41" y="724.75" width="385.74" height="43.28"/><rect class="cls-4" x="334.33" y="768.03" width="385.74" height="43.28"/><rect class="cls-5" x="213.94" y="43.53" width="40.46" height="62.04"/><rect class="cls-5" x="213.94" y="638.19" width="40.46" height="43.28"/><line class="cls-9" x1="416.63" y1="133.26" x2="416.63" y2="187.01"/><line class="cls-9" x1="368.22" y1="134.21" x2="368.22" y2="185.74"/><line class="cls-9" x1="464.94" y1="134.21" x2="464.94" y2="185.74"/><circle class="cls-4" cx="346.74" cy="464.16" r="11.1"/><rect class="cls-6" x="160.05" y="340.92" width="29.07" height="69.54"/><circle class="cls-4" cx="174.58" cy="364.32" r="8.77"/></g><g id="Man"><ellipse class="cls-16" cx="917.99" cy="999.46" rx="260.89" ry="3.62"/><path class="cls-17" d="M839.84,787.07l81-52.87c15.1-6.05,20.08-14,23.39-27.56L960.11,605l-63.83.07-5,94.79-60.31,56" transform="translate(-121.63 -209.53)"/><path class="cls-17" d="M1127.14,788.18,1164.45,700c9.12-13.29,8.75-22.6,3.81-35.68l-44.45-93.14-53,35,49.6,81.46-18.37,79.49" transform="translate(-121.63 -209.53)"/><polygon class="cls-18" points="736.9 584.14 716.64 598.31 666.15 516.16 686.41 501.99 736.9 584.14"/><polyline class="cls-19" points="733.22 601.71 754.29 586.98 907.44 836.17 921.28 907.71"/><polyline class="cls-20" points="921.28 907.71 865.3 865.64 712.15 616.45 733.22 601.71"/><polygon class="cls-21" points="703.93 517.03 672.09 539.29 660.36 520.21 692.2 497.94 703.93 517.03"/><polygon class="cls-21" points="778.9 569.77 687.54 633.65 681.1 623.16 772.45 559.29 778.9 569.77"/><ellipse class="cls-17" cx="818.26" cy="775.94" rx="15.42" ry="26.39" transform="translate(-415.81 381.72) rotate(-34.05)"/><path class="cls-17" d="M835,752.09c-1.91,8.19-13.85,9-13.85,9l2.16-21,26.13,3.59-2,17.44Z" transform="translate(-121.63 -209.53)"/><path class="cls-22" d="M944.24,706.87l-4.55-66.57-52-21.54s11.82-56.17,28.1-73.44c14-14.85,36.6-33.44,85.84-35,73.21-2.26,89.18,7.91,109.91,29.63,17.91,18.77,38.07,71.23,38.07,71.23l-81.05,27.9,7.75,63Z" transform="translate(-121.63 -209.53)"/><polygon class="cls-23" points="808.6 426.85 818.06 430.77 811.95 362.26 808.6 426.85"/><polyline class="cls-24" points="838.64 152.41 842.44 173.59 834.51 177.39 819.85 162.46"/><path class="cls-25" d="M1073.82,381.21s32.2,36-6.87,49.18Z" transform="translate(-121.63 -209.53)"/><path class="cls-17" d="M976.54,438.54c-3.56-8.37-30.87-17.15-35.79,2.59-6.34,25.47,41.93,35,41.93,35l1,35.67-15,2.77s-14.44,40.72,29.87,38.88c35.8-1.5,48.32-42.44,48.32-42.44l-19.5-.94-1.88-26.94s42.23.12,50.66-5.09c0,0,3.59-41.47-4.93-70l-36.81-28.55-55.34,8.27Z" transform="translate(-121.63 -209.53)"/><path class="cls-25" d="M954,429.34s-27.84-9,1.2-43.89,58.35-20.13,58.35-20.13,5.42-33.77,27.32-35.32c31.21-2.2,39.64,45.63,39.64,45.63s13.75-27.39,23-24.31,16,90.12-111.31,57c0,0,12.47,23.21-15.6,30.22C976.54,438.54,970.81,428.66,954,429.34Z" transform="translate(-121.63 -209.53)"/><path class="cls-26" d="M1053.87,463.75c-.34,4.22-6.32,7.18-13.37,6.61s-12.38-6-12-10.25,8.2-1.16,15.25-.6S1054.21,459.53,1053.87,463.75Z" transform="translate(-121.63 -209.53)"/><polygon class="cls-27" points="903.86 273.59 875.79 269.74 904.68 286.25 903.86 273.59"/><polygon class="cls-18" points="923.37 221.11 934.67 243.73 923.24 244.74 923.37 221.11"/><circle class="cls-25" cx="906.52" cy="225.69" r="5.8"/><circle class="cls-25" cx="936.54" cy="223.44" r="5.8"/><path class="cls-25" d="M948.77,1153.58l4.09,24.35s-51.87,8.6-69.46,29.45h99.53l-3.37-69.62Z" transform="translate(-121.63 -209.53)"/><path class="cls-25" d="M1092.66,1151.52l.27,27.36s-21.85,3-30.74,28.5h70.73l-7.07-30-2.77-27.35Z" transform="translate(-121.63 -209.53)"/><polygon class="cls-27" points="857.92 934.62 859.38 966.89 831.23 968.4 827.14 944.05 857.92 934.62"/><polygon class="cls-27" points="1004.68 932.56 1004.22 967.84 971.3 969.35 971.03 942 1004.68 932.56"/><polygon class="cls-28" points="822.6 497.12 808.6 727.24 816.53 956.33 870.57 957.15 881.39 727.23 911.57 494.22 822.6 497.12"/><polygon class="cls-28" points="889.11 495.38 957.3 958.11 1011.92 958.11 979.21 491.08 889.11 495.38"/><g class="cls-29"><path class="cls-18" d="M948.36,749.42c52.36,128.66,192.19,142.76,198.92,143.39L1026.83,596.39,922.38,685.48Z" transform="translate(-121.63 -209.53)"/><path class="cls-18" d="M1189.8,651.32c51.15,129.14-38.14,236.34-42.52,241.49L1026.83,596.39l137-9Z" transform="translate(-121.63 -209.53)"/><path class="cls-30" d="M969,741.7c45.21,108.55,160.87,121.58,166.48,122.15L1035.42,617.52l-86.08,75.72Z" transform="translate(-121.63 -209.53)"/><path class="cls-30" d="M1169.61,660.2c43.31,109.32-30.47,199.33-34.1,203.65L1035.42,617.52l114.5-5.78Z" transform="translate(-121.63 -209.53)"/><text class="cls-31" transform="translate(903.59 583.3) rotate(-22.11)"><tspan class="cls-32">V</tspan><tspan class="cls-33" x="49.62" y="0">P</tspan><tspan x="97.65" y="0">N</tspan></text><polygon class="cls-18" points="935.89 420.6 906.74 432.45 884.39 413.94 938.99 391.75 935.89 420.6"/><polygon class="cls-18" points="901.9 584.52 926.94 603.58 922.4 632.23 875.5 596.55 901.9 584.52"/><polygon class="cls-18" points="1042.18 563.21 1047.9 532.26 1075.53 523.41 1064.81 581.35 1042.18 563.21"/><polygon class="cls-26" points="1010.75 464.2 883.5 515.91 929.74 447.26 1010.75 464.2"/><polygon class="cls-26" points="857.89 479.65 882.71 469.57 864.67 496.35 857.89 479.65"/><polygon class="cls-26" points="1002.78 420.78 977.95 430.87 1009.57 437.48 1002.78 420.78"/><polygon class="cls-26" points="937.39 595.67 1027.78 558.94 1001.14 622.97 937.39 595.67"/><rect class="cls-34" x="1078.84" y="511.74" width="223.53" height="381.57" transform="translate(-298.52 290.35) rotate(-22.11)"/></g></g></svg>