<svg xmlns="http://www.w3.org/2000/svg" viewBox="0 0 1539.72 1036.16"><defs><style>.cls-1{fill:#cce3ff;}.cls-2{fill:#dceeff;}.cls-3{fill:#ecf6ff;}.cls-21,.cls-22,.cls-23,.cls-24,.cls-25,.cls-26,.cls-27,.cls-30,.cls-32,.cls-33,.cls-4,.cls-5,.cls-7,.cls-9{fill:none;stroke-miterlimit:10;}.cls-4{stroke:#cce3ff;stroke-width:11px;}.cls-5{stroke:#ecf6ff;}.cls-26,.cls-5{stroke-width:14px;}.cls-6{fill:#fff;}.cls-7,.cls-9{stroke:#dceeff;}.cls-7{stroke-width:7px;}.cls-8{fill:#b6d4ff;}.cls-30,.cls-32,.cls-9{stroke-linecap:round;}.cls-9{stroke-width:17px;}.cls-10{fill:#adb7cb;opacity:0.81;}.cls-11{fill:#6ca1ff;}.cls-12{fill:#405fd3;}.cls-13{fill:#e576c6;}.cls-14{fill:#db8b21;}.cls-15{fill:#14143f;}.cls-16{fill:#cf3e83;}.cls-17{fill:#2f2f3d;}.cls-18{fill:#18181c;}.cls-19{fill:#ffc000;}.cls-20{fill:#0d0b6d;}.cls-21{stroke:#c94791;}.cls-21,.cls-23,.cls-33{stroke-width:3px;}.cls-22{stroke:#0d0b6d;stroke-width:9px;}.cls-23{stroke:#182084;}.cls-24{stroke:#db8b21;stroke-width:6px;}.cls-25{stroke:#ededf4;stroke-width:13px;}.cls-26,.cls-33{stroke:#0042bd;}.cls-27{stroke:#5d5d6b;stroke-width:15px;}.cls-28{fill:#5d5d6b;}.cls-29{fill:#0042bd;}.cls-30{stroke:#dadde5;}.cls-30,.cls-32{stroke-width:10px;}.cls-31{fill:#dadde5;}.cls-32{stroke:#fff;}</style></defs><title>back and obj 29</title><g id="Back"><rect class="cls-1" x="143.66" y="324.08" width="769.18" height="529.35" rx="22.77"/><rect class="cls-2" x="1077.06" y="276.9" width="462.65" height="529.35" rx="22.77"/><path class="cls-1" d="M1099.83,276.9h417.11a22.77,22.77,0,0,1,22.77,22.77v24.41a0,0,0,0,1,0,0H1077.06a0,0,0,0,1,0,0V299.67A22.77,22.77,0,0,1,1099.83,276.9Z"/><rect class="cls-2" y="118.39" width="508" height="567.84" rx="22.77"/><path class="cls-1" d="M22.77,118.39H485.23A22.77,22.77,0,0,1,508,141.16V169a0,0,0,0,1,0,0H0a0,0,0,0,1,0,0V141.16A22.77,22.77,0,0,1,22.77,118.39Z"/><rect class="cls-3" x="242.46" width="1133.54" height="764.31" rx="22.77"/><path class="cls-1" d="M265.23,0h1088A22.77,22.77,0,0,1,1376,22.77V48.31a0,0,0,0,1,0,0H242.46a0,0,0,0,1,0,0V22.77A22.77,22.77,0,0,1,265.23,0Z"/><path class="cls-3" d="M408,15.08H608a22.77,22.77,0,0,1,22.77,22.77v12a0,0,0,0,1,0,0H385.23a0,0,0,0,1,0,0v-12A22.77,22.77,0,0,1,408,15.08Z"/><circle class="cls-2" cx="272.31" cy="25.74" r="12.82"/><circle class="cls-2" cx="310.36" cy="25.74" r="12.82"/><circle class="cls-2" cx="348.41" cy="25.74" r="12.82"/><line class="cls-4" x1="429.13" y1="33.69" x2="586.87" y2="33.69"/><rect class="cls-1" x="285.13" y="90.41" width="81.64" height="38.15" rx="12"/><rect class="cls-1" x="320.92" y="473.03" width="234.92" height="68.55" rx="34.28"/><circle class="cls-1" cx="949.01" cy="339.81" r="126.99"/><circle class="cls-1" cx="1179.71" cy="505.58" r="63.69"/><circle class="cls-1" cx="1272.02" cy="421.57" r="28.62"/><line class="cls-4" x1="400.41" y1="109.49" x2="632.2" y2="109.49"/><line class="cls-4" x1="321.68" y1="368.62" x2="697.46" y2="368.62"/><line class="cls-4" x1="321.68" y1="399.62" x2="552.76" y2="399.62"/><line class="cls-4" x1="321.68" y1="430.62" x2="644.09" y2="430.62"/><line class="cls-5" x1="374.37" y1="507.3" x2="502.39" y2="507.3"/><line class="cls-4" x1="575.05" y1="399.62" x2="724.64" y2="399.62"/><circle class="cls-1" cx="809.23" cy="713.68" r="7.01"/><circle class="cls-1" cx="770.47" cy="713.68" r="7.01"/><circle class="cls-1" cx="847.99" cy="713.68" r="7.01"/><path class="cls-1" d="M1143.16,811.54h215a23.49,23.49,0,0,0,23.36-21.08l48.57-472.11a23.49,23.49,0,0,0-23.36-25.89h-215a23.48,23.48,0,0,0-23.36,21.08L1119.8,785.65A23.48,23.48,0,0,0,1143.16,811.54Z" transform="translate(-197.9 -158.27)"/><path class="cls-2" d="M1403.11,318.34l-48.57,472.11a23.5,23.5,0,0,1-23.37,21.09h-215a23.49,23.49,0,0,1-23.37-25.89l48.58-472.11a23.48,23.48,0,0,1,23.36-21.08h215A23.49,23.49,0,0,1,1403.11,318.34Z" transform="translate(-197.9 -158.27)"/><path class="cls-6" d="M1126.7,792.16h195.77a16,16,0,0,0,15.87-14.32l46.29-449.95a16,16,0,0,0-15.87-17.6H1173a16,16,0,0,0-15.87,14.33l-46.3,450A16,16,0,0,0,1126.7,792.16Z" transform="translate(-197.9 -158.27)"/><polygon class="cls-7" points="1236.94 212.82 1233.82 243.13 1211.74 243.13 1214.86 212.82 1236.94 212.82"/><polygon class="cls-7" points="1232.39 264.13 1229.27 294.44 1207.19 294.44 1210.3 264.13 1232.39 264.13"/><path class="cls-2" d="M1338.1,295.08l-2.56,25a16.31,16.31,0,0,1-16.22,14.64H1226a16.31,16.31,0,0,1-16.22-18l2.23-21.66Z" transform="translate(-197.9 -158.27)"/><rect class="cls-8" x="1046.95" y="153.65" width="48" height="6.29" rx="3.01"/><circle class="cls-8" cx="1106.57" cy="156.79" r="5.24"/><path class="cls-3" d="M1361.52,379l-14.13,137.33a12.35,12.35,0,0,1-12.27,11.08H1169.3a12.34,12.34,0,0,1-12.27-13.6l14.13-137.29a12.34,12.34,0,0,1,12.27-11.07l165.82-.05A12.33,12.33,0,0,1,1361.52,379Z" transform="translate(-197.9 -158.27)"/><path class="cls-3" d="M1337,612.06,1322.84,749.4a12.34,12.34,0,0,1-12.28,11.07H1144.75a12.34,12.34,0,0,1-12.28-13.6l14.13-137.28a12.35,12.35,0,0,1,12.27-11.08l165.82,0A12.35,12.35,0,0,1,1337,612.06Z" transform="translate(-197.9 -158.27)"/><path class="cls-2" d="M1231.55,551.94l-1.34,13a6.18,6.18,0,0,1-6.14,5.54h-17.4a6.17,6.17,0,0,1-6.14-6.81l1.34-13a6.16,6.16,0,0,1,6.14-5.54h17.39A6.19,6.19,0,0,1,1231.55,551.94Z" transform="translate(-197.9 -158.27)"/><path class="cls-2" d="M1216.46,560.59l-.15.14v5.52c0,4.87,2.17,8.12,6.44,8.82.71.11,3.16.18,5.21.21.53,0,.56-.71,0-.86-4.13-1.2-5.26-4.95-5.26-8.17v-5.52l-.15-.14Z" transform="translate(-197.9 -158.27)"/><polyline class="cls-9" points="966.7 394.22 972.44 403.24 981.52 394.22"/><circle class="cls-3" cx="976.94" cy="165.16" r="6.29"/><circle class="cls-3" cx="994.27" cy="165.16" r="6.29"/><circle class="cls-3" cx="1169.72" cy="165.16" r="6.29"/></g><g id="Man"><ellipse class="cls-10" cx="739.02" cy="1032.54" rx="358.85" ry="3.62"/><rect class="cls-11" x="675.1" y="67.18" width="27.77" height="964.35"/><rect class="cls-12" x="702.87" y="95.51" width="27.77" height="936.02"/><rect class="cls-11" x="1038.38" y="87.84" width="28.33" height="303.56" transform="translate(1094.26 -971.2) rotate(90)"/><path class="cls-13" d="M730.11,557.68c-2.4,10.19-9.72,75.64,2.25,114.26,11.45,36.92,41.33,116,41.33,116l29.79,8.36-35.77-135L751.1,528.13Z" transform="translate(-197.9 -158.27)"/><rect class="cls-11" x="1006.43" y="67.18" width="28.33" height="964.35"/><rect class="cls-12" x="1034.75" y="67.18" width="28.33" height="964.35"/><polygon class="cls-14" points="524.78 411.7 535.47 361.3 581.21 361.15 568.84 431.49 524.78 411.7"/><polygon class="cls-15" points="746.58 958.68 755.9 986.53 843.3 956.38 754.1 1031.54 724.56 1031.54 703.58 953.45 746.58 958.68"/><polygon class="cls-16" points="705.96 960.64 715.8 998.42 755.76 986.45 746.44 958.61 705.96 960.64"/><polygon class="cls-15" points="508.68 955.39 493.33 977.72 505.51 1002.67 558.97 1031.54 492.11 1031.65 439.7 983.92 480.66 920.8 508.68 955.39"/><polygon class="cls-16" points="478.71 921.69 458.32 954.91 493.33 977.72 508.68 955.39 478.71 921.69"/><polygon class="cls-17" points="761.74 967.61 694.15 987.05 627.97 701.44 601.96 591.67 557.46 508.96 663.44 508.96 671.21 509.5 761.74 967.61"/><path class="cls-17" d="M844.87,780.27l-20,79.44-12.36,49.07-105,222.3-57.7-39.38,88.88-201,5.74-134.52s-5-36.94,4.33-88.92h7.45Z" transform="translate(-197.9 -158.27)"/><polygon class="cls-18" points="627.35 699.39 595.76 606.58 618.37 735.06 627.35 699.39"/><rect class="cls-11" x="763.43" y="95.36" width="24.76" height="936.02"/><rect class="cls-12" x="788.19" y="95.51" width="218.23" height="936.02"/><path class="cls-13" d="M953.84,567.86l-2.44-12.73a14.44,14.44,0,0,1-1.58-9.86c1.1-5.72,5-14,3.8-24-.87-6.94,5.65-4,7.82,0s-.77,14.51,4.24,13.84,15.5-8,18.18-21.26c.36-1.78,7.92-3.81,12.69,13,2.35,8.29.63,22.38-3.54,26.59,0,0-14.72,10.79-21.21,12.39C964.92,567.61,964.87,565.19,953.84,567.86Z" transform="translate(-197.9 -158.27)"/><path class="cls-19" d="M748.3,688.33S743.2,656,738.79,620c-4.77-39-10.45-59.75-5.41-87.41,11-60.32,111-70.34,161.67,24.42l-33.29,37.3L873,687.61" transform="translate(-197.9 -158.27)"/><path class="cls-13" d="M818.15,489.66a96.33,96.33,0,0,1-44.76,13.72c-18,.93-11.38-9.66-11.38-9.66s10.24-5.49,28.07-6.7A93,93,0,0,1,818.15,489.66Z" transform="translate(-197.9 -158.27)"/><path class="cls-20" d="M853.28,377.61s32.26,34.37-6.63,47.44" transform="translate(-197.9 -158.27)"/><polygon class="cls-12" points="655.65 272.46 666.2 291.1 656.27 292.35 655.65 272.46"/><path class="cls-13" d="M762,432.86c-3.59-8,2.24,36.7,2.24,36.7L763.87,494l43.69-3.16-2-14.57s42.1-.34,50.47-5.45c0,0,3.39-40-5.23-67.41L814,376.32l-55.12,8.56Z" transform="translate(-197.9 -158.27)"/><path class="cls-21" d="M801.3,457s-18.46-2.35-26.75-16.3" transform="translate(-197.9 -158.27)"/><path class="cls-20" d="M761.35,456.05c-13,2-39.19-39-22.66-67.34C761,350.51,793.09,363,793.09,363s5.25-32.59,27.08-34.32c31.09-2.46,39.71,43.53,39.71,43.53s5.46-25,14.89-23c13.68,2.88,18.72,77.2-53.61,54.17,0,0,4.58,22.84-12.1,24.63-7.19.77-11.13-8.65-11.13-8.65s-7.55,29.1-18.11,37.28C779.82,456.59,767.36,455.13,761.35,456.05Z" transform="translate(-197.9 -158.27)"/><polyline class="cls-22" points="548.38 193.98 557.25 216.8 550.55 220.66 534.34 207.16"/><ellipse class="cls-20" cx="850.97" cy="430.83" rx="3.44" ry="5.75" transform="translate(-235.48 -74.21) rotate(-5.53)"/><path class="cls-13" d="M774.36,438.71c6.95,15.35,30.61,17.6,30.61,17.6l-1.38-8-5-29.09c-3.19-7.93-23.73-13.11-25.94,7.34A23,23,0,0,0,774.36,438.71Z" transform="translate(-197.9 -158.27)"/><path class="cls-21" d="M795.69,443.26s-5.33-.18-5-5.65c.31-5.29,4.57-5.86,4.57-5.86s-2.46-13.33-12.53-10.36" transform="translate(-197.9 -158.27)"/><path class="cls-23" d="M853.81,457.51s-5,.32-6.48-3.52" transform="translate(-197.9 -158.27)"/><polyline class="cls-24" points="660.65 438.47 651.98 447.22 622.76 418.81"/><rect class="cls-6" x="813.17" y="171.19" width="169.54" height="52.62" rx="11.12"/><rect class="cls-6" x="813.17" y="285.57" width="169.54" height="52.62" rx="11.12"/><rect class="cls-6" x="814.18" y="391.98" width="169.54" height="52.62" rx="26.31"/><line class="cls-25" x1="813.17" y1="257.12" x2="887.94" y2="257.12"/><line class="cls-26" x1="870.07" y1="418.29" x2="927.82" y2="418.29"/><line class="cls-27" x1="828.75" y1="197.5" x2="924.15" y2="197.5"/><line class="cls-25" x1="813.17" y1="142.65" x2="887.94" y2="142.65"/><ellipse class="cls-28" cx="831.31" cy="311.88" rx="6.16" ry="9.23"/><ellipse class="cls-28" cx="851.8" cy="311.88" rx="6.16" ry="9.23"/><ellipse class="cls-28" cx="872.29" cy="311.88" rx="6.16" ry="9.23"/><ellipse class="cls-28" cx="892.79" cy="311.88" rx="6.16" ry="9.23"/><ellipse class="cls-28" cx="913.28" cy="311.88" rx="6.16" ry="9.23"/><ellipse class="cls-28" cx="933.77" cy="311.88" rx="6.16" ry="9.23"/><polygon class="cls-16" points="607.68 318.02 586.37 316.82 609.31 330 607.68 318.02"/><rect class="cls-29" x="772.41" y="495.62" width="6.81" height="33.66"/><line class="cls-30" x1="849.45" y1="513.41" x2="888.53" y2="513.41"/><ellipse class="cls-31" cx="828.09" cy="513.46" rx="13.47" ry="16.29"/><rect class="cls-12" x="763.43" y="95.51" width="24.76" height="4.6"/><line class="cls-32" x1="830.09" y1="513.41" x2="848.12" y2="513.41"/><path class="cls-11" d="M863.66,611s5.22,62.12-65.81,51.59l7.23-13.7c37.1,8.37,50-21.88,56.68-54.67Z" transform="translate(-197.9 -158.27)"/><path class="cls-11" d="M772.66,547.49s4.86-46,52-56.65l12.4,6.21c-27.86,4.94-44.1,24.51-53.31,41.73Z" transform="translate(-197.9 -158.27)"/><path class="cls-11" d="M725.69,544.14s-8-15.41,22.83-42.66l9.22-4.94c-11.28,11.25-23.92,26.95-21.53,46.41Z" transform="translate(-197.9 -158.27)"/><path class="cls-11" d="M531.23,358.09h31.33a49.82,49.82,0,0,1,49.82,49.82V522.43A25.58,25.58,0,0,1,586.8,548H507.92a26.5,26.5,0,0,1-26.5-26.5V407.91A49.82,49.82,0,0,1,531.23,358.09Z"/><path class="cls-33" d="M741.29,516.36c28.43,0,51.7,24.87,51.7,55.26v50.82" transform="translate(-197.9 -158.27)"/><path class="cls-12" d="M528.73,358.09h3.57a47.31,47.31,0,0,1,47.31,47.31V524.74A23.27,23.27,0,0,1,556.34,548H505.61a24.19,24.19,0,0,1-24.19-24.19V405.41a47.31,47.31,0,0,1,47.31-47.31Z"/><rect class="cls-11" x="473.6" y="467.33" width="85.85" height="60.98" rx="10.56"/><rect class="cls-12" x="473.6" y="467.33" width="69.74" height="60.98" rx="10.56"/><path class="cls-12" d="M679.32,571.62v-2.78c0-28.86,22.1-52.47,49.1-52.47l1.26,0C701.86,517.14,679.32,541.7,679.32,571.62Z" transform="translate(-197.9 -158.27)"/><rect class="cls-11" x="520.91" y="510.61" width="15.06" height="9.73"/><line class="cls-33" x1="473.6" y1="483.03" x2="559.45" y2="483.03"/><polygon class="cls-11" points="542.3 409.09 528.44 425.29 514.58 409.09 528.44 392.89 542.3 409.09"/><path class="cls-13" d="M978.25,555.36l-22.07-15.05-48.64,41-16.63-19.78-30.52,34.16s23.23,29.11,46.76,27.2C923.77,621.54,978.25,555.36,978.25,555.36Z" transform="translate(-197.9 -158.27)"/><polygon class="cls-16" points="709.64 423.04 717.56 431.58 716.75 417.04 709.64 423.04"/></g></svg>