<svg xmlns="http://www.w3.org/2000/svg" xmlns:xlink="http://www.w3.org/1999/xlink" viewBox="0 0 1511.64 1197.44"><defs><style>.cls-1,.cls-14,.cls-16,.cls-18{fill:none;}.cls-2{fill:#ecf6ff;}.cls-3{fill:#dceeff;}.cls-4{fill:#d0e8fc;}.cls-5{fill:#c5dfff;}.cls-6{fill:#b6d4ff;}.cls-7{font-size:729.18px;font-family:Prompt-SemiBold, Prompt;font-weight:600;}.cls-10,.cls-7{fill:#405fd3;}.cls-8{fill:#29292d;}.cls-9{fill:#32323a;}.cls-11{fill:#e576c6;}.cls-12{clip-path:url(#clip-path);}.cls-13{fill:#ffc000;}.cls-14{stroke:#e26640;}.cls-14,.cls-16,.cls-18{stroke-miterlimit:10;stroke-width:9px;}.cls-15{fill:#e85c25;}.cls-16{stroke:#0d0b6d;}.cls-17{fill:#0d0b6d;}.cls-18{stroke:#db552c;}.cls-19{fill:#fff;}.cls-20{fill:#cf3e83;}</style><clipPath id="clip-path" transform="translate(-239.64 -77.76)"><path class="cls-1" d="M1371.82,534v54.92L1268.3,614.26l-113.1,27.68-31.68,7.75s1.71,94.75-17.32,136.6a152.1,152.1,0,0,1-172.3,19.35c7-38.38-38.23-139.34-38.23-139.34l-41-6.34-109.5-16.89L627.59,621.23,624.44,564s55.84,5.73,138.67,9.25c40.33,1.71,83.75,3.37,123.68,4.52,45.73,1.32,86.89,2,113.61,1.27,20.73-.54,65.21-5.21,116.43-11.34,41.34-5,87.07-10.87,128.26-16.35C1315,542.05,1371.82,534,1371.82,534Z"/></clipPath></defs><title>back and obj 19</title><g id="Man"><circle class="cls-2" cx="770.85" cy="598.72" r="598.72"/><circle class="cls-3" cx="770.85" cy="598.72" r="482.08"/><circle class="cls-4" cx="770.85" cy="598.72" r="362.22"/><circle class="cls-5" cx="770.85" cy="598.72" r="251.04"/><circle class="cls-6" cx="770.85" cy="598.72" r="153.92"/></g><g id="Layer_2" data-name="Layer 2"><text class="cls-7" transform="translate(1065.38 849.63)">4</text><circle class="cls-8" cx="758.05" cy="588.84" r="197.54"/><circle class="cls-9" cx="770.85" cy="598.72" r="225.59"/><path class="cls-10" d="M1268.3,614.26a265.93,265.93,0,0,0-259.11-206.07c-111.15,0-206.37,68.21-246.08,165.06a263.54,263.54,0,0,0-18,69.82,268.49,268.49,0,0,0-1.79,31c0,146.83,119,265.86,265.86,265.86s265.86-119,265.86-265.86A266.5,266.5,0,0,0,1268.3,614.26Zm-162.1,172a152,152,0,0,1-252-114.42q0-6,.46-11.91A152,152,0,1,1,1106.2,786.29Z" transform="translate(-239.64 -77.76)"/><text class="cls-7" transform="translate(0 849.78)">4</text><path class="cls-11" d="M1372.08,539.6l12.93-6.47a102.4,102.4,0,0,1,16.32-6.7c10.35-3.39,16.62-1.78,32.93-9.23,18.52-8.45,10.66,7.14,2.54,12.63-6.33,4.28-14.77,3.63-18.67,9.26,3,2,7.35,6.42,33.78,9.35,4.74.53,20.18-1.33,20.18-1.33,4.62,0,14.25-.37,15.63,4.88.34,1.31-1.13,3-1.13,3s6-.39,7.13,5c.43,2.11-12.65,6-12.65,6s6.59.76,7.25,4.76c.19,1.13-37.74,13.74-37.74,13.74l8.53-.64,8.75-1.61s4.68.23,5.45,4c.3,1.5-7.58,4.21-16.84,6.71a84.91,84.91,0,0,1-35.84,2.19c-12.91-1.72-17.27-1.14-33-7.16a129.79,129.79,0,0,1-20.46-10.62" transform="translate(-239.64 -77.76)"/><path class="cls-11" d="M635.37,572.74l-12.22-6.53a88.59,88.59,0,0,0-15.51-6.71c-9.9-3.36-16.12-1.56-31.57-9-17.55-8.51-10.85,7.66-3.27,13.25,5.92,4.37,14.2,3.53,17.65,9.35-3.09,2.12-7.57,6.86-33.55,10.41-4.66.64-19.61-1-19.61-1-4.51.12-13.89-.13-15.56,5.39-.41,1.37.92,3.08.92,3.08s-5.86-.3-7.27,5.33c-.55,2.21,12,6.08,12,6.08s-6.48.91-7.37,5.11c-.25,1.19,36,13.68,36,13.68l-8.28-.52-8.44-1.51s-4.59.32-5.57,4.27c-.39,1.57,7.13,4.26,16,6.71,13.81,3.81,24.34,3.32,34.85,1.63,12.71-2,16.92-1.51,32.67-8.1a136.29,136.29,0,0,0,20.63-11.49" transform="translate(-239.64 -77.76)"/><g class="cls-12"><path class="cls-13" d="M1493.73,514.73v63.93L1356,608.15l-150.5,32.23-42.16,9s2.28,110.29-23,159c-35.56,27.25-82.14,43.74-133.12,43.74A224.56,224.56,0,0,1,911,830.93c9.37-44.67-50.87-162.2-50.87-162.2l-54.63-7.38L659.79,641.69l-171-23.09L480.58,552s92.93,4.34,203.15,8.44c53.67,2,111.45,3.92,164.58,5.26,60.85,1.53,115.62,2.29,151.18,1.48,27.58-.63,86.77-6.07,154.93-13.2,55-5.78,115.86-12.66,170.67-19C1418.12,524.1,1493.73,514.73,1493.73,514.73Z" transform="translate(-239.64 -77.76)"/><line class="cls-14" x1="782.87" y1="561.68" x2="795.59" y2="543.96"/><line class="cls-14" x1="834.15" y1="564.7" x2="856.31" y2="575.91"/><line class="cls-14" x1="444.41" y1="528.86" x2="462.05" y2="551.27"/><line class="cls-14" x1="498.97" y1="512.73" x2="514.15" y2="498.47"/><line class="cls-14" x1="434.15" y1="493.99" x2="419.79" y2="508.8"/><line class="cls-14" x1="533.85" y1="536.65" x2="553.95" y2="551.27"/><line class="cls-14" x1="578.56" y1="519.13" x2="592.92" y2="505.6"/><line class="cls-14" x1="614.52" y1="564.7" x2="595.79" y2="587.11"/><line class="cls-14" x1="628.39" y1="530.6" x2="660.53" y2="547.73"/><line class="cls-14" x1="671.69" y1="514.5" x2="686.2" y2="500.99"/><line class="cls-14" x1="709.85" y1="563.16" x2="693.96" y2="587.37"/><line class="cls-14" x1="745.95" y1="590.81" x2="777.13" y2="603.52"/><line class="cls-14" x1="818.56" y1="612.14" x2="802.15" y2="637.99"/><line class="cls-14" x1="837.36" y1="642.09" x2="859.18" y2="657.27"/><line class="cls-14" x1="741.43" y1="635.11" x2="727.29" y2="656.45"/><line class="cls-14" x1="831.28" y1="682.29" x2="815.28" y2="704.45"/><line class="cls-14" x1="791.49" y1="681.06" x2="769.55" y2="671.63"/><line class="cls-14" x1="769.55" y1="702.81" x2="753.6" y2="724.14"/><line class="cls-14" x1="804.2" y1="730.29" x2="828.82" y2="750.81"/><line class="cls-14" x1="722.59" y1="693.37" x2="693.96" y2="676.34"/><line class="cls-14" x1="697.92" y1="619.93" x2="676.61" y2="610.91"/><line class="cls-14" x1="858.36" y1="707.32" x2="881.33" y2="720.04"/><line class="cls-14" x1="703.39" y1="711.42" x2="690.25" y2="740.55"/><line class="cls-14" x1="876.82" y1="607.63" x2="889.13" y2="594.12"/><line class="cls-14" x1="861.64" y1="530.6" x2="867.38" y2="519.13"/><line class="cls-14" x1="740" y1="540.83" x2="714.59" y2="532.63"/><line class="cls-14" x1="837.36" y1="514.91" x2="814.87" y2="508.8"/><line class="cls-14" x1="883.87" y1="486.48" x2="901.02" y2="498.47"/><line class="cls-14" x1="929.33" y1="505.6" x2="910.87" y2="530.6"/><line class="cls-14" x1="949.29" y1="539.16" x2="974.87" y2="551.27"/><line class="cls-14" x1="984.72" y1="514.5" x2="998.67" y2="501.39"/><line class="cls-14" x1="962.08" y1="486.48" x2="941.64" y2="473.88"/><line class="cls-14" x1="1020.41" y1="528.04" x2="1047.08" y2="543.96"/><line class="cls-14" x1="1038.87" y1="492.47" x2="1005.23" y2="477.64"/><line class="cls-14" x1="1070" y1="492.47" x2="1056.1" y2="517.11"/><line class="cls-14" x1="1095.9" y1="470.26" x2="1063.05" y2="459.76"/><line class="cls-14" x1="1097.13" y1="514.5" x2="1122.15" y2="531.73"/><line class="cls-14" x1="401.89" y1="487.82" x2="403.69" y2="546.4"/><line class="cls-14" x1="1116.58" y1="458.44" x2="1118.47" y2="514.52"/></g><polygon class="cls-15" points="890.91 570.12 883.87 571.93 883.87 530.6 890.91 570.12"/><polyline class="cls-16" points="811.51 296.04 808.04 324.61 818.92 329.07 837.36 308.01"/><path class="cls-17" d="M901,408.19s-40.26,50.58,12.92,65.14Z" transform="translate(-239.64 -77.76)"/><path class="cls-11" d="M1035.27,477.31c4.11-11.45,39.91-25.25,48,.74,10.41,33.51-53.32,49.9-53.32,49.9l1.41,48.67,8.06-.39s14.26,19.92-28.2,20.54c-47.92.69-49-17.49-49-17.49l10.58.05.5-38.76s-56.39,3.38-68-2.94c0,0-7.95-55.09,1.23-93.9l47-40.93,74.52,6.82Z" transform="translate(-239.64 -77.76)"/><path class="cls-18" d="M1039.41,576.23s1.31,19.46-28.2,20.54c-49,1.79-49-17.49-49-17.49" transform="translate(-239.64 -77.76)"/><path class="cls-17" d="M1064.72,463.31s36.49-14.09-4.94-58.51-79.45-22.43-79.45-22.43-9.82-44.68-39.19-45.08c-41.83-.56-49.44,64-49.44,64s-20.45-35.52-32.53-30.71-14.48,121.56,153,67.61c0,0-14.88,32,23.13,39.16C1035.27,477.31,1042.17,463.69,1064.72,463.31Z" transform="translate(-239.64 -77.76)"/><path class="cls-19" d="M943.05,518.18c.46,5.59,10.19,9.26,19.69,5.46,14.08-5.63,17.6-20.21,9.08-24.79-8.15-4.38-13.08,7.31-21.23,10C946.15,510.32,942.7,513.92,943.05,518.18Z" transform="translate(-239.64 -77.76)"/><polygon class="cls-20" points="733.66 462.81 770.85 455.53 733.54 479.78 733.66 462.81"/><polygon class="cls-10" points="703.61 394.23 690.25 425.3 705.59 425.77 703.61 394.23"/><circle class="cls-17" cx="726.46" cy="399.06" r="7.76"/><circle class="cls-17" cx="686.2" cy="398.34" r="7.76"/></g></svg>