<svg xmlns="http://www.w3.org/2000/svg" xmlns:xlink="http://www.w3.org/1999/xlink" viewBox="0 0 1771.38 948.17"><defs><style>.cls-1,.cls-10,.cls-17,.cls-18,.cls-3,.cls-35,.cls-9{fill:none;}.cls-2,.cls-6{fill:#dceeff;}.cls-11,.cls-2,.cls-4{stroke:#dceeff;}.cls-10,.cls-11,.cls-17,.cls-18,.cls-2,.cls-3,.cls-35,.cls-4,.cls-42,.cls-9{stroke-miterlimit:10;}.cls-2,.cls-4{stroke-width:5px;}.cls-3{stroke:#f3faff;stroke-width:12px;}.cls-4{fill:#fff;}.cls-5{fill:#b6d4ff;}.cls-7{fill:#cce3ff;}.cls-11,.cls-8{fill:#ecf6ff;}.cls-9{stroke:#d2ebff;stroke-width:15px;}.cls-10{stroke:#cce3ff;stroke-width:10px;}.cls-11,.cls-42{stroke-linecap:round;}.cls-11{stroke-width:20px;}.cls-12{clip-path:url(#clip-path);}.cls-13{fill:#166b5a;}.cls-14{fill:#b25243;}.cls-15{fill:#51ddc3;}.cls-16{fill:#ebac32;}.cls-17{stroke:#51ddc3;}.cls-17,.cls-18{stroke-width:7px;}.cls-18{stroke:#b25243;}.cls-19{clip-path:url(#clip-path-2);}.cls-20{fill:#165893;}.cls-21{fill:#0f7fe3;}.cls-22{fill:#e5cadf;}.cls-23{fill:#db8b21;}.cls-24{fill:#ffc000;}.cls-25{fill:#e576c6;}.cls-26{fill:#6a6972;}.cls-27{fill:#2b2a38;}.cls-28{fill:#dadae0;}.cls-29{fill:#240040;}.cls-30{fill:#bc3579;}.cls-31{fill:#6ca1ff;}.cls-32{fill:#3a51db;}.cls-33{fill:#405fd3;}.cls-34{fill:#0d0b6d;}.cls-35{stroke:#1c295e;stroke-width:3px;}.cls-36{fill:#cf3e83;}.cls-37{fill:#d8d7e0;}.cls-38{fill:#565560;}.cls-39{fill:#c8c8ce;}.cls-40{fill:#ff00c3;}.cls-41{fill:#a6a6ad;}.cls-42{fill:#d2d1db;stroke:#bc2085;stroke-width:2px;}</style><clipPath id="clip-path" transform="translate(-105.82 -212.92)"><path class="cls-1" d="M1463.53,920.71c-51.48,102.16-203.66,94.12-312.33,55.19a399.35,399.35,0,0,1-51.81-22.59h0c-40.28-21.31-63.83-40.89-65.77-67.15-2.13-28.69,15.48-49.73,30.69-67.11,16-18.23,32.91-32.5,36.69-47.58,10.07-40.18-10.64-50.57-7.8-84.14h0a97.93,97.93,0,0,1,3.51-18.55c14-49.53-71-88.46-39.38-142.61,28.82-49.44,50.39-35.83,108.29-62.77s28.3-124.29,89.75-128c84.36-5.08,86.72,93.31,90.81,144s87.94,57.46,84.67,124.26c-1.54,31.38-81.74,40.61-87.61,74.76C1328.85,762.24,1548.53,752,1463.53,920.71Z"/></clipPath><clipPath id="clip-path-2" transform="translate(-105.82 -212.92)"><path class="cls-1" d="M930.69,1057.84q-7.71,4.52-15.32,8.75c-17.94,10-35.41,18.41-52.17,23.83-26.92,8.71-52,9.57-74.13-3.85-59.61-36.11-19.16-78-47.45-107.19s-162.46-9.23-212.31-94.15c-64-109.1,82.8-114.59,109.85-152.31,25.84-36-37.85-139.38,100.61-145.13,62.72-2.6,138.87,65.75,129.87,164.52-2.29,25.15,4.16,41.52,15.31,54.06,19.32,21.76,52.76,32,79.2,56.72a112.25,112.25,0,0,1,25.16,34.14C1003.73,927.42,997.32,1018.78,930.69,1057.84Z"/></clipPath></defs><title>back and obj 4</title><g id="Back"><rect class="cls-2" x="393.49" y="215.23" width="125.25" height="105.25"/><path class="cls-3" d="M189.2,592.32c59.74,0,59.74,30,119.47,30s59.74-30,119.47-30,59.74,30,119.48,30,59.73-30,119.47-30,59.73,30,119.47,30,59.74-30,119.47-30,59.73,30,119.47,30,59.73-30,119.47-30,59.74,30,119.47,30,59.74-30,119.47-30,59.74,30,119.48,30,59.74-30,119.47-30,59.74,30,119.48,30,59.74-30,119.48-30" transform="translate(-105.82 -212.92)"/><path class="cls-3" d="M120.2,809.24c59.74,0,59.74,30,119.47,30s59.74-30,119.47-30,59.74,30,119.48,30,59.73-30,119.47-30,59.73,30,119.47,30,59.74-30,119.47-30,59.73,30,119.47,30,59.73-30,119.47-30,59.74,30,119.47,30,59.74-30,119.47-30,59.74,30,119.48,30,59.74-30,119.47-30,59.74,30,119.48,30,59.74-30,119.48-30" transform="translate(-105.82 -212.92)"/><path class="cls-3" d="M120.2,375.4c59.74,0,59.74,30,119.47,30s59.74-30,119.47-30,59.74,30,119.48,30,59.73-30,119.47-30,59.73,30,119.47,30,59.74-30,119.47-30,59.73,30,119.47,30,59.73-30,119.47-30,59.74,30,119.47,30,59.74-30,119.47-30,59.74,30,119.48,30,59.74-30,119.47-30,59.74,30,119.48,30,59.74-30,119.48-30" transform="translate(-105.82 -212.92)"/><rect class="cls-2" x="574.71" y="51.38" width="125.25" height="197.14"/><rect class="cls-2" x="883.42" y="125.85" width="125.25" height="162.55"/><rect class="cls-4" x="583.89" y="51.38" width="234.74" height="197.14"/><path class="cls-5" d="M1533.88,806.7l182.51-335c14.76,51.69,81.21,78.38,69.15,116.23s-39.59.5-56.31,33.32,37.6,107-2.51,144.67c-29.12,27.32-61.53-10.83-102.48.2s-18.26,68-61.66,55.74A78.47,78.47,0,0,1,1533.88,806.7Z" transform="translate(-105.82 -212.92)"/><path class="cls-6" d="M1547.55,310.82l57.11,488c-43.49,7.49-79-.69-83.86-17.34-11.85-40.68,27.42-46.62,23.89-68.11-5.59-34.08-66.21-20.59-77.92-58.55S1498,611.1,1493,574.61s-92-66.42-80.52-120.21c8.31-39.06,56.7-26.24,84-58.67s-23.84-66.28,18.81-81A78.5,78.5,0,0,1,1547.55,310.82Z" transform="translate(-105.82 -212.92)"/><path class="cls-7" d="M1409.63,531.12c-47.58-31.71-112.68,15-141.39,47l310.4,259c16.23-29.78,12.56-67.94,1.3-83-15-20.14-50.46,4.34-63.69-22.6s45-60.37,23.08-93.22c-14.55-21.82-113.25-20.88-121.69-26.56C1385.43,590,1449.16,557.46,1409.63,531.12Z" transform="translate(-105.82 -212.92)"/><path class="cls-8" d="M1739.11,978.87c0,41.33-28.68,71.35-73.65,88.2H1468.54c-45-16.85-73.65-46.87-73.65-88.2,0-54,14.49-107.94,110.71-197h122.8C1724.62,870.93,1739.11,924.9,1739.11,978.87Z" transform="translate(-105.82 -212.92)"/><polyline class="cls-9" points="1632.88 756.94 1598.78 728.6 1564.67 756.94 1530.57 728.6 1496.46 756.94 1462.35 728.6 1428.24 756.94 1394.13 728.6 1360.03 756.94 1325.91 728.6 1291.8 756.94"/><rect class="cls-4" x="605.5" y="72.83" width="191.53" height="154.25"/><rect class="cls-4" x="400.85" y="215.37" width="125.25" height="105.25"/><rect class="cls-4" x="892.36" y="125.85" width="122.82" height="162.55"/><rect class="cls-6" x="423.97" y="236.83" width="80.8" height="62.04"/><rect class="cls-6" x="923.59" y="156.24" width="66.02" height="101.47"/><rect class="cls-5" x="645.46" y="105.17" width="111.6" height="89.56"/><path class="cls-5" d="M998.37,557.2h316.25a24.23,24.23,0,0,1,24.23,24.23V789.17a0,0,0,0,1,0,0H974.15a0,0,0,0,1,0,0V581.42A24.23,24.23,0,0,1,998.37,557.2Z"/><path class="cls-7" d="M1220.44,557.2h94.18a24.23,24.23,0,0,1,24.23,24.23V789.17a0,0,0,0,1,0,0H1196.22a0,0,0,0,1,0,0V581.42A24.23,24.23,0,0,1,1220.44,557.2Z"/><path class="cls-5" d="M298.91,441.9H917.43a39.73,39.73,0,0,1,39.73,39.73V666.69a0,0,0,0,1,0,0h-698a0,0,0,0,1,0,0V481.62A39.73,39.73,0,0,1,298.91,441.9Z"/><rect class="cls-8" x="499.1" y="666.69" width="663.27" height="122.48"/><path class="cls-6" d="M866.18,441.9h155.74a39.73,39.73,0,0,1,39.73,39.73V666.69a0,0,0,0,1,0,0H826.45a0,0,0,0,1,0,0V481.62A39.73,39.73,0,0,1,866.18,441.9Z"/><path class="cls-6" d="M622.71,441.9H778.45a39.73,39.73,0,0,1,39.73,39.73V666.69a0,0,0,0,1,0,0H583a0,0,0,0,1,0,0V481.62A39.73,39.73,0,0,1,622.71,441.9Z"/><path class="cls-6" d="M379.24,441.9H535a39.73,39.73,0,0,1,39.73,39.73V666.69a0,0,0,0,1,0,0H339.52a0,0,0,0,1,0,0V481.62A39.73,39.73,0,0,1,379.24,441.9Z"/><path class="cls-5" d="M158.51,557.2H474.76A24.23,24.23,0,0,1,499,581.42V789.17a0,0,0,0,1,0,0H134.28a0,0,0,0,1,0,0V581.42A24.23,24.23,0,0,1,158.51,557.2Z"/><path class="cls-7" d="M380.58,557.2h94.18A24.23,24.23,0,0,1,499,581.42V789.17a0,0,0,0,1,0,0H356.35a0,0,0,0,1,0,0V581.42A24.23,24.23,0,0,1,380.58,557.2Z"/><circle class="cls-8" cx="430.67" cy="620.47" r="37.54"/><circle class="cls-8" cx="1270.53" cy="620.47" r="37.54"/><line class="cls-10" x1="199.31" y1="789.17" x2="199.31" y2="854.15"/><line class="cls-10" x1="427.67" y1="789.17" x2="427.67" y2="854.15"/><line class="cls-10" x1="1039.17" y1="789.17" x2="1039.17" y2="854.15"/><line class="cls-10" x1="1267.53" y1="789.17" x2="1267.53" y2="854.15"/><line class="cls-11" x1="1761.38" y1="854.15" x2="10" y2="854.15"/></g><g id="Man"><g class="cls-12"><rect class="cls-13" x="894.18" y="41.85" width="541.92" height="765.23"/><path class="cls-14" d="M1125.92,691.89l74.77-479c34,5.6,60.31,81.85,48,136.62-7.17,31.91-22,30.85-25.46,42.86-5.31,18.65,25,26.27,18.69,51-7.93,30.82-46.65,20.39-52.16,49.36s51.08,74.2,29.08,112c-16,27.46-48.43,5.19-76.76,22.69s.87,56.43-34.28,56.51C1098.91,684,1133.49,695.29,1125.92,691.89Z" transform="translate(-105.82 -212.92)"/><path class="cls-14" d="M1489.61,548.66l-83.82,151c-55.24-19.36-91.74-44.21-87.35-57.42,10.72-32.29,60.1-14.3,69-29.84,14-24.65-64.81-49.7-55.57-80.2s62.83-10.33,79-36.18S1477.81,542.26,1489.61,548.66Z" transform="translate(-105.82 -212.92)"/><path class="cls-15" d="M1142.73,737.56c-38.37,34.65-89.08,3.1-111.23-20.79L1301,414.33c12.29,23.75,16.62,65.1-5.61,94.1-14.2,18.52-53.11,12.66-64.14,38.18s34.51,46.4,16.47,78.35c-12,21.22-90.25,34.64-97,40.84C1124.7,689.43,1174.6,708.77,1142.73,737.56Z" transform="translate(-105.82 -212.92)"/><path class="cls-16" d="M1629.25,903.94l-357.61,1.55c-20.41-21.38-67.94-74.92-48.81-90.74,12.59-10.41,50.32,23.08,60.5,13s-56.7-72.65-39.72-81.47c29.94-15.55,126.25,96,138.68,87.06,13.07-9.44-48.35-75.06-26.71-82,25.2-8.09,91.91,92.26,111.18,82,10.1-5.37-9.5-38.08,5.07-43.68,25.36-9.74,67.69,84.76,85.68,76.34,8.51-4-1.06-17.64,11.7-21C1584.8,840.84,1616.21,884.55,1629.25,903.94Z" transform="translate(-105.82 -212.92)"/><line class="cls-17" x1="1203.46" y1="731.49" x2="1221.85" y2="756.79"/><line class="cls-17" x1="1190.8" y1="749.71" x2="1204.34" y2="756.79"/><line class="cls-17" x1="1229.36" y1="735.59" x2="1236.13" y2="756.79"/><line class="cls-17" x1="1251.72" y1="743.85" x2="1250.49" y2="756.79"/><line class="cls-18" x1="1050.83" y1="548.7" x2="1059.1" y2="565.07"/><line class="cls-18" x1="1071.54" y1="531.28" x2="1074.57" y2="565.07"/><line class="cls-18" x1="1092.31" y1="543.07" x2="1087.8" y2="565.07"/></g><g class="cls-19"><rect class="cls-20" x="317.03" y="334.77" width="637.82" height="586.46"/><circle class="cls-21" cx="840.84" cy="692.98" r="20.51"/><circle class="cls-21" cx="989.71" cy="807.69" r="140.48"/><path class="cls-22" d="M776.82,647.4c-5.25,0-9.5,10.45-9.5,23.33,0-12.88-4.26-23.33-9.5-23.33,5.24,0,9.5-10.44,9.5-23.33C767.32,637,771.57,647.4,776.82,647.4Z" transform="translate(-105.82 -212.92)"/><path class="cls-22" d="M698.9,745c-7.93,0-14.36,15.78-14.36,35.26,0-19.48-6.43-35.26-14.36-35.26,7.93,0,14.36-15.79,14.36-35.27C684.54,729.25,691,745,698.9,745Z" transform="translate(-105.82 -212.92)"/><path class="cls-22" d="M803.15,995.21c-5,0-9,9.93-9,22.17,0-12.24-4-22.17-9-22.17,5,0,9-9.92,9-22.16C794.13,985.29,798.17,995.21,803.15,995.21Z" transform="translate(-105.82 -212.92)"/><path class="cls-22" d="M859.77,852.33c-6.81,0-12.34,13.56-12.34,30.29,0-16.73-5.52-30.29-12.33-30.29,6.81,0,12.33-13.56,12.33-30.28C847.43,838.77,853,852.33,859.77,852.33Z" transform="translate(-105.82 -212.92)"/><path class="cls-23" d="M644.62,848.67a99.28,99.28,0,0,1,8.54,16.6A98,98,0,0,1,657.51,879c46.86,5,77.71,13.58,77.71,23.3s-30.85,18.28-77.71,23.31a931.33,931.33,0,0,1-97,4.71,931.33,931.33,0,0,1-96.95-4.71c-46.85-5-77.7-13.59-77.7-23.31S416.76,884,463.61,879A96.76,96.76,0,0,1,468,865.27a99.28,99.28,0,0,1,8.54-16.6c-90.35,8.16-154.62,29.09-154.62,53.64S386.16,947.8,476.51,956c26.14,2.36,54.46,3.66,84,3.66s57.91-1.3,84.06-3.66c90.34-8.16,154.62-29.11,154.62-53.65S735,856.83,644.62,848.67Z" transform="translate(-105.82 -212.92)"/><path class="cls-24" d="M653.16,865.27A98,98,0,0,1,657.51,879c46.86,5,77.71,13.58,77.71,23.3s-30.85,18.28-77.71,23.31a931.33,931.33,0,0,1-97,4.71,931.33,931.33,0,0,1-96.95-4.71c-46.85-5-77.7-13.59-77.7-23.31S416.76,884,463.61,879A96.76,96.76,0,0,1,468,865.27c-70.19,6.7-118.54,20.77-118.54,37s48.35,30.34,118.54,37c27.95,2.67,59.38,4.17,92.59,4.17s64.63-1.5,92.6-4.17c70.19-6.69,118.53-20.76,118.53-37S723.35,872,653.16,865.27Z" transform="translate(-105.82 -212.92)"/><path class="cls-21" d="M660.26,902.31a98.9,98.9,0,0,1-2.75,23.31,931.33,931.33,0,0,1-97,4.71,931.33,931.33,0,0,1-96.95-4.71,100.12,100.12,0,0,1,0-46.61A96.76,96.76,0,0,1,468,865.27a99.77,99.77,0,0,1,185.19,0,100.3,100.3,0,0,1,7.1,37Z" transform="translate(-105.82 -212.92)"/></g><path class="cls-25" d="M842.16,580.31s-16.68,39.79-19.79,62.77c0,30.36,1.17,101.74,1.17,101.74l25.78-14.77,10-84.74,24.39-55Z" transform="translate(-105.82 -212.92)"/><polyline class="cls-26" points="687.91 534.96 671.54 552.62 677 577.92 696.31 582.11"/><path class="cls-27" d="M1142,972.48a384.62,384.62,0,0,1-50.1-23.3L1080,850.66,1059.3,819,1002,731.69l-37.48,131.4-22.67,79.47-23.11,122.13c-17,10-33.85,18.3-49.7,23.72,2-35,6.54-115.26,8.4-152.82C880.1,882.45,885,839,889.65,806.37c6.39-44.48,12.5-68.92,12.27-70.58,0,0,153.67-87,164.14-82,3.08,1.44,10.88,14.69,20.57,33.57h0c23.35,45.58,57.66,124,62.87,149C1155.58,865.44,1145.72,944.6,1142,972.48Z" transform="translate(-105.82 -212.92)"/><path class="cls-28" d="M1066.42,667.8l-12.53,6.35-2.27,1.15L1009,696.89l-2.29,1.16L810.3,797.62c-7.24,3.67-15.64-1.73-15.91-10.2l-1.29-41.55a11.85,11.85,0,0,1,6.3-11l17-8.63,221.93-112.48a10.8,10.8,0,0,1,14.35,4.58l18.46,32.85a12.52,12.52,0,0,1,1.47,4.43A11.91,11.91,0,0,1,1066.42,667.8Z" transform="translate(-105.82 -212.92)"/><circle class="cls-29" cx="828.33" cy="88.5" r="43.91"/><path class="cls-29" d="M905,401c0,.51,0,1,0,1.53.78,47.06,37.08,84.93,81.76,84.93,36.19,0,66.87-24.82,77.65-59.25a88,88,0,0,0,2.37-9.27,91.92,91.92,0,0,0,1.75-16.41c0-.51,0-1,0-1.53,0-20.42.31-43.62-18.5-63.2-12.8-13.33-29.65-19.27-46.66-15.73-15.42,3.22-14.16,2.29-18.95-1.25C945.41,291.91,905,353.22,905,401Z" transform="translate(-105.82 -212.92)"/><rect class="cls-29" x="799.21" y="189.58" width="163.56" height="113.92"/><polygon class="cls-30" points="730.07 383.42 759.97 417.73 766.27 403.52 733.33 374.87 730.07 383.42"/><path class="cls-31" d="M1129.52,539.83l-45.41,66.56-24.45-36.9s-1.31,21.34-5.43,34.36c-8.15,25.77-27.28,31.14-31.94,54.92-5.39,27.54-50.7,11.7-104.94,33.12,0,0,10.47-16.29,2.18-55.39-4.4-20.74-15.23-39.37-14.82-41.49l-15.2,39.49-61.8-51.16s45.9-76.92,69.17-87.06c23.79-10.39,46.52-17.3,81.37-17.19,32.8.1,49.44.48,62.21,5.08C1071.89,495.5,1129.52,539.83,1129.52,539.83Z" transform="translate(-105.82 -212.92)"/><path class="cls-25" d="M992.91,541c-17.28,0-37.92-10.4-39.25-39.73-.64-14,5.79-21.18,6.06-21.48l.55-.6.8-.05s13-.82,21.19-1.35c6-.39,12.66-.47,17.22-.47,3.12,0,5.17,0,5.17,0h.6l.49.33c.37.26,9.13,6.36,10.8,21.35,1.57,14.19-1.57,27.23-8.42,34.87A20,20,0,0,1,992.91,541Z" transform="translate(-105.82 -212.92)"/><path class="cls-32" d="M999.48,479.35c3.1,0,5.14,0,5.14,0s8.34,5.66,9.93,19.91c2.47,22.26-6.9,39.73-21.64,39.73-15.79,0-35.94-9-37.25-37.82-.61-13.33,5.54-20,5.54-20s13-.82,21.19-1.36c5.94-.38,12.62-.46,17.09-.46m0-4h0c-4.59,0-11.32.08-17.35.47-8.15.54-21.18,1.36-21.18,1.36l-1.61.1-1.09,1.19c-.3.32-7.26,8.1-6.59,22.92,1.4,30.74,23.09,41.64,41.25,41.64a22,22,0,0,0,16.71-7.74c7.32-8.19,10.57-21.46,8.9-36.43-1.76-15.9-11.25-22.51-11.66-22.78l-1-.67-1.19,0c-.08,0-2.11,0-5.21,0Z" transform="translate(-105.82 -212.92)"/><path class="cls-25" d="M967.57,437.43c4.44,7.12,2.6,16.49,0,22-.86,1.88-6.46,17.66-7.27,18.37-3.17,2.77,35.5,19.69,35.5,19.69l2.62-31.85c11.22.66,24.39.09,31.62-4.71,21.56-14.29,22.91-64,22.57-66.45l-18-20.24s-27.22-12.62-31.38-7.28c-7.59,9.78-25.41,53.56-38.25,48.54,0,0,1.64-13.62-9.72-13.62-8.47,0-10.78,6.79-10.78,10.72C944.49,425.82,961.6,427.83,967.57,437.43Z" transform="translate(-105.82 -212.92)"/><polygon class="cls-33" points="921.07 208.85 929.16 228.54 919.75 228.34 921.07 208.85"/><ellipse class="cls-34" cx="1013.45" cy="422.33" rx="7.13" ry="4.81" transform="translate(437.47 1201.57) rotate(-87.27)"/><ellipse class="cls-34" cx="1038.34" cy="421.74" rx="7.13" ry="4.81" transform="translate(461.76 1225.86) rotate(-87.27)"/><path class="cls-29" d="M1028.45,374a47.61,47.61,0,0,0,2.58,15.51c.22.6.44,1.23.69,1.83a46.31,46.31,0,0,0,6.33,11.18,42,42,0,0,0,28.77,16.41c.59.07,1.17.12,1.76.14V402.5h0c0-.51,0-1,0-1.53a89.22,89.22,0,0,0-17.89-54,83.87,83.87,0,0,0-6.71-7.83A45.13,45.13,0,0,0,1031.57,357,47.09,47.09,0,0,0,1028.45,374Z" transform="translate(-105.82 -212.92)"/><path class="cls-29" d="M965,372.93c0,11.81,10.69,21.77,25.3,24.83,1.16.25,2.33.45,3.54.6a45,45,0,0,0,6,.38c19.23,0,34.81-11.55,34.81-25.81a18.57,18.57,0,0,0-.43-4c-2.6-12.35-17-21.8-34.38-21.8-19,0-34.51,11.34-34.8,25.41C965,372.65,965,372.79,965,372.93Z" transform="translate(-105.82 -212.92)"/><path class="cls-35" d="M1025.73,448.57s-6.14,2-12.28-4.88" transform="translate(-105.82 -212.92)"/><path class="cls-29" d="M905,446.05h35.23a30,30,0,0,1,30,30v53.54a0,0,0,0,1,0,0H905a0,0,0,0,1,0,0V446.05A0,0,0,0,1,905,446.05Z" transform="translate(1769.41 762.67) rotate(-180)"/><path class="cls-36" d="M998.47,465.61s-14.18.39-20.22-2.92L997.7,475Z" transform="translate(-105.82 -212.92)"/><path class="cls-37" d="M998.16,435a46,46,0,0,1-7.17.56c-28.3,0-51.24-25.8-51.24-57.62s22.94-57.62,51.24-57.62a45.77,45.77,0,0,1,12.43,1.71c-24.91,3.92-44.07,28-44.07,57.06C959.35,406.1,975.87,428.77,998.16,435Z" transform="translate(-105.82 -212.92)"/><rect class="cls-37" x="842.67" y="166.18" width="123.4" height="58.67" rx="29.33"/><rect class="cls-38" x="880.99" y="166.18" width="102.03" height="58.67" rx="29.33"/><ellipse class="cls-38" cx="836.58" cy="195.51" rx="22.22" ry="26.15"/><ellipse class="cls-37" cx="831.24" cy="195.51" rx="13.35" ry="15.72"/><rect class="cls-31" x="917.08" y="192.44" width="38.62" height="6.15" rx="3.08"/><path class="cls-39" d="M1072.64,655.65,1030,677.25,833.59,776.82c-7.24,3.67-15.65-1.73-15.91-10.2l-1.25-40.35,221.93-112.48a10.8,10.8,0,0,1,14.35,4.58l18.46,32.85A12.52,12.52,0,0,1,1072.64,655.65Z" transform="translate(-105.82 -212.92)"/><path class="cls-39" d="M1112.24,705.47l-10.06,10.64a8.47,8.47,0,0,1-12.44,0l-17.62-18.63-1.46-1.54L1041,664.58a9.68,9.68,0,0,1,0-13.14l10.06-10.64a8.46,8.46,0,0,1,12.43,0l31,32.72,1.82,1.92,13.27,14,2.69,2.85A9.69,9.69,0,0,1,1112.24,705.47Z" transform="translate(-105.82 -212.92)"/><circle class="cls-40" cx="659.49" cy="568.83" r="20.51"/><rect class="cls-25" x="724.95" y="555.65" width="11.2" height="28.19" rx="5.6"/><rect class="cls-25" x="739.06" y="536.26" width="10.48" height="40.32" rx="5.24"/><rect class="cls-25" x="749.54" y="529.38" width="10.48" height="41.98" rx="5.24"/><rect class="cls-25" x="760.02" y="534.46" width="9.34" height="30.39" rx="4.67"/><path class="cls-41" d="M1053.89,674.15l-2.27,1.15L1009,696.89a21.42,21.42,0,0,1-1.58-8.07c0-6.47,3-12.39,8.35-15.1l16.77-8.49C1040.09,661.42,1049.44,665.4,1053.89,674.15Z" transform="translate(-105.82 -212.92)"/><path class="cls-38" d="M1048,694.3l-14.81,7.51c-6.87,3.48-15.12.41-18.4-6.86h0c-3.28-7.26-.38-16,6.48-19.42l14.81-7.51c6.87-3.48,15.1-.42,18.39,6.85h0C1057.79,682.12,1054.89,690.82,1048,694.3Z" transform="translate(-105.82 -212.92)"/><path class="cls-27" d="M1038.19,691.65l-7,3.57a7.35,7.35,0,0,1-10.06-3.75h0a8.18,8.18,0,0,1,3.54-10.63l7-3.56a7.36,7.36,0,0,1,10.06,3.74h0A8.17,8.17,0,0,1,1038.19,691.65Z" transform="translate(-105.82 -212.92)"/><path class="cls-25" d="M1158.85,609.49l-47.14,60.42-15.09,27.94s-19.93,12.3-24,9.12c-2.92-2.27-2.3-4.82-2.3-4.82s-3.21,1.64-5.88-.46c-2.2-1.74-1.57-5.38-1.57-5.38s-3.79,1.72-6.29-1.44c-1.6-2-1-4.45-.53-5.79,1.86-5.05,9.6-15.7,9.6-15.7L1038.8,691.3s-1.16-7.93,0-10.58c2.86-6.45,18.82-17.8,20.72-19.34s31.38-6.1,31.38-6.1l31.2-57.95-19.84-17.61,22.45-32.84,37.11,31.58C1168.12,586,1168.13,598.35,1158.85,609.49Z" transform="translate(-105.82 -212.92)"/><polygon class="cls-30" points="1016.29 384.41 996.44 366.8 1018.89 333.96 1016.29 384.41"/><line class="cls-42" x1="957.07" y1="483.39" x2="968.78" y2="469.23"/><line class="cls-42" x1="964.52" y1="489.23" x2="979.75" y2="478.36"/><line class="cls-42" x1="760.02" y1="539.39" x2="760.1" y2="560.84"/><line class="cls-42" x1="749.54" y1="541.8" x2="749.54" y2="565.83"/><path class="cls-33" d="M1062.63,574l-3-4.5s-.35-12.71-4.6-22.6l2.76,1.47C1061.73,556.88,1062.35,570.94,1062.63,574Z" transform="translate(-105.82 -212.92)"/><path class="cls-29" d="M997.34,479.36s1.75-.12,7.47,0,6.8.24,6.8.24l-3.89-10.13L998,471.45Z" transform="translate(-105.82 -212.92)"/><polygon class="cls-33" points="798.89 382.09 804 367.38 805.69 398.69 798.89 382.09"/></g></svg>