<svg xmlns="http://www.w3.org/2000/svg" xmlns:xlink="http://www.w3.org/1999/xlink" viewBox="0 0 1684.42 979.24"><defs><style>.cls-1{fill:#cce3ff;}.cls-2{fill:#dceeff;}.cls-3{fill:url(#linear-gradient);}.cls-4{fill:url(#linear-gradient-2);}.cls-5{fill:#b6d4ff;}.cls-6{fill:#ecf6ff;}.cls-22,.cls-25,.cls-26,.cls-7{fill:none;stroke-miterlimit:10;}.cls-7{stroke:#b6d4ff;stroke-linecap:round;stroke-width:28px;}.cls-8{fill:#767987;}.cls-9{fill:#2f3bb2;}.cls-10{fill:url(#linear-gradient-3);}.cls-11{fill:url(#linear-gradient-4);}.cls-12{fill:url(#linear-gradient-5);}.cls-13{fill:#101014;}.cls-14{fill:#fff;}.cls-15{fill:#405fd3;}.cls-16{fill:url(#linear-gradient-6);}.cls-17{fill:#cf3e83;}.cls-18{fill:#0d0b6d;}.cls-19{fill:#1a1a1e;}.cls-20{fill:#e576c6;}.cls-21{fill:#e2791a;}.cls-22,.cls-25{stroke:#0d0b6d;}.cls-22{stroke-width:9px;}.cls-23{fill:#ffc000;}.cls-24{fill:#313135;}.cls-25{stroke-width:7px;}.cls-26{stroke:#cf3e83;stroke-width:3px;}</style><linearGradient id="linear-gradient" x1="530.6" y1="585.12" x2="1035.72" y2="585.12" gradientTransform="translate(30.77 -8.22)" gradientUnits="userSpaceOnUse"><stop offset="0" stop-color="#dceeff" stop-opacity="0"/><stop offset="1" stop-color="#dceeff"/></linearGradient><linearGradient id="linear-gradient-2" x1="832.49" y1="451.03" x2="1253.04" y2="451.03" gradientTransform="translate(62.02 97.99)" xlink:href="#linear-gradient"/><linearGradient id="linear-gradient-3" x1="1346.43" y1="623.26" x2="1344.4" y2="733.39" gradientUnits="userSpaceOnUse"><stop offset="0" stop-color="#1c1c82"/><stop offset="1" stop-color="#2f3bb2"/></linearGradient><linearGradient id="linear-gradient-4" x1="540.63" y1="623.26" x2="538.6" y2="733.39" xlink:href="#linear-gradient-3"/><linearGradient id="linear-gradient-5" x1="1047.12" y1="859.81" x2="1038.49" y2="527.9" xlink:href="#linear-gradient-3"/><linearGradient id="linear-gradient-6" x1="905.87" y1="745.31" x2="903.65" y2="656" gradientUnits="userSpaceOnUse"><stop offset="0" stop-color="#171787" stop-opacity="0"/><stop offset="0.83" stop-color="#2f3bb2"/></linearGradient></defs><title>back and obj 20</title><g id="Layer_2" data-name="Layer 2"><circle class="cls-1" cx="404.3" cy="84.28" r="36.55"/><circle class="cls-1" cx="1425.82" cy="468.97" r="36.55"/><circle class="cls-2" cx="1599.69" cy="84.28" r="36.55"/><circle class="cls-2" cx="36.55" cy="417.97" r="36.55"/><path class="cls-1" d="M964.24,795a36.52,36.52,0,0,1-32.06,36.28,37,37,0,0,1-4.49.27,36.55,36.55,0,0,1-.12-73.1h.12A36.54,36.54,0,0,1,964.24,795Z" transform="translate(-177.06 -110.13)"/><path class="cls-2" d="M963.88,800.13a36.57,36.57,0,0,1-31.7,31.13,25.5,25.5,0,0,1,31.7-31.13Z" transform="translate(-177.06 -110.13)"/><path class="cls-2" d="M927.69,760.43A16.85,16.85,0,0,1,899,772.37a36.52,36.52,0,0,1,28.61-13.94A16.4,16.4,0,0,1,927.69,760.43Z" transform="translate(-177.06 -110.13)"/><circle class="cls-2" cx="747.74" cy="664.9" r="6.51"/><rect class="cls-3" x="561.37" y="546.88" width="505.11" height="60.04" transform="translate(96.01 -371.55) rotate(21.84)"/><rect class="cls-4" x="894.52" y="524.48" width="420.55" height="49.08" transform="translate(106.52 -481.77) rotate(21.84)"/><circle class="cls-2" cx="1122.91" cy="517.12" r="24.54"/><circle class="cls-2" cx="871.29" cy="560.73" r="30.02"/><circle class="cls-5" cx="871.29" cy="560.73" r="17.29"/><circle class="cls-5" cx="1122.91" cy="517.12" r="13.2"/><ellipse class="cls-2" cx="394.73" cy="517.53" rx="12.52" ry="37.99"/><circle class="cls-1" cx="172.36" cy="598.9" r="9.03"/><circle class="cls-1" cx="580.55" cy="578.02" r="9.03"/><circle class="cls-5" cx="493.08" cy="282.78" r="15.28"/><circle class="cls-2" cx="615.3" cy="56.66" r="9.03"/><circle class="cls-2" cx="394.73" cy="147.49" r="9.03"/><circle class="cls-2" cx="19.57" cy="62.3" r="9.03"/><circle class="cls-2" cx="1554.11" cy="35.21" r="9.03"/><circle class="cls-2" cx="1661.17" cy="190.83" r="9.03"/><circle class="cls-2" cx="1192.96" cy="314.71" r="9.03"/><circle class="cls-2" cx="1222.04" cy="53.27" r="9.03"/><circle class="cls-1" cx="1608.72" cy="606.74" r="9.03"/><ellipse class="cls-6" cx="759.6" cy="62.3" rx="14.99" ry="45.49"/><ellipse class="cls-6" cx="1231.07" cy="615.77" rx="18.14" ry="55.04"/><ellipse class="cls-2" cx="516.84" cy="721.4" rx="16.68" ry="50.6"/><ellipse class="cls-2" cx="1646.94" cy="412.52" rx="14.22" ry="43.15"/><circle class="cls-2" cx="946.16" cy="752.26" r="7.73"/><circle class="cls-2" cx="841.32" cy="212.71" r="10.94"/><circle class="cls-1" cx="674.19" cy="157.9" r="6.75"/><circle class="cls-2" cx="944.42" cy="73.01" r="19.79"/><circle class="cls-5" cx="1472.34" cy="759.98" r="9.97"/><circle class="cls-5" cx="333.76" cy="738.27" r="6.27"/><circle class="cls-5" cx="1007.63" cy="345.75" r="6.27"/><circle class="cls-2" cx="733.47" cy="412.52" r="6.27"/><circle class="cls-2" cx="524.55" cy="304.73" r="6.27"/><circle class="cls-2" cx="36.55" cy="644.46" r="6.27"/><circle class="cls-2" cx="459.92" cy="412.52" r="6.27"/><circle class="cls-2" cx="189" cy="455.66" r="7.61"/><circle class="cls-2" cx="195.32" cy="158.79" r="158.77"/><circle class="cls-6" cx="254.91" cy="67.95" r="24.04"/><circle class="cls-6" cx="254.82" cy="119.05" r="9.58"/><circle class="cls-6" cx="147.6" cy="245.51" r="9.58"/><path class="cls-1" d="M272.69,295.38c49.59,40.35,89.62-21.24,89.62-21.24-68.57,21-87.54-44.73-7.88-70.8,49.41-16.18,43.77-60.9,32.35-92.53A158.81,158.81,0,0,0,225,327.92a55.86,55.86,0,0,0,7.18-12.77C237.92,299,236.39,265.85,272.69,295.38Z" transform="translate(-177.06 -110.13)"/><path class="cls-1" d="M352.18,426.4a158.84,158.84,0,0,0,171-207.16c-5.17,8.52-15.43,16.6-34.79,5.93-33-18.19-39.78,32.74-13,50.6,15.11,10.08,28.45,28.53,9.78,42-20.52,14.77-55.68-50.25-88.21-26.36-43.69,32.1,32.92,80.31,3.69,94.71-18.28,9-31.38-16.24-31.38-16.24S329.37,407,293.19,376c-12-10.32-28.7-11.52-37.48.6A158.15,158.15,0,0,0,352.18,426.4Z" transform="translate(-177.06 -110.13)"/><circle class="cls-2" cx="1361.49" cy="212.71" r="159.47"/><path class="cls-6" d="M1698,319.13c-34.23,6.78-119.24,18.45-185.93-15.13-62.6-31.53-68.84-62.07-99-79.56a156.83,156.83,0,0,1,16.38-17.86,261.21,261.21,0,0,1,136.93,47.57c44.88,31.49,93.11,37.45,128.37,36.15A158.43,158.43,0,0,1,1698,319.13Z" transform="translate(-177.06 -110.13)"/><path class="cls-6" d="M1488,331.11c-2.34.93-45.71,17.49-108.92-7.34a161.09,161.09,0,0,1,11-59.23C1412.61,288.8,1463.84,339.91,1488,331.11Z" transform="translate(-177.06 -110.13)"/><path class="cls-6" d="M1687.37,380.24A158.31,158.31,0,0,1,1660.24,426c-39.83-14.75-115.44-37.71-172.16-24.72a274.09,274.09,0,0,1-85,5.67,159.43,159.43,0,0,1-18.11-41.14c34.19-.46,99.34-3.44,153.63-18.12C1594.26,332.58,1648,365.22,1687.37,380.24Z" transform="translate(-177.06 -110.13)"/><path class="cls-6" d="M1632.94,451.39a159.38,159.38,0,0,1-22,13.53c-39.25-15.77-89.49-32.8-116.6-28C1497.74,436.17,1554.21,424.81,1632.94,451.39Z" transform="translate(-177.06 -110.13)"/><path class="cls-6" d="M1683.9,257.17c-30.55-2.08-93.56-12.12-144.4-57.79-28-25.14,22.56-20.21,93.23-5.27A160.25,160.25,0,0,1,1683.9,257.17Z" transform="translate(-177.06 -110.13)"/><path class="cls-6" d="M1556.5,481.34a159.74,159.74,0,0,1-131.64-46.68C1452.48,436.45,1508,444.79,1556.5,481.34Z" transform="translate(-177.06 -110.13)"/><path class="cls-6" d="M1504.14,194.32c-5.07-.46-25.71-2.79-41.55-11.69a159.45,159.45,0,0,1,25.7-11.16C1494.05,182.5,1500.36,193,1504.14,194.32Z" transform="translate(-177.06 -110.13)"/><path class="cls-6" d="M1505.31,194.41a2,2,0,0,1-1.15-.09Z" transform="translate(-177.06 -110.13)"/><path class="cls-7" d="M1738.73,324.94c69,22.19,111.57,45.34,108.61,62.58-5.2,30.23-148.53,30.82-320.13,1.31s-306.5-77.92-301.31-108.14c3-17.71,53.49-25.25,129.25-22.52" transform="translate(-177.06 -110.13)"/></g><g id="Man"><ellipse class="cls-8" cx="811.93" cy="976.88" rx="623.08" ry="2.35"/><path class="cls-9" d="M659.3,763.43H456V694.28L663,354.51h93v321h63.84v87.95H756V879.94H659.3Zm13.64-87.95V490.57L561.37,675.48Z" transform="translate(-177.06 -110.13)"/><path class="cls-9" d="M938.54,858.52q-43.69-32.7-67.25-94.71T847.74,617.6q0-84.93,23.24-146.58t66.94-94.71q43.71-33.07,103.21-33.07T1144,376.31q43.38,33.09,66.64,94.71T1233.9,617.6q0,84.2-23.55,146.21t-66.95,94.71q-43.39,32.7-102.27,32.7T938.54,858.52ZM1113,741.63q25.41-44.34,25.41-122.52,0-78.93-25.1-124T1041.13,450q-47.12,0-72.21,45.1t-25.11,124q0,78.18,25.42,122.52t71.9,44.35Q1087.61,786,1113,741.63Z" transform="translate(-177.06 -110.13)"/><path class="cls-9" d="M1465.1,763.43H1261.79V694.28l207-339.77h93v321h63.85v87.95h-63.85V879.94H1465.1Zm13.63-87.95V490.57L1367.16,675.48Z" transform="translate(-177.06 -110.13)"/><rect class="cls-9" x="782.86" y="233.1" width="82.38" height="547.99"/><path class="cls-9" d="M659.3,763.43H456V694.28L663,354.51h93v321h63.84v87.95H756V879.94H659.3Zm13.64-87.95V490.57L561.37,675.48Z" transform="translate(-177.06 -110.13)"/><path class="cls-9" d="M1465.1,763.43H1261.79V694.28l207-339.77h93v321h63.85v87.95h-63.85V879.94H1465.1Zm13.63-87.95V490.57L1367.16,675.48Z" transform="translate(-177.06 -110.13)"/><rect class="cls-10" x="1304.88" y="653.3" width="79.85" height="116.51"/><rect class="cls-11" x="499.08" y="653.3" width="79.85" height="116.51"/><path class="cls-12" d="M1233.9,617.6q0,84.2-23.55,146.2t-66.95,94.72q-43.39,32.7-102.27,32.7H959.92V872.07a162.37,162.37,0,0,1-21.37-13.55q-43.71-32.7-67.26-94.72T847.74,617.6q0-84.93,23.24-146.58t66.95-94.71a160.4,160.4,0,0,1,22-14V343.23h81.21q59.5,0,102.89,33.08T1210.66,471Q1233.9,532.67,1233.9,617.6Z" transform="translate(-177.06 -110.13)"/><path class="cls-13" d="M1058.6,619.1q0,78.2-25.41,122.53T961.28,786q-46.49,0-71.9-44.35T864,619.1q0-78.92,25.1-124T961.28,450q47.1,0,72.22,45.1T1058.6,619.1Z" transform="translate(-177.06 -110.13)"/><path class="cls-14" d="M953.05,487.11c-3.64,0-6.59,7.25-6.59,16.18,0-8.93-3-16.18-6.59-16.18,3.64,0,6.59-7.24,6.59-16.18C946.46,479.87,949.41,487.11,953.05,487.11Z" transform="translate(-177.06 -110.13)"/><path class="cls-14" d="M1004,519.85c-6,0-10.84,11.91-10.84,26.61,0-14.7-4.85-26.61-10.84-26.61,6,0,10.84-11.92,10.84-26.61C993.16,507.93,998,519.85,1004,519.85Z" transform="translate(-177.06 -110.13)"/><path class="cls-14" d="M937.08,587.06c-4.46,0-8.07,8.87-8.07,19.81,0-10.94-3.61-19.81-8.06-19.81,4.45,0,8.06-8.86,8.06-19.8C929,578.2,932.62,587.06,937.08,587.06Z" transform="translate(-177.06 -110.13)"/><path class="cls-14" d="M1034.49,590.4c-2.71,0-4.9,5.39-4.9,12,0-6.65-2.2-12-4.9-12,2.7,0,4.9-5.38,4.9-12C1029.59,585,1031.78,590.4,1034.49,590.4Z" transform="translate(-177.06 -110.13)"/><path class="cls-14" d="M984,707.9c-5.31,0-9.61,10.57-9.61,23.6,0-13-4.3-23.6-9.61-23.6,5.31,0,9.61-10.56,9.61-23.59C974.4,697.34,978.7,707.9,984,707.9Z" transform="translate(-177.06 -110.13)"/><path class="cls-14" d="M904.3,650.65c-4.06,0-7.36,8.09-7.36,18.08,0-10-3.29-18.08-7.36-18.08,4.07,0,7.36-8.09,7.36-18.07C896.94,642.56,900.24,650.65,904.3,650.65Z" transform="translate(-177.06 -110.13)"/><path class="cls-15" d="M579.46,763.43H376.15V694.28l207-339.77h93v321H740v87.95H676.15V879.94H579.46Zm13.63-87.95V490.57L481.52,675.48Z" transform="translate(-177.06 -110.13)"/><path class="cls-15" d="M1130.81,471q-23.24-61.62-66.63-94.71t-102.9-33.08q-59.5,0-103.2,33.08T791.14,471q-15.95,42.27-20.95,95.48-2.3,24.4-2.3,51.1a512.56,512.56,0,0,0,3.91,64.93q5.69,44.52,19.65,81.27,23.55,62,67.25,94.72t102.58,32.7q58.89,0,102.28-32.7t66.94-94.72q23.55-62,23.56-146.2Q1154.06,532.67,1130.81,471Zm-97.62,270.61Q1007.77,786,961.28,786t-71.9-44.35Q864,697.29,864,619.1q0-78.92,25.1-124T961.28,450q47.1,0,72.22,45.1t25.1,124Q1058.6,697.3,1033.19,741.63Z" transform="translate(-177.06 -110.13)"/><path class="cls-15" d="M1385.25,763.43H1181.94V694.28l207-339.77h93v321h63.84v87.95H1482V879.94h-96.7Zm13.64-87.95V490.57L1287.31,675.48Z" transform="translate(-177.06 -110.13)"/><polygon class="cls-16" points="884.86 669.14 891.17 756.63 924.63 730.94 915.88 578.28 884.86 669.14"/><polygon class="cls-17" points="499.21 950.51 511.23 918.77 535.93 934.37 522.64 962.79 499.21 950.51"/><path class="cls-18" d="M677.68,1056.61l-10.47,30.18,106.48.23s-18.87-20.81-68.05-26.79Z" transform="translate(-177.06 -110.13)"/><polygon class="cls-19" points="574.33 605.02 563.14 770.26 493.89 939.87 540.54 945.47 616.94 794.39 649.34 622.34 574.33 605.02"/><path class="cls-20" d="M806.05,539.18,922.19,515.9s6.35.83,8.49,8.3S929.46,536,929.46,536l-119.55,49.1Z" transform="translate(-177.06 -110.13)"/><polygon class="cls-20" points="616.57 461.08 688.83 482.19 704.56 431.42 721.04 437.72 710.34 522.44 609.17 505.88 616.57 461.08"/><polygon class="cls-21" points="631.65 425.85 553.77 446.26 647.26 469.47 631.65 425.85"/><polyline class="cls-22" points="511.72 333.42 518.27 350.16 512.38 354.56 497.95 344.69"/><path class="cls-18" d="M785,441s32.23,24.32,2.33,41.42Z" transform="translate(-177.06 -110.13)"/><path class="cls-20" d="M714.52,503.7c-4.27-6.29-28.07-9.06-28.91,7.92-1.07,21.9,40,21.88,40,21.88l6.73,29.66L769,558.4l-7.08-26.09s34.63-6.75,40.69-12.38c0,0-3.77-34.57-15.37-56.61l-34.8-17.44-44,15.74Z" transform="translate(-177.06 -110.13)"/><path class="cls-18" d="M694.53,499.82s-24.27-2.84-6.13-36.17S733,437.7,733,437.7s-1-28.56,16.67-33.37c25.22-6.86,39.88,31,39.88,31s6.84-24.68,14.89-23.65,27.71,71.28-82,64.74c0,0,14,17-7.9,27.3C714.52,503.7,708.23,496.53,694.53,499.82Z" transform="translate(-177.06 -110.13)"/><path class="cls-14" d="M764.28,516.07c-1.43-3.2,2.8-8.13,9.14-8.9C782.83,506,789.13,513,785.84,518c-3.15,4.85-9.36-.08-14.63.89C768.33,519.45,765.36,518.51,764.28,516.07Z" transform="translate(-177.06 -110.13)"/><polygon class="cls-17" points="584.8 422.17 561.17 423.56 587.52 432.42 584.8 422.17"/><polygon class="cls-15" points="601.3 375 614.22 391.71 605.01 394.39 601.3 375"/><polygon class="cls-17" points="657.05 465 632.49 428.19 646.17 469.47 657.05 465"/><polygon class="cls-17" points="658.2 513.9 650.54 471.01 648.8 512.37 658.2 513.9"/><circle class="cls-18" cx="589.22" cy="379.48" r="4.84"/><circle class="cls-18" cx="612.47" cy="373.78" r="4.84"/><path class="cls-23" d="M750.68,722.9S674,609.68,730.84,556.39c13.24-12.4,97.09,17.21,97.09,17.21l-2.81,66.65-16.41-3.41,31.62,49.64,17.21,44s-44-9.94-93.28-7.22C760.87,723.46,750.68,722.9,750.68,722.9Z" transform="translate(-177.06 -110.13)"/><polygon class="cls-17" points="878.41 662.38 859.76 642.17 881.53 619.61 896.56 645.82 878.41 662.38"/><path class="cls-24" d="M1061.92,723.69,973.33,621a30.82,30.82,0,0,0-44.44-.92l-88.56,66.41s-12.55,34.5-83.56,37.37c0,0,26.93,62.07,89.38,40.07,28.14-9.91,107.75-78,107.75-78l89.55,86.84Z" transform="translate(-177.06 -110.13)"/><line class="cls-25" x1="584.38" y1="365.74" x2="576.01" y2="373.41"/><line class="cls-25" x1="606.83" y1="360.65" x2="620.54" y2="362.86"/><path class="cls-18" d="M1055.48,772.51l18.15,19L1093,688.41s-14.1,19.49-26.69,50.7Z" transform="translate(-177.06 -110.13)"/><polygon class="cls-21" points="631.65 526.71 592.3 516.8 640.91 541.24 631.65 526.71"/><path class="cls-20" d="M900,517.22a14.25,14.25,0,0,0-1.47,3.19,72.59,72.59,0,0,0-16.15,18.92c-6.72,11.57,13.6,16,13.6,16s6.28,1.13,8.07-.42,4-.78,5.32-1.61,2.3-5.19,5.65-7.08,1.08-8.57-.38-9.7-10.29-3.95-8.2-11C908.35,519.28,903.56,513.13,900,517.22Z" transform="translate(-177.06 -110.13)"/><path class="cls-26" d="M877.93,557.68l5-16.7s0-10.14,16.9-20.36" transform="translate(-177.06 -110.13)"/><path class="cls-26" d="M906.2,519.11s1.47,2.24,0,7.83,6.44,7.65,8.48,9.62a6.9,6.9,0,0,1,2,4.66" transform="translate(-177.06 -110.13)"/><line class="cls-26" x1="720.01" y1="445.96" x2="721.04" y2="436.88"/></g></svg>