<svg xmlns="http://www.w3.org/2000/svg" viewBox="0 0 1771.38 1029.96"><defs><style>.cls-1,.cls-4{fill:#ecf6ff;}.cls-1{stroke:#e1f0ff;stroke-width:20px;}.cls-1,.cls-10{stroke-linecap:round;}.cls-1,.cls-13,.cls-14,.cls-17,.cls-19,.cls-20,.cls-28,.cls-35,.cls-36,.cls-37,.cls-39{stroke-miterlimit:10;}.cls-2{fill:#b6d4ff;}.cls-3{fill:#d6ecfc;}.cls-5{fill:#cce3ff;}.cls-6{fill:#d9f0fe;}.cls-7{fill:#d9f2fe;}.cls-28,.cls-8{fill:#fff;}.cls-10,.cls-13,.cls-14,.cls-17,.cls-19,.cls-20,.cls-22,.cls-35,.cls-36,.cls-37,.cls-39,.cls-9{fill:none;}.cls-9{stroke:#b6d4ff;stroke-width:13px;}.cls-10,.cls-9{stroke-linejoin:round;}.cls-10{stroke:#fff;stroke-width:12px;}.cls-11{fill:#e9f6ff;}.cls-12{fill:#4866e5;}.cls-13,.cls-17,.cls-20{stroke:#6ca1ff;}.cls-13{stroke-width:4px;}.cls-14{stroke:#4866e5;}.cls-14,.cls-20{stroke-width:10px;}.cls-15{fill:#3043b2;}.cls-16{fill:#6ca1ff;}.cls-17{stroke-width:11px;}.cls-18{fill:#cf3e83;}.cls-19,.cls-28{stroke:#1a1d21;stroke-width:2px;}.cls-21{fill:#ffc000;}.cls-22{stroke:#2452ba;stroke-linejoin:bevel;stroke-width:7px;}.cls-23{fill:#afb3c6;}.cls-24{fill:#032466;}.cls-25{fill:#2355a5;}.cls-26{fill:#ffebf3;}.cls-27{fill:#db8b21;}.cls-29{fill:#0d0b6d;}.cls-30{fill:#a32646;}.cls-31{fill:#101016;}.cls-32{fill:#3c3c42;}.cls-33{fill:#ffc627;}.cls-34{fill:#e576c6;}.cls-35{stroke:#032466;stroke-width:9px;}.cls-36{stroke:#0f1016;stroke-width:5px;}.cls-37{stroke:#bf571d;}.cls-37,.cls-39{stroke-width:3px;}.cls-38{fill:#405fd3;}.cls-39{stroke:#182084;}.cls-40{fill:#1a1d21;}</style></defs><title>back and obj 1</title><g id="Back"><line class="cls-1" x1="1761.38" y1="908.41" x2="10" y2="908.41"/><rect class="cls-2" x="789" y="846.73" width="203.49" height="51.69"/><rect class="cls-3" x="979.56" y="846.73" width="12.92" height="51.69"/><rect class="cls-4" x="789" y="834.01" width="203.49" height="12.72"/><rect class="cls-4" x="789" y="871.09" width="197.03" height="6.36"/><rect class="cls-2" x="1515.88" y="846.73" width="203.49" height="51.69"/><rect class="cls-3" x="1706.44" y="846.73" width="12.92" height="51.69"/><rect class="cls-4" x="1515.88" y="834.01" width="203.49" height="12.72"/><rect class="cls-4" x="1515.88" y="871.09" width="197.03" height="6.36"/><rect class="cls-2" x="430.28" y="846.73" width="203.49" height="51.69"/><rect class="cls-3" x="620.84" y="846.73" width="12.92" height="51.69"/><rect class="cls-4" x="430.28" y="834.01" width="203.49" height="12.72"/><rect class="cls-4" x="430.28" y="871.09" width="197.03" height="6.36"/><rect class="cls-2" x="76.65" y="846.73" width="203.49" height="51.69"/><rect class="cls-3" x="267.22" y="846.73" width="12.92" height="51.69"/><rect class="cls-4" x="76.65" y="834.01" width="203.49" height="12.72"/><rect class="cls-4" x="76.65" y="871.09" width="197.03" height="6.36"/><rect class="cls-2" x="801.21" y="166.71" width="179.08" height="524.91"/><polygon class="cls-4" points="1011.15 130.03 1011.15 706.46 980.29 706.46 980.29 166.71 801.21 166.71 801.21 706.46 770.5 706.46 770.5 130.03 1011.15 130.03"/><rect class="cls-4" x="770.5" y="657.41" width="240.65" height="73.59"/><polygon class="cls-5" points="1025.33 706.46 845.96 706.46 801.21 657.41 980.58 657.41 1025.33 706.46"/><rect class="cls-5" x="965.64" y="166.71" width="14.65" height="490.71"/><rect class="cls-5" x="763.21" y="130.02" width="7.3" height="600.97"/><rect class="cls-6" x="801.21" y="635.61" width="172.98" height="21.8"/><rect class="cls-6" x="801.21" y="292.72" width="172.96" height="20.06"/><polygon class="cls-2" points="845.96 706.46 801.21 706.46 801.21 657.41 845.96 706.46"/><rect class="cls-2" x="443.28" y="166.71" width="179.08" height="524.91"/><polygon class="cls-4" points="653.21 130.03 653.21 706.46 622.35 706.46 622.35 166.71 443.27 166.71 443.27 706.46 412.56 706.46 412.56 130.03 653.21 130.03"/><rect class="cls-4" x="412.57" y="657.41" width="240.65" height="73.59"/><polygon class="cls-5" points="667.4 706.46 488.02 706.46 443.27 657.41 622.65 657.41 667.4 706.46"/><rect class="cls-5" x="607.71" y="166.71" width="14.65" height="490.71"/><rect class="cls-5" x="405.27" y="130.02" width="7.3" height="600.97"/><rect class="cls-6" x="443.28" y="635.61" width="172.98" height="21.8"/><rect class="cls-6" x="443.27" y="292.72" width="172.96" height="20.06"/><polygon class="cls-2" points="488.02 706.46 443.27 706.46 443.27 657.41 488.02 706.46"/><rect class="cls-2" x="85.6" y="166.71" width="179.08" height="524.91"/><polygon class="cls-4" points="295.53 130.03 295.53 706.46 264.68 706.46 264.68 166.71 85.59 166.71 85.59 706.46 54.88 706.46 54.88 130.03 295.53 130.03"/><rect class="cls-4" x="54.89" y="657.41" width="240.65" height="73.59"/><polygon class="cls-5" points="309.72 706.46 130.34 706.46 85.59 657.41 264.97 657.41 309.72 706.46"/><rect class="cls-5" x="250.03" y="166.71" width="14.65" height="490.71"/><rect class="cls-5" x="47.59" y="130.02" width="7.3" height="600.97"/><rect class="cls-6" x="85.6" y="635.61" width="172.98" height="21.8"/><rect class="cls-6" x="85.59" y="292.72" width="172.96" height="20.06"/><polygon class="cls-2" points="130.34 706.46 85.59 706.46 85.59 657.41 130.34 706.46"/><rect class="cls-2" x="1521.05" y="166.71" width="179.08" height="524.91"/><polygon class="cls-4" points="1730.98 130.03 1730.98 706.46 1700.13 706.46 1700.13 166.71 1521.05 166.71 1521.05 706.46 1490.34 706.46 1490.34 130.03 1730.98 130.03"/><rect class="cls-4" x="1490.34" y="657.41" width="240.65" height="73.59"/><polygon class="cls-5" points="1745.17 706.46 1565.79 706.46 1521.05 657.41 1700.42 657.41 1745.17 706.46"/><rect class="cls-5" x="1685.48" y="166.71" width="14.65" height="490.71"/><rect class="cls-5" x="1483.04" y="130.02" width="7.3" height="600.97"/><rect class="cls-6" x="1521.05" y="635.61" width="172.98" height="21.8"/><rect class="cls-6" x="1521.04" y="292.72" width="172.96" height="20.06"/><polygon class="cls-2" points="1565.79 706.46 1521.05 706.46 1521.05 657.41 1565.79 706.46"/><line class="cls-1" x1="1761.38" y1="768.26" x2="10" y2="768.26"/><rect class="cls-4" x="1168.87" y="159.95" width="218.77" height="671.08"/><rect class="cls-6" x="1168.87" y="159.95" width="218.77" height="671.08"/><rect class="cls-2" x="1168.87" y="159.95" width="130.46" height="587.38"/><rect class="cls-7" x="1165.87" y="744.34" width="164.56" height="47.85"/><path class="cls-2" d="M1445.56,895.69v41.85H1287V895.69h158.56m6-6H1281v53.85h170.56V889.69Z" transform="translate(-118.13 -148.36)"/><rect class="cls-6" x="1165.87" y="786.18" width="195.54" height="47.85"/><path class="cls-2" d="M1476.54,937.54v41.84H1287V937.54h189.54m6-6H1281v53.84h201.54V931.54Z" transform="translate(-118.13 -148.36)"/><polygon class="cls-8" points="1401.49 132.58 1401.49 831.03 1387.64 831.03 1387.64 159.95 1168.87 159.95 1168.87 831.03 1155.03 831.03 1155.03 132.58 1401.49 132.58"/><polygon class="cls-4" points="1428.26 82.42 1428.26 758.31 1401.49 758.31 1401.49 123.97 1155.03 123.97 1155.03 758.31 1128.26 758.31 1128.26 82.42 1428.26 82.42"/><polyline class="cls-9" points="1314.08 501.67 1270.97 593.16 1320.82 640.54 1367.23 556.18"/><rect class="cls-6" x="1151.46" y="834.03" width="261.59" height="61.38"/><path class="cls-2" d="M1528.18,985.38v55.39H1272.59V985.38h255.59m6-6H1266.59v67.39h267.59V979.38Z" transform="translate(-118.13 -148.36)"/><rect class="cls-2" x="1148.46" y="831.03" width="49.21" height="67.38"/><polyline class="cls-10" points="1368.23 555.18 1341.28 555.18 1288.13 502.67 1315.08 502.67"/><polygon class="cls-11" points="1303.11 0 1286.63 56.37 1268.89 56.37 1252.4 0 1303.11 0"/></g><g id="Man"><path class="cls-12" d="M842.47,230.72h0a9.54,9.54,0,0,1,9.54,9.54V267a0,0,0,0,1,0,0H832.93a0,0,0,0,1,0,0V240.25A9.54,9.54,0,0,1,842.47,230.72Z" transform="translate(1566.8 349.38) rotate(180)"/><line class="cls-13" x1="724.34" y1="61.1" x2="724.34" y2="82.33"/><path class="cls-14" d="M1018.64,236s1.8,32.31-68.26,32.31" transform="translate(-118.13 -148.36)"/><path class="cls-14" d="M881.69,267.43v24.11a36.82,36.82,0,1,1-73.64,0V267.43" transform="translate(-118.13 -148.36)"/><rect class="cls-15" x="664.48" y="96.69" width="190.77" height="46.31" rx="23.15"/><rect class="cls-16" x="664.48" y="96.69" width="75.9" height="46.31" rx="23.15"/><path class="cls-17" d="M937.55,242.15s.86,27-32.6,27" transform="translate(-118.13 -148.36)"/><path class="cls-14" d="M740.7,235.9s-1.85,32.3,70.15,32.3" transform="translate(-118.13 -148.36)"/><path class="cls-12" d="M612.72,82.46H631.8a0,0,0,0,1,0,0v26.77a9.54,9.54,0,0,1-9.54,9.54h0a9.54,9.54,0,0,1-9.54-9.54V82.46A0,0,0,0,1,612.72,82.46Z"/><path class="cls-16" d="M810.88,81.57H830a0,0,0,0,1,0,0v26.77a9.54,9.54,0,0,1-9.54,9.54h0a9.54,9.54,0,0,1-9.54-9.54V81.57a0,0,0,0,1,0,0Z"/><path class="cls-12" d="M891,82.54h19.08a0,0,0,0,1,0,0v26.77a9.54,9.54,0,0,1-9.54,9.54h0a9.54,9.54,0,0,1-9.54-9.54V82.54A0,0,0,0,1,891,82.54Z"/><line class="cls-13" x1="621.8" y1="61.23" x2="621.8" y2="82.46"/><path class="cls-18" d="M739.93,209.6H705.51c0-4.17,8.2-7.76,20-9.38C731.94,204.38,739.93,209.6,739.93,209.6Z" transform="translate(-118.13 -148.36)"/><path class="cls-19" d="M771.53,202.82c-7.23-5.44-19.38-7.59-30.84-6" transform="translate(-118.13 -148.36)"/><path class="cls-19" d="M871.25,204.77c-7.23-5.44-19.38-7.59-30.84-6" transform="translate(-118.13 -148.36)"/><path class="cls-19" d="M970.18,202.46c-6.89-5.86-18.89-8.73-30.42-7.82" transform="translate(-118.13 -148.36)"/><path class="cls-19" d="M1048,204.59c-7.24-5.44-19.39-7.59-30.84-6" transform="translate(-118.13 -148.36)"/><path class="cls-18" d="M774.34,209.6c0,3.86-7,7.2-17.44,9l-17-9Z" transform="translate(-118.13 -148.36)"/><line class="cls-13" x1="820.42" y1="60.31" x2="820.42" y2="81.54"/><path class="cls-18" d="M938.55,208.67H904.14c0-4.16,8.19-7.75,20-9.38C930.57,203.46,938.55,208.67,938.55,208.67Z" transform="translate(-118.13 -148.36)"/><path class="cls-18" d="M973,208.67c0,3.86-7,7.21-17.43,9l-17-9Z" transform="translate(-118.13 -148.36)"/><path class="cls-18" d="M842.47,209.46H808.05c0-4.17,8.2-7.76,20-9.38Z" transform="translate(-118.13 -148.36)"/><path class="cls-18" d="M876.88,209.46c0,3.86-7,7.21-17.44,9l-17-9Z" transform="translate(-118.13 -148.36)"/><line class="cls-13" x1="900.52" y1="61.31" x2="900.52" y2="82.54"/><path class="cls-18" d="M1018.65,209.67H984.23c0-4.16,8.2-7.75,20-9.38Z" transform="translate(-118.13 -148.36)"/><path class="cls-18" d="M1053.06,209.67c0,3.86-7,7.21-17.44,9l-17-9Z" transform="translate(-118.13 -148.36)"/><path class="cls-20" d="M948.33,265.84c12.63,0,12.63,11.34,12.63,11.34v14.91a36.83,36.83,0,0,1-36.82,36.83c-10.17,0-20.37-3.12-27-9.79s-9.78-11.62-9.78-24V281.9s.9-13.92-13.86-13.92" transform="translate(-118.13 -148.36)"/><ellipse class="cls-15" cx="711.74" cy="119.08" rx="4.4" ry="11.04"/><rect class="cls-15" x="706.28" y="108.04" width="5.46" height="22.08"/><ellipse class="cls-21" cx="706.28" cy="119.08" rx="4.4" ry="11.04"/><path class="cls-19" d="M992.69,215.37c7.23,5.44,19.38,7.59,30.84,6" transform="translate(-118.13 -148.36)"/><path class="cls-19" d="M811.91,216.4c7.23,5.43,19.38,7.59,30.84,6" transform="translate(-118.13 -148.36)"/><path class="cls-19" d="M702.56,207.43c-5.44,6.74,7.33,12.42,18.85,13.48" transform="translate(-118.13 -148.36)"/><path class="cls-19" d="M898.93,206.42c-5.43,6.74,7.34,12.42,18.86,13.48" transform="translate(-118.13 -148.36)"/><path class="cls-22" d="M502.66,981.8s238-374.42,342.21-653.43" transform="translate(-118.13 -148.36)"/><ellipse class="cls-23" cx="502.56" cy="1026.35" rx="248.54" ry="3.62"/><path class="cls-24" d="M477.08,967.63c-5.34,10.82-15.54,16.7-22.78,13.13l19.33-39.19C480.87,945.14,482.41,956.81,477.08,967.63Z" transform="translate(-118.13 -148.36)"/><path class="cls-24" d="M486.22,1059.3s20.93,24.93,18.47,38.93-32,38.2-32,38.2l-16,29.45a5.42,5.42,0,0,0,1.84,7.17h0a10.59,10.59,0,0,0,14.82-3.59l11.68-20,51.91-44.37a22.91,22.91,0,0,0,8-17.42v-36.51Z" transform="translate(-118.13 -148.36)"/><path class="cls-25" d="M722.64,1045.09c.26,23.49-10.72,51.28-16,63.33l-1.09-1.09s-.29-32.82-45.82-38.2c-31.71-3.75-48.78,5.64-69.94,12.14-2.32.72-4.69,1.4-7.14,2a112,112,0,0,1-24.43,3.53c-40.61,1.35-66.7-12.72-66.7-12.72a132,132,0,0,0-12.69-29.53,86.21,86.21,0,0,0-5.36-8c-6.6-8.71-15.1-16-25.64-17.71-78.41-12.91-83.46-43.86-80.22-60a34.3,34.3,0,0,1,3.71-10.26l9.68,2.68,59.33,16.46a21,21,0,0,1,17.47-9.43c11-.28,22.06,7.33,39.11,15.85,1.86.92,3.78,1.86,5.79,2.8a197.46,197.46,0,0,0,23.49,9.28c17,5.45,34,7,51.71,6.83l3.93-.06c27.2-.62,56.22-4.81,89.41-4.82,17.37,0,33.37,13.06,42.81,29.75A66.54,66.54,0,0,1,722.64,1045.09Z" transform="translate(-118.13 -148.36)"/><path class="cls-25" d="M470.38,1026.94s17.77,19.26,9.92,30.65c-9.62,14-16.55,26.27-18.92,38C457.07,1117,514,1164.32,514,1164.32s9.54-10.61-3.07-24.46l-23.09-36.58L535.26,1071Z" transform="translate(-118.13 -148.36)"/><circle class="cls-26" cx="333.51" cy="820.98" r="4.67"/><path class="cls-25" d="M492.25,964.45c-9.05,8-20.71,9.56-26.06,3.51L498.93,939C504.28,945.08,501.29,956.46,492.25,964.45Z" transform="translate(-118.13 -148.36)"/><path class="cls-24" d="M757.34,1125.73v43c0,3.25-3.36,5.89-7.49,5.89h-3.28c-1.61,0-2.9-1-2.88-2.29l.38-26.39a10.48,10.48,0,0,0-4.32-8.19l-37.52-29.42c6.77-12,20.73-39.84,20.4-63.33,0,.38,2.9,67.89,31.34,75.35C756.52,1121,757.34,1123.62,757.34,1125.73Z" transform="translate(-118.13 -148.36)"/><path class="cls-25" d="M685.83,992.76c.72,1.62,22.16,18.22,16.71-1.2s-44.33-39.22-44.33-39.22-3.63-9.3,10-6.88,64.29,17,61.86,57.41-68.95-10.11-68.95-10.11Z" transform="translate(-118.13 -148.36)"/><path class="cls-25" d="M716.57,1076.86l-13.78,44.38a3.29,3.29,0,0,0,.15,2.35l9.63,17.12A6.36,6.36,0,0,1,713,1146l-9.21,26.24a5.24,5.24,0,0,1-4.68,2.77h-8.54a2.58,2.58,0,0,1-2.54-3.43l8.47-22a8,8,0,0,0-1.87-8.52l-20-20a7.89,7.89,0,0,1-1.89-3.74l-18.34-92.07Z" transform="translate(-118.13 -148.36)"/><path class="cls-24" d="M381,951.69c0,5-3.72,9-8.31,9a7.87,7.87,0,0,1-5.09-1.89,34.3,34.3,0,0,1,3.71-10.26l9.68,2.68C381,951.39,381,951.54,381,951.69Z" transform="translate(-118.13 -148.36)"/><ellipse class="cls-21" cx="357.81" cy="901.57" rx="2.93" ry="8.21"/><rect class="cls-21" x="354.18" y="893.37" width="3.64" height="16.41"/><ellipse class="cls-27" cx="354.18" cy="901.57" rx="2.93" ry="8.21"/><path class="cls-18" d="M504.76,974.08c-15.65,16.16-26.13,41.85-27.23,71.09l-6.16-6.76c1.74-27.65,11.89-51.83,26.77-67.38C500.27,972,502.46,973.06,504.76,974.08Z" transform="translate(-118.13 -148.36)"/><path class="cls-28" d="M695.17,945.06s17.64,2.89,24,15.19" transform="translate(-118.13 -148.36)"/><path class="cls-22" d="M845.74,324.2s36.92,102.57,0,102.57S845.74,324.2,845.74,324.2Z" transform="translate(-118.13 -148.36)"/><ellipse class="cls-23" cx="1187.1" cy="1026.35" rx="222.46" ry="3.62"/><path class="cls-29" d="M1142.15,1117.18l-10.67,18.87s-44.41-30.77-71.18-28.62l73.85,67.7,34.15-50.77Z" transform="translate(-118.13 -148.36)"/><polygon class="cls-29" points="1325.87 946.26 1352.33 973.64 1341.97 1009.44 1308.02 1026.87 1360.43 1026.87 1394.34 968.89 1337.1 920.77 1325.87 946.26"/><path class="cls-18" d="M1277.63,753.82s-36.57-70.46-33.71-92.62,29.26-59.69,58.2-72.92L1333.61,636Z" transform="translate(-118.13 -148.36)"/><path class="cls-29" d="M1388.81,406.61S1348.09,429.9,1380,454" transform="translate(-118.13 -148.36)"/><polygon class="cls-30" points="1173.04 446.13 1183.1 508.31 1209.87 464.62 1173.04 446.13"/><polygon class="cls-18" points="1047.82 980.08 1033.03 1001.49 1013.35 987.69 1022.17 972 1047.82 980.08"/><polygon class="cls-18" points="1337.51 920.77 1370.42 948.96 1352.33 973.64 1332.53 953.23 1337.51 920.77"/><path class="cls-31" d="M1360.3,725.56c-34.78,187.7,128.25,343.57,128.25,343.57l-39.94,50s-72.62-72.33-124.92-177c-77.6-155.2-36-249.33-36-249.33Z" transform="translate(-118.13 -148.36)"/><polygon class="cls-32" points="1198.83 558.06 1011.31 974.59 1060.13 999.14 1280.44 594.44 1198.83 558.06"/><path class="cls-27" d="M1287.69,692.87l20-67.9-18.36-33.87s55.59-48.59,103.28-35.36l37.54,7.08s72.35,9.48,91.69,70.46l-76.78,29-46.49,80.55" transform="translate(-118.13 -148.36)"/><path class="cls-21" d="M1521.84,633.28l-2.06.83L1446,663.75l-2.31.93L1401,738.62q-3.4,1.1-6.94,2.14l-106.35-47.89,20-67.89s4.86-30.81,29.12-53.54c17-15.88,35.77-17.82,37.6-18h0a64.58,64.58,0,0,1,18.18,2.27l37.54,7.08S1502.5,572.31,1521.84,633.28Z" transform="translate(-118.13 -148.36)"/><path class="cls-33" d="M1401,738.62l-2.41,4.18-4.53-2Q1397.58,739.71,1401,738.62Z" transform="translate(-118.13 -148.36)"/><path class="cls-34" d="M1539.07,720.36c-5,56.15-170.77,65.23-170.77,65.23l-8-36.61c12-2.31,23.3-5.14,33.74-8.22q3.54-1.05,6.94-2.14c43.88-13.92,71-31.64,71-31.64l-26-43.23,73.82-29.64C1532.4,657.94,1541.92,688.3,1539.07,720.36Z" transform="translate(-118.13 -148.36)"/><path class="cls-34" d="M1460.76,489.28c5.85-6.62,33.7-6.31,32.16,13.38-2,25.4-48.46,19.7-48.46,19.7L1434,562.51l14.62,4.71s-48,29.14-74.26,19.91.21-33.67.21-33.67l11.55.86,15.88-39s-38.92-12.87-45.07-20.26c0,0,9.43-39.28,26-63l42.67-15,48.41,24.62Z" transform="translate(-118.13 -148.36)"/><path class="cls-29" d="M1484.38,487.75s28.38.3,12.38-40.78-47.54-36.46-47.54-36.46,5.39-32.76-14.3-40.92c-28.06-11.61-50.52,29.84-50.52,29.84s2.88-26.46-6.56-26.46-49.54,75.08,77.85,83.69c0,0-18.62,17.54,5.07,32.62C1460.76,489.28,1469.07,482,1484.38,487.75Z" transform="translate(-118.13 -148.36)"/><polyline class="cls-35" points="1377.87 265.85 1366.17 283.9 1372.02 290.46 1391.3 282.36"/><path class="cls-36" d="M1366,742.75s-7.89,6.45-3.74,26.62c3.37,16.38,9.36,19.29,9.36,19.29" transform="translate(-118.13 -148.36)"/><path class="cls-37" d="M1433.45,636.74" transform="translate(-118.13 -148.36)"/><path class="cls-37" d="M1448.35,662" transform="translate(-118.13 -148.36)"/><polygon class="cls-18" points="1283.87 366.92 1310.89 372 1279.22 378.33 1283.87 366.92"/><polygon class="cls-38" points="1271.07 315.82 1255.99 331.1 1264.95 334.92 1271.07 315.82"/><path class="cls-29" d="M1384.22,460a5.57,5.57,0,0,1-10.5-3.71Z" transform="translate(-118.13 -148.36)"/><path class="cls-29" d="M1408.78,469.27a5.57,5.57,0,0,1-10.5-3.71Z" transform="translate(-118.13 -148.36)"/><path class="cls-39" d="M1377.64,491.92s7.28,3.59,11.79-1.64" transform="translate(-118.13 -148.36)"/><polygon class="cls-27" points="1325.52 516.32 1303.61 483.28 1313.31 537.47 1325.52 516.32"/><path class="cls-40" d="M1308,442.87" transform="translate(-118.13 -148.36)"/></g></svg>