<svg xmlns="http://www.w3.org/2000/svg" viewBox="0 0 1771.38 1098.52"><defs><style>.cls-1{fill:#cce3ff;}.cls-2,.cls-4{fill:#ecf6ff;}.cls-3{fill:#dceeff;}.cls-4{stroke:#dceeff;stroke-width:20px;}.cls-11,.cls-12,.cls-4,.cls-6{stroke-linecap:round;}.cls-11,.cls-12,.cls-13,.cls-14,.cls-22,.cls-29,.cls-31,.cls-34,.cls-35,.cls-38,.cls-4,.cls-6,.cls-7{stroke-miterlimit:10;}.cls-5{fill:#afb3c6;}.cls-11,.cls-12,.cls-13,.cls-14,.cls-22,.cls-29,.cls-31,.cls-34,.cls-35,.cls-38,.cls-6,.cls-7{fill:none;}.cls-11,.cls-12,.cls-13,.cls-14,.cls-29,.cls-31,.cls-6{stroke:#0d0b6d;}.cls-6{stroke-width:16px;}.cls-7{stroke:#405fd3;stroke-width:15px;}.cls-8{fill:#0d0b6d;}.cls-9{fill:#405fd3;}.cls-10{fill:#6ca1ff;}.cls-11{stroke-width:28px;}.cls-12,.cls-13{stroke-width:6px;}.cls-14,.cls-34{stroke-width:4px;}.cls-15,.cls-17{fill:#247dff;}.cls-16{fill:#fff;}.cls-17,.cls-18{font-size:22.03px;font-family:Roboto-Bold, Roboto;font-weight:700;}.cls-18{fill:#696d72;}.cls-19{letter-spacing:-0.01em;}.cls-20{letter-spacing:-0.02em;}.cls-21{fill:#92969b;}.cls-22{stroke:#525559;}.cls-22,.cls-38{stroke-width:5px;}.cls-23{fill:#c3c3c3;}.cls-24{fill:#518ef4;}.cls-25{fill:#3865cd;}.cls-26{fill:#4070d8;}.cls-27{fill:#ffc000;}.cls-28{fill:#db8b21;}.cls-29{stroke-width:9px;}.cls-30{fill:#e576c6;}.cls-31,.cls-35{stroke-width:3px;}.cls-32{fill:#cf3e83;}.cls-33{fill:#2f2f3d;}.cls-34{stroke:#db8b21;}.cls-35{stroke:#cf3e83;}.cls-36{fill:#1d1c23;}.cls-37{fill:#4a4d59;}.cls-38{stroke:#111116;}</style></defs><title>back and obj 25</title><g id="Back"><rect class="cls-1" x="1242.03" y="453.03" width="452.36" height="326.9" rx="19.54"/><path class="cls-2" d="M1815.31,573.37V617.1H1363V573.37c0-10.74,7.21-19.54,16-19.54h420.32C1808.1,553.83,1815.31,562.63,1815.31,573.37Z" transform="translate(-120.92 -100.8)"/><circle class="cls-1" cx="1278.88" cy="486.34" r="15.08"/><circle class="cls-1" cx="1327.57" cy="486.34" r="15.08"/><circle class="cls-1" cx="1376.26" cy="486.34" r="15.08"/><rect class="cls-3" x="1193.3" y="369.26" width="452.36" height="326.9" rx="19.54"/><path class="cls-2" d="M1766.57,489.6v43.73H1314.22V489.6c0-10.74,7.2-19.54,16-19.54h420.32C1759.37,470.06,1766.57,478.86,1766.57,489.6Z" transform="translate(-120.92 -100.8)"/><circle class="cls-1" cx="1230.15" cy="402.57" r="15.08"/><circle class="cls-1" cx="1278.84" cy="402.57" r="15.08"/><circle class="cls-1" cx="1327.52" cy="402.57" r="15.08"/><rect class="cls-1" x="59.75" y="253.51" width="551.83" height="506.62" rx="19.54"/><path class="cls-2" d="M732.5,373.85v43.73H180.67V373.85a19.6,19.6,0,0,1,19.54-19.54H713A19.6,19.6,0,0,1,732.5,373.85Z" transform="translate(-120.92 -100.8)"/><circle class="cls-1" cx="96.6" cy="286.82" r="15.08"/><circle class="cls-1" cx="145.29" cy="286.82" r="15.08"/><circle class="cls-1" cx="193.97" cy="286.82" r="15.08"/><rect class="cls-3" x="120.05" y="358.13" width="551.83" height="506.62" rx="19.54"/><path class="cls-2" d="M792.81,478.46v43.73H241V478.46a19.6,19.6,0,0,1,19.54-19.54H773.27A19.6,19.6,0,0,1,792.81,478.46Z" transform="translate(-120.92 -100.8)"/><circle class="cls-1" cx="156.9" cy="391.44" r="15.08"/><circle class="cls-1" cx="205.59" cy="391.44" r="15.08"/><circle class="cls-1" cx="254.28" cy="391.44" r="15.08"/><rect class="cls-1" x="504.73" y="0.4" width="551.83" height="506.62" rx="19.54"/><path class="cls-2" d="M1177.48,120.34v43.73H625.65V120.34a19.6,19.6,0,0,1,19.54-19.54h512.75A19.6,19.6,0,0,1,1177.48,120.34Z" transform="translate(-120.92 -100.8)"/><circle class="cls-1" cx="541.1" cy="33.31" r="15.08"/><circle class="cls-1" cx="589.78" cy="33.31" r="15.08"/><circle class="cls-1" cx="638.47" cy="33.31" r="15.08"/><rect class="cls-1" x="1144.56" y="285.49" width="452.36" height="326.9" rx="19.54"/><path class="cls-2" d="M1717.84,405.83v43.73H1265.49V405.83c0-10.74,7.2-19.54,16-19.54h420.32C1710.64,386.29,1717.84,395.09,1717.84,405.83Z" transform="translate(-120.92 -100.8)"/><circle class="cls-1" cx="1181.41" cy="318.8" r="15.08"/><circle class="cls-1" cx="1230.1" cy="318.8" r="15.08"/><circle class="cls-1" cx="1278.79" cy="318.8" r="15.08"/><rect class="cls-1" x="735.55" y="569.73" width="120.35" height="22.92"/><rect class="cls-3" x="735.55" y="616" width="342.76" height="10.72"/><rect class="cls-3" x="735.55" y="678.01" width="354.22" height="10.72"/><rect class="cls-3" x="735.55" y="709.02" width="369.23" height="10.72"/><rect class="cls-3" x="735.55" y="740.02" width="224.32" height="10.72"/><rect class="cls-3" x="735.55" y="647.01" width="369.23" height="10.72"/><rect class="cls-1" x="81.52" y="32.64" width="107.36" height="22.92"/><rect class="cls-3" x="81.52" y="78.92" width="305.78" height="10.72"/><rect class="cls-3" x="81.52" y="140.93" width="316" height="10.72"/><rect class="cls-3" x="81.52" y="171.93" width="232.78" height="10.72"/><rect class="cls-3" x="81.52" y="109.92" width="329.39" height="10.72"/><rect class="cls-1" x="1395.11" y="59.4" width="189.73" height="32.14"/><rect class="cls-3" x="1395.11" y="120.77" width="240.26" height="13.96"/><rect class="cls-3" x="1395.11" y="152.91" width="189.73" height="13.96"/><path class="cls-3" d="M1462.46,219.42a102.84,102.84,0,1,1-102.84-102.84A102.52,102.52,0,0,1,1462.46,219.42Z" transform="translate(-120.92 -100.8)"/><path class="cls-2" d="M1439.06,219.42A79.44,79.44,0,1,1,1359.62,140,79.17,79.17,0,0,1,1439.06,219.42Z" transform="translate(-120.92 -100.8)"/><circle class="cls-1" cx="1238.7" cy="100.69" r="30.7"/><path class="cls-1" d="M1415.67,275.69a79.4,79.4,0,0,1-112.1,0,57.86,57.86,0,0,1,112.1,0Z" transform="translate(-120.92 -100.8)"/><line class="cls-4" x1="1761.38" y1="930.9" x2="10" y2="930.9"/></g><g id="Man"><ellipse class="cls-5" cx="840.31" cy="1095.12" rx="635.31" ry="3.4"/><line class="cls-6" x1="843.23" y1="535.28" x2="910.93" y2="617.74"/><path class="cls-7" d="M1054.46,756.35s1.68-37.76-23.82-36.38c-26.53,1.43-6.91,39.55-6.91,39.55" transform="translate(-120.92 -100.8)"/><rect class="cls-8" x="885.77" y="365.82" width="32.66" height="19.31" rx="9.65"/><rect class="cls-9" x="933.34" y="576.71" width="126.62" height="51.83" rx="24.77" transform="translate(-285.7 588.72) rotate(-35.44)"/><rect class="cls-8" x="951.31" y="552.59" width="34.77" height="55.17"/><rect class="cls-10" x="895.16" y="446.59" width="147.08" height="117.94" rx="39.69"/><line class="cls-6" x1="933.39" y1="623.04" x2="915.26" y2="822.89"/><rect class="cls-10" x="922.8" y="600.53" width="91.79" height="28.22" rx="14.11"/><line class="cls-6" x1="915.26" y1="840.94" x2="922.8" y2="1070.69"/><line class="cls-6" x1="1005.44" y1="621.58" x2="1006.44" y2="820.93"/><line class="cls-6" x1="1006.44" y1="829.46" x2="1033.34" y2="1077.15"/><ellipse class="cls-9" cx="911.26" cy="824.89" rx="19.26" ry="24.62"/><line class="cls-6" x1="996.73" y1="338.18" x2="1079.15" y2="404.82"/><polygon class="cls-9" points="908.7 1095.12 935.46 1095.12 935.46 1062.2 843.46 1033.89 908.7 1095.12"/><polygon class="cls-9" points="974 1095.12 1053.85 1095.12 1041.23 1062.82 974 1095.12"/><rect class="cls-9" x="1113.46" y="515.47" width="126.62" height="51.83" rx="24.77" transform="translate(-144.61 927.2) rotate(-46.77)"/><line class="cls-11" x1="951.05" y1="409.92" x2="961.28" y2="447.56"/><rect class="cls-10" x="903.93" y="323.66" width="87.23" height="105.69" rx="41.62"/><path class="cls-12" d="M1035.77,405.08s15.38,9.69,17.08,26.46" transform="translate(-120.92 -100.8)"/><circle class="cls-10" cx="912.93" cy="300.2" r="10.38"/><rect class="cls-8" x="922.69" y="482.38" width="57.23" height="43.49" rx="12"/><circle class="cls-8" cx="939.29" cy="369.14" r="5.45"/><circle class="cls-8" cx="1083.43" cy="411.24" r="9.82"/><circle class="cls-8" cx="1029.89" cy="466.83" r="9.82"/><circle class="cls-8" cx="843.3" cy="524.9" r="9.82"/><circle class="cls-8" cx="910.98" cy="369.26" r="5.45"/><polygon class="cls-9" points="927.51 362.31 913.76 384.14 928.57 384.5 927.51 362.31"/><line class="cls-13" x1="912.39" y1="355.2" x2="902.46" y2="360.82"/><line class="cls-13" x1="938.69" y1="354.89" x2="947.23" y2="359.66"/><path class="cls-8" d="M984,363.75h13a9.65,9.65,0,0,1,9.65,9.65v0a9.65,9.65,0,0,1-9.65,9.65H984a0,0,0,0,1,0,0V363.75A0,0,0,0,1,984,363.75Z"/><path class="cls-14" d="M1064.59,488.94c-6.55-1.12-12.68,2.63-13.34,6.55" transform="translate(-120.92 -100.8)"/><rect class="cls-9" x="911.26" y="800.28" width="10.59" height="49.23"/><ellipse class="cls-9" cx="921.32" cy="824.89" rx="19.26" ry="24.62"/><ellipse class="cls-8" cx="924.32" cy="824.89" rx="9.63" ry="14.41"/><ellipse class="cls-9" cx="1001.43" cy="824.89" rx="19.26" ry="24.62"/><rect class="cls-9" x="1001.43" y="800.28" width="10.59" height="49.23"/><ellipse class="cls-9" cx="1011.49" cy="824.89" rx="19.26" ry="24.62"/><ellipse class="cls-8" cx="1014.49" cy="824.89" rx="9.63" ry="14.41"/><path class="cls-7" d="M1074,428.36s25.51,27.88,42.58,8.87c17.74-19.77-23.08-32.85-23.08-32.85" transform="translate(-120.92 -100.8)"/><rect class="cls-15" x="239.92" y="127.51" width="533.39" height="654.77" rx="44.77"/><rect class="cls-16" x="277.92" y="230.86" width="463.41" height="69.8" rx="10.28"/><rect class="cls-16" x="354.72" y="665.56" width="309.82" height="69.8" rx="33.57"/><rect class="cls-16" x="277.92" y="506.09" width="463.41" height="111.54" rx="10.28"/><text class="cls-17" transform="translate(467.26 708.53)">SIGN UP</text><text class="cls-18" transform="translate(389.23 568.3)">I<tspan class="cls-19" x="6.42" y="0">’</tspan><tspan x="11.26" y="0">m not a </tspan><tspan class="cls-20" x="90.85" y="0">r</tspan><tspan x="98.49" y="0">obot</tspan></text><rect class="cls-21" x="305.71" y="258.67" width="213.49" height="14.19"/><rect class="cls-16" x="277.92" y="390.67" width="463.41" height="69.8" rx="10.28"/><rect class="cls-16" x="277.92" y="338.32" width="141.6" height="19.14"/><rect class="cls-16" x="277.92" y="178.5" width="113.48" height="19.14"/><circle class="cls-21" cx="315.9" cy="425.57" r="9.19"/><circle class="cls-21" cx="344.49" cy="425.57" r="9.19"/><circle class="cls-21" cx="373.08" cy="425.57" r="9.19"/><circle class="cls-21" cx="401.67" cy="425.57" r="9.19"/><circle class="cls-21" cx="430.26" cy="425.57" r="9.19"/><circle class="cls-21" cx="458.85" cy="425.57" r="9.19"/><circle class="cls-21" cx="487.43" cy="425.57" r="9.19"/><rect class="cls-22" x="308.39" y="536.25" width="51.22" height="51.22" rx="12"/><path class="cls-23" d="M825,681.86a26.93,26.93,0,0,1-28.85,6.25l-.7-.28-.88-.4-.48-.23-.58-.3c-.26-.13-.51-.26-.77-.41L792,686c-.28-.16-.56-.34-.84-.52l-.74-.5,0,0c-.08,0-.15-.1-.22-.14a.83.83,0,0,0-.18-.13h0c-.26-.18-.51-.37-.76-.56s-.6-.48-.9-.73-.44-.38-.65-.59-.24-.21-.37-.33-.41-.4-.61-.6l-.17-.18,0-.05a8.42,8.42,0,0,1-.64-.7c-.19-.2-.37-.41-.54-.62l-.13-.15c-.28-.34-.55-.69-.82-1.05s-.52-.34-.84,0c-1.34,1.36-2.69,2.7-4,4-.17.17-.29.4-.58.44-.19-.15-.1-.37-.1-.55q0-10.23,0-20.47c0-.27-.08-.56.12-.79.13.32-.17.71.18,1l14,0c.15,0,.34,0,.43-.06h0a.37.37,0,0,0,.06-.21l.11,0c.11.43.46.31.72.31h5.25c0,.31-.23.4-.37.55l-3.76,3.77a3.09,3.09,0,0,0-.41.47l-.43.42a12.49,12.49,0,0,0,11,7.17h.34a12.36,12.36,0,0,0,8.64-3.5c.17,0,.31.08.51.27,1.5,1.36,2.85,2.86,4.3,4.27,1.8,1.74,3.54,3.55,5.36,5.28A.76.76,0,0,1,825,681.86Z" transform="translate(-120.92 -100.8)"/><path class="cls-24" d="M805.94,650.29v6.41l-3.28-3.32a3,3,0,0,0-.32-.3v0c-.3-.3-.6-.57-.87-.88a.87.87,0,0,1-.09-.11l-.15-.15-.49-.49a12.42,12.42,0,0,0-7.26,11.11H779.64c-.22,0-.52-.12-.59.26-.35-.28,0-.67-.18-1h0A26.83,26.83,0,0,1,790.26,641l-5.12-5.19c.25-.18,20.78-.1,20.78-.1V636S805.94,645.56,805.94,650.29Z" transform="translate(-120.92 -100.8)"/><path class="cls-25" d="M832.85,662.8c-2.34,0-9.28,0-14.47,0-3.4,0-6,0-6.15-.1l5.09-5a12.46,12.46,0,0,0-11.38-7.43c0-4.73,0-14.3,0-14.3s8.81,8.49,12.57,12.25a7.72,7.72,0,0,0,.61.53c.09.12.17.24.27.35,3.36,3.37,6.72,6.75,10.11,10.1.82.81,1.72,1.53,2.58,2.29.1.1.19.26.36.2s.13-.25.13-.39c0-.49,0-1,0-1.47,0-.23-.08-.52.28-.57C832.85,660.45,832.85,661.63,832.85,662.8Z" transform="translate(-120.92 -100.8)"/><path class="cls-26" d="M793.52,662.54a.37.37,0,0,1-.06.21h0c-.09.1-.28.06-.43.06l-14,0c.07-.38.37-.26.59-.26h13.88Z" transform="translate(-120.92 -100.8)"/><path class="cls-26" d="M832.85,662.8S806,636.4,805.92,636a27.81,27.81,0,0,1,21.76,11.31L833,642Z" transform="translate(-120.92 -100.8)"/><path class="cls-27" d="M1376,709.23l-3.67-56.71L1314.6,600s19.94-28.18,36.22-42.46c15.2-13.34,32.85-25.15,76.78-27.2,47.09-2.2,71.25.89,95.25,19.2,18.72,14.28,38.46,49.64,38.46,49.64L1506.63,641l-3.78,68.2Z" transform="translate(-120.92 -100.8)"/><polygon class="cls-28" points="1384.36 564.52 1385.7 540.23 1361.41 505.36 1384.36 564.52"/><polyline class="cls-29" points="1337.95 293.58 1338.54 313.81 1346.57 315.77 1357.18 299.2"/><path class="cls-8" d="M1358.1,434s-22.69,39.38,15.81,43.93Z" transform="translate(-120.92 -100.8)"/><path class="cls-30" d="M1452.91,498.14l5.63,32.06,11.59.56s-3.72,27.39-40.54,27.39c-33.69,0-21.8-26.47-21.8-26.47l8.28-.76-3.42-26.2" transform="translate(-120.92 -100.8)"/><path class="cls-30" d="M1422.23,518.48s-38.85,8.25-47.61,5.08c0,0-11.3-37.47-9-65.41L1394,424.78l52.52-3.07,12.15,46.3c1.66-8.39,25.1-21.74,33.44-4.52,10.75,22.21-31.84,40.28-31.84,40.28" transform="translate(-120.92 -100.8)"/><path class="cls-8" d="M1477.69,455.19s23.89-13.62-9.57-40.16-57.58-7.27-57.58-7.27-11.51-30-32-27.24c-29.14,4-27.67,49.65-27.67,49.65s-17.94-22.56-25.84-17.95,2.67,86,113.43,31c0,0-7,23.77,20.19,24.8C1458.68,468,1462.05,457.82,1477.69,455.19Z" transform="translate(-120.92 -100.8)"/><path class="cls-31" d="M1414.1,497.94c-5.56,0-9.31,5.27-7.87,9" transform="translate(-120.92 -100.8)"/><path class="cls-31" d="M1411,463.05c-4.7-3-10.69-.53-11.45,3.38" transform="translate(-120.92 -100.8)"/><polygon class="cls-9" points="1271.45 376.4 1268.1 399.95 1278.6 397.44 1271.45 376.4"/><circle class="cls-8" cx="1287.08" cy="377.58" r="5.45"/><circle class="cls-8" cx="1259.63" cy="384.5" r="5.45"/><path class="cls-8" d="M1392.18,1144.05l2,24s-48.78,8.27-65.31,28.31h97.59l-6.17-66.91Z" transform="translate(-120.92 -100.8)"/><path class="cls-8" d="M1485.6,1142.63l5.25,26.29s-20.54,2.88-28.91,27.39h66.52l-6.66-28.85-7.6-26.29Z" transform="translate(-120.92 -100.8)"/><polygon class="cls-32" points="1300.33 1034.73 1302.74 1065.6 1273.22 1067.2 1271.26 1043.25 1300.33 1034.73"/><polygon class="cls-32" points="1396.32 1032.76 1400.88 1066.66 1369.93 1068.12 1364.68 1041.83 1396.32 1032.76"/><polygon class="cls-33" points="1255.05 608.43 1249.58 835.41 1262.36 1055.6 1310.59 1056.39 1314.55 835.41 1335.2 608.43 1255.05 608.43"/><polygon class="cls-33" points="1302.11 608.43 1357.28 1057.31 1406.03 1057.31 1381.92 608.43 1302.11 608.43"/><line class="cls-34" x1="1250.14" y1="545.67" x2="1246.22" y2="495.23"/><path class="cls-30" d="M1481.15,717.85l48.37-55.5-15.77-26.77,40-30.62s22.2,39.12,20.22,52c-5.66,36.92-78.91,90.77-78.91,90.77" transform="translate(-120.92 -100.8)"/><path class="cls-30" d="M1399.1,670.62s-104.42,16.7-113.31-2.72c-8-17.44,32.79-64.28,32.79-64.28l37.22,33.89-.18.26,52.67,2.56" transform="translate(-120.92 -100.8)"/><line class="cls-35" x1="1202.57" y1="535.87" x2="1235.38" y2="537.11"/><polygon class="cls-36" points="1320.21 773.13 1307.51 656.49 1316.24 816.83 1320.21 773.13"/><path class="cls-30" d="M1394,657.07s-6.18,15.67-2.85,22.49,27.8,6.29,32.53,3S1435.48,649,1431,643.9s-27.81-3.72-27.81-3.72" transform="translate(-120.92 -100.8)"/><rect class="cls-33" x="1246.92" y="533.05" width="16.82" height="42.62" rx="3.39"/><rect class="cls-37" x="1240.8" y="530.28" width="29.06" height="8.09" rx="3.54"/><line class="cls-31" x1="1252.59" y1="376.58" x2="1262.85" y2="375.81"/><path class="cls-38" d="M1479.46,715.85s1.85,15.07,16.77,33.38" transform="translate(-120.92 -100.8)"/><polygon class="cls-32" points="1392.83 534.78 1432.83 504.17 1400.59 547.96 1392.83 534.78"/></g></svg>