<svg xmlns="http://www.w3.org/2000/svg" viewBox="0 0 1771.38 1128.28"><defs><style>.cls-1{fill:#cce3ff;}.cls-2,.cls-3{fill:#dceeff;}.cls-11,.cls-14,.cls-3,.cls-4,.cls-7{stroke:#dceeff;}.cls-10,.cls-11,.cls-13,.cls-14,.cls-17,.cls-20,.cls-21,.cls-22,.cls-23,.cls-25,.cls-28,.cls-29,.cls-3,.cls-34,.cls-4,.cls-7,.cls-8,.cls-9{stroke-miterlimit:10;}.cls-22,.cls-29,.cls-3,.cls-4{stroke-width:5px;}.cls-4,.cls-6{fill:#fff;}.cls-5{fill:#b6d4ff;}.cls-10,.cls-11,.cls-13,.cls-17,.cls-20,.cls-21,.cls-23,.cls-25,.cls-28,.cls-29,.cls-34,.cls-7,.cls-8,.cls-9{fill:none;}.cls-13,.cls-7{stroke-width:9px;}.cls-10,.cls-13,.cls-8{stroke:#b6d4ff;}.cls-23,.cls-8,.cls-9{stroke-width:13px;}.cls-9{stroke:#cce3ff;}.cls-10{stroke-width:18px;}.cls-11{stroke-width:16px;}.cls-12{fill:#d2e9fc;}.cls-14{fill:#ecf6ff;stroke-width:20px;}.cls-14,.cls-25,.cls-28,.cls-29{stroke-linecap:round;}.cls-15{fill:#405fd3;}.cls-16{fill:#ffc000;}.cls-17,.cls-20,.cls-21,.cls-22,.cls-23{stroke:#fff;}.cls-17{stroke-width:6px;}.cls-18{fill:#cf3e83;}.cls-19,.cls-22{fill:#6ca1ff;}.cls-20{stroke-width:4px;}.cls-21{stroke-width:15px;}.cls-24{fill:#afb3c6;}.cls-25{stroke:#515256;}.cls-25,.cls-34{stroke-width:3px;}.cls-26{fill:#e576c6;}.cls-27{fill:#ff9100;}.cls-28,.cls-29{stroke:#1d294f;}.cls-28{stroke-width:8px;}.cls-30{fill:#0d0b6d;}.cls-31{fill:#2b2a38;}.cls-32{fill:#240040;}.cls-33{fill:#101016;}.cls-34{stroke:#1c295e;}.cls-35{fill:#bc3579;}</style></defs><title>back and obj 28</title><g id="Back"><rect class="cls-1" x="104.56" y="889.89" width="14.89" height="42.11"/><rect class="cls-1" x="181.83" y="889.89" width="14.89" height="42.11"/><rect class="cls-1" x="397.3" y="889.89" width="14.89" height="42.11"/><rect class="cls-1" x="476.82" y="889.89" width="14.89" height="42.11"/><path class="cls-2" d="M328.48,330.17h0a12.5,12.5,0,0,1,12.5,12.5V455.14a0,0,0,0,1,0,0H316a0,0,0,0,1,0,0V342.67a12.5,12.5,0,0,1,12.5-12.5Z" transform="translate(-177.11 630.67) rotate(-90)"/><path class="cls-1" d="M366.3,368h0a7.24,7.24,0,0,1,7.24,7.24V417a.3.3,0,0,1-.3.3H359.36a.3.3,0,0,1-.3-.3V375.23A7.24,7.24,0,0,1,366.3,368Z" transform="translate(-139.28 668.49) rotate(-90)"/><path class="cls-2" d="M305.42,350h25a0,0,0,0,1,0,0V472.78a12.5,12.5,0,0,1-12.5,12.5h0a12.5,12.5,0,0,1-12.5-12.5V350A0,0,0,0,1,305.42,350Z" transform="translate(-212.66 645.11) rotate(-90)"/><path class="cls-1" d="M271.95,388.83h14.33a0,0,0,0,1,0,0v50.47a7.17,7.17,0,0,1-7.17,7.17h0a7.17,7.17,0,0,1-7.17-7.17V388.83A0,0,0,0,1,271.95,388.83Z" transform="translate(-251.47 606.31) rotate(-90)"/><rect class="cls-3" x="318.47" y="223.16" width="125.25" height="105.25" transform="translate(649.26 461.1) rotate(-180)"/><rect class="cls-4" x="311.1" y="223.3" width="125.25" height="105.25" transform="translate(634.53 461.39) rotate(-180)"/><rect class="cls-2" x="219.51" y="154.3" width="80.8" height="62.04"/><path class="cls-2" d="M490.33,406.47l12.41-120.93h38.8L554,406.47a21.49,21.49,0,0,1-21.38,23.68H511.71A21.49,21.49,0,0,1,490.33,406.47Z" transform="translate(-112.93 -90.46)"/><rect class="cls-2" x="104.56" y="364.77" width="292.73" height="525.12"/><rect class="cls-1" x="123.73" y="785.6" width="254.4" height="77.86"/><rect class="cls-1" x="123.73" y="686.53" width="254.4" height="77.86"/><rect class="cls-1" x="123.73" y="587.46" width="254.4" height="77.86"/><rect class="cls-1" x="123.73" y="488.39" width="254.4" height="77.86"/><rect class="cls-1" x="123.73" y="389.32" width="254.4" height="77.86"/><rect class="cls-1" x="397.3" y="364.77" width="94.41" height="525.12"/><rect class="cls-1" x="89.97" y="339.69" width="319.53" height="25.08"/><rect class="cls-5" x="409.5" y="339.69" width="98.01" height="25.08"/><path class="cls-5" d="M203.83,389.32H298a0,0,0,0,1,0,0v3.49a10.1,10.1,0,0,1-10.1,10.1h-74a10.1,10.1,0,0,1-10.1-10.1v-3.49A0,0,0,0,1,203.83,389.32Z"/><path class="cls-5" d="M203.83,488.39H298a0,0,0,0,1,0,0v3.49a10.1,10.1,0,0,1-10.1,10.1h-74a10.1,10.1,0,0,1-10.1-10.1v-3.49A0,0,0,0,1,203.83,488.39Z"/><path class="cls-5" d="M203.83,587.46H298a0,0,0,0,1,0,0V591a10.1,10.1,0,0,1-10.1,10.1h-74a10.1,10.1,0,0,1-10.1-10.1v-3.49a0,0,0,0,1,0,0Z"/><path class="cls-5" d="M203.83,686.53H298a0,0,0,0,1,0,0V690a10.1,10.1,0,0,1-10.1,10.1h-74a10.1,10.1,0,0,1-10.1-10.1v-3.49A0,0,0,0,1,203.83,686.53Z"/><path class="cls-5" d="M203.83,785.6H298a0,0,0,0,1,0,0v3.49a10.1,10.1,0,0,1-10.1,10.1h-74a10.1,10.1,0,0,1-10.1-10.1V785.6a0,0,0,0,1,0,0Z"/><rect class="cls-5" x="1056.27" y="282.46" width="15.12" height="743.62" transform="translate(2014.72 1218.08) rotate(180)"/><path class="cls-5" d="M1070.89,252.43a161,161,0,0,0-321.94,0Z" transform="translate(-112.93 -90.46)"/><rect class="cls-2" x="622.7" y="192" width="323.64" height="743.62"/><rect class="cls-1" x="651.99" y="221.54" width="265.06" height="714.08"/><path class="cls-2" d="M1058.89,251.43a161,161,0,0,0-321.94,0Z" transform="translate(-112.93 -90.46)"/><path class="cls-2" d="M1058.89,252.43a161,161,0,0,0-321.94,0Z" transform="translate(-112.93 -90.46)"/><path class="cls-5" d="M1010.66,222.77H771.84C784.21,165.33,833,122.46,891.25,122.46S998.29,165.33,1010.66,222.77Z" transform="translate(-112.93 -90.46)"/><path class="cls-6" d="M1023,222.77H784.18c12.37-57.44,61.13-100.31,119.41-100.31S1010.63,165.33,1023,222.77Z" transform="translate(-112.93 -90.46)"/><circle class="cls-6" cx="784.52" cy="379.54" r="9.69"/><circle class="cls-2" cx="889.99" cy="534.62" r="11.54"/><circle class="cls-2" cx="889.99" cy="575.62" r="11.54"/><line class="cls-7" x1="893.84" y1="534.62" x2="845.22" y2="534.62"/><line class="cls-8" x1="1106.48" y1="725.25" x2="1106.48" y2="935.36"/><line class="cls-8" x1="1676.56" y1="725.25" x2="1676.56" y2="935.36"/><polygon class="cls-1" points="1167.3 873.6 1236.48 845.15 1269.45 845.15 1269.45 873.6 1167.3 873.6"/><polygon class="cls-2" points="1228.3 873.6 1297.48 845.15 1330.45 845.15 1330.45 873.6 1228.3 873.6"/><polygon class="cls-1" points="1368.74 873.6 1447.46 841.23 1484.99 841.23 1484.99 873.6 1368.74 873.6"/><polygon class="cls-2" points="1438.16 873.6 1516.88 841.23 1554.4 841.23 1554.4 873.6 1438.16 873.6"/><polygon class="cls-1" points="1037.3 792.6 1106.48 764.15 1139.45 764.15 1139.45 792.6 1037.3 792.6"/><polygon class="cls-2" points="1098.3 792.6 1167.48 764.15 1200.45 764.15 1200.45 792.6 1098.3 792.6"/><polygon class="cls-1" points="1233.89 792.6 1314.67 759.38 1353.17 759.38 1353.17 792.6 1233.89 792.6"/><polygon class="cls-2" points="1305.12 792.6 1385.9 759.38 1424.4 759.38 1424.4 792.6 1305.12 792.6"/><rect class="cls-1" x="1002.23" y="792.32" width="561.48" height="12.93"/><rect class="cls-5" x="1563.71" y="792.32" width="116.06" height="12.93"/><rect class="cls-1" x="1002.23" y="872.94" width="561.48" height="12.93"/><rect class="cls-5" x="1563.71" y="872.94" width="116.06" height="12.93"/><rect class="cls-2" x="974.12" y="706.6" width="604.22" height="18.65"/><rect class="cls-5" x="1578.34" y="706.6" width="122.45" height="18.65"/><line class="cls-9" x1="1569.33" y1="725.25" x2="1569.33" y2="935.36"/><line class="cls-9" x1="1004.1" y1="725.25" x2="1004.1" y2="935.36"/><polygon class="cls-1" points="1037.3 706.6 1106.48 678.15 1139.45 678.15 1139.45 706.6 1037.3 706.6"/><polygon class="cls-2" points="1098.3 706.6 1167.48 678.15 1200.45 678.15 1200.45 706.6 1098.3 706.6"/><polygon class="cls-1" points="1336.36 706.6 1403.99 670.15 1446.24 670.15 1446.24 706.6 1336.36 706.6"/><polygon class="cls-2" points="1414.51 706.6 1482.15 670.15 1524.4 670.15 1524.4 706.6 1414.51 706.6"/><line class="cls-10" x1="1276.54" y1="182.11" x2="1276.54" y2="558.64"/><line class="cls-10" x1="1467.3" y1="182.11" x2="1467.3" y2="558.64"/><line class="cls-10" x1="1100.53" y1="182.11" x2="1100.53" y2="558.64"/><rect class="cls-5" x="1634.64" y="172.94" width="18.14" height="394.87"/><path class="cls-2" d="M1738.57,280.4V641.27h-524V280.4h524m17-17h-558V658.27h558V263.4Z" transform="translate(-112.93 -90.46)"/><rect class="cls-1" x="1068.31" y="567.81" width="543.55" height="18.19"/><rect class="cls-5" x="1611.86" y="567.81" width="45.55" height="18.19"/><line class="cls-11" x1="1268.25" y1="177.99" x2="1268.25" y2="562.76"/><line class="cls-11" x1="1459.01" y1="177.99" x2="1459.01" y2="562.76"/><line class="cls-11" x1="1094.09" y1="370.37" x2="1627.55" y2="370.37"/><rect class="cls-2" x="1039.77" y="122.41" width="651.06" height="20.25"/><rect class="cls-5" x="1685.39" y="122.41" width="15.4" height="20.25"/><rect class="cls-5" x="1685.19" y="254.39" width="9.57" height="13"/><rect class="cls-2" x="1056.47" y="142.65" width="621.68" height="111.73"/><rect class="cls-1" x="1046.37" y="254.39" width="640.96" height="13"/><rect class="cls-5" x="1056.47" y="142.65" width="621.68" height="16.99"/><path class="cls-1" d="M1615.5,522.42c2,13.43-4.73,24.89-4.73,24.89s-9.91-10.32-11.88-23.75,4.73-24.89,4.73-24.89S1613.53,509,1615.5,522.42Z" transform="translate(-112.93 -90.46)"/><path class="cls-1" d="M1612.62,531.2a43.47,43.47,0,0,1,8.5,24.42s-14.63-7.26-23.45-19.35a43.44,43.44,0,0,1-8.51-24.42S1603.79,519.11,1612.62,531.2Z" transform="translate(-112.93 -90.46)"/><path class="cls-1" d="M1623.7,523.88c-2.35,13.41-12.54,23.6-12.54,23.6s-6.39-11.54-4.05-25,12.54-23.59,12.54-23.59S1626,510.48,1623.7,523.88Z" transform="translate(-112.93 -90.46)"/><path class="cls-1" d="M1631.05,533.59c-7.39,12.53-21.12,20.56-21.12,20.56a41.73,41.73,0,0,1,5.62-24.81c7.39-12.52,21.12-20.55,21.12-20.55A41.7,41.7,0,0,1,1631.05,533.59Z" transform="translate(-112.93 -90.46)"/><ellipse class="cls-12" cx="1500.08" cy="483.1" rx="69.38" ry="48.06"/><rect class="cls-1" x="1438.69" y="520.88" width="122.77" height="47.9" rx="23.95"/><line class="cls-13" x1="1460.43" y1="449.19" x2="1447.65" y2="439.22"/><line class="cls-13" x1="1442.21" y1="500.75" x2="1430.7" y2="508.68"/><line class="cls-13" x1="1475.66" y1="496.43" x2="1495.52" y2="499.67"/><line class="cls-13" x1="1526.45" y1="447.56" x2="1538.44" y2="432.75"/><line class="cls-13" x1="1548.35" y1="463.69" x2="1561.46" y2="455.29"/><line class="cls-13" x1="1550.91" y1="507.05" x2="1563.38" y2="515.09"/><line class="cls-13" x1="1481.43" y1="467.01" x2="1475.49" y2="453.21"/><line class="cls-13" x1="1538.19" y1="482.05" x2="1523.93" y2="488.84"/><line class="cls-13" x1="1469.22" y1="474.16" x2="1455.64" y2="465.13"/><line class="cls-14" x1="1761.38" y1="935.62" x2="10" y2="935.62"/></g><g id="Man"><polygon class="cls-15" points="759.98 405.5 680.24 341.69 600.49 405.5 600.49 502.16 759.98 502.16 759.98 405.5"/><rect class="cls-16" x="540.93" y="210.46" width="140.06" height="102.41"/><line class="cls-17" x1="556.32" y1="228.85" x2="666.2" y2="228.85"/><line class="cls-17" x1="556.32" y1="245.13" x2="666.2" y2="245.13"/><line class="cls-17" x1="556.32" y1="261.4" x2="666.2" y2="261.4"/><line class="cls-17" x1="556.32" y1="277.67" x2="666.2" y2="277.67"/><rect class="cls-16" x="576.14" y="277.67" width="105.92" height="35.21"/><path class="cls-16" d="M611,277.67H718a33,33,0,0,1,33,33V466.9a0,0,0,0,1,0,0H611a0,0,0,0,1,0,0V277.67A0,0,0,0,1,611,277.67Z"/><path class="cls-18" d="M574,277.67h4.21a33.1,33.1,0,0,1,33.1,33.1v2.1a0,0,0,0,1,0,0H540.93a0,0,0,0,1,0,0v-2.1A33.1,33.1,0,0,1,574,277.67Z"/><line class="cls-17" x1="627" y1="308.75" x2="736.89" y2="308.75"/><line class="cls-17" x1="627" y1="326.58" x2="736.89" y2="326.58"/><line class="cls-17" x1="627" y1="344.41" x2="736.89" y2="344.41"/><line class="cls-17" x1="627" y1="362.24" x2="736.89" y2="362.24"/><line class="cls-17" x1="627" y1="380.07" x2="736.89" y2="380.07"/><line class="cls-17" x1="627" y1="397.9" x2="736.89" y2="397.9"/><line class="cls-17" x1="627" y1="415.73" x2="736.89" y2="415.73"/><line class="cls-17" x1="627" y1="433.56" x2="736.89" y2="433.56"/><path class="cls-19" d="M990.2,697.58v51.67h-31a24.27,24.27,0,0,0-24.28,24.28,24.27,24.27,0,0,1-48.54,0V697.58Z" transform="translate(-112.93 -90.46)"/><line class="cls-17" x1="785.87" y1="623.2" x2="864.81" y2="623.2"/><line class="cls-17" x1="785.87" y1="639.47" x2="864.81" y2="639.47"/><line class="cls-17" x1="785.87" y1="655.74" x2="864.81" y2="655.74"/><line class="cls-17" x1="785.87" y1="672.01" x2="864.81" y2="672.01"/><path class="cls-19" d="M1087.3,780V924.73h-72.68a31.18,31.18,0,0,1-31.19-31.18v-120a24.27,24.27,0,0,0-24.27-24.28h97.38A30.76,30.76,0,0,1,1087.3,780Z" transform="translate(-112.93 -90.46)"/><path class="cls-15" d="M983.43,773.53V797.8H910.61a24.27,24.27,0,0,0,24.27-24.27,24.28,24.28,0,1,1,48.55,0Z" transform="translate(-112.93 -90.46)"/><rect class="cls-19" x="929.65" y="511.83" width="152.25" height="91.27"/><line class="cls-20" x1="1022.35" y1="555.98" x2="1073.55" y2="590.06"/><polyline class="cls-20" points="1073.55 521.9 1005.77 567.01 938.01 521.9"/><rect class="cls-18" x="1125.93" y="537.56" width="152.25" height="91.27"/><line class="cls-20" x1="1134.29" y1="615.8" x2="1185.48" y2="581.71"/><line class="cls-20" x1="1218.63" y1="581.71" x2="1269.83" y2="615.8"/><polyline class="cls-20" points="1269.83 547.63 1202.06 592.74 1134.29 547.63"/><rect class="cls-19" x="835.59" y="326.18" width="368.77" height="125.33" rx="17.17"/><line class="cls-21" x1="863.04" y1="357.07" x2="1060.99" y2="357.07"/><line class="cls-17" x1="863.04" y1="385.62" x2="1161.28" y2="385.62"/><line class="cls-17" x1="863.04" y1="404.64" x2="1178.83" y2="404.64"/><line class="cls-17" x1="863.04" y1="423.66" x2="1072.27" y2="423.66"/><polygon class="cls-19" points="759.98 502.16 600.49 502.16 600.49 405.5 680.24 458.68 759.98 405.5 759.98 502.16"/><polyline class="cls-22" points="609.82 488.66 680.24 446.98 750.65 488.66"/><circle class="cls-15" cx="557.38" cy="490.19" r="8.16"/><circle class="cls-15" cx="514.18" cy="490.19" r="8.16"/><circle class="cls-15" cx="514.18" cy="446.99" r="8.16"/><circle class="cls-15" cx="557.38" cy="446.99" r="8.16"/><circle class="cls-15" cx="724.28" cy="763.77" r="8.16"/><circle class="cls-15" cx="681.08" cy="763.77" r="8.16"/><circle class="cls-15" cx="681.08" cy="720.57" r="8.16"/><circle class="cls-15" cx="724.28" cy="720.57" r="8.16"/><circle class="cls-15" cx="637.88" cy="763.77" r="8.16"/><circle class="cls-15" cx="637.88" cy="720.57" r="8.16"/><rect class="cls-16" x="393.39" y="533.82" width="337.06" height="125.33" rx="17.17"/><rect class="cls-19" x="801.66" y="237.07" width="245.68" height="42.56" rx="20.01"/><line class="cls-21" x1="418.47" y1="564.7" x2="599.4" y2="564.7"/><line class="cls-23" x1="849.03" y1="258.36" x2="978.29" y2="258.36"/><line class="cls-17" x1="418.47" y1="593.25" x2="691.06" y2="593.25"/><line class="cls-17" x1="418.47" y1="612.28" x2="707.11" y2="612.28"/><line class="cls-17" x1="418.47" y1="631.3" x2="609.71" y2="631.3"/><path class="cls-15" d="M1263.73,819.2a43.2,43.2,0,1,1-43.19-43.2A43.09,43.09,0,0,1,1263.73,819.2Z" transform="translate(-112.93 -90.46)"/><circle class="cls-16" cx="1107.61" cy="722.03" r="16.58"/><path class="cls-16" d="M1251,849.8a43.19,43.19,0,0,1-61,0,32.79,32.79,0,0,1,61,0Z" transform="translate(-112.93 -90.46)"/><rect class="cls-16" x="1148.27" y="511.83" width="152.25" height="91.27"/><line class="cls-20" x1="1156.62" y1="590.06" x2="1207.82" y2="555.98"/><line class="cls-20" x1="1240.96" y1="555.98" x2="1292.17" y2="590.06"/><polyline class="cls-20" points="1292.17 521.9 1224.39 567.01 1156.62 521.9"/><circle class="cls-6" cx="825.41" cy="258.36" r="11.94"/><ellipse class="cls-24" cx="851.92" cy="1124.44" rx="473.8" ry="3.85"/><line class="cls-25" x1="938.01" y1="590.06" x2="989.2" y2="555.98"/><path class="cls-26" d="M1098.37,775.24l-17-6.45,13.34-90.95-26.28-51.29L1103.74,605s19.14,49.48,20.1,65.8C1125.51,699.39,1098.37,775.24,1098.37,775.24Z" transform="translate(-112.93 -90.46)"/><polygon class="cls-27" points="1001.52 524.67 954.2 542.28 938.41 486.39 975.56 473.91 1001.52 524.67"/><line class="cls-28" x1="734.86" y1="478.68" x2="740.27" y2="528.39"/><line class="cls-29" x1="733.5" y1="467.56" x2="735.25" y2="482.22"/><ellipse class="cls-16" cx="843.37" cy="525.98" rx="24.29" ry="29.78" transform="translate(-140.81 -42.87) rotate(-3.18)"/><line class="cls-21" x1="710.76" y1="422.08" x2="733.4" y2="422.08"/><line class="cls-21" x1="711.39" y1="451.39" x2="733.4" y2="451.39"/><ellipse class="cls-28" cx="843.37" cy="525.98" rx="24.29" ry="29.78" transform="translate(-140.81 -42.87) rotate(-3.18)"/><path class="cls-30" d="M1041.25,1214.9h103.14l-3.69-60.75-29.71,10,3.28,21.54S1065.43,1197.33,1041.25,1214.9Z" transform="translate(-112.93 -90.46)"/><polygon class="cls-18" points="1028.44 1068.38 1029.64 1094.45 1001.34 1095.22 998.56 1077.33 1028.44 1068.38"/><path class="cls-30" d="M971.15,1214.9h97.25l-3.69-60.75-29.72,10,3.29,21.54S995.33,1197.33,971.15,1214.9Z" transform="translate(-112.93 -90.46)"/><polygon class="cls-18" points="952.45 1068.38 953.65 1094.45 925.35 1095.22 922.56 1077.33 952.45 1068.38"/><path class="cls-31" d="M1149.71,1170.66,1102,1167l-26.7-221.89-22.86-247.45,55.82-4.5s22.62,22,26.93,79.93c3.59,48.26,5.13,166.35,5.13,166.35Z" transform="translate(-112.93 -90.46)"/><path class="cls-26" d="M990,632.88s-47.94,51.7-70.53,45c-29.56-8.73-69.49-74.24-69.49-74.24l19.28-9.42L923.52,641l50-45.73Z" transform="translate(-112.93 -90.46)"/><path class="cls-31" d="M1074.79,1167.86l-47.43,3.89L999,931.59s-5.1-81.28,2.15-166.93c4-46.77,12.51-63.74,12.51-63.74l64.81-5.71-10.49,238Z" transform="translate(-112.93 -90.46)"/><path class="cls-16" d="M935.75,616.85l24,52.89,29-27.4s1.22,7.67,8.17,20.1a240,240,0,0,1,16.77,38.48l94.58-7.79s-7.18-29-8.41-50c-1.39-23.62,2.07-84.65-24.76-93.81-23.2-7.92-29.53.2-61.82,6.5C982.87,561.77,935.75,616.85,935.75,616.85Z" transform="translate(-112.93 -90.46)"/><rect class="cls-31" x="1020.38" y="1161.07" width="61.63" height="17.58" transform="translate(-143.45 -62.3) rotate(-1.51)"/><rect class="cls-31" x="1095.92" y="1159.22" width="61.63" height="17.58" transform="translate(-143.38 -60.3) rotate(-1.51)"/><path class="cls-32" d="M1086.67,484.37c.3,30.8-26.5,56-59.86,56.27-31,.26-56.81-21.13-60.5-48.9a51.32,51.32,0,0,1-.45-6.36c-.16-16.23,7.2-30.9,19.09-41.18a63,63,0,0,1,40.78-15.09C1059.08,428.84,1086.38,453.58,1086.67,484.37Z" transform="translate(-112.93 -90.46)"/><circle class="cls-32" cx="949.97" cy="326.54" r="33.48"/><polygon class="cls-15" points="861.38 417.01 850.64 438.55 861.78 439.2 861.38 417.01"/><path class="cls-26" d="M1012.1,555s-28.32-2.6-34.3-10.58c-16.82-22.48,5.27-82.76,5.27-82.76l65.29,39.21s10.48,54.27,10.3,54.32L1016.8,567Z" transform="translate(-112.93 -90.46)"/><ellipse class="cls-30" cx="976.69" cy="508.45" rx="4.82" ry="3.64" transform="translate(169.86 1272.94) rotate(-78.44)"/><path class="cls-32" d="M1052.78,506.25c-11.42,14.22-31.89,18.77-49.66,12.3a40.8,40.8,0,0,1-4.17-1.74,44.78,44.78,0,0,1-6.43-3.68c-19.49-13.35-24.13-38.07-10.34-55.23a38,38,0,0,1,4.32-4.54c14.59-13.05,38.33-14.42,56-2.35,19.31,13.22,24,37.6,10.72,54.74C1053.05,505.92,1052.91,506.08,1052.78,506.25Z" transform="translate(-112.93 -90.46)"/><path class="cls-32" d="M1066.63,607.53l-63.06,4.28-8.74-126.28,91.57-6.23,6.63,95.86C1094.2,592,1082.37,606.46,1066.63,607.53Z" transform="translate(-112.93 -90.46)"/><polygon class="cls-33" points="969.56 679 962.96 859.57 958.55 802.04 969.56 679"/><path class="cls-26" d="M993.64,519.06s-5.19-11.06,3.52-13.61c6.49-1.9,10.22,3.28,11.35,6.58,3.82,11.12-8.71,16.65-10.51,26.05" transform="translate(-112.93 -90.46)"/><path class="cls-34" d="M974.25,537.59s3.1-.12,5.1-4.92" transform="translate(-112.93 -90.46)"/><path class="cls-26" d="M872.91,597.77,870,592s-5-10.26-8-14.17c-4.85-6.36-11-1.76-11-1.76s-11.73-6.39-14.65-5.06c-8.06,3.68-6.65,33.42,1,36.23,5.92,2.17,9.59,4.93,17.23,6.89,3.24.83,7.43-.75,9.86-.6" transform="translate(-112.93 -90.46)"/><polygon class="cls-35" points="843.74 572.51 826.99 535.56 836.15 577.87 843.74 572.51"/></g></svg>