<svg xmlns="http://www.w3.org/2000/svg" viewBox="0 0 1771.38 1095.23"><defs><style>.cls-1{fill:#dceeff;}.cls-2{fill:#cce3ff;}.cls-11,.cls-18,.cls-19,.cls-20,.cls-27,.cls-28,.cls-3,.cls-31,.cls-5,.cls-6,.cls-7{fill:none;}.cls-20,.cls-3{stroke:#b6d4ff;}.cls-11,.cls-12,.cls-18,.cls-19,.cls-20,.cls-27,.cls-28,.cls-3,.cls-31,.cls-5,.cls-6,.cls-7{stroke-miterlimit:10;}.cls-3{stroke-width:9px;}.cls-4{fill:#b6d4ff;}.cls-5{stroke:#cce3ff;}.cls-5,.cls-7{stroke-width:18px;}.cls-12,.cls-6,.cls-7{stroke:#dceeff;}.cls-6{stroke-width:30px;}.cls-12,.cls-8{fill:#ecf6ff;}.cls-9{fill:#e6f4ff;}.cls-10{fill:#c5e0fc;}.cls-11{stroke:#ecf6ff;stroke-width:8px;}.cls-12{stroke-linecap:round;stroke-width:20px;}.cls-13{fill:#afb3c6;}.cls-14{fill:#6b7277;}.cls-15{fill:#2b2a38;}.cls-16{fill:#47a067;}.cls-17{fill:#405fd3;}.cls-18{stroke:#32446d;}.cls-18,.cls-19,.cls-20{stroke-width:5px;}.cls-19{stroke:#fff;}.cls-21{fill:#0d0b6d;}.cls-22{fill:#cf3e83;}.cls-23{fill:#240040;}.cls-24{fill:#ffc000;}.cls-25{fill:#e576c6;}.cls-26{fill:#824f16;}.cls-27{stroke:#1c295e;}.cls-27,.cls-28{stroke-width:3px;}.cls-28{stroke:#ff9929;}.cls-29{fill:#bc3579;}.cls-30{fill:#db8b21;}.cls-31{stroke:#db8b21;stroke-width:7px;}</style></defs><title>back and obj 23</title><g id="Back"><rect class="cls-1" x="899.64" y="121.24" width="388.31" height="836.92"/><rect class="cls-2" x="945.79" y="158.16" width="308.92" height="800"/><rect class="cls-1" x="986.4" y="198.78" width="227.69" height="116.09"/><rect class="cls-1" x="986.4" y="805.77" width="227.69" height="116.09"/><rect class="cls-1" x="986.4" y="348.34" width="93.23" height="430.59"/><rect class="cls-1" x="1120.87" y="348.34" width="93.23" height="430.59"/><line class="cls-3" x1="967.73" y1="525.28" x2="1009.48" y2="525.28"/><circle class="cls-4" cx="967.73" cy="525.28" r="11.79"/><circle class="cls-4" cx="967.73" cy="566.83" r="11.79"/><rect class="cls-4" x="1287.94" y="121.24" width="12.62" height="835.25"/><rect class="cls-4" x="933.17" y="158.16" width="12.62" height="800"/><line class="cls-5" x1="1395.33" y1="962.46" x2="1445.64" y2="338.46"/><line class="cls-5" x1="1648.29" y1="962.46" x2="1597.98" y2="338.46"/><line class="cls-5" x1="1412.75" y1="364.93" x2="1625.14" y2="364.93"/><line class="cls-5" x1="1398.33" y1="501.55" x2="1639.56" y2="501.55"/><line class="cls-5" x1="1386.94" y1="665.24" x2="1650.94" y2="665.24"/><line class="cls-5" x1="1367.56" y1="812.93" x2="1670.33" y2="812.93"/><rect class="cls-2" x="1489.33" y="491.83" width="81.23" height="121.18" rx="5.72"/><rect class="cls-2" x="1442.71" y="655.07" width="81.23" height="110.56" rx="5.72"/><line class="cls-6" x1="1377.33" y1="962.46" x2="1427.64" y2="338.46"/><line class="cls-6" x1="1630.29" y1="962.46" x2="1579.98" y2="338.46"/><line class="cls-7" x1="1397.75" y1="364.93" x2="1610.14" y2="364.93"/><line class="cls-7" x1="1383.33" y1="501.55" x2="1624.56" y2="501.55"/><line class="cls-7" x1="1371.94" y1="665.24" x2="1635.94" y2="665.24"/><line class="cls-7" x1="1352.56" y1="812.93" x2="1655.33" y2="812.93"/><path class="cls-8" d="M1436.87,655.07h75.08a0,0,0,0,1,0,0v70.76a6.15,6.15,0,0,1-6.15,6.15h-68.92a6.15,6.15,0,0,1-6.15-6.15V661.22A6.15,6.15,0,0,1,1436.87,655.07Z"/><rect class="cls-1" x="1430.71" y="698.5" width="81.23" height="20.36"/><path class="cls-8" d="M1630.61,730.14a6,6,0,0,0-6,6v-6Z" transform="translate(-112.67 -75.07)"/><path class="cls-8" d="M1483.48,491.83h75.08a0,0,0,0,1,0,0V570a6.15,6.15,0,0,1-6.15,6.15h-68.92a6.15,6.15,0,0,1-6.15-6.15V498A6.15,6.15,0,0,1,1483.48,491.83Z"/><rect class="cls-1" x="1477.33" y="552.42" width="81.23" height="9.33"/><rect class="cls-1" x="1477.33" y="533.98" width="81.23" height="9.33"/><path class="cls-8" d="M1677.23,566.9a6.31,6.31,0,0,0-6,6.58V566.9Z" transform="translate(-112.67 -75.07)"/><polygon class="cls-1" points="588.22 174.21 635.97 174.21 623.11 216.5 601.08 216.5 588.22 174.21"/><polygon class="cls-1" points="431.3 174.21 479.05 174.21 466.19 216.5 444.16 216.5 431.3 174.21"/><polygon class="cls-1" points="431.3 146.6 479.05 146.6 466.19 188.89 444.16 188.89 431.3 146.6"/><polygon class="cls-1" points="343.61 174.21 391.35 174.21 378.5 216.5 356.46 216.5 343.61 174.21"/><polygon class="cls-1" points="277 174.21 324.75 174.21 311.89 216.5 289.86 216.5 277 174.21"/><rect class="cls-1" x="214.22" y="208.8" width="423.18" height="17.78"/><rect class="cls-2" x="637.4" y="208.8" width="69.62" height="17.78"/><polygon class="cls-4" points="317.37 226.57 350.41 278.42 350.41 226.57 317.37 226.57"/><polygon class="cls-2" points="299.08 226.57 332.12 278.42 350.41 278.42 317.37 226.57 299.08 226.57"/><polygon class="cls-4" points="559.74 226.57 592.79 278.42 592.79 226.57 559.74 226.57"/><polygon class="cls-2" points="541.45 226.57 574.5 278.42 592.79 278.42 559.74 226.57 541.45 226.57"/><path class="cls-8" d="M511,102.31a50,50,0,0,1-99.24,0Z" transform="translate(-112.67 -75.07)"/><path class="cls-8" d="M511,75.07a50,50,0,0,1-99.24,0Z" transform="translate(-112.67 -75.07)"/><path class="cls-8" d="M620.13,107.74a38.84,38.84,0,0,1-77.12,0Z" transform="translate(-112.67 -75.07)"/><rect class="cls-1" x="214.22" y="59.26" width="423.18" height="17.78"/><rect class="cls-2" x="637.4" y="59.26" width="69.62" height="17.78"/><polygon class="cls-4" points="317.37 77.04 350.41 128.88 350.41 77.04 317.37 77.04"/><polygon class="cls-2" points="299.08 77.04 332.12 128.88 350.41 128.88 317.37 77.04 299.08 77.04"/><polygon class="cls-4" points="559.74 77.04 592.79 128.88 592.79 77.04 559.74 77.04"/><polygon class="cls-2" points="541.45 77.04 574.5 128.88 592.79 128.88 559.74 77.04 541.45 77.04"/><polygon class="cls-1" points="603.12 299.43 659 299.43 643.95 348.93 618.17 348.93 603.12 299.43"/><ellipse class="cls-1" cx="631.06" cy="367.46" rx="25.76" ry="36.12"/><polygon class="cls-1" points="590.3 409.05 546.8 409.05 546.8 349.72 540.38 335.77 593.97 335.77 590.3 349.72 590.3 409.05"/><rect class="cls-9" x="185.17" y="400.32" width="423.35" height="518.97"/><rect class="cls-9" x="185.17" y="400.32" width="24.37" height="556.17"/><rect class="cls-4" x="209.55" y="919.29" width="24.37" height="37.2"/><rect class="cls-4" x="357.93" y="919.29" width="24.37" height="37.2"/><rect class="cls-4" x="608.52" y="919.29" width="24.37" height="37.2"/><rect class="cls-10" x="708.16" y="919.29" width="24.37" height="37.2"/><rect class="cls-9" x="584.15" y="400.32" width="24.37" height="556.17"/><rect class="cls-4" x="732.53" y="919.29" width="24.37" height="37.72"/><rect class="cls-10" x="333.56" y="919.29" width="24.37" height="37.2"/><rect class="cls-2" x="209.55" y="758.13" width="374.6" height="136.03"/><rect class="cls-4" x="209.55" y="758.13" width="115.89" height="136.03"/><rect class="cls-2" x="209.55" y="591.72" width="374.6" height="136.03"/><rect class="cls-4" x="209.55" y="591.72" width="115.89" height="136.03"/><rect class="cls-2" x="209.55" y="425.3" width="374.6" height="136.03"/><rect class="cls-4" x="209.55" y="425.3" width="115.89" height="136.03"/><rect class="cls-4" x="608.52" y="400.32" width="148.38" height="518.97"/><path class="cls-9" d="M166.51,384.64H599.69a0,0,0,0,1,0,0v15.67a0,0,0,0,1,0,0H182.18a15.67,15.67,0,0,1-15.67-15.67v0A0,0,0,0,1,166.51,384.64Z"/><path class="cls-4" d="M599.69,384.64h177.8a0,0,0,0,1,0,0v0a15.67,15.67,0,0,1-15.67,15.67H599.69a0,0,0,0,1,0,0V384.64A0,0,0,0,1,599.69,384.64Z"/><rect class="cls-2" x="185.17" y="400.53" width="423.35" height="7.19"/><rect class="cls-1" x="262.23" y="817.29" width="20.12" height="76.87"/><rect class="cls-2" x="242.11" y="817.29" width="20.12" height="76.87"/><rect class="cls-2" x="282.35" y="817.29" width="20.12" height="76.87"/><path class="cls-4" d="M302.48,817.29h53a5.13,5.13,0,0,1,5.13,5.13V889a5.13,5.13,0,0,1-5.13,5.13h-53a0,0,0,0,1,0,0V817.29A0,0,0,0,1,302.48,817.29Z"/><rect class="cls-2" x="440.42" y="886.9" width="7.61" height="40.92" transform="translate(-575.81 1276.52) rotate(-90)"/><rect class="cls-2" x="440.42" y="907.76" width="7.61" height="22.68" transform="translate(-587.55 1288.26) rotate(-90)"/><rect class="cls-8" x="237.61" y="323.84" width="86.71" height="60.8"/><rect class="cls-2" x="324.33" y="323.84" width="63.92" height="60.8"/><path class="cls-2" d="M265.08,344.6h32.59a9.64,9.64,0,0,1,9.64,9.64v0a0,0,0,0,1,0,0H255.44a0,0,0,0,1,0,0v0A9.64,9.64,0,0,1,265.08,344.6Z"/><rect class="cls-8" x="345.92" y="323.84" width="86.71" height="60.8"/><rect class="cls-2" x="432.63" y="323.84" width="63.92" height="60.8"/><path class="cls-2" d="M373.38,344.6H406a9.64,9.64,0,0,1,9.64,9.64v0a0,0,0,0,1,0,0H363.75a0,0,0,0,1,0,0v0A9.64,9.64,0,0,1,373.38,344.6Z"/><path class="cls-1" d="M456.42,603.76a49.87,49.87,0,0,1-17.9,32.64H375.09a49.92,49.92,0,0,1-17.91-32.64Z" transform="translate(-112.67 -75.07)"/><path class="cls-1" d="M456.42,576.51a50,50,0,0,1-99.24,0Z" transform="translate(-112.67 -75.07)"/><path class="cls-1" d="M592.73,603.76a49.87,49.87,0,0,1-17.9,32.64H511.4a49.92,49.92,0,0,1-17.91-32.64Z" transform="translate(-112.67 -75.07)"/><path class="cls-1" d="M592.73,576.51a50,50,0,0,1-99.24,0Z" transform="translate(-112.67 -75.07)"/><path class="cls-8" d="M401.52,752.19c0,19.29-2.06,36.94-5.49,50.63H360.09c-3.43-13.69-5.49-31.34-5.49-50.63" transform="translate(-112.67 -75.07)"/><path class="cls-11" d="M399.74,760.66a15,15,0,0,1-5.83,29.52" transform="translate(-112.67 -75.07)"/><path class="cls-8" d="M473.52,752.19c0,19.29-2.06,36.94-5.49,50.63H432.09c-3.43-13.69-5.49-31.34-5.49-50.63" transform="translate(-112.67 -75.07)"/><path class="cls-11" d="M464,760.66a15,15,0,0,1-5.83,29.52" transform="translate(-112.67 -75.07)"/><path class="cls-8" d="M623.14,752.19c0,19.29-2.06,36.94-5.49,50.63H581.71c-3.43-13.69-5.49-31.34-5.49-50.63" transform="translate(-112.67 -75.07)"/><path class="cls-11" d="M579.37,760.66a15,15,0,0,0,5.83,29.52" transform="translate(-112.67 -75.07)"/><line class="cls-12" x1="1761.38" y1="964.75" x2="10" y2="964.75"/></g><g id="Man"><ellipse class="cls-13" cx="916.73" cy="1091.62" rx="699.6" ry="3.62"/><rect class="cls-14" x="355.71" y="746.47" width="1024.62" height="34.05"/><rect class="cls-15" x="1493" y="821.54" width="131.08" height="34.05" transform="translate(3004.4 1602.06) rotate(180)"/><polygon class="cls-15" points="1487.45 1090.63 1506.13 1090.63 1419.38 780.52 1400.69 780.52 1487.45 1090.63"/><polygon class="cls-14" points="1367.48 1090.63 1386.16 1090.63 1299.41 780.52 1280.73 780.52 1367.48 1090.63"/><polygon class="cls-14" points="365.47 1090.63 346.79 1090.63 433.54 780.52 452.23 780.52 365.47 1090.63"/><polygon class="cls-15" points="485.44 1090.63 466.75 1090.63 553.51 780.52 572.19 780.52 485.44 1090.63"/><rect class="cls-16" x="536.64" y="272.63" width="59.08" height="411.38" rx="29.54"/><rect class="cls-16" x="410.73" y="296.42" width="50.63" height="180.03" rx="25.31"/><rect class="cls-16" x="584.62" y="439.68" width="50.63" height="173.06" rx="25.31" transform="translate(-28.95 1061.07) rotate(-90)"/><path class="cls-17" d="M754.14,711.85v66.68a43.14,43.14,0,0,1-43,43H643.67a43.14,43.14,0,0,1-43-43V711.85Z" transform="translate(-112.67 -75.07)"/><line class="cls-18" x1="583.94" y1="403.96" x2="606.64" y2="386.78"/><line class="cls-18" x1="427.46" y1="486.91" x2="450.15" y2="469.72"/><line class="cls-18" x1="585.63" y1="546.53" x2="608.32" y2="529.34"/><line class="cls-18" x1="560.84" y1="614.75" x2="583.53" y2="597.56"/><line class="cls-18" x1="549.5" y1="337.08" x2="532.76" y2="316.75"/><line class="cls-18" x1="502.31" y1="433.96" x2="485.57" y2="413.63"/><line class="cls-18" x1="545" y1="589.81" x2="528.27" y2="569.48"/><line class="cls-18" x1="580.94" y1="298.47" x2="599.75" y2="280.34"/><line class="cls-18" x1="450.2" y1="382.66" x2="469.01" y2="364.53"/><line class="cls-18" x1="562.79" y1="402.86" x2="541.82" y2="389.94"/><line class="cls-18" x1="547.55" y1="503.53" x2="521.93" y2="493.32"/><line class="cls-18" x1="423.54" y1="348.21" x2="399.1" y2="331.09"/><line class="cls-19" x1="570.51" y1="357.15" x2="588.76" y2="342.36"/><line class="cls-19" x1="442.17" y1="423.79" x2="424.64" y2="404.01"/><line class="cls-19" x1="564.73" y1="478.31" x2="579.64" y2="456.01"/><polyline class="cls-20" points="641.47 694.86 603.1 674.85 564.73 694.86 526.36 674.85 487.99 694.86"/><circle class="cls-4" cx="525.73" cy="705.06" r="6.26"/><circle class="cls-4" cx="601.97" cy="705.06" r="6.26"/><circle class="cls-4" cx="564.73" cy="668.75" r="6.26"/><path class="cls-4" d="M754.14,737.56v12.51a6.26,6.26,0,1,1,0-12.51Z" transform="translate(-112.67 -75.07)"/><path class="cls-4" d="M606.92,743.82a6.25,6.25,0,0,1-6.26,6.25V737.56A6.26,6.26,0,0,1,606.92,743.82Z" transform="translate(-112.67 -75.07)"/><rect class="cls-16" x="1267.69" y="272.63" width="59.08" height="411.38" rx="29.54"/><rect class="cls-16" x="1141.78" y="316.42" width="50.63" height="180.03" rx="25.31"/><rect class="cls-16" x="1315.67" y="459.68" width="50.63" height="173.06" rx="25.31" transform="translate(682.1 1812.13) rotate(-90)"/><path class="cls-17" d="M1219,636.79h153.48a0,0,0,0,1,0,0v66.67a43,43,0,0,1-43,43H1262a43,43,0,0,1-43-43V636.79A0,0,0,0,1,1219,636.79Z"/><line class="cls-18" x1="1281.99" y1="402.25" x2="1260.16" y2="385.06"/><line class="cls-18" x1="1232.73" y1="451.06" x2="1210.9" y2="433.88"/><line class="cls-18" x1="1255.54" y1="592.8" x2="1277.38" y2="609.99"/><line class="cls-18" x1="1252.41" y1="515.7" x2="1274.25" y2="532.88"/><line class="cls-18" x1="1315.14" y1="335.37" x2="1331.24" y2="315.03"/><line class="cls-18" x1="1189.15" y1="506.62" x2="1205.26" y2="486.29"/><line class="cls-18" x1="1338.87" y1="476.06" x2="1320.43" y2="501.31"/><line class="cls-18" x1="1284.88" y1="296.76" x2="1266.78" y2="278.62"/><line class="cls-18" x1="1147.72" y1="382.81" x2="1129.62" y2="364.67"/><line class="cls-18" x1="1302.35" y1="401.14" x2="1322.53" y2="388.22"/><line class="cls-18" x1="1338.66" y1="571.55" x2="1314.88" y2="592.23"/><line class="cls-18" x1="1182.72" y1="361.2" x2="1206.24" y2="344.07"/><line class="cls-19" x1="1294.92" y1="355.43" x2="1277.36" y2="340.64"/><line class="cls-19" x1="1155.44" y1="423.94" x2="1172.32" y2="404.15"/><line class="cls-19" x1="1288.79" y1="566.59" x2="1305.67" y2="546.8"/><line class="cls-19" x1="1300.49" y1="476.6" x2="1286.14" y2="454.29"/><rect class="cls-4" x="1257.41" y="670.02" width="26.31" height="26.31"/><rect class="cls-4" x="1361.41" y="670.02" width="11.11" height="26.31"/><rect class="cls-4" x="1422.09" y="745.08" width="26.31" height="26.31" transform="translate(843.85 -867.85) rotate(45)"/><polyline class="cls-4" points="1219.04 664.57 1237.64 683.17 1219.04 701.77"/><path class="cls-21" d="M915.45,1108.84l-.28,27.35s26.89,4,36.21,29.5H879.26l5.23-30.72,3.08-26.65Z" transform="translate(-112.67 -75.07)"/><polygon class="cls-22" points="775.46 1026.58 771.82 1059.91 802.49 1061.13 802.65 1034.78 775.46 1026.58"/><path class="cls-21" d="M1044,1114.19l-2.87,21.49s53.35,12,73.41,29.87l-104.94.14,9.2-61.54Z" transform="translate(-112.67 -75.07)"/><polygon class="cls-22" points="905.57 1033.76 901.46 1059.76 928.48 1060.62 930.9 1042.78 905.57 1033.76"/><circle class="cls-23" cx="813.86" cy="315.6" r="77.2"/><path class="cls-15" d="M1053.36,1115.24l-47.71-.15L1053.2,876.7,938.13,719.38s54.26,124.31,42.56,173.24c-7.67,32.12-54.36,226.18-54.36,226.18H878.26l27.57-241.88s-46-114.74-56.49-153.84c-11.21-41.86-3.16-71.8-3.16-71.8H985.87s39.06,35.52,66.82,82.87c47,80.17,76,105.43,72.85,146.47C1121.32,936.3,1053.36,1115.24,1053.36,1115.24Z" transform="translate(-112.67 -75.07)"/><circle class="cls-23" cx="863.71" cy="225.66" r="41.45"/><rect class="cls-23" x="875.65" y="369.67" width="101.6" height="154.39" transform="translate(365.53 1297.59) rotate(-89.91)"/><path class="cls-24" d="M1036.23,576.9l-50.39,30.15L979,562.85s15.1-.43,9.25,11c-11.3,22.21-12.62,25.38-6,54.51,1.09,4.84,4.06,23.08,4.06,23.08H846.56s3.17-22.47,23.57-58.87c3.18-5.68,13.19-23.41,13.19-23.41l-45.19,1.94s2.67-63.71,32.82-88.07c17.77-14.35,30.68-14.78,63.57-14.73,31,0,35.65,1.23,49.48,12.78C1012.83,505.21,1036.23,576.9,1036.23,576.9Z" transform="translate(-112.67 -75.07)"/><path class="cls-25" d="M949.09,515.1c-21,0-34.84-8.9-41-26.47-3.63-10.32-6.57-20.67-6.6-20.77l-.74-2.59,2.69,0s2.39,0,5.7,0c4.09,0,9.86-.06,14.15-.3.44,0,.89,0,1.33,0,9.64,0,20.27,5.68,20.72,5.93s8.32,4.64,15.13,15.12c5.19,8,6.38,15.87,3.26,21.63-2.59,4.77-7.75,7.4-14.53,7.41Z" transform="translate(-112.67 -75.07)"/><path class="cls-26" d="M924.62,467c9.24,0,19.77,5.69,19.77,5.69s7.79,4.27,14.41,14.45c9,13.92,4.31,25.93-9.61,26h-.1c-14.88,0-31.92-4.64-39.11-25.13-3.65-10.39-6.57-20.66-6.57-20.66s2.39,0,5.73,0c4.23,0,10-.06,14.27-.31.4,0,.81,0,1.21,0m0-4h0c-.49,0-1,0-1.44,0-4.25.24-10,.3-14,.3-3.27,0-5.65,0-5.67,0l-5.38-.07,1.47,5.17c0,.1,3,10.5,6.64,20.89,6.39,18.19,21.22,27.8,42.89,27.8h.11c7.55,0,13.33-3,16.28-8.46,3.49-6.42,2.27-15.05-3.33-23.67-7.08-10.9-15.48-15.59-15.84-15.78S934.76,463,924.62,463Z" transform="translate(-112.67 -75.07)"/><path class="cls-25" d="M944.64,429.06c-4.21,6.71-2.48,15.57-.09,20.74.81,1.77,6.08,16.67,6.85,17.35,3,2.61-33.55,18.54-33.55,18.54l-2.42-30.08c-10.59.61-23,.05-29.85-4.48-20.33-13.53-21.53-60.42-21.2-62.76l17-19.08s25.72-11.87,29.63-6.83c7.16,9.24,23.91,50.59,36,45.87,0,0-1.53-12.85,9.2-12.84,8,0,10.16,6.43,10.16,10.13C966.44,418.13,950.29,420,944.64,429.06Z" transform="translate(-112.67 -75.07)"/><polygon class="cls-17" points="767.93 333.06 765.5 353 774.02 350.46 767.93 333.06"/><ellipse class="cls-21" cx="892.44" cy="403.91" rx="4.54" ry="6.73" transform="translate(-171.25 93.98) rotate(-10.48)"/><ellipse class="cls-21" cx="872.47" cy="409.9" rx="4.54" ry="6.73" transform="translate(-172.67 90.45) rotate(-10.48)"/><path class="cls-23" d="M892.43,364a44.76,44.76,0,0,1-3.6,14.4c-.25.55-.51,1.13-.79,1.67a43.42,43.42,0,0,1-6.81,10,39.68,39.68,0,0,1-28.31,13.26c-.56,0-1.11,0-1.67,0l1.26-15.56h0c0-.49.06-1,.1-1.45a84.16,84.16,0,0,1,20.94-49.44,78.34,78.34,0,0,1,6.91-6.85,42.49,42.49,0,0,1,10.31,17.76A44.26,44.26,0,0,1,892.43,364Z" transform="translate(-112.67 -75.07)"/><path class="cls-23" d="M947.16,368.17c0,11.16-10.13,20.55-23.92,23.41-1.1.23-2.21.42-3.35.56a43.3,43.3,0,0,1-5.63.36c-18.15,0-32.85-11-32.83-24.42a18.35,18.35,0,0,1,.41-3.8c2.48-11.66,16.09-20.56,32.49-20.54,18,0,32.56,10.76,32.82,24.05C947.16,367.92,947.16,368.05,947.16,368.17Z" transform="translate(-112.67 -75.07)"/><path class="cls-27" d="M888.74,432.19s9.34,2,10.57-10" transform="translate(-112.67 -75.07)"/><path class="cls-22" d="M915.43,455.61s13.38.4,19.09-2.72l-18.38,11.54Z" transform="translate(-112.67 -75.07)"/><path class="cls-23" d="M898.68,467.68s3.5-.16,8.89.18c7.54.48,8.88.49,8.88.49l-.88-11-20.36,2.68Z" transform="translate(-112.67 -75.07)"/><rect class="cls-15" x="1003.75" y="1114.27" width="52.92" height="13.48" transform="translate(1949.29 2165.53) rotate(179.92)"/><polygon class="cls-15" points="761.37 1052.72 816.16 1052.65 817.09 1039.16 762.29 1039.24 761.37 1052.72"/><path class="cls-23" d="M942.07,437.24h61.53a0,0,0,0,1,0,0V499a30,30,0,0,1-30,30H942.07a0,0,0,0,1,0,0V437.24A0,0,0,0,1,942.07,437.24Z" transform="translate(-111.95 -76.52) rotate(0.09)"/><path class="cls-28" d="M981,585.25s10-17.38,7.88-33.73" transform="translate(-112.67 -75.07)"/><path class="cls-25" d="M954.72,722.87l14.63-17-71.46-69.61,2.9-65.54L850.09,575s3.78,59.19,12.22,74.35C877.08,675.88,954.72,722.87,954.72,722.87Z" transform="translate(-112.67 -75.07)"/><polygon class="cls-29" points="736.91 495.65 788.53 493.34 787.95 499.3 738.44 512.93 736.91 495.65"/><ellipse class="cls-16" cx="925.61" cy="423.79" rx="138.72" ry="162.68"/><path class="cls-17" d="M850.75,561.67H998.67a0,0,0,0,1,0,0v62.7a43,43,0,0,1-43,43h-61.9a43,43,0,0,1-43-43v-62.7A0,0,0,0,1,850.75,561.67Z"/><path class="cls-25" d="M960.79,700.37l22.9,1.77a91.37,91.37,0,0,1,10,3.3c5.21,2.08,7.19,3.41,16.84,3.94,6.73.36,2.74,6.25-1.44,7.68s-19.27-4.36-19.54.68,4.72,16.63,16.79,21.59c1.63.67,2.17,8.46-14.62,10.19-8.28.86-21.29-3.3-24.51-8.14,0,0-9.42-13.41-13-19S961.31,711.68,960.79,700.37Z" transform="translate(-112.67 -75.07)"/><line class="cls-18" x1="920.23" y1="272.9" x2="924.98" y2="241.74"/><line class="cls-18" x1="956.36" y1="436.89" x2="989.62" y2="423.49"/><line class="cls-18" x1="895.86" y1="367.4" x2="919.92" y2="343.6"/><line class="cls-18" x1="814.17" y1="455.37" x2="780.24" y2="462.56"/><line class="cls-18" x1="868.36" y1="391.94" x2="838.52" y2="367.72"/><line class="cls-18" x1="1041.76" y1="361.56" x2="1062.12" y2="335.21"/><line class="cls-18" x1="1027.87" y1="500.35" x2="1062.5" y2="512.26"/><line class="cls-19" x1="862" y1="299.82" x2="833.56" y2="268.48"/><line class="cls-19" x1="968.59" y1="361.02" x2="992.12" y2="336.23"/><line class="cls-19" x1="973.73" y1="512.26" x2="939.55" y2="512.26"/><line class="cls-19" x1="773.87" y1="392.64" x2="807.6" y2="404.01"/><line class="cls-19" x1="877.59" y1="469.32" x2="875.45" y2="500.38"/><line class="cls-19" x1="842.35" y1="527.5" x2="817.05" y2="545.64"/><line class="cls-3" x1="850.75" y1="585.01" x2="998.67" y2="585.01"/><line class="cls-3" x1="850.75" y1="611.55" x2="998.67" y2="611.55"/><path class="cls-25" d="M1081.55,684.5c-.69,10.82,25,27.08,29.38,27.35s8.4-8.27,9.08-19.1-2.26-19.81-6.59-20.09S1082.24,673.68,1081.55,684.5Z" transform="translate(-112.67 -75.07)"/><path class="cls-30" d="M1063.72,659.66h70.12a0,0,0,0,1,0,0v71.89a14.92,14.92,0,0,1-14.92,14.92h-40.28a14.92,14.92,0,0,1-14.92-14.92V659.66a0,0,0,0,1,0,0Z"/><path class="cls-31" d="M1178.24,797.08a21.16,21.16,0,0,1,0-42.32" transform="translate(-112.67 -75.07)"/><path class="cls-30" d="M1299.05,754.83c-8,8-20.17,8.72-27.24,1.65s-6.33-19.26,1.65-27.24" transform="translate(-112.67 -75.07)"/><rect class="cls-30" x="1221.35" y="765.44" width="67.58" height="15.42" transform="translate(-291.75 1038.9) rotate(-45)"/><path class="cls-24" d="M1226.75,782.17a11.7,11.7,0,0,1-21.62,9,6.34,6.34,0,0,1-9-9,6.34,6.34,0,0,1,0-12.67,11.7,11.7,0,0,1,21.62-9,6.34,6.34,0,0,1,9,9,6.34,6.34,0,0,1,0,12.67Z" transform="translate(-112.67 -75.07)"/></g></svg>