<svg xmlns="http://www.w3.org/2000/svg" xmlns:xlink="http://www.w3.org/1999/xlink" viewBox="0 0 1771.38 941.05"><defs><style>.cls-1{fill:#dceeff;}.cls-10,.cls-2,.cls-20,.cls-21,.cls-3,.cls-31,.cls-34,.cls-4,.cls-44,.cls-45,.cls-48,.cls-9{fill:none;}.cls-2{stroke:#b6d4ff;}.cls-10,.cls-12,.cls-2,.cls-21,.cls-3,.cls-31,.cls-34,.cls-35,.cls-4,.cls-44,.cls-45,.cls-48,.cls-7,.cls-9{stroke-miterlimit:10;}.cls-12,.cls-2{stroke-width:20px;}.cls-3{stroke:#ecf6ff;}.cls-3,.cls-4{stroke-width:22px;}.cls-10,.cls-12,.cls-4{stroke:#dceeff;}.cls-5,.cls-7{fill:#cce3ff;}.cls-12,.cls-6{fill:#ecf6ff;}.cls-7,.cls-9{stroke:#cce3ff;}.cls-7{stroke-width:11px;}.cls-8{fill:#b6d4ff;}.cls-10,.cls-9{stroke-width:24px;}.cls-11{fill:#e3f1ff;}.cls-12{stroke-linecap:round;}.cls-13{fill:#afb2bf;}.cls-14{fill:#ffc000;}.cls-15{fill:#f90;}.cls-16{fill:#383844;}.cls-17,.cls-35,.cls-46{fill:#fff;}.cls-18{fill:#5e5e6b;}.cls-19{fill:#4d4d5b;}.cls-20,.cls-21{stroke:#fff;}.cls-20{stroke-linejoin:round;}.cls-20,.cls-21,.cls-34,.cls-35{stroke-width:7px;}.cls-22{fill:#1a1d21;}.cls-23{fill:#db8b21;}.cls-24{fill:#240040;}.cls-25{fill:#8e8e9b;}.cls-26{fill:#414151;}.cls-27{fill:#bebece;}.cls-28{fill:#e576c6;}.cls-29,.cls-47{fill:#405fd3;}.cls-30,.cls-43{fill:#0d0b6d;}.cls-31{stroke:#1c295e;}.cls-31,.cls-45,.cls-48{stroke-width:3px;}.cls-32{fill:#cf3e83;}.cls-33{fill:#09090c;}.cls-34,.cls-35{stroke:#000;}.cls-36{fill:#18181c;}.cls-37{fill:#535360;}.cls-38{fill:#1a1a23;}.cls-39{fill:#2951d3;}.cls-40{fill:#398aff;}.cls-40,.cls-43,.cls-44,.cls-46,.cls-47,.cls-48{opacity:0.8;}.cls-41{fill:url(#linear-gradient);}.cls-42{fill:url(#linear-gradient-2);}.cls-44{stroke:#0d0b6d;stroke-width:9px;}.cls-45{stroke:#bf571d;}.cls-48{stroke:#2a2a30;}.cls-49{opacity:0.63;fill:url(#linear-gradient-3);}.cls-50{fill:#6a6a75;}.cls-51{fill:#41414c;}.cls-52{fill:#50acff;}</style><linearGradient id="linear-gradient" x1="1397.53" y1="638.92" x2="1397.51" y2="637.5" gradientUnits="userSpaceOnUse"><stop offset="0" stop-color="#d798c6"/><stop offset="0.15" stop-color="#c596cc"/><stop offset="0.46" stop-color="#9792dd"/><stop offset="0.89" stop-color="#4e8cf7"/><stop offset="1" stop-color="#398aff"/></linearGradient><linearGradient id="linear-gradient-2" x1="1526.11" y1="722.91" x2="1525.94" y2="710.17" xlink:href="#linear-gradient"/><linearGradient id="linear-gradient-3" x1="1316.85" y1="492.69" x2="1315.32" y2="902.7" gradientUnits="userSpaceOnUse"><stop offset="0" stop-color="#fff" stop-opacity="0"/><stop offset="0.85" stop-color="#39bcff"/></linearGradient></defs><title>back and obj 18</title><g id="Back"><polygon class="cls-1" points="518.85 441.28 567.18 441.28 562.08 480.67 523.95 480.67 518.85 441.28"/><path class="cls-1" d="M665.42,639c2.36,21.14-5.29,39.19-5.29,39.19s-11.46-16.2-13.81-37.34,5.29-39.19,5.29-39.19S663.07,617.81,665.42,639Z" transform="translate(-118.91 -220.92)"/><path class="cls-1" d="M660.46,655.91a87.14,87.14,0,0,1,9.93,38.4S653.52,682.94,643.3,664a87.29,87.29,0,0,1-9.94-38.41S650.24,636.92,660.46,655.91Z" transform="translate(-118.91 -220.92)"/><path class="cls-1" d="M674.86,641.22c-2.62,21.11-14.28,37.19-14.28,37.19s-7.42-18.14-4.81-39.25S670.05,602,670.05,602,677.47,620.11,674.86,641.22Z" transform="translate(-118.91 -220.92)"/><path class="cls-1" d="M683.37,656.47c-8.42,19.75-24.17,32.44-24.17,32.44a86.71,86.71,0,0,1,6.32-39.06c8.42-19.75,24.17-32.44,24.17-32.44A86.71,86.71,0,0,1,683.37,656.47Z" transform="translate(-118.91 -220.92)"/><line class="cls-2" x1="909.41" y1="48.74" x2="909.41" y2="482.28"/><line class="cls-3" x1="361.11" y1="54.46" x2="361.11" y2="488"/><line class="cls-3" x1="638.86" y1="65.1" x2="638.86" y2="489.51"/><path class="cls-1" d="M996.5,293.78V690.86H468.56V293.78H996.5m22-22H446.56V712.86H1018.5V271.78Z" transform="translate(-118.91 -220.92)"/><line class="cls-4" x1="618.12" y1="52.74" x2="618.12" y2="490.87"/><line class="cls-4" x1="327.66" y1="271.4" x2="899.59" y2="271.4"/><path class="cls-5" d="M527.94,757.11c0-169.43-87.55-330.15-87.55-330.15H410.45V757.11Z" transform="translate(-118.91 -220.92)"/><path class="cls-5" d="M527.94,226.6c0,102.83-87.55,200.36-87.55,200.36H410.45V226.6Z" transform="translate(-118.91 -220.92)"/><polygon class="cls-6" points="334.25 220.48 280.63 222.81 280.63 194.21 334.25 196.54 334.25 220.48"/><path class="cls-5" d="M936.92,757.11C936.92,587.68,1021,427,1021,427h28.76V757.11Z" transform="translate(-118.91 -220.92)"/><path class="cls-5" d="M936.92,226.6C936.92,329.43,1021,427,1021,427h28.76V226.6Z" transform="translate(-118.91 -220.92)"/><polygon class="cls-6" points="888.94 220.48 939.05 222.81 939.05 194.21 888.94 196.54 888.94 220.48"/><rect class="cls-5" x="235.88" y="5.68" width="746.3" height="15.01"/><ellipse class="cls-5" cx="969.97" cy="13.18" rx="14.06" ry="13.18"/><ellipse class="cls-5" cx="613.12" cy="13.18" rx="14.06" ry="13.18"/><ellipse class="cls-5" cx="235.88" cy="13.18" rx="14.06" ry="13.18"/><rect class="cls-5" x="332.91" y="507.08" width="51.49" height="73.85"/><line class="cls-7" x1="628.35" y1="734.46" x2="628.35" y2="782.21"/><line class="cls-7" x1="552.66" y1="734.46" x2="552.66" y2="782.21"/><line class="cls-7" x1="222.81" y1="734.46" x2="222.81" y2="782.21"/><line class="cls-7" x1="147.12" y1="734.46" x2="147.12" y2="782.21"/><rect class="cls-1" x="113.17" y="580.92" width="406.15" height="153.54"/><rect class="cls-5" x="136.56" y="597.46" width="169.44" height="119.38"/><rect class="cls-5" x="326.5" y="598.54" width="169.44" height="119.38"/><rect class="cls-8" x="519.33" y="580.92" width="142.36" height="153.54"/><circle class="cls-1" cx="411.22" cy="658.23" r="13.26"/><circle class="cls-1" cx="221.27" cy="657.15" r="13.26"/><path class="cls-5" d="M654.87,701.86h0a12.5,12.5,0,0,1,12.5,12.5V826.83a0,0,0,0,1,0,0h-25a0,0,0,0,1,0,0V714.36A12.5,12.5,0,0,1,654.87,701.86Z" transform="translate(-228.38 1198.3) rotate(-90)"/><path class="cls-1" d="M692.7,739.68h0a7.24,7.24,0,0,1,7.24,7.24v41.79a.3.3,0,0,1-.3.3H685.76a.3.3,0,0,1-.3-.3V746.92a7.24,7.24,0,0,1,7.24-7.24Z" transform="translate(-190.55 1236.12) rotate(-90)"/><path class="cls-5" d="M631.82,721.72h25a0,0,0,0,1,0,0V844.47a12.5,12.5,0,0,1-12.5,12.5h0a12.5,12.5,0,0,1-12.5-12.5V721.72A0,0,0,0,1,631.82,721.72Z" transform="translate(-263.93 1212.75) rotate(-90)"/><path class="cls-1" d="M598.35,760.53h14.33a0,0,0,0,1,0,0V811a7.17,7.17,0,0,1-7.17,7.17h0a7.17,7.17,0,0,1-7.17-7.17V760.53A0,0,0,0,1,598.35,760.53Z" transform="translate(-302.74 1173.94) rotate(-90)"/><polygon class="cls-1" points="366.91 580.92 284.71 580.92 315.74 469.54 397.94 469.54 366.91 580.92"/><polygon class="cls-6" points="349.91 580.92 267.71 580.92 298.74 469.54 380.94 469.54 349.91 580.92"/><polygon class="cls-5" points="339.58 563.74 287.62 563.74 309.07 486.73 361.03 486.73 339.58 563.74"/><rect class="cls-5" x="218.54" y="528.7" width="36.41" height="52.23"/><polygon class="cls-1" points="239.58 580.92 181.44 580.92 203.39 502.15 261.52 502.15 239.58 580.92"/><polygon class="cls-6" points="227.56 580.92 169.42 580.92 191.37 502.15 249.5 502.15 227.56 580.92"/><polygon class="cls-1" points="218.67 564.79 187.3 564.79 200.25 518.28 231.63 518.28 218.67 564.79"/><rect class="cls-1" x="1000.5" y="216.97" width="301.13" height="22.97"/><rect class="cls-5" x="1301.63" y="216.97" width="49.54" height="22.97"/><rect class="cls-1" x="1148.81" y="144.46" width="18.56" height="72.51"/><rect class="cls-5" x="1130.25" y="144.46" width="18.56" height="72.51"/><rect class="cls-5" x="1167.38" y="144.46" width="18.56" height="72.51"/><path class="cls-8" d="M1185.94,144.46h48.51a5.13,5.13,0,0,1,5.13,5.13v62.26a5.13,5.13,0,0,1-5.13,5.13h-48.51a0,0,0,0,1,0,0V144.46A0,0,0,0,1,1185.94,144.46Z"/><rect class="cls-5" x="1328.08" y="360.67" width="7.18" height="37.74" transform="translate(833.22 1490.28) rotate(-90)"/><rect class="cls-5" x="1328.08" y="380.15" width="7.18" height="20.92" transform="translate(822.15 1501.36) rotate(-90)"/><polygon class="cls-8" points="1085.09 239.95 1106.22 278.51 1106.22 239.95 1085.09 239.95"/><polygon class="cls-5" points="1073.4 239.95 1094.53 278.51 1106.22 278.51 1085.09 239.95 1073.4 239.95"/><polygon class="cls-8" points="1226.09 239.95 1247.22 278.51 1247.22 239.95 1226.09 239.95"/><polygon class="cls-5" points="1214.4 239.95 1235.53 278.51 1247.22 278.51 1226.09 239.95 1214.4 239.95"/><rect class="cls-1" x="1490.19" y="147.63" width="111.38" height="145.85"/><rect class="cls-8" x="1510.75" y="174.55" width="70.26" height="92"/><rect class="cls-8" x="1601.58" y="147.63" width="8.62" height="145.85"/><rect class="cls-1" x="1356.56" y="71.01" width="55.53" height="72.71"/><rect class="cls-8" x="1369.11" y="91.01" width="30.42" height="32.72"/><rect class="cls-8" x="1412.09" y="71.01" width="15.85" height="72.71"/><polygon class="cls-5" points="1088.58 217.36 1053 217.36 1070.79 187.21 1088.58 217.36"/><path class="cls-5" d="M1228,684.62h27.23a0,0,0,0,1,0,0V792.38A13.61,13.61,0,0,1,1241.61,806h0A13.61,13.61,0,0,1,1228,792.38V684.62A0,0,0,0,1,1228,684.62Z" transform="translate(377.4 1765.99) rotate(-90)"/><path class="cls-1" d="M1197.16,721.35h15.44a.16.16,0,0,1,.16.16v39.86a7.88,7.88,0,0,1-7.88,7.88h0a7.88,7.88,0,0,1-7.88-7.88V721.52A.16.16,0,0,1,1197.16,721.35Z" transform="translate(340.66 1729.26) rotate(-90)"/><path class="cls-5" d="M1251.86,706.85h0a13.61,13.61,0,0,1,13.61,13.61V838.22a0,0,0,0,1,0,0h-27.23a0,0,0,0,1,0,0V720.47A13.61,13.61,0,0,1,1251.86,706.85Z" transform="translate(360.42 1803.47) rotate(-90)"/><path class="cls-1" d="M1289.55,744.55h0a7.81,7.81,0,0,1,7.81,7.81v48.17a0,0,0,0,1,0,0h-15.61a0,0,0,0,1,0,0V752.35A7.81,7.81,0,0,1,1289.55,744.55Z" transform="translate(398.11 1841.16) rotate(-90)"/><line class="cls-9" x1="1527.87" y1="372.92" x2="1527.87" y2="788.16"/><line class="cls-9" x1="1295" y1="372.92" x2="1295" y2="788.16"/><path class="cls-1" d="M1405.64,399.08h0a97.08,97.08,0,0,1,97.08,97.08V693.23a0,0,0,0,1,0,0H1297.79a0,0,0,0,1,0,0V506.92a107.85,107.85,0,0,1,107.85-107.85Z"/><line class="cls-10" x1="1271.49" y1="372.92" x2="1271.49" y2="788.16"/><line class="cls-10" x1="1504.72" y1="372.92" x2="1504.72" y2="788.16"/><rect class="cls-6" x="1224.25" y="522.77" width="276.31" height="48" rx="24"/><rect class="cls-11" x="1338.3" y="522.77" width="162.26" height="48" rx="24"/><rect class="cls-8" x="1020.45" y="565.23" width="234.56" height="128"/><line class="cls-9" x1="1031.94" y1="372.92" x2="1031.94" y2="788.16"/><line class="cls-9" x1="799.07" y1="372.92" x2="799.07" y2="788.16"/><path class="cls-1" d="M909.71,399.08h0a97.08,97.08,0,0,1,97.08,97.08V693.23a0,0,0,0,1,0,0H801.86a0,0,0,0,1,0,0V506.92A107.85,107.85,0,0,1,909.71,399.08Z"/><path class="cls-5" d="M1239,565.23h148.92a0,0,0,0,1,0,0V684a30.15,30.15,0,0,1-30.15,30.15h-88.62A30.15,30.15,0,0,1,1239,684V565.23A0,0,0,0,1,1239,565.23Z"/><line class="cls-10" x1="775.56" y1="372.92" x2="775.56" y2="788.16"/><line class="cls-10" x1="1008.79" y1="372.92" x2="1008.79" y2="788.16"/><rect class="cls-8" x="1387.94" y="570.77" width="116" height="122.46"/><circle class="cls-5" cx="1130.37" cy="490.89" r="21.59"/><path class="cls-5" d="M1248.87,683.13c-2.42,7.11-10.18,10.9-10.18,10.9s-3.83-7.74-1.41-14.85,10.19-10.9,10.19-10.9S1251.3,676,1248.87,683.13Z" transform="translate(-118.91 -220.92)"/><ellipse class="cls-5" cx="1629.07" cy="561.9" rx="29.64" ry="42.5"/><polygon class="cls-1" points="1677.3 529.82 1580.84 529.82 1598.19 431.08 1659.95 431.08 1677.3 529.82"/><rect class="cls-5" x="1462.39" y="760.82" width="147.09" height="18.26"/><rect class="cls-8" x="1609.48" y="763.64" width="90.97" height="18.26"/><rect class="cls-1" x="1447.94" y="589.85" width="152" height="178.15"/><rect class="cls-8" x="1599.94" y="589.85" width="117.54" height="178.15"/><rect class="cls-5" x="1462.39" y="605.38" width="122.14" height="51.54"/><rect class="cls-5" x="1462.39" y="669.69" width="122.14" height="80.26"/><path class="cls-8" d="M1476.81,605.38h93.28a0,0,0,0,1,0,0v0a10,10,0,0,1-10,10h-73.28a10,10,0,0,1-10-10v0A0,0,0,0,1,1476.81,605.38Z"/><path class="cls-8" d="M1476.81,669.69h93.28a0,0,0,0,1,0,0v0a10,10,0,0,1-10,10h-73.28a10,10,0,0,1-10-10v0A0,0,0,0,1,1476.81,669.69Z"/><line class="cls-12" x1="1761.38" y1="788.16" x2="10" y2="788.16"/></g><g id="Man"><ellipse class="cls-13" cx="838.45" cy="937.44" rx="625.49" ry="3.62"/><polygon class="cls-14" points="1130.25 936.49 1107.27 936.49 1051.42 439.54 1074.4 439.54 1130.25 936.49"/><polygon class="cls-14" points="909.07 936.49 932.05 936.49 987.89 439.54 964.92 439.54 909.07 936.49"/><polygon class="cls-15" points="922.1 936.49 945.08 936.49 1000.92 439.54 977.95 439.54 922.1 936.49"/><polygon class="cls-14" points="1101.92 641.62 967.41 640.98 970.97 609.37 1101.92 609.62 1101.92 641.62"/><polygon class="cls-15" points="1143.28 936.49 1120.3 936.49 1064.46 439.54 1087.43 439.54 1143.28 936.49"/><polygon class="cls-15" points="992.88 511.14 990.77 529.87 954.76 529.87 956.88 511.14 992.88 511.14"/><polygon class="cls-15" points="1097.59 529.87 1061.58 529.87 1059.47 511.14 1095.47 511.14 1097.59 529.87"/><rect class="cls-14" x="953.87" y="429.08" width="367.71" height="302.98" transform="translate(2156.55 940.21) rotate(-180)"/><rect class="cls-16" x="968.18" y="442.66" width="339.1" height="275.82" transform="translate(2156.55 940.21) rotate(-180)"/><rect class="cls-15" x="1321.58" y="429.08" width="14.71" height="302.98" transform="translate(2538.97 940.21) rotate(-180)"/><rect class="cls-15" x="968.18" y="442.66" width="7.44" height="275.82" transform="translate(1824.88 940.21) rotate(-180)"/><polygon class="cls-17" points="1148.19 497.55 1148.19 488.26 1112.24 488.26 1103.24 492.91 1112.24 497.55 1148.19 497.55"/><rect class="cls-18" x="1139.56" y="679.65" width="19.83" height="57.82" transform="translate(1739.13 -661.83) rotate(90)"/><rect class="cls-19" x="1175.9" y="701.12" width="19.83" height="14.87" transform="translate(1775.47 -698.18) rotate(90)"/><polygon class="cls-20" points="1072.09 326.06 1034.09 351.06 996.09 326.06 1034.09 301.06 1072.09 326.06"/><polygon class="cls-20" points="1072.09 395.23 1034.09 420.23 996.09 395.23 1034.09 370.23 1072.09 395.23"/><line class="cls-20" x1="996.09" y1="326.06" x2="996.09" y2="395.23"/><line class="cls-20" x1="1072.09" y1="326.06" x2="1072.09" y2="395.23"/><line class="cls-20" x1="1034.09" y1="351.06" x2="1034.09" y2="420.23"/><line class="cls-20" x1="880.21" y1="249.46" x2="966.63" y2="249.46"/><line class="cls-20" x1="880.21" y1="265.46" x2="966.63" y2="265.46"/><line class="cls-20" x1="880.21" y1="281.46" x2="941.19" y2="281.46"/><line class="cls-20" x1="1085.44" y1="285.06" x2="1151.24" y2="285.06"/><line class="cls-20" x1="1085.44" y1="301.06" x2="1131.88" y2="301.06"/><line class="cls-20" x1="910.7" y1="420.23" x2="976.51" y2="420.23"/><line class="cls-20" x1="910.7" y1="436.23" x2="957.14" y2="436.23"/><polyline class="cls-21" points="880.21 299.08 960.59 299.08 978.78 315.38"/><path class="cls-22" d="M-357.43,171.79" transform="translate(-118.91 -220.92)"/><rect class="cls-18" x="584.33" y="851.39" width="18.14" height="306.03" transform="translate(1067.89 1787.88) rotate(-180)"/><rect class="cls-16" x="566.19" y="851.39" width="18.14" height="306.03" transform="translate(1031.62 1787.88) rotate(-180)"/><rect class="cls-16" x="726.78" y="824.3" width="18.14" height="333.11" transform="translate(1352.78 1760.8) rotate(-180)"/><rect class="cls-16" x="708.64" y="824.3" width="18.14" height="333.11" transform="translate(1316.51 1760.8) rotate(-180)"/><rect class="cls-16" x="583.78" y="824.39" width="143" height="73.84" transform="translate(1191.65 1501.7) rotate(-180)"/><rect class="cls-16" x="565.64" y="824.3" width="179.27" height="29.62" transform="translate(1191.65 1457.3) rotate(-180)"/><polygon class="cls-23" points="475.03 719.71 462.45 719.71 408.58 936.49 421.16 936.49 475.03 719.71"/><rect class="cls-24" x="565.63" y="595.35" width="141.94" height="123.73" transform="translate(-130.43 -209.57) rotate(-1.01)"/><polygon class="cls-25" points="742.33 477.39 863.97 477.39 835.42 571.49 713.78 571.49 742.33 477.39"/><polygon class="cls-17" points="855.4 483.45 831.04 563.79 722.18 563.79 746.55 483.45 855.4 483.45"/><polygon class="cls-26" points="840.47 492.52 839.31 496.37 749.96 496.37 751.12 492.52 840.47 492.52"/><polygon class="cls-26" points="828.58 500.35 827.42 504.19 747.82 504.19 748.98 500.35 828.58 500.35"/><polygon class="cls-26" points="835.53 508.18 834.37 512.02 745.02 512.02 746.18 508.18 835.53 508.18"/><polygon class="cls-26" points="829.83 516 828.67 519.84 742.25 519.84 743.41 516 829.83 516"/><polygon class="cls-26" points="802.76 523.83 801.6 527.67 739.55 527.67 740.71 523.83 802.76 523.83"/><rect class="cls-25" x="624.84" y="571.49" width="121.64" height="7.74"/><rect class="cls-27" x="746.48" y="571.49" width="88.9" height="7.74"/><polygon class="cls-27" points="863.87 477.39 871.34 477.39 842.8 571.49 835.32 571.49 863.87 477.39"/><ellipse class="cls-24" cx="519.52" cy="370.85" rx="73.88" ry="74.41"/><path class="cls-28" d="M622.1,642.05l-5.21,29.45-2.25.85s9.71,29.93,31.26,24.48c15.22-3.85,8.3-13.06,8.3-13.06l-3.84-3.3,2.92-29.6" transform="translate(-118.91 -220.92)"/><ellipse class="cls-24" cx="470.42" cy="284.95" rx="39.67" ry="39.95"/><path class="cls-28" d="M621.7,629.06c4.13,6.41,2.62,15,.4,20-.74,1.72-5.55,16.17-6.27,16.83-2.82,2.57,32.39,17.34,32.39,17.34l1.85-29c10.14.42,22-.32,28.49-4.8,19.24-13.35,19.67-58.56,19.31-60.82l-16.62-18.12s-24.79-11-28.46-6.11c-6.7,9-22.09,49.13-33.77,44.78,0,0,1.27-12.42-9-12.24-7.65.14-9.63,6.36-9.56,9.93C600.67,618.87,616.15,620.43,621.7,629.06Z" transform="translate(-118.91 -220.92)"/><polygon class="cls-29" points="576.69 393.26 579.54 412.41 571.32 410.19 576.69 393.26"/><ellipse class="cls-30" cx="684.96" cy="613.24" rx="6.49" ry="4.34" transform="translate(-203.39 895.51) rotate(-75.02)"/><path class="cls-24" d="M672.72,565.52A29.51,29.51,0,0,0,675.25,577c.21.44.41.9.65,1.35a33.4,33.4,0,0,0,5.87,8.17A40.45,40.45,0,0,0,708,598.16c.54,0,1.07.06,1.6.07L709.35,586h0c0-.39,0-.76,0-1.14-.27-15.11-6.56-28.9-16.87-39.67a68.07,68.07,0,0,0-6.17-5.68,34.17,34.17,0,0,0-11,13.43A29.33,29.33,0,0,0,672.72,565.52Z" transform="translate(-118.91 -220.92)"/><path class="cls-24" d="M618.34,570.42c.19,10.75,10,19.64,23.26,22.18,1,.21,2.11.37,3.21.49a39.89,39.89,0,0,0,5.39.26c17.37-.32,31.26-11.08,31-24.06a17,17,0,0,0-.45-3.65c-2.55-11.2-15.71-19.56-31.41-19.28-17.2.31-31,10.88-31,23.69Z" transform="translate(-118.91 -220.92)"/><path class="cls-31" d="M683.19,637.38s-5.58.87-5.49-7.66" transform="translate(-118.91 -220.92)"/><path class="cls-32" d="M652.92,655.19s-18.46-1.11-23.81-4.32l22.83,12.79Z" transform="translate(-118.91 -220.92)"/><path class="cls-32" d="M768.59,794.83l-.29-20.31-86.62-8.22-36.94-58.58-32.29,31.2s37.67,50.31,52.71,56.49C691.5,806.23,768.59,794.83,768.59,794.83Z" transform="translate(-118.91 -220.92)"/><path class="cls-28" d="M818.44,794.83l-.29-20.31-86.62-8.22-36.95-58.58-32.29,31.2S700,789.23,715,795.41C741.34,806.23,818.44,794.83,818.44,794.83Z" transform="translate(-118.91 -220.92)"/><path class="cls-30" d="M743.68,1096.8l-4.76,31.35s19.29,7.78,45.31,29.27H704.54l9.43-67.18Z" transform="translate(-118.91 -220.92)"/><polygon class="cls-32" points="586.31 868.2 589.82 904.97 623.01 906.97 620.2 879.08 586.31 868.2"/><polyline class="cls-33" points="553.76 695.54 579.66 891.78 631.68 891.78 627.61 638.26"/><line class="cls-34" x1="526.03" y1="827.08" x2="555.83" y2="721.91"/><line class="cls-34" x1="502.71" y1="721.91" x2="580.36" y2="826.79"/><line class="cls-35" x1="502.71" y1="721.91" x2="391.35" y2="825.62"/><polygon class="cls-23" points="549.26 719.58 561.67 719.58 614.76 936.49 602.36 936.49 549.26 719.58"/><line class="cls-34" x1="415.71" y1="721.91" x2="526.03" y2="825.62"/><polygon class="cls-14" points="421.89 719.71 409.31 719.71 355.44 936.49 368.02 936.49 421.89 719.71"/><polygon class="cls-14" points="496.21 719.71 508.79 719.71 562.66 936.49 550.08 936.49 496.21 719.71"/><ellipse class="cls-36" cx="644.76" cy="1040.71" rx="2.78" ry="5.49" transform="translate(-302.43 -81.73) rotate(-10.8)"/><ellipse class="cls-36" cx="623" cy="950.64" rx="2.78" ry="5.49" transform="translate(-285.95 -87.4) rotate(-10.8)"/><ellipse class="cls-36" cx="700.43" cy="1034.07" rx="0.84" ry="5.48" transform="translate(-338.11 -31.94) rotate(-13.31)"/><ellipse class="cls-36" cx="680.37" cy="950.48" rx="0.84" ry="5.48" transform="translate(-319.41 -38.8) rotate(-13.31)"/><ellipse class="cls-36" cx="508.2" cy="1037.68" rx="5.49" ry="0.82" transform="translate(-732.26 1094.52) rotate(-77.82)"/><ellipse class="cls-36" cx="528.89" cy="949.87" rx="5.49" ry="0.82" transform="translate(-630.11 1045.47) rotate(-77.82)"/><rect class="cls-16" x="595.09" y="800.15" width="367.71" height="24.15" transform="translate(1439 1403.53) rotate(-180)"/><path class="cls-37" d="M550.72,916.47H731.66a0,0,0,0,1,0,0V943.2a0,0,0,0,1,0,0h-206a0,0,0,0,1,0,0v-1.66A25.08,25.08,0,0,1,550.72,916.47Z" transform="translate(1138.4 1638.75) rotate(-180)"/><path class="cls-30" d="M835.33,1096.54l-4.77,31.35s45.29,8,71.32,29.53l-105.7-.26,9.44-67.18Z" transform="translate(-118.91 -220.92)"/><polygon class="cls-32" points="677.95 868.2 681.46 904.97 714.65 906.97 711.84 879.08 677.95 868.2"/><path class="cls-38" d="M765.31,916.47l25.9,196.23h52L834.6,883.63c-.26-15.76-13-30-29.89-32L581.34,827.75v88.72Z" transform="translate(-118.91 -220.92)"/><path class="cls-14" d="M552.48,838.37l104.83-1.26s-.46-18.11,10.05-51.52c4.19-13.32,3.36-21.21,3.36-21.21l17.13,23.32,36.74-52.47c-30.05-39.31-40.75-48.84-62.3-60.23-11.57-6.12-26.43-13.48-52.73-8.44-13.62,2.62-43.87,21.39-45.1,62.17C563.51,760.3,552.48,838.37,552.48,838.37Z" transform="translate(-118.91 -220.92)"/><path class="cls-24" d="M597.41,723.42l28.26-.51-1.45-82-58.88,1.06.91,51.21A30.72,30.72,0,0,0,597.41,723.42Z" transform="translate(-118.91 -220.92)"/><path class="cls-23" d="M508.23,771.16a24.12,24.12,0,0,0,24.12,24.12c.66,0,1.32,0,2-.08s1-.1,1.51-.18a24.11,24.11,0,0,0,0-47.71c-.5-.08-1-.14-1.51-.18s-1.3-.08-2-.08A24.12,24.12,0,0,0,508.23,771.16Z" transform="translate(-118.91 -220.92)"/><path class="cls-17" d="M515.2,771.16A24.12,24.12,0,0,0,535.82,795a24.11,24.11,0,0,0,0-47.71A24.11,24.11,0,0,0,515.2,771.16Z" transform="translate(-118.91 -220.92)"/><rect class="cls-18" x="929.58" y="800.15" width="179.27" height="24.15" transform="translate(1919.52 1403.53) rotate(-180)"/><rect class="cls-18" x="1046.1" y="824.3" width="18.14" height="333.11" transform="translate(1991.42 1760.8) rotate(-180)"/><rect class="cls-16" x="1027.96" y="824.3" width="18.14" height="333.11" transform="translate(1955.15 1760.8) rotate(-180)"/><rect class="cls-18" x="903.1" y="824.3" width="18.14" height="333.11" transform="translate(1705.43 1760.8) rotate(-180)"/><rect class="cls-18" x="903.1" y="824.39" width="143" height="73.84" transform="translate(1830.29 1501.7) rotate(-180)"/><rect class="cls-16" x="884.96" y="824.3" width="18.14" height="333.11" transform="translate(1669.16 1760.8) rotate(-180)"/><rect class="cls-16" x="884.96" y="824.3" width="179.27" height="29.62" transform="translate(1830.29 1457.3) rotate(-180)"/><path class="cls-28" d="M816.35,794.94l41.45-8.57c2.46-.51,10.51-.36,10.51-.36,2.4-.26,7.42-.55,8.08-3.27.16-.67-.62-1.43-.62-1.43s3.14-.12,3.66-2.88c.21-1.08-6.64-2.39-6.64-2.39s4.18.2,3.62-3.28c-.09-.57-19.66-4.49-19.66-4.49l3.78.28,5.17.59s2.63-.61,3-2.55c.14-.77-4.11-2.1-9-2.89a45.56,45.56,0,0,0-18.67.74c-6.7,1.53-9,1.46-17.11,5.31a75.76,75.76,0,0,0-10.54,6.41" transform="translate(-118.91 -220.92)"/><path class="cls-37" d="M510.22,943.2h59.15c30.29,0,53.6-27.81,49.42-59L596.62,710.61c-1.92-14.38-13.75-25.08-27.73-25.08h-58.2c-14,0-25.8,10.7-27.73,25.08L460.79,884.23C456.62,915.39,479.93,943.2,510.22,943.2Z" transform="translate(-118.91 -220.92)"/><polygon class="cls-39" points="809.99 481.97 794.79 483.81 793.57 481.9 794.37 480.15 793.21 478.76 807.42 476.92 809.56 478.2 807.77 480 809.99 481.97"/><path class="cls-37" d="M619.28,887.92s4.1,28.55,42.22,28.55S673,934.23,673,934.23s-91.54-9.23-90.67-9.54,16.41-33.23,16.41-33.23Z" transform="translate(-118.91 -220.92)"/><path class="cls-40" d="M1519.26,904.32c2,7.39,2.89,18.53,3.19,25.44.14,3.29-2.85,14.65-5.76,20.83a33.26,33.26,0,0,1-4.47,6.7s-3.85,6.42-5,6.94c-3.21,1.5-3.92-1.68-3.92-1.68s-3.7,9.32-5.54,8.33a4.74,4.74,0,0,1-2.23-4.78c2.45-14.89,2.54-30.53-1.86-33.4s-7.33,12.82-10.54,16.77-13.06,6.27-9.42-.48c5.23-9.7,5.87-13.56,7.18-19.92A119.31,119.31,0,0,1,1484,917.3l10-20.54-.55-39.32L1435,1123.27l-83.5-379.51L1328,763.92l-4.16-10.54-15.89,8.88c-10.12,4.71-23.45.58-32.56-13.74l-54.47-85.78a54.08,54.08,0,0,1-9.9-6c-8.54-6.88-11.53-12.68-17.64-18.8-7.88-7.88-17.9-14.28-21.12-18.1a2.66,2.66,0,0,1,.26-3.72l.61-.56a2.7,2.7,0,0,1,3.56,0l22,15.49.74-1.16L1174,606a2.67,2.67,0,0,1,.38-3.77l1.31-1.07a2.69,2.69,0,0,1,3.68.29l26.87,23.74.87-.83c.41-.23-21.13-23.77-26.87-31.18a2.64,2.64,0,0,1,.59-3.82l1.73-1.2a2.67,2.67,0,0,1,3.52.42L1215,619l.65-.79c.4-.21-14.46-20.87-19.26-27.92a2.66,2.66,0,0,1,.94-3.85l1.31-.72a2.68,2.68,0,0,1,3.43.76l24.59,31.89a15.87,15.87,0,0,0,3.64,2.74c2.58-3.51,1.46-13.12,3.57-17.69,2.53-5.48,13.93-13.44,9.16-1.91s-.26,19.25.52,25.78a121.9,121.9,0,0,1,.79,12.59l-.49,8.71,56.38,66.2s2.3-2.08,6.18-5.53l-3.65-9.25s37.46-40.89,58.72-50.47c13.47-6.07,23.86-9.39,31.75-10.6,1.22-.19,2.37-.32,3.48-.41.11-.27.18-.42.18-.42l5-1.34h0l2.53-29.25s-43.15,3.35-52.15-1.33c0,0-4.32-26.56-2.83-52.44a134,134,0,0,1,1.71-15.54c1,.24,2,.47,3,.66,18.22,3.57,43.6,1.64,78.63-10.32-.27.64-10.56,24.72,18.26,29.67,0,0,0,0,0-.05,1.87-5.38,12.71-11.56,22.35-11.07h0c6.17.3,11.84,3.32,14.39,11,8.43,25.54-40.17,39-40.17,39l2.3,41.52,3.91.57,2.31.34a66.52,66.52,0,0,1,13,3.07c33.93,13.41,48.6,42.35,54.77,61.49v0l4.2,18.46,7.1,31.15-6.31,1.56c2.39,10.38,4.46,20.86,4.93,27.75C1534.89,799.64,1521.65,888.54,1519.26,904.32Z" transform="translate(-118.91 -220.92)"/><path class="cls-41" d="M1401.83,636.76h0l-5,1.34s-.07.15-.18.42c-1.11.09-2.26.22-3.48.41C1395.92,638.23,1399,637.41,1401.83,636.76Z" transform="translate(-118.91 -220.92)"/><path class="cls-42" d="M1528.1,722.56h0l-4.2-18.46A99.26,99.26,0,0,1,1528.1,722.56Z" transform="translate(-118.91 -220.92)"/><path class="cls-43" d="M1473.35,547.09h0c-9.64-.49-20.48,5.69-22.35,11.07,0,0,0,.05,0,.05-28.82-5-18.53-29-18.26-29.67-35,12-60.41,13.89-78.63,10.32-1-.19-2-.42-3-.66a134,134,0,0,0-1.71,15.54c-10.5-5.1-13.35-13-12.83-21-29.91-16-27.66-51.59-21.94-54C1323.8,475,1340,501.9,1340,501.9s5-49.53,37-49.67c22.49-.1,30.63,34,30.63,34s28.82-17.37,61.16,16.1C1500.57,535.24,1474.23,546.71,1473.35,547.09Z" transform="translate(-118.91 -220.92)"/><path class="cls-30" d="M1473.33,547.09c-16.66.57-22,10.39-22.35,11.07C1452.85,552.78,1463.69,546.6,1473.33,547.09Z" transform="translate(-118.91 -220.92)"/><polyline class="cls-44" points="1342.23 254.97 1338.22 277.31 1346.59 281.32 1362.06 265.56"/><path class="cls-45" d="M1483.76,698.24" transform="translate(-118.91 -220.92)"/><path class="cls-45" d="M1510.45,716" transform="translate(-118.91 -220.92)"/><path class="cls-46" d="M1373.88,589.9c.67,4.28,6.55,6.91,13.71,5.79s12-9.59,7.06-13c-3.57-2.46-7.14-.8-13,.94C1376.78,585.1,1373.21,585.61,1373.88,589.9Z" transform="translate(-118.91 -220.92)"/><polygon class="cls-47" points="1285.45 386.58 1314.18 380.5 1284.47 399.58 1285.45 386.58"/><path class="cls-22" d="M1262.47,577.42" transform="translate(-118.91 -220.92)"/><circle class="cls-43" cx="1267.46" cy="335.73" r="5.94"/><circle class="cls-43" cx="1236.61" cy="335.73" r="5.94"/><circle class="cls-48" cx="1238.85" cy="336.51" r="12.83"/><circle class="cls-48" cx="1270.17" cy="336.51" r="12.83"/><polygon class="cls-47" points="1254.67 336.57 1244.86 360.55 1256.62 360.7 1254.67 336.57"/><line class="cls-48" x1="1283.45" y1="334.46" x2="1333.78" y2="334.46"/><line class="cls-48" x1="1256.62" y1="334.46" x2="1251.84" y2="334.46"/><line class="cls-48" x1="1225.29" y1="334.46" x2="1230.38" y2="334.46"/><polygon class="cls-47" points="1409.95 534.35 1369.44 544.48 1412.28 545.15 1409.95 534.35"/><rect class="cls-49" x="1223.67" y="493.03" width="184.83" height="409.32"/><rect class="cls-50" x="1200.43" y="902.35" width="231.71" height="35.08" rx="17.54"/><rect class="cls-51" x="1305.09" y="902.36" width="129.22" height="35.08" rx="17.54"/><path class="cls-52" d="M1461.39,1131.53h0a3.38,3.38,0,0,1,3.38,3.36v11.85a3.37,3.37,0,0,1-3.37,3.37h0a3.37,3.37,0,0,1-3.37-3.37c0-3.36,0-8.49,0-11.85A3.36,3.36,0,0,1,1461.39,1131.53Z" transform="translate(-118.91 -220.92)"/><rect class="cls-52" x="1327.3" y="910.61" width="6.76" height="18.58" rx="3.38"/><rect class="cls-50" x="1358.55" y="915.18" width="62.29" height="9.43" rx="4.72"/><polygon class="cls-47" points="1187.48 488.33 1196.57 537.12 1204.9 532.46 1187.48 488.33"/></g></svg>