<svg xmlns="http://www.w3.org/2000/svg" viewBox="0 0 1771.38 1029.41"><defs><style>.cls-1{fill:#dceeff;}.cls-2{fill:#cce3ff;}.cls-3,.cls-9{fill:#ecf6ff;}.cls-4{fill:#b6d4ff;}.cls-15,.cls-30,.cls-32,.cls-5,.cls-6,.cls-7,.cls-8{fill:none;}.cls-5,.cls-8,.cls-9{stroke:#dceeff;}.cls-15,.cls-30,.cls-31,.cls-32,.cls-5,.cls-6,.cls-7,.cls-8,.cls-9{stroke-miterlimit:10;}.cls-5{stroke-width:10px;}.cls-6{stroke:#b6d4ff;}.cls-15,.cls-6{stroke-width:4px;}.cls-7{stroke:#cce3ff;}.cls-7,.cls-8{stroke-width:8px;}.cls-31,.cls-32,.cls-9{stroke-linecap:round;}.cls-9{stroke-width:20px;}.cls-10{fill:#afb2bf;}.cls-11{fill:#262933;}.cls-12{fill:#606a75;}.cls-13{fill:#464d54;}.cls-14{fill:#919aa8;}.cls-15{stroke:#262933;}.cls-16{fill:#405fd3;}.cls-17{fill:#6ca1ff;}.cls-18{fill:#ffc000;}.cls-19{fill:#fff;}.cls-20{fill:#2d49a0;}.cls-21{fill:#e576c6;}.cls-22{fill:#0d0b6d;}.cls-23{fill:#b7c0ce;}.cls-24{fill:#6d645a;}.cls-25{fill:#cf3e83;}.cls-26{fill:#240040;}.cls-27{fill:#2b2a38;}.cls-28{fill:#bc3579;}.cls-29{fill:#824f16;}.cls-30{stroke:#1c295e;stroke-width:3px;}.cls-31{fill:#d2d1db;}.cls-31,.cls-32{stroke:#bc2085;stroke-width:2px;}.cls-33{fill:#db8b21;}</style></defs><title>back and obj 5</title><g id="Back"><polygon class="cls-1" points="454.85 428.44 390.4 428.44 400.9 322.68 443.09 315.17 454.85 428.44"/><path class="cls-1" d="M632.31,500.18H607.93a5,5,0,0,1-4.95-5.42l3.9-43.06a5,5,0,0,1,5-4.53h16.58a5,5,0,0,1,5,4.53l3.9,43.06A5,5,0,0,1,632.31,500.18Z" transform="translate(-108.92 -153.43)"/><rect class="cls-1" x="506" y="189.11" width="10.4" height="122.44" rx="4.77"/><polygon class="cls-1" points="1427.28 424.15 1364.52 424.15 1375.5 285.38 1410.25 285.38 1427.28 424.15"/><path class="cls-1" d="M1513.22,458.49h-99.37l2.28-12.14a9.24,9.24,0,0,1,9.08-7.54h88Z" transform="translate(-108.92 -153.43)"/><path class="cls-1" d="M1494.77,553.19v24.39h-99.38l2.55-16.82a8.91,8.91,0,0,1,8.8-7.57Z" transform="translate(-108.92 -153.43)"/><path class="cls-1" d="M1472.33,491.85c0,21.34-2.92,40.86-7.79,56h-51.07c-4.86-15.14-7.8-34.66-7.8-56" transform="translate(-108.92 -153.43)"/><path class="cls-1" d="M864,533.77c0,18-5,34.36-13.32,47.09H763.41c-8.31-12.73-13.32-29.14-13.32-47.09" transform="translate(-108.92 -153.43)"/><path class="cls-1" d="M1622.15,525.21c0,19.29-2.05,36.94-5.48,50.63h-36c-3.42-13.69-5.48-31.34-5.48-50.63" transform="translate(-108.92 -153.43)"/><rect class="cls-1" x="1304.65" y="394.43" width="50.87" height="5.34"/><rect class="cls-1" x="1314.86" y="305.06" width="30.59" height="9.13"/><rect class="cls-1" x="1327.47" y="314.19" width="5.18" height="28.8"/><path class="cls-2" d="M1059.37,481a97.69,97.69,0,0,1-5.36,41.37,91.91,91.91,0,0,1-8.1-80.85A97.55,97.55,0,0,1,1059.37,481Z" transform="translate(-108.92 -153.43)"/><path class="cls-2" d="M1054.42,498.93a97.67,97.67,0,0,1,9.64,40.58,91.91,91.91,0,0,1-36.22-72.73A97.59,97.59,0,0,1,1054.42,498.93Z" transform="translate(-108.92 -153.43)"/><path class="cls-2" d="M1068.66,483.47a97.69,97.69,0,0,1-14.21,39.22,91.92,91.92,0,0,1,9.62-80.69A97.62,97.62,0,0,1,1068.66,483.47Z" transform="translate(-108.92 -153.43)"/><path class="cls-2" d="M1077,499.61a97.69,97.69,0,0,1-23.94,34.16,91.94,91.94,0,0,1,30.32-75.39A97.74,97.74,0,0,1,1077,499.61Z" transform="translate(-108.92 -153.43)"/><polygon class="cls-2" points="840.23 337.04 900.67 337.04 894.29 386.29 846.61 386.29 840.23 337.04"/><polygon class="cls-2" points="920.9 347.87 969.92 347.87 964.74 386.29 926.08 386.29 920.9 347.87"/><rect class="cls-3" x="1198.57" y="9.41" width="20.92" height="380.83"/><rect class="cls-4" x="786.26" width="6.77" height="399.65"/><path class="cls-1" d="M1327.41,170.43V536.08H919V170.43h408.46m17-17H902V553.08h442.46V153.43Z" transform="translate(-108.92 -153.43)"/><line class="cls-5" x1="1014.26" x2="1014.26" y2="399.65"/><line class="cls-5" x1="793.03" y1="199.83" x2="1209.03" y2="199.83"/><circle class="cls-2" cx="1065.64" cy="388.43" r="13.73"/><rect class="cls-4" x="277.54" y="421.88" width="78.37" height="40.15"/><rect class="cls-2" x="1267.08" y="421.88" width="295.39" height="40.16"/><rect class="cls-4" x="304.82" y="462.04" width="66.91" height="417.59"/><rect class="cls-4" x="912.17" y="414.19" width="66.91" height="7.69"/><polygon class="cls-2" points="1065.64 414.19 1046.7 414.19 1048.7 371.8 1063.64 371.8 1065.64 414.19"/><rect class="cls-2" x="1113.3" y="298.16" width="10.33" height="18.1"/><rect class="cls-2" x="1177.89" y="524.54" width="26.56" height="6.41" transform="translate(-161.04 763.71) rotate(-41.29)"/><rect class="cls-1" x="371.72" y="462.04" width="1151.88" height="417.59"/><rect class="cls-4" x="786.15" y="478.96" width="11.6" height="76.56"/><rect class="cls-2" x="797.75" y="478.96" width="130.19" height="76.56"/><rect class="cls-4" x="765.19" y="571.8" width="13.57" height="294.54"/><circle class="cls-3" cx="862.85" cy="517.24" r="17.9"/><rect class="cls-2" x="778.76" y="571.8" width="170.52" height="294.54"/><rect class="cls-3" x="966.08" y="827.3" width="13.72" height="91.26" transform="translate(-8.91 1692.44) rotate(-90)"/><rect class="cls-3" x="966.08" y="703.32" width="13.72" height="91.26" transform="translate(115.08 1568.46) rotate(-90)"/><line class="cls-6" x1="778.76" y1="695.86" x2="949.28" y2="695.86"/><rect class="cls-4" x="1301.04" y="478.96" width="14.41" height="76.56"/><rect class="cls-2" x="1315.44" y="478.96" width="161.68" height="76.56"/><rect class="cls-4" x="1275" y="571.8" width="16.86" height="294.54"/><rect class="cls-2" x="1291.86" y="571.8" width="211.76" height="294.54"/><rect class="cls-3" x="1499.8" y="816.27" width="13.72" height="113.33" transform="translate(524.81 2226.16) rotate(-90)"/><rect class="cls-3" x="1499.8" y="692.28" width="13.72" height="113.33" transform="translate(648.8 2102.18) rotate(-90)"/><line class="cls-6" x1="1291.86" y1="695.86" x2="1503.62" y2="695.86"/><rect class="cls-4" x="414.7" y="478.96" width="11.6" height="76.56"/><rect class="cls-2" x="426.3" y="478.96" width="280.25" height="76.56"/><rect class="cls-4" x="393.91" y="571.8" width="13.57" height="294.54"/><circle class="cls-3" cx="566.43" cy="517.24" r="17.9"/><rect class="cls-2" x="409.01" y="571.8" width="317.24" height="294.54"/><rect class="cls-3" x="540.4" y="672.94" width="17.23" height="92.27"/><rect class="cls-3" x="577.63" y="672.94" width="17.23" height="92.27"/><line class="cls-6" x1="567.63" y1="866.35" x2="567.63" y2="571.8"/><rect class="cls-4" x="988.22" y="571.8" width="13.57" height="294.54"/><circle class="cls-3" cx="1396.28" cy="517.24" r="17.9"/><rect class="cls-2" x="1001.8" y="571.8" width="235.76" height="294.54"/><rect class="cls-3" x="1092.44" y="672.94" width="17.23" height="92.27"/><rect class="cls-3" x="1129.67" y="672.94" width="17.23" height="92.27"/><line class="cls-6" x1="1119.67" y1="866.35" x2="1119.67" y2="571.8"/><path class="cls-3" d="M1376,577.34v92.54a9.73,9.73,0,0,1-9.73,9.73H1068.11v-112h298.16A9.73,9.73,0,0,1,1376,577.34Z" transform="translate(-108.92 -153.43)"/><rect class="cls-4" x="959.19" y="414.19" width="19.89" height="112"/><rect class="cls-2" x="355.92" y="421.88" width="613.22" height="40.16"/><path class="cls-7" d="M1165.09,525.23V443.45a31.15,31.15,0,0,1,62.3,0v26.09" transform="translate(-108.92 -153.43)"/><path class="cls-8" d="M1620.38,533.69a15,15,0,0,1-5.83,29.51" transform="translate(-108.92 -153.43)"/><path class="cls-8" d="M508.42,488.47c-12.56-.55-23.27,11.19-23.92,26.21s9,27.66,21.54,28.2" transform="translate(-108.92 -153.43)"/><path class="cls-2" d="M969.89,458.1a97.73,97.73,0,0,1,1.77,41.68,92,92,0,0,1-21.79-78.28A97.6,97.6,0,0,1,969.89,458.1Z" transform="translate(-108.92 -153.43)"/><path class="cls-2" d="M968.06,476.57a97.59,97.59,0,0,1,16.43,38.35,92,92,0,0,1-48.11-65.48A97.56,97.56,0,0,1,968.06,476.57Z" transform="translate(-108.92 -153.43)"/><path class="cls-2" d="M979.45,458.91a97.64,97.64,0,0,1-7.3,41.07,91.94,91.94,0,0,1-4.3-81.14A97.69,97.69,0,0,1,979.45,458.91Z" transform="translate(-108.92 -153.43)"/><path class="cls-2" d="M990.42,473.39a97.74,97.74,0,0,1-17.76,37.75,92,92,0,0,1,17-79.46A97.7,97.7,0,0,1,990.42,473.39Z" transform="translate(-108.92 -153.43)"/><path class="cls-2" d="M1007.25,469.31a97.74,97.74,0,0,1-23.6,34.4A91.89,91.89,0,0,1,1013.21,428,97.64,97.64,0,0,1,1007.25,469.31Z" transform="translate(-108.92 -153.43)"/><path class="cls-2" d="M1002.23,491.47a97.75,97.75,0,0,1-31.76,27.06,91.92,91.92,0,0,1,48.28-65.36A97.62,97.62,0,0,1,1002.23,491.47Z" transform="translate(-108.92 -153.43)"/><rect class="cls-1" x="408.75" y="197.05" width="201.95" height="12.97" rx="5.95"/><rect class="cls-1" x="576.93" y="189.11" width="10.4" height="122.44" rx="4.77"/><rect class="cls-1" x="781.61" y="476.1" width="9.54" height="112.31" rx="4.77" transform="translate(-176.68 793.73) rotate(-60)"/><path class="cls-1" d="M711.57,481.52a20.51,20.51,0,0,1-9,17V477.67h-6.38v23.72a20.81,20.81,0,0,1-10.4,0V477.67h-6.37v20.82a20.54,20.54,0,0,1-9-17c0-11.33,9.19-32.19,20.52-32.19S711.57,470.19,711.57,481.52Z" transform="translate(-108.92 -153.43)"/><polygon class="cls-1" points="396.62 315.17 469 295.81 444.12 333.96 400.9 322.68 396.62 315.17"/><line class="cls-9" x1="1761.38" y1="887.62" x2="10" y2="887.62"/></g><g id="Man"><path class="cls-9" d="M69.13,1032.14" transform="translate(-108.92 -153.43)"/><path class="cls-9" d="M1820.51,1032.14" transform="translate(-108.92 -153.43)"/><ellipse class="cls-10" cx="1399.83" cy="1025.8" rx="168.49" ry="3.62"/><ellipse class="cls-10" cx="550.8" cy="1025.8" rx="372.05" ry="3.62"/><rect class="cls-11" x="202.31" y="531.5" width="76.92" height="53.54"/><rect class="cls-12" x="279.23" y="531.5" width="283.08" height="53.54"/><rect class="cls-13" x="341.27" y="521.04" width="37.09" height="10.46"/><rect class="cls-14" x="378.36" y="521.04" width="136.48" height="10.46"/><rect class="cls-11" x="229.08" y="585.04" width="65.67" height="440.76"/><rect class="cls-12" x="294.75" y="585.04" width="241.66" height="440.76"/><rect class="cls-11" x="315.71" y="594.27" width="11.6" height="82.46"/><rect class="cls-13" x="327.31" y="594.27" width="201.48" height="82.46"/><rect class="cls-11" x="294.75" y="694.26" width="13.57" height="317.24"/><circle class="cls-14" cx="428.05" cy="635.5" r="17.9"/><rect class="cls-13" x="308.32" y="694.26" width="235.76" height="317.24"/><rect class="cls-14" x="398.97" y="803.19" width="17.23" height="99.38"/><rect class="cls-14" x="436.2" y="803.19" width="17.23" height="99.38"/><path class="cls-12" d="M552.05,648a47.25,47.25,0,0,1-11.51,23.43H484.46A47.41,47.41,0,0,1,473,648Z" transform="translate(-108.92 -153.43)"/><rect class="cls-12" x="375.54" y="518.04" width="56.06" height="3"/><line class="cls-15" x1="426.2" y1="1011.5" x2="426.2" y2="694.26"/><rect class="cls-16" x="1166.8" y="533.24" width="268.62" height="102.3" rx="20.48" transform="translate(2493.29 1015.36) rotate(-180)"/><path class="cls-16" d="M1366.27,592.72l-.6.6v22.82c0,20.1,8.94,33.53,26.58,36.39,3,.48,13.06.75,21.52.9,2.18,0,2.31-2.95.21-3.56-17-5-21.73-20.47-21.73-33.73V593.32l-.6-.6Z" transform="translate(-108.92 -153.43)"/><rect class="cls-11" x="1246" y="640.72" width="154.69" height="91.09"/><path class="cls-17" d="M1336,490.57h47.68a10.72,10.72,0,0,1,10.72,10.72V640.72a0,0,0,0,1,0,0h-69.13a0,0,0,0,1,0,0V501.29A10.72,10.72,0,0,1,1336,490.57Z"/><rect class="cls-12" x="1259.77" y="654.88" width="128" height="60"/><rect class="cls-11" x="1265.82" y="731.81" width="13.03" height="293.99"/><rect class="cls-11" x="1365.82" y="731.81" width="13.03" height="293.99"/><rect class="cls-12" x="1417.48" y="731.81" width="13.03" height="293.99"/><rect class="cls-12" x="1517.48" y="731.81" width="13.03" height="293.99"/><path class="cls-18" d="M1244,592.11c-2.61,17.14-15.47,26.73-32.6,24.12s-27.47-15.6-24.86-32.73,23.51-26,33.84-24.77C1229.09,559.74,1246.63,575,1244,592.11Z" transform="translate(-108.92 -153.43)"/><path class="cls-19" d="M1212,566.4c-8,1.84-16.07-3.22-16.07-3.22s5-8,13.08-9.88,16.08,3.22,16.08,3.22S1220.09,564.56,1212,566.4Z" transform="translate(-108.92 -153.43)"/><path class="cls-19" d="M1239.82,563.71c5.29,6.35,4.41,15.79,4.41,15.79s-9.45-.84-14.74-7.19-4.4-15.79-4.4-15.79S1234.53,557.37,1239.82,563.71Z" transform="translate(-108.92 -153.43)"/><path class="cls-19" d="M1223.37,572.81c-4.17,7.13-13.34,9.53-13.34,9.53s-2.43-9.17,1.74-16.3,13.34-9.53,13.34-9.53S1227.53,565.68,1223.37,572.81Z" transform="translate(-108.92 -153.43)"/><path class="cls-19" d="M1235.56,550.58a17.47,17.47,0,0,0-12,14.08c-.51,3.43-3.71.85-2.91-4.48a17.44,17.44,0,0,1,12-14Z" transform="translate(-108.92 -153.43)"/><rect class="cls-12" x="1400.7" y="640.72" width="150.77" height="91.09"/><path class="cls-12" d="M1593.48,776.1a28.06,28.06,0,0,1-6.53,18H1543.6a28.2,28.2,0,1,1,49.88-18Z" transform="translate(-108.92 -153.43)"/><rect class="cls-12" x="1446.61" y="586.06" width="19.49" height="16.62"/><rect class="cls-12" x="1441.48" y="577.45" width="29.74" height="8.62"/><polygon class="cls-11" points="1444.86 640.72 1403.23 640.72 1424.05 608.17 1444.86 640.72"/><rect class="cls-19" x="1153.8" y="402.73" width="150.56" height="10.44"/><rect class="cls-19" x="1153.8" y="425.65" width="150.56" height="10.44"/><rect class="cls-19" x="1153.8" y="448.57" width="108.74" height="10.44"/><rect class="cls-20" x="1325.31" y="540.78" width="69.13" height="81.67"/><rect class="cls-16" x="1335.36" y="629.65" width="23.72" height="5.54"/><rect class="cls-16" x="1325.31" y="505.4" width="69.13" height="1.87"/><ellipse class="cls-21" cx="511.4" cy="484.87" rx="25.27" ry="20.08"/><path class="cls-21" d="M1020,550.77l8.13-22.38a101.52,101.52,0,0,1,5.17-10c3-5,9.67-9.72,9.6-20.86s7.06-.5,7.32,4.89-6.1,15-1.83,17.54,16.6,3,19.16,6.15-5.28,29.11-10.66,31c0,0-13.89,7.24-19.56,6.23S1029.86,555.1,1020,550.77Z" transform="translate(-108.92 -153.43)"/><path class="cls-22" d="M793.64,1127.77l2.9,21.48s-53.34,12.09-73.37,30H822.3l-3.48-61.53Z" transform="translate(-108.92 -153.43)"/><path class="cls-23" d="M1094,509.76c-5.88-3.47-12-3.94-13.7-1.07l3.06-5.2Z" transform="translate(-108.92 -153.43)"/><path class="cls-24" d="M1051.42,494.76h15.09a0,0,0,0,1,0,0v62.42a8.26,8.26,0,0,1-8.26,8.26h-3.56a3.27,3.27,0,0,1-3.27-3.27V494.76a0,0,0,0,1,0,0Z" transform="translate(306.9 -617.69) rotate(30.51)"/><rect class="cls-23" x="1067.94" y="499.27" width="15.09" height="5.59" transform="translate(294.95 -629.97) rotate(30.51)"/><path class="cls-23" d="M1140.53,393.58A90.35,90.35,0,0,0,1118.44,416c-8.9,13.39-48,79.79-48,79.79L1097.9,512a582.12,582.12,0,0,0,36.55-76C1147.79,402.1,1140.53,393.58,1140.53,393.58Z" transform="translate(-108.92 -153.43)"/><polygon class="cls-25" points="710.49 968.93 711.64 994.93 687.62 995.82 685.17 977.99 710.49 968.93"/><path class="cls-22" d="M939.15,1109.23l6.49,22.18s24-25.56,40.18-32.23L948.18,1178l-25,1.27-8.3-57.37Z" transform="translate(-108.92 -153.43)"/><polygon class="cls-25" points="807.21 977.27 809.98 996.43 836.72 977.99 833.24 966.09 807.21 977.27"/><path class="cls-21" d="M982.21,610.24l55.12-46.85-14.62-19-53.42,31.72-44.4-46-23.12,39.21,51.29,45C960.42,619.91,972.07,619.43,982.21,610.24Z" transform="translate(-108.92 -153.43)"/><circle class="cls-26" cx="720.56" cy="235.55" r="77.2"/><path class="cls-21" d="M771.8,556.24s-22.13,50.5-40.34,62.63C705.72,631.46,641,647.79,641,647.79l1.87-23.38,70.75-32.64,33.23-54.95Z" transform="translate(-108.92 -153.43)"/><path class="cls-18" d="M653.69,628c-2.61,17.14-15.46,26.73-32.6,24.12s-27.47-15.6-24.86-32.74,23.51-26,33.85-24.76C638.76,595.63,656.3,610.86,653.69,628Z" transform="translate(-108.92 -153.43)"/><path class="cls-27" d="M784.3,1128.82l43.71-.2,9.55-423.39L907,1118.15l41.64-15.4S932.75,885,921.19,775.61c-10.11-95.55-34.87-121-34.65-122.6L761.47,742.65Z" transform="translate(-108.92 -153.43)"/><path class="cls-17" d="M621.71,602.29c-8.05,1.84-16.08-3.22-16.08-3.22s5-8,13.08-9.88,16.08,3.22,16.08,3.22S629.76,600.45,621.71,602.29Z" transform="translate(-108.92 -153.43)"/><path class="cls-17" d="M649.49,599.6c5.29,6.35,4.41,15.79,4.41,15.79s-9.45-.84-14.73-7.19-4.41-15.79-4.41-15.79S644.21,593.25,649.49,599.6Z" transform="translate(-108.92 -153.43)"/><path class="cls-17" d="M633,608.7c-4.16,7.13-13.34,9.52-13.34,9.52s-2.43-9.17,1.74-16.3,13.34-9.52,13.34-9.52S637.21,601.57,633,608.7Z" transform="translate(-108.92 -153.43)"/><circle class="cls-26" cx="770.27" cy="145.54" r="41.45"/><path class="cls-17" d="M645.24,586.47a17.47,17.47,0,0,0-12,14.07c-.51,3.44-3.71.86-2.91-4.47a17.44,17.44,0,0,1,12-14.06Z" transform="translate(-108.92 -153.43)"/><rect class="cls-26" x="643.36" y="240.95" width="154.39" height="107.54"/><polygon class="cls-28" points="635.55 451.87 617.22 417.64 623.42 407.39 638.9 447.5 635.55 451.87"/><polygon class="cls-28" points="844.17 405.86 825.23 444.26 821.22 440.74 833.07 394.36 844.17 405.86"/><path class="cls-18" d="M729.41,553.23l25,64.82,23.79-61.81s-16.28,15.9-12.4,28.19c7.7,24.33,25.75,29.4,30.15,51.85,5.09,26,47.86,11,99.07,31.27,0,0-9.36-20.09-9.74-57.81-.21-20.23,7.15-38.46,6.77-40.46l31.59,50.21,21.54-84.31S921,495.94,899.05,486.36c-22.46-9.8-28.6-19.79-61.49-19.69-31,.1-42.87,5.77-56.68,17.34C752.09,508.14,729.41,553.23,729.41,553.23Z" transform="translate(-108.92 -153.43)"/><path class="cls-21" d="M807.92,515.85c-6.23,0-11.18-2.59-13.94-7.27-3.8-6.48-2.85-16.13,2.56-25.81,6.76-12.12,14.71-17.29,15.05-17.5l.48-.31h.56s1.94,0,4.89,0c4.3,0,10.62.07,16.26.44l20,1.28,3.68.23-2.2,3s-2.8,3.94-6.24,15.36C842.89,505.53,829.07,515.85,807.92,515.85Z" transform="translate(-108.92 -153.43)"/><path class="cls-29" d="M817.52,466.92c4.22,0,10.52.07,16.13.43,7.69.51,20,1.28,20,1.28s-2.92,3.92-6.55,16c-7.18,23.84-24.27,29.23-39.18,29.23-13.92,0-18.66-13.93-9.64-30.11,6.6-11.82,14.39-16.79,14.39-16.79s1.92,0,4.85,0m0-4c-2.93,0-4.85,0-4.93,0l-1.13,0-1,.61c-.35.22-8.71,5.66-15.72,18.21-5.75,10.31-6.7,20.7-2.53,27.8,3.13,5.32,8.69,8.26,15.66,8.26,21.82,0,36.7-11.1,43-32.08,3.29-10.9,5.91-14.72,5.93-14.75l4.4-5.92-7.36-.46s-12.3-.77-20-1.28c-5.7-.37-12.06-.44-16.39-.44Z" transform="translate(-108.92 -153.43)"/><path class="cls-21" d="M847.64,427.34c-4.19,6.73-2.46,15.58,0,20.74.81,1.78,6.09,16.67,6.86,17.34,3,2.62-33.51,18.59-33.51,18.59l-2.47-30.07c-10.59.63-23,.09-29.85-4.44C768.26,436,767,389.12,767.32,386.77l17-19.1S810,355.76,814,360.8c7.17,9.23,24,50.55,36.11,45.82,0,0-1.55-12.86,9.18-12.86,8,0,10.17,6.41,10.17,10.12C869.42,416.38,853.28,418.29,847.64,427.34Z" transform="translate(-108.92 -153.43)"/><polygon class="cls-16" points="682.72 259.14 675.08 277.73 683.97 277.54 682.72 259.14"/><ellipse class="cls-22" cx="804.33" cy="413.09" rx="4.54" ry="6.73" transform="translate(-127.7 -114.61) rotate(-2.73)"/><ellipse class="cls-22" cx="780.83" cy="412.53" rx="4.54" ry="6.73" transform="translate(-127.7 -115.73) rotate(-2.73)"/><path class="cls-26" d="M790.16,367.45a45,45,0,0,1-2.42,14.64c-.21.57-.42,1.16-.66,1.73a43.82,43.82,0,0,1-6,10.56A39.7,39.7,0,0,1,754,409.87c-.56.06-1.11.1-1.67.13V394.38h0c0-.49,0-1,0-1.45a84.21,84.21,0,0,1,16.9-51,78.38,78.38,0,0,1,6.33-7.38,42.64,42.64,0,0,1,11.71,16.87A44.42,44.42,0,0,1,790.16,367.45Z" transform="translate(-108.92 -153.43)"/><path class="cls-26" d="M850.07,366.46c0,11.15-10.1,20.56-23.89,23.44-1.09.23-2.2.42-3.34.56a41.71,41.71,0,0,1-5.63.37c-18.15,0-32.87-10.91-32.87-24.37a17.7,17.7,0,0,1,.41-3.8c2.46-11.67,16-20.59,32.46-20.59,18,0,32.57,10.71,32.85,24C850.07,366.2,850.07,366.33,850.07,366.46Z" transform="translate(-108.92 -153.43)"/><path class="cls-30" d="M792.74,437.86s5.79,1.86,11.59-4.6" transform="translate(-108.92 -153.43)"/><path class="cls-17" d="M864.8,488c-18.47,22.15-19.65,59.08-19.65,59.08,0,32.78,30.76,87.79,30.76,87.79,7,.41,13.91-3.69,13.91-3.69l1.23,12.31c-4.51,4.51-15.14,4.3-15.14,4.3l24.64,252.93C771.8,913,752.28,883.49,752.28,883.49,746,701.33,775.36,635.31,775.36,635.31l-28.31-91.86s18.63-41.58,28-56c3.74-5.8,13.58-9.31,13.58-9.31s-3.23,1.79-6.27,7.29c-6.61,12-19.34,51.4-19.34,51.4h67.95s17.77-49.21,31.31-61.93Z" transform="translate(-108.92 -153.43)"/><path class="cls-25" d="M818.47,453.94s13.39.38,19.09-2.75l-18.37,11.57Z" transform="translate(-108.92 -153.43)"/><rect class="cls-21" x="623.76" y="632.97" width="10.58" height="26.61" rx="5.29" transform="translate(1149.17 1139.13) rotate(180)"/><rect class="cls-21" x="611.12" y="621.66" width="9.89" height="38.06" rx="4.94" transform="translate(1123.21 1127.96) rotate(-180)"/><rect class="cls-21" x="601.23" y="617.18" width="9.89" height="39.63" rx="4.94" transform="translate(1103.43 1120.55) rotate(180)"/><rect class="cls-21" x="591.42" y="620.96" width="8.81" height="28.68" rx="4.41" transform="translate(1174.96 1015.91) rotate(170.98)"/><path class="cls-21" d="M1070.12,542.11h0a5.29,5.29,0,0,0,5.7-4.84l1.32-20.39c.24-2.89-3.58-2.7-4.86-2.3a7.76,7.76,0,0,0-5,5.77l-2,16.06A5.3,5.3,0,0,0,1070.12,542.11Z" transform="translate(-108.92 -153.43)"/><rect class="cls-21" x="1057.21" y="527.84" width="9.89" height="27.02" rx="4.94" transform="translate(2096.72 50.76) rotate(136.56)"/><rect class="cls-21" x="1048.03" y="528.55" width="9.89" height="34.53" rx="4.94" transform="translate(2083.93 64.77) rotate(136.56)"/><rect class="cls-21" x="1041.39" y="536.9" width="8.81" height="29.66" rx="4.41" transform="translate(2075.61 79.91) rotate(136.56)"/><line class="cls-31" x1="502.2" y1="474.93" x2="502.2" y2="497.61"/><line class="cls-31" x1="936.2" y1="390.79" x2="947.42" y2="402.67"/><line class="cls-31" x1="944.83" y1="384.39" x2="955.85" y2="397.39"/><path class="cls-26" d="M819.61,467.92a46.68,46.68,0,0,1-8.67,1.25c-7.54.49-10.2,2.6-10.2,2.6l9-14.14,9.18,1.83Z" transform="translate(-108.92 -153.43)"/><rect class="cls-27" x="672.08" y="975.4" width="48.92" height="13.48"/><polygon class="cls-27" points="845.19 960.95 795 982.51 794.29 966.21 845.4 944.25 845.19 960.95"/><path class="cls-26" d="M736.23,282.06h61.53a0,0,0,0,1,0,0v55.18a30,30,0,0,1-30,30H736.23a0,0,0,0,1,0,0V282.06A0,0,0,0,1,736.23,282.06Z"/><path class="cls-32" d="M1038,550.82s-2.25-3.54.69-6.43c2.62-2.57,7,.07,7,.07s-2.93-4.08,0-7.07c3.45-3.53,8.29.31,8.29.31s-4.28-3.94-1-7,6.75,1.13,6.75,1.13" transform="translate(-108.92 -153.43)"/><path class="cls-32" d="M1046.87,527.13a27.82,27.82,0,0,0-1-10.26" transform="translate(-108.92 -153.43)"/><polygon class="cls-33" points="783.16 415.86 773.41 401.24 778.82 433.77 783.16 415.86"/></g></svg>