<svg xmlns="http://www.w3.org/2000/svg" viewBox="0 0 1771.38 1011.38"><defs><style>.cls-1,.cls-6{fill:#b6d4ff;}.cls-2{fill:#cce3ff;}.cls-18,.cls-22,.cls-23,.cls-24,.cls-3{fill:none;}.cls-3{stroke:#cce3ff;stroke-width:8px;}.cls-18,.cls-22,.cls-23,.cls-24,.cls-3,.cls-7{stroke-miterlimit:10;}.cls-4{fill:#dceeff;}.cls-5,.cls-7{fill:#ecf6ff;}.cls-6{opacity:0.51;}.cls-7{stroke:#dceeff;stroke-linecap:round;}.cls-22,.cls-7{stroke-width:20px;}.cls-8{fill:#afb3c6;}.cls-9{fill:#b5b8bc;}.cls-10{fill:#d7dadd;}.cls-11{fill:#bec1c6;}.cls-12{fill:#6ca1ff;}.cls-13{fill:#405fd3;}.cls-14{fill:#0d0b6d;}.cls-15{fill:#cf3e83;}.cls-16{fill:#e576c6;}.cls-17{fill:#ffc000;}.cls-18{stroke:#0d0b6d;stroke-width:9px;}.cls-19{fill:#242530;}.cls-20{fill:#fff;}.cls-21{fill:#2f2f3d;}.cls-22,.cls-23,.cls-24{stroke:#23262b;}.cls-23{stroke-width:18px;}.cls-24{stroke-width:5px;}.cls-25{fill:#1d2126;}</style></defs><title>back and obj 30</title><g id="Back"><polygon class="cls-1" points="377.03 561.79 292.68 561.79 292.68 386.64 377.03 316.64 377.03 561.79"/><rect class="cls-2" x="801.18" y="517.54" width="93.88" height="305.26"/><rect class="cls-2" x="747.41" y="322.29" width="93.88" height="305.26"/><rect class="cls-1" x="325.43" y="511.59" width="227.79" height="315.72"/><rect class="cls-1" x="161.06" y="506.59" width="227.79" height="315.72"/><rect class="cls-1" x="13.4" y="719.1" width="227.79" height="107.52"/><rect class="cls-1" x="535.06" y="648.62" width="227.79" height="176.51"/><line class="cls-3" x1="914.44" y1="152" x2="914.44" y2="223.08"/><rect class="cls-1" x="1262.99" y="427.47" width="126.46" height="399.14"/><rect class="cls-1" x="1329.91" y="350.53" width="108.92" height="281.71"/><rect class="cls-1" x="1358.79" y="337.6" width="48.89" height="21.47"/><polygon class="cls-1" points="1078.94 316 1078.94 830.48 880.5 830.48 880.5 170.76 958.45 227.81 958.45 311.69 1026.13 311.69 1026.13 277.36 1078.94 316"/><line class="cls-3" x1="1177.52" y1="331.08" x2="1177.52" y2="401.23"/><rect class="cls-4" x="937.52" y="374.46" width="170.66" height="452.15"/><rect class="cls-2" x="1108.18" y="374.46" width="108.18" height="452.15"/><rect class="cls-1" x="937.52" y="412" width="40.57" height="21.04"/><rect class="cls-1" x="978.09" y="432.83" width="40.57" height="21.04"/><rect class="cls-1" x="1018.66" y="412" width="40.57" height="21.04"/><rect class="cls-5" x="937.52" y="432.83" width="40.57" height="21.04"/><rect class="cls-5" x="978.09" y="574.88" width="40.57" height="21.04"/><rect class="cls-5" x="1122.08" y="432.83" width="31.43" height="21.04"/><rect class="cls-5" x="1059.23" y="681.03" width="40.57" height="21.04"/><rect class="cls-1" x="1059.23" y="453.88" width="40.57" height="21.04"/><rect class="cls-1" x="978.09" y="553.83" width="40.57" height="21.04"/><rect class="cls-1" x="1059.23" y="574.88" width="40.57" height="21.04"/><rect class="cls-1" x="1122.09" y="412" width="31.42" height="21.04"/><rect class="cls-1" x="1184.94" y="433.04" width="31.42" height="21.04"/><rect class="cls-1" x="1122.09" y="514.28" width="31.42" height="21.04"/><rect class="cls-1" x="1018.66" y="681.03" width="40.57" height="21.04"/><rect class="cls-1" x="937.52" y="735.01" width="40.57" height="21.04"/><rect class="cls-1" x="978.09" y="756.06" width="40.57" height="21.04"/><rect class="cls-1" x="937.52" y="453.88" width="40.57" height="21.04"/><rect class="cls-5" x="599.06" y="439.22" width="16.57" height="29.56"/><rect class="cls-5" x="599.06" y="380.09" width="16.57" height="29.56"/><rect class="cls-4" x="582.76" y="66.15" width="142.59" height="760.46"/><rect class="cls-1" x="725.35" y="66.15" width="90.39" height="760.46"/><rect class="cls-4" x="582.76" y="13.85" width="142.59" height="34.77"/><rect class="cls-4" x="608.61" width="57.53" height="34.77"/><rect class="cls-4" x="739.27" width="57.53" height="34.77"/><rect class="cls-1" x="725.35" y="13.85" width="90.39" height="34.77"/><rect class="cls-4" x="569.6" y="48.62" width="158.7" height="17.54"/><rect class="cls-2" x="728.3" y="48.62" width="100.6" height="17.54"/><rect class="cls-2" x="599.06" y="83.38" width="16.57" height="743.23"/><rect class="cls-2" x="691.64" y="83.38" width="16.57" height="743.23"/><rect class="cls-2" x="660.78" y="83.38" width="16.57" height="743.23"/><rect class="cls-2" x="629.92" y="83.38" width="16.57" height="743.23"/><rect class="cls-5" x="629.92" y="409.65" width="16.57" height="29.56"/><rect class="cls-5" x="660.78" y="682" width="16.57" height="29.56"/><rect class="cls-5" x="660.78" y="652.43" width="16.57" height="29.56"/><rect class="cls-6" x="691.64" y="563.67" width="16.57" height="29.56"/><rect class="cls-1" x="599.06" y="593.67" width="16.57" height="29.56"/><rect class="cls-1" x="691.64" y="319.36" width="16.57" height="29.56"/><rect class="cls-1" x="599.06" y="272.9" width="16.57" height="29.56"/><rect class="cls-6" x="660.78" y="593.31" width="16.57" height="29.56"/><rect class="cls-5" x="599.06" y="715.97" width="16.57" height="29.56"/><rect class="cls-5" x="660.78" y="380.09" width="16.57" height="29.56"/><rect class="cls-5" x="599.06" y="468.78" width="16.57" height="29.56"/><rect class="cls-5" x="691.64" y="208.29" width="16.57" height="29.56"/><rect class="cls-5" x="599.06" y="162.35" width="16.57" height="29.56"/><rect class="cls-5" x="599.06" y="191.91" width="16.57" height="29.56"/><rect class="cls-5" x="660.78" y="350.53" width="16.57" height="29.56"/><rect class="cls-1" x="1625.19" y="677.31" width="117.26" height="145.49"/><rect class="cls-4" x="1673.01" y="693.85" width="16.33" height="136.63"/><rect class="cls-4" x="1703.78" y="693.85" width="16.33" height="136.63"/><line class="cls-3" x1="1610.14" y1="455" x2="1610.14" y2="528.66"/><rect class="cls-2" x="1466.88" y="498.54" width="120.26" height="337.53"/><rect class="cls-1" x="1482.54" y="519.9" width="18.82" height="306.72"/><rect class="cls-1" x="1517.59" y="519.9" width="18.82" height="306.72"/><rect class="cls-1" x="1552.65" y="519.9" width="18.82" height="306.72"/><rect class="cls-1" x="1587.13" y="498.54" width="76.23" height="337.53"/><rect class="cls-4" x="1601.96" y="519.9" width="16.33" height="306.72"/><rect class="cls-4" x="1633.21" y="519.9" width="16.33" height="306.72"/><rect class="cls-2" x="1633.21" y="658.05" width="16.33" height="28.41"/><rect class="cls-2" x="1633.21" y="574.88" width="16.33" height="28.41"/><rect class="cls-2" x="1601.96" y="574.88" width="16.33" height="28.41"/><rect class="cls-2" x="1601.97" y="603.29" width="16.33" height="28.41"/><rect class="cls-2" x="1673.01" y="738.33" width="16.33" height="28.41"/><rect class="cls-2" x="1703.78" y="766.74" width="16.33" height="28.41"/><rect class="cls-2" x="1601.97" y="686.46" width="16.33" height="28.41"/><rect class="cls-2" x="1633.21" y="686.46" width="16.33" height="28.41"/><line class="cls-3" x1="446.44" y1="386.46" x2="446.44" y2="444.83"/><rect class="cls-2" x="266.14" y="425.7" width="50.46" height="43.08"/><rect class="cls-4" x="217.52" y="444.83" width="180.56" height="381.78"/><rect class="cls-1" x="235.98" y="463.69" width="20.92" height="362.92"/><rect class="cls-1" x="274.96" y="463.69" width="20.92" height="362.92"/><rect class="cls-1" x="313.93" y="463.69" width="20.92" height="362.92"/><rect class="cls-1" x="352.9" y="463.69" width="20.92" height="362.92"/><rect class="cls-2" x="417.16" y="425.7" width="50.46" height="43.08"/><rect class="cls-2" x="398.08" y="444.83" width="114.46" height="381.78"/><rect class="cls-4" x="436.62" y="570.77" width="20.92" height="255.85"/><rect class="cls-4" x="475.59" y="570.77" width="20.92" height="255.85"/><rect class="cls-4" x="79.06" y="614.46" width="156.3" height="214.85"/><rect class="cls-2" x="235.36" y="614.46" width="99.08" height="214.85"/><rect class="cls-6" x="79.06" y="783.01" width="224.62" height="18.53"/><rect class="cls-6" x="79.06" y="751.05" width="224.62" height="18.53"/><rect class="cls-6" x="79.06" y="719.1" width="224.62" height="18.53"/><rect class="cls-6" x="79.06" y="687.14" width="224.62" height="18.53"/><rect class="cls-6" x="79.06" y="655.19" width="224.62" height="18.53"/><rect class="cls-6" x="79.06" y="623.23" width="224.62" height="18.53"/><rect class="cls-5" x="175.33" y="783.01" width="33.08" height="18.53"/><rect class="cls-5" x="175.33" y="751.05" width="33.08" height="18.53"/><rect class="cls-5" x="142.25" y="783.01" width="33.08" height="18.53"/><rect class="cls-5" x="174.83" y="687.14" width="33.08" height="18.53"/><rect class="cls-5" x="94.21" y="655.19" width="33.08" height="18.53"/><rect class="cls-5" x="127.29" y="655.19" width="33.08" height="18.53"/><rect class="cls-4" x="1358.03" y="598.54" width="161.58" height="228.08"/><rect class="cls-5" x="1177.52" y="598.54" width="180.51" height="228.08"/><rect class="cls-2" x="1372.08" y="577.54" width="178.92" height="45.69"/><rect class="cls-1" x="1177.52" y="623.23" width="342.1" height="11.32"/><rect class="cls-2" x="1177.52" y="643.68" width="342.1" height="11.32"/><rect class="cls-1" x="1177.52" y="751.08" width="342.1" height="11.32"/><rect class="cls-2" x="1177.52" y="771.52" width="342.1" height="11.32"/><rect class="cls-4" x="1144.3" y="577.54" width="227.79" height="45.69"/><rect class="cls-2" x="1372.08" y="673.94" width="178.92" height="77.14"/><rect class="cls-4" x="1144.3" y="673.94" width="227.79" height="77.14"/><line class="cls-7" x1="1761.38" y1="829.31" x2="10" y2="829.31"/></g><g id="Man"><ellipse class="cls-8" cx="929.44" cy="1007.77" rx="519.08" ry="3.62"/><path class="cls-9" d="M1545,1209.3H572.14c0-.53,0-1.07,0-1.61,0-28.63,0-64,34.73-85.53,53.22-33,109.4,20.3,108.51-45.54-.93-68.43-31.59-425.85-31.59-425.85l9.1-27.12s71.14,285,89.41,382.2c19.54,104,40.9-2.7,110-5.85,65.18-3,95.54,34,108,79.39,37.7-11.08,72.47-16.93,98.78,8.44,35.85-90.6,94.92-12.44,88.07-97.32-8.06-99.81-39.53-407.43-39.53-407.43l13.38-17s67.47,283.48,95.19,409.15c19.64,89,70.12-6.28,156.93,38.56,68,35.15,51,117,51,117S1538.54,1123.39,1545,1209.3Z" transform="translate(-121.63 -201.54)"/><path class="cls-10" d="M938.71,1162.31a84.34,84.34,0,0,1-14.21,47H783.39a84.14,84.14,0,0,1-14.07-42.16c-.09-1.6-.14-3.21-.14-4.83a84.77,84.77,0,1,1,169.53,0Z" transform="translate(-121.63 -201.54)"/><path class="cls-10" d="M1211.48,1207.77c0,.51,0,1,0,1.53H1082.12c0-.5,0-1,0-1.53a64.69,64.69,0,1,1,129.38,0Z" transform="translate(-121.63 -201.54)"/><path class="cls-10" d="M1026.57,1207.31c0,.66,0,1.33,0,2H858.75c0-.66,0-1.33,0-2a83.92,83.92,0,1,1,167.84,0Z" transform="translate(-121.63 -201.54)"/><path class="cls-10" d="M788.72,1208.23c0,.35,0,.72,0,1.07H697.83c0-.35,0-.72,0-1.07a45.37,45.37,0,0,1,45.45-45.45,46,46,0,0,1,6.68.48A45.47,45.47,0,0,1,788.72,1208.23Z" transform="translate(-121.63 -201.54)"/><path class="cls-11" d="M661.05,1208.78c0,.17,0,.35,0,.52H617c0-.17,0-.35,0-.52a22,22,0,0,1,22-22,21.68,21.68,0,0,1,3.24.24A22,22,0,0,1,661.05,1208.78Z" transform="translate(-121.63 -201.54)"/><path class="cls-10" d="M1485.64,1208.23c0,.35,0,.72,0,1.07h-90.87c0-.35,0-.72,0-1.07a45.45,45.45,0,1,1,90.9,0Z" transform="translate(-121.63 -201.54)"/><path class="cls-10" d="M1376.41,1165.24A98.24,98.24,0,0,1,1366,1209.3H1189.42a98.69,98.69,0,1,1,187-44.06Z" transform="translate(-121.63 -201.54)"/><circle class="cls-10" cx="560.9" cy="882.97" r="13.54"/><circle class="cls-10" cx="421.42" cy="962.56" r="7.79"/><circle class="cls-10" cx="1016.6" cy="803.69" r="19.38"/><circle class="cls-10" cx="1167.67" cy="786.15" r="8"/><circle class="cls-10" cx="1434.75" cy="931.38" r="18.46"/><path class="cls-12" d="M720.81,657.32l-58.26,7.81L637.82,480.49c-5.46-40.72,20.31-69.67,20.31-69.67s32.49,21.15,37.94,61.87Z" transform="translate(-121.63 -201.54)"/><rect class="cls-13" x="648.41" y="492.29" width="58.78" height="130.68" transform="translate(-189.67 -106.61) rotate(-7.63)"/><rect class="cls-13" x="669.24" y="661.15" width="47.26" height="17.92" transform="matrix(0.99, -0.13, 0.13, 0.99, -204.47, -103.62)"/><polygon class="cls-13" points="513.87 475.37 540.91 463.59 536.36 429.6 512.54 465.43 513.87 475.37"/><polygon class="cls-13" points="628.36 460.04 599.17 455.79 594.62 421.8 627.03 450.1 628.36 460.04"/><polygon class="cls-12" points="1018.26 349.9 569.84 409.97 556.03 306.88 762.79 146.57 1004.45 246.81 1018.26 349.9"/><path class="cls-13" d="M1025.56,434.16,1043,564.42,788.36,598.53,770.91,468.27a51.07,51.07,0,0,1,19.33-47.13l94.19-73,110.08,45.67A51.06,51.06,0,0,1,1025.56,434.16Z" transform="translate(-121.63 -201.54)"/><path class="cls-12" d="M1186.42,589.5l-58.26,7.81-24.73-184.64C1098,372,1123.74,343,1123.74,343s32.49,21.15,37.94,61.87Z" transform="translate(-121.63 -201.54)"/><rect class="cls-13" x="1114.02" y="424.47" width="58.78" height="130.68" transform="translate(-176.54 -45.4) rotate(-7.63)"/><rect class="cls-13" x="1134.85" y="593.33" width="47.26" height="17.92" transform="translate(-191.34 -42.4) rotate(-7.63)"/><polygon class="cls-13" points="979.48 407.55 1006.52 395.77 1001.97 361.78 978.15 397.61 979.48 407.55"/><polygon class="cls-13" points="1093.97 392.21 1064.78 387.96 1060.23 353.98 1092.64 382.27 1093.97 392.21"/><path class="cls-14" d="M834.21,844.23,851,862.38S812.23,898,808.91,925l83.32-54.44-40.9-56.43Z" transform="translate(-121.63 -201.54)"/><polygon class="cls-15" points="733.18 617.95 752.05 644.17 729.31 660.84 712.57 642.69 733.18 617.95"/><path class="cls-14" d="M1008.73,927l17.78,17.13s-16.55,56.8-18.26,84l58-82.27L1024,896Z" transform="translate(-121.63 -201.54)"/><polygon class="cls-15" points="906.21 699.55 924.59 720.62 904.88 742.6 887.09 725.47 906.21 699.55"/><path class="cls-16" d="M742.23,630s94.77-1.87,100.33-15.4c10.94-26.61-2.08-115.06-2.08-115.06l-55.72,9.64,9.58,80.29-64.44,14" transform="translate(-121.63 -201.54)"/><path class="cls-17" d="M841.6,592.77l-13.76-58.68-45.54,8.59S781.36,470.81,793,453c10.05-15.35,27.05-35.32,69.82-44.06,63.6-13,79-6.34,100.32,9.93,18.4,14.05,43.71,57.81,43.71,57.81l-47.67,26,16,55.07Z" transform="translate(-121.63 -201.54)"/><polyline class="cls-18" points="747.34 76.92 750.2 96.34 758.16 97.31 766.5 80.14"/><path class="cls-14" d="M776.39,328.14S759,368.66,796.63,368.66Z" transform="translate(-121.63 -201.54)"/><path class="cls-16" d="M851,427l-6.2-23.84s-33.49,11.38-42.29,9.32c0,0-15.16-34.81-16.11-62l23.53-35.39,50.25-8.95,17,43.23c.64-8.28,21.71-23.81,31.7-8.17,12.89,20.18-24.08,41.44-24.08,41.44l9.51,31.13" transform="translate(-121.63 -201.54)"/><path class="cls-16" d="M851,411.51l-11,4s-6,33,27.13,26.2c26.76-5.55,31.26-38.54,31.26-38.54l-14.78,1.67" transform="translate(-121.63 -201.54)"/><path class="cls-14" d="M894,334.9s21.47-15.85-13.79-37.61-56.31-.43-56.31-.43-14.51-27.63-33.9-22.6c-27.62,7.17-21,51-21,51s-19.86-19.69-26.94-14.35,12.38,82.58,112.82,16.92c0,0-4,23.7,22.27,21.6C877.17,349.42,879.25,339.21,894,334.9Z" transform="translate(-121.63 -201.54)"/><path class="cls-19" d="M916.15,402s3.14-1.92,21.14,2.72c0,0-13.8,50,26.81,142.73l-6.74,6.36S906.74,490.26,916.15,402Z" transform="translate(-121.63 -201.54)"/><path class="cls-19" d="M808.05,434.78s11.54-11.85,19.06-13.52c0,0-18.21,40.48,7.32,140.92l5.68,24.27S796.54,521.23,808.05,434.78Z" transform="translate(-121.63 -201.54)"/><path class="cls-20" d="M823.07,397c1.16,3.68,10,4.89,15.19,1,11.43-8.57,7.92-19.91.89-19.72-8.77.23-6.7,8.26-10.77,11C823.71,392.35,822.22,394.28,823.07,397Z" transform="translate(-121.63 -201.54)"/><polygon class="cls-15" points="723.23 201.79 749.38 189.3 726.21 212.98 723.23 201.79"/><polygon class="cls-13" points="691.33 167.97 688.14 190.81 698.31 188.36 691.33 167.97"/><ellipse class="cls-14" cx="826.14" cy="368.58" rx="5.04" ry="6.83" transform="translate(-164.8 -83.27) rotate(-7.98)"/><ellipse class="cls-14" cx="801.82" cy="373.96" rx="5.04" ry="6.83" transform="translate(-165.79 -86.6) rotate(-7.98)"/><path class="cls-21" d="M841.6,592.77S720,657.5,707.44,693.69C693.9,732.63,830.26,860.77,830.26,860.77l42.12-30.46-77.1-120.93,144-79.41-30.95-54.69Z" transform="translate(-121.63 -201.54)"/><path class="cls-21" d="M898.39,577.89s-8.88,178,0,214.52c4.76,19.58,113.17,155.9,113.17,155.9l34.88-42.26L972,765.33l9.18-210.46Z" transform="translate(-121.63 -201.54)"/><path class="cls-16" d="M924.62,572.82s88.43,14.27,100.47,2.9c19.27-18.22-24.87-95.43-24.87-95.43l-43,23.57,16.91,35.45-52.22.44" transform="translate(-121.63 -201.54)"/><line class="cls-22" x1="580.78" y1="378.72" x2="626.11" y2="439.03"/><line class="cls-23" x1="789.37" y1="385.19" x2="773.37" y2="309.74"/><ellipse class="cls-16" cx="721.74" cy="623.27" rx="13.79" ry="23.63" transform="translate(-353.15 447.76) rotate(-42.38)"/><path class="cls-16" d="M729.24,605.24c-.46,7.6-8.58,8.08-8.58,8.08l-1.21-19.08,25.19,6-1.41,13.1Z" transform="translate(-121.63 -201.54)"/><path class="cls-16" d="M929.36,543.51S905,527,899,527.46c-7.16.55-17.61,5.81-21.37,8.6s-.77,10.08,1.57,11.67a10.19,10.19,0,0,0,1.23,12.6A10.86,10.86,0,0,0,886,570a8.72,8.72,0,0,0,8.3,6.72c7,.23,23.16-2.73,35.84-5.12" transform="translate(-121.63 -201.54)"/><line class="cls-24" x1="580.78" y1="378.72" x2="697.83" y2="224.28"/><line class="cls-24" x1="804.19" y1="201.14" x2="773.37" y2="309.74"/><polygon class="cls-25" points="773.88 452.25 774.92 432.02 721.84 480.77 773.88 452.25"/><polygon class="cls-15" points="835.57 302.32 878.58 278.75 842.47 316.77 835.57 302.32"/><polygon class="cls-15" points="666.98 339.95 668.88 355.87 699.21 344.52 695.81 334.51 666.98 339.95"/></g></svg>