<svg width="458" height="489" viewBox="0 0 458 489" fill="none" xmlns="http://www.w3.org/2000/svg">
<g clip-path="url(#clip0)">
<path d="M339.834 44.7654C271.859 22.8029 215.002 51.5814 140.71 109.643C97.4988 143.47 18.4051 112.42 2.99062 211.378C-13.4346 317.656 28.2602 375.465 136.161 414.341C244.062 453.218 326.694 492.851 382.792 365.62C478.311 150.286 370.663 54.6107 339.834 44.7654Z" fill="#F8F9FF"/>
<path d="M317.244 270.634C317.244 270.634 321.594 265.041 325.012 265.973C328.43 266.905 337.13 288.034 340.237 299.841C343.345 311.649 347.073 322.835 345.52 334.642C343.345 352.042 333.712 357.014 328.119 351.731C325.944 349.556 325.634 343.653 324.702 340.235C323.459 335.263 321.905 333.088 321.905 333.088C321.905 333.088 325.323 299.531 323.769 292.073C322.216 284.616 317.244 270.634 317.244 270.634Z" fill="#E2603D"/>
<path d="M178.353 251.68C173.381 256.03 169.031 256.962 166.856 257.273C165.613 258.516 164.371 259.759 163.128 261.001C160.331 265.041 155.67 271.566 148.835 276.537C146.349 279.645 144.174 283.063 142.62 286.17C133.299 305.124 124.599 315.067 123.356 326.563C123.045 329.981 123.356 333.71 124.599 337.749C126.152 343.031 127.084 340.546 127.084 356.392C127.084 364.471 125.22 371.928 123.356 377.832C123.977 377.832 124.599 377.832 125.22 378.143C128.949 380.007 156.603 391.504 170.585 415.118C174.935 422.265 179.285 427.236 180.839 431.897C186.121 426.304 193.267 418.225 200.103 407.972C208.803 395.232 212.221 377.21 212.221 362.917C212.221 359.189 211.911 355.771 211.289 352.664C209.736 344.585 219.679 338.992 222.786 334.331C232.107 320.038 229.311 318.795 252.615 302.327C262.247 295.491 269.083 287.102 273.744 278.402C284.619 258.516 284.619 238.008 284.619 238.008C284.619 238.008 207.561 225.269 178.353 251.68Z" fill="#9AF4DC"/>
<path d="M180.528 432.207C178.974 427.547 174.624 422.575 170.274 415.429C156.292 391.814 128.948 380.317 124.909 378.453C124.288 378.142 123.666 378.142 123.045 378.142C120.248 378.142 118.073 381.25 118.073 381.25C118.073 381.25 119.316 382.182 120.87 383.735C127.395 389.018 142.62 401.757 145.417 404.553C163.749 422.264 168.721 433.761 169.653 440.597C170.585 446.501 168.099 448.986 168.099 448.986C168.099 448.986 173.692 450.54 178.974 441.84C181.149 438.111 181.46 435.004 180.528 432.207Z" fill="#98A2F4"/>
<path d="M327.809 302.949C327.187 290.831 317.555 263.487 311.03 265.662C304.505 267.837 309.166 275.295 302.019 277.159C294.872 279.023 285.24 289.277 278.404 286.17C274.986 284.616 273.744 281.198 273.122 278.402C268.461 287.102 261.626 295.491 251.993 302.327C228.379 318.795 231.486 319.727 222.164 334.331C219.057 338.992 209.114 344.585 210.668 352.664C211.289 355.771 211.6 359.189 211.6 362.917C217.193 366.957 225.893 369.132 239.254 366.335C272.811 359.5 315.38 333.399 315.38 333.399C315.38 333.399 315.691 334.021 322.216 334.642C328.741 335.263 328.741 315.067 327.809 302.949Z" fill="#9AF4DC"/>
<path d="M69.2903 370.685C76.7476 365.092 86.3799 363.539 103.469 372.239C120.559 380.939 145.417 403.622 155.981 415.429C166.545 427.236 173.071 438.422 172.138 442.772C171.206 447.122 160.952 457.997 160.952 457.997C160.952 457.997 163.438 439.044 147.902 422.265C133.92 407.04 96.3229 376.278 84.5156 374.414C70.8439 372.239 64.0081 380.007 64.0081 380.007C64.0081 380.007 64.9403 373.793 69.2903 370.685Z" fill="#E2603D"/>
<path d="M71.4654 402.379C92.2836 416.982 104.091 419.468 115.277 430.343C126.463 441.218 128.948 450.851 138.27 456.444C147.592 462.037 155.981 460.794 160.642 456.754C166.545 451.472 162.817 444.015 155.981 431.275C141.688 404.243 99.1194 373.482 82.962 370.996C67.1154 368.51 64.3189 374.103 62.7653 381.25C60.901 388.707 65.8725 398.339 71.4654 402.379Z" fill="white"/>
<path d="M292.387 111.856C286.172 111.235 263.49 112.478 252.615 114.963C237.079 118.692 219.678 119.624 202.589 123.663C178.974 129.256 137.338 145.725 109.062 164.057C80.787 182.389 61.8331 218.122 61.8331 218.122C47.8507 242.047 51.5794 267.837 70.8439 282.13C86.0692 293.316 122.113 287.412 138.581 282.13C142.309 280.887 145.727 279.023 149.145 276.537C153.185 271.255 158.156 265.973 163.438 261.001C164.992 258.826 165.613 257.273 165.613 257.273C165.613 257.273 166.235 257.273 167.167 257.273C169.342 257.273 173.692 256.341 178.663 251.68C207.56 224.958 284.619 238.008 284.619 238.008C284.619 238.008 284.308 226.201 283.687 222.472C282.754 217.19 279.647 201.033 279.647 201.033L287.104 201.965C287.104 201.965 292.387 205.383 302.019 197.925C320.662 183.632 335.266 175.243 338.684 154.114C343.345 124.906 323.459 115.585 292.387 111.856Z" fill="#98A2F4"/>
<path d="M163.128 261.001C157.845 265.973 152.874 271.255 148.835 276.537C155.36 271.566 160.331 265.041 163.128 261.001Z" fill="#9ECBE3"/>
<path d="M252.615 114.963C252.615 114.963 247.954 103.467 236.147 105.331C224.339 107.196 219.368 111.546 210.046 111.856C200.725 112.167 170.274 113.099 158.777 118.692C147.281 124.285 144.484 133.607 130.813 137.646C117.141 141.685 102.227 140.442 93.2157 163.125C84.2049 185.807 95.7015 205.072 99.7408 214.704C104.712 226.822 111.859 235.212 127.084 232.726C141.999 230.551 165.303 258.516 165.303 258.516L175.867 255.098C183.635 252.612 185.81 242.98 179.906 237.387C171.828 229.93 161.885 219.365 155.049 208.179C141.377 186.118 140.134 160.328 141.066 156.911C146.97 135.782 167.478 135.471 174.935 135.16C182.392 134.85 183.946 134.539 183.946 134.539C183.946 134.539 172.449 137.025 179.906 166.543C187.364 196.061 205.075 230.862 214.396 236.455C223.718 242.048 236.457 238.319 238.322 238.008C276.229 233.347 281.822 251.991 284.308 250.748C324.391 228.997 303.573 196.683 303.573 196.683C303.573 196.683 287.726 211.908 261.315 191.711C250.129 183.011 235.214 167.786 235.214 135.16C235.525 116.206 252.615 114.963 252.615 114.963Z" fill="#3844E5"/>
<path d="M147.281 242.98C147.281 242.98 150.077 238.94 153.806 238.008C157.535 237.076 159.71 237.076 160.953 239.872C162.195 242.669 160.953 244.223 160.953 244.223C160.953 244.223 162.817 241.426 164.681 245.776C166.546 250.126 163.749 251.369 163.749 251.369C163.749 251.369 166.235 251.058 166.235 255.098C166.235 259.137 163.128 261.001 163.128 261.001C163.128 261.001 166.856 262.555 159.71 269.391C155.049 274.052 139.513 281.82 139.513 281.82C139.513 281.82 146.97 267.837 146.349 253.233C146.349 247.019 147.281 242.98 147.281 242.98Z" fill="#E897A3"/>
<mask id="mask0" mask-type="alpha" maskUnits="userSpaceOnUse" x="62" y="370" width="102" height="91">
<path d="M71.4654 402.379C92.2836 416.982 104.091 419.468 115.277 430.343C126.463 441.218 128.948 450.851 138.27 456.444C147.592 462.037 155.981 460.794 160.642 456.754C166.545 451.472 162.817 444.015 155.981 431.275C141.688 404.243 99.1194 373.482 82.962 370.996C67.1154 368.51 64.3189 374.103 62.7653 381.25C60.901 388.707 65.8725 398.339 71.4654 402.379Z" fill="white"/>
</mask>
<g mask="url(#mask0)">
<path d="M80.1655 450.54L136.406 378.764" stroke="#45A0D4" stroke-width="0.776798" stroke-miterlimit="10"/>
<path d="M87.0014 454.579L143.552 382.803" stroke="#45A0D4" stroke-width="0.776798" stroke-miterlimit="10"/>
<path d="M94.1479 458.929L150.388 387.153" stroke="#45A0D4" stroke-width="0.776798" stroke-miterlimit="10"/>
<path d="M100.984 462.969L157.535 391.193" stroke="#45A0D4" stroke-width="0.776798" stroke-miterlimit="10"/>
<path d="M108.13 467.319L164.37 395.543" stroke="#45A0D4" stroke-width="0.776798" stroke-miterlimit="10"/>
<path d="M114.966 471.358L171.517 399.582" stroke="#45A0D4" stroke-width="0.776798" stroke-miterlimit="10"/>
<path d="M122.113 475.708L178.353 403.622" stroke="#45A0D4" stroke-width="0.776798" stroke-miterlimit="10"/>
<path d="M128.948 479.748L185.499 407.971" stroke="#45A0D4" stroke-width="0.776798" stroke-miterlimit="10"/>
<path d="M136.095 483.787L192.335 412.011" stroke="#45A0D4" stroke-width="0.776798" stroke-miterlimit="10"/>
<path d="M142.931 488.137L199.482 416.361" stroke="#45A0D4" stroke-width="0.776798" stroke-miterlimit="10"/>
<path d="M10.2537 408.904L66.8046 337.128" stroke="#45A0D4" stroke-width="0.776798" stroke-miterlimit="10"/>
<path d="M17.0896 412.943L73.6405 341.167" stroke="#45A0D4" stroke-width="0.776798" stroke-miterlimit="10"/>
<path d="M24.2361 417.293L80.787 345.517" stroke="#45A0D4" stroke-width="0.776798" stroke-miterlimit="10"/>
<path d="M31.072 421.333L87.6228 349.556" stroke="#45A0D4" stroke-width="0.776798" stroke-miterlimit="10"/>
<path d="M38.2185 425.683L94.7694 353.596" stroke="#45A0D4" stroke-width="0.776798" stroke-miterlimit="10"/>
<path d="M45.0542 429.722L101.605 357.946" stroke="#45A0D4" stroke-width="0.776798" stroke-miterlimit="10"/>
<path d="M52.2009 434.072L108.752 361.985" stroke="#45A0D4" stroke-width="0.776798" stroke-miterlimit="10"/>
<path d="M59.0366 438.112L115.588 366.335" stroke="#45A0D4" stroke-width="0.776798" stroke-miterlimit="10"/>
<path d="M66.1831 442.151L122.734 370.375" stroke="#45A0D4" stroke-width="0.776798" stroke-miterlimit="10"/>
<path d="M73.0189 446.501L129.57 374.725" stroke="#45A0D4" stroke-width="0.776798" stroke-miterlimit="10"/>
</g>
<path d="M348.005 299.531C344.898 287.723 336.198 266.905 332.78 265.662C330.294 264.73 326.255 265.352 324.08 265.662C324.391 265.662 324.702 265.662 325.012 265.662C328.43 266.905 337.13 287.723 340.237 299.531C343.345 311.338 347.073 322.524 345.52 334.331C343.655 348.003 337.441 353.906 332.159 353.285C342.413 355.771 351.113 350.799 353.288 334.331C354.841 322.524 351.113 311.338 348.005 299.531Z" stroke="#45A0D4" stroke-width="0.776798" stroke-miterlimit="10"/>
<path d="M326.255 329.36L335.266 325.32" stroke="#45A0D4" stroke-width="0.776798" stroke-miterlimit="10"/>
<path d="M338.684 329.36L321.594 335.885" stroke="#45A0D4" stroke-width="0.776798" stroke-miterlimit="10"/>
<path d="M338.684 334.642L323.148 340.235" stroke="#45A0D4" stroke-width="0.776798" stroke-miterlimit="10"/>
<path d="M317.244 329.36C317.244 329.36 318.176 331.846 319.109 327.496C320.041 323.145 320.973 305.124 317.244 291.141" stroke="#660000" stroke-width="0.776798" stroke-miterlimit="10" stroke-linejoin="round"/>
<path d="M316.001 287.102C316.001 287.102 315.38 285.237 313.826 282.441C312.584 280.266 311.651 279.645 311.651 279.645" stroke="#660000" stroke-width="0.776798" stroke-miterlimit="10" stroke-linejoin="round"/>
<mask id="mask1" mask-type="alpha" maskUnits="userSpaceOnUse" x="89" y="105" width="220" height="154">
<path d="M252.615 114.963C252.615 114.963 247.954 103.467 236.147 105.331C224.339 107.196 219.368 111.546 210.046 111.856C200.725 112.167 170.274 113.099 158.777 118.692C147.281 124.285 144.484 133.607 130.813 137.646C117.141 141.685 102.227 140.442 93.2157 163.125C84.2049 185.807 95.7015 205.072 99.7408 214.704C104.712 226.822 111.859 235.212 127.084 232.726C141.999 230.551 165.303 258.516 165.303 258.516L175.867 255.098C183.635 252.612 185.81 242.98 179.906 237.387C171.828 229.93 161.885 219.365 155.049 208.179C141.377 186.118 140.134 160.328 141.066 156.911C146.97 135.782 167.478 135.471 174.935 135.16C182.392 134.85 183.946 134.539 183.946 134.539C183.946 134.539 172.449 137.025 179.906 166.543C187.364 196.061 205.075 230.862 214.396 236.455C223.718 242.048 236.457 238.319 238.322 238.008C276.229 233.347 281.822 251.991 284.308 250.748C324.391 228.997 303.573 196.683 303.573 196.683C303.573 196.683 287.726 211.908 261.315 191.711C250.129 183.011 235.214 167.786 235.214 135.16C235.525 116.206 252.615 114.963 252.615 114.963Z" fill="#3844E5"/>
</mask>
<g mask="url(#mask1)">
<path d="M34.1791 65.5591C37.9077 78.2986 20.1967 83.5808 23.9253 96.0096C27.654 108.749 45.6757 103.156 49.4043 115.896C53.1329 128.635 35.4219 133.917 39.1506 146.657C42.8792 159.396 60.9009 153.803 64.6295 166.543C68.3582 179.282 50.6472 184.565 54.3758 196.993C58.1044 209.733 76.1262 204.14 79.8548 216.879C83.5834 229.619 65.8724 234.901 69.6011 247.33C73.3297 260.069 91.3514 254.476 95.08 267.216C98.8087 279.955 81.0977 285.238 84.8263 297.977C88.5549 310.717 106.577 305.124 110.305 317.863C114.034 330.603 96.3229 335.885 100.052 348.624C103.78 361.364 121.802 355.771 125.531 368.51" stroke="#9ECBE3" stroke-width="0.776798" stroke-miterlimit="10" stroke-linejoin="round"/>
<path d="M61.5224 57.791C65.251 70.5305 47.54 75.8127 51.2687 88.2415C54.9973 100.981 73.019 95.388 76.7476 108.128C80.4763 120.867 62.7653 126.149 66.4939 138.889C70.2225 151.628 88.2442 146.035 91.9729 158.775C95.7015 171.514 77.9905 176.796 81.7191 189.225C85.4478 201.965 103.469 196.372 107.198 209.111C110.927 221.851 93.2157 227.133 96.9444 239.562C100.673 252.301 118.695 246.708 122.423 259.448C126.152 272.187 108.441 277.469 112.17 290.209C115.898 302.948 133.92 297.355 137.649 310.095C141.377 322.834 123.666 328.117 127.395 340.856C131.123 353.596 149.145 348.003 152.874 360.742" stroke="#9ECBE3" stroke-width="0.776798" stroke-miterlimit="10" stroke-linejoin="round"/>
<path d="M88.8655 49.7124C92.5941 62.4519 74.8831 67.7341 78.6117 80.1629C82.3404 92.9024 100.362 87.3094 104.091 100.049C107.819 112.788 90.1083 118.071 93.837 130.81C97.5656 143.55 115.587 137.957 119.316 150.696C123.045 163.436 105.334 168.718 109.062 181.147C112.791 193.886 130.813 188.293 134.541 201.033C138.27 213.772 120.559 219.054 124.287 231.483C128.016 244.223 146.038 238.63 149.766 251.369C153.495 264.109 135.784 269.391 139.513 282.13C143.241 294.87 161.263 289.277 164.992 302.016C168.72 314.756 151.009 320.038 154.738 332.778C158.467 345.517 176.488 339.924 180.217 352.664" stroke="#9ECBE3" stroke-width="0.776798" stroke-miterlimit="10" stroke-linejoin="round"/>
<path d="M116.209 41.9443C119.937 54.6838 102.226 59.966 105.955 72.3948C109.684 85.1343 127.705 79.5414 131.434 92.2808C135.163 105.02 117.452 110.303 121.18 123.042C124.909 135.782 142.931 130.189 146.659 142.928C150.388 155.668 132.677 160.95 136.406 173.379C140.134 186.118 158.156 180.525 161.885 193.265C165.613 206.004 147.902 211.286 151.631 223.715C155.359 236.455 173.381 230.862 177.11 243.601C180.838 256.341 163.127 261.623 166.856 274.362C170.585 287.102 188.606 281.509 192.335 294.248C196.064 306.988 178.353 312.27 182.081 325.009C185.81 337.749 203.832 332.156 207.56 344.896" stroke="#9ECBE3" stroke-width="0.776798" stroke-miterlimit="10" stroke-linejoin="round"/>
<path d="M143.552 34.1765C147.281 46.916 129.57 52.1982 133.298 64.627C137.027 77.3665 155.049 71.7735 158.777 84.513C162.506 97.2525 144.795 102.535 148.524 115.274C152.252 128.014 170.274 122.421 174.003 135.16C177.731 147.9 160.02 153.182 163.749 165.611C167.478 178.35 185.499 172.757 189.228 185.497C192.957 198.236 175.246 203.518 178.974 215.947C182.703 228.687 200.725 223.094 204.453 235.833C208.182 248.573 190.471 253.855 194.199 266.594C197.928 279.334 215.95 273.741 219.678 286.48C223.407 299.22 205.696 304.502 209.425 317.242C213.153 329.981 231.175 324.388 234.904 337.128" stroke="#9ECBE3" stroke-width="0.776798" stroke-miterlimit="10" stroke-linejoin="round"/>
<path d="M171.206 26.0977C174.935 38.8371 157.224 44.1194 160.952 56.5481C164.681 69.2876 182.703 63.6947 186.431 76.4342C190.16 89.1736 172.449 94.4559 176.178 107.195C179.906 119.935 197.928 114.342 201.657 127.081C205.385 139.821 187.674 145.103 191.403 157.532C195.131 170.271 213.153 164.678 216.882 177.418C220.61 190.157 202.899 195.44 206.628 207.868C210.357 220.608 228.378 215.015 232.107 227.754C235.836 240.494 218.125 245.776 221.853 258.516C225.582 271.255 243.604 265.662 247.332 278.402C251.061 291.141 233.35 296.423 237.079 309.163C240.807 321.902 258.829 316.309 262.558 329.049" stroke="#9ECBE3" stroke-width="0.776798" stroke-miterlimit="10" stroke-linejoin="round"/>
<path d="M198.549 18.3298C202.278 31.0693 184.567 36.3515 188.296 48.7803C192.024 61.5198 210.046 55.9269 213.775 68.6663C217.503 81.4058 199.792 86.688 203.521 99.4275C207.25 112.167 225.271 106.574 229 119.314C232.729 132.053 215.018 137.335 218.746 149.764C222.475 162.504 240.497 156.911 244.225 169.65C247.954 182.39 230.243 187.672 233.971 200.101C237.7 212.84 255.722 207.247 259.45 219.987C263.179 232.726 245.468 238.008 249.197 250.748C252.925 263.487 270.947 257.894 274.676 270.634C278.404 283.373 260.693 288.655 264.422 301.395C268.151 314.134 286.172 308.542 289.901 321.281" stroke="#9ECBE3" stroke-width="0.776798" stroke-miterlimit="10" stroke-linejoin="round"/>
<path d="M225.893 10.5618C229.621 23.3013 211.91 28.5835 215.639 41.0122C219.368 53.7517 237.389 48.1588 241.118 60.8983C244.847 73.6378 227.136 78.92 230.864 91.6595C234.593 104.399 252.615 98.806 256.343 111.545C260.072 124.285 242.361 129.567 246.09 141.996C249.818 154.735 267.84 149.143 271.569 161.882C275.297 174.621 257.586 179.904 261.315 192.332C265.043 205.072 283.065 199.479 286.794 212.219C290.522 224.958 272.811 230.24 276.54 242.98C280.269 255.719 298.29 250.126 302.019 262.866C305.748 275.605 288.037 280.887 291.765 293.627C295.494 306.366 313.516 300.773 317.244 313.513" stroke="#9ECBE3" stroke-width="0.776798" stroke-miterlimit="10" stroke-linejoin="round"/>
<path d="M253.236 2.48315C256.965 15.2226 239.254 20.5049 242.982 32.9336C246.711 45.6731 264.733 40.0802 268.461 52.8197C272.19 65.5591 254.479 70.8414 258.208 83.5809C261.936 96.3203 279.958 90.7274 283.687 103.467C287.415 116.206 269.704 121.489 273.433 133.917C277.161 146.657 295.183 141.064 298.912 153.803C302.64 166.543 284.929 171.825 288.658 184.254C292.387 196.993 310.408 191.4 314.137 204.14C317.866 216.879 300.155 222.162 303.883 234.901C307.612 247.641 325.634 242.048 329.362 254.787C333.091 267.527 315.38 272.809 319.108 285.548C322.837 298.288 340.859 292.695 344.587 305.434" stroke="#9ECBE3" stroke-width="0.776798" stroke-miterlimit="10" stroke-linejoin="round"/>
<path d="M280.89 -5.28491C284.619 7.45457 266.908 12.7368 270.636 25.1656C274.365 37.9051 292.387 32.3121 296.115 45.0516C299.844 57.7911 282.133 63.0733 285.861 75.8128C289.59 88.5523 307.612 82.9593 311.34 95.6988C315.069 108.438 297.358 113.721 301.087 126.149C304.815 138.889 322.837 133.296 326.566 146.035C330.294 158.775 312.583 164.057 316.312 176.486C320.041 189.225 338.062 183.632 341.791 196.372C345.52 209.111 327.809 214.394 331.537 227.133C335.266 239.872 353.288 234.28 357.016 247.019C360.745 259.759 343.034 265.041 346.762 277.78C350.491 290.52 368.513 284.927 372.241 297.666" stroke="#9ECBE3" stroke-width="0.776798" stroke-miterlimit="10" stroke-linejoin="round"/>
</g>
<path d="M153.806 129.567C153.806 129.567 151.942 134.539 153.806 141.685C155.67 148.832 160.642 153.493 163.749 154.114C167.478 154.735 173.381 152.25 174.624 145.414C175.867 138.578 177.11 129.878 170.585 126.46C164.06 123.042 154.427 126.46 153.806 129.567Z" fill="#E897A3"/>
<path d="M153.495 129.567C153.495 129.567 156.602 118.071 160.953 111.235C165.924 103.778 166.546 114.342 169.031 109.06C171.517 103.778 175.867 94.7669 177.731 98.4955C179.596 102.224 177.421 105.331 180.839 101.913C184.256 98.4955 184.878 96.0097 187.364 96.6312C191.092 97.874 182.392 109.681 183.324 112.789C184.256 115.896 187.364 110.614 187.364 114.342C187.364 119.003 174.935 138.578 174.935 137.335C174.624 132.364 172.76 128.946 171.517 135.471C170.896 137.957 168.099 128.014 161.263 127.703C154.117 127.082 153.495 129.567 153.495 129.567Z" fill="#E2603D"/>
<path d="M270.326 176.486C269.704 176.175 261.625 172.447 257.275 176.486C253.547 179.593 251.061 178.661 251.372 180.215C252.304 183.011 256.343 183.322 256.343 183.322C256.343 183.322 251.993 180.836 248.265 183.011C245.157 184.875 243.604 185.186 243.604 187.983C243.604 192.022 246.4 192.954 246.4 192.954C246.4 192.954 243.293 190.779 243.914 196.372C244.225 199.168 246.711 201.033 246.711 201.033C246.711 201.033 244.225 200.101 245.468 204.451C246.711 208.179 249.197 208.801 249.197 208.801C249.197 208.801 246.711 211.597 252.925 214.083C259.14 216.569 270.947 219.365 279.026 213.151C287.104 206.936 289.901 202.586 289.901 202.586C289.901 202.586 280.269 197.926 274.054 188.604C271.258 183.632 270.326 176.486 270.326 176.486Z" fill="#E897A3"/>
<path d="M260.383 180.836C260.383 180.836 261.004 182.39 257.897 182.7C254.79 182.7 252.615 182.079 252.615 182.079" stroke="#660000" stroke-width="0.776798" stroke-miterlimit="10" stroke-linejoin="round"/>
<path d="M130.502 381.56C130.502 381.56 145.727 384.046 165.303 406.418C177.11 420.089 176.799 426.925 176.799 426.925" stroke="#660000" stroke-width="0.776798" stroke-miterlimit="10" stroke-linejoin="round"/>
<path d="M254.479 293.316C243.293 303.259 228.689 316.62 222.164 323.767C210.357 335.885 213.153 346.76 213.153 351.11" stroke="#660000" stroke-width="0.776798" stroke-miterlimit="10" stroke-linejoin="round"/>
<path d="M267.218 281.509C267.218 281.509 264.733 284.305 260.072 288.345" stroke="#660000" stroke-width="0.776798" stroke-miterlimit="10" stroke-linejoin="round"/>
<path d="M124.288 337.749C124.288 337.749 126.152 344.274 132.988 343.031C141.377 341.478 147.592 329.67 147.592 329.67" stroke="#660000" stroke-width="0.776798" stroke-miterlimit="10" stroke-linejoin="round"/>
<path d="M75.194 214.704C75.194 214.704 83.2727 210.043 94.4586 213.461C100.673 215.326 102.537 220.297 102.537 220.297" stroke="#660000" stroke-width="0.776798" stroke-miterlimit="10" stroke-linejoin="round"/>
<path d="M288.347 139.51C288.347 139.51 279.647 140.753 275.919 151.939C273.122 160.018 274.054 164.368 274.054 164.368" stroke="#660000" stroke-width="0.776798" stroke-miterlimit="10" stroke-linejoin="round"/>
<path d="M274.054 140.132C274.054 140.132 272.19 143.55 271.879 148.832C271.879 154.735 274.365 157.843 274.365 157.843" stroke="#660000" stroke-width="0.776798" stroke-miterlimit="10" stroke-linejoin="round"/>
<path d="M257.897 106.885C307.301 95.0775 348.627 116.517 343.966 145.103C340.548 165.611 325.944 173.379 307.301 187.361" stroke="black" stroke-width="0.776798" stroke-miterlimit="10" stroke-linejoin="round"/>
<path d="M139.513 45.0515C139.513 45.0515 130.191 51.8873 122.423 59.0339" stroke="black" stroke-width="0.776798" stroke-miterlimit="10" stroke-linejoin="round"/>
<path d="M108.441 73.0164C108.441 73.0164 85.137 101.603 75.8154 118.692" stroke="black" stroke-width="0.776798" stroke-miterlimit="10" stroke-linejoin="round"/>
<path d="M383.427 203.519C383.427 203.519 386.535 221.23 369.134 263.798C364.784 274.673 352.977 296.734 352.977 296.734" stroke="black" stroke-width="0.776798" stroke-miterlimit="10" stroke-linejoin="round"/>
<path d="M347.073 334.331C347.073 334.331 375.038 316.62 396.167 243.291" stroke="black" stroke-width="0.776798" stroke-miterlimit="10" stroke-linejoin="round"/>
<path d="M233.661 423.818C233.661 423.818 327.498 408.282 389.02 334.331" stroke="black" stroke-width="0.776798" stroke-miterlimit="10" stroke-linejoin="round"/>
<path d="M47.2293 328.427C47.2293 328.427 36.6648 337.128 35.4219 355.771" stroke="black" stroke-width="0.776798" stroke-miterlimit="10" stroke-linejoin="round"/>
<path d="M35.4219 375.035C35.4219 375.035 38.8398 407.661 66.4939 428.79" stroke="black" stroke-width="0.776798" stroke-miterlimit="10" stroke-linejoin="round"/>
<path d="M117.763 462.347C117.763 462.347 132.988 477.883 156.292 474.776C179.596 471.669 191.403 455.201 191.403 455.201" stroke="black" stroke-width="0.776798" stroke-miterlimit="10" stroke-linejoin="round"/>
<path d="M215.018 359.81C215.018 359.81 219.678 368.821 213.464 388.085C205.385 414.497 184.567 432.518 184.567 432.518" stroke="#660000" stroke-width="0.776798" stroke-miterlimit="10" stroke-linejoin="round"/>
<path d="M48.4722 199.168C52.5115 191.4 56.8616 183.322 61.2117 175.554C76.7476 148.21 93.5264 123.042 111.548 99.7383" stroke="black" stroke-width="0.776798" stroke-miterlimit="10" stroke-linejoin="round"/>
<path d="M31.6934 238.94L46.9186 225.269L33.247 216.569L31.6934 238.94Z" fill="#E2603D"/>
<path d="M45.365 214.704L38.8399 228.376" stroke="black" stroke-width="0.776798" stroke-miterlimit="10" stroke-linejoin="round"/>
<path d="M43.5007 207.247L36.0434 223.715" stroke="black" stroke-width="0.776798" stroke-miterlimit="10" stroke-linejoin="round"/>
</g>
<defs>
<clipPath id="clip0">
<rect width="458" height="487.574" fill="white" transform="translate(0 0.874268)"/>
</clipPath>
</defs>
</svg>
