<svg width="514" height="513" viewBox="0 0 514 513" fill="none" xmlns="http://www.w3.org/2000/svg">
<path d="M322.842 9.04503C297.059 34.4856 264.373 69.3065 158.455 104.157C96.4378 114.498 72.2657 97.3181 40.5602 136.699C-15.1858 206.399 -15.0542 398.641 96.4378 420.945C207.93 443.249 224.654 440.461 307.576 490.993C390.498 541.526 480.737 497.615 500.945 434.188C524.985 358.911 490.144 351.593 504.777 189.888C519.41 27.8349 477.117 22.3653 427.542 9.045C377.966 -4.2753 349.109 -1.68538 322.842 9.04503Z" fill="#F8F9FF"/>
<path d="M320.932 453.972V460.839L249.509 463.93C249.509 463.93 258.78 453.628 268.738 451.911C279.04 450.194 320.932 453.972 320.932 453.972Z" fill="#F39684"/>
<path d="M248.136 468.05H322.306C322.306 468.05 323.336 466.333 323.336 465.303C323.336 464.273 321.275 461.183 321.275 461.183L250.539 463.586C250.539 463.586 248.136 464.273 247.792 464.96C246.419 467.363 248.136 468.05 248.136 468.05Z" fill="#FFAE9E"/>
<path d="M435.621 441.953C435.621 441.953 432.53 454.315 432.187 457.749C431.843 460.839 424.976 456.719 421.542 460.839C418.108 464.96 417.765 468.05 417.765 468.05L439.398 466.333L473.049 412.766C473.049 412.766 468.928 408.646 465.495 408.646C462.061 408.646 435.621 441.953 435.621 441.953Z" fill="#F39684"/>
<path d="M476.139 415.857L443.862 468.737L412.614 471.141C412.614 471.141 413.301 468.737 414.331 468.05C415.705 467.363 418.452 466.333 418.452 466.333L439.054 465.647L472.706 413.11L476.139 415.857Z" fill="#FFAE9E"/>
<path d="M235.087 360.229C233.714 389.76 252.256 425.128 262.558 441.953C263.588 443.67 260.497 444.357 262.214 448.478C263.931 452.255 265.648 452.942 265.648 452.942L320.932 459.809C320.932 459.809 327.8 459.809 321.275 430.622C318.185 416.2 326.426 385.296 326.426 385.296C326.426 385.296 330.203 398.001 345.312 411.393C356.3 421.007 397.506 437.833 419.138 446.417C421.885 447.448 422.572 452.255 424.289 453.628C429.096 458.092 432.187 456.375 432.187 456.375L465.838 408.989C465.838 408.989 442.145 388.386 424.289 364.007C417.765 355.079 413.988 336.536 412.271 316.964L235.431 327.265C235.431 328.639 235.087 358.856 235.087 360.229Z" fill="#9AF4DC"/>
<path d="M476.826 211.546C475.109 211.546 481.29 203.992 480.947 199.185C480.603 194.721 476.483 199.528 475.453 198.498C474.766 197.468 477.513 194.377 475.796 190.257C474.079 186.136 469.272 194.034 464.121 196.094C462.404 196.781 457.254 198.841 447.982 199.528L462.748 233.179C473.049 227.685 479.573 220.817 480.947 217.384C483.007 212.576 478.543 211.546 476.826 211.546Z" fill="#E897A3"/>
<path d="M384.457 189.227C373.469 185.793 364.198 182.702 356.3 180.299C350.806 186.136 329.173 208.112 321.962 196.438C317.498 189.227 323.679 177.208 326.769 171.714C316.812 168.967 310.631 167.937 302.733 167.25C282.474 165.533 270.455 155.232 270.455 155.232L232.34 174.118C232.34 174.118 233.714 178.238 236.117 185.449C242.642 204.679 257.75 217.384 257.75 217.384C257.75 217.384 235.431 291.553 235.431 327.265L412.271 316.62C409.18 282.969 410.897 245.884 410.897 245.884C410.897 245.884 428.41 242.794 447.982 238.673C453.476 237.3 458.627 235.583 462.747 233.179L447.982 199.528C434.59 200.215 412.958 198.498 384.457 189.227Z" fill="#E2603D"/>
<path d="M346.342 151.455C346.342 151.455 336.728 151.112 334.667 158.666C332.607 166.22 335.011 169.997 339.475 173.088C344.282 175.835 352.18 174.118 355.613 167.25C359.047 160.383 353.553 152.142 346.342 151.455Z" fill="#E897A3"/>
<path d="M337.758 168.624C337.758 168.624 333.98 176.865 336.041 180.986C338.101 185.106 344.969 186.48 348.059 183.389C351.149 180.299 348.059 171.028 348.059 171.028L337.758 168.624Z" fill="#E897A3"/>
<path d="M230.623 127.762C233.027 126.732 233.714 132.226 235.431 129.479C237.148 126.388 240.581 121.924 242.642 124.328C244.359 126.732 243.672 128.105 245.389 127.762C250.196 127.075 250.539 121.581 253.286 121.924C258.094 122.611 256.034 131.196 259.811 141.154C264.275 152.485 268.739 156.262 268.739 156.262L235.087 173.088C235.087 173.088 228.563 154.545 228.563 134.286C228.563 130.165 228.563 128.792 230.623 127.762Z" fill="#E897A3"/>
<path d="M321.962 196.438C328.83 208.112 350.806 185.793 356.3 180.299C345.312 176.865 336.727 174.118 329.173 172.058C328.486 171.714 327.8 171.714 326.769 171.371C323.679 177.208 317.498 189.57 321.962 196.438Z" fill="#E897A3"/>
<path d="M356.643 162.1C356.3 157.292 353.553 148.708 348.059 144.931C343.252 141.497 337.071 140.81 335.697 144.244C334.324 147.678 330.203 139.093 328.486 143.557C326.77 147.678 331.233 148.708 333.294 151.112C335.011 153.859 328.143 155.232 334.324 155.575C340.505 155.919 344.969 152.828 349.433 155.575C353.553 157.979 350.463 161.756 352.866 162.1C355.27 162.443 353.896 165.19 353.896 166.564C353.896 167.937 355.613 168.624 355.613 168.624C355.613 168.624 356.987 166.22 356.643 162.1Z" fill="#3844E5"/>
<mask id="mask0" mask-type="alpha" maskUnits="userSpaceOnUse" x="232" y="155" width="231" height="173">
<path d="M384.457 189.227C373.469 185.793 364.198 182.702 356.3 180.299C350.806 186.136 329.173 208.112 321.962 196.438C317.498 189.227 323.679 177.208 326.769 171.714C316.812 168.967 310.631 167.937 302.733 167.25C282.474 165.533 270.455 155.232 270.455 155.232L232.34 174.118C232.34 174.118 233.714 178.238 236.117 185.449C242.642 204.679 257.75 217.384 257.75 217.384C257.75 217.384 235.431 291.553 235.431 327.265L412.271 316.62C409.18 282.969 410.897 245.884 410.897 245.884C410.897 245.884 428.41 242.794 447.982 238.673C453.476 237.3 458.627 235.583 462.747 233.179L447.982 199.528C434.59 200.215 412.958 198.498 384.457 189.227Z" fill="#E2603D"/>
</mask>
<g mask="url(#mask0)">
<path d="M465.668 224.297L456.65 226.448L458.801 235.466L467.819 233.315L465.668 224.297Z" stroke="white" stroke-width="0.858447" stroke-miterlimit="10"/>
<path d="M451.912 246.609L442.894 248.76L445.044 257.778L454.063 255.627L451.912 246.609Z" stroke="white" stroke-width="0.858447" stroke-miterlimit="10"/>
<path d="M437.821 269L428.803 271.151L430.954 280.169L439.972 278.018L437.821 269Z" stroke="white" stroke-width="0.858447" stroke-miterlimit="10"/>
<path d="M424.145 291.646L415.126 293.797L417.277 302.815L426.296 300.664L424.145 291.646Z" stroke="white" stroke-width="0.858447" stroke-miterlimit="10"/>
<path d="M410.388 313.958L401.37 316.109L403.521 325.127L412.539 322.976L410.388 313.958Z" stroke="white" stroke-width="0.858447" stroke-miterlimit="10"/>
<path d="M453.296 200.995L444.278 203.146L446.429 212.164L455.447 210.013L453.296 200.995Z" stroke="white" stroke-width="0.858447" stroke-miterlimit="10"/>
<path d="M439.539 223.307L430.521 225.458L432.672 234.476L441.69 232.325L439.539 223.307Z" stroke="white" stroke-width="0.858447" stroke-miterlimit="10"/>
<path d="M425.862 245.953L416.844 248.104L418.995 257.122L428.013 254.971L425.862 245.953Z" stroke="white" stroke-width="0.858447" stroke-miterlimit="10"/>
<path d="M412.106 268.265L403.088 270.416L405.239 279.434L414.257 277.283L412.106 268.265Z" stroke="white" stroke-width="0.858447" stroke-miterlimit="10"/>
<path d="M398.35 290.577L389.332 292.728L391.483 301.746L400.501 299.595L398.35 290.577Z" stroke="white" stroke-width="0.858447" stroke-miterlimit="10"/>
<path d="M384.594 312.889L375.575 315.04L377.726 324.058L386.744 321.907L384.594 312.889Z" stroke="white" stroke-width="0.858447" stroke-miterlimit="10"/>
<path d="M439.241 177.269L430.223 179.42L432.374 188.438L441.392 186.287L439.241 177.269Z" stroke="white" stroke-width="0.858447" stroke-miterlimit="10"/>
<path d="M425.485 199.581L416.467 201.732L418.618 210.75L427.636 208.599L425.485 199.581Z" stroke="white" stroke-width="0.858447" stroke-miterlimit="10"/>
<path d="M411.729 221.893L402.711 224.044L404.862 233.062L413.88 230.911L411.729 221.893Z" stroke="white" stroke-width="0.858447" stroke-miterlimit="10"/>
<path d="M397.638 244.285L388.62 246.436L390.771 255.454L399.789 253.303L397.638 244.285Z" stroke="white" stroke-width="0.858447" stroke-miterlimit="10"/>
<path d="M383.962 266.931L374.944 269.082L377.095 278.1L386.113 275.949L383.962 266.931Z" stroke="white" stroke-width="0.858447" stroke-miterlimit="10"/>
<path d="M370.205 289.243L361.187 291.394L363.338 300.412L372.356 298.261L370.205 289.243Z" stroke="white" stroke-width="0.858447" stroke-miterlimit="10"/>
<path d="M356.449 311.555L347.431 313.706L349.582 322.724L358.6 320.573L356.449 311.555Z" stroke="white" stroke-width="0.858447" stroke-miterlimit="10"/>
<path d="M413.113 176.28L404.095 178.431L406.246 187.449L415.264 185.298L413.113 176.28Z" stroke="white" stroke-width="0.858447" stroke-miterlimit="10"/>
<path d="M399.356 198.592L390.338 200.742L392.489 209.761L401.507 207.61L399.356 198.592Z" stroke="white" stroke-width="0.858447" stroke-miterlimit="10"/>
<path d="M385.679 221.237L376.661 223.388L378.812 232.406L387.83 230.256L385.679 221.237Z" stroke="white" stroke-width="0.858447" stroke-miterlimit="10"/>
<path d="M371.923 243.549L362.905 245.7L365.056 254.718L374.074 252.568L371.923 243.549Z" stroke="white" stroke-width="0.858447" stroke-miterlimit="10"/>
<path d="M358.167 265.861L349.149 268.012L351.3 277.03L360.318 274.879L358.167 265.861Z" stroke="white" stroke-width="0.858447" stroke-miterlimit="10"/>
<path d="M344.411 288.174L335.393 290.324L337.544 299.343L346.562 297.192L344.411 288.174Z" stroke="white" stroke-width="0.858447" stroke-miterlimit="10"/>
<path d="M330.734 310.819L321.716 312.97L323.867 321.988L332.885 319.837L330.734 310.819Z" stroke="white" stroke-width="0.858447" stroke-miterlimit="10"/>
<path d="M399.058 152.554L390.04 154.705L392.191 163.723L401.209 161.572L399.058 152.554Z" stroke="white" stroke-width="0.858447" stroke-miterlimit="10"/>
<path d="M385.302 174.866L376.284 177.017L378.435 186.035L387.453 183.884L385.302 174.866Z" stroke="white" stroke-width="0.858447" stroke-miterlimit="10"/>
<path d="M371.546 197.178L362.528 199.329L364.679 208.347L373.697 206.196L371.546 197.178Z" stroke="white" stroke-width="0.858447" stroke-miterlimit="10"/>
<path d="M357.869 219.824L348.851 221.975L351.002 230.993L360.02 228.842L357.869 219.824Z" stroke="white" stroke-width="0.858447" stroke-miterlimit="10"/>
<path d="M343.779 242.215L334.76 244.366L336.911 253.384L345.93 251.234L343.779 242.215Z" stroke="white" stroke-width="0.858447" stroke-miterlimit="10"/>
<path d="M330.023 264.527L321.004 266.678L323.155 275.696L332.173 273.545L330.023 264.527Z" stroke="white" stroke-width="0.858447" stroke-miterlimit="10"/>
<path d="M316.266 286.84L307.248 288.99L309.399 298.009L318.417 295.858L316.266 286.84Z" stroke="white" stroke-width="0.858447" stroke-miterlimit="10"/>
<path d="M302.589 309.485L293.571 311.636L295.722 320.654L304.74 318.504L302.589 309.485Z" stroke="white" stroke-width="0.858447" stroke-miterlimit="10"/>
<path d="M372.93 151.564L363.912 153.715L366.063 162.733L375.081 160.582L372.93 151.564Z" stroke="white" stroke-width="0.858447" stroke-miterlimit="10"/>
<path d="M359.253 174.21L350.235 176.361L352.386 185.379L361.404 183.228L359.253 174.21Z" stroke="white" stroke-width="0.858447" stroke-miterlimit="10"/>
<path d="M345.497 196.522L336.479 198.673L338.629 207.691L347.648 205.54L345.497 196.522Z" stroke="white" stroke-width="0.858447" stroke-miterlimit="10"/>
<path d="M331.74 218.834L322.722 220.985L324.873 230.003L333.891 227.852L331.74 218.834Z" stroke="white" stroke-width="0.858447" stroke-miterlimit="10"/>
<path d="M317.984 241.146L308.966 243.297L311.117 252.315L320.135 250.164L317.984 241.146Z" stroke="white" stroke-width="0.858447" stroke-miterlimit="10"/>
<path d="M304.307 263.792L295.289 265.943L297.44 274.961L306.458 272.81L304.307 263.792Z" stroke="white" stroke-width="0.858447" stroke-miterlimit="10"/>
<path d="M290.551 286.104L281.533 288.255L283.684 297.273L292.702 295.122L290.551 286.104Z" stroke="white" stroke-width="0.858447" stroke-miterlimit="10"/>
<path d="M276.795 308.416L267.776 310.567L269.927 319.585L278.945 317.434L276.795 308.416Z" stroke="white" stroke-width="0.858447" stroke-miterlimit="10"/>
<path d="M345.119 150.151L336.101 152.301L338.252 161.32L347.27 159.169L345.119 150.151Z" stroke="white" stroke-width="0.858447" stroke-miterlimit="10"/>
<path d="M331.363 172.462L322.345 174.613L324.496 183.632L333.514 181.481L331.363 172.462Z" stroke="white" stroke-width="0.858447" stroke-miterlimit="10"/>
<path d="M317.686 195.108L308.668 197.259L310.819 206.277L319.837 204.126L317.686 195.108Z" stroke="white" stroke-width="0.858447" stroke-miterlimit="10"/>
<path d="M303.93 217.421L294.912 219.571L297.063 228.59L306.081 226.439L303.93 217.421Z" stroke="white" stroke-width="0.858447" stroke-miterlimit="10"/>
<path d="M289.84 239.812L280.822 241.963L282.972 250.981L291.991 248.83L289.84 239.812Z" stroke="white" stroke-width="0.858447" stroke-miterlimit="10"/>
<path d="M276.083 262.124L267.065 264.275L269.216 273.293L278.234 271.142L276.083 262.124Z" stroke="white" stroke-width="0.858447" stroke-miterlimit="10"/>
<path d="M262.407 284.77L253.388 286.921L255.539 295.939L264.557 293.788L262.407 284.77Z" stroke="white" stroke-width="0.858447" stroke-miterlimit="10"/>
<path d="M248.65 307.082L239.632 309.233L241.783 318.251L250.801 316.1L248.65 307.082Z" stroke="white" stroke-width="0.858447" stroke-miterlimit="10"/>
<path d="M319.07 149.495L310.052 151.646L312.203 160.664L321.221 158.513L319.07 149.495Z" stroke="white" stroke-width="0.858447" stroke-miterlimit="10"/>
<path d="M305.314 171.807L296.296 173.958L298.447 182.976L307.465 180.825L305.314 171.807Z" stroke="white" stroke-width="0.858447" stroke-miterlimit="10"/>
<path d="M291.557 194.119L282.539 196.27L284.69 205.288L293.708 203.137L291.557 194.119Z" stroke="white" stroke-width="0.858447" stroke-miterlimit="10"/>
<path d="M277.801 216.431L268.783 218.581L270.934 227.6L279.952 225.449L277.801 216.431Z" stroke="white" stroke-width="0.858447" stroke-miterlimit="10"/>
<path d="M264.125 239.076L255.107 241.227L257.258 250.245L266.276 248.095L264.125 239.076Z" stroke="white" stroke-width="0.858447" stroke-miterlimit="10"/>
<path d="M250.368 261.389L241.35 263.54L243.501 272.558L252.519 270.407L250.368 261.389Z" stroke="white" stroke-width="0.858447" stroke-miterlimit="10"/>
<path d="M236.612 283.701L227.594 285.852L229.744 294.87L238.763 292.719L236.612 283.701Z" stroke="white" stroke-width="0.858447" stroke-miterlimit="10"/>
<path d="M291.26 148.081L282.242 150.232L284.393 159.25L293.411 157.099L291.26 148.081Z" stroke="white" stroke-width="0.858447" stroke-miterlimit="10"/>
<path d="M277.503 170.393L268.485 172.544L270.636 181.562L279.654 179.411L277.503 170.393Z" stroke="white" stroke-width="0.858447" stroke-miterlimit="10"/>
<path d="M263.747 192.705L254.729 194.856L256.88 203.874L265.898 201.723L263.747 192.705Z" stroke="white" stroke-width="0.858447" stroke-miterlimit="10"/>
<path d="M249.657 215.097L240.638 217.248L242.789 226.266L251.807 224.115L249.657 215.097Z" stroke="white" stroke-width="0.858447" stroke-miterlimit="10"/>
<path d="M235.98 237.743L226.962 239.893L229.113 248.912L238.131 246.761L235.98 237.743Z" stroke="white" stroke-width="0.858447" stroke-miterlimit="10"/>
<path d="M265.131 147.091L256.113 149.242L258.264 158.26L267.282 156.109L265.131 147.091Z" stroke="white" stroke-width="0.858447" stroke-miterlimit="10"/>
<path d="M251.375 169.403L242.356 171.554L244.507 180.572L253.525 178.421L251.375 169.403Z" stroke="white" stroke-width="0.858447" stroke-miterlimit="10"/>
<path d="M237.698 192.049L228.68 194.2L230.831 203.218L239.849 201.068L237.698 192.049Z" stroke="white" stroke-width="0.858447" stroke-miterlimit="10"/>
</g>
<path d="M338.101 172.401C338.101 172.401 340.848 175.148 345.999 173.775" stroke="white" stroke-width="0.858447" stroke-miterlimit="10"/>
<path d="M316.468 349.928C318.528 358.512 321.275 369.157 324.709 378.772" stroke="white" stroke-width="0.858447" stroke-miterlimit="10"/>
<path d="M313.034 332.416C313.034 332.416 314.065 338.253 315.781 346.494" stroke="white" stroke-width="0.858447" stroke-miterlimit="10"/>
<path d="M248.136 370.187C246.419 361.603 243.329 352.675 243.329 352.675C239.552 336.536 234.744 322.801 232.684 315.59C222.039 322.114 203.154 331.042 178.087 339.283C171.906 341.343 164.695 343.747 158.171 345.464C161.605 347.524 168.129 353.018 178.774 364.693C188.732 375.681 193.882 395.941 196.629 415.17H245.046C245.389 412.766 246.076 410.019 246.419 407.272C246.763 404.869 247.106 402.122 247.449 399.718C247.449 399.718 250.196 382.206 248.136 370.187Z" fill="#E897A3"/>
<path d="M89.1515 354.049L84.6876 353.705C84.6876 353.705 81.9405 361.259 76.7898 370.531C75.4163 373.278 73.3561 375.681 71.6392 378.085L99.1095 420.664C103.23 418.604 107.351 416.2 111.128 413.796C155.767 387.7 174.309 347.868 177.743 339.283C161.604 344.434 143.405 350.271 127.953 351.645C110.098 353.705 106.32 354.392 89.1515 354.049Z" fill="#E897A3"/>
<path d="M34.8975 403.838C34.8975 403.838 31.4637 403.495 26.6564 405.899C21.8491 408.302 30.0902 477.665 40.0482 478.352C50.0062 479.038 50.6929 444.014 50.6929 444.014C50.6929 444.014 51.0363 444.014 51.3797 443.67L36.271 403.495C35.5843 403.838 34.8975 403.838 34.8975 403.838Z" fill="#F39684"/>
<path d="M36.2711 403.495L51.7232 444.014C55.8437 442.297 77.1332 432.339 98.7661 420.664L71.2958 378.085C59.2775 393.88 41.0784 401.778 36.2711 403.495Z" fill="#9ECBE3"/>
<path d="M197.659 472.514C197.316 479.382 198.003 478.695 202.123 480.069C206.244 481.442 268.052 482.129 268.052 482.129C268.052 482.129 270.799 477.665 265.305 472.514C259.811 467.364 233.714 458.092 233.714 458.092H199.376L197.659 472.514Z" fill="#F39684"/>
<path d="M12.2346 266.83C-1.8439 269.577 -1.15714 275.758 1.58989 276.788C4.33692 277.818 11.5479 279.879 8.45746 283.312C5.36706 286.746 8.11409 287.433 11.8913 289.837C15.6684 292.24 12.2346 292.24 14.9817 295.674C17.3853 299.108 42.1086 290.867 57.5606 283.656L40.7351 254.812C31.4638 260.306 21.1625 265.113 12.2346 266.83Z" fill="#E897A3"/>
<path d="M194.912 184.076L233.714 218.757C234.744 217.727 237.491 214.98 237.834 214.293C246.075 202.275 246.762 198.154 243.328 190.6C239.895 183.046 234.744 177.552 229.593 173.431C226.503 171.027 223.412 168.967 221.695 168.28C215.515 164.16 207.274 157.979 203.84 154.889C198.346 149.051 185.297 148.708 176.369 155.919C176.369 155.919 163.664 162.786 167.442 165.877C171.219 168.967 172.592 172.058 178.773 173.431C184.611 174.805 188.731 176.865 191.135 180.985L194.912 184.076Z" fill="#E897A3"/>
<path d="M222.039 233.179C233.027 228.372 238.865 223.221 238.865 223.221L233.714 218.757L194.912 184.076L191.478 180.986L189.075 178.925C189.075 178.925 152.677 170.684 111.471 199.185C101.513 206.052 75.4164 222.878 55.5004 233.522C45.5424 238.673 33.5242 243.137 33.5242 243.137L40.3917 255.155L57.2173 283.999L59.2776 287.433C59.2776 287.433 68.8922 285.716 78.5068 282.626C90.8684 278.848 94.3022 272.324 96.0191 275.071C102.543 284.686 71.2958 317.65 76.7899 319.367C78.8502 320.054 80.9104 320.741 83.3141 321.427C104.26 326.578 137.568 324.174 154.393 319.711C194.225 309.409 213.798 293.614 221.009 285.716C223.756 282.969 224.786 281.252 224.786 281.252C224.786 281.252 217.919 266.487 209.677 245.197C207.617 238.673 213.455 236.956 222.039 233.179Z" fill="#3844E5"/>
<path d="M122.803 165.19C123.489 165.19 123.833 165.19 124.52 165.533C124.176 165.19 123.489 165.19 122.803 165.19Z" fill="#E897A3"/>
<path d="M135.851 175.148C134.477 171.028 131.387 167.25 126.923 165.877C128.297 166.564 124.519 173.775 121.429 176.865C118.682 180.299 119.025 180.985 117.995 180.985C116.965 180.985 114.905 180.985 115.592 182.702C116.278 184.419 117.995 184.763 120.056 187.166C121.086 188.54 121.772 189.913 121.772 190.943C122.116 191.287 122.803 191.287 123.146 191.287H122.116C122.116 191.287 125.206 192.66 123.833 195.751C122.459 198.841 123.146 201.588 130.014 201.932C136.194 202.275 134.134 191.974 133.791 190.257C138.941 187.51 137.225 180.299 135.851 175.148Z" fill="#E897A3"/>
<path d="M126.923 165.877C126.236 165.534 125.55 165.534 124.863 165.19C125.55 165.534 126.236 165.534 126.923 165.877Z" fill="#D63C30"/>
<path d="M123.146 191.63C122.803 191.63 122.116 191.287 121.772 191.287C121.772 190.257 121.086 188.883 120.056 187.51C117.995 184.763 116.278 184.763 115.592 183.046C114.905 181.329 116.965 181.329 117.995 181.329C119.025 181.329 118.682 180.642 121.429 177.208C124.176 173.775 128.297 166.907 126.923 166.22C126.236 165.877 125.55 165.877 124.52 165.533C123.833 165.533 123.146 165.534 122.803 165.19C122.116 165.19 121.772 165.19 121.086 165.19C119.712 165.19 108.381 165.877 95.6757 176.522C84.6876 185.793 72.3259 166.22 59.9643 176.522C47.2593 186.823 60.9945 190.257 41.4219 192.317C22.1927 194.377 14.6383 214.98 21.1625 220.474C23.5662 222.534 25.2831 225.281 28.7168 222.878C35.9278 217.727 28.7169 229.059 38.3315 230.775C47.9461 232.836 49.3196 224.595 57.904 228.715C66.1451 232.836 76.1031 233.866 81.2538 228.028C90.8684 217.04 116.622 197.468 122.459 194.377C124.52 193.691 124.176 192.66 123.146 191.63Z" fill="#E2603D"/>
<path d="M192.852 141.497L175.34 126.388L154.394 168.624L152.677 167.25L150.96 169.311L153.02 171.371L154.737 172.744L157.141 174.805L158.857 172.744L156.797 171.028L158.171 169.997C158.857 171.028 160.918 173.088 164.008 173.088C167.785 172.744 188.388 155.919 190.105 153.172C191.822 150.425 189.762 146.648 188.731 145.274L192.852 141.497ZM189.418 152.142C187.701 154.545 167.442 171.371 164.008 171.714C161.261 172.058 159.544 169.997 158.857 168.967L188.388 145.274C189.075 146.648 191.135 149.738 189.418 152.142Z" fill="#E2603D"/>
<path d="M124.52 377.398C118.682 378.772 115.935 382.549 106.664 393.88C97.3928 405.555 105.977 412.423 119.712 403.152C133.448 393.88 153.364 370.187 124.52 377.398Z" fill="#FFBFB2"/>
<path d="M42.7955 443.327L53.4403 446.761L42.7955 448.821L52.4101 451.911" stroke="white" stroke-width="0.858447" stroke-miterlimit="10"/>
<path d="M229.25 464.616L239.208 457.749L237.834 466.333L245.045 460.839" stroke="white" stroke-width="0.858447" stroke-miterlimit="10"/>
<path d="M30.0905 404.525C30.0905 404.525 33.5242 448.478 36.2713 460.839C39.0183 473.201 42.7955 478.008 42.7955 478.008" stroke="white" stroke-width="0.858447" stroke-miterlimit="10"/>
<path d="M198.346 474.918L267.709 477.665" stroke="white" stroke-width="0.858447" stroke-miterlimit="10"/>
<path d="M190.792 152.828C190.792 152.828 189.761 150.081 185.984 151.112C177.743 153.515 167.785 162.443 167.785 162.443C167.785 162.443 172.592 166.907 176.713 166.22C180.49 165.533 180.834 161.756 180.834 161.756C180.834 161.756 182.207 163.473 184.267 162.443C186.328 161.07 187.701 157.636 187.701 157.636C187.701 157.636 187.358 157.636 190.105 157.292C192.508 156.949 190.792 152.828 190.792 152.828Z" fill="#E897A3"/>
<path d="M154.05 344.434L154.394 344.09C154.394 344.09 154.05 344.434 154.05 344.434Z" fill="#E897A3"/>
<path d="M243.329 352.675C243.329 352.675 236.118 350.615 236.118 366.41C236.118 379.115 237.148 387.7 240.582 393.537C244.015 399.374 247.793 399.374 247.793 399.374C247.793 399.374 250.54 381.862 248.479 370.187C246.419 361.603 243.329 352.675 243.329 352.675Z" fill="#FFBFB2"/>
<path d="M199.376 458.092H233.714C233.714 458.092 238.178 451.225 244.702 415.17H196.286C198.003 426.501 198.689 437.146 199.033 445.044C199.376 452.942 199.376 458.092 199.376 458.092Z" fill="#9ECBE3"/>
<path d="M154.394 319.711C137.568 324.175 104.26 326.579 83.3141 321.428L81.5972 321.771L59.621 351.302C59.621 351.302 102.887 358.169 144.092 349.242C200.063 337.223 237.835 312.157 237.835 312.157L221.009 285.716C213.455 293.614 194.225 309.41 154.394 319.711Z" fill="white"/>
<mask id="mask1" mask-type="alpha" maskUnits="userSpaceOnUse" x="60" y="285" width="179" height="69">
<path d="M155.081 319.367C138.255 323.831 104.948 326.235 84.0016 321.084L82.2847 321.427L60.3085 350.958C60.3085 350.958 103.574 357.826 144.78 348.898C200.75 336.879 238.522 311.813 238.522 311.813L221.697 285.373C214.142 293.27 194.913 309.066 155.081 319.367Z" fill="white"/>
</mask>
<g mask="url(#mask1)">
<path d="M-22.1035 328.638L280.07 230.432" stroke="#45A0D4" stroke-width="0.858447" stroke-miterlimit="10"/>
<path d="M-20.7296 332.759L281.444 234.553" stroke="#45A0D4" stroke-width="0.858447" stroke-miterlimit="10"/>
<path d="M-19.3561 337.223L282.817 238.673" stroke="#45A0D4" stroke-width="0.858447" stroke-miterlimit="10"/>
<path d="M-17.9828 341.343L284.19 243.137" stroke="#45A0D4" stroke-width="0.858447" stroke-miterlimit="10"/>
<path d="M-16.6091 345.464L285.564 247.258" stroke="#45A0D4" stroke-width="0.858447" stroke-miterlimit="10"/>
<path d="M-15.2354 349.584L286.938 251.378" stroke="#45A0D4" stroke-width="0.858447" stroke-miterlimit="10"/>
<path d="M-13.8621 354.048L288.311 255.499" stroke="#45A0D4" stroke-width="0.858447" stroke-miterlimit="10"/>
<path d="M-12.4888 358.169L289.685 259.963" stroke="#45A0D4" stroke-width="0.858447" stroke-miterlimit="10"/>
<path d="M-11.115 362.29L291.058 264.083" stroke="#45A0D4" stroke-width="0.858447" stroke-miterlimit="10"/>
<path d="M-9.74158 366.41L292.432 268.204" stroke="#45A0D4" stroke-width="0.858447" stroke-miterlimit="10"/>
<path d="M-8.71143 370.874L293.462 272.324" stroke="#45A0D4" stroke-width="0.858447" stroke-miterlimit="10"/>
<path d="M-7.33801 374.995L294.835 276.788" stroke="#45A0D4" stroke-width="0.858447" stroke-miterlimit="10"/>
<path d="M-5.96448 379.115L296.209 280.909" stroke="#45A0D4" stroke-width="0.858447" stroke-miterlimit="10"/>
<path d="M-4.59106 383.236L297.582 285.029" stroke="#45A0D4" stroke-width="0.858447" stroke-miterlimit="10"/>
<path d="M-3.21741 387.699L298.956 289.15" stroke="#45A0D4" stroke-width="0.858447" stroke-miterlimit="10"/>
<path d="M-1.84375 391.82L300.33 293.614" stroke="#45A0D4" stroke-width="0.858447" stroke-miterlimit="10"/>
<path d="M-0.470459 395.941L301.703 297.734" stroke="#45A0D4" stroke-width="0.858447" stroke-miterlimit="10"/>
<path d="M0.903198 400.061L303.076 301.855" stroke="#45A0D4" stroke-width="0.858447" stroke-miterlimit="10"/>
<path d="M2.27673 404.525L304.45 305.975" stroke="#45A0D4" stroke-width="0.858447" stroke-miterlimit="10"/>
<path d="M3.65002 408.646L305.823 310.439" stroke="#45A0D4" stroke-width="0.858447" stroke-miterlimit="10"/>
</g>
<path d="M126.236 189.57C126.236 189.57 127.61 191.63 133.104 190.6" stroke="white" stroke-width="0.858447" stroke-miterlimit="10"/>
<path d="M118.682 227.685C118.682 227.685 121.429 232.149 126.58 229.059C130.357 226.998 128.983 223.565 128.983 223.565" stroke="white" stroke-width="0.858447" stroke-miterlimit="10"/>
<path d="M157.484 211.89C157.484 211.89 160.917 214.293 164.008 211.89C167.442 209.486 165.381 206.396 165.381 206.396" stroke="white" stroke-width="0.858447" stroke-miterlimit="10"/>
<path d="M70.2658 439.893C66.832 441.267 64.7717 441.953 64.7717 441.953" stroke="#660000" stroke-width="0.858447" stroke-miterlimit="10" stroke-linejoin="round"/>
<path d="M139.285 398.001C135.164 401.778 130.7 405.212 125.893 408.989C107.694 423.068 86.4045 433.026 74.3862 438.176" stroke="#660000" stroke-width="0.858447" stroke-miterlimit="10" stroke-linejoin="round"/>
<path d="M180.147 338.596C180.147 338.596 176.026 361.259 148.213 389.416" stroke="#660000" stroke-width="0.858447" stroke-miterlimit="10" stroke-linejoin="round"/>
<path d="M116.965 391.82C116.965 391.82 112.845 395.941 115.592 401.091C118.682 405.899 124.52 401.435 124.52 401.435" stroke="white" stroke-width="0.858447" stroke-miterlimit="10"/>
<path d="M242.985 376.025C242.985 376.025 242.985 381.519 247.106 381.175C251.226 380.832 250.883 376.025 250.883 376.025" stroke="white" stroke-width="0.858447" stroke-miterlimit="10"/>
<path d="M171.219 164.503C171.219 164.503 174.309 167.25 177.743 166.22C181.177 165.19 180.834 162.1 180.834 162.1C180.834 162.1 181.52 163.817 184.611 162.443C187.701 161.07 187.701 157.636 187.701 157.636C187.701 157.636 189.761 158.322 190.792 156.949C192.852 154.545 189.761 151.798 189.761 151.798" stroke="white" stroke-width="0.858447" stroke-miterlimit="10"/>
<path d="M82.2841 353.705C94.3023 354.392 111.471 354.392 131.731 351.301" stroke="#660000" stroke-width="0.858447" stroke-miterlimit="10" stroke-linejoin="round"/>
<path d="M65.1151 351.645C65.1151 351.645 69.2357 352.332 76.4466 353.018" stroke="#660000" stroke-width="0.858447" stroke-miterlimit="10" stroke-linejoin="round"/>
<path d="M221.352 285.716L237.835 311.813C237.835 311.813 219.635 326.922 162.291 344.09C157.484 345.464 153.02 346.837 148.213 347.868" stroke="#660000" stroke-width="0.858447" stroke-miterlimit="10" stroke-linejoin="round"/>
<path d="M462.748 137.72L486.097 135.316" stroke="#660000" stroke-width="0.858447" stroke-miterlimit="10" stroke-linejoin="round"/>
<path d="M261.871 73.508L268.739 90.3336" stroke="#660000" stroke-width="0.858447" stroke-miterlimit="10" stroke-linejoin="round"/>
<path d="M313.034 47.7546L293.462 62.8632" stroke="#660000" stroke-width="0.858447" stroke-miterlimit="10" stroke-linejoin="round"/>
<path d="M403.687 108.533L408.837 90.3336" stroke="#660000" stroke-width="0.858447" stroke-miterlimit="10" stroke-linejoin="round"/>
<path d="M470.645 155.232L481.633 142.184" stroke="#660000" stroke-width="0.858447" stroke-miterlimit="10" stroke-linejoin="round"/>
<path d="M488.501 163.13L513.568 158.323" stroke="#660000" stroke-width="0.858447" stroke-miterlimit="10" stroke-linejoin="round"/>
<path d="M240.925 82.0924L228.563 62.8632" stroke="#660000" stroke-width="0.858447" stroke-miterlimit="10" stroke-linejoin="round"/>
<path d="M430.47 94.1107C433.883 94.1107 436.651 91.3435 436.651 87.9299C436.651 84.5163 433.883 81.7491 430.47 81.7491C427.056 81.7491 424.289 84.5163 424.289 87.9299C424.289 91.3435 427.056 94.1107 430.47 94.1107Z" fill="#D63C30"/>
<path d="M270.456 108.876C271.973 108.876 273.203 107.646 273.203 106.129C273.203 104.612 271.973 103.382 270.456 103.382C268.938 103.382 267.708 104.612 267.708 106.129C267.708 107.646 268.938 108.876 270.456 108.876Z" fill="#D63C30"/>
<path d="M282.13 37.4532C283.837 37.4532 285.221 36.0696 285.221 34.3628C285.221 32.656 283.837 31.2724 282.13 31.2724C280.424 31.2724 279.04 32.656 279.04 34.3628C279.04 36.0696 280.424 37.4532 282.13 37.4532Z" fill="#45A0D4"/>
<path d="M484.38 111.28C485.897 111.28 487.127 110.05 487.127 108.533C487.127 107.015 485.897 105.786 484.38 105.786C482.863 105.786 481.633 107.015 481.633 108.533C481.633 110.05 482.863 111.28 484.38 111.28Z" fill="#45A0D4"/>
<path d="M497.429 180.642C499.515 180.642 501.206 178.951 501.206 176.865C501.206 174.779 499.515 173.088 497.429 173.088C495.342 173.088 493.651 174.779 493.651 176.865C493.651 178.951 495.342 180.642 497.429 180.642Z" stroke="#660000" stroke-width="0.858447" stroke-miterlimit="10" stroke-linejoin="round"/>
<path d="M202.81 125.015L225.816 119.521" stroke="#660000" stroke-width="0.858447" stroke-miterlimit="10" stroke-linejoin="round"/>
<path d="M456.567 155.575C458.463 155.575 460.001 154.038 460.001 152.142C460.001 150.245 458.463 148.708 456.567 148.708C454.67 148.708 453.133 150.245 453.133 152.142C453.133 154.038 454.67 155.575 456.567 155.575Z" fill="#45A0D4"/>
<path d="M246.762 103.382C247.711 103.382 248.479 102.613 248.479 101.665C248.479 100.717 247.711 99.9481 246.762 99.9481C245.814 99.9481 245.045 100.717 245.045 101.665C245.045 102.613 245.814 103.382 246.762 103.382Z" fill="#45A0D4"/>
<path d="M206.931 99.6047C207.879 99.6047 208.647 98.8361 208.647 97.8879C208.647 96.9396 207.879 96.171 206.931 96.171C205.982 96.171 205.214 96.9396 205.214 97.8879C205.214 98.8361 205.982 99.6047 206.931 99.6047Z" fill="#45A0D4"/>
<path d="M244.702 55.3089C246.599 55.3089 248.136 53.7715 248.136 51.8751C248.136 49.9786 246.599 48.4413 244.702 48.4413C242.806 48.4413 241.268 49.9786 241.268 51.8751C241.268 53.7715 242.806 55.3089 244.702 55.3089Z" fill="#D63C30"/>
<path d="M464.808 399.374C464.808 399.374 434.934 369.501 429.44 359.886C419.825 343.404 419.825 314.217 419.825 314.217" stroke="#660000" stroke-width="0.858447" stroke-miterlimit="10" stroke-linejoin="round"/>
<path d="M497.429 191.287L484.38 209.486L501.206 215.667L497.429 191.287Z" fill="#D63C30"/>
<path d="M458.284 241.42C458.284 241.42 471.332 237.643 478.886 230.432C491.248 218.757 493.995 207.082 493.995 207.082" stroke="#660000" stroke-width="0.858447" stroke-miterlimit="10" stroke-linejoin="round"/>
<path d="M188.045 111.28L195.256 87.9299" stroke="#660000" stroke-width="0.858447" stroke-miterlimit="10" stroke-linejoin="round"/>
<path d="M195.255 115.057L215.515 99.6047" stroke="#660000" stroke-width="0.858447" stroke-miterlimit="10" stroke-linejoin="round"/>
</svg>
