<svg width="402" height="415" viewBox="0 0 402 415" fill="none" xmlns="http://www.w3.org/2000/svg">
<path d="M166.254 53.7454C154.196 61.1653 159.53 71.5994 142.139 76.4687C124.749 81.338 110.373 78.3237 105.272 92.6997C97.1563 115.191 113.155 107.771 111.764 127.017C108.982 166.898 203.353 111.945 223.294 131.19C250.423 157.623 285.435 129.335 284.972 115.655C283.348 80.4105 250.655 90.8447 235.583 68.3532C220.512 45.8618 191.064 38.4419 166.254 53.7454Z" fill="#F8F9FF"/>
<path d="M110.373 90.381H140.98C140.98 90.381 133.56 88.0623 129.85 87.1348C126.14 86.2073 125.676 83.4249 121.503 83.6567C117.329 83.8886 116.17 87.5985 114.778 87.1348" fill="white"/>
<path d="M209.845 73.4544H234.192C234.192 73.4544 232.801 69.7444 229.322 69.7444C225.844 69.7444 225.613 64.4114 221.903 66.7301C218.193 69.0488 218.193 70.6719 215.874 71.1357C213.787 72.0631 209.845 73.4544 209.845 73.4544Z" fill="white"/>
<path d="M256.22 97.5689H275.929C275.929 97.5689 272.451 93.859 270.132 93.859C267.813 93.859 267.118 96.4096 264.335 95.714C261.553 95.0184 259.234 93.859 256.22 95.714C253.205 97.5689 248.568 97.5689 248.568 97.5689H256.22Z" fill="white"/>
<path d="M267.118 162.956L288.913 115.655L231.178 92.4678L215.874 139.074L267.118 162.956Z" fill="#98A2F4"/>
<path d="M187.354 180.811L147.936 111.481L82.0846 148.117L122.894 208.403L145.617 203.766L187.354 180.811Z" fill="#98A2F4"/>
<mask id="mask0" mask-type="alpha" maskUnits="userSpaceOnUse" x="82" y="111" width="106" height="98">
<path d="M187.354 180.811L147.936 111.481L82.0846 148.117L122.894 208.403L145.617 203.766L187.354 180.811Z" fill="#98A2F4"/>
</mask>
<g mask="url(#mask0)">
<path d="M0.697998 143.016L16.2333 146.03L21.1026 131.19L36.4061 134.205L41.2754 119.133L56.8107 122.379L61.68 107.308L76.9835 110.554L81.8528 95.4821L97.3881 98.7283L102.257 83.6567L117.561 86.9029L122.43 71.8313L137.965 75.0775L142.835 60.0059L158.37 63.0202L163.239 48.1805L178.543 51.1948L183.412 36.3551L198.948 39.3694L203.817 24.5297L219.12 27.544L223.99 12.7043L239.525 15.7186L244.394 0.646973" stroke="white" stroke-width="0.579677" stroke-miterlimit="10"/>
<path d="M6.26306 152.522L21.7984 155.537L26.6677 140.697L41.9712 143.711L46.8404 128.871L62.3758 131.886L67.2451 117.046L82.5485 120.06L87.4178 105.221L102.953 108.235L107.822 93.3952L123.358 96.4095L128.227 81.3379L143.531 84.5841L148.4 69.5125L163.935 72.7587L168.804 57.6871L184.108 60.9333L188.977 45.8617L204.513 49.1079L209.382 34.0363L224.685 37.2825L229.555 22.2109L245.09 25.2252L249.959 10.3855" stroke="white" stroke-width="0.579677" stroke-miterlimit="10"/>
<path d="M12.0598 162.029L27.3633 165.275L32.2326 150.204L47.7679 153.45L52.6372 138.378L67.9407 141.624L72.81 126.553L88.3453 129.799L93.2146 114.727L108.518 117.742L113.387 102.902L128.923 105.916L133.792 91.0765L149.095 94.0909L153.965 79.2511L169.5 82.2654L174.369 67.4257L189.673 70.44L194.542 55.3684L210.077 58.6146L214.947 43.543L230.482 46.7892L235.351 31.7176L250.655 34.9638L255.524 19.8922" stroke="white" stroke-width="0.579677" stroke-miterlimit="10"/>
<path d="M17.6248 171.768L32.9282 174.782L37.7975 159.942L53.3329 162.956L58.2021 148.117L73.5056 151.131L78.3749 136.059L93.9102 139.306L98.7795 124.234L114.083 127.48L118.952 112.409L134.488 115.655L139.357 100.583L154.66 103.829L159.53 88.7578L175.065 92.004L179.934 76.9324L195.47 79.9468L200.339 65.107L215.642 68.1213L220.512 53.2816L236.047 56.2959L240.916 41.4562L256.22 44.4705L261.089 29.3989" stroke="white" stroke-width="0.579677" stroke-miterlimit="10"/>
<path d="M23.1895 181.274L38.4929 184.521L43.3622 169.449L58.8975 172.463L63.7668 157.624L79.0703 160.638L83.9396 145.798L99.4749 148.812L104.344 133.973L119.648 136.987L124.517 122.147L140.052 125.162L144.922 110.322L160.457 113.336L165.326 98.2646L180.63 101.511L185.499 86.4392L201.034 89.6854L205.904 74.6138L221.207 77.86L226.076 62.7884L241.612 66.0346L246.481 50.963L261.784 53.9773L266.654 39.1376" fill="#98A2F4"/>
<path d="M28.7544 190.781L44.0579 194.027L48.9271 178.956L64.4625 182.202L69.3318 167.13L84.8671 170.376L89.5045 155.305L105.04 158.551L109.909 143.479L125.444 146.725L130.314 131.654L145.617 134.668L150.487 119.828L166.022 122.843L170.891 108.003L186.195 111.017L191.064 96.1777L206.599 99.192L211.469 84.3523L226.772 87.3666L231.641 72.295L247.177 75.5412L252.046 60.4696L267.581 63.7158L272.451 48.6442" stroke="white" stroke-width="0.579677" stroke-miterlimit="10"/>
<path d="M34.3193 200.52L49.8547 203.534L54.724 188.694L70.0274 191.709L74.8967 176.869L90.4321 179.883L95.3013 165.043L110.605 168.058L115.474 152.986L131.009 156.232L135.879 141.161L151.182 144.407L156.051 129.335L171.587 132.581L176.456 117.51L191.76 120.756L196.629 105.684L212.164 108.931L217.034 93.859L232.569 96.8734L237.438 82.0336L252.742 85.048L257.611 70.2082L273.146 73.2225L278.016 58.3828" stroke="white" stroke-width="0.579677" stroke-miterlimit="10"/>
<path d="M39.8843 210.026L55.4196 213.272L60.2889 198.201L75.5924 201.447L80.4617 186.375L95.997 189.39L100.866 174.55L116.17 177.564L121.039 162.725L136.574 165.739L141.444 150.899L156.747 153.914L161.616 139.074L177.152 142.088L182.021 127.017L197.556 130.263L202.426 115.191L217.729 118.437L222.598 103.366L238.134 106.612L243.003 91.5403L258.307 94.7865L263.176 79.7149L278.711 82.9611L283.58 67.8895" stroke="white" stroke-width="0.579677" stroke-miterlimit="10"/>
<path d="M45.4493 219.533L60.9847 222.779L65.854 207.708L81.1574 210.954L86.0267 195.882L101.562 199.128L106.431 184.057L121.735 187.303L126.604 172.231L142.139 175.478L147.009 160.406L162.544 163.652L167.413 148.581L182.717 151.595L187.586 136.755L203.121 139.769L207.991 124.93L223.294 127.944L228.164 113.104L243.699 116.119L248.568 101.279L263.872 104.293L268.741 89.2217L284.276 92.4678L289.146 77.3962" stroke="white" stroke-width="0.579677" stroke-miterlimit="10"/>
<path d="M51.0139 229.272L66.5493 232.286L71.4185 217.446L86.9539 220.46L91.8232 205.621L107.127 208.635L111.996 193.795L127.531 196.81L132.401 181.738L147.704 184.984L152.573 169.913L168.109 173.159L172.978 158.087L188.281 161.333L193.151 146.262L208.686 149.508L213.555 134.436L228.859 137.683L233.728 122.611L249.263 125.625L254.133 110.786L269.436 113.8L274.305 98.9602L289.841 101.974L294.71 87.1348" stroke="white" stroke-width="0.579677" stroke-miterlimit="10"/>
<path d="M56.8108 238.778L72.1143 242.024L76.9835 226.953L92.5189 230.199L97.3882 215.127L112.692 218.374L117.561 203.302L133.096 206.316L137.966 191.477L153.269 194.491L158.138 179.651L173.674 182.666L178.543 167.826L193.846 170.84L198.716 156L214.251 159.015L219.12 143.943L234.424 147.189L239.293 132.118L254.828 135.364L259.698 120.292L275.233 123.538L280.102 108.467L295.406 111.713L300.275 96.6415" stroke="white" stroke-width="0.579677" stroke-miterlimit="10"/>
<path d="M62.3757 248.517L77.6792 251.531L82.5485 236.46L98.0838 239.706L102.953 224.634L118.257 227.88L123.126 212.809L138.661 216.055L143.53 200.983L158.834 204.23L163.703 189.158L179.239 192.404L184.108 177.333L199.643 180.347L204.513 165.507L219.816 168.521L224.685 153.682L240.221 156.696L245.09 141.856L260.393 144.871L265.263 130.031L280.798 133.045L285.667 117.974L300.971 121.22L305.84 106.148" stroke="white" stroke-width="0.579677" stroke-miterlimit="10"/>
<path d="M67.9407 258.023L83.2441 261.038L88.1134 246.198L103.649 249.212L108.518 234.373L123.822 237.387L128.691 222.547L144.226 225.562L149.095 210.722L164.631 213.736L169.5 198.665L184.804 201.911L189.673 186.839L205.208 190.085L210.077 175.014L225.381 178.26L230.25 163.188L245.786 166.435L250.655 151.363L265.958 154.609L270.828 139.538L286.363 142.552L291.232 127.712L306.768 130.726L311.637 115.887" stroke="white" stroke-width="0.579677" stroke-miterlimit="10"/>
<path d="M73.5056 267.53L89.041 270.776L93.9102 255.705L109.214 258.951L114.083 243.879L129.618 247.126L134.488 232.054L149.791 235.3L154.66 220.229L170.196 223.243L175.065 208.403L190.368 211.417L195.238 196.578L210.773 199.592L215.642 184.752L230.946 187.767L235.815 172.927L251.35 175.941L256.22 160.87L271.523 164.116L276.393 149.044L291.928 152.29L296.797 137.219L312.332 140.465L317.202 125.393" stroke="white" stroke-width="0.579677" stroke-miterlimit="10"/>
<path d="M79.0706 277.269L94.6059 280.283L99.4752 265.443L114.779 268.458L119.648 253.386L135.183 256.632L140.053 241.561L155.356 244.807L160.225 229.735L175.761 232.981L180.63 217.91L195.933 221.156L200.803 206.084L216.338 209.331L221.207 194.259L236.743 197.273L241.38 182.434L256.915 185.448L261.785 170.608L277.32 173.623L282.189 158.783L297.493 161.797L302.362 146.957L317.897 149.972L322.767 134.9" stroke="white" stroke-width="0.579677" stroke-miterlimit="10"/>
<path d="M84.6353 286.775L100.171 289.79L105.04 274.95L120.343 277.964L125.213 263.125L140.748 266.139L145.617 251.299L160.921 254.314L165.79 239.474L181.325 242.488L186.195 227.648L201.73 230.663L206.599 215.591L221.903 218.837L226.772 203.766L242.307 207.012L247.177 191.94L262.48 195.187L267.349 180.115L282.885 183.361L287.754 168.29L303.058 171.536L307.927 156.464L323.462 159.478L328.331 144.639" stroke="white" stroke-width="0.579677" stroke-miterlimit="10"/>
<path d="M90.2002 296.282L105.736 299.528L110.605 284.457L125.908 287.703L130.778 272.631L146.313 275.878L151.182 260.806L166.718 264.052L171.587 248.981L186.89 251.995L191.76 237.155L207.295 240.169L212.164 225.33L227.468 228.344L232.337 213.504L247.872 216.519L252.742 201.679L268.045 204.693L272.914 189.853L288.45 192.868L293.319 177.796L308.622 181.042L313.492 165.971L329.027 169.217L333.896 154.145" stroke="white" stroke-width="0.579677" stroke-miterlimit="10"/>
<path d="M95.9969 306.021L111.3 309.035L116.17 294.195L131.705 297.21L136.574 282.37L151.878 285.384L156.747 270.313L172.282 273.559L177.152 258.487L192.455 261.733L197.324 246.662L212.86 249.908L217.729 234.836L233.033 238.083L237.902 223.011L253.437 226.257L258.306 211.186L273.61 214.2L278.479 199.36L294.015 202.375L298.884 187.535L314.419 190.549L319.288 175.709L334.592 178.724L339.461 163.652" stroke="white" stroke-width="0.579677" stroke-miterlimit="10"/>
<path d="M101.562 315.527L116.865 318.774L121.735 303.702L137.27 306.716L142.139 291.877L157.443 294.891L162.312 280.051L177.847 283.065L182.717 268.226L198.02 271.24L202.889 256.4L218.425 259.415L223.294 244.575L238.597 247.589L243.467 232.518L259.002 235.764L263.871 220.692L279.407 223.938L284.276 208.867L299.579 212.113L304.449 197.041L319.984 200.288L324.853 185.216L340.157 188.23L345.026 173.391" stroke="white" stroke-width="0.579677" stroke-miterlimit="10"/>
<path d="M107.127 325.034L122.43 328.28L127.3 313.209L142.835 316.455L147.704 301.383L163.008 304.63L167.877 289.558L183.412 292.804L188.282 277.733L203.817 280.979L208.686 265.907L223.99 268.922L228.859 254.082L244.394 257.096L249.264 242.256L264.567 245.271L269.436 230.431L284.972 233.445L289.841 218.606L305.144 221.62L310.014 206.548L325.549 209.794L330.418 194.723L345.722 197.969L350.823 182.897" stroke="white" stroke-width="0.579677" stroke-miterlimit="10"/>
<path d="M112.692 334.773L128.227 337.787L133.096 322.947L148.4 325.962L153.269 311.122L168.804 314.136L173.674 299.297L188.977 302.311L193.847 287.239L209.382 290.485L214.251 275.414L229.555 278.66L234.424 263.588L249.959 266.835L254.829 251.763L270.132 255.009L275.001 239.938L290.537 243.184L295.406 228.112L310.709 231.127L315.579 216.287L331.114 219.301L335.983 204.461L351.519 207.476L356.388 192.636" stroke="white" stroke-width="0.579677" stroke-miterlimit="10"/>
<path d="M118.256 344.279L133.792 347.526L138.661 332.454L153.965 335.7L158.834 320.629L174.369 323.643L179.238 308.803L194.542 311.817L199.411 296.978L214.947 299.992L219.816 285.152L235.119 288.167L239.989 273.327L255.524 276.341L260.393 261.27L275.697 264.516L280.566 249.444L296.101 252.69L300.971 237.619L316.506 240.865L321.375 225.793L336.679 229.04L341.548 213.968L357.083 217.214L361.953 202.143" stroke="white" stroke-width="0.579677" stroke-miterlimit="10"/>
</g>
<path d="M121.503 97.5689L153.501 197.041L224.917 180.811L221.671 83.4248L121.503 97.5689Z" fill="#F39684"/>
<mask id="mask1" mask-type="alpha" maskUnits="userSpaceOnUse" x="121" y="83" width="104" height="115">
<path d="M121.503 97.5689L153.501 197.041L224.917 180.811L221.671 83.4248L121.503 97.5689Z" fill="#F39684"/>
</mask>
<g mask="url(#mask1)">
<path d="M221.207 90.8446L223.758 92.6996L226.54 93.3952L226.772 96.4095L227.932 99.1919L225.613 101.279L224.222 104.061L221.207 103.366L218.193 104.061L216.802 101.279L214.483 99.1919L215.642 96.4095L215.874 93.3952L218.657 92.6996L221.207 90.8446Z" stroke="white" stroke-width="0.579677" stroke-miterlimit="10"/>
<path d="M221.207 115.655L223.758 117.278L226.54 118.205L226.772 121.22L227.932 124.002L225.613 126.089L224.222 128.64L221.207 128.176L218.193 128.64L216.802 126.089L214.483 124.002L215.642 121.22L215.874 118.205L218.657 117.278L221.207 115.655Z" stroke="white" stroke-width="0.579677" stroke-miterlimit="10"/>
<path d="M221.207 140.233L223.758 142.088L226.54 143.015L226.772 146.03L227.932 148.812L225.613 150.899L224.222 153.45L221.207 152.986L218.193 153.45L216.802 150.899L214.483 148.812L215.642 146.03L215.874 143.015L218.657 142.088L221.207 140.233Z" stroke="white" stroke-width="0.579677" stroke-miterlimit="10"/>
<path d="M221.207 165.043L223.758 166.898L226.54 167.826L226.772 170.84L227.932 173.622L225.613 175.477L224.222 178.26L221.207 177.796L218.193 178.26L216.802 175.477L214.483 173.622L215.642 170.84L215.874 167.826L218.657 166.898L221.207 165.043Z" stroke="white" stroke-width="0.579677" stroke-miterlimit="10"/>
<path d="M221.207 189.853L223.758 191.708L226.54 192.404L226.772 195.418L227.932 198.433L225.613 200.288L224.222 203.07L221.207 202.374L218.193 203.07L216.802 200.288L214.483 198.433L215.642 195.418L215.874 192.404L218.657 191.708L221.207 189.853Z" stroke="white" stroke-width="0.579677" stroke-miterlimit="10"/>
<path d="M194.078 83.193L196.629 85.048L199.643 85.7436V88.7579L200.803 91.7722L198.716 93.6272L197.093 96.4096L194.078 95.714L191.064 96.4096L189.673 93.6272L187.354 91.7722L188.513 88.7579L188.745 85.7436L191.76 85.048L194.078 83.193Z" stroke="white" stroke-width="0.579677" stroke-miterlimit="10"/>
<path d="M194.078 108.003L196.629 109.858L199.643 110.554V113.568L200.803 116.351L198.716 118.437L197.093 121.22L194.078 120.524L191.064 121.22L189.673 118.437L187.354 116.351L188.513 113.568L188.745 110.554L191.76 109.858L194.078 108.003Z" stroke="white" stroke-width="0.579677" stroke-miterlimit="10"/>
<path d="M194.078 132.813L196.629 134.436L199.643 135.364V138.378L200.803 141.161L198.716 143.248L197.093 145.798L194.078 145.334L191.064 145.798L189.673 143.248L187.354 141.161L188.513 138.378L188.745 135.364L191.76 134.436L194.078 132.813Z" stroke="white" stroke-width="0.579677" stroke-miterlimit="10"/>
<path d="M194.078 157.392L196.629 159.247L199.643 160.174V163.188L200.803 165.971L198.716 168.058L197.093 170.608L194.078 170.144L191.064 170.608L189.673 168.058L187.354 165.971L188.513 163.188L188.745 160.174L191.76 159.247L194.078 157.392Z" stroke="white" stroke-width="0.579677" stroke-miterlimit="10"/>
<path d="M194.078 182.202L196.629 184.057L199.643 184.984V187.999L200.803 190.781L198.716 192.636L197.093 195.418L194.078 194.955L191.064 195.418L189.673 192.636L187.354 190.781L188.513 187.999L188.745 184.984L191.76 184.057L194.078 182.202Z" stroke="white" stroke-width="0.579677" stroke-miterlimit="10"/>
<path d="M167.181 75.5411L169.5 77.3961L172.514 78.0917V81.3379L173.906 84.1204L171.587 85.9753L170.196 88.7578L167.181 88.294L164.167 88.7578L162.544 85.9753L160.225 84.1204L161.616 81.3379V78.0917L164.631 77.3961L167.181 75.5411Z" stroke="white" stroke-width="0.579677" stroke-miterlimit="10"/>
<path d="M167.181 100.351L169.5 102.206L172.514 102.902V105.916L173.906 108.931L171.587 110.786L170.196 113.568L167.181 112.872L164.167 113.568L162.544 110.786L160.225 108.931L161.616 105.916V102.902L164.631 102.206L167.181 100.351Z" stroke="white" stroke-width="0.579677" stroke-miterlimit="10"/>
<path d="M167.181 125.161L169.5 127.016L172.514 127.712V130.726L173.906 133.509L171.587 135.596L170.196 138.378L167.181 137.683L164.167 138.378L162.544 135.596L160.225 133.509L161.616 130.726V127.712L164.631 127.016L167.181 125.161Z" stroke="white" stroke-width="0.579677" stroke-miterlimit="10"/>
<path d="M167.181 149.972L169.5 151.595L172.514 152.522V155.537L173.906 158.319L171.587 160.406L170.196 162.956L167.181 162.493L164.167 162.956L162.544 160.406L160.225 158.319L161.616 155.537V152.522L164.631 151.595L167.181 149.972Z" stroke="white" stroke-width="0.579677" stroke-miterlimit="10"/>
<path d="M167.181 174.55L169.5 176.405L172.514 177.332V180.347L173.906 183.129L171.587 185.216L170.196 187.767L167.181 187.303L164.167 187.767L162.544 185.216L160.225 183.129L161.616 180.347V177.332L164.631 176.405L167.181 174.55Z" stroke="white" stroke-width="0.579677" stroke-miterlimit="10"/>
<path d="M140.052 92.6996L142.371 94.5545L145.386 95.2502L145.617 98.4964L146.777 101.279L144.458 103.134L143.067 105.916L140.052 105.452L137.038 105.916L135.647 103.134L133.328 101.279L134.488 98.4964V95.2502L137.502 94.5545L140.052 92.6996Z" stroke="white" stroke-width="0.579677" stroke-miterlimit="10"/>
<path d="M140.052 117.51L142.371 119.365L145.386 120.06L145.617 123.075L146.777 126.089L144.458 127.944L143.067 130.726L140.052 130.031L137.038 130.726L135.647 127.944L133.328 126.089L134.488 123.075V120.06L137.502 119.365L140.052 117.51Z" stroke="white" stroke-width="0.579677" stroke-miterlimit="10"/>
<path d="M140.052 142.32L142.371 144.175L145.386 144.871L145.617 147.885L146.777 150.667L144.458 152.754L143.067 155.537L140.052 154.841L137.038 155.537L135.647 152.754L133.328 150.667L134.488 147.885V144.871L137.502 144.175L140.052 142.32Z" stroke="white" stroke-width="0.579677" stroke-miterlimit="10"/>
<path d="M140.052 167.13L142.371 168.753L145.386 169.681L145.617 172.695L146.777 175.477L144.458 177.564L143.067 180.115L140.052 179.651L137.038 180.115L135.647 177.564L133.328 175.477L134.488 172.695V169.681L137.502 168.753L140.052 167.13Z" stroke="white" stroke-width="0.579677" stroke-miterlimit="10"/>
<path d="M140.052 191.708L142.371 193.563L145.386 194.491L145.617 197.505L146.777 200.288L144.458 202.375L143.067 204.925L140.052 204.461L137.038 204.925L135.647 202.375L133.328 200.288L134.488 197.505V194.491L137.502 193.563L140.052 191.708Z" stroke="white" stroke-width="0.579677" stroke-miterlimit="10"/>
</g>
<path d="M206.831 248.053C226.168 248.053 241.844 244.316 241.844 239.706C241.844 235.096 226.168 231.358 206.831 231.358C187.494 231.358 171.819 235.096 171.819 239.706C171.819 244.316 187.494 248.053 206.831 248.053Z" fill="#98A2F4"/>
<path d="M290.536 138.146C271.987 137.451 267.581 152.059 267.581 152.059C267.581 152.059 265.958 158.087 258.77 171.072C252.973 181.506 247.408 202.606 245.322 210.954L276.856 220.229L287.29 223.475C287.29 223.475 291.232 224.17 309.086 195.418C326.476 166.435 316.042 139.306 290.536 138.146Z" fill="#E2603D"/>
<path d="M224.917 195.186C227.468 191.477 228.395 188.462 229.091 185.216C230.714 176.869 171.819 192.636 171.819 192.636C171.819 192.636 172.282 195.186 174.601 200.056L167.181 203.766C166.486 198.665 166.254 195.186 166.254 195.186C166.254 195.186 114.083 186.144 109.214 223.475C106.895 242.256 116.17 252.69 118.952 258.719C122.662 266.835 133.792 278.892 133.792 278.892L142.139 274.95L170.196 261.733L172.05 260.806C172.05 260.806 168.109 251.067 169.732 248.053C172.282 243.647 183.412 242.952 189.673 242.256C198.02 242.256 207.295 241.329 213.323 240.169C224.221 238.083 238.597 238.778 242.539 234.605C244.626 232.518 244.626 216.75 244.162 200.983L224.917 195.186Z" fill="#E2603D"/>
<mask id="mask2" mask-type="alpha" maskUnits="userSpaceOnUse" x="107" y="183" width="136" height="97">
<path d="M223.43 196.233C225.981 192.523 226.908 189.509 227.604 186.263C229.227 177.915 170.332 193.683 170.332 193.683C170.332 193.683 170.796 196.233 173.114 201.102L165.695 204.812C164.999 199.711 164.767 196.233 164.767 196.233C164.767 196.233 112.596 187.19 107.727 224.521C105.408 243.303 114.683 253.737 117.466 259.766C121.175 267.881 132.305 279.938 132.305 279.938L140.653 275.997L168.709 262.78L170.564 261.853C170.564 261.853 166.622 252.114 168.245 249.1C170.796 244.694 181.926 243.998 188.186 243.303C196.533 243.303 205.808 242.375 211.837 241.216C222.735 239.129 237.111 239.825 241.053 235.651C243.139 233.564 243.139 217.797 242.676 202.03L223.43 196.233Z" fill="#E2603D"/>
</mask>
<g mask="url(#mask2)">
<path d="M105.04 192.636C106.577 192.636 107.822 191.39 107.822 189.853C107.822 188.317 106.577 187.071 105.04 187.071C103.503 187.071 102.257 188.317 102.257 189.853C102.257 191.39 103.503 192.636 105.04 192.636Z" stroke="white" stroke-width="0.579677" stroke-miterlimit="10"/>
<path d="M107.359 198.433H102.489V205.853H107.359V198.433Z" stroke="white" stroke-width="0.579677" stroke-miterlimit="10"/>
<path d="M105.04 216.75C106.577 216.75 107.822 215.505 107.822 213.968C107.822 212.431 106.577 211.186 105.04 211.186C103.503 211.186 102.257 212.431 102.257 213.968C102.257 215.505 103.503 216.75 105.04 216.75Z" stroke="white" stroke-width="0.579677" stroke-miterlimit="10"/>
<path d="M107.359 222.779H102.489V230.199H107.359V222.779Z" stroke="white" stroke-width="0.579677" stroke-miterlimit="10"/>
<path d="M105.04 241.097C106.577 241.097 107.822 239.851 107.822 238.314C107.822 236.778 106.577 235.532 105.04 235.532C103.503 235.532 102.257 236.778 102.257 238.314C102.257 239.851 103.503 241.097 105.04 241.097Z" stroke="white" stroke-width="0.579677" stroke-miterlimit="10"/>
<path d="M107.359 246.894H102.489V254.313H107.359V246.894Z" stroke="white" stroke-width="0.579677" stroke-miterlimit="10"/>
<path d="M105.04 265.211C106.577 265.211 107.822 263.966 107.822 262.429C107.822 260.892 106.577 259.646 105.04 259.646C103.503 259.646 102.257 260.892 102.257 262.429C102.257 263.966 103.503 265.211 105.04 265.211Z" stroke="white" stroke-width="0.579677" stroke-miterlimit="10"/>
<path d="M107.359 271.24H102.489V278.66H107.359V271.24Z" stroke="white" stroke-width="0.579677" stroke-miterlimit="10"/>
<path d="M118.256 186.375H113.387V193.795H118.256V186.375Z" stroke="white" stroke-width="0.579677" stroke-miterlimit="10"/>
<path d="M115.706 204.693C117.243 204.693 118.488 203.447 118.488 201.911C118.488 200.374 117.243 199.128 115.706 199.128C114.169 199.128 112.923 200.374 112.923 201.911C112.923 203.447 114.169 204.693 115.706 204.693Z" stroke="white" stroke-width="0.579677" stroke-miterlimit="10"/>
<path d="M118.256 210.722H113.387V218.142H118.256V210.722Z" stroke="white" stroke-width="0.579677" stroke-miterlimit="10"/>
<path d="M115.706 229.04C117.243 229.04 118.488 227.794 118.488 226.257C118.488 224.72 117.243 223.475 115.706 223.475C114.169 223.475 112.923 224.72 112.923 226.257C112.923 227.794 114.169 229.04 115.706 229.04Z" stroke="white" stroke-width="0.579677" stroke-miterlimit="10"/>
<path d="M118.256 234.836H113.387V242.256H118.256V234.836Z" stroke="white" stroke-width="0.579677" stroke-miterlimit="10"/>
<path d="M115.706 253.154C117.243 253.154 118.488 251.909 118.488 250.372C118.488 248.835 117.243 247.589 115.706 247.589C114.169 247.589 112.923 248.835 112.923 250.372C112.923 251.909 114.169 253.154 115.706 253.154Z" stroke="white" stroke-width="0.579677" stroke-miterlimit="10"/>
<path d="M118.256 258.951H113.387V266.371H118.256V258.951Z" stroke="white" stroke-width="0.579677" stroke-miterlimit="10"/>
<path d="M115.706 277.269C117.243 277.269 118.488 276.023 118.488 274.486C118.488 272.95 117.243 271.704 115.706 271.704C114.169 271.704 112.923 272.95 112.923 274.486C112.923 276.023 114.169 277.269 115.706 277.269Z" stroke="white" stroke-width="0.579677" stroke-miterlimit="10"/>
<path d="M126.836 192.636C128.373 192.636 129.618 191.39 129.618 189.853C129.618 188.317 128.373 187.071 126.836 187.071C125.299 187.071 124.054 188.317 124.054 189.853C124.054 191.39 125.299 192.636 126.836 192.636Z" stroke="white" stroke-width="0.579677" stroke-miterlimit="10"/>
<path d="M129.387 198.433H124.517V205.853H129.387V198.433Z" stroke="white" stroke-width="0.579677" stroke-miterlimit="10"/>
<path d="M126.836 216.75C128.373 216.75 129.618 215.505 129.618 213.968C129.618 212.431 128.373 211.186 126.836 211.186C125.299 211.186 124.054 212.431 124.054 213.968C124.054 215.505 125.299 216.75 126.836 216.75Z" stroke="white" stroke-width="0.579677" stroke-miterlimit="10"/>
<path d="M129.387 222.779H124.517V230.199H129.387V222.779Z" stroke="white" stroke-width="0.579677" stroke-miterlimit="10"/>
<path d="M126.836 241.097C128.373 241.097 129.618 239.851 129.618 238.314C129.618 236.778 128.373 235.532 126.836 235.532C125.299 235.532 124.054 236.778 124.054 238.314C124.054 239.851 125.299 241.097 126.836 241.097Z" stroke="white" stroke-width="0.579677" stroke-miterlimit="10"/>
<path d="M129.387 246.894H124.517V254.313H129.387V246.894Z" stroke="white" stroke-width="0.579677" stroke-miterlimit="10"/>
<path d="M126.836 265.211C128.373 265.211 129.618 263.966 129.618 262.429C129.618 260.892 128.373 259.646 126.836 259.646C125.299 259.646 124.054 260.892 124.054 262.429C124.054 263.966 125.299 265.211 126.836 265.211Z" stroke="white" stroke-width="0.579677" stroke-miterlimit="10"/>
<path d="M129.387 271.24H124.517V278.66H129.387V271.24Z" stroke="white" stroke-width="0.579677" stroke-miterlimit="10"/>
<path d="M140.052 186.375H135.183V193.795H140.052V186.375Z" stroke="white" stroke-width="0.579677" stroke-miterlimit="10"/>
<path d="M137.502 204.693C139.039 204.693 140.284 203.447 140.284 201.911C140.284 200.374 139.039 199.128 137.502 199.128C135.965 199.128 134.719 200.374 134.719 201.911C134.719 203.447 135.965 204.693 137.502 204.693Z" stroke="white" stroke-width="0.579677" stroke-miterlimit="10"/>
<path d="M140.052 210.722H135.183V218.142H140.052V210.722Z" stroke="white" stroke-width="0.579677" stroke-miterlimit="10"/>
<path d="M137.502 229.04C139.039 229.04 140.284 227.794 140.284 226.257C140.284 224.72 139.039 223.475 137.502 223.475C135.965 223.475 134.719 224.72 134.719 226.257C134.719 227.794 135.965 229.04 137.502 229.04Z" stroke="white" stroke-width="0.579677" stroke-miterlimit="10"/>
<path d="M140.052 234.836H135.183V242.256H140.052V234.836Z" stroke="white" stroke-width="0.579677" stroke-miterlimit="10"/>
<path d="M137.502 253.154C139.039 253.154 140.284 251.909 140.284 250.372C140.284 248.835 139.039 247.589 137.502 247.589C135.965 247.589 134.719 248.835 134.719 250.372C134.719 251.909 135.965 253.154 137.502 253.154Z" stroke="white" stroke-width="0.579677" stroke-miterlimit="10"/>
<path d="M140.052 258.951H135.183V266.371H140.052V258.951Z" stroke="white" stroke-width="0.579677" stroke-miterlimit="10"/>
<path d="M137.502 277.269C139.039 277.269 140.284 276.023 140.284 274.486C140.284 272.95 139.039 271.704 137.502 271.704C135.965 271.704 134.719 272.95 134.719 274.486C134.719 276.023 135.965 277.269 137.502 277.269Z" stroke="white" stroke-width="0.579677" stroke-miterlimit="10"/>
<path d="M148.632 192.636C150.169 192.636 151.414 191.39 151.414 189.853C151.414 188.317 150.169 187.071 148.632 187.071C147.095 187.071 145.849 188.317 145.849 189.853C145.849 191.39 147.095 192.636 148.632 192.636Z" stroke="white" stroke-width="0.579677" stroke-miterlimit="10"/>
<path d="M151.183 198.433H146.313V205.853H151.183V198.433Z" stroke="white" stroke-width="0.579677" stroke-miterlimit="10"/>
<path d="M148.632 216.75C150.169 216.75 151.414 215.505 151.414 213.968C151.414 212.431 150.169 211.186 148.632 211.186C147.095 211.186 145.849 212.431 145.849 213.968C145.849 215.505 147.095 216.75 148.632 216.75Z" stroke="white" stroke-width="0.579677" stroke-miterlimit="10"/>
<path d="M151.183 222.779H146.313V230.199H151.183V222.779Z" stroke="white" stroke-width="0.579677" stroke-miterlimit="10"/>
<path d="M148.632 241.097C150.169 241.097 151.414 239.851 151.414 238.314C151.414 236.778 150.169 235.532 148.632 235.532C147.095 235.532 145.849 236.778 145.849 238.314C145.849 239.851 147.095 241.097 148.632 241.097Z" stroke="white" stroke-width="0.579677" stroke-miterlimit="10"/>
<path d="M151.183 246.894H146.313V254.313H151.183V246.894Z" stroke="white" stroke-width="0.579677" stroke-miterlimit="10"/>
<path d="M148.632 265.211C150.169 265.211 151.414 263.966 151.414 262.429C151.414 260.892 150.169 259.646 148.632 259.646C147.095 259.646 145.849 260.892 145.849 262.429C145.849 263.966 147.095 265.211 148.632 265.211Z" stroke="white" stroke-width="0.579677" stroke-miterlimit="10"/>
<path d="M151.183 271.24H146.313V278.66H151.183V271.24Z" stroke="white" stroke-width="0.579677" stroke-miterlimit="10"/>
<path d="M161.848 186.375H156.979V193.795H161.848V186.375Z" stroke="white" stroke-width="0.579677" stroke-miterlimit="10"/>
<path d="M159.298 204.693C160.835 204.693 162.08 203.447 162.08 201.911C162.08 200.374 160.835 199.128 159.298 199.128C157.761 199.128 156.515 200.374 156.515 201.911C156.515 203.447 157.761 204.693 159.298 204.693Z" stroke="white" stroke-width="0.579677" stroke-miterlimit="10"/>
<path d="M161.848 210.722H156.979V218.142H161.848V210.722Z" stroke="white" stroke-width="0.579677" stroke-miterlimit="10"/>
<path d="M159.298 229.04C160.835 229.04 162.08 227.794 162.08 226.257C162.08 224.72 160.835 223.475 159.298 223.475C157.761 223.475 156.515 224.72 156.515 226.257C156.515 227.794 157.761 229.04 159.298 229.04Z" stroke="white" stroke-width="0.579677" stroke-miterlimit="10"/>
<path d="M161.848 234.836H156.979V242.256H161.848V234.836Z" stroke="white" stroke-width="0.579677" stroke-miterlimit="10"/>
<path d="M159.298 253.154C160.835 253.154 162.08 251.909 162.08 250.372C162.08 248.835 160.835 247.589 159.298 247.589C157.761 247.589 156.515 248.835 156.515 250.372C156.515 251.909 157.761 253.154 159.298 253.154Z" stroke="white" stroke-width="0.579677" stroke-miterlimit="10"/>
<path d="M161.848 258.951H156.979V266.371H161.848V258.951Z" stroke="white" stroke-width="0.579677" stroke-miterlimit="10"/>
<path d="M159.298 277.269C160.835 277.269 162.08 276.023 162.08 274.486C162.08 272.95 160.835 271.704 159.298 271.704C157.761 271.704 156.515 272.95 156.515 274.486C156.515 276.023 157.761 277.269 159.298 277.269Z" stroke="white" stroke-width="0.579677" stroke-miterlimit="10"/>
<path d="M170.427 192.636C171.964 192.636 173.21 191.39 173.21 189.853C173.21 188.317 171.964 187.071 170.427 187.071C168.891 187.071 167.645 188.317 167.645 189.853C167.645 191.39 168.891 192.636 170.427 192.636Z" stroke="white" stroke-width="0.579677" stroke-miterlimit="10"/>
<path d="M172.978 198.433H168.109V205.853H172.978V198.433Z" stroke="white" stroke-width="0.579677" stroke-miterlimit="10"/>
<path d="M170.427 216.75C171.964 216.75 173.21 215.505 173.21 213.968C173.21 212.431 171.964 211.186 170.427 211.186C168.891 211.186 167.645 212.431 167.645 213.968C167.645 215.505 168.891 216.75 170.427 216.75Z" stroke="white" stroke-width="0.579677" stroke-miterlimit="10"/>
<path d="M172.978 222.779H168.109V230.199H172.978V222.779Z" stroke="white" stroke-width="0.579677" stroke-miterlimit="10"/>
<path d="M170.427 241.097C171.964 241.097 173.21 239.851 173.21 238.314C173.21 236.778 171.964 235.532 170.427 235.532C168.891 235.532 167.645 236.778 167.645 238.314C167.645 239.851 168.891 241.097 170.427 241.097Z" stroke="white" stroke-width="0.579677" stroke-miterlimit="10"/>
<path d="M172.978 246.894H168.109V254.313H172.978V246.894Z" stroke="white" stroke-width="0.579677" stroke-miterlimit="10"/>
<path d="M170.427 265.211C171.964 265.211 173.21 263.966 173.21 262.429C173.21 260.892 171.964 259.646 170.427 259.646C168.891 259.646 167.645 260.892 167.645 262.429C167.645 263.966 168.891 265.211 170.427 265.211Z" stroke="white" stroke-width="0.579677" stroke-miterlimit="10"/>
<path d="M172.978 271.24H168.109V278.66H172.978V271.24Z" stroke="white" stroke-width="0.579677" stroke-miterlimit="10"/>
<path d="M183.644 186.375H178.775V193.795H183.644V186.375Z" stroke="white" stroke-width="0.579677" stroke-miterlimit="10"/>
<path d="M181.094 204.693C182.631 204.693 183.876 203.447 183.876 201.911C183.876 200.374 182.631 199.128 181.094 199.128C179.557 199.128 178.311 200.374 178.311 201.911C178.311 203.447 179.557 204.693 181.094 204.693Z" stroke="white" stroke-width="0.579677" stroke-miterlimit="10"/>
<path d="M183.644 210.722H178.775V218.142H183.644V210.722Z" stroke="white" stroke-width="0.579677" stroke-miterlimit="10"/>
<path d="M181.094 229.04C182.631 229.04 183.876 227.794 183.876 226.257C183.876 224.72 182.631 223.475 181.094 223.475C179.557 223.475 178.311 224.72 178.311 226.257C178.311 227.794 179.557 229.04 181.094 229.04Z" stroke="white" stroke-width="0.579677" stroke-miterlimit="10"/>
<path d="M183.644 234.836H178.775V242.256H183.644V234.836Z" stroke="white" stroke-width="0.579677" stroke-miterlimit="10"/>
<path d="M181.094 253.154C182.631 253.154 183.876 251.909 183.876 250.372C183.876 248.835 182.631 247.589 181.094 247.589C179.557 247.589 178.311 248.835 178.311 250.372C178.311 251.909 179.557 253.154 181.094 253.154Z" stroke="white" stroke-width="0.579677" stroke-miterlimit="10"/>
<path d="M183.644 258.951H178.775V266.371H183.644V258.951Z" stroke="white" stroke-width="0.579677" stroke-miterlimit="10"/>
<path d="M181.094 277.269C182.631 277.269 183.876 276.023 183.876 274.486C183.876 272.95 182.631 271.704 181.094 271.704C179.557 271.704 178.311 272.95 178.311 274.486C178.311 276.023 179.557 277.269 181.094 277.269Z" stroke="white" stroke-width="0.579677" stroke-miterlimit="10"/>
<path d="M192.223 192.636C193.76 192.636 195.006 191.39 195.006 189.853C195.006 188.317 193.76 187.071 192.223 187.071C190.687 187.071 189.441 188.317 189.441 189.853C189.441 191.39 190.687 192.636 192.223 192.636Z" stroke="white" stroke-width="0.579677" stroke-miterlimit="10"/>
<path d="M194.774 198.433H189.905V205.853H194.774V198.433Z" stroke="white" stroke-width="0.579677" stroke-miterlimit="10"/>
<path d="M192.223 216.75C193.76 216.75 195.006 215.505 195.006 213.968C195.006 212.431 193.76 211.186 192.223 211.186C190.687 211.186 189.441 212.431 189.441 213.968C189.441 215.505 190.687 216.75 192.223 216.75Z" stroke="white" stroke-width="0.579677" stroke-miterlimit="10"/>
<path d="M194.774 222.779H189.905V230.199H194.774V222.779Z" stroke="white" stroke-width="0.579677" stroke-miterlimit="10"/>
<path d="M192.223 241.097C193.76 241.097 195.006 239.851 195.006 238.314C195.006 236.778 193.76 235.532 192.223 235.532C190.687 235.532 189.441 236.778 189.441 238.314C189.441 239.851 190.687 241.097 192.223 241.097Z" stroke="white" stroke-width="0.579677" stroke-miterlimit="10"/>
<path d="M194.774 246.894H189.905V254.313H194.774V246.894Z" stroke="white" stroke-width="0.579677" stroke-miterlimit="10"/>
<path d="M192.223 265.211C193.76 265.211 195.006 263.966 195.006 262.429C195.006 260.892 193.76 259.646 192.223 259.646C190.687 259.646 189.441 260.892 189.441 262.429C189.441 263.966 190.687 265.211 192.223 265.211Z" stroke="white" stroke-width="0.579677" stroke-miterlimit="10"/>
<path d="M194.774 271.24H189.905V278.66H194.774V271.24Z" stroke="white" stroke-width="0.579677" stroke-miterlimit="10"/>
<path d="M205.44 186.375H200.57V193.795H205.44V186.375Z" stroke="white" stroke-width="0.579677" stroke-miterlimit="10"/>
<path d="M202.889 204.693C204.426 204.693 205.672 203.447 205.672 201.911C205.672 200.374 204.426 199.128 202.889 199.128C201.353 199.128 200.107 200.374 200.107 201.911C200.107 203.447 201.353 204.693 202.889 204.693Z" stroke="white" stroke-width="0.579677" stroke-miterlimit="10"/>
<path d="M205.44 210.722H200.57V218.142H205.44V210.722Z" stroke="white" stroke-width="0.579677" stroke-miterlimit="10"/>
<path d="M202.889 229.04C204.426 229.04 205.672 227.794 205.672 226.257C205.672 224.72 204.426 223.475 202.889 223.475C201.353 223.475 200.107 224.72 200.107 226.257C200.107 227.794 201.353 229.04 202.889 229.04Z" stroke="white" stroke-width="0.579677" stroke-miterlimit="10"/>
<path d="M205.44 234.836H200.57V242.256H205.44V234.836Z" stroke="white" stroke-width="0.579677" stroke-miterlimit="10"/>
<path d="M202.889 253.154C204.426 253.154 205.672 251.909 205.672 250.372C205.672 248.835 204.426 247.589 202.889 247.589C201.353 247.589 200.107 248.835 200.107 250.372C200.107 251.909 201.353 253.154 202.889 253.154Z" stroke="white" stroke-width="0.579677" stroke-miterlimit="10"/>
<path d="M205.44 258.951H200.57V266.371H205.44V258.951Z" stroke="white" stroke-width="0.579677" stroke-miterlimit="10"/>
<path d="M202.889 277.269C204.426 277.269 205.672 276.023 205.672 274.486C205.672 272.95 204.426 271.704 202.889 271.704C201.353 271.704 200.107 272.95 200.107 274.486C200.107 276.023 201.353 277.269 202.889 277.269Z" stroke="white" stroke-width="0.579677" stroke-miterlimit="10"/>
<path d="M214.019 192.636C215.556 192.636 216.802 191.39 216.802 189.853C216.802 188.317 215.556 187.071 214.019 187.071C212.483 187.071 211.237 188.317 211.237 189.853C211.237 191.39 212.483 192.636 214.019 192.636Z" stroke="white" stroke-width="0.579677" stroke-miterlimit="10"/>
<path d="M216.57 198.433H211.701V205.853H216.57V198.433Z" stroke="white" stroke-width="0.579677" stroke-miterlimit="10"/>
<path d="M214.019 216.75C215.556 216.75 216.802 215.505 216.802 213.968C216.802 212.431 215.556 211.186 214.019 211.186C212.483 211.186 211.237 212.431 211.237 213.968C211.237 215.505 212.483 216.75 214.019 216.75Z" stroke="white" stroke-width="0.579677" stroke-miterlimit="10"/>
<path d="M216.57 222.779H211.701V230.199H216.57V222.779Z" stroke="white" stroke-width="0.579677" stroke-miterlimit="10"/>
<path d="M214.019 241.097C215.556 241.097 216.802 239.851 216.802 238.314C216.802 236.778 215.556 235.532 214.019 235.532C212.483 235.532 211.237 236.778 211.237 238.314C211.237 239.851 212.483 241.097 214.019 241.097Z" stroke="white" stroke-width="0.579677" stroke-miterlimit="10"/>
<path d="M216.57 246.894H211.701V254.313H216.57V246.894Z" stroke="white" stroke-width="0.579677" stroke-miterlimit="10"/>
<path d="M214.019 265.211C215.556 265.211 216.802 263.966 216.802 262.429C216.802 260.892 215.556 259.646 214.019 259.646C212.483 259.646 211.237 260.892 211.237 262.429C211.237 263.966 212.483 265.211 214.019 265.211Z" stroke="white" stroke-width="0.579677" stroke-miterlimit="10"/>
<path d="M216.57 271.24H211.701V278.66H216.57V271.24Z" stroke="white" stroke-width="0.579677" stroke-miterlimit="10"/>
<path d="M227.236 186.375H222.366V193.795H227.236V186.375Z" stroke="white" stroke-width="0.579677" stroke-miterlimit="10"/>
<path d="M224.685 204.693C226.222 204.693 227.468 203.447 227.468 201.911C227.468 200.374 226.222 199.128 224.685 199.128C223.148 199.128 221.903 200.374 221.903 201.911C221.903 203.447 223.148 204.693 224.685 204.693Z" stroke="white" stroke-width="0.579677" stroke-miterlimit="10"/>
<path d="M227.236 210.722H222.366V218.142H227.236V210.722Z" stroke="white" stroke-width="0.579677" stroke-miterlimit="10"/>
<path d="M224.685 229.04C226.222 229.04 227.468 227.794 227.468 226.257C227.468 224.72 226.222 223.475 224.685 223.475C223.148 223.475 221.903 224.72 221.903 226.257C221.903 227.794 223.148 229.04 224.685 229.04Z" stroke="white" stroke-width="0.579677" stroke-miterlimit="10"/>
<path d="M227.236 234.836H222.366V242.256H227.236V234.836Z" stroke="white" stroke-width="0.579677" stroke-miterlimit="10"/>
<path d="M224.685 253.154C226.222 253.154 227.468 251.909 227.468 250.372C227.468 248.835 226.222 247.589 224.685 247.589C223.148 247.589 221.903 248.835 221.903 250.372C221.903 251.909 223.148 253.154 224.685 253.154Z" stroke="white" stroke-width="0.579677" stroke-miterlimit="10"/>
<path d="M227.236 258.951H222.366V266.371H227.236V258.951Z" stroke="white" stroke-width="0.579677" stroke-miterlimit="10"/>
<path d="M224.685 277.269C226.222 277.269 227.468 276.023 227.468 274.486C227.468 272.95 226.222 271.704 224.685 271.704C223.148 271.704 221.903 272.95 221.903 274.486C221.903 276.023 223.148 277.269 224.685 277.269Z" stroke="white" stroke-width="0.579677" stroke-miterlimit="10"/>
<path d="M235.815 192.636C237.352 192.636 238.598 191.39 238.598 189.853C238.598 188.317 237.352 187.071 235.815 187.071C234.279 187.071 233.033 188.317 233.033 189.853C233.033 191.39 234.279 192.636 235.815 192.636Z" stroke="white" stroke-width="0.579677" stroke-miterlimit="10"/>
<path d="M238.366 198.433H233.497V205.853H238.366V198.433Z" stroke="white" stroke-width="0.579677" stroke-miterlimit="10"/>
<path d="M235.815 216.75C237.352 216.75 238.598 215.505 238.598 213.968C238.598 212.431 237.352 211.186 235.815 211.186C234.279 211.186 233.033 212.431 233.033 213.968C233.033 215.505 234.279 216.75 235.815 216.75Z" stroke="white" stroke-width="0.579677" stroke-miterlimit="10"/>
<path d="M238.366 222.779H233.497V230.199H238.366V222.779Z" stroke="white" stroke-width="0.579677" stroke-miterlimit="10"/>
<path d="M235.815 241.097C237.352 241.097 238.598 239.851 238.598 238.314C238.598 236.778 237.352 235.532 235.815 235.532C234.279 235.532 233.033 236.778 233.033 238.314C233.033 239.851 234.279 241.097 235.815 241.097Z" stroke="white" stroke-width="0.579677" stroke-miterlimit="10"/>
<path d="M238.366 246.894H233.497V254.313H238.366V246.894Z" stroke="white" stroke-width="0.579677" stroke-miterlimit="10"/>
<path d="M235.815 265.211C237.352 265.211 238.598 263.966 238.598 262.429C238.598 260.892 237.352 259.646 235.815 259.646C234.279 259.646 233.033 260.892 233.033 262.429C233.033 263.966 234.279 265.211 235.815 265.211Z" stroke="white" stroke-width="0.579677" stroke-miterlimit="10"/>
<path d="M238.366 271.24H233.497V278.66H238.366V271.24Z" stroke="white" stroke-width="0.579677" stroke-miterlimit="10"/>
</g>
<mask id="mask3" mask-type="alpha" maskUnits="userSpaceOnUse" x="246" y="137" width="73" height="86">
<path d="M291.696 137.475C273.146 136.779 268.741 151.387 268.741 151.387C268.741 151.387 267.117 157.416 259.929 170.4C254.133 180.835 248.568 201.935 246.481 210.282L278.015 219.557L288.45 222.803C288.45 222.803 292.391 223.499 310.245 194.747C327.636 165.763 317.202 138.634 291.696 137.475Z" fill="#E2603D"/>
</mask>
<g mask="url(#mask3)">
<path d="M249.031 137.914H244.162V145.334H249.031V137.914Z" stroke="white" stroke-width="0.579677" stroke-miterlimit="10"/>
<path d="M246.713 156.232C248.249 156.232 249.495 154.987 249.495 153.45C249.495 151.913 248.249 150.667 246.713 150.667C245.176 150.667 243.93 151.913 243.93 153.45C243.93 154.987 245.176 156.232 246.713 156.232Z" stroke="white" stroke-width="0.579677" stroke-miterlimit="10"/>
<path d="M249.031 162.261H244.162V169.681H249.031V162.261Z" stroke="white" stroke-width="0.579677" stroke-miterlimit="10"/>
<path d="M246.713 180.579C248.249 180.579 249.495 179.333 249.495 177.796C249.495 176.259 248.249 175.014 246.713 175.014C245.176 175.014 243.93 176.259 243.93 177.796C243.93 179.333 245.176 180.579 246.713 180.579Z" stroke="white" stroke-width="0.579677" stroke-miterlimit="10"/>
<path d="M249.031 186.375H244.162V193.795H249.031V186.375Z" stroke="white" stroke-width="0.579677" stroke-miterlimit="10"/>
<path d="M246.713 204.693C248.249 204.693 249.495 203.447 249.495 201.911C249.495 200.374 248.249 199.128 246.713 199.128C245.176 199.128 243.93 200.374 243.93 201.911C243.93 203.447 245.176 204.693 246.713 204.693Z" stroke="white" stroke-width="0.579677" stroke-miterlimit="10"/>
<path d="M249.031 210.722H244.162V218.142H249.031V210.722Z" stroke="white" stroke-width="0.579677" stroke-miterlimit="10"/>
<path d="M257.611 144.175C259.148 144.175 260.394 142.929 260.394 141.393C260.394 139.856 259.148 138.61 257.611 138.61C256.074 138.61 254.829 139.856 254.829 141.393C254.829 142.929 256.074 144.175 257.611 144.175Z" stroke="white" stroke-width="0.579677" stroke-miterlimit="10"/>
<path d="M260.162 150.204H255.292V157.623H260.162V150.204Z" stroke="white" stroke-width="0.579677" stroke-miterlimit="10"/>
<path d="M257.611 168.521C259.148 168.521 260.394 167.276 260.394 165.739C260.394 164.202 259.148 162.957 257.611 162.957C256.074 162.957 254.829 164.202 254.829 165.739C254.829 167.276 256.074 168.521 257.611 168.521Z" stroke="white" stroke-width="0.579677" stroke-miterlimit="10"/>
<path d="M260.162 174.318H255.292V181.738H260.162V174.318Z" stroke="white" stroke-width="0.579677" stroke-miterlimit="10"/>
<path d="M257.611 192.636C259.148 192.636 260.394 191.39 260.394 189.853C260.394 188.317 259.148 187.071 257.611 187.071C256.074 187.071 254.829 188.317 254.829 189.853C254.829 191.39 256.074 192.636 257.611 192.636Z" stroke="white" stroke-width="0.579677" stroke-miterlimit="10"/>
<path d="M260.162 198.433H255.292V205.853H260.162V198.433Z" stroke="white" stroke-width="0.579677" stroke-miterlimit="10"/>
<path d="M257.611 216.75C259.148 216.75 260.394 215.505 260.394 213.968C260.394 212.431 259.148 211.186 257.611 211.186C256.074 211.186 254.829 212.431 254.829 213.968C254.829 215.505 256.074 216.75 257.611 216.75Z" stroke="white" stroke-width="0.579677" stroke-miterlimit="10"/>
<path d="M260.162 222.779H255.292V230.199H260.162V222.779Z" stroke="white" stroke-width="0.579677" stroke-miterlimit="10"/>
<path d="M270.827 137.914H265.958V145.334H270.827V137.914Z" stroke="white" stroke-width="0.579677" stroke-miterlimit="10"/>
<path d="M268.509 156.232C270.045 156.232 271.291 154.987 271.291 153.45C271.291 151.913 270.045 150.667 268.509 150.667C266.972 150.667 265.726 151.913 265.726 153.45C265.726 154.987 266.972 156.232 268.509 156.232Z" stroke="white" stroke-width="0.579677" stroke-miterlimit="10"/>
<path d="M270.827 162.261H265.958V169.681H270.827V162.261Z" stroke="white" stroke-width="0.579677" stroke-miterlimit="10"/>
<path d="M268.509 180.579C270.045 180.579 271.291 179.333 271.291 177.796C271.291 176.259 270.045 175.014 268.509 175.014C266.972 175.014 265.726 176.259 265.726 177.796C265.726 179.333 266.972 180.579 268.509 180.579Z" stroke="white" stroke-width="0.579677" stroke-miterlimit="10"/>
<path d="M270.827 186.375H265.958V193.795H270.827V186.375Z" stroke="white" stroke-width="0.579677" stroke-miterlimit="10"/>
<path d="M268.509 204.693C270.045 204.693 271.291 203.447 271.291 201.911C271.291 200.374 270.045 199.128 268.509 199.128C266.972 199.128 265.726 200.374 265.726 201.911C265.726 203.447 266.972 204.693 268.509 204.693Z" stroke="white" stroke-width="0.579677" stroke-miterlimit="10"/>
<path d="M270.827 210.722H265.958V218.142H270.827V210.722Z" stroke="white" stroke-width="0.579677" stroke-miterlimit="10"/>
<path d="M279.406 144.175C280.943 144.175 282.189 142.929 282.189 141.393C282.189 139.856 280.943 138.61 279.406 138.61C277.87 138.61 276.624 139.856 276.624 141.393C276.624 142.929 277.87 144.175 279.406 144.175Z" stroke="white" stroke-width="0.579677" stroke-miterlimit="10"/>
<path d="M281.957 150.204H277.088V157.623H281.957V150.204Z" stroke="white" stroke-width="0.579677" stroke-miterlimit="10"/>
<path d="M279.406 168.521C280.943 168.521 282.189 167.276 282.189 165.739C282.189 164.202 280.943 162.957 279.406 162.957C277.87 162.957 276.624 164.202 276.624 165.739C276.624 167.276 277.87 168.521 279.406 168.521Z" stroke="white" stroke-width="0.579677" stroke-miterlimit="10"/>
<path d="M281.957 174.318H277.088V181.738H281.957V174.318Z" stroke="white" stroke-width="0.579677" stroke-miterlimit="10"/>
<path d="M279.406 192.636C280.943 192.636 282.189 191.39 282.189 189.853C282.189 188.317 280.943 187.071 279.406 187.071C277.87 187.071 276.624 188.317 276.624 189.853C276.624 191.39 277.87 192.636 279.406 192.636Z" stroke="white" stroke-width="0.579677" stroke-miterlimit="10"/>
<path d="M281.957 198.433H277.088V205.853H281.957V198.433Z" stroke="white" stroke-width="0.579677" stroke-miterlimit="10"/>
<path d="M279.406 216.75C280.943 216.75 282.189 215.505 282.189 213.968C282.189 212.431 280.943 211.186 279.406 211.186C277.87 211.186 276.624 212.431 276.624 213.968C276.624 215.505 277.87 216.75 279.406 216.75Z" stroke="white" stroke-width="0.579677" stroke-miterlimit="10"/>
<path d="M281.957 222.779H277.088V230.199H281.957V222.779Z" stroke="white" stroke-width="0.579677" stroke-miterlimit="10"/>
<path d="M292.623 137.914H287.754V145.334H292.623V137.914Z" stroke="white" stroke-width="0.579677" stroke-miterlimit="10"/>
<path d="M290.305 156.232C291.841 156.232 293.087 154.987 293.087 153.45C293.087 151.913 291.841 150.667 290.305 150.667C288.768 150.667 287.522 151.913 287.522 153.45C287.522 154.987 288.768 156.232 290.305 156.232Z" stroke="white" stroke-width="0.579677" stroke-miterlimit="10"/>
<path d="M292.623 162.261H287.754V169.681H292.623V162.261Z" stroke="white" stroke-width="0.579677" stroke-miterlimit="10"/>
<path d="M290.305 180.579C291.841 180.579 293.087 179.333 293.087 177.796C293.087 176.259 291.841 175.014 290.305 175.014C288.768 175.014 287.522 176.259 287.522 177.796C287.522 179.333 288.768 180.579 290.305 180.579Z" stroke="white" stroke-width="0.579677" stroke-miterlimit="10"/>
<path d="M292.623 186.375H287.754V193.795H292.623V186.375Z" stroke="white" stroke-width="0.579677" stroke-miterlimit="10"/>
<path d="M290.305 204.693C291.841 204.693 293.087 203.447 293.087 201.911C293.087 200.374 291.841 199.128 290.305 199.128C288.768 199.128 287.522 200.374 287.522 201.911C287.522 203.447 288.768 204.693 290.305 204.693Z" stroke="white" stroke-width="0.579677" stroke-miterlimit="10"/>
<path d="M292.623 210.722H287.754V218.142H292.623V210.722Z" stroke="white" stroke-width="0.579677" stroke-miterlimit="10"/>
<path d="M301.203 144.175C302.739 144.175 303.985 142.929 303.985 141.393C303.985 139.856 302.739 138.61 301.203 138.61C299.666 138.61 298.42 139.856 298.42 141.393C298.42 142.929 299.666 144.175 301.203 144.175Z" stroke="white" stroke-width="0.579677" stroke-miterlimit="10"/>
<path d="M303.753 150.204H298.884V157.623H303.753V150.204Z" stroke="white" stroke-width="0.579677" stroke-miterlimit="10"/>
<path d="M301.203 168.521C302.739 168.521 303.985 167.276 303.985 165.739C303.985 164.202 302.739 162.957 301.203 162.957C299.666 162.957 298.42 164.202 298.42 165.739C298.42 167.276 299.666 168.521 301.203 168.521Z" stroke="white" stroke-width="0.579677" stroke-miterlimit="10"/>
<path d="M303.753 174.318H298.884V181.738H303.753V174.318Z" stroke="white" stroke-width="0.579677" stroke-miterlimit="10"/>
<path d="M301.203 192.636C302.739 192.636 303.985 191.39 303.985 189.853C303.985 188.317 302.739 187.071 301.203 187.071C299.666 187.071 298.42 188.317 298.42 189.853C298.42 191.39 299.666 192.636 301.203 192.636Z" stroke="white" stroke-width="0.579677" stroke-miterlimit="10"/>
<path d="M303.753 198.433H298.884V205.853H303.753V198.433Z" stroke="white" stroke-width="0.579677" stroke-miterlimit="10"/>
<path d="M301.203 216.75C302.739 216.75 303.985 215.505 303.985 213.968C303.985 212.431 302.739 211.186 301.203 211.186C299.666 211.186 298.42 212.431 298.42 213.968C298.42 215.505 299.666 216.75 301.203 216.75Z" stroke="white" stroke-width="0.579677" stroke-miterlimit="10"/>
<path d="M303.753 222.779H298.884V230.199H303.753V222.779Z" stroke="white" stroke-width="0.579677" stroke-miterlimit="10"/>
<path d="M314.419 137.914H309.55V145.334H314.419V137.914Z" stroke="white" stroke-width="0.579677" stroke-miterlimit="10"/>
<path d="M312.101 156.232C313.637 156.232 314.883 154.987 314.883 153.45C314.883 151.913 313.637 150.667 312.101 150.667C310.564 150.667 309.318 151.913 309.318 153.45C309.318 154.987 310.564 156.232 312.101 156.232Z" stroke="white" stroke-width="0.579677" stroke-miterlimit="10"/>
<path d="M314.419 162.261H309.55V169.681H314.419V162.261Z" stroke="white" stroke-width="0.579677" stroke-miterlimit="10"/>
<path d="M312.101 180.579C313.637 180.579 314.883 179.333 314.883 177.796C314.883 176.259 313.637 175.014 312.101 175.014C310.564 175.014 309.318 176.259 309.318 177.796C309.318 179.333 310.564 180.579 312.101 180.579Z" stroke="white" stroke-width="0.579677" stroke-miterlimit="10"/>
<path d="M314.419 186.375H309.55V193.795H314.419V186.375Z" stroke="white" stroke-width="0.579677" stroke-miterlimit="10"/>
<path d="M312.101 204.693C313.637 204.693 314.883 203.447 314.883 201.911C314.883 200.374 313.637 199.128 312.101 199.128C310.564 199.128 309.318 200.374 309.318 201.911C309.318 203.447 310.564 204.693 312.101 204.693Z" stroke="white" stroke-width="0.579677" stroke-miterlimit="10"/>
<path d="M314.419 210.722H309.55V218.142H314.419V210.722Z" stroke="white" stroke-width="0.579677" stroke-miterlimit="10"/>
</g>
<mask id="mask4" mask-type="alpha" maskUnits="userSpaceOnUse" x="215" y="92" width="74" height="71">
<path d="M267.118 162.956L288.913 115.655L231.178 92.4678L215.874 139.074L267.118 162.956Z" fill="#98A2F4"/>
</mask>
<g mask="url(#mask4)">
<path d="M214.02 95.7139C215.556 95.7139 216.802 94.4682 216.802 92.9315C216.802 91.3948 215.556 90.149 214.02 90.149C212.483 90.149 211.237 91.3948 211.237 92.9315C211.237 94.4682 212.483 95.7139 214.02 95.7139Z" stroke="white" stroke-width="0.579677" stroke-miterlimit="10"/>
<path d="M216.57 101.743H211.701V109.162H216.57V101.743Z" stroke="white" stroke-width="0.579677" stroke-miterlimit="10"/>
<path d="M214.02 120.06C215.556 120.06 216.802 118.815 216.802 117.278C216.802 115.741 215.556 114.495 214.02 114.495C212.483 114.495 211.237 115.741 211.237 117.278C211.237 118.815 212.483 120.06 214.02 120.06Z" stroke="white" stroke-width="0.579677" stroke-miterlimit="10"/>
<path d="M216.57 125.857H211.701V133.277H216.57V125.857Z" stroke="white" stroke-width="0.579677" stroke-miterlimit="10"/>
<path d="M214.02 144.175C215.556 144.175 216.802 142.929 216.802 141.393C216.802 139.856 215.556 138.61 214.02 138.61C212.483 138.61 211.237 139.856 211.237 141.393C211.237 142.929 212.483 144.175 214.02 144.175Z" stroke="white" stroke-width="0.579677" stroke-miterlimit="10"/>
<path d="M216.57 150.204H211.701V157.623H216.57V150.204Z" stroke="white" stroke-width="0.579677" stroke-miterlimit="10"/>
<path d="M214.02 168.521C215.556 168.521 216.802 167.276 216.802 165.739C216.802 164.202 215.556 162.957 214.02 162.957C212.483 162.957 211.237 164.202 211.237 165.739C211.237 167.276 212.483 168.521 214.02 168.521Z" stroke="white" stroke-width="0.579677" stroke-miterlimit="10"/>
<path d="M227.236 89.6853H222.367V97.1052H227.236V89.6853Z" stroke="white" stroke-width="0.579677" stroke-miterlimit="10"/>
<path d="M224.685 108.003C226.222 108.003 227.468 106.757 227.468 105.221C227.468 103.684 226.222 102.438 224.685 102.438C223.149 102.438 221.903 103.684 221.903 105.221C221.903 106.757 223.149 108.003 224.685 108.003Z" stroke="white" stroke-width="0.579677" stroke-miterlimit="10"/>
<path d="M227.236 113.8H222.367V121.22H227.236V113.8Z" stroke="white" stroke-width="0.579677" stroke-miterlimit="10"/>
<path d="M224.685 132.118C226.222 132.118 227.468 130.872 227.468 129.335C227.468 127.798 226.222 126.553 224.685 126.553C223.149 126.553 221.903 127.798 221.903 129.335C221.903 130.872 223.149 132.118 224.685 132.118Z" stroke="white" stroke-width="0.579677" stroke-miterlimit="10"/>
<path d="M227.236 137.914H222.367V145.334H227.236V137.914Z" stroke="white" stroke-width="0.579677" stroke-miterlimit="10"/>
<path d="M224.685 156.232C226.222 156.232 227.468 154.987 227.468 153.45C227.468 151.913 226.222 150.667 224.685 150.667C223.149 150.667 221.903 151.913 221.903 153.45C221.903 154.987 223.149 156.232 224.685 156.232Z" stroke="white" stroke-width="0.579677" stroke-miterlimit="10"/>
<path d="M227.236 162.261H222.367V169.681H227.236V162.261Z" stroke="white" stroke-width="0.579677" stroke-miterlimit="10"/>
<path d="M235.816 95.7139C237.352 95.7139 238.598 94.4682 238.598 92.9315C238.598 91.3948 237.352 90.149 235.816 90.149C234.279 90.149 233.033 91.3948 233.033 92.9315C233.033 94.4682 234.279 95.7139 235.816 95.7139Z" stroke="white" stroke-width="0.579677" stroke-miterlimit="10"/>
<path d="M238.366 101.743H233.497V109.162H238.366V101.743Z" stroke="white" stroke-width="0.579677" stroke-miterlimit="10"/>
<path d="M235.816 120.06C237.352 120.06 238.598 118.815 238.598 117.278C238.598 115.741 237.352 114.495 235.816 114.495C234.279 114.495 233.033 115.741 233.033 117.278C233.033 118.815 234.279 120.06 235.816 120.06Z" stroke="white" stroke-width="0.579677" stroke-miterlimit="10"/>
<path d="M238.366 125.857H233.497V133.277H238.366V125.857Z" stroke="white" stroke-width="0.579677" stroke-miterlimit="10"/>
<path d="M235.816 144.175C237.352 144.175 238.598 142.929 238.598 141.393C238.598 139.856 237.352 138.61 235.816 138.61C234.279 138.61 233.033 139.856 233.033 141.393C233.033 142.929 234.279 144.175 235.816 144.175Z" stroke="white" stroke-width="0.579677" stroke-miterlimit="10"/>
<path d="M238.366 150.204H233.497V157.623H238.366V150.204Z" stroke="white" stroke-width="0.579677" stroke-miterlimit="10"/>
<path d="M235.816 168.521C237.352 168.521 238.598 167.276 238.598 165.739C238.598 164.202 237.352 162.957 235.816 162.957C234.279 162.957 233.033 164.202 233.033 165.739C233.033 167.276 234.279 168.521 235.816 168.521Z" stroke="white" stroke-width="0.579677" stroke-miterlimit="10"/>
<path d="M249.032 89.6853H244.163V97.1052H249.032V89.6853Z" stroke="white" stroke-width="0.579677" stroke-miterlimit="10"/>
<path d="M246.713 108.003C248.25 108.003 249.495 106.757 249.495 105.221C249.495 103.684 248.25 102.438 246.713 102.438C245.176 102.438 243.931 103.684 243.931 105.221C243.931 106.757 245.176 108.003 246.713 108.003Z" stroke="white" stroke-width="0.579677" stroke-miterlimit="10"/>
<path d="M249.032 113.8H244.162V121.22H249.032V113.8Z" stroke="white" stroke-width="0.579677" stroke-miterlimit="10"/>
<path d="M246.713 132.118C248.25 132.118 249.495 130.872 249.495 129.335C249.495 127.798 248.25 126.553 246.713 126.553C245.176 126.553 243.931 127.798 243.931 129.335C243.931 130.872 245.176 132.118 246.713 132.118Z" stroke="white" stroke-width="0.579677" stroke-miterlimit="10"/>
<path d="M249.032 137.914H244.162V145.334H249.032V137.914Z" stroke="white" stroke-width="0.579677" stroke-miterlimit="10"/>
<path d="M246.713 156.232C248.25 156.232 249.495 154.987 249.495 153.45C249.495 151.913 248.25 150.667 246.713 150.667C245.176 150.667 243.931 151.913 243.931 153.45C243.931 154.987 245.176 156.232 246.713 156.232Z" stroke="white" stroke-width="0.579677" stroke-miterlimit="10"/>
<path d="M249.032 162.261H244.162V169.681H249.032V162.261Z" stroke="white" stroke-width="0.579677" stroke-miterlimit="10"/>
<path d="M257.611 95.7139C259.148 95.7139 260.394 94.4682 260.394 92.9315C260.394 91.3948 259.148 90.149 257.611 90.149C256.075 90.149 254.829 91.3948 254.829 92.9315C254.829 94.4682 256.075 95.7139 257.611 95.7139Z" stroke="white" stroke-width="0.579677" stroke-miterlimit="10"/>
<path d="M260.162 101.743H255.293V109.162H260.162V101.743Z" stroke="white" stroke-width="0.579677" stroke-miterlimit="10"/>
<path d="M257.611 120.06C259.148 120.06 260.394 118.815 260.394 117.278C260.394 115.741 259.148 114.495 257.611 114.495C256.075 114.495 254.829 115.741 254.829 117.278C254.829 118.815 256.075 120.06 257.611 120.06Z" stroke="white" stroke-width="0.579677" stroke-miterlimit="10"/>
<path d="M260.162 125.857H255.293V133.277H260.162V125.857Z" stroke="white" stroke-width="0.579677" stroke-miterlimit="10"/>
<path d="M257.611 144.175C259.148 144.175 260.394 142.929 260.394 141.393C260.394 139.856 259.148 138.61 257.611 138.61C256.075 138.61 254.829 139.856 254.829 141.393C254.829 142.929 256.075 144.175 257.611 144.175Z" stroke="white" stroke-width="0.579677" stroke-miterlimit="10"/>
<path d="M260.162 150.204H255.293V157.623H260.162V150.204Z" stroke="white" stroke-width="0.579677" stroke-miterlimit="10"/>
<path d="M257.611 168.521C259.148 168.521 260.394 167.276 260.394 165.739C260.394 164.202 259.148 162.957 257.611 162.957C256.075 162.957 254.829 164.202 254.829 165.739C254.829 167.276 256.075 168.521 257.611 168.521Z" stroke="white" stroke-width="0.579677" stroke-miterlimit="10"/>
<path d="M270.828 89.6853H265.959V97.1052H270.828V89.6853Z" stroke="white" stroke-width="0.579677" stroke-miterlimit="10"/>
<path d="M268.509 108.003C270.046 108.003 271.292 106.757 271.292 105.221C271.292 103.684 270.046 102.438 268.509 102.438C266.972 102.438 265.727 103.684 265.727 105.221C265.727 106.757 266.972 108.003 268.509 108.003Z" stroke="white" stroke-width="0.579677" stroke-miterlimit="10"/>
<path d="M270.828 113.8H265.958V121.22H270.828V113.8Z" stroke="white" stroke-width="0.579677" stroke-miterlimit="10"/>
<path d="M268.509 132.118C270.046 132.118 271.292 130.872 271.292 129.335C271.292 127.798 270.046 126.553 268.509 126.553C266.972 126.553 265.727 127.798 265.727 129.335C265.727 130.872 266.972 132.118 268.509 132.118Z" stroke="white" stroke-width="0.579677" stroke-miterlimit="10"/>
<path d="M270.828 137.914H265.958V145.334H270.828V137.914Z" stroke="white" stroke-width="0.579677" stroke-miterlimit="10"/>
<path d="M268.509 156.232C270.046 156.232 271.292 154.987 271.292 153.45C271.292 151.913 270.046 150.667 268.509 150.667C266.972 150.667 265.727 151.913 265.727 153.45C265.727 154.987 266.972 156.232 268.509 156.232Z" stroke="white" stroke-width="0.579677" stroke-miterlimit="10"/>
<path d="M270.828 162.261H265.958V169.681H270.828V162.261Z" stroke="white" stroke-width="0.579677" stroke-miterlimit="10"/>
<path d="M279.407 95.7139C280.944 95.7139 282.189 94.4682 282.189 92.9315C282.189 91.3948 280.944 90.149 279.407 90.149C277.87 90.149 276.625 91.3948 276.625 92.9315C276.625 94.4682 277.87 95.7139 279.407 95.7139Z" stroke="white" stroke-width="0.579677" stroke-miterlimit="10"/>
<path d="M281.957 101.743H277.088V109.162H281.957V101.743Z" stroke="white" stroke-width="0.579677" stroke-miterlimit="10"/>
<path d="M279.407 120.06C280.943 120.06 282.189 118.815 282.189 117.278C282.189 115.741 280.943 114.495 279.407 114.495C277.87 114.495 276.624 115.741 276.624 117.278C276.624 118.815 277.87 120.06 279.407 120.06Z" stroke="white" stroke-width="0.579677" stroke-miterlimit="10"/>
<path d="M281.957 125.857H277.088V133.277H281.957V125.857Z" stroke="white" stroke-width="0.579677" stroke-miterlimit="10"/>
<path d="M279.407 144.175C280.943 144.175 282.189 142.929 282.189 141.393C282.189 139.856 280.943 138.61 279.407 138.61C277.87 138.61 276.624 139.856 276.624 141.393C276.624 142.929 277.87 144.175 279.407 144.175Z" stroke="white" stroke-width="0.579677" stroke-miterlimit="10"/>
<path d="M281.957 150.204H277.088V157.623H281.957V150.204Z" stroke="white" stroke-width="0.579677" stroke-miterlimit="10"/>
<path d="M279.407 168.521C280.943 168.521 282.189 167.276 282.189 165.739C282.189 164.202 280.943 162.957 279.407 162.957C277.87 162.957 276.624 164.202 276.624 165.739C276.624 167.276 277.87 168.521 279.407 168.521Z" stroke="white" stroke-width="0.579677" stroke-miterlimit="10"/>
<path d="M292.623 89.6853H287.754V97.1052H292.623V89.6853Z" stroke="white" stroke-width="0.579677" stroke-miterlimit="10"/>
<path d="M290.304 108.003C291.841 108.003 293.087 106.757 293.087 105.221C293.087 103.684 291.841 102.438 290.304 102.438C288.768 102.438 287.522 103.684 287.522 105.221C287.522 106.757 288.768 108.003 290.304 108.003Z" stroke="white" stroke-width="0.579677" stroke-miterlimit="10"/>
<path d="M292.623 113.8H287.754V121.22H292.623V113.8Z" stroke="white" stroke-width="0.579677" stroke-miterlimit="10"/>
<path d="M290.304 132.118C291.841 132.118 293.087 130.872 293.087 129.335C293.087 127.798 291.841 126.553 290.304 126.553C288.768 126.553 287.522 127.798 287.522 129.335C287.522 130.872 288.768 132.118 290.304 132.118Z" stroke="white" stroke-width="0.579677" stroke-miterlimit="10"/>
<path d="M292.623 137.914H287.754V145.334H292.623V137.914Z" stroke="white" stroke-width="0.579677" stroke-miterlimit="10"/>
<path d="M290.304 156.232C291.841 156.232 293.087 154.987 293.087 153.45C293.087 151.913 291.841 150.667 290.304 150.667C288.768 150.667 287.522 151.913 287.522 153.45C287.522 154.987 288.768 156.232 290.304 156.232Z" stroke="white" stroke-width="0.579677" stroke-miterlimit="10"/>
<path d="M292.623 162.261H287.754V169.681H292.623V162.261Z" stroke="white" stroke-width="0.579677" stroke-miterlimit="10"/>
</g>
<path d="M148.306 317.009C152.245 316.511 154.448 308.28 153.228 298.625C152.007 288.969 147.825 281.545 143.887 282.043C139.948 282.541 137.745 290.772 138.965 300.427C140.186 310.083 144.368 317.507 148.306 317.009Z" stroke="#98A2F4" stroke-width="4.63741" stroke-miterlimit="10"/>
<path d="M146.081 304.166C161.384 295.587 183.876 290.022 208.918 290.022C226.772 290.022 243.467 292.804 257.147 297.673" stroke="#45A0D4" stroke-width="2.31871" stroke-miterlimit="10"/>
<path d="M208.686 322.715C213.808 322.715 217.961 307.247 217.961 288.167C217.961 269.086 213.808 253.618 208.686 253.618C203.564 253.618 199.411 269.086 199.411 288.167C199.411 307.247 203.564 322.715 208.686 322.715Z" fill="white" stroke="#98A2F4" stroke-width="4.63741" stroke-miterlimit="10"/>
<path d="M245.322 211.186L234.192 234.604L256.219 237.619L275.697 221.156L276.624 220.228L245.322 211.186Z" fill="#E897A3"/>
<path d="M148.863 285.152H174.137C174.137 285.152 174.137 279.587 171.819 270.081C171.123 267.298 170.659 264.052 170.196 261.501L142.139 274.718L148.863 285.152Z" fill="#E897A3"/>
<path d="M263.799 294.891C265.02 285.235 262.816 277.005 258.878 276.507C254.939 276.009 250.757 283.433 249.537 293.088C248.316 302.744 250.52 310.975 254.458 311.473C258.397 311.97 262.579 304.547 263.799 294.891Z" stroke="#98A2F4" stroke-width="4.63741" stroke-miterlimit="10"/>
<path d="M207.063 227.88V253.85" stroke="#45A0D4" stroke-width="2.31871" stroke-miterlimit="10"/>
<path d="M207.99 247.821C212.088 247.821 215.41 244.499 215.41 240.401C215.41 236.303 212.088 232.981 207.99 232.981C203.892 232.981 200.57 236.303 200.57 240.401C200.57 244.499 203.892 247.821 207.99 247.821Z" fill="white" stroke="#98A2F4" stroke-width="2.31871" stroke-miterlimit="10"/>
<path d="M207.063 234.605V227.88" stroke="#45A0D4" stroke-width="2.31871" stroke-miterlimit="10"/>
<path d="M246.945 216.75H216.106" stroke="#45A0D4" stroke-width="4.63741" stroke-miterlimit="10"/>
<path d="M198.02 216.75H167.181" stroke="#45A0D4" stroke-width="4.63741" stroke-miterlimit="10"/>
<path d="M198.02 216.287H201.498V221.852C201.498 225.33 204.049 227.88 207.063 227.88C210.077 227.88 212.628 225.098 212.628 221.852V216.287H216.106" stroke="#45A0D4" stroke-width="2.31871" stroke-miterlimit="10"/>
<path d="M205.904 285.152H177.615L176.224 296.978H144.458" stroke="#45A0D4" stroke-width="2.31871" stroke-miterlimit="10"/>
<path d="M244.394 248.053H264.335H236.511L234.887 279.819H220.048" stroke="#45A0D4" stroke-width="2.31871" stroke-miterlimit="10"/>
<path d="M238.829 248.053H261.784" stroke="#45A0D4" stroke-width="4.63741" stroke-miterlimit="10"/>
<path d="M152.805 283.993C152.805 283.993 144.458 285.848 141.443 289.79C138.429 293.732 141.443 296.978 141.443 296.978L175.992 295.587C175.992 295.587 179.47 284.92 174.137 283.529C163.935 280.515 152.805 283.993 152.805 283.993Z" fill="#9AF4DC"/>
<path d="M145.154 296.978H167.877" stroke="#45A0D4" stroke-width="4.63741" stroke-miterlimit="10"/>
<path d="M234.424 233.677C234.424 233.677 232.337 232.981 229.554 237.619C226.772 242.256 230.018 247.357 230.018 247.357H264.335C264.335 247.357 265.494 235.3 257.147 234.604C251.35 233.909 234.424 233.677 234.424 233.677Z" fill="#9AF4DC"/>
<path d="M204.281 281.674C204.744 269.385 206.599 260.11 208.686 260.11C209.846 260.11 210.773 262.661 211.7 266.835" stroke="#660000" stroke-width="0.579677" stroke-miterlimit="10" stroke-linejoin="round"/>
<path d="M204.744 301.383C204.513 299.296 204.281 296.746 204.281 294.195" stroke="#660000" stroke-width="0.579677" stroke-miterlimit="10" stroke-linejoin="round"/>
<path d="M213.323 281.906C213.323 283.761 213.323 285.848 213.323 287.935C213.323 303.238 211.237 315.759 208.686 315.759C207.527 315.759 206.599 313.441 205.904 309.731" stroke="#660000" stroke-width="0.579677" stroke-miterlimit="10" stroke-linejoin="round"/>
<path d="M159.53 224.402C171.123 226.721 167.877 222.779 168.572 221.62C169.268 220.46 173.21 224.634 176.224 223.475C179.239 222.547 177.847 220.46 179.47 219.301C181.093 218.142 185.267 220.692 185.963 215.823C186.658 210.954 181.093 210.258 177.847 205.389C177.152 204.23 174.833 201.679 174.601 200.288L146.777 213.968C153.965 221.62 155.356 223.475 159.53 224.402Z" fill="#E897A3"/>
<path d="M215.874 210.722C215.41 213.272 217.729 222.083 221.439 222.547C225.149 223.243 224.685 220.228 225.845 219.069C227.004 217.91 227.931 221.388 231.641 221.852C235.351 222.547 234.424 218.374 235.815 216.982C237.206 215.591 237.206 220.228 240.916 219.997C244.626 219.765 244.858 212.577 248.336 207.707C249.263 206.548 250.655 204.925 252.51 203.07L225.149 194.955C220.512 201.447 217.265 204.693 215.874 210.722Z" fill="#E897A3"/>
<path d="M159.761 229.735C159.761 229.735 165.326 238.546 168.109 248.749" stroke="white" stroke-width="0.579677" stroke-miterlimit="10"/>
<path d="M208.686 268.458C209.613 268.458 210.309 271.704 210.773 276.805C211.005 279.588 211.237 282.834 211.237 286.312C211.237 287.935 211.237 289.558 211.237 291.181" stroke="#660000" stroke-width="0.579677" stroke-miterlimit="10" stroke-linejoin="round"/>
<path d="M152.11 284.225L163.935 282.37" stroke="white" stroke-width="0.579677" stroke-miterlimit="10"/>
<path d="M152.11 285.848L163.935 284.225" stroke="white" stroke-width="0.579677" stroke-miterlimit="10"/>
<path d="M240.452 233.909H250.191" stroke="white" stroke-width="0.579677" stroke-miterlimit="10"/>
<path d="M240.452 235.996H250.191" stroke="white" stroke-width="0.579677" stroke-miterlimit="10"/>
<path d="M228.859 244.343H263.871" stroke="white" stroke-width="0.579677" stroke-miterlimit="10"/>
<path d="M140.516 294.427L176.688 292.804" stroke="white" stroke-width="0.579677" stroke-miterlimit="10"/>
<path d="M229.091 116.582C192.223 111.713 153.733 126.785 137.502 163.652C128.923 182.897 137.038 200.983 146.777 213.968L164.863 205.157L174.833 200.288C172.514 195.187 172.051 192.868 172.051 192.868C172.051 192.868 231.178 177.101 229.323 185.448C228.627 188.694 227.7 191.709 225.149 195.418L244.394 200.983L252.742 203.534C258.77 197.042 265.494 186.144 268.509 174.55C274.537 149.508 265.726 121.452 229.091 116.582Z" fill="#3844E5"/>
<path d="M187.354 136.523C187.354 136.523 185.963 142.088 191.991 149.044C192.455 149.74 193.151 150.204 193.615 150.899C198.716 156 202.658 155.537 206.831 152.522C211.469 149.044 213.324 136.755 209.614 132.118C206.136 127.248 188.745 127.248 187.354 136.523Z" fill="#E897A3"/>
<path d="M199.411 170.84C208.454 173.623 206.831 152.29 206.831 152.29L193.614 150.667C193.614 150.899 189.673 167.826 199.411 170.84Z" fill="#E897A3"/>
<path d="M190.136 110.09C187.122 111.713 182.948 109.626 183.644 116.119C184.572 122.611 186.195 129.799 185.731 130.263C185.267 130.726 206.831 125.162 206.831 125.162C206.831 125.162 204.512 117.278 201.034 114.032C197.788 111.017 194.542 107.771 190.136 110.09Z" fill="#9ECBE3"/>
<path d="M184.34 130.726C181.789 132.813 181.789 135.132 184.34 138.378C186.89 141.624 202.426 130.726 207.527 131.422C212.628 132.118 213.324 130.263 211.237 127.712C209.15 125.162 209.845 122.379 206.136 123.538C202.426 124.698 187.818 127.944 184.34 130.726Z" fill="#9ECBE3"/>
<path d="M204.744 131.886C204.744 131.886 200.107 137.219 197.324 139.074C194.542 140.929 190.368 141.856 190.368 141.856L188.977 138.61L204.744 131.886Z" fill="#052E45"/>
<path d="M196.861 152.754C196.861 152.754 199.875 155.537 204.744 153.914" stroke="white" stroke-width="0.579677" stroke-miterlimit="10"/>
<path d="M237.67 171.072C235.583 175.941 233.032 180.579 233.032 180.579" stroke="white" stroke-width="0.579677" stroke-miterlimit="10"/>
<path d="M240.916 158.551C240.916 158.551 242.307 158.551 239.525 166.203C239.293 167.13 239.061 167.826 238.597 168.521" stroke="white" stroke-width="0.579677" stroke-miterlimit="10"/>
<path d="M177.152 169.681C177.152 169.681 174.833 171.304 173.21 175.941C171.123 181.97 171.819 186.144 171.819 186.144" stroke="white" stroke-width="0.579677" stroke-miterlimit="10"/>
<path d="M187.354 129.335C187.354 129.335 191.991 126.321 196.165 125.393C200.339 124.234 204.744 124.002 204.744 124.002" stroke="white" stroke-width="0.579677" stroke-miterlimit="10"/>
<path d="M65.39 251.067L80.4616 246.198L73.5055 235.532L65.39 251.067Z" fill="#E2603D"/>
<path d="M73.9691 240.865L97.1562 222.083" stroke="#660000" stroke-width="0.579677" stroke-miterlimit="10" stroke-linejoin="round"/>
<path d="M76.056 244.343L89.2727 234.604" stroke="#660000" stroke-width="0.579677" stroke-miterlimit="10" stroke-linejoin="round"/>
<path d="M281.493 229.735L304.681 248.053" stroke="#660000" stroke-width="0.579677" stroke-miterlimit="10" stroke-linejoin="round"/>
<path d="M276.624 244.343L313.724 282.37" stroke="#660000" stroke-width="0.579677" stroke-miterlimit="10" stroke-linejoin="round"/>
<path d="M108.75 261.501L94.3738 278.892" stroke="#660000" stroke-width="0.579677" stroke-miterlimit="10" stroke-linejoin="round"/>
<path d="M105.272 253.618L70.0275 289.558" stroke="#660000" stroke-width="0.579677" stroke-miterlimit="10" stroke-linejoin="round"/>
<path d="M308.158 245.734L303.753 251.995L314.419 256.4L308.158 245.734Z" fill="#E2603D"/>
<path d="M308.159 136.755C308.159 136.755 322.766 140.465 323.462 160.87" stroke="#660000" stroke-width="0.579677" stroke-miterlimit="10" stroke-linejoin="round"/>
<path d="M323.462 145.798C323.462 145.798 327.172 149.276 327.172 160.87" stroke="#660000" stroke-width="0.579677" stroke-miterlimit="10" stroke-linejoin="round"/>
<path d="M97.1563 203.302L76.056 216.287" stroke="#660000" stroke-width="0.579677" stroke-miterlimit="10" stroke-linejoin="round"/>
</svg>
