<svg width="381" height="254" viewBox="0 0 381 254" fill="none" xmlns="http://www.w3.org/2000/svg">
<g clip-path="url(#clip0)">
<path d="M264.473 39.975C251.488 12.3823 246.387 -2.92113 143.436 1.02068C93.1204 3.33938 37.9351 -1.99365 18.9217 48.786C-0.0916574 99.5657 55.5573 111.623 48.1375 133.419C40.7176 155.215 30.5153 155.91 14.2843 172.837C-6.58404 194.865 -14.0039 253.296 64.3684 252.6C94.7435 252.369 131.611 252.6 155.725 252.832C228.301 253.528 264.705 257.933 304.586 223.848C330.556 201.589 322.904 176.083 290.674 157.533C156.653 80.7842 283.023 79.8567 264.473 39.975Z" fill="#F8F9FF"/>
<path d="M347.019 112.319C334.962 108.377 217.403 108.609 204.186 106.058C190.738 103.508 186.564 100.957 186.796 88.436C187.028 73.3644 220.417 67.1038 220.417 67.1038L216.707 30.932C216.707 30.932 210.447 30.7001 158.044 21.8891C105.641 12.8461 80.1356 27.2221 65.9915 34.4101C47.6737 43.9168 38.8626 62.4664 38.8626 62.4664L65.9915 81.9436C65.9915 81.9436 74.107 72.4369 80.8312 80.7842C84.5411 85.6535 81.295 102.348 84.0774 110.464C86.8599 118.579 116.307 116.26 135.089 116.26C155.494 116.26 265.864 119.739 273.284 120.666C286.037 122.521 283.023 127.622 283.023 127.622H357.221C357.221 127.622 357.685 125.767 357.917 124.608C358.149 119.507 354.671 114.869 347.019 112.319Z" fill="#E2603D"/>
<path d="M216.708 30.9319C216.708 30.9319 236.88 33.0188 247.546 23.9758C253.807 18.8746 255.894 13.0779 255.894 12.3823C255.894 11.6866 256.821 5.88988 258.676 6.81736C260.531 7.74485 259.604 10.2954 261.459 10.0636C263.546 9.83168 264.009 5.42614 265.864 6.58549C267.951 7.97672 267.487 10.5273 268.879 10.5273C270.27 10.5273 271.429 7.97672 273.052 9.13607C274.675 10.0636 272.588 14.701 274.212 14.701C275.835 14.701 276.53 12.3823 277.226 14.2372C278.153 16.5559 275.603 18.8746 275.139 21.6571C274.675 24.4395 273.052 30.9319 270.038 37.1924C257.981 61.7707 220.186 66.8719 220.186 66.8719L216.708 30.9319Z" fill="#E897A3"/>
<path d="M39.0946 62.4663C39.0946 62.4663 25.6461 90.9864 26.1099 100.029C26.5736 109.072 25.878 110.927 28.8923 110.464C31.9066 109.768 31.4429 103.507 33.9935 105.826C36.7759 108.377 35.1528 110.695 37.2397 110.464C39.3265 110.464 40.9496 103.971 43.0364 106.058C45.1233 108.145 48.6013 110.927 49.5288 109.072C50.4563 107.217 47.442 103.971 49.5288 104.435C51.6157 105.131 52.3113 108.377 54.3981 106.058C56.4849 103.507 53.4706 102.812 54.3981 100.261C55.3256 97.7107 57.6443 97.2469 58.5718 94.2326C59.4993 91.2183 66.2235 81.9434 66.2235 81.9434L39.0946 62.4663Z" fill="#E897A3"/>
<path d="M244.068 153.128C244.068 153.128 242.909 155.91 246.387 156.838C249.865 157.765 254.039 156.838 254.966 155.447C255.894 154.055 255.662 152.432 253.111 151.737C250.793 151.041 244.532 151.041 244.068 153.128Z" fill="#44A1DB"/>
<path d="M232.243 214.11C229.229 214.805 225.055 215.965 226.446 220.138C227.837 224.312 230.62 223.848 236.88 223.848C242.909 223.848 246.387 220.834 244.068 217.588C241.518 214.11 236.185 213.182 232.243 214.11Z" fill="#44A1DB"/>
<path d="M283.254 127.39C283.254 127.39 280.008 137.129 244.3 136.665C217.171 136.433 94.0479 136.665 94.0479 136.665C94.0479 136.665 75.7301 136.665 80.5994 140.375C85.4687 144.085 94.0479 144.781 106.105 144.781C118.162 144.781 134.625 145.94 136.48 148.027C139.263 151.041 138.335 155.215 126.974 154.983C118.394 154.751 95.4391 154.519 94.5116 159.388C93.5841 164.258 110.974 163.33 115.148 167.504C118.858 170.982 118.394 176.779 110.743 179.329C103.091 181.88 90.1061 185.126 89.6423 191.85C89.1786 198.806 102.859 197.415 101.7 207.154C100.772 215.733 90.1061 212.487 89.6423 219.443C89.1786 226.863 100.077 221.53 97.9897 228.486C95.9028 235.906 85.4687 233.123 85.7005 239.616C85.9324 243.789 91.2654 244.949 91.2654 244.949L123.959 244.717C124.191 241.934 126.046 237.993 130.683 236.369C137.64 233.819 138.567 228.254 133.466 222.921C132.307 221.762 130.915 220.834 130.915 218.284C130.915 213.414 138.335 213.182 139.031 207.386C139.958 199.734 129.524 199.27 133.93 193.473C138.335 187.677 152.247 190.691 156.189 184.199C160.363 177.706 148.306 167.968 172.652 167.736C179.376 167.736 185.869 167.272 179.376 177.474C175.435 183.735 194.912 183.503 200.477 183.503C206.041 183.503 209.751 183.039 209.751 187.445C209.751 191.85 183.086 190.923 174.043 191.618C167.087 192.314 147.146 194.169 148.074 205.763C149.001 217.82 183.086 213.182 179.376 221.298C175.666 229.413 161.059 226.399 156.653 231.268C150.392 238.456 155.262 244.485 155.262 244.485H191.665C191.665 244.485 186.332 240.079 191.897 238.224C197.694 236.138 211.375 232.66 212.07 222.921C212.534 214.805 207.665 210.864 201.868 210.864C196.303 210.864 184.246 211.791 184.477 207.386C184.709 203.676 195.375 204.603 197.694 204.603C218.099 204.371 240.126 205.299 259.372 199.966C276.994 195.096 275.371 176.083 258.676 172.373C241.981 168.663 215.084 174.228 215.084 165.185C215.084 161.475 226.446 163.562 231.779 161.475C235.257 160.084 235.025 152.664 229.692 152.2C219.954 151.505 221.345 149.418 221.345 148.259C221.345 146.635 224.591 146.404 228.765 146.404C241.286 146.635 270.27 146.404 278.849 146.404C312.006 146.172 330.324 142.462 343.309 137.824C353.279 134.346 356.062 129.477 357.221 127.158C356.989 127.39 283.254 127.39 283.254 127.39Z" fill="#98A2F4"/>
<mask id="mask0" mask-type="alpha" maskUnits="userSpaceOnUse" x="38" y="18" width="320" height="110">
<path d="M347.019 112.319C334.962 108.377 217.403 108.609 204.186 106.058C190.738 103.508 186.564 100.957 186.796 88.436C187.028 73.3644 220.417 67.1038 220.417 67.1038L216.707 30.932C216.707 30.932 210.447 30.7001 158.044 21.8891C105.641 12.8461 80.1356 27.2221 65.9915 34.4101C47.6737 43.9168 38.8626 62.4664 38.8626 62.4664L65.9915 81.9436C65.9915 81.9436 74.107 72.4369 80.8312 80.7842C84.5411 85.6535 81.295 102.348 84.0774 110.464C86.8599 118.579 116.307 116.26 135.089 116.26C155.494 116.26 265.864 119.739 273.284 120.666C286.037 122.521 283.023 127.622 283.023 127.622H357.221C357.221 127.622 357.685 125.767 357.917 124.608C358.149 119.507 354.671 114.869 347.019 112.319Z" fill="#E2603D"/>
</mask>
<g mask="url(#mask0)">
<path d="M73.4113 33.2507C73.4113 33.2507 73.6432 32.787 73.8751 32.3233C74.1069 31.8595 75.73 24.9034 85.9323 26.0627C94.7434 26.9902 97.7577 31.8595 97.9896 33.7145C98.6852 36.7288 97.7577 36.2651 97.5259 37.1925C97.294 38.12 97.9896 40.4387 98.2215 40.9025C98.4534 41.3662 98.4534 41.83 98.2215 42.2937C97.7577 43.4531 96.1346 42.0618 96.1346 41.5981C96.1346 41.1344 96.3665 40.9025 96.1346 40.2069C95.9028 39.5113 96.1346 38.5838 95.6709 37.8882C95.2072 36.9607 94.2797 36.0332 93.1203 34.8738C91.961 33.7145 87.7873 31.8595 83.6136 32.3233C79.44 32.787 77.3531 34.4101 76.4256 34.4101C75.4982 34.1782 74.3388 34.642 74.3388 34.642L73.4113 33.2507Z" stroke="white" stroke-width="0.579677" stroke-miterlimit="10"/>
<path d="M86.3963 30.4683C87.0919 30.4683 87.7875 30.7001 88.4831 30.932C94.048 32.787 95.4393 35.8013 95.4393 35.8013" stroke="white" stroke-width="0.579677" stroke-miterlimit="10"/>
<path d="M77.8169 32.0914C77.8169 32.0914 80.1356 30.4683 83.8455 30.2365" stroke="white" stroke-width="0.579677" stroke-miterlimit="10"/>
<path d="M74.107 33.7145L76.1938 32.787" stroke="white" stroke-width="0.579677" stroke-miterlimit="10"/>
<path d="M96.5984 41.3663L97.7577 41.1344" stroke="white" stroke-width="0.579677" stroke-miterlimit="10"/>
<path d="M96.1348 36.9607H97.0623" stroke="white" stroke-width="0.579677" stroke-miterlimit="10"/>
<path d="M95.2071 71.7413C95.2071 71.7413 94.7434 71.7413 94.2796 71.9732C93.8159 72.2051 87.7873 75.6831 81.2949 67.5677C75.9618 60.6115 77.3531 55.0466 78.5124 53.6554C80.3674 51.1048 80.5993 52.0323 81.2949 51.8004C81.9905 51.5686 83.3817 49.2499 83.6136 48.7861C83.8454 48.3224 84.0773 48.0905 84.7729 47.8586C85.9323 47.3949 85.9323 49.4817 85.7004 49.7136C85.4685 49.9455 85.0048 50.1773 84.5411 50.6411C84.0773 51.3367 83.3817 51.8004 83.1498 52.7279C82.918 53.6554 82.6861 55.0466 82.6861 56.6697C82.6861 58.2928 84.3092 62.6984 87.5554 65.4808C90.8016 68.2633 93.3521 68.4951 94.0478 69.4226C94.5115 70.3501 95.6708 70.8138 95.6708 70.8138L95.2071 71.7413Z" stroke="white" stroke-width="0.579677" stroke-miterlimit="10"/>
<path d="M84.3094 64.3215C83.8456 63.8577 83.6137 63.1621 83.3819 62.4665C80.8313 57.1335 82.2225 54.1191 82.2225 54.1191" stroke="white" stroke-width="0.579677" stroke-miterlimit="10"/>
<path d="M91.2654 69.6545C91.2654 69.6545 88.483 69.1907 85.9324 66.6401" stroke="white" stroke-width="0.579677" stroke-miterlimit="10"/>
<path d="M95.2072 71.0456L92.8885 70.1182" stroke="white" stroke-width="0.579677" stroke-miterlimit="10"/>
<path d="M85.0051 49.4817L84.0776 48.7861" stroke="white" stroke-width="0.579677" stroke-miterlimit="10"/>
<path d="M82.2226 52.9598L81.7589 52.2642" stroke="white" stroke-width="0.579677" stroke-miterlimit="10"/>
<path d="M63.2091 45.5399C63.2091 45.5399 63.2091 46.0037 63.441 46.4674C63.6728 46.9311 67.1509 53.1916 58.8036 59.2203C51.6156 64.5533 46.2825 62.6983 44.8913 61.7709C42.3407 59.9159 43.2682 59.684 43.0363 58.9884C42.8045 58.2928 40.4858 56.9016 40.022 56.6697C39.5583 56.4378 39.3264 56.206 39.0945 55.5104C38.6308 54.351 40.7176 54.351 40.9495 54.5829C41.1814 54.8147 41.4132 55.2785 41.877 55.7422C42.5726 56.206 42.8045 56.9016 43.732 57.1334C44.6594 57.3653 46.0507 57.5972 47.6738 57.5972C49.2969 57.5972 53.7024 56.206 56.4848 52.9598C59.2673 49.9455 59.731 47.163 60.4266 46.6993C61.3541 46.2355 61.8179 45.0762 61.8179 45.0762L63.2091 45.5399Z" stroke="white" stroke-width="0.579677" stroke-miterlimit="10"/>
<path d="M55.5573 56.4379C55.0936 56.6697 54.3979 57.1335 53.7023 57.3653C48.3693 59.9159 45.355 58.5247 45.355 58.5247" stroke="white" stroke-width="0.579677" stroke-miterlimit="10"/>
<path d="M60.8904 49.4817C60.8904 49.4817 60.4267 52.2641 57.6442 54.8147" stroke="white" stroke-width="0.579677" stroke-miterlimit="10"/>
<path d="M62.5134 45.5399L61.5859 47.8586" stroke="white" stroke-width="0.579677" stroke-miterlimit="10"/>
<path d="M40.7178 55.2784L40.0222 56.2059" stroke="white" stroke-width="0.579677" stroke-miterlimit="10"/>
<path d="M43.9639 58.0609L43.5002 58.7565" stroke="white" stroke-width="0.579677" stroke-miterlimit="10"/>
<path d="M128.828 22.3528C128.828 22.3528 128.597 22.8166 128.365 23.2803C128.133 23.7441 126.51 30.7002 116.307 29.5408C107.496 28.6133 104.482 23.7441 104.25 21.8891C103.554 19.1066 104.714 19.5704 104.946 18.6429C105.178 17.9473 104.482 15.3967 104.25 14.933C104.018 14.4692 104.018 14.0055 104.25 13.5417C104.714 12.3824 106.337 13.7736 106.337 14.2374C106.337 14.7011 106.105 14.933 106.337 15.6286C106.569 16.3242 106.337 17.2517 106.801 17.9473C107.264 18.8748 108.192 19.8023 109.351 20.9616C110.511 22.121 114.684 23.9759 118.858 23.5122C123.032 23.0485 125.118 21.4254 126.046 21.4254C126.973 21.4254 128.365 21.4254 128.365 21.4254L128.828 22.3528Z" stroke="white" stroke-width="0.579677" stroke-miterlimit="10"/>
<path d="M115.844 25.1353C115.148 25.1353 114.452 24.9034 113.757 24.6715C108.192 22.8166 106.801 19.8022 106.801 19.8022" stroke="white" stroke-width="0.579677" stroke-miterlimit="10"/>
<path d="M124.655 23.744C124.655 23.744 122.336 25.3671 118.626 25.599" stroke="white" stroke-width="0.579677" stroke-miterlimit="10"/>
<path d="M128.365 21.889L126.046 22.8165" stroke="white" stroke-width="0.579677" stroke-miterlimit="10"/>
<path d="M112.366 68.2632C112.366 68.2632 111.902 68.0314 111.438 67.7995C110.974 67.5676 104.018 65.7127 105.41 55.5104C106.569 46.6993 111.438 43.9168 113.293 43.6849C116.307 43.2212 115.844 44.1487 116.771 44.3806C117.467 44.6124 120.017 44.1487 120.481 43.9168C120.945 43.6849 121.409 43.6849 121.872 43.9168C123.032 44.3806 121.64 46.0037 121.177 46.0037C120.713 46.0037 120.481 45.7718 119.785 46.0037C119.09 46.2355 118.162 46.0036 117.467 46.4674C116.771 46.9311 115.38 47.8586 114.221 49.018C113.061 50.1773 111.206 54.351 111.438 58.5247C111.67 62.6983 113.525 64.7852 113.293 65.7127C113.061 66.6401 113.525 67.7995 113.525 67.7995L112.366 68.2632Z" stroke="white" stroke-width="0.579677" stroke-miterlimit="10"/>
<path d="M109.815 55.0466C110.047 54.351 110.047 53.6554 110.279 53.1917C112.134 47.6268 115.38 46.4674 115.38 46.4674" stroke="white" stroke-width="0.579677" stroke-miterlimit="10"/>
<path d="M111.206 63.8577C111.206 63.8577 109.583 61.539 109.583 57.8291" stroke="white" stroke-width="0.579677" stroke-miterlimit="10"/>
<path d="M112.83 67.5677L111.902 65.4808" stroke="white" stroke-width="0.579677" stroke-miterlimit="10"/>
<path d="M120.945 45.0762L120.713 44.1487" stroke="white" stroke-width="0.579677" stroke-miterlimit="10"/>
<path d="M116.539 45.5398V44.8442" stroke="white" stroke-width="0.579677" stroke-miterlimit="10"/>
<path d="M90.1062 86.3491C90.1062 86.3491 90.5699 86.581 91.0337 86.8129C91.4974 87.0447 98.4535 88.8997 97.0623 99.102C95.903 107.913 91.0337 110.696 89.1787 110.927C86.1644 111.391 86.6281 110.464 85.7006 110.232C84.7732 110 82.4545 110.464 81.9907 110.696C81.527 110.927 81.0632 110.927 80.5995 110.696C79.4401 110.232 80.8314 108.609 81.2951 108.609C81.7588 108.609 81.9907 108.841 82.6863 108.609C83.3819 108.377 84.3094 108.609 85.005 108.145C85.9325 107.681 87.0919 106.754 88.2512 105.594C89.4106 104.435 91.2655 100.261 91.0337 96.0877C90.8018 91.914 88.9468 89.8272 89.1787 88.8997C89.4106 87.9722 88.9468 86.8129 88.9468 86.8129L90.1062 86.3491Z" stroke="white" stroke-width="0.579677" stroke-miterlimit="10"/>
<path d="M92.6566 99.5658C92.4248 100.261 92.4248 100.957 92.1929 101.421C90.3379 106.986 87.0917 108.145 87.0917 108.145" stroke="white" stroke-width="0.579677" stroke-miterlimit="10"/>
<path d="M91.2655 90.7546C91.2655 90.7546 92.8886 93.0733 92.8886 96.7833" stroke="white" stroke-width="0.579677" stroke-miterlimit="10"/>
<path d="M89.6423 87.0448L90.5698 89.1316" stroke="white" stroke-width="0.579677" stroke-miterlimit="10"/>
<path d="M81.5268 109.304L81.7587 110.464" stroke="white" stroke-width="0.579677" stroke-miterlimit="10"/>
<path d="M85.9324 108.841V109.768" stroke="white" stroke-width="0.579677" stroke-miterlimit="10"/>
<path d="M106.105 87.0448C106.105 87.0448 106.337 86.5811 106.569 86.1173C106.801 85.6536 108.424 78.6975 118.626 79.8568C127.437 80.7843 130.452 85.6536 130.684 87.5085C131.379 90.5229 130.452 90.0591 130.22 90.9866C129.988 91.9141 130.684 94.2328 130.915 94.6965C131.147 95.1603 131.147 95.624 130.915 96.0878C130.452 97.2471 128.829 95.8559 128.829 95.3922C128.829 94.9284 129.06 94.6965 128.829 94.0009C128.597 93.3053 128.829 92.3778 128.365 91.6822C127.901 90.7547 126.974 89.8273 125.814 88.6679C124.655 87.5085 120.481 85.6536 116.308 86.1173C112.134 86.5811 110.047 88.2042 109.12 88.2042C108.192 87.9723 107.033 88.436 107.033 88.436L106.105 87.0448Z" stroke="white" stroke-width="0.579677" stroke-miterlimit="10"/>
<path d="M119.322 84.2623C120.017 84.2623 120.713 84.4942 121.409 84.7261C126.974 86.581 128.365 89.5954 128.365 89.5954" stroke="white" stroke-width="0.579677" stroke-miterlimit="10"/>
<path d="M110.511 85.8854C110.511 85.8854 112.829 84.2623 116.539 84.0304" stroke="white" stroke-width="0.579677" stroke-miterlimit="10"/>
<path d="M106.801 87.5085L108.888 86.5811" stroke="white" stroke-width="0.579677" stroke-miterlimit="10"/>
<path d="M129.524 95.1602L130.452 94.9283" stroke="white" stroke-width="0.579677" stroke-miterlimit="10"/>
<path d="M128.828 90.7546H129.756" stroke="white" stroke-width="0.579677" stroke-miterlimit="10"/>
<path d="M105.873 125.303C105.873 125.303 105.641 124.84 105.409 124.376C104.946 123.912 100.308 118.811 106.801 110.696C112.366 103.971 118.162 104.203 119.785 104.899C122.8 106.058 121.872 106.522 122.336 107.218C122.8 107.913 125.35 108.609 125.814 108.841C126.278 109.073 126.742 109.073 126.973 109.536C127.669 110.464 125.582 111.159 125.35 110.927C125.118 110.696 124.887 110.232 124.191 110C123.495 109.768 123.032 109.073 121.872 109.073C120.945 109.073 119.554 109.304 117.93 109.536C116.307 109.768 112.366 112.319 110.511 116.029C108.656 119.739 108.888 122.521 108.192 123.217C107.496 123.912 107.264 125.072 107.264 125.072L105.873 125.303Z" stroke="white" stroke-width="0.579677" stroke-miterlimit="10"/>
<path d="M110.743 112.782C111.206 112.319 111.67 111.855 112.366 111.391C117.003 107.681 120.249 108.377 120.249 108.377" stroke="white" stroke-width="0.579677" stroke-miterlimit="10"/>
<path d="M107.264 121.13C107.264 121.13 107.033 118.347 109.119 115.101" stroke="white" stroke-width="0.579677" stroke-miterlimit="10"/>
<path d="M106.569 125.072L107.033 122.753" stroke="white" stroke-width="0.579677" stroke-miterlimit="10"/>
<path d="M125.582 110.464L125.814 109.536" stroke="white" stroke-width="0.579677" stroke-miterlimit="10"/>
<path d="M121.641 108.609L122.104 107.913" stroke="white" stroke-width="0.579677" stroke-miterlimit="10"/>
<path d="M152.711 50.4092C152.711 50.4092 152.711 50.8729 152.943 51.3367C153.175 51.8004 156.653 57.829 148.537 64.3214C141.581 69.6545 136.016 68.2632 134.625 67.1039C132.075 65.2489 133.002 65.017 132.77 64.3214C132.538 63.6258 130.22 62.2346 129.756 62.0027C129.292 61.7708 129.06 61.539 128.828 60.8434C128.365 59.684 130.451 59.684 130.683 59.9159C130.915 60.1478 131.147 60.6115 131.611 61.0752C132.075 61.539 132.77 62.2346 133.698 62.4665C134.625 62.6983 136.016 62.9302 137.639 62.9302C139.263 62.9302 143.668 61.3071 146.451 58.0609C149.233 54.8147 149.465 52.2641 150.392 51.5685C151.32 51.1048 151.784 49.9454 151.784 49.9454L152.711 50.4092Z" stroke="white" stroke-width="0.579677" stroke-miterlimit="10"/>
<path d="M145.291 61.5389C144.828 62.0027 144.132 62.2346 143.436 62.4664C138.103 65.017 135.089 63.6258 135.089 63.6258" stroke="white" stroke-width="0.579677" stroke-miterlimit="10"/>
<path d="M150.392 54.351C150.392 54.351 149.929 57.1334 147.378 59.684" stroke="white" stroke-width="0.579677" stroke-miterlimit="10"/>
<path d="M152.015 50.6411L151.088 52.7279" stroke="white" stroke-width="0.579677" stroke-miterlimit="10"/>
<path d="M130.452 60.6115L129.756 61.5389" stroke="white" stroke-width="0.579677" stroke-miterlimit="10"/>
<path d="M133.698 63.3939L133.234 64.0895" stroke="white" stroke-width="0.579677" stroke-miterlimit="10"/>
<path d="M167.087 37.8881C167.087 37.8881 166.623 38.12 166.392 38.5838C166.16 39.0475 161.754 44.6124 152.711 39.7431C145.059 35.5694 144.132 29.7727 144.596 28.1496C145.291 25.1353 145.987 25.8309 146.451 25.1353C146.914 24.4396 147.378 21.8891 147.378 21.4253C147.378 20.9616 147.378 20.4978 147.842 20.0341C148.537 19.1066 149.465 21.1935 149.233 21.4253C149.001 21.6572 148.769 22.1209 148.769 22.8165C148.769 23.5122 148.306 24.2078 148.306 25.1353C148.537 26.0627 149.001 27.454 149.465 29.0771C150.161 30.4683 153.407 33.9463 157.349 35.1057C161.29 36.2651 164.073 35.5694 164.768 36.0332C165.464 36.4969 166.855 36.7288 166.855 36.7288L167.087 37.8881Z" stroke="white" stroke-width="0.579677" stroke-miterlimit="10"/>
<path d="M153.871 35.3376C153.407 34.8738 152.711 34.642 152.248 34.1782C147.842 30.2364 147.842 26.9902 147.842 26.9902" stroke="white" stroke-width="0.579677" stroke-miterlimit="10"/>
<path d="M162.45 37.1926C162.45 37.1926 159.667 37.8882 156.189 36.4969" stroke="white" stroke-width="0.579677" stroke-miterlimit="10"/>
<path d="M166.624 37.1925H164.305" stroke="white" stroke-width="0.579677" stroke-miterlimit="10"/>
<path d="M148.537 21.4254L147.61 21.1935" stroke="white" stroke-width="0.579677" stroke-miterlimit="10"/>
<path d="M147.61 25.5991L146.683 25.3672" stroke="white" stroke-width="0.579677" stroke-miterlimit="10"/>
<path d="M185.173 4.03503C185.173 4.03503 185.405 4.49878 186.101 4.73065C186.564 4.96252 192.825 7.97684 189.811 17.9473C187.028 26.2946 181.695 28.1496 179.84 28.1496C176.594 28.1496 177.29 27.2221 176.594 26.9902C175.898 26.5265 173.348 26.7584 172.884 26.7584C172.42 26.7584 171.956 26.7584 171.493 26.5265C170.333 25.8309 172.188 24.4397 172.42 24.6715C172.652 24.9034 173.116 25.1353 173.811 25.1353C174.507 25.1353 175.203 25.3671 176.13 25.1353C177.058 24.9034 178.217 24.2078 179.608 23.2803C180.999 22.3528 183.55 18.6429 184.014 14.4692C184.478 10.2955 183.55 7.5131 183.782 6.58561C184.014 5.65813 184.014 4.49878 184.014 4.49878L185.173 4.03503Z" stroke="white" stroke-width="0.579677" stroke-miterlimit="10"/>
<path d="M185.173 17.4835C184.941 18.1791 184.709 18.6429 184.246 19.3385C181.231 24.4396 177.985 25.1353 177.985 25.1353" stroke="white" stroke-width="0.579677" stroke-miterlimit="10"/>
<path d="M172.42 25.1353V26.2946" stroke="white" stroke-width="0.579677" stroke-miterlimit="10"/>
<path d="M176.826 25.599V26.2946" stroke="white" stroke-width="0.579677" stroke-miterlimit="10"/>
<path d="M173.811 52.7279C173.811 52.7279 174.043 52.2642 174.275 51.8004C174.507 51.3367 176.13 44.3806 186.332 45.5399C195.144 46.4674 198.158 51.3367 198.39 53.1917C199.085 56.206 198.158 55.7422 197.926 56.6697C197.694 57.5972 198.39 59.9159 198.622 60.3796C198.853 60.8434 198.853 61.3071 198.622 61.7709C198.158 62.9302 196.535 61.539 196.535 61.0753C196.535 60.6115 196.767 60.3797 196.535 59.684C196.303 58.9884 196.535 58.0609 196.071 57.3653C195.607 56.6697 194.68 55.5104 193.52 54.351C192.361 53.1917 188.187 51.3367 184.014 51.8004C179.84 52.2642 177.753 53.8873 176.826 53.8873C175.898 53.6554 174.739 54.1191 174.739 54.1191L173.811 52.7279Z" stroke="white" stroke-width="0.579677" stroke-miterlimit="10"/>
<path d="M186.796 49.7136C187.492 49.7136 188.187 49.9455 188.883 50.1774C194.448 52.0323 195.839 55.0466 195.839 55.0466" stroke="white" stroke-width="0.579677" stroke-miterlimit="10"/>
<path d="M178.217 51.3367C178.217 51.3367 180.536 49.7136 184.246 49.4817" stroke="white" stroke-width="0.579677" stroke-miterlimit="10"/>
<path d="M174.507 53.1916L176.594 52.0322" stroke="white" stroke-width="0.579677" stroke-miterlimit="10"/>
<path d="M196.999 60.6115L198.158 60.3796" stroke="white" stroke-width="0.579677" stroke-miterlimit="10"/>
<path d="M196.535 56.2059H197.231" stroke="white" stroke-width="0.579677" stroke-miterlimit="10"/>
<path d="M216.939 45.0762C216.939 45.0762 216.476 44.8443 215.78 45.0762C215.316 45.308 208.36 46.4674 204.882 36.7288C202.1 28.6133 205.346 23.744 206.737 22.5847C209.288 20.7297 209.288 21.6572 209.983 21.6572C210.679 21.6572 212.766 19.8022 212.998 19.5704C213.461 19.1066 213.693 19.1066 214.389 18.8748C215.548 18.8748 215.084 20.9616 214.621 20.9616C214.157 20.9616 213.693 20.9616 213.229 21.4253C212.766 21.8891 211.838 22.1209 211.374 22.8166C210.911 23.5122 210.215 24.9034 209.751 26.5265C209.288 28.1496 209.288 32.787 211.606 36.2651C213.925 39.7431 216.244 41.1343 216.476 42.0618C216.708 42.9893 217.635 43.9168 217.635 43.9168L216.939 45.0762Z" stroke="white" stroke-width="0.579677" stroke-miterlimit="10"/>
<path d="M208.824 34.4101C208.592 33.7145 208.592 33.0189 208.36 32.3233C207.664 26.5265 209.751 23.976 209.751 23.976" stroke="white" stroke-width="0.579677" stroke-miterlimit="10"/>
<path d="M213.925 41.5981C213.925 41.5981 211.374 40.2069 209.751 36.9607" stroke="white" stroke-width="0.579677" stroke-miterlimit="10"/>
<path d="M217.171 44.3805L215.316 42.7574" stroke="white" stroke-width="0.579677" stroke-miterlimit="10"/>
<path d="M214.389 20.4979L213.693 19.8022" stroke="white" stroke-width="0.579677" stroke-miterlimit="10"/>
<path d="M210.679 23.0485L210.215 22.121" stroke="white" stroke-width="0.579677" stroke-miterlimit="10"/>
<path d="M155.03 96.0877C155.03 96.0877 154.798 95.624 154.334 95.3921C153.87 95.1602 148.306 90.7547 153.639 81.7117C158.044 74.06 163.841 73.3644 165.464 73.8281C168.478 74.5237 167.783 75.2193 168.246 75.6831C168.71 76.1468 171.493 76.6106 171.956 76.6106C172.42 76.6106 172.884 76.8424 173.348 77.3062C174.275 78.2336 172.188 79.1611 171.956 78.9293C171.725 78.6974 171.261 78.4655 170.565 78.2336C169.87 78.2336 169.174 77.538 168.246 77.7699C167.319 77.7699 165.928 78.2336 164.305 78.9293C162.682 79.393 159.435 82.6392 158.044 86.581C156.653 90.5228 157.349 93.3052 156.885 94.0009C156.189 94.6965 156.189 96.0877 156.189 96.0877H155.03Z" stroke="white" stroke-width="0.579677" stroke-miterlimit="10"/>
<path d="M158.044 83.1029C158.508 82.6392 158.74 81.9436 159.203 81.4799C163.145 77.0743 166.391 77.3062 166.391 77.3062" stroke="white" stroke-width="0.579677" stroke-miterlimit="10"/>
<path d="M155.726 91.6821C155.726 91.6821 155.03 88.8997 156.653 85.4216" stroke="white" stroke-width="0.579677" stroke-miterlimit="10"/>
<path d="M155.725 95.8559V93.3053" stroke="white" stroke-width="0.579677" stroke-miterlimit="10"/>
<path d="M171.956 78.2336L172.188 77.3062" stroke="white" stroke-width="0.579677" stroke-miterlimit="10"/>
<path d="M167.783 77.0743L168.247 76.1469" stroke="white" stroke-width="0.579677" stroke-miterlimit="10"/>
<path d="M190.042 70.582C190.042 70.582 190.042 71.0457 189.81 71.5094C189.579 71.9732 186.332 78.2337 194.912 84.0305C202.1 88.8998 207.665 87.0448 209.056 86.1173C211.606 84.2623 210.447 83.7986 210.911 83.103C211.374 82.4074 213.229 80.7843 213.693 80.5524C214.157 80.3205 214.389 80.0887 214.621 79.3931C215.084 78.2337 212.766 78.2337 212.766 78.4656C212.534 78.6974 212.534 79.1612 211.838 79.6249C211.143 80.0887 210.911 80.7843 209.983 81.0162C209.056 81.248 207.665 81.4799 206.041 81.7118C204.418 81.9436 200.013 80.5524 196.998 77.5381C193.984 74.5238 193.52 71.7413 192.825 71.2776C191.897 70.8138 191.434 69.8864 191.434 69.8864L190.042 70.582Z" stroke="white" stroke-width="0.579677" stroke-miterlimit="10"/>
<path d="M198.158 81.248C198.622 81.4799 199.317 81.9437 200.013 82.1755C205.578 84.4942 208.36 82.8711 208.36 82.8711" stroke="white" stroke-width="0.579677" stroke-miterlimit="10"/>
<path d="M192.593 74.2919C192.593 74.2919 193.289 77.0743 196.071 79.393" stroke="white" stroke-width="0.579677" stroke-miterlimit="10"/>
<path d="M190.97 70.5819L191.897 72.6687" stroke="white" stroke-width="0.579677" stroke-miterlimit="10"/>
<path d="M212.998 79.3931L213.693 80.3206" stroke="white" stroke-width="0.579677" stroke-miterlimit="10"/>
<path d="M209.751 82.4073L210.447 82.8711" stroke="white" stroke-width="0.579677" stroke-miterlimit="10"/>
<path d="M168.015 105.131C168.015 105.131 168.478 105.363 168.942 105.363C169.406 105.363 176.594 106.29 176.826 116.492C177.057 125.303 172.652 128.782 170.797 129.477C167.783 130.405 168.015 129.477 167.319 129.477C166.623 129.477 164.073 130.405 163.609 130.637C163.145 130.868 162.913 130.868 162.218 130.868C161.058 130.637 162.218 128.782 162.45 128.782C162.913 128.782 163.145 129.013 163.841 128.55C164.536 128.318 165.232 128.318 166.16 127.854C166.855 127.158 167.783 126.231 168.942 124.84C169.869 123.449 171.261 119.043 170.333 115.101C169.406 110.928 167.319 109.073 167.551 108.145C167.551 107.218 167.087 106.058 167.087 106.058L168.015 105.131Z" stroke="white" stroke-width="0.579677" stroke-miterlimit="10"/>
<path d="M172.42 117.652C172.42 118.347 172.42 119.043 172.188 119.739C171.029 125.535 168.246 127.158 168.246 127.158" stroke="white" stroke-width="0.579677" stroke-miterlimit="10"/>
<path d="M169.87 109.073C169.87 109.073 171.725 111.159 172.42 114.637" stroke="white" stroke-width="0.579677" stroke-miterlimit="10"/>
<path d="M167.551 105.594L168.71 107.681" stroke="white" stroke-width="0.579677" stroke-miterlimit="10"/>
<path d="M212.998 120.202C212.998 120.202 212.534 120.202 212.07 120.434C211.606 120.666 205.114 123.68 199.549 114.869C194.68 107.449 196.767 102.116 197.926 100.725C200.013 98.4064 200.245 99.3339 200.94 99.1021C201.636 98.8702 203.259 96.7834 203.491 96.3196C203.723 95.8559 203.955 95.624 204.65 95.3921C205.81 94.9284 205.81 97.2471 205.346 97.2471C204.882 97.2471 204.65 97.479 204.187 98.1746C203.723 98.6383 203.027 99.1021 202.563 100.03C202.1 100.957 201.868 102.348 201.868 103.971C201.636 105.594 203.027 110 205.81 113.014C208.824 116.029 211.374 116.492 211.838 117.42C212.302 118.347 213.229 119.043 213.229 119.043L212.998 120.202Z" stroke="white" stroke-width="0.579677" stroke-miterlimit="10"/>
<path d="M202.795 111.623C202.563 111.159 202.1 110.464 201.868 109.768C199.781 104.203 201.404 101.421 201.404 101.421" stroke="white" stroke-width="0.579677" stroke-miterlimit="10"/>
<path d="M209.288 117.42C209.288 117.42 206.505 116.724 204.186 113.942" stroke="white" stroke-width="0.579677" stroke-miterlimit="10"/>
<path d="M212.998 119.275L210.911 118.347" stroke="white" stroke-width="0.579677" stroke-miterlimit="10"/>
<path d="M204.882 97.0152L203.955 96.3196" stroke="white" stroke-width="0.579677" stroke-miterlimit="10"/>
<path d="M201.868 100.03L201.172 99.334" stroke="white" stroke-width="0.579677" stroke-miterlimit="10"/>
<path d="M219.954 104.203C219.954 104.203 220.186 103.74 220.418 103.276C220.649 102.812 222.273 95.8559 232.475 97.0153C241.286 97.9427 244.3 102.812 244.532 104.667C245.228 107.681 244.3 107.218 244.068 108.145C243.836 108.841 244.532 111.391 244.764 111.855C244.996 112.319 244.996 112.782 244.764 113.246C244.3 114.406 242.677 113.014 242.677 112.551C242.677 112.087 242.909 111.855 242.677 111.159C242.445 110.464 242.677 109.536 242.213 108.841C241.75 107.913 240.822 106.986 239.663 105.826C238.503 104.667 234.33 102.812 230.156 103.276C225.982 103.74 223.896 105.363 222.968 105.363C222.041 105.131 220.881 105.594 220.881 105.594L219.954 104.203Z" stroke="white" stroke-width="0.579677" stroke-miterlimit="10"/>
<path d="M232.938 101.189C233.634 101.189 234.33 101.421 235.025 101.653C240.59 103.508 241.981 106.522 241.981 106.522" stroke="white" stroke-width="0.579677" stroke-miterlimit="10"/>
<path d="M224.359 102.812C224.359 102.812 226.678 101.189 230.388 100.957" stroke="white" stroke-width="0.579677" stroke-miterlimit="10"/>
<path d="M220.649 104.667L222.736 103.508" stroke="white" stroke-width="0.579677" stroke-miterlimit="10"/>
<path d="M243.141 112.087L244.3 111.855" stroke="white" stroke-width="0.579677" stroke-miterlimit="10"/>
<path d="M242.677 107.681H243.373" stroke="white" stroke-width="0.579677" stroke-miterlimit="10"/>
<path d="M271.197 123.217C271.197 123.217 270.965 122.753 270.733 122.289C270.27 121.825 265.864 116.492 273.052 108.841C279.081 102.348 284.878 103.044 286.269 103.739C289.051 105.131 288.124 105.594 288.587 106.29C289.051 106.986 291.37 107.913 291.834 108.145C292.297 108.377 292.529 108.377 292.993 109.072C293.689 110.232 291.602 110.464 291.37 110.232C291.138 110 290.906 109.536 290.211 109.304C289.515 109.072 289.051 108.377 288.124 108.377C287.196 108.145 285.805 108.377 284.182 108.609C282.559 108.841 278.617 111.159 276.298 114.637C273.98 118.115 274.211 120.898 273.516 121.593C272.82 122.289 272.357 123.448 272.357 123.448L271.197 123.217Z" stroke="white" stroke-width="0.579677" stroke-miterlimit="10"/>
<path d="M276.994 111.159C277.458 110.696 277.921 110.232 278.617 110C283.486 106.522 286.732 107.449 286.732 107.449" stroke="white" stroke-width="0.579677" stroke-miterlimit="10"/>
<path d="M272.82 119.043C272.82 119.043 272.82 116.261 274.907 113.246" stroke="white" stroke-width="0.579677" stroke-miterlimit="10"/>
<path d="M272.125 123.217L272.588 120.898" stroke="white" stroke-width="0.579677" stroke-miterlimit="10"/>
<path d="M291.834 109.536L292.297 108.609" stroke="white" stroke-width="0.579677" stroke-miterlimit="10"/>
<path d="M287.892 107.449L288.355 106.754" stroke="white" stroke-width="0.579677" stroke-miterlimit="10"/>
<path d="M312.934 119.043C312.934 119.043 313.398 118.811 313.63 118.347C313.861 117.884 317.803 111.855 327.078 116.26C335.193 119.97 336.353 125.535 336.121 127.39C335.657 130.405 334.962 129.709 334.498 130.405C334.034 131.1 333.802 133.651 333.802 134.115C333.802 134.578 333.802 135.042 333.339 135.506C332.643 136.433 331.484 134.578 331.715 134.346C331.947 134.115 332.179 133.651 332.179 132.955C332.179 132.26 332.643 131.564 332.411 130.636C332.179 129.709 331.715 128.318 331.02 126.927C330.324 125.535 326.846 122.289 322.672 121.362C318.499 120.434 315.948 121.362 315.253 120.898C314.325 120.434 313.166 120.434 313.166 120.434L312.934 119.043Z" stroke="white" stroke-width="0.579677" stroke-miterlimit="10"/>
<path d="M326.383 120.666C326.846 120.898 327.542 121.362 328.006 121.825C332.643 125.303 332.875 128.55 332.875 128.55" stroke="white" stroke-width="0.579677" stroke-miterlimit="10"/>
<path d="M317.571 119.275C317.571 119.275 320.354 118.347 323.832 119.507" stroke="white" stroke-width="0.579677" stroke-miterlimit="10"/>
<path d="M313.398 119.739L315.716 119.507" stroke="white" stroke-width="0.579677" stroke-miterlimit="10"/>
</g>
<path d="M142.045 29.7726C142.045 29.7726 141.118 30.4682 137.408 31.3957C134.162 32.0913 132.539 31.6275 132.307 31.3957C134.393 36.9606 138.335 37.8881 142.741 37.4243C145.523 37.1924 147.61 35.5694 149.233 33.4825C149.233 33.4825 148.538 33.0188 146.683 32.555C144.828 31.8594 142.045 29.7726 142.045 29.7726Z" fill="#E897A3"/>
<path d="M150.856 23.9758C148.769 18.8747 141.349 15.8603 133.93 19.8021C133.93 19.8021 129.292 22.8165 131.611 30.2363C131.611 30.7001 131.843 30.9319 132.075 31.1638C132.306 31.3957 133.93 31.8594 137.176 31.1638C140.886 30.2363 141.813 29.5407 141.813 29.5407C141.813 29.5407 144.596 31.6276 146.451 32.3232C148.306 32.7869 149.001 33.2506 149.001 33.2506C151.32 30.7001 152.015 26.9901 150.856 23.9758Z" fill="#3844E5"/>
<path d="M185.869 78.9292C185.869 78.9292 187.26 69.4225 224.823 61.7708" stroke="#660000" stroke-width="0.579677" stroke-miterlimit="10" stroke-linejoin="round"/>
<path d="M124.655 247.731L124.423 244.717L91.7294 244.949C91.7294 244.949 90.5701 245.181 89.1788 245.644C85.237 246.804 78.049 248.89 75.9622 249.818C75.2666 250.05 75.0347 250.282 74.8029 250.745H124.887L124.655 247.731Z" fill="#9AF4DC"/>
<path d="M212.766 248.89C210.447 248.195 192.129 244.717 192.129 244.717H155.957C155.957 244.717 155.957 247.731 155.957 250.514H213.925C213.925 249.818 213.693 249.122 212.766 248.89Z" fill="#9AF4DC"/>
<path d="M213.23 253.064C213.23 253.064 213.693 251.673 213.693 250.514H155.726C155.726 251.209 155.726 252.137 155.726 252.832C155.957 254.223 213.23 253.064 213.23 253.064Z" fill="#5BBCA0"/>
<path d="M76.6577 253.528C78.9764 253.992 125.119 253.528 125.119 253.528V250.514H74.8027C73.8752 251.673 74.8027 253.064 76.6577 253.528Z" fill="#5BBCA0"/>
<path d="M89.4106 244.717L91.4975 248.427" stroke="white" stroke-width="0.579677" stroke-miterlimit="10"/>
<path d="M87.3237 245.412L89.4106 249.122" stroke="white" stroke-width="0.579677" stroke-miterlimit="10"/>
<path d="M195.839 243.789L194.448 247.963" stroke="white" stroke-width="0.579677" stroke-miterlimit="10"/>
<path d="M193.752 242.862L192.593 246.804" stroke="white" stroke-width="0.579677" stroke-miterlimit="10"/>
<path d="M281.168 102.348C303.891 102.348 328.701 102.348 341.918 102.58C347.946 102.58 357.917 103.507 364.641 110" stroke="#660000" stroke-width="0.579677" stroke-miterlimit="10" stroke-linejoin="round"/>
<path d="M310.615 150.114C310.615 150.114 331.252 148.49 341.454 145.244C359.308 139.679 364.641 132.491 364.641 132.491" stroke="#660000" stroke-width="0.579677" stroke-miterlimit="10" stroke-linejoin="round"/>
<path d="M235.257 208.545C235.257 208.545 256.821 207.386 264.937 204.371C272.82 201.357 272.82 197.647 272.82 197.647" stroke="#660000" stroke-width="0.579677" stroke-miterlimit="10" stroke-linejoin="round"/>
<path d="M224.823 61.7708C267.487 53.1916 269.574 28.1495 269.574 28.1495" stroke="#660000" stroke-width="0.579677" stroke-miterlimit="10" stroke-linejoin="round"/>
<path d="M142.509 28.1495C142.509 28.1495 146.219 31.8595 151.32 32.3232" stroke="white" stroke-width="0.579677" stroke-miterlimit="10" stroke-linejoin="round"/>
<path d="M143.436 25.8308C143.436 25.8308 147.146 29.5407 151.552 30.2364" stroke="white" stroke-width="0.579677" stroke-miterlimit="10" stroke-linejoin="round"/>
<path d="M141.349 28.1495C141.349 28.1495 136.48 30.932 130.683 29.7726" stroke="white" stroke-width="0.579677" stroke-miterlimit="10" stroke-linejoin="round"/>
<path d="M141.813 25.8308C141.813 25.8308 139.031 27.4539 136.248 27.6858" stroke="white" stroke-width="0.579677" stroke-miterlimit="10" stroke-linejoin="round"/>
<path d="M218.562 217.124C218.562 217.124 225.055 232.196 208.36 237.529" stroke="#660000" stroke-width="0.579677" stroke-miterlimit="10" stroke-linejoin="round"/>
<path d="M104.714 151.737C104.714 151.737 88.4831 151.041 88.0194 157.765C87.5556 164.49 96.3667 166.113 104.714 167.272" stroke="#660000" stroke-width="0.579677" stroke-miterlimit="10" stroke-linejoin="round"/>
<path d="M111.206 172.837C111.206 177.242 104.946 177.242 96.1349 180.257C85.7007 183.503 85.7007 189.532 85.7007 189.532" stroke="#660000" stroke-width="0.579677" stroke-miterlimit="10" stroke-linejoin="round"/>
<path d="M194.216 163.794C194.216 163.794 207.433 163.562 232.011 163.098C239.895 162.866 241.518 157.533 239.431 153.823C237.808 151.041 235.025 151.041 231.547 151.041" stroke="#660000" stroke-width="0.579677" stroke-miterlimit="10" stroke-linejoin="round"/>
<path d="M121.641 167.272H147.378" stroke="#660000" stroke-width="0.579677" stroke-miterlimit="10" stroke-linejoin="round"/>
<path d="M151.552 194.865H221.809" stroke="#660000" stroke-width="0.579677" stroke-miterlimit="10" stroke-linejoin="round"/>
<path d="M87.3237 214.805H105.41" stroke="#660000" stroke-width="0.579677" stroke-miterlimit="10" stroke-linejoin="round"/>
<path d="M109.351 214.805H117.699" stroke="#660000" stroke-width="0.579677" stroke-miterlimit="10" stroke-linejoin="round"/>
<path d="M152.943 143.389H262.85" stroke="#660000" stroke-width="0.579677" stroke-miterlimit="10" stroke-linejoin="round"/>
<path d="M149.465 239.152H174.739" stroke="#660000" stroke-width="0.579677" stroke-miterlimit="10" stroke-linejoin="round"/>
<path d="M177.753 239.152H188.187" stroke="#660000" stroke-width="0.579677" stroke-miterlimit="10" stroke-linejoin="round"/>
<path d="M335.657 153.36C335.657 153.36 376.698 149.65 380.64 119.507" stroke="#660000" stroke-width="0.579677" stroke-miterlimit="10" stroke-linejoin="round"/>
<path d="M152.943 120.202C152.943 120.202 276.53 118.115 274.907 127.39C273.98 132.491 256.821 133.651 256.821 133.651" stroke="#660000" stroke-width="0.579677" stroke-miterlimit="10" stroke-linejoin="round"/>
<path d="M272.125 100.493L257.981 94.6964L256.589 106.754L272.125 100.493Z" fill="#D63C30"/>
<path d="M251.488 99.1019H262.618" stroke="#660000" stroke-width="0.579677" stroke-miterlimit="10" stroke-linejoin="round"/>
<path d="M232.939 102.58C232.939 102.58 245.691 102.58 262.85 102.58" stroke="#660000" stroke-width="0.579677" stroke-miterlimit="10" stroke-linejoin="round"/>
<path d="M333.57 158.693L332.643 149.65L319.658 154.055L333.57 158.693Z" fill="#45A0D4"/>
</g>
<defs>
<clipPath id="clip0">
<rect width="380.5" height="253.203" fill="white" transform="translate(0.372192 0.556885)"/>
</clipPath>
</defs>
</svg>
