<svg width="291" height="286" viewBox="0 0 291 286" fill="none" xmlns="http://www.w3.org/2000/svg">
<g clip-path="url(#clip0)">
<path d="M151.183 5.61411C108.982 17.6714 54.0288 21.1495 46.1452 55.2345C38.2616 89.3195 79.3027 117.84 68.6367 149.838C57.9706 181.836 65.8542 179.981 99.2436 207.11C132.633 234.239 162.081 224.5 211.933 207.11C261.785 189.719 296.566 166.301 289.609 106.71C282.653 47.119 233.729 -18.2686 151.183 5.61411Z" fill="#F8F9FF"/>
<path d="M156.979 250.702C157.211 256.498 157.443 265.773 155.124 269.251C151.646 274.352 146.081 275.744 140.053 271.57C135.184 268.324 131.242 254.18 129.387 246.296C129.155 246.064 128.923 245.6 128.691 245.369C128.691 245.369 133.56 271.57 140.517 276.207C146.545 280.381 152.11 278.99 155.588 273.889C158.834 268.787 156.979 250.702 156.979 250.702Z" fill="#F39684"/>
<path d="M140.053 271.802C146.081 275.975 151.646 274.584 155.124 269.483C157.443 266.005 157.211 256.498 156.979 250.933C156.052 251.861 155.124 252.788 154.197 253.716C147.009 259.049 136.111 254.411 129.619 246.76C131.474 254.411 135.183 268.556 140.053 271.802Z" fill="#E2603D"/>
<path d="M110.605 207.11L98.3162 244.441C100.867 245.369 104.345 245.369 107.359 242.122C111.765 237.485 114.779 227.283 116.17 221.718C114.315 217.312 112.46 212.443 110.605 207.11Z" fill="#E2603D"/>
<path d="M107.359 196.676L93.9106 242.122C93.9106 242.122 95.7655 243.745 98.3161 244.441L110.605 207.11C109.446 203.864 108.287 200.386 107.359 196.676Z" fill="#F39684"/>
<path d="M180.398 218.935C184.804 215.689 187.355 217.312 187.355 217.312C195.702 202.704 206.136 171.402 206.136 171.402L205.44 171.17C169.5 183.227 132.401 158.185 129.155 151.229C128.227 149.374 127.764 147.751 127.532 146.128C110.605 141.027 99.7074 134.302 99.7074 134.302C99.7074 134.302 99.7074 133.607 99.7074 132.679C99.0118 137.317 98.7799 147.055 101.562 168.156C102.954 178.822 105.04 188.328 107.359 197.139C109.91 206.646 113.156 215.225 116.17 222.181C120.576 232.847 124.981 240.267 127.764 244.441C128.227 244.905 128.459 245.6 128.923 246.064C135.184 254.411 147.009 259.513 154.429 253.948C155.356 253.252 156.284 252.325 157.211 251.165C163.008 244.209 165.327 231.92 165.327 231.92C165.327 231.92 167.414 232.152 170.428 231.456C170.892 227.514 175.993 222.181 180.398 218.935Z" fill="#9AF4DC"/>
<path d="M184.108 221.949C185.036 220.79 186.195 219.167 187.355 217.08C187.355 217.08 184.804 215.457 180.398 218.703C175.993 221.949 170.892 227.283 170.196 230.761C174.138 230.297 179.471 227.978 184.108 221.949Z" fill="#89E0C7"/>
<path d="M246.482 75.1753C214.483 27.178 152.806 33.6704 124.749 43.409C92.9831 54.3069 87.4182 61.9586 68.173 71.0016C67.0136 71.4653 63.5356 73.3203 63.5356 73.3203L78.839 118.071C78.839 118.071 90.6644 114.361 95.07 116.912C100.403 120.158 99.2436 127.81 99.7074 132.447C99.7074 133.607 99.7074 134.07 99.7074 134.07C99.7074 134.07 110.605 140.795 127.532 145.896C127.068 141.954 128.923 139.867 131.242 140.099C137.039 141.027 130.778 135.694 132.169 130.824C133.329 126.187 136.575 129.897 141.212 132.447C144.922 134.302 141.676 130.592 144.69 126.419C147.705 122.245 151.878 133.839 167.646 140.099C182.485 145.896 198.252 135.694 203.817 131.288C203.817 131.056 203.817 131.056 203.817 131.056H204.049C205.44 130.129 206.136 129.433 206.136 129.433L243.699 144.505L249.496 147.287C249.496 147.287 272.219 113.898 246.482 75.1753Z" fill="#E2603D"/>
<path d="M64.4631 75.1753C64.4631 75.1753 42.6672 84.682 11.5965 80.7402C5.79975 80.0446 1.85795 77.494 1.39421 80.9721C0.466726 84.9139 3.71292 87.2326 2.32169 88.6238C-1.62011 91.6381 1.39421 96.7393 4.6404 100.913C7.88659 105.087 2.55356 102.536 5.56788 107.637C8.11846 112.275 10.669 112.043 20.8714 115.289C31.0737 118.535 41.7397 118.999 57.7388 116.912C73.7379 114.825 77.9116 113.898 77.9116 113.898L64.4631 75.1753Z" fill="#E897A3"/>
<path d="M155.588 62.4224C155.356 59.1762 158.371 54.307 165.327 53.3795C172.283 52.452 175.529 56.1619 176.457 60.1037C177.152 64.0455 175.297 72.6247 175.297 72.6247L160.457 73.7841C160.457 73.7841 155.82 65.4368 155.588 62.4224Z" fill="#E897A3"/>
<path d="M166.95 61.0312C163.704 60.5675 159.762 61.0312 156.516 68.2192C151.878 78.1896 150.255 95.8118 156.516 104.623C162.776 113.434 168.341 117.376 170.892 112.97C173.442 108.565 171.819 105.55 180.167 111.347C188.282 117.144 192.919 115.289 190.601 109.956C188.282 104.623 183.645 94.6525 188.282 96.2756C192.919 98.1305 201.962 101.609 197.093 96.2756C190.833 89.5513 190.369 91.1744 184.34 78.8852C178.312 66.5961 175.065 61.9587 166.95 61.0312Z" fill="#3844E5"/>
<path d="M201.499 103.695C201.499 103.695 198.021 103.927 199.644 106.478C201.267 109.028 204.513 111.347 206.136 109.492C207.759 107.637 202.426 103.464 201.499 103.695Z" fill="#3844E5"/>
<path d="M145.386 224.036C141.212 222.877 129.619 223.109 132.633 234.239C135.647 245.6 143.067 249.774 147.473 245.368C151.878 240.963 160.921 228.21 145.386 224.036Z" fill="#89E0C7"/>
<mask id="mask0" mask-type="alpha" maskUnits="userSpaceOnUse" x="99" y="132" width="108" height="125">
<path d="M180.398 218.935C184.804 215.689 187.355 217.312 187.355 217.312C195.702 202.704 206.136 171.402 206.136 171.402L205.44 171.17C169.5 183.227 132.401 158.185 129.155 151.229C128.227 149.374 127.764 147.751 127.532 146.128C110.605 141.027 99.7074 134.302 99.7074 134.302C99.7074 134.302 99.7074 133.607 99.7074 132.679C99.0118 137.317 98.7799 147.055 101.562 168.156C102.954 178.822 105.04 188.328 107.359 197.139C109.91 206.646 113.156 215.225 116.17 222.181C120.576 232.847 124.981 240.267 127.764 244.441C128.227 244.905 128.459 245.6 128.923 246.064C135.184 254.411 147.009 259.513 154.429 253.948C155.356 253.252 156.284 252.325 157.211 251.165C163.008 244.209 165.327 231.92 165.327 231.92C165.327 231.92 167.414 232.152 170.428 231.456C170.892 227.514 175.993 222.181 180.398 218.935Z" fill="#9AF4DC"/>
</mask>
<g mask="url(#mask0)">
<path d="M104.113 103V363.854" stroke="white" stroke-width="0.579677" stroke-miterlimit="10"/>
<path d="M111.765 103V363.854" stroke="white" stroke-width="0.579677" stroke-miterlimit="10"/>
<path d="M119.648 103V363.854" stroke="white" stroke-width="0.579677" stroke-miterlimit="10"/>
<path d="M127.3 103V363.854" stroke="white" stroke-width="0.579677" stroke-miterlimit="10"/>
<path d="M135.184 103V363.854" stroke="white" stroke-width="0.579677" stroke-miterlimit="10"/>
<path d="M142.835 103V363.854" stroke="white" stroke-width="0.579677" stroke-miterlimit="10"/>
<path d="M150.719 103V363.854" stroke="white" stroke-width="0.579677" stroke-miterlimit="10"/>
<path d="M158.371 103V363.854" stroke="white" stroke-width="0.579677" stroke-miterlimit="10"/>
<path d="M166.022 103V363.854" stroke="white" stroke-width="0.579677" stroke-miterlimit="10"/>
<path d="M173.906 103V363.854" stroke="white" stroke-width="0.579677" stroke-miterlimit="10"/>
<path d="M181.558 103V363.854" stroke="white" stroke-width="0.579677" stroke-miterlimit="10"/>
<path d="M189.441 103V363.854" stroke="white" stroke-width="0.579677" stroke-miterlimit="10"/>
<path d="M197.093 103V363.854" stroke="white" stroke-width="0.579677" stroke-miterlimit="10"/>
<path d="M204.977 103V363.854" stroke="white" stroke-width="0.579677" stroke-miterlimit="10"/>
</g>
<path d="M206.136 129.433C206.136 129.433 205.44 130.129 204.049 131.056C204.049 131.056 204.049 131.056 203.817 131.288C198.252 135.694 182.485 146.128 167.646 140.099C152.11 133.839 147.937 122.245 144.69 126.419C141.676 130.592 144.69 134.302 141.212 132.447C136.575 129.897 133.329 126.187 132.169 130.824C130.778 135.926 137.039 141.027 131.242 140.099C128.923 139.635 127.068 141.954 127.532 145.896C127.764 147.287 128.228 148.91 129.155 150.997C132.401 157.953 169.501 183.227 205.44 170.938C206.6 170.474 207.759 170.242 208.919 169.779C210.078 169.315 211.005 168.851 211.933 168.387C211.933 168.156 212.165 162.591 219.585 156.33C227.004 150.07 236.279 153.316 236.511 153.548C240.917 149.606 242.772 146.36 243.467 145.2C243.699 144.737 243.699 144.737 243.699 144.737L206.136 129.433Z" fill="#E897A3"/>
<path d="M219.585 156.33C212.397 162.591 211.933 168.156 211.933 168.387C223.99 163.054 231.642 157.721 236.511 153.316C236.279 153.316 226.773 150.07 219.585 156.33Z" fill="#D63C30"/>
<path d="M139.125 260.208L151.183 258.353" stroke="white" stroke-width="0.579677" stroke-miterlimit="10"/>
<path d="M139.357 262.527L151.414 260.672" stroke="white" stroke-width="0.579677" stroke-miterlimit="10"/>
<path d="M139.589 264.846L151.646 262.991" stroke="white" stroke-width="0.579677" stroke-miterlimit="10"/>
<path d="M111.533 220.79L116.17 227.283" stroke="white" stroke-width="0.579677" stroke-miterlimit="10"/>
<path d="M110.373 224.732L115.243 230.065" stroke="white" stroke-width="0.579677" stroke-miterlimit="10"/>
<path d="M109.446 228.21L113.851 232.616" stroke="white" stroke-width="0.579677" stroke-miterlimit="10"/>
<path d="M207.759 98.5942C207.759 98.5942 213.556 104.623 211.237 115.057C209.846 122.013 204.049 126.882 204.049 126.882" stroke="white" stroke-width="0.579677" stroke-miterlimit="10"/>
<path d="M163.704 173.025C163.704 173.025 166.95 187.401 166.254 204.559C165.095 239.572 156.748 248.615 156.748 248.615" stroke="#660000" stroke-width="0.579677" stroke-miterlimit="10" stroke-linejoin="round"/>
<path d="M175.993 178.126C175.993 178.126 206.368 183.459 229.555 165.373" stroke="#660000" stroke-width="0.579677" stroke-miterlimit="10" stroke-linejoin="round"/>
<path d="M191.992 183.227C191.992 183.227 204.049 183.459 221.903 174.88" stroke="#660000" stroke-width="0.579677" stroke-miterlimit="10" stroke-linejoin="round"/>
<path d="M250.423 63.5818C250.423 63.5818 265.263 79.5809 265.495 106.942C265.727 130.361 260.162 140.331 260.162 140.331" stroke="#660000" stroke-width="0.579677" stroke-miterlimit="10" stroke-linejoin="round"/>
<path d="M105.04 39.4673C116.866 33.4386 122.663 31.8155 127.3 29.9606" stroke="#660000" stroke-width="0.579677" stroke-miterlimit="10" stroke-linejoin="round"/>
<path d="M8.11838 118.071C8.11838 118.071 24.3493 125.259 38.9572 124.1" stroke="#660000" stroke-width="0.579677" stroke-miterlimit="10" stroke-linejoin="round"/>
<path d="M11.8284 123.173C11.8284 123.173 22.9582 127.578 32.233 127.578" stroke="#660000" stroke-width="0.579677" stroke-miterlimit="10" stroke-linejoin="round"/>
<path d="M18.3207 67.2917L29.6824 74.7115L32.9286 64.2773L18.3207 67.2917Z" fill="#D63C30"/>
<path d="M41.0442 67.2916C35.4793 68.451 31.7694 68.2191 28.5232 67.5235" stroke="#660000" stroke-width="0.579677" stroke-miterlimit="10" stroke-linejoin="round"/>
<path d="M25.7406 69.8424C34.5517 71.6973 50.3189 71.6973 70.4917 59.1763C77.9116 54.5389 84.4039 50.829 89.9688 47.5828" stroke="#660000" stroke-width="0.579677" stroke-miterlimit="10" stroke-linejoin="round"/>
<path d="M61.4487 59.8719C67.4773 57.3213 76.0565 50.8289 81.8533 47.8146" stroke="#660000" stroke-width="0.579677" stroke-miterlimit="10" stroke-linejoin="round"/>
<path d="M267.35 81.6677C267.582 84.2183 274.538 105.087 268.509 128.274" stroke="#660000" stroke-width="0.579677" stroke-miterlimit="10" stroke-linejoin="round"/>
<path d="M264.336 141.027L258.771 137.78L255.988 147.287L264.336 141.027Z" fill="#45A0D4"/>
<path d="M224.222 157.721C224.222 157.721 219.816 161.663 223.526 163.982C225.15 164.909 228.164 162.822 228.164 162.822" stroke="#660000" stroke-width="0.579677" stroke-miterlimit="10" stroke-linejoin="round"/>
</g>
<defs>
<clipPath id="clip0">
<rect width="289.838" height="285.201" fill="white" transform="translate(0.466675 0.512939)"/>
</clipPath>
</defs>
</svg>
