<svg width="280" height="342" viewBox="0 0 280 342" fill="none" xmlns="http://www.w3.org/2000/svg">
<g clip-path="url(#clip0)">
<path d="M93.9192 26.138C67.254 42.3689 49.1681 62.3098 53.1099 114.481C57.0517 166.652 -6.48087 175.231 0.475254 216.504C7.43138 257.777 124.758 332.671 227.245 258.241C329.732 183.81 256.229 74.8308 227.245 47.0063C198.261 19.1818 110.846 15.9356 93.9192 26.138Z" fill="#F8F9FF"/>
<path d="M219.825 270.53C218.666 268.907 216.811 270.53 216.811 270.53C216.811 270.53 182.262 254.994 193.16 186.361L165.103 178.245L151.423 174.535L150.032 174.071L143.771 172.448L143.539 172.68C143.539 172.68 130.323 194.476 115.019 213.721C97.6291 235.285 97.3972 264.269 97.3972 264.269C97.3972 264.269 92.7598 262.182 90.9048 264.733C89.0498 267.515 90.9048 270.066 90.9048 270.066L129.627 289.543C129.627 289.543 132.873 286.065 132.41 284.442C131.946 282.819 131.714 280.5 131.714 280.5C131.714 280.5 139.598 258.472 143.771 254.299C144.467 253.603 145.858 251.98 147.713 249.429C155.597 267.515 179.016 287.224 179.016 287.224C179.016 287.224 176.929 287.688 176.465 290.702C176.001 293.717 179.248 293.949 179.248 293.949L220.521 272.848C220.289 272.848 220.984 272.385 219.825 270.53Z" fill="#9AF4DC"/>
<path d="M197.334 100.8C196.406 95.4673 183.189 96.8585 183.189 96.8585C183.189 96.8585 159.539 111.466 147.945 157.145C147.018 161.087 145.163 167.579 144.235 170.825C144.003 171.753 143.771 172.448 143.771 172.448L150.032 174.071L194.319 186.361C194.319 186.361 202.203 128.625 197.334 100.8Z" fill="#9AF4DC"/>
<path d="M172.06 301.137C172.292 301.369 172.755 301.6 173.219 301.6C173.915 301.6 174.61 301.6 176.465 300.673C180.871 298.586 221.448 278.181 222.376 277.718C222.376 277.486 222.376 277.022 222.144 276.095C221.448 274.472 219.361 273.08 219.361 273.08L180.871 293.021C180.871 293.021 180.175 293.253 177.625 293.485C175.074 293.717 171.364 296.731 171.364 299.977C171.364 300.441 171.596 300.905 172.06 301.137Z" fill="#E2603D"/>
<path d="M223.303 278.645C223.071 278.413 222.376 277.95 222.376 277.95C221.448 278.413 181.103 298.818 176.465 300.905C174.61 301.832 173.683 301.832 173.219 301.832C172.292 301.832 172.06 301.369 172.06 301.369C172.06 301.369 172.523 302.064 172.987 303.223C173.915 305.078 175.306 305.31 176.002 304.847C189.218 298.818 218.202 285.138 224.231 282.123C225.158 281.428 223.767 279.341 223.303 278.645Z" fill="#F49684"/>
<path d="M129.627 289.543L127.077 293.717L79.3114 270.994C79.3114 270.994 76.7608 268.211 83.0213 268.211C89.2818 268.211 93.2236 271.457 93.2236 271.457L129.627 289.543Z" fill="#E2603D"/>
<mask id="mask0" mask-type="alpha" maskUnits="userSpaceOnUse" x="90" y="172" width="131" height="122">
<path d="M220.186 270.53C219.026 268.907 217.171 270.53 217.171 270.53C217.171 270.53 182.623 254.994 193.521 186.361L165.464 178.245L151.784 174.535L150.393 174.071L144.132 172.448L143.9 172.68C143.9 172.68 130.684 194.476 115.38 213.721C97.9898 235.285 97.758 264.269 97.758 264.269C97.758 264.269 93.1206 262.182 91.2656 264.733C89.4106 267.515 91.2656 270.066 91.2656 270.066L129.988 289.543C129.988 289.543 133.234 286.065 132.77 284.442C132.307 282.819 132.075 280.5 132.075 280.5C132.075 280.5 139.958 258.472 144.132 254.299C144.828 253.603 146.219 251.98 148.074 249.429C155.958 267.515 179.376 287.224 179.376 287.224C179.376 287.224 177.29 287.688 176.826 290.702C176.362 293.717 179.608 293.949 179.608 293.949L220.881 272.848C220.649 272.848 221.345 272.385 220.186 270.53Z" fill="#9AF4DC"/>
</mask>
<g mask="url(#mask0)">
<path d="M87.6588 254.994L89.7457 261.719" stroke="white" stroke-width="2.31871" stroke-miterlimit="10"/>
<path d="M92.76 270.762L95.0787 277.486" stroke="white" stroke-width="2.31871" stroke-miterlimit="10"/>
<path d="M98.093 286.761L100.412 293.485" stroke="white" stroke-width="2.31871" stroke-miterlimit="10"/>
<path d="M89.9775 245.488L92.2962 252.212" stroke="white" stroke-width="2.31871" stroke-miterlimit="10"/>
<path d="M95.3107 261.487L97.6294 268.211" stroke="white" stroke-width="2.31871" stroke-miterlimit="10"/>
<path d="M100.644 277.486L102.73 284.21" stroke="white" stroke-width="2.31871" stroke-miterlimit="10"/>
<path d="M105.977 293.253L108.063 299.977" stroke="white" stroke-width="2.31871" stroke-miterlimit="10"/>
<path d="M89.0501 219.054L91.3688 225.779" stroke="white" stroke-width="2.31871" stroke-miterlimit="10"/>
<path d="M94.3831 235.053L96.47 241.778" stroke="white" stroke-width="2.31871" stroke-miterlimit="10"/>
<path d="M99.4843 250.821L101.803 257.545" stroke="white" stroke-width="2.31871" stroke-miterlimit="10"/>
<path d="M104.817 266.82L107.136 273.544" stroke="white" stroke-width="2.31871" stroke-miterlimit="10"/>
<path d="M110.15 282.819L112.469 289.543" stroke="white" stroke-width="2.31871" stroke-miterlimit="10"/>
<path d="M91.6006 209.78L93.6875 216.504" stroke="white" stroke-width="2.31871" stroke-miterlimit="10"/>
<path d="M96.7018 225.547L99.0205 232.271" stroke="white" stroke-width="2.31871" stroke-miterlimit="10"/>
<path d="M102.035 241.546L104.354 248.27" stroke="white" stroke-width="2.31871" stroke-miterlimit="10"/>
<path d="M107.368 257.545L109.455 264.269" stroke="white" stroke-width="2.31871" stroke-miterlimit="10"/>
<path d="M112.701 273.544L114.788 280.268" stroke="white" stroke-width="2.31871" stroke-miterlimit="10"/>
<path d="M117.802 289.311L120.121 296.036" stroke="white" stroke-width="2.31871" stroke-miterlimit="10"/>
<path d="M90.4413 183.115L92.76 189.839" stroke="white" stroke-width="2.31871" stroke-miterlimit="10"/>
<path d="M95.7743 199.114L98.093 205.838" stroke="white" stroke-width="2.31871" stroke-miterlimit="10"/>
<path d="M101.107 215.113L103.194 221.837" stroke="white" stroke-width="2.31871" stroke-miterlimit="10"/>
<path d="M106.208 231.112L108.527 237.836" stroke="white" stroke-width="2.31871" stroke-miterlimit="10"/>
<path d="M111.542 246.879L113.86 253.603" stroke="white" stroke-width="2.31871" stroke-miterlimit="10"/>
<path d="M116.875 262.878L119.193 269.602" stroke="white" stroke-width="2.31871" stroke-miterlimit="10"/>
<path d="M122.208 278.877L124.294 285.601" stroke="white" stroke-width="2.31871" stroke-miterlimit="10"/>
<path d="M92.992 173.84L95.0788 180.564" stroke="white" stroke-width="2.31871" stroke-miterlimit="10"/>
<path d="M98.325 189.839L100.412 196.563" stroke="white" stroke-width="2.31871" stroke-miterlimit="10"/>
<path d="M103.426 205.606L105.745 212.33" stroke="white" stroke-width="2.31871" stroke-miterlimit="10"/>
<path d="M108.759 221.605L111.078 228.329" stroke="white" stroke-width="2.31871" stroke-miterlimit="10"/>
<path d="M114.092 237.604L116.179 244.328" stroke="white" stroke-width="2.31871" stroke-miterlimit="10"/>
<path d="M119.425 253.603L121.512 260.327" stroke="white" stroke-width="2.31871" stroke-miterlimit="10"/>
<path d="M124.526 269.37L126.845 276.095" stroke="white" stroke-width="2.31871" stroke-miterlimit="10"/>
<path d="M129.859 285.37L132.178 292.094" stroke="white" stroke-width="2.31871" stroke-miterlimit="10"/>
<path d="M102.499 179.173L104.585 185.897" stroke="white" stroke-width="2.31871" stroke-miterlimit="10"/>
<path d="M107.832 195.172L109.918 201.896" stroke="white" stroke-width="2.31871" stroke-miterlimit="10"/>
<path d="M112.933 211.171L115.251 217.895" stroke="white" stroke-width="2.31871" stroke-miterlimit="10"/>
<path d="M118.266 226.938L120.584 233.662" stroke="white" stroke-width="2.31871" stroke-miterlimit="10"/>
<path d="M123.599 242.937L125.917 249.661" stroke="white" stroke-width="2.31871" stroke-miterlimit="10"/>
<path d="M128.932 258.936L131.019 265.661" stroke="white" stroke-width="2.31871" stroke-miterlimit="10"/>
<path d="M134.033 274.935L136.352 281.66" stroke="white" stroke-width="2.31871" stroke-miterlimit="10"/>
<path d="M139.366 290.703L141.685 297.427" stroke="white" stroke-width="2.31871" stroke-miterlimit="10"/>
<path d="M105.049 169.898L107.136 176.622" stroke="white" stroke-width="2.31871" stroke-miterlimit="10"/>
<path d="M110.15 185.897L112.469 192.621" stroke="white" stroke-width="2.31871" stroke-miterlimit="10"/>
<path d="M115.483 201.664L117.802 208.388" stroke="white" stroke-width="2.31871" stroke-miterlimit="10"/>
<path d="M120.816 217.663L122.903 224.387" stroke="white" stroke-width="2.31871" stroke-miterlimit="10"/>
<path d="M126.149 233.662L128.236 240.386" stroke="white" stroke-width="2.31871" stroke-miterlimit="10"/>
<path d="M131.251 249.661L133.569 256.386" stroke="white" stroke-width="2.31871" stroke-miterlimit="10"/>
<path d="M136.584 265.429L138.902 272.153" stroke="white" stroke-width="2.31871" stroke-miterlimit="10"/>
<path d="M141.917 281.428L144.003 288.152" stroke="white" stroke-width="2.31871" stroke-miterlimit="10"/>
<path d="M114.556 175.231L116.643 181.955" stroke="white" stroke-width="2.31871" stroke-miterlimit="10"/>
<path d="M119.657 191.23L121.976 197.954" stroke="white" stroke-width="2.31871" stroke-miterlimit="10"/>
<path d="M124.99 207.229L127.309 213.953" stroke="white" stroke-width="2.31871" stroke-miterlimit="10"/>
<path d="M130.323 222.996L132.41 229.72" stroke="white" stroke-width="2.31871" stroke-miterlimit="10"/>
<path d="M135.656 238.995L137.743 245.72" stroke="white" stroke-width="2.31871" stroke-miterlimit="10"/>
<path d="M140.757 254.994L143.076 261.719" stroke="white" stroke-width="2.31871" stroke-miterlimit="10"/>
<path d="M146.09 270.993L148.409 277.718" stroke="white" stroke-width="2.31871" stroke-miterlimit="10"/>
<path d="M151.423 286.761L153.742 293.485" stroke="white" stroke-width="2.31871" stroke-miterlimit="10"/>
<path d="M116.875 165.956L119.193 172.68" stroke="white" stroke-width="2.31871" stroke-miterlimit="10"/>
<path d="M122.208 181.723L124.526 188.448" stroke="white" stroke-width="2.31871" stroke-miterlimit="10"/>
<path d="M127.541 197.722L129.627 204.447" stroke="white" stroke-width="2.31871" stroke-miterlimit="10"/>
<path d="M132.874 213.721L134.96 220.446" stroke="white" stroke-width="2.31871" stroke-miterlimit="10"/>
<path d="M137.975 229.72L140.294 236.445" stroke="white" stroke-width="2.31871" stroke-miterlimit="10"/>
<path d="M143.308 245.488L145.627 252.212" stroke="white" stroke-width="2.31871" stroke-miterlimit="10"/>
<path d="M148.641 261.487L150.728 268.211" stroke="white" stroke-width="2.31871" stroke-miterlimit="10"/>
<path d="M153.974 277.486L156.061 284.21" stroke="white" stroke-width="2.31871" stroke-miterlimit="10"/>
<path d="M159.075 293.485L161.394 300.209" stroke="white" stroke-width="2.31871" stroke-miterlimit="10"/>
<path d="M126.381 171.289L128.7 178.013" stroke="white" stroke-width="2.31871" stroke-miterlimit="10"/>
<path d="M131.714 187.288L134.033 194.012" stroke="white" stroke-width="2.31871" stroke-miterlimit="10"/>
<path d="M137.047 203.055L139.134 209.78" stroke="white" stroke-width="2.31871" stroke-miterlimit="10"/>
<path d="M142.38 219.054L144.467 225.779" stroke="white" stroke-width="2.31871" stroke-miterlimit="10"/>
<path d="M147.482 235.053L149.8 241.778" stroke="white" stroke-width="2.31871" stroke-miterlimit="10"/>
<path d="M152.815 251.053L155.133 257.777" stroke="white" stroke-width="2.31871" stroke-miterlimit="10"/>
<path d="M158.148 266.82L160.234 273.544" stroke="white" stroke-width="2.31871" stroke-miterlimit="10"/>
<path d="M163.481 282.819L165.567 289.543" stroke="white" stroke-width="2.31871" stroke-miterlimit="10"/>
<path d="M134.265 177.781L136.352 184.506" stroke="white" stroke-width="2.31871" stroke-miterlimit="10"/>
<path d="M139.366 193.781L141.685 200.505" stroke="white" stroke-width="2.31871" stroke-miterlimit="10"/>
<path d="M144.699 209.78L147.018 216.504" stroke="white" stroke-width="2.31871" stroke-miterlimit="10"/>
<path d="M150.032 225.779L152.351 232.503" stroke="white" stroke-width="2.31871" stroke-miterlimit="10"/>
<path d="M155.365 241.546L157.452 248.27" stroke="white" stroke-width="2.31871" stroke-miterlimit="10"/>
<path d="M160.698 257.545L162.785 264.269" stroke="white" stroke-width="2.31871" stroke-miterlimit="10"/>
<path d="M165.799 273.544L168.118 280.268" stroke="white" stroke-width="2.31871" stroke-miterlimit="10"/>
<path d="M171.132 289.543L173.451 296.267" stroke="white" stroke-width="2.31871" stroke-miterlimit="10"/>
<path d="M138.439 167.347L140.757 174.072" stroke="white" stroke-width="2.31871" stroke-miterlimit="10"/>
<path d="M143.772 183.346L145.858 190.071" stroke="white" stroke-width="2.31871" stroke-miterlimit="10"/>
<path d="M149.105 199.114L151.191 205.838" stroke="white" stroke-width="2.31871" stroke-miterlimit="10"/>
<path d="M154.206 215.113L156.524 221.837" stroke="white" stroke-width="2.31871" stroke-miterlimit="10"/>
<path d="M159.539 231.112L161.857 237.836" stroke="white" stroke-width="2.31871" stroke-miterlimit="10"/>
<path d="M164.872 247.111L166.959 253.835" stroke="white" stroke-width="2.31871" stroke-miterlimit="10"/>
<path d="M170.205 262.878L172.292 269.602" stroke="white" stroke-width="2.31871" stroke-miterlimit="10"/>
<path d="M175.306 278.877L177.625 285.601" stroke="white" stroke-width="2.31871" stroke-miterlimit="10"/>
<path d="M146.09 173.84L148.409 180.564" stroke="white" stroke-width="2.31871" stroke-miterlimit="10"/>
<path d="M151.423 189.839L153.742 196.563" stroke="white" stroke-width="2.31871" stroke-miterlimit="10"/>
<path d="M156.756 205.838L159.075 212.562" stroke="white" stroke-width="2.31871" stroke-miterlimit="10"/>
<path d="M162.089 221.605L164.176 228.329" stroke="white" stroke-width="2.31871" stroke-miterlimit="10"/>
<path d="M167.191 237.604L169.509 244.328" stroke="white" stroke-width="2.31871" stroke-miterlimit="10"/>
<path d="M172.524 253.603L174.842 260.327" stroke="white" stroke-width="2.31871" stroke-miterlimit="10"/>
<path d="M177.857 269.602L180.175 276.327" stroke="white" stroke-width="2.31871" stroke-miterlimit="10"/>
<path d="M183.19 285.37L185.276 292.094" stroke="white" stroke-width="2.31871" stroke-miterlimit="10"/>
<path d="M155.829 179.173L157.916 185.897" stroke="white" stroke-width="2.31871" stroke-miterlimit="10"/>
<path d="M160.93 195.172L163.249 201.896" stroke="white" stroke-width="2.31871" stroke-miterlimit="10"/>
<path d="M166.263 211.171L168.582 217.895" stroke="white" stroke-width="2.31871" stroke-miterlimit="10"/>
<path d="M171.596 227.17L173.683 233.894" stroke="white" stroke-width="2.31871" stroke-miterlimit="10"/>
<path d="M176.929 242.937L179.016 249.661" stroke="white" stroke-width="2.31871" stroke-miterlimit="10"/>
<path d="M182.03 258.936L184.349 265.661" stroke="white" stroke-width="2.31871" stroke-miterlimit="10"/>
<path d="M187.363 274.935L189.682 281.66" stroke="white" stroke-width="2.31871" stroke-miterlimit="10"/>
<path d="M192.696 290.934L194.783 297.659" stroke="white" stroke-width="2.31871" stroke-miterlimit="10"/>
<path d="M158.148 169.898L160.466 176.622" stroke="white" stroke-width="2.31871" stroke-miterlimit="10"/>
<path d="M163.481 185.897L165.799 192.621" stroke="white" stroke-width="2.31871" stroke-miterlimit="10"/>
<path d="M168.814 201.896L170.9 208.62" stroke="white" stroke-width="2.31871" stroke-miterlimit="10"/>
<path d="M173.915 217.663L176.233 224.387" stroke="white" stroke-width="2.31871" stroke-miterlimit="10"/>
<path d="M179.248 233.662L181.566 240.386" stroke="white" stroke-width="2.31871" stroke-miterlimit="10"/>
<path d="M184.581 249.661L186.9 256.386" stroke="white" stroke-width="2.31871" stroke-miterlimit="10"/>
<path d="M189.914 265.66L192.001 272.385" stroke="white" stroke-width="2.31871" stroke-miterlimit="10"/>
<path d="M195.015 281.428L197.334 288.152" stroke="white" stroke-width="2.31871" stroke-miterlimit="10"/>
<path d="M167.654 175.231L169.973 181.955" stroke="white" stroke-width="2.31871" stroke-miterlimit="10"/>
<path d="M172.987 191.23L175.306 197.954" stroke="white" stroke-width="2.31871" stroke-miterlimit="10"/>
<path d="M178.32 207.229L180.407 213.953" stroke="white" stroke-width="2.31871" stroke-miterlimit="10"/>
<path d="M183.653 223.228L185.74 229.952" stroke="white" stroke-width="2.31871" stroke-miterlimit="10"/>
<path d="M188.755 238.995L191.073 245.72" stroke="white" stroke-width="2.31871" stroke-miterlimit="10"/>
<path d="M194.088 254.994L196.406 261.719" stroke="white" stroke-width="2.31871" stroke-miterlimit="10"/>
<path d="M199.421 270.993L201.507 277.718" stroke="white" stroke-width="2.31871" stroke-miterlimit="10"/>
<path d="M204.754 286.993L206.84 293.717" stroke="white" stroke-width="2.31871" stroke-miterlimit="10"/>
<path d="M170.205 165.956L172.524 172.68" stroke="white" stroke-width="2.31871" stroke-miterlimit="10"/>
<path d="M175.538 181.955L177.625 188.679" stroke="white" stroke-width="2.31871" stroke-miterlimit="10"/>
<path d="M180.639 197.722L182.958 204.447" stroke="white" stroke-width="2.31871" stroke-miterlimit="10"/>
<path d="M185.972 213.721L188.291 220.446" stroke="white" stroke-width="2.31871" stroke-miterlimit="10"/>
<path d="M191.305 229.72L193.624 236.445" stroke="white" stroke-width="2.31871" stroke-miterlimit="10"/>
<path d="M196.638 245.72L198.725 252.444" stroke="white" stroke-width="2.31871" stroke-miterlimit="10"/>
<path d="M201.739 261.487L204.058 268.211" stroke="white" stroke-width="2.31871" stroke-miterlimit="10"/>
<path d="M207.072 277.486L209.391 284.21" stroke="white" stroke-width="2.31871" stroke-miterlimit="10"/>
<path d="M212.405 293.485L214.724 300.209" stroke="white" stroke-width="2.31871" stroke-miterlimit="10"/>
<path d="M179.712 171.289L182.03 178.013" stroke="white" stroke-width="2.31871" stroke-miterlimit="10"/>
<path d="M185.045 187.288L187.131 194.012" stroke="white" stroke-width="2.31871" stroke-miterlimit="10"/>
<path d="M190.378 203.287L192.465 210.011" stroke="white" stroke-width="2.31871" stroke-miterlimit="10"/>
<path d="M195.479 219.054L197.797 225.779" stroke="white" stroke-width="2.31871" stroke-miterlimit="10"/>
<path d="M200.812 235.053L203.131 241.778" stroke="white" stroke-width="2.31871" stroke-miterlimit="10"/>
<path d="M206.145 251.053L208.232 257.777" stroke="white" stroke-width="2.31871" stroke-miterlimit="10"/>
<path d="M211.478 267.052L213.565 273.776" stroke="white" stroke-width="2.31871" stroke-miterlimit="10"/>
<path d="M216.579 282.819L218.898 289.543" stroke="white" stroke-width="2.31871" stroke-miterlimit="10"/>
<path d="M187.363 178.013L189.682 184.738" stroke="white" stroke-width="2.31871" stroke-miterlimit="10"/>
<path d="M192.696 193.781L195.015 200.505" stroke="white" stroke-width="2.31871" stroke-miterlimit="10"/>
<path d="M198.029 209.78L200.348 216.504" stroke="white" stroke-width="2.31871" stroke-miterlimit="10"/>
<path d="M203.362 225.779L205.449 232.503" stroke="white" stroke-width="2.31871" stroke-miterlimit="10"/>
<path d="M208.464 241.778L210.782 248.502" stroke="white" stroke-width="2.31871" stroke-miterlimit="10"/>
<path d="M213.797 257.545L216.115 264.269" stroke="white" stroke-width="2.31871" stroke-miterlimit="10"/>
<path d="M219.13 273.544L221.448 280.268" stroke="white" stroke-width="2.31871" stroke-miterlimit="10"/>
</g>
<path d="M189.914 75.2945C189.45 74.3671 188.754 73.4396 187.827 72.9758C188.754 73.6714 189.45 74.3671 189.914 75.2945Z" fill="#E897A3"/>
<path d="M192.464 93.3805C192.001 91.9893 191.537 90.1343 191.073 88.2793C191.073 87.8156 191.305 87.3518 191.305 86.6562C191.305 85.0331 191.305 83.1782 191.305 81.5551C191.073 83.41 190.609 84.3375 189.914 84.8013C189.682 84.3375 189.682 83.8738 189.682 83.8738L188.754 84.8013C187.363 84.3375 186.204 80.3957 184.581 80.8595C182.958 81.0913 183.189 81.5551 182.494 82.2507C181.798 83.1782 181.103 85.265 179.943 84.8013C179.016 84.5694 179.711 82.9463 179.943 82.2507C180.407 80.8594 180.175 79.2364 179.479 80.3957C178.088 82.4825 176.233 81.0913 177.161 79.7001C178.552 77.8451 179.016 75.0627 176.233 77.6133C175.306 78.3089 174.378 79.7001 173.451 80.8595C173.451 82.2507 173.683 83.6419 174.842 85.7287C177.856 91.0618 180.407 92.453 183.421 92.453C183.653 92.453 184.117 92.453 184.349 92.453C184.349 93.3805 184.117 94.308 184.117 95.0036C183.885 96.8585 182.262 95.9311 183.189 98.2498C184.117 100.568 193.624 96.8585 193.624 96.8585C193.624 96.8585 193.16 96.8585 192.464 93.3805Z" fill="#E897A3"/>
<path d="M191.073 80.8595C191.073 78.7726 190.841 76.9177 189.914 75.2946C190.609 76.9177 191.073 79.2364 191.073 81.5551C191.073 81.3232 191.073 81.0913 191.073 80.8595Z" fill="#D63C30"/>
<path d="M189.914 75.2946C189.45 74.599 188.754 73.6715 187.827 72.9759C187.363 72.5121 186.667 72.0484 185.972 71.8165C181.566 69.4978 176.697 71.8165 174.842 72.2803C172.987 72.744 165.799 76.6858 165.567 78.7726C165.335 80.8595 169.741 77.1496 169.045 78.7726C168.35 80.3957 163.712 82.2507 166.263 85.0332C168.118 86.8881 170.668 83.8738 172.987 80.8595C173.915 79.4683 174.842 78.3089 175.77 77.6133C178.552 75.0627 178.088 77.8452 176.697 79.7001C175.77 81.0914 177.393 82.4826 179.016 80.3957C179.711 79.4683 179.943 80.8595 179.479 82.2507C179.248 83.1782 178.32 84.5694 179.479 84.8013C180.639 85.0332 181.334 82.9463 182.03 82.2507C182.726 81.3232 182.726 81.0914 184.117 80.8595C185.74 80.6276 186.899 84.5694 188.291 84.8013C189.45 85.0332 190.609 84.3375 190.841 81.5551C191.073 79.2364 190.609 76.9177 189.914 75.2946Z" fill="#E2603D"/>
<path d="M219.593 179.173C219.825 179.173 240.925 171.985 247.881 160.159C249.736 157.145 250.664 152.971 247.881 149.493C245.099 146.015 238.375 153.899 218.666 155.754C209.391 156.681 201.044 151.348 201.044 151.348L199.884 150.653C195.942 133.262 202.667 121.669 199.42 102.887C198.493 97.3223 194.551 96.8586 192.232 96.8586C189.914 96.8586 185.74 96.6267 183.189 97.3223C183.189 97.0904 183.189 97.0904 183.189 97.0904C183.189 97.0904 173.915 100.105 164.176 99.1773C154.438 98.2498 137.047 79.0045 137.047 79.0045L129.859 92.2212C129.859 92.2212 129.395 98.4817 131.019 105.438C127.541 103.119 125.686 101.032 125.686 101.032L111.773 114.249C111.773 114.249 112.237 114.017 117.802 124.915C128.468 145.32 148.641 145.783 148.641 145.783C148.641 145.783 151.655 163.174 162.553 179.405C172.06 193.549 185.508 204.215 214.492 204.91C242.548 205.374 253.678 195.636 254.606 188.216C255.533 179.868 235.592 185.897 219.593 179.173Z" fill="#3844E5"/>
<path d="M66.0947 217.663C66.0947 217.663 68.8772 213.721 64.9354 210.243C60.9936 206.765 57.7474 202.128 68.6453 196.331C79.5432 190.534 84.4125 187.288 83.9488 178.709C83.7169 170.13 79.0795 165.492 81.8619 161.551C84.6444 157.609 96.0061 157.145 99.2522 153.203C102.498 149.261 100.643 135.349 97.861 128.625C95.3105 122.364 97.861 117.031 100.643 114.481C105.513 109.611 110.614 111.235 110.614 111.235L112.005 114.017C112.005 114.017 107.6 115.176 105.281 120.278C102.962 125.379 109.455 142.537 108.991 147.406C108.527 152.276 106.44 158.536 100.18 161.782C93.9192 165.029 90.9049 162.942 90.4412 167.811C89.9774 172.68 94.6148 181.26 89.5137 187.752C84.4125 194.244 73.2827 200.041 72.5871 204.215C71.8915 208.388 75.3696 206.765 75.8333 210.939C76.5289 215.113 74.2102 216.968 74.2102 216.968L66.0947 217.663Z" fill="#98A1F4"/>
<path d="M136.815 76.222C136.815 76.222 144.699 64.1647 140.293 56.2811C135.888 48.3975 126.613 49.325 124.294 47.0063C121.976 44.6876 124.062 36.1084 132.178 39.1227C140.293 42.137 140.525 44.2239 146.322 42.3689C152.119 40.5139 150.959 35.4128 153.974 36.804C156.988 38.4271 150.264 46.3107 152.119 52.8031C153.974 59.0636 155.829 63.2373 163.249 61.846C179.943 58.8317 171.132 52.3393 177.625 49.325C184.117 46.3107 186.668 48.6294 188.986 44.9195C192.001 39.8183 188.059 35.1809 185.044 37.0359C182.03 38.8908 187.595 40.7458 182.03 42.3689C176.465 43.992 172.987 44.2239 171.132 49.7888C169.045 56.2811 160.466 58.1361 158.379 53.4987C156.292 48.8613 157.22 47.0063 158.611 41.9052C160.002 36.804 161.394 32.8622 153.974 32.1666C147.713 31.471 148.641 35.8765 146.322 37.9634C143.771 39.8183 140.757 35.1809 130.555 33.5578C120.353 31.9347 117.57 38.1952 117.106 42.137C116.643 46.0788 118.498 51.4119 123.599 53.035C128.7 54.658 136.12 55.5855 136.12 60.9186C136.12 66.2516 133.569 72.2802 133.569 72.2802L136.815 76.222Z" fill="#98A1F4"/>
<path d="M59.8342 217.895C59.8342 217.895 50.0956 206.533 53.8055 200.737C57.5154 194.94 61.2254 194.708 72.8189 194.012C84.4124 193.085 89.0499 183.114 94.151 180.796C99.2522 178.477 109.223 182.883 115.947 173.144C119.657 167.579 116.642 158.536 119.657 156.449C122.671 154.363 125.222 156.449 129.627 149.725C132.873 144.856 133.569 134.19 125.917 130.712C108.527 122.828 113.396 116.336 113.396 116.336L111.078 111.93C111.078 111.93 104.353 117.031 108.527 124.683C111.309 129.552 126.381 136.972 124.99 143.696C123.599 150.421 118.497 147.175 115.947 150.653C111.309 156.681 114.556 166.884 109.223 170.593C103.89 174.303 99.0203 171.289 94.151 173.144C89.2817 174.999 84.6443 184.274 76.0651 186.361C67.4859 188.448 63.3122 184.969 54.733 189.143C47.3131 192.853 43.3713 197.722 45.69 206.533C48.0087 215.345 54.0374 218.127 54.0374 218.127L59.8342 217.895Z" fill="#98A1F4"/>
<path d="M173.915 4.80582C172.06 1.7915 165.567 -1.22282 161.857 2.71898C158.147 6.66078 158.843 16.1675 153.974 18.0224C149.104 19.8774 142.38 16.6312 138.438 17.3268C134.497 18.0224 131.714 21.5005 131.946 25.4423C132.178 29.3841 140.062 38.4271 138.438 44.4557C136.815 50.4844 131.25 54.4262 125.917 56.513C120.584 58.5998 119.657 61.1504 120.353 64.6285C121.512 70.1934 125.686 71.1208 127.309 70.889C127.772 70.889 128.236 70.889 128.468 71.1208C128.468 71.1208 128.468 71.1208 128.7 71.1208C129.164 70.889 130.091 70.889 131.019 71.1208L132.874 71.8165C132.874 71.8165 133.569 69.7296 131.482 67.6428C130.787 66.9472 128.468 67.6428 127.077 66.2516C124.062 63.0054 127.309 60.9185 130.555 59.5273C133.801 58.1361 140.989 54.1943 142.38 49.0931C143.771 43.992 143.771 40.7458 142.38 35.1809C140.989 29.3841 137.047 24.283 143.771 23.5873C150.264 22.8917 160.234 25.6742 163.712 18.4862C166.727 11.7619 166.959 8.74762 170.437 8.51575C173.915 8.28388 176.001 8.51575 173.915 4.80582Z" fill="#98A1F4"/>
<path d="M135.192 73.4396C133.801 72.2802 133.105 71.8165 131.714 71.5846C130.787 71.3527 129.395 71.1208 128.932 71.1208C127.309 71.8165 128.004 73.2077 128.004 73.2077C125.917 74.5989 126.149 75.9901 126.149 75.9901C126.149 75.9901 125.222 75.9901 124.294 77.3814C123.135 79.4682 124.062 80.1638 124.062 80.1638C124.062 80.1638 122.439 81.0913 122.439 83.1781C122.439 85.265 123.135 87.8155 124.758 88.9749C125.917 89.9024 127.077 90.598 127.077 90.598L129.859 92.453L137.279 78.7726C137.047 78.7726 137.511 75.2945 135.192 73.4396Z" fill="#E897A3"/>
<path d="M163.48 80.3957C162.321 80.8594 160.466 81.3232 160.466 82.2507C160.698 83.41 162.089 83.41 163.017 82.4825C163.944 81.5551 164.64 79.932 163.48 80.3957Z" fill="#D63C30"/>
<path d="M124.062 87.8156C124.062 87.8156 122.207 88.0474 122.439 90.8299C122.671 94.3079 126.149 92.6848 126.149 94.5398C125.917 96.6266 124.294 95.6992 124.294 95.6992C124.294 95.6992 123.599 98.4816 126.845 98.9453C130.555 99.4091 135.192 92.6848 131.714 92.2211C125.222 91.2936 127.077 89.4386 127.077 89.4386L124.062 87.8156Z" fill="#98A1F4"/>
<path d="M37.8064 231.807L30.1547 284.906H84.1806L79.3113 231.807V231.344H37.8064V231.807Z" fill="#E2603D"/>
<path d="M24.1261 219.75C22.2711 219.982 20.8799 220.677 22.2711 221.605C22.7348 221.837 25.0536 222.069 28.7635 222.069V219.518C25.7492 219.75 24.1261 219.75 24.1261 219.75Z" fill="#D63C30"/>
<path d="M92.0642 216.504C91.8323 216.504 89.7455 216.504 86.4993 216.736V220.446C90.6729 220.214 93.2235 219.982 93.4554 219.75C94.8466 219.054 93.4554 216.736 92.0642 216.504Z" fill="#E2603D"/>
<path d="M38.9658 222.069L37.8064 231.344H79.0794L78.1519 220.677C66.7903 221.373 50.7912 222.069 38.9658 222.069Z" fill="#4550D8"/>
<path d="M28.7635 219.518V222.069C31.546 222.069 35.024 222.069 38.9658 222.069C50.7913 221.837 66.7903 221.373 78.3839 220.677C81.3982 220.446 84.4125 220.446 86.7312 220.214V216.504C73.5146 217.199 41.0527 218.822 28.7635 219.518Z" fill="#E2603D"/>
<path d="M122.903 84.5694C123.135 81.7869 119.193 78.7726 112.005 81.7869C104.585 85.0331 104.585 90.1343 109.223 91.9892C113.86 93.8442 119.425 94.308 121.512 94.7717C123.599 95.0036 122.671 96.6267 122.671 96.6267L124.99 98.0179C124.99 98.0179 126.149 91.0618 120.353 90.3662C106.672 88.5112 116.874 82.2507 118.034 85.0331C119.889 90.3662 123.367 89.9024 123.367 89.9024L124.526 87.5837C124.062 87.8156 122.671 86.8881 122.903 84.5694Z" fill="#98A1F4"/>
<path d="M126.149 101.496C126.149 101.496 126.149 97.786 125.222 96.6267C124.294 95.4673 122.439 94.308 121.512 94.7717C120.121 95.6992 120.816 96.6267 120.816 96.6267C120.816 96.6267 119.193 95.6992 117.802 96.6267C116.411 97.5541 116.179 98.9454 116.179 98.9454C116.179 98.9454 115.483 98.7135 114.556 99.641C113.628 100.568 113.86 102.655 113.86 102.655C113.86 102.655 111.773 103.119 111.309 104.278C110.846 105.438 110.382 109.148 111.309 111.003C112.237 112.858 112.933 114.249 112.933 114.249L126.149 101.496Z" fill="#E897A3"/>
<path d="M126.845 294.644L125.222 296.963L77.2245 272.617C77.2245 272.617 76.297 270.993 77.4563 269.834C78.6157 268.443 79.3113 268.675 79.3113 268.675C79.3113 268.675 77.4563 269.37 80.2388 270.762C82.7894 272.385 127.077 293.485 127.077 293.485L126.845 294.644Z" fill="#F49684"/>
<path d="M184.581 201.432C184.581 201.432 187.827 213.49 156.756 237.372C132.642 255.69 130.555 277.95 130.555 277.95" stroke="#660000" stroke-width="0.579677" stroke-miterlimit="10" stroke-linejoin="round"/>
<path d="M179.943 286.761C179.943 286.761 181.798 287.456 192 280.964C200.348 275.631 205.449 273.312 205.449 273.312" stroke="#660000" stroke-width="0.579677" stroke-miterlimit="10" stroke-linejoin="round"/>
<path d="M100.412 266.588C100.412 266.588 105.049 270.53 112.933 274.935C120.352 279.109 121.048 278.413 121.048 278.413" stroke="#660000" stroke-width="0.579677" stroke-miterlimit="10" stroke-linejoin="round"/>
<path d="M68.6453 162.014C68.6453 162.014 65.631 151.116 78.3839 148.334C99.9479 143.465 88.3543 133.494 87.6587 119.814C87.195 106.133 98.5566 103.583 98.5566 103.583" stroke="#660000" stroke-width="0.579677" stroke-miterlimit="10" stroke-linejoin="round"/>
<path d="M212.405 150.421C212.405 150.421 219.129 152.971 228.404 150.421C237.679 147.87 242.085 144.392 242.085 144.392" stroke="#660000" stroke-width="0.579677" stroke-miterlimit="10" stroke-linejoin="round"/>
<path d="M233.969 143.696C238.607 141.61 239.766 140.218 239.766 140.218" stroke="#660000" stroke-width="0.579677" stroke-miterlimit="10" stroke-linejoin="round"/>
<path d="M217.506 146.711C217.506 146.711 223.999 147.638 230.955 145.088" stroke="#660000" stroke-width="0.579677" stroke-miterlimit="10" stroke-linejoin="round"/>
<path d="M132.41 134.422C132.41 134.422 138.902 143.465 162.321 141.61C173.915 140.682 179.711 136.972 179.711 136.972" stroke="white" stroke-width="0.579677" stroke-miterlimit="10" stroke-linejoin="round"/>
<path d="M202.898 156.681C202.898 156.681 207.072 169.434 218.434 176.158C227.013 181.259 233.737 180.564 233.737 180.564" stroke="white" stroke-width="0.579677" stroke-miterlimit="10" stroke-linejoin="round"/>
<path d="M143.771 111.003C147.018 111.698 150.496 111.93 154.437 111.698C163.48 111.003 175.306 99.641 182.726 97.3222C185.044 96.6266 188.291 95.931 192.001 96.6266" stroke="white" stroke-width="0.579677" stroke-miterlimit="10" stroke-linejoin="round"/>
<path d="M132.178 106.133C134.033 107.293 136.352 108.452 138.902 109.611" stroke="white" stroke-width="0.579677" stroke-miterlimit="10" stroke-linejoin="round"/>
<path d="M82.3256 153.203C82.3256 153.203 76.297 153.203 74.2101 159C72.1233 164.565 80.2388 171.985 76.7607 177.781C74.442 181.723 67.4859 180.564 67.4859 180.564" stroke="#660000" stroke-width="0.579677" stroke-miterlimit="10" stroke-linejoin="round"/>
<path d="M121.048 175.463C121.048 175.463 120.584 183.578 110.382 185.897C95.7741 189.143 98.3247 189.839 94.151 196.099C90.673 200.968 83.7169 201.664 83.7169 201.664" stroke="#660000" stroke-width="0.579677" stroke-miterlimit="10" stroke-linejoin="round"/>
<path d="M84.8762 206.533C84.8762 206.533 89.0499 206.533 92.9917 203.751C96.9335 200.969 99.4841 197.027 99.4841 197.027" stroke="#660000" stroke-width="0.579677" stroke-miterlimit="10" stroke-linejoin="round"/>
<path d="M128.468 20.1093C128.468 20.1093 129.164 12.4576 136.352 11.9939C141.685 11.762 146.554 15.4719 150.728 12.9213C154.438 10.6026 153.742 5.96521 153.742 5.96521" stroke="#660000" stroke-width="0.579677" stroke-miterlimit="10" stroke-linejoin="round"/>
<path d="M100.18 90.598L86.7313 94.7717L92.9918 104.278L100.18 90.598Z" fill="#E2603D"/>
<path d="M84.6444 131.175C84.6444 131.175 79.5432 115.408 84.6444 106.829C86.7312 103.583 89.5137 100.568 91.8324 99.1772" stroke="#660000" stroke-width="0.579677" stroke-miterlimit="10" stroke-linejoin="round"/>
<path d="M90.4412 97.0903C90.4412 97.0903 87.8906 97.7859 84.1807 101.96C81.1664 105.206 80.4707 107.988 80.4707 107.988" stroke="#660000" stroke-width="0.579677" stroke-miterlimit="10" stroke-linejoin="round"/>
<path d="M119.425 171.521L124.294 174.303L125.454 162.71L119.425 171.521Z" fill="#45A0D4"/>
<path d="M128.468 26.1379C128.468 26.1379 130.787 29.3841 128.468 30.3116C126.149 31.2391 122.671 28.6885 119.193 32.6303" stroke="#660000" stroke-width="0.579677" stroke-miterlimit="10" stroke-linejoin="round"/>
<path d="M237.215 180.332C237.215 180.332 243.708 180.564 246.49 180.796C251.591 181.26 252.055 181.955 252.055 181.955" stroke="#660000" stroke-width="0.579677" stroke-miterlimit="10" stroke-linejoin="round"/>
</g>
<defs>
<clipPath id="clip0">
<rect width="279.868" height="340.85" fill="white" transform="translate(0.0115967 0.864014)"/>
</clipPath>
</defs>
</svg>
