<svg width="352" height="350" viewBox="0 0 352 350" fill="none" xmlns="http://www.w3.org/2000/svg">
<g clip-path="url(#clip0)">
<path d="M128.793 60.4243C105.142 75.9596 64.5651 112.827 66.4201 139.956C68.275 167.085 57.8408 166.389 51.8122 202.561C45.7836 238.733 107.461 294.15 157.777 291.599C208.093 289.049 183.051 265.166 234.294 279.31C285.538 293.454 330.521 270.499 345.129 223.198C361.823 168.94 349.998 30.7448 258.409 31.6723C197.427 32.1361 154.763 43.2658 128.793 60.4243Z" fill="#F8F9FF"/>
<path d="M39.0592 83.8432H57.8407L52.9714 106.103H42.5373L39.0592 83.8432Z" fill="#E2603D"/>
<path d="M37.4363 83.8432C37.4363 83.1476 37.9 83.3795 38.3638 83.1476C38.8275 83.1476 57.8409 83.1476 57.8409 83.1476C57.8409 83.1476 58.7684 83.3795 58.7684 83.8432C58.7684 84.3069 58.3046 84.3069 58.0728 84.5388C57.8409 84.5388 38.5956 84.5388 38.5956 84.5388C38.5956 84.5388 37.4363 84.3069 37.4363 83.8432Z" fill="#F39684"/>
<path d="M167.052 52.7725C163.806 51.8451 158.705 52.7725 154.299 56.7143C150.125 60.4243 148.966 65.5254 151.98 67.1485C154.995 68.7716 158.936 68.076 164.733 67.1485C170.53 66.221 171.458 62.2792 171.458 58.3374C171.226 56.0187 169.139 53.2363 167.052 52.7725Z" fill="#E897A3"/>
<path d="M154.763 68.076C154.763 68.076 157.313 68.7716 157.545 70.8584C157.545 72.7134 157.313 73.8728 157.313 73.8728L166.356 71.3222C166.356 71.3222 166.124 70.6266 166.82 68.5397C167.516 66.6848 167.979 65.7573 167.979 65.7573L154.763 68.076Z" fill="#E897A3"/>
<path d="M57.8408 98.683C57.8408 98.683 52.5078 94.5093 47.8703 93.5818C43.2329 92.6543 39.9867 90.1037 39.7549 92.8862C39.523 95.6686 39.0592 94.973 37.8999 97.2917C36.9724 99.6104 38.8274 99.6104 38.1318 101.697C37.4362 103.784 35.5812 103.552 36.7405 107.03C38.1318 111.204 35.5812 111.436 39.9867 113.755C44.3923 116.073 50.189 120.015 50.189 120.015L57.8408 98.683Z" fill="#E897A3"/>
<path d="M46.9429 282.788L46.2473 287.426L121.142 300.41L122.069 294.614L46.9429 282.788Z" fill="#81C9BC"/>
<path d="M302.696 192.591H306.406L304.319 253.804H301.073L302.696 192.591Z" fill="#81C9BC"/>
<path d="M187.457 55.3231C187.689 53.4681 182.819 55.555 181.66 55.0912C180.732 54.8594 183.283 54.6275 184.906 52.7725C186.761 50.9176 186.065 48.5988 182.124 49.7582C178.877 50.6857 175.863 50.2219 170.994 51.1494C166.588 51.845 164.038 52.5407 164.038 52.5407C164.038 52.7725 163.806 53.0044 163.806 53.2363C163.806 53.2363 164.038 53.7 163.11 55.0912C162.415 56.0187 161.719 56.7143 162.646 58.1056C163.11 58.8012 162.646 60.6561 162.878 60.1924C164.038 59.2649 164.27 58.1056 165.197 58.3374C166.588 58.8012 165.429 60.6561 165.197 62.0474C164.965 63.4386 167.748 66.221 167.748 66.221C167.748 66.221 180.501 63.9023 183.283 62.743C186.065 61.3517 182.819 60.6561 182.819 59.9605C182.819 59.2649 187.225 58.5693 187.457 55.3231Z" fill="#5959EA"/>
<path d="M268.843 119.088C268.843 119.088 269.771 126.044 272.553 126.971C276.495 128.594 276.727 123.261 276.727 123.261C276.727 123.261 278.814 126.044 280.437 125.116C283.451 123.493 282.987 119.319 282.987 119.319C282.987 119.319 284.147 121.87 285.77 120.943C288.552 119.319 286.929 116.305 286.929 116.305C286.929 116.305 288.32 118.16 289.248 117.001C291.335 114.682 286.465 103.784 286.465 103.784L268.843 119.088Z" fill="#E897A3"/>
<path d="M193.022 52.5407C190.935 53.0044 188.384 53.0044 189.312 54.3956C190.239 55.7869 195.34 54.3956 195.34 53.4681C195.572 52.5407 194.413 52.3088 193.022 52.5407Z" fill="#9ECBE3"/>
<path d="M190.935 57.4099C190.239 57.6418 187.92 57.8737 189.312 58.5693C190.471 59.2649 192.094 58.3374 191.862 58.1056C191.63 57.8737 191.862 57.1781 190.935 57.4099Z" fill="#9ECBE3"/>
<path d="M54.5946 276.064C47.1747 276.76 46.9429 283.02 46.9429 283.02L122.069 294.614C123.692 293.222 122.069 287.426 122.069 287.426C122.069 287.426 75.463 279.542 73.3761 276.528C73.3761 276.296 62.0145 275.368 54.5946 276.064Z" fill="#9AF4DC"/>
<path d="M299.914 192.591C300.61 202.329 294.813 234.095 291.567 236.414C291.567 236.414 292.726 245.225 293.885 249.167C295.276 253.109 301.073 252.877 301.073 252.877L302.696 192.822H299.914V192.591Z" fill="#9AF4DC"/>
<path d="M299.914 192.591C299.914 191.199 299.45 190.272 299.218 189.808C294.117 186.562 291.798 191.199 291.798 191.199C291.798 191.199 284.842 192.359 269.075 192.359C252.149 192.359 245.656 176.592 244.961 171.027C243.106 171.722 192.558 189.808 155.922 181.461C118.591 173.345 116.504 162.911 116.504 162.911C116.504 162.911 87.7522 194.214 78.9411 222.734C70.3618 250.095 78.4773 264.471 79.1729 265.398C78.9411 265.166 78.4773 264.934 76.8542 265.166C71.0575 265.63 71.2893 273.282 73.3762 276.528C75.463 279.542 122.069 287.426 122.069 287.426C122.069 287.426 125.547 286.035 127.634 281.861C129.721 277.687 126.243 277.455 125.547 273.745C124.851 270.035 127.17 253.804 132.967 243.602C138.764 233.632 148.039 228.067 163.342 222.038C167.284 220.415 170.994 218.56 174.704 216.01C176.327 218.328 198.818 248.703 235.918 248.703C272.785 248.703 282.755 232.936 282.755 232.936C282.755 232.936 287.625 239.197 291.335 236.414C294.813 233.864 300.61 202.097 299.914 192.591Z" fill="#E2603D"/>
<path d="M244.729 171.258C244.729 171.258 244.961 171.258 244.729 171.258C244.729 171.258 244.729 170.331 244.497 168.94C244.729 168.94 244.497 169.867 244.729 171.258Z" fill="#44A1DB"/>
<path d="M274.408 80.1333C255.163 55.0913 193.022 65.7573 156.85 72.7134C129.257 78.0465 116.04 84.0751 98.4183 91.9587C78.0136 101.002 57.8409 98.683 57.8409 98.683L50.421 119.783C50.421 119.783 58.3046 131.145 67.8113 135.55C88.9116 145.521 100.041 143.434 104.911 143.666C112.562 144.13 116.272 162.679 116.272 162.679C116.272 162.679 118.359 172.882 155.458 181.461C192.094 189.808 242.642 171.722 244.497 171.027C244.265 169.635 244.265 168.708 244.265 168.708C243.801 163.607 242.178 150.622 239.396 139.956C235.686 126.276 232.208 113.523 232.208 113.523C232.208 113.523 245.888 104.712 253.772 107.726C261.655 110.74 268.611 118.856 268.611 118.856L286.234 103.784C286.697 104.016 286.697 95.9005 274.408 80.1333Z" fill="#3844E5"/>
<path d="M196.731 188.649C196.731 188.649 188.384 205.344 149.894 220.647C116.736 233.632 118.591 260.992 118.591 260.992" stroke="white" stroke-width="0.579677" stroke-miterlimit="10"/>
<path d="M84.9697 268.412C84.9697 268.412 92.3896 270.731 99.1138 271.89" stroke="white" stroke-width="0.579677" stroke-miterlimit="10"/>
<path d="M105.142 273.282L110.939 274.209" stroke="white" stroke-width="0.579677" stroke-miterlimit="10"/>
<path d="M285.074 231.081C285.074 231.081 286.465 232.936 288.089 227.371C289.016 224.125 291.567 202.561 291.567 202.561" stroke="white" stroke-width="0.579677" stroke-miterlimit="10"/>
<mask id="mask0" mask-type="alpha" maskUnits="userSpaceOnUse" x="50" y="64" width="237" height="120">
<path d="M274.408 80.1333C255.163 55.0913 193.022 65.7573 156.85 72.7134C129.257 78.0465 116.04 84.0751 98.4183 91.9587C78.0136 101.002 57.8409 98.683 57.8409 98.683L50.421 119.783C50.421 119.783 58.3046 131.145 67.8113 135.55C88.9116 145.521 100.041 143.434 104.911 143.666C112.562 144.13 116.272 162.679 116.272 162.679C116.272 162.679 118.359 172.882 155.458 181.461C192.094 189.808 242.642 171.722 244.497 171.027C244.265 169.635 244.265 168.708 244.265 168.708C243.801 163.607 242.178 150.622 239.396 139.956C235.686 126.276 232.208 113.523 232.208 113.523C232.208 113.523 245.888 104.712 253.772 107.726C261.655 110.74 268.611 118.856 268.611 118.856L286.234 103.784C286.697 104.016 286.697 95.9005 274.408 80.1333Z" fill="#3844E5"/>
</mask>
<g mask="url(#mask0)">
<path d="M49.0297 11.0358L58.5364 22.8612L71.2893 14.9776L80.796 26.803L93.5488 18.6875L103.056 30.5129L115.808 22.3975L125.315 34.2229L138.3 26.1074L147.575 37.9328L160.559 30.0492L170.066 41.8746L182.819 33.7591L192.326 45.5845L205.079 37.4691L214.585 49.2945L227.338 41.4109L236.845 53.2363L249.598 45.1208L259.105 56.9462L272.089 48.8307L281.364 60.6561L294.349 52.7725L303.856 64.5979L316.609 56.4825" stroke="white" stroke-width="0.579677" stroke-miterlimit="10"/>
<path d="M47.1747 21.7018L56.6814 33.5273L69.4343 25.4118L78.941 37.2372L91.9257 29.1217L101.201 40.9471L114.185 33.0635L123.46 44.8889L136.445 36.7734L145.952 48.5988L158.705 40.4834L168.211 52.3088L180.964 44.1933L190.471 56.0187L203.224 48.1351L212.73 59.9605L225.715 51.845L234.99 63.6704L247.975 55.555L257.481 67.3804L270.234 59.4968L279.741 71.3222L292.494 63.2067L302.001 75.0321L314.754 66.9166" stroke="white" stroke-width="0.579677" stroke-miterlimit="10"/>
<path d="M45.5516 32.136L54.8265 43.9615L67.8112 35.846L77.0861 47.6714L90.0708 39.7878L99.5775 51.6132L112.33 43.4977L121.837 55.3231L134.59 47.2076L144.097 59.0331L156.85 51.1494L166.356 62.9749L179.341 54.8594L188.616 66.6848L201.601 58.5693L211.107 70.3947L223.86 62.5111L233.367 74.3365L246.12 66.221L255.627 78.0465L268.379 69.931L277.886 81.7564L290.639 73.6409L300.146 85.4663L313.13 77.5827" stroke="white" stroke-width="0.579677" stroke-miterlimit="10"/>
<path d="M43.6967 42.8021L53.2034 54.6275L65.9562 46.512L75.4629 58.3374L88.2158 50.222L97.7225 62.0474L110.475 53.9319L119.982 65.7573L132.735 57.8737L142.242 69.6991L155.226 61.5836L164.501 73.409L177.486 65.2936L186.993 77.119L199.746 69.2354L209.252 81.0608L222.005 72.9453L231.512 84.7707L244.265 76.6552L253.772 88.4806L266.756 80.597L276.031 92.4224L289.016 84.307L298.523 96.1324L311.276 88.0169" stroke="white" stroke-width="0.579677" stroke-miterlimit="10"/>
<path d="M41.8417 53.2363L51.3484 65.0617L64.1013 56.9462L73.608 68.7716L86.3609 60.888L95.8676 72.7134L108.852 64.5979L118.127 76.4233L131.112 68.3079L140.619 80.1333L153.372 72.0178L162.878 83.8432L175.631 75.9596L185.138 87.785L197.891 79.6695L207.397 91.4949L220.15 83.3795L229.657 95.2049L242.642 87.3213L251.917 99.1467L264.901 91.0312L274.408 102.857L287.161 94.7411L296.668 106.567L309.421 98.6829" stroke="white" stroke-width="0.579677" stroke-miterlimit="10"/>
<path d="M39.9868 63.6705L49.4935 75.4959L62.4783 67.6123L71.7531 79.4377L84.7379 71.3222L94.2446 83.1476L106.997 75.0321L116.504 86.8575L129.257 78.9739L138.764 90.7994L151.517 82.6839L161.023 94.5093L173.776 86.3938L183.283 98.2192L196.268 90.3356L205.543 102.161L218.527 94.0455L228.034 105.871L240.787 97.7555L250.294 109.581L263.046 101.465L272.553 113.291L285.306 105.407L294.813 117.233L307.798 109.117" stroke="white" stroke-width="0.579677" stroke-miterlimit="10"/>
<path d="M38.3636 74.3365L47.8703 86.1619L60.6232 78.0464L70.1299 89.8718L82.8828 81.7563L92.3895 93.5818L105.142 85.6982L114.649 97.5236L127.402 89.4081L136.909 101.233L149.893 93.118L159.168 104.943L172.153 97.0598L181.66 108.885L194.413 100.77L203.919 112.595L216.672 104.48L226.179 116.305L238.932 108.421L248.439 120.247L261.191 112.131L270.698 123.957L283.683 115.841L293.19 127.667L305.942 119.551" stroke="white" stroke-width="0.579677" stroke-miterlimit="10"/>
<path d="M36.5088 84.7707L46.0155 96.5961L58.7684 88.7125L68.2751 100.538L81.028 92.4224L90.5347 104.248L103.288 96.1324L112.794 107.958L125.779 99.8423L135.054 111.668L148.039 103.784L157.545 115.609L170.298 107.494L179.805 119.319L192.558 111.204L202.065 123.029L214.817 115.146L224.324 126.971L237.309 118.856L246.584 130.681L259.568 122.566L269.075 134.391L281.828 126.507L291.335 138.333L304.088 130.217" stroke="white" stroke-width="0.579677" stroke-miterlimit="10"/>
<path d="M34.6537 95.4368L44.1604 107.262L56.9133 99.1467L66.42 110.972L79.4047 102.857L88.6796 114.682L101.664 106.798L111.171 118.624L123.924 110.508L133.431 122.334L146.184 114.218L155.69 126.044L168.443 118.16L177.95 129.986L190.703 121.87L200.209 133.695L213.194 125.58L222.469 137.405L235.454 129.29L244.96 141.115L257.713 133.232L267.22 145.057L279.973 136.942L289.48 148.767L302.464 140.652" stroke="white" stroke-width="0.579677" stroke-miterlimit="10"/>
<path d="M33.0306 105.871L42.3055 117.696L55.2902 109.581L64.7969 121.406L77.5498 113.523L87.0565 125.348L99.8094 117.233L109.316 129.058L122.069 120.943L131.576 132.768L144.329 124.884L153.835 136.71L166.82 128.594L176.095 140.42L189.08 132.304L198.586 144.13L211.339 136.246L220.846 148.071L233.599 139.956L243.106 151.781L255.858 143.666L265.365 155.491L278.35 147.376L287.625 159.433L300.609 151.318" stroke="white" stroke-width="0.579677" stroke-miterlimit="10"/>
<path d="M31.1755 116.537L40.6822 128.362L53.4351 120.247L62.9418 132.072L75.6947 123.957L85.2014 135.782L97.9543 127.667L107.461 139.724L120.446 131.609L129.721 143.434L142.705 135.319L152.212 147.144L164.965 139.028L174.472 150.854L187.225 142.97L196.731 154.796L209.484 146.68L218.991 158.506L231.744 150.39L241.25 162.216L254.235 154.332L263.51 166.157L276.495 158.042L286.002 169.867L298.754 161.752" stroke="white" stroke-width="0.579677" stroke-miterlimit="10"/>
<path d="M29.3207 126.971L38.8274 138.797L51.5803 130.681L61.087 142.507L74.0717 134.623L83.3466 146.448L96.3313 138.333L105.606 150.158L118.591 142.043L128.098 153.868L140.851 145.985L150.357 157.81L163.11 149.695L172.617 161.52L185.37 153.404L194.876 165.23L207.861 157.114L217.136 168.94L230.121 161.056L239.627 172.882L252.38 164.766L261.887 176.592L274.64 168.476L284.147 180.301L296.9 172.418" stroke="white" stroke-width="0.579677" stroke-miterlimit="10"/>
<path d="M27.6975 137.405L36.9723 149.231L49.9571 141.347L59.2319 153.173L72.2167 145.057L81.7234 156.883L94.4763 148.767L103.983 160.592L116.736 152.709L126.243 164.534L138.995 156.419L148.502 168.244L161.255 160.129L170.762 171.954L183.747 164.071L193.253 175.896L206.006 167.78L215.513 179.606L228.266 171.49L237.772 183.316L250.525 175.2L260.032 187.258L272.785 179.142L282.292 190.968L295.276 182.852" stroke="white" stroke-width="0.579677" stroke-miterlimit="10"/>
<path d="M25.8425 148.071L35.3492 159.897L48.1021 151.781L57.6088 163.607L70.3617 155.491L79.8684 167.549L92.6213 159.433L102.128 171.258L114.881 163.143L124.388 174.968L137.372 166.853L146.647 178.678L159.632 170.795L169.139 182.62L181.892 174.505L191.398 186.33L204.151 178.215L213.658 190.04L226.411 182.156L235.917 193.982L248.902 185.866L258.177 197.692L271.162 189.576L280.668 201.402L293.421 193.518" stroke="white" stroke-width="0.579677" stroke-miterlimit="10"/>
<path d="M23.9877 158.506L33.4944 170.331L46.2473 162.447L55.754 174.273L68.5069 166.157L78.0136 177.983L90.9983 169.867L100.273 181.693L113.258 173.809L122.765 185.635L135.517 177.519L145.024 189.344L157.777 181.229L167.284 193.054L180.037 184.939L189.543 196.764L202.296 188.881L211.803 200.706L224.788 192.591L234.063 204.416L247.047 196.301L256.554 208.126L269.307 200.242L278.814 212.068L291.567 203.952" stroke="white" stroke-width="0.579677" stroke-miterlimit="10"/>
<path d="M22.1327 169.172L31.6394 180.997L44.6242 172.882L53.899 184.707L66.8837 176.591L76.1586 188.417L89.1433 180.533L98.65 192.359L111.403 184.243L120.91 196.069L133.663 187.953L143.169 199.779L155.922 191.895L165.429 203.72L178.414 195.605L187.688 207.43L200.673 199.315L210.18 211.14L222.933 203.025L232.439 215.082L245.192 206.967L254.699 218.792L267.452 210.676L276.959 222.502L289.943 214.386" stroke="white" stroke-width="0.579677" stroke-miterlimit="10"/>
<path d="M20.5096 179.606L29.7845 191.431L42.7692 183.316L52.2759 195.373L65.0288 187.258L74.5355 199.083L87.2884 190.967L96.7951 202.793L109.548 194.677L119.055 206.503L131.808 198.619L141.314 210.445L154.299 202.329L163.806 214.155L176.559 206.039L186.065 217.865L198.818 209.981L208.325 221.806L221.078 213.691L230.585 225.516L243.337 217.401L252.844 229.226L265.829 221.343L275.336 233.168L288.088 225.052" stroke="white" stroke-width="0.579677" stroke-miterlimit="10"/>
</g>
<path d="M251.685 139.724C240.555 139.724 231.512 130.681 231.512 119.551C231.512 108.422 240.555 99.3785 251.685 99.3785C262.815 99.3785 271.857 108.422 271.857 119.551C272.089 130.681 262.815 139.724 251.685 139.724ZM251.685 115.378C249.366 115.378 247.279 117.233 247.279 119.783C247.279 122.102 249.134 124.189 251.685 124.189C254.003 124.189 256.09 122.334 256.09 119.783C256.09 117.233 254.235 115.378 251.685 115.378Z" fill="#FFCC99"/>
<path d="M270.93 125.812C271.626 123.957 271.857 121.87 271.857 119.551C271.857 108.422 262.815 99.3785 251.685 99.3785C240.555 99.3785 231.512 108.422 231.512 119.551C231.512 129.29 238.7 137.637 247.975 139.26C247.975 139.26 248.207 139.26 248.439 139.26C248.902 139.26 249.366 139.492 249.83 139.492C250.989 139.724 252.38 139.956 253.772 140.188C257.945 141.115 264.438 143.202 265.133 140.42C265.597 138.101 264.438 135.782 265.133 134.159C265.365 133.927 265.597 133.695 266.061 133.464C268.379 132.304 270.698 133.695 270.234 131.145C270.003 129.058 270.698 126.507 270.93 125.812ZM245.424 127.435C242.41 126.507 244.265 125.812 243.569 122.797C243.106 121.406 242.41 120.711 241.019 120.711C239.859 120.711 239.627 118.856 240.787 117.928C243.106 115.841 241.946 116.073 242.874 113.986C243.801 111.436 246.352 115.609 247.511 113.059C248.207 111.668 247.975 109.813 249.134 109.349C251.685 108.421 252.148 110.045 252.844 110.972C254.235 112.827 255.163 113.523 257.25 112.595C259.105 111.668 260.728 112.827 260.032 115.378C259.568 117.928 259.8 119.551 261.423 118.856C263.046 118.16 263.51 119.783 262.351 122.797C261.191 125.58 262.815 126.044 258.873 126.507C256.786 126.739 258.177 134.623 252.844 128.826C250.757 126.507 249.598 128.594 245.424 127.435Z" fill="#FF99FF"/>
<path d="M268.843 143.202C269.075 144.825 273.249 146.68 274.64 145.521C276.263 144.361 275.567 142.275 273.944 142.043C272.321 142.043 268.611 140.883 268.843 143.202Z" fill="#FF99FF"/>
<path d="M269.539 136.478C269.307 137.637 271.394 138.333 272.089 137.637C272.785 136.942 272.321 136.246 271.857 135.782C271.394 135.55 269.771 135.55 269.539 136.478Z" fill="#FF99FF"/>
<path d="M260.032 106.798C258.641 105.871 257.25 104.943 255.627 104.48M251.221 104.016C245.656 104.016 240.787 107.03 238.236 111.436C236.845 113.755 236.149 116.305 236.149 118.856L251.221 104.016Z" stroke="white" stroke-width="2.31871" stroke-miterlimit="10" stroke-linecap="round"/>
<path d="M255.627 137.637L260.96 138.797" stroke="white" stroke-width="2.31871" stroke-miterlimit="10" stroke-linecap="round"/>
<path d="M70.3618 274.905L74.9992 279.542" stroke="white" stroke-width="0.579677" stroke-miterlimit="10"/>
<path d="M68.5068 274.905L72.6805 279.542" stroke="white" stroke-width="0.579677" stroke-miterlimit="10"/>
<path d="M66.1881 275.368L70.3618 279.542" stroke="white" stroke-width="0.579677" stroke-miterlimit="10"/>
<path d="M290.871 237.805L295.74 236.414" stroke="white" stroke-width="0.579677" stroke-miterlimit="10"/>
<path d="M291.103 239.197L295.74 238.269" stroke="white" stroke-width="0.579677" stroke-miterlimit="10"/>
<path d="M291.567 240.82L295.74 239.892" stroke="white" stroke-width="0.579677" stroke-miterlimit="10"/>
<path d="M201.832 325.221L187.688 319.424L186.297 331.481L201.832 325.221Z" fill="#D63C30"/>
<path d="M267.22 111.436L265.829 116.537" stroke="#660000" stroke-width="0.579677" stroke-miterlimit="10" stroke-linejoin="round"/>
<path d="M235.222 111.436L236.845 114.218" stroke="#660000" stroke-width="0.579677" stroke-miterlimit="10" stroke-linejoin="round"/>
<path d="M246.815 131.609L243.105 133.232" stroke="#660000" stroke-width="0.579677" stroke-miterlimit="10" stroke-linejoin="round"/>
<path d="M254.467 106.798L250.525 111.436" stroke="#660000" stroke-width="0.579677" stroke-miterlimit="10" stroke-linejoin="round"/>
<path d="M243.337 118.856L242.178 123.029" stroke="#660000" stroke-width="0.579677" stroke-miterlimit="10" stroke-linejoin="round"/>
<path d="M259.336 123.725L260.032 128.362" stroke="#660000" stroke-width="0.579677" stroke-miterlimit="10" stroke-linejoin="round"/>
<path d="M237.773 126.044C238.285 126.044 238.7 125.628 238.7 125.116C238.7 124.604 238.285 124.189 237.773 124.189C237.26 124.189 236.845 124.604 236.845 125.116C236.845 125.628 237.26 126.044 237.773 126.044Z" fill="#9ECBE3"/>
<path d="M246.584 103.784C246.968 103.784 247.279 103.473 247.279 103.088C247.279 102.704 246.968 102.393 246.584 102.393C246.199 102.393 245.888 102.704 245.888 103.088C245.888 103.473 246.199 103.784 246.584 103.784Z" fill="#9ECBE3"/>
<path d="M264.438 129.754C265.078 129.754 265.597 129.235 265.597 128.594C265.597 127.954 265.078 127.435 264.438 127.435C263.797 127.435 263.278 127.954 263.278 128.594C263.278 129.235 263.797 129.754 264.438 129.754Z" fill="#9ECBE3"/>
<path d="M260.264 131.84C260.648 131.84 260.96 131.529 260.96 131.145C260.96 130.761 260.648 130.449 260.264 130.449C259.88 130.449 259.568 130.761 259.568 131.145C259.568 131.529 259.88 131.84 260.264 131.84Z" fill="#D63C30"/>
<path d="M252.612 102.393C253.125 102.393 253.54 101.978 253.54 101.465C253.54 100.953 253.125 100.538 252.612 100.538C252.1 100.538 251.685 100.953 251.685 101.465C251.685 101.978 252.1 102.393 252.612 102.393Z" fill="#D63C30"/>
<path d="M241.482 110.045C241.867 110.045 242.178 109.733 242.178 109.349C242.178 108.965 241.867 108.653 241.482 108.653C241.098 108.653 240.787 108.965 240.787 109.349C240.787 109.733 241.098 110.045 241.482 110.045Z" fill="#D63C30"/>
<path d="M248.207 136.478C248.719 136.478 249.134 136.063 249.134 135.55C249.134 135.038 248.719 134.623 248.207 134.623C247.695 134.623 247.279 135.038 247.279 135.55C247.279 136.063 247.695 136.478 248.207 136.478Z" fill="#D63C30"/>
<path d="M267.22 119.319C267.604 119.319 267.916 119.008 267.916 118.624C267.916 118.24 267.604 117.928 267.22 117.928C266.836 117.928 266.525 118.24 266.525 118.624C266.525 119.008 266.836 119.319 267.22 119.319Z" fill="#D63C30"/>
<path d="M262.583 105.639L259.336 106.798" stroke="#660000" stroke-width="0.579677" stroke-miterlimit="10" stroke-linejoin="round"/>
<path d="M64.7971 250.558C64.3333 247.08 64.1014 243.834 64.1014 240.356C64.1014 218.56 72.6807 198.387 87.5204 180.997" stroke="#660000" stroke-width="0.579677" stroke-miterlimit="10" stroke-linejoin="round"/>
<path d="M58.3045 257.978C57.3771 253.341 56.6814 248.703 56.4496 244.066C55.754 229.458 58.7683 214.85 65.2607 200.706" stroke="#660000" stroke-width="0.579677" stroke-miterlimit="10" stroke-linejoin="round"/>
<path d="M234.063 329.162C177.022 341.915 122.301 332.409 86.5928 307.599" stroke="#660000" stroke-width="0.579677" stroke-miterlimit="10" stroke-linejoin="round"/>
<path d="M215.281 258.21C225.02 261.224 240.091 263.543 258.177 258.21" stroke="#660000" stroke-width="0.579677" stroke-miterlimit="10" stroke-linejoin="round"/>
<path d="M252.844 61.5836C263.046 63.9023 271.394 68.3079 276.959 75.264" stroke="#660000" stroke-width="0.579677" stroke-miterlimit="10" stroke-linejoin="round"/>
<path d="M266.756 61.1199C276.263 65.5254 283.451 71.5541 287.393 79.6695" stroke="#660000" stroke-width="0.579677" stroke-miterlimit="10" stroke-linejoin="round"/>
<path d="M276.959 244.761C279.509 242.907 281.364 241.283 282.292 240.124" stroke="#660000" stroke-width="0.579677" stroke-miterlimit="10" stroke-linejoin="round"/>
<path d="M175.863 225.516C183.747 234.791 204.615 254.732 235.454 254.732C254.931 254.732 266.988 250.558 274.408 246.385" stroke="#660000" stroke-width="0.579677" stroke-miterlimit="10" stroke-linejoin="round"/>
<path d="M172.153 327.539C151.053 326.38 131.576 321.743 114.649 314.091" stroke="#660000" stroke-width="0.579677" stroke-miterlimit="10" stroke-linejoin="round"/>
<path d="M49.9572 78.9739C52.7396 76.1915 55.9858 79.6695 58.7682 76.8871C59.4639 76.1915 59.6957 75.4959 59.9276 74.8003C60.3913 72.7134 59.0001 70.1628 61.087 68.3079C63.8694 65.5254 67.1156 69.0035 69.898 66.221C72.6805 63.4386 69.4343 60.1924 72.2167 57.41C74.9992 54.6275 78.2454 58.1056 81.0278 55.3231" stroke="#660000" stroke-width="0.579677" stroke-miterlimit="10" stroke-linejoin="round"/>
<path d="M43.4648 73.8728C46.2473 71.0903 49.4935 74.5684 52.2759 71.7859C55.0584 69.0035 51.8122 65.7573 54.5946 62.9748C57.3771 60.1924 60.6233 63.6705 63.4057 60.888C66.1882 58.1056 62.942 54.8594 65.7244 52.0769C68.5069 49.2945 71.7531 52.7725 74.5355 49.9901" stroke="#660000" stroke-width="0.579677" stroke-miterlimit="10" stroke-linejoin="round"/>
<path d="M66.8838 73.8728C69.6662 71.0903 72.9124 74.5684 75.6949 71.7859C76.3905 71.0903 76.6224 70.3947 76.8542 69.6991C77.318 67.6123 75.9268 65.0617 78.0136 63.2067C80.796 60.4243 84.0422 63.9023 86.8247 61.1199" stroke="#660000" stroke-width="0.579677" stroke-miterlimit="10" stroke-linejoin="round"/>
<path d="M180.964 323.829H192.326" stroke="#660000" stroke-width="0.579677" stroke-miterlimit="10" stroke-linejoin="round"/>
<path d="M176.791 327.539L190.007 327.076" stroke="#660000" stroke-width="0.579677" stroke-miterlimit="10" stroke-linejoin="round"/>
<path d="M259.336 255.196L263.51 261.224L270.698 252.645L259.336 255.196Z" fill="#45A0D4"/>
</g>
<defs>
<clipPath id="clip0">
<rect width="350.589" height="348.965" fill="white" transform="translate(0.568726 0.369751)"/>
</clipPath>
</defs>
</svg>
