<svg width="336" height="353" viewBox="0 0 336 353" fill="none" xmlns="http://www.w3.org/2000/svg">
<g clip-path="url(#clip0)">
<path d="M61.9972 47.2963C61.9972 47.2963 31.6222 35.4709 9.59446 69.324C-12.4333 103.177 13.7681 125.437 8.89884 162.536C4.02956 199.635 32.3178 228.619 68.4896 231.865C104.661 235.112 138.283 254.125 199.265 298.18C257.928 340.613 332.822 274.993 335.141 205.896C336.764 153.493 302.215 157.899 299.665 111.293C296.882 55.8755 244.016 24.3411 222.916 19.0081C109.299 -10.2076 98.401 50.3106 61.9972 47.2963Z" fill="#F8F9FF"/>
<path d="M128.312 312.093C128.312 312.093 129.008 314.875 127.385 317.889C125.762 320.904 123.211 322.527 127.153 323.223C130.863 323.918 135.268 325.077 136.66 323.223C137.587 322.063 135.964 319.049 135.732 317.889C135.5 316.73 135.037 313.484 135.037 313.484L128.312 312.093Z" fill="#D4EBF9"/>
<path d="M117.182 307.223C117.182 307.223 120.429 310.933 121.588 313.252C122.747 315.339 123.211 317.889 121.82 318.585C120.429 319.281 119.965 319.976 121.124 320.44C122.284 320.904 127.385 320.208 128.312 318.353C129.24 316.498 125.53 311.397 125.994 309.774C126.457 307.919 125.298 305.832 125.298 305.832L117.182 307.223Z" fill="#D4EBF9"/>
<path d="M149.876 99.4672C149.876 99.4672 152.195 99.931 154.05 100.395C155.905 100.858 157.76 100.858 156.832 102.018C155.905 103.177 153.354 103.641 153.354 103.641L149.876 99.4672Z" fill="#E897A3"/>
<path d="M58.2873 96.4529C58.2873 96.4529 34.4046 96.221 25.3617 122.654C21.4199 134.248 29.0716 147.233 39.042 147.696C49.0125 148.16 49.2444 145.378 53.8818 150.015C58.5192 154.652 58.0554 165.319 74.5183 165.087C90.9811 164.855 91.9086 157.203 97.7053 161.84C103.502 166.478 112.081 172.97 121.356 170.652C130.631 168.333 138.515 156.276 146.398 159.986C154.282 163.695 173.063 181.549 189.99 171.115C206.916 160.681 202.975 137.958 211.554 142.827C220.365 147.464 219.669 157.435 228.944 152.102C238.219 146.769 236.364 127.06 235.9 117.785C235.437 108.51 233.118 90.4243 220.133 87.6418C207.148 84.8594 202.047 96.4529 187.207 93.4386C172.368 90.4243 143.384 82.0769 133.413 87.1781C123.443 92.2792 58.2873 96.4529 58.2873 96.4529Z" fill="#EBEEFF"/>
<path d="M193.932 229.315C197.178 229.547 192.309 220.04 198.569 217.258C204.83 214.475 214.104 222.359 216.655 219.576C219.437 216.794 212.713 204.968 226.625 203.809C240.538 202.65 245.871 215.866 249.117 216.562C252.131 217.258 253.291 208.446 264.884 216.562C276.478 224.677 267.203 231.17 269.058 234.416C270.913 237.43 284.593 232.097 290.39 243.691C296.187 255.284 291.549 281.254 268.826 285.196C247.958 288.906 246.103 279.631 243.784 280.095C240.77 280.558 245.871 290.992 228.48 290.297C216.423 289.833 206.916 275.689 203.438 274.761C199.96 274.066 199.497 279.399 191.845 278.935C184.193 278.471 172.6 258.067 172.831 246.937C173.527 235.807 176.773 228.619 193.932 229.315Z" fill="#EBEEFF"/>
<path d="M216.191 16.6894C216.887 15.7619 218.742 13.9069 216.655 9.73324C214.568 5.55957 213.873 6.48705 213.177 4.86396C212.481 3.24086 211.786 2.54525 211.09 2.77712C210.395 3.00899 211.09 3.93647 210.163 3.93647C209.235 3.93647 207.38 0.45841 206.221 1.15402C205.061 1.84964 205.989 3.47273 205.061 3.24086C203.902 3.00899 202.511 -0.237202 201.352 0.458411C200.192 1.15402 201.12 4.40021 200.192 4.40021C199.265 4.40021 197.874 0.458411 196.482 2.08151C195.091 3.7046 196.019 7.18266 198.569 9.2695C201.12 11.3563 203.438 13.4432 203.67 15.7619C203.902 18.0806 203.67 18.7762 203.67 18.7762H216.423C216.191 19.0081 215.959 17.1531 216.191 16.6894Z" fill="#E897A3"/>
<path d="M186.048 205.896C186.048 205.896 185.816 209.838 186.048 211.925C186.28 214.011 210.395 227.692 215.728 228.619C220.597 229.547 220.829 227.924 220.829 227.924C220.829 227.924 221.756 225.837 220.829 224.677C218.046 220.736 209.467 215.866 206.916 211.693C205.062 208.678 205.062 208.215 205.062 208.215L186.048 205.896Z" fill="#98A2F4"/>
<path d="M266.971 163C265.812 166.246 264.652 160.913 258.392 161.84C252.131 163 244.479 174.593 248.189 181.549C252.595 189.897 259.319 187.114 261.406 190.592C263.493 194.07 258.624 196.621 266.275 200.563C273.927 204.505 281.347 196.389 284.825 200.331C288.303 204.273 295.491 206.128 302.911 201.258C305.925 199.172 306.621 194.766 309.403 194.534C313.809 194.071 317.287 192.216 318.678 187.346C323.084 172.275 312.649 165.319 308.476 164.391C304.534 163.464 304.302 165.782 301.056 162.768C298.737 160.681 296.65 159.754 292.94 159.986C288.303 160.217 288.767 164.391 285.057 162.768C281.579 161.145 277.173 153.493 272.072 155.58C268.362 157.203 268.362 159.522 266.971 163Z" fill="#EBEEFF"/>
<path d="M190.454 271.052C191.606 271.052 192.54 270.117 192.54 268.965C192.54 267.812 191.606 266.878 190.454 266.878C189.301 266.878 188.367 267.812 188.367 268.965C188.367 270.117 189.301 271.052 190.454 271.052Z" fill="#E2603D"/>
<path d="M260.247 105.728C252.827 102.482 245.871 98.3079 242.393 98.3079C238.915 98.3079 237.523 107.351 237.523 107.351L255.841 115.234C255.841 115.234 257.001 115.93 257.928 117.089C259.319 117.553 261.638 118.712 264.652 119.872C269.058 121.727 272.536 126.132 273.695 122.654C275.782 116.162 267.203 108.742 260.247 105.728Z" fill="#98A2F4"/>
<path d="M257.928 117.089C257 115.93 255.841 115.234 255.841 115.234L237.523 107.351L235.9 106.655C235.9 106.655 234.741 109.206 230.799 112.452C226.857 115.698 226.857 115.698 226.857 115.698C226.857 115.698 218.278 92.9748 202.511 85.555C186.744 78.1351 174.686 81.1494 174.686 81.1494C174.686 81.1494 147.094 93.9023 144.775 95.5254C142.92 94.1342 141.761 93.4386 141.761 93.4386L129.008 107.351C129.008 107.351 120.66 110.365 116.487 111.988C118.806 120.336 125.066 136.335 138.515 144.218C162.165 158.131 192.309 153.957 192.309 153.957C192.309 153.957 187.671 164.391 186.048 177.84C184.425 191.288 185.352 206.128 185.352 206.128C185.352 206.128 204.598 209.606 207.38 208.446C210.163 207.287 207.38 204.273 207.38 204.273C207.38 204.273 221.988 178.071 225.466 169.724C228.944 161.377 232.654 148.624 232.654 148.624C232.654 148.624 247.726 139.349 252.363 130.77C257 122.191 257 122.191 257 122.191C257 122.191 258.855 122.886 259.319 121.031C259.551 119.64 258.855 118.249 257.928 117.089Z" fill="#E2603D"/>
<path d="M216.191 19.0081H203.438C203.438 19.0081 202.743 35.9347 190.917 39.4127C178.86 42.8908 158.687 38.4852 153.354 38.2534C152.195 38.2534 150.108 38.0215 147.789 38.0215C139.21 37.5577 125.53 36.3984 122.979 36.1665C122.747 36.1665 122.516 36.1665 122.516 36.1665C122.516 36.1665 118.574 37.3259 112.777 39.4127C111.618 39.8765 110.458 40.3402 109.067 40.8039C97.2417 45.6732 80.0832 54.4843 69.1853 67.7009C64.5479 73.2658 61.0698 79.7582 59.6786 86.9462C53.4181 116.858 71.9678 118.944 77.9964 119.408C94.6911 120.799 110.69 114.307 113.936 112.916C114.168 112.684 115.096 112.452 116.487 111.988C120.892 110.365 129.008 107.351 129.008 107.351L141.761 93.4386C141.761 93.4386 143.152 94.3661 144.775 95.5254C147.094 93.9023 174.687 81.1494 174.687 81.1494V77.9033C174.687 77.9033 187.903 84.8594 207.148 77.2076C218.51 72.8021 223.843 64.2229 225.002 53.5568C227.089 35.7028 216.191 19.0081 216.191 19.0081Z" fill="#9ECBE3"/>
<path d="M155.441 107.351C154.977 105.032 154.282 105.96 152.891 102.945C152.427 102.018 151.268 100.627 149.644 99.2354C148.021 97.8441 146.166 96.4529 144.775 95.2936C142.92 93.9023 141.761 93.2067 141.761 93.2067L129.008 107.119C129.008 107.119 132.022 107.583 134.805 108.974C137.587 110.597 140.138 110.133 142.225 110.597C144.08 111.061 144.311 112.684 146.166 113.611C148.021 114.539 145.703 111.061 146.398 110.133C147.094 109.206 151.268 111.756 152.891 110.829C154.514 109.901 151.499 107.351 151.499 107.351C151.499 107.351 151.963 107.815 153.122 108.51C154.05 109.206 156.137 109.67 155.441 107.351Z" fill="#E897A3"/>
<path d="M141.065 26.8917C141.529 26.1961 141.761 25.2686 140.601 24.1092C139.442 22.9499 136.891 22.718 139.906 19.9356C143.152 16.9212 144.079 19.0081 144.079 19.0081C144.079 19.0081 144.543 18.7762 145.703 17.6169C145.703 17.6169 150.572 12.5157 153.818 12.9794C154.514 12.9794 155.441 12.7476 156.137 12.9794C156.137 12.9794 145.007 8.57389 136.428 11.8201C127.849 15.0663 123.211 22.9499 113.936 20.1674C110.226 19.0081 111.618 11.3563 102.806 12.5157C93.9954 13.675 96.7778 25.5005 88.6623 25.9642C80.5469 26.4279 77.3007 19.0081 70.8083 19.0081C64.5478 19.0081 61.0697 21.0949 54.8092 25.9642C48.5487 30.8335 42.2882 46.6007 54.8092 57.7305C67.3302 68.8603 69.1852 67.7009 69.1852 67.7009C80.0831 54.4843 97.2416 45.6732 109.067 40.8039C110.458 40.1083 112.777 39.4127 112.777 39.4127C118.574 37.094 123.675 37.3259 123.675 37.3259C123.675 37.3259 139.21 30.3697 139.906 29.2104C140.601 28.051 140.37 28.051 141.065 26.8917Z" fill="#E2603D"/>
<path d="M161.238 27.1235C160.774 26.1961 160.31 25.2686 159.847 24.573C159.847 23.6455 159.847 22.4861 160.079 21.5586C160.31 16.2256 157.992 13.9069 155.441 12.9794C154.746 12.7475 154.282 12.5157 153.586 12.5157C150.34 12.0519 145.239 17.1531 145.239 17.1531C144.079 18.3124 144.311 19.2399 144.311 19.2399C144.311 19.2399 142.456 15.7619 139.21 18.7762C136.196 21.5586 139.674 23.1817 140.601 24.3411C141.761 25.5004 141.065 25.7323 140.601 26.6598C139.906 27.8191 139.906 27.8191 139.21 28.9785C138.515 30.1379 122.516 36.3984 122.516 36.3984C122.516 36.3984 122.747 36.3984 122.979 36.3984C125.298 36.6302 139.442 37.7896 147.789 38.2533C147.094 37.5577 146.63 36.6302 146.862 36.1665C147.326 35.4709 151.499 38.0215 155.673 36.6302C157.992 35.9346 158.919 33.384 159.383 30.3697C159.847 30.3697 160.31 30.1379 160.774 29.906C162.165 29.2104 162.165 28.9785 161.238 27.1235Z" fill="#E897A3"/>
<path d="M106.748 322.295C106.748 322.295 76.1414 321.599 81.9381 328.324C87.9668 335.512 120.197 326.469 128.312 331.802C136.428 337.135 118.806 336.439 126.457 344.091C134.109 351.743 170.513 357.771 191.149 345.714C211.786 333.657 180.019 306.76 178.164 287.283C176.773 272.211 191.381 268.733 191.381 268.733" stroke="#660000" stroke-width="0.579677" stroke-miterlimit="10" stroke-linejoin="round"/>
<path d="M120.197 268.965C114.632 268.269 109.299 266.414 103.966 262.936C100.024 260.154 97.2416 257.835 95.3867 255.98C95.1548 258.067 91.4449 280.326 97.7054 289.601C104.198 299.34 118.342 310.238 118.342 310.238L125.53 309.774C124.602 304.209 122.284 290.761 121.356 282.645C120.661 274.762 120.429 270.588 120.197 268.965Z" fill="#9AF4DC"/>
<path d="M150.572 258.531C143.384 265.719 132.718 269.66 121.82 268.965C121.356 268.965 120.661 268.965 120.197 268.965C120.197 270.82 120.661 274.993 121.588 282.413C122.747 290.529 124.37 303.977 125.298 309.542C125.53 311.165 126.225 312.093 126.225 312.093L134.805 313.252C134.805 313.252 141.761 310.933 146.63 298.644C150.572 288.21 150.572 265.255 150.572 258.531Z" fill="#9AF4DC"/>
<path d="M140.833 208.215C129.008 198.476 125.994 194.302 104.43 187.81C83.5612 181.549 74.0546 183.404 69.649 189.433C56.2005 208.215 73.5908 232.793 83.0975 240.908C86.3437 243.691 90.0536 242.763 90.2855 243.923C90.5174 245.778 91.213 248.792 91.213 248.792C91.213 248.792 91.4449 251.343 95.3867 255.516C97.2416 257.603 100.024 259.922 103.966 262.472C109.067 265.95 114.632 268.037 120.197 268.501C120.661 268.501 121.356 268.501 121.82 268.501C132.718 269.429 143.152 265.255 150.572 258.067C150.572 258.067 158.919 255.748 161.47 248.328C166.803 233.72 152.659 217.953 140.833 208.215Z" fill="#98A2F4"/>
<path d="M113.936 197.317C113.936 197.317 109.995 204.041 115.328 210.07C120.197 215.634 124.37 212.388 126.225 208.447C128.08 204.505 127.617 197.549 123.211 196.389C118.574 194.998 116.023 194.998 113.936 197.317Z" fill="#E897A3"/>
<path d="M124.371 243.691H91.6768V246.01H124.371V243.691Z" fill="#D4EBF9"/>
<path d="M111.618 244.618C111.386 243.923 109.995 243.227 107.908 243.227C105.821 243.227 104.43 243.691 104.198 244.386V244.618L105.125 248.792H107.676H110.226L111.154 244.618C111.618 244.85 111.618 244.618 111.618 244.618Z" fill="#D4EBF9"/>
<path d="M111.386 267.574H104.43C103.966 267.574 103.734 267.342 103.734 266.878V264.327C103.734 263.864 103.966 263.632 104.43 263.632H111.386C111.849 263.632 112.081 263.864 112.081 264.327V266.878C112.081 267.342 111.849 267.574 111.386 267.574Z" fill="#D4EBF9"/>
<path d="M109.067 249.024H106.748V264.791H109.067V249.024Z" fill="#D4EBF9"/>
<path d="M111.386 267.574H104.43V317.658H111.386V267.574Z" fill="#E2603D"/>
<path d="M111.386 317.426H104.43C103.966 317.426 103.734 317.658 103.734 318.121V324.614C103.734 325.077 103.966 325.309 104.43 325.309H111.386C111.849 325.309 112.081 325.077 112.081 324.614V318.121C112.081 317.89 111.849 317.426 111.386 317.426Z" fill="#D4EBF9"/>
<path d="M124.602 325.078L123.443 322.759C123.211 322.295 122.747 321.831 122.284 321.831L116.719 321.368H112.777C112.545 321.368 112.313 321.599 112.081 321.831C111.849 322.063 111.618 322.295 111.386 322.295H107.908H104.43C104.198 322.295 103.966 322.063 103.734 321.831C103.502 321.599 103.27 321.368 103.038 321.368H99.0965L93.5316 321.831C93.0679 321.831 92.6041 322.295 92.3723 322.759L91.2129 325.078C90.981 325.541 91.2129 325.773 91.6767 326.005L98.169 326.932C98.169 326.932 98.169 326.932 98.4009 326.932H103.27C103.734 326.932 103.966 326.701 104.198 326.469C104.43 326.237 104.661 326.005 104.893 326.005H107.908H108.139H108.371H111.386C111.618 326.005 111.849 326.237 112.081 326.469C112.313 326.701 112.545 326.932 113.009 326.932H117.878C117.878 326.932 117.878 326.932 118.11 326.932L124.602 326.005C124.602 326.005 124.834 325.541 124.602 325.078Z" fill="#D4EBF9"/>
<path d="M101.879 246.937H90.7492C90.2855 246.937 90.0536 246.705 90.0536 246.241V243.691C90.0536 243.459 90.2855 242.995 90.7492 242.995H101.879C102.343 242.995 102.575 243.227 102.575 243.691V246.241C102.575 246.705 102.111 246.937 101.879 246.937Z" fill="#D4EBF9"/>
<path d="M125.298 246.937H114.168C113.704 246.937 113.473 246.705 113.473 246.241V243.691C113.473 243.459 113.704 242.995 114.168 242.995H125.298C125.762 242.995 125.994 243.227 125.994 243.691V246.241C125.994 246.705 125.762 246.937 125.298 246.937Z" fill="#D4EBF9"/>
<path d="M91.6767 240.445C93.7635 239.517 97.9372 239.285 100.024 240.445C102.111 241.604 102.806 246.937 101.879 247.633C100.952 248.328 100.024 247.401 99.5603 247.633C99.0965 247.864 98.4009 248.792 97.9372 248.792C97.4735 248.792 97.0097 247.865 96.546 248.096C96.0822 248.096 96.0822 249.024 95.1547 248.792C94.2273 248.56 94.2273 247.633 93.7635 248.096C92.6042 248.792 91.6767 248.56 91.4448 247.865C90.9811 244.85 90.2855 243.459 90.0536 242.763C90.0536 241.372 91.2129 240.445 91.6767 240.445Z" fill="#E897A3"/>
<path d="M118.574 239.749C118.574 239.749 115.559 238.59 114.168 241.14C112.777 243.691 113.704 247.169 114.864 247.401C116.023 247.633 117.182 246.473 117.646 247.401C118.11 248.328 119.733 247.633 120.197 247.401C120.661 247.401 121.356 248.792 122.284 248.56C123.211 248.328 123.211 247.865 123.211 247.865C123.211 247.865 125.298 248.56 125.53 246.937C125.762 245.314 126.457 241.372 125.066 240.908C123.443 240.445 118.574 239.749 118.574 239.749Z" fill="#E897A3"/>
<path d="M113.241 198.012C113.241 198.012 114.168 195.462 117.646 194.766C121.588 194.07 123.211 193.375 125.994 192.216C128.544 191.056 127.617 192.679 128.544 193.375C129.472 194.302 131.327 191.52 132.95 193.375C134.573 195.23 129.24 197.317 130.167 198.94C131.095 200.795 134.109 198.708 133.877 200.795C133.645 202.882 127.153 203.577 127.153 203.577C127.153 203.577 124.371 201.954 122.052 203.113C119.733 204.273 118.11 203.809 115.791 203.345C113.473 202.65 112.545 203.809 112.545 203.809C112.545 203.809 111.85 201.027 113.241 198.012Z" fill="#44A1DB"/>
<path d="M135.5 191.056C135.037 190.592 135.037 189.897 135.268 189.665L136.428 188.274C136.891 187.81 137.355 187.81 137.819 188.042C138.283 188.506 138.283 188.969 138.051 189.433L136.891 190.824C136.66 191.288 135.964 191.52 135.5 191.056Z" fill="#44A1DB"/>
<path d="M134.805 198.94C134.573 198.708 134.573 198.012 134.805 197.78L135.268 197.317C135.5 197.085 136.196 197.085 136.428 197.317C136.66 197.549 136.66 198.244 136.428 198.476L135.964 198.94C135.732 199.172 135.268 199.172 134.805 198.94Z" fill="#44A1DB"/>
<path d="M216.191 19.0081H203.438C203.438 19.0081 202.743 35.9347 190.917 39.4127C178.86 42.8908 158.687 38.4852 153.354 38.2534C152.195 38.2534 150.108 38.0215 147.789 38.0215C139.21 37.5577 125.066 36.3984 122.515 36.1665C118.574 37.3259 116.023 38.4852 112.777 39.4127C111.618 39.8765 110.458 40.3402 109.067 40.8039C97.2416 45.6732 80.0831 54.4843 69.1852 67.7009C64.5478 73.2658 61.0697 79.7582 59.6785 86.9462C53.418 116.858 71.9676 118.944 77.9963 119.408C94.691 120.799 110.69 114.307 113.936 112.916C114.168 112.684 115.096 112.452 116.487 111.988C120.892 110.365 129.008 107.351 129.008 107.351L141.761 93.4386C141.761 93.4386 143.152 94.3661 144.775 95.5254C147.094 93.9023 174.686 81.1494 174.686 81.1494V77.9033C174.686 77.9033 187.903 84.8594 207.148 77.2076C218.51 72.8021 223.843 64.2229 225.002 53.5568C227.089 35.7028 216.191 19.0081 216.191 19.0081Z" fill="#3844E5"/>
<mask id="mask0" mask-type="alpha" maskUnits="userSpaceOnUse" x="58" y="18" width="168" height="102">
<path d="M216.537 18.7762H203.784C203.784 18.7762 203.088 35.7028 191.263 39.1808C179.206 42.6589 159.033 38.2534 153.7 38.0215C152.541 38.0215 150.454 37.7896 148.135 37.7896C139.556 37.3259 125.412 36.1665 122.861 35.9346C118.919 37.094 116.369 38.2534 113.123 39.1808C111.963 39.6446 110.804 40.1083 109.413 40.5721C97.5873 45.4413 80.4288 54.2524 69.5309 67.4691C64.8935 73.034 61.4154 79.5264 60.0242 86.7143C53.7637 116.626 72.3133 118.713 78.342 119.176C95.0367 120.567 111.036 114.075 114.282 112.684C114.514 112.452 115.441 112.22 116.833 111.756C121.238 110.133 129.354 107.119 129.354 107.119L142.106 93.2067C142.106 93.2067 143.498 94.1342 145.121 95.2936C147.439 93.6705 175.032 80.9176 175.032 80.9176V77.6714C175.032 77.6714 188.249 84.6275 207.494 76.9758C218.856 72.5702 224.189 63.991 225.348 53.325C227.435 35.4709 216.537 18.7762 216.537 18.7762Z" fill="#3844E5"/>
</mask>
<g mask="url(#mask0)">
<path d="M228.944 112.452H222.684L225.698 106.887L228.944 112.452Z" fill="#44A1DB"/>
<path d="M228.944 99.0035H222.684L225.698 93.4386L228.944 99.0035Z" fill="#44A1DB"/>
<path d="M228.944 85.555H222.684L225.698 79.9901L228.944 85.555Z" fill="#44A1DB"/>
<path d="M228.944 72.1065H222.684L225.698 66.5416L228.944 72.1065Z" fill="#44A1DB"/>
<path d="M228.944 58.658H222.684L225.698 53.0931L228.944 58.658Z" fill="#44A1DB"/>
<path d="M228.944 45.2095H222.684L225.698 39.6446L228.944 45.2095Z" fill="#44A1DB"/>
<path d="M228.944 31.761H222.684L225.698 25.9642L228.944 31.761Z" fill="#44A1DB"/>
<path d="M217.814 119.64H211.554L214.336 114.075L217.814 119.64Z" fill="#44A1DB"/>
<path d="M217.814 106.191H211.554L214.336 100.627L217.814 106.191Z" fill="#44A1DB"/>
<path d="M217.814 92.743H211.554L214.336 87.1781L217.814 92.743Z" fill="#44A1DB"/>
<path d="M217.814 79.2945H211.554L214.336 73.7296L217.814 79.2945Z" fill="#44A1DB"/>
<path d="M217.814 65.6141H211.554L214.336 60.0492L217.814 65.6141Z" fill="#44A1DB"/>
<path d="M217.814 52.1656H211.554L214.336 46.6007L217.814 52.1656Z" fill="#44A1DB"/>
<path d="M217.814 38.7171H211.554L214.336 33.1522L217.814 38.7171Z" fill="#44A1DB"/>
<path d="M217.814 25.2686H211.554L214.336 19.7037L217.814 25.2686Z" fill="#44A1DB"/>
<path d="M205.062 112.452H198.801L201.815 106.887L205.062 112.452Z" fill="#44A1DB"/>
<path d="M205.062 99.0035H198.801L201.815 93.4386L205.062 99.0035Z" fill="#44A1DB"/>
<path d="M205.062 85.555H198.801L201.815 79.9901L205.062 85.555Z" fill="#44A1DB"/>
<path d="M205.062 72.1065H198.801L201.815 66.5416L205.062 72.1065Z" fill="#44A1DB"/>
<path d="M205.062 58.658H198.801L201.815 53.0931L205.062 58.658Z" fill="#44A1DB"/>
<path d="M205.062 45.2095H198.801L201.815 39.6446L205.062 45.2095Z" fill="#44A1DB"/>
<path d="M205.062 31.761H198.801L201.815 25.9642L205.062 31.761Z" fill="#44A1DB"/>
<path d="M193.932 119.64H187.671L190.454 114.075L193.932 119.64Z" fill="#44A1DB"/>
<path d="M193.932 106.191H187.671L190.454 100.627L193.932 106.191Z" fill="#44A1DB"/>
<path d="M193.932 92.743H187.671L190.454 87.1781L193.932 92.743Z" fill="#44A1DB"/>
<path d="M193.932 79.2945H187.671L190.454 73.7296L193.932 79.2945Z" fill="#44A1DB"/>
<path d="M193.932 65.6141H187.671L190.454 60.0492L193.932 65.6141Z" fill="#44A1DB"/>
<path d="M193.932 52.1656H187.671L190.454 46.6007L193.932 52.1656Z" fill="#44A1DB"/>
<path d="M193.932 38.7171H187.671L190.454 33.1522L193.932 38.7171Z" fill="#44A1DB"/>
<path d="M193.932 25.2686H187.671L190.454 19.7037L193.932 25.2686Z" fill="#44A1DB"/>
<path d="M181.179 112.452H174.918L177.701 106.887L181.179 112.452Z" fill="#44A1DB"/>
<path d="M181.179 99.0035H174.918L177.701 93.4386L181.179 99.0035Z" fill="#44A1DB"/>
<path d="M181.179 85.555H174.918L177.701 79.9901L181.179 85.555Z" fill="#44A1DB"/>
<path d="M181.179 72.1065H174.918L177.701 66.5416L181.179 72.1065Z" fill="#44A1DB"/>
<path d="M181.179 58.658H174.918L177.701 53.0931L181.179 58.658Z" fill="#44A1DB"/>
<path d="M181.179 45.2095H174.918L177.701 39.6446L181.179 45.2095Z" fill="#44A1DB"/>
<path d="M181.179 31.761H174.918L177.701 25.9642L181.179 31.761Z" fill="#44A1DB"/>
<path d="M170.049 119.64H163.788L166.571 114.075L170.049 119.64Z" fill="#44A1DB"/>
<path d="M170.049 106.191H163.788L166.571 100.627L170.049 106.191Z" fill="#44A1DB"/>
<path d="M170.049 92.743H163.788L166.571 87.1781L170.049 92.743Z" fill="#44A1DB"/>
<path d="M170.049 79.2945H163.788L166.571 73.7296L170.049 79.2945Z" fill="#44A1DB"/>
<path d="M170.049 65.6141H163.788L166.571 60.0492L170.049 65.6141Z" fill="#44A1DB"/>
<path d="M170.049 52.1656H163.788L166.571 46.6007L170.049 52.1656Z" fill="#44A1DB"/>
<path d="M170.049 38.7171H163.788L166.571 33.1522L170.049 38.7171Z" fill="#44A1DB"/>
<path d="M170.049 25.2686H163.788L166.571 19.7037L170.049 25.2686Z" fill="#44A1DB"/>
<path d="M157.296 112.452H151.036L153.818 106.887L157.296 112.452Z" fill="#44A1DB"/>
<path d="M157.296 99.0035H151.036L153.818 93.4386L157.296 99.0035Z" fill="#44A1DB"/>
<path d="M157.296 85.555H151.036L153.818 79.9901L157.296 85.555Z" fill="#44A1DB"/>
<path d="M157.296 72.1065H151.036L153.818 66.5416L157.296 72.1065Z" fill="#44A1DB"/>
<path d="M157.296 58.658H151.036L153.818 53.0931L157.296 58.658Z" fill="#44A1DB"/>
<path d="M157.296 45.2095H151.036L153.818 39.6446L157.296 45.2095Z" fill="#44A1DB"/>
<path d="M157.296 31.761H151.036L153.818 25.9642L157.296 31.761Z" fill="#44A1DB"/>
<path d="M146.166 119.64H139.906L142.688 114.075L146.166 119.64Z" fill="#44A1DB"/>
<path d="M146.166 106.191H139.906L142.688 100.627L146.166 106.191Z" fill="#44A1DB"/>
<path d="M146.166 92.743H139.906L142.688 87.1781L146.166 92.743Z" fill="#44A1DB"/>
<path d="M146.166 79.2945H139.906L142.688 73.7296L146.166 79.2945Z" fill="#44A1DB"/>
<path d="M146.166 65.6141H139.906L142.688 60.0492L146.166 65.6141Z" fill="#44A1DB"/>
<path d="M146.166 52.1656H139.906L142.688 46.6007L146.166 52.1656Z" fill="#44A1DB"/>
<path d="M146.166 38.7171H139.906L142.688 33.1522L146.166 38.7171Z" fill="#44A1DB"/>
<path d="M146.166 25.2686H139.906L142.688 19.7037L146.166 25.2686Z" fill="#44A1DB"/>
<path d="M133.413 112.452H127.153L129.935 106.887L133.413 112.452Z" fill="#44A1DB"/>
<path d="M133.413 99.0035H127.153L129.935 93.4386L133.413 99.0035Z" fill="#44A1DB"/>
<path d="M133.413 85.555H127.153L129.935 79.9901L133.413 85.555Z" fill="#44A1DB"/>
<path d="M133.413 72.1065H127.153L129.935 66.5416L133.413 72.1065Z" fill="#44A1DB"/>
<path d="M133.413 58.658H127.153L129.935 53.0931L133.413 58.658Z" fill="#44A1DB"/>
<path d="M133.413 45.2095H127.153L129.935 39.6446L133.413 45.2095Z" fill="#44A1DB"/>
<path d="M133.413 31.761H127.153L129.935 25.9642L133.413 31.761Z" fill="#44A1DB"/>
<path d="M122.052 119.64H116.023L118.806 114.075L122.052 119.64Z" fill="#44A1DB"/>
<path d="M122.052 106.191H116.023L118.806 100.627L122.052 106.191Z" fill="#44A1DB"/>
<path d="M122.052 92.743H116.023L118.806 87.1781L122.052 92.743Z" fill="#44A1DB"/>
<path d="M122.052 79.2945H116.023L118.806 73.7296L122.052 79.2945Z" fill="#44A1DB"/>
<path d="M122.052 65.6141H116.023L118.806 60.0492L122.052 65.6141Z" fill="#44A1DB"/>
<path d="M122.052 52.1656H116.023L118.806 46.6007L122.052 52.1656Z" fill="#44A1DB"/>
<path d="M122.052 38.7171H116.023L118.806 33.1522L122.052 38.7171Z" fill="#44A1DB"/>
<path d="M122.052 25.2686H116.023L118.806 19.7037L122.052 25.2686Z" fill="#44A1DB"/>
<path d="M109.531 112.452H103.27L106.053 106.887L109.531 112.452Z" fill="#44A1DB"/>
<path d="M109.531 99.0035H103.27L106.053 93.4386L109.531 99.0035Z" fill="#44A1DB"/>
<path d="M109.531 85.555H103.27L106.053 79.9901L109.531 85.555Z" fill="#44A1DB"/>
<path d="M109.531 72.1065H103.27L106.053 66.5416L109.531 72.1065Z" fill="#44A1DB"/>
<path d="M109.531 58.658H103.27L106.053 53.0931L109.531 58.658Z" fill="#44A1DB"/>
<path d="M109.531 45.2095H103.27L106.053 39.6446L109.531 45.2095Z" fill="#44A1DB"/>
<path d="M109.531 31.761H103.27L106.053 25.9642L109.531 31.761Z" fill="#44A1DB"/>
<path d="M98.169 119.64H92.1404L94.9228 114.075L98.169 119.64Z" fill="#44A1DB"/>
<path d="M98.169 106.191H92.1404L94.9228 100.627L98.169 106.191Z" fill="#44A1DB"/>
<path d="M98.169 92.743H92.1404L94.9228 87.1781L98.169 92.743Z" fill="#44A1DB"/>
<path d="M98.169 79.2945H92.1404L94.9228 73.7296L98.169 79.2945Z" fill="#44A1DB"/>
<path d="M98.169 65.6141H92.1404L94.9228 60.0492L98.169 65.6141Z" fill="#44A1DB"/>
<path d="M98.169 52.1656H92.1404L94.9228 46.6007L98.169 52.1656Z" fill="#44A1DB"/>
<path d="M98.169 38.7171H92.1404L94.9228 33.1522L98.169 38.7171Z" fill="#44A1DB"/>
<path d="M98.169 25.2686H92.1404L94.9228 19.7037L98.169 25.2686Z" fill="#44A1DB"/>
<path d="M85.4162 112.452H79.3876L82.17 106.887L85.4162 112.452Z" fill="#44A1DB"/>
<path d="M85.4162 99.0035H79.3876L82.17 93.4386L85.4162 99.0035Z" fill="#44A1DB"/>
<path d="M85.4162 85.555H79.3876L82.17 79.9901L85.4162 85.555Z" fill="#44A1DB"/>
<path d="M85.4162 72.1065H79.3876L82.17 66.5416L85.4162 72.1065Z" fill="#44A1DB"/>
<path d="M85.4162 58.658H79.3876L82.17 53.0931L85.4162 58.658Z" fill="#44A1DB"/>
<path d="M85.4162 45.2095H79.3876L82.17 39.6446L85.4162 45.2095Z" fill="#44A1DB"/>
<path d="M85.4162 31.761H79.3876L82.17 25.9642L85.4162 31.761Z" fill="#44A1DB"/>
<path d="M74.2863 119.64H68.2577L71.0401 114.075L74.2863 119.64Z" fill="#44A1DB"/>
<path d="M74.2863 106.191H68.2577L71.0401 100.627L74.2863 106.191Z" fill="#44A1DB"/>
<path d="M74.2863 92.743H68.2577L71.0401 87.1781L74.2863 92.743Z" fill="#44A1DB"/>
<path d="M74.2863 79.2945H68.2577L71.0401 73.7296L74.2863 79.2945Z" fill="#44A1DB"/>
<path d="M74.2863 65.6141H68.2577L71.0401 60.0492L74.2863 65.6141Z" fill="#44A1DB"/>
<path d="M74.2863 52.1656H68.2577L71.0401 46.6007L74.2863 52.1656Z" fill="#44A1DB"/>
<path d="M74.2863 38.7171H68.2577L71.0401 33.1522L74.2863 38.7171Z" fill="#44A1DB"/>
<path d="M74.2863 25.2686H68.2577L71.0401 19.7037L74.2863 25.2686Z" fill="#44A1DB"/>
<path d="M61.5334 112.452H55.5048L58.2872 106.887L61.5334 112.452Z" fill="#44A1DB"/>
<path d="M61.5334 99.0035H55.5048L58.2872 93.4386L61.5334 99.0035Z" fill="#44A1DB"/>
<path d="M61.5334 85.555H55.5048L58.2872 79.9901L61.5334 85.555Z" fill="#44A1DB"/>
<path d="M61.5334 72.1065H55.5048L58.2872 66.5416L61.5334 72.1065Z" fill="#44A1DB"/>
<path d="M61.5334 58.658H55.5048L58.2872 53.0931L61.5334 58.658Z" fill="#44A1DB"/>
<path d="M61.5334 45.2095H55.5048L58.2872 39.6446L61.5334 45.2095Z" fill="#44A1DB"/>
<path d="M61.5334 31.761H55.5048L58.2872 25.9642L61.5334 31.761Z" fill="#44A1DB"/>
</g>
<path d="M120.892 60.0492C120.892 60.0492 108.835 70.4834 116.487 75.1208C124.139 79.7582 141.297 79.0626 141.761 93.4386" stroke="white" stroke-width="0.579677" stroke-miterlimit="10" stroke-linejoin="round"/>
<path d="M165.875 51.7018C165.875 51.7018 174.223 52.8612 175.382 58.658C176.31 63.7591 173.063 66.5416 173.063 66.5416C173.063 66.5416 173.527 68.6284 174.455 72.8021C175.15 76.0483 174.918 81.1494 174.918 81.1494" stroke="white" stroke-width="0.579677" stroke-miterlimit="10" stroke-linejoin="round"/>
<path d="M142.224 57.9624C142.224 57.9624 150.108 59.5855 149.644 64.4548C149.181 69.324 142.224 71.8746 142.224 71.8746" stroke="white" stroke-width="0.579677" stroke-miterlimit="10" stroke-linejoin="round"/>
<path d="M181.411 106.655C181.411 106.655 201.583 122.422 199.497 134.016C197.41 145.609 193.236 151.174 189.062 168.565C185.352 183.868 186.28 203.809 186.28 203.809" stroke="white" stroke-width="0.579677" stroke-miterlimit="10" stroke-linejoin="round"/>
<path d="M233.118 144.45C233.118 144.45 245.175 139.117 253.523 122.886" stroke="white" stroke-width="0.579677" stroke-miterlimit="10" stroke-linejoin="round"/>
<path d="M173.063 150.247C178.396 150.711 183.961 150.711 190.454 150.247" stroke="white" stroke-width="0.579677" stroke-miterlimit="10" stroke-linejoin="round"/>
<path d="M125.994 122.886C125.994 122.886 132.486 141.204 159.615 147.928" stroke="white" stroke-width="0.579677" stroke-miterlimit="10" stroke-linejoin="round"/>
<path d="M167.035 103.641C167.035 103.641 175.15 101.09 178.628 104.336" stroke="white" stroke-width="0.579677" stroke-miterlimit="10" stroke-linejoin="round"/>
<path d="M175.614 94.8298C175.614 94.8298 173.759 97.1485 174.918 101.322" stroke="white" stroke-width="0.579677" stroke-miterlimit="10" stroke-linejoin="round"/>
<path d="M199.265 211.693L207.612 210.533" stroke="white" stroke-width="0.579677" stroke-miterlimit="10" stroke-linejoin="round"/>
<path d="M200.888 213.779L209.235 212.156" stroke="white" stroke-width="0.579677" stroke-miterlimit="10" stroke-linejoin="round"/>
<path d="M259.783 114.539L260.711 120.104" stroke="white" stroke-width="0.579677" stroke-miterlimit="10" stroke-linejoin="round"/>
<path d="M262.333 115.466L263.029 121.495" stroke="white" stroke-width="0.579677" stroke-miterlimit="10" stroke-linejoin="round"/>
<path d="M109.067 290.065V315.107" stroke="white" stroke-width="0.579677" stroke-miterlimit="10" stroke-linejoin="round"/>
<path d="M109.067 284.036V288.21" stroke="white" stroke-width="0.579677" stroke-miterlimit="10" stroke-linejoin="round"/>
<path d="M109.067 268.965V279.167" stroke="white" stroke-width="0.579677" stroke-miterlimit="10" stroke-linejoin="round"/>
<path d="M87.7349 204.273C87.7349 204.273 91.9085 206.36 94.2272 209.606C103.734 222.822 102.575 235.344 102.575 235.344" stroke="white" stroke-width="0.579677" stroke-miterlimit="10" stroke-linejoin="round"/>
<path d="M90.2855 197.78C90.2855 197.78 93.5317 201.954 93.5317 208.215" stroke="white" stroke-width="0.579677" stroke-miterlimit="10" stroke-linejoin="round"/>
<path d="M122.284 248.792C122.284 248.792 129.24 259.922 143.152 257.603" stroke="white" stroke-width="0.579677" stroke-miterlimit="10" stroke-linejoin="round"/>
<path d="M122.284 239.517C122.284 239.517 137.355 230.474 150.572 236.735" stroke="white" stroke-width="0.579677" stroke-miterlimit="10" stroke-linejoin="round"/>
<path d="M135.964 234.88C135.964 234.88 138.515 231.402 146.398 231.402" stroke="white" stroke-width="0.579677" stroke-miterlimit="10" stroke-linejoin="round"/>
<path d="M118.342 268.501C117.878 288.442 126.225 311.861 126.225 311.861" stroke="white" stroke-width="0.579677" stroke-miterlimit="10" stroke-linejoin="round"/>
<path d="M241.465 101.554C241.465 101.554 261.638 107.583 266.507 112.916C271.608 118.481 271.608 121.495 271.608 121.495" stroke="white" stroke-width="0.579677" stroke-miterlimit="10" stroke-linejoin="round"/>
<path d="M187.439 210.533C187.439 210.533 207.148 223.286 211.786 225.141C217.119 227.46 219.438 227.228 219.438 227.228" stroke="white" stroke-width="0.579677" stroke-miterlimit="10" stroke-linejoin="round"/>
<path d="M64.5479 189.665C64.5479 189.665 56.2005 197.78 60.8379 211.693" stroke="#660000" stroke-width="0.579677" stroke-miterlimit="10" stroke-linejoin="round"/>
<path d="M59.6786 191.288C59.6786 191.288 56.8961 195.462 56.8961 199.172" stroke="#660000" stroke-width="0.579677" stroke-miterlimit="10" stroke-linejoin="round"/>
<path d="M154.514 217.489C154.514 217.489 163.788 227.228 165.643 237.198" stroke="#660000" stroke-width="0.579677" stroke-miterlimit="10" stroke-linejoin="round"/>
<path d="M150.572 208.215C150.572 208.215 160.079 216.794 162.629 222.127" stroke="#660000" stroke-width="0.579677" stroke-miterlimit="10" stroke-linejoin="round"/>
<path d="M222.916 19.0081C222.916 19.0081 238.219 40.8039 228.48 60.9767" stroke="#660000" stroke-width="0.579677" stroke-miterlimit="10" stroke-linejoin="round"/>
<path d="M236.364 39.8764C236.364 39.8764 240.77 60.0492 227.321 72.8021" stroke="#660000" stroke-width="0.579677" stroke-miterlimit="10" stroke-linejoin="round"/>
<path d="M74.0545 243.691L71.2721 228.619L60.3741 233.952L74.0545 243.691Z" fill="#E2603D"/>
<path d="M58.5192 223.982C58.5192 223.982 62.2291 230.242 65.939 234.648" stroke="#660000" stroke-width="0.579677" stroke-miterlimit="10" stroke-linejoin="round"/>
<path d="M61.3016 219.113C61.3016 219.113 64.316 226.532 68.4896 231.634" stroke="#660000" stroke-width="0.579677" stroke-miterlimit="10" stroke-linejoin="round"/>
<path d="M233.118 39.1808L239.842 35.9346L232.886 27.3554L233.118 39.1808Z" fill="#45A0D4"/>
</g>
<defs>
<clipPath id="clip0">
<rect width="334.358" height="352.675" fill="white" transform="translate(0.783325 0.226562)"/>
</clipPath>
</defs>
</svg>
