<svg width="261" height="478" viewBox="0 0 261 478" fill="none" xmlns="http://www.w3.org/2000/svg">
<g clip-path="url(#clip0)">
<path d="M130.508 78.2857C102.452 87.3286 100.133 123.5 71.3809 142.282C42.6289 161.064 47.4982 184.482 59.0918 237.349C70.6853 290.216 32.8904 310.156 53.5269 338.908C82.7426 379.486 187.548 368.356 212.59 326.619C237.632 284.883 225.343 153.644 212.59 113.066C199.837 72.4889 156.477 70.1702 130.508 78.2857Z" fill="#F8F9FF"/>
<path d="M187.084 224.364C187.084 226.219 187.084 228.306 187.084 228.306L110.103 251.725C110.103 251.725 104.77 247.783 110.103 245.233C115.436 242.682 139.551 236.885 142.333 236.19C145.116 235.494 149.058 234.567 147.203 233.175C143.029 230.161 148.594 225.755 148.594 225.755L187.084 215.089C187.084 215.321 187.316 216.944 187.084 224.364Z" fill="#3844E5"/>
<path d="M168.999 197.003C169.694 194.917 178.737 193.525 180.824 193.062C181.288 192.83 183.143 192.366 184.766 191.67C184.07 182.628 181.288 177.294 182.447 174.048C183.606 170.802 197.751 175.44 197.751 175.44L206.098 138.572C206.098 138.572 183.143 132.775 155.782 135.326C143.029 136.485 115.436 141.123 100.365 149.934C79.2646 162.455 68.1348 164.773 68.1348 164.773L76.4821 197.235C76.4821 197.235 91.7856 195.844 96.8867 198.395C100.365 200.25 97.5824 208.133 101.524 208.829C105.93 209.525 105.698 209.293 105.93 210.452C106.393 211.843 103.379 212.307 103.611 213.698C104.307 217.872 148.13 205.119 169.694 199.09C169.926 198.858 168.999 197.235 168.999 197.003Z" fill="#3844E5"/>
<mask id="mask0" mask-type="alpha" maskUnits="userSpaceOnUse" x="68" y="134" width="139" height="81">
<path d="M168.999 197.003C169.694 194.917 178.737 193.525 180.824 193.062C181.288 192.83 183.143 192.366 184.766 191.67C184.07 182.628 181.288 177.294 182.447 174.048C183.606 170.802 197.751 175.44 197.751 175.44L206.098 138.572C206.098 138.572 183.143 132.775 155.782 135.326C143.029 136.485 115.436 141.123 100.365 149.934C79.2646 162.455 68.1348 164.773 68.1348 164.773L76.4821 197.235C76.4821 197.235 91.7856 195.844 96.8867 198.395C100.365 200.25 97.5824 208.133 101.524 208.829C105.93 209.525 105.698 209.293 105.93 210.452C106.393 211.843 103.379 212.307 103.611 213.698C104.307 217.872 148.13 205.119 169.694 199.09C169.926 198.858 168.999 197.235 168.999 197.003Z" fill="#3844E5"/>
</mask>
<g mask="url(#mask0)">
<path d="M170.39 39.7951L86.2207 359.777" stroke="white" stroke-width="0.579677" stroke-miterlimit="10"/>
<path d="M161.347 43.5051L77.1777 363.719" stroke="white" stroke-width="0.579677" stroke-miterlimit="10"/>
<path d="M152.536 47.4468L68.3666 367.428" stroke="white" stroke-width="0.579677" stroke-miterlimit="10"/>
<path d="M143.493 51.3887L59.3237 371.37" stroke="white" stroke-width="0.579677" stroke-miterlimit="10"/>
<path d="M134.45 55.3304L50.2807 375.312" stroke="white" stroke-width="0.579677" stroke-miterlimit="10"/>
<path d="M125.407 59.0404L41.4696 379.254" stroke="white" stroke-width="0.579677" stroke-miterlimit="10"/>
<path d="M116.596 62.9822L32.4267 382.964" stroke="white" stroke-width="0.579677" stroke-miterlimit="10"/>
<path d="M107.553 66.924L23.3837 386.906" stroke="white" stroke-width="0.579677" stroke-miterlimit="10"/>
<path d="M98.5099 70.6339L14.5726 390.847" stroke="white" stroke-width="0.579677" stroke-miterlimit="10"/>
<path d="M89.6987 74.5757L5.52966 394.789" stroke="white" stroke-width="0.579677" stroke-miterlimit="10"/>
<path d="M260.124 0.84082L175.955 321.054" stroke="white" stroke-width="0.579677" stroke-miterlimit="10"/>
<path d="M251.081 4.78262L166.912 324.764" stroke="white" stroke-width="0.579677" stroke-miterlimit="10"/>
<path d="M242.038 8.72446L157.869 328.706" stroke="white" stroke-width="0.579677" stroke-miterlimit="10"/>
<path d="M232.995 12.4344L149.058 332.648" stroke="white" stroke-width="0.579677" stroke-miterlimit="10"/>
<path d="M224.184 16.3762L140.015 336.59" stroke="white" stroke-width="0.579677" stroke-miterlimit="10"/>
<path d="M215.141 20.318L130.972 340.3" stroke="white" stroke-width="0.579677" stroke-miterlimit="10"/>
<path d="M206.098 24.2598L122.161 344.241" stroke="white" stroke-width="0.579677" stroke-miterlimit="10"/>
<path d="M197.287 27.9697L113.118 348.183" stroke="white" stroke-width="0.579677" stroke-miterlimit="10"/>
<path d="M188.244 31.9115L104.075 351.893" stroke="white" stroke-width="0.579677" stroke-miterlimit="10"/>
<path d="M179.201 35.8533L95.0318 355.835" stroke="white" stroke-width="0.579677" stroke-miterlimit="10"/>
<path d="M170.39 39.7951L86.2207 359.777" stroke="white" stroke-width="0.579677" stroke-miterlimit="10"/>
<path d="M161.347 43.5051L77.1777 363.719" stroke="white" stroke-width="0.579677" stroke-miterlimit="10"/>
<path d="M152.536 47.4468L68.3666 367.428" stroke="white" stroke-width="0.579677" stroke-miterlimit="10"/>
<path d="M143.493 51.3887L59.3237 371.37" stroke="white" stroke-width="0.579677" stroke-miterlimit="10"/>
<path d="M134.45 55.3304L50.2807 375.312" stroke="white" stroke-width="0.579677" stroke-miterlimit="10"/>
<path d="M125.407 59.0404L41.4696 379.254" stroke="white" stroke-width="0.579677" stroke-miterlimit="10"/>
<path d="M116.596 62.9822L32.4267 382.964" stroke="white" stroke-width="0.579677" stroke-miterlimit="10"/>
<path d="M107.553 66.924L23.3837 386.906" stroke="white" stroke-width="0.579677" stroke-miterlimit="10"/>
<path d="M98.5099 70.6339L14.5726 390.847" stroke="white" stroke-width="0.579677" stroke-miterlimit="10"/>
<path d="M89.6987 74.5757L5.52966 394.789" stroke="white" stroke-width="0.579677" stroke-miterlimit="10"/>
<path d="M260.124 0.84082L175.955 321.054" stroke="white" stroke-width="0.579677" stroke-miterlimit="10"/>
<path d="M251.081 4.78262L166.912 324.764" stroke="white" stroke-width="0.579677" stroke-miterlimit="10"/>
<path d="M242.038 8.72446L157.869 328.706" stroke="white" stroke-width="0.579677" stroke-miterlimit="10"/>
<path d="M232.995 12.4344L149.058 332.648" stroke="white" stroke-width="0.579677" stroke-miterlimit="10"/>
<path d="M224.184 16.3762L140.015 336.59" stroke="white" stroke-width="0.579677" stroke-miterlimit="10"/>
<path d="M215.141 20.318L130.972 340.3" stroke="white" stroke-width="0.579677" stroke-miterlimit="10"/>
<path d="M206.098 24.2598L122.161 344.241" stroke="white" stroke-width="0.579677" stroke-miterlimit="10"/>
<path d="M197.287 27.9697L113.118 348.183" stroke="white" stroke-width="0.579677" stroke-miterlimit="10"/>
<path d="M188.244 31.9115L104.075 351.893" stroke="white" stroke-width="0.579677" stroke-miterlimit="10"/>
<path d="M179.201 35.8533L95.0318 355.835" stroke="white" stroke-width="0.579677" stroke-miterlimit="10"/>
</g>
<path d="M193.577 381.804C193.113 382.5 192.418 383.196 191.49 382.964C184.07 382.732 140.71 383.196 140.015 382.268C139.783 382.036 139.783 381.573 139.551 380.645C139.551 382.5 139.551 384.123 140.015 384.587C140.942 385.514 184.07 385.051 191.49 385.283C192.186 385.283 193.113 384.587 193.577 384.123C194.041 383.428 194.272 381.573 194.041 380.181C193.809 381.109 193.809 381.573 193.577 381.804Z" fill="#9ECBE3"/>
<path d="M123.32 144.601C123.32 144.601 125.407 150.861 128.885 156.658C131.667 161.759 130.508 168.483 124.247 168.947C117.755 169.411 113.813 164.542 113.581 159.672C113.35 154.803 113.581 148.311 113.581 148.311L123.32 144.601Z" fill="#E897A3"/>
<path d="M190.099 265.405C189.635 265.869 187.316 267.724 186.389 268.883C181.983 273.521 152.536 280.709 150.913 279.086C149.521 277.695 149.058 273.057 148.13 273.057L147.666 273.521C146.275 275.608 149.753 279.55 147.203 281.173C145.116 282.796 117.523 291.839 109.872 292.534C111.495 299.722 114.277 308.07 113.813 327.083C113.581 335.662 111.726 344.473 111.031 345.865L149.058 347.256C149.058 347.256 149.753 344.473 150.449 339.604C150.449 339.836 150.449 339.836 150.449 339.836L181.751 337.749C181.751 337.749 185.693 328.474 188.708 306.91C191.026 289.52 191.722 271.434 190.099 265.405Z" fill="#E897A3"/>
<path d="M193.809 256.362C191.954 250.797 190.794 249.87 190.099 243.146C189.403 236.422 187.084 228.074 187.084 228.074L110.103 251.493C110.103 251.493 113.813 253.348 115.9 255.899C117.987 258.449 112.19 259.145 106.393 261.927C100.597 264.942 107.553 272.825 105.466 281.636C103.147 291.143 105.466 291.143 108.248 292.302C108.48 292.534 109.176 292.534 110.103 292.302C117.755 291.607 145.116 282.332 147.435 280.941C149.753 279.318 146.275 275.376 147.898 273.289C148.13 273.057 148.362 272.825 148.362 272.825C149.521 272.825 149.985 277.231 151.145 278.854C152.536 280.477 180.592 275.376 190.331 266.101C195.432 261.464 191.722 261.695 191.954 260.304C191.722 259.145 194.736 259.377 193.809 256.362Z" fill="#9AF4DC"/>
<path d="M68.3666 164.773C68.3666 164.773 66.9754 165.237 65.816 165.469C62.8017 165.933 56.5412 166.86 50.2807 165.005C38.2234 161.759 35.9047 156.194 34.2816 151.789C33.3541 149.006 33.1223 144.601 34.2816 141.586C35.9047 137.645 38.2234 135.79 38.4553 133.471C38.6872 130.92 38.2234 129.297 35.9047 130.225C35.2091 130.457 33.586 131.848 33.1223 130.92C31.9629 127.674 30.3398 124.892 28.9486 124.428C26.398 123.732 28.0211 127.21 25.7024 127.442C24.0793 127.674 22.4562 123.269 18.2825 123.5C13.877 123.732 17.8188 127.442 15.9638 129.065C14.1089 130.688 9.70332 125.587 5.99339 126.283C2.28346 126.979 5.99339 131.616 5.99339 132.312C5.99339 133.007 3.44281 131.616 1.81972 132.312C-2.8177 134.167 4.60216 141.818 5.52965 145.528C6.22526 149.47 4.83404 167.324 20.6012 185.178C34.2816 200.482 65.1204 198.627 74.1634 197.699C75.5546 197.467 77.1777 197.235 77.1777 197.235L68.3666 164.773Z" fill="#E897A3"/>
<path d="M164.361 222.046L137.928 228.77C135.609 229.465 133.29 228.074 132.827 225.755L130.044 215.089C129.349 212.771 130.74 210.452 133.059 209.988L159.492 203.264C161.811 202.568 164.129 203.96 164.593 206.278L167.375 216.713C167.839 219.031 166.448 221.35 164.361 222.046Z" fill="#D63C30"/>
<path d="M171.317 200.018L161.115 202.568L165.984 221.35L176.187 218.799C177.81 218.336 178.969 216.249 178.273 214.394L175.259 203.032C174.795 200.945 172.94 199.554 171.317 200.018Z" fill="#44A1DB"/>
<mask id="mask1" mask-type="alpha" maskUnits="userSpaceOnUse" x="161" y="199" width="18" height="23">
<path d="M171.317 200.018L161.115 202.568L165.984 221.35L176.187 218.799C177.81 218.336 178.969 216.249 178.273 214.394L175.259 203.032C174.795 200.945 172.94 199.554 171.317 200.018Z" fill="#44A1DB"/>
</mask>
<g mask="url(#mask1)">
<path d="M150.449 241.755L173.868 169.875" stroke="#45A0D4" stroke-width="0.579677" stroke-miterlimit="10"/>
<path d="M152.768 243.61L175.955 171.73" stroke="#45A0D4" stroke-width="0.579677" stroke-miterlimit="10"/>
<path d="M154.854 245.464L178.273 173.585" stroke="#45A0D4" stroke-width="0.579677" stroke-miterlimit="10"/>
<path d="M157.173 247.319L180.592 175.44" stroke="white" stroke-width="0.579677" stroke-miterlimit="10"/>
<path d="M159.492 249.174L182.911 177.294" stroke="white" stroke-width="0.579677" stroke-miterlimit="10"/>
<path d="M161.811 251.029L184.998 179.149" stroke="white" stroke-width="0.579677" stroke-miterlimit="10"/>
<path d="M163.897 252.884L187.316 180.773" stroke="white" stroke-width="0.579677" stroke-miterlimit="10"/>
<path d="M166.216 254.739L189.635 182.628" stroke="white" stroke-width="0.579677" stroke-miterlimit="10"/>
<path d="M168.535 256.594L191.954 184.482" stroke="#45A0D4" stroke-width="0.579677" stroke-miterlimit="10"/>
<path d="M170.854 258.449L194.041 186.337" stroke="#45A0D4" stroke-width="0.579677" stroke-miterlimit="10"/>
<path d="M139.087 232.712L162.506 160.6" stroke="#45A0D4" stroke-width="0.579677" stroke-miterlimit="10"/>
<path d="M141.406 234.567L164.825 162.455" stroke="#45A0D4" stroke-width="0.579677" stroke-miterlimit="10"/>
<path d="M143.725 236.422L167.144 164.31" stroke="#45A0D4" stroke-width="0.579677" stroke-miterlimit="10"/>
<path d="M146.043 238.277L169.23 166.165" stroke="#45A0D4" stroke-width="0.579677" stroke-miterlimit="10"/>
<path d="M148.13 240.131L171.549 168.02" stroke="#45A0D4" stroke-width="0.579677" stroke-miterlimit="10"/>
</g>
<path d="M165.289 219.727L138.855 226.451C136.537 227.147 134.218 225.755 133.754 223.437L130.972 213.003C130.276 210.684 131.667 208.365 133.986 207.901L160.419 201.177C162.738 200.482 165.057 201.873 165.52 204.191L168.303 214.626C168.767 216.944 167.375 219.263 165.289 219.727Z" fill="#E2603D"/>
<path d="M172.245 197.931L161.115 200.945L165.984 219.727L177.114 216.713C178.737 216.249 179.896 214.162 179.201 212.307L176.187 200.945C175.723 198.858 173.868 197.467 172.245 197.931Z" fill="#44A1DB"/>
<path d="M176.882 216.017L166.68 218.567C166.448 218.567 166.448 218.799 166.216 218.799L137.696 226.219C136.073 226.683 134.45 225.524 133.754 223.437L133.986 224.596C134.45 226.451 136.305 227.61 137.928 227.379L166.448 219.959C166.68 219.959 166.68 219.959 166.912 219.727L177.114 217.176C178.737 216.712 179.896 214.626 179.201 212.771L178.969 211.611C179.665 213.466 178.737 215.553 176.882 216.017Z" fill="white"/>
<path d="M112.886 127.442C112.886 127.442 106.393 127.674 105.466 133.935C104.307 140.195 104.538 145.992 110.335 148.543C116.132 151.093 119.842 149.934 123.32 146.456C126.798 143.209 125.639 132.775 123.32 130.457C121.233 128.138 114.973 126.979 112.886 127.442Z" fill="#E897A3"/>
<path d="M105.234 134.862C105.234 134.862 110.103 133.471 112.654 131.152C115.205 128.834 116.364 127.674 116.364 127.674C116.364 127.674 112.19 126.515 108.017 129.529C105.002 131.616 105.234 134.862 105.234 134.862Z" fill="#D63C30"/>
<path d="M116.364 127.674C116.364 127.674 118.683 131.616 121.465 133.935C124.247 136.485 125.407 136.949 125.407 136.949C125.407 136.949 125.407 131.848 122.856 129.529C120.538 127.21 116.364 127.674 116.364 127.674Z" fill="#D63C30"/>
<path d="M118.914 130.92C118.914 130.92 115.668 117.704 109.64 117.936C103.611 118.167 101.292 123.269 95.9593 121.414C90.6262 119.559 90.6262 113.53 83.902 112.603C77.1777 111.675 76.4821 114.921 74.859 114.458C73.2359 113.994 71.8447 107.965 62.8017 108.429C53.7588 108.661 52.5994 114.226 50.9763 114.458C49.3532 114.689 47.7301 113.066 44.4839 114.921C41.2378 116.776 37.2959 136.021 47.2664 136.717C57.2368 137.413 53.5269 135.326 56.7731 136.717C60.0193 138.108 60.7149 145.528 65.8161 145.528C70.9172 145.528 73.2359 138.572 76.0184 139.731C78.8008 140.891 78.5689 146.456 82.7426 145.528C86.9163 144.601 88.7713 132.312 93.8724 132.08C98.9736 131.848 100.365 133.703 102.915 130.225C105.466 126.979 105.698 123.5 110.103 123.269C113.813 123.269 118.914 130.92 118.914 130.92Z" fill="#E2603D"/>
<path d="M149.521 346.096C149.521 346.096 147.435 359.081 144.42 365.574C141.174 372.066 140.942 374.153 140.942 374.153L105.466 371.834L111.263 346.328L149.521 346.096Z" fill="#9ECBE3"/>
<path d="M172.477 372.298C173.404 369.052 175.259 362.559 176.882 356.762C179.201 348.183 181.983 337.981 181.983 337.981L150.681 340.068C150.681 340.068 149.753 343.778 147.898 350.27C146.507 354.907 142.565 369.052 142.102 370.907C142.102 370.675 142.333 370.675 142.333 370.675L172.477 372.298Z" fill="#9ECBE3"/>
<path d="M193.577 377.631C191.49 375.312 190.562 376.24 184.998 375.776C176.65 375.08 172.245 372.298 172.245 372.298L141.87 370.211C141.87 370.211 141.87 370.211 141.638 370.443C141.406 370.907 140.71 372.53 140.71 373.689C140.478 374.616 139.087 377.631 139.319 380.413C139.319 381.109 139.551 381.804 139.783 382.036C140.71 382.964 183.838 382.5 191.258 382.732C191.954 382.732 192.881 382.036 193.345 381.573C193.577 381.341 193.809 380.645 193.809 380.181C194.041 379.486 194.272 378.326 193.577 377.631Z" fill="#E2603D"/>
<path d="M140.015 382.268C137 384.123 85.2932 383.659 83.902 382.964C83.6701 382.964 83.4382 382.732 83.4382 382.5C82.9745 383.891 83.2064 385.051 83.902 385.283C85.2932 385.746 137 386.21 140.015 384.587C142.333 383.196 142.333 379.95 142.102 378.326C141.87 379.95 141.406 381.573 140.015 382.268Z" fill="#9ECBE3"/>
<path d="M141.87 375.08L140.942 373.921L105.466 371.602C105.466 371.602 104.307 372.066 101.988 373.921C99.6692 375.776 87.8438 376.008 85.2932 377.631C83.2064 379.022 82.5107 381.573 83.2063 382.5C83.4382 382.732 83.4382 382.964 83.6701 382.964C85.0613 383.428 136.769 383.891 139.783 382.268C141.174 381.341 141.638 379.718 141.87 378.326C142.333 376.703 141.87 375.08 141.87 375.08Z" fill="#E2603D"/>
<path d="M91.09 243.378L101.292 240.595" stroke="#660000" stroke-width="0.579677" stroke-miterlimit="10" stroke-linejoin="round"/>
<path d="M107.089 179.381C107.089 179.381 103.147 182.396 104.307 185.874C105.698 190.279 112.886 187.033 112.886 187.033" stroke="#660000" stroke-width="0.579677" stroke-miterlimit="10" stroke-linejoin="round"/>
<path d="M164.825 165.701C164.825 165.701 170.622 166.86 170.39 170.57C169.926 175.671 163.202 174.048 163.202 174.048" stroke="#660000" stroke-width="0.579677" stroke-miterlimit="10" stroke-linejoin="round"/>
<path d="M120.769 317.808C120.074 321.054 122.161 322.214 120.074 332.184C118.914 337.749 127.726 339.604 130.508 328.242C133.986 313.171 122.392 309.693 120.769 317.808Z" fill="#F9A48E"/>
<path d="M178.737 302.505C175.491 304.592 177.114 311.316 175.491 318.272C172.94 328.474 182.447 328.242 184.302 320.359C186.157 312.475 187.316 296.94 178.737 302.505Z" fill="#F9A48E"/>
<path d="M179.201 313.635C179.201 313.635 182.679 319.663 186.389 313.171" stroke="white" stroke-width="0.579677" stroke-miterlimit="10"/>
<path d="M119.842 324.996C119.842 324.996 122.161 332.648 128.421 324.996" stroke="white" stroke-width="0.579677" stroke-miterlimit="10"/>
<path d="M206.33 138.572L197.982 175.44C197.982 175.44 205.866 178.222 201.229 182.396C195.896 187.033 189.171 190.279 184.766 191.902C183.143 192.598 181.288 193.062 180.824 193.294C178.737 193.757 169.694 195.149 168.999 197.235C168.767 197.699 168.999 197.931 168.999 198.163C169.462 199.554 171.549 200.25 172.013 200.945C172.477 201.873 169.23 203.032 168.767 204.423C168.303 206.046 170.854 207.206 171.085 207.206C171.317 207.438 170.854 207.901 170.158 209.525C169.694 210.684 171.317 212.075 173.404 212.075C175.027 212.075 174.1 213.466 173.404 214.394C172.245 216.249 174.1 216.944 176.418 217.64C178.737 218.104 188.939 215.089 192.186 214.394C195.432 213.698 226.966 209.293 245.748 184.946C268.935 155.267 206.33 138.572 206.33 138.572Z" fill="#E897A3"/>
<path d="M114.509 149.934C114.509 149.934 118.683 150.861 121.929 147.847" stroke="white" stroke-width="0.579677" stroke-miterlimit="10"/>
<path d="M11.3264 149.934C11.3264 149.934 17.1232 144.137 21.065 146.688C25.0068 149.238 29.6442 145.528 29.6442 145.528" stroke="white" stroke-width="0.579677" stroke-miterlimit="10"/>
<mask id="mask2" mask-type="alpha" maskUnits="userSpaceOnUse" x="83" y="378" width="60" height="8">
<path d="M140.015 382.268C137 384.123 85.2932 383.659 83.902 382.964C83.6701 382.964 83.4382 382.732 83.4382 382.5C82.9745 383.891 83.2064 385.051 83.902 385.283C85.2932 385.746 137 386.21 140.015 384.587C142.333 383.196 142.333 379.95 142.102 378.326C141.87 379.95 141.406 381.573 140.015 382.268Z" fill="#9ECBE3"/>
</mask>
<g mask="url(#mask2)">
<path d="M114.277 300.65L117.523 406.847" stroke="#45A0D4" stroke-width="0.579677" stroke-miterlimit="10"/>
<path d="M110.335 302.273L113.35 408.47" stroke="#45A0D4" stroke-width="0.579677" stroke-miterlimit="10"/>
<path d="M106.162 304.128L109.176 410.325" stroke="#45A0D4" stroke-width="0.579677" stroke-miterlimit="10"/>
<path d="M101.988 305.983L105.002 412.18" stroke="#45A0D4" stroke-width="0.579677" stroke-miterlimit="10"/>
<path d="M98.0461 307.838L101.06 414.035" stroke="#45A0D4" stroke-width="0.579677" stroke-miterlimit="10"/>
<path d="M93.8724 309.693L96.8868 415.889" stroke="#45A0D4" stroke-width="0.579677" stroke-miterlimit="10"/>
<path d="M89.6987 311.548L92.7131 417.744" stroke="#45A0D4" stroke-width="0.579677" stroke-miterlimit="10"/>
<path d="M85.5251 313.403L88.7713 419.599" stroke="#45A0D4" stroke-width="0.579677" stroke-miterlimit="10"/>
<path d="M81.5833 315.026L84.5976 421.454" stroke="#45A0D4" stroke-width="0.579677" stroke-miterlimit="10"/>
<path d="M139.087 289.52L142.102 395.717" stroke="#45A0D4" stroke-width="0.579677" stroke-miterlimit="10"/>
<path d="M134.914 291.375L137.928 397.572" stroke="#45A0D4" stroke-width="0.579677" stroke-miterlimit="10"/>
<path d="M130.74 293.23L133.754 399.427" stroke="#45A0D4" stroke-width="0.579677" stroke-miterlimit="10"/>
<path d="M126.566 295.085L129.812 401.282" stroke="#45A0D4" stroke-width="0.579677" stroke-miterlimit="10"/>
<path d="M122.624 296.94L125.639 403.137" stroke="#45A0D4" stroke-width="0.579677" stroke-miterlimit="10"/>
<path d="M118.451 298.795L121.465 404.992" stroke="#45A0D4" stroke-width="0.579677" stroke-miterlimit="10"/>
</g>
<mask id="mask3" mask-type="alpha" maskUnits="userSpaceOnUse" x="139" y="380" width="56" height="6">
<path d="M193.577 381.804C193.113 382.5 192.418 383.196 191.49 382.964C184.07 382.732 140.71 383.196 140.015 382.268C139.783 382.036 139.783 381.573 139.551 380.645C139.551 382.5 139.551 384.123 140.015 384.587C140.942 385.514 184.07 385.051 191.49 385.283C192.186 385.283 193.113 384.587 193.577 384.123C194.041 383.428 194.272 381.573 194.041 380.181C193.809 381.109 193.809 381.573 193.577 381.804Z" fill="#9ECBE3"/>
</mask>
<g mask="url(#mask3)">
<path d="M159.724 354.907L162.738 461.104" stroke="#45A0D4" stroke-width="0.579677" stroke-miterlimit="10"/>
<path d="M155.55 356.762L158.564 462.959" stroke="#45A0D4" stroke-width="0.579677" stroke-miterlimit="10"/>
<path d="M151.376 358.617L154.623 464.814" stroke="#45A0D4" stroke-width="0.579677" stroke-miterlimit="10"/>
<path d="M147.435 360.472L150.449 466.669" stroke="#45A0D4" stroke-width="0.579677" stroke-miterlimit="10"/>
<path d="M143.261 362.327L146.275 468.524" stroke="#45A0D4" stroke-width="0.579677" stroke-miterlimit="10"/>
<path d="M139.087 364.182L142.333 470.379" stroke="#45A0D4" stroke-width="0.579677" stroke-miterlimit="10"/>
<path d="M192.649 340.3L195.664 446.728" stroke="#45A0D4" stroke-width="0.579677" stroke-miterlimit="10"/>
<path d="M188.476 342.155L191.49 448.351" stroke="#45A0D4" stroke-width="0.579677" stroke-miterlimit="10"/>
<path d="M184.302 344.01L187.316 450.206" stroke="#45A0D4" stroke-width="0.579677" stroke-miterlimit="10"/>
<path d="M180.128 345.865L183.375 452.061" stroke="#45A0D4" stroke-width="0.579677" stroke-miterlimit="10"/>
<path d="M176.187 347.719L179.201 453.916" stroke="#45A0D4" stroke-width="0.579677" stroke-miterlimit="10"/>
<path d="M172.013 349.574L175.027 455.771" stroke="#45A0D4" stroke-width="0.579677" stroke-miterlimit="10"/>
<path d="M167.839 351.429L170.853 457.626" stroke="#45A0D4" stroke-width="0.579677" stroke-miterlimit="10"/>
<path d="M163.666 353.052L166.912 459.481" stroke="#45A0D4" stroke-width="0.579677" stroke-miterlimit="10"/>
</g>
<path d="M175.491 372.066L169.694 375.312" stroke="white" stroke-width="0.579677" stroke-miterlimit="10"/>
<path d="M177.346 373.689L172.013 376.703" stroke="white" stroke-width="0.579677" stroke-miterlimit="10"/>
<path d="M96.1911 374.153L99.2054 379.254" stroke="white" stroke-width="0.579677" stroke-miterlimit="10"/>
<path d="M99.4373 373.225L102.684 377.863" stroke="white" stroke-width="0.579677" stroke-miterlimit="10"/>
<mask id="mask4" mask-type="alpha" maskUnits="userSpaceOnUse" x="105" y="346" width="45" height="29">
<path d="M149.521 346.096C149.521 346.096 147.435 359.081 144.42 365.574C141.174 372.066 140.942 374.153 140.942 374.153L105.466 371.834L111.263 346.328L149.521 346.096Z" fill="#9ECBE3"/>
</mask>
<g mask="url(#mask4)">
<path d="M135.609 325.692L111.726 429.106" stroke="white" stroke-width="0.579677" stroke-miterlimit="10"/>
<path d="M133.059 326.851L109.176 430.497" stroke="white" stroke-width="0.579677" stroke-miterlimit="10"/>
<path d="M130.508 328.242L106.625 431.657" stroke="white" stroke-width="0.579677" stroke-miterlimit="10"/>
<path d="M127.957 329.402L104.075 433.048" stroke="white" stroke-width="0.579677" stroke-miterlimit="10"/>
<path d="M125.407 330.793L101.524 434.207" stroke="white" stroke-width="0.579677" stroke-miterlimit="10"/>
<path d="M122.856 331.952L98.9736 435.367" stroke="white" stroke-width="0.579677" stroke-miterlimit="10"/>
<path d="M120.306 333.112L96.423 436.758" stroke="white" stroke-width="0.579677" stroke-miterlimit="10"/>
<path d="M117.755 334.503L93.8724 437.917" stroke="white" stroke-width="0.579677" stroke-miterlimit="10"/>
<path d="M115.204 335.662L91.3218 439.308" stroke="white" stroke-width="0.579677" stroke-miterlimit="10"/>
<path d="M112.654 337.053L88.7712 440.468" stroke="white" stroke-width="0.579677" stroke-miterlimit="10"/>
<path d="M160.883 313.171L137 416.585" stroke="white" stroke-width="0.579677" stroke-miterlimit="10"/>
<path d="M158.332 314.33L134.45 417.976" stroke="white" stroke-width="0.579677" stroke-miterlimit="10"/>
<path d="M155.782 315.721L131.899 419.136" stroke="white" stroke-width="0.579677" stroke-miterlimit="10"/>
<path d="M153.231 316.881L129.581 420.295" stroke="white" stroke-width="0.579677" stroke-miterlimit="10"/>
<path d="M150.681 318.04L127.03 421.686" stroke="white" stroke-width="0.579677" stroke-miterlimit="10"/>
<path d="M148.13 319.431L124.479 422.846" stroke="white" stroke-width="0.579677" stroke-miterlimit="10"/>
<path d="M145.58 320.591L121.929 424.237" stroke="white" stroke-width="0.579677" stroke-miterlimit="10"/>
<path d="M143.029 321.982L119.378 425.396" stroke="white" stroke-width="0.579677" stroke-miterlimit="10"/>
<path d="M140.478 323.141L116.828 426.787" stroke="white" stroke-width="0.579677" stroke-miterlimit="10"/>
<path d="M137.928 324.301L114.277 427.947" stroke="white" stroke-width="0.579677" stroke-miterlimit="10"/>
</g>
<mask id="mask5" mask-type="alpha" maskUnits="userSpaceOnUse" x="142" y="337" width="40" height="36">
<path d="M172.477 372.298C173.404 369.052 175.259 362.559 176.882 356.762C179.201 348.183 181.983 337.981 181.983 337.981L150.681 340.068C150.681 340.068 149.753 343.778 147.898 350.27C146.507 354.907 142.565 369.052 142.102 370.907C142.102 370.675 142.333 370.675 142.333 370.675L172.477 372.298Z" fill="#9ECBE3"/>
</mask>
<g mask="url(#mask5)">
<path d="M164.361 312.243L140.71 415.658" stroke="white" stroke-width="0.579677" stroke-miterlimit="10"/>
<path d="M161.811 313.403L138.16 417.049" stroke="white" stroke-width="0.579677" stroke-miterlimit="10"/>
<path d="M159.492 314.794L135.609 418.208" stroke="white" stroke-width="0.579677" stroke-miterlimit="10"/>
<path d="M156.941 315.953L133.059 419.599" stroke="white" stroke-width="0.579677" stroke-miterlimit="10"/>
<path d="M154.391 317.344L130.508 420.759" stroke="white" stroke-width="0.579677" stroke-miterlimit="10"/>
<path d="M151.84 318.504L127.957 421.918" stroke="white" stroke-width="0.579677" stroke-miterlimit="10"/>
<path d="M149.29 319.663L125.407 423.309" stroke="white" stroke-width="0.579677" stroke-miterlimit="10"/>
<path d="M146.739 321.054L122.856 424.469" stroke="white" stroke-width="0.579677" stroke-miterlimit="10"/>
<path d="M144.188 322.214L120.306 425.86" stroke="white" stroke-width="0.579677" stroke-miterlimit="10"/>
<path d="M189.867 299.722L165.984 403.137" stroke="white" stroke-width="0.579677" stroke-miterlimit="10"/>
<path d="M187.316 300.882L163.434 404.528" stroke="white" stroke-width="0.579677" stroke-miterlimit="10"/>
<path d="M184.766 302.273L160.883 405.687" stroke="white" stroke-width="0.579677" stroke-miterlimit="10"/>
<path d="M182.215 303.432L158.332 407.078" stroke="white" stroke-width="0.579677" stroke-miterlimit="10"/>
<path d="M179.665 304.592L155.782 408.238" stroke="white" stroke-width="0.579677" stroke-miterlimit="10"/>
<path d="M177.114 305.983L153.231 409.397" stroke="white" stroke-width="0.579677" stroke-miterlimit="10"/>
<path d="M174.563 307.142L150.681 410.788" stroke="white" stroke-width="0.579677" stroke-miterlimit="10"/>
<path d="M172.013 308.533L148.362 411.948" stroke="white" stroke-width="0.579677" stroke-miterlimit="10"/>
<path d="M169.462 309.693L145.811 413.339" stroke="white" stroke-width="0.579677" stroke-miterlimit="10"/>
<path d="M166.912 310.852L143.261 414.498" stroke="white" stroke-width="0.579677" stroke-miterlimit="10"/>
</g>
<path d="M147.203 274.216C147.203 274.216 162.97 308.301 142.797 368.82" stroke="#660000" stroke-width="0.579677" stroke-miterlimit="10" stroke-linejoin="round"/>
<path d="M106.857 287.433C106.857 287.433 106.162 289.752 109.871 289.752C113.581 289.984 141.406 281.173 143.029 280.477C146.275 279.086 145.58 276.767 145.58 276.767" stroke="white" stroke-width="0.579677" stroke-miterlimit="10"/>
<path d="M151.84 274.912C151.84 274.912 152.304 277.463 155.318 277.231C160.419 276.535 176.187 272.13 181.056 269.579C190.331 264.71 189.867 262.391 189.867 262.391" stroke="white" stroke-width="0.579677" stroke-miterlimit="10"/>
<path d="M174.1 239.204C174.1 239.204 176.882 247.319 188.244 243.378" stroke="white" stroke-width="0.579677" stroke-miterlimit="10"/>
<path d="M119.842 254.507C119.842 254.507 122.624 259.145 117.987 263.087C113.581 266.797 108.248 265.637 108.248 265.637" stroke="white" stroke-width="0.579677" stroke-miterlimit="10"/>
<path d="M26.1661 133.935C26.1661 133.935 18.5144 136.949 18.5144 140.891" stroke="#660000" stroke-width="0.579677" stroke-miterlimit="10" stroke-linejoin="round"/>
<path d="M11.3264 136.949C12.022 136.485 16.8913 136.021 20.1375 137.876" stroke="#660000" stroke-width="0.579677" stroke-miterlimit="10" stroke-linejoin="round"/>
<path d="M97.3505 219.959L118.914 214.394" stroke="#660000" stroke-width="0.579677" stroke-miterlimit="10" stroke-linejoin="round"/>
<path d="M105.698 239.668L132.827 231.784" stroke="#660000" stroke-width="0.579677" stroke-miterlimit="10" stroke-linejoin="round"/>
<path d="M142.333 235.726L164.825 229.234" stroke="#660000" stroke-width="0.579677" stroke-miterlimit="10" stroke-linejoin="round"/>
<path d="M116.364 240.595L126.102 237.581" stroke="#660000" stroke-width="0.579677" stroke-miterlimit="10" stroke-linejoin="round"/>
<path d="M93.1768 225.292L110.567 220.654" stroke="#660000" stroke-width="0.579677" stroke-miterlimit="10" stroke-linejoin="round"/>
<path d="M221.865 210.684C221.865 210.684 249.69 198.627 255.95 179.149" stroke="#660000" stroke-width="0.579677" stroke-miterlimit="10" stroke-linejoin="round"/>
<path d="M242.038 203.728C242.038 203.728 249.69 199.09 253.631 192.134" stroke="#660000" stroke-width="0.579677" stroke-miterlimit="10" stroke-linejoin="round"/>
<path d="M85.2547 225.234C87.6394 224.751 89.3868 223.443 89.1577 222.313C88.9286 221.184 86.8096 220.66 84.4249 221.144C82.0402 221.627 80.2928 222.935 80.5219 224.065C80.751 225.194 82.87 225.718 85.2547 225.234Z" stroke="#660000" stroke-width="0.579677" stroke-miterlimit="10" stroke-linejoin="round"/>
<path d="M102.915 240.363L85.0613 237.581L86.9163 251.957L102.915 240.363Z" fill="#E2603D"/>
<path d="M78.8008 244.769L91.7855 241.523" stroke="#660000" stroke-width="0.579677" stroke-miterlimit="10" stroke-linejoin="round"/>
<path d="M74.859 250.334L90.1625 245.928" stroke="#660000" stroke-width="0.579677" stroke-miterlimit="10" stroke-linejoin="round"/>
<path d="M248.53 185.874L258.037 187.961L257.805 172.889L248.53 185.874Z" fill="#98A2F4"/>
</g>
<defs>
<clipPath id="clip0">
<rect width="260.159" height="476.726" fill="white" transform="translate(0.196655 0.84082)"/>
</clipPath>
</defs>
</svg>
