<svg width="379" height="213" viewBox="0 0 379 213" fill="none" xmlns="http://www.w3.org/2000/svg">
<g clip-path="url(#clip0)">
<path d="M137.036 16.2256C118.95 24.1093 82.546 13.4432 70.025 40.1083C54.7215 72.1065 28.2882 75.5846 48.461 101.322C68.6338 127.06 78.3723 98.5398 125.442 108.046C173.207 118.017 184.337 92.9749 225.378 99.4672C275.231 107.351 305.838 86.9462 268.97 37.5578C241.841 1.15405 185.033 -4.64272 137.036 16.2256Z" fill="#F8F9FF"/>
<path d="M87.6472 144.45C95.7626 141.204 108.747 138.422 124.746 136.335C125.906 136.103 126.833 136.103 127.993 135.871" stroke="#660000" stroke-width="0.579677" stroke-miterlimit="10" stroke-linejoin="round"/>
<path d="M257.377 165.319C238.363 169.028 211.466 171.347 181.323 171.347C124.051 171.347 77.6767 163 77.6767 152.566" stroke="#660000" stroke-width="0.579677" stroke-miterlimit="10" stroke-linejoin="round"/>
<path d="M186.192 57.7305C186.192 57.7305 192.916 46.137 188.047 37.5578C185.728 33.616 179.7 29.6742 181.787 28.5148C183.874 27.3554 187.815 29.4423 188.511 26.428C189.207 23.4136 186.888 16.4575 190.366 16.9213C191.989 17.1531 191.061 19.0081 194.076 19.4718C196.626 19.7037 194.771 15.9938 197.554 16.2256C200.336 16.4575 199.641 19.7037 202.191 19.7037C204.742 19.7037 206.365 14.6026 207.988 16.9213C209.611 19.24 208.452 19.9356 210.075 21.0949C211.466 22.2543 212.625 17.6169 214.017 23.1818C214.712 25.7323 217.263 38.7171 218.19 46.137C219.35 57.0349 216.104 68.1647 216.104 68.1647L186.192 57.7305Z" fill="#E897A3"/>
<path d="M69.0975 2.77715C69.0975 2.77715 73.503 -2.09214 79.2998 1.6178C85.0966 5.32773 89.734 9.73327 92.2845 7.41456C94.8351 5.09586 93.6758 -0.700912 99.0088 0.226571C105.501 1.6178 117.79 5.5596 117.095 13.9069C116.399 22.2543 109.443 24.3411 114.08 27.5873C118.718 30.8335 126.37 29.4423 129.384 34.5434C132.398 39.6446 125.906 44.5139 128.456 48.2238C131.007 51.9338 130.775 50.3107 131.934 52.6294C133.094 54.9481 131.471 56.1074 130.543 55.4118C129.384 54.7162 128.225 55.8756 126.37 52.8612C124.515 49.8469 123.355 47.0645 117.327 50.0788C111.298 53.0931 106.661 60.9767 100.4 55.8756C94.1395 50.7744 104.342 42.8908 99.0088 40.3402C93.6758 37.7896 86.024 47.7601 81.1548 45.6732C76.2855 43.5864 75.358 38.949 78.6042 31.9929C81.8504 25.0367 73.7349 26.428 70.4887 22.9499C67.4744 19.7037 58.6633 14.1388 69.0975 2.77715Z" fill="#3844E5"/>
<path d="M109.907 143.291L89.2702 144.914C84.8647 146.769 82.3141 149.088 82.3141 151.174C82.3141 156.044 94.1395 160.449 112.921 163.464L109.675 146.537L109.907 143.291Z" fill="#45A0D4"/>
<path d="M267.579 151.406C267.579 142.131 226.074 134.712 175.062 134.712C174.135 134.712 172.976 134.712 172.048 134.712C172.048 136.567 172.28 138.653 172.512 140.277C172.976 143.755 173.439 147.001 173.903 148.856C175.062 153.261 179.004 162.072 181.787 167.869C229.552 167.405 267.579 160.217 267.579 151.406Z" fill="#98A2F4"/>
<path d="M109.907 143.291L81.1548 145.609L89.2702 144.914L109.907 143.291Z" fill="#E897A3"/>
<path d="M186.192 57.7305C186.192 57.7305 183.178 62.8317 176.222 69.5559C169.266 76.2802 165.556 77.4395 156.976 80.222C148.861 82.7725 134.253 82.5407 127.065 83.0044C119.645 83.4682 100.864 81.8451 86.024 97.1485C70.4887 113.148 81.1548 145.841 81.1548 145.841L109.907 143.523L114.544 155.812C114.544 155.812 116.167 155.812 118.022 156.507C121.5 157.435 126.37 159.522 126.138 163.695C126.138 165.319 124.746 164.623 124.978 165.55V165.782C139.122 167.405 156.977 168.333 174.831 168.333C177.149 168.333 179.236 168.333 181.323 168.333C178.772 162.536 174.831 153.725 173.439 149.319C172.976 147.233 172.28 144.218 172.048 140.74C171.816 138.885 171.816 137.03 171.584 135.175C171.352 127.987 171.584 120.336 173.207 115.93C176.222 108.278 192.685 102.482 204.51 89.2649C214.249 78.367 216.104 69.0922 216.104 69.0922L186.192 57.7305Z" fill="#E2603D"/>
<path d="M118.022 156.276C115.935 155.812 114.544 155.58 114.544 155.58L109.907 143.291L89.2702 144.914L81.1548 145.609C81.1548 145.609 85.7922 158.362 89.2702 162.768C92.7483 167.173 102.719 169.492 108.284 169.724C113.849 169.956 112.921 172.043 115.935 172.275C118.95 172.506 117.558 170.652 117.558 170.652C117.558 170.652 118.486 170.652 120.341 170.652C123.123 170.652 122.66 167.637 122.66 167.637C122.66 167.637 125.674 168.797 125.21 165.55V165.318C124.978 164.391 126.37 165.087 126.37 163.464C126.37 159.29 121.5 157.203 118.022 156.276Z" fill="#E897A3"/>
<path d="M339.779 151.343C339.805 141.611 314.704 133.654 283.713 133.572C252.723 133.489 227.58 141.312 227.554 151.045C227.528 160.777 252.63 168.734 283.62 168.816C314.61 168.898 339.753 161.075 339.779 151.343Z" fill="#9ECBE3"/>
<mask id="mask0" mask-type="alpha" maskUnits="userSpaceOnUse" x="227" y="133" width="113" height="36">
<path d="M339.779 151.343C339.805 141.611 314.704 133.654 283.713 133.572C252.723 133.489 227.58 141.312 227.554 151.045C227.528 160.777 252.63 168.734 283.62 168.816C314.61 168.898 339.753 161.075 339.779 151.343Z" fill="#9ECBE3"/>
</mask>
<g mask="url(#mask0)">
<path d="M283.81 207.287C293.542 207.287 301.432 182.165 301.432 151.174C301.432 120.184 293.542 95.0617 283.81 95.0617C274.077 95.0617 266.188 120.184 266.188 151.174C266.188 182.165 274.077 207.287 283.81 207.287Z" fill="#F39684"/>
<path d="M227.465 146.769L228.393 173.434" stroke="#44A1DB" stroke-width="0.579677" stroke-miterlimit="10"/>
<path d="M230.016 146.537L230.943 173.202" stroke="#44A1DB" stroke-width="0.579677" stroke-miterlimit="10"/>
<path d="M232.798 146.537L233.726 173.202" stroke="#44A1DB" stroke-width="0.579677" stroke-miterlimit="10"/>
<path d="M235.581 146.305L236.508 172.97" stroke="#44A1DB" stroke-width="0.579677" stroke-miterlimit="10"/>
<path d="M238.131 146.305L239.291 172.97" stroke="#44A1DB" stroke-width="0.579677" stroke-miterlimit="10"/>
<path d="M240.914 146.073L241.841 172.97" stroke="#44A1DB" stroke-width="0.579677" stroke-miterlimit="10"/>
<path d="M243.696 146.073L244.624 172.738" stroke="#44A1DB" stroke-width="0.579677" stroke-miterlimit="10"/>
<path d="M246.479 146.073L247.406 172.738" stroke="#44A1DB" stroke-width="0.579677" stroke-miterlimit="10"/>
<path d="M249.029 145.841L249.957 172.507" stroke="#44A1DB" stroke-width="0.579677" stroke-miterlimit="10"/>
<path d="M251.812 145.841L252.739 172.507" stroke="#44A1DB" stroke-width="0.579677" stroke-miterlimit="10"/>
<path d="M255.522 155.348L255.985 172.275" stroke="#44A1DB" stroke-width="0.579677" stroke-miterlimit="10"/>
<path d="M258.536 155.116L259.232 172.275" stroke="#44A1DB" stroke-width="0.579677" stroke-miterlimit="10"/>
<path d="M261.782 155.116L262.246 172.275" stroke="#44A1DB" stroke-width="0.579677" stroke-miterlimit="10"/>
<path d="M264.796 154.884L265.492 172.043" stroke="#44A1DB" stroke-width="0.579677" stroke-miterlimit="10"/>
<path d="M268.043 154.884L268.506 172.043" stroke="#44A1DB" stroke-width="0.579677" stroke-miterlimit="10"/>
<path d="M271.057 154.884L271.753 171.811" stroke="#44A1DB" stroke-width="0.579677" stroke-miterlimit="10"/>
<path d="M274.303 154.652L274.767 171.811" stroke="#44A1DB" stroke-width="0.579677" stroke-miterlimit="10"/>
<path d="M277.317 154.652L278.013 171.579" stroke="#44A1DB" stroke-width="0.579677" stroke-miterlimit="10"/>
<path d="M280.564 154.421L281.027 171.579" stroke="#44A1DB" stroke-width="0.579677" stroke-miterlimit="10"/>
<path d="M283.578 154.421L284.274 171.347" stroke="#44A1DB" stroke-width="0.579677" stroke-miterlimit="10"/>
<path d="M286.824 154.189L287.52 171.347" stroke="#44A1DB" stroke-width="0.579677" stroke-miterlimit="10"/>
<path d="M290.07 154.189L290.534 171.115" stroke="#44A1DB" stroke-width="0.579677" stroke-miterlimit="10"/>
<path d="M293.085 153.957L293.78 171.115" stroke="#44A1DB" stroke-width="0.579677" stroke-miterlimit="10"/>
<path d="M296.331 153.957L296.795 170.883" stroke="#44A1DB" stroke-width="0.579677" stroke-miterlimit="10"/>
<path d="M299.345 153.725L300.041 170.883" stroke="#44A1DB" stroke-width="0.579677" stroke-miterlimit="10"/>
<path d="M302.591 153.725L303.055 170.652" stroke="#44A1DB" stroke-width="0.579677" stroke-miterlimit="10"/>
<path d="M305.606 153.493L306.301 170.652" stroke="#44A1DB" stroke-width="0.579677" stroke-miterlimit="10"/>
<path d="M308.852 153.493L309.316 170.42" stroke="#44A1DB" stroke-width="0.579677" stroke-miterlimit="10"/>
<path d="M311.866 153.261L312.562 170.42" stroke="#44A1DB" stroke-width="0.579677" stroke-miterlimit="10"/>
<path d="M315.112 153.261L315.576 170.188" stroke="#44A1DB" stroke-width="0.579677" stroke-miterlimit="10"/>
<path d="M318.359 153.029L318.822 170.188" stroke="#44A1DB" stroke-width="0.579677" stroke-miterlimit="10"/>
<path d="M320.909 153.029L321.605 169.956" stroke="#44A1DB" stroke-width="0.579677" stroke-miterlimit="10"/>
<path d="M323.692 152.798L324.387 169.956" stroke="#44A1DB" stroke-width="0.579677" stroke-miterlimit="10"/>
<path d="M326.474 152.798L327.17 169.956" stroke="#44A1DB" stroke-width="0.579677" stroke-miterlimit="10"/>
<path d="M329.256 152.798L329.952 169.724" stroke="#44A1DB" stroke-width="0.579677" stroke-miterlimit="10"/>
<path d="M332.039 152.566L332.735 169.724" stroke="#44A1DB" stroke-width="0.579677" stroke-miterlimit="10"/>
<path d="M334.821 152.566L335.285 169.492" stroke="#44A1DB" stroke-width="0.579677" stroke-miterlimit="10"/>
<path d="M337.604 152.334L338.068 169.492" stroke="#44A1DB" stroke-width="0.579677" stroke-miterlimit="10"/>
</g>
<path d="M339.878 149.727C339.904 139.994 314.802 132.038 283.812 131.956C252.822 131.873 227.678 139.696 227.652 149.428C227.627 159.161 252.728 167.117 283.718 167.2C314.709 167.282 339.852 159.459 339.878 149.727Z" fill="#F39684"/>
<mask id="mask1" mask-type="alpha" maskUnits="userSpaceOnUse" x="227" y="131" width="113" height="37">
<path d="M339.878 149.727C339.904 139.994 314.802 132.038 283.812 131.956C252.822 131.873 227.678 139.696 227.652 149.428C227.627 159.161 252.728 167.117 283.718 167.2C314.709 167.282 339.852 159.459 339.878 149.727Z" fill="#F39684"/>
</mask>
<g mask="url(#mask1)">
<path d="M248.565 129.842L237.899 167.637" stroke="white" stroke-width="0.579677" stroke-miterlimit="10"/>
<path d="M256.217 129.379L248.102 167.174" stroke="white" stroke-width="0.579677" stroke-miterlimit="10"/>
<path d="M263.869 129.147L258.536 166.942" stroke="white" stroke-width="0.579677" stroke-miterlimit="10"/>
<path d="M271.521 128.915L268.738 166.478" stroke="white" stroke-width="0.579677" stroke-miterlimit="10"/>
<path d="M279.172 128.683V166.014" stroke="white" stroke-width="0.579677" stroke-miterlimit="10"/>
<path d="M286.824 128.451L289.375 165.782" stroke="white" stroke-width="0.579677" stroke-miterlimit="10"/>
<path d="M294.476 128.219L299.577 165.319" stroke="white" stroke-width="0.579677" stroke-miterlimit="10"/>
<path d="M302.359 127.755L310.011 165.087" stroke="white" stroke-width="0.579677" stroke-miterlimit="10"/>
<path d="M310.011 127.524L320.214 164.623" stroke="white" stroke-width="0.579677" stroke-miterlimit="10"/>
<path d="M317.663 127.292L330.416 164.391" stroke="white" stroke-width="0.579677" stroke-miterlimit="10"/>
<path d="M226.306 171.347L343.632 167.173" stroke="white" stroke-width="0.579677" stroke-miterlimit="10"/>
<path d="M228.161 166.014L341.314 162.072" stroke="white" stroke-width="0.579677" stroke-miterlimit="10"/>
<path d="M229.784 160.913L339.227 156.971" stroke="white" stroke-width="0.579677" stroke-miterlimit="10"/>
<path d="M231.639 155.58L336.908 151.87" stroke="white" stroke-width="0.579677" stroke-miterlimit="10"/>
<path d="M233.494 150.247L334.821 146.769" stroke="white" stroke-width="0.579677" stroke-miterlimit="10"/>
<path d="M235.349 144.914L332.503 141.668" stroke="white" stroke-width="0.579677" stroke-miterlimit="10"/>
<path d="M237.204 139.813L330.416 136.335" stroke="white" stroke-width="0.579677" stroke-miterlimit="10"/>
<path d="M239.059 134.48L328.097 131.234" stroke="white" stroke-width="0.579677" stroke-miterlimit="10"/>
<path d="M284.505 163C312.55 163 335.285 156.46 335.285 148.392C335.285 140.324 312.55 133.784 284.505 133.784C256.461 133.784 233.726 140.324 233.726 148.392C233.726 156.46 256.461 163 284.505 163Z" stroke="white" stroke-width="0.579677" stroke-miterlimit="10"/>
</g>
<mask id="mask2" mask-type="alpha" maskUnits="userSpaceOnUse" x="77" y="57" width="140" height="112">
<path d="M186.192 57.7305C186.192 57.7305 183.178 62.8317 176.222 69.5559C169.266 76.2802 165.556 77.4395 156.976 80.222C148.861 82.7725 134.253 82.5407 127.065 83.0044C119.645 83.4682 100.864 81.8451 86.024 97.1485C70.4887 113.148 81.1548 145.841 81.1548 145.841L109.907 143.523L114.544 155.812C114.544 155.812 116.167 155.812 118.022 156.507C121.5 157.435 126.37 159.522 126.138 163.695C126.138 165.319 124.746 164.623 124.978 165.55V165.782C139.122 167.405 156.977 168.333 174.831 168.333C177.149 168.333 179.236 168.333 181.323 168.333C178.772 162.536 174.831 153.725 173.439 149.319C172.976 147.233 172.28 144.218 172.048 140.74C171.816 138.885 171.816 137.03 171.584 135.175C171.352 127.987 171.584 120.336 173.207 115.93C176.222 108.278 192.685 102.482 204.51 89.2649C214.249 78.367 216.104 69.0922 216.104 69.0922L186.192 57.7305Z" fill="#E2603D"/>
</mask>
<g mask="url(#mask2)">
<path d="M76.0536 160.681L79.9954 163.232L83.9372 160.681L87.879 163.232L91.589 160.681" stroke="white" stroke-width="0.579677" stroke-miterlimit="10"/>
<path d="M76.0536 163.232L79.9954 165.782L83.9372 163.232L87.879 165.782L91.589 163.232" stroke="white" stroke-width="0.579677" stroke-miterlimit="10"/>
<path d="M101.328 160.681L105.269 163L109.211 160.681L113.153 163L117.095 160.681" stroke="white" stroke-width="0.579677" stroke-miterlimit="10"/>
<path d="M101.328 163L105.269 165.55L109.211 163L113.153 165.55L117.095 163" stroke="white" stroke-width="0.579677" stroke-miterlimit="10"/>
<path d="M126.601 160.449L130.543 163L134.485 160.449L138.427 163L142.369 160.449" stroke="white" stroke-width="0.579677" stroke-miterlimit="10"/>
<path d="M126.601 163L130.543 165.55L134.485 163L138.427 165.55L142.369 163" stroke="white" stroke-width="0.579677" stroke-miterlimit="10"/>
<path d="M152.107 160.449L155.817 162.768L159.759 160.449L163.701 162.768L167.643 160.449" stroke="white" stroke-width="0.579677" stroke-miterlimit="10"/>
<path d="M152.107 162.768L155.817 165.319L159.759 162.768L163.701 165.319L167.643 162.768" stroke="white" stroke-width="0.579677" stroke-miterlimit="10"/>
<path d="M177.381 160.217L181.323 162.768L185.033 160.217L188.975 162.768L192.916 160.217" stroke="white" stroke-width="0.579677" stroke-miterlimit="10"/>
<path d="M177.381 162.768L181.323 165.087L185.033 162.768L188.975 165.087L192.916 162.768" stroke="white" stroke-width="0.579677" stroke-miterlimit="10"/>
<path d="M202.655 159.985L206.597 162.536L210.539 159.985L214.249 162.536L218.19 159.985" stroke="white" stroke-width="0.579677" stroke-miterlimit="10"/>
<path d="M202.655 162.536L206.597 165.087L210.539 162.536L214.249 165.087L218.19 162.536" stroke="white" stroke-width="0.579677" stroke-miterlimit="10"/>
<path d="M63.3007 151.174L67.2425 153.725L70.9525 151.174L74.8943 153.725L78.8361 151.174" stroke="white" stroke-width="0.579677" stroke-miterlimit="10"/>
<path d="M63.3007 153.725L67.2425 156.044L70.9525 153.725L74.8943 156.044L78.8361 153.725" stroke="white" stroke-width="0.579677" stroke-miterlimit="10"/>
<path d="M88.5746 150.943L92.5165 153.493L96.4582 150.943L100.168 153.493L104.11 150.943" stroke="white" stroke-width="0.579677" stroke-miterlimit="10"/>
<path d="M88.5746 153.493L92.5165 156.044L96.4582 153.493L100.168 156.044L104.11 153.493" stroke="white" stroke-width="0.579677" stroke-miterlimit="10"/>
<path d="M113.849 150.943L117.79 153.493L121.732 150.943L125.674 153.493L129.384 150.943" stroke="white" stroke-width="0.579677" stroke-miterlimit="10"/>
<path d="M113.849 153.493L117.79 155.812L121.732 153.493L125.674 155.812L129.384 153.493" stroke="white" stroke-width="0.579677" stroke-miterlimit="10"/>
<path d="M139.122 150.711L143.064 153.261L147.006 150.711L150.948 153.261L154.89 150.711" stroke="white" stroke-width="0.579677" stroke-miterlimit="10"/>
<path d="M139.122 153.261L143.064 155.812L147.006 153.261L150.948 155.812L154.89 153.261" stroke="white" stroke-width="0.579677" stroke-miterlimit="10"/>
<path d="M164.628 150.711L168.338 153.029L172.28 150.711L176.222 153.029L180.164 150.711" stroke="white" stroke-width="0.579677" stroke-miterlimit="10"/>
<path d="M164.628 153.029L168.338 155.58L172.28 153.029L176.222 155.58L180.164 153.029" stroke="white" stroke-width="0.579677" stroke-miterlimit="10"/>
<path d="M189.902 150.479L193.612 153.029L197.554 150.479L201.496 153.029L205.438 150.479" stroke="white" stroke-width="0.579677" stroke-miterlimit="10"/>
<path d="M189.902 153.029L193.612 155.348L197.554 153.029L201.496 155.348L205.438 153.029" stroke="white" stroke-width="0.579677" stroke-miterlimit="10"/>
<path d="M215.176 150.247L219.118 152.798L222.828 150.247L226.77 152.798L230.711 150.247" stroke="white" stroke-width="0.579677" stroke-miterlimit="10"/>
<path d="M215.176 152.797L219.118 155.348L222.828 152.797L226.77 155.348L230.711 152.797" stroke="white" stroke-width="0.579677" stroke-miterlimit="10"/>
<path d="M76.0536 142.131L79.9954 144.682L83.9372 142.131L87.879 144.682L91.589 142.131" stroke="white" stroke-width="0.579677" stroke-miterlimit="10"/>
<path d="M76.0536 144.682L79.9954 147.001L83.9372 144.682L87.879 147.001L91.589 144.682" stroke="white" stroke-width="0.579677" stroke-miterlimit="10"/>
<path d="M101.328 141.9L105.269 144.45L109.211 141.9L113.153 144.45L117.095 141.9" stroke="white" stroke-width="0.579677" stroke-miterlimit="10"/>
<path d="M101.328 144.45L105.269 147.001L109.211 144.45L113.153 147.001L117.095 144.45" stroke="white" stroke-width="0.579677" stroke-miterlimit="10"/>
<path d="M126.601 141.9L130.543 144.218L134.485 141.9L138.427 144.218L142.369 141.9" stroke="white" stroke-width="0.579677" stroke-miterlimit="10"/>
<path d="M126.601 144.218L130.543 146.769L134.485 144.218L138.427 146.769L142.369 144.218" stroke="white" stroke-width="0.579677" stroke-miterlimit="10"/>
<path d="M152.107 141.668L155.817 144.218L159.759 141.668L163.701 144.218L167.643 141.668" stroke="white" stroke-width="0.579677" stroke-miterlimit="10"/>
<path d="M152.107 144.218L155.817 146.769L159.759 144.218L163.701 146.769L167.643 144.218" stroke="white" stroke-width="0.579677" stroke-miterlimit="10"/>
<path d="M177.381 141.668L181.323 143.986L185.033 141.668L188.975 143.986L192.916 141.668" stroke="white" stroke-width="0.579677" stroke-miterlimit="10"/>
<path d="M177.381 143.986L181.323 146.537L185.033 143.986L188.975 146.537L192.916 143.986" stroke="white" stroke-width="0.579677" stroke-miterlimit="10"/>
<path d="M202.655 141.436L206.597 143.986L210.539 141.436L214.249 143.986L218.19 141.436" stroke="white" stroke-width="0.579677" stroke-miterlimit="10"/>
<path d="M202.655 143.986L206.597 146.305L210.539 143.986L214.249 146.305L218.19 143.986" stroke="white" stroke-width="0.579677" stroke-miterlimit="10"/>
<path d="M63.3007 132.625L67.2425 134.943L70.9525 132.625L74.8943 134.943L78.8361 132.625" stroke="white" stroke-width="0.579677" stroke-miterlimit="10"/>
<path d="M63.3007 134.943L67.2425 137.494L70.9525 134.943L74.8943 137.494L78.8361 134.943" stroke="white" stroke-width="0.579677" stroke-miterlimit="10"/>
<path d="M88.5746 132.393L92.5165 134.943L96.4582 132.393L100.168 134.943L104.11 132.393" stroke="white" stroke-width="0.579677" stroke-miterlimit="10"/>
<path d="M88.5746 134.943L92.5165 137.262L96.4582 134.943L100.168 137.262L104.11 134.943" stroke="white" stroke-width="0.579677" stroke-miterlimit="10"/>
<path d="M113.849 132.161L117.79 134.712L121.732 132.161L125.674 134.712L129.384 132.161" stroke="white" stroke-width="0.579677" stroke-miterlimit="10"/>
<path d="M113.849 134.712L117.79 137.262L121.732 134.712L125.674 137.262L129.384 134.712" stroke="white" stroke-width="0.579677" stroke-miterlimit="10"/>
<path d="M139.122 132.161L143.064 134.712L147.006 132.161L150.948 134.712L154.89 132.161" stroke="white" stroke-width="0.579677" stroke-miterlimit="10"/>
<path d="M139.122 134.712L143.064 137.03L147.006 134.712L150.948 137.03L154.89 134.712" stroke="white" stroke-width="0.579677" stroke-miterlimit="10"/>
<path d="M164.628 131.929L168.338 134.48L172.28 131.929L176.222 134.48L180.164 131.929" stroke="white" stroke-width="0.579677" stroke-miterlimit="10"/>
<path d="M164.628 134.48L168.338 137.03L172.28 134.48L176.222 137.03L180.164 134.48" stroke="white" stroke-width="0.579677" stroke-miterlimit="10"/>
<path d="M189.902 131.929L193.612 134.248L197.554 131.929L201.496 134.248L205.438 131.929" stroke="white" stroke-width="0.579677" stroke-miterlimit="10"/>
<path d="M189.902 134.248L193.612 136.798L197.554 134.248L201.496 136.798L205.438 134.248" stroke="white" stroke-width="0.579677" stroke-miterlimit="10"/>
<path d="M215.176 131.697L219.118 134.248L222.828 131.697L226.77 134.248L230.711 131.697" stroke="white" stroke-width="0.579677" stroke-miterlimit="10"/>
<path d="M215.176 134.248L219.118 136.567L222.828 134.248L226.77 136.567L230.711 134.248" stroke="white" stroke-width="0.579677" stroke-miterlimit="10"/>
<path d="M76.0536 123.582L79.9954 125.9L83.9372 123.582L87.879 125.9L91.589 123.582" stroke="white" stroke-width="0.579677" stroke-miterlimit="10"/>
<path d="M76.0536 125.901L79.9954 128.451L83.9372 125.901L87.879 128.451L91.589 125.901" stroke="white" stroke-width="0.579677" stroke-miterlimit="10"/>
<path d="M101.328 123.35L105.269 125.9L109.211 123.35L113.153 125.9L117.095 123.35" stroke="white" stroke-width="0.579677" stroke-miterlimit="10"/>
<path d="M101.328 125.901L105.269 128.219L109.211 125.901L113.153 128.219L117.095 125.901" stroke="white" stroke-width="0.579677" stroke-miterlimit="10"/>
<path d="M126.601 123.118L130.543 125.669L134.485 123.118L138.427 125.669L142.369 123.118" stroke="white" stroke-width="0.579677" stroke-miterlimit="10"/>
<path d="M126.601 125.669L130.543 128.219L134.485 125.669L138.427 128.219L142.369 125.669" stroke="white" stroke-width="0.579677" stroke-miterlimit="10"/>
<path d="M152.107 123.118L155.817 125.437L159.759 123.118L163.701 125.437L167.643 123.118" stroke="white" stroke-width="0.579677" stroke-miterlimit="10"/>
<path d="M152.107 125.437L155.817 127.987L159.759 125.437L163.701 127.987L167.643 125.437" stroke="white" stroke-width="0.579677" stroke-miterlimit="10"/>
<path d="M177.381 122.886L181.323 125.437L185.033 122.886L188.975 125.437L192.916 122.886" stroke="white" stroke-width="0.579677" stroke-miterlimit="10"/>
<path d="M177.381 125.437L181.323 127.987L185.033 125.437L188.975 127.987L192.916 125.437" stroke="white" stroke-width="0.579677" stroke-miterlimit="10"/>
<path d="M202.655 122.886L206.597 125.205L210.539 122.886L214.249 125.205L218.19 122.886" stroke="white" stroke-width="0.579677" stroke-miterlimit="10"/>
<path d="M202.655 125.205L206.597 127.755L210.539 125.205L214.249 127.755L218.19 125.205" stroke="white" stroke-width="0.579677" stroke-miterlimit="10"/>
<path d="M63.3007 113.843L67.2425 116.394L70.9525 113.843L74.8943 116.394L78.8361 113.843" stroke="white" stroke-width="0.579677" stroke-miterlimit="10"/>
<path d="M63.3007 116.394L67.2425 118.944L70.9525 116.394L74.8943 118.944L78.8361 116.394" stroke="white" stroke-width="0.579677" stroke-miterlimit="10"/>
<path d="M88.5746 113.843L92.5165 116.162L96.4582 113.843L100.168 116.162L104.11 113.843" stroke="white" stroke-width="0.579677" stroke-miterlimit="10"/>
<path d="M88.5746 116.162L92.5165 118.713L96.4582 116.162L100.168 118.713L104.11 116.162" stroke="white" stroke-width="0.579677" stroke-miterlimit="10"/>
<path d="M113.849 113.611L117.79 116.162L121.732 113.611L125.674 116.162L129.384 113.611" stroke="white" stroke-width="0.579677" stroke-miterlimit="10"/>
<path d="M113.849 116.162L117.79 118.481L121.732 116.162L125.674 118.481L129.384 116.162" stroke="white" stroke-width="0.579677" stroke-miterlimit="10"/>
<path d="M139.122 113.379L143.064 115.93L147.006 113.379L150.948 115.93L154.89 113.379" stroke="white" stroke-width="0.579677" stroke-miterlimit="10"/>
<path d="M139.122 115.93L143.064 118.481L147.006 115.93L150.948 118.481L154.89 115.93" stroke="white" stroke-width="0.579677" stroke-miterlimit="10"/>
<path d="M164.628 113.379L168.338 115.93L172.28 113.379L176.222 115.93L180.164 113.379" stroke="white" stroke-width="0.579677" stroke-miterlimit="10"/>
<path d="M164.628 115.93L168.338 118.249L172.28 115.93L176.222 118.249L180.164 115.93" stroke="white" stroke-width="0.579677" stroke-miterlimit="10"/>
<path d="M189.902 113.148L193.612 115.698L197.554 113.148L201.496 115.698L205.438 113.148" stroke="white" stroke-width="0.579677" stroke-miterlimit="10"/>
<path d="M189.902 115.698L193.612 118.249L197.554 115.698L201.496 118.249L205.438 115.698" stroke="white" stroke-width="0.579677" stroke-miterlimit="10"/>
<path d="M215.176 113.148L219.118 115.466L222.828 113.148L226.77 115.466L230.711 113.148" stroke="white" stroke-width="0.579677" stroke-miterlimit="10"/>
<path d="M215.176 115.466L219.118 118.017L222.828 115.466L226.77 118.017L230.711 115.466" stroke="white" stroke-width="0.579677" stroke-miterlimit="10"/>
<path d="M76.0536 104.8L79.9954 107.351L83.9372 104.8L87.879 107.351L91.589 104.8" stroke="white" stroke-width="0.579677" stroke-miterlimit="10"/>
<path d="M76.0536 107.351L79.9954 109.901L83.9372 107.351L87.879 109.901L91.589 107.351" stroke="white" stroke-width="0.579677" stroke-miterlimit="10"/>
<path d="M101.328 104.8L105.269 107.119L109.211 104.8L113.153 107.119L117.095 104.8" stroke="white" stroke-width="0.579677" stroke-miterlimit="10"/>
<path d="M101.328 107.119L105.269 109.67L109.211 107.119L113.153 109.67L117.095 107.119" stroke="white" stroke-width="0.579677" stroke-miterlimit="10"/>
<path d="M126.601 104.568L130.543 107.119L134.485 104.568L138.427 107.119L142.369 104.568" stroke="white" stroke-width="0.579677" stroke-miterlimit="10"/>
<path d="M126.601 107.119L130.543 109.438L134.485 107.119L138.427 109.438L142.369 107.119" stroke="white" stroke-width="0.579677" stroke-miterlimit="10"/>
<path d="M152.107 104.337L155.817 106.887L159.759 104.337L163.701 106.887L167.643 104.337" stroke="white" stroke-width="0.579677" stroke-miterlimit="10"/>
<path d="M152.107 106.887L155.817 109.438L159.759 106.887L163.701 109.438L167.643 106.887" stroke="white" stroke-width="0.579677" stroke-miterlimit="10"/>
<path d="M177.381 104.337L181.323 106.655L185.033 104.337L188.975 106.655L192.916 104.337" stroke="white" stroke-width="0.579677" stroke-miterlimit="10"/>
<path d="M177.381 106.655L181.323 109.206L185.033 106.655L188.975 109.206L192.916 106.655" stroke="white" stroke-width="0.579677" stroke-miterlimit="10"/>
<path d="M202.655 104.105L206.597 106.655L210.539 104.105L214.249 106.655L218.19 104.105" stroke="white" stroke-width="0.579677" stroke-miterlimit="10"/>
<path d="M202.655 106.655L206.597 109.206L210.539 106.655L214.249 109.206L218.19 106.655" stroke="white" stroke-width="0.579677" stroke-miterlimit="10"/>
<path d="M63.3007 95.2935L67.2425 97.8441L70.9525 95.2935L74.8943 97.8441L78.8361 95.2935" stroke="white" stroke-width="0.579677" stroke-miterlimit="10"/>
<path d="M63.3007 97.8441L67.2425 100.163L70.9525 97.8441L74.8943 100.163L78.8361 97.8441" stroke="white" stroke-width="0.579677" stroke-miterlimit="10"/>
<path d="M88.5746 95.0617L92.5165 97.6123L96.4582 95.0617L100.168 97.6123L104.11 95.0617" stroke="white" stroke-width="0.579677" stroke-miterlimit="10"/>
<path d="M88.5746 97.6123L92.5165 100.163L96.4582 97.6123L100.168 100.163L104.11 97.6123" stroke="white" stroke-width="0.579677" stroke-miterlimit="10"/>
<path d="M113.849 95.0617L117.79 97.3804L121.732 95.0617L125.674 97.3804L129.384 95.0617" stroke="white" stroke-width="0.579677" stroke-miterlimit="10"/>
<path d="M113.849 97.3804L117.79 99.931L121.732 97.3804L125.674 99.931L129.384 97.3804" stroke="white" stroke-width="0.579677" stroke-miterlimit="10"/>
<path d="M139.122 94.8298L143.064 97.3804L147.006 94.8298L150.948 97.3804L154.89 94.8298" stroke="white" stroke-width="0.579677" stroke-miterlimit="10"/>
<path d="M139.122 97.3804L143.064 99.6991L147.006 97.3804L150.948 99.6991L154.89 97.3804" stroke="white" stroke-width="0.579677" stroke-miterlimit="10"/>
<path d="M164.628 94.5979L168.338 97.1485L172.28 94.5979L176.222 97.1485L180.164 94.5979" stroke="white" stroke-width="0.579677" stroke-miterlimit="10"/>
<path d="M164.628 97.1485L168.338 99.6991L172.28 97.1485L176.222 99.6991L180.164 97.1485" stroke="white" stroke-width="0.579677" stroke-miterlimit="10"/>
<path d="M189.902 94.5979L193.612 97.1485L197.554 94.5979L201.496 97.1485L205.438 94.5979" stroke="white" stroke-width="0.579677" stroke-miterlimit="10"/>
<path d="M189.902 97.1485L193.612 99.4672L197.554 97.1485L201.496 99.4672L205.438 97.1485" stroke="white" stroke-width="0.579677" stroke-miterlimit="10"/>
<path d="M215.176 94.3661L219.118 96.9167L222.828 94.3661L226.77 96.9167L230.711 94.3661" stroke="white" stroke-width="0.579677" stroke-miterlimit="10"/>
<path d="M215.176 96.9167L219.118 99.4672L222.828 96.9167L226.77 99.4672L230.711 96.9167" stroke="white" stroke-width="0.579677" stroke-miterlimit="10"/>
<path d="M76.0536 86.2506L79.9954 88.5693L83.9372 86.2506L87.879 88.5693L91.589 86.2506" stroke="white" stroke-width="0.579677" stroke-miterlimit="10"/>
<path d="M76.0536 88.5693L79.9954 91.1199L83.9372 88.5693L87.879 91.1199L91.589 88.5693" stroke="white" stroke-width="0.579677" stroke-miterlimit="10"/>
<path d="M101.328 86.0187L105.269 88.5693L109.211 86.0187L113.153 88.5693L117.095 86.0187" stroke="white" stroke-width="0.579677" stroke-miterlimit="10"/>
<path d="M101.328 88.5693L105.269 91.1199L109.211 88.5693L113.153 91.1199L117.095 88.5693" stroke="white" stroke-width="0.579677" stroke-miterlimit="10"/>
<path d="M126.601 86.0187L130.543 88.3374L134.485 86.0187L138.427 88.3374L142.369 86.0187" stroke="white" stroke-width="0.579677" stroke-miterlimit="10"/>
<path d="M126.601 88.3374L130.543 90.888L134.485 88.3374L138.427 90.888L142.369 88.3374" stroke="white" stroke-width="0.579677" stroke-miterlimit="10"/>
<path d="M152.107 85.7869L155.817 88.3374L159.759 85.7869L163.701 88.3374L167.643 85.7869" stroke="white" stroke-width="0.579677" stroke-miterlimit="10"/>
<path d="M152.107 88.3374L155.817 90.6561L159.759 88.3374L163.701 90.6561L167.643 88.3374" stroke="white" stroke-width="0.579677" stroke-miterlimit="10"/>
<path d="M177.381 85.555L181.323 88.1056L185.033 85.555L188.975 88.1056L192.916 85.555" stroke="white" stroke-width="0.579677" stroke-miterlimit="10"/>
<path d="M177.381 88.1056L181.323 90.6561L185.033 88.1056L188.975 90.6561L192.916 88.1056" stroke="white" stroke-width="0.579677" stroke-miterlimit="10"/>
<path d="M202.655 85.555L206.597 87.8737L210.539 85.555L214.249 87.8737L218.19 85.555" stroke="white" stroke-width="0.579677" stroke-miterlimit="10"/>
<path d="M202.655 87.8737L206.597 90.4243L210.539 87.8737L214.249 90.4243L218.19 87.8737" stroke="white" stroke-width="0.579677" stroke-miterlimit="10"/>
<path d="M63.3007 76.512L67.2425 79.0626L70.9525 76.512L74.8943 79.0626L78.8361 76.512" stroke="white" stroke-width="0.579677" stroke-miterlimit="10"/>
<path d="M63.3007 79.0626L67.2425 81.6132L70.9525 79.0626L74.8943 81.6132L78.8361 79.0626" stroke="white" stroke-width="0.579677" stroke-miterlimit="10"/>
<path d="M88.5746 76.512L92.5165 79.0626L96.4582 76.512L100.168 79.0626L104.11 76.512" stroke="white" stroke-width="0.579677" stroke-miterlimit="10"/>
<path d="M88.5746 79.0626L92.5165 81.3813L96.4582 79.0626L100.168 81.3813L104.11 79.0626" stroke="white" stroke-width="0.579677" stroke-miterlimit="10"/>
<path d="M113.849 76.2802L117.79 78.8307L121.732 76.2802L125.674 78.8307L129.384 76.2802" stroke="white" stroke-width="0.579677" stroke-miterlimit="10"/>
<path d="M113.849 78.8307L117.79 81.3813L121.732 78.8307L125.674 81.3813L129.384 78.8307" stroke="white" stroke-width="0.579677" stroke-miterlimit="10"/>
<path d="M139.122 76.2802L143.064 78.5989L147.006 76.2802L150.948 78.5989L154.89 76.2802" stroke="white" stroke-width="0.579677" stroke-miterlimit="10"/>
<path d="M139.122 78.5988L143.064 81.1494L147.006 78.5988L150.948 81.1494L154.89 78.5988" stroke="white" stroke-width="0.579677" stroke-miterlimit="10"/>
<path d="M164.628 76.0483L168.338 78.5989L172.28 76.0483L176.222 78.5989L180.164 76.0483" stroke="white" stroke-width="0.579677" stroke-miterlimit="10"/>
<path d="M164.628 78.5988L168.338 80.9176L172.28 78.5988L176.222 80.9176L180.164 78.5988" stroke="white" stroke-width="0.579677" stroke-miterlimit="10"/>
<path d="M189.902 75.8164L193.612 78.367L197.554 75.8164L201.496 78.367L205.438 75.8164" stroke="white" stroke-width="0.579677" stroke-miterlimit="10"/>
<path d="M189.902 78.367L193.612 80.9176L197.554 78.367L201.496 80.9176L205.438 78.367" stroke="white" stroke-width="0.579677" stroke-miterlimit="10"/>
<path d="M215.176 75.8164L219.118 78.367L222.828 75.8164L226.77 78.367L230.711 75.8164" stroke="white" stroke-width="0.579677" stroke-miterlimit="10"/>
<path d="M215.176 78.367L219.118 80.6857L222.828 78.367L226.77 80.6857L230.711 78.367" stroke="white" stroke-width="0.579677" stroke-miterlimit="10"/>
<path d="M76.0536 67.4691L79.9954 70.0196L83.9372 67.4691L87.879 70.0196L91.589 67.4691" stroke="white" stroke-width="0.579677" stroke-miterlimit="10"/>
<path d="M76.0536 70.0197L79.9954 72.5702L83.9372 70.0197L87.879 72.5702L91.589 70.0197" stroke="white" stroke-width="0.579677" stroke-miterlimit="10"/>
<path d="M101.328 67.4691L105.269 69.7878L109.211 67.4691L113.153 69.7878L117.095 67.4691" stroke="white" stroke-width="0.579677" stroke-miterlimit="10"/>
<path d="M101.328 69.7878L105.269 72.3384L109.211 69.7878L113.153 72.3384L117.095 69.7878" stroke="white" stroke-width="0.579677" stroke-miterlimit="10"/>
<path d="M126.601 67.2372L130.543 69.7878L134.485 67.2372L138.427 69.7878L142.369 67.2372" stroke="white" stroke-width="0.579677" stroke-miterlimit="10"/>
<path d="M126.601 69.7878L130.543 72.3384L134.485 69.7878L138.427 72.3384L142.369 69.7878" stroke="white" stroke-width="0.579677" stroke-miterlimit="10"/>
<path d="M152.107 67.2372L155.817 69.5559L159.759 67.2372L163.701 69.5559L167.643 67.2372" stroke="white" stroke-width="0.579677" stroke-miterlimit="10"/>
<path d="M152.107 69.5559L155.817 72.1065L159.759 69.5559L163.701 72.1065L167.643 69.5559" stroke="white" stroke-width="0.579677" stroke-miterlimit="10"/>
<path d="M177.381 67.0053L181.323 69.5559L185.033 67.0053L188.975 69.5559L192.916 67.0053" stroke="white" stroke-width="0.579677" stroke-miterlimit="10"/>
<path d="M177.381 69.5559L181.323 71.8746L185.033 69.5559L188.975 71.8746L192.916 69.5559" stroke="white" stroke-width="0.579677" stroke-miterlimit="10"/>
<path d="M202.655 66.7734L206.597 69.324L210.539 66.7734L214.249 69.324L218.19 66.7734" stroke="white" stroke-width="0.579677" stroke-miterlimit="10"/>
<path d="M202.655 69.324L206.597 71.8746L210.539 69.324L214.249 71.8746L218.19 69.324" stroke="white" stroke-width="0.579677" stroke-miterlimit="10"/>
<path d="M63.3007 57.9623L67.2425 60.5129L70.9525 57.9623L74.8943 60.5129L78.8361 57.9623" stroke="white" stroke-width="0.579677" stroke-miterlimit="10"/>
<path d="M63.3007 60.5129L67.2425 62.8316L70.9525 60.5129L74.8943 62.8316L78.8361 60.5129" stroke="white" stroke-width="0.579677" stroke-miterlimit="10"/>
<path d="M88.5746 57.7305L92.5165 60.2811L96.4582 57.7305L100.168 60.2811L104.11 57.7305" stroke="white" stroke-width="0.579677" stroke-miterlimit="10"/>
<path d="M88.5746 60.2811L92.5165 62.8316L96.4582 60.2811L100.168 62.8316L104.11 60.2811" stroke="white" stroke-width="0.579677" stroke-miterlimit="10"/>
<path d="M113.849 57.7305L117.79 60.2811L121.732 57.7305L125.674 60.2811L129.384 57.7305" stroke="white" stroke-width="0.579677" stroke-miterlimit="10"/>
<path d="M113.849 60.2811L117.79 62.5998L121.732 60.2811L125.674 62.5998L129.384 60.2811" stroke="white" stroke-width="0.579677" stroke-miterlimit="10"/>
<path d="M139.122 57.4986L143.064 60.0492L147.006 57.4986L150.948 60.0492L154.89 57.4986" stroke="white" stroke-width="0.579677" stroke-miterlimit="10"/>
<path d="M139.122 60.0492L143.064 62.5998L147.006 60.0492L150.948 62.5998L154.89 60.0492" stroke="white" stroke-width="0.579677" stroke-miterlimit="10"/>
<path d="M164.628 57.4986L168.338 59.8173L172.28 57.4986L176.222 59.8173L180.164 57.4986" stroke="white" stroke-width="0.579677" stroke-miterlimit="10"/>
<path d="M164.628 59.8173L168.338 62.3679L172.28 59.8173L176.222 62.3679L180.164 59.8173" stroke="white" stroke-width="0.579677" stroke-miterlimit="10"/>
<path d="M189.902 57.2668L193.612 59.8173L197.554 57.2668L201.496 59.8173L205.438 57.2668" stroke="white" stroke-width="0.579677" stroke-miterlimit="10"/>
<path d="M189.902 59.8173L193.612 62.136L197.554 59.8173L201.496 62.136L205.438 59.8173" stroke="white" stroke-width="0.579677" stroke-miterlimit="10"/>
<path d="M215.176 57.0349L219.118 59.5855L222.828 57.0349L226.77 59.5855L230.711 57.0349" stroke="white" stroke-width="0.579677" stroke-miterlimit="10"/>
<path d="M215.176 59.5854L219.118 62.136L222.828 59.5854L226.77 62.136L230.711 59.5854" stroke="white" stroke-width="0.579677" stroke-miterlimit="10"/>
</g>
<path d="M124.746 57.2668C124.746 57.2668 122.196 62.8317 124.746 70.7153C127.297 78.5989 133.094 81.1494 137.267 78.8307C141.441 76.512 146.079 64.2229 141.441 58.4261C137.267 52.8612 128.92 52.1656 124.746 57.2668Z" fill="#E897A3"/>
<path d="M136.108 76.9757C136.108 76.9757 136.108 77.6714 135.876 79.0626C135.644 81.6132 135.644 86.0187 136.108 88.5693C136.804 92.0473 135.644 97.6122 129.616 96.6848C123.587 95.7573 118.718 91.3517 120.341 88.8012C121.964 86.2506 123.587 84.1637 125.442 81.1494C127.297 78.1351 128.225 74.8889 128.225 74.8889L136.108 77.9032V76.9757Z" fill="#E897A3"/>
<path d="M134.253 56.5712C134.253 56.5712 132.398 63.0636 128.225 65.6141C124.051 67.9328 124.051 67.9328 124.051 67.9328C124.051 67.9328 122.196 59.5855 125.442 56.3393C128.688 53.0931 137.963 50.7744 141.673 57.0349C144.919 62.8317 143.528 66.3097 143.528 66.3097C143.528 66.3097 138.427 63.991 136.34 60.2811C134.253 56.5712 134.253 56.5712 134.253 56.5712Z" fill="#3844E5"/>
<path d="M211.93 64.9185C211.93 64.9185 210.539 72.3384 214.712 73.2658C218.422 74.1933 219.582 67.9328 219.582 67.9328" stroke="#660000" stroke-width="0.579677" stroke-miterlimit="10" stroke-linejoin="round"/>
<path d="M221.205 134.712C227.001 135.175 232.566 135.639 237.668 136.335" stroke="#660000" stroke-width="0.579677" stroke-miterlimit="10" stroke-linejoin="round"/>
<path d="M44.9829 152.797H77.9086" stroke="#660000" stroke-width="0.579677" stroke-miterlimit="10" stroke-linejoin="round"/>
<path d="M66.5469 144.45H87.879" stroke="#660000" stroke-width="0.579677" stroke-miterlimit="10" stroke-linejoin="round"/>
<path d="M33.8531 152.797H38.0268" stroke="#660000" stroke-width="0.579677" stroke-miterlimit="10" stroke-linejoin="round"/>
<path d="M38.0268 155.348H61.4457" stroke="#660000" stroke-width="0.579677" stroke-miterlimit="10" stroke-linejoin="round"/>
<path d="M86.2559 84.1638L89.9658 89.7287L96.6901 82.3088L86.2559 84.1638Z" fill="#98A2F4"/>
<path d="M217.727 85.7869C216.104 88.1056 213.553 91.1199 210.771 93.4386" stroke="#660000" stroke-width="0.579677" stroke-miterlimit="10" stroke-linejoin="round"/>
<path d="M227.001 53.5568C227.001 53.5568 228.393 64.6866 223.755 76.0483" stroke="#660000" stroke-width="0.579677" stroke-miterlimit="10" stroke-linejoin="round"/>
<path d="M223.987 28.051L221.437 43.1226L233.494 41.7314L223.987 28.051Z" fill="#E2603D"/>
<path d="M227.233 48.4557L224.915 37.5577" stroke="#660000" stroke-width="0.579677" stroke-miterlimit="10" stroke-linejoin="round"/>
<path d="M228.393 40.1083C228.393 40.1083 232.566 51.47 230.248 65.3822" stroke="#660000" stroke-width="0.579677" stroke-miterlimit="10" stroke-linejoin="round"/>
<path d="M71.6481 127.06C71.6481 127.06 68.8656 104.337 81.1548 93.4386" stroke="#660000" stroke-width="0.579677" stroke-miterlimit="10" stroke-linejoin="round"/>
<path d="M86.0241 89.4968C86.0241 89.4968 88.8065 87.1781 89.9659 86.7144" stroke="#660000" stroke-width="0.579677" stroke-miterlimit="10" stroke-linejoin="round"/>
<path d="M78.1404 91.3517C78.1404 91.3517 73.2712 95.7573 70.7206 102.25" stroke="#660000" stroke-width="0.579677" stroke-miterlimit="10" stroke-linejoin="round"/>
<path d="M182.714 154.884C182.714 154.884 175.062 139.813 177.845 127.292" stroke="#660000" stroke-width="0.579677" stroke-miterlimit="10" stroke-linejoin="round"/>
</g>
<defs>
<clipPath id="clip0">
<rect width="378.645" height="212.394" fill="white" transform="translate(0 0.226562)"/>
</clipPath>
</defs>
</svg>
