<svg width="345" height="393" viewBox="0 0 345 393" fill="none" xmlns="http://www.w3.org/2000/svg">
<g clip-path="url(#clip0)">
<path d="M193.894 19.901C176.736 36.8275 180.909 72.3037 110.421 95.4908C61.496 111.49 42.9463 111.722 21.8461 137.923C-15.2532 184.297 -5.05093 291.422 69.1477 306.261C143.346 321.101 154.476 319.246 209.661 352.867C264.847 386.489 324.901 357.273 338.35 315.072C354.349 264.988 331.162 260.119 340.9 152.531C350.639 44.7111 305.656 16.8866 269.948 4.59749C234.935 -7.69167 205.488 8.53929 193.894 19.901Z" fill="#F8F9FF"/>
<path d="M202.705 75.5498C202.705 75.5498 196.445 74.8542 193.198 77.8685C189.952 80.8829 189.72 84.1291 193.198 85.0565C193.894 85.2884 194.821 85.2884 195.749 85.2884C198.531 85.2884 201.546 84.3609 202.705 83.2016C204.328 81.8103 205.256 79.0279 204.792 78.1004C204.328 77.1729 202.705 75.5498 202.705 75.5498Z" fill="#E897A3"/>
<path d="M196.445 84.1292C196.445 84.1292 192.735 91.549 192.039 95.4908C191.344 99.4326 189.257 101.751 190.88 102.679C192.503 103.606 194.358 104.07 197.836 102.215C201.314 100.36 202.937 100.36 202.473 99.4326C202.01 98.5051 198.764 97.8095 198.764 92.9402C198.764 88.071 201.546 84.1292 201.546 84.1292H196.445Z" fill="#E897A3"/>
<path d="M140.1 56.7683C134.303 59.5508 125.26 67.6663 121.087 74.3905C116.449 81.5785 114.362 94.3314 118.304 102.215C122.246 110.099 123.869 109.403 123.869 109.403L138.477 96.4182C138.477 96.4182 132.68 92.7083 134.535 83.8972C136.39 75.0861 139.636 69.7531 141.955 67.4344C144.969 64.6519 149.375 63.0289 151.694 62.1014C154.012 61.1739 153.085 60.0145 151.462 60.0145C149.839 60.0145 147.984 60.4783 148.911 59.3189C149.839 58.1596 152.157 58.1596 151.462 57.464C150.766 56.7683 146.824 58.1596 145.665 57.9277C144.274 57.464 147.056 56.7683 147.52 55.8409C148.216 53.9859 142.651 55.609 140.1 56.7683Z" fill="#E897A3"/>
<path d="M155.404 172.008C155.404 172.008 113.435 181.283 98.8271 187.775C83.5236 194.268 77.495 199.601 80.0456 208.412C82.5961 217.223 96.7403 237.859 96.7403 237.859L117.609 227.889C117.609 227.889 105.783 212.122 107.638 210.267C111.348 206.325 138.245 201.919 148.447 200.76C158.65 199.601 175.576 200.76 175.576 200.76L155.404 172.008Z" fill="#E897A3"/>
<path d="M181.373 204.702C181.373 204.702 191.575 232.526 203.633 244.584C215.69 256.641 222.646 264.988 227.284 272.176C231.689 279.132 234.24 284.465 234.24 284.465L255.572 276.814C255.572 276.814 251.862 268.93 245.138 261.047C234.935 249.221 230.066 247.83 223.806 235.077C217.777 222.324 212.676 208.876 212.676 208.876L181.373 204.702Z" fill="#E897A3"/>
<path d="M88.161 242.033L127.347 221.628C127.347 221.628 138.477 253.163 143.346 263.365C148.447 273.336 154.012 280.292 157.722 282.61C163.751 286.552 166.765 296.986 166.765 296.986L164.446 303.479C164.446 303.479 161.432 301.16 161.432 303.479C161.432 305.798 164.215 320.637 162.128 327.593C160.273 334.781 157.954 336.404 156.795 331.999C155.635 327.593 156.795 327.13 150.534 320.869C144.274 314.377 137.781 300.928 131.985 294.436C126.188 287.943 116.449 280.06 109.493 270.785C102.537 261.51 88.161 242.033 88.161 242.033Z" fill="#9AF4DC"/>
<path d="M221.487 288.871L261.6 274.495C261.6 274.495 269.02 287.248 273.657 308.58C278.295 329.912 279.222 346.607 276.44 359.36C273.658 372.113 272.498 379.764 272.034 381.619C271.571 383.474 271.571 384.402 271.571 384.402L264.615 386.489L263.455 381.619C263.455 381.619 260.673 383.011 255.34 386.489C250.007 389.967 241.891 393.908 239.109 392.285C236.326 390.662 244.442 387.416 245.601 373.04C250.007 325.97 221.487 288.871 221.487 288.871Z" fill="#9AF4DC"/>
<path d="M139.173 95.4907C139.173 95.4907 147.288 102.215 155.635 102.447C174.417 103.374 190.88 98.2732 190.88 98.2732L175.344 120.765C175.344 120.765 160.505 124.475 147.056 122.156C129.666 119.142 122.478 109.403 122.478 109.403L139.173 95.4907Z" fill="#E2603D"/>
<path d="M203.633 76.0137C205.488 77.173 205.72 77.4049 208.038 83.8973C210.357 90.3897 210.821 94.5633 217.081 98.0414C223.342 101.519 230.762 102.215 230.762 102.215L224.733 109.171C224.733 109.171 207.575 101.056 201.778 99.8964C198.3 99.2007 196.677 95.2589 197.836 91.549C198.995 87.8391 199.691 83.4335 200.155 82.506C200.618 81.5786 200.387 79.7236 200.387 79.7236L202.705 75.5499C202.705 75.5499 203.401 76.0137 203.633 76.0137Z" fill="#3844E5"/>
<path d="M205.488 127.025C205.488 127.025 208.27 150.444 222.646 162.038C244.906 179.66 269.02 174.095 269.02 174.095" stroke="#9ECBE3" stroke-width="2.31871" stroke-miterlimit="10"/>
<path d="M273.194 169.458C273.194 169.458 292.903 169.458 301.018 178.964C309.134 188.239 308.902 196.818 301.018 202.615C293.135 208.412 278.527 211.426 254.412 209.107C242.819 207.948 232.153 201.919 232.153 201.919C232.153 201.919 257.427 204.702 269.948 194.5C285.715 181.515 273.194 169.458 273.194 169.458Z" fill="#9ECBE3"/>
<path d="M250.702 162.038L260.905 199.369C260.905 199.369 269.948 197.746 275.976 187.544C282.7 175.95 278.759 168.298 278.759 168.298L277.831 154.386L250.702 162.038Z" fill="#98A2F4"/>
<path d="M204.096 78.3323C204.096 78.3323 209.197 87.1434 218.472 89.4621C226.356 91.5489 231.921 87.6071 231.921 87.6071" stroke="#0012BF" stroke-width="2.31871" stroke-miterlimit="10"/>
<path d="M208.038 86.2159C208.038 86.2159 213.603 95.7226 220.791 97.1139C227.052 98.2732 230.762 97.1139 230.762 97.1139" stroke="#0012BF" stroke-width="2.31871" stroke-miterlimit="10"/>
<path d="M267.861 57.4639L274.353 54.9133L281.309 66.5069L275.281 69.5212L267.861 57.4639Z" fill="#45A0D4"/>
<path d="M86.7699 291.422C86.3061 293.277 86.538 292.813 89.5523 292.813C93.0304 292.813 143.81 293.74 144.738 293.045C145.665 292.349 138.477 291.422 136.854 290.03C135.231 288.639 133.144 283.074 129.666 283.306C126.188 283.538 124.101 286.784 124.101 286.784C124.101 286.784 124.333 278.669 118.768 277.973C113.203 277.278 112.276 283.306 112.276 283.306C112.276 283.306 109.261 280.292 106.479 282.379C103.696 284.465 104.392 286.784 104.392 286.784C104.392 286.784 97.204 283.77 94.8853 286.32C93.4941 287.944 94.4216 289.335 94.4216 289.335C94.4216 289.335 87.4655 288.407 86.7699 291.422Z" fill="white"/>
<path d="M261.136 315.072H316.554C316.554 315.072 305.424 313.913 301.482 311.826C297.54 309.739 289.425 310.435 286.179 310.435C282.932 310.435 279.918 305.566 276.672 306.261C273.426 307.189 271.571 309.971 271.571 309.971C271.571 309.971 271.339 304.406 268.324 307.189C265.31 309.971 261.136 315.072 261.136 315.072Z" fill="white"/>
<path d="M220.559 152.995C220.327 152.531 220.095 152.299 219.863 152.067C218.008 149.517 216.617 147.43 215.69 146.27C214.067 146.966 209.429 148.821 203.401 149.748C203.401 153.69 203.864 157.864 204.792 162.269C205.024 163.429 205.255 164.588 205.719 165.979C209.429 165.979 213.835 165.748 216.617 165.052C221.023 163.893 227.051 162.038 229.37 161.342C227.747 159.951 224.501 157.864 220.559 152.995Z" fill="#E897A3"/>
<path d="M250.934 130.735C241.427 119.373 228.906 111.49 220.791 106.852C212.212 101.983 201.778 99.6644 201.778 99.6644C201.778 99.6644 197.836 101.983 193.43 102.447C189.025 102.911 191.112 98.2732 191.112 98.2732C191.112 98.2732 186.938 102.679 182.532 106.157C178.359 109.635 168.156 131.199 164.91 142.792C161.664 154.386 163.055 162.038 161.664 168.994C161.664 169.226 159.577 169.458 157.49 169.458C155.403 169.458 153.085 168.994 153.085 168.994C153.085 168.994 168.852 196.586 182.069 207.716C195.285 219.078 218.704 209.571 218.704 209.571C218.704 209.571 210.357 186.384 205.488 165.516C202.241 165.516 199.459 165.516 197.836 165.284C195.285 165.052 194.126 162.733 194.59 162.038C195.749 160.646 194.358 159.487 193.662 157.864C192.966 155.777 195.517 155.082 194.821 153.922C193.894 152.531 192.966 149.748 196.676 149.98C198.995 149.98 201.082 149.98 203.169 149.517C203.169 133.286 209.197 120.765 209.197 120.765C209.197 120.765 223.805 122.851 230.298 135.373C232.153 138.851 214.53 145.111 214.53 145.111C214.53 145.111 214.762 145.575 215.226 146.27C215.922 147.43 217.313 149.517 219.4 152.067C219.632 152.299 219.863 152.531 220.095 152.995C220.095 152.995 220.095 152.995 220.095 153.227C223.805 158.096 227.283 160.183 228.906 161.11C229.602 161.574 230.066 161.574 230.066 161.574C230.066 161.574 245.601 156.009 251.398 149.749C256.267 144.879 256.267 137.227 250.934 130.735Z" fill="#E2603D"/>
<path d="M203.401 149.517C201.314 149.748 199.227 149.98 196.908 149.98C193.198 149.98 194.126 152.531 195.053 153.922C195.749 155.082 193.198 155.777 193.894 157.864C194.358 159.487 195.749 160.646 194.821 162.038C194.126 162.733 195.517 165.052 198.068 165.284C199.459 165.516 202.473 165.516 205.719 165.516C205.487 164.356 205.256 162.965 204.792 161.806C203.864 157.864 203.401 153.69 203.401 149.517Z" fill="#E897A3"/>
<path d="M209.893 248.989C209.893 248.989 215.226 245.047 220.095 252.699C224.965 260.351 225.66 266.148 222.646 264.525C218.472 262.206 215.226 257.8 211.98 253.858C208.734 249.917 209.893 248.989 209.893 248.989Z" fill="#FDA48E"/>
<path d="M84.451 200.296C84.6829 199.369 85.6104 196.354 83.5235 196.354C79.8136 199.833 78.6542 203.542 80.0455 208.18C80.5092 210.035 81.6686 212.354 82.8279 214.904C83.5235 214.904 83.9873 213.049 83.9873 212.354C83.0598 205.861 82.596 205.861 84.451 200.296Z" fill="#FDA48E"/>
<path d="M215.226 258.496C215.226 258.496 217.081 260.583 218.936 259.423C220.791 258.032 219.864 255.714 219.864 255.714" stroke="white" stroke-width="0.579677" stroke-miterlimit="10"/>
<path d="M77.7268 203.774C77.7268 203.774 76.5675 206.789 79.5818 206.557C82.5961 206.325 83.9874 204.702 83.9874 204.702" stroke="white" stroke-width="0.579677" stroke-miterlimit="10"/>
<path d="M171.171 159.719C171.171 159.719 173.258 165.979 168.156 167.603C163.751 168.994 160.968 168.762 160.968 168.762" stroke="white" stroke-width="0.579677" stroke-miterlimit="10"/>
<path d="M178.591 111.49C178.591 111.49 175.112 111.026 174.881 113.809C174.881 116.591 177.431 117.055 177.431 117.055" stroke="white" stroke-width="0.579677" stroke-miterlimit="10"/>
<path d="M191.111 114.272C191.111 114.272 187.633 113.577 187.17 116.359C186.706 119.837 191.807 119.605 191.807 119.605" stroke="white" stroke-width="0.579677" stroke-miterlimit="10"/>
<mask id="mask0" mask-type="alpha" maskUnits="userSpaceOnUse" x="153" y="98" width="102" height="116">
<path d="M250.934 130.735C241.427 119.373 228.906 111.49 220.791 106.852C212.212 101.983 201.778 99.6644 201.778 99.6644C201.778 99.6644 197.836 101.983 193.43 102.447C189.025 102.911 191.112 98.2732 191.112 98.2732C191.112 98.2732 186.938 102.679 182.532 106.157C178.359 109.635 168.156 131.199 164.91 142.792C161.664 154.386 163.055 162.038 161.664 168.994C161.664 169.226 159.577 169.458 157.49 169.458C155.403 169.458 153.085 168.994 153.085 168.994C153.085 168.994 168.852 196.586 182.069 207.716C195.285 219.078 218.704 209.571 218.704 209.571C218.704 209.571 210.357 186.384 205.488 165.516C202.241 165.516 199.459 165.516 197.836 165.284C195.285 165.052 194.126 162.733 194.59 162.038C195.749 160.646 194.358 159.487 193.662 157.864C192.966 155.777 195.517 155.082 194.821 153.922C193.894 152.531 192.966 149.748 196.676 149.98C198.995 149.98 201.082 149.98 203.169 149.517C203.169 133.286 209.197 120.765 209.197 120.765C209.197 120.765 223.805 122.851 230.298 135.373C232.153 138.851 214.53 145.111 214.53 145.111C214.53 145.111 214.762 145.575 215.226 146.27C215.922 147.43 217.313 149.517 219.4 152.067C219.632 152.299 219.863 152.531 220.095 152.995C220.095 152.995 220.095 152.995 220.095 153.227C223.805 158.096 227.283 160.183 228.906 161.11C229.602 161.574 230.066 161.574 230.066 161.574C230.066 161.574 245.601 156.009 251.398 149.749C256.267 144.879 256.267 137.227 250.934 130.735Z" fill="#E2603D"/>
</mask>
<g mask="url(#mask0)">
<path d="M152.853 165.052L147.984 164.125L148.911 159.255L152.853 165.052Z" stroke="white" stroke-width="0.579677" stroke-miterlimit="10"/>
<path d="M155.635 150.444L150.766 149.517L151.693 144.879L155.635 150.444Z" stroke="white" stroke-width="0.579677" stroke-miterlimit="10"/>
<path d="M158.418 136.068L153.549 135.141L154.476 130.503L158.418 136.068Z" stroke="white" stroke-width="0.579677" stroke-miterlimit="10"/>
<path d="M161.2 121.692L156.331 120.765L157.258 115.895L161.2 121.692Z" stroke="white" stroke-width="0.579677" stroke-miterlimit="10"/>
<path d="M163.983 107.084L159.113 106.157L160.041 101.519L163.983 107.084Z" stroke="white" stroke-width="0.579677" stroke-miterlimit="10"/>
<path d="M157.49 210.962L152.853 210.035L153.78 205.166L157.49 210.962Z" stroke="white" stroke-width="0.579677" stroke-miterlimit="10"/>
<path d="M160.273 196.355L155.635 195.427L156.563 190.79L160.273 196.355Z" stroke="white" stroke-width="0.579677" stroke-miterlimit="10"/>
<path d="M163.055 181.979L158.418 181.051L159.345 176.182L163.055 181.979Z" stroke="white" stroke-width="0.579677" stroke-miterlimit="10"/>
<path d="M165.837 167.603L161.2 166.675L162.128 161.806L165.837 167.603Z" stroke="white" stroke-width="0.579677" stroke-miterlimit="10"/>
<path d="M168.62 152.995L163.983 152.067L164.91 147.43L168.62 152.995Z" stroke="white" stroke-width="0.579677" stroke-miterlimit="10"/>
<path d="M171.403 138.619L166.765 137.691L167.693 132.822L171.403 138.619Z" stroke="white" stroke-width="0.579677" stroke-miterlimit="10"/>
<path d="M174.185 124.243L169.547 123.315L170.475 118.446L174.185 124.243Z" stroke="white" stroke-width="0.579677" stroke-miterlimit="10"/>
<path d="M176.967 109.635L172.33 108.707L173.258 104.07L176.967 109.635Z" stroke="white" stroke-width="0.579677" stroke-miterlimit="10"/>
<path d="M170.707 213.281L165.838 212.585L166.765 207.716L170.707 213.281Z" stroke="white" stroke-width="0.579677" stroke-miterlimit="10"/>
<path d="M173.489 198.905L168.62 197.978L169.548 193.34L173.489 198.905Z" stroke="white" stroke-width="0.579677" stroke-miterlimit="10"/>
<path d="M176.272 184.529L171.402 183.602L172.33 178.732L176.272 184.529Z" stroke="white" stroke-width="0.579677" stroke-miterlimit="10"/>
<path d="M179.054 169.921L174.185 168.994L175.112 164.356L179.054 169.921Z" stroke="white" stroke-width="0.579677" stroke-miterlimit="10"/>
<path d="M181.837 155.545L176.967 154.618L177.895 149.98L181.837 155.545Z" stroke="white" stroke-width="0.579677" stroke-miterlimit="10"/>
<path d="M184.619 141.169L179.75 140.242L180.677 135.373L184.619 141.169Z" stroke="white" stroke-width="0.579677" stroke-miterlimit="10"/>
<path d="M187.402 126.561L182.532 125.634L183.46 120.997L187.402 126.561Z" stroke="white" stroke-width="0.579677" stroke-miterlimit="10"/>
<path d="M190.184 112.185L185.315 111.258L186.242 106.621L190.184 112.185Z" stroke="white" stroke-width="0.579677" stroke-miterlimit="10"/>
<path d="M183.692 215.832L179.054 214.904L179.982 210.267L183.692 215.832Z" stroke="white" stroke-width="0.579677" stroke-miterlimit="10"/>
<path d="M186.474 201.456L181.837 200.528L182.764 195.891L186.474 201.456Z" stroke="white" stroke-width="0.579677" stroke-miterlimit="10"/>
<path d="M189.256 187.08L184.619 186.152L185.547 181.283L189.256 187.08Z" stroke="white" stroke-width="0.579677" stroke-miterlimit="10"/>
<path d="M192.039 172.472L187.402 171.544L188.329 166.907L192.039 172.472Z" stroke="white" stroke-width="0.579677" stroke-miterlimit="10"/>
<path d="M194.821 158.096L190.184 157.168L191.111 152.531L194.821 158.096Z" stroke="white" stroke-width="0.579677" stroke-miterlimit="10"/>
<path d="M197.604 143.72L192.967 142.792L193.894 137.923L197.604 143.72Z" stroke="white" stroke-width="0.579677" stroke-miterlimit="10"/>
<path d="M200.386 129.112L195.749 128.185L196.676 123.547L200.386 129.112Z" stroke="white" stroke-width="0.579677" stroke-miterlimit="10"/>
<path d="M203.169 114.736L198.531 113.808L199.459 108.939L203.169 114.736Z" stroke="white" stroke-width="0.579677" stroke-miterlimit="10"/>
<path d="M205.951 100.36L201.314 99.4325L202.241 94.5632L205.951 100.36Z" stroke="white" stroke-width="0.579677" stroke-miterlimit="10"/>
<path d="M196.908 218.382L192.039 217.455L192.967 212.817L196.908 218.382Z" stroke="white" stroke-width="0.579677" stroke-miterlimit="10"/>
<path d="M199.691 204.006L194.821 203.079L195.749 198.209L199.691 204.006Z" stroke="white" stroke-width="0.579677" stroke-miterlimit="10"/>
<path d="M202.473 189.398L197.604 188.703L198.531 183.833L202.473 189.398Z" stroke="white" stroke-width="0.579677" stroke-miterlimit="10"/>
<path d="M205.256 175.022L200.386 174.095L201.314 169.458L205.256 175.022Z" stroke="white" stroke-width="0.579677" stroke-miterlimit="10"/>
<path d="M208.038 160.646L203.169 159.719L204.096 154.85L208.038 160.646Z" stroke="white" stroke-width="0.579677" stroke-miterlimit="10"/>
<path d="M210.821 146.039L205.951 145.111L206.879 140.474L210.821 146.039Z" stroke="white" stroke-width="0.579677" stroke-miterlimit="10"/>
<path d="M213.603 131.663L208.734 130.735L209.661 126.098L213.603 131.663Z" stroke="white" stroke-width="0.579677" stroke-miterlimit="10"/>
<path d="M216.386 117.287L211.516 116.359L212.444 111.49L216.386 117.287Z" stroke="white" stroke-width="0.579677" stroke-miterlimit="10"/>
<path d="M219.168 102.679L214.299 101.751L215.226 97.1139L219.168 102.679Z" stroke="white" stroke-width="0.579677" stroke-miterlimit="10"/>
<path d="M212.676 206.557L208.038 205.629L208.966 200.76L212.676 206.557Z" stroke="white" stroke-width="0.579677" stroke-miterlimit="10"/>
<path d="M215.458 191.949L210.821 191.022L211.748 186.384L215.458 191.949Z" stroke="white" stroke-width="0.579677" stroke-miterlimit="10"/>
<path d="M218.24 177.573L213.603 176.645L214.53 172.008L218.24 177.573Z" stroke="white" stroke-width="0.579677" stroke-miterlimit="10"/>
<path d="M221.023 163.197L216.385 162.27L217.313 157.4L221.023 163.197Z" stroke="white" stroke-width="0.579677" stroke-miterlimit="10"/>
<path d="M223.805 148.589L219.168 147.662L220.095 143.024L223.805 148.589Z" stroke="white" stroke-width="0.579677" stroke-miterlimit="10"/>
<path d="M226.588 134.213L221.95 133.286L222.878 128.648L226.588 134.213Z" stroke="white" stroke-width="0.579677" stroke-miterlimit="10"/>
<path d="M229.37 119.837L224.733 118.91L225.428 114.04L229.37 119.837Z" stroke="white" stroke-width="0.579677" stroke-miterlimit="10"/>
<path d="M232.153 105.229L227.515 104.302L228.211 99.6644L232.153 105.229Z" stroke="white" stroke-width="0.579677" stroke-miterlimit="10"/>
<path d="M225.892 208.876L221.023 208.18L221.95 203.311L225.892 208.876Z" stroke="white" stroke-width="0.579677" stroke-miterlimit="10"/>
<path d="M228.674 194.5L223.805 193.572L224.733 188.935L228.674 194.5Z" stroke="white" stroke-width="0.579677" stroke-miterlimit="10"/>
<path d="M231.457 180.124L226.588 179.196L227.515 174.327L231.457 180.124Z" stroke="white" stroke-width="0.579677" stroke-miterlimit="10"/>
<path d="M234.239 165.516L229.37 164.82L230.298 159.951L234.239 165.516Z" stroke="white" stroke-width="0.579677" stroke-miterlimit="10"/>
<path d="M237.022 151.14L232.152 150.212L233.08 145.575L237.022 151.14Z" stroke="white" stroke-width="0.579677" stroke-miterlimit="10"/>
<path d="M239.804 136.764L234.935 135.836L235.863 130.967L239.804 136.764Z" stroke="white" stroke-width="0.579677" stroke-miterlimit="10"/>
<path d="M242.355 122.156L237.718 121.46L238.645 116.591L242.355 122.156Z" stroke="white" stroke-width="0.579677" stroke-miterlimit="10"/>
<path d="M245.138 107.78L240.5 106.852L241.428 102.215L245.138 107.78Z" stroke="white" stroke-width="0.579677" stroke-miterlimit="10"/>
<path d="M238.877 211.426L234.239 210.499L235.167 205.861L238.877 211.426Z" stroke="white" stroke-width="0.579677" stroke-miterlimit="10"/>
<path d="M241.659 197.05L237.022 196.123L237.949 191.485L241.659 197.05Z" stroke="white" stroke-width="0.579677" stroke-miterlimit="10"/>
<path d="M244.442 182.674L239.804 181.747L240.732 176.877L244.442 182.674Z" stroke="white" stroke-width="0.579677" stroke-miterlimit="10"/>
<path d="M247.224 168.066L242.587 167.139L243.282 162.501L247.224 168.066Z" stroke="white" stroke-width="0.579677" stroke-miterlimit="10"/>
<path d="M250.007 153.69L245.369 152.763L246.065 148.125L250.007 153.69Z" stroke="white" stroke-width="0.579677" stroke-miterlimit="10"/>
<path d="M252.789 139.314L248.152 138.387L248.847 133.518L252.789 139.314Z" stroke="white" stroke-width="0.579677" stroke-miterlimit="10"/>
<path d="M255.571 124.707L250.702 123.779L251.63 119.142L255.571 124.707Z" stroke="white" stroke-width="0.579677" stroke-miterlimit="10"/>
<path d="M258.354 110.331L253.485 109.403L254.412 104.766L258.354 110.331Z" stroke="white" stroke-width="0.579677" stroke-miterlimit="10"/>
</g>
<mask id="mask1" mask-type="alpha" maskUnits="userSpaceOnUse" x="122" y="95" width="69" height="28">
<path d="M139.173 95.4907C139.173 95.4907 147.288 102.215 155.635 102.447C174.417 103.374 190.88 98.2732 190.88 98.2732L175.344 120.765C175.344 120.765 160.505 124.475 147.056 122.156C129.666 119.142 122.478 109.403 122.478 109.403L139.173 95.4907Z" fill="#E2603D"/>
</mask>
<g mask="url(#mask1)">
<path d="M134.999 116.591L130.13 115.664L131.057 111.026L134.999 116.591Z" stroke="white" stroke-width="0.579677" stroke-miterlimit="10"/>
<path d="M137.781 102.215L132.912 101.287L133.84 96.4182L137.781 102.215Z" stroke="white" stroke-width="0.579677" stroke-miterlimit="10"/>
<path d="M147.984 119.142L143.346 118.214L144.274 113.345L147.984 119.142Z" stroke="white" stroke-width="0.579677" stroke-miterlimit="10"/>
<path d="M150.766 104.766L146.129 103.838L147.056 98.9689L150.766 104.766Z" stroke="white" stroke-width="0.579677" stroke-miterlimit="10"/>
<path d="M161.2 121.692L156.331 120.765L157.259 115.895L161.2 121.692Z" stroke="white" stroke-width="0.579677" stroke-miterlimit="10"/>
<path d="M163.983 107.084L159.113 106.157L160.041 101.519L163.983 107.084Z" stroke="white" stroke-width="0.579677" stroke-miterlimit="10"/>
<path d="M174.185 124.243L169.547 123.315L170.475 118.446L174.185 124.243Z" stroke="white" stroke-width="0.579677" stroke-miterlimit="10"/>
<path d="M176.968 109.635L172.33 108.707L173.258 104.07L176.968 109.635Z" stroke="white" stroke-width="0.579677" stroke-miterlimit="10"/>
<path d="M179.75 95.2589L175.113 94.3314L176.04 89.4622L179.75 95.2589Z" stroke="white" stroke-width="0.579677" stroke-miterlimit="10"/>
<path d="M187.402 126.561L182.532 125.634L183.46 120.997L187.402 126.561Z" stroke="white" stroke-width="0.579677" stroke-miterlimit="10"/>
<path d="M190.184 112.185L185.315 111.258L186.242 106.621L190.184 112.185Z" stroke="white" stroke-width="0.579677" stroke-miterlimit="10"/>
<path d="M192.966 97.8095L188.097 96.882L189.025 92.0127L192.966 97.8095Z" stroke="white" stroke-width="0.579677" stroke-miterlimit="10"/>
</g>
<path d="M191.343 97.3457C187.402 95.9545 169.779 117.75 187.17 152.995C211.748 202.383 244.906 204.702 244.906 204.702" stroke="#9ECBE3" stroke-width="2.31871" stroke-miterlimit="10"/>
<path d="M250.702 162.038L271.107 177.805L268.788 195.427" stroke="#660000" stroke-width="0.579677" stroke-miterlimit="10" stroke-linejoin="round"/>
<path d="M277.831 154.386L266.238 173.863" stroke="#660000" stroke-width="0.579677" stroke-miterlimit="10" stroke-linejoin="round"/>
<path d="M269.948 188.471L272.962 191.485" stroke="#660000" stroke-width="0.579677" stroke-miterlimit="10" stroke-linejoin="round"/>
<path d="M281.773 165.516L268.093 166.675L270.179 189.398L274.353 189.63C274.353 189.63 278.99 182.674 279.686 176.414C280.15 174.791 281.773 165.516 281.773 165.516Z" fill="white"/>
<path d="M268.325 166.675L275.281 175.718L276.904 177.805L270.412 189.398" stroke="#45A0D4" stroke-width="0.579677" stroke-miterlimit="10"/>
<path d="M281.773 165.516L275.281 175.718" stroke="#45A0D4" stroke-width="0.579677" stroke-miterlimit="10"/>
<path d="M275.049 181.051L277.136 185.225" stroke="#45A0D4" stroke-width="0.579677" stroke-miterlimit="10"/>
<path d="M252.326 203.774C252.326 203.774 286.179 209.571 304.033 199.601C315.163 193.34 310.525 187.312 310.525 187.312" stroke="#45A0D4" stroke-width="0.579677" stroke-miterlimit="10"/>
<path d="M169.548 239.483H218.241C218.241 239.483 214.531 238.555 212.444 237.164C210.357 235.773 208.038 232.063 203.865 232.526C199.691 232.99 196.445 235.773 195.053 235.077C193.662 234.381 183.692 232.295 180.446 234.15C177.199 236.004 172.562 236.468 170.939 237.396C169.316 238.323 169.548 239.483 169.548 239.483Z" fill="white"/>
<path d="M286.642 150.908L292.439 136.764L280.382 135.373L286.642 150.908Z" fill="#D63C30"/>
<path d="M277.136 90.3896L287.57 88.9984L288.729 101.751L281.309 103.838L277.136 90.3896Z" fill="#45A0D4"/>
<path d="M267.861 57.464L275.976 61.6377L275.281 69.5213" stroke="#660000" stroke-width="0.579677" stroke-miterlimit="10" stroke-linejoin="round"/>
<path d="M277.136 90.3896L284.555 95.4908L281.541 103.606" stroke="#660000" stroke-width="0.579677" stroke-miterlimit="10" stroke-linejoin="round"/>
<path d="M274.353 54.9133L273.194 60.0145" stroke="#660000" stroke-width="0.579677" stroke-miterlimit="10" stroke-linejoin="round"/>
<path d="M275.744 63.4926L281.309 66.5069" stroke="#660000" stroke-width="0.579677" stroke-miterlimit="10" stroke-linejoin="round"/>
<path d="M283.164 94.0996L287.57 88.9984" stroke="#660000" stroke-width="0.579677" stroke-miterlimit="10" stroke-linejoin="round"/>
<path d="M283.628 98.2732L288.961 101.519" stroke="#660000" stroke-width="0.579677" stroke-miterlimit="10" stroke-linejoin="round"/>
<path d="M138.941 59.7826C139.405 60.0145 141.723 58.6233 142.651 60.2464C143.346 61.8695 140.564 61.8695 138.941 62.797C137.318 63.7244 135.231 63.9563 135.231 63.9563" stroke="#660000" stroke-width="0.579677" stroke-miterlimit="10" stroke-linejoin="round"/>
<path d="M220.095 165.052C230.762 173.631 241.891 176.646 250.702 177.573" stroke="#45A0D4" stroke-width="0.579677" stroke-miterlimit="10"/>
<path d="M121.782 113.809C125.26 117.055 132.68 122.62 145.201 124.707" stroke="#660000" stroke-width="0.579677" stroke-miterlimit="10" stroke-linejoin="round"/>
<path d="M117.377 73.9268C112.507 81.5785 110.421 95.027 114.362 103.374C115.29 105.229 115.985 106.621 116.681 107.78" stroke="#660000" stroke-width="0.579677" stroke-miterlimit="10" stroke-linejoin="round"/>
<path d="M286.642 148.821C289.193 133.054 288.961 117.982 286.179 104.07" stroke="#660000" stroke-width="0.579677" stroke-miterlimit="10" stroke-linejoin="round"/>
<path d="M277.136 79.028C277.599 79.9554 278.063 80.8829 278.527 81.8104C279.454 83.8972 280.382 85.9841 281.077 88.0709" stroke="#660000" stroke-width="0.579677" stroke-miterlimit="10" stroke-linejoin="round"/>
<path d="M202.473 30.5669C227.979 34.5087 249.775 44.9429 265.31 62.1013C268.093 65.1156 270.643 68.3618 272.962 71.8399" stroke="#660000" stroke-width="0.579677" stroke-miterlimit="10" stroke-linejoin="round"/>
<path d="M83.9875 226.266C79.5819 218.382 76.3357 212.354 74.4808 206.093C71.6983 197.05 77.9588 191.717 93.726 184.993C100.914 181.979 114.594 178.037 126.884 175.022" stroke="#660000" stroke-width="0.579677" stroke-miterlimit="10" stroke-linejoin="round"/>
<path d="M130.362 198.905C130.362 198.905 169.548 193.34 184.851 198.905C197.14 203.543 202.473 197.978 202.473 197.978" stroke="#660000" stroke-width="0.579677" stroke-miterlimit="10" stroke-linejoin="round"/>
<path d="M176.04 205.397C176.04 205.397 186.242 233.222 198.3 245.279C210.357 257.337 217.313 265.684 221.95 272.872C222.878 274.495 223.805 276.118 224.733 277.509" stroke="#660000" stroke-width="0.579677" stroke-miterlimit="10" stroke-linejoin="round"/>
<path d="M284.556 124.475L285.019 137.691" stroke="#660000" stroke-width="0.579677" stroke-miterlimit="10" stroke-linejoin="round"/>
<path d="M234.703 30.1031C247.225 35.4362 258.122 42.856 267.397 52.1309C267.861 52.5946 268.325 53.0584 268.557 53.5221" stroke="#660000" stroke-width="0.579677" stroke-miterlimit="10" stroke-linejoin="round"/>
<path d="M229.672 28.31C229.926 27.1858 228.106 25.8171 225.608 25.2529C223.11 24.6887 220.879 25.1426 220.625 26.2668C220.371 27.3909 222.191 28.7596 224.689 29.3239C227.187 29.8881 229.418 29.4342 229.672 28.31Z" stroke="#660000" stroke-width="0.579677" stroke-miterlimit="10" stroke-linejoin="round"/>
<path d="M241.427 373.736C245.601 326.666 217.081 289.335 217.081 289.335" stroke="#660000" stroke-width="0.579677" stroke-miterlimit="10" stroke-linejoin="round"/>
<path d="M158.882 279.364C164.91 283.306 167.925 293.045 167.925 293.045" stroke="#660000" stroke-width="0.579677" stroke-miterlimit="10" stroke-linejoin="round"/>
<path d="M160.968 276.814C163.983 278.901 166.301 282.61 167.925 285.625" stroke="#660000" stroke-width="0.579677" stroke-miterlimit="10" stroke-linejoin="round"/>
</g>
<defs>
<clipPath id="clip0">
<rect width="343.401" height="392.557" fill="white" transform="translate(0.977661 0.191895)"/>
</clipPath>
</defs>
</svg>
