<svg width="308" height="376" viewBox="0 0 308 376" fill="none" xmlns="http://www.w3.org/2000/svg">
<g clip-path="url(#clip0)">
<path d="M104.701 119.638C123.019 108.044 246.374 15.0639 268.634 84.857C279.995 120.333 275.358 143.752 265.851 173.663C255.185 207.053 242.896 241.833 199.304 262.934C171.712 276.15 149.452 317.191 121.164 346.871C92.8757 376.55 41.1685 389.303 9.17036 353.595C-22.8278 317.887 42.7916 278.237 26.0969 255.978C7.54726 231.631 19.3727 173.432 104.701 119.638Z" fill="#F8F9FF"/>
<path d="M62.037 285.889C61.3414 290.062 68.9931 280.556 72.0075 279.396C72.9349 279.165 74.558 279.165 75.2537 279.165C82.2098 278.005 79.6592 274.991 84.9922 273.832C93.1077 272.208 88.2384 275.455 92.4121 276.614C95.6583 277.541 101.455 273.6 105.397 270.817C109.802 246.935 116.99 209.835 120.237 198.937C123.715 187.807 132.526 169.026 137.859 158.592C121.396 185.489 62.5008 283.106 62.037 285.889Z" fill="#E2603D"/>
<path d="M99.832 304.438C99.832 304.438 95.4265 331.567 99.6002 335.277C103.774 338.987 113.281 327.394 117.454 320.438C121.396 313.713 121.86 311.858 121.86 311.858L99.832 304.438Z" fill="#F39684"/>
<path d="M112.585 232.095C108.875 233.254 107.948 236.037 102.151 248.326C96.3541 260.615 87.0792 272.904 93.8035 270.122C100.528 267.339 106.556 264.093 106.788 262.006C107.252 259.687 112.585 232.095 112.585 232.095Z" fill="#F39684"/>
<path d="M172.871 88.5668C168.698 88.1031 164.06 90.1899 165.915 92.0449C167.77 93.8999 171.016 92.5086 173.335 91.3493C175.654 90.1899 174.263 88.7987 172.871 88.5668Z" fill="#3844E5"/>
<path d="M264.692 41.9608C263.301 39.874 263.533 38.7147 261.678 37.7872C258.895 36.6278 259.127 41.0334 256.113 37.5553C252.867 34.0772 249.852 41.2652 249.852 41.2652C249.852 41.2652 249.389 42.6565 248.461 44.7433L269.33 52.1632C269.33 50.3082 269.098 49.1488 269.098 48.2214C267.475 39.6421 266.083 44.0477 264.692 41.9608Z" fill="#E897A3"/>
<path d="M269.098 52.3951L248.229 44.9752C241.737 63.0611 232.694 76.9734 214.144 84.3932C201.623 89.4944 194.899 84.857 153.394 105.957C121.628 121.956 106.788 151.636 106.092 162.997L126.729 168.562C129.048 162.997 139.25 150.013 141.337 151.636C141.337 151.636 139.714 154.65 137.395 159.287C132.294 169.722 123.251 188.271 120.005 199.633C120.932 200.097 121.628 200.329 122.555 200.561C123.019 200.792 123.251 200.792 123.715 201.024C123.946 201.024 124.41 201.256 124.642 201.256C125.57 201.488 126.729 201.72 127.656 201.952C128.584 202.184 129.511 202.184 130.439 202.184C131.366 202.184 132.294 202.184 133.221 202.184C135.076 202.184 137.163 201.952 139.25 201.72C142.264 201.256 145.51 200.329 148.988 199.401C151.307 198.706 153.626 197.778 156.176 196.851C158.727 195.923 161.278 194.764 163.828 193.372C170.552 190.126 177.972 186.184 186.088 181.547C204.406 171.113 216.463 172.504 222.723 171.345C226.897 170.649 231.998 171.345 234.549 167.867C236.868 164.621 238.491 160.911 239.418 158.36C244.983 142.593 250.316 129.376 254.49 117.319C260.055 101.088 264.692 88.5669 268.402 65.6117C269.561 59.3512 269.098 55.4094 269.098 52.3951Z" fill="#E2603D"/>
<path d="M222.724 171.113C216.463 172.272 204.174 170.881 186.088 181.315C177.972 185.953 170.553 189.894 163.828 193.141C161.046 194.3 158.495 195.459 156.177 196.619C153.626 197.546 151.307 198.474 148.989 199.169C145.511 200.329 142.264 201.024 139.25 201.488C137.163 201.72 135.076 201.952 133.221 201.952C132.294 201.952 131.366 201.952 130.439 201.952C129.511 201.952 128.584 201.952 127.657 201.72C126.497 201.488 125.57 201.256 124.642 201.024C124.41 201.024 123.947 200.792 123.715 200.792C123.251 200.792 123.019 200.56 122.555 200.329C121.628 200.097 120.932 199.865 120.005 199.401C116.759 210.067 109.571 247.398 105.165 271.281C102.846 283.338 101.455 291.918 101.455 291.918C101.455 291.918 98.9045 294.7 98.9045 298.41C98.9045 301.888 100.064 308.844 107.716 312.786C115.367 316.728 122.787 311.858 127.425 308.38C132.062 304.902 131.598 298.41 131.598 298.41L149.684 262.702C149.684 262.702 164.06 257.601 181.451 245.312C185.392 242.529 189.334 239.515 193.508 236.037C196.058 233.95 198.377 231.399 200.928 228.617C215.072 212.386 228.057 185.953 234.781 167.403C231.998 170.881 227.129 170.417 222.724 171.113Z" fill="#9AF4DC"/>
<path d="M123.483 200.792C123.019 200.792 122.787 200.56 122.323 200.329C122.787 200.56 123.251 200.792 123.483 200.792Z" fill="#44A1DB"/>
<path d="M100.991 161.606L102.846 162.07L103.078 161.606H100.991Z" fill="#E897A3"/>
<path d="M109.339 176.446C112.585 177.373 113.512 173.663 114.904 172.736C116.295 171.808 116.99 175.982 118.845 175.982C120.7 175.982 120.237 172.736 121.164 172.04C122.324 171.345 122.555 174.359 123.715 174.359C124.874 174.359 124.642 174.359 126.033 169.722C126.033 169.49 126.265 169.026 126.497 168.794L105.861 163.229C105.397 171.345 108.643 176.214 109.339 176.446Z" fill="#E897A3"/>
<path d="M54.3854 298.178C53.4579 297.483 53.2261 296.091 54.1535 295.164L55.081 294.004C55.7766 293.077 57.1679 292.845 58.0954 293.773C59.0228 294.468 59.2547 295.859 58.3272 296.787L57.3997 297.946C56.7041 298.642 55.3129 298.874 54.3854 298.178Z" fill="#D63C30"/>
<path d="M69.457 294.7L68.7614 294.236C67.602 293.309 67.3702 291.686 68.2976 290.526L70.6163 287.512C71.5438 286.353 73.1669 286.121 74.3263 287.048L75.0219 287.512C76.1812 288.439 76.4131 290.063 75.4856 291.222L73.1669 294.236C72.2394 295.396 70.6163 295.627 69.457 294.7Z" fill="#D63C30"/>
<path d="M172.176 93.8999C171.48 94.5955 173.799 94.5955 174.958 94.3636C176.118 94.1318 175.886 93.4362 175.422 92.9724C175.19 92.7406 172.871 93.2043 172.176 93.8999Z" fill="#3844E5"/>
<path d="M120.469 263.397C120.469 263.397 115.599 277.078 117.918 282.875C120.237 288.671 128.352 282.411 132.062 270.354C134.613 261.542 127.425 252.731 120.469 263.397Z" fill="#91E5CD"/>
<path d="M25.8652 329.017L33.9807 316.496" stroke="#660000" stroke-width="0.579677" stroke-miterlimit="10" stroke-linejoin="round"/>
<path d="M103.31 302.352C103.31 302.352 104.701 307.917 111.194 309.076" stroke="#660000" stroke-width="0.579677" stroke-miterlimit="10" stroke-linejoin="round"/>
<path d="M117.222 308.38C117.222 308.38 121.164 308.148 124.874 304.438" stroke="#660000" stroke-width="0.579677" stroke-miterlimit="10" stroke-linejoin="round"/>
<mask id="mask0" mask-type="alpha" maskUnits="userSpaceOnUse" x="106" y="44" width="164" height="159">
<path d="M269.098 52.3951L248.229 44.9752C241.737 63.0611 232.694 76.9734 214.144 84.3932C201.623 89.4944 194.899 84.857 153.394 105.957C121.628 121.956 106.788 151.636 106.092 162.997L126.729 168.562C129.048 162.997 139.25 150.013 141.337 151.636C141.337 151.636 139.714 154.65 137.395 159.287C132.294 169.722 123.251 188.271 120.005 199.633C120.932 200.097 121.628 200.329 122.555 200.561C123.019 200.792 123.251 200.792 123.715 201.024C123.946 201.024 124.41 201.256 124.642 201.256C125.57 201.488 126.729 201.72 127.656 201.952C128.584 202.184 129.511 202.184 130.439 202.184C131.366 202.184 132.294 202.184 133.221 202.184C135.076 202.184 137.163 201.952 139.25 201.72C142.264 201.256 145.51 200.329 148.988 199.401C151.307 198.706 153.626 197.778 156.176 196.851C158.727 195.923 161.278 194.764 163.828 193.372C170.552 190.126 177.972 186.184 186.088 181.547C204.406 171.113 216.463 172.504 222.723 171.345C226.897 170.649 231.998 171.345 234.549 167.867C236.868 164.621 238.491 160.911 239.418 158.36C244.983 142.593 250.316 129.376 254.49 117.319C260.055 101.088 264.692 88.5669 268.402 65.6117C269.561 59.3512 269.098 55.4094 269.098 52.3951Z" fill="#E2603D"/>
</mask>
<g mask="url(#mask0)">
<path d="M238.491 195.459L237.331 189.431L231.766 191.981L234.549 192.213L230.143 201.024L231.766 200.792L232.23 202.184L236.868 193.372L238.491 195.459Z" stroke="white" stroke-width="0.579677" stroke-miterlimit="10" stroke-linejoin="round"/>
<path d="M249.852 172.968L248.693 166.939L243.128 169.722H245.911L241.505 178.533L243.128 178.301L243.824 179.692L248.229 170.881L249.852 172.968Z" stroke="white" stroke-width="0.579677" stroke-miterlimit="10" stroke-linejoin="round"/>
<path d="M261.214 150.476L260.287 144.448L254.49 147.23H257.504L252.867 156.041L254.49 155.809L255.185 157.201L259.591 148.39L261.214 150.476Z" stroke="white" stroke-width="0.579677" stroke-miterlimit="10" stroke-linejoin="round"/>
<path d="M272.576 128.217L271.648 121.956L266.083 124.739H268.866L264.228 133.55L265.851 133.318L266.547 134.709L270.953 125.898L272.576 128.217Z" stroke="white" stroke-width="0.579677" stroke-miterlimit="10" stroke-linejoin="round"/>
<path d="M219.246 201.024L218.086 194.996L212.521 197.546L215.304 197.778L210.666 206.589L212.289 206.125L212.985 207.517L217.391 198.706L219.246 201.024Z" stroke="white" stroke-width="0.579677" stroke-miterlimit="10" stroke-linejoin="round"/>
<path d="M230.607 178.533L229.448 172.504L223.883 175.055L226.665 175.287L222.028 184.098L223.651 183.866L224.347 185.257L228.752 176.446L230.607 178.533Z" stroke="white" stroke-width="0.579677" stroke-miterlimit="10" stroke-linejoin="round"/>
<path d="M241.969 156.041L240.809 150.013L235.244 152.795H238.027L233.621 161.606L235.013 161.374L235.708 162.766L240.114 153.955L241.969 156.041Z" stroke="white" stroke-width="0.579677" stroke-miterlimit="10" stroke-linejoin="round"/>
<path d="M253.33 133.55L252.171 127.521L246.606 130.304H249.389L244.983 139.115L246.374 138.883L247.07 140.274L251.475 131.463L253.33 133.55Z" stroke="white" stroke-width="0.579677" stroke-miterlimit="10" stroke-linejoin="round"/>
<path d="M264.692 111.058L263.533 105.03L257.968 107.812H260.75L256.345 116.623L257.736 116.391L258.432 117.783L262.837 108.972L264.692 111.058Z" stroke="white" stroke-width="0.579677" stroke-miterlimit="10" stroke-linejoin="round"/>
<path d="M276.054 88.7988L274.895 82.5383L269.33 85.3208H272.112L267.707 94.1319L269.098 93.9L269.793 95.2912L274.199 86.4801L276.054 88.7988Z" stroke="white" stroke-width="0.579677" stroke-miterlimit="10" stroke-linejoin="round"/>
<path d="M200.464 204.502L199.305 198.242L193.74 201.024H196.522L192.117 210.067L193.508 209.603L194.204 210.995L198.609 202.184L200.464 204.502Z" stroke="white" stroke-width="0.579677" stroke-miterlimit="10" stroke-linejoin="round"/>
<path d="M211.826 182.011L210.666 175.75L205.101 178.533L207.884 178.765L203.478 187.576L204.869 187.112L205.565 188.503L210.202 179.692L211.826 182.011Z" stroke="white" stroke-width="0.579677" stroke-miterlimit="10" stroke-linejoin="round"/>
<path d="M223.187 159.519L222.028 153.491L216.463 156.041L219.245 156.273L214.84 165.084L216.231 164.852L216.927 166.244L221.564 157.201L223.187 159.519Z" stroke="white" stroke-width="0.579677" stroke-miterlimit="10" stroke-linejoin="round"/>
<path d="M234.549 137.028L233.39 130.999L227.825 133.55L230.607 133.782L226.202 142.593L227.825 142.361L228.288 143.752L232.926 134.941L234.549 137.028Z" stroke="white" stroke-width="0.579677" stroke-miterlimit="10" stroke-linejoin="round"/>
<path d="M245.911 114.536L244.751 108.508L239.186 111.29H241.969L237.563 120.101L239.186 119.869L239.65 121.261L244.288 112.45L245.911 114.536Z" stroke="white" stroke-width="0.579677" stroke-miterlimit="10" stroke-linejoin="round"/>
<path d="M257.272 92.045L256.113 86.0164L250.548 88.7988H253.331L248.925 97.6099L250.548 97.378L251.012 98.7692L255.649 89.9582L257.272 92.045Z" stroke="white" stroke-width="0.579677" stroke-miterlimit="10" stroke-linejoin="round"/>
<path d="M268.634 69.5535L267.475 63.5249L261.91 66.3074H264.692L260.286 75.1184L261.91 74.8866L262.373 76.2778L267.011 67.4667L268.634 69.5535Z" stroke="white" stroke-width="0.579677" stroke-miterlimit="10" stroke-linejoin="round"/>
<path d="M192.349 187.344L191.189 181.315L185.624 184.098H188.407L184.001 192.909L185.624 192.677L186.088 194.068L190.725 185.257L192.349 187.344Z" stroke="white" stroke-width="0.579677" stroke-miterlimit="10" stroke-linejoin="round"/>
<path d="M203.71 165.084L202.551 158.824L196.986 161.606H200L195.363 170.649L196.986 170.185L197.681 171.577L202.087 162.766L203.71 165.084Z" stroke="white" stroke-width="0.579677" stroke-miterlimit="10" stroke-linejoin="round"/>
<path d="M215.072 142.593L214.144 136.332L208.347 139.115L211.362 139.347L206.724 148.158L208.347 147.694L209.043 149.085L213.449 140.274L215.072 142.593Z" stroke="white" stroke-width="0.579677" stroke-miterlimit="10" stroke-linejoin="round"/>
<path d="M226.433 120.101L225.506 114.073L219.941 116.623L222.723 116.855L218.086 125.666L219.709 125.434L220.405 126.826L224.81 117.783L226.433 120.101Z" stroke="white" stroke-width="0.579677" stroke-miterlimit="10" stroke-linejoin="round"/>
<path d="M237.795 97.6099L236.868 91.5813L231.303 94.1319L234.085 94.3637L229.448 103.175L231.071 102.943L231.767 104.334L236.172 95.5231L237.795 97.6099Z" stroke="white" stroke-width="0.579677" stroke-miterlimit="10" stroke-linejoin="round"/>
<path d="M249.389 75.1185L248.229 69.0898L242.665 71.8723H245.447L240.81 80.6834L242.433 80.4515L243.128 81.8427L247.534 73.0316L249.389 75.1185Z" stroke="white" stroke-width="0.579677" stroke-miterlimit="10" stroke-linejoin="round"/>
<path d="M260.75 52.627L259.591 46.5984L254.026 49.3808H256.808L252.171 58.1919L253.794 57.9601L254.49 59.3513L258.895 50.5402L260.75 52.627Z" stroke="white" stroke-width="0.579677" stroke-miterlimit="10" stroke-linejoin="round"/>
<path d="M173.799 190.822L172.64 184.793L167.075 187.576H169.857L165.452 196.387L166.843 196.155L167.538 197.546L171.944 188.735L173.799 190.822Z" stroke="white" stroke-width="0.579677" stroke-miterlimit="10" stroke-linejoin="round"/>
<path d="M185.16 168.331L184.001 162.302L178.436 165.084H181.219L176.813 173.895L178.204 173.664L178.9 175.055L183.305 166.244L185.16 168.331Z" stroke="white" stroke-width="0.579677" stroke-miterlimit="10" stroke-linejoin="round"/>
<path d="M196.522 146.071L195.363 139.81L189.798 142.593H192.58L188.175 151.404L189.566 151.172L190.262 152.563L194.667 143.752L196.522 146.071Z" stroke="white" stroke-width="0.579677" stroke-miterlimit="10" stroke-linejoin="round"/>
<path d="M207.884 123.579L206.724 117.319L201.16 120.101H203.942L199.536 129.144L200.928 128.681L201.623 130.072L206.029 121.261L207.884 123.579Z" stroke="white" stroke-width="0.579677" stroke-miterlimit="10" stroke-linejoin="round"/>
<path d="M219.246 101.088L218.086 95.0593L212.521 97.6099L215.304 97.8418L210.898 106.653L212.289 106.189L212.985 107.58L217.391 98.7693L219.246 101.088Z" stroke="white" stroke-width="0.579677" stroke-miterlimit="10" stroke-linejoin="round"/>
<path d="M230.607 78.5965L229.448 72.5679L223.883 75.1184L226.665 75.3503L222.26 84.1614L223.651 83.9295L224.347 85.3208L228.752 76.2778L230.607 78.5965Z" stroke="white" stroke-width="0.579677" stroke-miterlimit="10" stroke-linejoin="round"/>
<path d="M241.969 56.1051L240.809 50.0764L235.244 52.627L238.027 52.8589L233.621 61.67L235.013 61.4381L235.708 62.8293L240.346 54.0182L241.969 56.1051Z" stroke="white" stroke-width="0.579677" stroke-miterlimit="10" stroke-linejoin="round"/>
<path d="M154.322 196.387L153.162 190.358L147.597 192.909L150.38 193.141L145.974 201.952L147.366 201.72L148.061 203.111L152.467 194.3L154.322 196.387Z" stroke="white" stroke-width="0.579677" stroke-miterlimit="10" stroke-linejoin="round"/>
<path d="M165.683 173.895L164.524 167.867L158.959 170.417L161.742 170.649L157.336 179.46L158.727 179.228L159.423 180.62L164.06 171.808L165.683 173.895Z" stroke="white" stroke-width="0.579677" stroke-miterlimit="10" stroke-linejoin="round"/>
<path d="M177.045 151.404L175.886 145.375L170.321 148.158H173.103L168.698 156.969L170.089 156.737L170.784 158.128L175.422 149.317L177.045 151.404Z" stroke="white" stroke-width="0.579677" stroke-miterlimit="10" stroke-linejoin="round"/>
<path d="M188.407 128.912L187.247 122.884L181.682 125.666H184.465L180.059 134.477L181.682 134.245L182.146 135.637L186.783 126.826L188.407 128.912Z" stroke="white" stroke-width="0.579677" stroke-miterlimit="10" stroke-linejoin="round"/>
<path d="M199.768 106.653L198.609 100.392L193.044 103.175H195.827L191.421 111.986L193.044 111.754L193.508 113.145L198.145 104.334L199.768 106.653Z" stroke="white" stroke-width="0.579677" stroke-miterlimit="10" stroke-linejoin="round"/>
<path d="M211.13 84.1614L209.971 77.9009L204.406 80.6833L207.188 80.9152L202.783 89.7263L204.406 89.2625L204.87 90.6538L209.507 81.8427L211.13 84.1614Z" stroke="white" stroke-width="0.579677" stroke-miterlimit="10" stroke-linejoin="round"/>
<path d="M222.492 61.6699L221.332 55.6412L215.767 58.1918L218.55 58.4237L214.144 67.2348L215.767 66.771L216.231 68.1623L220.869 59.3512L222.492 61.6699Z" stroke="white" stroke-width="0.579677" stroke-miterlimit="10" stroke-linejoin="round"/>
<path d="M233.853 39.1784L232.694 33.1498L227.129 35.7004L230.143 35.9322L225.506 44.7433L227.129 44.5114L227.825 45.9027L232.23 37.0916L233.853 39.1784Z" stroke="white" stroke-width="0.579677" stroke-miterlimit="10" stroke-linejoin="round"/>
<path d="M135.54 199.865L134.613 193.604L129.048 196.387L131.83 196.619L127.193 205.43L128.816 204.966L129.512 206.357L133.917 197.546L135.54 199.865Z" stroke="white" stroke-width="0.579677" stroke-miterlimit="10" stroke-linejoin="round"/>
<path d="M146.902 177.373L145.974 171.345L140.409 173.895L143.192 174.127L138.554 182.938L140.177 182.707L140.873 183.866L145.279 175.055L146.902 177.373Z" stroke="white" stroke-width="0.579677" stroke-miterlimit="10" stroke-linejoin="round"/>
<path d="M158.495 154.882L157.336 148.853L151.771 151.404L154.553 151.636L149.916 160.447L151.539 160.215L152.235 161.606L156.64 152.795L158.495 154.882Z" stroke="white" stroke-width="0.579677" stroke-miterlimit="10" stroke-linejoin="round"/>
<path d="M169.857 132.39L168.698 126.362L163.133 129.144H165.915L161.278 137.955L162.901 137.723L163.597 139.115L168.002 130.304L169.857 132.39Z" stroke="white" stroke-width="0.579677" stroke-miterlimit="10" stroke-linejoin="round"/>
<path d="M181.219 109.899L180.059 103.87L174.494 106.653H177.277L172.871 115.464L174.263 115.232L174.958 116.623L179.364 107.812L181.219 109.899Z" stroke="white" stroke-width="0.579677" stroke-miterlimit="10" stroke-linejoin="round"/>
<path d="M192.58 87.4075L191.421 81.3789L185.856 84.1614H188.639L184.233 92.9724L185.624 92.7406L186.32 94.1318L190.725 85.3207L192.58 87.4075Z" stroke="white" stroke-width="0.579677" stroke-miterlimit="10" stroke-linejoin="round"/>
<path d="M203.942 65.148L202.783 58.8875L197.218 61.6699H200L195.595 70.481L196.986 70.2491L197.682 71.6403L202.087 62.8293L203.942 65.148Z" stroke="white" stroke-width="0.579677" stroke-miterlimit="10" stroke-linejoin="round"/>
<path d="M215.304 42.6565L214.144 36.396L208.579 39.1784L211.362 39.4103L206.956 48.2214L208.347 47.7577L209.043 49.1489L213.449 40.3378L215.304 42.6565Z" stroke="white" stroke-width="0.579677" stroke-miterlimit="10" stroke-linejoin="round"/>
<path d="M116.295 205.198L115.135 199.169L109.571 201.952H112.353L107.948 210.763L109.339 210.531L110.034 211.922L114.44 203.111L116.295 205.198Z" stroke="white" stroke-width="0.579677" stroke-miterlimit="10" stroke-linejoin="round"/>
<path d="M127.657 182.938L126.497 176.678L120.932 179.46H123.715L119.309 188.503L120.7 188.04L121.396 189.431L125.802 180.62L127.657 182.938Z" stroke="white" stroke-width="0.579677" stroke-miterlimit="10" stroke-linejoin="round"/>
<path d="M139.018 160.447L137.859 154.186L132.294 156.969L135.076 157.201L130.671 166.012L132.062 165.548L132.758 166.939L137.163 158.128L139.018 160.447Z" stroke="white" stroke-width="0.579677" stroke-miterlimit="10" stroke-linejoin="round"/>
<path d="M150.38 137.955L149.22 131.927L143.655 134.477L146.438 134.709L142.032 143.52L143.424 143.288L144.119 144.68L148.525 135.637L150.38 137.955Z" stroke="white" stroke-width="0.579677" stroke-miterlimit="10" stroke-linejoin="round"/>
<path d="M161.742 115.464L160.582 109.435L155.017 111.986L157.8 112.218L153.394 121.029L154.785 120.797L155.481 122.188L159.887 113.377L161.742 115.464Z" stroke="white" stroke-width="0.579677" stroke-miterlimit="10" stroke-linejoin="round"/>
<path d="M173.103 92.9725L171.944 86.9438L166.379 89.7263H169.161L164.756 98.5374L166.147 98.3055L166.843 99.6967L171.248 90.8856L173.103 92.9725Z" stroke="white" stroke-width="0.579677" stroke-miterlimit="10" stroke-linejoin="round"/>
<path d="M184.465 70.481L183.306 64.4524L177.741 67.2348H180.523L176.118 76.0459L177.509 75.8141L178.204 77.2053L182.61 68.3942L184.465 70.481Z" stroke="white" stroke-width="0.579677" stroke-miterlimit="10" stroke-linejoin="round"/>
<path d="M195.827 47.9896L194.667 41.9609L189.102 44.7434H191.885L187.479 53.5545L188.87 53.3226L189.566 54.7138L194.203 45.9027L195.827 47.9896Z" stroke="white" stroke-width="0.579677" stroke-miterlimit="10" stroke-linejoin="round"/>
<path d="M108.875 186.185L107.716 180.156L102.151 182.938H104.933L100.528 191.749L102.151 191.518L102.615 192.909L107.252 184.098L108.875 186.185Z" stroke="white" stroke-width="0.579677" stroke-miterlimit="10" stroke-linejoin="round"/>
<path d="M120.237 163.925L119.077 157.664L113.512 160.447H116.295L111.889 169.258L113.512 169.026L113.976 170.417L118.613 161.606L120.237 163.925Z" stroke="white" stroke-width="0.579677" stroke-miterlimit="10" stroke-linejoin="round"/>
<path d="M131.598 141.433L130.439 135.173L124.874 137.955H127.656L123.251 146.998L124.874 146.535L125.57 147.926L129.975 139.115L131.598 141.433Z" stroke="white" stroke-width="0.579677" stroke-miterlimit="10" stroke-linejoin="round"/>
<path d="M142.96 118.942L142.033 112.913L136.236 115.464L139.25 115.696L134.613 124.507L136.236 124.043L136.931 125.434L141.337 116.623L142.96 118.942Z" stroke="white" stroke-width="0.579677" stroke-miterlimit="10" stroke-linejoin="round"/>
<path d="M154.322 96.4505L153.394 90.4219L147.597 92.9724L150.612 93.2043L145.974 102.015L147.597 101.784L148.293 103.175L152.699 94.1318L154.322 96.4505Z" stroke="white" stroke-width="0.579677" stroke-miterlimit="10" stroke-linejoin="round"/>
<path d="M165.683 73.9591L164.756 67.9304L159.191 70.481L161.973 70.7129L157.336 79.524L158.959 79.2921L159.655 80.6833L164.06 71.8722L165.683 73.9591Z" stroke="white" stroke-width="0.579677" stroke-miterlimit="10" stroke-linejoin="round"/>
<path d="M177.277 51.4676L176.117 45.439L170.552 48.2214H173.335L168.698 57.0325L170.321 56.8006L171.016 58.1919L175.422 49.3808L177.277 51.4676Z" stroke="white" stroke-width="0.579677" stroke-miterlimit="10" stroke-linejoin="round"/>
<path d="M112.353 146.766L111.194 140.738L105.629 143.52H108.411L103.774 152.331L105.397 152.099L106.092 153.491L110.498 144.68L112.353 146.766Z" stroke="white" stroke-width="0.579677" stroke-miterlimit="10" stroke-linejoin="round"/>
<path d="M123.715 124.507L122.555 118.246L116.99 121.029H119.773L115.135 129.84L116.758 129.608L117.454 130.999L121.86 122.188L123.715 124.507Z" stroke="white" stroke-width="0.579677" stroke-miterlimit="10" stroke-linejoin="round"/>
<path d="M135.076 102.015L133.917 95.7549L128.352 98.5373L131.135 98.7692L126.729 107.58L128.12 107.117L128.816 108.508L133.221 99.6967L135.076 102.015Z" stroke="white" stroke-width="0.579677" stroke-miterlimit="10" stroke-linejoin="round"/>
<path d="M146.438 79.524L145.279 73.4954L139.714 76.0459L142.496 76.2778L138.091 85.0889L139.482 84.6252L140.178 86.0164L144.583 77.2053L146.438 79.524Z" stroke="white" stroke-width="0.579677" stroke-miterlimit="10" stroke-linejoin="round"/>
<path d="M157.8 57.0325L156.64 51.0039L151.075 53.5545L153.858 53.7864L149.452 62.5974L150.844 62.3656L151.539 63.7568L155.945 54.9457L157.8 57.0325Z" stroke="white" stroke-width="0.579677" stroke-miterlimit="10" stroke-linejoin="round"/>
</g>
<path d="M194.667 79.9877C194.667 79.9877 191.189 81.8427 191.421 87.8713C191.653 93.8999 193.044 97.378 198.145 98.0736C203.942 98.7692 210.898 95.0593 210.434 83.9295C209.971 72.7997 197.45 76.0459 194.667 79.9877Z" fill="#E897A3"/>
<path d="M203.246 76.2777C203.246 76.2777 199.768 90.1899 180.755 93.2043C176.118 93.8999 175.654 85.7844 184.001 84.6251C192.117 83.4657 193.74 77.4371 197.682 76.7414C201.623 76.0458 203.246 76.2777 203.246 76.2777Z" fill="#3844E5"/>
<path d="M204.638 76.2777C204.638 76.2777 202.087 78.1327 205.101 80.6833C209.043 83.9295 209.739 88.335 209.739 88.7988C209.739 89.2625 212.985 84.6251 210.666 81.147C207.652 76.0459 204.638 76.2777 204.638 76.2777Z" fill="#3844E5"/>
<path d="M208.811 73.7271L206.956 70.4809C206.493 69.7853 205.797 69.5534 205.101 70.0172L201.855 71.8722C201.391 72.104 200.464 72.104 200.232 71.6403C198.609 69.7853 197.218 69.0897 196.986 70.0172C196.754 70.9447 196.522 71.8722 196.29 72.3359C196.29 72.5678 195.595 74.6546 195.131 76.9733C194.899 77.6689 195.363 78.3645 196.058 78.5964L210.898 82.5382C211.594 82.7701 212.289 82.3063 212.521 81.6107C213.217 79.292 213.681 77.437 213.681 76.9733C213.681 76.7414 214.144 75.5821 214.376 74.6546C214.608 73.7271 212.985 73.7271 210.666 74.4227C209.739 74.6546 209.043 74.4227 208.811 73.7271Z" fill="#E2B139"/>
<path d="M101.455 313.25C101.455 313.25 99.1363 333.191 103.31 334.35C109.339 335.973 115.831 325.075 115.831 325.075" stroke="#660000" stroke-width="0.579677" stroke-miterlimit="10" stroke-linejoin="round"/>
<path d="M117.222 323.452C117.222 323.452 119.309 320.206 119.773 318.814" stroke="#660000" stroke-width="0.579677" stroke-miterlimit="10" stroke-linejoin="round"/>
<path d="M103.31 313.25L112.585 316.496" stroke="white" stroke-width="0.579677" stroke-miterlimit="10"/>
<path d="M102.846 315.8L111.658 318.583" stroke="white" stroke-width="0.579677" stroke-miterlimit="10"/>
<path d="M106.093 260.151L104.701 265.484" stroke="white" stroke-width="0.579677" stroke-miterlimit="10"/>
<path d="M104.006 261.079L102.383 266.876" stroke="white" stroke-width="0.579677" stroke-miterlimit="10"/>
<path d="M180.987 245.543C184.929 242.761 188.87 239.747 193.044 236.269C195.595 234.182 197.913 231.631 200.464 228.849C193.044 226.066 184.929 236.964 180.987 245.543Z" fill="#91E5CD"/>
<path d="M117.222 270.354C117.222 270.354 119.309 278.701 127.888 273.832" stroke="#660000" stroke-width="0.579677" stroke-miterlimit="10" stroke-linejoin="round"/>
<path d="M232.462 190.358C232.462 190.358 219.941 221.661 208.579 238.819" stroke="#660000" stroke-width="0.579677" stroke-miterlimit="10" stroke-linejoin="round"/>
<path d="M272.344 41.4971C272.344 41.4971 280.228 64.6841 262.837 113.609" stroke="#660000" stroke-width="0.579677" stroke-miterlimit="10" stroke-linejoin="round"/>
<path d="M272.344 97.6099C272.344 97.6099 269.561 108.276 265.851 120.101" stroke="#660000" stroke-width="0.579677" stroke-miterlimit="10" stroke-linejoin="round"/>
<path d="M233.39 61.438C231.071 64.6842 228.752 67.6985 226.202 69.7853" stroke="#660000" stroke-width="0.579677" stroke-miterlimit="10" stroke-linejoin="round"/>
<path d="M257.272 31.2948C257.272 31.2948 248.229 28.2805 244.751 38.9465C241.969 47.2939 240.578 49.8445 235.708 57.9599" stroke="#660000" stroke-width="0.579677" stroke-miterlimit="10" stroke-linejoin="round"/>
<path d="M81.2823 241.602L38.618 310.235" stroke="#660000" stroke-width="0.579677" stroke-miterlimit="10" stroke-linejoin="round"/>
<path d="M112.585 205.43L61.8052 290.758" stroke="#660000" stroke-width="0.579677" stroke-miterlimit="10" stroke-linejoin="round"/>
<path d="M165.451 233.95C163.597 238.587 162.205 242.529 160.814 245.775C154.09 262.934 135.54 298.642 135.54 298.642" stroke="#660000" stroke-width="0.579677" stroke-miterlimit="10" stroke-linejoin="round"/>
<path d="M182.842 193.141C182.842 193.141 177.741 204.27 170.321 221.429" stroke="#660000" stroke-width="0.579677" stroke-miterlimit="10" stroke-linejoin="round"/>
<path d="M260.982 119.638L255.417 135.173" stroke="#660000" stroke-width="0.579677" stroke-miterlimit="10" stroke-linejoin="round"/>
<path d="M107.948 140.738C107.948 140.738 97.9771 156.969 101.919 173.432" stroke="#660000" stroke-width="0.579677" stroke-miterlimit="10" stroke-linejoin="round"/>
<path d="M101.919 143.752C101.919 143.752 98.6725 148.621 97.9769 155.577" stroke="#660000" stroke-width="0.579677" stroke-miterlimit="10" stroke-linejoin="round"/>
<path d="M111.194 237.892L100.991 258.528" stroke="#660000" stroke-width="0.579677" stroke-miterlimit="10" stroke-linejoin="round"/>
<path d="M99.1366 261.774L93.5717 271.977" stroke="#660000" stroke-width="0.579677" stroke-miterlimit="10" stroke-linejoin="round"/>
</g>
<defs>
<clipPath id="clip0">
<rect width="306.997" height="374.935" fill="white" transform="translate(0.127563 0.224121)"/>
</clipPath>
</defs>
</svg>
