<svg width="433" height="232" viewBox="0 0 433 232" fill="none" xmlns="http://www.w3.org/2000/svg">
<g clip-path="url(#clip0)">
<path d="M187.41 19.3983C162.368 16.1521 132.688 -3.78881 95.3571 4.32667C58.0259 12.4421 69.6195 48.8459 42.9543 79.4528C16.2892 110.06 -5.0429 117.016 1.21761 150.637C8.63747 190.751 18.8398 200.721 90.4878 203.04C162.136 205.359 154.484 235.27 224.973 230.633C295.462 225.995 272.043 179.621 352.734 179.621C433.425 179.621 438.99 135.334 427.396 99.1618C415.803 62.99 406.991 53.0195 378.935 21.4851C351.111 -9.81744 269.724 30.5281 187.41 19.3983Z" fill="#F8F9FF"/>
<path d="M272.738 155.506C272.738 155.506 285.491 151.101 301.722 151.565C303.577 151.565 306.823 143.681 319.576 143.449C324.213 143.449 329.778 145.072 329.778 145.072C329.778 145.072 333.488 143.217 335.343 142.29C338.821 140.667 338.589 139.275 342.067 137.884C344.386 136.725 350.879 115.856 344.154 106.35C336.271 95.2199 307.287 75.7428 261.145 83.6264C247 86.177 233.32 90.3506 222.422 92.4375C195.989 97.7705 180.222 105.19 170.019 107.741C151.933 112.378 110.429 142.29 110.429 142.29L126.428 171.274L135.703 176.143L136.63 173.824C136.63 173.824 141.499 163.622 158.194 162.926C174.889 162.231 186.482 165.245 187.41 165.245C188.337 165.245 268.796 156.666 268.796 156.666L272.738 155.506Z" fill="#3844E5"/>
<path d="M182.772 137.884C182.772 137.884 188.569 147.855 192.743 151.565C196.917 155.274 199.699 158.984 209.206 161.767C218.249 164.317 226.596 160.608 229.147 148.782C231.697 136.957 230.538 124.436 230.538 124.436L182.772 137.884Z" fill="#E897A3"/>
<path d="M245.146 124.204C245.146 124.204 198.308 147.391 186.019 159.912C173.729 172.433 167.701 178.462 163.295 179.389C158.89 180.317 150.31 182.867 145.905 185.418C141.963 187.736 142.427 191.446 145.905 192.142C149.383 192.838 153.093 192.142 153.093 192.142C153.093 192.142 149.847 194.461 151.934 196.548C154.02 198.634 163.063 196.548 163.063 196.548C163.063 196.548 163.063 198.866 168.165 199.33C170.947 199.562 175.584 197.939 179.99 196.084C179.99 196.084 181.149 194.461 182.772 193.997C184.859 193.301 188.801 192.606 189.96 192.374C194.598 191.446 197.844 192.374 210.829 184.258C216.394 180.78 220.567 177.302 224.509 175.447C229.842 173.129 234.248 173.36 237.262 173.36C242.363 173.592 242.363 172.201 245.146 170.114C256.275 160.839 270.651 155.738 272.274 155.738C273.898 155.738 245.146 124.204 245.146 124.204Z" fill="#E897A3"/>
<path d="M184.396 140.435C184.396 140.435 177.671 141.594 179.758 144.84C181.845 148.087 186.25 148.087 188.337 148.55C190.424 148.782 191.12 146.463 191.12 146.463L184.396 140.435Z" fill="#E897A3"/>
<path d="M229.61 128.146C229.61 128.146 234.248 122.349 235.871 125.363C237.494 128.378 238.653 130.232 234.711 131.856C230.538 133.479 229.61 134.638 229.61 134.638V129.769V128.146Z" fill="#E897A3"/>
<path d="M178.135 132.087C178.135 132.087 177.207 130.233 176.512 127.218C175.352 122.813 174.425 116.088 176.975 110.06C181.149 99.8574 192.743 93.1332 202.945 93.3651C212.915 93.5969 218.248 95.6838 223.35 101.712C231.001 110.292 232.393 120.03 232.393 120.03L179.526 136.029L178.135 132.087Z" fill="#E2603D"/>
<path d="M287.81 113.306C279.694 114.697 268.101 117.248 254.884 121.421C203.409 137.884 172.57 173.36 172.57 173.36" stroke="#660000" stroke-width="0.579677" stroke-miterlimit="10" stroke-linejoin="round"/>
<path d="M300.563 111.451C300.563 111.451 297.316 111.683 291.52 112.61" stroke="#660000" stroke-width="0.579677" stroke-miterlimit="10" stroke-linejoin="round"/>
<path d="M110.66 142.753C110.66 142.753 84.691 150.869 78.6623 158.057C72.6337 165.245 77.0392 174.056 79.8217 174.288C80.5173 174.288 89.0965 168.027 96.5164 166.636C115.53 162.926 124.109 173.128 129.674 172.201C133.848 171.505 136.166 169.419 135.703 165.941C135.239 161.767 131.993 161.767 131.993 161.767C131.993 161.767 133.616 157.593 131.065 154.347C128.515 151.101 127.587 152.26 127.587 152.26C127.587 152.26 130.833 147.855 126.428 146.927C122.022 146 117.153 147.391 117.153 147.391L110.66 142.753Z" fill="#E897A3"/>
<path d="M113.907 146C113.907 146 110.197 146.463 109.037 148.086C107.646 149.941 107.646 152.26 107.646 152.26" stroke="#660000" stroke-width="0.579677" stroke-miterlimit="10" stroke-linejoin="round"/>
<path d="M98.6033 148.087C98.6033 148.087 103.704 147.623 108.342 149.014" stroke="#660000" stroke-width="0.579677" stroke-miterlimit="10" stroke-linejoin="round"/>
<path d="M216.857 134.406C216.857 134.406 218.944 129.769 223.118 129.537C226.828 129.305 227.292 131.392 226.364 132.783C225.669 133.711 220.104 136.029 216.857 134.406Z" stroke="#660000" stroke-width="0.579677" stroke-miterlimit="10" stroke-linejoin="round"/>
<path d="M201.322 139.044C201.322 139.044 198.54 135.797 193.207 137.884C189.497 139.275 188.337 141.826 189.729 142.522C191.12 143.217 199.003 143.449 201.322 139.044Z" stroke="#660000" stroke-width="0.579677" stroke-miterlimit="10" stroke-linejoin="round"/>
<path d="M224.045 131.624C224.814 131.624 225.437 131.105 225.437 130.464C225.437 129.824 224.814 129.305 224.045 129.305C223.277 129.305 222.654 129.824 222.654 130.464C222.654 131.105 223.277 131.624 224.045 131.624Z" fill="#660000"/>
<path d="M197.612 140.203C198.38 140.203 199.003 139.58 199.003 138.812C199.003 138.043 198.38 137.42 197.612 137.42C196.844 137.42 196.221 138.043 196.221 138.812C196.221 139.58 196.844 140.203 197.612 140.203Z" fill="#660000"/>
<path d="M207.351 137.884L208.742 143.449" stroke="#660000" stroke-width="0.579677" stroke-miterlimit="10" stroke-linejoin="round"/>
<path d="M392.615 147.391C392.615 147.391 391.92 140.899 384.964 140.899C377.08 140.899 376.848 144.145 376.848 144.145C376.848 144.145 371.283 134.406 356.907 134.406C343.459 134.406 335.575 142.753 335.575 142.753" stroke="#660000" stroke-width="0.579677" stroke-miterlimit="10" stroke-linejoin="round"/>
<path d="M346.241 142.522C346.241 142.522 342.531 142.29 337.43 142.522C332.329 142.754 330.01 145.304 330.01 145.304" stroke="#660000" stroke-width="0.579677" stroke-miterlimit="10" stroke-linejoin="round"/>
<path d="M346.241 151.333C346.241 151.333 338.821 150.173 334.648 147.623C330.474 145.072 320.272 141.826 311.924 145.072C303.577 148.318 302.418 151.796 302.418 151.796C302.418 151.796 286.419 150.869 268.796 157.129C256.507 161.303 242.595 172.665 242.595 172.665" stroke="#660000" stroke-width="0.579677" stroke-miterlimit="10" stroke-linejoin="round"/>
<path d="M246.769 176.838C246.769 176.838 237.494 171.042 227.523 174.288C217.553 177.534 208.046 188.432 199.235 190.287C190.192 192.142 183.7 191.91 179.526 196.316C173.266 202.808 160.513 203.04 160.513 203.04" stroke="#660000" stroke-width="0.579677" stroke-miterlimit="10" stroke-linejoin="round"/>
<path d="M181.149 164.549C181.149 164.549 168.86 162.231 156.339 163.854C140.804 165.709 136.862 174.52 136.862 174.52" stroke="#660000" stroke-width="0.579677" stroke-miterlimit="10" stroke-linejoin="round"/>
<path d="M42.7224 176.375C42.7224 176.375 44.8093 176.607 54.7797 176.375C64.7501 176.143 72.17 171.042 77.0393 173.129C83.9954 176.375 88.6328 175.911 88.6328 175.911" stroke="#660000" stroke-width="0.579677" stroke-miterlimit="10" stroke-linejoin="round"/>
<path d="M80.2854 174.288C80.2854 174.288 92.1108 165.245 105.791 165.709C119.472 166.172 139.181 178.925 139.181 178.925" stroke="#660000" stroke-width="0.579677" stroke-miterlimit="10" stroke-linejoin="round"/>
<path d="M120.167 129.305H115.53V139.971H120.167V129.305Z" fill="#660000"/>
<path d="M119.008 129.305H116.689V147.855H119.008V129.305Z" fill="#660000"/>
<path d="M135.935 130.464H99.7627C99.0671 130.464 98.6034 130.001 98.6034 129.305C98.6034 128.609 99.0671 128.146 99.7627 128.146H135.703C136.398 128.146 136.862 128.609 136.862 129.305C136.862 130.001 136.398 130.464 135.935 130.464Z" fill="#660000"/>
<path d="M117.849 88.2639C109.501 88.2639 102.777 96.8431 102.777 107.509V128.378H132.689V107.509C132.92 96.8431 126.196 88.2639 117.849 88.2639Z" fill="#660000"/>
<path d="M256.275 33.7742L258.362 50.7007L298.012 48.6139L291.288 25.6587L256.275 33.7742Z" fill="#F39684"/>
<path d="M256.275 33.7742L273.898 43.049L291.288 25.6587" stroke="#660000" stroke-width="0.579677" stroke-miterlimit="10" stroke-linejoin="round"/>
<path d="M258.362 50.7008L267.173 39.8029" stroke="#660000" stroke-width="0.579677" stroke-miterlimit="10" stroke-linejoin="round"/>
<path d="M279.462 37.2523L298.012 48.614" stroke="#660000" stroke-width="0.579677" stroke-miterlimit="10" stroke-linejoin="round"/>
<path d="M361.777 75.2791V90.1188L397.485 97.5386L400.267 78.7571L361.777 75.2791Z" fill="#F39684"/>
<path d="M400.267 78.7571L376.848 86.4088L361.777 75.2791" stroke="#660000" stroke-width="0.579677" stroke-miterlimit="10" stroke-linejoin="round"/>
<path d="M397.485 97.5387L382.181 84.554" stroke="#660000" stroke-width="0.579677" stroke-miterlimit="10" stroke-linejoin="round"/>
<path d="M372.675 83.1627L361.777 90.1188" stroke="#660000" stroke-width="0.579677" stroke-miterlimit="10" stroke-linejoin="round"/>
<path d="M152.861 57.8888L152.166 69.2505L120.167 63.4537L121.79 46.759L152.861 57.8888Z" fill="#F39684"/>
<path d="M121.79 46.759L132.92 56.9613L137.789 61.5988L152.861 57.8888" stroke="#660000" stroke-width="0.579677" stroke-miterlimit="10" stroke-linejoin="round"/>
<path d="M120.167 63.4537L132.92 56.9613" stroke="#660000" stroke-width="0.579677" stroke-miterlimit="10" stroke-linejoin="round"/>
<path d="M152.166 69.2505L143.354 60.2075" stroke="#660000" stroke-width="0.579677" stroke-miterlimit="10" stroke-linejoin="round"/>
<path d="M176.975 138.812C174.425 145.768 173.729 147.391 175.352 147.623C178.599 147.855 179.99 140.667 205.264 132.319C213.611 129.537 232.393 126.059 237.957 126.059C244.914 126.059 241.899 122.813 238.421 121.653C232.393 119.566 231.001 115.161 231.001 115.161L176.28 126.754C176.28 126.754 178.599 134.406 176.975 138.812Z" fill="#E2603D"/>
<path d="M185.323 140.435C185.323 140.435 189.497 149.942 187.642 151.796C185.787 153.651 181.845 146.695 181.845 146.695" stroke="white" stroke-width="0.579677" stroke-miterlimit="10"/>
<path d="M231.697 126.059L232.625 129.769" stroke="white" stroke-width="0.579677" stroke-miterlimit="10"/>
<path d="M187.41 151.796C187.41 151.796 189.497 153.883 191.815 154.811" stroke="white" stroke-width="0.579677" stroke-miterlimit="10"/>
<path d="M90.256 176.143H93.734" stroke="#660000" stroke-width="0.579677" stroke-miterlimit="10" stroke-linejoin="round"/>
<path d="M248.624 177.998C248.624 177.998 249.783 178.462 251.406 180.317" stroke="#660000" stroke-width="0.579677" stroke-miterlimit="10" stroke-linejoin="round"/>
<path d="M124.341 128.146H131.761" stroke="white" stroke-width="0.579677" stroke-miterlimit="10" stroke-linejoin="round"/>
<path d="M104.168 128.146H121.559" stroke="white" stroke-width="0.579677" stroke-miterlimit="10" stroke-linejoin="round"/>
<path d="M120.167 128.146H115.53V111.683C115.53 111.683 116.921 108.9 117.849 108.9C118.776 108.9 120.167 111.683 120.167 111.683V115.625" stroke="white" stroke-width="0.579677" stroke-miterlimit="10" stroke-linejoin="round"/>
<path d="M120.167 118.639V126.291" stroke="white" stroke-width="0.579677" stroke-miterlimit="10" stroke-linejoin="round"/>
<mask id="mask0" mask-type="alpha" maskUnits="userSpaceOnUse" x="180" y="93" width="48" height="33">
<path d="M183.184 122.828C183.184 122.828 182.43 121.417 181.864 119.124C180.922 115.772 180.168 110.657 182.241 106.07C185.634 98.3086 195.059 93.193 203.353 93.3694C211.458 93.5458 215.793 95.1334 219.94 99.7198C226.161 106.247 227.292 113.655 227.292 113.655L184.315 125.827L183.184 122.828Z" fill="#E2603D"/>
</mask>
<g mask="url(#mask0)">
<path d="M176.744 95.6837L200.163 138.116" stroke="white" stroke-width="0.579677" stroke-miterlimit="10" stroke-linejoin="round"/>
<path d="M180.454 94.0607L203.873 136.493" stroke="white" stroke-width="0.579677" stroke-miterlimit="10" stroke-linejoin="round"/>
<path d="M184.396 92.2057L207.583 134.638" stroke="white" stroke-width="0.579677" stroke-miterlimit="10" stroke-linejoin="round"/>
<path d="M188.105 90.3507L211.524 132.783" stroke="white" stroke-width="0.579677" stroke-miterlimit="10" stroke-linejoin="round"/>
<path d="M191.815 88.4957L215.234 130.928" stroke="white" stroke-width="0.579677" stroke-miterlimit="10" stroke-linejoin="round"/>
<path d="M195.757 86.6407L219.176 129.073" stroke="white" stroke-width="0.579677" stroke-miterlimit="10" stroke-linejoin="round"/>
<path d="M199.467 85.0177L222.886 127.45" stroke="white" stroke-width="0.579677" stroke-miterlimit="10" stroke-linejoin="round"/>
<path d="M203.409 83.1627L226.596 125.595" stroke="white" stroke-width="0.579677" stroke-miterlimit="10" stroke-linejoin="round"/>
<path d="M207.119 81.3077L230.538 123.74" stroke="white" stroke-width="0.579677" stroke-miterlimit="10" stroke-linejoin="round"/>
<path d="M210.829 79.4528L234.248 121.885" stroke="white" stroke-width="0.579677" stroke-miterlimit="10" stroke-linejoin="round"/>
<path d="M192.511 137.884L234.943 114.697" stroke="white" stroke-width="0.579677" stroke-miterlimit="10" stroke-linejoin="round"/>
<path d="M190.888 134.174L233.32 110.755" stroke="white" stroke-width="0.579677" stroke-miterlimit="10" stroke-linejoin="round"/>
<path d="M189.033 130.464L231.465 107.045" stroke="white" stroke-width="0.579677" stroke-miterlimit="10" stroke-linejoin="round"/>
<path d="M187.178 126.523L229.61 103.335" stroke="white" stroke-width="0.579677" stroke-miterlimit="10" stroke-linejoin="round"/>
<path d="M185.323 122.813L227.755 99.3937" stroke="white" stroke-width="0.579677" stroke-miterlimit="10" stroke-linejoin="round"/>
<path d="M183.468 118.871L225.9 95.6837" stroke="white" stroke-width="0.579677" stroke-miterlimit="10" stroke-linejoin="round"/>
<path d="M181.845 115.161L224.277 91.7419" stroke="white" stroke-width="0.579677" stroke-miterlimit="10" stroke-linejoin="round"/>
<path d="M179.99 111.451L222.422 88.032" stroke="white" stroke-width="0.579677" stroke-miterlimit="10" stroke-linejoin="round"/>
<path d="M178.135 107.509L220.567 84.322" stroke="white" stroke-width="0.579677" stroke-miterlimit="10" stroke-linejoin="round"/>
<path d="M176.28 103.799L218.712 80.3802" stroke="white" stroke-width="0.579677" stroke-miterlimit="10" stroke-linejoin="round"/>
</g>
<path d="M153.557 191.91C154.948 190.519 156.107 189.823 157.266 188.896C160.049 187.273 162.136 186.345 162.136 186.345" stroke="#660000" stroke-width="0.579677" stroke-miterlimit="10" stroke-linejoin="round"/>
<path d="M163.063 196.316C163.063 196.316 162.6 193.765 165.846 192.374C167.701 191.446 170.483 190.519 170.483 190.519" stroke="#660000" stroke-width="0.579677" stroke-miterlimit="10" stroke-linejoin="round"/>
<path d="M114.371 147.159C114.371 147.159 116.457 148.782 119.008 147.855" stroke="#660000" stroke-width="0.579677" stroke-miterlimit="10" stroke-linejoin="round"/>
<path d="M336.966 99.1617C336.966 99.1617 341.372 106.582 338.126 113.074C333.952 121.189 331.402 121.189 333.025 125.595C335.343 131.624 345.082 131.16 345.082 131.16C345.082 131.16 346.937 123.276 346.937 117.48C347.169 105.19 336.966 99.1617 336.966 99.1617Z" fill="#98A2F4"/>
<path d="M339.053 117.016C339.053 119.335 343.459 123.74 347.864 118.407" stroke="white" stroke-width="0.579677" stroke-miterlimit="10" stroke-linejoin="round"/>
<path d="M319.808 35.1655C320.04 36.5567 319.344 38.8754 315.402 38.8754C312.852 38.8754 310.997 38.4117 310.765 36.7886C310.533 35.1655 312.62 33.5424 315.402 33.0786C317.721 32.8468 319.576 33.5424 319.808 35.1655Z" stroke="#660000" stroke-width="0.579677" stroke-miterlimit="10" stroke-linejoin="round"/>
<path d="M324.214 33.0786L356.907 28.9049" stroke="#660000" stroke-width="0.579677" stroke-miterlimit="10" stroke-linejoin="round"/>
<path d="M325.373 15.9202L379.167 0.848633" stroke="#660000" stroke-width="0.579677" stroke-miterlimit="10" stroke-linejoin="round"/>
<path d="M317.953 52.5558L363.4 58.5844" stroke="#660000" stroke-width="0.579677" stroke-miterlimit="10" stroke-linejoin="round"/>
<path d="M319.808 71.801L347.864 80.1484" stroke="#660000" stroke-width="0.579677" stroke-miterlimit="10" stroke-linejoin="round"/>
<path d="M312.156 8.50037L327.923 0.848633" stroke="#660000" stroke-width="0.579677" stroke-miterlimit="10" stroke-linejoin="round"/>
<path d="M364.791 99.1617L397.253 108.668" stroke="#660000" stroke-width="0.579677" stroke-miterlimit="10" stroke-linejoin="round"/>
<path d="M36.6938 15.9202L93.0384 34.238" stroke="#660000" stroke-width="0.579677" stroke-miterlimit="10" stroke-linejoin="round"/>
<path d="M108.342 18.4707L141.035 33.0786" stroke="#660000" stroke-width="0.579677" stroke-miterlimit="10" stroke-linejoin="round"/>
<path d="M49.9104 45.1359L80.7492 50.7008" stroke="#660000" stroke-width="0.579677" stroke-miterlimit="10" stroke-linejoin="round"/>
<path d="M103.473 15.9201L95.3571 12.2102" stroke="#660000" stroke-width="0.579677" stroke-miterlimit="10" stroke-linejoin="round"/>
<path d="M35.9982 68.5548L67.5326 70.6417" stroke="#660000" stroke-width="0.579677" stroke-miterlimit="10" stroke-linejoin="round"/>
<path d="M73.5612 70.6416L115.994 72.9603" stroke="#660000" stroke-width="0.579677" stroke-miterlimit="10" stroke-linejoin="round"/>
<path d="M37.1575 120.03L75.4161 110.06" stroke="#660000" stroke-width="0.579677" stroke-miterlimit="10" stroke-linejoin="round"/>
<path d="M34.3751 38.8754C34.3751 40.4985 32.2882 43.0491 31.1289 44.2084C29.9695 45.3678 28.1146 46.759 26.2596 46.759C22.5497 46.759 18.8397 44.4403 18.8397 40.9622C18.8397 38.1798 20.4628 37.716 21.3903 36.5567C22.5497 35.1655 25.1002 34.9336 27.1871 34.9336C30.6651 34.9336 34.3751 35.3973 34.3751 38.8754Z" stroke="#660000" stroke-width="0.579677" stroke-miterlimit="10" stroke-linejoin="round"/>
<path d="M279.231 62.9899L290.824 72.9604L295.925 61.8306L279.231 62.9899Z" fill="#D63C30"/>
<path d="M298.476 70.6416L287.81 67.1636" stroke="#660000" stroke-width="0.579677" stroke-miterlimit="10" stroke-linejoin="round"/>
<path d="M303.809 68.5548L291.056 64.8448" stroke="#660000" stroke-width="0.579677" stroke-miterlimit="10" stroke-linejoin="round"/>
<path d="M78.1985 104.031L81.4447 113.538L94.4294 105.19L78.1985 104.031Z" fill="#45A0D4"/>
</g>
<defs>
<clipPath id="clip0">
<rect width="432.207" height="230.48" fill="white" transform="translate(0.0582275 0.616699)"/>
</clipPath>
</defs>
</svg>
