<svg width="356" height="411" viewBox="0 0 356 411" fill="none" xmlns="http://www.w3.org/2000/svg">
<g clip-path="url(#clip0)">
<path d="M282.589 24.3464C167.813 6.95612 185.667 103.182 117.497 169.034C66.9496 217.727 29.8503 226.538 12.9238 267.579C-30.4361 373.544 50.0231 411.802 161.089 410.411C272.155 409.02 388.786 361.255 346.586 249.957C301.371 130.775 339.862 192.453 350.759 99.7044C357.947 36.1718 309.718 28.5201 282.589 24.3464Z" fill="#F8F9FF"/>
<path d="M167.118 188.047C166.654 185.729 165.726 182.946 165.263 180.164C164.799 176.917 164.335 166.715 164.103 163.237V162.773C164.103 162.773 138.134 168.802 128.627 168.802C119.12 168.802 115.874 169.498 113.092 167.179C110.309 164.86 110.773 164.86 109.846 162.541C109.382 161.382 108.918 160.686 109.15 159.063C109.15 156.281 110.773 154.658 109.15 154.658C107.527 154.658 106.831 154.658 105.44 156.745C104.049 158.832 105.208 161.382 102.889 160.455C100.571 159.527 96.397 159.063 93.3827 157.44C90.6002 155.585 88.2815 154.89 87.8178 156.281C87.3541 157.672 88.7453 158.368 88.9771 159.295C89.4409 160.686 89.6728 161.614 87.8178 162.31C87.1222 162.541 83.876 161.614 83.1804 163.237C82.4848 164.86 84.1079 166.251 84.8035 166.715C85.4991 167.179 85.731 168.802 85.0353 169.266C84.3397 169.729 82.4848 169.034 82.7166 171.121C82.7166 172.512 84.8035 172.744 85.0353 173.671C85.731 175.526 84.5716 174.599 84.1079 175.758C83.6441 176.917 84.8035 178.772 86.4266 178.541C88.2815 178.309 91.064 177.381 94.3102 180.164C97.3245 182.946 103.353 184.337 107.295 184.569C111.237 184.801 126.076 190.366 136.511 191.757C146.945 193.148 167.813 194.308 167.813 194.308C167.813 194.308 167.581 193.38 167.349 191.062L167.118 188.047Z" fill="#E897A3"/>
<path d="M264.967 137.499C264.04 137.267 262.88 136.572 261.721 135.876C256.852 132.862 251.055 127.297 251.055 127.297C251.055 127.297 240.389 135.181 235.288 137.267C231.346 138.891 221.607 144.224 218.129 146.31C218.129 146.31 219.984 146.079 220.912 147.006C224.39 150.948 222.535 159.759 219.984 162.078C219.521 162.541 219.057 163.005 218.361 163.237C215.811 164.86 211.869 165.788 207.695 163.701C207.695 163.701 207.463 163.701 207.463 163.469C206.304 163.005 205.376 162.078 204.681 161.15C202.13 158.136 202.362 154.658 202.594 153.73C203.29 151.875 204.449 150.948 205.608 150.02C201.203 151.412 187.986 156.513 177.784 159.063C172.914 160.223 164.103 161.846 164.103 161.846C164.103 161.846 164.103 162.309 164.103 163.005C164.335 166.483 164.799 176.685 165.263 179.932C165.726 182.714 166.654 185.497 167.118 187.815C167.35 188.743 167.35 189.67 167.35 190.366C167.35 190.598 167.35 190.598 167.35 190.83L167.813 194.076C167.813 194.076 179.871 194.308 182.189 198.018C184.276 201.728 183.349 211.466 180.566 216.335C177.784 221.437 174.538 226.306 174.538 226.306C174.538 226.306 216.97 233.726 226.245 234.653C253.374 237.436 261.489 230.479 261.489 230.479C261.489 230.479 266.59 214.48 267.518 203.582C268.445 192.685 269.141 169.497 269.141 169.497C269.141 169.497 273.083 163.005 275.633 158.6C278.184 154.194 280.966 147.702 280.966 147.702C280.966 147.702 269.605 138.891 264.967 137.499Z" fill="#3844E5"/>
<path d="M167.813 194.308L167.35 191.062C167.35 193.148 167.813 194.308 167.813 194.308Z" fill="#E897A3"/>
<path d="M238.302 60.2864C235.519 64.2282 239.461 65.8513 236.679 70.025C234.824 72.8074 231.81 73.9668 227.404 72.8074C222.998 71.6481 218.129 73.0393 216.274 77.9086C214.419 82.7779 217.434 83.9372 212.564 88.1109C209.55 90.6615 213.724 93.9077 211.405 96.4582C209.086 99.0088 207.463 97.3857 203.985 101.096C201.203 104.11 201.203 108.516 203.985 113.385C205.608 115.935 206.304 120.109 203.985 121.5C200.043 124.051 203.985 126.833 203.985 126.833C203.985 126.833 204.681 124.283 208.159 122.892C210.246 122.196 208.622 118.718 210.477 118.254C214.651 117.558 217.202 121.268 218.593 116.863C220.216 112.457 215.579 109.443 220.912 109.443C226.245 109.443 227.636 111.53 230.65 107.356C233.664 103.182 226.013 97.3857 229.491 94.1395C232.737 90.8933 235.751 93.9077 240.389 94.6033C245.026 95.2989 247.113 93.9077 247.113 89.734C247.113 85.5603 246.649 83.9372 249.895 83.2416C253.605 82.3141 256.852 78.1404 256.852 73.503C256.852 68.8656 256.852 65.3876 253.374 62.3732C249.664 59.127 242.939 53.3303 238.302 60.2864Z" fill="#98A2F4"/>
<path d="M111.237 369.834C109.382 361.95 114.947 353.139 114.947 353.139C114.947 353.139 123.99 347.574 127.932 342.937C127.932 342.937 114.483 345.024 112.164 348.734C109.846 352.443 105.44 360.327 102.658 365.196C99.8752 370.066 91.296 382.587 90.6004 386.297C89.9048 390.007 89.4411 391.861 93.8466 392.789C98.2521 393.716 104.049 389.079 109.382 384.674C114.715 380.268 114.715 380.268 114.715 380.268L118.657 376.79C117.729 377.022 117.034 377.254 116.57 377.486C113.324 377.949 113.092 377.486 111.237 369.834Z" fill="white"/>
<path d="M152.742 258.768C150.423 263.173 144.163 275.463 144.163 282.187C144.163 290.534 147.873 295.867 152.278 297.49C153.206 297.954 156.452 298.881 161.089 300.505C166.422 296.331 171.523 293.085 173.61 290.302C176.161 286.592 185.667 274.071 188.682 269.666C185.899 269.202 183.812 268.738 182.189 268.506C173.842 266.883 159.466 261.318 152.742 258.768Z" fill="#E897A3"/>
<path d="M249.896 272.68C225.549 274.303 201.435 271.753 188.682 269.666C185.435 273.839 176.161 286.592 173.61 290.302C171.755 293.085 166.422 296.331 161.089 300.505C157.843 303.055 154.365 306.069 151.814 309.084C148.336 313.257 143.467 320.445 139.061 327.17C145.09 338.531 148.336 348.502 155.988 357.545C167.581 351.284 181.262 343.864 187.29 339.459C197.029 332.271 204.913 324.619 211.637 317.895C212.101 317.431 212.564 316.967 213.028 316.504C218.593 311.171 229.955 300.041 236.679 292.157C238.766 289.839 240.389 287.752 241.316 286.36C245.49 279.868 249.896 272.68 249.896 272.68Z" fill="#E897A3"/>
<path d="M128.163 342.705C123.99 347.342 115.179 352.907 115.179 352.907C115.179 352.907 109.614 361.95 111.469 369.602C113.324 377.254 113.556 377.718 116.57 377.022C117.034 377.022 117.729 376.79 118.657 376.326C123.062 374.703 130.946 370.298 136.511 367.515C137.902 366.82 140.684 365.428 143.931 363.573C138.829 355.226 136.279 346.183 132.105 337.14C130.482 339.691 129.091 341.778 128.163 342.705Z" fill="#9ECBE3"/>
<path d="M138.829 327.17C136.279 330.88 133.96 334.358 132.105 337.372C136.279 346.415 138.829 355.458 143.931 363.805C147.409 361.95 151.35 359.863 155.756 357.545C148.104 348.734 145.09 338.531 138.829 327.17Z" fill="white"/>
<path d="M239.925 293.78C239.23 293.548 238.07 293.085 236.679 292.621C229.723 300.504 218.593 311.634 213.028 316.967C212.564 317.431 212.101 317.895 211.637 318.359C212.796 318.822 213.26 319.518 213.492 319.75C216.042 321.837 217.202 325.315 217.202 325.315C217.434 324.851 225.317 316.272 228.1 311.866C232.969 303.983 239.925 293.78 239.925 293.78Z" fill="#9ECBE3"/>
<path d="M239.925 293.78C239.925 293.78 232.969 303.983 228.1 311.634C225.317 316.04 217.434 324.619 217.202 325.083C217.202 325.083 217.665 326.938 215.579 330.88C213.492 334.821 211.637 340.85 215.81 340.386C223.23 339.459 229.723 326.938 233.201 320.909C236.679 314.881 248.272 300.968 248.272 297.49C248.272 293.78 239.925 293.78 239.925 293.78Z" fill="white"/>
<path d="M193.783 302.128C188.218 305.374 179.87 314.185 175.697 320.445C171.523 326.706 169.9 333.894 172.682 336.444C175.929 339.459 182.885 339.459 194.942 327.17C206.304 315.576 207.695 309.547 205.84 305.374C203.985 301.2 199.811 298.65 193.783 302.128Z" fill="#FFA39C"/>
<path d="M178.943 318.359C178.943 318.359 179.639 325.315 186.363 327.17C194.71 329.256 199.58 321.141 199.58 321.141" stroke="white" stroke-width="0.579677" stroke-miterlimit="10"/>
<path d="M220.912 147.238C220.216 146.31 218.129 146.542 218.129 146.542C217.897 146.079 215.811 143.528 215.115 142.601C214.419 141.905 212.796 139.354 212.796 139.354C212.796 139.354 213.028 137.499 213.028 135.413C213.028 134.485 213.028 133.326 212.796 132.166C212.333 131.934 211.173 131.703 210.478 131.471C209.318 131.007 205.84 130.311 203.521 130.775C201.666 131.007 199.58 132.862 199.348 132.862C199.116 134.021 199.348 135.181 199.58 136.572C200.043 138.427 201.435 140.746 202.362 141.441C204.681 143.296 206.304 142.601 206.304 142.601C206.304 142.601 207.231 145.151 206.999 148.165C206.999 149.093 206.536 149.789 205.84 150.484C204.913 151.412 203.521 152.339 202.826 154.194C202.594 155.122 202.13 158.6 204.913 161.614C205.608 162.541 206.536 163.237 207.695 163.933C207.695 163.933 207.927 163.933 207.927 164.165C212.101 166.251 215.811 165.324 218.593 163.701C219.289 163.469 219.752 163.005 220.216 162.541C222.535 159.991 224.39 150.948 220.912 147.238Z" fill="#E897A3"/>
<path d="M211.173 127.529C210.014 125.906 206.999 124.515 203.753 125.674C203.753 125.674 202.13 126.37 200.739 128.225C199.348 130.079 199.116 132.862 199.116 132.862C199.348 132.63 201.203 131.007 203.29 130.775C205.608 130.311 209.086 131.239 210.246 131.471C211.173 131.703 212.101 131.934 212.332 132.166C212.564 132.166 212.564 132.166 212.564 132.166C212.564 132.166 212.332 128.92 211.173 127.529Z" fill="#98A2F4"/>
<path d="M308.559 100.864L285.372 70.0249C290.705 64.2282 290.009 53.3302 283.285 44.751C278.416 38.4905 271.691 34.5487 265.199 34.5487C262.185 34.5487 259.634 35.4762 257.315 37.0993C253.837 39.6499 251.982 44.0554 252.214 49.3884C252.446 54.2577 254.301 59.5907 257.779 63.9963C262.648 70.2568 269.373 74.1986 275.865 74.1986C277.952 74.1986 279.807 73.7349 281.662 72.8074L304.849 103.646L308.559 100.864ZM261.489 60.982C258.707 57.272 257.083 52.8665 256.852 48.9247C256.62 45.2148 258.011 42.2004 260.33 40.5773C261.721 39.6499 263.344 38.9542 265.431 38.9542C270.3 38.9542 275.865 42.2004 279.807 47.3016C285.372 54.7215 285.835 63.9963 280.966 67.7062C279.575 68.6337 277.952 69.3293 275.865 69.3293C270.996 69.5612 265.431 66.315 261.489 60.982Z" fill="white"/>
<path d="M297.516 84.3195L291.952 88.4952L303.783 104.259L309.347 100.083L297.516 84.3195Z" fill="white"/>
<path d="M194.942 28.5201L191.696 46.1423L225.317 54.2578L229.259 39.8818L194.942 28.5201Z" fill="#F39684"/>
<path d="M302.994 252.507L297.429 250.42C297.429 250.42 287.227 245.319 278.648 241.841C272.155 239.291 268.677 235.813 268.677 235.813C263.808 232.798 261.489 230.48 261.489 230.48C261.489 230.48 253.374 237.668 226.245 234.653C216.97 233.726 174.538 226.306 174.538 226.306C174.538 226.306 169.9 231.639 166.422 235.349C163.64 238.595 146.713 255.985 146.713 255.985C146.713 255.985 150.655 257.608 152.974 258.536C159.698 261.087 174.074 266.651 182.189 268.275C183.812 268.506 185.899 268.97 188.682 269.434C201.435 271.521 225.549 274.071 249.896 272.448C256.388 271.984 262.88 271.289 269.141 270.129C285.372 267.115 309.486 255.058 309.486 255.058C309.486 255.058 306.704 254.13 302.994 252.507Z" fill="#E2603D"/>
<path d="M292.56 87.1834L289.082 82.3142C289.082 82.3142 290.009 79.5317 290.241 79.068C290.473 78.6042 292.328 79.9955 293.255 78.8361C293.719 78.3724 294.415 77.4449 292.328 76.5174C290.473 75.5899 290.473 75.358 289.777 74.8943C288.386 74.1987 287.227 75.358 285.372 76.9811C283.517 78.6042 283.981 84.6329 283.053 86.7197C283.053 86.9516 282.821 87.1834 282.589 87.4153C285.836 89.5022 289.777 89.9659 292.56 87.1834Z" fill="#E897A3"/>
<path d="M292.328 87.4153C289.777 89.5022 285.836 89.2703 282.821 87.1835C280.271 91.3571 268.213 109.907 266.127 113.153C263.808 116.631 250.823 127.529 250.823 127.529C250.823 127.529 253.837 130.311 257.084 132.862C257.779 133.558 259.402 134.717 261.489 135.876C262.649 136.572 263.808 137.036 264.735 137.499C269.373 138.891 280.503 148.165 280.503 148.165C280.503 148.165 287.459 132.166 289.777 126.833C292.096 121.5 300.212 98.0814 300.212 98.0814L292.328 87.4153Z" fill="#E897A3"/>
<path d="M294.879 78.1404C292.792 78.836 292.792 78.836 292.56 79.2998C292.328 79.7635 292.792 82.0822 291.401 83.2416C290.009 84.4009 288.85 86.4878 289.777 87.4153C290.937 88.8065 292.096 88.1109 292.096 88.1109C292.096 88.1109 291.401 89.734 291.632 91.1252C291.864 92.5164 293.719 92.9802 294.647 92.7483C295.574 92.5164 295.806 92.5164 295.806 92.5164C295.806 92.5164 293.951 95.2989 295.11 96.6901C296.27 98.0813 298.125 97.3857 298.125 97.3857C298.125 97.3857 296.038 99.2407 297.661 100.4C299.516 101.559 302.298 100.4 303.458 98.5451C304.617 96.922 305.776 93.6758 305.081 92.7483C304.617 92.0527 303.69 91.8208 303.69 91.8208C303.69 91.8208 303.922 89.0384 302.994 88.1109C302.067 87.1834 300.907 86.9515 300.907 86.9515C300.907 86.9515 301.139 84.8647 300.212 83.7053C299.284 82.546 297.893 82.0822 297.893 82.0822C297.893 82.0822 298.125 79.9954 297.429 79.0679C296.502 77.9086 296.038 77.6767 294.879 78.1404Z" fill="#E897A3"/>
<path d="M290.241 84.4009C289.314 85.7921 289.082 86.9515 289.545 87.4152C290.705 88.8064 291.864 88.1108 291.864 88.1108C291.864 88.1108 291.169 89.7339 291.4 91.1251C291.632 92.5163 293.487 92.9801 294.415 92.7482C295.342 92.5164 295.574 92.5164 295.574 92.5164C295.574 92.5164 293.719 95.2988 294.879 96.69C296.038 98.0813 297.893 97.3856 297.893 97.3856C297.893 97.3856 295.806 99.2406 297.429 100.4C297.893 100.632 298.357 100.864 298.82 100.864" stroke="#660000" stroke-width="0.579677" stroke-miterlimit="10" stroke-linejoin="round"/>
<path d="M284.908 93.444C284.908 93.444 287.69 93.6758 289.314 95.0671C290.937 96.4583 290.009 99.4726 292.328 101.328C293.951 102.487 294.415 102.023 294.415 102.023" stroke="white" stroke-width="0.579677" stroke-miterlimit="10"/>
<mask id="mask0" mask-type="alpha" maskUnits="userSpaceOnUse" x="164" y="127" width="117" height="109">
<path d="M264.967 137.499C264.04 137.267 262.88 136.572 261.721 135.876C256.852 132.862 251.055 127.297 251.055 127.297C251.055 127.297 240.389 135.181 235.288 137.267C231.346 138.891 221.607 144.224 218.129 146.31C218.129 146.31 219.984 146.079 220.912 147.006C224.39 150.948 222.535 159.759 219.984 162.078C219.521 162.541 219.057 163.005 218.361 163.237C215.811 164.86 211.869 165.788 207.695 163.701C207.695 163.701 207.463 163.701 207.463 163.469C206.304 163.005 205.376 162.078 204.681 161.15C202.13 158.136 202.362 154.658 202.594 153.73C203.29 151.875 204.449 150.948 205.608 150.02C201.203 151.412 187.986 156.513 177.784 159.063C172.914 160.223 164.103 161.846 164.103 161.846C164.103 161.846 164.103 162.309 164.103 163.005C164.335 166.483 164.799 176.685 165.263 179.932C165.726 182.714 166.654 185.497 167.118 187.815C167.35 188.743 167.35 189.67 167.35 190.366C167.35 190.598 167.35 190.598 167.35 190.83L167.813 194.076C167.813 194.076 179.871 194.308 182.189 198.018C184.276 201.728 183.349 211.466 180.566 216.335C177.784 221.437 174.538 226.306 174.538 226.306C174.538 226.306 216.97 233.726 226.245 234.653C253.374 237.436 261.489 230.479 261.489 230.479C261.489 230.479 266.59 214.48 267.518 203.582C268.445 192.685 269.141 169.497 269.141 169.497C269.141 169.497 273.083 163.005 275.633 158.6C278.184 154.194 280.966 147.702 280.966 147.702C280.966 147.702 269.605 138.891 264.967 137.499Z" fill="#3844E5"/>
</mask>
<g mask="url(#mask0)">
<path d="M193.783 77.2129L97.0927 229.32" stroke="#45A0D4" stroke-width="0.579677" stroke-miterlimit="10"/>
<path d="M210.014 87.6471L113.324 239.522" stroke="#45A0D4" stroke-width="0.579677" stroke-miterlimit="10"/>
<path d="M226.245 97.8494L129.555 249.957" stroke="#45A0D4" stroke-width="0.579677" stroke-miterlimit="10"/>
<path d="M242.476 108.284L145.786 260.159" stroke="#45A0D4" stroke-width="0.579677" stroke-miterlimit="10"/>
<path d="M258.707 118.486L162.017 270.593" stroke="#45A0D4" stroke-width="0.579677" stroke-miterlimit="10"/>
<path d="M274.938 128.688L178.248 280.795" stroke="#45A0D4" stroke-width="0.579677" stroke-miterlimit="10"/>
<path d="M291.169 139.122L194.479 290.998" stroke="#45A0D4" stroke-width="0.579677" stroke-miterlimit="10"/>
<path d="M307.4 149.325L210.709 301.432" stroke="#45A0D4" stroke-width="0.579677" stroke-miterlimit="10"/>
<path d="M323.631 159.759L226.94 311.634" stroke="#45A0D4" stroke-width="0.579677" stroke-miterlimit="10"/>
<path d="M339.861 169.961L243.171 322.068" stroke="#45A0D4" stroke-width="0.579677" stroke-miterlimit="10"/>
<path d="M97.0928 224.915L248.968 321.605" stroke="#45A0D4" stroke-width="0.579677" stroke-miterlimit="10"/>
<path d="M107.295 208.684L259.402 305.374" stroke="#45A0D4" stroke-width="0.579677" stroke-miterlimit="10"/>
<path d="M117.729 192.453L269.605 289.143" stroke="#45A0D4" stroke-width="0.579677" stroke-miterlimit="10"/>
<path d="M127.932 176.222L280.039 272.912" stroke="#45A0D4" stroke-width="0.579677" stroke-miterlimit="10"/>
<path d="M138.134 159.991L290.241 256.681" stroke="#45A0D4" stroke-width="0.579677" stroke-miterlimit="10"/>
<path d="M148.568 143.76L300.443 240.45" stroke="#45A0D4" stroke-width="0.579677" stroke-miterlimit="10"/>
<path d="M158.77 127.529L310.878 224.219" stroke="#45A0D4" stroke-width="0.579677" stroke-miterlimit="10"/>
<path d="M169.205 111.298L321.08 207.988" stroke="#45A0D4" stroke-width="0.579677" stroke-miterlimit="10"/>
<path d="M179.407 95.0669L331.514 191.757" stroke="#45A0D4" stroke-width="0.579677" stroke-miterlimit="10"/>
<path d="M189.841 78.8359L341.716 175.526" stroke="#45A0D4" stroke-width="0.579677" stroke-miterlimit="10"/>
</g>
<path d="M194.942 28.5201L210.477 44.983L229.259 39.8818" stroke="#660000" stroke-width="0.579677" stroke-miterlimit="10" stroke-linejoin="round"/>
<path d="M191.696 46.1423L206.768 41.0411" stroke="#660000" stroke-width="0.579677" stroke-miterlimit="10" stroke-linejoin="round"/>
<path d="M215.81 43.5917L225.317 54.2577" stroke="#660000" stroke-width="0.579677" stroke-miterlimit="10" stroke-linejoin="round"/>
<path d="M196.565 173.439C196.565 173.439 191.232 171.816 190.073 174.599C188.914 177.381 190.305 179.932 193.319 181.323C196.333 182.714 199.812 182.714 199.812 182.714" stroke="white" stroke-width="0.579677" stroke-miterlimit="10"/>
<path d="M250.359 159.295C250.359 159.295 255.229 158.831 257.084 160.455C258.938 162.078 259.402 164.165 257.779 166.483C256.156 168.802 253.374 169.961 253.374 169.961" stroke="white" stroke-width="0.579677" stroke-miterlimit="10"/>
<path d="M209.318 140.05C209.318 140.05 208.854 141.209 207.927 141.905C206.999 142.601 206.072 142.832 206.072 142.832" stroke="white" stroke-width="0.579677" stroke-miterlimit="10"/>
<path d="M98.2521 169.034C98.2521 169.034 99.6433 173.207 102.194 174.599C104.744 175.99 105.904 175.758 105.904 175.758" stroke="#660000" stroke-width="0.579677" stroke-miterlimit="10" stroke-linejoin="round"/>
<path d="M141.148 324.851L122.599 338.995" stroke="#45A0D4" stroke-width="0.579677" stroke-miterlimit="10"/>
<path d="M143.467 327.865L124.917 342.009" stroke="#45A0D4" stroke-width="0.579677" stroke-miterlimit="10"/>
<path d="M145.786 330.88L127.236 345.024" stroke="#45A0D4" stroke-width="0.579677" stroke-miterlimit="10"/>
<path d="M148.104 333.894L129.555 348.038" stroke="#45A0D4" stroke-width="0.579677" stroke-miterlimit="10"/>
<path d="M150.423 336.908L131.873 351.052" stroke="#45A0D4" stroke-width="0.579677" stroke-miterlimit="10"/>
<path d="M152.742 339.922L134.192 354.067" stroke="#45A0D4" stroke-width="0.579677" stroke-miterlimit="10"/>
<path d="M155.06 342.937L136.511 357.081" stroke="#45A0D4" stroke-width="0.579677" stroke-miterlimit="10"/>
<path d="M157.379 345.951L138.829 360.095" stroke="#45A0D4" stroke-width="0.579677" stroke-miterlimit="10"/>
<path d="M159.698 348.965L141.148 363.11" stroke="#45A0D4" stroke-width="0.579677" stroke-miterlimit="10"/>
<path d="M162.017 351.98L143.467 366.124" stroke="#45A0D4" stroke-width="0.579677" stroke-miterlimit="10"/>
<mask id="mask1" mask-type="alpha" maskUnits="userSpaceOnUse" x="252" y="34" width="57" height="70">
<path d="M308.559 100.864L285.372 70.0249C290.705 64.2282 290.009 53.3302 283.285 44.751C278.416 38.4905 271.691 34.5487 265.199 34.5487C262.185 34.5487 259.634 35.4762 257.315 37.0993C253.837 39.6499 251.982 44.0554 252.214 49.3884C252.446 54.2577 254.301 59.5907 257.779 63.9963C262.648 70.2568 269.373 74.1986 275.865 74.1986C277.952 74.1986 279.807 73.7349 281.662 72.8074L304.849 103.646L308.559 100.864ZM261.489 60.982C258.707 57.272 257.083 52.8665 256.852 48.9247C256.62 45.2148 258.011 42.2004 260.33 40.5773C261.721 39.6499 263.344 38.9542 265.431 38.9542C270.3 38.9542 275.865 42.2004 279.807 47.3016C285.372 54.7215 285.835 63.9963 280.966 67.7062C279.575 68.6337 277.952 69.3293 275.865 69.3293C270.996 69.5612 265.431 66.315 261.489 60.982Z" fill="white"/>
</mask>
<g mask="url(#mask1)">
<path d="M230.187 39.418H310.646" stroke="white" stroke-width="0.579677" stroke-miterlimit="10"/>
<path d="M230.187 45.2147H310.646" stroke="white" stroke-width="0.579677" stroke-miterlimit="10"/>
<path d="M230.187 50.7797H310.646" stroke="white" stroke-width="0.579677" stroke-miterlimit="10"/>
<path d="M230.187 56.5764H310.646" stroke="white" stroke-width="0.579677" stroke-miterlimit="10"/>
<path d="M230.187 62.3732H310.646" stroke="white" stroke-width="0.579677" stroke-miterlimit="10"/>
<path d="M230.187 68.1699H310.646" stroke="white" stroke-width="0.579677" stroke-miterlimit="10"/>
<path d="M230.187 73.7349H310.646" stroke="white" stroke-width="0.579677" stroke-miterlimit="10"/>
<path d="M230.187 79.5316H310.646" stroke="white" stroke-width="0.579677" stroke-miterlimit="10"/>
<path d="M254.997 93.9076V13.4485" stroke="white" stroke-width="0.579677" stroke-miterlimit="10"/>
<path d="M260.793 93.9076V13.4485" stroke="white" stroke-width="0.579677" stroke-miterlimit="10"/>
<path d="M266.59 93.9076V13.4485" stroke="white" stroke-width="0.579677" stroke-miterlimit="10"/>
<path d="M272.155 93.9076V13.4485" stroke="white" stroke-width="0.579677" stroke-miterlimit="10"/>
<path d="M277.952 93.9076V13.4485" stroke="white" stroke-width="0.579677" stroke-miterlimit="10"/>
<path d="M283.749 93.9076V13.4485" stroke="white" stroke-width="0.579677" stroke-miterlimit="10"/>
<path d="M289.545 93.9076V13.4485" stroke="white" stroke-width="0.579677" stroke-miterlimit="10"/>
<path d="M295.11 93.9076V13.4485" stroke="white" stroke-width="0.579677" stroke-miterlimit="10"/>
</g>
<path d="M106.831 375.631L114.947 385.137" stroke="#45A0D4" stroke-width="0.579677" stroke-miterlimit="10"/>
<path d="M104.281 378.413L112.396 387.456" stroke="#45A0D4" stroke-width="0.579677" stroke-miterlimit="10"/>
<path d="M102.658 380.964L110.078 389.543" stroke="#45A0D4" stroke-width="0.579677" stroke-miterlimit="10"/>
<path d="M215.579 326.938H223.462" stroke="#45A0D4" stroke-width="0.579677" stroke-miterlimit="10"/>
<path d="M214.651 329.256H222.071" stroke="#45A0D4" stroke-width="0.579677" stroke-miterlimit="10"/>
<path d="M213.26 331.575H220.912" stroke="#45A0D4" stroke-width="0.579677" stroke-miterlimit="10"/>
<path d="M329.128 259.771C331.47 257.404 332.041 254.171 330.402 252.55C328.764 250.928 325.537 251.532 323.195 253.899C320.853 256.266 320.283 259.499 321.921 261.12C323.559 262.741 326.786 262.137 329.128 259.771Z" stroke="#660000" stroke-width="0.579677" stroke-miterlimit="10" stroke-linejoin="round"/>
<path d="M261.257 271.753C263.576 271.289 265.895 270.825 269.141 270.361C285.372 267.347 309.486 255.29 309.486 255.29C309.486 255.29 306.704 254.13 303.226 252.507" stroke="#660000" stroke-width="0.579677" stroke-miterlimit="10" stroke-linejoin="round"/>
<path d="M272.851 239.291C273.546 239.523 283.749 244.392 297.661 250.42" stroke="#660000" stroke-width="0.579677" stroke-miterlimit="10" stroke-linejoin="round"/>
<path d="M251.055 274.071C251.055 274.071 240.853 294.012 213.956 318.127C213.492 318.59 213.028 319.054 212.564 319.518C205.608 326.242 197.956 334.126 188.218 341.082C182.189 345.488 168.741 352.907 156.915 359.168C156.915 359.168 137.67 370.53 133.496 372.385" stroke="#660000" stroke-width="0.579677" stroke-miterlimit="10" stroke-linejoin="round"/>
<path d="M188.45 273.144C184.508 278.477 177.088 288.447 174.769 291.693C172.914 294.476 167.581 297.722 162.248 301.896C159.002 304.446 155.524 307.461 152.974 310.475C151.119 312.794 148.8 316.04 146.249 319.518" stroke="#660000" stroke-width="0.579677" stroke-miterlimit="10" stroke-linejoin="round"/>
<path d="M242.476 292.389C242.476 292.389 250.359 293.085 250.359 296.563C250.359 300.041 238.766 313.953 235.288 319.982C231.81 326.01 225.317 338.531 217.897 339.459C213.724 339.923 215.579 334.126 217.666 329.952C219.752 325.778 219.289 324.155 219.289 324.155" stroke="#660000" stroke-width="0.579677" stroke-miterlimit="10" stroke-linejoin="round"/>
<path d="M123.99 344.792C123.99 344.792 116.57 346.183 114.483 348.734C111.701 352.212 107.063 361.718 104.281 366.588C101.498 371.457 93.3828 383.05 92.2235 386.76C91.296 389.311 91.296 393.021 95.7015 393.948C100.107 394.876 105.904 390.47 111.237 386.297C116.57 382.123 120.048 378.181 120.048 378.181" stroke="#660000" stroke-width="0.579677" stroke-miterlimit="10" stroke-linejoin="round"/>
<path d="M179.639 0.231873C205.376 10.4342 229.491 21.564 251.055 33.6213" stroke="#660000" stroke-width="0.579677" stroke-miterlimit="10" stroke-linejoin="round"/>
<path d="M287.227 278.941C285.14 279.868 282.821 280.564 280.502 281.491" stroke="#660000" stroke-width="0.579677" stroke-miterlimit="10" stroke-linejoin="round"/>
<path d="M316.442 265.26C309.023 269.434 300.675 273.376 292.096 277.086" stroke="#660000" stroke-width="0.579677" stroke-miterlimit="10" stroke-linejoin="round"/>
<path d="M341.253 258.768C322.703 272.912 298.82 284.737 270.764 294.012" stroke="#660000" stroke-width="0.579677" stroke-miterlimit="10" stroke-linejoin="round"/>
<path d="M270.3 226.538C270.996 223.755 271.691 220.741 272.387 217.495M274.242 207.524C275.169 196.626 275.865 173.439 275.865 173.439C275.865 173.439 279.575 166.947 282.357 162.541C289.082 150.948 301.139 119.413 303.226 113.153L274.242 207.524Z" stroke="#660000" stroke-width="0.579677" stroke-miterlimit="10" stroke-linejoin="round"/>
<path d="M290.241 165.788C294.183 158.831 300.212 144.455 304.849 132.862" stroke="#660000" stroke-width="0.579677" stroke-miterlimit="10" stroke-linejoin="round"/>
<path d="M150.887 260.391C148.568 264.796 142.307 277.086 142.307 283.81C142.307 292.157 146.017 297.49 150.423 299.113C151.35 299.577 154.597 300.505 159.234 302.128" stroke="#660000" stroke-width="0.579677" stroke-miterlimit="10" stroke-linejoin="round"/>
<path d="M184.044 12.0573L195.174 22.4915L200.739 11.8254L184.044 12.0573Z" fill="#D63C30"/>
<path d="M202.826 20.6365L192.392 16.6947" stroke="#660000" stroke-width="0.579677" stroke-miterlimit="10" stroke-linejoin="round"/>
<path d="M208.159 18.5497L195.638 14.376" stroke="#660000" stroke-width="0.579677" stroke-miterlimit="10" stroke-linejoin="round"/>
<path d="M338.934 251.812L346.122 258.768L354.006 245.551L338.934 251.812Z" fill="#45A0D4"/>
<path d="M161.553 198.25C161.553 198.25 173.61 198.713 175.697 202.423" stroke="#660000" stroke-width="0.579677" stroke-miterlimit="10" stroke-linejoin="round"/>
<path d="M130.018 195.699C140.452 197.554 161.553 198.25 161.553 198.25" stroke="#660000" stroke-width="0.579677" stroke-miterlimit="10" stroke-linejoin="round"/>
<path d="M235.056 44.9829C244.794 46.8378 270.532 56.3445 270.532 56.3445C257.779 48.4609 244.099 40.8092 229.259 33.6212" stroke="#660000" stroke-width="0.579677" stroke-miterlimit="10" stroke-linejoin="round"/>
<path d="M263.808 232.103L273.083 239.523" stroke="#660000" stroke-width="0.579677" stroke-miterlimit="10" stroke-linejoin="round"/>
<path d="M187.29 208.22C187.29 208.22 185.204 220.973 177.552 230.016C169.9 239.059 164.335 245.087 164.335 245.087" stroke="#660000" stroke-width="0.579677" stroke-miterlimit="10" stroke-linejoin="round"/>
</g>
<defs>
<clipPath id="clip0">
<rect width="354.299" height="410.179" fill="white" transform="translate(0.866333)"/>
</clipPath>
</defs>
</svg>
