<svg width="331" height="151" viewBox="0 0 331 151" fill="none" xmlns="http://www.w3.org/2000/svg">
<g clip-path="url(#clip0)">
<path d="M139.354 12.9049C121.268 20.5566 84.8647 10.1225 72.3437 36.5557C57.0402 68.5539 30.6069 72.0319 50.7797 97.7696C70.9524 123.507 80.691 94.9871 127.761 104.494C175.294 114.464 186.424 89.4222 227.697 95.9146C277.549 103.798 308.156 83.3936 271.289 34.0051C244.16 -2.1667 187.352 -7.96346 139.354 12.9049Z" fill="#F8F9FF"/>
<path d="M171.816 116.319C176.222 128.377 191.061 128.145 199.641 133.014C206.597 136.956 209.147 140.202 210.075 141.593C230.248 138.579 243.001 134.173 243.001 129.072C243.001 121.42 212.625 114.928 171.584 113.073C171.352 114.464 171.584 115.392 171.816 116.319Z" fill="#98A2F4"/>
<path d="M103.646 114.928C74.4305 117.711 54.7214 123.275 54.7214 129.304C54.7214 134.637 69.0974 139.275 91.357 142.289C91.5889 140.666 92.2845 139.275 92.2845 139.275C92.2845 139.275 95.5307 128.84 103.646 114.928Z" fill="#98A2F4"/>
<path d="M130.311 79.6838C130.311 79.6838 123.123 82.6981 119.413 79.6838C115.704 76.6695 114.08 61.1341 105.501 62.0616C96.922 62.9891 96.2264 69.7133 89.5021 66.0034C80.2273 60.6704 72.3437 67.1628 72.3437 75.5101C72.3437 83.8574 79.9954 86.8718 80.691 89.4223C82.7779 95.6829 78.8361 98.4653 83.4735 101.016C88.1109 103.566 91.1252 101.48 93.6758 104.03C96.2264 106.581 95.7626 108.899 100.4 109.827C102.951 110.291 104.806 110.291 106.197 110.059C112.225 100.32 120.109 89.6542 130.311 79.6838Z" fill="#3844E5"/>
<path d="M179.004 51.3955C159.063 56.4967 143.064 67.1628 130.311 79.6838C120.109 89.6542 112.225 100.552 106.429 110.291C105.501 111.914 104.574 113.537 103.646 114.928C95.7626 128.84 92.0527 139.506 92.0527 139.506C92.0527 139.506 91.357 140.666 91.1252 142.521C107.124 144.608 127.065 145.999 148.629 145.999C172.048 145.999 193.38 144.608 209.843 142.057C208.916 140.666 206.365 137.42 199.409 133.478C190.83 128.609 175.99 128.84 171.584 116.783C171.584 115.392 171.352 114.464 171.584 113.305C173.207 100.552 206.133 80.1475 243.001 91.0454L258.536 54.6417C235.117 46.5263 216.335 41.8888 179.004 51.3955Z" fill="#E2603D"/>
<mask id="mask0" mask-type="alpha" maskUnits="userSpaceOnUse" x="91" y="46" width="168" height="100">
<path d="M179.004 51.3955C159.063 56.4967 143.064 67.1628 130.311 79.6838C120.109 89.6542 112.225 100.552 106.429 110.291C105.501 111.914 104.574 113.537 103.646 114.928C95.7626 128.84 92.0527 139.506 92.0527 139.506C92.0527 139.506 91.357 140.666 91.1252 142.521C107.124 144.608 127.065 145.999 148.629 145.999C172.048 145.999 193.38 144.608 209.843 142.057C208.916 140.666 206.365 137.42 199.409 133.478C190.83 128.609 175.99 128.84 171.584 116.783C171.584 115.392 171.352 114.464 171.584 113.305C173.207 100.552 206.133 80.1475 243.001 91.0454L258.536 54.6417C235.117 46.5263 216.335 41.8888 179.004 51.3955Z" fill="#E2603D"/>
</mask>
<g mask="url(#mask0)">
<path d="M79.068 144.839L83.0098 147.158L86.7198 144.839L90.6616 147.158L94.6034 144.839" stroke="white" stroke-width="0.579677" stroke-miterlimit="10"/>
<path d="M104.342 144.608L108.284 147.158L112.225 144.608L115.935 147.158L119.877 144.608" stroke="white" stroke-width="0.579677" stroke-miterlimit="10"/>
<path d="M129.616 144.376L133.558 146.926L137.499 144.376L141.441 146.926L145.151 144.376" stroke="white" stroke-width="0.579677" stroke-miterlimit="10"/>
<path d="M154.89 144.376L158.832 146.694L162.773 144.376L166.715 146.694L170.657 144.376" stroke="white" stroke-width="0.579677" stroke-miterlimit="10"/>
<path d="M180.164 144.144L184.105 146.694L188.047 144.144L191.989 146.694L195.931 144.144" stroke="white" stroke-width="0.579677" stroke-miterlimit="10"/>
<path d="M205.669 144.144L209.379 146.463L213.321 144.144L217.263 146.463L221.205 144.144" stroke="white" stroke-width="0.579677" stroke-miterlimit="10"/>
<path d="M230.943 143.912L234.885 146.463L238.595 143.912L242.537 146.463L246.479 143.912" stroke="white" stroke-width="0.579677" stroke-miterlimit="10"/>
<path d="M256.217 143.68L260.159 146.231L264.101 143.68L267.811 146.231L271.753 143.68" stroke="white" stroke-width="0.579677" stroke-miterlimit="10"/>
<path d="M256.217 146.231L260.159 148.781L264.101 146.231L267.811 148.781L271.753 146.231" stroke="white" stroke-width="0.579677" stroke-miterlimit="10"/>
<path d="M91.8209 135.565L95.7627 138.115L99.7045 135.565L103.646 138.115L107.356 135.565" stroke="white" stroke-width="0.579677" stroke-miterlimit="10"/>
<path d="M91.8209 138.115L95.7627 140.666L99.7045 138.115L103.646 140.666L107.356 138.115" stroke="white" stroke-width="0.579677" stroke-miterlimit="10"/>
<path d="M117.095 135.565L121.037 138.115L124.978 135.565L128.92 138.115L132.63 135.565" stroke="white" stroke-width="0.579677" stroke-miterlimit="10"/>
<path d="M117.095 138.115L121.037 140.434L124.978 138.115L128.92 140.434L132.63 138.115" stroke="white" stroke-width="0.579677" stroke-miterlimit="10"/>
<path d="M142.369 135.333L146.311 137.883L150.252 135.333L154.194 137.883L158.136 135.333" stroke="white" stroke-width="0.579677" stroke-miterlimit="10"/>
<path d="M142.369 137.883L146.311 140.434L150.252 137.883L154.194 140.434L158.136 137.883" stroke="white" stroke-width="0.579677" stroke-miterlimit="10"/>
<path d="M167.875 135.333L171.584 137.651L175.526 135.333L179.468 137.651L183.41 135.333" stroke="white" stroke-width="0.579677" stroke-miterlimit="10"/>
<path d="M167.875 137.651L171.584 140.202L175.526 137.651L179.468 140.202L183.41 137.651" stroke="white" stroke-width="0.579677" stroke-miterlimit="10"/>
<path d="M193.148 135.101L197.09 137.652L200.8 135.101L204.742 137.652L208.684 135.101" stroke="white" stroke-width="0.579677" stroke-miterlimit="10"/>
<path d="M193.148 137.651L197.09 139.97L200.8 137.651L204.742 139.97L208.684 137.651" stroke="white" stroke-width="0.579677" stroke-miterlimit="10"/>
<path d="M218.422 134.869L222.364 137.42L226.306 134.869L230.016 137.42L233.958 134.869" stroke="white" stroke-width="0.579677" stroke-miterlimit="10"/>
<path d="M218.422 137.42L222.364 139.97L226.306 137.42L230.016 139.97L233.958 137.42" stroke="white" stroke-width="0.579677" stroke-miterlimit="10"/>
<path d="M243.696 134.869L247.638 137.42L251.58 134.869L255.29 137.42L259.232 134.869" stroke="white" stroke-width="0.579677" stroke-miterlimit="10"/>
<path d="M243.696 137.42L247.638 139.738L251.58 137.42L255.29 139.738L259.232 137.42" stroke="white" stroke-width="0.579677" stroke-miterlimit="10"/>
<path d="M79.068 126.058L83.0098 128.609L86.7198 126.058L90.6616 128.609L94.6034 126.058" stroke="white" stroke-width="0.579677" stroke-miterlimit="10"/>
<path d="M79.068 128.609L83.0098 131.159L86.7198 128.609L90.6616 131.159L94.6034 128.609" stroke="white" stroke-width="0.579677" stroke-miterlimit="10"/>
<path d="M104.342 126.058L108.284 128.377L112.225 126.058L115.935 128.377L119.877 126.058" stroke="white" stroke-width="0.579677" stroke-miterlimit="10"/>
<path d="M104.342 128.377L108.284 130.927L112.225 128.377L115.935 130.927L119.877 128.377" stroke="white" stroke-width="0.579677" stroke-miterlimit="10"/>
<path d="M129.616 125.826L133.558 128.377L137.499 125.826L141.441 128.377L145.151 125.826" stroke="white" stroke-width="0.579677" stroke-miterlimit="10"/>
<path d="M129.616 128.377L133.558 130.695L137.499 128.377L141.441 130.695L145.151 128.377" stroke="white" stroke-width="0.579677" stroke-miterlimit="10"/>
<path d="M154.89 125.594L158.832 128.145L162.773 125.594L166.715 128.145L170.657 125.594" stroke="white" stroke-width="0.579677" stroke-miterlimit="10"/>
<path d="M154.89 128.145L158.832 130.695L162.773 128.145L166.715 130.695L170.657 128.145" stroke="white" stroke-width="0.579677" stroke-miterlimit="10"/>
<path d="M180.164 125.594L184.105 127.913L188.047 125.594L191.989 127.913L195.931 125.594" stroke="white" stroke-width="0.579677" stroke-miterlimit="10"/>
<path d="M180.164 127.913L184.105 130.463L188.047 127.913L191.989 130.463L195.931 127.913" stroke="white" stroke-width="0.579677" stroke-miterlimit="10"/>
<path d="M205.669 125.362L209.379 127.913L213.321 125.362L217.263 127.913L221.205 125.362" stroke="white" stroke-width="0.579677" stroke-miterlimit="10"/>
<path d="M205.669 127.913L209.379 130.463L213.321 127.913L217.263 130.463L221.205 127.913" stroke="white" stroke-width="0.579677" stroke-miterlimit="10"/>
<path d="M230.943 125.362L234.885 127.681L238.595 125.362L242.537 127.681L246.479 125.362" stroke="white" stroke-width="0.579677" stroke-miterlimit="10"/>
<path d="M230.943 127.681L234.885 130.232L238.595 127.681L242.537 130.232L246.479 127.681" stroke="white" stroke-width="0.579677" stroke-miterlimit="10"/>
<path d="M256.217 125.13L260.159 127.681L264.101 125.13L267.811 127.681L271.753 125.13" stroke="white" stroke-width="0.579677" stroke-miterlimit="10"/>
<path d="M256.217 127.681L260.159 130L264.101 127.681L267.811 130L271.753 127.681" stroke="white" stroke-width="0.579677" stroke-miterlimit="10"/>
<path d="M91.8209 117.015L95.7627 119.566L99.7045 117.015L103.646 119.566L107.356 117.015" stroke="white" stroke-width="0.579677" stroke-miterlimit="10"/>
<path d="M91.8209 119.566L95.7627 121.884L99.7045 119.566L103.646 121.884L107.356 119.566" stroke="white" stroke-width="0.579677" stroke-miterlimit="10"/>
<path d="M117.095 116.783L121.037 119.334L124.978 116.783L128.92 119.334L132.63 116.783" stroke="white" stroke-width="0.579677" stroke-miterlimit="10"/>
<path d="M117.095 119.334L121.037 121.884L124.978 119.334L128.92 121.884L132.63 119.334" stroke="white" stroke-width="0.579677" stroke-miterlimit="10"/>
<path d="M142.369 116.783L146.311 119.334L150.252 116.783L154.194 119.334L158.136 116.783" stroke="white" stroke-width="0.579677" stroke-miterlimit="10"/>
<path d="M142.369 119.334L146.311 121.652L150.252 119.334L154.194 121.652L158.136 119.334" stroke="white" stroke-width="0.579677" stroke-miterlimit="10"/>
<path d="M167.875 116.551L171.584 119.102L175.526 116.551L179.468 119.102L183.41 116.551" stroke="white" stroke-width="0.579677" stroke-miterlimit="10"/>
<path d="M167.875 119.102L171.584 121.652L175.526 119.102L179.468 121.652L183.41 119.102" stroke="white" stroke-width="0.579677" stroke-miterlimit="10"/>
<path d="M193.148 116.551L197.09 118.87L200.8 116.551L204.742 118.87L208.684 116.551" stroke="white" stroke-width="0.579677" stroke-miterlimit="10"/>
<path d="M193.148 118.87L197.09 121.421L200.8 118.87L204.742 121.421L208.684 118.87" stroke="white" stroke-width="0.579677" stroke-miterlimit="10"/>
<path d="M218.422 116.319L222.364 118.87L226.306 116.319L230.016 118.87L233.958 116.319" stroke="white" stroke-width="0.579677" stroke-miterlimit="10"/>
<path d="M218.422 118.87L222.364 121.189L226.306 118.87L230.016 121.189L233.958 118.87" stroke="white" stroke-width="0.579677" stroke-miterlimit="10"/>
<path d="M243.696 116.088L247.638 118.638L251.58 116.088L255.29 118.638L259.232 116.088" stroke="white" stroke-width="0.579677" stroke-miterlimit="10"/>
<path d="M243.696 118.638L247.638 121.189L251.58 118.638L255.29 121.189L259.232 118.638" stroke="white" stroke-width="0.579677" stroke-miterlimit="10"/>
<path d="M79.068 107.508L83.0098 109.827L86.7198 107.508L90.6616 109.827L94.6034 107.508" stroke="white" stroke-width="0.579677" stroke-miterlimit="10"/>
<path d="M79.068 109.827L83.0098 112.378L86.7198 109.827L90.6616 112.378L94.6034 109.827" stroke="white" stroke-width="0.579677" stroke-miterlimit="10"/>
<path d="M104.342 107.276L108.284 109.827L112.225 107.276L115.935 109.827L119.877 107.276" stroke="white" stroke-width="0.579677" stroke-miterlimit="10"/>
<path d="M104.342 109.827L108.284 112.378L112.225 109.827L115.935 112.378L119.877 109.827" stroke="white" stroke-width="0.579677" stroke-miterlimit="10"/>
<path d="M129.616 107.276L133.558 109.595L137.499 107.276L141.441 109.595L145.151 107.276" stroke="white" stroke-width="0.579677" stroke-miterlimit="10"/>
<path d="M129.616 109.595L133.558 112.146L137.499 109.595L141.441 112.146L145.151 109.595" stroke="white" stroke-width="0.579677" stroke-miterlimit="10"/>
<path d="M154.89 107.045L158.832 109.595L162.773 107.045L166.715 109.595L170.657 107.045" stroke="white" stroke-width="0.579677" stroke-miterlimit="10"/>
<path d="M154.89 109.595L158.832 111.914L162.773 109.595L166.715 111.914L170.657 109.595" stroke="white" stroke-width="0.579677" stroke-miterlimit="10"/>
<path d="M180.164 106.813L184.105 109.363L188.047 106.813L191.989 109.363L195.931 106.813" stroke="white" stroke-width="0.579677" stroke-miterlimit="10"/>
<path d="M180.164 109.363L184.105 111.914L188.047 109.363L191.989 111.914L195.931 109.363" stroke="white" stroke-width="0.579677" stroke-miterlimit="10"/>
<path d="M205.669 106.813L209.379 109.131L213.321 106.813L217.263 109.131L221.205 106.813" stroke="white" stroke-width="0.579677" stroke-miterlimit="10"/>
<path d="M205.669 109.131L209.379 111.682L213.321 109.131L217.263 111.682L221.205 109.131" stroke="white" stroke-width="0.579677" stroke-miterlimit="10"/>
<path d="M230.943 106.581L234.885 109.131L238.595 106.581L242.537 109.131L246.479 106.581" stroke="white" stroke-width="0.579677" stroke-miterlimit="10"/>
<path d="M230.943 109.131L234.885 111.682L238.595 109.131L242.537 111.682L246.479 109.131" stroke="white" stroke-width="0.579677" stroke-miterlimit="10"/>
<path d="M256.217 106.581L260.159 108.9L264.101 106.581L267.811 108.9L271.753 106.581" stroke="white" stroke-width="0.579677" stroke-miterlimit="10"/>
<path d="M256.217 108.9L260.159 111.45L264.101 108.9L267.811 111.45L271.753 108.9" stroke="white" stroke-width="0.579677" stroke-miterlimit="10"/>
<path d="M91.8209 98.4653L95.7627 100.784L99.7045 98.4653L103.646 100.784L107.356 98.4653" stroke="white" stroke-width="0.579677" stroke-miterlimit="10"/>
<path d="M91.8209 100.784L95.7627 103.335L99.7045 100.784L103.646 103.335L107.356 100.784" stroke="white" stroke-width="0.579677" stroke-miterlimit="10"/>
<path d="M117.095 98.2334L121.037 100.784L124.978 98.2334L128.92 100.784L132.63 98.2334" stroke="white" stroke-width="0.579677" stroke-miterlimit="10"/>
<path d="M117.095 100.784L121.037 103.103L124.978 100.784L128.92 103.103L132.63 100.784" stroke="white" stroke-width="0.579677" stroke-miterlimit="10"/>
<path d="M142.369 98.0016L146.311 100.552L150.252 98.0016L154.194 100.552L158.136 98.0016" stroke="white" stroke-width="0.579677" stroke-miterlimit="10"/>
<path d="M142.369 100.552L146.311 103.103L150.252 100.552L154.194 103.103L158.136 100.552" stroke="white" stroke-width="0.579677" stroke-miterlimit="10"/>
<path d="M167.875 98.0016L171.584 100.552L175.526 98.0016L179.468 100.552L183.41 98.0016" stroke="white" stroke-width="0.579677" stroke-miterlimit="10"/>
<path d="M167.875 100.552L171.584 102.871L175.526 100.552L179.468 102.871L183.41 100.552" stroke="white" stroke-width="0.579677" stroke-miterlimit="10"/>
<path d="M193.148 97.7697L197.09 100.32L200.8 97.7697L204.742 100.32L208.684 97.7697" stroke="white" stroke-width="0.579677" stroke-miterlimit="10"/>
<path d="M193.148 100.32L197.09 102.871L200.8 100.32L204.742 102.871L208.684 100.32" stroke="white" stroke-width="0.579677" stroke-miterlimit="10"/>
<path d="M218.422 97.7697L222.364 100.088L226.306 97.7697L230.016 100.088L233.958 97.7697" stroke="white" stroke-width="0.579677" stroke-miterlimit="10"/>
<path d="M218.422 100.088L222.364 102.639L226.306 100.088L230.016 102.639L233.958 100.088" stroke="white" stroke-width="0.579677" stroke-miterlimit="10"/>
<path d="M243.696 97.5378L247.638 100.088L251.58 97.5378L255.29 100.088L259.232 97.5378" stroke="white" stroke-width="0.579677" stroke-miterlimit="10"/>
<path d="M243.696 100.088L247.638 102.639L251.58 100.088L255.29 102.639L259.232 100.088" stroke="white" stroke-width="0.579677" stroke-miterlimit="10"/>
<path d="M79.068 88.7268L83.0098 91.2774L86.7198 88.7268L90.6616 91.2774L94.6034 88.7268" stroke="white" stroke-width="0.579677" stroke-miterlimit="10"/>
<path d="M79.068 91.2773L83.0098 93.8279L86.7198 91.2773L90.6616 93.8279L94.6034 91.2773" stroke="white" stroke-width="0.579677" stroke-miterlimit="10"/>
<path d="M104.342 88.7268L108.284 91.0455L112.225 88.7268L115.935 91.0455L119.877 88.7268" stroke="white" stroke-width="0.579677" stroke-miterlimit="10"/>
<path d="M104.342 91.0454L108.284 93.596L112.225 91.0454L115.935 93.596L119.877 91.0454" stroke="white" stroke-width="0.579677" stroke-miterlimit="10"/>
<path d="M129.616 88.4949L133.558 91.0455L137.499 88.4949L141.441 91.0455L145.151 88.4949" stroke="white" stroke-width="0.579677" stroke-miterlimit="10"/>
<path d="M129.616 91.0454L133.558 93.596L137.499 91.0454L141.441 93.596L145.151 91.0454" stroke="white" stroke-width="0.579677" stroke-miterlimit="10"/>
<path d="M154.89 88.4949L158.832 90.8136L162.773 88.4949L166.715 90.8136L170.657 88.4949" stroke="white" stroke-width="0.579677" stroke-miterlimit="10"/>
<path d="M154.89 90.8136L158.832 93.3642L162.773 90.8136L166.715 93.3642L170.657 90.8136" stroke="white" stroke-width="0.579677" stroke-miterlimit="10"/>
<path d="M180.164 88.2629L184.105 90.8135L188.047 88.2629L191.989 90.8135L195.931 88.2629" stroke="white" stroke-width="0.579677" stroke-miterlimit="10"/>
<path d="M180.164 90.8136L184.105 93.1323L188.047 90.8136L191.989 93.1323L195.931 90.8136" stroke="white" stroke-width="0.579677" stroke-miterlimit="10"/>
<path d="M205.669 88.0311L209.379 90.5817L213.321 88.0311L217.263 90.5817L221.205 88.0311" stroke="white" stroke-width="0.579677" stroke-miterlimit="10"/>
<path d="M205.669 90.5817L209.379 93.1322L213.321 90.5817L217.263 93.1322L221.205 90.5817" stroke="white" stroke-width="0.579677" stroke-miterlimit="10"/>
<path d="M230.943 88.0311L234.885 90.3498L238.595 88.0311L242.537 90.3498L246.479 88.0311" stroke="white" stroke-width="0.579677" stroke-miterlimit="10"/>
<path d="M230.943 90.3499L234.885 92.9004L238.595 90.3499L242.537 92.9004L246.479 90.3499" stroke="white" stroke-width="0.579677" stroke-miterlimit="10"/>
<path d="M256.217 87.7993L260.159 90.3499L264.101 87.7993L267.811 90.3499L271.753 87.7993" stroke="white" stroke-width="0.579677" stroke-miterlimit="10"/>
<path d="M256.217 90.3499L260.159 92.9004L264.101 90.3499L267.811 92.9004L271.753 90.3499" stroke="white" stroke-width="0.579677" stroke-miterlimit="10"/>
<path d="M91.8209 79.6838L95.7627 82.2344L99.7045 79.6838L103.646 82.2344L107.356 79.6838" stroke="white" stroke-width="0.579677" stroke-miterlimit="10"/>
<path d="M91.8209 82.2344L95.7627 84.785L99.7045 82.2344L103.646 84.785L107.356 82.2344" stroke="white" stroke-width="0.579677" stroke-miterlimit="10"/>
<path d="M117.095 79.6838L121.037 82.0025L124.978 79.6838L128.92 82.0025L132.63 79.6838" stroke="white" stroke-width="0.579677" stroke-miterlimit="10"/>
<path d="M117.095 82.0024L121.037 84.553L124.978 82.0024L128.92 84.553L132.63 82.0024" stroke="white" stroke-width="0.579677" stroke-miterlimit="10"/>
<path d="M142.369 79.4519L146.311 82.0025L150.252 79.4519L154.194 82.0025L158.136 79.4519" stroke="white" stroke-width="0.579677" stroke-miterlimit="10"/>
<path d="M142.369 82.0024L146.311 84.3211L150.252 82.0024L154.194 84.3211L158.136 82.0024" stroke="white" stroke-width="0.579677" stroke-miterlimit="10"/>
<path d="M167.875 79.2201L171.584 81.7707L175.526 79.2201L179.468 81.7707L183.41 79.2201" stroke="white" stroke-width="0.579677" stroke-miterlimit="10"/>
<path d="M167.875 81.7706L171.584 84.3212L175.526 81.7706L179.468 84.3212L183.41 81.7706" stroke="white" stroke-width="0.579677" stroke-miterlimit="10"/>
<path d="M193.148 79.2201L197.09 81.7707L200.8 79.2201L204.742 81.7707L208.684 79.2201" stroke="white" stroke-width="0.579677" stroke-miterlimit="10"/>
<path d="M193.148 81.7706L197.09 84.0893L200.8 81.7706L204.742 84.0893L208.684 81.7706" stroke="white" stroke-width="0.579677" stroke-miterlimit="10"/>
<path d="M218.422 78.9882L222.364 81.5387L226.306 78.9882L230.016 81.5387L233.958 78.9882" stroke="white" stroke-width="0.579677" stroke-miterlimit="10"/>
<path d="M218.422 81.5387L222.364 84.0893L226.306 81.5387L230.016 84.0893L233.958 81.5387" stroke="white" stroke-width="0.579677" stroke-miterlimit="10"/>
<path d="M243.696 78.9882L247.638 81.3069L251.58 78.9882L255.29 81.3069L259.232 78.9882" stroke="white" stroke-width="0.579677" stroke-miterlimit="10"/>
<path d="M243.696 81.3069L247.638 83.8575L251.58 81.3069L255.29 83.8575L259.232 81.3069" stroke="white" stroke-width="0.579677" stroke-miterlimit="10"/>
<path d="M79.068 70.1771L83.0098 72.7277L86.7198 70.1771L90.6616 72.7277L94.6034 70.1771" stroke="white" stroke-width="0.579677" stroke-miterlimit="10"/>
<path d="M79.068 72.7277L83.0098 75.0464L86.7198 72.7277L90.6616 75.0464L94.6034 72.7277" stroke="white" stroke-width="0.579677" stroke-miterlimit="10"/>
<path d="M104.342 69.9452L108.284 72.4958L112.225 69.9452L115.935 72.4958L119.877 69.9452" stroke="white" stroke-width="0.579677" stroke-miterlimit="10"/>
<path d="M104.342 72.4957L108.284 75.0463L112.225 72.4957L115.935 75.0463L119.877 72.4957" stroke="white" stroke-width="0.579677" stroke-miterlimit="10"/>
<path d="M129.616 69.9452L133.558 72.2639L137.499 69.9452L141.441 72.2639L145.151 69.9452" stroke="white" stroke-width="0.579677" stroke-miterlimit="10"/>
<path d="M129.616 72.2639L133.558 74.8145L137.499 72.2639L141.441 74.8145L145.151 72.2639" stroke="white" stroke-width="0.579677" stroke-miterlimit="10"/>
<path d="M154.89 69.7134L158.832 72.264L162.773 69.7134L166.715 72.264L170.657 69.7134" stroke="white" stroke-width="0.579677" stroke-miterlimit="10"/>
<path d="M154.89 72.2639L158.832 74.8145L162.773 72.2639L166.715 74.8145L170.657 72.2639" stroke="white" stroke-width="0.579677" stroke-miterlimit="10"/>
<path d="M180.164 69.7134L184.105 72.0321L188.047 69.7134L191.989 72.0321L195.931 69.7134" stroke="white" stroke-width="0.579677" stroke-miterlimit="10"/>
<path d="M180.164 72.0321L184.105 74.5827L188.047 72.0321L191.989 74.5827L195.931 72.0321" stroke="white" stroke-width="0.579677" stroke-miterlimit="10"/>
<path d="M205.669 69.4814L209.379 72.032L213.321 69.4814L217.263 72.032L221.205 69.4814" stroke="white" stroke-width="0.579677" stroke-miterlimit="10"/>
<path d="M205.669 72.0321L209.379 74.3508L213.321 72.0321L217.263 74.3508L221.205 72.0321" stroke="white" stroke-width="0.579677" stroke-miterlimit="10"/>
<path d="M230.943 69.2496L234.885 71.8002L238.595 69.2496L242.537 71.8002L246.479 69.2496" stroke="white" stroke-width="0.579677" stroke-miterlimit="10"/>
<path d="M230.943 71.8002L234.885 74.3508L238.595 71.8002L242.537 74.3508L246.479 71.8002" stroke="white" stroke-width="0.579677" stroke-miterlimit="10"/>
<path d="M256.217 69.2496L260.159 71.5683L264.101 69.2496L267.811 71.5683L271.753 69.2496" stroke="white" stroke-width="0.579677" stroke-miterlimit="10"/>
<path d="M256.217 71.5684L260.159 74.1189L264.101 71.5684L267.811 74.1189L271.753 71.5684" stroke="white" stroke-width="0.579677" stroke-miterlimit="10"/>
<path d="M91.8209 61.1342L95.7627 63.6847L99.7045 61.1342L103.646 63.6847L107.356 61.1342" stroke="white" stroke-width="0.579677" stroke-miterlimit="10"/>
<path d="M91.8209 63.6847L95.7627 66.0034L99.7045 63.6847L103.646 66.0034L107.356 63.6847" stroke="white" stroke-width="0.579677" stroke-miterlimit="10"/>
<path d="M117.095 60.9022L121.037 63.4528L124.978 60.9022L128.92 63.4528L132.63 60.9022" stroke="white" stroke-width="0.579677" stroke-miterlimit="10"/>
<path d="M117.095 63.4529L121.037 66.0035L124.978 63.4529L128.92 66.0035L132.63 63.4529" stroke="white" stroke-width="0.579677" stroke-miterlimit="10"/>
<path d="M142.369 60.9022L146.311 63.2209L150.252 60.9022L154.194 63.2209L158.136 60.9022" stroke="white" stroke-width="0.579677" stroke-miterlimit="10"/>
<path d="M142.369 63.2209L146.311 65.7715L150.252 63.2209L154.194 65.7715L158.136 63.2209" stroke="white" stroke-width="0.579677" stroke-miterlimit="10"/>
<path d="M167.875 60.6704L171.584 63.221L175.526 60.6704L179.468 63.221L183.41 60.6704" stroke="white" stroke-width="0.579677" stroke-miterlimit="10"/>
<path d="M167.875 63.2209L171.584 65.5397L175.526 63.2209L179.468 65.5397L183.41 63.2209" stroke="white" stroke-width="0.579677" stroke-miterlimit="10"/>
<path d="M193.148 60.4385L197.09 62.9891L200.8 60.4385L204.742 62.9891L208.684 60.4385" stroke="white" stroke-width="0.579677" stroke-miterlimit="10"/>
<path d="M193.148 62.9891L197.09 65.5397L200.8 62.9891L204.742 65.5397L208.684 62.9891" stroke="white" stroke-width="0.579677" stroke-miterlimit="10"/>
<path d="M218.422 60.4385L222.364 62.9891L226.306 60.4385L230.016 62.9891L233.958 60.4385" stroke="white" stroke-width="0.579677" stroke-miterlimit="10"/>
<path d="M218.422 62.9891L222.364 65.3078L226.306 62.9891L230.016 65.3078L233.958 62.9891" stroke="white" stroke-width="0.579677" stroke-miterlimit="10"/>
<path d="M243.696 60.2067L247.638 62.7572L251.58 60.2067L255.29 62.7572L259.232 60.2067" stroke="white" stroke-width="0.579677" stroke-miterlimit="10"/>
<path d="M243.696 62.7572L247.638 65.3078L251.58 62.7572L255.29 65.3078L259.232 62.7572" stroke="white" stroke-width="0.579677" stroke-miterlimit="10"/>
<path d="M79.068 51.6274L83.0098 53.9461L86.7198 51.6274L90.6616 53.9461L94.6034 51.6274" stroke="white" stroke-width="0.579677" stroke-miterlimit="10"/>
<path d="M79.068 53.9462L83.0098 56.4967L86.7198 53.9462L90.6616 56.4967L94.6034 53.9462" stroke="white" stroke-width="0.579677" stroke-miterlimit="10"/>
<path d="M104.342 51.3955L108.284 53.9461L112.225 51.3955L115.935 53.9461L119.877 51.3955" stroke="white" stroke-width="0.579677" stroke-miterlimit="10"/>
<path d="M104.342 53.9462L108.284 56.2649L112.225 53.9462L115.935 56.2649L119.877 53.9462" stroke="white" stroke-width="0.579677" stroke-miterlimit="10"/>
<path d="M129.616 51.1637L133.558 53.7143L137.499 51.1637L141.441 53.7143L145.151 51.1637" stroke="white" stroke-width="0.579677" stroke-miterlimit="10"/>
<path d="M129.616 53.7142L133.558 56.2648L137.499 53.7142L141.441 56.2648L145.151 53.7142" stroke="white" stroke-width="0.579677" stroke-miterlimit="10"/>
<path d="M154.89 51.1637L158.832 53.4824L162.773 51.1637L166.715 53.4824L170.657 51.1637" stroke="white" stroke-width="0.579677" stroke-miterlimit="10"/>
<path d="M154.89 53.4824L158.832 56.033L162.773 53.4824L166.715 56.033L170.657 53.4824" stroke="white" stroke-width="0.579677" stroke-miterlimit="10"/>
<path d="M180.164 50.9318L184.105 53.4823L188.047 50.9318L191.989 53.4823L195.931 50.9318" stroke="white" stroke-width="0.579677" stroke-miterlimit="10"/>
<path d="M180.164 53.4824L184.105 56.033L188.047 53.4824L191.989 56.033L195.931 53.4824" stroke="white" stroke-width="0.579677" stroke-miterlimit="10"/>
<path d="M205.669 50.9318L209.379 53.2505L213.321 50.9318L217.263 53.2505L221.205 50.9318" stroke="white" stroke-width="0.579677" stroke-miterlimit="10"/>
<path d="M205.669 53.2505L209.379 55.8011L213.321 53.2505L217.263 55.8011L221.205 53.2505" stroke="white" stroke-width="0.579677" stroke-miterlimit="10"/>
<path d="M230.943 50.7L234.885 53.2505L238.595 50.7L242.537 53.2505L246.479 50.7" stroke="white" stroke-width="0.579677" stroke-miterlimit="10"/>
<path d="M230.943 53.2505L234.885 55.5692L238.595 53.2505L242.537 55.5692L246.479 53.2505" stroke="white" stroke-width="0.579677" stroke-miterlimit="10"/>
<path d="M256.217 50.468L260.159 53.0186L264.101 50.468L267.811 53.0186L271.753 50.468" stroke="white" stroke-width="0.579677" stroke-miterlimit="10"/>
<path d="M256.217 53.0187L260.159 55.5693L264.101 53.0187L267.811 55.5693L271.753 53.0187" stroke="white" stroke-width="0.579677" stroke-miterlimit="10"/>
<path d="M91.8209 44.9032L95.7627 47.4538L99.7045 44.9032L103.646 47.4538L107.356 44.9032" stroke="white" stroke-width="0.579677" stroke-miterlimit="10"/>
<path d="M117.095 44.9032L121.037 47.2219L124.978 44.9032L128.92 47.2219L132.63 44.9032" stroke="white" stroke-width="0.579677" stroke-miterlimit="10"/>
<path d="M142.369 44.6713L146.311 47.2218L150.252 44.6713L154.194 47.2218L158.136 44.6713" stroke="white" stroke-width="0.579677" stroke-miterlimit="10"/>
<path d="M167.875 44.4395L171.584 46.99L175.526 44.4395L179.468 46.99L183.41 44.4395" stroke="white" stroke-width="0.579677" stroke-miterlimit="10"/>
<path d="M193.148 44.4395L197.09 46.7582L200.8 44.4395L204.742 46.7582L208.684 44.4395" stroke="white" stroke-width="0.579677" stroke-miterlimit="10"/>
<path d="M218.422 44.2075L222.364 46.7581L226.306 44.2075L230.016 46.7581L233.958 44.2075" stroke="white" stroke-width="0.579677" stroke-miterlimit="10"/>
<path d="M243.696 44.2075L247.638 46.5262L251.58 44.2075L255.29 46.5262L259.232 44.2075" stroke="white" stroke-width="0.579677" stroke-miterlimit="10"/>
</g>
<path d="M174.599 106.813C174.599 106.349 174.83 103.798 175.062 101.48C174.599 102.639 173.903 103.566 172.512 104.726C166.483 109.595 157.44 111.682 157.44 111.682V111.45C157.44 111.682 157.208 112.146 157.208 112.378C156.513 116.319 156.745 120.261 157.672 123.275C155.585 127.913 151.412 137.42 152.107 140.666C152.803 144.839 154.89 145.071 159.063 141.825C162.309 139.043 165.556 132.782 167.179 129.072C167.874 129.072 168.57 128.84 169.497 128.608C174.599 127.449 177.613 124.435 180.395 119.102C178.772 118.174 175.062 114.233 174.599 106.813Z" fill="#E897A3"/>
<path d="M181.091 101.248C181.787 102.175 182.714 103.103 182.946 104.494C182.714 103.335 182.018 102.175 181.091 101.248Z" fill="#E897A3"/>
<path d="M175.294 97.7697C177.845 98.6971 179.932 99.8565 181.323 101.248C178.772 98.6971 175.294 97.7697 175.294 97.7697Z" fill="#44A1DB"/>
<path d="M183.178 104.494C183.178 104.726 183.178 104.726 183.41 104.958C183.178 104.726 183.178 104.726 183.178 104.494Z" fill="#44A1DB"/>
<path d="M183.41 108.436C183.41 108.899 183.41 109.131 183.178 109.595C183.41 109.363 183.41 108.899 183.41 108.436Z" fill="#44A1DB"/>
<path d="M183.41 108.436C183.41 107.508 183.41 106.581 183.41 105.885C183.41 105.653 183.41 105.421 183.178 105.189C183.41 106.117 183.642 107.276 183.41 108.436Z" fill="#44A1DB"/>
<path d="M183.178 105.19V104.958C183.178 104.726 183.178 104.726 182.946 104.494C182.482 103.335 181.787 102.175 181.091 101.248C179.7 99.8565 177.845 98.6971 175.062 97.7696C175.062 97.7696 167.874 94.5235 163.005 98.6971C158.831 102.407 157.208 109.595 156.977 111.218C156.977 111.45 156.977 111.45 156.977 111.45C156.977 111.45 166.019 109.363 172.048 104.494C173.439 103.335 174.135 102.175 174.599 101.248C174.367 103.566 174.135 106.117 174.135 106.581C174.831 114.232 178.541 117.942 179.7 118.87C180.395 117.479 181.091 115.856 181.787 114.001C182.25 112.377 182.714 110.986 182.946 109.827C182.946 109.827 182.946 109.827 182.946 109.595C182.946 109.131 183.178 108.668 183.178 108.436C183.642 107.276 183.41 106.117 183.178 105.19Z" fill="#3844E5"/>
<path d="M313.352 126.377C313.721 116.651 288.915 107.814 257.947 106.639C226.978 105.463 201.574 112.394 201.205 122.12C200.836 131.846 225.641 140.683 256.61 141.858C287.579 143.034 312.983 136.102 313.352 126.377Z" fill="#F39684"/>
<mask id="mask1" mask-type="alpha" maskUnits="userSpaceOnUse" x="201" y="106" width="113" height="36">
<path d="M313.352 126.377C313.721 116.651 288.915 107.814 257.947 106.639C226.978 105.463 201.574 112.394 201.205 122.12C200.836 131.846 225.641 140.683 256.61 141.858C287.579 143.034 312.983 136.103 313.352 126.377Z" fill="#F39684"/>
</mask>
<g mask="url(#mask1)">
<path d="M201.032 117.479V144.376" stroke="#44A1DB" stroke-width="0.579677" stroke-miterlimit="10"/>
<path d="M203.815 117.479V144.376" stroke="#44A1DB" stroke-width="0.579677" stroke-miterlimit="10"/>
<path d="M206.597 117.479V144.376" stroke="#44A1DB" stroke-width="0.579677" stroke-miterlimit="10"/>
<path d="M209.148 117.479V144.376" stroke="#44A1DB" stroke-width="0.579677" stroke-miterlimit="10"/>
<path d="M211.93 117.479V144.376" stroke="#44A1DB" stroke-width="0.579677" stroke-miterlimit="10"/>
<path d="M214.713 117.479V144.376" stroke="#44A1DB" stroke-width="0.579677" stroke-miterlimit="10"/>
<path d="M217.263 117.479V144.376" stroke="#44A1DB" stroke-width="0.579677" stroke-miterlimit="10"/>
<path d="M220.046 117.479V144.376" stroke="#44A1DB" stroke-width="0.579677" stroke-miterlimit="10"/>
<path d="M222.828 117.479V144.376" stroke="#44A1DB" stroke-width="0.579677" stroke-miterlimit="10"/>
<path d="M225.611 117.479V144.376" stroke="#44A1DB" stroke-width="0.579677" stroke-miterlimit="10"/>
<path d="M228.857 127.217V144.376" stroke="#44A1DB" stroke-width="0.579677" stroke-miterlimit="10"/>
<path d="M231.871 127.217V144.376" stroke="#44A1DB" stroke-width="0.579677" stroke-miterlimit="10"/>
<path d="M235.117 127.217V144.376" stroke="#44A1DB" stroke-width="0.579677" stroke-miterlimit="10"/>
<path d="M238.131 127.217V144.376" stroke="#44A1DB" stroke-width="0.579677" stroke-miterlimit="10"/>
<path d="M241.378 127.217V144.376" stroke="#44A1DB" stroke-width="0.579677" stroke-miterlimit="10"/>
<path d="M244.392 127.217V144.376" stroke="#44A1DB" stroke-width="0.579677" stroke-miterlimit="10"/>
<path d="M247.638 127.217V144.376" stroke="#44A1DB" stroke-width="0.579677" stroke-miterlimit="10"/>
<path d="M250.652 127.217V144.376" stroke="#44A1DB" stroke-width="0.579677" stroke-miterlimit="10"/>
<path d="M253.899 127.217V144.376" stroke="#44A1DB" stroke-width="0.579677" stroke-miterlimit="10"/>
<path d="M256.913 127.217V144.376" stroke="#44A1DB" stroke-width="0.579677" stroke-miterlimit="10"/>
<path d="M260.159 127.217V144.376" stroke="#44A1DB" stroke-width="0.579677" stroke-miterlimit="10"/>
<path d="M263.405 127.217V144.376" stroke="#44A1DB" stroke-width="0.579677" stroke-miterlimit="10"/>
<path d="M266.42 127.217V144.376" stroke="#44A1DB" stroke-width="0.579677" stroke-miterlimit="10"/>
<path d="M269.666 127.217V144.376" stroke="#44A1DB" stroke-width="0.579677" stroke-miterlimit="10"/>
<path d="M272.68 127.217V144.376" stroke="#44A1DB" stroke-width="0.579677" stroke-miterlimit="10"/>
<path d="M275.926 127.217V144.376" stroke="#44A1DB" stroke-width="0.579677" stroke-miterlimit="10"/>
<path d="M278.941 127.217V144.376" stroke="#44A1DB" stroke-width="0.579677" stroke-miterlimit="10"/>
<path d="M282.187 127.217V144.376" stroke="#44A1DB" stroke-width="0.579677" stroke-miterlimit="10"/>
<path d="M285.201 127.217V144.376" stroke="#44A1DB" stroke-width="0.579677" stroke-miterlimit="10"/>
<path d="M288.447 127.217V144.376" stroke="#44A1DB" stroke-width="0.579677" stroke-miterlimit="10"/>
<path d="M291.694 127.217V144.376" stroke="#44A1DB" stroke-width="0.579677" stroke-miterlimit="10"/>
<path d="M294.476 127.217V144.376" stroke="#44A1DB" stroke-width="0.579677" stroke-miterlimit="10"/>
<path d="M297.259 127.217V144.376" stroke="#44A1DB" stroke-width="0.579677" stroke-miterlimit="10"/>
<path d="M300.041 127.217V144.376" stroke="#44A1DB" stroke-width="0.579677" stroke-miterlimit="10"/>
<path d="M302.592 127.217V144.376" stroke="#44A1DB" stroke-width="0.579677" stroke-miterlimit="10"/>
<path d="M305.374 127.217V144.376" stroke="#44A1DB" stroke-width="0.579677" stroke-miterlimit="10"/>
<path d="M308.156 127.217V144.376" stroke="#44A1DB" stroke-width="0.579677" stroke-miterlimit="10"/>
<path d="M310.939 127.217V144.376" stroke="#44A1DB" stroke-width="0.579677" stroke-miterlimit="10"/>
</g>
<path d="M313.283 124.588C313.652 114.862 288.847 106.025 257.878 104.85C226.91 103.674 201.505 110.606 201.136 120.331C200.767 130.057 225.573 138.894 256.541 140.07C287.51 141.245 312.914 134.314 313.283 124.588Z" fill="#F39684"/>
<mask id="mask2" mask-type="alpha" maskUnits="userSpaceOnUse" x="201" y="104" width="113" height="37">
<path d="M313.283 124.588C313.652 114.862 288.847 106.025 257.878 104.85C226.91 103.674 201.505 110.606 201.136 120.331C200.767 130.057 225.573 138.894 256.541 140.07C287.51 141.245 312.914 134.314 313.283 124.588Z" fill="#F39684"/>
</mask>
<g mask="url(#mask2)">
<path d="M222.828 99.1609L210.771 136.492" stroke="white" stroke-width="0.579677" stroke-miterlimit="10"/>
<path d="M230.48 99.1609L221.205 136.492" stroke="white" stroke-width="0.579677" stroke-miterlimit="10"/>
<path d="M238.131 99.1609L231.407 136.492" stroke="white" stroke-width="0.579677" stroke-miterlimit="10"/>
<path d="M245.783 99.1609L241.841 136.492" stroke="white" stroke-width="0.579677" stroke-miterlimit="10"/>
<path d="M253.435 99.1609L252.044 136.492" stroke="white" stroke-width="0.579677" stroke-miterlimit="10"/>
<path d="M261.086 99.1609L262.246 136.492" stroke="white" stroke-width="0.579677" stroke-miterlimit="10"/>
<path d="M268.97 99.1609L272.68 136.492" stroke="white" stroke-width="0.579677" stroke-miterlimit="10"/>
<path d="M276.622 99.1609L282.882 136.492" stroke="white" stroke-width="0.579677" stroke-miterlimit="10"/>
<path d="M284.273 99.1609L293.316 136.492" stroke="white" stroke-width="0.579677" stroke-miterlimit="10"/>
<path d="M291.925 99.1609L303.519 136.492" stroke="white" stroke-width="0.579677" stroke-miterlimit="10"/>
<path d="M198.945 139.97H316.504" stroke="white" stroke-width="0.579677" stroke-miterlimit="10"/>
<path d="M201.032 134.637H314.417" stroke="white" stroke-width="0.579677" stroke-miterlimit="10"/>
<path d="M203.119 129.536H312.562" stroke="white" stroke-width="0.579677" stroke-miterlimit="10"/>
<path d="M205.206 124.203H310.475" stroke="white" stroke-width="0.579677" stroke-miterlimit="10"/>
<path d="M207.061 119.102H308.388" stroke="white" stroke-width="0.579677" stroke-miterlimit="10"/>
<path d="M209.147 113.769H306.301" stroke="white" stroke-width="0.579677" stroke-miterlimit="10"/>
<path d="M211.234 108.668H304.446" stroke="white" stroke-width="0.579677" stroke-miterlimit="10"/>
<path d="M308.86 120.763C309.138 112.7 286.642 105.38 258.614 104.413C230.586 103.446 207.64 109.198 207.361 117.261C207.083 125.324 229.579 132.644 257.607 133.611C285.635 134.578 308.582 128.825 308.86 120.763Z" stroke="white" stroke-width="0.579677" stroke-miterlimit="10"/>
</g>
<path d="M303.287 130C303.287 130 303.983 133.941 307.924 133.941C311.866 133.941 312.098 129.304 312.098 129.304C312.098 129.304 313.026 130.695 315.344 130C318.822 128.608 318.59 125.13 318.59 125.13C318.59 125.13 319.75 127.217 322.069 122.812C324.387 118.406 318.359 101.248 296.099 78.0606C287.288 69.0176 273.839 59.7428 258.768 54.4098L243.232 90.8135C243.464 90.8135 243.464 90.8135 243.696 91.0454C284.042 103.335 303.287 130 303.287 130Z" fill="#E897A3"/>
<path d="M260.391 63.4528C260.391 63.4528 267.347 65.7715 270.361 61.5978C273.144 57.8879 267.115 54.6417 267.115 54.6417" stroke="#660000" stroke-width="0.579677" stroke-miterlimit="10" stroke-linejoin="round"/>
<path d="M324.387 103.103C324.387 103.103 327.633 110.523 328.329 114.001" stroke="#660000" stroke-width="0.579677" stroke-miterlimit="10" stroke-linejoin="round"/>
<path d="M303.055 64.1484C303.055 64.1484 320.677 76.9013 330.416 103.103" stroke="#660000" stroke-width="0.579677" stroke-miterlimit="10" stroke-linejoin="round"/>
<path d="M116.863 86.1762C116.863 86.1762 127.065 72.032 139.354 64.1484" stroke="#660000" stroke-width="0.579677" stroke-miterlimit="10" stroke-linejoin="round"/>
<path d="M113.385 90.8135C113.617 90.5816 111.066 93.8278 109.211 96.3784" stroke="#660000" stroke-width="0.579677" stroke-miterlimit="10" stroke-linejoin="round"/>
<path d="M116.167 80.3793C116.167 80.3793 129.152 64.1483 143.992 56.4966" stroke="#660000" stroke-width="0.579677" stroke-miterlimit="10" stroke-linejoin="round"/>
<path d="M277.549 54.4098L288.911 66.9308L296.331 55.5691L277.549 54.4098Z" fill="#D63C30"/>
<path d="M289.607 60.9022C289.607 60.9022 310.011 74.1189 321.141 96.8422" stroke="#660000" stroke-width="0.579677" stroke-miterlimit="10" stroke-linejoin="round"/>
<path d="M155.353 53.2505L151.412 48.1493L145.151 55.801L155.353 53.2505Z" fill="#45A0D4"/>
<path d="M152.571 51.8592C152.571 51.8592 159.991 47.9174 166.483 46.2943" stroke="#660000" stroke-width="0.579677" stroke-miterlimit="10" stroke-linejoin="round"/>
<path d="M223.523 142.984C204.51 146.694 177.613 149.013 147.47 149.013C90.1978 149.013 43.8236 140.666 43.8236 130.232" stroke="#660000" stroke-width="0.579677" stroke-miterlimit="10" stroke-linejoin="round"/>
<path d="M187.352 112.609C193.148 113.073 198.713 113.537 203.814 114.232" stroke="#660000" stroke-width="0.579677" stroke-miterlimit="10" stroke-linejoin="round"/>
<path d="M53.794 122.348C61.9095 119.102 74.8943 116.319 90.8934 114.232C92.0527 114.001 92.9802 114.001 94.1395 113.769" stroke="#660000" stroke-width="0.579677" stroke-miterlimit="10" stroke-linejoin="round"/>
<path d="M11.1298 130.695H44.0554" stroke="#660000" stroke-width="0.579677" stroke-miterlimit="10" stroke-linejoin="round"/>
<path d="M32.6937 122.348H54.0258" stroke="#660000" stroke-width="0.579677" stroke-miterlimit="10" stroke-linejoin="round"/>
<path d="M0 130.695H4.17367" stroke="#660000" stroke-width="0.579677" stroke-miterlimit="10" stroke-linejoin="round"/>
<path d="M4.17365 133.014H27.5926" stroke="#660000" stroke-width="0.579677" stroke-miterlimit="10" stroke-linejoin="round"/>
</g>
<defs>
<clipPath id="clip0">
<rect width="330.648" height="149.557" fill="white" transform="translate(0 0.847656)"/>
</clipPath>
</defs>
</svg>
