<svg width="377" height="434" viewBox="0 0 377 434" fill="none" xmlns="http://www.w3.org/2000/svg">
<g clip-path="url(#clip0)">
<path d="M140.707 58.4296C124.245 73.2693 126.795 107.354 93.1739 113.151C59.5526 118.948 26.8589 117.557 32.6556 155.352C38.4524 193.146 6.6861 209.609 9.23668 236.738C11.7873 263.867 50.2778 340.153 160.648 295.633C198.211 280.562 223.485 346.181 258.73 302.126C291.655 261.085 245.281 243.231 278.207 206.595C311.132 169.959 289.337 113.383 242.035 88.8046C194.733 64.2263 181.285 21.5621 140.707 58.4296Z" fill="#F8F9FF"/>
<path d="M43.5535 211.232C43.5535 211.232 54.6833 183.176 73.001 166.249C86.9133 153.497 108.941 141.903 110.1 145.149C111.26 148.395 108.941 148.164 110.1 149.091C111.26 150.019 113.81 147.236 115.897 148.859C117.984 150.482 111.492 153.497 112.419 154.888C113.347 156.047 116.129 154.424 116.129 156.511C116.129 159.989 104.767 159.757 96.6519 170.423C89.0001 180.394 87.8408 192.915 87.8408 192.915L43.5535 211.232Z" fill="#E897A3"/>
<path d="M130.041 230.014C130.041 230.014 142.099 227.463 151.142 219.116C160.185 210.537 160.88 206.363 163.199 206.827C165.518 207.291 164.822 210.073 165.981 210.073C168.3 209.841 168.996 205.899 172.242 207.291C175.488 208.682 172.242 212.16 173.633 212.624C175.024 213.087 176.416 211.464 177.343 214.942C178.039 217.493 159.953 236.738 146.272 249.027C135.143 258.998 127.723 264.331 127.723 264.331L130.041 230.014Z" fill="#E897A3"/>
<path d="M88.3047 198.248C88.3047 198.248 89.464 205.668 97.3476 214.015C105.231 222.362 124.708 229.318 124.708 229.318C124.708 229.318 110.101 240.216 92.7102 235.347C67.4363 228.623 71.1462 205.436 88.3047 198.248Z" fill="#E897A3"/>
<path d="M127.723 417.829C125.172 415.047 118.912 414.119 114.042 413.656C107.782 413.192 106.854 404.845 101.753 402.294C100.362 399.743 95.2607 390.469 89.4639 379.571C86.4496 373.542 81.1166 366.818 78.1023 361.021C76.2473 357.311 75.5517 353.833 74.8561 350.123C74.1605 346.645 74.1605 343.167 74.1605 339.689C73.9286 339.689 73.6967 339.921 73.6967 339.921C73.6967 339.921 67.4362 334.124 44.481 331.11C35.6699 329.95 20.1346 331.341 19.9027 331.341C22.4533 347.109 28.9457 365.195 43.3217 380.266C78.3341 416.438 96.6519 420.148 96.6519 420.148C99.4344 425.017 103.608 430.814 108.709 432.669C113.81 434.292 115.897 433.365 117.984 432.901C118.448 432.901 121.926 432.437 122.621 431.51C123.317 430.35 122.158 429.655 122.39 429.191C122.621 428.959 125.404 428.495 126.1 428.032C127.027 427.336 125.636 425.713 125.636 425.481C125.868 425.017 128.418 425.713 129.114 424.554C129.578 423.858 128.186 422.93 128.418 422.699C128.882 421.771 132.128 422.003 130.505 419.684C130.505 418.757 128.186 418.525 127.723 417.829Z" fill="#E897A3"/>
<path d="M127.491 264.563L131.664 229.782L126.331 229.318C126.331 229.318 103.84 243.462 85.0583 231.173C66.2768 218.884 88.0727 198.48 88.0727 198.48L87.6089 192.915L43.0897 211.464C43.0897 211.464 36.1336 231.173 34.0468 242.767C32.6556 249.723 26.8588 265.026 22.917 277.547C13.1784 307.227 19.9027 331.573 19.9027 331.573C19.9027 331.573 35.438 330.182 44.481 331.341C67.4362 334.356 73.6967 340.153 73.6967 340.153C73.6967 340.153 73.9285 340.153 74.1604 339.921C76.9429 338.993 91.3189 334.588 95.7244 333.66C101.985 332.269 117.752 330.646 117.752 330.646C117.752 330.646 123.549 299.111 113.347 282.185C109.405 275.229 127.491 264.563 127.491 264.563Z" fill="#3844E5"/>
<path d="M136.07 214.942C134.679 217.493 132.824 217.725 133.751 219.116C134.447 220.507 137.461 219.348 138.157 216.565C138.621 214.015 136.997 213.551 136.07 214.942Z" fill="#D63C30"/>
<mask id="mask0" mask-type="alpha" maskUnits="userSpaceOnUse" x="17" y="192" width="115" height="149">
<path d="M127.491 264.563L131.664 229.782L126.331 229.318C126.331 229.318 103.84 243.462 85.0583 231.173C66.2768 218.884 88.0727 198.48 88.0727 198.48L87.6089 192.915L43.0897 211.464C43.0897 211.464 36.1336 231.173 34.0468 242.767C32.6556 249.723 26.8588 265.026 22.917 277.547C13.1784 307.227 19.9027 331.573 19.9027 331.573C19.9027 331.573 35.438 330.182 44.481 331.341C67.4362 334.356 73.6967 340.153 73.6967 340.153C73.6967 340.153 73.9285 340.153 74.1604 339.921C76.9429 338.993 91.3189 334.588 95.7244 333.66C101.985 332.269 117.752 330.646 117.752 330.646C117.752 330.646 123.549 299.111 113.347 282.185C109.405 275.229 127.491 264.563 127.491 264.563Z" fill="#3844E5"/>
</mask>
<g mask="url(#mask0)">
<path d="M112.883 341.312C112.883 341.312 110.564 339.457 109.173 341.312C108.014 343.167 111.26 344.326 111.26 344.326C111.26 344.326 109.637 345.717 111.492 347.109C113.579 348.732 115.202 347.341 115.202 347.341C115.202 347.341 115.202 348.964 117.057 348.964C118.448 349.196 118.68 347.341 118.68 347.341C118.68 347.341 121.462 348.964 122.39 346.877C123.085 345.254 119.143 343.863 119.143 343.863C119.143 343.863 120.071 342.471 118.912 341.544C117.752 340.616 116.129 341.544 116.129 341.544C116.129 341.544 115.434 338.761 112.883 341.312Z" stroke="white" stroke-width="0.579677" stroke-miterlimit="10"/>
<path d="M119.143 325.081C119.143 325.081 116.825 323.226 115.434 325.081C114.274 326.936 117.52 328.095 117.52 328.095C117.52 328.095 115.897 329.487 117.752 330.878C119.839 332.501 121.462 331.11 121.462 331.11C121.462 331.11 121.462 332.733 123.317 332.733C124.708 332.965 124.94 331.11 124.94 331.11C124.94 331.11 127.723 332.733 128.65 330.646C129.346 329.023 125.404 327.632 125.404 327.632C125.404 327.632 126.331 326.24 125.172 325.313C124.013 324.385 122.39 325.313 122.39 325.313C122.39 325.313 121.694 322.299 119.143 325.081Z" stroke="white" stroke-width="0.579677" stroke-miterlimit="10"/>
<path d="M125.636 308.618C125.636 308.618 123.317 306.763 121.926 308.618C120.766 310.473 124.013 311.632 124.013 311.632C124.013 311.632 122.39 313.024 124.245 314.415C126.331 316.038 127.954 314.647 127.954 314.647C127.954 314.647 127.954 316.27 129.809 316.27C131.201 316.502 131.433 314.647 131.433 314.647C131.433 314.647 134.215 316.27 135.142 314.183C135.838 312.56 131.896 311.169 131.896 311.169C131.896 311.169 132.824 309.777 131.664 308.85C130.505 307.923 128.882 308.85 128.882 308.85C128.882 308.85 127.954 306.068 125.636 308.618Z" stroke="white" stroke-width="0.579677" stroke-miterlimit="10"/>
<path d="M131.896 292.387C131.896 292.387 129.578 290.532 128.186 292.387C127.027 294.242 130.273 295.401 130.273 295.401C130.273 295.401 128.65 296.793 130.505 298.184C132.592 299.807 134.215 298.416 134.215 298.416C134.215 298.416 134.215 300.039 136.07 300.039C137.461 300.271 137.693 298.416 137.693 298.416C137.693 298.416 140.476 300.039 141.403 297.952C142.099 296.329 138.157 294.938 138.157 294.938C138.157 294.938 139.084 293.547 137.925 292.619C136.766 291.692 135.143 292.619 135.143 292.619C135.143 292.619 134.447 289.837 131.896 292.387Z" stroke="white" stroke-width="0.579677" stroke-miterlimit="10"/>
<path d="M96.1881 325.545C96.1881 325.545 93.8694 323.69 92.4782 325.545C91.3189 327.4 94.565 328.559 94.565 328.559C94.565 328.559 92.942 329.95 94.7969 331.341C96.8838 332.965 98.5068 331.573 98.5068 331.573C98.5068 331.573 98.5068 333.196 100.362 333.196C101.753 333.428 101.985 331.573 101.985 331.573C101.985 331.573 104.767 333.196 105.695 331.11C106.39 329.487 102.449 328.095 102.449 328.095C102.449 328.095 103.376 326.704 102.217 325.777C101.057 324.849 99.4343 325.777 99.4343 325.777C99.4343 325.777 98.7387 322.994 96.1881 325.545Z" stroke="white" stroke-width="0.579677" stroke-miterlimit="10"/>
<path d="M102.681 309.082C102.681 309.082 100.362 307.227 98.9706 309.082C97.8113 310.937 101.057 312.096 101.057 312.096C101.057 312.096 99.4344 313.487 101.289 314.879C103.376 316.502 104.999 315.111 104.999 315.111C104.999 315.111 104.999 316.734 106.854 316.734C108.245 316.965 108.477 315.111 108.477 315.111C108.477 315.111 111.26 316.734 112.187 314.647C112.883 313.024 108.941 311.632 108.941 311.632C108.941 311.632 109.869 310.241 108.709 309.314C107.55 308.386 105.927 309.314 105.927 309.314C105.927 309.314 104.999 306.531 102.681 309.082Z" stroke="white" stroke-width="0.579677" stroke-miterlimit="10"/>
<path d="M108.941 292.851C108.941 292.851 106.622 290.996 105.231 292.851C104.072 294.706 107.318 295.865 107.318 295.865C107.318 295.865 105.695 297.256 107.55 298.648C109.637 300.271 111.26 298.88 111.26 298.88C111.26 298.88 111.26 300.503 113.115 300.503C114.506 300.735 114.738 298.88 114.738 298.88C114.738 298.88 117.52 300.503 118.448 298.416C119.143 296.793 115.202 295.401 115.202 295.401C115.202 295.401 116.129 294.01 114.97 293.083C113.81 292.155 112.187 293.083 112.187 293.083C112.187 293.083 111.492 290.3 108.941 292.851Z" stroke="white" stroke-width="0.579677" stroke-miterlimit="10"/>
<path d="M115.202 276.62C115.202 276.62 112.883 274.765 111.492 276.62C110.332 278.475 113.578 279.634 113.578 279.634C113.578 279.634 111.955 281.026 113.81 282.417C115.897 284.04 117.52 282.649 117.52 282.649C117.52 282.649 117.52 284.272 119.375 284.272C120.766 284.504 120.998 282.649 120.998 282.649C120.998 282.649 123.781 284.272 124.708 282.185C125.404 280.562 121.462 279.171 121.462 279.171C121.462 279.171 122.39 277.779 121.23 276.852C120.071 275.924 118.448 276.852 118.448 276.852C118.448 276.852 117.752 273.838 115.202 276.62Z" stroke="white" stroke-width="0.579677" stroke-miterlimit="10"/>
<path d="M121.462 260.157C121.462 260.157 119.144 258.302 117.752 260.157C116.361 262.012 119.839 263.171 119.839 263.171C119.839 263.171 118.216 264.563 120.071 265.954C122.158 267.577 123.781 266.186 123.781 266.186C123.781 266.186 123.781 267.809 125.636 267.809C127.027 268.041 127.259 266.186 127.259 266.186C127.259 266.186 130.041 267.809 130.969 265.722C131.665 264.099 127.723 262.708 127.723 262.708C127.723 262.708 128.65 261.316 127.491 260.389C126.332 259.462 124.708 260.389 124.708 260.389C124.708 260.389 124.013 257.607 121.462 260.157Z" stroke="white" stroke-width="0.579677" stroke-miterlimit="10"/>
<path d="M127.723 243.926C127.723 243.926 125.404 242.071 124.013 243.926C122.853 245.781 126.1 246.941 126.1 246.941C126.1 246.941 124.476 248.332 126.331 249.723C128.418 251.346 130.041 249.955 130.041 249.955C130.041 249.955 130.041 251.578 131.896 251.578C133.288 251.81 133.519 249.955 133.519 249.955C133.519 249.955 136.302 251.578 137.229 249.491C137.925 247.868 133.983 246.477 133.983 246.477C133.983 246.477 134.911 245.086 133.751 244.158C132.592 243.231 130.969 244.158 130.969 244.158C130.969 244.158 130.273 241.376 127.723 243.926Z" stroke="white" stroke-width="0.579677" stroke-miterlimit="10"/>
<path d="M134.215 227.463C134.215 227.463 131.896 225.608 130.505 227.463C129.114 229.318 132.592 230.478 132.592 230.478C132.592 230.478 130.969 231.869 132.824 233.26C134.911 234.883 136.534 233.492 136.534 233.492C136.534 233.492 136.534 235.115 138.389 235.115C139.78 235.347 140.012 233.492 140.012 233.492C140.012 233.492 142.794 235.115 143.722 233.028C144.417 231.405 140.476 230.014 140.476 230.014C140.476 230.014 141.403 228.623 140.244 227.695C139.084 226.768 137.461 227.695 137.461 227.695C137.461 227.695 136.534 224.913 134.215 227.463Z" stroke="white" stroke-width="0.579677" stroke-miterlimit="10"/>
<path d="M73.9286 326.24C73.9286 326.24 71.6099 324.385 70.2187 326.24C69.0593 328.095 72.3055 329.255 72.3055 329.255C72.3055 329.255 70.6824 330.646 72.5374 332.037C74.6242 333.66 76.2473 332.269 76.2473 332.269C76.2473 332.269 76.2473 333.892 78.1023 333.892C79.4935 334.124 79.7254 332.269 79.7254 332.269C79.7254 332.269 82.5078 333.892 83.4353 331.805C84.1309 330.182 80.1891 328.791 80.1891 328.791C80.1891 328.791 81.1166 327.4 79.9573 326.472C78.7979 325.545 77.1748 326.472 77.1748 326.472C77.1748 326.472 76.4792 323.69 73.9286 326.24Z" stroke="white" stroke-width="0.579677" stroke-miterlimit="10"/>
<path d="M80.1892 310.009C80.1892 310.009 77.8705 308.154 76.4793 310.009C75.32 311.864 78.5661 313.024 78.5661 313.024C78.5661 313.024 76.943 314.415 78.798 315.806C80.8849 317.429 82.508 316.038 82.508 316.038C82.508 316.038 82.508 317.661 84.3629 317.661C85.7541 317.893 85.986 316.038 85.986 316.038C85.986 316.038 88.7685 317.661 89.6959 315.574C90.3916 313.951 86.4497 312.56 86.4497 312.56C86.4497 312.56 87.3772 311.169 86.2179 310.241C85.0585 309.314 83.4354 310.241 83.4354 310.241C83.4354 310.241 82.7398 307.227 80.1892 310.009Z" stroke="white" stroke-width="0.579677" stroke-miterlimit="10"/>
<path d="M86.4496 293.547C86.4496 293.547 84.1309 291.692 82.7397 293.547C81.5803 295.402 84.8265 296.561 84.8265 296.561C84.8265 296.561 83.2034 297.952 85.0584 299.343C87.1452 300.966 88.7683 299.575 88.7683 299.575C88.7683 299.575 88.7683 301.198 90.6233 301.198C92.0145 301.43 92.2464 299.575 92.2464 299.575C92.2464 299.575 95.0288 301.198 95.9563 299.111C96.6519 297.488 92.7101 296.097 92.7101 296.097C92.7101 296.097 93.6376 294.706 92.4783 293.778C91.3189 292.851 89.6958 293.778 89.6958 293.778C89.6958 293.778 89.0002 290.996 86.4496 293.547Z" stroke="white" stroke-width="0.579677" stroke-miterlimit="10"/>
<path d="M92.9421 277.316C92.9421 277.316 90.6233 275.461 89.2321 277.316C88.0728 279.171 91.319 280.33 91.319 280.33C91.319 280.33 89.6959 281.721 91.5508 283.112C93.6377 284.735 95.2608 283.344 95.2608 283.344C95.2608 283.344 95.2608 284.967 97.1157 284.967C98.5069 285.199 98.7388 283.344 98.7388 283.344C98.7388 283.344 101.521 284.967 102.449 282.88C103.144 281.257 99.2026 279.866 99.2026 279.866C99.2026 279.866 100.13 278.475 98.9707 277.547C97.8113 276.62 96.1882 277.547 96.1882 277.547C96.1882 277.547 95.2608 274.765 92.9421 277.316Z" stroke="white" stroke-width="0.579677" stroke-miterlimit="10"/>
<path d="M99.2024 260.853C99.2024 260.853 96.8837 258.998 95.4925 260.853C94.3331 262.708 97.5793 263.867 97.5793 263.867C97.5793 263.867 95.9562 265.258 97.8112 266.65C99.898 268.273 101.521 266.881 101.521 266.881C101.521 266.881 101.521 268.504 103.376 268.504C104.767 268.736 104.999 266.881 104.999 266.881C104.999 266.881 107.782 268.504 108.709 266.418C109.405 264.795 105.463 263.403 105.463 263.403C105.463 263.403 106.39 262.012 105.231 261.085C104.072 260.157 102.449 261.085 102.449 261.085C102.449 261.085 101.753 258.302 99.2024 260.853Z" stroke="white" stroke-width="0.579677" stroke-miterlimit="10"/>
<path d="M105.463 244.622C105.463 244.622 103.144 242.767 101.753 244.622C100.594 246.477 103.84 247.636 103.84 247.636C103.84 247.636 102.217 249.027 104.072 250.419C106.159 252.042 107.782 250.65 107.782 250.65C107.782 250.65 107.782 252.274 109.637 252.274C111.028 252.505 111.26 250.65 111.26 250.65C111.26 250.65 114.042 252.274 114.97 250.187C115.665 248.564 111.724 247.172 111.724 247.172C111.724 247.172 112.651 245.781 111.492 244.854C110.332 243.926 108.709 244.854 108.709 244.854C108.709 244.854 108.014 242.071 105.463 244.622Z" stroke="white" stroke-width="0.579677" stroke-miterlimit="10"/>
<path d="M111.724 228.391C111.724 228.391 109.405 226.536 108.014 228.391C106.854 230.246 110.1 231.405 110.1 231.405C110.1 231.405 108.477 232.796 110.332 234.188C112.419 235.811 114.042 234.419 114.042 234.419C114.042 234.419 114.042 236.043 115.897 236.043C117.288 236.274 117.52 234.419 117.52 234.419C117.52 234.419 120.303 236.043 121.23 233.956C121.926 232.333 117.984 230.941 117.984 230.941C117.984 230.941 118.912 229.55 117.752 228.623C116.593 227.695 114.97 228.623 114.97 228.623C114.97 228.623 114.274 225.608 111.724 228.391Z" stroke="white" stroke-width="0.579677" stroke-miterlimit="10"/>
<path d="M117.984 211.928C117.984 211.928 115.665 210.073 114.274 211.928C113.115 213.783 116.361 214.942 116.361 214.942C116.361 214.942 114.738 216.334 116.593 217.725C118.68 219.348 120.303 217.957 120.303 217.957C120.303 217.957 120.303 219.58 122.158 219.58C123.549 219.812 123.781 217.957 123.781 217.957C123.781 217.957 126.563 219.58 127.491 217.493C128.186 215.87 124.245 214.479 124.245 214.479C124.245 214.479 125.172 213.087 124.013 212.16C122.853 211.232 121.23 212.16 121.23 212.16C121.23 212.16 120.535 209.377 117.984 211.928Z" stroke="white" stroke-width="0.579677" stroke-miterlimit="10"/>
<path d="M124.476 195.697C124.476 195.697 122.158 193.842 120.767 195.697C119.607 197.552 122.853 198.711 122.853 198.711C122.853 198.711 121.23 199.871 123.317 201.494C125.404 203.117 127.027 201.726 127.027 201.726C127.027 201.726 127.027 203.349 128.882 203.349C130.273 203.581 130.505 201.726 130.505 201.726C130.505 201.726 133.288 203.349 134.215 201.262C134.911 199.639 130.969 198.248 130.969 198.248C130.969 198.248 131.896 196.856 130.737 195.929C129.578 195.001 127.955 195.929 127.955 195.929C127.955 195.929 126.795 192.915 124.476 195.697Z" stroke="white" stroke-width="0.579677" stroke-miterlimit="10"/>
<path d="M50.9735 326.704C50.9735 326.704 48.6548 324.849 47.2635 326.704C45.8723 328.559 49.3504 329.718 49.3504 329.718C49.3504 329.718 47.7273 331.11 49.5822 332.501C51.6691 334.124 53.2922 332.733 53.2922 332.733C53.2922 332.733 53.2922 334.356 55.1471 334.356C56.5384 334.588 56.7702 332.733 56.7702 332.733C56.7702 332.733 59.5527 334.356 60.4802 332.269C61.1758 330.646 57.234 329.255 57.234 329.255C57.234 329.255 58.1615 327.863 57.0021 326.936C55.8428 326.008 54.2197 326.936 54.2197 326.936C54.2197 326.936 53.524 324.153 50.9735 326.704Z" stroke="white" stroke-width="0.579677" stroke-miterlimit="10"/>
<path d="M57.2339 310.473C57.2339 310.473 54.9152 308.618 53.524 310.473C52.3646 312.328 55.6108 313.487 55.6108 313.487C55.6108 313.487 53.9877 314.879 55.8427 316.27C57.9295 317.893 59.5526 316.502 59.5526 316.502C59.5526 316.502 59.5526 318.125 61.4076 318.125C62.7988 318.357 63.0307 316.502 63.0307 316.502C63.0307 316.502 65.8131 318.125 66.7406 316.038C67.4362 314.415 63.4944 313.024 63.4944 313.024C63.4944 313.024 64.4219 311.632 63.2626 310.705C62.1032 309.777 60.4801 310.705 60.4801 310.705C60.4801 310.705 59.7845 307.923 57.2339 310.473Z" stroke="white" stroke-width="0.579677" stroke-miterlimit="10"/>
<path d="M63.4944 294.01C63.4944 294.01 61.1757 292.155 59.7845 294.01C58.6251 295.865 61.8713 297.025 61.8713 297.025C61.8713 297.025 60.2482 298.416 62.1032 299.807C64.19 301.43 65.8131 300.039 65.8131 300.039C65.8131 300.039 65.8131 301.662 67.6681 301.662C69.0593 301.894 69.2912 300.039 69.2912 300.039C69.2912 300.039 72.0736 301.662 73.0011 299.575C73.6967 297.952 69.7549 296.561 69.7549 296.561C69.7549 296.561 70.6824 295.17 69.5231 294.242C68.3637 293.315 66.7406 294.242 66.7406 294.242C66.7406 294.242 66.045 291.46 63.4944 294.01Z" stroke="white" stroke-width="0.579677" stroke-miterlimit="10"/>
<path d="M69.755 277.779C69.755 277.779 67.4363 275.924 66.0451 277.779C64.8857 279.634 68.1319 280.794 68.1319 280.794C68.1319 280.794 66.5088 282.185 68.3638 283.576C70.4506 285.199 72.0737 283.808 72.0737 283.808C72.0737 283.808 72.0737 285.431 73.9287 285.431C75.3199 285.663 75.5518 283.808 75.5518 283.808C75.5518 283.808 78.3343 285.431 79.2617 283.344C79.9574 281.721 76.0155 280.33 76.0155 280.33C76.0155 280.33 76.943 278.939 75.7837 278.011C74.6243 277.084 73.0012 278.011 73.0012 278.011C73.0012 278.011 72.3056 275.229 69.755 277.779Z" stroke="white" stroke-width="0.579677" stroke-miterlimit="10"/>
<path d="M76.2473 261.548C76.2473 261.548 73.9286 259.693 72.5374 261.548C71.3781 263.403 74.6242 264.563 74.6242 264.563C74.6242 264.563 73.0012 265.954 74.8561 267.345C76.943 268.968 78.5661 267.577 78.5661 267.577C78.5661 267.577 78.5661 269.2 80.421 269.2C81.8122 269.432 82.0441 267.577 82.0441 267.577C82.0441 267.577 84.8266 269.2 85.754 267.113C86.4497 265.49 82.5079 264.099 82.5079 264.099C82.5079 264.099 83.4353 262.708 82.276 261.78C81.1166 260.853 79.4935 261.78 79.4935 261.78C79.4935 261.78 78.7979 258.766 76.2473 261.548Z" stroke="white" stroke-width="0.579677" stroke-miterlimit="10"/>
<path d="M82.5078 245.086C82.5078 245.086 80.1891 243.231 78.7979 245.086C77.6386 246.941 80.8848 248.1 80.8848 248.1C80.8848 248.1 79.2617 249.491 81.1166 250.882C83.2035 252.505 84.8266 251.114 84.8266 251.114C84.8266 251.114 84.8266 252.737 86.6815 252.737C88.0727 252.969 88.3046 251.114 88.3046 251.114C88.3046 251.114 91.0871 252.737 92.0145 250.65C92.7102 249.027 88.7684 247.636 88.7684 247.636C88.7684 247.636 89.6958 246.245 88.5365 245.317C87.3771 244.39 85.754 245.317 85.754 245.317C85.754 245.317 85.0584 242.535 82.5078 245.086Z" stroke="white" stroke-width="0.579677" stroke-miterlimit="10"/>
<path d="M88.7683 228.855C88.7683 228.855 86.4496 227 85.0584 228.855C83.8991 230.71 87.1452 231.869 87.1452 231.869C87.1452 231.869 85.5222 233.26 87.3771 234.651C89.464 236.274 91.087 234.883 91.087 234.883C91.087 234.883 91.0871 236.506 92.942 236.506C94.3332 236.738 94.5651 234.883 94.5651 234.883C94.5651 234.883 97.3476 236.506 98.275 234.419C98.9707 232.796 95.0289 231.405 95.0289 231.405C95.0289 231.405 95.9563 230.014 94.797 229.086C93.6376 228.159 92.0145 229.086 92.0145 229.086C92.0145 229.086 91.3189 226.304 88.7683 228.855Z" stroke="white" stroke-width="0.579677" stroke-miterlimit="10"/>
<path d="M95.0288 212.392C95.0288 212.392 92.7101 210.537 91.3189 212.392C90.1596 214.247 93.4057 215.406 93.4057 215.406C93.4057 215.406 91.7826 216.797 93.6376 218.189C95.7245 219.812 97.3475 218.42 97.3475 218.42C97.3475 218.42 97.3475 220.043 99.2025 220.043C100.594 220.275 100.826 218.42 100.826 218.42C100.826 218.42 103.608 220.044 104.536 217.957C105.231 216.334 101.289 214.942 101.289 214.942C101.289 214.942 102.217 213.551 101.057 212.624C99.8981 211.696 98.275 212.624 98.275 212.624C98.275 212.624 97.5794 209.841 95.0288 212.392Z" stroke="white" stroke-width="0.579677" stroke-miterlimit="10"/>
<path d="M101.521 196.161C101.521 196.161 99.2024 194.306 97.8112 196.161C96.6519 198.016 99.8981 199.175 99.8981 199.175C99.8981 199.175 98.275 200.566 100.13 201.958C102.217 203.581 103.84 202.189 103.84 202.189C103.84 202.189 103.84 203.813 105.695 203.813C107.086 204.044 107.318 202.189 107.318 202.189C107.318 202.189 110.1 203.813 111.028 201.726C111.723 200.103 107.782 198.711 107.782 198.711C107.782 198.711 108.709 197.32 107.55 196.393C106.39 195.465 104.767 196.393 104.767 196.393C104.767 196.393 103.84 193.61 101.521 196.161Z" stroke="white" stroke-width="0.579677" stroke-miterlimit="10"/>
<path d="M28.4818 327.4C28.4818 327.4 26.1631 325.545 24.7719 327.4C23.6126 329.255 26.8587 330.414 26.8587 330.414C26.8587 330.414 25.2357 331.805 27.0906 333.196C29.1775 334.82 30.8006 333.428 30.8006 333.428C30.8006 333.428 30.8005 335.051 32.6555 335.051C34.0467 335.283 34.2786 333.428 34.2786 333.428C34.2786 333.428 37.0611 335.051 37.9885 332.965C38.6842 331.341 34.7424 329.95 34.7424 329.95C34.7424 329.95 35.6698 328.559 34.5105 327.632C33.3511 326.704 31.728 327.632 31.728 327.632C31.728 327.632 31.0324 324.849 28.4818 327.4Z" stroke="white" stroke-width="0.579677" stroke-miterlimit="10"/>
<path d="M34.9744 311.169C34.9744 311.169 32.6557 309.314 31.2645 311.169C30.1051 313.024 33.3513 314.183 33.3513 314.183C33.3513 314.183 31.7282 315.574 33.5832 316.965C35.67 318.589 37.2931 317.197 37.2931 317.197C37.2931 317.197 37.2931 318.82 39.1481 318.82C40.5393 319.052 40.7712 317.197 40.7712 317.197C40.7712 317.197 43.5536 318.82 44.4811 316.734C45.1767 315.11 41.2349 313.719 41.2349 313.719C41.2349 313.719 42.1624 312.328 41.003 311.401C39.8437 310.473 38.2206 311.401 38.2206 311.401C38.2206 311.401 37.2931 308.618 34.9744 311.169Z" stroke="white" stroke-width="0.579677" stroke-miterlimit="10"/>
<path d="M41.2348 294.938C41.2348 294.938 38.9161 293.083 37.5248 294.938C36.3655 296.793 39.6117 297.952 39.6117 297.952C39.6117 297.952 37.9886 299.343 39.8435 300.735C41.9304 302.358 43.5535 300.966 43.5535 300.966C43.5535 300.966 43.5535 302.589 45.4084 302.589C46.7997 302.821 47.0315 300.966 47.0315 300.966C47.0315 300.966 49.814 302.589 50.7415 300.503C51.4371 298.88 47.4953 297.488 47.4953 297.488C47.4953 297.488 48.4228 296.097 47.2634 295.17C46.1041 294.242 44.481 295.17 44.481 295.17C44.481 295.17 43.7854 292.155 41.2348 294.938Z" stroke="white" stroke-width="0.579677" stroke-miterlimit="10"/>
<path d="M47.4953 278.475C47.4953 278.475 45.1766 276.62 43.7853 278.475C42.626 280.33 45.8722 281.489 45.8722 281.489C45.8722 281.489 44.2491 282.88 46.104 284.272C48.1909 285.895 49.814 284.504 49.814 284.504C49.814 284.504 49.814 286.127 51.6689 286.127C53.0602 286.359 53.292 284.504 53.292 284.504C53.292 284.504 56.0745 286.127 57.002 284.04C57.6976 282.417 53.7558 281.026 53.7558 281.026C53.7558 281.026 54.6833 279.634 53.5239 278.707C52.3646 277.779 50.7415 278.707 50.7415 278.707C50.7415 278.707 50.0458 275.924 47.4953 278.475Z" stroke="white" stroke-width="0.579677" stroke-miterlimit="10"/>
<path d="M53.7559 262.244C53.7559 262.244 51.4372 260.389 50.046 262.244C48.8866 264.099 52.1328 265.258 52.1328 265.258C52.1328 265.258 50.5097 266.65 52.3647 268.041C54.4515 269.664 56.0746 268.273 56.0746 268.273C56.0746 268.273 56.0746 269.896 57.9296 269.896C59.3208 270.128 59.5527 268.273 59.5527 268.273C59.5527 268.273 62.3351 269.896 63.2626 267.809C63.9582 266.186 60.0164 264.795 60.0164 264.795C60.0164 264.795 60.9439 263.403 59.7845 262.476C58.6252 261.548 57.0021 262.476 57.0021 262.476C57.0021 262.476 56.3065 259.693 53.7559 262.244Z" stroke="white" stroke-width="0.579677" stroke-miterlimit="10"/>
<path d="M60.0164 245.781C60.0164 245.781 57.6977 243.926 56.3065 245.781C55.1471 247.636 58.3933 248.795 58.3933 248.795C58.3933 248.795 56.7702 250.187 58.6252 251.578C60.712 253.201 62.3351 251.81 62.3351 251.81C62.3351 251.81 62.3351 253.433 64.1901 253.433C65.5813 253.665 65.8132 251.81 65.8132 251.81C65.8132 251.81 68.5956 253.433 69.5231 251.346C70.2187 249.723 66.2769 248.332 66.2769 248.332C66.2769 248.332 67.2044 246.941 66.045 246.013C64.8857 245.086 63.2626 246.013 63.2626 246.013C63.2626 246.013 62.567 243.231 60.0164 245.781Z" stroke="white" stroke-width="0.579677" stroke-miterlimit="10"/>
<path d="M66.5087 229.55C66.5087 229.55 64.19 227.695 62.7988 229.55C61.6394 231.405 64.8856 232.565 64.8856 232.565C64.8856 232.565 63.2625 233.956 65.1175 235.347C67.2043 236.97 68.8274 235.579 68.8274 235.579C68.8274 235.579 68.8274 237.202 70.6824 237.202C72.0736 237.434 72.3055 235.579 72.3055 235.579C72.3055 235.579 75.0879 237.202 76.0154 235.115C76.711 233.492 72.7692 232.101 72.7692 232.101C72.7692 232.101 73.6967 230.71 72.5373 229.782C71.378 228.855 69.7549 229.782 69.7549 229.782C69.7549 229.782 68.8274 227 66.5087 229.55Z" stroke="white" stroke-width="0.579677" stroke-miterlimit="10"/>
<path d="M72.7693 213.319C72.7693 213.319 70.4506 211.464 69.0594 213.319C67.9 215.174 71.1462 216.334 71.1462 216.334C71.1462 216.334 69.5231 217.725 71.3781 219.116C73.4649 220.739 75.088 219.348 75.088 219.348C75.088 219.348 75.088 220.971 76.943 220.971C78.3342 221.203 78.5661 219.348 78.5661 219.348C78.5661 219.348 81.3485 220.971 82.276 218.884C82.9716 217.261 79.0298 215.87 79.0298 215.87C79.0298 215.87 79.9573 214.479 78.798 213.551C77.6386 212.624 76.0155 213.551 76.0155 213.551C76.0155 213.551 75.3199 210.537 72.7693 213.319Z" stroke="white" stroke-width="0.579677" stroke-miterlimit="10"/>
<path d="M79.0298 196.856C79.0298 196.856 76.7111 195.001 75.3199 196.856C74.1605 198.711 77.4067 199.871 77.4067 199.871C77.4067 199.871 75.7836 201.262 77.6386 202.653C79.7254 204.276 81.3485 202.885 81.3485 202.885C81.3485 202.885 81.3485 204.508 83.2035 204.508C84.5947 204.74 84.8266 202.885 84.8266 202.885C84.8266 202.885 87.609 204.508 88.5365 202.421C89.2321 200.798 85.2903 199.407 85.2903 199.407C85.2903 199.407 86.2178 198.016 85.0585 197.088C83.8991 196.161 82.276 197.088 82.276 197.088C82.276 197.088 81.5804 194.306 79.0298 196.856Z" stroke="white" stroke-width="0.579677" stroke-miterlimit="10"/>
<path d="M12.0191 311.632C12.0191 311.632 9.70037 309.777 8.30914 311.632C7.14979 313.487 10.396 314.647 10.396 314.647C10.396 314.647 8.77288 316.038 10.6278 317.429C12.7147 319.052 14.3378 317.661 14.3378 317.661C14.3378 317.661 14.3378 319.284 16.1927 319.284C17.584 319.516 17.8158 317.661 17.8158 317.661C17.8158 317.661 20.5983 319.284 21.5258 317.197C22.2214 315.574 18.2796 314.183 18.2796 314.183C18.2796 314.183 19.2071 312.792 18.0477 311.864C16.8884 310.937 15.2653 311.864 15.2653 311.864C15.2653 311.864 14.3378 309.082 12.0191 311.632Z" stroke="white" stroke-width="0.579677" stroke-miterlimit="10"/>
<path d="M18.2796 295.402C18.2796 295.402 15.9609 293.547 14.5697 295.402C13.1785 297.256 16.6565 298.416 16.6565 298.416C16.6565 298.416 15.0334 299.807 16.8884 301.198C18.9752 302.821 20.5983 301.43 20.5983 301.43C20.5983 301.43 20.5983 303.053 22.4533 303.053C23.8445 303.285 24.0764 301.43 24.0764 301.43C24.0764 301.43 26.8588 303.053 27.7863 300.966C28.4819 299.343 24.5401 297.952 24.5401 297.952C24.5401 297.952 25.4676 296.561 24.3083 295.633C23.1489 294.706 21.5258 295.633 21.5258 295.633C21.5258 295.633 20.8302 292.851 18.2796 295.402Z" stroke="white" stroke-width="0.579677" stroke-miterlimit="10"/>
<path d="M24.5402 278.939C24.5402 278.939 22.2215 277.084 20.8303 278.939C19.6709 280.794 22.9171 281.953 22.9171 281.953C22.9171 281.953 21.294 283.344 23.149 284.735C25.2358 286.359 26.8589 284.967 26.8589 284.967C26.8589 284.967 26.8589 286.59 28.7139 286.59C30.1051 286.822 30.337 284.967 30.337 284.967C30.337 284.967 33.1194 286.59 34.0469 284.504C34.7425 282.88 30.8007 281.489 30.8007 281.489C30.8007 281.489 31.7282 280.098 30.5688 279.171C29.4095 278.243 27.7864 279.171 27.7864 279.171C27.7864 279.171 27.0908 276.388 24.5402 278.939Z" stroke="white" stroke-width="0.579677" stroke-miterlimit="10"/>
<path d="M30.8006 262.708C30.8006 262.708 28.4819 260.853 27.0906 262.708C25.9313 264.563 29.1775 265.722 29.1775 265.722C29.1775 265.722 27.5544 267.113 29.4093 268.504C31.4962 270.128 33.1193 268.736 33.1193 268.736C33.1193 268.736 33.1193 270.359 34.9742 270.359C36.3655 270.591 36.5973 268.736 36.5973 268.736C36.5973 268.736 39.3798 270.359 40.3073 268.273C41.0029 266.65 37.0611 265.258 37.0611 265.258C37.0611 265.258 37.9886 263.867 36.8292 262.94C35.6699 262.012 34.0468 262.94 34.0468 262.94C34.0468 262.94 33.3511 260.157 30.8006 262.708Z" stroke="white" stroke-width="0.579677" stroke-miterlimit="10"/>
<path d="M37.0612 246.477C37.0612 246.477 34.7425 244.622 33.3513 246.477C32.1919 248.332 35.4381 249.491 35.4381 249.491C35.4381 249.491 33.815 250.882 35.67 252.274C37.7568 253.897 39.3799 252.505 39.3799 252.505C39.3799 252.505 39.3799 254.129 41.2349 254.129C42.6261 254.36 42.858 252.505 42.858 252.505C42.858 252.505 45.6404 254.129 46.5679 252.042C47.2635 250.419 43.3217 249.027 43.3217 249.027C43.3217 249.027 44.2492 247.636 43.0898 246.709C41.9305 245.781 40.3074 246.709 40.3074 246.709C40.3074 246.709 39.6118 243.694 37.0612 246.477Z" stroke="white" stroke-width="0.579677" stroke-miterlimit="10"/>
<path d="M43.5535 230.014C43.5535 230.014 41.2348 228.159 39.8436 230.014C38.6842 231.869 41.9304 233.028 41.9304 233.028C41.9304 233.028 40.3073 234.419 42.1623 235.811C44.2491 237.434 45.8722 236.043 45.8722 236.043C45.8722 236.043 45.8722 237.666 47.7272 237.666C49.1184 237.898 49.3503 236.043 49.3503 236.043C49.3503 236.043 52.1327 237.666 53.0602 235.579C53.7558 233.956 49.814 232.565 49.814 232.565C49.814 232.565 50.7415 231.173 49.5821 230.246C48.4228 229.318 46.7997 230.246 46.7997 230.246C46.7997 230.246 45.8722 227.463 43.5535 230.014Z" stroke="white" stroke-width="0.579677" stroke-miterlimit="10"/>
<path d="M49.814 213.783C49.814 213.783 47.4953 211.928 46.1041 213.783C44.9447 215.638 48.1909 216.797 48.1909 216.797C48.1909 216.797 46.5678 218.189 48.4228 219.58C50.5096 221.203 52.1327 219.812 52.1327 219.812C52.1327 219.812 52.1327 221.435 53.9877 221.435C55.3789 221.667 55.6108 219.812 55.6108 219.812C55.6108 219.812 58.3932 221.435 59.3207 219.348C60.0163 217.725 56.0745 216.334 56.0745 216.334C56.0745 216.334 57.002 214.942 55.8426 214.015C54.6833 213.087 53.0602 214.015 53.0602 214.015C53.0602 214.015 52.3646 211.001 49.814 213.783Z" stroke="white" stroke-width="0.579677" stroke-miterlimit="10"/>
<path d="M56.0746 197.32C56.0746 197.32 53.7559 195.465 52.3647 197.32C51.2053 199.175 54.4515 200.334 54.4515 200.334C54.4515 200.334 52.8284 201.726 54.6834 203.117C56.7702 204.74 58.3933 203.349 58.3933 203.349C58.3933 203.349 58.3933 204.972 60.2483 204.972C61.6395 205.204 61.8714 203.349 61.8714 203.349C61.8714 203.349 64.6538 204.972 65.5813 202.885C66.2769 201.262 62.3351 199.871 62.3351 199.871C62.3351 199.871 63.2626 198.48 62.1033 197.552C60.9439 196.625 59.3208 197.552 59.3208 197.552C59.3208 197.552 58.6252 194.77 56.0746 197.32Z" stroke="white" stroke-width="0.579677" stroke-miterlimit="10"/>
</g>
<path d="M96.652 199.407C98.507 198.248 97.8113 199.407 103.376 196.625C105.695 195.465 107.086 197.088 110.1 197.088C114.97 196.856 116.129 200.103 117.288 201.726C118.448 203.349 119.143 202.421 119.143 206.827C119.143 215.638 112.187 218.884 117.984 221.435C123.781 223.985 131.201 218.42 131.896 221.898C132.36 225.377 126.563 230.478 129.81 233.724C133.056 236.97 136.998 237.202 134.679 243.231C132.592 249.259 105.463 253.897 101.985 247.868C98.507 241.839 109.405 233.956 103.376 230.941C97.3476 227.927 91.0871 227.927 92.0146 220.739C92.4783 216.102 88.7684 204.276 96.652 199.407Z" fill="#E2603D"/>
<path d="M172.937 394.178C169.923 384.44 164.822 376.324 158.098 372.383C156.706 371.687 155.547 371.223 154.62 370.759C146.968 366.586 133.519 358.702 122.621 350.355C120.071 348.268 118.68 338.761 117.984 330.414C117.984 330.414 102.217 332.037 95.9563 333.428C92.0145 334.356 79.9572 338.066 75.3198 339.457L73.9286 339.921C77.1748 348.268 81.5803 358.007 87.8408 365.89C109.173 392.555 143.258 389.541 150.91 388.382C151.373 389.077 152.069 389.773 152.533 390.237C155.779 393.251 155.779 401.366 159.721 404.613C159.953 404.844 160.185 406.004 160.416 406.236C162.735 406.931 162.503 403.917 162.967 403.917C163.663 404.149 163.431 405.54 164.126 405.54C165.518 405.54 165.749 403.917 166.445 403.685C166.909 403.685 167.141 404.844 167.604 404.844C169.459 404.381 169.227 402.294 169.691 402.062C170.155 401.83 170.619 403.221 171.778 402.526C172.937 402.062 174.329 398.584 172.937 394.178Z" fill="#E897A3"/>
<path d="M130.737 105.267C127.723 105.499 127.027 105.499 127.259 108.514C127.491 110.137 129.578 112.224 127.954 113.383C125.636 115.238 125.636 118.948 127.259 119.643C131.433 121.267 132.824 120.339 131.664 123.122C130.273 126.136 131.201 127.991 138.621 126.368C146.04 124.745 169.227 127.527 169.227 127.527L173.865 103.644C173.865 103.644 156.706 102.253 147.432 103.644C137.925 105.036 132.824 105.036 130.737 105.267Z" fill="#E897A3"/>
<path d="M202.849 180.394C202.849 180.394 199.603 186.886 192.646 196.161C189.632 200.103 181.98 202.885 186.386 204.044C189.4 204.972 190.328 202.421 191.487 204.972C192.415 206.827 187.545 211.232 190.328 211.232C193.342 211.232 197.979 209.609 197.052 212.624C196.124 215.87 197.052 217.957 203.776 214.247C210.732 210.537 225.34 191.987 225.34 191.987L202.849 180.394Z" fill="#E897A3"/>
<path d="M271.714 20.4028C271.019 20.6347 270.555 20.1709 269.627 20.8665C269.164 21.0984 269.627 22.0259 269.164 22.2578C268.7 22.7215 267.772 22.2578 267.772 22.9534C267.772 24.1127 268.7 25.504 270.787 27.3589C273.569 29.9095 277.511 29.4457 275.424 42.8943C274.265 49.6185 271.482 58.4296 271.482 58.4296L300.698 67.2407C300.698 67.2407 304.176 49.8504 303.712 39.8799C303.481 35.4744 309.045 29.4458 299.307 24.3446C289.105 19.0116 283.54 17.3885 277.511 17.3885C274.729 17.3885 276.815 19.2434 275.424 19.2434C274.729 19.2434 274.265 18.316 273.337 19.0116C272.41 19.2434 272.41 20.1709 271.714 20.4028Z" fill="#E897A3"/>
<path d="M333.392 114.774C333.392 114.774 361.912 122.426 369.564 127.527C371.65 128.918 372.81 130.773 373.505 133.092C374.665 137.034 373.042 137.961 374.201 142.599C374.897 145.613 377.911 152.337 376.288 156.047C376.056 156.511 375.36 156.511 375.129 156.743C374.897 156.975 374.897 157.438 374.665 157.67C373.969 158.134 373.737 157.207 373.505 157.438C372.578 158.366 373.042 159.293 371.882 159.062C371.419 159.062 371.419 158.366 370.955 158.134C370.491 158.134 370.491 159.525 369.796 159.525C368.868 159.525 368.636 159.062 368.172 158.598C366.317 156.975 364.231 153.728 360.289 150.714C351.014 143.526 333.624 141.903 333.624 141.903V114.774H333.392Z" fill="#E897A3"/>
<path d="M173.865 103.644L169.227 127.527C169.227 127.527 191.487 130.078 199.834 143.294C212.587 163.467 202.849 180.394 202.849 180.394L225.34 191.987C225.34 191.987 246.209 166.481 273.801 153.728C296.756 142.831 333.392 142.135 333.392 142.135V114.774C333.392 114.774 304.872 108.746 299.539 99.4707C296.756 94.8333 297.916 86.9497 299.075 80.2255C300.466 71.6462 301.857 63.9945 301.857 63.9945L271.714 58.6615C271.714 58.6615 265.454 79.5298 242.73 89.2684C220.007 99.007 219.775 99.007 204.704 101.789C191.719 104.108 173.865 103.644 173.865 103.644Z" fill="#98A2F4"/>
<mask id="mask1" mask-type="alpha" maskUnits="userSpaceOnUse" x="169" y="58" width="165" height="134">
<path d="M173.865 103.644L169.227 127.527C169.227 127.527 191.487 130.078 199.834 143.294C212.587 163.467 202.849 180.394 202.849 180.394L225.34 191.987C225.34 191.987 246.209 166.481 273.801 153.728C296.756 142.831 333.392 142.135 333.392 142.135V114.774C333.392 114.774 304.872 108.746 299.539 99.4707C296.756 94.8333 297.916 86.9497 299.075 80.2255C300.466 71.6462 301.857 63.9945 301.857 63.9945L271.714 58.6615C271.714 58.6615 265.454 79.5298 242.73 89.2684C220.007 99.007 219.775 99.007 204.704 101.789C191.719 104.108 173.865 103.644 173.865 103.644Z" fill="#98A2F4"/>
</mask>
<g mask="url(#mask1)">
<path d="M283.308 0.461899L358.898 188.045" stroke="white" stroke-width="0.579677" stroke-miterlimit="10"/>
<path d="M275.888 3.47623L351.478 191.06" stroke="white" stroke-width="0.579677" stroke-miterlimit="10"/>
<path d="M268.468 6.49055L344.058 193.842" stroke="white" stroke-width="0.579677" stroke-miterlimit="10"/>
<path d="M261.048 9.50485L336.638 196.856" stroke="white" stroke-width="0.579677" stroke-miterlimit="10"/>
<path d="M253.628 12.5192L329.218 199.871" stroke="white" stroke-width="0.579677" stroke-miterlimit="10"/>
<path d="M246.209 15.5335L321.799 202.885" stroke="white" stroke-width="0.579677" stroke-miterlimit="10"/>
<path d="M238.789 18.5478L314.379 205.899" stroke="white" stroke-width="0.579677" stroke-miterlimit="10"/>
<path d="M231.369 21.5622L306.959 208.914" stroke="white" stroke-width="0.579677" stroke-miterlimit="10"/>
<path d="M223.949 24.5764L299.539 211.928" stroke="white" stroke-width="0.579677" stroke-miterlimit="10"/>
<path d="M216.529 27.3589L292.119 214.942" stroke="white" stroke-width="0.579677" stroke-miterlimit="10"/>
<path d="M209.341 30.1414L284.931 217.493" stroke="white" stroke-width="0.579677" stroke-miterlimit="10"/>
<path d="M201.921 33.1557L277.511 220.507" stroke="white" stroke-width="0.579677" stroke-miterlimit="10"/>
<path d="M194.501 36.17L270.091 223.522" stroke="white" stroke-width="0.579677" stroke-miterlimit="10"/>
<path d="M187.082 39.1843L262.671 226.536" stroke="white" stroke-width="0.579677" stroke-miterlimit="10"/>
<path d="M179.662 42.1986L255.251 229.55" stroke="white" stroke-width="0.579677" stroke-miterlimit="10"/>
<path d="M172.242 45.213L247.832 232.565" stroke="white" stroke-width="0.579677" stroke-miterlimit="10"/>
<path d="M164.822 48.2273L240.412 235.579" stroke="white" stroke-width="0.579677" stroke-miterlimit="10"/>
<path d="M157.402 51.0097L232.992 238.593" stroke="white" stroke-width="0.579677" stroke-miterlimit="10"/>
<path d="M149.982 54.0241L225.572 241.608" stroke="white" stroke-width="0.579677" stroke-miterlimit="10"/>
<path d="M142.562 57.0384L218.384 244.39" stroke="white" stroke-width="0.579677" stroke-miterlimit="10"/>
</g>
<path d="M200.53 127.527C200.53 127.527 194.501 134.251 198.675 141.439C202.849 148.627 212.587 150.714 216.297 141.439C220.007 132.165 215.602 122.426 200.53 127.527Z" fill="#E897A3"/>
<path d="M211.66 126.6C207.486 125.208 202.153 124.281 195.197 127.527C188.009 130.773 184.763 133.092 188.705 133.556C189.864 133.788 190.56 133.556 190.56 134.715C190.792 135.874 188.705 137.034 188.009 138.889C185.922 143.526 193.806 142.599 198.675 141.207C203.544 140.048 207.254 137.498 210.037 138.889C213.515 140.744 212.819 142.599 213.979 141.207C214.674 140.28 214.906 137.729 215.602 138.657C216.297 139.584 216.529 140.744 216.761 140.048C216.993 139.352 218.616 135.411 217.689 132.164C216.761 129.382 214.442 127.527 211.66 126.6Z" fill="#E2603D"/>
<path d="M184.067 134.251C184.067 134.251 181.98 134.947 181.517 136.106C180.589 138.657 184.995 136.106 185.459 135.643C185.922 135.179 185.69 134.019 184.067 134.251Z" fill="#D63C30"/>
<path d="M197.979 261.548H264.526C264.526 261.548 255.947 256.447 251.774 252.737C247.832 249.027 238.325 245.317 234.383 250.65C230.441 255.983 229.05 250.187 222.094 252.737C215.138 255.288 207.486 258.534 204.704 258.534C201.921 258.534 197.979 261.548 197.979 261.548Z" fill="white"/>
<path d="M35.9017 164.163H98.5068C100.594 163.699 97.8112 157.207 87.8408 156.743C83.899 156.511 83.6671 144.454 75.0879 148.395C66.5087 152.337 63.7262 155.815 63.0306 153.728C61.4075 148.859 56.3064 148.395 53.7558 152.801C51.2052 157.207 45.1766 157.438 42.3941 158.598C39.6117 159.757 35.9017 164.163 35.9017 164.163Z" fill="white"/>
<path d="M225.34 75.8199C225.34 75.8199 218.616 70.7187 210.964 72.5737C203.313 74.4287 200.994 75.8199 200.994 75.8199C200.994 75.8199 191.951 73.2693 188.473 75.8199C184.995 78.3705 179.43 78.3705 179.43 78.3705H233.224L225.34 75.8199Z" fill="white"/>
<path d="M98.5069 401.366C98.5069 401.366 93.1738 400.903 93.1738 406.468C93.1738 412.033 95.9563 417.597 95.9563 417.597" stroke="white" stroke-width="0.579677" stroke-miterlimit="10"/>
<path d="M104.999 411.105C104.999 411.105 104.072 411.801 103.608 415.742C103.144 419.452 105.695 422.003 105.695 422.003" stroke="white" stroke-width="0.579677" stroke-miterlimit="10"/>
<path d="M54.9152 365.89C54.9152 365.89 60.7119 360.325 69.523 361.948C76.4791 363.34 79.0297 365.89 79.0297 365.89" stroke="white" stroke-width="0.579677" stroke-miterlimit="10"/>
<path d="M105.695 352.905C105.695 352.905 110.332 348.5 119.143 351.282C123.549 352.674 125.868 356.152 125.868 356.152" stroke="white" stroke-width="0.579677" stroke-miterlimit="10"/>
<path d="M149.982 370.76C149.982 370.76 146.04 370.759 145.808 375.861C145.345 380.73 148.127 383.281 148.127 383.281" stroke="white" stroke-width="0.579677" stroke-miterlimit="10"/>
<path d="M155.779 384.672C155.779 384.672 160.184 381.426 163.431 385.367C165.054 387.222 165.518 389.541 165.749 391.396" stroke="white" stroke-width="0.579677" stroke-miterlimit="10"/>
<path d="M60.4801 275.229C60.4801 275.229 76.4792 276.62 79.9572 287.286" stroke="white" stroke-width="0.579677" stroke-miterlimit="10"/>
<path d="M98.0431 282.185C98.0431 282.185 106.39 276.156 113.578 281.721" stroke="white" stroke-width="0.579677" stroke-miterlimit="10"/>
<path d="M271.251 88.8047C271.251 88.8047 279.134 89.2684 283.076 95.7608C287.25 102.253 285.627 106.195 285.627 106.195" stroke="white" stroke-width="0.579677" stroke-miterlimit="10"/>
<path d="M287.482 113.383C287.482 113.383 294.67 111.76 298.843 119.18C303.017 126.6 299.539 134.019 299.539 134.019" stroke="white" stroke-width="0.579677" stroke-miterlimit="10"/>
<path d="M300.235 25.0402C300.235 25.0402 297.452 22.7215 291.192 25.0402C284.931 27.3589 282.844 24.5765 281.917 23.1852" stroke="white" stroke-width="0.579677" stroke-miterlimit="10"/>
<path d="M296.525 37.0975C296.525 37.0975 302.321 39.8799 305.799 36.6338" stroke="#660000" stroke-width="0.579677" stroke-miterlimit="10" stroke-linejoin="round"/>
<path d="M373.274 132.86C373.274 132.86 374.665 136.802 370.491 141.439C367.941 144.222 368.405 147.468 368.405 147.468" stroke="white" stroke-width="0.579677" stroke-miterlimit="10"/>
<path d="M362.84 131.005C362.84 131.005 363.535 122.658 368.404 125.208" stroke="#660000" stroke-width="0.579677" stroke-miterlimit="10" stroke-linejoin="round"/>
<path d="M4.59921 316.965C4.59921 316.965 1.35302 340.153 14.3378 361.717" stroke="#660000" stroke-width="0.579677" stroke-miterlimit="10" stroke-linejoin="round"/>
<path d="M1.81677 342.935C1.81677 342.935 4.13548 356.384 12.0191 365.89" stroke="#660000" stroke-width="0.579677" stroke-miterlimit="10" stroke-linejoin="round"/>
<path d="M123.085 283.576C123.085 283.576 131.433 299.111 128.186 308.154" stroke="#660000" stroke-width="0.579677" stroke-miterlimit="10" stroke-linejoin="round"/>
<path d="M128.882 287.286C128.882 287.286 132.128 293.547 131.665 300.271" stroke="#660000" stroke-width="0.579677" stroke-miterlimit="10" stroke-linejoin="round"/>
<path d="M124.94 99.4707C135.606 97.3839 150.678 95.5289 165.518 96.6883" stroke="#660000" stroke-width="0.579677" stroke-miterlimit="10" stroke-linejoin="round"/>
<path d="M111.492 103.413C111.492 103.413 114.506 101.789 120.767 100.398" stroke="#660000" stroke-width="0.579677" stroke-miterlimit="10" stroke-linejoin="round"/>
<path d="M128.418 94.6014C128.418 94.6014 140.244 92.2827 153.924 92.7465" stroke="#660000" stroke-width="0.579677" stroke-miterlimit="10" stroke-linejoin="round"/>
<path d="M201.226 223.522L213.978 223.29L210.964 213.551L201.226 223.522Z" fill="#D63C30"/>
<path d="M220.007 213.783C214.442 218.189 210.964 220.044 210.964 220.044" stroke="#660000" stroke-width="0.579677" stroke-miterlimit="10" stroke-linejoin="round"/>
<path d="M258.266 175.292C258.266 175.292 250.15 177.843 239.716 192.219C231.137 204.044 225.572 209.841 225.572 209.841" stroke="#660000" stroke-width="0.579677" stroke-miterlimit="10" stroke-linejoin="round"/>
<path d="M231.137 195.001C231.137 195.001 221.862 209.841 207.95 218.652" stroke="#660000" stroke-width="0.579677" stroke-miterlimit="10" stroke-linejoin="round"/>
<path d="M0.425537 319.748L7.14979 320.907L6.45418 310.473L0.425537 319.748Z" fill="#45A0D4"/>
<path d="M77.8704 315.806C73.9286 324.153 73.9286 340.384 73.9286 340.384" stroke="white" stroke-width="0.579677" stroke-miterlimit="10"/>
</g>
<defs>
<clipPath id="clip0">
<rect width="376.094" height="432.903" fill="white" transform="translate(0.425537 0.461899)"/>
</clipPath>
</defs>
</svg>
