<svg width="278" height="295" viewBox="0 0 278 295" fill="none" xmlns="http://www.w3.org/2000/svg">
<g clip-path="url(#clip0)">
<path d="M169.597 36.8342C169.597 36.8342 150.815 23.6176 133.889 32.8924C125.31 37.5298 112.325 45.8772 97.2532 51.9058C68.0374 63.7312 44.1548 63.7312 41.3723 72.5423C38.8217 80.8896 36.7349 74.3973 35.5755 90.3964C35.1118 96.1931 36.503 117.757 36.0393 142.104C35.5755 162.508 36.503 177.58 36.7349 192.651C36.9668 209.578 36.7349 226.041 36.7349 234.62C36.7349 263.604 55.5164 264.531 74.298 247.373C95.8619 227.896 88.6739 224.649 106.992 209.346C141.772 180.594 210.87 217.23 239.39 236.939C255.389 248.068 251.679 211.897 251.679 192.188C251.679 180.362 250.752 170.16 249.128 160.885C247.737 153.233 245.187 147.668 245.187 138.162C245.187 129.351 248.665 120.308 249.128 106.164C249.592 98.28 248.433 90.3963 246.81 85.9908C237.535 61.4125 209.479 75.7885 177.944 46.109C173.771 42.3991 169.597 36.8342 169.597 36.8342Z" fill="#F8F9FF"/>
<path d="M74.5298 203.317H36.7349" stroke="#45A0D4" stroke-width="0.579677" stroke-miterlimit="10"/>
<path d="M94.4707 54.6883H118.353" stroke="#45A0D4" stroke-width="0.579677" stroke-miterlimit="10"/>
<path d="M90.0652 65.8181H122.991" stroke="#45A0D4" stroke-width="0.579677" stroke-miterlimit="10"/>
<path d="M113.716 54.6883V65.8181" stroke="#45A0D4" stroke-width="0.579677" stroke-miterlimit="10"/>
<path d="M96.5576 54.6883V65.8181" stroke="#45A0D4" stroke-width="0.579677" stroke-miterlimit="10"/>
<path d="M187.683 138.394H215.971" stroke="#45A0D4" stroke-width="0.579677" stroke-miterlimit="10"/>
<path d="M199.276 130.51H218.29" stroke="#45A0D4" stroke-width="0.579677" stroke-miterlimit="10"/>
<path d="M190.001 148.132H206.696" stroke="#45A0D4" stroke-width="0.579677" stroke-miterlimit="10"/>
<path d="M202.986 139.321V147.205" stroke="#45A0D4" stroke-width="0.579677" stroke-miterlimit="10"/>
<path d="M210.174 131.437V138.394" stroke="#45A0D4" stroke-width="0.579677" stroke-miterlimit="10"/>
<path d="M38.59 126.104H67.8057" stroke="#45A0D4" stroke-width="0.579677" stroke-miterlimit="10"/>
<path d="M35.8075 136.307H66.1826" stroke="#45A0D4" stroke-width="0.579677" stroke-miterlimit="10"/>
<path d="M38.59 146.973H59.2265" stroke="#45A0D4" stroke-width="0.579677" stroke-miterlimit="10"/>
<path d="M49.024 136.307V146.045" stroke="#45A0D4" stroke-width="0.579677" stroke-miterlimit="10"/>
<path d="M55.0527 126.8V136.307" stroke="#45A0D4" stroke-width="0.579677" stroke-miterlimit="10"/>
<path d="M55.0527 162.044H97.0213" stroke="#45A0D4" stroke-width="0.579677" stroke-miterlimit="10"/>
<path d="M41.1404 172.942H94.2388" stroke="#45A0D4" stroke-width="0.579677" stroke-miterlimit="10"/>
<path d="M57.3713 162.044V172.942" stroke="#45A0D4" stroke-width="0.579677" stroke-miterlimit="10"/>
<path d="M81.9497 162.044V172.942" stroke="#45A0D4" stroke-width="0.579677" stroke-miterlimit="10"/>
<path d="M43.923 172.942V185.463H70.3562V172.942" stroke="#45A0D4" stroke-width="0.579677" stroke-miterlimit="10"/>
<path d="M58.7626 203.317V215.607" stroke="#45A0D4" stroke-width="0.579677" stroke-miterlimit="10"/>
<path d="M40.6768 215.607H66.4144" stroke="#45A0D4" stroke-width="0.579677" stroke-miterlimit="10"/>
<path d="M158.467 47.964C158.467 47.964 148.96 50.0509 146.874 54.6883C144.787 59.3257 142.468 67.2093 149.656 67.673C156.844 68.1368 163.336 68.1368 166.119 62.8038C168.901 57.4707 161.945 49.1234 158.467 47.964Z" fill="#E897A3"/>
<path d="M233.825 72.3104C233.825 72.3104 237.071 69.0643 239.622 68.1368C243.1 66.9774 245.419 68.1368 244.723 69.9917C244.491 71.383 246.81 70.9192 247.737 73.4698C248.665 76.0204 247.505 76.716 247.969 77.6435C248.201 78.3391 249.129 78.3391 249.824 79.7303C250.52 81.1215 250.056 84.5996 248.665 86.2227C247.969 87.1502 247.505 88.0777 245.419 89.0051C243.332 89.9326 239.39 90.3964 239.39 90.3964L233.825 72.3104Z" fill="#E897A3"/>
<path d="M155.685 48.8915C155.685 48.8915 158.699 47.5003 165.655 48.4278C171.452 49.1234 172.379 48.8915 176.089 49.819C180.031 50.9784 175.857 52.8333 175.857 53.9927C175.857 57.2389 185.132 54.4564 186.755 58.1663C188.378 61.8763 178.64 59.0938 177.248 61.1807C175.857 63.2675 180.263 63.2675 175.857 65.3543C171.452 67.4412 160.786 67.2093 160.786 67.2093C160.786 67.2093 158.235 66.2818 158.003 63.2675C157.539 60.2532 157.308 57.2389 155.916 57.2389C154.525 57.4707 153.134 59.0938 153.366 57.2389C153.83 55.6158 152.67 49.5871 155.685 48.8915Z" fill="#44A1DB"/>
<path d="M238.231 217.462C237.535 216.998 234.984 217.462 233.593 217.462C233.361 217.462 233.129 217.462 233.129 217.693V248.3C233.129 248.3 233.361 251.315 231.97 251.778C231.97 252.474 233.129 254.329 233.593 255.025C236.144 259.662 237.767 263.14 239.622 263.14C241.477 263.14 240.317 218.853 238.231 217.462Z" fill="#9ECBE3"/>
<path d="M233.361 248.764V217.925V217.462C233.361 217.462 232.202 215.838 229.883 215.838C227.796 215.838 228.956 217.23 224.782 217.23C217.594 217.23 207.856 216.534 197.189 209.578C186.523 202.622 187.219 178.739 187.219 178.739H104.905C104.905 178.739 115.339 186.623 122.295 195.898C129.251 205.172 162.409 239.257 172.379 247.837C178.64 253.17 187.683 251.315 188.842 251.315C215.044 252.01 226.173 249.46 226.173 249.46C226.173 249.46 226.405 251.083 230.347 252.474C231.274 252.706 231.738 252.706 232.202 252.474C233.593 251.778 233.361 248.764 233.361 248.764Z" fill="#9AF4DC"/>
<path d="M161.249 71.8467C161.249 69.7599 160.786 67.2093 160.786 67.2093L151.743 65.1225C151.743 65.1225 152.438 69.7599 150.352 71.8467C153.366 71.8467 157.076 71.8467 161.249 71.8467Z" fill="#E897A3"/>
<path d="M148.728 291.428C141.54 291.196 134.816 289.341 132.729 287.255C131.802 287.718 129.483 288.414 125.078 289.805C117.194 292.124 116.962 291.892 116.498 293.051C116.267 294.211 121.136 294.906 126.005 294.674C130.643 294.443 170.292 295.138 171.916 293.515C171.916 293.515 172.379 292.82 172.379 291.428C172.379 290.501 171.916 289.805 171.452 289.11C167.51 290.501 156.38 291.66 148.728 291.428Z" fill="#9ECBE3"/>
<path d="M180.495 184.072C180.495 183.377 180.495 182.681 180.495 181.985C178.64 182.449 176.553 182.681 174.002 182.913C149.656 186.391 113.252 180.594 101.891 178.739C101.891 178.739 101.891 178.739 101.659 178.739C101.427 178.739 100.963 178.507 100.731 178.507L101.427 184.072C101.427 184.072 111.165 236.707 119.281 244.822C120.904 246.445 124.846 248.996 126.005 251.315C131.338 260.126 132.729 275.429 134.584 279.371C136.903 284.008 134.584 283.777 134.584 283.777C134.584 283.777 132.497 283.313 131.802 285.632C131.57 286.095 132.034 286.791 132.497 287.255C134.584 289.11 141.309 290.965 148.497 291.428C156.148 291.892 167.51 290.501 171.22 289.11H171.452C172.147 288.878 172.611 288.646 172.611 288.414C173.075 286.791 172.611 284.704 172.611 284.704C172.611 284.704 175.625 275.197 172.843 261.285C170.061 247.373 166.119 237.866 168.437 226.505C170.756 215.143 180.263 192.188 180.495 184.072Z" fill="#9AF4DC"/>
<path d="M233.825 72.3104C233.825 72.3104 218.058 81.3534 189.77 75.0929C181.422 73.2379 170.292 72.3104 161.25 71.8467C157.076 71.6148 153.366 71.6148 150.352 71.8467C149.656 71.8467 120.208 73.2379 104.441 75.0929C69.6606 79.2666 51.3428 71.8467 51.3428 71.8467L44.1548 94.3382C44.1548 94.3382 53.4296 102.222 82.1816 111.497C87.9784 113.352 94.2389 122.395 94.2389 134.22C94.2389 142.567 92.6158 156.943 97.2532 177.116C97.7169 178.739 102.586 182.217 103.977 182.681C104.209 182.681 120.672 189.173 180.727 181.985C202.754 179.435 196.494 173.174 196.494 173.174C196.494 173.174 193.48 170.392 190.697 161.349C189.77 158.334 188.842 153.929 188.842 140.017C188.842 126.8 191.625 118.221 209.015 113.583C226.405 108.946 239.39 90.6282 239.39 90.6282L233.825 72.3104Z" fill="#3844E5"/>
<path d="M184.437 50.0509C180.958 50.7465 180.263 52.3696 181.886 53.0652C183.509 53.7608 187.683 54.2245 187.683 52.1377C187.683 50.2827 185.596 49.819 184.437 50.0509Z" fill="#44A1DB"/>
<path d="M175.857 207.723C173.539 214.911 171.452 222.331 171.22 227.2C170.292 238.794 175.857 250.155 177.249 264.068C178.64 277.98 175.857 287.255 175.857 287.255" stroke="#660000" stroke-width="0.579677" stroke-miterlimit="10" stroke-linejoin="round"/>
<path d="M182.35 188.941C182.35 188.941 179.799 195.434 177.249 203.317" stroke="#660000" stroke-width="0.579677" stroke-miterlimit="10" stroke-linejoin="round"/>
<path d="M120.672 249.46C120.672 249.46 125.31 257.575 131.57 245.982" stroke="#660000" stroke-width="0.579677" stroke-miterlimit="10" stroke-linejoin="round"/>
<path d="M138.062 283.777C138.062 283.777 144.091 287.023 150.815 287.255" stroke="#660000" stroke-width="0.579677" stroke-miterlimit="10" stroke-linejoin="round"/>
<path d="M156.148 287.255C156.148 287.255 159.858 287.718 164.959 285.632" stroke="#660000" stroke-width="0.579677" stroke-miterlimit="10" stroke-linejoin="round"/>
<path d="M227.101 248.3C227.101 248.3 228.26 249.923 228.956 247.605C229.42 245.286 228.028 222.795 228.028 222.795" stroke="#660000" stroke-width="0.579677" stroke-miterlimit="10" stroke-linejoin="round"/>
<path d="M51.3427 72.0786C51.3427 72.0786 45.7779 70.4555 43.9229 68.1368C42.0679 65.8181 40.6767 65.5862 39.5173 66.9774C38.358 68.3686 39.5173 72.0786 39.5173 72.0786C39.5173 72.0786 37.4305 70.6874 36.9668 73.4698C36.503 76.2523 37.1986 79.4984 37.1986 79.4984C37.1986 79.4984 35.1118 79.7303 35.3437 82.2809C35.5755 84.8315 36.503 85.759 36.503 85.759C36.503 85.759 33.9524 86.2227 36.7349 89.9326C38.1261 92.0195 43.9229 94.3382 43.9229 94.3382L51.3427 72.0786Z" fill="#E897A3"/>
<mask id="mask0" mask-type="alpha" maskUnits="userSpaceOnUse" x="44" y="71" width="196" height="115">
<path d="M233.825 72.3104C233.825 72.3104 218.058 81.3534 189.77 75.0929C181.422 73.2379 170.292 72.3104 161.25 71.8467C157.076 71.6148 153.366 71.6148 150.352 71.8467C149.656 71.8467 120.208 73.2379 104.441 75.0929C69.6606 79.2666 51.3428 71.8467 51.3428 71.8467L44.1548 94.3382C44.1548 94.3382 53.4296 102.222 82.1816 111.497C87.9784 113.352 94.2389 122.395 94.2389 134.22C94.2389 142.567 92.6158 156.943 97.2532 177.116C97.7169 178.739 102.586 182.217 103.977 182.681C104.209 182.681 120.672 189.173 180.727 181.985C202.754 179.435 196.494 173.174 196.494 173.174C196.494 173.174 193.48 170.392 190.697 161.349C189.77 158.334 188.842 153.929 188.842 140.017C188.842 126.8 191.625 118.221 209.015 113.583C226.405 108.946 239.39 90.6282 239.39 90.6282L233.825 72.3104Z" fill="#3844E5"/>
</mask>
<g mask="url(#mask0)">
<path d="M45.0822 122.858C47.1312 122.858 48.7922 121.197 48.7922 119.148C48.7922 117.099 47.1312 115.438 45.0822 115.438C43.0333 115.438 41.3723 117.099 41.3723 119.148C41.3723 121.197 43.0333 122.858 45.0822 122.858Z" stroke="white" stroke-width="0.579677" stroke-miterlimit="10" stroke-linejoin="round"/>
<path d="M52.0384 145.35C54.0874 145.35 55.7484 143.689 55.7484 141.64C55.7484 139.591 54.0874 137.93 52.0384 137.93C49.9895 137.93 48.3285 139.591 48.3285 141.64C48.3285 143.689 49.9895 145.35 52.0384 145.35Z" stroke="white" stroke-width="0.579677" stroke-miterlimit="10" stroke-linejoin="round"/>
<path d="M58.9945 167.841C61.0434 167.841 62.7044 166.18 62.7044 164.131C62.7044 162.082 61.0434 160.421 58.9945 160.421C56.9455 160.421 55.2845 162.082 55.2845 164.131C55.2845 166.18 56.9455 167.841 58.9945 167.841Z" stroke="white" stroke-width="0.579677" stroke-miterlimit="10" stroke-linejoin="round"/>
<path d="M65.9507 190.333C67.9996 190.333 69.6606 188.672 69.6606 186.623C69.6606 184.574 67.9996 182.913 65.9507 182.913C63.9017 182.913 62.2407 184.574 62.2407 186.623C62.2407 188.672 63.9017 190.333 65.9507 190.333Z" stroke="white" stroke-width="0.579677" stroke-miterlimit="10" stroke-linejoin="round"/>
<path d="M53.6615 84.8315C55.7104 84.8315 57.3714 83.1705 57.3714 81.1216C57.3714 79.0726 55.7104 77.4116 53.6615 77.4116C51.6125 77.4116 49.9515 79.0726 49.9515 81.1216C49.9515 83.1705 51.6125 84.8315 53.6615 84.8315Z" stroke="white" stroke-width="0.579677" stroke-miterlimit="10" stroke-linejoin="round"/>
<path d="M60.6176 107.555C62.6666 107.555 64.3276 105.894 64.3276 103.845C64.3276 101.796 62.6666 100.135 60.6176 100.135C58.5687 100.135 56.9077 101.796 56.9077 103.845C56.9077 105.894 58.5687 107.555 60.6176 107.555Z" stroke="white" stroke-width="0.579677" stroke-miterlimit="10" stroke-linejoin="round"/>
<path d="M67.5737 130.046C69.6226 130.046 71.2836 128.385 71.2836 126.336C71.2836 124.287 69.6226 122.626 67.5737 122.626C65.5248 122.626 63.8638 124.287 63.8638 126.336C63.8638 128.385 65.5248 130.046 67.5737 130.046Z" stroke="white" stroke-width="0.579677" stroke-miterlimit="10" stroke-linejoin="round"/>
<path d="M74.5299 152.538C76.5788 152.538 78.2398 150.877 78.2398 148.828C78.2398 146.779 76.5788 145.118 74.5299 145.118C72.4809 145.118 70.8199 146.779 70.8199 148.828C70.8199 150.877 72.4809 152.538 74.5299 152.538Z" stroke="white" stroke-width="0.579677" stroke-miterlimit="10" stroke-linejoin="round"/>
<path d="M81.4859 175.029C83.5349 175.029 85.1959 173.368 85.1959 171.319C85.1959 169.27 83.5349 167.609 81.4859 167.609C79.437 167.609 77.776 169.27 77.776 171.319C77.776 173.368 79.437 175.029 81.4859 175.029Z" stroke="white" stroke-width="0.579677" stroke-miterlimit="10" stroke-linejoin="round"/>
<path d="M76.6167 88.5414C78.6656 88.5414 80.3266 86.8804 80.3266 84.8315C80.3266 82.7825 78.6656 81.1216 76.6167 81.1216C74.5677 81.1216 72.9067 82.7825 72.9067 84.8315C72.9067 86.8804 74.5677 88.5414 76.6167 88.5414Z" stroke="white" stroke-width="0.579677" stroke-miterlimit="10" stroke-linejoin="round"/>
<path d="M83.5729 111.033C85.6218 111.033 87.2828 109.372 87.2828 107.323C87.2828 105.274 85.6218 103.613 83.5729 103.613C81.5239 103.613 79.8629 105.274 79.8629 107.323C79.8629 109.372 81.5239 111.033 83.5729 111.033Z" stroke="white" stroke-width="0.579677" stroke-miterlimit="10" stroke-linejoin="round"/>
<path d="M90.5289 133.524C92.5778 133.524 94.2388 131.863 94.2388 129.814C94.2388 127.765 92.5778 126.104 90.5289 126.104C88.48 126.104 86.819 127.765 86.819 129.814C86.819 131.863 88.48 133.524 90.5289 133.524Z" stroke="white" stroke-width="0.579677" stroke-miterlimit="10" stroke-linejoin="round"/>
<path d="M97.4851 156.016C99.534 156.016 101.195 154.355 101.195 152.306C101.195 150.257 99.534 148.596 97.4851 148.596C95.4361 148.596 93.7751 150.257 93.7751 152.306C93.7751 154.355 95.4361 156.016 97.4851 156.016Z" stroke="white" stroke-width="0.579677" stroke-miterlimit="10" stroke-linejoin="round"/>
<path d="M104.441 178.507C106.49 178.507 108.151 176.846 108.151 174.797C108.151 172.748 106.49 171.087 104.441 171.087C102.392 171.087 100.731 172.748 100.731 174.797C100.731 176.846 102.392 178.507 104.441 178.507Z" stroke="white" stroke-width="0.579677" stroke-miterlimit="10" stroke-linejoin="round"/>
<path d="M91.9201 73.0061C93.9691 73.0061 95.6301 71.3451 95.6301 69.2961C95.6301 67.2472 93.9691 65.5862 91.9201 65.5862C89.8712 65.5862 88.2102 67.2472 88.2102 69.2961C88.2102 71.3451 89.8712 73.0061 91.9201 73.0061Z" stroke="white" stroke-width="0.579677" stroke-miterlimit="10" stroke-linejoin="round"/>
<path d="M98.8763 95.4975C100.925 95.4975 102.586 93.8365 102.586 91.7876C102.586 89.7387 100.925 88.0777 98.8763 88.0777C96.8274 88.0777 95.1664 89.7387 95.1664 91.7876C95.1664 93.8365 96.8274 95.4975 98.8763 95.4975Z" stroke="white" stroke-width="0.579677" stroke-miterlimit="10" stroke-linejoin="round"/>
<path d="M105.832 117.989C107.881 117.989 109.542 116.328 109.542 114.279C109.542 112.23 107.881 110.569 105.832 110.569C103.783 110.569 102.122 112.23 102.122 114.279C102.122 116.328 103.783 117.989 105.832 117.989Z" stroke="white" stroke-width="0.579677" stroke-miterlimit="10" stroke-linejoin="round"/>
<path d="M112.789 140.48C114.837 140.48 116.498 138.819 116.498 136.771C116.498 134.722 114.837 133.061 112.789 133.061C110.74 133.061 109.079 134.722 109.079 136.771C109.079 138.819 110.74 140.48 112.789 140.48Z" stroke="white" stroke-width="0.579677" stroke-miterlimit="10" stroke-linejoin="round"/>
<path d="M119.745 163.204C121.794 163.204 123.455 161.543 123.455 159.494C123.455 157.445 121.794 155.784 119.745 155.784C117.696 155.784 116.035 157.445 116.035 159.494C116.035 161.543 117.696 163.204 119.745 163.204Z" stroke="white" stroke-width="0.579677" stroke-miterlimit="10" stroke-linejoin="round"/>
<path d="M126.701 185.695C128.75 185.695 130.411 184.034 130.411 181.985C130.411 179.936 128.75 178.275 126.701 178.275C124.652 178.275 122.991 179.936 122.991 181.985C122.991 184.034 124.652 185.695 126.701 185.695Z" stroke="white" stroke-width="0.579677" stroke-miterlimit="10" stroke-linejoin="round"/>
<path d="M114.875 76.716C116.924 76.716 118.585 75.055 118.585 73.0061C118.585 70.9571 116.924 69.2961 114.875 69.2961C112.826 69.2961 111.165 70.9571 111.165 73.0061C111.165 75.055 112.826 76.716 114.875 76.716Z" stroke="white" stroke-width="0.579677" stroke-miterlimit="10" stroke-linejoin="round"/>
<path d="M121.832 99.2075C123.88 99.2075 125.541 97.5465 125.541 95.4975C125.541 93.4486 123.88 91.7876 121.832 91.7876C119.783 91.7876 118.122 93.4486 118.122 95.4975C118.122 97.5465 119.783 99.2075 121.832 99.2075Z" stroke="white" stroke-width="0.579677" stroke-miterlimit="10" stroke-linejoin="round"/>
<path d="M128.788 121.699C130.837 121.699 132.498 120.038 132.498 117.989C132.498 115.94 130.837 114.279 128.788 114.279C126.739 114.279 125.078 115.94 125.078 117.989C125.078 120.038 126.739 121.699 128.788 121.699Z" stroke="white" stroke-width="0.579677" stroke-miterlimit="10" stroke-linejoin="round"/>
<path d="M135.744 144.19C137.793 144.19 139.454 142.529 139.454 140.48C139.454 138.432 137.793 136.771 135.744 136.771C133.695 136.771 132.034 138.432 132.034 140.48C132.034 142.529 133.695 144.19 135.744 144.19Z" stroke="white" stroke-width="0.579677" stroke-miterlimit="10" stroke-linejoin="round"/>
<path d="M142.7 166.682C144.749 166.682 146.41 165.021 146.41 162.972C146.41 160.923 144.749 159.262 142.7 159.262C140.651 159.262 138.99 160.923 138.99 162.972C138.99 165.021 140.651 166.682 142.7 166.682Z" stroke="white" stroke-width="0.579677" stroke-miterlimit="10" stroke-linejoin="round"/>
<path d="M149.656 189.173C151.705 189.173 153.366 187.512 153.366 185.463C153.366 183.414 151.705 181.753 149.656 181.753C147.607 181.753 145.946 183.414 145.946 185.463C145.946 187.512 147.607 189.173 149.656 189.173Z" stroke="white" stroke-width="0.579677" stroke-miterlimit="10" stroke-linejoin="round"/>
<path d="M137.367 83.6721C139.416 83.6721 141.077 82.0111 141.077 79.9622C141.077 77.9133 139.416 76.2523 137.367 76.2523C135.318 76.2523 133.657 77.9133 133.657 79.9622C133.657 82.0111 135.318 83.6721 137.367 83.6721Z" stroke="white" stroke-width="0.579677" stroke-miterlimit="10" stroke-linejoin="round"/>
<path d="M144.323 106.164C146.372 106.164 148.033 104.503 148.033 102.454C148.033 100.405 146.372 98.7437 144.323 98.7437C142.274 98.7437 140.613 100.405 140.613 102.454C140.613 104.503 142.274 106.164 144.323 106.164Z" stroke="white" stroke-width="0.579677" stroke-miterlimit="10" stroke-linejoin="round"/>
<path d="M151.279 128.655C153.328 128.655 154.989 126.994 154.989 124.945C154.989 122.896 153.328 121.235 151.279 121.235C149.23 121.235 147.569 122.896 147.569 124.945C147.569 126.994 149.23 128.655 151.279 128.655Z" stroke="white" stroke-width="0.579677" stroke-miterlimit="10" stroke-linejoin="round"/>
<path d="M158.235 151.147C160.284 151.147 161.945 149.486 161.945 147.437C161.945 145.388 160.284 143.727 158.235 143.727C156.186 143.727 154.525 145.388 154.525 147.437C154.525 149.486 156.186 151.147 158.235 151.147Z" stroke="white" stroke-width="0.579677" stroke-miterlimit="10" stroke-linejoin="round"/>
<path d="M165.191 173.638C167.24 173.638 168.901 171.977 168.901 169.928C168.901 167.879 167.24 166.218 165.191 166.218C163.142 166.218 161.481 167.879 161.481 169.928C161.481 171.977 163.142 173.638 165.191 173.638Z" stroke="white" stroke-width="0.579677" stroke-miterlimit="10" stroke-linejoin="round"/>
<path d="M160.322 87.1502C162.371 87.1502 164.032 85.4892 164.032 83.4403C164.032 81.3913 162.371 79.7303 160.322 79.7303C158.273 79.7303 156.612 81.3913 156.612 83.4403C156.612 85.4892 158.273 87.1502 160.322 87.1502Z" stroke="white" stroke-width="0.579677" stroke-miterlimit="10" stroke-linejoin="round"/>
<path d="M167.278 109.642C169.327 109.642 170.988 107.981 170.988 105.932C170.988 103.883 169.327 102.222 167.278 102.222C165.229 102.222 163.568 103.883 163.568 105.932C163.568 107.981 165.229 109.642 167.278 109.642Z" stroke="white" stroke-width="0.579677" stroke-miterlimit="10" stroke-linejoin="round"/>
<path d="M174.234 132.365C176.283 132.365 177.944 130.704 177.944 128.655C177.944 126.606 176.283 124.945 174.234 124.945C172.185 124.945 170.524 126.606 170.524 128.655C170.524 130.704 172.185 132.365 174.234 132.365Z" stroke="white" stroke-width="0.579677" stroke-miterlimit="10" stroke-linejoin="round"/>
<path d="M181.19 154.856C183.239 154.856 184.9 153.195 184.9 151.147C184.9 149.098 183.239 147.437 181.19 147.437C179.141 147.437 177.48 149.098 177.48 151.147C177.48 153.195 179.141 154.856 181.19 154.856Z" stroke="white" stroke-width="0.579677" stroke-miterlimit="10" stroke-linejoin="round"/>
<path d="M188.147 177.348C190.196 177.348 191.857 175.687 191.857 173.638C191.857 171.589 190.196 169.928 188.147 169.928C186.098 169.928 184.437 171.589 184.437 173.638C184.437 175.687 186.098 177.348 188.147 177.348Z" stroke="white" stroke-width="0.579677" stroke-miterlimit="10" stroke-linejoin="round"/>
<path d="M175.625 71.8467C177.674 71.8467 179.335 70.1857 179.335 68.1368C179.335 66.0878 177.674 64.4269 175.625 64.4269C173.577 64.4269 171.916 66.0878 171.916 68.1368C171.916 70.1857 173.577 71.8467 175.625 71.8467Z" stroke="white" stroke-width="0.579677" stroke-miterlimit="10" stroke-linejoin="round"/>
<path d="M182.582 94.3382C184.631 94.3382 186.292 92.6772 186.292 90.6283C186.292 88.5793 184.631 86.9183 182.582 86.9183C180.533 86.9183 178.872 88.5793 178.872 90.6283C178.872 92.6772 180.533 94.3382 182.582 94.3382Z" stroke="white" stroke-width="0.579677" stroke-miterlimit="10" stroke-linejoin="round"/>
<path d="M189.538 116.83C191.587 116.83 193.248 115.169 193.248 113.12C193.248 111.071 191.587 109.41 189.538 109.41C187.489 109.41 185.828 111.071 185.828 113.12C185.828 115.169 187.489 116.83 189.538 116.83Z" stroke="white" stroke-width="0.579677" stroke-miterlimit="10" stroke-linejoin="round"/>
<path d="M196.726 139.321C198.775 139.321 200.436 137.66 200.436 135.611C200.436 133.562 198.775 131.901 196.726 131.901C194.677 131.901 193.016 133.562 193.016 135.611C193.016 137.66 194.677 139.321 196.726 139.321Z" stroke="white" stroke-width="0.579677" stroke-miterlimit="10" stroke-linejoin="round"/>
<path d="M203.682 161.813C205.731 161.813 207.392 160.152 207.392 158.103C207.392 156.054 205.731 154.393 203.682 154.393C201.633 154.393 199.972 156.054 199.972 158.103C199.972 160.152 201.633 161.813 203.682 161.813Z" stroke="white" stroke-width="0.579677" stroke-miterlimit="10" stroke-linejoin="round"/>
<path d="M210.638 184.304C212.687 184.304 214.348 182.643 214.348 180.594C214.348 178.545 212.687 176.884 210.638 176.884C208.589 176.884 206.928 178.545 206.928 180.594C206.928 182.643 208.589 184.304 210.638 184.304Z" stroke="white" stroke-width="0.579677" stroke-miterlimit="10" stroke-linejoin="round"/>
<path d="M198.581 75.3248C200.63 75.3248 202.291 73.6638 202.291 71.6148C202.291 69.5659 200.63 67.9049 198.581 67.9049C196.532 67.9049 194.871 69.5659 194.871 71.6148C194.871 73.6638 196.532 75.3248 198.581 75.3248Z" stroke="white" stroke-width="0.579677" stroke-miterlimit="10" stroke-linejoin="round"/>
<path d="M205.537 97.8162C207.586 97.8162 209.247 96.1553 209.247 94.1063C209.247 92.0574 207.586 90.3964 205.537 90.3964C203.488 90.3964 201.827 92.0574 201.827 94.1063C201.827 96.1553 203.488 97.8162 205.537 97.8162Z" stroke="white" stroke-width="0.579677" stroke-miterlimit="10" stroke-linejoin="round"/>
<path d="M212.493 120.308C214.542 120.308 216.203 118.647 216.203 116.598C216.203 114.549 214.542 112.888 212.493 112.888C210.444 112.888 208.783 114.549 208.783 116.598C208.783 118.647 210.444 120.308 212.493 120.308Z" stroke="white" stroke-width="0.579677" stroke-miterlimit="10" stroke-linejoin="round"/>
<path d="M219.681 142.799C221.73 142.799 223.391 141.138 223.391 139.089C223.391 137.04 221.73 135.379 219.681 135.379C217.632 135.379 215.971 137.04 215.971 139.089C215.971 141.138 217.632 142.799 219.681 142.799Z" stroke="white" stroke-width="0.579677" stroke-miterlimit="10" stroke-linejoin="round"/>
<path d="M226.637 165.291C228.686 165.291 230.347 163.63 230.347 161.581C230.347 159.532 228.686 157.871 226.637 157.871C224.588 157.871 222.927 159.532 222.927 161.581C222.927 163.63 224.588 165.291 226.637 165.291Z" stroke="white" stroke-width="0.579677" stroke-miterlimit="10" stroke-linejoin="round"/>
<path d="M233.593 188.014C235.642 188.014 237.303 186.353 237.303 184.304C237.303 182.255 235.642 180.594 233.593 180.594C231.544 180.594 229.883 182.255 229.883 184.304C229.883 186.353 231.544 188.014 233.593 188.014Z" stroke="white" stroke-width="0.579677" stroke-miterlimit="10" stroke-linejoin="round"/>
<path d="M221.072 82.5128C223.121 82.5128 224.782 80.8518 224.782 78.8028C224.782 76.7539 223.121 75.0929 221.072 75.0929C219.023 75.0929 217.362 76.7539 217.362 78.8028C217.362 80.8518 219.023 82.5128 221.072 82.5128Z" stroke="white" stroke-width="0.579677" stroke-miterlimit="10" stroke-linejoin="round"/>
<path d="M228.028 105.004C230.077 105.004 231.738 103.343 231.738 101.294C231.738 99.2454 230.077 97.5844 228.028 97.5844C225.979 97.5844 224.318 99.2454 224.318 101.294C224.318 103.343 225.979 105.004 228.028 105.004Z" stroke="white" stroke-width="0.579677" stroke-miterlimit="10" stroke-linejoin="round"/>
<path d="M234.984 127.496C237.033 127.496 238.694 125.835 238.694 123.786C238.694 121.737 237.033 120.076 234.984 120.076C232.935 120.076 231.274 121.737 231.274 123.786C231.274 125.835 232.935 127.496 234.984 127.496Z" stroke="white" stroke-width="0.579677" stroke-miterlimit="10" stroke-linejoin="round"/>
<path d="M241.941 149.987C243.989 149.987 245.65 148.326 245.65 146.277C245.65 144.228 243.989 142.567 241.941 142.567C239.892 142.567 238.231 144.228 238.231 146.277C238.231 148.326 239.892 149.987 241.941 149.987Z" stroke="white" stroke-width="0.579677" stroke-miterlimit="10" stroke-linejoin="round"/>
</g>
<path d="M229.188 95.7294C232.666 92.4832 234.753 90.1645 234.753 90.1645" stroke="#660000" stroke-width="0.579677" stroke-miterlimit="10" stroke-linejoin="round"/>
<path d="M267.91 213.983L257.708 214.679L262.345 229.287L267.91 213.983Z" fill="#45A0D4"/>
<path d="M247.969 90.8601C247.969 90.8601 250.983 99.2075 247.969 117.293C244.955 135.379 243.795 141.64 247.969 156.016C252.143 170.392 251.679 188.246 251.679 188.246" stroke="#660000" stroke-width="0.579677" stroke-miterlimit="10" stroke-linejoin="round"/>
<path d="M155.685 14.5746C155.685 14.5746 130.179 47.5003 49.4878 66.0499" stroke="#660000" stroke-width="0.579677" stroke-miterlimit="10" stroke-linejoin="round"/>
<path d="M36.7349 192.651C36.7349 192.651 35.3436 117.061 35.3436 92.0195C35.3436 87.8458 36.0392 84.5996 36.0392 84.5996" stroke="#660000" stroke-width="0.579677" stroke-miterlimit="10" stroke-linejoin="round"/>
<path d="M36.7349 212.824C36.7349 212.824 36.7349 229.983 37.4305 242.967C38.1261 255.952 37.4305 285.4 0.794922 287.255" stroke="#660000" stroke-width="0.579677" stroke-miterlimit="10" stroke-linejoin="round"/>
<path d="M81.9497 45.8772C81.9497 45.8772 68.2693 51.6739 42.5316 56.0795C28.8513 58.3982 23.2864 71.6148 23.2864 90.1645C23.2864 101.758 23.982 126.8 23.982 128.655" stroke="#660000" stroke-width="0.579677" stroke-miterlimit="10" stroke-linejoin="round"/>
<path d="M155.685 14.5746C155.685 14.5746 172.843 54.6883 208.783 65.1224C218.753 67.9049 225.014 69.528 229.188 70.6873" stroke="#660000" stroke-width="0.579677" stroke-miterlimit="10" stroke-linejoin="round"/>
<path d="M251.679 196.129C251.679 196.129 253.07 247.141 252.838 266.618C252.375 289.341 275.562 288.878 277.649 288.878" stroke="#660000" stroke-width="0.579677" stroke-miterlimit="10" stroke-linejoin="round"/>
<path d="M190.929 183.608C190.929 183.608 191.393 199.144 197.653 205.172C204.377 211.665 212.957 213.288 220.608 213.983C226.405 214.447 225.478 211.201 229.188 211.201C232.898 211.201 233.593 213.288 233.593 213.288" stroke="#660000" stroke-width="0.579677" stroke-miterlimit="10" stroke-linejoin="round"/>
<path d="M25.6051 218.157C25.837 229.055 25.6051 239.953 25.1414 243.663" stroke="#660000" stroke-width="0.579677" stroke-miterlimit="10" stroke-linejoin="round"/>
<path d="M25.3733 197.753C25.3733 197.753 25.3733 201.694 25.6052 211.897" stroke="#660000" stroke-width="0.579677" stroke-miterlimit="10" stroke-linejoin="round"/>
<path d="M201.827 50.0509C201.827 50.0509 212.957 57.7026 229.42 60.2532" stroke="#660000" stroke-width="0.579677" stroke-miterlimit="10" stroke-linejoin="round"/>
<path d="M255.157 84.1358C255.157 84.1358 259.331 89.7007 258.403 110.569C257.476 131.437 252.838 137.466 255.853 146.973C259.795 159.03 259.795 169.232 259.795 169.232" stroke="#660000" stroke-width="0.579677" stroke-miterlimit="10" stroke-linejoin="round"/>
<path d="M262.113 204.941V214.911" stroke="#660000" stroke-width="0.579677" stroke-miterlimit="10" stroke-linejoin="round"/>
<path d="M263.273 255.488C263.505 261.517 264.2 267.546 265.128 270.56C267.215 277.052 275.098 276.589 275.098 276.589" stroke="#660000" stroke-width="0.579677" stroke-miterlimit="10" stroke-linejoin="round"/>
<path d="M192.784 154.625C192.552 151.61 192.552 147.9 192.552 143.031C192.552 129.814 195.335 121.235 212.725 116.598C220.84 114.511 228.028 109.874 233.593 105.468" stroke="#660000" stroke-width="0.579677" stroke-miterlimit="10" stroke-linejoin="round"/>
<path d="M9.37415 274.502C12.1566 274.038 15.1709 273.111 17.7215 271.487C23.982 267.314 23.982 263.14 23.982 263.14" stroke="#660000" stroke-width="0.579677" stroke-miterlimit="10" stroke-linejoin="round"/>
<path d="M94.2388 41.0079C94.2388 41.0079 108.847 35.443 116.266 29.8781" stroke="#660000" stroke-width="0.579677" stroke-miterlimit="10" stroke-linejoin="round"/>
<path d="M26.0689 175.725L31.8656 161.581L19.8083 160.189L26.0689 175.725Z" fill="#D63C30"/>
<path d="M27.46 155.088L27.2281 166.218" stroke="#660000" stroke-width="0.579677" stroke-miterlimit="10" stroke-linejoin="round"/>
<path d="M23.7501 150.683L23.982 163.899" stroke="#660000" stroke-width="0.579677" stroke-miterlimit="10" stroke-linejoin="round"/>
</g>
<defs>
<clipPath id="clip0">
<rect width="276.622" height="294.244" fill="white" transform="translate(0.794922 0.198639)"/>
</clipPath>
</defs>
</svg>
