<svg width="297" height="346" viewBox="0 0 297 346" fill="none" xmlns="http://www.w3.org/2000/svg">
<g clip-path="url(#clip0)">
<path d="M101.535 36.6337C2.75785 72.3418 92.26 121.267 55.6244 158.83C18.9888 196.393 2.98972 233.492 27.1043 276.388C51.2188 319.516 103.622 320.212 188.95 292.619C259.439 269.896 283.553 222.362 292.828 186.422C318.102 86.7178 200.544 0.693775 101.535 36.6337Z" fill="#F8F9FF"/>
<path d="M54.6969 252.969L68.6091 265.026" stroke="#9ECBE3" stroke-width="4.63741" stroke-miterlimit="10"/>
<path d="M46.3495 246.477L45.4221 252.274L52.3782 255.983L57.9431 250.419L55.6244 244.158L50.5232 242.767" stroke="#9ECBE3" stroke-width="4.63741" stroke-miterlimit="10"/>
<path d="M64.8992 296.097L60.2618 268.273L117.07 252.505V293.083C117.07 293.083 111.969 295.402 104.085 295.402C99.4479 295.402 93.6512 294.01 87.3907 292.851C78.5796 291.46 64.8992 296.097 64.8992 296.097Z" fill="#98A2F4"/>
<mask id="mask0" mask-type="alpha" maskUnits="userSpaceOnUse" x="60" y="252" width="58" height="45">
<path d="M64.8992 296.097L60.2618 268.273L117.07 252.505V293.083C117.07 293.083 111.969 295.402 104.085 295.402C99.4479 295.402 93.6512 294.01 87.3907 292.851C78.5796 291.46 64.8992 296.097 64.8992 296.097Z" fill="#98A2F4"/>
</mask>
<g mask="url(#mask0)">
<path d="M21.0757 273.374L96.2018 314.183" stroke="#45A0D4" stroke-width="0.579677" stroke-miterlimit="10"/>
<path d="M18.757 276.852L93.8831 317.661" stroke="#45A0D4" stroke-width="0.579677" stroke-miterlimit="10"/>
<path d="M16.4382 280.33L91.5644 321.139" stroke="#45A0D4" stroke-width="0.579677" stroke-miterlimit="10"/>
<path d="M14.1196 283.808L89.2457 324.617" stroke="#45A0D4" stroke-width="0.579677" stroke-miterlimit="10"/>
<path d="M12.0327 287.286L86.9269 327.863" stroke="#45A0D4" stroke-width="0.579677" stroke-miterlimit="10"/>
<path d="M9.71399 290.764L84.8401 331.341" stroke="#45A0D4" stroke-width="0.579677" stroke-miterlimit="10"/>
<path d="M7.39526 294.242L82.5214 334.82" stroke="#45A0D4" stroke-width="0.579677" stroke-miterlimit="10"/>
<path d="M43.5671 239.057L118.693 279.634" stroke="#45A0D4" stroke-width="0.579677" stroke-miterlimit="10"/>
<path d="M41.4803 242.303L116.606 283.112" stroke="#45A0D4" stroke-width="0.579677" stroke-miterlimit="10"/>
<path d="M39.1616 245.781L114.288 286.59" stroke="#45A0D4" stroke-width="0.579677" stroke-miterlimit="10"/>
<path d="M36.8429 249.259L111.969 290.068" stroke="#45A0D4" stroke-width="0.579677" stroke-miterlimit="10"/>
<path d="M34.5242 252.737L109.65 293.547" stroke="#45A0D4" stroke-width="0.579677" stroke-miterlimit="10"/>
<path d="M32.2054 256.215L107.332 297.025" stroke="#45A0D4" stroke-width="0.579677" stroke-miterlimit="10"/>
<path d="M30.1186 259.693L105.245 300.271" stroke="#45A0D4" stroke-width="0.579677" stroke-miterlimit="10"/>
<path d="M27.7999 263.171L102.926 303.749" stroke="#45A0D4" stroke-width="0.579677" stroke-miterlimit="10"/>
<path d="M25.4812 266.65L100.607 307.227" stroke="#45A0D4" stroke-width="0.579677" stroke-miterlimit="10"/>
<path d="M23.1625 270.128L98.2886 310.705" stroke="#45A0D4" stroke-width="0.579677" stroke-miterlimit="10"/>
</g>
<path d="M149.3 287.75L158.807 255.52L172.255 260.853L203.326 272.678L196.37 288.445C196.37 288.445 187.559 288.677 185.472 289.837C181.298 291.923 178.284 292.851 173.878 292.619C165.531 291.923 163.908 288.214 156.488 287.75C152.546 287.286 149.3 287.75 149.3 287.75Z" fill="#98A2F4"/>
<path d="M170.864 264.331L174.11 256.447L192.892 264.099L189.414 271.519" stroke="#44A1DB" stroke-width="2.31871" stroke-miterlimit="10"/>
<path d="M70.696 262.244L68.6091 255.288L95.5061 248.564L96.8974 255.288" stroke="#9ECBE3" stroke-width="2.31871" stroke-miterlimit="10"/>
<path d="M117.07 252.505H100.375L50.5233 267.113L60.2618 268.273L117.07 253.433" fill="#C0C8F9"/>
<path d="M162.517 288.909L176.197 28.7501" stroke="#9ECBE3" stroke-width="2.31871" stroke-miterlimit="10"/>
<path d="M147.213 27.5908L99.6798 295.17" stroke="#9ECBE3" stroke-width="2.31871" stroke-miterlimit="10"/>
<path d="M104.085 270.823H163.212" stroke="#9ECBE3" stroke-width="2.31871" stroke-miterlimit="10"/>
<path d="M109.65 239.289H165.067" stroke="#9ECBE3" stroke-width="2.31871" stroke-miterlimit="10"/>
<path d="M114.751 211.001L166.459 210.073" stroke="#9ECBE3" stroke-width="2.31871" stroke-miterlimit="10"/>
<path d="M120.084 180.394L168.082 182.249" stroke="#9ECBE3" stroke-width="2.31871" stroke-miterlimit="10"/>
<path d="M125.417 150.946L169.241 152.105" stroke="#9ECBE3" stroke-width="2.31871" stroke-miterlimit="10"/>
<path d="M129.823 125.208L171.096 124.281" stroke="#9ECBE3" stroke-width="2.31871" stroke-miterlimit="10"/>
<path d="M171.096 101.558L133.997 99.9345" stroke="#9ECBE3" stroke-width="2.31871" stroke-miterlimit="10"/>
<path d="M138.17 78.8342L173.183 77.9067" stroke="#9ECBE3" stroke-width="2.31871" stroke-miterlimit="10"/>
<path d="M143.967 57.9659H174.574" stroke="#9ECBE3" stroke-width="2.31871" stroke-miterlimit="10"/>
<path d="M145.358 37.7931L174.574 39.4162" stroke="#9ECBE3" stroke-width="2.31871" stroke-miterlimit="10"/>
<path d="M88.0863 257.838L92.4919 239.289L93.6512 233.956" stroke="#9ECBE3" stroke-width="2.31871" stroke-miterlimit="10"/>
<path d="M93.8831 232.796L91.1006 244.854" stroke="#9ECBE3" stroke-width="4.63741" stroke-miterlimit="10"/>
<path d="M143.503 48.4592C141.88 40.3437 152.546 28.5183 152.546 28.5183H108.955C108.955 28.5183 99.6798 51.7054 113.592 61.4439C120.084 66.0813 133.533 73.7331 133.765 73.965L152.778 62.3714C149.068 58.4296 144.199 51.7054 143.503 48.4592Z" fill="#E2603D"/>
<path d="M211.673 38.9524C211.673 32.2282 210.746 28.0545 210.746 28.0545H165.763C165.763 28.0545 177.588 33.1557 177.588 37.7931C177.588 41.9668 171.56 46.836 168.777 48.9229L184.313 63.5307L185.936 62.8351C186.168 62.6033 211.673 55.879 211.673 38.9524Z" fill="#E2603D"/>
<path d="M152.778 62.6033L133.765 74.1968C133.765 74.1968 133.533 74.8924 131.214 77.9067C129.591 80.2255 129.359 82.0804 129.823 83.2398L154.865 65.1539C154.169 64.4582 153.474 63.2989 152.778 62.6033Z" fill="#3844E5"/>
<path d="M131.91 85.0947C133.997 85.5585 156.952 67.4725 156.952 67.4725C156.72 67.4725 156.024 66.3132 154.865 65.1538L129.823 83.2398C130.287 84.3991 130.982 84.8628 131.91 85.0947Z" fill="#98A2F4"/>
<path d="M186.399 69.3275C186.399 65.8495 185.472 64.4582 184.545 63.2989L169.009 48.691C168.314 49.3866 167.618 49.6185 167.618 49.6185C167.618 49.6185 167.618 49.6185 166.227 50.0823C165.763 50.3141 165.299 50.546 164.836 51.0097L185.936 70.0231C186.168 70.0231 186.399 69.7913 186.399 69.3275Z" fill="#3844E5"/>
<path d="M183.849 71.8781C183.849 71.8781 185.472 71.6462 185.936 70.4869L164.836 51.4735C163.908 52.401 162.981 53.7922 162.981 53.7922L183.849 71.8781Z" fill="#98A2F4"/>
<path d="M93.883 246.709C90.6369 246.941 86.2313 247.636 81.362 248.795C76.4927 249.955 72.0872 251.346 69.0729 252.737L70.0004 256.447C73.2465 256.215 77.6521 255.52 82.7533 254.36C87.6225 253.201 91.7962 251.81 94.8105 250.419L93.883 246.709Z" fill="#D63C30"/>
<mask id="mask1" mask-type="alpha" maskUnits="userSpaceOnUse" x="105" y="28" width="48" height="46">
<path d="M143.503 48.4592C141.88 40.3437 152.546 28.5183 152.546 28.5183H108.955C108.955 28.5183 99.6798 51.7054 113.592 61.4439C120.084 66.0813 133.533 73.7331 133.765 73.965L152.778 62.3714C149.068 58.4296 144.199 51.7054 143.503 48.4592Z" fill="#E2603D"/>
</mask>
<g mask="url(#mask1)">
<path d="M102.926 36.17L107.1 40.3437V36.17H102.926Z" stroke="#D4EBF9" stroke-width="0.579677" stroke-miterlimit="10"/>
<path d="M102.926 50.7779L107.1 54.9516V50.7779H102.926Z" stroke="#D4EBF9" stroke-width="0.579677" stroke-miterlimit="10"/>
<path d="M102.926 65.6176L107.1 69.5594V65.6176H102.926Z" stroke="#D4EBF9" stroke-width="0.579677" stroke-miterlimit="10"/>
<path d="M114.751 30.1414L118.693 34.0832V30.1414H114.751Z" stroke="#D4EBF9" stroke-width="0.579677" stroke-miterlimit="10"/>
<path d="M114.751 44.7492L118.693 48.9229V44.7492H114.751Z" stroke="#D4EBF9" stroke-width="0.579677" stroke-miterlimit="10"/>
<path d="M114.751 59.3571L118.693 63.5308V59.3571H114.751Z" stroke="#D4EBF9" stroke-width="0.579677" stroke-miterlimit="10"/>
<path d="M114.751 73.965L118.693 78.1386V73.965H114.751Z" stroke="#D4EBF9" stroke-width="0.579677" stroke-miterlimit="10"/>
<path d="M126.809 36.17L130.982 40.3437V36.17H126.809Z" stroke="#D4EBF9" stroke-width="0.579677" stroke-miterlimit="10"/>
<path d="M126.809 50.7779L130.982 54.9516V50.7779H126.809Z" stroke="#D4EBF9" stroke-width="0.579677" stroke-miterlimit="10"/>
<path d="M126.809 65.6176L130.982 69.5594V65.6176H126.809Z" stroke="#D4EBF9" stroke-width="0.579677" stroke-miterlimit="10"/>
<path d="M138.634 30.1414L142.808 34.0832V30.1414H138.634Z" stroke="#D4EBF9" stroke-width="0.579677" stroke-miterlimit="10"/>
<path d="M138.634 44.7492L142.808 48.9229V44.7492H138.634Z" stroke="#D4EBF9" stroke-width="0.579677" stroke-miterlimit="10"/>
<path d="M138.634 59.3571L142.808 63.5308V59.3571H138.634Z" stroke="#D4EBF9" stroke-width="0.579677" stroke-miterlimit="10"/>
<path d="M138.634 73.965L142.808 78.1386V73.965H138.634Z" stroke="#D4EBF9" stroke-width="0.579677" stroke-miterlimit="10"/>
</g>
<mask id="mask2" mask-type="alpha" maskUnits="userSpaceOnUse" x="165" y="28" width="47" height="36">
<path d="M211.673 38.9524C211.673 32.2282 210.746 28.0545 210.746 28.0545H165.763C165.763 28.0545 177.588 33.1557 177.588 37.7931C177.588 41.9668 171.56 46.836 168.777 48.9229L184.313 63.5307L185.936 62.8351C186.168 62.6033 211.673 55.879 211.673 38.9524Z" fill="#E2603D"/>
</mask>
<g mask="url(#mask2)">
<path d="M166.227 33.3875L170.4 37.5612V33.3875H166.227Z" stroke="#D4EBF9" stroke-width="0.579677" stroke-miterlimit="10"/>
<path d="M166.227 47.9954L170.4 52.1691V47.9954H166.227Z" stroke="#D4EBF9" stroke-width="0.579677" stroke-miterlimit="10"/>
<path d="M166.227 62.8351L170.4 66.7769V62.8351H166.227Z" stroke="#D4EBF9" stroke-width="0.579677" stroke-miterlimit="10"/>
<path d="M178.052 27.3589L181.994 31.3007V27.3589H178.052Z" stroke="#D4EBF9" stroke-width="0.579677" stroke-miterlimit="10"/>
<path d="M178.052 41.9668L181.994 46.1404V41.9668H178.052Z" stroke="#D4EBF9" stroke-width="0.579677" stroke-miterlimit="10"/>
<path d="M178.052 56.5746L181.994 60.7483V56.5746H178.052Z" stroke="#D4EBF9" stroke-width="0.579677" stroke-miterlimit="10"/>
<path d="M190.109 33.3875L194.283 37.5612V33.3875H190.109Z" stroke="#D4EBF9" stroke-width="0.579677" stroke-miterlimit="10"/>
<path d="M190.109 47.9954L194.283 52.1691V47.9954H190.109Z" stroke="#D4EBF9" stroke-width="0.579677" stroke-miterlimit="10"/>
<path d="M190.109 62.6032L194.283 66.7769V62.6032H190.109Z" stroke="#D4EBF9" stroke-width="0.579677" stroke-miterlimit="10"/>
<path d="M201.935 27.3589L206.108 31.3007V27.3589H201.935Z" stroke="#D4EBF9" stroke-width="0.579677" stroke-miterlimit="10"/>
<path d="M201.935 41.9668L206.108 45.9086V41.9668H201.935Z" stroke="#D4EBF9" stroke-width="0.579677" stroke-miterlimit="10"/>
<path d="M201.935 56.5746L206.108 60.7483V56.5746H201.935Z" stroke="#D4EBF9" stroke-width="0.579677" stroke-miterlimit="10"/>
</g>
<path d="M99.6798 27.5908H217.47" stroke="#9ECBE3" stroke-width="4.63741" stroke-miterlimit="10" stroke-linecap="round"/>
<path d="M226.977 27.5908H239.034" stroke="#9ECBE3" stroke-width="4.63741" stroke-miterlimit="10" stroke-linecap="round"/>
<path d="M122.171 114.31L104.781 201.03" stroke="#660000" stroke-width="0.579677" stroke-miterlimit="10" stroke-linejoin="round"/>
<path d="M106.868 155.352L102.694 173.206" stroke="#660000" stroke-width="0.579677" stroke-miterlimit="10" stroke-linejoin="round"/>
<path d="M97.8249 193.842L94.3468 209.146" stroke="#660000" stroke-width="0.579677" stroke-miterlimit="10" stroke-linejoin="round"/>
<path d="M181.762 83.2398L181.298 118.948" stroke="#660000" stroke-width="0.579677" stroke-miterlimit="10" stroke-linejoin="round"/>
<path d="M181.298 211.001L181.762 271.519" stroke="#660000" stroke-width="0.579677" stroke-miterlimit="10" stroke-linejoin="round"/>
<path d="M180.603 153.265L173.878 166.945L185.936 169.032L180.603 153.265Z" fill="#D63C30"/>
<path d="M178.052 173.669L178.748 162.54" stroke="#660000" stroke-width="0.579677" stroke-miterlimit="10" stroke-linejoin="round"/>
<path d="M181.298 200.334V164.395" stroke="#660000" stroke-width="0.579677" stroke-miterlimit="10" stroke-linejoin="round"/>
<path d="M92.7237 190.596L102.694 192.219L101.535 176.916L92.7237 190.596Z" fill="#45A0D4"/>
<path d="M23.1625 300.271C23.1625 300.271 30.3505 292.619 39.3934 292.619C50.0595 292.619 54.6969 294.938 60.0299 297.72C65.363 300.503 72.0872 299.575 72.0872 299.575" stroke="#660000" stroke-width="0.579677" stroke-miterlimit="10" stroke-linejoin="round"/>
<path d="M131.446 292.387C131.446 292.387 134.229 288.677 150.228 287.518C154.169 287.286 158.807 287.286 166.459 290.3C174.11 293.315 175.502 292.387 178.052 292.387C180.835 292.155 186.631 288.445 193.124 288.445C199.616 288.445 211.673 292.619 211.673 292.619" stroke="#660000" stroke-width="0.579677" stroke-miterlimit="10" stroke-linejoin="round"/>
<path d="M218.166 297.952C218.166 297.952 210.514 294.706 201.239 297.952C191.964 301.198 185.704 300.503 185.704 300.503" stroke="#660000" stroke-width="0.579677" stroke-miterlimit="10" stroke-linejoin="round"/>
<path d="M195.906 299.343C195.906 299.343 188.95 295.633 179.211 296.097C169.473 296.561 166.922 298.416 166.922 298.416" stroke="#660000" stroke-width="0.579677" stroke-miterlimit="10" stroke-linejoin="round"/>
<path d="M60.4937 297.952C60.4937 297.952 69.0729 292.851 82.0576 292.619C95.0424 292.619 99.2161 298.184 116.143 293.083C126.345 289.837 130.519 291.692 136.779 294.01C143.04 296.097 148.141 296.097 148.141 296.097" stroke="#660000" stroke-width="0.579677" stroke-miterlimit="10" stroke-linejoin="round"/>
</g>
<defs>
<clipPath id="clip0">
<rect width="295.635" height="345.024" fill="white" transform="translate(0.439148 0.461899)"/>
</clipPath>
</defs>
</svg>
