<svg width="286" height="407" viewBox="0 0 286 407" fill="none" xmlns="http://www.w3.org/2000/svg">
<g clip-path="url(#clip0)">
<path d="M49.8908 20.5899C20.9069 43.0813 30.8774 56.0661 9.08151 91.3104C-12.7143 126.555 10.2409 170.146 29.4861 188.464C48.7314 206.782 138.465 235.534 171.855 223.245C205.012 210.956 201.998 166.205 230.75 123.54C259.502 80.8763 246.517 19.1986 204.549 20.8217C162.58 22.4448 108.322 -25.0887 49.8908 20.5899Z" fill="#F8F9FF"/>
<path d="M179.043 105.455C179.043 105.455 174.869 102.672 174.869 105.455C174.869 108.237 176.956 124.468 173.246 136.293C167.913 153.452 159.797 159.48 159.797 159.48L174.173 190.783C174.173 190.783 193.419 170.378 196.433 149.51C200.143 125.627 195.969 112.874 195.737 109.164C195.274 104.063 192.028 100.817 189.709 101.281C188.781 101.513 189.709 104.063 187.158 103.831C185.767 103.6 184.608 101.281 182.985 101.977C181.825 102.44 182.521 105.223 179.043 105.455Z" fill="#E897A3"/>
<path d="M52.4414 125.164C53.8326 124.468 53.3688 128.41 54.9919 127.019C56.3832 125.859 57.7744 123.077 59.1656 123.54C60.7887 124.004 60.5568 125.859 61.9481 125.627C63.3393 125.164 66.8174 122.845 66.1217 126.091C65.4261 129.337 63.3393 141.626 70.2954 152.061C76.5559 161.567 82.5846 164.582 82.5846 164.582L61.7162 195.884C61.7162 195.884 44.3259 177.334 44.7896 154.147C45.0215 130.96 49.1952 127.019 52.4414 125.164Z" fill="#E897A3"/>
<path d="M59.6293 272.633C59.6293 272.633 53.6007 309.733 79.8021 344.05C99.2792 369.555 103.917 373.961 103.917 373.961L122.698 367.005C122.698 367.005 113.655 348.223 112.032 329.21C110.641 311.588 113.887 281.444 117.829 280.517C121.771 279.59 125.713 293.27 150.755 302.081C186.231 314.602 215.215 292.342 215.215 292.342L212.664 274.488C212.664 274.488 207.331 273.561 201.534 274.488C188.781 276.343 183.68 279.358 174.173 271.01C169.304 266.605 164.667 260.576 164.667 260.576C164.667 260.576 126.408 251.765 104.844 260.576C83.2802 269.387 59.6293 272.633 59.6293 272.633Z" fill="#9AF4DC"/>
<path d="M85.367 160.176C85.367 160.176 96.2649 168.755 108.322 170.147C120.379 171.538 130.814 171.074 140.32 168.523C149.827 165.973 160.029 158.553 160.029 158.553L176.724 194.261C176.724 194.261 157.711 202.145 156.319 211.651C154.928 219.767 151.914 229.969 160.029 243.65C169.536 259.417 176.26 261.272 177.883 261.272C179.507 261.272 181.13 261.272 181.13 261.272C181.13 261.272 178.811 263.822 173.942 266.605C169.072 269.155 137.77 261.04 113.191 276.111C88.6132 291.183 72.1504 296.284 59.8612 296.052C47.5721 295.82 46.6446 291.879 46.6446 291.879C46.6446 291.879 52.4414 261.04 57.7744 245.736C64.2668 227.187 69.8317 215.129 69.8317 209.333C69.8317 203.536 59.8612 200.058 59.8612 200.058L85.367 160.176Z" fill="#3844E5"/>
<mask id="mask0" mask-type="alpha" maskUnits="userSpaceOnUse" x="46" y="158" width="136" height="139">
<path d="M85.367 160.176C85.367 160.176 96.2649 168.755 108.322 170.147C120.379 171.538 130.814 171.074 140.32 168.523C149.827 165.973 160.029 158.553 160.029 158.553L176.724 194.261C176.724 194.261 157.711 202.145 156.319 211.651C154.928 219.767 151.914 229.969 160.029 243.65C169.536 259.417 176.26 261.272 177.883 261.272C179.507 261.272 181.13 261.272 181.13 261.272C181.13 261.272 178.811 263.822 173.942 266.605C169.072 269.155 137.77 261.04 113.191 276.111C88.6132 291.183 72.1504 296.284 59.8612 296.052C47.5721 295.82 46.6446 291.879 46.6446 291.879C46.6446 291.879 52.4414 261.04 57.7744 245.736C64.2668 227.187 69.8317 215.129 69.8317 209.333C69.8317 203.536 59.8612 200.058 59.8612 200.058L85.367 160.176Z" fill="#3844E5"/>
</mask>
<g mask="url(#mask0)">
<path d="M93.9462 198.898C93.9462 198.898 90.7 204.695 96.9605 206.086C100.67 207.014 103.917 202.145 103.917 202.145" stroke="white" stroke-width="0.579677" stroke-miterlimit="10"/>
<path d="M129.654 200.29C129.654 200.29 128.727 205.159 131.741 206.086C137.074 207.941 140.088 202.145 140.088 202.145" stroke="white" stroke-width="0.579677" stroke-miterlimit="10"/>
<path d="M54.0645 294.661L55.9194 297.444H64.7305L66.8173 294.661H55.9194H54.0645Z" stroke="white" stroke-width="0.579677" stroke-miterlimit="10"/>
<path d="M56.1513 294.661L60.3249 290.719L64.7305 294.661" stroke="white" stroke-width="0.579677" stroke-miterlimit="10"/>
<path d="M60.325 294.661V290.719" stroke="white" stroke-width="0.579677" stroke-miterlimit="10"/>
<path d="M54.0645 275.416L55.9194 278.198H64.7305L66.8173 275.416H55.9194H54.0645Z" stroke="white" stroke-width="0.579677" stroke-miterlimit="10"/>
<path d="M56.1513 275.416L60.3249 271.474L64.7305 275.416" stroke="white" stroke-width="0.579677" stroke-miterlimit="10"/>
<path d="M60.325 275.416V271.474" stroke="white" stroke-width="0.579677" stroke-miterlimit="10"/>
<path d="M54.0645 256.171L55.9194 258.953H64.7305L66.8173 256.171H55.9194H54.0645Z" stroke="white" stroke-width="0.579677" stroke-miterlimit="10"/>
<path d="M56.1513 256.171L60.3249 252.229L64.7305 256.171" stroke="white" stroke-width="0.579677" stroke-miterlimit="10"/>
<path d="M60.325 256.171V252.229" stroke="white" stroke-width="0.579677" stroke-miterlimit="10"/>
<path d="M54.0645 236.925L55.9194 239.708H64.7305L66.8173 236.925H55.9194H54.0645Z" stroke="white" stroke-width="0.579677" stroke-miterlimit="10"/>
<path d="M56.1513 236.925L60.3249 232.983L64.7305 236.925" stroke="white" stroke-width="0.579677" stroke-miterlimit="10"/>
<path d="M60.325 236.925V232.983" stroke="white" stroke-width="0.579677" stroke-miterlimit="10"/>
<path d="M54.0645 217.68L55.9194 220.462H64.7305L66.8173 217.68H55.9194H54.0645Z" stroke="white" stroke-width="0.579677" stroke-miterlimit="10"/>
<path d="M56.1513 217.68L60.3249 213.738L64.7305 217.68" stroke="white" stroke-width="0.579677" stroke-miterlimit="10"/>
<path d="M60.325 217.68V213.738" stroke="white" stroke-width="0.579677" stroke-miterlimit="10"/>
<path d="M54.0645 198.435L55.9194 200.985H64.7305L66.8173 198.435H55.9194H54.0645Z" stroke="white" stroke-width="0.579677" stroke-miterlimit="10"/>
<path d="M56.1513 198.435L60.3249 194.261L64.7305 198.435" stroke="white" stroke-width="0.579677" stroke-miterlimit="10"/>
<path d="M60.325 198.435V194.261" stroke="white" stroke-width="0.579677" stroke-miterlimit="10"/>
<path d="M54.0645 179.189L55.9194 181.74H64.7305L66.8173 179.189H55.9194H54.0645Z" stroke="white" stroke-width="0.579677" stroke-miterlimit="10"/>
<path d="M56.1513 179.189L60.3249 175.016L64.7305 179.189" stroke="white" stroke-width="0.579677" stroke-miterlimit="10"/>
<path d="M60.325 179.189V175.016" stroke="white" stroke-width="0.579677" stroke-miterlimit="10"/>
<path d="M54.0645 159.712L55.9194 162.495H64.7305L66.8173 159.712H55.9194H54.0645Z" stroke="white" stroke-width="0.579677" stroke-miterlimit="10"/>
<path d="M56.1513 159.712L60.3249 155.771L64.7305 159.712" stroke="white" stroke-width="0.579677" stroke-miterlimit="10"/>
<path d="M60.325 159.712V155.771" stroke="white" stroke-width="0.579677" stroke-miterlimit="10"/>
<path d="M98.1199 294.661L99.9749 297.444H108.786L110.873 294.661H99.9749H98.1199Z" stroke="white" stroke-width="0.579677" stroke-miterlimit="10"/>
<path d="M100.207 294.661L104.38 290.719L108.786 294.661" stroke="white" stroke-width="0.579677" stroke-miterlimit="10"/>
<path d="M104.38 294.661V290.719" stroke="white" stroke-width="0.579677" stroke-miterlimit="10"/>
<path d="M98.1199 275.416L99.9749 278.198H108.786L110.873 275.416H99.9749H98.1199Z" stroke="white" stroke-width="0.579677" stroke-miterlimit="10"/>
<path d="M100.207 275.416L104.38 271.474L108.786 275.416" stroke="white" stroke-width="0.579677" stroke-miterlimit="10"/>
<path d="M104.38 275.416V271.474" stroke="white" stroke-width="0.579677" stroke-miterlimit="10"/>
<path d="M98.1199 256.171L99.9749 258.953H108.786L110.873 256.171H99.9749H98.1199Z" stroke="white" stroke-width="0.579677" stroke-miterlimit="10"/>
<path d="M100.207 256.171L104.38 252.229L108.786 256.171" stroke="white" stroke-width="0.579677" stroke-miterlimit="10"/>
<path d="M104.38 256.171V252.229" stroke="white" stroke-width="0.579677" stroke-miterlimit="10"/>
<path d="M98.1199 236.925L99.9749 239.708H108.786L110.873 236.925H99.9749H98.1199Z" stroke="white" stroke-width="0.579677" stroke-miterlimit="10"/>
<path d="M100.207 236.925L104.38 232.983L108.786 236.925" stroke="white" stroke-width="0.579677" stroke-miterlimit="10"/>
<path d="M104.38 236.925V232.983" stroke="white" stroke-width="0.579677" stroke-miterlimit="10"/>
<path d="M98.1199 217.68L99.9749 220.462H108.786L110.873 217.68H99.9749H98.1199Z" stroke="white" stroke-width="0.579677" stroke-miterlimit="10"/>
<path d="M100.207 217.68L104.38 213.738L108.786 217.68" stroke="white" stroke-width="0.579677" stroke-miterlimit="10"/>
<path d="M104.38 217.68V213.738" stroke="white" stroke-width="0.579677" stroke-miterlimit="10"/>
<path d="M98.1199 198.435L99.9749 200.985H108.786L110.873 198.435H99.9749H98.1199Z" stroke="white" stroke-width="0.579677" stroke-miterlimit="10"/>
<path d="M100.207 198.435L104.38 194.261L108.786 198.435" stroke="white" stroke-width="0.579677" stroke-miterlimit="10"/>
<path d="M104.38 198.435V194.261" stroke="white" stroke-width="0.579677" stroke-miterlimit="10"/>
<path d="M98.1199 179.189L99.9749 181.74H108.786L110.873 179.189H99.9749H98.1199Z" stroke="white" stroke-width="0.579677" stroke-miterlimit="10"/>
<path d="M100.207 179.189L104.38 175.016L108.786 179.189" stroke="white" stroke-width="0.579677" stroke-miterlimit="10"/>
<path d="M104.38 179.189V175.016" stroke="white" stroke-width="0.579677" stroke-miterlimit="10"/>
<path d="M98.1199 159.712L99.9749 162.495H108.786L110.873 159.712H99.9749H98.1199Z" stroke="white" stroke-width="0.579677" stroke-miterlimit="10"/>
<path d="M100.207 159.712L104.38 155.771L108.786 159.712" stroke="white" stroke-width="0.579677" stroke-miterlimit="10"/>
<path d="M104.38 159.712V155.771" stroke="white" stroke-width="0.579677" stroke-miterlimit="10"/>
<path d="M75.1647 285.85L77.0197 288.401H85.8308L87.9176 285.85H77.0197H75.1647Z" stroke="white" stroke-width="0.579677" stroke-miterlimit="10"/>
<path d="M77.2515 285.85L81.4252 281.676L85.8307 285.85" stroke="white" stroke-width="0.579677" stroke-miterlimit="10"/>
<path d="M81.4252 285.85V281.676" stroke="white" stroke-width="0.579677" stroke-miterlimit="10"/>
<path d="M75.1647 266.373L77.0197 269.155H85.8308L87.9176 266.373H77.0197H75.1647Z" stroke="white" stroke-width="0.579677" stroke-miterlimit="10"/>
<path d="M77.2515 266.373L81.4252 262.431L85.8307 266.373" stroke="white" stroke-width="0.579677" stroke-miterlimit="10"/>
<path d="M81.4252 266.373V262.431" stroke="white" stroke-width="0.579677" stroke-miterlimit="10"/>
<path d="M75.1647 247.128L77.0197 249.91H85.8308L87.9176 247.128H77.0197H75.1647Z" stroke="white" stroke-width="0.579677" stroke-miterlimit="10"/>
<path d="M77.2515 247.128L81.4252 243.186L85.8307 247.128" stroke="white" stroke-width="0.579677" stroke-miterlimit="10"/>
<path d="M81.4252 247.128V243.186" stroke="white" stroke-width="0.579677" stroke-miterlimit="10"/>
<path d="M75.1647 227.882L77.0197 230.665H85.8308L87.9176 227.882H77.0197H75.1647Z" stroke="white" stroke-width="0.579677" stroke-miterlimit="10"/>
<path d="M77.2515 227.882L81.4252 223.941L85.8307 227.882" stroke="white" stroke-width="0.579677" stroke-miterlimit="10"/>
<path d="M81.4252 227.882V223.941" stroke="white" stroke-width="0.579677" stroke-miterlimit="10"/>
<path d="M75.1647 208.637L77.0197 211.419H85.8308L87.9176 208.637H77.0197H75.1647Z" stroke="white" stroke-width="0.579677" stroke-miterlimit="10"/>
<path d="M77.2515 208.637L81.4252 204.695L85.8307 208.637" stroke="white" stroke-width="0.579677" stroke-miterlimit="10"/>
<path d="M81.4252 208.637V204.695" stroke="white" stroke-width="0.579677" stroke-miterlimit="10"/>
<path d="M75.1647 189.392L77.0197 192.174H85.8308L87.9176 189.392H77.0197H75.1647Z" stroke="white" stroke-width="0.579677" stroke-miterlimit="10"/>
<path d="M77.2515 189.392L81.4252 185.45L85.8307 189.392" stroke="white" stroke-width="0.579677" stroke-miterlimit="10"/>
<path d="M81.4252 189.392V185.45" stroke="white" stroke-width="0.579677" stroke-miterlimit="10"/>
<path d="M75.1647 170.146L77.0197 172.929H85.8308L87.9176 170.146H77.0197H75.1647Z" stroke="white" stroke-width="0.579677" stroke-miterlimit="10"/>
<path d="M77.2515 170.147L81.4252 166.205L85.8307 170.147" stroke="white" stroke-width="0.579677" stroke-miterlimit="10"/>
<path d="M81.4252 170.147V166.205" stroke="white" stroke-width="0.579677" stroke-miterlimit="10"/>
<path d="M142.175 294.661L144.03 297.444H152.841L154.928 294.661H144.03H142.175Z" stroke="white" stroke-width="0.579677" stroke-miterlimit="10"/>
<path d="M144.262 294.661L148.436 290.719L152.841 294.661" stroke="white" stroke-width="0.579677" stroke-miterlimit="10"/>
<path d="M148.436 294.661V290.719" stroke="white" stroke-width="0.579677" stroke-miterlimit="10"/>
<path d="M142.175 275.416L144.03 278.198H152.841L154.928 275.416H144.03H142.175Z" stroke="white" stroke-width="0.579677" stroke-miterlimit="10"/>
<path d="M144.262 275.416L148.436 271.474L152.841 275.416" stroke="white" stroke-width="0.579677" stroke-miterlimit="10"/>
<path d="M148.436 275.416V271.474" stroke="white" stroke-width="0.579677" stroke-miterlimit="10"/>
<path d="M142.175 256.171L144.03 258.953H152.841L154.928 256.171H144.03H142.175Z" stroke="white" stroke-width="0.579677" stroke-miterlimit="10"/>
<path d="M144.262 256.171L148.436 252.229L152.841 256.171" stroke="white" stroke-width="0.579677" stroke-miterlimit="10"/>
<path d="M148.436 256.171V252.229" stroke="white" stroke-width="0.579677" stroke-miterlimit="10"/>
<path d="M142.175 236.925L144.03 239.708H152.841L154.928 236.925H144.03H142.175Z" stroke="white" stroke-width="0.579677" stroke-miterlimit="10"/>
<path d="M144.262 236.925L148.436 232.983L152.841 236.925" stroke="white" stroke-width="0.579677" stroke-miterlimit="10"/>
<path d="M148.436 236.925V232.983" stroke="white" stroke-width="0.579677" stroke-miterlimit="10"/>
<path d="M142.175 217.68L144.03 220.462H152.841L154.928 217.68H144.03H142.175Z" stroke="white" stroke-width="0.579677" stroke-miterlimit="10"/>
<path d="M144.262 217.68L148.436 213.738L152.841 217.68" stroke="white" stroke-width="0.579677" stroke-miterlimit="10"/>
<path d="M148.436 217.68V213.738" stroke="white" stroke-width="0.579677" stroke-miterlimit="10"/>
<path d="M142.175 198.435L144.03 200.985H152.841L154.928 198.435H144.03H142.175Z" stroke="white" stroke-width="0.579677" stroke-miterlimit="10"/>
<path d="M144.262 198.435L148.436 194.261L152.841 198.435" stroke="white" stroke-width="0.579677" stroke-miterlimit="10"/>
<path d="M148.436 198.435V194.261" stroke="white" stroke-width="0.579677" stroke-miterlimit="10"/>
<path d="M142.175 179.189L144.03 181.74H152.841L154.928 179.189H144.03H142.175Z" stroke="white" stroke-width="0.579677" stroke-miterlimit="10"/>
<path d="M144.262 179.189L148.436 175.016L152.841 179.189" stroke="white" stroke-width="0.579677" stroke-miterlimit="10"/>
<path d="M148.436 179.189V175.016" stroke="white" stroke-width="0.579677" stroke-miterlimit="10"/>
<path d="M142.175 159.712L144.03 162.495H152.841L154.928 159.712H144.03H142.175Z" stroke="white" stroke-width="0.579677" stroke-miterlimit="10"/>
<path d="M144.262 159.712L148.436 155.771L152.841 159.712" stroke="white" stroke-width="0.579677" stroke-miterlimit="10"/>
<path d="M148.436 159.712V155.771" stroke="white" stroke-width="0.579677" stroke-miterlimit="10"/>
<path d="M119.22 285.85L121.075 288.401H129.886L131.973 285.85H121.075H119.22Z" stroke="white" stroke-width="0.579677" stroke-miterlimit="10"/>
<path d="M121.307 285.85L125.481 281.676L129.886 285.85" stroke="white" stroke-width="0.579677" stroke-miterlimit="10"/>
<path d="M125.481 285.85V281.676" stroke="white" stroke-width="0.579677" stroke-miterlimit="10"/>
<path d="M119.22 266.373L121.075 269.155H129.886L131.973 266.373H121.075H119.22Z" stroke="white" stroke-width="0.579677" stroke-miterlimit="10"/>
<path d="M121.307 266.373L125.481 262.431L129.886 266.373" stroke="white" stroke-width="0.579677" stroke-miterlimit="10"/>
<path d="M125.481 266.373V262.431" stroke="white" stroke-width="0.579677" stroke-miterlimit="10"/>
<path d="M119.22 247.128L121.075 249.91H129.886L131.973 247.128H121.075H119.22Z" stroke="white" stroke-width="0.579677" stroke-miterlimit="10"/>
<path d="M121.307 247.128L125.481 243.186L129.886 247.128" stroke="white" stroke-width="0.579677" stroke-miterlimit="10"/>
<path d="M125.481 247.128V243.186" stroke="white" stroke-width="0.579677" stroke-miterlimit="10"/>
<path d="M119.22 227.882L121.075 230.665H129.886L131.973 227.882H121.075H119.22Z" stroke="white" stroke-width="0.579677" stroke-miterlimit="10"/>
<path d="M121.307 227.882L125.481 223.941L129.886 227.882" stroke="white" stroke-width="0.579677" stroke-miterlimit="10"/>
<path d="M125.481 227.882V223.941" stroke="white" stroke-width="0.579677" stroke-miterlimit="10"/>
<path d="M119.22 208.637L121.075 211.419H129.886L131.973 208.637H121.075H119.22Z" stroke="white" stroke-width="0.579677" stroke-miterlimit="10"/>
<path d="M121.307 208.637L125.481 204.695L129.886 208.637" stroke="white" stroke-width="0.579677" stroke-miterlimit="10"/>
<path d="M125.481 208.637V204.695" stroke="white" stroke-width="0.579677" stroke-miterlimit="10"/>
<path d="M119.22 189.392L121.075 192.174H129.886L131.973 189.392H121.075H119.22Z" stroke="white" stroke-width="0.579677" stroke-miterlimit="10"/>
<path d="M121.307 189.392L125.481 185.45L129.886 189.392" stroke="white" stroke-width="0.579677" stroke-miterlimit="10"/>
<path d="M125.481 189.392V185.45" stroke="white" stroke-width="0.579677" stroke-miterlimit="10"/>
<path d="M119.22 170.146L121.075 172.929H129.886L131.973 170.146H121.075H119.22Z" stroke="white" stroke-width="0.579677" stroke-miterlimit="10"/>
<path d="M121.307 170.147L125.481 166.205L129.886 170.147" stroke="white" stroke-width="0.579677" stroke-miterlimit="10"/>
<path d="M125.481 170.147V166.205" stroke="white" stroke-width="0.579677" stroke-miterlimit="10"/>
<path d="M163.276 285.85L165.131 288.401H173.942L176.028 285.85H165.131H163.276Z" stroke="white" stroke-width="0.579677" stroke-miterlimit="10"/>
<path d="M165.362 285.85L169.536 281.676L173.942 285.85" stroke="white" stroke-width="0.579677" stroke-miterlimit="10"/>
<path d="M169.536 285.85V281.676" stroke="white" stroke-width="0.579677" stroke-miterlimit="10"/>
<path d="M163.276 266.373L165.131 269.155H173.942L176.028 266.373H165.131H163.276Z" stroke="white" stroke-width="0.579677" stroke-miterlimit="10"/>
<path d="M165.362 266.373L169.536 262.431L173.942 266.373" stroke="white" stroke-width="0.579677" stroke-miterlimit="10"/>
<path d="M169.536 266.373V262.431" stroke="white" stroke-width="0.579677" stroke-miterlimit="10"/>
<path d="M163.276 247.128L165.131 249.91H173.942L176.028 247.128H165.131H163.276Z" stroke="white" stroke-width="0.579677" stroke-miterlimit="10"/>
<path d="M165.362 247.128L169.536 243.186L173.942 247.128" stroke="white" stroke-width="0.579677" stroke-miterlimit="10"/>
<path d="M169.536 247.128V243.186" stroke="white" stroke-width="0.579677" stroke-miterlimit="10"/>
<path d="M163.276 227.882L165.131 230.665H173.942L176.028 227.882H165.131H163.276Z" stroke="white" stroke-width="0.579677" stroke-miterlimit="10"/>
<path d="M165.362 227.882L169.536 223.941L173.942 227.882" stroke="white" stroke-width="0.579677" stroke-miterlimit="10"/>
<path d="M169.536 227.882V223.941" stroke="white" stroke-width="0.579677" stroke-miterlimit="10"/>
<path d="M163.276 208.637L165.131 211.419H173.942L176.028 208.637H165.131H163.276Z" stroke="white" stroke-width="0.579677" stroke-miterlimit="10"/>
<path d="M165.362 208.637L169.536 204.695L173.942 208.637" stroke="white" stroke-width="0.579677" stroke-miterlimit="10"/>
<path d="M169.536 208.637V204.695" stroke="white" stroke-width="0.579677" stroke-miterlimit="10"/>
<path d="M163.276 189.392L165.131 192.174H173.942L176.028 189.392H165.131H163.276Z" stroke="white" stroke-width="0.579677" stroke-miterlimit="10"/>
<path d="M165.362 189.392L169.536 185.45L173.942 189.392" stroke="white" stroke-width="0.579677" stroke-miterlimit="10"/>
<path d="M169.536 189.392V185.45" stroke="white" stroke-width="0.579677" stroke-miterlimit="10"/>
<path d="M163.276 170.146L165.131 172.929H173.942L176.028 170.146H165.131H163.276Z" stroke="white" stroke-width="0.579677" stroke-miterlimit="10"/>
<path d="M165.362 170.147L169.536 166.205L173.942 170.147" stroke="white" stroke-width="0.579677" stroke-miterlimit="10"/>
<path d="M169.536 170.147V166.205" stroke="white" stroke-width="0.579677" stroke-miterlimit="10"/>
</g>
<path d="M134.524 157.625C133.596 157.162 132.9 156.698 132.669 156.234C131.741 154.611 132.9 154.379 130.582 151.365C129.886 150.437 129.191 149.974 128.727 149.742C127.799 149.278 127.336 148.814 126.64 149.046C124.321 149.046 124.089 149.742 123.162 151.365C121.539 154.147 119.684 159.48 119.22 158.785C118.988 158.089 118.524 157.857 118.524 158.089C118.293 159.712 118.061 161.567 118.524 163.654C118.988 165.741 119.916 167.132 121.539 168.06C121.771 168.292 122.003 168.292 122.234 168.523C121.539 170.842 120.148 175.016 117.365 177.103C115.278 178.726 118.061 181.74 122.234 183.131C126.408 184.522 127.799 182.204 129.191 176.871C130.118 173.625 130.118 170.842 130.118 168.987C131.046 168.523 131.509 168.06 132.205 167.596C132.437 167.364 132.437 167.132 132.669 166.9C134.292 163.654 134.987 160.64 134.524 157.625Z" fill="#E897A3"/>
<path d="M137.538 158.553C137.074 158.089 136.842 157.625 136.379 157.162C134.755 154.843 133.596 150.669 128.959 148.814C127.104 148.119 125.712 148.119 123.858 148.814C122.698 149.046 121.307 149.974 119.22 151.365C118.061 152.292 116.438 152.524 114.119 152.524C109.482 152.524 110.409 150.669 107.627 151.133C106.003 151.365 106.699 153.684 106.235 153.916C105.308 154.147 104.149 154.611 102.525 154.147C99.9748 152.988 99.2792 156.234 100.67 157.857C102.294 159.712 109.482 158.321 106.467 161.104C102.062 165.045 104.149 167.364 108.554 166.9C112.264 166.437 109.713 168.755 114.351 168.06C118.293 167.596 119.22 167.364 121.307 167.364C119.916 166.437 118.988 165.045 118.525 162.959C118.061 160.872 118.293 160.872 118.525 159.48C118.756 159.48 119.452 159.017 119.684 159.48C120.148 160.408 122.003 153.684 123.858 150.901C125.017 149.278 125.249 149.278 125.481 149.046C126.408 149.046 126.872 149.742 127.799 150.206C128.495 150.437 129.654 150.669 130.118 151.365C132.437 154.379 131.509 153.916 132.437 155.539C132.669 156.002 132.9 157.162 133.596 157.394C134.06 160.408 134.06 162.959 132.205 165.741C135.451 167.132 137.074 166.668 137.074 163.19C137.538 160.408 140.088 161.799 137.538 158.553Z" fill="#D63C30"/>
<mask id="mask1" mask-type="alpha" maskUnits="userSpaceOnUse" x="95" y="371" width="35" height="26">
<path d="M95.1056 396.221C95.1056 396.221 101.83 398.075 107.627 392.974C112.96 388.337 127.799 376.743 128.727 375.816C130.814 374.193 129.422 373.033 128.495 371.41C121.307 377.903 108.09 389.728 104.149 391.583C101.134 392.974 97.1924 393.438 95.1056 393.67C94.8737 395.061 95.1056 396.221 95.1056 396.221Z" fill="#9ECBE3"/>
</mask>
<g mask="url(#mask1)">
<path d="M95.1056 396.221C95.1056 396.221 101.83 398.075 107.627 392.974C112.96 388.337 127.799 376.743 128.727 375.816C130.814 374.193 129.422 373.033 128.495 371.41C121.307 377.903 107.858 389.728 104.149 391.583C101.134 392.974 97.1924 393.438 95.1056 393.67C94.8737 395.061 95.1056 396.221 95.1056 396.221Z" fill="#F39684"/>
<path d="M81.4252 373.265L127.567 444.913" stroke="#45A0D4" stroke-width="0.579677" stroke-miterlimit="10"/>
<path d="M84.9033 370.947L131.046 442.595" stroke="#45A0D4" stroke-width="0.579677" stroke-miterlimit="10"/>
<path d="M88.3813 368.628L134.755 440.276" stroke="#45A0D4" stroke-width="0.579677" stroke-miterlimit="10"/>
<path d="M92.0912 366.309L138.234 437.957" stroke="#45A0D4" stroke-width="0.579677" stroke-miterlimit="10"/>
<path d="M95.5693 363.99L141.712 435.639" stroke="#45A0D4" stroke-width="0.579677" stroke-miterlimit="10"/>
<path d="M99.0474 361.672L145.422 433.32" stroke="#45A0D4" stroke-width="0.579677" stroke-miterlimit="10"/>
<path d="M102.757 359.353L148.9 431.001" stroke="#45A0D4" stroke-width="0.579677" stroke-miterlimit="10"/>
<path d="M106.235 357.034L152.378 428.682" stroke="#45A0D4" stroke-width="0.579677" stroke-miterlimit="10"/>
<path d="M109.713 354.948L156.088 426.364" stroke="#45A0D4" stroke-width="0.579677" stroke-miterlimit="10"/>
<path d="M113.423 352.629L159.566 424.045" stroke="#45A0D4" stroke-width="0.579677" stroke-miterlimit="10"/>
</g>
<path d="M93.4825 392.974C93.4825 392.974 91.6275 396.22 101.134 392.742C109.482 389.728 113.655 383.931 113.655 383.931" stroke="#660000" stroke-width="0.579677" stroke-miterlimit="10" stroke-linejoin="round"/>
<path d="M101.83 375.352L106.931 375.816" stroke="#D63C30" stroke-width="0.579677" stroke-miterlimit="10"/>
<path d="M101.83 377.207L106.931 377.671" stroke="#D63C30" stroke-width="0.579677" stroke-miterlimit="10"/>
<path d="M101.83 379.062L106.699 379.294" stroke="#D63C30" stroke-width="0.579677" stroke-miterlimit="10"/>
<path d="M99.2792 369.555C96.7287 367.005 100.439 365.614 102.757 365.15C104.844 364.918 108.554 372.338 108.554 372.338L104.38 374.193L99.2792 369.555Z" fill="#F39684"/>
<path d="M108.322 373.265C108.322 373.265 104.612 367.932 108.322 367.237C112.032 366.541 121.539 363.063 123.162 362.367C124.785 361.672 122.698 367.237 122.698 367.237L108.322 373.265Z" fill="#F39684"/>
<path d="M224.026 307.414C225.881 305.095 226.576 272.865 224.026 271.242C223.33 270.778 222.403 270.778 221.475 270.778L221.939 309.037C222.866 308.805 223.562 308.11 224.026 307.414Z" fill="#F39684"/>
<mask id="mask2" mask-type="alpha" maskUnits="userSpaceOnUse" x="221" y="271" width="5" height="40">
<path d="M224.026 308.573C225.881 306.255 226.576 274.025 224.026 272.401C223.33 271.938 222.403 271.938 221.475 271.938L221.939 310.196C222.866 309.965 223.562 309.269 224.026 308.573Z" fill="#F39684"/>
</mask>
<g mask="url(#mask2)">
<path d="M198.984 306.718L284.08 311.588" stroke="#45A0D4" stroke-width="0.579677" stroke-miterlimit="10"/>
<path d="M199.216 302.545L284.544 307.414" stroke="#45A0D4" stroke-width="0.579677" stroke-miterlimit="10"/>
<path d="M199.679 298.139L284.776 303.24" stroke="#45A0D4" stroke-width="0.579677" stroke-miterlimit="10"/>
<path d="M199.911 293.965L285.008 298.835" stroke="#45A0D4" stroke-width="0.579677" stroke-miterlimit="10"/>
<path d="M200.143 289.792L285.24 294.661" stroke="#45A0D4" stroke-width="0.579677" stroke-miterlimit="10"/>
<path d="M200.375 285.618L285.471 290.487" stroke="#45A0D4" stroke-width="0.579677" stroke-miterlimit="10"/>
<path d="M200.607 281.444L285.703 286.314" stroke="#45A0D4" stroke-width="0.579677" stroke-miterlimit="10"/>
<path d="M200.839 277.039L285.935 281.908" stroke="#45A0D4" stroke-width="0.579677" stroke-miterlimit="10"/>
<path d="M201.07 272.865L286.167 277.735" stroke="#45A0D4" stroke-width="0.579677" stroke-miterlimit="10"/>
<path d="M201.302 268.692L286.399 273.561" stroke="#45A0D4" stroke-width="0.579677" stroke-miterlimit="10"/>
</g>
<path d="M216.838 293.965L209.882 300.226C209.882 300.226 204.549 296.748 206.635 293.965C208.722 291.183 216.142 289.792 216.142 289.792L216.838 293.965Z" fill="#F39684"/>
<path d="M214.287 272.401C214.287 272.401 211.737 272.865 209.418 271.706C208.027 271.01 210.345 286.546 210.345 287.937C210.345 291.415 216.142 290.487 216.142 290.487L214.287 272.401Z" fill="#F39684"/>
<path d="M217.997 294.197L215.91 296.748" stroke="#D63C30" stroke-width="0.579677" stroke-miterlimit="10"/>
<path d="M218.461 295.589L216.374 298.139" stroke="#D63C30" stroke-width="0.579677" stroke-miterlimit="10"/>
<path d="M218.925 297.212L216.838 299.762" stroke="#D63C30" stroke-width="0.579677" stroke-miterlimit="10"/>
<path d="M218.925 268.228C218.925 268.228 221.011 264.982 221.475 269.387C221.939 273.793 221.475 283.763 221.475 283.763" stroke="#660000" stroke-width="0.579677" stroke-miterlimit="10" stroke-linejoin="round"/>
<path d="M111.8 67.4278C120.636 67.4278 127.799 60.2647 127.799 51.4287C127.799 42.5926 120.636 35.4296 111.8 35.4296C102.964 35.4296 95.8012 42.5926 95.8012 51.4287C95.8012 60.2647 102.964 67.4278 111.8 67.4278Z" fill="#FFB448"/>
<path d="M181.13 92.0061C186.892 92.0061 191.564 87.3345 191.564 81.5719C191.564 75.8092 186.892 71.1377 181.13 71.1377C175.367 71.1377 170.695 75.8092 170.695 81.5719C170.695 87.3345 175.367 92.0061 181.13 92.0061Z" fill="#FFB448"/>
<path d="M61.0206 108.469C64.9904 108.469 68.2086 105.251 68.2086 101.281C68.2086 97.3111 64.9904 94.0929 61.0206 94.0929C57.0508 94.0929 53.8326 97.3111 53.8326 101.281C53.8326 105.251 57.0508 108.469 61.0206 108.469Z" fill="#FFB448"/>
<path d="M200.839 160.64C199.911 164.35 198.52 168.523 196.433 172.697C188.549 187.769 183.448 190.319 183.448 190.319" stroke="#660000" stroke-width="0.579677" stroke-miterlimit="10" stroke-linejoin="round"/>
<path d="M200.607 171.306C200.607 171.306 196.897 181.972 187.158 191.942" stroke="#660000" stroke-width="0.579677" stroke-miterlimit="10" stroke-linejoin="round"/>
<path d="M47.8039 310.196C49.427 317.848 52.4413 329.905 57.0788 338.948C64.7305 353.324 77.2515 367.005 77.2515 367.005" stroke="#660000" stroke-width="0.579677" stroke-miterlimit="10" stroke-linejoin="round"/>
<path d="M43.8621 321.79C43.8621 321.79 48.9633 345.209 61.948 359.121" stroke="#660000" stroke-width="0.579677" stroke-miterlimit="10" stroke-linejoin="round"/>
<path d="M169.304 314.138C169.304 314.138 185.071 317.616 200.375 309.037" stroke="#660000" stroke-width="0.579677" stroke-miterlimit="10" stroke-linejoin="round"/>
<path d="M175.333 320.167C175.333 320.167 190.868 321.79 205.244 311.82" stroke="#660000" stroke-width="0.579677" stroke-miterlimit="10" stroke-linejoin="round"/>
<path d="M64.4986 86.4412C68.9042 75.7751 75.8603 66.5003 84.6714 59.3123" stroke="#660000" stroke-width="0.579677" stroke-miterlimit="10" stroke-linejoin="round"/>
<path d="M112.264 57.2254V58.6167H111.105V57.4573C110.177 57.4573 109.482 57.4573 109.018 57.4573C108.554 57.4573 108.09 57.2254 107.627 56.9936C107.163 56.7617 106.931 56.5298 106.699 55.8342C106.467 55.3705 106.235 54.6749 106.235 53.7474V53.2836H107.627C107.627 53.9792 107.627 54.443 107.858 54.9067C107.858 55.3705 108.09 55.6023 108.322 55.8342C108.554 56.0661 108.786 56.0661 109.25 56.2979C109.482 56.2979 110.177 56.2979 110.873 56.2979H111.337V51.4287C110.409 51.4287 109.482 51.4287 108.786 51.1968C108.09 50.9649 107.627 50.7331 107.163 50.2693C106.699 49.8056 106.467 49.11 106.467 48.1825C106.467 47.255 106.699 46.3275 106.931 45.8638C107.163 45.4 107.858 44.9363 108.322 44.7044C109.018 44.4725 109.713 44.4725 110.873 44.4725H111.337V43.3132H112.496V44.4725C113.655 44.4725 114.583 44.4725 115.046 44.7044C115.742 44.9363 116.206 45.1682 116.438 45.6319C116.67 46.0956 116.901 47.0231 116.901 47.9506H115.51C115.51 47.255 115.51 46.7912 115.278 46.5594C115.278 46.3275 115.046 46.0956 114.583 45.8638C114.351 45.6319 113.887 45.6319 113.191 45.6319H112.264V50.2693C113.191 50.2693 113.887 50.2693 114.351 50.2693C114.815 50.2693 115.278 50.5012 115.742 50.7331C116.206 50.9649 116.438 51.1968 116.67 51.8924C116.901 52.3561 116.901 53.0518 116.901 53.7474C116.901 54.6749 116.67 55.6023 116.438 56.0661C116.206 56.5298 115.742 56.9936 115.046 57.2254C114.351 57.4573 113.655 57.4573 112.496 57.4573H112.264V57.2254ZM111.337 50.0374V45.4H110.641C109.945 45.4 109.713 45.4 109.482 45.4C109.25 45.4 109.018 45.4 108.786 45.6319C108.554 45.8638 108.322 45.8638 108.322 46.3275C108.09 46.5594 108.09 47.0231 108.09 47.4869C108.09 47.9506 108.09 48.4143 108.322 48.8781C108.554 49.3418 108.554 49.3418 108.786 49.5737C109.018 49.8056 109.25 49.8056 109.713 49.8056C109.945 49.8056 110.409 49.8056 110.873 49.8056H111.337V50.0374ZM112.264 51.1968V56.2979H112.728C113.423 56.2979 113.887 56.2979 114.351 56.0661C114.815 55.8342 115.046 55.6023 115.278 55.3705C115.51 54.9067 115.51 54.443 115.51 53.7474C115.51 53.0518 115.51 52.3561 115.278 52.1243C115.046 51.8924 114.815 51.6605 114.351 51.4287C113.887 51.1968 113.423 51.1968 112.496 51.1968H112.264Z" fill="#660000"/>
<path d="M181.361 85.0499V85.7455H180.666V85.0499C180.202 85.0499 179.738 85.0499 179.507 85.0499C179.275 85.0499 179.043 85.0499 178.811 84.8181C178.579 84.8181 178.347 84.5862 178.347 84.3543C178.115 84.1224 178.115 83.6587 178.115 83.195V82.9631H178.811C178.811 83.4268 178.811 83.6587 178.811 83.8906C178.811 84.1224 179.043 84.1224 179.043 84.3543C179.043 84.3543 179.275 84.5862 179.507 84.5862C179.738 84.5862 179.97 84.5862 180.434 84.5862H180.666V81.8037C180.202 81.8037 179.738 81.8037 179.275 81.8037C178.811 81.8037 178.579 81.5719 178.347 81.34C178.115 81.1081 178.115 80.6444 178.115 80.1806C178.115 79.7169 178.115 79.2532 178.347 79.0213C178.579 78.7894 178.811 78.5575 179.043 78.5575C179.275 78.5575 179.738 78.3257 180.434 78.3257H180.666V77.6301H181.361V78.3257C182.057 78.3257 182.521 78.3257 182.753 78.3257C182.985 78.3257 183.448 78.5575 183.448 78.7894C183.68 79.0213 183.68 79.485 183.68 80.1806H182.985C182.985 79.9488 182.985 79.485 182.985 79.485C182.985 79.485 182.753 79.2532 182.753 79.0213C182.521 79.0213 182.289 78.7894 182.057 78.7894H181.593V81.1081C182.057 81.1081 182.521 81.1081 182.753 81.1081C182.985 81.1081 183.216 81.1081 183.448 81.34C183.68 81.5719 183.912 81.5719 183.912 81.8037C184.144 82.0356 184.144 82.4994 184.144 82.9631C184.144 83.4268 184.144 83.8906 183.912 84.1224C183.68 84.3543 183.448 84.5862 183.216 84.8181C182.521 84.8181 182.057 85.0499 181.361 85.0499ZM180.666 81.1081V78.7894H180.434C180.202 78.7894 179.97 78.7894 179.738 78.7894C179.507 78.7894 179.507 78.7894 179.275 79.0213C179.043 79.0213 179.043 79.2532 179.043 79.2532C179.043 79.485 179.043 79.7169 179.043 79.9488C179.043 80.1806 179.043 80.4125 179.043 80.6444C179.043 80.8763 179.275 80.8763 179.275 81.1081C179.507 81.1081 179.507 81.34 179.738 81.34C179.97 81.34 180.202 81.34 180.434 81.34H180.666V81.1081ZM181.361 81.8037V84.3543H181.593C182.057 84.3543 182.289 84.3543 182.521 84.3543C182.753 84.3543 182.985 84.1224 182.985 83.8906C183.216 83.6587 183.216 83.4268 183.216 82.9631C183.216 82.4994 183.216 82.2675 182.985 82.0356C182.985 81.8037 182.753 81.8037 182.521 81.5719C182.289 81.8037 182.057 81.8037 181.361 81.8037Z" fill="#660000"/>
<path d="M130.582 44.4725L142.639 54.2111L147.276 42.8495L130.582 44.4725Z" fill="#D63C30"/>
<path d="M153.769 50.0374C146.813 47.0231 143.335 45.8638 143.335 45.8638" stroke="#660000" stroke-width="0.579677" stroke-miterlimit="10" stroke-linejoin="round"/>
<path d="M176.26 66.2684C171.159 60.9354 166.986 56.9936 157.711 51.6606" stroke="#660000" stroke-width="0.579677" stroke-miterlimit="10" stroke-linejoin="round"/>
<path d="M138.465 47.0231C150.986 50.0375 162.348 56.7617 170.927 66.0365" stroke="#660000" stroke-width="0.579677" stroke-miterlimit="10" stroke-linejoin="round"/>
<path d="M73.0778 79.0213L65.1942 76.007L63.3393 88.2961L73.0778 79.0213Z" fill="#45A0D4"/>
<path d="M90.7 50.9649C90.7 50.9649 79.8021 57.6892 71.9185 68.1234" stroke="#660000" stroke-width="0.579677" stroke-miterlimit="10" stroke-linejoin="round"/>
<path d="M186.926 130.265H242.112C242.112 130.265 235.851 124.468 229.127 124.236C222.403 123.772 214.519 125.395 212.664 122.149C209.882 117.744 206.404 117.744 204.78 118.439C202.925 118.903 200.607 121.917 199.216 122.381C197.592 122.845 191.332 123.772 186.926 130.265Z" fill="white"/>
<path d="M3.05289 89.2236H53.8326C53.8326 89.2236 51.282 86.673 46.4127 85.7455C41.5434 84.8181 39.2247 77.6301 35.9785 77.8619C32.7323 78.0938 32.2686 79.7169 30.8774 79.7169C29.4862 79.7169 27.1674 73.6883 21.8344 75.0795C16.5014 76.4707 16.2695 82.2675 14.1827 82.0356C12.3277 81.8037 8.84966 84.1224 7.22656 85.5137C5.83534 87.1368 3.05289 89.2236 3.05289 89.2236Z" fill="white"/>
<path d="M173.71 50.9649C173.71 50.9649 191.1 47.0231 191.564 45.8638C192.028 44.7044 197.592 38.9077 200.839 39.8351C204.085 40.7626 206.172 40.7626 208.027 39.8351C210.345 38.4439 213.592 37.7483 219.156 39.8351C224.721 41.922 221.707 45.4 225.649 45.4C228.431 45.4 229.591 44.4726 232.837 46.0957C236.083 47.7188 242.344 50.2693 242.344 50.2693C242.344 50.2693 249.532 51.8924 246.285 51.8924C243.271 51.8924 173.71 50.9649 173.71 50.9649Z" fill="white"/>
</g>
<defs>
<clipPath id="clip0">
<rect width="285.201" height="405.774" fill="white" transform="translate(0.270416 0.648987)"/>
</clipPath>
</defs>
</svg>
