<svg width="405" height="382" viewBox="0 0 405 382" fill="none" xmlns="http://www.w3.org/2000/svg">
<g clip-path="url(#clip0)">
<path d="M329.354 7.37323C266.981 -12.7995 214.81 13.6337 146.64 66.964C106.99 98.0347 34.4144 69.5146 20.2702 160.408C5.19864 258.026 43.4573 311.124 142.466 346.832C241.475 382.54 317.297 418.944 368.772 302.081C456.419 104.295 357.642 16.4162 329.354 7.37323Z" fill="#F8F9FF"/>
<path d="M321.702 118.439C322.166 111.715 319.847 104.527 313.355 101.281C306.862 98.0347 303.153 99.8897 303.153 99.8897C300.602 99.8897 294.573 100.353 294.805 104.759C295.037 109.165 292.023 109.165 293.878 112.874C295.965 117.28 298.979 118.439 298.979 118.439C301.066 117.28 304.312 115.889 308.022 116.352C314.282 117.28 317.297 123.309 318.456 129.569C318.688 129.569 321.238 124.932 321.702 118.439Z" fill="#E897A3"/>
<path d="M264.894 288.169C263.966 290.256 263.735 294.661 270.923 297.212C273.705 298.139 281.125 294.893 289.008 286.082C295.501 278.662 295.965 278.198 298.979 271.242C301.993 264.286 297.124 262.199 292.487 263.59C287.849 264.982 277.879 274.025 275.328 276.807C272.777 279.589 264.894 288.169 264.894 288.169Z" fill="white"/>
<path d="M264.43 184.291C264.43 184.291 272.546 190.551 277.415 197.739C284.835 209.101 288.081 218.376 288.545 235.07C289.008 253.156 285.299 254.547 285.299 264.518C285.299 271.01 286.69 279.358 281.82 284.227C275.792 290.256 269.299 294.893 264.662 287.937C261.88 283.763 257.474 279.821 256.778 269.155C256.083 260.344 257.242 257.562 253.068 254.547C241.243 245.968 227.795 236.23 227.795 236.23C227.795 236.23 228.954 266.141 207.622 278.198C190 288.401 159.856 248.055 159.393 239.94C158.929 231.824 174.696 193.565 175.392 195.884C176.087 198.203 188.608 208.637 187.217 205.159C186.058 201.449 181.42 197.044 190 187.537C193.246 183.827 215.274 195.189 227.099 194.261C238.924 193.334 264.43 184.291 264.43 184.291Z" fill="#9AF4DC"/>
<path d="M221.766 96.4116V94.3248C221.766 94.3248 223.389 95.0204 226.635 94.0929C228.722 93.3973 228.49 90.383 227.563 85.5137C226.403 79.0213 223.157 76.4707 223.157 76.4707C223.157 76.4707 222.693 81.34 221.302 85.5137C219.911 89.6873 211.795 92.0061 211.795 92.0061C211.795 92.0061 211.795 92.0061 211.795 94.5566C211.795 96.1797 210.636 98.2666 209.941 99.4259C210.172 99.4259 210.404 99.4259 210.636 99.4259C213.65 99.194 221.302 96.6435 221.766 96.4116Z" fill="#E897A3"/>
<path d="M320.079 130.728C317.76 123.309 314.282 117.048 308.254 116.352C304.544 115.889 301.298 117.28 299.211 118.439C298.051 119.135 296.428 120.99 296.428 120.99C294.805 125.164 285.53 125.164 279.734 119.599C274.169 114.498 257.242 104.527 250.982 103.136C250.75 103.136 245.417 103.831 247.272 123.309C249.127 141.858 254.923 152.061 256.083 154.611C259.793 163.654 261.184 159.249 263.039 162.495C269.531 165.509 283.212 169.451 294.341 169.683C308.717 169.915 314.05 162.727 319.152 153.452C324.253 144.177 321.47 135.83 320.079 130.728Z" fill="#98A2F4"/>
<path d="M170.291 118.439C170.754 117.048 171.218 115.657 171.914 114.266C171.914 114.266 138.988 131.888 135.742 143.249C132.496 154.611 135.974 166.205 144.089 169.683C152.205 173.161 177.71 173.161 180.261 167.132C180.029 159.944 179.797 152.061 178.87 147.423C177.015 138.612 167.276 128.642 170.291 118.439Z" fill="#98A2F4"/>
<path d="M263.735 165.277C263.271 164.118 263.039 163.422 262.575 162.727C260.72 159.48 259.329 163.886 255.619 154.843C254.46 152.292 248.663 142.09 246.808 123.54C244.953 104.063 250.518 103.368 250.518 103.368C250.518 103.368 250.286 100.585 249.359 99.4259C248.431 98.2666 243.794 94.7885 236.374 94.3248C228.954 93.861 221.534 96.6435 221.534 96.6435C221.07 96.8754 213.419 99.1941 210.172 99.4259C209.941 99.4259 209.709 99.4259 209.477 99.4259C205.767 99.4259 197.651 98.4984 190 101.281C183.043 103.831 175.624 107.31 171.682 114.498C170.986 115.657 170.522 117.048 170.059 118.671C167.276 128.874 176.783 138.612 178.87 147.655C180.029 152.292 180.261 160.176 180.261 167.364C180.493 173.856 180.493 179.885 180.725 183.131C181.652 189.624 199.738 202.608 217.592 201.217C235.446 199.826 263.039 193.797 266.517 184.986C269.995 176.175 266.285 173.161 263.735 165.277Z" fill="#D63C30"/>
<path d="M189.072 191.247C189.072 191.247 182.348 207.014 176.551 220.231C170.754 233.447 168.899 259.649 165.421 274.256C161.943 288.864 144.089 300.226 137.597 300.458C129.945 300.458 126.467 299.067 126.467 299.067C126.467 299.067 154.292 237.621 164.262 213.738C174.232 189.856 187.217 173.393 187.217 173.393L189.072 191.247Z" fill="#98A2F4"/>
<path d="M223.157 76.4707C223.157 76.4707 215.969 69.0509 196.492 72.5289C193.014 73.2245 192.318 74.8476 193.941 77.1663C195.796 79.485 196.956 79.485 193.014 80.6444C189.072 81.8037 190.695 85.0499 193.014 85.7455C195.333 86.4412 196.724 88.0643 193.246 88.7599C188.145 89.9192 190 92.7017 192.782 92.2379C197.42 91.3104 204.144 88.0643 204.607 90.383C205.071 92.0061 198.811 91.5423 200.666 94.0929C201.825 95.9479 207.854 92.7017 211.564 92.7017C215.505 92.7017 218.983 93.1654 221.302 88.9917C224.085 84.3543 223.157 76.4707 223.157 76.4707Z" fill="#E2603D"/>
<path d="M183.739 204C183.739 204 194.173 209.333 199.738 214.666C210.172 224.172 211.1 235.302 211.1 235.302" stroke="white" stroke-width="0.579677" stroke-miterlimit="10"/>
<path d="M216.201 224.172C216.201 224.172 217.824 226.955 221.998 230.897C225.708 234.607 228.258 236.925 228.258 236.925" stroke="white" stroke-width="0.579677" stroke-miterlimit="10"/>
<path d="M250.982 252.924C250.982 252.924 259.097 255.011 263.039 257.33C267.444 259.88 267.908 262.895 267.908 262.895" stroke="white" stroke-width="0.579677" stroke-miterlimit="10"/>
<path d="M169.131 163.654C155.451 164.813 137.829 169.451 124.38 195.652C111.627 220.926 103.744 255.707 107.686 274.025C111.395 291.415 120.902 305.559 137.365 296.516C154.06 287.473 159.625 243.881 163.798 225.1C169.595 199.13 177.71 200.985 185.13 183.827C187.217 178.958 187.913 175.016 187.217 172.233C186.058 165.509 177.71 162.959 169.131 163.654Z" fill="white"/>
<path d="M285.53 270.547L290.168 274.952" stroke="#45A0D4" stroke-width="0.579677" stroke-miterlimit="10"/>
<path d="M286.922 269.155L291.791 273.097" stroke="#45A0D4" stroke-width="0.579677" stroke-miterlimit="10"/>
<path d="M299.675 266.373C299.906 267.532 299.674 269.155 298.979 271.242C296.196 278.198 295.501 278.894 289.008 286.082C281.125 294.893 273.705 298.139 270.923 297.212C268.836 296.516 267.444 295.589 266.285 294.661C266.981 296.516 268.604 298.371 272.546 299.53C275.328 300.458 282.748 297.212 290.632 288.401C297.124 280.981 297.588 280.517 300.602 273.561C302.225 269.851 301.529 267.3 299.675 266.373Z" fill="#9ECBE3"/>
<path d="M265.177 165.683C264.696 164.503 264.456 163.794 263.975 163.086C262.051 159.782 260.609 164.267 256.761 155.06C255.559 152.464 249.548 142.077 247.624 123.193C245.7 103.365 251.471 102.656 251.471 102.656C251.471 102.656 251.231 99.8238 250.269 98.6435C249.307 97.4633 244.498 93.9225 236.803 93.4504C229.109 92.9783 221.414 95.8109 221.414 95.8109C220.933 96.047 212.998 98.4075 209.632 98.6435C209.391 98.6435 209.151 98.6435 208.91 98.6435C205.063 98.6435 196.647 97.6993 188.712 100.532C181.498 103.129 173.804 106.669 169.716 113.987C168.995 115.167 168.514 116.584 168.033 118.236C165.147 128.622 175.006 138.537 177.17 147.743C178.372 152.464 178.613 160.49 178.613 167.807C178.853 174.417 178.853 180.554 179.094 183.859C180.056 190.468 198.811 203.688 217.326 202.271C235.842 200.855 264.456 194.717 268.063 185.747C271.67 176.777 267.822 173.709 265.177 165.683Z" fill="#3844E5"/>
<mask id="mask0" mask-type="alpha" maskUnits="userSpaceOnUse" x="167" y="93" width="103" height="110">
<path d="M265.177 165.683C264.696 164.503 264.456 163.794 263.975 163.086C262.051 159.782 260.609 164.267 256.761 155.06C255.559 152.464 249.548 142.077 247.624 123.193C245.7 103.365 251.471 102.656 251.471 102.656C251.471 102.656 251.231 99.8238 250.269 98.6435C249.307 97.4633 244.498 93.9225 236.803 93.4504C229.109 92.9783 221.414 95.8109 221.414 95.8109C220.933 96.047 212.998 98.4075 209.632 98.6435C209.391 98.6435 209.151 98.6435 208.91 98.6435C205.063 98.6435 196.647 97.6993 188.712 100.532C181.498 103.129 173.804 106.669 169.716 113.987C168.995 115.167 168.514 116.584 168.033 118.236C165.147 128.622 175.006 138.537 177.17 147.743C178.372 152.464 178.613 160.49 178.613 167.807C178.853 174.417 178.853 180.554 179.094 183.859C180.056 190.468 198.811 203.688 217.326 202.271C235.842 200.855 264.456 194.717 268.063 185.747C271.67 176.777 267.822 173.709 265.177 165.683Z" fill="#3844E5"/>
</mask>
<g mask="url(#mask0)">
<path d="M188.145 13.8656C188.145 23.6042 174.232 23.6042 174.232 33.5747C174.232 43.3132 188.145 43.3132 188.145 53.2837C188.145 63.0222 174.232 63.0222 174.232 72.9927C174.232 82.7313 188.145 82.7313 188.145 92.7017C188.145 102.44 174.232 102.44 174.232 112.411C174.232 122.381 188.145 122.149 188.145 132.12C188.145 141.858 174.232 141.858 174.232 151.829C174.232 161.567 188.145 161.567 188.145 171.538C188.145 181.276 174.232 181.276 174.232 191.247C174.232 200.985 188.145 200.985 188.145 210.956C188.145 220.694 174.232 220.694 174.232 230.665C174.232 240.635 188.145 240.403 188.145 250.374" stroke="#9ECBE3" stroke-width="0.579677" stroke-miterlimit="10" stroke-linejoin="round"/>
<path d="M209.477 14.3294C209.477 24.0679 195.565 24.0679 195.565 34.0384C195.565 43.777 209.477 43.777 209.477 53.7474C209.477 63.486 195.565 63.486 195.565 73.4564C195.565 83.195 209.477 83.195 209.477 93.1654C209.477 102.904 195.565 102.904 195.565 112.874C195.565 122.613 209.477 122.613 209.477 132.583C209.477 142.322 195.565 142.322 195.565 152.292C195.565 162.031 209.477 162.031 209.477 172.001C209.477 181.74 195.565 181.74 195.565 191.71C195.565 201.449 209.477 201.449 209.477 211.42C209.477 221.158 195.565 221.158 195.565 231.129C195.565 240.867 209.477 240.867 209.477 250.838" stroke="#9ECBE3" stroke-width="0.579677" stroke-miterlimit="10" stroke-linejoin="round"/>
<path d="M230.577 14.5612C230.577 24.2998 216.665 24.2998 216.665 34.2702C216.665 44.0088 230.577 44.0088 230.577 53.9793C230.577 63.7178 216.665 63.7178 216.665 73.6883C216.665 83.4268 230.577 83.4268 230.577 93.3973C230.577 103.136 216.665 103.136 216.665 113.106C216.665 122.845 230.577 122.845 230.577 132.815C230.577 142.554 216.665 142.554 216.665 152.524C216.665 162.263 230.577 162.263 230.577 172.233C230.577 181.972 216.665 181.972 216.665 191.942C216.665 201.681 230.577 201.681 230.577 211.651C230.577 221.39 216.665 221.39 216.665 231.36C216.665 241.099 230.577 241.099 230.577 251.069" stroke="#9ECBE3" stroke-width="0.579677" stroke-miterlimit="10" stroke-linejoin="round"/>
<path d="M251.909 15.025C251.909 24.7636 237.997 24.7636 237.997 34.734C237.997 44.4726 251.909 44.4726 251.909 54.443C251.909 64.1816 237.997 64.1816 237.997 74.152C237.997 83.8906 251.909 83.8906 251.909 93.861C251.909 103.6 237.997 103.6 237.997 113.57C237.997 123.541 251.909 123.309 251.909 133.279C251.909 143.018 237.997 143.018 237.997 152.988C237.997 162.727 251.909 162.727 251.909 172.697C251.909 182.436 237.997 182.436 237.997 192.406C237.997 202.145 251.909 202.145 251.909 212.115C251.909 221.854 237.997 221.854 237.997 231.824C237.997 241.795 251.909 241.563 251.909 251.533" stroke="#9ECBE3" stroke-width="0.579677" stroke-miterlimit="10" stroke-linejoin="round"/>
<path d="M273.241 15.2568C273.241 24.9954 259.329 24.9954 259.329 34.9659C259.329 44.7044 273.241 44.7044 273.241 54.6749C273.241 64.4134 259.329 64.4134 259.329 74.3839C259.329 84.1225 273.241 84.1225 273.241 94.0929C273.241 103.831 259.329 103.831 259.329 113.802C259.329 123.54 273.241 123.54 273.241 133.511C273.241 143.249 259.329 143.25 259.329 153.22C259.329 162.959 273.241 162.959 273.241 172.929C273.241 182.668 259.329 182.668 259.329 192.638C259.329 202.377 273.241 202.377 273.241 212.347C273.241 222.086 259.329 222.086 259.329 232.056C259.329 241.795 273.241 241.795 273.241 251.765" stroke="#9ECBE3" stroke-width="0.579677" stroke-miterlimit="10" stroke-linejoin="round"/>
</g>
<mask id="mask1" mask-type="alpha" maskUnits="userSpaceOnUse" x="106" y="163" width="82" height="137">
<path d="M169.131 163.654C155.451 164.813 137.829 169.451 124.38 195.652C111.627 220.926 103.744 255.707 107.686 274.025C111.395 291.415 120.902 305.559 137.365 296.516C154.06 287.473 159.625 243.881 163.798 225.1C169.595 199.13 177.71 200.985 185.13 183.827C187.217 178.958 187.913 175.016 187.217 172.233C186.058 165.509 177.71 162.959 169.131 163.654Z" fill="white"/>
</mask>
<g mask="url(#mask1)">
<path d="M102.121 212.347L179.797 257.562" stroke="#45A0D4" stroke-width="0.579677" stroke-miterlimit="10"/>
<path d="M99.1063 219.767L176.783 264.982" stroke="#45A0D4" stroke-width="0.579677" stroke-miterlimit="10"/>
<path d="M96.092 227.187L173.537 272.402" stroke="#45A0D4" stroke-width="0.579677" stroke-miterlimit="10"/>
<path d="M92.8458 234.607L170.523 279.821" stroke="#45A0D4" stroke-width="0.579677" stroke-miterlimit="10"/>
<path d="M89.8315 242.026L167.276 287.241" stroke="#45A0D4" stroke-width="0.579677" stroke-miterlimit="10"/>
<path d="M86.5853 249.214L164.262 294.429" stroke="#45A0D4" stroke-width="0.579677" stroke-miterlimit="10"/>
<path d="M83.571 256.634L161.248 301.849" stroke="#45A0D4" stroke-width="0.579677" stroke-miterlimit="10"/>
<path d="M80.3248 264.054L158.001 309.269" stroke="#45A0D4" stroke-width="0.579677" stroke-miterlimit="10"/>
<path d="M77.3105 271.474L154.987 316.689" stroke="#45A0D4" stroke-width="0.579677" stroke-miterlimit="10"/>
<path d="M74.2961 278.894L151.741 324.109" stroke="#45A0D4" stroke-width="0.579677" stroke-miterlimit="10"/>
<path d="M133.191 138.844L210.868 184.059" stroke="#45A0D4" stroke-width="0.579677" stroke-miterlimit="10"/>
<path d="M130.177 146.264L207.622 191.479" stroke="#45A0D4" stroke-width="0.579677" stroke-miterlimit="10"/>
<path d="M126.931 153.452L204.607 198.667" stroke="#45A0D4" stroke-width="0.579677" stroke-miterlimit="10"/>
<path d="M123.916 160.872L201.593 206.086" stroke="#45A0D4" stroke-width="0.579677" stroke-miterlimit="10"/>
<path d="M120.902 168.292L198.347 213.506" stroke="#45A0D4" stroke-width="0.579677" stroke-miterlimit="10"/>
<path d="M117.656 175.711L195.333 220.926" stroke="#45A0D4" stroke-width="0.579677" stroke-miterlimit="10"/>
<path d="M114.642 183.131L192.086 228.346" stroke="#45A0D4" stroke-width="0.579677" stroke-miterlimit="10"/>
<path d="M111.395 190.319L189.072 235.534" stroke="#45A0D4" stroke-width="0.579677" stroke-miterlimit="10"/>
<path d="M108.381 197.739L186.058 242.954" stroke="#45A0D4" stroke-width="0.579677" stroke-miterlimit="10"/>
<path d="M105.135 205.159L182.812 250.374" stroke="#45A0D4" stroke-width="0.579677" stroke-miterlimit="10"/>
</g>
<path d="M181.635 84.7979C183.417 84.5953 184.767 83.6059 184.651 82.5879C184.535 81.57 182.997 80.9091 181.216 81.1117C179.435 81.3143 178.085 82.3037 178.2 83.3216C178.316 84.3395 179.854 85.0004 181.635 84.7979Z" fill="#45A0D4"/>
<path d="M282.748 92.2379C289.704 80.1806 302.225 75.7751 314.514 81.5719" stroke="#660000" stroke-width="0.579677" stroke-miterlimit="10" stroke-linejoin="round"/>
<path d="M266.053 93.6291C298.283 47.255 329.354 71.6014 329.354 71.6014" stroke="#660000" stroke-width="0.579677" stroke-miterlimit="10" stroke-linejoin="round"/>
<path d="M103.28 153.22C119.511 155.307 124.38 154.379 124.38 154.379" stroke="#660000" stroke-width="0.579677" stroke-miterlimit="10" stroke-linejoin="round"/>
<path d="M0.793106 118.439C0.793106 118.439 25.6033 138.612 69.6587 147.655" stroke="#660000" stroke-width="0.579677" stroke-miterlimit="10" stroke-linejoin="round"/>
<path d="M22.589 213.738C22.589 213.738 59.6883 225.795 102.584 224.172" stroke="#660000" stroke-width="0.579677" stroke-miterlimit="10" stroke-linejoin="round"/>
<path d="M317.529 269.387C317.529 269.387 297.356 303.936 256.547 336.166" stroke="#660000" stroke-width="0.579677" stroke-miterlimit="10" stroke-linejoin="round"/>
<path d="M179.334 311.356C156.842 316.921 140.147 318.08 140.147 318.08" stroke="#660000" stroke-width="0.579677" stroke-miterlimit="10" stroke-linejoin="round"/>
<path d="M227.331 293.734C220.375 297.212 213.419 300.226 206.694 302.777" stroke="#660000" stroke-width="0.579677" stroke-miterlimit="10" stroke-linejoin="round"/>
<path d="M222.693 327.123C222.693 327.123 223.389 329.674 238.229 319.471C253.068 309.269 260.72 303.008 260.72 303.008" stroke="#660000" stroke-width="0.579677" stroke-miterlimit="10" stroke-linejoin="round"/>
<path d="M284.139 106.382C286.226 96.6435 295.037 85.2818 308.486 87.1368C321.934 88.9917 324.485 103.6 324.485 103.6" stroke="#660000" stroke-width="0.579677" stroke-miterlimit="10" stroke-linejoin="round"/>
<path d="M260.488 190.319C260.488 190.319 281.357 207.478 283.212 223.941C285.067 240.403 283.444 251.765 282.052 259.88C280.661 267.996 282.052 274.952 282.052 274.952" stroke="#660000" stroke-width="0.579677" stroke-miterlimit="10" stroke-linejoin="round"/>
<path d="M222.23 235.998C222.23 235.998 231.041 243.418 234.055 245.736C237.069 247.823 238.924 249.214 238.924 249.214" stroke="#660000" stroke-width="0.579677" stroke-miterlimit="10" stroke-linejoin="round"/>
<path d="M243.33 251.765C243.33 251.765 250.054 255.011 250.982 257.794" stroke="#660000" stroke-width="0.579677" stroke-miterlimit="10" stroke-linejoin="round"/>
<path d="M253.532 265.445C253.532 265.445 252.837 275.184 254.923 279.126C257.01 283.068 259.561 285.618 259.561 285.618" stroke="#660000" stroke-width="0.579677" stroke-miterlimit="10" stroke-linejoin="round"/>
<path d="M309.413 210.492C295.965 231.592 283.907 245.968 283.907 245.968" stroke="#660000" stroke-width="0.579677" stroke-miterlimit="10" stroke-linejoin="round"/>
<path d="M340.484 81.5719C340.484 81.5719 355.787 98.4984 340.484 146.959C337.933 155.075 334.687 163.422 330.977 171.306" stroke="#660000" stroke-width="0.579677" stroke-miterlimit="10" stroke-linejoin="round"/>
<path d="M325.18 182.204L312.659 191.015L322.166 198.667L325.18 182.204Z" fill="#E2603D"/>
<path d="M312.891 198.898L319.152 189.624" stroke="#660000" stroke-width="0.579677" stroke-miterlimit="10" stroke-linejoin="round"/>
<path d="M313.819 204.695L320.543 193.334" stroke="#660000" stroke-width="0.579677" stroke-miterlimit="10" stroke-linejoin="round"/>
<path d="M34.6462 150.669C34.6462 150.669 46.0079 156.466 62.7026 159.48" stroke="#660000" stroke-width="0.579677" stroke-miterlimit="10" stroke-linejoin="round"/>
<path d="M62.4707 234.143C62.4707 234.143 80.3248 236.925 100.034 235.302" stroke="#660000" stroke-width="0.579677" stroke-miterlimit="10" stroke-linejoin="round"/>
<path d="M276.951 163.19C282.052 164.35 287.617 165.277 292.718 165.277C307.094 165.509 312.427 158.321 317.529 149.046" stroke="#660000" stroke-width="0.579677" stroke-miterlimit="10" stroke-linejoin="round"/>
<path d="M261.416 158.321C263.503 159.249 266.053 160.176 269.068 161.104" stroke="#660000" stroke-width="0.579677" stroke-miterlimit="10" stroke-linejoin="round"/>
<path d="M163.798 254.779C163.798 254.779 159.625 289.56 139.684 302.777C125.308 312.283 115.569 302.777 115.569 302.777" stroke="#660000" stroke-width="0.579677" stroke-miterlimit="10" stroke-linejoin="round"/>
<path d="M164.262 248.287C164.262 248.287 165.421 238.78 166.813 235.302" stroke="#660000" stroke-width="0.579677" stroke-miterlimit="10" stroke-linejoin="round"/>
<path d="M189.072 165.277C189.072 165.277 181.189 153.684 157.77 159.712C140.843 163.886 130.409 173.393 130.409 173.393" stroke="#660000" stroke-width="0.579677" stroke-miterlimit="10" stroke-linejoin="round"/>
<path d="M191.623 168.987C191.623 168.987 192.55 170.147 192.782 172.929C193.246 176.175 191.623 179.189 191.623 179.189" stroke="#660000" stroke-width="0.579677" stroke-miterlimit="10" stroke-linejoin="round"/>
<path d="M159.625 117.976C149.654 124.004 133.887 134.67 131.568 142.322C130.873 145.104 130.409 148.119 130.409 150.901" stroke="#660000" stroke-width="0.579677" stroke-miterlimit="10" stroke-linejoin="round"/>
<path d="M167.972 113.106C167.972 113.106 166.349 114.034 163.566 115.657" stroke="#660000" stroke-width="0.579677" stroke-miterlimit="10" stroke-linejoin="round"/>
<path d="M188.377 73.4564C184.898 74.152 183.971 75.7751 185.826 78.0938C187.681 80.4125 189.072 80.4125 184.898 81.8037C180.725 83.195 182.348 86.4411 184.898 86.9049C187.449 87.6005 188.608 89.2236 185.13 89.9192C180.029 91.0786 181.652 94.0929 184.667 93.3973C189.304 92.4698 196.492 89.2236 196.956 91.3104C197.419 93.1654 190.927 92.4698 192.782 95.0204C193.941 96.8753 200.202 93.6291 204.144 93.6291" stroke="#660000" stroke-width="0.579677" stroke-miterlimit="10" stroke-linejoin="round"/>
<path d="M185.362 267.068C183.275 265.214 181.189 263.127 179.102 261.04" stroke="#660000" stroke-width="0.579677" stroke-miterlimit="10" stroke-linejoin="round"/>
<path d="M218.752 260.112C216.201 265.214 212.491 270.083 206.694 273.329C201.825 276.111 195.796 274.256 189.768 270.315C188.84 269.619 187.681 268.923 186.753 268.228" stroke="#660000" stroke-width="0.579677" stroke-miterlimit="10" stroke-linejoin="round"/>
<path d="M178.406 86.9049C175.624 87.1368 173.305 86.2093 173.073 84.5862C172.841 83.4268 174.001 82.2675 175.624 81.5719" stroke="#660000" stroke-width="0.579677" stroke-miterlimit="10" stroke-linejoin="round"/>
<path d="M78.7017 144.177L78.006 154.379L93.0776 151.829L78.7017 144.177Z" fill="#E2603D"/>
<path d="M325.412 112.643C325.412 112.643 327.731 127.946 320.775 140.699" stroke="#660000" stroke-width="0.579677" stroke-miterlimit="10" stroke-linejoin="round"/>
</g>
<defs>
<clipPath id="clip0">
<rect width="403.687" height="380.964" fill="white" transform="translate(0.561234 0.648987)"/>
</clipPath>
</defs>
</svg>
