<svg id="Layer" xmlns="http://www.w3.org/2000/svg" viewBox="0 0 1719.27 1105.5"><defs><style>.cls-1{fill:#c64f4b;}.cls-2{fill:#030207;}.cls-3{fill:#0068a8;}.cls-4{fill:#fcce44;}.cls-5,.cls-6,.cls-7,.cls-8{fill:none;}.cls-5,.cls-6{stroke:#170c2c;stroke-width:3px;}.cls-5,.cls-7,.cls-8{stroke-miterlimit:10;}.cls-6{stroke-linejoin:bevel;}.cls-7{stroke:#fff;stroke-width:2px;}.cls-8{stroke:#1b1c23;stroke-width:4px;}.cls-9{fill:#fff;}</style></defs><title>10</title><path class="cls-1" d="M1108.43,483.24s-39.19,72-117.75,84.93S824,529.89,824,529.89s53.73-55.07,120.69-76.51A182.58,182.58,0,0,1,970.81,447c34.6-5.68,65.41.68,89.06,9.56C1089.93,467.85,1108.43,483.24,1108.43,483.24Z" transform="translate(-125.58 -113.11)"/><path class="cls-1" d="M794.88,745.48S761.35,848.44,684,859.79s-169.22-73.21-169.22-73.21,62.71-105.14,140.06-116.49a102.37,102.37,0,0,1,43.39,3.24c37.5,10.73,68,39.34,84.17,57.14A194.93,194.93,0,0,1,794.88,745.48Z" transform="translate(-125.58 -113.11)"/><path class="cls-1" d="M1844.85,628.57s-148.63,185.35-298.92,185.35-245.31-185.35-245.31-185.35a400.31,400.31,0,0,1,20.59-34.93c24.6-37.82,70.34-97.17,132.2-130.3,27.75-14.86,58.74-24.45,92.52-24.45C1696.22,438.89,1844.85,628.57,1844.85,628.57Z" transform="translate(-125.58 -113.11)"/><path class="cls-1" d="M1552.23,957s-87.79,62.38-159.94,47.07S1291,901.62,1291,901.62a196.35,196.35,0,0,1,25-22.36c24.33-18.49,63.88-40.54,107.16-32.45.8.14,1.61.3,2.41.47C1497.7,862.59,1552.23,957,1552.23,957Z" transform="translate(-125.58 -113.11)"/><path class="cls-1" d="M1783.72,905.33s-38.78,20.56-74.57,15.78-55-33.1-55-33.1a60.71,60.71,0,0,1,6.73-4.9c8.52-5.48,24.49-13.63,44.5-13.82a73.76,73.76,0,0,1,10.65.65C1751.78,874.72,1783.72,905.33,1783.72,905.33Z" transform="translate(-125.58 -113.11)"/><path class="cls-1" d="M1833.84,349.36s-49.43,65.93-105.58,71.6c-22.76,2.3-43.12-5.66-59.29-15.94a156.69,156.69,0,0,1-38.44-35.13,159.36,159.36,0,0,1,30.82-43.28c13.73-13.47,32-25.42,54.59-27.7C1772.08,293.24,1833.84,349.36,1833.84,349.36Z" transform="translate(-125.58 -113.11)"/><path class="cls-1" d="M1574.27,206.8s-71.37,68.65-152.2,80.87a173.07,173.07,0,0,1-26.22,2c-45,0-81.06-17.34-99.9-28.74a137.17,137.17,0,0,1-14.38-9.8s42.36-65.6,123.18-77.83S1574.27,206.8,1574.27,206.8Z" transform="translate(-125.58 -113.11)"/><path class="cls-1" d="M1761.82,1115.91s-61.84,39.79-113.4,28.74-73.28-68.72-73.28-68.72a112.86,112.86,0,0,1,10.48-9.13c11.51-9,31.55-21.9,55.43-25.51a81,81,0,0,1,29.35.77C1722,1053.09,1761.82,1115.91,1761.82,1115.91Z" transform="translate(-125.58 -113.11)"/><path class="cls-1" d="M1192.26,224.45s-16.78,28.17-42.09,47c-11.91,8.87-25.73,15.68-40.56,16.49-15.48.85-30.13-4.94-42.77-13-25.17-16.08-42.37-41.27-42.37-41.27S1059.65,198.54,1106,196,1192.26,224.45,1192.26,224.45Z" transform="translate(-125.58 -113.11)"/><path class="cls-1" d="M281.89,871.33S262.68,922.46,219.52,930s-93.94-31.41-93.94-31.41,34.42-54.91,77.58-62.43a63.79,63.79,0,0,1,29.23,1.94c17.77,5.22,32.4,16.6,41,24.58A103.42,103.42,0,0,1,281.89,871.33Z" transform="translate(-125.58 -113.11)"/><path class="cls-1" d="M875.66,307.87s-7.66,13.55-22.1,33.78c-36.77,51.46-117.48,146.12-227.89,170.83a247,247,0,0,1-56.6,6c-186.48-1.93-368.69-217.61-368.69-217.61S386.78,111.2,573.25,113.13,875.66,307.87,875.66,307.87Z" transform="translate(-125.58 -113.11)"/><path class="cls-1" d="M488.38,650.06s-40.81,86.41-113.65,91-150.12-74.39-150.12-74.39,67.32-79.37,140.16-84A112.94,112.94,0,0,1,414,591c35.52,14.17,60.94,42.24,70.38,53.87C487,648.1,488.38,650.06,488.38,650.06Z" transform="translate(-125.58 -113.11)"/><path class="cls-1" d="M689.24,979.07s-56.67,107.82-183.3,136.69-275.11-43-275.11-43S337.12,959.52,463.74,930.65c8-1.83,15.88-3.23,23.63-4.25,79.12-10.44,144.88,18.38,178.24,37.4A213.31,213.31,0,0,1,689.24,979.07Z" transform="translate(-125.58 -113.11)"/><path class="cls-2" d="M1012,549.89a65.24,65.24,0,0,1-67.32-96.51A182.58,182.58,0,0,1,970.81,447c34.6-5.68,65.41.68,89.06,9.56A65.29,65.29,0,0,1,1012,549.89Z" transform="translate(-125.58 -113.11)"/><path class="cls-2" d="M728.14,796.3a63.55,63.55,0,0,1-29.91-123c37.5,10.73,68,39.34,84.17,57.14A63.56,63.56,0,0,1,728.14,796.3Z" transform="translate(-125.58 -113.11)"/><path class="cls-2" d="M1569.52,587.3a124.24,124.24,0,0,1-248.31,6.34c24.6-37.82,70.34-97.17,132.2-130.3A124.21,124.21,0,0,1,1569.52,587.3Z" transform="translate(-125.58 -113.11)"/><path class="cls-2" d="M1402.13,261.82a52.8,52.8,0,0,1-6.28,27.81c-45,0-81.06-17.34-99.9-28.74a53.18,53.18,0,0,1,106.18.93Z" transform="translate(-125.58 -113.11)"/><path class="cls-2" d="M1436,883.92a60.09,60.09,0,0,1-120.18,0c0-1.56,0-3.12.18-4.66,24.33-18.49,63.88-40.54,107.16-32.45A59.8,59.8,0,0,1,1436,883.92Z" transform="translate(-125.58 -113.11)"/><path class="cls-2" d="M1704.47,365.82A39.4,39.4,0,0,1,1669,405a156.69,156.69,0,0,1-38.44-35.13,159.36,159.36,0,0,1,30.82-43.28c1.23-.11,2.47-.17,3.73-.17A39.39,39.39,0,0,1,1704.47,365.82Z" transform="translate(-125.58 -113.11)"/><path class="cls-1" d="M1406.06,396.39s-26,23.21-65.3,28.12a110.2,110.2,0,0,1-36.55-1.74c-1.9-.4-3.72-.84-5.48-1.3-17.06-4.47-27.92-11.26-27.92-11.26s6.71-9.25,20.48-17.76c1.07-.65,2.2-1.31,3.36-2a93.74,93.74,0,0,1,34.24-11.11C1368.15,374.46,1406.06,396.39,1406.06,396.39Z" transform="translate(-125.58 -113.11)"/><path class="cls-2" d="M1708.51,882.65a23.89,23.89,0,0,1-47.67.46c8.52-5.48,24.49-13.63,44.5-13.82A23.71,23.71,0,0,1,1708.51,882.65Z" transform="translate(-125.58 -113.11)"/><path class="cls-1" d="M289.66,490.39a86,86,0,0,1-30.44,16.82,78,78,0,0,1-30.51,3.45c-36-3.16-69.32-31.7-69.32-31.7s37.87-22.89,73.84-19.73a75.54,75.54,0,0,1,10.54,1.69,76.9,76.9,0,0,1,12.18,4,88.17,88.17,0,0,1,28.2,19.26A61.45,61.45,0,0,1,289.66,490.39Z" transform="translate(-125.58 -113.11)"/><path class="cls-2" d="M1655,1074.17a34.89,34.89,0,0,1-69.35-7.37c11.51-9,31.55-21.9,55.43-25.51A34.86,34.86,0,0,1,1655,1074.17Z" transform="translate(-125.58 -113.11)"/><path class="cls-2" d="M1150.27,268.57c0,1,0,1.94-.1,2.89-11.91,8.87-25.73,15.68-40.56,16.49-15.48.85-30.13-4.94-42.77-13a42,42,0,1,1,83.43-6.35Z" transform="translate(-125.58 -113.11)"/><path class="cls-2" d="M273.42,862.66a29,29,0,1,1-41-24.58C250.16,843.3,264.79,854.68,273.42,862.66Z" transform="translate(-125.58 -113.11)"/><path class="cls-2" d="M853.56,341.65c-36.77,51.46-117.48,146.12-227.89,170.83A152.82,152.82,0,1,1,853.56,341.65Z" transform="translate(-125.58 -113.11)"/><path class="cls-2" d="M579.54,1050A92.07,92.07,0,0,1,487.37,926.4c79.12-10.44,144.88,18.38,178.24,37.4A92.07,92.07,0,0,1,579.54,1050Z" transform="translate(-125.58 -113.11)"/><path class="cls-2" d="M484.36,644.83A50.62,50.62,0,1,1,414,591C449.5,605.13,474.92,633.2,484.36,644.83Z" transform="translate(-125.58 -113.11)"/><path class="cls-2" d="M1211.77,1182.25s-90.87-120.7-121.84-194.63c-14.37-34.3-22.61-69.26-33.75-119.65L963.4,962.35l24.73,254.27H791.23c7.62-8,39-39.58,75.77-56.9,0,0-45.64-169.76-42.46-236.1,4.27-89,189.61-284.38,276.31-253.62,91.5,32.47,128.26,282.89,128.26,282.89L1374,1216.62H1186.1C1190.24,1206.35,1198.46,1190.4,1211.77,1182.25Z" transform="translate(-125.58 -113.11)"/><path class="cls-3" d="M1182.35,542.74l-60.68,89.12c-16.28,23.9-52.53,20.39-63.91-6.18l-37.92-88.5a36.61,36.61,0,0,1,33.41-51l98.61-.62C1181.36,485.34,1199,518.35,1182.35,542.74Z" transform="translate(-125.58 -113.11)"/><path class="cls-4" d="M1087.66,513.16l.43-66.5s-25.63-13.34-20.86-31.75,23.54-10.05,23.54-10.05,9.17-25.23,36.44-27,40.82,13.84,44.1,35.37c5.69,37.39-14.42,49.08-54.62,48.92l-1.92,43.78" transform="translate(-125.58 -113.11)"/><path class="cls-2" d="M1078,403.33s-8-28.84,28.12-41.71,44-.47,57.09-9.59,33,32.91-7.26,45-39.27,9.26-39.27,9.26,2.45,18.69-8.39,19.18-17.45-18.21-17.45-18.21" transform="translate(-125.58 -113.11)"/><line class="cls-5" x1="1032.48" y1="296.46" x2="1038.01" y2="311.79"/><line class="cls-5" x1="1008.5" y1="294.45" x2="1022.51" y2="286.14"/><circle class="cls-2" cx="1019.93" cy="297.57" r="4.43"/><line class="cls-5" x1="1044.57" y1="284.84" x2="1028.28" y2="284.57"/><circle class="cls-2" cx="1038.01" cy="293.3" r="4.43"/><path class="cls-6" d="M1211.21,500.31c45.94,3.69,199.36,119.74,196.07,152.56s-82.46,9.77-114,28.88c0,0,27.85,39.71,23.34,42.58s-26.21-23.05-29.08-21,25,41.85,18.46,45.54-46.36-45.54-48-43.9,27.59,42.41,21.44,46.1-50.16-51-55.49-49.79-1.64,37.74-7,38.56-34.06-55.79-27.08-68.92,45.61-39.84,104.05-51.24" transform="translate(-125.58 -113.11)"/><path class="cls-6" d="M1188.76,579.49s49.09,24,71,48.94" transform="translate(-125.58 -113.11)"/><path class="cls-6" d="M1006.39,500.31c-36,1.84-133.24,121.43-133.24,121.43s-112.82,26.67-124.3,37.34-55.39,79.59-49.64,87.79,34.87-34,34.87-34-27.9,41.44-25.85,47.18,35.69-27.9,35.69-27.9-21.74,27.49-18,32.41,39-33.23,52.1-38.15,102.57-18.87,121.44-28.72,112.41-99.28,112.41-99.28" transform="translate(-125.58 -113.11)"/><path class="cls-7" d="M728.59,686.29c-15.73,24-33.13,55.23-29.38,60.58,5.74,8.21,34.87-34,34.87-34s-27.9,41.44-25.85,47.18,35.69-27.9,35.69-27.9-21.74,27.49-18,32.41,39-33.23,52.1-38.15" transform="translate(-125.58 -113.11)"/><path class="cls-7" d="M1006.39,500.31c-12,.61-30.67,14.21-50.33,32.11" transform="translate(-125.58 -113.11)"/><path class="cls-6" d="M771,661.87s-31.61,15.62-29.89,23.27,46.2-8.6,46.2-8.6" transform="translate(-125.58 -113.11)"/><line class="cls-8" x1="605.38" y1="1103.5" x2="1302.34" y2="1103.5"/><path class="cls-7" d="M1338.44,574.09s78.29,57.49,68.9,81.29c-7.21,18.27-53,17.23-53,17.23" transform="translate(-125.58 -113.11)"/><path class="cls-2" d="M1306.64,412a25.13,25.13,0,0,1-2.43,10.82c-1.9-.4-3.72-.84-5.48-1.3-17.06-4.47-27.92-11.26-27.92-11.26s6.71-9.25,20.48-17.76c1.07-.65,2.2-1.31,3.36-2A25.2,25.2,0,0,1,1306.64,412Z" transform="translate(-125.58 -113.11)"/><path class="cls-2" d="M289.66,490.39a86,86,0,0,1-30.44,16.82A25.84,25.84,0,0,1,256,464.88a88.17,88.17,0,0,1,28.2,19.26A61.45,61.45,0,0,1,289.66,490.39Z" transform="translate(-125.58 -113.11)"/><circle class="cls-9" cx="600.13" cy="277.14" r="31.7"/><circle class="cls-9" cx="1291.24" cy="456.2" r="24.28"/><circle class="cls-9" cx="1244.01" cy="761.46" r="12.42"/><circle class="cls-9" cx="127.23" cy="747.72" r="8.32"/><circle class="cls-9" cx="156.22" cy="376.11" r="8.32"/><circle class="cls-9" cx="330.43" cy="512.76" r="11.47"/><circle class="cls-9" cx="459.57" cy="842.37" r="14.68"/><circle class="cls-9" cx="1212.86" cy="157.21" r="13"/><circle class="cls-9" cx="982.85" cy="161.22" r="8.39"/><circle class="cls-9" cx="880.81" cy="367.17" r="13.2"/><circle class="cls-9" cx="1153.04" cy="296.46" r="8.39"/><circle class="cls-9" cx="1528.13" cy="253.31" r="10.53"/><circle class="cls-9" cx="1489.57" cy="951.29" r="8.39"/><circle class="cls-9" cx="1553.48" cy="764.14" r="5.33"/></svg>