<svg id="Layer" xmlns="http://www.w3.org/2000/svg" viewBox="0 0 1301.04 1030.8"><defs><style>.cls-1{fill:#0083c8;}.cls-10,.cls-11,.cls-2,.cls-4,.cls-5,.cls-9{fill:none;}.cls-10,.cls-11,.cls-2,.cls-4{stroke:#fff;}.cls-11,.cls-2,.cls-5,.cls-9{stroke-miterlimit:10;}.cls-2,.cls-4{stroke-width:2px;}.cls-3{fill:#fff;}.cls-4{stroke-linejoin:round;}.cls-5,.cls-9{stroke:#170c2c;}.cls-10,.cls-11,.cls-5{stroke-width:3px;}.cls-6{fill:#fcce44;}.cls-7{fill:#170c2c;}.cls-8{fill:#c64f4b;}.cls-9{stroke-width:4px;}.cls-10{stroke-linejoin:bevel;}</style></defs><title>12</title><path class="cls-1" d="M751.26,1054.05a174.26,174.26,0,1,1-348.52,0c0-1.18,0-2.36,0-3.53a174.26,174.26,0,0,1,348.48,3.53Z" transform="translate(-357.29 -199.81)"/><path class="cls-2" d="M559.2,849.54s15,96,136.26,104.61" transform="translate(-357.29 -199.81)"/><ellipse class="cls-3" cx="603.54" cy="1014.95" rx="33.11" ry="22.67" transform="translate(-707.59 119.02) rotate(-23.14)"/><ellipse class="cls-3" cx="579.55" cy="1170.1" rx="13.58" ry="15.59" transform="translate(-978.13 1484.17) rotate(-86.83)"/><path class="cls-2" d="M421.71,1134.29c48.23,7.69,101.75,9.62,113.14-16.44,21.57-49.39-80.68-154.11-71.39-166.77s44.94-1.41,52.31-16c4.38-8.68,0-24.65-7.22-41.33" transform="translate(-357.29 -199.81)"/><path class="cls-4" d="M834.47,1050.17S680.55,1035.58,674,1060c-4.58,17.06,40,50.36,40,50.36s-90.21-26.24-104.86,1.26c-9,17,51.68,53.65,86.28,72.79" transform="translate(-357.29 -199.81)"/><path class="cls-3" d="M440.15,1051.64c-3.46,6.33-18.22,5.45-37.37-1.12a174.31,174.31,0,0,1,5-38.07C430.56,1027.87,444.38,1043.93,440.15,1051.64Z" transform="translate(-357.29 -199.81)"/><path class="cls-5" d="M753.14,601.19s9.4-5.58,29,10.4C798.54,625,806,643.17,806,643.17" transform="translate(-357.29 -199.81)"/><polygon class="cls-6" points="1187.49 988.51 1213.17 1028.8 1161.81 1028.8 1187.49 988.51"/><polygon class="cls-7" points="1030.72 52.96 1171.26 192.11 971.54 241.67 1030.72 52.96"/><path d="M507.5,446.85s40.7,17.32,50,46.34-21.31,60.32-21.31,60.32l-97.38-20.36Z" transform="translate(-357.29 -199.81)"/><path class="cls-8" d="M402.73,690.63a108.44,108.44,0,1,1,197.53-89.54Z" transform="translate(-357.29 -199.81)"/><path class="cls-8" d="M1387.87,608a157.24,157.24,0,1,1-204.26-239.11Z" transform="translate(-357.29 -199.81)"/><path class="cls-6" d="M463,566.71l-20-74s-26.59-6.79-26.17-24.86,19.59-14.39,19.59-14.39,3-25.32,27.86-32.87,45.25,18.36,48,38.88c4,30.3-5.4,47.5-36.61,47.54l13,40.24" transform="translate(-357.29 -199.81)"/><line class="cls-5" x1="137.71" y1="263.07" x2="145.67" y2="275.31"/><path d="M457.48,546.33C482.75,532,447.13,447,447.13,447c30.69,9.6,59.39-4.41,59.39-4.41s-17.4-40.6-62.16-24.91-48.12,47.37-48.12,47.37-46.35,23.13-37.92,63,56.92,56.32,56.92,56.32S437.39,557.71,457.48,546.33Z" transform="translate(-357.29 -199.81)"/><ellipse class="cls-7" cx="503.41" cy="459.74" rx="3.48" ry="5.31" transform="matrix(1, 0, 0, 1, -359.1, -197.82)"/><ellipse class="cls-7" cx="486.5" cy="462.63" rx="3.48" ry="5.31" transform="translate(-359.12 -197.89) rotate(-0.23)"/><path class="cls-7" d="M931.77,1063.69l-166.15,96L639.7,891.41A173.82,173.82,0,0,0,577,879.79h0a192.45,192.45,0,0,1-33.54,1.75c-38.15-1.85-102.15-19.08-96.61-96.62S664.69,565.11,703.46,566.71,984,815.38,984,815.38s53.62-31.31,75.77-28.23L916.39,951.07,831.22,873c23.23,84.43,37.85,191.71,37.85,191.71S910.23,1058.77,931.77,1063.69Z" transform="translate(-357.29 -199.81)"/><circle class="cls-8" cx="819.4" cy="977.71" r="51.09"/><path class="cls-3" d="M1253.65,1106.38a145.12,145.12,0,0,1,199,40.82l-119.92,79.1Z" transform="translate(-357.29 -199.81)"/><path class="cls-7" d="M1332.2,1084.69a143.43,143.43,0,0,1,118.38,62.09l-117.4,77.45-77.44-117.4a143,143,0,0,1,76.46-22.14h0m0-3a146,146,0,0,0-80.63,24.26l80.76,122.43,122.44-80.76a146.54,146.54,0,0,0-122.57-65.93Z" transform="translate(-357.29 -199.81)"/><circle class="cls-7" cx="1069.22" cy="1000.4" r="28.4"/><circle class="cls-1" cx="700.86" cy="1008.65" r="20.15"/><path class="cls-3" d="M1294.51,794.08a8.84,8.84,0,1,1,8.84-8.83A8.84,8.84,0,0,1,1294.51,794.08Z" transform="translate(-357.29 -199.81)"/><path class="cls-7" d="M1294.51,777.91a7.34,7.34,0,1,1-7.33,7.34,7.34,7.34,0,0,1,7.33-7.34m0-3a10.34,10.34,0,1,0,10.34,10.34,10.34,10.34,0,0,0-10.34-10.34Z" transform="translate(-357.29 -199.81)"/><circle class="cls-1" cx="937.22" cy="495.76" r="49.85"/><circle class="cls-3" cx="1041.84" cy="366.28" r="34.36"/><path class="cls-7" d="M1399.13,533.23a32.86,32.86,0,1,1-32.86,32.86,32.9,32.9,0,0,1,32.86-32.86m0-3A35.86,35.86,0,1,0,1435,566.09a35.86,35.86,0,0,0-35.86-35.86Z" transform="translate(-357.29 -199.81)"/><circle class="cls-6" cx="1102.86" cy="256.73" r="46.08"/><circle class="cls-8" cx="1038.14" cy="253.12" r="18.64"/><circle class="cls-6" cx="754.48" cy="102" r="25.76"/><rect class="cls-1" x="1059.28" y="369.66" width="73.09" height="73.09" transform="translate(-419.45 48.55) rotate(-12.58)"/><line class="cls-9" x1="1118.23" y1="318.79" x2="752.48" y2="129.73"/><line class="cls-5" y1="1028.8" x2="1301.04" y2="1028.8"/><path class="cls-5" d="M423.46,667.18l74,36.1s91.93-89.72,162.94-120.86c0,0,24.75-11.16,38.91-12.16s-11.58-10.7-39.8-4.72C581.77,582,503,622.26,503,622.26s-49.34-32.82-81.55-30.36" transform="translate(-357.29 -199.81)"/><path class="cls-10" d="M652.83,595.7s19.9,6.09,30,5.45C695,600.37,663,586.4,663,586.4s28,8.4,43.27,8.72c15.16.32-25-17.51-25-17.51s28,3.95,36.32,4.42c13.31.74-12.61-12.78-12.61-12.78" transform="translate(-357.29 -199.81)"/><path class="cls-10" d="M757.08,600.83s-5,8.91-1.72,15.27,9.85-9.23,14.77-6.56-5.54,30.36-3.9,40.2,17.64-28.51,17.64-28.51-9,40-4.92,44.1,17.27-33,17.27-33-3.94,24.77-.66,27.23S806,642.26,806,642.26" transform="translate(-357.29 -199.81)"/><path class="cls-11" d="M689.39,761.76s-52.53,87.72-103.62,111.47c-27,12.53-75.85,7.23-75.85,7.23" transform="translate(-357.29 -199.81)"/><path class="cls-11" d="M689.39,761.76l19.41-1.88a106.79,106.79,0,0,1,113.65,79.34l9.69,37.19" transform="translate(-357.29 -199.81)"/><path class="cls-9" d="M1342.66,715.21l291,430.7c23.8,35.21-1.43,82.7-43.93,82.7H999.25c-42.49,0-67.72-47.49-43.93-82.7l291-430.7-291-430.69c-23.79-35.21,1.44-82.71,43.93-82.71h590.52c42.5,0,67.73,47.5,43.93,82.71Z" transform="translate(-357.29 -199.81)"/><rect class="cls-7" x="902.89" y="625.26" width="68.67" height="135.38" rx="34.33"/></svg>