<svg id="Layer" xmlns="http://www.w3.org/2000/svg" viewBox="0 0 1411.18 935.88"><defs><style>.cls-1{fill:#0083c8;}.cls-11,.cls-12,.cls-2,.cls-3,.cls-5,.cls-9{fill:none;}.cls-11,.cls-2,.cls-5,.cls-9{stroke:#fff;}.cls-2,.cls-3,.cls-5{stroke-miterlimit:10;}.cls-2{stroke-width:2px;}.cls-12,.cls-3{stroke:#170c2c;}.cls-11,.cls-12,.cls-3,.cls-5,.cls-9{stroke-width:3px;}.cls-4{fill:#170c2c;}.cls-6{fill:#c64f4b;}.cls-7{fill:#fcce44;}.cls-8{fill:#f7c9d6;}.cls-12,.cls-9{stroke-linejoin:bevel;}.cls-10{fill:#fff;}.cls-11{stroke-linejoin:round;}</style></defs><title>14</title><rect class="cls-1" x="612.47" y="759.99" width="173.33" height="173.33" rx="86.67"/><path class="cls-2" d="M891.75,1152.79c27.26,10,57.09,17.87,67.35,8.92,20.42-17.8-26.6-78.47-19.07-82.45s27.63,6.35,34.27,1.25c5.12-3.94,3.06-15.42-.46-26.28" transform="translate(-279.28 -294.24)"/><path class="cls-2" d="M1050.13,1092.21c-22.25-3.64-46.41-4.77-52.13,5.84-6.9,12.81,30.08,51.21,59.35,78.69" transform="translate(-279.28 -294.24)"/><path class="cls-3" d="M1087.14,566.85s25.94,3,45.95-8,25.16-32.67,25.16-32.67" transform="translate(-279.28 -294.24)"/><path class="cls-3" d="M784.39,457.48s63.34-.83,94.38,29.79" transform="translate(-279.28 -294.24)"/><path class="cls-4" d="M389.68,1228.61H578.34s-29.1-28.45-46.56-31.69c0,0,111.89-148.75,128.06-212.13,10.78-42.29,6.62-83.44,6.62-83.44l17.31,71.79L612,1228.61H795.7s-33.63-23.93-49.8-27.16c0,0,74.08-188.56,70.2-235.12s-6.85-236.45-76.35-305.41c-49.34-49-135.2-55.38-187,20.54-47.28,69.34-31,275.51-31,275.51Z" transform="translate(-279.28 -294.24)"/><line class="cls-5" x1="381.69" y1="469.23" x2="390.42" y2="688.48"/><path d="M776.74,349.72s32.83,34.15,29.77,66.62-46.31,50.5-46.31,50.5l-87.41-60.93Z" transform="translate(-279.28 -294.24)"/><path class="cls-6" d="M560.42,557.24a127.17,127.17,0,0,1,254.28-5.83Z" transform="translate(-279.28 -294.24)"/><path class="cls-7" d="M682.58,449.14l11.36-81.35S670.59,350,678.58,332.32s25.35-6,25.35-6,13.59-23.68,41.24-20.7,36.88,37.08,30.94,58.43c-8.78,31.54-25.25,44.55-56,31.48L716,440.68" transform="translate(-279.28 -294.24)"/><line class="cls-3" x1="478.41" y1="66.03" x2="481.12" y2="81.43"/><path d="M685.71,426.75c30.91-3.51,31.48-102.2,31.48-102.2,26.21,22.33,60.37,20.57,60.37,20.57s-.11-47.3-50.8-50.62S659.48,321,659.48,321s-55.39,3.34-63.79,46.11,32.45,79.39,32.45,79.39S661.14,429.53,685.71,426.75Z" transform="translate(-279.28 -294.24)"/><ellipse class="cls-4" cx="767.3" cy="360.71" rx="5.68" ry="3.73" transform="translate(-142.27 633.58) rotate(-67.16)"/><ellipse class="cls-4" cx="749.43" cy="356.46" rx="5.68" ry="3.73" transform="translate(-149.29 614.5) rotate(-67.16)"/><polyline class="cls-4" points="415.11 210.5 683.49 352.27 1028.18 143.2 759.8 1.44"/><polygon class="cls-8" points="760.82 305.36 416.13 514.43 414.43 210.91 759.12 1.85 760.82 305.36"/><path class="cls-9" d="M1094,568.58c-1.25.82-36-14.78-31.26-21.87s48.14,9.77,48.14,9.77-43.76-21.79-36.88-28.87,62.1,16.28,62.1,16.28-26.88-14.65-20.84-20.5,42.2,4.06,42.2,4.06" transform="translate(-279.28 -294.24)"/><rect class="cls-10" x="634.99" y="588.16" width="170.33" height="170.33"/><path class="cls-4" d="M1083.1,883.9v167.33H915.77V883.9H1083.1m3-3H912.77v173.33H1086.1V880.9Z" transform="translate(-279.28 -294.24)"/><path class="cls-4" d="M1348.4,760h8.41a0,0,0,0,1,0,0V933.32a0,0,0,0,1,0,0H1183.48a0,0,0,0,1,0,0v-8.41A164.92,164.92,0,0,1,1348.4,760Z"/><rect class="cls-1" x="1064.05" y="586.67" width="346.67" height="173.33"/><rect class="cls-7" x="1100.35" y="880.9" width="173.33" height="346.67" rx="86.66" transform="translate(-436.24 -85.07) rotate(-9.45)"/><line class="cls-3" x1="720.16" y1="588.53" x2="720.16" y2="759.99"/><line class="cls-3" x1="635.56" y1="674.26" x2="805.1" y2="674.26"/><path class="cls-11" d="M926.85,668.29c-22.38-36.26-46.39-81.37-35.19-92.46,13.61-13.49,65.64,5.43,65.64,5.43s-67.18-61.42-48.7-89.3c15.82-23.87,130.54,44.3,130.54,44.3" transform="translate(-279.28 -294.24)"/><path class="cls-5" d="M695,592c42.31,20.49,104.62,45.41,123.53,25.31,29.38-31.23-33.1-131.68-22.4-138.82s38.21,9.37,47.73.37c9.83-9.3,2.37-40.91-4.18-62.22" transform="translate(-279.28 -294.24)"/><path class="cls-12" d="M634.77,458.47c27.6,10.27,128.61,128.6,128.61,128.6l151.25,63.07c5.16-3,33.2-18.48,45.29-10.37,4.56,3.07-12.53,11.73-24.68,25.43-5.39,5.63-6,15.11-26,27.72-28.13,17.71-43.68,12.56-43.68,12.56S717.75,668.59,690.41,655s-95.86-99.61-95.86-99.61" transform="translate(-279.28 -294.24)"/><path class="cls-5" d="M657.05,627.15s18.7,21.9,36.9,30.25" transform="translate(-279.28 -294.24)"/><path class="cls-5" d="M910.52,375.67c19.69,33.41,53,81.8,78.1,77.08,24.49-4.59,33.22-88.92,36.34-148.51" transform="translate(-279.28 -294.24)"/><path class="cls-5" d="M695,728.17s48.64-41.26,148-9" transform="translate(-279.28 -294.24)"/><path class="cls-2" d="M1502.44,879.49c-11.37,23-17.35,43.36-9.59,52.37,23.11,26.84,104.85-36.6,110.64-32.38s-57,102.52-32.43,120.47c13,9.45,68.89-16.41,118.94-43" transform="translate(-279.28 -294.24)"/><path class="cls-2" d="M1432.13,880c-11,22.08-35.5,57.59-88,87.55" transform="translate(-279.28 -294.24)"/><path class="cls-2" d="M1483.17,1054.23c12.89-20.27,21-40,13.7-51-12.66-18.92-97.14,6.8-153.54,26.65" transform="translate(-279.28 -294.24)"/><rect class="cls-6" x="1010.15" y="759.99" width="173.33" height="173.33"/><circle class="cls-7" cx="1155.1" cy="846.66" r="12.51"/><path class="cls-2" d="M1043,1200.5c-1.19,0-35.06-31.81-107.2,15.85" transform="translate(-279.28 -294.24)"/><line class="cls-3" y1="934.38" x2="1402.19" y2="934.38"/></svg>