<svg id="Layer" xmlns="http://www.w3.org/2000/svg" viewBox="0 0 1811.54 1173.26"><defs><style>.cls-1{fill:#fcce44;}.cls-10,.cls-11,.cls-12,.cls-2{fill:none;stroke-miterlimit:10;}.cls-10,.cls-2{stroke:#170c2c;}.cls-11,.cls-2{stroke-width:3px;}.cls-3{fill:#0083c8;}.cls-4{fill:#fff;}.cls-5{fill:#170c2c;}.cls-6{fill:#c64f4b;}.cls-7{fill:#f7c9d6;}.cls-8{fill:#0068a8;}.cls-9{fill:#030207;}.cls-10{stroke-width:5px;}.cls-11{stroke:#030207;}.cls-12{stroke:#fff;stroke-width:2px;}</style></defs><title>16</title><path class="cls-1" d="M1329.77,1253.59H768.23l37.23-460C805.46,806.53,910.92,817,1041,817s235.54-10.47,235.54-23.39Z" transform="translate(-99.31 -81.83)"/><path class="cls-2" d="M1276.54,793.61c0,12.92-105.45,23.39-235.54,23.39s-235.54-10.47-235.54-23.39c0-101.7,105.46-184.15,235.54-184.15S1276.54,691.91,1276.54,793.61Z" transform="translate(-99.31 -81.83)"/><path class="cls-2" d="M1276.54,793.61c0,12.92-105.45,23.39-235.54,23.39s-235.54-10.47-235.54-23.39S910.92,770.23,1041,770.23,1276.54,780.7,1276.54,793.61Z" transform="translate(-99.31 -81.83)"/><polygon class="cls-3" points="1487.42 1101.4 1531.6 1170.73 1443.23 1170.73 1487.42 1101.4"/><polygon class="cls-4" points="359.41 243.61 379.89 163.69 400.38 243.61 359.41 243.61"/><path class="cls-5" d="M479.2,251.56l18.55,72.38h-37.1l18.55-72.38m0-12.08-22.42,87.46h44.84L479.2,239.48Z" transform="translate(-99.31 -81.83)"/><polygon class="cls-4" points="1514.64 653.57 1529.85 583.69 1545.06 653.57 1514.64 653.57"/><path class="cls-5" d="M1629.16,672.57l13.35,61.33h-26.7l13.35-61.33m0-14.11-17.07,78.44h34.14l-17.07-78.44Z" transform="translate(-99.31 -81.83)"/><path class="cls-6" d="M1529.93,1155.58a108.25,108.25,0,0,1,193.57,97Z" transform="translate(-99.31 -81.83)"/><path class="cls-7" d="M282,1187.39a164.14,164.14,0,0,1,216.77-83l-66.87,149.89Z" transform="translate(-99.31 -81.83)"/><path class="cls-8" d="M1077.74,978.9l-60.52-79c-19.92-26-2.9-64.22,29.29-65.8l120.08-5.9c33.17-1.62,53.49,36.78,34.09,64.43l-59.56,84.9A39.07,39.07,0,0,1,1077.74,978.9Z" transform="translate(-99.31 -81.83)"/><polygon class="cls-6" points="1017.51 706.12 1017.45 706.12 1017.45 706.09 1017.51 706.12"/><polygon class="cls-9" points="1017.51 706.12 1017.45 706.12 1017.45 706.09 1017.51 706.12"/><path class="cls-6" d="M1155,787.54c0,18.27-27,24.57-27,24.57l-15.44,62-23.5-13.19,8.64-41.18c-34.78-17.21-48.63-28.54-39.15-58.52A36.24,36.24,0,0,1,1069,744.87a33.24,33.24,0,0,1,9.64-6h0a30.18,30.18,0,0,1,18-.22c14.23,4,19.63,14.89,21.2,25.9h0c-4.14,7.72-8.8,19.58-1.1,23.35v0h.06c9.18.15,18.09-13.16,18.09-13.16l12.87-.56C1151.66,776.16,1155,780,1155,787.54Z" transform="translate(-99.31 -81.83)"/><path class="cls-9" d="M1147.78,774.22l-12.87.56s-8.91,13.31-18.09,13.16l-.06,0c-7.7-3.77-3-15.63,1.1-23.35h0c-1.57-11-7-21.87-21.2-25.9a30.18,30.18,0,0,0-18,.22c-24.74-20.19,1-44.41,10.33-33.58,10,11.59,23.67,9.65,48.45,24.42C1169.06,748.58,1147.78,774.22,1147.78,774.22Z" transform="translate(-99.31 -81.83)"/><circle class="cls-9" cx="997.92" cy="669.56" r="4.25"/><circle class="cls-9" cx="977.76" cy="663.46" r="4.25"/><line class="cls-2" x1="990.2" y1="663.69" x2="974.16" y2="674.81"/><path class="cls-2" d="M805.46,793.61c0-12.91,105.46-23.38,235.54-23.38s235.54,10.47,235.54,23.38" transform="translate(-99.31 -81.83)"/><line class="cls-10" x1="941.69" y1="485.87" x2="941.69" y2="980.17"/><line class="cls-2" x1="1013.95" y1="828.79" x2="1046.7" y2="878.38"/><path class="cls-11" d="M951.62,897.38s75.77-44.64,92.59-45.87c8.2-.6,12.41,1.16,13.87,6.39,2,7.15-2,11-2,11s6.21,4.46,6.21,11.38-5.9,11.39-5.9,11.39,5.21,4.16,6.54,9.53c3.66,14.77-9.34,26.81-17.46,32.83-11.08,8.2-100.11,97.64-162.05,62.76s61.46-137.82,127-147" transform="translate(-99.31 -81.83)"/><path class="cls-9" d="M1186.35,1174.17l12.07,79.42H1058.64s16.89-29.95,38.09-35.7c0,0-11.43-20.29-24.5-49.12-18.22-2.06-32.83-7.24-44.54-14.13l9.73,98.95H897.64s16.89-29.95,38.09-35.7c0,0-71.51-189.53-15.45-238.35,49.4-43,117.51-2.57,133,7.64,70.21-58.75,171.17,32.71,182.14,85.12C1254.24,1162.33,1186.35,1174.17,1186.35,1174.17Z" transform="translate(-99.31 -81.83)"/><line class="cls-12" x1="917.54" y1="988.38" x2="929.87" y2="1087.93"/><path class="cls-12" d="M1042.56,1053c6.52,52.87,29.67,115.77,29.67,115.77" transform="translate(-99.31 -81.83)"/><path class="cls-12" d="M1053.26,987.18c-6.6,5.64-10.18,15.19-11.63,27.05" transform="translate(-99.31 -81.83)"/><line class="cls-12" x1="1063.85" y1="998.79" x2="1094.68" y2="1125.32"/><path class="cls-11" d="M1175,853.69s88.82,95.9,77.33,173.44-197.33,19.69-208.82,14.36-19.71-23.53-15.59-62c3.1-28.9,12.46-31.18,23.26-34.46s124.44,21.33,124.44,21.33" transform="translate(-99.31 -81.83)"/><path class="cls-12" d="M1028.7,973.65c-1.19,10.19,2,21,2,21s-5.07,5.23-3.85,16c2.66,23.24,41.84,49.84,111.15,53.54s92.37-6.77,92.37-6.77" transform="translate(-99.31 -81.83)"/><path class="cls-12" d="M1007,964.79s-56.88,42.74-102.26,39.1" transform="translate(-99.31 -81.83)"/><circle class="cls-9" cx="94.26" cy="1159.05" r="12.72"/><circle class="cls-7" cx="36.42" cy="369.04" r="12.72"/><circle class="cls-7" cx="1661.38" cy="429.2" r="12.72"/><path class="cls-4" d="M322.33,1252.09a20.91,20.91,0,1,1,20.91-20.91A20.93,20.93,0,0,1,322.33,1252.09Z" transform="translate(-99.31 -81.83)"/><path class="cls-5" d="M322.33,1211.77a19.41,19.41,0,1,1-19.41,19.41,19.43,19.43,0,0,1,19.41-19.41m0-3a22.41,22.41,0,1,0,22.41,22.41,22.41,22.41,0,0,0-22.41-22.41Z" transform="translate(-99.31 -81.83)"/><circle class="cls-6" cx="562.72" cy="1110.59" r="61.18"/><circle class="cls-7" cx="1711.49" cy="1154.43" r="17.33"/><circle class="cls-9" cx="1312.42" cy="704.49" r="13.04"/><circle class="cls-6" cx="828.42" cy="144.48" r="13.04"/><rect class="cls-4" x="1303.89" y="1126.6" width="43.15" height="43.15"/><path class="cls-5" d="M1444.85,1209.92v40.16h-40.16v-40.16h40.16m3-3h-46.16v46.16h46.16v-46.16Z" transform="translate(-99.31 -81.83)"/><polygon class="cls-7" points="569.82 560.48 545.21 615.25 520.6 560.48 545.21 505.71 569.82 560.48"/><polygon class="cls-3" points="1326.99 248.39 1302.38 303.16 1277.78 248.39 1302.38 193.62 1326.99 248.39"/><line class="cls-2" x1="120" y1="873.1" x2="120" y2="1038.16"/><line class="cls-2" x1="307.08" y1="864.48" x2="307.08" y2="924.38"/><line class="cls-2" x1="390.77" y1="832.72" x2="390.77" y2="685.29"/><line class="cls-2" x1="523.69" y1="831.96" x2="523.69" y2="981.16"/><line class="cls-2" x1="607.93" y1="637.05" x2="607.93" y2="697.36"/><line class="cls-2" x1="316.92" y1="482.64" x2="316.92" y2="542.94"/><line class="cls-2" x1="291.09" y1="12.95" x2="291.09" y2="73.26"/><line class="cls-2" x1="748.92" y1="481.71" x2="748.92" y2="543.87"/><line class="cls-2" x1="1288.46" x2="1288.46" y2="62.15"/><line class="cls-2" x1="757.56" y1="43.11" x2="757.56" y2="105.26"/><line class="cls-2" x1="677.54" y1="238.02" x2="677.54" y2="393.1"/><line class="cls-2" x1="815.38" y1="334.02" x2="815.38" y2="458.33"/><line class="cls-2" x1="1032.43" y1="11.11" x2="1032.43" y2="135.42"/><line class="cls-2" x1="917.54" y1="201.38" x2="917.54" y2="286.02"/><line class="cls-2" x1="1099.69" y1="381.26" x2="1099.69" y2="451.7"/><line class="cls-2" x1="1738.92" y1="56.93" x2="1738.92" y2="127.37"/><line class="cls-2" x1="1181.54" y1="144.48" x2="1181.54" y2="287.25"/><line class="cls-2" x1="1539.08" y1="20.77" x2="1539.08" y2="163.54"/><line class="cls-2" x1="1332.31" y1="393.1" x2="1332.31" y2="548.17"/><line class="cls-2" x1="1240" y1="553.1" x2="1240" y2="640.48"/><line class="cls-2" x1="1430.62" y1="700.1" x2="1430.62" y2="856.96"/><line class="cls-2" x1="1310.15" y1="858.28" x2="1310.15" y2="941.78"/><line class="cls-2" x1="1578.46" y1="858.28" x2="1578.46" y2="988.38"/><line class="cls-2" x1="1726.15" y1="683.76" x2="1726.15" y2="800.25"/><line class="cls-2" x1="1578.46" y1="334.02" x2="1578.46" y2="498.94"/><line class="cls-2" x1="1685.54" y1="201.38" x2="1685.54" y2="334.02"/><line class="cls-2" x1="1435.69" y1="201.38" x2="1435.69" y2="295.39"/><line class="cls-2" x1="187.69" y1="233.1" x2="187.69" y2="430.02"/><line class="cls-2" x1="451.4" y1="315.56" x2="451.4" y2="447.95"/><line class="cls-2" x1="577.85" y1="148.17" x2="577.85" y2="233.1"/><line class="cls-2" x1="58.46" y1="110.12" x2="58.46" y2="190.64"/><line class="cls-2" x1="81.54" y1="458.33" x2="81.54" y2="596.79"/><rect class="cls-3" x="211.33" y="683.48" width="35.98" height="97.16" rx="17.99"/><rect class="cls-3" x="1685.54" y="864.48" width="27.08" height="82.46" rx="13.54"/><line class="cls-2" x1="1811.54" y1="1171.76" y2="1171.76"/></svg>