<svg id="Layer" xmlns="http://www.w3.org/2000/svg" viewBox="0 0 1613.01 1163.35"><defs><style>.cls-1{fill:#c64f4b;}.cls-12,.cls-2,.cls-4,.cls-8,.cls-9{fill:none;}.cls-2,.cls-4{stroke:#fff;stroke-width:2px;}.cls-12,.cls-2,.cls-8{stroke-miterlimit:10;}.cls-3{fill:#f5b4c4;}.cls-4{stroke-linejoin:round;}.cls-5{fill:#fcce44;}.cls-6{fill:#030207;}.cls-7{fill:#0068a8;}.cls-8,.cls-9{stroke:#170c2c;stroke-width:3px;}.cls-9{stroke-linejoin:bevel;}.cls-10{fill:#fff;}.cls-11{fill:#170c2c;}.cls-12{stroke:#1b1c23;stroke-width:4px;}</style></defs><title>17</title><circle class="cls-1" cx="1416.03" cy="742.51" r="140.49"/><path class="cls-2" d="M1636.84,968c4.44-25.17,10.69-75.61-7.42-88.8-24.4-17.79-84.17,72.19-84.17,72.19s16.66-35.5,11.5-51.64c-4.14-12.95-52.33,17.22-71.22,29.65" transform="translate(-173.95 -93.03)"/><path class="cls-2" d="M1450.25,820.81c29.62,12.62,97.2,38.55,110.88,18.74,17.56-25.42-53.35-104.78-46.62-110.94s32.35,7.09,38.13-.33c4.08-5.25,3-16.92.45-28.33" transform="translate(-173.95 -93.03)"/><path class="cls-2" d="M1666.79,717.89c-23.91,2.33-46.73,7.2-49,17.22-5,21.71,57.66,39.39,57.68,43.9s-73.16,9.41-73.06,28.56,122.45,69.17,122.45,69.17" transform="translate(-173.95 -93.03)"/><polygon class="cls-1" points="396.86 1149.97 68.37 1149.97 232.61 884.52 396.86 1149.97"/><polygon class="cls-3" points="589.48 332.71 523.74 374.69 520.13 296.57 589.48 332.71"/><path class="cls-4" d="M340.13,1084.91c28.23,21.33,53.76,43.63,50.21,52.24-5.31,12.9-56.79,6.8-56.79,6.8s89.83,37.8,79.83,62c-6.12,14.84-96.06-1.11-141.8-10.27" transform="translate(-173.95 -93.03)"/><path class="cls-2" d="M537.56,1189.27c-28.16-10.32-59.82-17.6-69.68-3.18-8.07,11.81-1.69,34,9.26,56.92" transform="translate(-173.95 -93.03)"/><path class="cls-4" d="M467.68,1076.34c-19.76,6.85-39.36,15.55-41.54,23.64-2.83,10.47,38.63,18.43,70.37,22.94" transform="translate(-173.95 -93.03)"/><path class="cls-5" d="M1190.46,327.67a102.23,102.23,0,0,1,191.26-72.28Z" transform="translate(-173.95 -93.03)"/><path class="cls-6" d="M1103.2,908.74l-84.56-146L924.23,869l22.47,231-159.29-27.24c17.28-23.25,50.85-27.75,50.85-27.75s-40.71-151.4-37.87-210.56c3.81-79.4,169.1-253.62,246.42-226.18,81.6,29,183.27,204.12,188.86,278,5.21,68.92-34.05,225.64-34.05,225.64l39.26,38.43-153.31-26.21Z" transform="translate(-173.95 -93.03)"/><path class="cls-7" d="M950.1,472.51l45.84,84.61a34.23,34.23,0,0,0,58.84,2.3l52.88-81.7c14.5-22.4-1.06-52-27.73-52.82L981.22,422C954.84,421.21,937.53,449.31,950.1,472.51Z" transform="translate(-173.95 -93.03)"/><path class="cls-5" d="M1039.87,454.17l10-54.88s25.67-2.18,28.07-19S1062,364,1062,364s1.12-23.91-20.72-34.73-38.35-2.63-48.44,14c-17.52,28.82-5,45.35,28.16,59l-5.74,35.57" transform="translate(-173.95 -93.03)"/><path class="cls-6" d="M1073.08,367.11s16.51-21-8.83-44-36.06-15.5-43.7-27.49-38.46,15.76-9.46,39.49,29.14,21.11,29.14,21.11-8.43,14.54.33,18.66,20.61-9,20.61-9" transform="translate(-173.95 -93.03)"/><line class="cls-8" x1="833.67" y1="248.41" x2="823.24" y2="258.52"/><circle class="cls-6" cx="841.3" cy="252.09" r="3.95"/><circle class="cls-6" cx="828.96" cy="242.93" r="3.95"/><path class="cls-9" d="M935,428.33C891.15,431.54,833.47,527,833.47,527" transform="translate(-173.95 -93.03)"/><path class="cls-9" d="M935,517.77s-49.64,80-87.8,85.33S779.14,558,770.68,558" transform="translate(-173.95 -93.03)"/><path class="cls-9" d="M788.74,546.4s-38.92,23.8-48.36,21.54S774,540,774,540s-54.85,32.23-62.93,25.31c-4.41-3.78,46.31-32.49,46.31-32.49s-42.13,22.48-49.87,20c-8.32-2.63,47.22-31.73,47.22-31.73s-33.24,1.7-24.74-9.26c2.07-2.67,47-10.2,62.53-7.18s64.22,42.51,64.22,42.51" transform="translate(-173.95 -93.03)"/><path class="cls-9" d="M1117.92,521.46s94.77,64,129.23,56.62,82.93-69,82.93-69,32-2.82,40.61-6.54,25-23.72,21.7-27.41-26.9,15.72-26.9,15.72" transform="translate(-173.95 -93.03)"/><path class="cls-9" d="M1345.62,482.15s27-7.34,36.17-3.48" transform="translate(-173.95 -93.03)"/><path class="cls-9" d="M1321.92,469.15s-13.23-4.92-22.15,0-60.31,36.31-60.31,36.31-76.92-65.84-104-66.77" transform="translate(-173.95 -93.03)"/><circle class="cls-7" cx="1169.23" cy="357.66" r="38.62"/><circle class="cls-7" cx="223.95" cy="794.67" r="33.62"/><path class="cls-10" d="M835.23,292.65a124.43,124.43,0,0,1-72.29-23.45A122.31,122.31,0,0,1,718,207.66l116.25-36.53,36.53,116.26a123.47,123.47,0,0,1-35.58,5.26Z" transform="translate(-173.95 -93.03)"/><path class="cls-11" d="M833.3,173l35.62,113.37a121.66,121.66,0,0,1-33.69,4.77A123,123,0,0,1,763.81,268a120.79,120.79,0,0,1-43.88-59.35L833.3,173m2-3.76L716.14,206.68a124.75,124.75,0,0,0,156.55,81.7L835.26,169.25Z" transform="translate(-173.95 -93.03)"/><rect class="cls-3" x="704.64" y="1109.26" width="589.81" height="33.77" transform="translate(30.15 -245.38) rotate(9.7)"/><path class="cls-10" d="M267.71,999.84a26.93,26.93,0,0,1-4.5-53.47L540.84,898.9A26.92,26.92,0,0,1,549.91,952L272.28,999.45a28.1,28.1,0,0,1-4.57.39Z" transform="translate(-173.95 -93.03)"/><path class="cls-11" d="M545.41,900a25.43,25.43,0,0,1,4.25,50.49L272,998a26.16,26.16,0,0,1-4.32.37,25.43,25.43,0,0,1-4.25-50.49l277.63-47.47a26.16,26.16,0,0,1,4.32-.37m0-3a29.53,29.53,0,0,0-4.83.41L263,944.89a28.43,28.43,0,0,0-23.23,32.81h0a28.34,28.34,0,0,0,32.81,23.22l277.63-47.47a28.41,28.41,0,0,0,23.22-32.8h0a28.44,28.44,0,0,0-28-23.64Z" transform="translate(-173.95 -93.03)"/><rect class="cls-1" x="1006.11" y="106.76" width="67.03" height="67.03" transform="translate(-17.09 614.02) rotate(-40.39)"/><rect class="cls-5" x="1554.44" y="988.71" width="127.31" height="247.57" transform="translate(-514.1 1164.78) rotate(-38.75)"/><rect class="cls-5" x="323.47" y="674.39" width="148.86" height="148.86" transform="translate(-586.9 407.65) rotate(-45)"/><path class="cls-10" d="M1590,693.55a28.68,28.68,0,1,1,28.68-28.68A28.71,28.71,0,0,1,1590,693.55Z" transform="translate(-173.95 -93.03)"/><path class="cls-11" d="M1590,637.69a27.18,27.18,0,1,1-27.19,27.18A27.21,27.21,0,0,1,1590,637.69m0-3a30.18,30.18,0,1,0,30.18,30.18A30.19,30.19,0,0,0,1590,634.69Z" transform="translate(-173.95 -93.03)"/><circle class="cls-7" cx="1372.44" cy="1108.86" r="47.57"/><path class="cls-4" d="M370.84,1033.82c15.09,7.33,40.5,14.66,74.78,6.86" transform="translate(-173.95 -93.03)"/><path class="cls-2" d="M343.88,800c18.85-11.86-14.92-68.63-11.75-71.83s58.39,45.08,71.85,31.46c8.63-8.72-9.26-61.89-23.23-99" transform="translate(-173.95 -93.03)"/><path class="cls-2" d="M466.54,712.2s-46.07,48.21-44.62,119.26" transform="translate(-173.95 -93.03)"/><path class="cls-2" d="M1502,1184.71c16.79,13,40.74,35.55,49.48,63.75" transform="translate(-173.95 -93.03)"/><path class="cls-2" d="M1545.07,1154.43s-10.29,12,0,24.9,48.89,15.32,48.89,15.32" transform="translate(-173.95 -93.03)"/><line class="cls-12" x1="0.01" y1="1150.74" x2="1613" y2="1161.35"/><path class="cls-10" d="M1009.86,1247a49.69,49.69,0,1,1,49.69-49.69A49.75,49.75,0,0,1,1009.86,1247Z" transform="translate(-173.95 -93.03)"/><path class="cls-11" d="M1009.86,1149.08a48.19,48.19,0,1,1-48.2,48.19,48.25,48.25,0,0,1,48.2-48.19m0-3a51.19,51.19,0,1,0,51.19,51.19,51.19,51.19,0,0,0-51.19-51.19Z" transform="translate(-173.95 -93.03)"/></svg>