<svg id="Layer" xmlns="http://www.w3.org/2000/svg" viewBox="0 0 1688.89 1109.52"><defs><style>.cls-1{fill:#f7c9d6;}.cls-12,.cls-2,.cls-3,.cls-6,.cls-7{fill:none;}.cls-12,.cls-2,.cls-3,.cls-6{stroke:#fff;}.cls-2,.cls-6,.cls-7{stroke-miterlimit:10;}.cls-2,.cls-3{stroke-width:2px;}.cls-3{stroke-linejoin:round;}.cls-4{fill:#c64f4b;}.cls-5{fill:#0083c8;}.cls-12,.cls-6,.cls-7{stroke-width:3px;}.cls-7{stroke:#170c2c;}.cls-8{fill:#030207;}.cls-9{fill:#fcce44;}.cls-10{fill:#170c2c;}.cls-11{fill:#fff;}.cls-12{stroke-linejoin:bevel;}</style></defs><title>18</title><path class="cls-1" d="M1753.55,605a144.53,144.53,0,1,1-107.5-173.84A143.93,143.93,0,0,1,1753.55,605Z" transform="translate(-165.56 -128.62)"/><path class="cls-2" d="M1636.12,715.16c11.4-17.84,19.47-37.19,13.86-44.49-13.58-17.65-67.11,19.32-70.6,16.47s39.39-62.38,24.57-74.5c-10.91-8.93-76.9,22.5-111,39.72" transform="translate(-165.56 -128.62)"/><path class="cls-3" d="M1745.8,628.63c-41.57-13.14-100-33.91-98.93-46.46,1.2-13.62,51.09-23,51.09-23s-95-9.07-92.73-34.63c1.32-15,82.2-26,129.06-31.15" transform="translate(-165.56 -128.62)"/><path class="cls-4" d="M1467.88,1237.45c.09-106.62,86.6-193,193.22-192.88s193,86.6,192.89,193.23Z" transform="translate(-165.56 -128.62)"/><path class="cls-3" d="M1503.13,1126.39c27.17.71,49.78,3.52,51.7,10.75,3.51,13.2-40.22,39-40.22,39s92.41-23.8,99,1c3,11.39-40.87,37.19-80.34,57.82" transform="translate(-165.56 -128.62)"/><path class="cls-2" d="M1733.55,1234.79c-11.06-22.51-18-45.56-7.27-55.4,22.2-20.25,100.92,17.43,127.71,31.19" transform="translate(-165.56 -128.62)"/><path class="cls-2" d="M1495.24,487.82c2.72,22.12,8.83,41.93,22,41.9,27.5,0,70-76.18,83.64-101.94" transform="translate(-165.56 -128.62)"/><path class="cls-3" d="M1738.57,1059.5s-88.65,66.24-86.74,83.73,144.83-42.89,144.83-42.89" transform="translate(-165.56 -128.62)"/><path class="cls-3" d="M1542.28,1085.32c16.09,4,68.84,11.62,124.9-40.75" transform="translate(-165.56 -128.62)"/><rect class="cls-5" x="430.6" y="194.46" width="871.38" height="913.56"/><line class="cls-6" x1="1018.68" y1="639.23" x2="1018.68" y2="1108.02"/><line class="cls-6" x1="1018.68" y1="567.23" x2="1018.68" y2="601.85"/><polyline class="cls-6" points="774.37 617.82 774.37 327.38 1018.68 327.38 1018.68 524"/><path class="cls-7" d="M1093.15,661.54l77.95,29.33s48.62-49,69.13-52.92" transform="translate(-165.56 -128.62)"/><path class="cls-7" d="M1043.31,699.08s96.92,52,126.46,49.23,87.08-50.77,87.08-50.77" transform="translate(-165.56 -128.62)"/><path d="M1249.15,548.19s-17.69,48.73-.61,66.89S1325.46,576,1325.46,576" transform="translate(-165.56 -128.62)"/><polygon class="cls-4" points="299.22 599.5 143.18 371.21 430.5 356.12 299.22 599.5"/><path class="cls-8" d="M1531.87,1236.94H1383.11s20.3-24,35-26.68c0,0-78.21-125.25-91.83-178.62-9.08-35.6,1.18-82.12,1.18-82.12l-17.8,75.24,23.24,212.18H1178.2s28.32-20.15,41.93-22.87c0,0-20.48-158.65-17.21-197.86s5.11-204.56,63.62-262.62c41.55-41.23,106.3-41.28,149.89,22.64,39.82,58.39,26.14,232,26.14,232Z" transform="translate(-165.56 -128.62)"/><line class="cls-6" x1="1183" y1="722.59" x2="1156.71" y2="847.42"/><path class="cls-9" d="M1296.66,613.55l-9.05-64.78s18.6-14.2,12.24-28.24-20.19-4.75-20.19-4.75-10.82-18.86-32.84-16.48-29.37,29.53-24.63,46.53c7,25.11,20.1,35.47,44.6,25.07l3.27,35.91" transform="translate(-165.56 -128.62)"/><line class="cls-7" x1="1058.87" y1="413.47" x2="1056.39" y2="425.68"/><path d="M1294.17,595.72c-24.61-2.79-25.07-81.38-25.07-81.38-20.87,17.78-48.07,16.38-48.07,16.38s.09-37.67,40.45-40.31,53.58,21.08,53.58,21.08,44.1,2.67,50.8,36.73S1340,611.43,1340,611.43,1313.73,597.94,1294.17,595.72Z" transform="translate(-165.56 -128.62)"/><ellipse class="cls-10" cx="1231.09" cy="541.52" rx="3.3" ry="4.82" transform="matrix(1, -0.08, 0.08, 1, -203.69, -31.96)"/><path class="cls-11" d="M1217.43,710.05a91.65,91.65,0,0,1,88.07-116.71,92.33,92.33,0,0,1,54,17.68,90.78,90.78,0,0,1,33.11,45.9Z" transform="translate(-165.56 -128.62)"/><path class="cls-10" d="M1305.5,594.84a90.75,90.75,0,0,1,53.14,17.4,89.11,89.11,0,0,1,32.09,43.69l-172.27,52.24a90.14,90.14,0,0,1,87-113.33m0-3a93.13,93.13,0,0,0-89.08,120.09l178.1-54a93.1,93.1,0,0,0-89-66.08Z" transform="translate(-165.56 -128.62)"/><path class="cls-11" d="M1100.43,664.4,1003.31,737l-63.39,9.46L972,691l97.11-72.59a27.84,27.84,0,0,1,38.67,7.36h0A27.84,27.84,0,0,1,1100.43,664.4Z" transform="translate(-165.56 -128.62)"/><circle class="cls-5" cx="920.75" cy="511.73" r="10.81"/><path class="cls-7" d="M1049.62,632.87s-33.29,3-41.3,20,17.13,40.81,20.65,38.31-6.52-33.52-6.52-33.52,13.46,37.39,19.16,34.88-4.79-42.86-4.79-42.86,10.26,29.41,15.5,27.36-2.5-34.2-2.5-34.2" transform="translate(-165.56 -128.62)"/><path class="cls-7" d="M1079.59,687.91s-19.08-5.23-17.64-12.57,34.25,0,34.25,0" transform="translate(-165.56 -128.62)"/><circle class="cls-6" cx="971.21" cy="703.29" r="17.15"/><line class="cls-7" x1="1654.21" y1="1108.02" x2="30.37" y2="1108.02"/><path class="cls-9" d="M305,764.58a273.71,273.71,0,0,0-32.15,22,276.83,276.83,0,0,0-60.06,66c-83.53,128.22-47.3,299.87,80.93,383.4l73.21-112.39A143,143,0,0,1,522.94,884l73.22-112.38C505.3,712.43,392.62,713.38,305,764.58Z" transform="translate(-165.56 -128.62)"/><circle class="cls-5" cx="228.84" cy="330.01" r="36.89"/><circle class="cls-5" cx="1428.71" cy="166.77" r="45.06"/><circle class="cls-9" cx="743.1" cy="97.23" r="97.23"/><circle class="cls-4" cx="372.55" cy="925.83" r="56.67"/><circle class="cls-1" cx="978.46" cy="166.77" r="27.69"/><rect class="cls-11" x="149.41" y="351.02" width="571.56" height="42.78" transform="translate(-282.78 92.4) rotate(-25.23)"/><path class="cls-10" d="M683.88,233.25l17,36L186.5,511.57l-16.95-36L683.88,233.25m1.43-4L165.56,474.15l19.51,41.42,519.75-244.9-19.51-41.42Z" transform="translate(-165.56 -128.62)"/><rect class="cls-11" x="1525.07" y="50.39" width="40.08" height="583.86" transform="translate(321.15 1390.28) rotate(-60.52)"/><path class="cls-10" d="M1301.41,183.25l505.65,285.86-18.25,32.28L1283.16,215.52l18.25-32.27m-1.14-4.09-21.2,37.5L1790,505.48l21.2-37.5L1300.27,179.16Z" transform="translate(-165.56 -128.62)"/><rect class="cls-11" x="1635.15" y="604.04" width="40.08" height="276.97" transform="translate(599.51 2194.62) rotate(-84.78)"/><path class="cls-10" d="M1520.45,711.59l272.84,24.94-3.38,36.92-272.83-24.93,3.37-36.93m-2.71-3.26-3.92,42.9,278.81,25.48,3.92-42.89-278.81-25.49Z" transform="translate(-165.56 -128.62)"/><rect class="cls-11" x="435.26" y="886.92" width="40.08" height="380.17" transform="translate(-756.14 425.55) rotate(-40.52)"/><path class="cls-10" d="M346.85,921.61l245.07,286.7-28.18,24.09L318.67,945.7l28.18-24.09m.33-4.23-32.74,28,249,291.26,32.74-28-249-291.26Z" transform="translate(-165.56 -128.62)"/><line class="cls-7" x1="1070.37" y1="539.28" x2="1107.39" y2="623.36"/><line class="cls-7" x1="1115.29" y1="498.67" x2="1157.51" y2="598.24"/><path class="cls-12" d="M1271.56,748.91l3.34,7.4-21.75,97.23s-14.2,24.3-13,30.46c1.77,8.62,16.65-10,16.65-10s-7.75,38.41-3.23,40.87,17.59-33.48,17.59-33.48-8.21,40.2-3.29,41.84,17.64-43.9,17.64-43.9-7.84,33.24-2.28,34.47,53-125.26,47.14-158.77a173.41,173.41,0,0,0-7.84-29.53" transform="translate(-165.56 -128.62)"/><path class="cls-2" d="M256.34,1206.86c24.75-19.38,69.12-57.68,67.5-82.13-2.24-33.84-107.63-2.63-107.63-2.63s29.21-15.45,39.15-33.49c8.88-16.14-65.82-26-81.72-27.88" transform="translate(-165.56 -128.62)"/><path class="cls-2" d="M385.68,873.66c-56.88,0-149.44,4.39-153.06,32.45-3,23.6,61.59,50.43,61,68.1-.41,13.13-52.36,13.41-53.1,31.42-.78,19.08,43.68,30.82,66.39,35.56" transform="translate(-165.56 -128.62)"/><path class="cls-2" d="M423.1,728.11c-7.73,29.37-16.76,73.24-4.05,80.4,19.41,10.92,54.18-44.06,58.51-42.8s-11.81,72.81,6.57,78.17c14.33,4.17,67.74-57.46,90.64-84.88" transform="translate(-165.56 -128.62)"/><path class="cls-2" d="M232.52,826.77c26.27,7.82,71,14.82,103.71-13,20.16-17.13,27.93-51.74,30.94-75.91" transform="translate(-165.56 -128.62)"/><path class="cls-2" d="M167.8,1016.45c15.55-16.25,33.48-47.37,12.29-94.41" transform="translate(-165.56 -128.62)"/><path class="cls-11" d="M308,778.26c0,13.67-8.11,24.75-18.11,24.75-7.87,0-14.57-6.87-17.06-16.47a273.71,273.71,0,0,1,32.15-22A31.35,31.35,0,0,1,308,778.26Z" transform="translate(-165.56 -128.62)"/><path class="cls-11" d="M1720.75,668.06a144.48,144.48,0,0,1-28.59,24.61,33.79,33.79,0,0,1-.34-4.77c0-13.67,8.1-24.75,18.1-24.75A15.13,15.13,0,0,1,1720.75,668.06Z" transform="translate(-165.56 -128.62)"/><ellipse class="cls-11" cx="1559.46" cy="563.39" rx="26.05" ry="12.93" transform="translate(-204.4 -6.54) rotate(-4.43)"/><ellipse class="cls-11" cx="271.76" cy="1139.67" rx="24.75" ry="10.48" transform="translate(-741.85 202.66) rotate(-32.96)"/><ellipse class="cls-11" cx="405.04" cy="836.66" rx="10.48" ry="16.06" transform="translate(-640.67 1007.02) rotate(-82.93)"/><polygon class="cls-9" points="1615.03 777.09 1467.71 916.17 1401.49 846.03 1475.15 776.49 1408.92 706.35 1482.58 636.81 1615.03 777.09"/></svg>