<svg id="Layer" xmlns="http://www.w3.org/2000/svg" viewBox="0 0 1756.64 1050.16"><defs><style>.cls-1{fill:#fcce44;}.cls-2{fill:#f7c9d6;}.cls-3{fill:#c64f4b;}.cls-4{fill:#f5b4c4;}.cls-5{fill:#fff;}.cls-6{fill:#170c2c;}.cls-11,.cls-12,.cls-13,.cls-14,.cls-7,.cls-9{fill:none;}.cls-11,.cls-7{stroke:#170c2c;stroke-width:3px;}.cls-12,.cls-7,.cls-9{stroke-miterlimit:10;}.cls-8{fill:#0083c8;}.cls-9{stroke:#23242b;stroke-width:4px;}.cls-10{fill:#191a1e;}.cls-11{stroke-linejoin:bevel;}.cls-12,.cls-13,.cls-14{stroke:#fff;}.cls-12,.cls-13{stroke-width:2px;}.cls-13,.cls-14{stroke-linejoin:round;}</style></defs><title>19</title><circle class="cls-1" cx="726.86" cy="544.78" r="45.85"/><circle class="cls-2" cx="1593.67" cy="170.65" r="63.99"/><circle class="cls-1" cx="494.5" cy="391.64" r="60.31"/><circle class="cls-3" cx="1252.15" cy="711.83" r="18.2"/><circle class="cls-1" cx="494.5" cy="590.62" r="18.58"/><circle class="cls-4" cx="1565.13" cy="774.55" r="18.58"/><circle class="cls-2" cx="1087.84" cy="121.26" r="14.63"/><circle class="cls-3" cx="1698" cy="298.83" r="14.63"/><circle class="cls-1" cx="1431.21" cy="341.05" r="14.63"/><circle class="cls-3" cx="434.2" cy="970.17" r="14.63"/><circle class="cls-4" cx="70.45" cy="445.05" r="14.63"/><circle class="cls-4" cx="618.5" cy="232.92" r="14.63"/><polygon class="cls-5" points="210.37 523.69 299.89 420.78 348.07 545.64 210.37 523.69"/><path class="cls-6" d="M418.39,584.52l46.35,120.1L332.28,683.51l86.11-99m1-5.73L326.47,685.62l142.94,22.79-50-129.62Z" transform="translate(-119 -160.88)"/><polygon class="cls-1" points="1351.1 172.08 1212.64 80.85 1204.54 242.34 1351.1 172.08"/><line class="cls-7" x1="410.02" y1="661.46" x2="467.28" y2="746.03"/><line class="cls-7" x1="526.34" y1="296.2" x2="495.99" y2="393.72"/><line class="cls-7" x1="1388.58" y1="805.94" x2="1316.36" y2="878.15"/><line class="cls-7" x1="1755.58" y1="23.13" x2="1683.36" y2="95.35"/><line class="cls-7" x1="1683.36" y1="728.3" x2="1683.36" y2="626.18"/><line class="cls-7" x1="1164.66" y1="956.93" x2="1244.41" y2="1020.73"/><line class="cls-7" x1="1188.06" y1="308.46" x2="1256.26" y2="384.48"/><line class="cls-7" x1="1681.34" y1="406.63" x2="1583.71" y2="376.66"/><line class="cls-7" x1="1413.93" y1="100.4" x2="1334.18" y2="36.6"/><line class="cls-7" x1="95.98" y1="89.2" x2="44.91" y2="0.75"/><line class="cls-7" x1="353.77" y1="975.67" x2="438" y2="1033.42"/><line class="cls-7" x1="0.85" y1="970.17" x2="85.08" y2="1027.92"/><line class="cls-7" x1="628.74" y1="98.44" x2="563.3" y2="20.04"/><line class="cls-7" x1="892.16" y1="793.88" x2="811.6" y2="856.64"/><rect class="cls-2" x="268.89" y="249.96" width="279.51" height="130.28" rx="65.14" transform="translate(130.78 -336.73) rotate(34.43)"/><rect class="cls-5" x="1415.35" y="595.3" width="251.05" height="251.05" transform="translate(-276.43 461.74) rotate(-21.76)"/><path class="cls-6" d="M1610.08,559.65,1702,790l-230.37,92-92-230.37,230.38-92m1.67-3.89-235.94,94.18L1470,885.88l235.94-94.18-94.18-235.94Z" transform="translate(-119 -160.88)"/><line class="cls-7" x1="1489.18" y1="225.63" x2="1589.69" y2="192"/><path d="M936.06,707.28C829,723.25,680,881.2,700.93,950.85c20.63,68.5,137.55,191.57,137.55,191.57s-23,37.73-15.71,68.62l114.39-95.73L856,929.81,962.52,838l136.58,71.09-34.16,229,146.16,44.38s-4.33-29.2-34.16-46.68c0,0,86.77-221.7,57.23-297.7C1205.07,763.25,1041,691.63,936.06,707.28Z" transform="translate(-119 -160.88)"/><circle class="cls-5" cx="1130.21" cy="793.88" r="38.02"/><path class="cls-6" d="M1249.22,918.23a36.53,36.53,0,1,1-36.53,36.53,36.57,36.57,0,0,1,36.53-36.53m0-3a39.53,39.53,0,1,0,39.52,39.53,39.53,39.53,0,0,0-39.52-39.53Z" transform="translate(-119 -160.88)"/><circle class="cls-1" cx="805.67" cy="452.88" r="17.88"/><polygon class="cls-4" points="890.32 373.76 698.3 327.78 846.36 187.09 890.32 373.76"/><rect class="cls-8" x="749.63" y="154.22" width="211.69" height="32.86" rx="16.43"/><rect class="cls-3" x="903.81" y="223.65" width="75.76" height="75.76" transform="translate(-28.12 581.6) rotate(-45)"/><rect class="cls-8" x="764.03" y="523.73" width="154.19" height="285.36" transform="translate(-273.61 105.4) rotate(-16.5)"/><path class="cls-1" d="M1038.58,530.47l30.71-66.77s-20.29-18.59-11.36-34.36,24.14-3.44,24.14-3.44S1096.73,405,1122.26,410s31.29,37.66,24,57.08c-10.82,28.67-29,38.49-56.65,23.73l-12.84,34.7" transform="translate(-119 -160.88)"/><path d="M1070.64,421.33s-.27-28.52,36.17-31.45,40.61,10.43,54.89,5.26,22.25,38.42-17.76,39.58-38.42-1.16-38.42-1.16-2.35,17.8-12.45,15.58-11.56-21.06-11.56-21.06" transform="translate(-119 -160.88)"/><line class="cls-9" x1="1010.02" y1="309.9" x2="1011.34" y2="325.37"/><circle class="cls-10" cx="1001.79" cy="304.9" r="4.22"/><circle class="cls-10" cx="1018.86" cy="311.93" r="4.22"/><circle class="cls-3" cx="982.86" cy="516.93" r="170.46"/><circle class="cls-8" cx="909.38" cy="332.46" r="27.99"/><polygon class="cls-4" points="667.06 846.77 477.84 881.57 608.7 1018.77 667.06 846.77"/><path class="cls-11" d="M766.53,710.82c8.46-7.68,49.55-25.52,54.72-18.59,4.31,5.78-31.49,26.94-31.49,26.94s50.27-15.67,53.55-6.95c3.41,9.08-46.11,27.24-46.11,27.24s37.35-12.19,41.29-5.19S807.33,764.54,794,765c-9.8.36-21.87-5.15-29.24-18.13C756.61,732.53,759.22,717.47,766.53,710.82Z" transform="translate(-119 -160.88)"/><path class="cls-1" d="M1773.89,1209.14a181.65,181.65,0,0,1-188.59-174.43l181.51-7.08Z" transform="translate(-119 -160.88)"/><line class="cls-7" x1="1699.11" y1="937.38" x2="1597.52" y2="926.9"/><line class="cls-7" x1="179.58" y1="334.65" x2="84.4" y2="297.64"/><ellipse class="cls-5" cx="1014.71" cy="670.57" rx="28.61" ry="41.78" transform="translate(-103.61 1202.99) rotate(-68.21)"/><ellipse class="cls-5" cx="1178.32" cy="570.22" rx="16.66" ry="19.13" transform="translate(-198.55 771.78) rotate(-41.9)"/><path class="cls-12" d="M1264.6,728.68S1201.34,614,1157.41,629.93c-43.74,15.85-26.1,175.11-39.73,176.79s-33.47-37-47-32.9c-21.76,6.5-29.08,63.3-29.08,63.3" transform="translate(-119 -160.88)"/><path class="cls-13" d="M969.68,571.05c23.07,23.12,46.94,43.16,56,37.89,13.81-8,6.53-57.72,6.53-57.72s40.93,74.3,67.84,66.06c23-7.06-7.76-109.93-7.76-109.93" transform="translate(-119 -160.88)"/><path class="cls-5" d="M1227.88,792.56a170.81,170.81,0,0,1-28.8,25.49c-2.17-5.48-4.21-11.4-6-17.62-9.57-32.6-9.67-61.27-.23-64s24.87,21.4,34.44,54Z" transform="translate(-119 -160.88)"/><path class="cls-11" d="M1231.23,791.22c-11.09-2.7-51-24.83-46-34.92,3.2-6.46,40,11,40,11s-45.67-23.24-42-31.8,54.64,14.27,54.64,14.27-31-24.12-27.42-31.29,42.52,8.86,50.38,19.6c5.8,7.93,8,21,1.36,34.39C1254.77,787.28,1240.84,793.56,1231.23,791.22Z" transform="translate(-119 -160.88)"/><path class="cls-12" d="M932.61,698.12s72.46,20.91,76.55,122.76" transform="translate(-119 -160.88)"/><circle class="cls-3" cx="811.16" cy="395.62" r="39.52"/><line class="cls-7" x1="153.63" y1="634.52" x2="71.49" y2="573.83"/><rect class="cls-1" x="203.18" y="896.55" width="207.13" height="207.13" transform="translate(-436.69 1678.54) rotate(-126.3)"/><line class="cls-7" x1="383.19" y1="57.09" x2="315.84" y2="133.87"/><line class="cls-7" x1="1332.96" y1="562.85" x2="1231.8" y2="548.81"/><line class="cls-7" x1="276.65" y1="730.03" x2="204.43" y2="802.25"/><line class="cls-7" x1="1054.97" y1="18.82" x2="982.75" y2="91.04"/><path class="cls-14" d="M784.6,534.34s.91,68.74-31,108.09" transform="translate(-119 -160.88)"/><path class="cls-14" d="M883.34,537.45S837.62,583.59,833.92,623s57.85,37.54,62,76.93c4.58,43.89-63.54,70.42-54.74,115.31" transform="translate(-119 -160.88)"/><path class="cls-14" d="M876.13,345.32c4.9-7.42,13.88-17.66,26.37-18.24,19.69-.93,38.16,17.23,68,9.84,16.79-4.15,29.39-14.15,41.37-21.82" transform="translate(-119 -160.88)"/><path class="cls-14" d="M1061.92,315.1c-14.27,5.73-37.77,17.18-45.27,32.86" transform="translate(-119 -160.88)"/></svg>