<svg id="Layer" xmlns="http://www.w3.org/2000/svg" viewBox="0 0 1659.72 1111.8"><defs><style>.cls-1{fill:#fcedf2;}.cls-12,.cls-13,.cls-14,.cls-15,.cls-2,.cls-8{fill:none;}.cls-2{stroke:#1d1e26;stroke-linejoin:bevel;stroke-width:3px;}.cls-3{fill:#f7c9d6;}.cls-4{fill:#fcce44;}.cls-5{fill:#c64f4b;}.cls-6{fill:#0068a8;}.cls-7{fill:#030207;}.cls-8{stroke:#23242b;stroke-width:4px;}.cls-12,.cls-13,.cls-14,.cls-15,.cls-8{stroke-miterlimit:10;}.cls-9{fill:#191a1e;}.cls-10{fill:#fff;}.cls-11{fill:#170c2c;}.cls-12{stroke:#0083c8;}.cls-12,.cls-13,.cls-14,.cls-15{stroke-width:26px;}.cls-13{stroke:#c64f4b;}.cls-14{stroke:#f7c9d6;}.cls-15{stroke:#fcce44;}</style></defs><title>2</title><path class="cls-1" d="M1171.7,519.72c-88.24,62-23.35,121.62-56.7,169-70.25,99.71-29.27,280.13,43.34,294.89,111.73,22.71,274.35-4.26,341.71-12.31s186-157.92,195.87-259.74-138.24-214.24-276.61-234.59S1230.61,478.32,1171.7,519.72Z" transform="translate(-151.19 -114.84)"/><path class="cls-1" d="M767.11,663.07C648,625.51,607.27,706.82,536.06,709.8c-150,6.28-218.33,164.61-192.5,242.81,39.75,120.34,188.2,40.88,236,97.8s127.24,124.41,244.61,60.42,128-174.46,116.37-206.13C887.11,759.53,846.6,688.15,767.11,663.07Z" transform="translate(-151.19 -114.84)"/><path class="cls-2" d="M417.32,601.12s3,320.29-146.6,321.71" transform="translate(-151.19 -114.84)"/><path class="cls-3" d="M1289.17,817c-40.12,32.42-21.64,98.49-58.59,119.85-38.91,22.49-93.3,63.54-74.45,101.71,19.35,39.19,105.87,20.64,180.49,72.42,41.57,28.83,125.75,38.17,172.91-28,109.83-154.14,39.24-212.09-26.43-246.32C1390.34,788.33,1331.7,782.64,1289.17,817Z" transform="translate(-151.19 -114.84)"/><path class="cls-1" d="M740.67,187.21c-50.59,40.88-27.3,124.2-73.9,151.15C617.7,366.73,551.5,400,572.88,466.63S682,483.24,776.12,548.53c52.42,36.37,183,57.57,242.45-25.88,138.52-194.4,49.5-267.48-33.33-310.65C868.27,151,794.3,143.86,740.67,187.21Z" transform="translate(-151.19 -114.84)"/><path class="cls-3" d="M222.35,626.55C175.54,677,264,729.78,249.7,763,219.53,833,302.17,865,350,862.43c73.54-3.88,76-69.88,117.27-85.11s87.41-56.14,79.27-118-43.43-89.91-133.42-80.51S253.6,592.86,222.35,626.55Z" transform="translate(-151.19 -114.84)"/><polygon class="cls-4" points="817.2 915.94 768.73 1085.24 632.76 954.73 817.2 915.94"/><path class="cls-5" d="M1157.09,573.19c38.6,7.19,46.29,49.16,35.25,75.27-24.07,56.91-156.28,107.93-156.28,107.93l-11,209.16L853.29,943.22s24-33.63,76.93-29.54c0,0-27.32-198.16,22.36-239.61S1108.49,564.14,1157.09,573.19Z" transform="translate(-151.19 -114.84)"/><path class="cls-5" d="M859.61,237.32c-.33-39.71-36.49-56-67.32-40.23C753.7,216.8,688.47,315.47,688.47,315.47L502.94,280,491.38,434.75S533.15,422,535.24,375.5c0,0,156,51.75,204.1,29.59C790.76,381.42,859.94,277.12,859.61,237.32Z" transform="translate(-151.19 -114.84)"/><path class="cls-6" d="M654.73,589.79l98,45.9c26.26,12.31,55.76-9.25,52-38L792.17,501.9a36.72,36.72,0,0,0-54.94-27L651.8,524.82C626.23,539.74,627.92,577.23,654.73,589.79Z" transform="translate(-151.19 -114.84)"/><path class="cls-4" d="M1039.94,543.09l32.27-58.34s34.38,5.32,42.88-15.95-15.69-26.53-15.69-26.53,9.08-31-16.12-52.17-61.89-1.1-75.25,21.47c-19.73,33.34-15,59.07,21.36,74.64l-25.31,37.06" transform="translate(-151.19 -114.84)"/><path class="cls-7" d="M1112.94,449.93s28.35-22.28,2.43-60.53-42.38-31.82-48.58-50-55.48,8.43-25,48.81,31.52,37,31.52,37-15.7,16.4-5.52,24.6,29.91-5.25,29.91-5.25" transform="translate(-151.19 -114.84)"/><line class="cls-8" x1="874.49" y1="301.2" x2="858.2" y2="312.13"/><line class="cls-8" x1="876.33" y1="283.76" x2="861.04" y2="285.14"/><line class="cls-8" x1="901.65" y1="307.87" x2="893.41" y2="294.92"/><circle class="cls-9" cx="885.94" cy="305.37" r="5.33"/><circle class="cls-9" cx="865.51" cy="294.08" r="5.33"/><path class="cls-2" d="M705.33,842.53s81.73,40.17,123.83,32.07,92.17-60.23,97.28-77.85,36.35,18.36,45.22,6.55c2.7-3.6-40.17-26-40.17-26s41.31,17.64,41.82,9.87c.56-8.47-40.55-27.93-40.55-27.93s39.22,17.89,43,8.77c3-7.36-51-31.16-51-31.16l-96.07,61.86L724.93,768.45" transform="translate(-151.19 -114.84)"/><rect class="cls-6" x="1379.06" y="321.17" width="147.03" height="312.31" transform="translate(-35.55 1104.38) rotate(-47.22)"/><ellipse class="cls-3" cx="1337.97" cy="371.26" rx="73.51" ry="33.46" transform="translate(5.53 986.25) rotate(-47.22)"/><path class="cls-10" d="M1530.68,640.44c-5.22,0-9.39-1.41-12.41-4.21-6.1-5.64-6.93-16.41-2.33-30.3,4.72-14.28,14.59-30,27.79-44.26,19.87-21.47,43.41-35.35,60-35.35,5.22,0,9.39,1.41,12.41,4.21,12.93,12,1.51,45.42-25.46,74.56C1570.77,626.56,1547.23,640.44,1530.68,640.44Z" transform="translate(-151.19 -114.84)"/><path class="cls-11" d="M1603.7,524.82v3c4.82,0,8.65,1.28,11.38,3.81,12.12,11.21.42,44.39-25.54,72.44a139,139,0,0,1-31.45,25.75c-10.3,6-19.77,9.12-27.41,9.12-4.83,0-8.66-1.28-11.39-3.81-5.56-5.15-6.27-15.62-1.93-28.73,4.66-14.08,14.42-29.61,27.47-43.71a139,139,0,0,1,31.45-25.75c10.3-6,19.78-9.12,27.41-9.12v-3m0,0c-16.39,0-40.36,13.46-61.06,35.83-27.58,29.8-38.94,64.13-25.38,76.68,3.38,3.13,8,4.61,13.43,4.61,16.39,0,40.36-13.46,61.06-35.83,27.58-29.8,38.94-64.13,25.38-76.68-3.38-3.13-8-4.61-13.43-4.61Z" transform="translate(-151.19 -114.84)"/><line class="cls-12" x1="508.1" y1="923.87" x2="391.57" y2="1061.35"/><line class="cls-13" x1="961.52" y1="74" x2="1093.12" y2="172.47"/><line class="cls-12" x1="267.89" y1="96.3" x2="430.57" y2="72.88"/><line class="cls-14" x1="718.34" y1="311.15" x2="781.99" y2="158.38"/><line class="cls-15" x1="1339.84" y1="170.69" x2="1435.88" y2="54.8"/><line class="cls-13" x1="1497.48" y1="630.21" x2="1654.19" y2="703.96"/><line class="cls-15" x1="9.1" y1="857.72" x2="142.1" y2="988.22"/><line class="cls-14" x1="1543.35" y1="233.31" x2="1639.99" y2="377.03"/><line class="cls-14" x1="900.7" y1="997.16" x2="1083.64" y2="1100.48"/><path class="cls-2" d="M1490.55,725.61s25.6-111.83-57.45-93.2c-55.47,12.44-98.68,85.49-101.62,79.08-3.64-8,14.11-32.7,14.11-32.7s-31.66,33.51-36.67,28c-4.59-5,23.45-37.38,23.45-37.38s-29.7,24.68-33.54,21.47c-7-5.8,29.32-37.62,29.32-37.62s-27.6-.88-38.83-7.58c-10.18-6.08,47.91-8.89,47.91-8.89s13.6-48.67,51.19-97.63c29.8-38.81,60-66.36,122.57-63.16,120.84,6.18,119.71-135.3-21-112.79" transform="translate(-151.19 -114.84)"/><path class="cls-2" d="M352.2,550.62s-40,82.73-97.44,55c-45.64-22-33.25-107,34.2-136.31,129-56,124.13,109.47,124.13,109.47" transform="translate(-151.19 -114.84)"/><path class="cls-2" d="M1379.82,920.09s142.4,131.6,77.16,264.49" transform="translate(-151.19 -114.84)"/><path class="cls-2" d="M627.06,220.79s95.62-122,176.71-102.3" transform="translate(-151.19 -114.84)"/><line class="cls-15" x1="30.89" y1="268.06" x2="191.68" y2="398.02"/><line class="cls-12" x1="1547.58" y1="837.9" x2="1569.38" y2="1043.5"/><circle class="cls-5" cx="421.25" cy="715.7" r="54.98"/></svg>