<svg id="Layer" xmlns="http://www.w3.org/2000/svg" viewBox="0 0 1670.14 1141.19"><defs><style>.cls-1{fill:#c64f4b;}.cls-2{fill:#fcce44;}.cls-3,.cls-8{fill:none;stroke:#170c2c;stroke-width:3px;}.cls-3{stroke-miterlimit:10;}.cls-4{fill:#170c2c;}.cls-5{fill:#f7c9d6;}.cls-6{fill:#fff;}.cls-7{fill:#0083c8;}.cls-8{stroke-linejoin:bevel;}</style></defs><title>20</title><path class="cls-1" d="M1133,309.19a101.77,101.77,0,1,0-203.52,2.71Z" transform="translate(-119.83 -116.12)"/><path d="M984,153.53s-30.69,22.67-32.66,48.86,29.94,46.36,29.94,46.36L1059,212.21Z" transform="translate(-119.83 -116.12)"/><path class="cls-2" d="M1045.34,245.2l2-66.12s21-11,17-26.08-19.32-8.16-19.32-8.16-7.58-20.65-29.93-22-34.3,24.45-32.47,42.21c2.7,26.22,14,38.78,40.21,32.57L1020,234" transform="translate(-119.83 -116.12)"/><line class="cls-3" x1="880.1" y1="61.81" x2="875.87" y2="73.67"/><path d="M1045.88,227c-24.06-7-11.16-85.39-11.16-85.39-23.83,14.18-50.72,8.16-50.72,8.16s6.49-37.54,47.18-33.32S1081,146.58,1081,146.58s43.52,10.14,44.41,45.24-36.51,58.63-36.51,58.63S1065,232.53,1045.88,227Z" transform="translate(-119.83 -116.12)"/><ellipse class="cls-4" cx="992.49" cy="174.26" rx="3.01" ry="4.58" transform="translate(-133.43 114.6) rotate(-13.17)"/><ellipse class="cls-4" cx="1007.25" cy="173.31" rx="3.01" ry="4.58" transform="translate(-132.83 117.94) rotate(-13.17)"/><path d="M1031.84,376.12C944.35,371.51,767.33,477,773.34,535.51s61.85,205.22,61.85,205.22S799.5,758,797.26,782.57l146.83-31.9-38.9-188.11,128.23-45.48,82.21,99.69L1111.3,807.5l144.06,20.11a100.85,100.85,0,0,0-35.55-36s35-149.83,17.23-215.15C1220,513.72,1141.55,381.9,1031.84,376.12Z" transform="translate(-119.83 -116.12)"/><circle class="cls-1" cx="1024.28" cy="901.99" r="203.85"/><circle class="cls-5" cx="785.9" cy="733.19" r="88.15"/><path class="cls-6" d="M671.82,571.17A27.58,27.58,0,1,1,699.4,543.6,27.6,27.6,0,0,1,671.82,571.17Z" transform="translate(-119.83 -116.12)"/><path class="cls-4" d="M671.82,517.52a26.08,26.08,0,1,1-26.07,26.08,26.11,26.11,0,0,1,26.07-26.08m0-3A29.08,29.08,0,1,0,700.9,543.6a29.07,29.07,0,0,0-29.08-29.08Z" transform="translate(-119.83 -116.12)"/><circle class="cls-6" cx="309.23" cy="358.46" r="71.01"/><path class="cls-4" d="M429.06,405.07a69.51,69.51,0,1,1-69.51,69.51,69.59,69.59,0,0,1,69.51-69.51m0-3a72.51,72.51,0,1,0,72.51,72.51,72.51,72.51,0,0,0-72.51-72.51Z" transform="translate(-119.83 -116.12)"/><circle class="cls-6" cx="1213.89" cy="481.01" r="91.1"/><path class="cls-4" d="M1333.72,507.52a89.61,89.61,0,1,1-89.6,89.6,89.7,89.7,0,0,1,89.6-89.6m0-3a92.61,92.61,0,1,0,92.6,92.6,92.6,92.6,0,0,0-92.6-92.6Z" transform="translate(-119.83 -116.12)"/><circle class="cls-7" cx="707.13" cy="969.95" r="120.62"/><circle class="cls-5" cx="1387.55" cy="368.4" r="114.45"/><circle class="cls-7" cx="433.61" cy="477.52" r="99.45"/><circle class="cls-2" cx="1303.95" cy="698.14" r="142.47"/><path class="cls-6" d="M794,967.45a44.16,44.16,0,1,1,44.16-44.16A44.21,44.21,0,0,1,794,967.45Z" transform="translate(-119.83 -116.12)"/><path class="cls-4" d="M794,880.64a42.66,42.66,0,1,1-42.65,42.65A42.7,42.7,0,0,1,794,880.64m0-3a45.66,45.66,0,1,0,45.66,45.65A45.65,45.65,0,0,0,794,877.64Z" transform="translate(-119.83 -116.12)"/><circle class="cls-6" cx="1345.32" cy="857.32" r="20.28"/><path class="cls-4" d="M1465.16,954.66a18.78,18.78,0,1,1-18.79,18.78,18.8,18.8,0,0,1,18.79-18.78m0-3a21.78,21.78,0,1,0,21.78,21.78,21.79,21.79,0,0,0-21.78-21.78Z" transform="translate(-119.83 -116.12)"/><circle class="cls-6" cx="338.37" cy="668.98" r="20.28"/><path class="cls-4" d="M458.21,766.32a18.78,18.78,0,1,1-18.78,18.78,18.8,18.8,0,0,1,18.78-18.78m0-3A21.78,21.78,0,1,0,480,785.1a21.78,21.78,0,0,0-21.78-21.78Z" transform="translate(-119.83 -116.12)"/><path class="cls-6" d="M1643.22,456.93a32.52,32.52,0,1,1,32.53-32.52A32.56,32.56,0,0,1,1643.22,456.93Z" transform="translate(-119.83 -116.12)"/><path class="cls-4" d="M1643.22,393.39a31,31,0,1,1-31,31,31.06,31.06,0,0,1,31-31m0-3a34,34,0,1,0,34,34,34,34,0,0,0-34-34Z" transform="translate(-119.83 -116.12)"/><circle class="cls-5" cx="342.48" cy="596.66" r="50.54"/><circle class="cls-5" cx="600.98" cy="517.03" r="73"/><circle class="cls-2" cx="490.82" cy="345.73" r="44.11"/><circle class="cls-1" cx="607.25" cy="342.45" r="72.32"/><circle class="cls-1" cx="502.62" cy="715.97" r="148.88"/><circle class="cls-7" cx="900.05" cy="533.81" r="94.87"/><path class="cls-6" d="M1030.54,840.06a46.88,46.88,0,1,1,46.87-46.88A46.93,46.93,0,0,1,1030.54,840.06Z" transform="translate(-119.83 -116.12)"/><path class="cls-4" d="M1030.54,747.8a45.38,45.38,0,1,1-45.38,45.38,45.43,45.43,0,0,1,45.38-45.38m0-3a48.38,48.38,0,1,0,48.37,48.38,48.38,48.38,0,0,0-48.37-48.38Z" transform="translate(-119.83 -116.12)"/><circle class="cls-2" cx="538.31" cy="917.9" r="55.77"/><circle class="cls-5" cx="1254.14" cy="778.7" r="30.69" transform="translate(-65.05 1523.26) rotate(-67.5)"/><circle class="cls-5" cx="1366.24" cy="1078.57" r="26.47" transform="translate(-272.9 1811.94) rotate(-67.5)"/><circle class="cls-2" cx="797.05" cy="850.12" r="29.2"/><circle class="cls-1" cx="1154.42" cy="597.15" r="37.9"/><circle class="cls-1" cx="749.94" cy="835.56" r="20.38"/><circle class="cls-1" cx="294.35" cy="544.32" r="20.38"/><circle class="cls-7" cx="17.73" cy="633.01" r="17.73"/><circle class="cls-5" cx="1416.99" cy="140.4" r="29.43"/><circle class="cls-1" cx="179.22" cy="1012.61" r="30.19"/><circle class="cls-1" cx="1649.77" cy="662.58" r="20.38"/><circle class="cls-1" cx="482.53" cy="101.46" r="40.38"/><circle class="cls-2" cx="307.83" cy="497.91" r="27.97"/><circle class="cls-7" cx="634.9" cy="430.49" r="20"/><circle class="cls-5" cx="402.12" cy="361.74" r="20.38"/><circle class="cls-1" cx="673.95" cy="737.87" r="23.8"/><circle class="cls-2" cx="661.95" cy="613.46" r="40.65"/><circle class="cls-7" cx="1280.3" cy="891.36" r="52.16"/><circle class="cls-7" cx="1561.52" cy="947.22" r="82.36"/><circle class="cls-1" cx="1446.42" cy="541.98" r="68.62"/><circle class="cls-2" cx="282" cy="924.56" r="59.7"/><circle class="cls-2" cx="1132.68" cy="352.32" r="59.4"/><circle class="cls-7" cx="1340.33" cy="519.51" r="39.74"/><circle class="cls-7" cx="1233.36" cy="342.62" r="41.69"/><circle class="cls-1" cx="1060.29" cy="322.69" r="18.74"/><circle class="cls-1" cx="808.56" cy="466.24" r="18.74"/><circle class="cls-6" cx="840.28" cy="1082.22" r="52.44"/><path class="cls-4" d="M960.11,1147.4a50.94,50.94,0,1,1-50.93,50.94,51,51,0,0,1,50.93-50.94m0-3a53.94,53.94,0,1,0,53.94,53.94,53.94,53.94,0,0,0-53.94-53.94Z" transform="translate(-119.83 -116.12)"/><path class="cls-3" d="M1681.35,327.34c0,512.78-298.66,928.47-667.08,928.47S347.19,840.12,347.19,327.34Z" transform="translate(-119.83 -116.12)"/><path class="cls-3" d="M939.61,242.48c-36.52,0-51.7,66.25-51.7,66.25s-39.84-15.12-81.79-3.89c-30.55,8.18-21.67,63.41-16,63.07,7-.41,6.82-33.84,6.82-33.84s1.2,42.33,10.15,41.9c6.59-.31,6.35-43.23,6.35-43.23s2.63,35.53,9.76,35.38c6-.13,5.41-34.46,5.41-34.46" transform="translate(-119.83 -116.12)"/><line class="cls-3" x1="835.67" y1="160.31" x2="816.28" y2="211.23"/><line class="cls-3" x1="981.34" y1="160.31" x2="1000.73" y2="211.23"/><path class="cls-3" d="M1126.48,239.81c33.64-.82,52.51,87.53,52.51,87.53" transform="translate(-119.83 -116.12)"/><path class="cls-8" d="M1260.75,318.84c2.32,8.19,1.87,43-7.2,44.13-5.8.73-7.45-30-7.45-30s1,38.89-6.53,40.23-10.74-40.74-10.74-40.74-5.27,30-11.74,30.78-10-30.75-5.34-40.33c3.41-7.07,11.86-14.05,23.89-15.58C1249,305.6,1258.74,311.75,1260.75,318.84Z" transform="translate(-119.83 -116.12)"/></svg>