<svg id="Layer" xmlns="http://www.w3.org/2000/svg" viewBox="0 0 1564.46 1055.93"><defs><style>.cls-1{fill:#fcce44;}.cls-2{fill:#fff;}.cls-3{fill:#170c2c;}.cls-10,.cls-4,.cls-7,.cls-9{fill:none;}.cls-4{stroke:#c64f4b;stroke-width:10px;}.cls-10,.cls-4,.cls-7{stroke-miterlimit:10;}.cls-5{fill:#c64f4b;}.cls-6{fill:#030207;}.cls-7,.cls-9{stroke:#170c2c;}.cls-10,.cls-7,.cls-9{stroke-width:3px;}.cls-8{fill:#0068a8;}.cls-9{stroke-linejoin:bevel;}.cls-10{stroke:#fff;}</style></defs><title>8</title><rect class="cls-1" x="1296.41" y="1033.52" width="97.55" height="97.55" transform="translate(411.14 -639.98) rotate(26.31)"/><path class="cls-2" d="M1348.14,711.17l126.57-113.65c17.86,6.39,35.43,9.63,52.22,9.63,24.64,0,45.8-7.11,61.39-20.59l33.13,148.31c-23.66,14.35-45.4,28.32-64.62,41.51Z" transform="translate(-207.94 -155.87)"/><path class="cls-3" d="M1587.4,589.29l32.35,144.85c-23.09,14-44.32,27.68-63.17,40.59l-205.47-64.21,123.94-111.29c17.73,6.25,35.18,9.42,51.88,9.42,24,0,44.8-6.67,60.47-19.36m1.83-5.56c-16.08,14.91-38,21.92-62.3,21.92-16.82,0-34.75-3.38-52.55-9.85l-129.2,116L1557.08,778c19.27-13.25,41.21-27.38,66.07-42.44l-33.92-151.86Z" transform="translate(-207.94 -155.87)"/><path class="cls-2" d="M1583.43,1093.92a80,80,0,0,1-64.71-126.8c21.38,2.23,44.85,2.91,67.56,3.57,24.28.71,47.22,1.37,66.74,3.81a79.94,79.94,0,0,1-66.33,119.35C1585.6,1093.9,1584.51,1093.92,1583.43,1093.92Z" transform="translate(-207.94 -155.87)"/><path class="cls-3" d="M1519.43,968.71c21.2,2.16,44.38,2.83,66.81,3.48,23.93.7,46.56,1.36,65.85,3.7a78.48,78.48,0,0,1-65.46,116.46c-1.06.05-2.14.07-3.2.07a78.45,78.45,0,0,1-64-123.71m-1.41-3.17a81.45,81.45,0,0,0,65.41,129.88c1.1,0,2.21,0,3.32-.07A81.46,81.46,0,0,0,1654,973.1c-38.52-4.91-91.71-2.85-135.93-7.56Z" transform="translate(-207.94 -155.87)"/><path class="cls-1" d="M1239.53,899.41l-67,305.71-305.7-67,18.83-85.93c109.43,13.92,216.25,22.18,219.46,2,5-31.47-116.66-80.87-193.66-119.66l22.37-102.07Z" transform="translate(-207.94 -155.87)"/><path class="cls-2" d="M508.39,556.24c-19.63-25-60.32-34.38-99.69-43.43-41.93-9.65-81.53-18.76-82.18-46.47-.4-17.13,10.55-42.44,30.06-69.45a331.94,331.94,0,0,1,74.3-73.83L589.25,537.59Z" transform="translate(-207.94 -155.87)"/><path class="cls-3" d="M430.55,325.14,586.68,536.65,509,554.57c-20.16-24.87-60.7-34.2-99.93-43.22-21.57-5-41.93-9.65-57-16.64-16.1-7.47-23.73-16.5-24-28.41-.4-16.8,10.45-41.79,29.77-68.53a330.45,330.45,0,0,1,72.76-72.63m.66-4.16C371.38,363.27,324.17,430.3,325,466.37c1.29,54.81,142.47,38.35,182.77,91.55l84-19.38L431.21,321Z" transform="translate(-207.94 -155.87)"/><path class="cls-2" d="M800.76,537.17a78.86,78.86,0,0,1-41.55-145.85c8.47,37.28,7.86,75.5,7.83,77.13l3,.06c0-1.9,1.3-46.57,33-46.57h.48c14.77.21,34.6,37.24,50.6,94.44A78.81,78.81,0,0,1,804,537.1C802.89,537.15,801.82,537.17,800.76,537.17Z" transform="translate(-207.94 -155.87)"/><path class="cls-3" d="M758.21,393.74c7.94,36.42,7.36,73.09,7.33,74.7l6,.1a78.61,78.61,0,0,1,4.55-23.32c5.4-14.45,14.47-21.78,27-21.78h.46c13.8.2,33.39,37.27,48.93,92.45A77.33,77.33,0,0,1,803.9,535.6c-1,0-2.1.07-3.14.07a77.37,77.37,0,0,1-42.55-141.93m2-4.78a80.37,80.37,0,0,0,40.56,149.71c1.08,0,2.17,0,3.26-.07a80.05,80.05,0,0,0,51.82-21.75c-15.22-54.73-35.36-96.17-52.27-96.41h-.5c-33.43,0-34.51,47.26-34.53,48h0c0-.73.73-41.17-8.34-79.52Z" transform="translate(-207.94 -155.87)"/><path class="cls-2" d="M322.31,1060.59A111.92,111.92,0,0,1,257,1039.75c10.87-27,24.11-49.19,39.35-66,19.27-21.19,41.8-33.72,67-37.24a53.31,53.31,0,0,1,7.45-.52c20.05,0,40.4,11.34,62.19,34.69a113.54,113.54,0,0,1-36.82,62.43,111.72,111.72,0,0,1-69.28,27.34C325.38,1060.55,323.84,1060.59,322.31,1060.59Z" transform="translate(-207.94 -155.87)"/><path class="cls-3" d="M370.82,937.53c19.45,0,39.27,11,60.56,33.64A112.1,112.1,0,0,1,395.21,1032a110.22,110.22,0,0,1-68.36,27c-1.51.06-3,.1-4.54.1a110.45,110.45,0,0,1-63.44-19.88c10.72-26.34,23.71-48,38.62-64.41,19-20.93,41.26-33.3,66.09-36.77a53.28,53.28,0,0,1,7.24-.5h0m0-3a55.21,55.21,0,0,0-7.66.53c-56,7.83-89,57.69-108,105.22a113.89,113.89,0,0,0,67.11,21.81c1.55,0,3.1,0,4.66-.1a114.52,114.52,0,0,0,107.66-91.73c-20.1-21.69-41.16-35.74-63.81-35.73Z" transform="translate(-207.94 -155.87)"/><path class="cls-2" d="M1051.83,1064.75c-36.59,0-91.88-4.65-164.35-13.84l25-114.22c15,7.53,31.4,15.33,48.72,23.57,68.54,32.63,146.22,69.6,142.41,93.65C1103,1058,1095.41,1064.75,1051.83,1064.75Z" transform="translate(-207.94 -155.87)"/><path class="cls-3" d="M913.56,938.89c14.56,7.27,30.36,14.8,47,22.73,35.33,16.81,71.85,34.2,99.25,50.6,29.63,17.75,43.87,31.7,42.33,41.45-.36,2.25-5,9.58-50.33,9.58-36.25,0-90.93-4.58-162.54-13.62l24.27-110.74m-2.1-4.41-25.8,117.71c62.52,8,124.19,14.06,166.17,14.06,31.5,0,51.91-3.44,53.29-12.11,5-31.47-116.66-80.87-193.66-119.66Z" transform="translate(-207.94 -155.87)"/><path class="cls-1" d="M1654,973.1c-38.52-4.91-91.71-2.85-135.93-7.56A81.46,81.46,0,0,1,1654,973.1Z" transform="translate(-207.94 -155.87)"/><path class="cls-1" d="M855.84,516.85c-15.22-54.73-35.36-96.17-52.27-96.41-34.2-.48-35,48.05-35,48.05s.81-40.83-8.34-79.53a80.36,80.36,0,0,1,95.64,127.89Z" transform="translate(-207.94 -155.87)"/><circle class="cls-1" cx="658.11" cy="87.05" r="28.24"/><path class="cls-1" d="M434.63,970.26c-22.35-24.12-45.88-38.78-71.47-35.2-56,7.83-89,57.69-108,105.22a114.4,114.4,0,1,1,179.43-70Z" transform="translate(-207.94 -155.87)"/><path class="cls-1" d="M1589.23,583.73c-27.24,25.25-71.4,27.86-114.85,12.07l97.91-87.92Z" transform="translate(-207.94 -155.87)"/><path class="cls-1" d="M1638.3,803.41,1557.08,778c19.27-13.25,41.21-27.38,66.07-42.44Z" transform="translate(-207.94 -155.87)"/><path class="cls-1" d="M507.79,557.92l-287,66.21,121-424.32L431.21,321C371.38,363.27,324.17,430.3,325,466.37,326.31,521.18,467.49,504.72,507.79,557.92Z" transform="translate(-207.94 -155.87)"/><path class="cls-4" d="M1348,403.65c-3.27,29-.64,58.92,13.35,88.8,49.94,106.63,188.44,147.67,237.41,80.58,57.37-78.58,11.16-171.58,64.39-191.72s199.35,214.13-14,338.83c-165.9,97-216.87,157.3-213.2,197.6,6.17,67.89,159.26,49,233,57.81,124.46,14.83,129,149.18,24.76,204.06-159.56,84-344.12-84.19-344.12-84.19" transform="translate(-207.94 -155.87)"/><path class="cls-4" d="M1368.49,324.59a471.22,471.22,0,0,0-14.35,45.77" transform="translate(-207.94 -155.87)"/><path class="cls-4" d="M1215.24,196.4c58-24.54,114.55-36.87,152.35-17.75,45.34,22.93,30.76,66.1,10.7,119.59" transform="translate(-207.94 -155.87)"/><path class="cls-4" d="M707.2,763.92S678,748.65,635.51,751.63c-61.23,4.29-139.76,103.15-165.17,45.2S546.45,621,510.85,562.41s-184.5-39.74-185.83-96S439.45,278.34,537.56,283s92.35,161,92.35,161,17-130.57,79.17-122.62,59.46,147.1,59.46,147.1.83-48.53,35-48.05,81.6,169.49,74.78,276S817.54,862.39,856,900.58s255.74,111.72,249.1,153.56-456-38.12-456-38.12,87.93,150.45,3.76,186.46c-106.28,45.46-178.52-283-289.68-267.42s-131.64,196.5-131.64,196.5" transform="translate(-207.94 -155.87)"/><path class="cls-5" d="M1120.66,329.89l-12.34-55s18.83-15.66,11.56-30.06-21.3-4.08-21.3-4.08-12.14-19.24-35-15.8-29.41,32.14-23.73,49.71c8.4,25.94,24.17,35.44,49.33,23.5l7.76,30.62" transform="translate(-207.94 -155.87)"/><path class="cls-6" d="M1108.92,237.19s1.46-25.34-30.8-29.48-36.53,7.53-49,2.34-21.4,33.19,14.11,35.92,34.19.6,34.19.6,1.34,15.92,10.41,14.37S1099,242.72,1099,242.72" transform="translate(-207.94 -155.87)"/><line class="cls-7" x1="836.3" y1="115.29" x2="834.47" y2="128.98"/><circle class="cls-3" cx="842.68" cy="110.38" r="3.75"/><path class="cls-6" d="M1211.66,591.42l-54.1,156.69,148.31,145.51-105.18,89.55s-17.54-26.07,7.11-56.62c0,0-135.22-85.74-157-134.11-29.24-64.92,43.2-303.52,119.79-315.2C1251.41,464.9,1355.2,657,1355.2,657l177.29,22.55,1.61,160.67s-42.73-11.83-42.3-63.06c0,0-146,15.55-196.34-25s-158.27-175.87-158.27-175.87" transform="translate(-207.94 -155.87)"/><path class="cls-8" d="M1182.33,342.83l-23.71,88.26c-6.36,23.66-36.35,31-52.88,12.87l-55-60.25a31,31,0,0,1,12.51-50.16l78.74-28C1165.53,297.17,1188.82,318.68,1182.33,342.83Z" transform="translate(-207.94 -155.87)"/><path class="cls-9" d="M1209.77,296.19s118-12.21,160.79,12.66c26.54,15.44,90.69,90.36,90.69,90.36s30,34.1,23.87,38.17c-7.32,4.87-34.18-27.87-34.18-27.87s39.38,41.77,31.65,47.67c-5.82,4.46-42.72-37.39-42.72-37.39s34.39,37.26,27.68,42.28c-7.71,5.77-40.56-36.44-40.56-36.44s12.52,21.35,6.5,26.58c-5.52,4.79-23.68-18.86-23.68-18.86l-76.13-62.44-101-6.24" transform="translate(-207.94 -155.87)"/><path class="cls-5" d="M851.05,553.83l398-222.92,104.64,186.84-398,222.93a100.37,100.37,0,0,1-36.39,12L716.2,778.44c-22.12,2.8-36.42-22.73-22.47-40.13L821.81,578.59A100.32,100.32,0,0,1,851.05,553.83Z" transform="translate(-207.94 -155.87)"/><rect class="cls-5" x="1254.48" y="317.25" width="93.84" height="214.15" rx="44.31" transform="translate(-249.33 534.17) rotate(-29.25)"/><rect class="cls-2" x="1282.5" y="380.02" width="37.8" height="88.62" rx="17.85" transform="translate(-249.33 534.17) rotate(-29.25)"/><path class="cls-7" d="M1105.82,350.12s100.6,100.57,113.39,131.72-26.57,127.52-26.57,127.52c-30,59.18-110.42,61.85-110.42,61.85l34-19L1142,510.05l-96.58-96.55" transform="translate(-207.94 -155.87)"/><path class="cls-10" d="M1192.64,609.36c-30,59.18-110.42,61.85-110.42,61.85l34-19" transform="translate(-207.94 -155.87)"/><rect class="cls-1" x="1531.24" y="185.13" width="154.19" height="154.19" transform="translate(-99.3 743.84) rotate(-32.29)"/><path class="cls-1" d="M748.79,907.86a69.54,69.54,0,0,1-135.5-31.35Z" transform="translate(-207.94 -155.87)"/><line class="cls-10" x1="897.89" y1="194.25" x2="937.03" y2="234.74"/></svg>