<?xml version="1.0" encoding="utf-8"?>
<!-- Generator: Adobe Illustrator 22.1.0, SVG Export Plug-In . SVG Version: 6.00 Build 0)  -->
<svg version="1.1" id="Слой_1" xmlns="http://www.w3.org/2000/svg" xmlns:xlink="http://www.w3.org/1999/xlink" x="0px" y="0px"
	 viewBox="0 0 814 994.9" style="enable-background:new 0 0 814 994.9;" xml:space="preserve">
<style type="text/css">
	.st0{fill:#D5E0EA;}
	.st1{fill:#1F0D60;}
	.st2{fill:#FFFFFF;}
	.st3{fill:#00CE87;}
	.st4{fill:#F4FF00;}
	.st5{fill:#8235FF;}
	.st6{fill:#FF0F97;}
	.st7{fill:#1F0000;}
</style>
<g id="background_1_">
	<g id="background">
		<path id="semicircle" class="st0" d="M521.1,206.6c65,142.9,0.9,314-142,379.1S65,586.6,0,443.7
			C173.7,364.7,347.4,285.6,521.1,206.6z"/>
		<path id="line_1_" class="st0" d="M189.5,882.8c-0.3,0.3-0.7,0.6-1.2,0.7c-9.1,1.1-26.5,1.3-42-9.6c-4.5-3.1-18.1-12.7-19.4-27.6
			c-9.1-2.2-18.2-6.5-25.2-13.5c-8.2-8.2-12.9-19.1-14.5-29.7c-7-0.8-14-3.2-19.3-7.4C42,774.8,51.3,740,51.3,739.7
			c0.3-1,1.3-1.7,2.4-1.4c1,0.3,1.7,1.3,1.3,2.4c-0.1,0.3-8.6,32.8,15.4,51.9c4.4,3.6,10.3,5.8,16.4,6.5c-0.8-11,1.8-21,7.3-26.7
			l0,0c1.5-1.5,9-8.6,17.9-7c0.3,0.1,7.8,1.5,10.6,7.8c3.6,8-2.5,17.4-6.2,21.1c0,0,0,0-0.1,0.1c-5.8,6-15.3,9-24.9,8.8
			c1.7,9.6,6,19.4,13.3,26.7c6.2,6.2,14.3,10.1,22.4,12.2c0.2-3.7,1.2-9.2,5-14.4c4.7-6.7,15.2-14.2,23.5-10.5
			c3.8,1.7,6.8,5.6,8.3,10.5c1.3,4.6,0.9,9.2-1.1,12.4c-2.5,3.9-7.9,6.6-15.3,7.5c-4.7,0.6-10.4,0.4-16.2-0.6
			c1.8,12.3,13.2,20.5,17.6,23.5c14.4,10.2,30.9,10,39.4,9c1-0.1,2,0.7,2.1,1.7C190.2,881.8,189.9,882.4,189.5,882.8z M130.6,842.8
			c5.7,1.2,11.4,1.3,16.1,0.7c6-0.8,10.5-2.8,12.4-5.7c1.4-2.2,1.6-5.7,0.7-9.2c-1.1-3.9-3.5-6.9-6.1-8.2
			c-5.9-2.6-14.6,3.7-18.6,9.2C131.5,834.6,130.7,839.6,130.6,842.8z M90.6,799c8.8,0.3,17.6-2.3,22.8-7.6c0,0,0,0,0.1-0.1
			c3.6-3.7,8-11.3,5.4-16.8c-2-4.6-7.8-5.6-7.8-5.6c-6.9-1.2-13.1,4.6-14.2,5.7l0,0C91.8,779.8,89.6,789,90.6,799z"/>
	</g>
</g>
<g id="general_1_">
	<g id="general">
		<g id="computer">
			<rect x="155" y="438.9" class="st1" width="80.7" height="29"/>
			<g>
				<rect x="86.1" y="283.8" class="st2" width="218.6" height="156.6"/>
				<path class="st1" d="M304.7,441.9H86.1c-0.8,0-1.5-0.7-1.5-1.5V283.8c0-0.8,0.7-1.5,1.5-1.5h218.6c0.8,0,1.5,0.7,1.5,1.5v156.6
					C306.2,441.2,305.5,441.9,304.7,441.9z M87.6,438.9h215.6V285.3H87.6V438.9z"/>
			</g>
			<g id="figures">
				<path class="st3" d="M218.6,399c-16.8,24.3-50.7,30.4-75,13.6s-30.4-50.7-13.6-75C159.6,358.1,189.1,378.5,218.6,399z"/>
				
					<rect x="207" y="311" transform="matrix(0.1426 -0.9898 0.9898 0.1426 -134.1766 524.6379)" class="st4" width="57.5" height="57.5"/>
			</g>
		</g>
		<g id="table">
			<path class="st1" d="M61.9,887.2l50.8-380.7l-3-0.4L58.9,886.9c-0.1,0-0.1,0-0.2,0c-9.8,0-17.8,8-17.8,17.8s8,17.8,17.8,17.8
				s17.8-8,17.8-17.8C76.5,895.9,70.2,888.7,61.9,887.2z"/>
			<path class="st1" d="M727.8,886.9c-0.1,0-0.1,0-0.2,0l-50.8-380.8l-3,0.4l50.8,380.7c-8.3,1.5-14.6,8.8-14.6,17.5
				c0,9.8,8,17.8,17.8,17.8s17.8-8,17.8-17.8C745.6,894.9,737.6,886.9,727.8,886.9z"/>
			<path class="st2" d="M86.1,467.9v38.3h298.1c0.2-0.2,0.3-0.3,0.5-0.5c7.5-7.4,15.8-15.2,24.9-23.2c49.5,0.3,99,0.6,148.5,0.8
				c0.7,6.6,1.2,14.1,1.3,22.3v0.5h139.4v-38.3H86.1V467.9z"/>
			<path class="st1" d="M698.8,467.4H86.1c-0.3,0-0.5,0.2-0.5,0.5v38.3c0,0.3,0.2,0.5,0.5,0.5h297.6c0.2-0.2,0.3-0.3,0.5-0.5
				s0.3-0.3,0.5-0.5H86.6v-37.3h611.7v37.3H559.4v1h139.4c0.3,0,0.5-0.2,0.5-0.5v-38.3C699.3,467.7,699.1,467.4,698.8,467.4z"/>
		</g>
		<g id="woman">
			<g id="skirt">
				<path class="st3" d="M324.4,574v123.7c-0.3-0.4-0.7-0.9-1-1.3V575.3C323.7,574.9,324,574.4,324.4,574z"/>
				<path class="st3" d="M386.9,503.6v238.1c-0.3,0-0.7,0-1,0V504.6C386.3,504.3,386.6,503.9,386.9,503.6z"/>
				<path class="st3" d="M452.6,482.9v204.3c-0.3,0.2-0.7,0.4-1,0.7v-205H452.6z"/>
				<path class="st3" d="M517.2,483.2v196.4c-0.3-0.1-0.7-0.2-1-0.3V483.2C516.5,483.2,516.8,483.2,517.2,483.2z"/>
				<path class="st3" d="M547,666.8H303.5c-0.2-0.3-0.4-0.7-0.6-1h243.8C546.9,666.1,546.9,666.5,547,666.8z"/>
				<path class="st3" d="M543.1,603.2c-0.1,0.3-0.1,0.7-0.1,1H305.6c0.1-0.3,0.3-0.7,0.5-1H543.1z"/>
				<path class="st3" d="M412.8,728.4c-0.3,0.3-0.7,0.7-1,1h-57.5c-0.4-0.3-0.9-0.7-1.3-1H412.8z"/>
				<path class="st3" d="M557.5,537.6c0,0.3-0.1,0.7-0.1,1H354c0.1-0.2,0.3-0.3,0.4-0.5c0.2-0.2,0.3-0.3,0.5-0.5H557.5z"/>
			</g>
			<g id="cup_1_">
				<path id="cup" class="st4" d="M813,142.3c-0.1-0.2-0.1-0.5-0.2-0.7l-7.5-28.1l-2-7.5l0,0l-2.3-8.8l-72.4,19.3l1.1,4.3
					c-1.7,0.5-3.3,1.1-4.8,1.8c-1.4,0.7-2.8,1.5-4.1,2.4c-3.7,2.5-6.7,5.8-8.9,9.5c-3.5,5.8-5,12.8-4,19.9l3.9-3l4.9-3.8l1.8-1.4
					c1.2-5.9,4.9-11,10.3-13.8c1.1-0.6,2.3-1.1,3.5-1.4l0.6,2.2l1.3,5.1c1,0.4,1.9,1,2.5,1.9c1.4,1.7,1.7,4,1,5.9
					c-0.2,0.6-0.5,1.2-1,1.8l0.1,0.2c1-0.5,2.1-0.6,3.2-0.5c1.9,0.2,3.7,1.2,4.8,2.8c0.1,0.1,0.2,0.3,0.2,0.4
					c1.4,2.5,0.9,5.7-1.2,7.7c-0.1,0.1-0.2,0.2-0.3,0.2c0.1,0,0.3-0.1,0.4-0.1c2.7-0.9,5.9,0,7.5,2.5c0.9,1.4,1.2,3,0.9,4.5
					s-1.1,2.9-2.4,3.9c1.8-0.7,3.8-0.5,5.5,0.5c0.2,0.1,0.3,0.2,0.5,0.3c0.7,0.4,1.2,1,1.7,1.7c1.9,2.9,1,6.9-1.9,8.8l-1.2,0.8
					c2.7,2,5.6,3.5,8.8,4.7c1.6,0.6,3.2,1.1,4.9,1.5c5.7,1.3,11.9,1.3,17.9-0.3c7.8-2.1,14.3-6.5,19.1-12.3c1.1-1.3,2.1-2.7,3-4.1
					C813.5,162.7,815.5,152.4,813,142.3z"/>
				<g id="pattern">
					<path class="st1" d="M805.3,113.4c-1.7,2-3.9,3.6-6.6,4.5c-7.2,2.2-15-1.9-17.3-9.1c1.5-0.5,2.9-0.9,4.4-1.3
						c2.8,4.9,7.5,7.7,11.6,6.4c3.1-1,5.2-4,5.9-7.9L805.3,113.4z"/>
					<path class="st1" d="M787.3,138.9c0.4,5.7-1.9,10.6-6,11.9s-8.8-1.5-11.7-6.4c-1.5,0.4-2.9,0.9-4.4,1.3
						c2.2,7.2,10,11.4,17.3,9.1c7.2-2.2,11.4-10,9.1-17.3C790.3,138,788.8,138.5,787.3,138.9z"/>
					<path class="st1" d="M737.6,132.5c-1.5,0.5-3,0.6-4.5,0.6l-0.6-2.2c-1.2,0.4-2.4,0.8-3.5,1.4c-3.5-1.2-6.5-3.9-8.1-7.4
						c1.3-0.9,2.7-1.7,4.1-2.4c2.9,4.6,7.4,7.1,11.3,5.9c4.1-1.3,6.4-6.2,6-11.9c1.5-0.5,2.9-0.9,4.4-1.3
						C748.9,122.4,744.8,130.2,737.6,132.5z"/>
					<path class="st1" d="M768.3,187.7c-1.7-0.4-3.3-0.9-4.9-1.5c2.4-2.2,3.7-6,3.4-10.3c1.5-0.5,2.9-0.9,4.4-1.3
						C772.6,179.2,771.4,184.2,768.3,187.7z"/>
					<path class="st1" d="M808.3,171c-0.9,1.4-1.9,2.8-3,4.1c-2.2-1.7-4-4-4.8-6.9c1.5-0.5,2.9-0.9,4.4-1.3
						C805.9,168.5,807,169.9,808.3,171z"/>
				</g>
			</g>
			<g id="legs_1_">
				<g id="legs">
					<path class="st5" d="M404.3,834.4l-0.3,0.1l-63.5,16.9c-15.2-54-26.2-100.2-34.2-136c-6.4-28.8-9.8-47-10.6-61.7
						c42.7,74.5,72.6,90.4,93.2,87.8C393.9,772.9,399,803.8,404.3,834.4z"/>
					<path class="st5" d="M571.7,715.4c19.4,23.7,35.5,42.9,46.2,55.6L572,820.6c-0.3,0.3-0.5,0.6-0.7,0.9
						c-21.1-21.9-85.7-103.4-116.1-135.9c4.8-2.9,10.1-5.3,16.1-7c30.9-8.9,62.9,5.1,86.9,20.4C562.6,704.4,567.1,709.9,571.7,715.4
						z"/>
				</g>
				<g id="shoes">
					<path class="st6" d="M675.9,841.4c-1.8,3.2-5.5,10-10.4,18.9l-9.8-9l-8.5-7.8l3.8,15.8l0,0l4.6,18.8
						c-17.2,31.1-40.2,72.6-50.4,90.6c-2.6-2.2-5.5-5.1-8.1-8.7c-0.7-1-1.5-2.1-2.1-3.2c-2.3-3.9-4.2-8.6-5-13.9
						c-3.3-23.1,17.9-32.8,18-56.9c0-0.6,0-1.2,0-1.7c-0.3-7-2.3-13.9-5.3-20.4c-0.9-1.9-1.8-3.8-2.9-5.6
						c-3.5-6.3-7.8-12.3-12.3-17.9c-0.3-0.3-0.5-0.7-0.8-1c-2.4-3-4.8-5.8-7.1-8.6c-0.4,0.3-0.8,0.5-1.3,0.7c-2.4,1-5.1,0.7-6.9-1
						c-1.8-1.8-2.3-4.5-1.3-7c0.2-0.6,0.5-1.2,0.9-1.8c0.2-0.3,0.5-0.6,0.7-0.9l45.9-49.5l1-1.1c2.7-2.9,7-3.3,9.5-0.8
						s2.4,6.9-0.3,9.8l-1,1.1c1.9,2.4,3.8,4.8,5.7,7.2c0.8,1,1.6,2,2.4,3.1c2.4,3,4.7,6,7.1,9c0.6,0.7,1.2,1.4,1.7,2.2
						c2.8,3.5,5.6,7,8.3,10.5c0.2,0.3,0.4,0.5,0.6,0.8l0.1,0.1c0.4,0.6,0.9,1.1,1.3,1.6c0,0,0,0,0.1,0.1c0.5,0.6,1,1.3,1.5,1.9
						c2.3,2.9,4.6,5.7,6.8,8.6c0.2,0.3,0.4,0.5,0.6,0.8c0.4,0.5,0.8,1,1.2,1.6c0.9,1.2,1.8,2.3,2.7,3.4c0.3,0.4,0.6,0.8,1,1.2
						C670.9,835.1,673.4,838.3,675.9,841.4z"/>
					<path class="st6" d="M414.2,911.4c-0.2-1.4-0.3-2.9-0.5-4.3c-0.1-0.7-0.1-1.3-0.2-2c0-0.3-0.1-0.6-0.1-1
						c-0.4-3.7-0.8-7.3-1.2-10.9c-0.1-0.8-0.2-1.6-0.3-2.4v-0.1c-0.1-0.7-0.1-1.3-0.2-2c0-0.1,0-0.1,0-0.2c0-0.3-0.1-0.7-0.1-1
						c-0.5-4.5-1-8.9-1.5-13.4c-0.1-0.9-0.2-1.8-0.3-2.7c-0.4-3.8-0.8-7.6-1.2-11.4c-0.1-1.3-0.3-2.6-0.4-3.9c-0.3-3-0.7-6.1-1-9.2
						l1.4-0.4c3.8-1,6.3-4.7,5.5-8.1c-0.8-3.4-4.7-5.4-8.5-4.4l-1.2,0.3l-0.3,0.1l-63.5,16.9l-1.7,0.5c-1.1,0.3-2.1,0.8-2.9,1.4
						c-2.1,1.6-3.2,4.2-2.6,6.7c0.6,2.4,2.7,4.2,5.3,4.5c0.5,0.1,1,0.1,1.4,0.1c0.5,3.5,1,7.2,1.4,11c0.1,0.4,0.1,0.8,0.1,1.3
						c0.8,7.1,1.2,14.5,0.8,21.7c-0.1,2.1-0.3,4.2-0.6,6.2c-0.9,7.2-2.9,14-6.4,20.1c-0.3,0.5-0.6,1-0.9,1.5
						c-12.9,20.4-36,17.2-45.5,38.5c-2.2,5-3.1,9.9-3.2,14.5c0,1.3,0,2.6,0.1,3.9c0.3,4.4,1.2,8.4,2.2,11.7
						c18.1-9.8,59.7-32.6,90.9-49.8l6.1-18.4l5.2-15.4l3,11.1l3.5,12.9c8.9-4.9,15.7-8.6,18.9-10.4c-0.4-4-0.9-8-1.3-12
						C414.3,912.5,414.2,911.9,414.2,911.4z"/>
					<path class="st1" d="M576,832.4c-1.7,0-3.3-0.6-4.5-1.8c-1.9-1.8-2.5-4.8-1.5-7.6c0.4-1.1,1-2,1.8-2.9l46.9-50.6
						c1.5-1.6,3.5-2.6,5.6-2.6c1.8-0.1,3.4,0.6,4.7,1.8c2.7,2.7,2.6,7.4-0.3,10.5l-22.1,25.7c-0.2,0.2-0.5,0.2-0.7,0.1
						c-0.2-0.2-0.2-0.5-0.1-0.7l22.1-25.7c2.5-2.7,2.7-6.8,0.3-9.1c-1-1-2.4-1.6-4-1.5c-1.8,0-3.6,0.9-4.9,2.3l-46.9,50.6
						c-0.7,0.8-1.2,1.6-1.6,2.6c-0.9,2.4-0.4,4.9,1.2,6.5c1.6,1.6,4,1.9,6.3,0.9c0.4-0.2,0.8-0.4,1.2-0.6c0.2-0.2,0.5-0.1,0.7,0.1
						c0.2,0.2,0.1,0.5-0.1,0.7c-0.5,0.3-0.9,0.5-1.4,0.7C578,832.2,577,832.4,576,832.4z"/>
					<path class="st1" d="M595.1,957.2c-0.1,0-0.2,0-0.2-0.1c-0.2-0.1-0.3-0.4-0.2-0.7l55.9-97.4c0.1-0.2,0.3-0.3,0.4-0.3
						c0.3,0,0.5,0.2,0.5,0.5c0,0.1,0,0.2-0.1,0.3L595.6,957C595.5,957.1,595.3,957.2,595.1,957.2z"/>
					<path class="st1" d="M655.7,851.8c-0.1,0-0.2,0-0.2-0.1c-0.2-0.1-0.3-0.4-0.2-0.7l11.8-20.5c0.1-0.2,0.4-0.3,0.7-0.2
						c0.2,0.1,0.3,0.4,0.2,0.7l-11.8,20.5C656,851.7,655.9,851.8,655.7,851.8z"/>
					<path class="st1" d="M339.8,865.1c-0.4,0-0.8,0-1.2-0.1c-2.8-0.4-5.1-2.4-5.7-4.9c-0.6-2.6,0.5-5.4,2.8-7.2
						c0.9-0.7,1.9-1.2,3-1.5l66.7-17.8c2.1-0.6,4.3-0.3,6.1,0.8c1.5,0.9,2.6,2.3,3,4c0.9,3.7-1.7,7.6-5.8,8.7l-21.9,5.8
						c-0.3,0.1-0.5-0.1-0.6-0.4c-0.1-0.3,0.1-0.5,0.4-0.6l21.9-5.8c3.6-1,5.9-4.3,5.1-7.5c-0.3-1.4-1.2-2.6-2.6-3.4
						c-1.5-0.9-3.5-1.1-5.3-0.7l-1.5,0.4L339,852.3c-1,0.3-1.9,0.7-2.7,1.3c-2,1.6-3,4-2.4,6.2c0.5,2.2,2.4,3.8,4.9,4.2
						c0.4,0.1,0.9,0.1,1.3,0.1c0.3,0,0.5,0.2,0.5,0.5s-0.2,0.5-0.5,0.5C340,865.1,339.9,865.1,339.8,865.1z"/>
					<path class="st1" d="M285.8,979.9c-0.2,0-0.4-0.1-0.4-0.3c-0.1-0.2,0-0.5,0.2-0.7l99.3-52.5c0.2-0.1,0.4-0.1,0.5,0
						c0.2,0.1,0.3,0.4,0.2,0.7c0,0.1-0.1,0.1-0.2,0.2L286,979.8C286,979.8,285.9,979.9,285.8,979.9z"/>
					<path class="st1" d="M393.2,923c-0.2,0-0.4-0.1-0.4-0.3c-0.1-0.2,0-0.5,0.2-0.7l20.9-11.1c0.2-0.1,0.5,0,0.7,0.2
						c0.1,0.2,0,0.5-0.2,0.7l-20.9,11.1C393.4,923,393.3,923,393.2,923z"/>
				</g>
			</g>
			<g id="hands">
				<g id="hand_r">
					<path class="st5" d="M757.8,171.9c-0.5-0.7-1-1.3-1.7-1.7c-0.2-0.1-0.3-0.2-0.5-0.3c-1.6-0.9-3.6-1.1-5.5-0.5
						c1.3-1,2.1-2.4,2.4-3.9c0.3-1.5,0-3.1-0.9-4.5c-1.6-2.5-4.8-3.5-7.5-2.5c-0.1,0-0.3,0.1-0.4,0.1c0.1-0.1,0.2-0.1,0.3-0.2
						c2.1-2,2.7-5.1,1.2-7.7c-0.1-0.1-0.2-0.2-0.2-0.4c-1.1-1.7-2.9-2.7-4.8-2.8c-1.1-0.1-2.2,0-3.2,0.5c-0.1,0-0.2,0.1-0.4,0.2
						c0.1-0.1,0.2-0.2,0.3-0.4c0.4-0.5,0.8-1.2,1-1.8c0.7-2,0.4-4.2-1-5.9c-0.7-0.9-1.6-1.5-2.5-1.9c-1-0.4-2.2-0.6-3.3-0.5
						s-2.3,0.6-3.2,1.3l-0.3,0.3l-3.4,2.6l-5.5,4.3l-1.8,1.4l-4.9,3.8l-3.9,3c-1-7.1,0.5-14.1,4-19.9c-0.7-2.1-2.4-3.8-4.7-4.4
						c-3.5-0.8-7,1.4-7.9,4.9c-9.4,23.8-18.8,47.6-28.2,71.4l50.3-2.7l8.5-7.3c0.6,0,1.3-0.2,1.9-0.4c0.4-0.1,0.8-0.3,1.1-0.6
						l5.2-3.3l16.4-10.5l1.2-0.8C758.9,178.8,759.7,174.8,757.8,171.9z"/>
					<path d="M706.9,178.4c-0.2,5.3-1.2,12.3-4.2,18.1c-0.1,0.2-0.3,0.3-0.5,0.3c-0.1,0-0.2,0-0.2-0.1c-0.2-0.1-0.3-0.4-0.2-0.7
						c3.1-5.8,4-12.9,4.2-18.2C706.2,178,706.5,178.2,706.9,178.4z"/>
					<path d="M712.3,179.1c-0.2,0-0.3-0.1-0.4-0.2c-0.2-0.2-0.1-0.5,0.1-0.7l27.1-17.9c0.2-0.2,0.5-0.1,0.7,0.1
						c0.2,0.2,0.1,0.5-0.1,0.7L712.5,179C712.5,179.1,712.4,179.1,712.3,179.1z"/>
					<path d="M703.5,172.1c-0.2,0-0.3-0.1-0.4-0.2c-0.2-0.2-0.1-0.5,0.1-0.7l28.6-20.1c0.2-0.2,0.5-0.1,0.7,0.1
						c0.2,0.2,0.1,0.5-0.1,0.7L703.8,172C703.7,172.1,703.6,172.1,703.5,172.1z"/>
					<path d="M724.9,186.1c-0.2,0-0.3-0.1-0.4-0.2c-0.2-0.2-0.1-0.5,0.1-0.7l22.2-14.9c0.2-0.2,0.5-0.1,0.7,0.1
						c0.2,0.2,0.1,0.5-0.1,0.7L725.2,186C725.1,186,725,186.1,724.9,186.1z"/>
				</g>
				<g id="hand_l">
					<path class="st5" d="M313,229.4c-6.9-10.4-14.6-17.5-20.2-21.9c-1.8-1.9-4.5-2.3-6.6-1.3c-0.5,0.3-1,0.6-1.5,1
						c-2.3,2.2-2.3,6-0.2,8.4l10.6,11.5l-12.5-1.6l0,0l-31.6-23c-2.6-1.9-6.2-1.2-8,1.4c-1.3,2-1.3,4.6-0.1,6.5L242,210
						c-2.6-1.9-6.2-1.2-8,1.4c-1.8,2.7-1.2,6.4,1.4,8.3l1.6,1.1c-2-0.2-4,0.7-5.2,2.5c-0.7,1-1,2.2-1,3.4c0,1.9,0.9,3.8,2.5,4.9
						l3.7,2.7c-0.6,0.1-1.3,0.2-1.8,0.5c-0.8,0.4-1.5,1-2.1,1.7c-1.9,2.6-1.4,6.3,1.1,8.3c5.7,4.5,12.3,9.5,29.5,16.4
						c5.1,2,9.1,3.7,11.2,4.6c0.8,2.9,1.6,5.8,2.4,8.7l0,0c16.5-3.9,33-7.8,49.4-11.8l0,0C325.2,255,321.6,242.4,313,229.4z"/>
					<path class="st7" d="M298.5,252.7c-0.1,0-0.2,0-0.3-0.1c-10.5-9-2.4-21-2.3-21.1c0.2-0.2,0.5-0.3,0.7-0.1s0.3,0.5,0.1,0.7
						c0,0-2,2.9-2.7,6.8c-0.9,5.1,0.7,9.5,4.8,13.1c0.2,0.2,0.2,0.5,0.1,0.7C298.8,252.6,298.6,252.7,298.5,252.7z"/>
					<path class="st7" d="M272,231c-0.1,0-0.2,0-0.3-0.1L242.5,211c-0.2-0.2-0.3-0.5-0.1-0.7s0.5-0.3,0.7-0.1l29.2,19.9
						c0.2,0.2,0.3,0.5,0.1,0.7C272.4,230.9,272.2,231,272,231z"/>
					<path class="st7" d="M266.4,239.5c-0.1,0-0.2,0-0.3-0.1l-29.4-18.1c-0.2-0.1-0.3-0.5-0.2-0.7s0.5-0.3,0.7-0.2l29.4,18.1
						c0.2,0.1,0.3,0.5,0.2,0.7C266.8,239.4,266.6,239.5,266.4,239.5z"/>
					<path class="st7" d="M264.8,250.8c-0.1,0-0.2,0-0.2-0.1l-27.8-16c-0.2-0.1-0.3-0.4-0.2-0.7c0.1-0.2,0.4-0.3,0.7-0.2l27.8,16
						c0.2,0.1,0.3,0.4,0.2,0.7C265.1,250.8,265,250.8,264.8,250.8z"/>
				</g>
			</g>
			<g id="list">
				<path class="st1" d="M245.4,134.6c-0.2,0-0.4-0.2-0.4-0.3c-0.1-0.3,0.1-0.5,0.3-0.6l48.9-15.3c0.3-0.1,0.5,0.1,0.6,0.3
					c0.1,0.3-0.1,0.5-0.3,0.6l-48.9,15.3C245.5,134.6,245.5,134.6,245.4,134.6z"/>
				<path class="st1" d="M252.9,155.8c-0.2,0-0.4-0.2-0.4-0.3c-0.1-0.3,0.1-0.5,0.3-0.6l48.9-15.3c0.3-0.1,0.5,0.1,0.6,0.3
					c0.1,0.3-0.1,0.5-0.3,0.6l-48.9,15.3C253.1,155.8,253,155.8,252.9,155.8z"/>
				<path class="st1" d="M258.8,177.5c-0.2,0-0.4-0.2-0.4-0.3c-0.1-0.3,0.1-0.5,0.3-0.6l48.9-15.3c0.3-0.1,0.5,0.1,0.6,0.3
					c0.1,0.3-0.1,0.5-0.3,0.6L259,177.5C259,177.5,258.9,177.5,258.8,177.5z"/>
				<path class="st1" d="M265.5,198.9c-0.2,0-0.4-0.2-0.4-0.3c-0.1-0.3,0.1-0.5,0.3-0.6l48.9-15.3c0.3-0.1,0.5,0.1,0.6,0.3
					c0.1,0.3-0.1,0.5-0.3,0.6l-48.9,15.3C265.7,198.9,265.6,198.9,265.5,198.9z"/>
				<path class="st1" d="M308.7,122.4c-0.1,0-0.3-0.1-0.3-0.2L301,112c-0.2-0.2-0.1-0.5,0.1-0.7s0.5-0.1,0.7,0.1l6.6,9.1l1.6-14.4
					c0-0.3,0.3-0.5,0.6-0.4c0.3,0,0.5,0.3,0.4,0.6l-1.7,15.7c0,0.2-0.2,0.4-0.4,0.4C308.8,122.4,308.8,122.4,308.7,122.4z"/>
				<path class="st1" d="M315.4,143.8c-0.1,0-0.3-0.1-0.3-0.2l-7.3-10.2c-0.2-0.2-0.1-0.5,0.1-0.7s0.5-0.1,0.7,0.1l6.6,9.1l1.6-14.4
					c0-0.3,0.3-0.5,0.6-0.4c0.3,0,0.5,0.3,0.4,0.6l-1.7,15.7c0,0.2-0.2,0.4-0.4,0.4C315.5,143.8,315.5,143.8,315.4,143.8z"/>
			</g>
			<g id="cardigan">
				<path class="st6" d="M721.5,203.5c-8.4,0.5-16.8,0.9-25.2,1.4c-3.9,0.2-21.3,1.1-25.2,1.4c-0.7,13.7-1.8,31.9-3.7,53.3
					c-5.2,58.4-9.5,62.5-12.7,63.6c-13.2,4.4-23-36.8-68-62.1c-5.3-3-10.7-5.5-16-7.6c-12.2-4.9-24.2-7.6-34.8-9.1
					c-1.7-0.2-3.3-0.5-4.8-0.6c-0.1,0-0.2,0.1-0.3,0.1l0,0v0.1c-5.8,17.1-11.5,34.3-17.3,51.4l0,0c-2.2,6.6-4.4,13.1-6.6,19.7
					c-11-0.3-22-0.7-32.9-1c0.1-0.4,0.1-0.8,0.2-1.4c0.1-0.3,0.1-0.7,0.2-1.1c0.1-0.5,0.2-1,0.2-1.5c0.1-0.4,0.1-0.8,0.2-1.3
					c0.1-0.3,0.1-0.6,0.2-1c0-0.3,0.1-0.6,0.1-0.9c0.3-1.9,0.7-4.1,1.1-6.5c0.1-0.7,0.2-1.3,0.3-2c0.1-0.4,0.1-0.7,0.2-1.1
					c0-0.3,0.1-0.5,0.1-0.8c0.1-0.8,0.3-1.6,0.4-2.4c0-0.1,0-0.2,0-0.3c0.1-0.8,0.3-1.6,0.4-2.4c1-6.3,2.2-13.2,3.2-19.7
					c0.1-0.5,0.2-0.9,0.2-1.4c0.2-1.4,0.4-2.7,0.7-4c0.1-0.5,0.2-1,0.2-1.5c0.1-0.4,0.1-0.7,0.2-1.1c0.1-0.7,0.2-1.4,0.4-2.1
					c0.1-0.7,0.2-1.4,0.3-2.1c0.1-0.3,0.1-0.7,0.2-1c0.5-3.2,1-6,1.3-8c-17,5.5-30.2,12.5-40.6,19.8c-10.1,7.1-17.5,14.6-23,21.4
					c-25.6,31.7-34.3,78.2-50.6,76.9c-3.4-0.3-8.6-3.2-27.9-58.5c-6.5-18.5-11.6-34.5-15.5-47.2c-16.5,3.9-33,7.8-49.4,11.8
					c8.4,41.6,24,105.8,46.7,144.8c3.2,5.5,6.5,10.5,10,14.8c3.3,4.1,9.1,10.6,18.6,13.6c13.5,4.3,26.7-0.9,31.8-2.9
					c2.7-1.1,5.2-2.4,7.5-3.8c4.7-2.8,8.8-6.3,12.9-10.9c-3.5,16-7.1,33.3-10.6,52.2c5.1,0,10.3,0.1,15.4,0.1
					c49.5,0.3,99,0.6,148.5,0.8c4.4,0,8.7,0,13.1,0.1c4.5-46.2,8.9-92.4,13.4-138.6c5.6,5.8,39,39.8,62.1,51.3
					c3.4,1.7,7.7,3.5,13.1,4.5c4.1,0.8,18.5,3.2,31.5-5c8.5-5.3,12.5-13,14.7-17.8c2.3-5.1,4.3-10.7,6.1-16.8
					C725.1,315.7,723.8,245.4,721.5,203.5z"/>
				<circle class="st4" cx="482.6" cy="342" r="4.7"/>
				<circle class="st4" cx="477.9" cy="379.8" r="4.7"/>
				<circle class="st4" cx="473.3" cy="417.7" r="4.7"/>
				<circle class="st4" cx="468.7" cy="455.5" r="4.7"/>
				<path class="st1" d="M404.9,430.8C404.8,430.8,404.8,430.8,404.9,430.8c-0.4-0.1-0.5-0.3-0.5-0.6l18.4-96.2
					c0.1-0.3,0.3-0.4,0.6-0.4c0.3,0.1,0.4,0.3,0.4,0.6l-18.4,96.2C405.3,430.6,405.1,430.8,404.9,430.8z"/>
			</g>
			<g id="lines">
				<path class="st1" d="M742,101.3L742,101.3c-0.4-0.1-0.5-0.4-0.4-0.6c3.4-11,3.3-20.7-0.2-28.8c-3.2-7.4-8.3-11.2-14.2-15.6
					c-4.9-3.7-10.4-7.9-15.5-14.9c-6.2-8.7-10-19.4-11.1-31.9c0-0.3,0.2-0.5,0.5-0.5s0.5,0.2,0.5,0.5c1.1,12.3,4.7,22.8,10.9,31.4
					c4.9,6.9,10.2,10.8,15.2,14.6c5.7,4.3,11.1,8.4,14.5,16c3.6,8.3,3.7,18.2,0.3,29.5C742.4,101.2,742.2,101.3,742,101.3z"/>
				<path class="st1" d="M761.4,96.7L761.4,96.7c-0.4-0.1-0.5-0.4-0.4-0.6c3.4-11,3.3-20.7-0.2-28.8c-3.2-7.4-8.3-11.2-14.2-15.6
					c-4.9-3.7-10.4-7.9-15.5-14.9c-6.2-8.7-10-19.4-11.1-31.9c0-0.3,0.2-0.5,0.5-0.5s0.5,0.2,0.5,0.5c1.1,12.3,4.7,22.8,10.9,31.4
					c4.9,6.8,10.2,10.8,15.2,14.6c5.7,4.3,11.1,8.4,14.5,16c3.6,8.3,3.7,18.2,0.3,29.5C761.8,96.5,761.6,96.7,761.4,96.7z"/>
				<path class="st1" d="M780.8,92.3L780.8,92.3c-0.4-0.1-0.5-0.4-0.4-0.6c3.4-11,3.3-20.7-0.2-28.8c-3.2-7.4-8.3-11.2-14.2-15.6
					c-4.9-3.7-10.4-7.9-15.5-14.9c-6.2-8.7-10-19.4-11.1-31.9c0-0.3,0.2-0.5,0.5-0.5s0.5,0.2,0.5,0.5c1.1,12.3,4.7,22.8,10.9,31.4
					c4.9,6.8,10.2,10.8,15.2,14.6c5.7,4.3,11.1,8.4,14.5,16c3.6,8.3,3.7,18.2,0.3,29.5C781.2,92.1,781,92.3,780.8,92.3z"/>
			</g>
			<g id="head">
				<path id="face" class="st5" d="M544.1,197.7c-6.4-0.8-10.2-5.3-11.1-6.4c-0.8-1.4-2-4.2-2-8c0.1-5.5,2.9-9.2,3.9-10.3
					c-0.7,0.3-5.3,2.5-9.8,0.3c-5-2.4-6.6-11.2-6-14.4c0-0.2,0.1-0.7,0-0.8c-0.7-0.4-3,5.3-7.7,8.2c-5.3,3.3-11.6,1.7-12.7,1.5
					c-2.7-0.6-6.4-1.6-8.4-5.1c-2.8-4.9,0.5-10.6,0.8-11c-3.4,1.8-12.4,6-21.8,3.1c-1.6-0.5-4-1.2-5.9-2.7c-1.2,1.6-2.2,3.4-3.2,5.2
					c-0.7,1.3-1.3,2.6-2,4c-11.8,26.9-4.4,65.6,16.1,76.3c3.5,1.8,7.4,2.8,11.6,3.2c-0.5,3.2-1,6.3-1.4,9.5c-0.3,2-0.8,4.8-1.3,8
					c0,0.3-0.1,0.7-0.2,1c-0.1,0.7-0.2,1.4-0.3,2.1c-0.1,0.7-0.2,1.4-0.4,2.1c-0.1,0.4-0.1,0.7-0.2,1.1c-0.1,0.5-0.2,1-0.2,1.5
					c-0.2,1.3-0.4,2.7-0.7,4c-0.1,0.5-0.2,0.9-0.2,1.4c-0.4,2.3-0.8,4.7-1.2,7.1c10.5,2.9,25.1,7,36,10c5-15,10.1-30,15.1-45
					c0,0,0,0,0-0.1l0,0c0,0,0,0,0-0.1v-0.1l0,0c1.2-8.2,2.3-16.4,3.5-24.5c4.4-5,8-10.6,10.5-16.8c0.3-0.8,0.7-1.7,1-2.6
					c0.2-0.6,0.4-1.2,0.6-1.8C545.7,197.8,544.9,197.8,544.1,197.7z"/>
				<path id="hair" d="M603.2,181.5c-5.2-11.3-22.5-17.2-43-15c-0.1,0-0.2,0-0.3-0.1c-3.2-8.8-9.5-19.8-20.9-29
					c16.6-0.8,29.8-14.5,29.8-31.3c0-17.3-14-31.4-31.2-31.4s-31.2,14-31.2,31.4c0,6.5,2,12.6,5.4,17.6c-16.9-3.8-29.2-3.6-36.4-3
					c0,0-12.6,1.1-16.1,6.6c-1.7,2.6-1.4,5.1-1.4,5.1c0.1,0.6,0.2,1.9,1.2,3.1c1.3,1.7,3,2.1,3.5,2.2c0,0-2.4,3.6-2.4,7.7
					c-14,1.7-25,10.7-27.7,21.9c-3,12.3,5.2,22.9,6.5,24.6c-9.3-0.5-17.6,5.9-19.4,14.9c-1.8,8.8,3,17.7,11.4,21.1
					c-14.4,11-16.1,27.7-9.6,34.6c4.4,4.7,12.9,5.4,21,3c0.5,1.7,1,3.2,1.6,4.7c10.4-7.3,23.6-14.2,40.6-19.8c0.5-3.2,1-6.3,1.4-9.5
					c-4.2-0.3-8.1-1.4-11.6-3.2c-20.5-10.7-27.9-49.4-16.1-76.3c0.6-1.4,1.2-2.7,2-4c1-1.8,2-3.5,3.2-5.2l0,0
					c1.9,1.5,4.2,2.2,5.9,2.7c9.4,2.8,18.4-1.3,21.8-3.1c-0.2,0.4-3.5,6.1-0.8,11c2,3.5,5.7,4.5,8.4,5.1c1.2,0.2,7.4,1.8,12.7-1.5
					c4.8-2.9,7-8.6,7.7-8.2c0.2,0.1,0.1,0.6,0,0.8c-0.6,3.2,1,12,6,14.4c4.5,2.1,9.1,0,9.8-0.3c-0.9,1.1-3.8,4.8-3.9,10.3
					c-0.1,3.5,1.1,6.3,1.9,7.7c0,0.1,0.1,0.2,0.1,0.2c0.9,1.2,4.7,5.6,11.1,6.4c0.8,0.1,1.6,0.1,2.4,0.1c-0.2,0.6-0.4,1.2-0.6,1.8
					c-0.3,0.9-0.6,1.7-1,2.6c-2.5,6.2-6.1,11.8-10.5,16.8c-1.2,8.2-2.3,16.4-3.5,24.5l0,0v0.1c0,0.1,0,0.1,0,0.1
					c0.1,0,0.2-0.1,0.3-0.1c1.6,0.2,3.2,0.4,4.8,0.6c10.6,1.5,22.5,4.3,34.8,9.1c1.5-3,2.6-5.7,3.4-7.9c0.9-0.1,13.8-1.3,20-13
					c4.2-7.9,3.8-17.4-1-25c1.6-0.6,8.1-3.2,11-10C607.3,190.3,604.1,183.4,603.2,181.5z"/>
				<path id="nose" d="M489.6,204.7L489.6,204.7l-14.1-2c-0.1,0-0.3-0.1-0.4-0.2c-0.1-0.1-0.1-0.3-0.1-0.4l7.1-23.4
					c0.1-0.3,0.4-0.4,0.6-0.3c0.3,0.1,0.4,0.4,0.3,0.6l-7,22.8l13.4,1.9c0.3,0,0.5,0.3,0.4,0.6C490.1,204.5,489.9,204.7,489.6,204.7
					z"/>
				<g id="brows">
					<ellipse transform="matrix(0.3796 -0.9252 0.9252 0.3796 128.7811 542.285)" cx="468.7" cy="175.1" rx="2.2" ry="7.5"/>
					<ellipse transform="matrix(0.9753 -0.2207 0.2207 0.9753 -26.5254 115.3623)" cx="503" cy="176.4" rx="7.5" ry="2.2"/>
				</g>
				<path id="mouth" d="M490.5,219.9c-3.3,0-5.8-1.4-6-1.5s-0.3-0.4-0.2-0.7c0.1-0.2,0.4-0.3,0.7-0.2c0.2,0.1,5.4,3,10.5,0
					c4.3-2.5,5.1-7.3,5.1-7.8c0-0.3,0.3-0.5,0.6-0.4c0.3,0,0.5,0.3,0.4,0.6c-0.1,1-1,5.9-5.6,8.6
					C494.1,219.6,492.2,219.9,490.5,219.9z"/>
				<path d="M486,241.9c-0.1,0-0.1,0-0.2,0c-0.3,0-0.5-0.2-0.5-0.5s0.2-0.5,0.5-0.5c0.1,0,0.1,0,0.2,0c3.4,0,6.9-0.3,10.3-0.9
					l0.3-0.1c0.2,0,0.3-0.1,0.5-0.1c1.1-0.2,2.3-0.5,3.6-0.8c0,0,0,0,0.1,0l0,0c0.7-0.2,1.5-0.4,2.2-0.6c0.1,0,0.1,0,0.2,0
					c0.2-0.1,0.4-0.1,0.6-0.2c0.5-0.2,1-0.3,1.5-0.5c6.2-2,12.1-5,17.4-8.9c0.1-0.1,0.2-0.1,0.3-0.2l0.2-0.1
					c0.2-0.2,0.5-0.1,0.7,0.1c0.2,0.2,0.1,0.5-0.1,0.7l-0.1,0.1c-0.1,0.1-0.2,0.1-0.3,0.2c-5.4,3.9-11.3,7-17.6,9.1
					c-0.5,0.2-1,0.3-1.5,0.5c-0.2,0.1-0.4,0.1-0.6,0.2c-0.1,0-0.2,0-0.2,0.1c-0.7,0.2-1.5,0.4-2.2,0.6h-0.1
					c-1.3,0.3-2.5,0.6-3.6,0.8c-0.2,0-0.4,0.1-0.5,0.1l-0.3,0.1C493,241.6,489.5,241.9,486,241.9z"/>
				<g id="ear">
					<path class="st5" d="M562.2,206c0,10.2-8.3,18.5-18.5,18.5s-18.5-8.3-18.5-18.5c0-6.2,3-11.7,7.7-15c0,0.1,0.1,0.2,0.1,0.2
						c0.9,1.2,4.7,5.6,11.1,6.4c0.8,0.1,1.6,0.1,2.4,0.1c4.1-0.1,8-1.8,10.8-4.3C560.4,196.8,562.2,201.2,562.2,206z"/>
					<path d="M537.7,214.5c-0.1,0-0.2,0-0.3-0.1c-0.2-0.2-0.3-0.5-0.1-0.7c1.6-2.1,2.1-4.1,1.7-5.8c-0.6-2.3-2.8-3.4-2.8-3.4
						c-0.2-0.1-0.3-0.2-0.3-0.4s0.1-0.4,0.2-0.5l14.6-8.4c0.2-0.1,0.5-0.1,0.7,0.2c0.1,0.2,0.1,0.5-0.2,0.7l-13.9,8
						c0.8,0.6,2.1,1.8,2.6,3.6c0.5,2-0.1,4.2-1.9,6.6C538,214.4,537.9,214.5,537.7,214.5z"/>
				</g>
				<g id="glasses">
					<path class="st0" d="M515.2,184.5c-0.6,8.1-7.7,14.4-15.7,13.9c-7.8-0.5-14-7.2-13.9-15.1C495.5,183.7,505.4,184.1,515.2,184.5
						z"/>
					<path class="st0" d="M478.4,183c-0.3,8-7.1,14.3-15.1,13.9s-14.3-7.1-13.9-15.1C459,182.2,468.7,182.6,478.4,183z"/>
					<path d="M488.9,184.6c-0.2,0-0.3-0.1-0.4-0.2c-0.2-0.3-2.1-3.4-5.8-3.9c-2.8-0.3-5.6,0.9-7.3,3.3c-0.2,0.2-0.5,0.3-0.7,0.1
						s-0.3-0.5-0.1-0.7c1.9-2.7,5-4.1,8.2-3.8c4.1,0.5,6.2,3.7,6.5,4.4c0.1,0.2,0.1,0.5-0.2,0.7C489.1,184.6,489,184.6,488.9,184.6z
						"/>
					<path d="M533.5,187.9c0,0-0.1,0-0.2,0l-20-1.5c-0.3,0-0.5-0.3-0.5-0.5c0-0.3,0.3-0.5,0.5-0.5l20,1.5c0.3,0,0.5,0.3,0.5,0.5
						C533.9,187.7,533.7,187.9,533.5,187.9z"/>
					<path class="st2" d="M465.7,197.3c-0.2,0-0.4-0.1-0.5-0.3c-0.9-1.8-1.3-3.8-1.2-5.8c0.1-4.1,2-7.2,3.6-9c0.2-0.2,0.5-0.2,0.7,0
						s0.2,0.5,0,0.7c-1.5,1.7-3.2,4.5-3.3,8.3c0,1.9,0.4,3.7,1.2,5.4c0.1,0.3,0,0.5-0.2,0.7C465.8,197.3,465.8,197.3,465.7,197.3z"
						/>
					<path class="st2" d="M502.2,198.8c-0.2,0-0.3-0.1-0.4-0.3c-0.8-1.5-1.8-3.9-1.8-6.9c0.1-3.6,1.5-6.3,2.7-7.9
						c0.2-0.2,0.5-0.3,0.7-0.1s0.3,0.5,0.1,0.7c-1.1,1.5-2.5,4-2.5,7.3c0,2.8,0.9,5,1.7,6.4c0.1,0.2,0.1,0.5-0.2,0.7
						C502.4,198.8,502.3,198.8,502.2,198.8z"/>
				</g>
				<g id="eyes">
					<circle cx="497.6" cy="184.5" r="2.2"/>
					<circle cx="461.3" cy="183.1" r="2.2"/>
				</g>
				<circle id="earring" class="st3" cx="546.2" cy="223.5" r="7"/>
			</g>
			<g id="blouse">
				<path class="st2" d="M479.8,278.8c-0.7,4.2-1.4,8.5-2.1,12.6c-0.1,0.8-0.3,1.6-0.4,2.4c-0.1,0.9-0.3,1.8-0.4,2.6
					c-0.1,0.6-0.2,1.3-0.3,1.9c-0.1,0.7-0.2,1.4-0.3,2c-0.2,1.2-0.4,2.3-0.6,3.4c-0.1,0.5-0.2,1.1-0.3,1.6c-0.1,0.5-0.2,1-0.2,1.5
					c0,0.3-0.1,0.6-0.1,0.9c-0.2,1.4-0.4,2.7-0.6,3.7c-0.1,0.4-0.1,0.8-0.2,1.1c-0.1,0.5-0.2,1-0.2,1.4c11,0.3,22,0.7,32.9,1
					c2.2-6.6,4.4-13.1,6.6-19.7c0.7-2.1,1.4-4.3,2.2-6.4C504.9,285.8,490.2,281.7,479.8,278.8z"/>
				<path class="st1" d="M515.7,289.3L515.7,289.3l-36.1-10c-0.3-0.1-0.4-0.4-0.3-0.6c0.1-0.3,0.3-0.4,0.6-0.3l36,10
					c0.3,0.1,0.4,0.4,0.3,0.6C516.2,289.2,516,289.3,515.7,289.3z"/>
			</g>
		</g>
	</g>
</g>
</svg>
