<?xml version="1.0" encoding="utf-8"?>
<!-- Generator: Adobe Illustrator 22.1.0, SVG Export Plug-In . SVG Version: 6.00 Build 0)  -->
<svg version="1.1" id="Слой_1" xmlns="http://www.w3.org/2000/svg" xmlns:xlink="http://www.w3.org/1999/xlink" x="0px" y="0px"
	 viewBox="0 0 762 1036.1" style="enable-background:new 0 0 762 1036.1;" xml:space="preserve">
<style type="text/css">
	.st0{fill:#EFFA0E;}
	.st1{fill:#FFFFFF;}
	.st2{fill:#1F0D60;}
	.st3{fill:#9E68E2;}
	.st4{fill:#00D28F;}
	.st5{fill:#FF0053;}
	.st6{fill:#DDF1F1;}
	.st7{fill:#D5E0EA;}
</style>
<g id="background_1_">
	<g id="background">
		<g id="scheme">
			<path id="line" class="st0" d="M616.3,374.8c-0.7,0-1.3-0.7-1.3-1.5V115.6h-54.1l0,0c-0.7,0-1.3-0.7-1.3-1.5s0.6-1.5,1.3-1.5
				h55.3l0,0c0.3,0,0.7,0.2,0.9,0.4s0.4,0.7,0.4,1v259.3C617.5,374.2,617,374.8,616.3,374.8z"/>
			<g id="window_2">
				<rect x="506.4" y="373.3" class="st1" width="254.1" height="182.1"/>
				<path class="st0" d="M760.5,556.9H506.4c-0.8,0-1.5-0.7-1.5-1.5V373.3c0-0.8,0.7-1.5,1.5-1.5h254.1c0.8,0,1.5,0.7,1.5,1.5v182.1
					C762,556.2,761.3,556.9,760.5,556.9z M507.9,553.9H759V374.8H507.9V553.9z"/>
			</g>
			<g id="figures2">
				<path id="semicircle_6_" class="st2" d="M536.1,485.2c18.9-14.9,46.6-11.6,61.5,7.2c14.9,18.9,11.6,46.6-7.2,61.5
					C572.3,531.1,554.2,508.1,536.1,485.2z"/>
				<rect id="square_1_" x="507.8" y="507.7" class="st3" width="46.2" height="46.2"/>
				<path id="semicircle_7_" class="st4" d="M717.7,520.1c-10.1,12.9-26.3,18.6-39.6,12.6s-19.8-21.8-16.9-38
					c-4.8-2.2-9.7-4.4-14.5-6.5c-10.5,23.5,0.1,51.5,23.6,62s51.5-0.1,62-23.6C727.4,524.4,722.6,522.2,717.7,520.1z"/>
				<path id="semicircle_5_" class="st5" d="M615.3,425.9c-5.8-5.2-7.9-13.1-4.6-19.2c3.3-6.1,11-8.7,18.5-6.7
					c1.2-2.2,2.4-4.4,3.6-6.7c-10.8-5.8-24.4-1.7-30.2,9.1c-5.8,10.8-1.7,24.4,9.1,30.2C612.9,430.4,614.1,428.2,615.3,425.9z"/>
				<circle id="circle_5_" class="st0" cx="626.8" cy="532.9" r="21.4"/>
				<circle id="circle_4_" class="st2" cx="743.6" cy="538.9" r="15.7"/>
			</g>
			<g id="window1">
				<g>
					<rect x="212.8" y="1.5" class="st1" width="346.8" height="248.5"/>
					<path class="st0" d="M559.7,251.5H212.8c-0.8,0-1.5-0.7-1.5-1.5V1.5c0-0.8,0.7-1.5,1.5-1.5h346.8c0.8,0,1.5,0.7,1.5,1.5V250
						C561.2,250.9,560.5,251.5,559.7,251.5z M214.3,248.5h343.8V3H214.3V248.5z"/>
				</g>
				<path class="st0" d="M559.7,44.4H212.8c-0.8,0-1.5-0.7-1.5-1.5s0.7-1.5,1.5-1.5h346.8c0.8,0,1.5,0.7,1.5,1.5
					S560.5,44.4,559.7,44.4z"/>
				<path class="st0" d="M239.2,34.5c-6.6,0-12-5.4-12-12s5.4-12,12-12s12,5.4,12,12S245.8,34.5,239.2,34.5z M239.2,13.5
					c-4.9,0-9,4-9,9s4,9,9,9s9-4,9-9S244.1,13.5,239.2,13.5z"/>
				<path class="st0" d="M273.9,34.5c-6.6,0-12-5.4-12-12s5.4-12,12-12s12,5.4,12,12S280.5,34.5,273.9,34.5z M273.9,13.5
					c-5,0-9,4-9,9s4,9,9,9c4.9,0,9-4,9-9S278.9,13.5,273.9,13.5z"/>
				<path class="st0" d="M308.6,34.5c-6.6,0-12-5.4-12-12s5.4-12,12-12s12,5.4,12,12S315.2,34.5,308.6,34.5z M308.6,13.5
					c-4.9,0-9,4-9,9s4,9,9,9s9-4,9-9S313.6,13.5,308.6,13.5z"/>
			</g>
			<g id="figures_1">
				<path id="semicircle" class="st3" d="M549.5,139.5c19.3,35.8,5.7,81.2-30.1,100.4c-35.8,19.3-81.2,5.7-100.4-30.1
					C462.4,186.3,506,162.9,549.5,139.5z"/>
				<path id="semicircle_4_" class="st5" d="M332.5,181.5c4.4,8.2,1.3,18.6-6.9,23.1c-8.2,4.4-18.6,1.3-23.1-6.9
					C312.5,192.3,322.5,186.9,332.5,181.5z"/>
				<path id="semicircle_1_" class="st4" d="M365.6,195.6c0-9.3,7.7-17,17-17s17,7.7,17,17C388.3,195.5,377,195.5,365.6,195.6z"/>
				<rect id="square" x="365.6" y="195.4" class="st2" width="53.3" height="53.3"/>
				<path id="semicircle_3_" class="st4" d="M477,63.9c-5.7,12-17.4,19.4-29,17.1s-19.6-13.6-20.2-26.9c-4.2-0.8-8.4-1.7-12.7-2.5
					c-4.1,20.4,9.4,40.6,29.8,44.7c20.4,4.1,40.6-9.4,44.7-29.8C485.4,65.6,481.2,64.8,477,63.9z"/>
				<circle id="circle_1_" class="st0" cx="431.9" cy="180" r="20.1"/>
				
					<ellipse id="circle_2_" transform="matrix(0.1602 -0.9871 0.9871 0.1602 -6.7623 444.2519)" class="st0" cx="257.7" cy="226.1" rx="22.6" ry="22.6"/>
				<circle id="circle" class="st2" cx="471.3" cy="145.5" r="32.2"/>
				<path id="semicircle_2_" class="st0" d="M325.3,178.8c16.5,4.8,28.1,16.6,27.4,29.7c-0.7,13-13.6,23.5-30.5,26.4
					c-0.3,4.6-0.5,9.2-0.8,13.8c22.9,1.3,42.9-16.5,44.2-39.5c1.3-22.9-16.5-42.9-39.5-44.2C325.9,169.6,325.6,174.2,325.3,178.8z"
					/>
				<path id="rhomb" class="st0" d="M489.5,89c15.3,2.3,30.7,4.6,46,7c3.3,15.3,6.6,30.7,9.9,46c-14.9-2.9-29.7-5.9-44.6-8.8
					C497,118.5,493.3,103.8,489.5,89z"/>
				<path id="rhomb_1_" class="st2" d="M336.4,207.1c-7.1,13.9-14.2,27.7-21.3,41.6c-13.9,0-27.9-0.1-41.8-0.1
					c5.2-14.3,10.4-28.6,15.6-42.9C304.7,206.2,320.5,206.6,336.4,207.1z"/>
			</g>
			<circle id="circle_button" class="st2" cx="616" cy="298.2" r="28.6"/>
		</g>
	</g>
</g>
<g id="general">
	<g id="woman">
		<g id="head">
			<path id="face" class="st5" d="M295.6,263.4c-1.1-7.1-4-14.6-8.3-21.2c0-0.1-0.1-0.1-0.1-0.2c-3-4.7-6.6-9-10.8-12.5
				c-0.5-0.4-0.9-0.8-1.4-1.2c-2,1.6-4.7,3-7.2,3.5c-5.6,1.2-11.7-1-15.8-5.8c-2.9,9.5-17.2,9.5-17.2,9.5
				c2.9,28.6-19.1,31.5-19.1,31.5c-0.1,0.1-0.3,0.3-0.4,0.4c0,2,0,4,0.3,5.9c0.3,2.6,1.1,9.2,4.6,16.5c-0.1,0-0.1-0.1-0.2-0.1
				c0.5,3.4,1.6,15.5,2.6,28.2c15.3-0.1,30.5-0.3,45.8-0.4c0-1.3-0.1-2.4-0.1-3.6c10.3-3.5,16.2-11.3,18.7-14.4
				C298.3,284.6,296.2,267.4,295.6,263.4z"/>
			<path id="nose" d="M269.8,266.6c-0.1,0-0.3-0.1-0.4-0.2c-0.2-0.2-0.1-0.5,0.1-0.7l9.3-7.5l-15.4-15.8c-0.2-0.2-0.2-0.5,0-0.7
				s0.5-0.2,0.7,0l15.8,16.2c0.1,0.1,0.1,0.2,0.1,0.4c0,0.1-0.1,0.3-0.2,0.4l-9.7,7.9C270,266.6,269.9,266.6,269.8,266.6z"/>
			<path id="hair" d="M278.6,222c-0.9-5.7-16.6-10.5-31.8-8.6c9.9-10.3,20.7-24.2,18.9-38c-0.6-5-2.6-7.2-3.6-8.2
				c-6.3-5.7-18.2-1-18.7-0.8c0.3-0.4,7.5-12-9.3-27.1c-17.1-15.4-28.5,12.2-28.5,12.2s-15.1-17.3-28.6,1.9s-2.1,31.4-2.1,31.4
				s-29.1,1.4-28.4,23.5c0.1,4.5,1.9,7.8,2.4,8.5c4,5.7,12.5,7.9,21.7,5.8c-0.7,3.2-1.4,8.9,0.6,15.5c0.9,3.1,2.6,8.7,7.8,13
				c0,0,4.9,4,12,4.8c5.5,0.7,11.5-1.2,17.3-5c-0.1,9.1,6.1,17.1,6.9,16.3c0.2-0.1,22.4-3.3,19.5-31.9c0,0,14.3,0,17.2-9.5
				c4.1,4.8,10.2,7.1,15.8,5.8c2.6-0.6,5.2-1.9,7.2-3.5C277.4,226.4,278.9,224.1,278.6,222z"/>
			<path d="M256.9,315.5c-0.1,0-0.3,0-0.4,0c-4.4,0-8.8-0.6-13.1-1.6c-0.3-0.1-0.4-0.3-0.4-0.6s0.3-0.4,0.6-0.4
				c4.2,1,8.5,1.5,12.8,1.6c4.1,0,8.1-0.4,12.1-1.2c0.3-0.1,0.5,0.1,0.6,0.4s-0.1,0.5-0.4,0.6C264.8,315.1,260.8,315.5,256.9,315.5z
				"/>
			<g id="brows">
				<ellipse transform="matrix(0.9937 -0.1124 0.1124 0.9937 -25.6846 29.829)" cx="251.7" cy="242.7" rx="7.3" ry="1.8"/>
				<ellipse transform="matrix(0.9937 -0.1124 0.1124 0.9937 -25.2451 32.4089)" cx="274.8" cy="240.1" rx="7.3" ry="1.8"/>
			</g>
			<path id="mouth" d="M272.6,276.1c-2.1,0-4.3-0.2-6.4-0.5c-2.6-0.4-5.2-1.1-7.7-2c-0.3-0.1-0.4-0.4-0.3-0.6
				c0.1-0.2,0.4-0.4,0.6-0.3c2.4,0.9,5,1.5,7.6,1.9c3,0.5,6.1,0.6,9.2,0.4c0.3,0,0.5,0.2,0.5,0.5s-0.2,0.5-0.5,0.5
				C274.7,276,273.7,276.1,272.6,276.1z"/>
			<g id="eyes">
				<circle cx="257.1" cy="254.1" r="2.7"/>
				<circle cx="280.2" cy="250.2" r="2.7"/>
			</g>
			<g id="ear">
				<circle class="st5" cx="209" cy="278.1" r="17.3"/>
				<path d="M217.8,287.2c-0.1,0-0.1,0-0.2,0c-2.5-1.1-3.9-2.5-4.2-4.2c-0.3-2.1,1.2-4,2-4.8L200,266.5c-0.2-0.2-0.3-0.5-0.1-0.7
					s0.5-0.3,0.7-0.1l15.8,12c0.1,0.1,0.2,0.2,0.2,0.4s-0.1,0.3-0.2,0.4c0,0-2.5,2.1-2.1,4.3c0.2,1.3,1.4,2.5,3.6,3.4
					c0.3,0.1,0.4,0.4,0.3,0.7C218.2,287.1,218,287.2,217.8,287.2z"/>
			</g>
		</g>
		<g id="legs">
			<g id="pants">
				<path class="st3" d="M377.5,863.2c-11,27.2-26.1,63.4-45.4,105.8l-44.1,2.8l-1.1,0.1l-23.7,1.5c-0.3,0-0.5,0.1-0.8,0.1
					c25-77.2,50-154.5,75-231.8c-13.5-37.5-26.9-75.1-40.4-112.6l-0.5-1.5c0,0.1-0.1,0.3-0.1,0.4c-33,113.6-65.9,227.2-98.9,340.9
					c-0.1,0-0.2,0-0.4,0l-45,2.8l-1,0.1l-22.5,1.4c-0.3,0-0.6,0.1-0.9,0.1c4.7-24.9,33.1-180.9,33.1-180.9l33.1-184.8
					c0.5-0.4,0.8-0.9,1.1-1.5c5.7-13.4,11.7-28.2,11.4-36.8c-0.1-3.9-0.6-7.7-1.2-11.2c6.1-0.7,12.2-1.4,18.3-2.2
					c0.3,0,0.7-0.1,1-0.1c21.2-2.6,42.8-5.4,64.5-8.5c21.4-3,42.4-6.1,63.1-9.4c11.5,23.1,25.3,53.2,38.6,89.4
					c17.6,47.8,26.3,71.7,27.2,98.3C418.4,745.6,416,767.8,377.5,863.2z"/>
				<path class="st2" d="M224.4,555.8c0,0,0,0.1,0,0.2l-72.3,415.8l-1,0.1L223.4,556v-0.1c0-0.3,0.3-0.5,0.6-0.4
					C224.2,555.4,224.4,555.6,224.4,555.8z"/>
				<path class="st2" d="M366.1,739l-78.2,232.7l-1.1,0.1L365,738.9l-68.1-109.8l-0.6-1c0,0,0,0,0-0.1c-0.1-0.2,0-0.5,0.2-0.6
					s0.5-0.1,0.7,0.2l68.9,111C366.1,738.7,366.2,738.9,366.1,739z"/>
			</g>
			<g id="shoes">
				<path class="st2" d="M414.1,1018.1c-3.9-12.6-21.1-16.5-38.4-22.9c-9.9-3.7-22.9-9.3-37.7-18.2c0.8-0.9,1.3-2.2,1.2-3.6
					c-0.2-2.7-2.5-4.8-5.2-4.6l-2,0.1l-68.9,4.3c-0.3,0-0.5,0.1-0.8,0.1c-2.3,0.5-3.9,2.7-3.8,5.1c0.1,1.3,0.7,2.4,1.5,3.2
					c-3.3,13.9-6.5,27.8-9.8,41.8c33,0.6,66,1.4,99,2.1c21.7,0.5,43.5,1,65.2,1.6C415,1025,415.2,1021.7,414.1,1018.1z"/>
				<path class="st6" d="M415.2,1018.7L415.2,1018.7c-1.3,0-129.1-4.2-155.6-5.3c-0.3,0-0.5-0.2-0.5-0.5s0.3-0.5,0.5-0.5
					c26.6,1.1,154.3,5.3,155.6,5.3c0.3,0,0.5,0.2,0.5,0.5S415.5,1018.7,415.2,1018.7z"/>
				<path class="st2" d="M275,1027.1c-2.5-13-19.2-18.7-35.7-27c-9.9-5-23-12.5-37.7-23.9c0.4-0.7,0.7-1.5,0.7-2.4
					c0-0.1,0-0.2,0-0.3c-0.2-2.6-2.3-4.6-4.8-4.6c-0.1,0-0.2,0-0.4,0l-68.4,4.3c-0.3,0-0.6,0.1-0.9,0.1c-2.1,0.6-3.6,2.5-3.6,4.7
					c0,0.1,0,0.2,0,0.3c0.1,1.6,1,3,2.3,3.8l-1.4,7.2l-5.4,28.4l37.4,4.5l117.5,13.9C275.1,1034,275.7,1030.8,275,1027.1z"/>
				<path class="st6" d="M276.1,1027.7C276.1,1027.7,276,1027.7,276.1,1027.7c-1.3-0.2-127.9-18.3-154.2-22.3
					c-0.3,0-0.5-0.3-0.4-0.6c0-0.3,0.3-0.5,0.6-0.4c26.3,4,152.8,22.1,154.1,22.3c0.3,0,0.5,0.3,0.4,0.6
					C276.6,1027.5,276.3,1027.7,276.1,1027.7z"/>
			</g>
		</g>
		<g id="tshirt">
			<path class="st4" d="M192.1,527.6c-1-1.4-1.9-2.7-2.9-4l0,0l-10,9.4l-14,13.1L161,550l0,0c2.9,2,5.6,3.8,8.2,5.4
				c9-7.3,18-14.6,27.1-21.9C195.5,532.4,192.5,528.1,192.1,527.6z"/>
			<path class="st4" d="M278.2,329.5l-61.4,2.6c0.8-4.7,1.5-9.4,2.3-14.1c18.2-0.2,36.4-0.3,54.6-0.5
				C275.2,321.5,276.7,325.5,278.2,329.5z"/>
			<path class="st4" d="M515,328c-0.5,0.8-1,1.6-1.5,2.4c-1.8,2.9-3.5,5.7-5.3,8.5c6.9,1.9,13.8,3.9,20.8,5.8
				c6.9,1.9,13.8,3.7,20.6,5.5c0.7-1.9,1.4-3.8,2-5.7c0.1-0.2,0.1-0.4,0.2-0.6c0-0.1,0.1-0.2,0.1-0.4c0.6-1.9,1.1-3.7,1.5-5.4
				c0-0.2,0.1-0.3,0.1-0.5C540.7,334.3,527.8,331.1,515,328z"/>
			<g id="pattern">
				<g>
					<circle class="st4" cx="215.5" cy="405.2" r="4"/>
					<path class="st4" d="M207.7,336.8c0,2.2-1.8,4-4,4c-1.6,0-3-1-3.6-2.3c2.6-1,5.1-1.9,7.4-2.7
						C207.7,336,207.7,336.4,207.7,336.8z"/>
					<circle class="st4" cx="259.8" cy="350.7" r="4"/>
					<circle class="st4" cx="306" cy="426.2" r="4"/>
					<circle class="st4" cx="251.9" cy="454" r="4"/>
					<circle class="st4" cx="143.4" cy="491.4" r="4"/>
					<circle class="st4" cx="310" cy="493.5" r="4"/>
					<circle class="st4" cx="251.9" cy="529" r="4"/>
					<path class="st4" d="M85.8,450c0,2-1.5,3.7-3.5,3.9l0,0c-0.3-1.9-0.4-3.9-0.5-5.9v-0.2c0-0.6,0-1.2,0-1.8
						C84,446.1,85.8,447.8,85.8,450z"/>
					<path class="st4" d="M199.8,493.4c0,2.2-1.8,4-4,4c-0.1,0-0.3,0-0.4,0l0,0c-0.2-2.6-0.3-5.2-0.5-7.8l0,0
						c0.3-0.1,0.6-0.1,0.9-0.1C198,489.5,199.8,491.3,199.8,493.4z"/>
					<circle class="st4" cx="139.4" cy="401.3" r="4"/>
					<circle class="st4" cx="334.9" cy="372.1" r="4"/>
					<circle class="st4" cx="395.4" cy="416" r="4"/>
					<circle class="st4" cx="465.5" cy="393.3" r="4"/>
					<path class="st4" d="M456.6,437.8c0,0.4,0,0.7-0.2,1.1c0,0.1,0,0.2-0.1,0.3c-1.9,0.6-3.9,1.1-5.9,1.6c-0.1,0-0.3,0.1-0.4,0.1
						c-0.1-0.1-0.2-0.1-0.2-0.2c-0.7-0.7-1.2-1.7-1.2-2.8c0-2.2,1.8-4,4-4S456.6,435.6,456.6,437.8z"/>
					<circle class="st4" cx="518.5" cy="364.2" r="4"/>
				</g>
				<circle class="st4" cx="342.2" cy="529" r="4"/>
			</g>
		</g>
		<g id="hands">
			<g id="hand_r">
				<path class="st5" d="M597.3,296.2c-9.7-1.1-19.3-2.2-29-3.3c-4.4-0.7-10.7-1.5-18.4-1.6c-9.1-0.2-13.7-0.3-16.8,1.4
					c-6.3,3.3-9,10.4-14.4,24.6c-1.7,4.3-2.8,8.1-3.6,10.7c0.8,0.2,18.5,4.6,19.2,4.7c0.8,0.2,18.5,4.6,19.3,4.8
					c1.2-1.8,27.3-25.9,24.7-31.7c-0.3-0.6-0.7-1.1-1.5-1.6c6.4,1,12.7,2,19.1,3.1c3,0.4,5.8-1.7,6.3-4.7
					C602.4,299.5,600.3,296.7,597.3,296.2z M553.6,317.4c-1.5-1.1-3-2.2-4.5-3.4c2.8-1.3,5.6-2.7,8.6-4c4.5-2,8.9-3.8,13.2-5.5
					c-0.1,0.1-0.3,0.2-0.4,0.3L553.6,317.4z"/>
				<path d="M552.7,312.8c-0.2,0-0.4-0.1-0.5-0.3c-0.1-0.3,0-0.5,0.3-0.7l21.1-9.1c0.1,0,0.2-0.1,0.3,0l12.7,2.2
					c0.3,0,0.5,0.3,0.4,0.6c0,0.3-0.3,0.5-0.6,0.4l-12.5-2.2l-21,9C552.8,312.8,552.7,312.8,552.7,312.8z"/>
			</g>
			<g id="hand_l">
				<path class="st5" d="M206.3,569.3c0.3,8.6-5.7,23.4-11.4,36.8c-0.2,0.6-0.6,1.1-1.1,1.5c-1.3,1.2-3.3,1.7-5,0.9l-0.7-0.3
					c-1-0.4-1.8-1.2-2.2-2.1l-1.6,3.7c-1,2.3-3.7,3.5-6.1,2.5l-0.7-0.3c-1.1-0.5-1.9-1.3-2.4-2.4l-1.3,3c-0.5,1.1-1.3,1.9-2.3,2.4
					c-1.2,0.5-2.5,0.6-3.8,0.1l-0.7-0.3c-2.3-1-3.5-3.7-2.5-6.1l0.2-0.3c-1,0.3-2.2,0.3-3.2-0.1l-0.7-0.3c-2.4-1-3.5-3.7-2.5-6.1
					c4.3-10.2,8.7-20.5,13-30.8c-4.5,4-8.9,8.1-13.4,12.1c-1.7,1.9-4.6,2.1-6.5,0.4l-0.6-0.5c-1.9-1.7-2.1-4.6-0.4-6.5
					c6.3-7.1,12.5-14.1,18.8-21.2c9-7.3,18-14.6,27.1-21.9c0.1,0.2,0.4,0.7,0.7,1.3c0.4,0.7,0.8,1.5,1.1,2.2
					c2.9,5.8,5.6,13,7.1,21.1C205.8,561.6,206.2,565.4,206.3,569.3z"/>
				<path d="M186.1,607c-0.1,0-0.1,0-0.2,0c-0.3-0.1-0.4-0.4-0.3-0.6l9.7-25.3c0.1-0.3,0.4-0.4,0.6-0.3c0.3,0.1,0.4,0.4,0.3,0.6
					l-9.7,25.3C186.5,606.8,186.3,607,186.1,607z"/>
				<path d="M175.1,609.8c-0.1,0-0.1,0-0.2,0c-0.3-0.1-0.4-0.4-0.3-0.6l11.1-28.9c0.1-0.3,0.4-0.4,0.6-0.3s0.4,0.4,0.3,0.6
					l-11.1,28.9C175.5,609.7,175.3,609.8,175.1,609.8z"/>
				<path d="M164.6,609.2c-0.1,0-0.1,0-0.2,0c-0.3-0.1-0.4-0.4-0.3-0.6l11.1-28.9c0.1-0.3,0.4-0.4,0.6-0.3c0.3,0.1,0.4,0.4,0.3,0.6
					L165,608.9C165,609.1,164.8,609.2,164.6,609.2z"/>
			</g>
		</g>
	</g>
</g>
<path class="st7" d="M19.5,383.1c-0.8,0.6-1.5,1-2.4,1.5c-8,4.1-15.9,0.4-16.3,0.2c-0.7-0.3-1-1.2-0.7-1.9c0.3-0.7,1.2-1,1.9-0.7
	c0.1,0,7.1,3.3,13.7-0.2c5.4-2.8,9.2-9.1,11.3-18.8c-7.6-1.5-14.5-6.9-17.5-13.9c-0.4-1.1-4.2-10.6,0.8-17.7
	c1.2-1.7,2.6-2.6,3.7-3.2c2.5-1.4,7-1.7,10.8,1.1c4.5,3.2,9,11.2,5.6,31.2c0.5,0,1,0,1.5,0c12.7-0.3,20.2-13.9,21.6-16.7
	c1.8-3.5,3.4-7.8,4.6-12.6c-4.9-2.1-10.4-6.8-13.9-15.1c-3.1-7.3-4.4-18.2-0.6-24.3c1.6-2.6,4.1-4.1,7.1-4.3
	c1.9-0.1,4.8,0.6,7.5,4.7c5,7.5,6.9,22.1,3.5,37.1c0.3,0.1,0.6,0.1,0.9,0.2c6.9,1,14.3-3.3,22-12.7c14.5-17.6,16.6-38.2,16.9-46.2
	c0-0.8,0.7-1.4,1.5-1.4c0.8,0,1.4,0.7,1.4,1.5c-0.3,8.3-2.5,29.7-17.5,48c-8.4,10.3-16.8,14.9-24.7,13.7c-0.4-0.1-0.8-0.1-1.2-0.2
	c-1.2,4.4-2.8,8.8-4.9,13c-1.5,3-9.8,17.9-24.1,18.3c-0.7,0-1.4,0-2.1-0.1C28,372.9,24.5,379.5,19.5,383.1z M14.4,331.7
	c-0.6,0.5-1.1,1-1.6,1.6c-4.2,5.9-0.6,14.5-0.5,14.8c2.5,6,8.7,10.7,15.3,12.1c3.4-19.5-1.3-26.2-4.4-28.4c-2.9-2.1-6.2-1.7-7.7-0.9
	C15.1,331.2,14.7,331.5,14.4,331.7z M47.8,291.7c-0.6,0.5-1.2,1.1-1.7,1.8c-3.1,5-2,14.9,0.8,21.6c2.1,4.9,6.3,10.8,11.9,13.4
	c2.6-12,2.7-25.8-3-34.5c-1.1-1.6-2.8-3.5-4.9-3.4C49.8,290.7,48.7,291.1,47.8,291.7z"/>
<path class="st7" d="M629.4,658.9c1.4-1.1,2.8-2,4.3-2.9c14.6-8.1,29.7-1.6,30.3-1.3c1.4,0.6,2,2.2,1.4,3.6c-0.6,1.4-2.2,2-3.6,1.4
	c-0.1-0.1-13.4-5.7-25.6,1.1c-9.9,5.5-16.6,17.5-19.9,35.7c14.3,2.4,27.5,11.9,33.3,24.8c0.9,2,8.5,19.5-0.4,33
	c-2.1,3.2-4.6,4.9-6.8,6.2c-4.7,2.8-13,3.5-20.2-1.3c-8.5-5.7-17.5-20.4-12.3-57.8c-0.9,0-1.9,0-2.8,0
	c-23.6,1.3-36.9,27.2-39.3,32.3c-3.1,6.6-5.8,14.8-7.8,23.8c9.3,3.6,19.7,12,26.8,27.3c6.2,13.4,9.2,33.8,2.6,45.2
	c-2.9,5-7.4,7.9-13,8.4c-3.6,0.3-8.9-0.9-14.2-8.4c-9.7-13.8-14.1-40.8-8.8-68.9c-0.6-0.1-1.1-0.2-1.7-0.2c-12.9-1.4-26.4,7-40.3,25
	c-26,33.7-28.7,72.2-28.7,87.2c0,1.5-1.2,2.7-2.7,2.7c-1.5,0-2.7-1.2-2.7-2.7c0-15.6,2.9-55.5,29.9-90.5
	c15.1-19.6,30.4-28.7,45.3-27c0.7,0.1,1.4,0.2,2.2,0.3c1.9-8.2,4.7-16.5,8.4-24.5c2.6-5.7,17.2-34,43.9-35.5c1.3-0.1,2.6-0.1,3.9,0
	C614.1,678.5,620.3,666.1,629.4,658.9z M641.9,754.5c1.2-0.9,2.1-1.9,2.9-3.1c7.4-11.2,0.3-27,0-27.7c-5.1-11.1-16.8-19.5-29.3-21.7
	c-5.1,36.6,4,48.8,9.9,52.8c5.6,3.8,11.7,2.8,14.4,1.2C640.6,755.4,641.3,755,641.9,754.5z M581.9,831c1.2-0.9,2.1-2.1,3-3.5
	c5.5-9.5,2.9-28-2.8-40.2c-4.2-9.1-12.4-19.8-22.9-24.2c-4.1,22.5-3.5,48.3,7.7,64.1c2.1,3,5.4,6.4,9.3,6.1
	C578.3,833,580.3,832.3,581.9,831z"/>
</svg>
