<?xml version="1.0" encoding="utf-8"?>
<!-- Generator: Adobe Illustrator 22.1.0, SVG Export Plug-In . SVG Version: 6.00 Build 0)  -->
<svg version="1.1" xmlns="http://www.w3.org/2000/svg" xmlns:xlink="http://www.w3.org/1999/xlink" x="0px" y="0px"
	 viewBox="0 0 1027.7 997.2" style="enable-background:new 0 0 1027.7 997.2;" xml:space="preserve">
<style type="text/css">
	.st0{fill:#D5E0EA;}
	.st1{fill:#FFFFFF;}
	.st2{fill:#F73D9E;}
	.st3{opacity:0.94;fill:#003FFF;}
	.st4{fill:#1F0D60;}
	.st5{fill:#FF0036;}
	.st6{fill:#00B7EA;}
</style>
<g id="background_1_">
	<g id="background">
		<circle id="circle" class="st0" cx="237.3" cy="237.3" r="237.3"/>
		<g id="window">
			<path class="st1" d="M886.5,519.9c-1.9-5-4.7-8.7-7.2-13l0,0c-1.8-2.3-3.5-4.9-4.7-8.2c-4.2-11.6-0.4-23.5,3-31.2
				c-4.2-9.4-9.9-25.4-10.8-46c-0.8-20.1,3.4-36.2,6.8-46c0.1-0.2,0.2-0.5,0.2-0.7c-2.3-4-4.6-9.5-4.5-16c0.2-6.6,2.6-10.1,4.5-16.3
				v-22.3c-0.3-1.3-0.5-2.6-0.8-3.8c-2.3-12.2-0.8-18.1,0-61.8c0.4-20.7,0.6-51.9,0-96.5H137.9v442c0.4-0.1,0.8-0.1,1.2-0.2v203.4
				h449.9c0.8,0,1.4,0.4,1.8,1.1c0.2,0.3,0.2,0.6,0.2,0.9c0,0.1,0,0.2,0,0.3c-0.1,0.7-0.6,1.3-1.2,1.6c0.1,0.2,0.2,0.4,0.3,0.6h283
				c-5.5-66-7.5-114.9-7.2-151.1c0-2.4,0-4.7,0.1-6.9c0-0.3,0-0.6,0-0.9v-0.3c0.5-25.7,4.4-49.7,7.9-72c1.2-3.8,2.4-6.9,3.7-9.5
				C881,560.4,893.8,539.2,886.5,519.9z"/>
			<path class="st2" d="M873.2,254.3h-736c-1.1,0-2-0.9-2-2s0.9-2,2-2h736c1.1,0,2,0.9,2,2S874.3,254.3,873.2,254.3z"/>
			<path class="st2" d="M193.2,229.3c-13.4,0-24.2-10.9-24.2-24.2s10.9-24.2,24.2-24.2s24.2,10.9,24.2,24.2S206.5,229.3,193.2,229.3
				z M193.2,184.8c-11.2,0-20.2,9.1-20.2,20.2s9.1,20.2,20.2,20.2s20.2-9.1,20.2-20.2S204.3,184.8,193.2,184.8z"/>
			<path class="st2" d="M266.8,229.3c-13.4,0-24.2-10.9-24.2-24.2s10.9-24.2,24.2-24.2c13.4,0,24.2,10.9,24.2,24.2
				S280.2,229.3,266.8,229.3z M266.8,184.8c-11.2,0-20.2,9.1-20.2,20.2s9.1,20.2,20.2,20.2c11.2,0,20.2-9.1,20.2-20.2
				S278,184.8,266.8,184.8z"/>
			<path class="st2" d="M340.5,229.3c-6.2,0-12.4-2.4-17.1-7.1c-9.4-9.4-9.4-24.8,0-34.3c9.4-9.4,24.8-9.4,34.3,0
				c9.4,9.4,9.4,24.8,0,34.3C352.9,226.9,346.7,229.3,340.5,229.3z M340.5,184.8c-5.2,0-10.4,2-14.3,5.9c-7.9,7.9-7.9,20.7,0,28.6
				c7.9,7.9,20.7,7.9,28.6,0c7.9-7.9,7.9-20.7,0-28.6C350.9,186.8,345.7,184.8,340.5,184.8z"/>
			<path class="st2" d="M873.2,806.8h-56c-0.8,0-1.5-0.7-1.5-1.5s0.7-1.5,1.5-1.5h54.4c-5-60.6-7.4-111-7.1-149.6
				c0-2.7,0-5.3,0.1-7.8v-0.3c0.6-32.7,3.3-57,8-72.5c1.1-3.7,2.4-7,3.8-9.7c0.3-0.6,0.7-1.3,1.1-2.1c4.2-8,14.1-26.8,7.7-43.8
				c-1.3-3.5-3.1-6.4-5-9.5c-0.7-1.1-1.3-2.1-1.9-3.2c0,0-0.1-0.1-0.1-0.1c-2.2-3.7-4.6-8.4-5.6-15.1c-0.6-4.1-0.6-8.2,0-12.4
				c0.6-4.4,1.9-8.7,3.8-13.3c0.3-0.8,1.2-1.1,2-0.8c0.8,0.3,1.1,1.2,0.8,2c-1.8,4.3-3,8.4-3.6,12.5c-0.6,3.9-0.6,7.8,0,11.6
				c0.9,6.1,3,10.3,5.1,13.9c0,0,0.1,0.1,0.1,0.1c0.6,1.1,1.3,2.2,2,3.2c1.9,3.1,3.9,6.2,5.3,10c6.9,18.3-3.5,37.9-7.9,46.3
				c-0.4,0.8-0.8,1.5-1.1,2.1c-1.3,2.6-2.5,5.7-3.6,9.2c-4.6,15.1-7.3,39.2-7.8,71.6v0.3c0,2.6-0.1,5.2-0.1,7.8
				c-0.3,38.9,2.2,89.6,7.2,150.9c0,0.4-0.1,0.8-0.4,1.1S873.6,806.8,873.2,806.8z"/>
			<path class="st2" d="M875.7,371.2c-2.9-5-4.3-10-4.2-14.9c0.1-4.1,1.2-6.9,2.5-10.2c0.7-1.7,1.3-3.5,2-5.6c2.6-8.8,1.5-16,0-23.3
				l-0.1-0.2c-0.2-1.2-0.5-2.4-0.7-3.6c-1.5-8-1.3-13.3-0.8-29.1c0.2-7.6,0.6-18,0.8-32.3c0.5-28.2,0.5-60.7,0-96.5c0-1.1-0.9-2-2-2
				h-736c-1.1,0-2,0.9-2,2v649.7c0,1.1,0.9,2,2,2h0.8h15.6h1.2h46.4h1.2h45.8h1.2h45.1h1.2h45.9h1.2h44.9h1.2h45.9h1.2H481h1.2h45.8
				h1.2h43.3h1.2h15.4c0.3,0,0.5-0.1,0.8-0.2c0.6-0.3,1.1-0.9,1.2-1.6c0-0.1,0-0.2,0-0.3c0-0.3-0.1-0.7-0.2-0.9
				c-0.3-0.6-1-1.1-1.8-1.1H139.2V157.6h732c0,0.2,0,0.3,0,0.4c0.5,34.8,0.5,66.4,0,94c-0.3,14.3-0.6,24.7-0.8,32.3
				c-0.5,16.1-0.7,21.5,0.9,30c0.2,1.2,0.5,2.4,0.7,3.6l0,0.2c1.4,6.8,2.4,13.5,0,21.3c-0.6,2-1.2,3.6-1.9,5.3
				c-1.3,3.5-2.6,6.8-2.7,11.5c-0.1,5.7,1.5,11.4,4.8,17c0.3,0.5,0.6,1,0.9,1.5c0.2,0.2,0.3,0.4,0.5,0.6c0.6,0.5,1.5,0.5,2.2,0
				c0.9-0.6,1.2-1.8,0.6-2.8C876.3,372.2,876,371.7,875.7,371.2z"/>
		</g>
	</g>
</g>
<g id="general_1_">
	<g id="general">
		<g id="blouse">
			<path class="st3" d="M814.9,759.4c-0.1-0.4-0.1-0.8-0.2-1.2c-1.8-13.9-4.5-28-7.4-42c-0.3-1.3-0.5-2.6-0.8-3.9
				c-0.1-0.4-0.2-0.8-0.3-1.2c0-0.2-0.1-0.4-0.1-0.5c-2.5-11.7-5.3-23.3-8-34.5c-0.8-3.5-1.7-6.9-2.5-10.1c-0.1-0.4-0.2-0.8-0.3-1.2
				c-2.2-8.1-4-14.4-4-14.4c-2.4-8-4.8-15.6-7.2-22.5c-7.8-2.8-15.6-5.6-23.4-8.4c-0.4-0.2-0.8-0.3-1.2-0.4
				c-0.1-0.1-0.3-0.1-0.4-0.2c-1.1-0.4-2.2-0.8-3.3-1.2c-13.9-5-27.8-10-41.6-15c-0.4-0.1-0.8-0.3-1.2-0.4
				c-12.4-4.5-24.9-8.9-37.3-13.4c1.5,7.8,3.4,17.5,5.6,28.8c0.1,0.4,0.2,0.8,0.2,1.2c0.2,1.2,0.5,2.5,0.7,3.7
				c3,15.8,5.7,29.8,8,42.1c0.1,0.4,0.1,0.8,0.2,1.2c3.4,18.3,6.1,33.1,8.2,45.1c0.1,0.4,0.1,0.8,0.2,1.2
				c4.9,28.3,6.3,40.5,6.3,45.9c0,0.5,0,0.8,0,1.2c-0.1,2.1-0.6,2.7-1.1,2.9c-1,0.3-2.1-0.7-3.4-2.9c-0.2-0.4-0.4-0.8-0.7-1.2
				c-4-7.5-9.9-24.4-18.9-45.9c-0.2-0.4-0.3-0.8-0.5-1.2c-3.9-9.1-8.3-18.9-13.4-29.2c-0.4-0.8-0.8-1.6-1.2-2.4
				c-2.3-4.5-4.7-9-7.2-13.5c-0.2-0.4-0.4-0.8-0.7-1.2c-8.5-15.3-18.6-30.9-30.5-45.8c-0.3-0.4-0.6-0.8-1-1.2
				c-1.9-2.3-3.8-4.7-5.8-7c-0.4-0.5-0.8-0.9-1.2-1.4c-0.6-0.7-1.3-1.5-1.9-2.2c-10.6-11.8-22.4-23-35.8-32.8
				c-0.5-0.4-1.1-0.8-1.6-1.2c-1-0.7-2-1.5-3.1-2.2c-1.2-0.8-2.3-1.6-3.5-2.4c-0.4-0.3-0.8-0.5-1.2-0.8
				c-14.7-9.7-29.7-17.1-43.3-22.8c-0.4-0.2-0.8-0.3-1.2-0.5c-3.8-1.6-7.6-3-11.2-4.3c-1.2-0.4-2.4-0.8-3.5-1.2
				c-0.8-0.3-1.6-0.5-2.4-0.8c0.6,11.7,1.2,23.3,1.8,35c0,0.4,0,0.8,0.1,1.2c0.7,14.4,1.5,28.9,2.2,43.3c0,0.4,0,0.8,0.1,1.2
				c0.2,3.2,0.3,6.4,0.5,9.7c0.6,12.1,1.2,24.1,1.9,36.2h-10.3c-8.3-11.8-16.7-23.7-25-35.5c-0.1-0.1-0.1-0.2-0.2-0.2
				c-0.3-0.5-0.7-1-1-1.5c-2-2.9-4-5.8-6.1-8.6c-0.3-0.4-0.6-0.8-0.8-1.2c-10.2-14.4-20.3-28.8-30.5-43.3c-0.3-0.4-0.6-0.8-0.8-1.2
				c-2.3-3.2-4.6-6.5-6.8-9.7c-0.4-0.6-0.8-1.1-1.2-1.7c-8.2-11.7-16.4-23.3-24.7-35c-0.9,0.1-1.9,0.2-2.8,0.3
				c-0.6,0.1-1.2,0.1-1.8,0.2c-0.5,0-0.9,0.1-1.4,0.2c-0.8,0.1-1.6,0.2-2.4,0.3c-0.4,0.1-0.9,0.1-1.3,0.2c-0.7,0.1-1.3,0.2-2,0.3
				c-0.2,0-0.5,0.1-0.7,0.1c-0.5,0.1-0.9,0.1-1.4,0.2c-0.5,0.1-1,0.1-1.4,0.2c-1,0.1-1.9,0.3-2.9,0.5c-1,0.2-2,0.3-3,0.5
				c-0.4,0.1-0.8,0.1-1.2,0.2c-8.7,1.6-18.4,3.9-28.5,7c-5.7,1.8-11.2,3.8-16.5,6c-0.4,0.2-0.8,0.3-1.2,0.5
				c-18.1,7.5-33.3,16.7-45.9,25.6c-0.4,0.3-0.8,0.6-1.2,0.9c-1.5,1.1-3,2.2-4.4,3.2c-0.5,0.4-1.1,0.8-1.6,1.2
				c-10.7,8.2-19.1,15.9-25.3,21.6c-4.9,4.5-9.5,9-13.8,13.5c-0.4,0.4-0.8,0.8-1.2,1.2c-2.2,2.3-4.3,4.6-6.4,6.9
				c-0.4,0.4-0.7,0.8-1.1,1.2c-13.7,15.4-24.7,30.9-33.9,45.8c-0.2,0.4-0.5,0.8-0.7,1.2c-1.3,2.1-2.5,4.1-3.7,6.2
				c-0.4,0.7-0.8,1.4-1.2,2c-7.5,12.9-13.7,25.3-19.3,36.9c-0.2,0.4-0.4,0.8-0.6,1.2c-0.7,1.4-1.3,2.7-2,4.1
				c-7.1,14.6-13,28.7-17.9,41.8c-0.2,0.4-0.3,0.8-0.4,1.2c-2.3,6-4.3,11.9-6.2,17.5c-0.4,1.2-0.8,2.5-1.2,3.7
				c-2.6,8.1-4.8,15.7-6.7,22.7h442.3c0.8,0,1.4,0.4,1.8,1.1c0,0.1,0.1,0.1,0.1,0.2c0.1,0.1,0.1,0.3,0.1,0.5c0,0.1,0,0.2,0,0.2
				c0,0.1,0,0.2,0,0.3c-0.1,0.7-0.6,1.3-1.2,1.6c0.1,0.2,0.2,0.4,0.3,0.6c7.7,17.2,17.7,32.4,29.4,45.2c0.2,0.3,0.5,0.5,0.7,0.8
				c0.1,0.2,0.3,0.3,0.5,0.5c0.2,0.2,0.4,0.5,0.7,0.7c13.1,13.8,28.2,24.8,44.4,32.3c0.4,0.2,0.8,0.4,1.2,0.5
				c14.6,6.5,30.1,10.3,45.9,10.8c0.4,0,0.8,0,1.2,0c0.8,0,1.5,0,2.3,0c5.4,0,23.7,0.1,43.1-6.8c0.4-0.1,0.8-0.3,1.2-0.4
				c11.5-4.2,23.2-10.8,33-21.4c5-5.4,9.1-11.5,12.4-18c0.4-0.8,0.8-1.6,1.2-2.5c5.8-12.5,8.7-26.7,9.7-41.9c0-0.7,0.1-1.4,0.1-2.2
				c0-0.1,0-0.2,0-0.3c0-0.3,0-0.6,0-0.9C817.9,790.1,816.9,774.9,814.9,759.4z"/>
			<g id="pattern">
				<path class="st2" d="M202.3,672.2v131h-1.2v-129C201.5,673.6,201.9,672.9,202.3,672.2z"/>
				<path class="st2" d="M249.4,609.6v193.7h-1.2V610.9C248.6,610.5,249,610,249.4,609.6z"/>
				<path class="st2" d="M154.7,776.9v26.4h-1.2v-22.7C153.9,779.4,154.3,778.1,154.7,776.9z"/>
				<path class="st2" d="M295.7,569.2v234.1h-1.2V570.1C294.9,569.8,295.3,569.5,295.7,569.2z"/>
				<path class="st2" d="M342.7,543.1v260.2h-1.2V543.6C341.9,543.4,342.3,543.3,342.7,543.1z"/>
				<path class="st2" d="M388.9,529.9v273.4h-1.2V530.1C388.1,530,388.5,530,388.9,529.9z"/>
				<path class="st2" d="M435.9,563.6v239.7h-1.2V561.9C435.1,562.5,435.5,563.1,435.9,563.6z"/>
				<path class="st2" d="M482,629.1c0.1,0.1,0.1,0.2,0.2,0.2v174H481V627.6C481.4,628.1,481.7,628.6,482,629.1z"/>
				<path class="st2" d="M529.3,545.2v258.1h-1.2V544.7C528.5,544.9,528.9,545,529.3,545.2z"/>
				<path class="st2" d="M573.7,568.8v234.5h-1.2V568C572.9,568.3,573.3,568.5,573.7,568.8z"/>
				<path class="st2" d="M620.8,610.9V855h-1.2V609.5C620,609.9,620.4,610.4,620.8,610.9z"/>
				<path class="st2" d="M667.1,682v205.8c-0.4-0.2-0.8-0.4-1.2-0.5V679.6C666.3,680.4,666.7,681.2,667.1,682z"/>
				<path class="st2" d="M714.1,602.9v295.8c-0.4,0-0.8,0-1.2,0V602.4C713.3,602.6,713.7,602.7,714.1,602.9z"/>
				<path class="st2" d="M760.7,619.6v272c-0.4,0.2-0.8,0.3-1.2,0.4V619.2C759.9,619.3,760.3,619.4,760.7,619.6z"/>
				<path class="st2" d="M807.3,711.1v138.5c-0.4,0.8-0.8,1.7-1.2,2.5V710.6c0,0.2,0.1,0.4,0.1,0.5H807.3z"/>
				<path class="st2" d="M442.8,573.3c0.3,0.4,0.6,0.8,0.8,1.2H288.5c0.5-0.4,1-0.8,1.6-1.2H442.8z"/>
				<path class="st2" d="M581.9,574.5h-69c0-0.4,0-0.8-0.1-1.2h67.5C580.8,573.7,581.4,574.1,581.9,574.5z"/>
				<path class="st2" d="M474.1,617.8c0.3,0.4,0.6,0.8,0.8,1.2H240.7c0.3-0.4,0.7-0.8,1.1-1.2H474.1z"/>
				<path class="st2" d="M627.5,619H515.1c0-0.4,0-0.8-0.1-1.2h111.5C626.9,618.2,627.2,618.6,627.5,619z"/>
				<path class="st2" d="M759.1,619h-77.7c-0.1-0.4-0.2-0.8-0.2-1.2h74.5C756.9,618.2,758,618.6,759.1,619z"/>
				<path class="st2" d="M658.7,666.1H206c0.2-0.4,0.5-0.8,0.7-1.2H658C658.3,665.3,658.5,665.7,658.7,666.1z"/>
				<path class="st2" d="M795.3,664.9c0.1,0.4,0.2,0.8,0.3,1.2H690.4c-0.1-0.4-0.2-0.8-0.2-1.2H795.3z"/>
				<path class="st2" d="M680.5,711.1c0.2,0.4,0.3,0.8,0.5,1.2H181.2c0.2-0.4,0.4-0.8,0.6-1.2H680.5z"/>
				<path class="st2" d="M807.3,711.1v1.2H698.8c-0.1-0.4-0.1-0.8-0.2-1.2H807.3z"/>
				<path class="st2" d="M699.9,758.2c0.2,0.4,0.5,0.8,0.7,1.2H160.9c0.1-0.4,0.3-0.8,0.4-1.2H699.9z"/>
				<path class="st2" d="M814.9,759.4H705.1c0-0.4,0-0.8,0-1.2h109.7C814.8,758.6,814.9,759,814.9,759.4z"/>
				<path class="st2" d="M817.2,804.4c0,0.3,0,0.6,0,0.9c0,0.1,0,0.2,0,0.3H591.1c0-0.1,0-0.2,0-0.3c0-0.1,0-0.2,0-0.2
					c0-0.2-0.1-0.3-0.1-0.5c0-0.1-0.1-0.2-0.1-0.2H817.2z"/>
				<rect x="619.6" y="853.8" class="st2" width="177.9" height="1.2"/>
			</g>
			<path class="st4" d="M322.3,702.4l-45.9,100.9h-2.1c0-0.1,0-0.3,0.1-0.4l46.1-101.3c0.2-0.5,0.8-0.7,1.3-0.5
				C322.3,701.3,322.5,701.9,322.3,702.4z"/>
		</g>
		<g id="head">
			<path id="hair" class="st4" d="M622.3,458.1c-10.2,30-35,58-23.2,77.4c3.4,5.6,10,12.3,15.9,26.3c2.2,5.1,3.7,11.5,4.2,20.4
				c0.5,9.6-0.2,17.8-1.5,25.1c-10.6-11.8-22.4-23-35.8-32.8c-0.5-0.4-1.1-0.8-1.6-1.2c-1-0.7-2-1.5-3.1-2.2
				c-1.2-0.8-2.3-1.6-3.5-2.4c-0.4-0.3-0.8-0.5-1.2-0.8c-14.7-9.7-29.7-17.1-43.3-22.8c-0.4-0.2-0.8-0.3-1.2-0.5
				c-6-2.5-11.8-4.6-17-6.4c-0.5-9.7-1-19.4-1.5-29.2c21-0.2,41.4-6.6,53.8-22.6c10-12.9,11.6-28.1,11.6-37.8
				c7.4-3.1,14.8-6.1,22.2-9.2c-9-16.5-18-33.1-27-49.6c1-4.4,4.2-20.8-0.3-40.3c-17.9-3-38.6-17.3-53-42.7
				c-1.3,9.3-7.9,49.2-43.7,78.2c-10.2,8.2-20.7,14-31.1,18c-6-12-17.8-20.9-32.2-22.7c-22.9-2.8-43.8,13.4-46.6,36.3
				c-2.9,22.9,13.4,43.8,36.3,46.6c3.3,0.4,6.5,0.4,9.7,0.1c0.3,21.1,0.5,42.3,0.8,63.5c-5.8,0.6-13.1,1.5-21.2,3
				c-0.4,0.1-0.8,0.1-1.2,0.2c-8.7,1.6-18.4,3.9-28.5,7c-5.7,1.8-11.2,3.8-16.5,6c-0.4,0.2-0.8,0.3-1.2,0.5
				c-18.1,7.5-33.3,16.7-45.9,25.6c-0.4,0.3-0.8,0.6-1.2,0.9c-1.5,1.1-3,2.2-4.4,3.2c-0.5,0.4-1.1,0.8-1.6,1.2
				c-10.7,8.2-19.1,15.9-25.3,21.6c-4.9,4.5-9.5,9-13.8,13.5c-0.4,0.4-0.8,0.8-1.2,1.2c-2.2,2.3-4.3,4.6-6.4,6.9
				c-0.4,0.4-0.7,0.8-1.1,1.2c-13.7,15.4-24.7,30.9-33.9,45.8c-0.2,0.4-0.5,0.8-0.7,1.2c-1.3,2.1-2.5,4.1-3.7,6.2
				c-0.4,0.7-0.8,1.4-1.2,2c-7.5,12.9-13.7,25.3-19.3,36.9c-0.2,0.4-0.4,0.8-0.6,1.2c-0.7,1.4-1.3,2.7-2,4.1
				c-7.1,14.6-13,28.7-17.9,41.8c-0.2,0.4-0.3,0.8-0.4,1.2c-2.3,6-4.3,11.9-6.2,17.5c-0.4,1.2-0.8,2.5-1.2,3.7
				c-2.6,8.1-4.8,15.7-6.7,22.7h-7.6V599.9c28.5-4.5,58-11.9,76-23.8c44-29,1-90,24-142c4.2-9.5,8.9-16.1,14.2-21.2
				c19.9-19,36.9-19.6,54.3-30.8c27.5-17.7,17.5-42.1,39.4-69.1c13.1-16,31.3-25.4,50.4-30.7c10.4-14.6,23.3-26.7,38.4-35.4
				c40-23.1,81.9-14.8,88-13.5c38.9,8.2,86.4,38.7,86.7,75.9c0.1,9-2.6,19.6-8.2,27.7C625.1,370.5,635.7,418.4,622.3,458.1z"/>
			<g id="face_1_">
				<path class="st5" d="M570.2,390c1-4.4,4.2-20.8-0.3-40.3c-17.9-3-38.6-17.3-53-42.7c-1.3,9.3-7.9,49.2-43.7,78.2
					c-0.6,0.5-1.1,0.9-1.7,1.3c-0.6,0.4-1.1,0.9-1.7,1.3c-0.6,0.4-1.1,0.8-1.7,1.3c-0.5,0.4-1,0.7-1.5,1.1c-0.6,0.4-1.2,0.8-1.8,1.2
					c-0.5,0.3-0.9,0.6-1.4,0.9c-0.6,0.4-1.2,0.8-1.8,1.2c-0.7,0.4-1.3,0.8-2,1.2c0,0-0.1,0-0.1,0.1c-0.6,0.4-1.2,0.7-1.8,1.1
					c-0.7,0.4-1.3,0.7-2,1.1c-0.6,0.3-1.2,0.7-1.9,1c-0.1,0-0.2,0.1-0.3,0.1c0,0,0,0-0.1,0c0,0-0.1,0-0.1,0c-0.1,0-0.2,0.1-0.3,0.1
					c-0.4,0.2-0.9,0.5-1.3,0.7c-0.6,0.3-1.3,0.7-2,1c-0.7,0.3-1.3,0.6-2,0.9c-0.7,0.3-1.3,0.6-2,0.9c-1.3,0.6-2.6,1.1-3.9,1.6
					c-7.9,3.1-15.7,5.1-23.1,6.4c0.3,3.7,0.5,7.5,0.5,11.6c0,0.9,0,1.8,0,2.7c-0.1,11.6-1.1,24.4-2.8,37.7c-1.1-0.5-2.2-0.9-3.3-1.4
					c-1.4-0.6-2.8-1.1-4.1-1.7c0,1.6,0,3.3,0.1,4.9c0.1,6.8,0.2,13.6,0.3,20.5c0.2,14.3,0.4,28.7,0.5,43c8.2,11.7,16.4,23.3,24.7,35
					c0.4,0.6,0.8,1.1,1.2,1.7c2.3,3.2,4.6,6.5,6.8,9.7c0.3,0.4,0.6,0.8,0.8,1.2c10.2,14.4,20.3,28.9,30.5,43.3
					c0.3,0.4,0.6,0.8,0.8,1.2c2,2.9,4.1,5.8,6.1,8.6c0.3,0.5,0.7,1,1,1.5c0.1,0.1,0.1,0.2,0.2,0.2c8.3,11.8,16.7,23.7,25,35.5
					c0.3,0.4,0.6,0.8,0.8,1.2c3.4,4.8,6.8,9.7,10.2,14.5c-0.2-4.8-0.5-9.7-0.7-14.5c0-0.4,0-0.8-0.1-1.2
					c-0.6-12.1-1.2-24.1-1.9-36.2c-0.2-3.2-0.3-6.4-0.5-9.7c0-0.4,0-0.8-0.1-1.2c-0.7-14.4-1.5-28.8-2.2-43.3c0-0.4,0-0.8-0.1-1.2
					c-0.6-11.7-1.2-23.3-1.8-35c-0.5-9.7-1-19.4-1.5-29.2h-0.4c0.6,0,1.1,0,1.7,0c0.7,0,1.4,0,2.1-0.1c0.7,0,1.4-0.1,2.1-0.1
					c0.3,0,0.7,0,1-0.1c0.1,0,0.2,0,0.3,0c0.1,0,0.2,0,0.4,0c0.1,0,0.2,0,0.3,0c0.6,0,1.3-0.1,1.9-0.2c0.7-0.1,1.3-0.1,1.9-0.2
					c0.2,0,0.4-0.1,0.7-0.1c0.2,0,0.4-0.1,0.7-0.1c0.6-0.1,1.2-0.2,1.8-0.3c0.5-0.1,1.1-0.2,1.6-0.3c0.1,0,0.1,0,0.2,0
					c0.4-0.1,0.8-0.1,1.2-0.2c0.8-0.2,1.6-0.3,2.4-0.5c0.4-0.1,0.9-0.2,1.3-0.3c1.3-0.3,2.6-0.7,3.8-1c0.5-0.2,1.1-0.3,1.6-0.5
					c0.6-0.2,1.2-0.4,1.8-0.6c0.6-0.2,1.2-0.4,1.8-0.6c0.6-0.2,1.2-0.5,1.7-0.7s1.1-0.5,1.7-0.8c0.6-0.2,1.1-0.5,1.7-0.8
					c0.6-0.3,1.3-0.7,1.9-1c0.3-0.2,0.7-0.4,1-0.6c0.3-0.2,0.6-0.3,0.9-0.5c0.3-0.2,0.7-0.4,1-0.6c0.5-0.3,1-0.6,1.5-1
					c0.5-0.3,1-0.7,1.5-1c0.4-0.3,0.9-0.6,1.3-1c0.1-0.1,0.1-0.1,0.2-0.2c0,0,0.1-0.1,0.2-0.1c0.4-0.3,0.8-0.6,1.1-0.9
					c0.1-0.1,0.2-0.2,0.3-0.2c0.4-0.3,0.8-0.7,1.2-1c0.5-0.4,0.9-0.8,1.4-1.2c0.4-0.4,0.9-0.9,1.3-1.3c0.3-0.3,0.7-0.7,1-1
					c0.2-0.3,0.5-0.5,0.7-0.8c0,0,0,0,0.1-0.1c0,0,0.1-0.1,0.1-0.1c0,0,0.1-0.1,0.1-0.1c0.2-0.2,0.4-0.5,0.6-0.7
					c0,0,0.1-0.1,0.1-0.1c0.3-0.4,0.6-0.8,1-1.2c10-12.9,11.6-28.1,11.6-37.8c7.4-3.1,14.8-6.1,22.2-9.2
					C588.2,423.1,579.2,406.5,570.2,390z"/>
				<path d="M498.5,508.4C498.5,508.4,498.5,508.4,498.5,508.4c-9.8,0.6-19.5-0.8-28.8-4.2c-18.6-6.7-30.9-19.6-37.9-29.3
					c-0.3-0.4-0.3-1.1,0.1-1.4c0.4-0.3,0.9-0.3,1.3,0.2c6.9,9.4,19,22.1,37.1,28.6c9,3.3,18.5,4.6,28.1,4.1c0.5,0,0.9,0.4,1,0.9
					C499.4,507.8,499,508.3,498.5,508.4z"/>
			</g>
			<path id="mouth" d="M555.3,469.5c-0.9,0-1.8-0.2-2.7-0.5c-4.1-1.6-6.1-6.6-4.3-11.1l0,0c0.8-2.2,2.4-3.9,4.4-4.9
				c2-1,4.3-1.2,6.3-0.4c4.1,1.6,6.1,6.6,4.3,11.1C561.9,467.2,558.7,469.5,555.3,469.5z M550.2,458.6c-1.4,3.5,0.1,7.3,3.2,8.5
				c3.1,1.2,6.7-0.7,8.1-4.2c1.4-3.5-0.1-7.3-3.2-8.5c-1.5-0.6-3.1-0.5-4.6,0.3C552.1,455.5,550.9,456.9,550.2,458.6L550.2,458.6z"
				/>
			<path id="cheek" d="M514.9,483.6c-0.3,0-0.7-0.2-0.9-0.5c-0.3-0.5-0.1-1.1,0.4-1.4c11.8-6.7,18.3-14.5,19.3-23.2
				c1.5-12.7-9.4-23.2-9.5-23.3c-0.4-0.4-0.4-1,0-1.4c0.4-0.4,1-0.4,1.4,0c0.5,0.5,11.7,11.2,10.1,25c-1.1,9.4-7.9,17.7-20.3,24.7
				C515.2,483.5,515.1,483.6,514.9,483.6z"/>
			<circle id="eye" cx="554.3" cy="391.6" r="6.4"/>
			
				<ellipse id="brow" transform="matrix(0.9694 -0.2455 0.2455 0.9694 -72.5647 144.9854)" cx="545.3" cy="363.5" rx="18.2" ry="4.4"/>
			<g id="ear">
				<path class="st5" d="M442.1,403.2c-6-12-17.8-20.9-32.2-22.7c-22.9-2.8-43.8,13.4-46.6,36.3c-2.9,22.9,13.4,43.8,36.3,46.6
					c3.3,0.4,6.5,0.4,9.7,0.1c18.8-2,34.5-16.8,36.9-36.4C447.3,418.6,445.7,410.3,442.1,403.2z"/>
				<path d="M415.7,446c-0.1,0-0.2,0-0.3,0c-6.4-2-10.1-8.6-8.5-14.8c1.3-5,5.6-8.6,10.7-9.1l-23.6-27.6c-0.4-0.4-0.3-1.1,0.1-1.4
					c0.4-0.4,1.1-0.3,1.4,0.1l25,29.2c0.3,0.3,0.3,0.7,0.1,1.1c-0.2,0.4-0.6,0.6-1,0.6c-5.1-0.3-9.6,3-10.8,7.7
					c-1.3,5.2,1.9,10.8,7.2,12.5c0.5,0.2,0.8,0.7,0.6,1.3C416.5,445.7,416.1,446,415.7,446z"/>
			</g>
			<polygon id="earring" class="st6" points="411.1,454.2 389.7,476.2 424.7,489.8 			"/>
		</g>
		<path id="chaplet" class="st4" d="M515.6,530c-4.9-4.9-12.9-4.9-17.8,0c-1.6,1.6-2.6,3.4-3.2,5.4c-0.6-1.3-1.4-2.5-2.5-3.6
			c-4.9-4.9-12.9-4.9-17.8,0c-1.4,1.4-2.4,3-3,4.7c-0.6-1.7-1.6-3.3-3-4.7c-4.9-4.9-12.9-4.9-17.8,0c-1.4,1.4-2.4,3.1-3,4.9
			c-0.4-2.5-1.6-4.8-3.5-6.7c-4.9-4.9-12.9-4.9-17.8,0c-0.4,0.4-0.8,0.9-1.2,1.4c0.3-3.5-0.9-7.1-3.6-9.8c-4.9-4.9-12.9-4.9-17.8,0
			s-4.9,12.9,0,17.8s12.9,4.9,17.8,0c0.4-0.4,0.8-0.9,1.2-1.4c-0.3,3.5,0.9,7.1,3.6,9.8c4.9,4.9,12.9,4.9,17.8,0
			c1.4-1.4,2.4-3.1,3-4.9c0.4,2.5,1.6,4.8,3.5,6.7c4.9,4.9,12.9,4.9,17.8,0c1.4-1.4,2.4-3,3-4.7c0.6,1.7,1.6,3.3,3,4.7
			c4.9,4.9,12.9,4.9,17.8,0c1.6-1.6,2.6-3.4,3.2-5.4c0.6,1.3,1.4,2.5,2.5,3.6c4.9,4.9,12.9,4.9,17.8,0
			C520.5,542.9,520.5,534.9,515.6,530z"/>
		<g id="hand">
			<path class="st5" d="M864.3,517.4c-2-5.4-8.1-8.2-13.5-6.2l-33.3,12.4l33.1-27.8c4.4-3.7,5-10.4,1.3-14.8
				c-3.6-4.4-10.1-5-14.6-1.5c1.1-3.4,0.6-7.2-1.9-10.1c-3.7-4.4-10.4-5-14.8-1.3l-32.8,27.5c-0.1,0-0.2,0.1-0.3,0.1l-23.9,8.9
				c0.6-0.3,10.5-5.9,12-7.5l25.4-27.1c4-4.2,3.7-10.9-0.5-14.9c-4.2-4-10.9-3.7-14.9,0.5l-23.4,24.9c-0.1,0-0.2,0.1-0.3,0.1
				c-41,18.1-61.5,27.2-72.6,42.6c-17.1,23.9-14.8,57-13.9,65.6v0c36.2,13,72.3,26,108.5,39c-4.2-16.8-8.4-33.6-12.5-50.4
				c0.5-0.1,1-0.2,1.5-0.2c10.1-1.7,41.6-8.8,41.6-8.8c3.1-0.5,5.7-2.3,7.2-4.8c1.3-2.1,2-4.6,1.5-7.2c-0.9-5.7-6.3-9.7-12-8.8
				l0.1-0.1c1.1,0,46.5-16.6,46.5-16.6C863.5,528.9,866.3,522.8,864.3,517.4z"/>
			<path d="M771,518.4c-0.4,0-0.8-0.3-0.9-0.7c-0.2-0.5,0.1-1.1,0.6-1.3l33.4-11.2l32.7-26.5c0.4-0.3,1.1-0.3,1.4,0.1
				c0.3,0.4,0.3,1.1-0.1,1.4l-32.8,26.6c-0.1,0.1-0.2,0.1-0.3,0.2l-33.5,11.2C771.2,518.4,771.1,518.4,771,518.4z"/>
			<path d="M776.5,551.9c-0.5,0-0.9-0.4-1-0.9c-0.1-0.5,0.4-1,0.9-1.1l35-3.3c0.5-0.1,1,0.4,1.1,0.9c0.1,0.5-0.4,1-0.9,1.1
				L776.5,551.9C776.6,551.9,776.5,551.9,776.5,551.9z"/>
			<path d="M708,563.8c-0.2,0-0.4-0.1-0.5-0.2c-0.5-0.3-0.6-0.9-0.3-1.4c16.2-24.5,45.3-15.6,45.6-15.5c0.5,0.2,0.8,0.7,0.6,1.3
				c-0.2,0.5-0.7,0.8-1.3,0.6c-0.3-0.1-28-8.6-43.3,14.7C708.7,563.6,708.3,563.8,708,563.8z"/>
		</g>
		<g id="stars">
			<path class="st2" d="M964.5,552.1c-11.9-5.1-23.8-10.2-35.7-15.3c10-2.3,20-4.6,30-6.8c-5.5-8.9-11.1-17.9-16.6-26.8
				c9.6,4.3,19.2,8.6,28.8,12.9c1.7-9.6,3.5-19.2,5.2-28.7c4,10.2,8,20.3,12,30.5c9.5-3.8,19-7.7,28.5-11.5c-5.9,9-11.9,18-17.8,27
				c9.6,5.2,19.3,10.4,28.9,15.6c-10.3,1.1-20.5,2.2-30.8,3.4c1.7,9.6,3.4,19.1,5,28.7c-7.7-6.8-15.4-13.7-23.1-20.5
				c-6,7.4-11.9,14.8-17.9,22.2C962.2,572.5,963.3,562.3,964.5,552.1z"/>
			<path class="st2" d="M884,892.8c-18.5,34.8-36.9,69.6-55.4,104.4c-3-33-5.9-66-8.9-99.1c-27.1,12.4-54.1,24.8-81.2,37.2
				c15.4-28,30.8-55.9,46.2-83.9c-26.4-11-52.8-22-79.1-32.9c30-6.8,60.1-13.6,90.1-20.5c-7.6-32.3-15.1-64.6-22.7-96.9
				c23.3,24,46.5,48,69.8,71.9c18-27.5,36-55.1,54-82.6c-0.4,33.1-0.8,66.2-1.2,99.4c27.5,0.2,55.1,0.3,82.6,0.5
				c-21.9,20.4-43.8,40.9-65.7,61.3c18.8,23.1,37.5,46.2,56.3,69.3C940.6,911.6,912.3,902.2,884,892.8z"/>
			<path class="st2" d="M876.3,431.3c-6.2,4.8-12.4,9.6-18.5,14.4c1.7-6,3.5-11.9,5.2-17.9c-6.3,0.3-12.7,0.6-19,0.9
				c5.1-3.8,10.2-7.6,15.2-11.4c-4.5-3.7-9.1-7.4-13.6-11.2c6.5,0.9,13.1,1.7,19.6,2.6c0.8-6.1,1.5-12.3,2.3-18.4
				c3,5.8,6,11.5,9,17.3c5.6-3.6,11.1-7.1,16.7-10.7c-2.4,5.7-4.8,11.5-7.2,17.2c5.5,1.9,11.1,3.8,16.6,5.7
				c-5.9,2.1-11.7,4.1-17.6,6.2c2.2,5.3,4.3,10.6,6.5,15.9C886.3,438.4,881.3,434.8,876.3,431.3z"/>
		</g>
		<g id="air_line">
			<path class="st0" d="M914.7,774.3c-0.3,0-0.6-0.1-0.8-0.2c-0.7-0.5-0.9-1.4-0.4-2.1c4.8-7.4,9.5-14.9,13.9-22.2
				c0.4-0.7,1.3-0.9,2.1-0.5c0.7,0.4,0.9,1.3,0.5,2.1c-4.4,7.3-9.1,14.8-13.9,22.2C915.7,774,915.2,774.3,914.7,774.3z"/>
			<path class="st0" d="M941.7,726.8c-0.2,0-0.5-0.1-0.7-0.2c-0.7-0.4-1-1.3-0.6-2c4.8-8.8,9.3-17.6,13.4-26.2
				c0.4-0.7,1.3-1.1,2-0.7c0.7,0.4,1.1,1.3,0.7,2c-4.1,8.6-8.7,17.5-13.5,26.3C942.8,726.6,942.3,726.8,941.7,726.8z"/>
			<path class="st0" d="M965.6,672.2c-0.2,0-0.4,0-0.6-0.1c-0.8-0.3-1.1-1.2-0.8-2c4.5-10.9,8.4-21.8,11.6-32.3
				c0.2-0.8,1.1-1.2,1.9-1c0.8,0.2,1.2,1.1,1,1.9c-3.3,10.6-7.2,21.5-11.7,32.6C966.7,671.8,966.2,672.2,965.6,672.2z"/>
			<path class="st0" d="M981.7,613.8c-0.1,0-0.2,0-0.3,0c-0.8-0.2-1.3-0.9-1.2-1.8c1.7-8.9,2.9-17.8,3.6-26.3
				c0.1-0.8,0.8-1.4,1.6-1.4c0.8,0.1,1.4,0.8,1.4,1.6c-0.7,8.6-1.9,17.6-3.7,26.6C983,613.3,982.4,613.8,981.7,613.8z"/>
			<path class="st0" d="M930.8,455.6c-0.4,0-0.8-0.2-1.1-0.5c-5.5-5.8-11.6-11.4-18.1-16.7c-0.6-0.5-0.7-1.5-0.2-2.1
				c0.5-0.6,1.5-0.7,2.1-0.2c6.6,5.3,12.8,11.1,18.4,17c0.6,0.6,0.5,1.6-0.1,2.1C931.5,455.4,931.1,455.6,930.8,455.6z"/>
			<path class="st0" d="M958,495.2c-0.5,0-1-0.3-1.3-0.7c-4-6.9-8.6-13.8-13.7-20.4c-0.5-0.7-0.4-1.6,0.3-2.1
				c0.7-0.5,1.6-0.4,2.1,0.3c5.2,6.7,9.9,13.7,14,20.7c0.4,0.7,0.2,1.6-0.5,2C958.5,495.1,958.2,495.2,958,495.2z"/>
			<path class="st0" d="M807.5,437c-0.3,0-0.7-0.1-1-0.3c-0.6-0.5-0.7-1.5-0.2-2.1c4.1-5,9.1-9,14.8-12.1c6-3.1,12.7-5.1,19.4-5.6
				c0.8,0,1.5,0.6,1.6,1.4c0.1,0.8-0.6,1.5-1.4,1.6c-6.3,0.5-12.6,2.3-18.2,5.2c-5.4,2.8-10,6.6-13.9,11.3
				C808.4,436.8,808,437,807.5,437z"/>
			<path class="st0" d="M772.1,477.1c-0.2,0-0.4,0-0.6-0.1c-0.8-0.3-1.1-1.2-0.8-2c2.2-5,5-9.8,8.2-14.2c4.5-6.2,9.8-11.7,15.9-16.3
				c0.7-0.5,1.6-0.4,2.1,0.3c0.5,0.7,0.4,1.6-0.3,2.1c-5.8,4.5-11,9.8-15.3,15.7c-3.1,4.3-5.7,8.9-7.9,13.7
				C773.2,476.8,772.7,477.1,772.1,477.1z"/>
			<path class="st0" d="M737.6,521.4c-0.7,0-1.3-0.4-1.4-1.1c-0.2-0.8,0.2-1.6,1-1.9c5.2-1.5,12.7-4.8,18.9-12
				c3.5-4.2,6.2-9.2,7.7-14.5c0.2-0.8,1.1-1.3,1.8-1c0.8,0.2,1.3,1,1,1.8c-1.6,5.8-4.5,11.2-8.3,15.7c-6.7,7.8-14.7,11.4-20.3,13
				C737.9,521.4,737.8,521.4,737.6,521.4z"/>
			<path class="st0" d="M703.3,526.5c-0.3,0-0.5,0-0.8,0c-7.5-0.1-15-1.1-22.3-3.1c-0.8-0.2-1.3-1-1-1.8c0.2-0.8,1-1.3,1.8-1
				c7,1.9,14.3,2.9,21.5,3c5.9,0,11.9-0.5,17.6-1.7c0.8-0.2,1.6,0.4,1.8,1.2c0.2,0.8-0.4,1.6-1.2,1.8
				C715,525.9,709.1,526.5,703.3,526.5z"/>
			<path class="st0" d="M661,520.2c-0.1,0-0.2,0-0.3,0c-5.4-1.1-10.7-2.7-15.7-5c-6.4-2.8-12.3-6.5-17.7-11
				c-0.6-0.5-0.7-1.5-0.2-2.1c0.5-0.6,1.5-0.7,2.1-0.2c5.2,4.3,10.9,7.8,17,10.5c4.8,2.1,9.9,3.7,15.1,4.8c0.8,0.2,1.3,1,1.2,1.8
				C662.3,519.7,661.7,520.2,661,520.2z"/>
			<path class="st0" d="M609.8,494.7c-0.3,0-0.6-0.1-0.9-0.3l-27.6-20.6c-0.7-0.5-0.8-1.4-0.3-2.1c0.5-0.7,1.4-0.8,2.1-0.3
				l27.6,20.6c0.7,0.5,0.8,1.4,0.3,2.1C610.8,494.5,610.3,494.7,609.8,494.7z"/>
		</g>
		<g id="tshirt">
			<path class="st1" d="M518.3,680.6c-12.1-17.1-24.2-34.3-36.3-51.5c11.1-0.1,23-0.2,33.6-0.4C516.5,646,517.4,663.3,518.3,680.6z"
				/>
			<path class="st4" d="M518.3,681.6c-0.3,0-0.6-0.2-0.8-0.4l-83-117.8c-0.3-0.5-0.2-1.1,0.2-1.4c0.5-0.3,1.1-0.2,1.4,0.2l81,115
				l-5.1-103.2c0-0.6,0.4-1,0.9-1c0.5,0,1,0.4,1,1l5.3,106.7c0,0.4-0.3,0.8-0.7,1C518.5,681.5,518.4,681.6,518.3,681.6z"/>
		</g>
	</g>
</g>
</svg>
