<?xml version="1.0" encoding="utf-8"?>
<!-- Generator: Adobe Illustrator 22.1.0, SVG Export Plug-In . SVG Version: 6.00 Build 0)  -->
<svg version="1.1" xmlns="http://www.w3.org/2000/svg" xmlns:xlink="http://www.w3.org/1999/xlink" x="0px" y="0px"
	 viewBox="0 0 634 750" style="enable-background:new 0 0 634 750;" xml:space="preserve">
<style type="text/css">
	.st0{fill:#DDF1F1;}
	.st1{fill:#FF1EAD;}
	.st2{fill:#1F0000;}
	.st3{fill:#FFFFFF;}
	.st4{fill:#FFB800;}
	.st5{fill:#290060;}
	.st6{fill:#8C1DF1;}
	.st7{fill:#1F0D60;}
</style>
<g id="background_1_">
	<g id="background">
		<path id="semicircle_2_" class="st0" d="M379.8,511.8c84.7,18.2,169.5,36.4,254.2,54.6c-15,69.7-84.7,114.8-154.4,99.8
			S364.8,581.5,379.8,511.8z"/>
		<path id="semicircle_1_" class="st0" d="M1.7,110.9c72.6,12.9,145.2,25.8,217.8,38.8c-10.6,59.7-68.5,100.1-128.3,89.5
			C31.5,228.5-8.9,170.6,1.7,110.9z"/>
	</g>
</g>
<g id="general_1_">
	<g id="general">
		<g id="hand_r">
			<path class="st1" d="M531.9,98.5c-0.5-0.3-1.1-0.4-1.6-0.5l3.2-2.4c1.4-1,2.2-2.6,2.2-4.3c0-1-0.3-2-0.9-2.9
				c-1.1-1.6-2.9-2.3-4.6-2.2l1.4-1c2.3-1.7,2.8-4.9,1.3-7.2c-1.6-2.3-4.7-2.9-7-1.2l-0.7,0.5c1-1.7,1-4-0.1-5.7
				c-1.6-2.3-4.7-2.9-7-1.2l-27.6,20.1h0l-11,1.4l9.3-10.1c1.9-2.1,1.8-5.4-0.1-7.3c-0.4-0.4-0.8-0.7-1.3-0.9
				c-1.9-0.9-4.3-0.5-5.8,1.1c-4.9,3.9-11.6,10-17.7,19.2c-7.5,11.4-16.9,45.5-20.7,55.6c-15.1,40.6-20.4,43.6-23.8,43.9
				c-0.4,0-0.8,0-1.2,0c0,0,0,0-0.1,0c-9.5-1.3-33.3-31.6-49.2-43.7c-6.1-4.7-15.2-10.7-27.6-16.2c6.3,21.4,12.3,44.4,17.5,69
				c1,4.9,2,9.7,3,14.5c4.1,8.5,9.6,15.9,16.2,21.8c1.2,1.1,2.5,2.1,3.8,3.1c6.5,4.9,13.8,8.3,21.5,10c1.5,0.3,2.9,0.6,4.4,0.8
				c4,0.5,7.9,0.6,11.5,0.2c15.1-1.4,26-9.2,29.4-11.7c0,0,24.9-14.9,43-81.8c1.2-4.3,2.2-8.8,2.2-8.8c0.6-2.5,1-4.1,1-4.1
				c1-4.5,1.9-9.2,2.7-14.2c0.4-2.4,0.7-4.6,1-6.9c2-0.8,4.9-2,8.3-3.4c15.1-6,20.8-10.4,25.8-14.3c2.2-1.7,2.6-5,1-7.3
				C533.2,99.3,532.6,98.8,531.9,98.5z"/>
			<path class="st2" d="M476.5,114.2c-0.1,0-0.3-0.1-0.4-0.2c-0.2-0.2-0.2-0.5,0.1-0.7c3.6-3.1,5-6.9,4.2-11.4
				c-0.6-3.4-2.3-5.9-2.3-5.9c-0.2-0.2-0.1-0.5,0.1-0.7c0.2-0.2,0.5-0.1,0.7,0.1c0.1,0.1,7.2,10.6-2,18.6
				C476.7,114.2,476.6,114.2,476.5,114.2z"/>
			<path class="st2" d="M499.6,95.2c-0.2,0-0.3-0.1-0.4-0.2c-0.2-0.2-0.1-0.5,0.1-0.7l25.6-17.4c0.2-0.2,0.5-0.1,0.7,0.1
				c0.2,0.2,0.1,0.5-0.1,0.7l-25.6,17.4C499.8,95.2,499.7,95.2,499.6,95.2z"/>
			<path class="st2" d="M504.5,102.6c-0.2,0-0.3-0.1-0.4-0.2c-0.1-0.2-0.1-0.5,0.2-0.7l25.7-15.8c0.2-0.1,0.5-0.1,0.7,0.2
				c0.1,0.2,0.1,0.5-0.2,0.7l-25.7,15.8C504.7,102.6,504.6,102.6,504.5,102.6z"/>
			<path class="st2" d="M506,112.6c-0.2,0-0.3-0.1-0.4-0.3c-0.1-0.2-0.1-0.5,0.2-0.7l24.3-14c0.2-0.1,0.5-0.1,0.7,0.2
				c0.1,0.2,0.1,0.5-0.2,0.7l-24.3,14C506.1,112.5,506,112.6,506,112.6z"/>
		</g>
		<g id="window_bag_2">
			<path class="st3" d="M351.8,258.5v38.5c0.5,0,1-0.1,1.5-0.1c1.2-0.1,2.4-0.2,3.6-0.3c1.4,2.1,2.7,4.2,4,6.3
				c1.3,2,2.6,4.1,3.8,6.1c13.4,21.4,24.4,40.2,32.8,55.4c15,26.8,25.1,47.3,32,63.8c0.2,0.5,0.4,1,0.6,1.5h99.4V258.5H351.8z"/>
			<path class="st4" d="M529.6,257H351.8c-0.8,0-1.5,0.7-1.5,1.5v38.7c0.5-0.1,1-0.1,1.5-0.2s1-0.1,1.5-0.1V260h174.8v168.1h-98.5
				c0.2,0.5,0.4,1,0.6,1.5c0.2,0.5,0.4,1,0.6,1.5h98.8c0.8,0,1.5-0.7,1.5-1.5V258.5C531.1,257.7,530.4,257,529.6,257z"/>
			<path class="st4" d="M529.6,287.8H351.8c-0.8,0-1.5-0.7-1.5-1.5s0.7-1.5,1.5-1.5h177.8c0.8,0,1.5,0.7,1.5,1.5
				S530.4,287.8,529.6,287.8z"/>
			<path class="st4" d="M373.6,281.2c-4.5,0-8.1-3.6-8.1-8.1s3.6-8.1,8.1-8.1s8.1,3.6,8.1,8.1S378,281.2,373.6,281.2z M373.6,267.9
				c-2.8,0-5.1,2.3-5.1,5.1s2.3,5.1,5.1,5.1s5.1-2.3,5.1-5.1S376.4,267.9,373.6,267.9z"/>
			<path class="st4" d="M395.5,281.2c-4.5,0-8.1-3.6-8.1-8.1s3.6-8.1,8.1-8.1s8.1,3.6,8.1,8.1S400,281.2,395.5,281.2z M395.5,267.9
				c-2.8,0-5.1,2.3-5.1,5.1s2.3,5.1,5.1,5.1s5.1-2.3,5.1-5.1S398.3,267.9,395.5,267.9z"/>
			<path class="st4" d="M417.4,281.2c-4.5,0-8.1-3.6-8.1-8.1s3.6-8.1,8.1-8.1s8.1,3.6,8.1,8.1S421.9,281.2,417.4,281.2z
				 M417.4,267.9c-2.8,0-5.1,2.3-5.1,5.1s2.3,5.1,5.1,5.1s5.1-2.3,5.1-5.1S420.3,267.9,417.4,267.9z"/>
			<path class="st5" d="M448.7,259.8c-0.8,0-1.5-0.6-1.5-1.4c0-0.5-1.8-47.8-17.8-60.7c-3.3-2.7-6.9-3.6-11-2.9
				c-0.8,0.1-1.6-0.4-1.7-1.2c-0.1-0.8,0.4-1.6,1.2-1.7c4.9-0.9,9.4,0.3,13.4,3.5c7.2,5.8,12.6,18.2,16,36.9
				c2.5,13.7,2.9,26,2.9,26.1C450.2,259.1,449.6,259.8,448.7,259.8C448.7,259.8,448.7,259.8,448.7,259.8z"/>
		</g>
		<g id="hand_l">
			<path class="st1" d="M235.9,142.7c-2.2,25.8-4.4,51.5-6.6,77.3c-9,22.8-18.2,45.8-27.8,69v-0.3c0-0.8-0.7-1.5-1.5-1.5
				c-0.8,0-1.5,0.7-1.5,1.5v7.5c-5.2,12.4-10.4,24.9-15.7,37.4c-1.1,2.5-2.1,5-3.2,7.5c-4.9,11.5-9.8,22.9-14.8,34.2c0,0,0,0,0,0v0
				c0,0.1,0.1,10.8,0.1,10.8l0,1.3c0,3.2-2.3,5.6-5.3,5.5c-0.7,0-1.4-0.2-2-0.5c-0.2-0.1-0.3-0.2-0.5-0.2c-1.4-0.8-2.5-2.3-2.8-4
				c-0.1,1.5-0.7,2.7-1.7,3.6c-0.9,0.9-2.2,1.4-3.6,1.4c-2.5-0.1-4.6-2.1-5.2-4.7c0-0.1-0.1-0.2-0.1-0.4c0,0.1,0,0.2,0,0.3
				c-0.4,2.5-2.4,4.4-4.8,4.4c-0.1,0-0.2,0-0.4,0c-1.7-0.1-3.2-1-4.2-2.4c-0.6-0.8-1-1.7-1.1-2.7c0-0.1,0-0.2-0.1-0.4
				c0,0.1-0.1,0.3-0.1,0.4c-0.2,0.6-0.5,1.1-0.8,1.6c-1.1,1.4-2.8,2.2-4.6,1.9c-0.9-0.1-1.8-0.5-2.5-1.1c-0.8-0.6-1.4-1.4-1.8-2.3
				c-0.4-0.9-0.7-2-0.6-3.1l0-0.4l0.3-3.8l0.2-2.8l0.2-3.4l0.1-1c-0.2,0.1-0.3,0.3-0.5,0.4c-0.2,0.1-0.3,0.3-0.5,0.5
				c-0.3,0.3-0.6,0.6-0.9,0.9c-0.3,0.3-0.6,0.6-0.9,0.9c0,0,0,0-0.1,0.1c-0.2,0.3-0.5,0.5-0.7,0.8c-0.4,0.4-0.8,0.9-1.1,1.4
				c-0.2,0.3-0.5,0.6-0.7,0.9c-0.9,1.2-1.8,2.5-2.6,3.8c-0.3,0.4-0.5,0.9-0.8,1.3c-0.2,0.3-0.4,0.6-0.5,0.9
				c-0.2,0.3-0.3,0.6-0.5,0.9c-0.1,0.2-0.2,0.4-0.3,0.6c-0.2,0.3-0.3,0.6-0.5,1c-0.3,0.6-0.6,1.3-0.9,1.9c-0.1,0.3-0.3,0.6-0.4,0.9
				c-0.2,0.5-0.4,0.9-0.6,1.4c-1.2,0.2-2.4-0.1-3.5-0.7c-2.7-1.5-3.6-5-2.1-7.6l13-22.5c2.2-6.4,4.4-13,6.8-19.8
				c11.4-32.8,25.2-69.3,41.5-108.4c9.5-22.7,21.3-49.8,48.2-74.4C223.3,151.3,230.8,146,235.9,142.7z"/>
			<path d="M143.3,384.4C143.3,384.4,143.3,384.4,143.3,384.4c-0.3,0-0.5-0.2-0.5-0.5l0.1-29c0-0.3,0.2-0.5,0.5-0.5c0,0,0,0,0,0
				c0.3,0,0.5,0.2,0.5,0.5l-0.1,29C143.8,384.2,143.6,384.4,143.3,384.4z"/>
			<path d="M133.5,383C133.5,383,133.5,383,133.5,383c-0.3,0-0.5-0.2-0.5-0.5l1-31.2c0-0.3,0.2-0.5,0.5-0.5c0.3,0,0.5,0.2,0.5,0.5
				l-1,31.2C134,382.8,133.8,383,133.5,383z"/>
			<path d="M153.9,385.8C153.9,385.8,153.9,385.8,153.9,385.8c-0.3,0-0.5-0.2-0.5-0.5l0.2-23.9c0-0.3,0.2-0.5,0.5-0.5c0,0,0,0,0,0
				c0.3,0,0.5,0.2,0.5,0.5l-0.2,23.9C154.4,385.6,154.1,385.8,153.9,385.8z"/>
		</g>
		<path id="bracelette" class="st5" d="M497.9,124.7c-2,0-3.6,1.4-4,3.3c-0.7-0.9-1.8-1.5-3.1-1.5c-1.8,0-3.3,1.2-3.8,2.8
			c-0.5-1.6-2.1-2.8-3.8-2.8c-1.5,0-2.8,0.8-3.5,2c-0.1-2.2-1.9-3.9-4.1-3.9c-1.3,0-2.5,0.7-3.3,1.7c-0.1-2.2-1.9-3.9-4.1-3.9
			c-1.1,0-2.1,0.4-2.8,1.1c0-0.1,0-0.2,0-0.4c0-2.3-1.8-4.1-4.1-4.1c-0.9,0-1.7,0.3-2.4,0.8c0.2-1.3-0.1-2.7-1.1-3.7
			c-1.6-1.6-4.2-1.6-5.8,0s-1.6,4.2,0,5.8c1.4,1.4,3.7,1.6,5.3,0.4c-0.1,0.3-0.1,0.5-0.1,0.8c0,2.3,1.8,4.1,4.1,4.1
			c1.1,0,2.1-0.4,2.8-1.1c0,0.1,0,0.2,0,0.4c0,2.3,1.8,4.1,4.1,4.1c1.3,0,2.5-0.7,3.3-1.7c0.1,2.2,1.9,3.9,4.1,3.9
			c1.5,0,2.8-0.8,3.5-2c0.1,2.2,1.9,3.9,4.1,3.9c1.8,0,3.3-1.2,3.8-2.8c0.5,1.6,2.1,2.8,3.8,2.8c2,0,3.6-1.4,4-3.3
			c0.7,0.9,1.8,1.5,3.1,1.5c2.3,0,4.1-1.8,4.1-4.1C502,126.5,500.2,124.7,497.9,124.7z"/>
		<g id="legs_1_">
			<g id="pants">
				<path class="st6" d="M276.1,333.9c-2.6,5.6-8.2,9.1-13.6,8c-5.4-1.1-9.2-6.4-9.5-12.6c-2-0.4-3.9-0.8-5.9-1.2
					c-1.9,9.6,4.4,19,14,20.9c9.6,1.9,19-4.4,20.9-14C280.1,334.6,278.1,334.2,276.1,333.9z"/>
				<path class="st6" d="M298.2,403.4c-2.6,5.6-8.2,9.1-13.6,8c-5.4-1.1-9.2-6.4-9.5-12.6c-2-0.4-3.9-0.8-5.9-1.2
					c-1.9,9.6,4.4,19,14,20.9c9.6,1.9,19-4.4,20.9-14C302.2,404.2,300.2,403.8,298.2,403.4z"/>
				<path class="st6" d="M364.2,352.3c-2.6,5.6-8.2,9.1-13.6,8s-9.2-6.4-9.5-12.6c-2-0.4-3.9-0.8-5.9-1.2c-1.9,9.6,4.4,19,14,20.9
					c9.6,1.9,19-4.4,20.9-14C368.2,353.1,366.2,352.7,364.2,352.3z"/>
				<path class="st6" d="M364.7,309c-4,3.7-9.8,5.6-15.5,4.4c-7.5-1.5-12.9-7.5-14.1-14.7c2.3-0.2,4.6-0.4,6.9-0.7
					c1.4,4.2,4.5,7.4,8.6,8.2c3.7,0.7,7.4-0.6,10.3-3.3C362.2,305,363.5,307,364.7,309z"/>
				<path class="st6" d="M405.7,420.9c-2.6,5.6-8.2,9.1-13.6,8c-5.4-1.1-9.2-6.4-9.5-12.6c-2-0.4-3.9-0.8-5.9-1.2
					c-1.9,9.6,4.4,19,14,20.9s19-4.4,20.9-14C409.6,421.7,407.7,421.3,405.7,420.9z"/>
				<path class="st6" d="M253.1,457.1c-2.6,5.6-8.2,9.1-13.6,8c-5.4-1.1-9.2-6.4-9.5-12.6c-2-0.4-3.9-0.8-5.9-1.2
					c-1.9,9.6,4.4,19,14,20.9c9.6,1.9,19-4.4,20.9-14C257.1,457.9,255.1,457.5,253.1,457.1z"/>
				<path class="st6" d="M273.6,527.3c-1.3,2.2-2.5,4.3-3.9,6.3c-7.5-3.3-12-11.5-10.4-19.8c2,0.4,4,0.8,5.9,1.2
					C265.6,520.8,268.8,525.8,273.6,527.3z"/>
				<path class="st6" d="M201.4,535c-1.9,9.6-11.4,15.9-20.9,14c-6.5-1.3-11.6-6.1-13.5-12.1c1.8-2.5,3.6-5,5.5-7.5
					c0.3,6.2,4.1,11.4,9.4,12.5c5.4,1.1,10.9-2.4,13.6-8C197.5,534.2,199.4,534.6,201.4,535z"/>
				<path class="st6" d="M190.2,597.5c-2.6,5.6-8.2,9.1-13.6,8c-5.4-1.1-9.2-6.4-9.5-12.6c-2-0.4-3.9-0.8-5.9-1.2
					c-1.9,9.6,4.4,19,14,20.9s19-4.4,20.9-14C194.2,598.2,192.2,597.8,190.2,597.5z"/>
				<path class="st6" d="M428.6,494.8c-2.6,5.6-8.2,9.1-13.6,8c-5.4-1.1-9.2-6.4-9.5-12.6c-2-0.4-3.9-0.8-5.9-1.2
					c-1.9,9.6,4.4,19,14,20.9c9.6,1.9,19-4.4,20.9-14C432.6,495.6,430.6,495.2,428.6,494.8z"/>
				<path class="st6" d="M387.7,545.6c-1.9,9.6-11.4,15.9-20.9,14c-1.6-0.3-3.1-0.8-4.5-1.6c0.4-2.6,0.8-5.2,1.2-7.9
					c1.3,1.1,3,2,4.7,2.3c5.4,1.1,10.9-2.4,13.6-8C383.8,544.8,385.8,545.2,387.7,545.6z"/>
				<path class="st6" d="M425.1,599.8c-0.7,3.1-1.5,6.4-2.2,9.6c-2.9,1-6,1.3-9.2,0.6c-9.6-1.9-15.9-11.3-14-20.9
					c2,0.4,4,0.8,5.9,1.2c0.3,6.2,4,11.5,9.5,12.6C418.6,603.6,422.3,602.4,425.1,599.8z"/>
				<path class="st6" d="M376.4,640.9c-0.6,2.9-1.8,5.5-3.6,7.6h-24.3c0.3-2.1,0.6-4.2,1-6.3c1.7,2.8,4.3,4.9,7.4,5.5
					c5.4,1.1,10.9-2.4,13.6-8C372.5,640.1,374.4,640.5,376.4,640.9z"/>
			</g>
			<g id="legs">
				<path class="st1" d="M413.1,648.5c-1.1,4.1-2.2,8.3-3.3,12.6c-0.5,1.7-0.9,3.4-1.4,5.2c-20.9,0.3-41.8,0.7-62.6,1.1
					c0.2-1.2,0.3-2.3,0.5-3.5c0.8-5.1,1.6-10.2,2.3-15.3H413.1z"/>
				<path class="st1" d="M167.4,644.2c-1.9,2-3.8,4-5.7,5.9c-1.2,1.3-2.5,2.6-3.8,3.9c0,0,0-0.1,0-0.2c-17.3-11.7-34.7-23.3-52-35
					c0.5-0.6,2-2.2,4.1-4.7c0.7-0.8,1.4-1.7,2.2-2.7c2.4-3,4.2-5.5,5.4-7C134.2,617.7,150.8,630.9,167.4,644.2z"/>
			</g>
			<g id="shoes">
				<g>
					<path class="st4" d="M487,728.4c-18.4-1.6-60.5-5.7-92.2-8.8c-3.3-2.2-6.7-4.5-10.1-6.8c-0.5-0.4-1.1-0.8-1.7-1.1
						c-2.7-1.9-5.4-3.8-8-5.6c0.3,1.8,0.6,3.5,0.9,5.3c0.5,2.8,0.9,5.5,1.4,8.3c-5.7-0.4-39.5-1.7-50.2-1.8c1.2-2.9,2.4-5.8,3.6-8.8
						h0c2-5,4-10.2,6-15.6c3.3-9,6.3-17.7,8.9-26.1v0c20.9-0.4,41.8-0.7,62.6-1.1c0.8,3.1,1.9,5.5,2.7,7.1
						c0.7,1.4,4.3,8.3,12.4,14.3c0.4,0.3,0.8,0.6,1.3,0.9c17.8,12.2,35.6,1.5,51,15.6c3.6,3.3,6,7,7.8,10.7c0.3,0.7,0.6,1.4,0.9,2.1
						c0.2,0.4,0.3,0.8,0.4,1.1C486,721.7,486.7,725.3,487,728.4z"/>
					<path class="st4" d="M191.3,737c-0.1,0.8-0.3,1.5-0.5,2.2c-0.1,0.4-0.2,0.8-0.3,1.1c-1.1,3.8-2.7,7.1-4.3,9.7
						c-13.8-12.2-45.4-40.4-69.1-61.7c-1.4-3.8-2.7-7.6-4.1-11.5c-0.3-0.8-0.5-1.5-0.8-2.3c-1-3-2-5.9-3-8.8c-0.8,1.5-1.5,3-2.3,4.5
						c-1.3,2.6-2.6,5.2-3.9,7.8c-6-4.8-12-9.7-18.1-14.5c-6.5-5.1-12.9-10.2-19.3-15.1c1-0.8,4.2-3,7.8-5.6
						c5.7-4.1,12.5-9.1,14.2-10.3c1.9-1.4,16.5-12,18.5-13.5c17.3,11.6,34.7,23.3,52,35c0,0.1,0,0.1,0,0.2c-0.3,2.7-0.4,5-0.5,6.6
						c-0.5,11.6,1,17,1.5,18.8c0.2,0.5,0.3,1,0.5,1.5c7.1,20.4,27.9,22.2,31.9,42.7C192.3,728.5,192.1,732.9,191.3,737z"/>
				</g>
				<path class="st5" d="M190.7,739.7c-0.1,0-0.2,0-0.3-0.1L111.8,675c-0.2-0.2-0.2-0.5-0.1-0.7c0.2-0.2,0.5-0.2,0.7-0.1l78.6,64.6
					c0.2,0.2,0.2,0.5,0.1,0.7C191,739.6,190.9,739.7,190.7,739.7z"/>
				<path class="st5" d="M106.9,670.8c-0.1,0-0.2,0-0.3-0.1L73,643.1c-0.2-0.2-0.2-0.5-0.1-0.7c0.2-0.2,0.5-0.2,0.7-0.1l33.6,27.6
					c0.2,0.2,0.2,0.5,0.1,0.7C107.2,670.7,107,670.8,106.9,670.8z"/>
				<path class="st5" d="M484.3,717.3C484.3,717.3,484.2,717.3,484.3,717.3l-101.2-5.2c-0.3,0-0.5-0.2-0.5-0.5s0.2-0.5,0.5-0.5
					l101.2,5.2c0.3,0,0.5,0.2,0.5,0.5C484.8,717.1,484.5,717.3,484.3,717.3z"/>
				<path class="st5" d="M375.9,711.8C375.9,711.8,375.9,711.8,375.9,711.8c-19.3-1-36.1-1.8-45.2-2.3c-0.3,0-0.5-0.2-0.5-0.5
					s0.2-0.5,0.5-0.5c9.2,0.5,25.9,1.3,45.2,2.3c0.3,0,0.5,0.2,0.5,0.5C376.4,711.6,376.2,711.8,375.9,711.8z"/>
			</g>
		</g>
		<path id="semicircle" class="st4" d="M517.8,14.1c7.1,15.6,0.2,34.2-15.4,41.3c-15.6,7.1-34.2,0.2-41.3-15.4
			C480,31.4,498.9,22.7,517.8,14.1z"/>
		<g id="head">
			<g id="hair_1_">
				<path d="M198.4,296.2l0,26.5c-4,6.5-6.6,14-7.4,22c-3.5-1.4-7.4-2.6-11.5-3.5c1.1-2.5,2.2-5,3.2-7.5
					C188.1,321.1,193.3,308.6,198.4,296.2z"/>
				<path d="M229.2,219.9l-0.8,8.8l-5.1,72.7c-8.8,3.6-16.3,9.4-21.9,16.8l0-29.4C211,265.8,220.2,242.8,229.2,219.9z"/>
				<path d="M381.9,241.6c6.5,4.9,13.8,8.3,21.5,10c-8.8,8.5-20.4,14.8-32.6,18.4c-2.4-17-5.3-34.8-9-53.3
					c4.1,8.5,9.6,15.9,16.2,21.8C379.3,239.6,380.6,240.6,381.9,241.6z"/>
				<path d="M418.1,193.3c-9.5-1.3-33.3-31.6-49.2-43.7c-6.1-4.7-15.2-10.7-27.6-16.2v0c-1-0.5-2.2-1-3.3-1.4c0,0,0,0-0.1,0
					c-5-2.1-11.2-4.1-18.2-5.6c-7.4-1.6-14-2.1-19.6-2.2c-1,0-2,0-3,0h-0.5c-12.5,0.1-23.7,2.4-33.5,5.8c-5.1,1.7-9.8,3.7-14.1,5.8
					c-1.1,0.5-2.2,1.1-3.3,1.6c-0.9,0.5-1.9,1-2.8,1.5c-1,0.5-1.9,1-2.8,1.5c-1.5,0.8-2.9,1.7-4.3,2.5c-5.1,3.4-12.5,8.7-20.6,16.1
					c-26.9,24.5-38.7,51.7-48.2,74.4c-16.3,39.1-30,75.6-41.5,108.4c-4.1-0.4-7.6-1.7-10.6-4.8c-10.5-10.4,0-24.1-8.9-39.6
					c-13.2-22.8-54-10.6-60.7-27.8c-4.9-12.6,10.8-33.8,27.4-44c18.8-11.6,35.1-6.5,42-18.5c5-8.7-1.2-15.5-1.7-27.6
					c-1.6-37,52.4-45,65.6-91.8c8.4-29.9-9.2-42.8,5.2-63.6c10.9-15.8,35.2-29,56.3-21.7c6.1,2.1,10.8,5.5,14.4,8.8
					c-5.2,6-10.4,12-15.6,18l3.4,3.1c4.2-6.7,9.9-12.2,17-15.2c0.3-0.1,0.6-0.3,1-0.4c19.8-7.5,48.1,4.4,60.9,32.5
					c-1.9,0.8-3.8,1.6-5.6,2.5c0,0.1,0.1,0.2,0.1,0.3c0.6,2.5,0.9,5,1,7.6c0,0.5,0,1,0,1.5c0,2.7-0.1,5.4-0.2,8.3
					c-0.2,3.8-0.4,7.7-0.2,11.7c0.2,4.9,0.9,10,2.8,15.3c0.8,2.2,1.8,4.5,3,6.7c3.4,6.3,7.5,10.1,8.8,11.3
					c12.1,11.2,26.9,12.3,31.8,13.2C383.2,130.9,410,161.2,418.1,193.3z"/>
				<path id="scrunchy" class="st6" d="M254.4,10.8c-5.2,6-10.4,12-15.6,18l5.6,5L260,16.4l0.2-0.2
					C258.2,14.4,256.3,12.6,254.4,10.8z"/>
			</g>
			<path id="face" class="st1" d="M321.1,68.3c-0.9-5.1-2.6-10.9-5.5-16.7c-0.1-0.1-0.1-0.2-0.2-0.3c-10.3,4.5-20.8,9.3-31.5,14.2
				c-1.1,0.5-2.2,1-3.3,1.5c-0.8,0.4-1.6,0.8-2.4,1.1c-6.5,3.1-12.9,6.1-19.2,9.2c-0.7,0.3-1.4,0.7-2.1,1c-0.8,0.4-1.6,0.8-2.4,1.2
				c-3.2,1.6-6.3,3.1-9.5,4.7c-0.4,0.2-0.7,0.4-1.1,0.5c-0.5,0.3-1,0.5-1.5,0.8c0.2,0.6,0.4,1.2,0.7,1.8c0.7,1.8,1.5,3.4,1.5,3.4
				s2,3.7,5.1,7c0.2,0.2,2.6,2.5,6.5,5.5c0,0,0.1,0.1,0.1,0.1l-0.1,0l0.5,1.8l6.4,24.6l0,0.1l9,12.4c0.2-0.2,0.5-0.1,0.7,0.1
				l29.5,40.5l-1.5-31.9c0-0.3,0.2-0.5,0.5-0.5l-1.2-26.4l-0.2-4.7l0-0.5c0,0,0.1,0,0.1-0.1c10.7-3.8,16.2-14.9,19-22.8
				c1.2-3.6,1.9-6.4,2.2-7.6c0,0,0.9-3.9,0.8-10C322,75.6,321.8,72.1,321.1,68.3z"/>
			<path d="M289.6,120.9c-1.6,0-3.2-0.1-4.8-0.3c-8.9-1.2-15.2-5.5-19-8.9c-0.2-0.2-0.2-0.5,0-0.7c0.2-0.2,0.5-0.2,0.7,0
				c3.7,3.3,9.9,7.4,18.5,8.6c4.8,0.7,9.7,0.3,14.5-1.1c0.3-0.1,0.5,0.1,0.6,0.3c0.1,0.3-0.1,0.5-0.3,0.6
				C296.3,120.4,293,120.9,289.6,120.9z"/>
			<path id="nose" d="M298.8,93.2c-0.2,0-0.4-0.1-0.5-0.3c-0.1-0.3,0-0.5,0.3-0.6l8.8-3.3l-7.7-15.6c-0.1-0.2,0-0.5,0.2-0.7
				c0.2-0.1,0.5,0,0.7,0.2l7.9,16.1c0.1,0.1,0.1,0.3,0,0.4c-0.1,0.1-0.2,0.2-0.3,0.3l-9.3,3.5C299,93.2,298.9,93.2,298.8,93.2z"/>
			<path id="mouth" d="M297.6,106.8c-4.2,0-8.4-3.1-10.2-7.8c-0.1-0.2,0-0.4,0.1-0.5c0.1-0.1,0.3-0.2,0.5-0.1l16.3,4.6
				c0.2,0,0.3,0.2,0.3,0.4c0,0.2,0,0.4-0.1,0.5c-1,1.1-3.3,2.9-6.3,3.1C297.9,106.8,297.8,106.8,297.6,106.8z M288.7,99.5
				c1.9,4,5.6,6.5,9.3,6.2c2.2-0.1,4-1.3,5-2.2L288.7,99.5z"/>
			<g id="brows">
				<ellipse transform="matrix(0.9209 -0.3899 0.3899 0.9209 0.2824 126.0108)" cx="310.6" cy="62.3" rx="7" ry="1.9"/>
				<ellipse cx="284.5" cy="67.4" rx="7" ry="1.9"/>
			</g>
			<g id="eyes">
				<circle cx="288.9" cy="73" r="2.1"/>
				<circle cx="313.6" cy="68.7" r="2.1"/>
			</g>
			<g id="sunglasses">
				<path d="M295.6,72.4c1.1,6.2-3.3,12.3-9.7,13.5c-6.5,1.2-12.7-3-13.9-9.2C279.8,75.2,287.7,73.8,295.6,72.4z"/>
				<path d="M326.6,67.4c1,6.3-3.6,12.2-10.1,13.3s-12.7-3.3-13.6-9.6C310.8,69.8,318.7,68.6,326.6,67.4z"/>
				<path class="st3" d="M279,85.7c-0.1,0-0.1,0-0.2,0c-0.3-0.1-0.4-0.4-0.3-0.7c1.1-2.6,0.5-3.1-0.7-4.1c-0.6-0.5-1.3-1-1.9-2
					c-0.8-1.1-0.8-2.3,0-3.3c0.2-0.2,0.5-0.3,0.7-0.1c0.2,0.2,0.3,0.5,0.1,0.7c-0.5,0.7-0.5,1.4,0,2.2c0.5,0.8,1.2,1.3,1.7,1.8
					c1.3,1,2.4,1.9,1,5.2C279.4,85.6,279.2,85.7,279,85.7z"/>
				<path class="st3" d="M310.2,80.5c-0.1,0-0.1,0-0.2,0c-0.3-0.1-0.4-0.4-0.3-0.7c1.3-3,0.7-3.5-0.6-4.5c-0.6-0.5-1.3-1-1.9-2
					c-0.9-1.4-0.6-2.5-0.1-3.2c0.2-0.2,0.5-0.3,0.7-0.1c0.2,0.2,0.3,0.5,0.1,0.7c-0.4,0.7-0.4,1.4,0.1,2.1c0.5,0.8,1.2,1.3,1.7,1.7
					c1.5,1.2,2.4,2.2,0.8,5.7C310.6,80.3,310.4,80.5,310.2,80.5z"/>
				<path d="M292.1,76.2c-0.2,0-0.5-0.2-0.5-0.4c0-0.3,0.1-0.5,0.4-0.6l13.6-2.1c0.3,0,0.5,0.1,0.6,0.4c0,0.3-0.1,0.5-0.4,0.6
					L292.1,76.2C292.1,76.2,292.1,76.2,292.1,76.2z"/>
				<path d="M232.6,78.6c-0.3,0-0.5-0.2-0.5-0.5c0-0.3,0.2-0.5,0.5-0.5l40.6-0.4c0.3,0,0.5,0.2,0.5,0.5c0,0.3-0.2,0.5-0.5,0.5
					L232.6,78.6C232.6,78.6,232.6,78.6,232.6,78.6z"/>
			</g>
			<g id="ear">
				<path class="st1" d="M262.7,89.9c-0.8-3.6-2.8-6.6-5.5-8.6c-2.3-1.8-5.2-2.9-8.2-3c-1.3-0.1-2.6,0-3.9,0.3
					c-8,1.7-13.1,9.6-11.4,17.5c1.7,8,9.6,13.1,17.6,11.4C259.4,105.8,264.4,97.9,262.7,89.9z"/>
				<path d="M254.5,98.6c-0.1,0-0.2,0-0.2-0.1c-1.6-0.8-2.7-2.5-2.8-4.3c-0.1-1.6,0.6-3.1,1.8-4.1l-12.8-7.3
					c-0.2-0.1-0.3-0.4-0.2-0.7c0.1-0.2,0.4-0.3,0.7-0.2l13.5,7.7c0.2,0.1,0.2,0.2,0.3,0.4s-0.1,0.3-0.2,0.4c-1.3,0.8-2,2.2-2,3.7
					c0.1,1.5,0.9,2.8,2.2,3.4c0.2,0.1,0.3,0.4,0.2,0.7C254.9,98.5,254.7,98.6,254.5,98.6z"/>
			</g>
			<circle id="earrings" class="st7" cx="249" cy="103.3" r="3.1"/>
		</g>
		<g id="blouse">
			<path class="st5" d="M374,294.9c-5.6,0.5-11.2,1.1-16.8,1.6c-25.7,2.5-51.4,4.9-77.1,7.4c-1,0.1-2,0.2-3,0.3
				c-2.5,0.2-5,0.5-7.5,0.7c-1.7,0.2-3.3,0.3-5,0.5c-5,0.5-10.1,1-15.1,1.5c-4.8,0.5-9.6,0.9-14.4,1.4c-4.1,0.4-8.2,0.8-12.3,1.2
				l0.5-7.9l5.1-72.7l0.8-8.8c2.2-25.8,4.4-51.5,6.6-77.3c1.3-0.8,2.8-1.7,4.3-2.5c0.9-0.5,1.8-1,2.8-1.5c0.9-0.5,1.8-1,2.8-1.5
				c1.1-0.5,2.2-1.1,3.3-1.6c4.3-2.1,9-4,14.1-5.8l0,0.1l9,12.4c0.2-0.2,0.5-0.1,0.7,0.1l29.5,40.5l-1.5-31.9c0-0.3,0.2-0.5,0.5-0.5
				c-0.4-8.8-0.8-17.6-1.1-26.4c8.8-0.1,15.7,0.9,20.6,2c1.2,0.3,2.2,0.5,2.6,0.6c7.7,1.9,13.7,4.6,18,6.7c0,0,0,0,0,0
				c6.3,21.4,12.3,44.4,17.5,69c1,4.9,2,9.7,3,14.5c3.6,18.4,6.6,36.2,9,53.3C372,278.5,373.1,286.8,374,294.9z"/>
			<path d="M303.4,184.5c0,0.2-0.1,0.4-0.3,0.5c-0.1,0-0.1,0-0.2,0c-0.2,0-0.3-0.1-0.4-0.2L272,143c-0.2-0.2-0.1-0.5,0.1-0.7
				c0.2-0.2,0.5-0.1,0.7,0.1l29.5,40.5l-1.5-31.9c0-0.3,0.2-0.5,0.5-0.5c0.3,0,0.5,0.2,0.5,0.5L303.4,184.5z"/>
		</g>
		<g id="bag">
			<path class="st4" d="M295.4,347.3c-0.6-12.2-5.4-23.1-12.8-31.6l-37.3-180.5c-0.2-0.8-0.9-1.3-1.8-1.1c-0.8,0.1-1.3,0.9-1.2,1.6
				l36.4,175.9c-10-9.3-23.6-14.7-38.3-13.9c-6,0.3-11.7,1.6-17,3.8c-8.8,3.6-16.3,9.4-21.9,16.8l0-29.4v-0.3c0-0.8-0.7-1.5-1.5-1.5
				c-0.8,0-1.5,0.7-1.5,1.5v7.5l0,26.5c-4,6.5-6.6,14-7.4,22c-0.3,2.6-0.3,5.3-0.2,8.1c1.5,28.9,26.2,51.1,55,49.5
				C274.7,400.8,296.9,376.2,295.4,347.3z"/>
			<polygon class="st5" points="275.5,338.7 209.4,338.7 209.4,347.1 266.4,347.1 260.4,362.9 275.5,362.9 269.5,347.1 275.5,347.1 
							"/>
		</g>
		<g id="window_bag">
			<g>
				<rect x="36.2" y="420.2" class="st3" width="222.9" height="157.1"/>
				<path class="st4" d="M259.1,578.8H36.2c-0.8,0-1.5-0.7-1.5-1.5V420.2c0-0.8,0.7-1.5,1.5-1.5h222.9c0.8,0,1.5,0.7,1.5,1.5v157.1
					C260.6,578.2,259.9,578.8,259.1,578.8z M37.7,575.8h219.9V421.7H37.7V575.8z"/>
			</g>
			<path class="st4" d="M259.1,447.9H36.2c-0.8,0-1.5-0.7-1.5-1.5s0.7-1.5,1.5-1.5h222.9c0.8,0,1.5,0.7,1.5,1.5
				S259.9,447.9,259.1,447.9z"/>
			<path class="st4" d="M54.2,441.6c-4.5,0-8.1-3.6-8.1-8.1s3.6-8.1,8.1-8.1s8.1,3.6,8.1,8.1S58.7,441.6,54.2,441.6z M54.2,428.4
				c-2.8,0-5.1,2.3-5.1,5.1s2.3,5.1,5.1,5.1s5.1-2.3,5.1-5.1S57,428.4,54.2,428.4z"/>
			<path class="st4" d="M76.1,441.6c-4.5,0-8.1-3.6-8.1-8.1s3.6-8.1,8.1-8.1s8.1,3.6,8.1,8.1S80.6,441.6,76.1,441.6z M76.1,428.4
				c-2.8,0-5.1,2.3-5.1,5.1s2.3,5.1,5.1,5.1s5.1-2.3,5.1-5.1S78.9,428.4,76.1,428.4z"/>
			<path class="st4" d="M98.1,441.6c-4.5,0-8.1-3.6-8.1-8.1s3.6-8.1,8.1-8.1s8.1,3.6,8.1,8.1S102.5,441.6,98.1,441.6z M98.1,428.4
				c-2.8,0-5.1,2.3-5.1,5.1s2.3,5.1,5.1,5.1s5.1-2.3,5.1-5.1S100.9,428.4,98.1,428.4z"/>
			<path class="st5" d="M123.6,373.5l-0.1,1l-0.2,3.4c-8.7,9.3-14,24.7-13.9,42.2c0,0.8-0.7,1.5-1.5,1.5c0,0,0,0,0,0
				c-0.8,0-1.5-0.7-1.5-1.5c-0.1-10.3,1.7-19.9,4.9-28.1c0.2-0.5,0.4-0.9,0.6-1.4c0.1-0.3,0.2-0.6,0.4-0.9c0.3-0.6,0.6-1.3,0.9-1.9
				c0.2-0.3,0.3-0.7,0.5-1c0.1-0.2,0.2-0.4,0.3-0.6c0.2-0.3,0.3-0.6,0.5-0.9c0.2-0.3,0.4-0.6,0.5-0.9c0.2-0.4,0.5-0.9,0.8-1.3
				c0.8-1.3,1.7-2.6,2.6-3.8c0.2-0.3,0.5-0.6,0.7-0.9c0.4-0.5,0.7-0.9,1.1-1.4c0.2-0.3,0.5-0.5,0.7-0.8c0,0,0,0,0.1-0.1
				c0.3-0.3,0.6-0.6,0.9-0.9c0.3-0.3,0.6-0.6,0.9-0.9C123,374.1,123.3,373.8,123.6,373.5z"/>
			<path class="st5" d="M176,420.2C176,420.2,176,420.2,176,420.2c0,0.9-0.7,1.5-1.5,1.5c-0.8,0-1.5-0.7-1.5-1.5c0,0,0,0,0,0
				c0,0,0-0.6,0-1.5c-0.1-5.5-0.9-24.7-8.1-37.7l-0.1-5.6c0,0,0,0,0,0c10.1,13.6,11.1,37.1,11.2,43.4C176,419.5,176,420.1,176,420.2
				z"/>
		</g>
	</g>
</g>
</svg>
