<?xml version="1.0" encoding="utf-8"?>
<!-- Generator: Adobe Illustrator 22.1.0, SVG Export Plug-In . SVG Version: 6.00 Build 0)  -->
<svg version="1.1" id="Слой_1" xmlns="http://www.w3.org/2000/svg" xmlns:xlink="http://www.w3.org/1999/xlink" x="0px" y="0px"
	 viewBox="0 0 885.5 899.6" style="enable-background:new 0 0 885.5 899.6;" xml:space="preserve">
<style type="text/css">
	.st0{fill:#FFFFFF;}
	.st1{fill:#FFC800;}
	.st2{fill:#1F0D60;}
	.st3{fill:#00DC99;}
	.st4{fill:#FF0F97;}
	.st5{fill:#D5E0EA;}
	.st6{fill:#892BFF;}
</style>
<g id="background_1_">
	<g id="background">
		<g id="scheme">
			<g id="window1">
				<rect x="623.2" y="110.6" class="st0" width="242.9" height="174"/>
				<path class="st1" d="M866.1,286.1H623.2c-0.8,0-1.5-0.7-1.5-1.5v-174c0-0.8,0.7-1.5,1.5-1.5h242.9c0.8,0,1.5,0.7,1.5,1.5v174
					C867.6,285.5,866.9,286.1,866.1,286.1z M624.7,283.1h239.9v-171H624.7V283.1z"/>
				<g id="figures">
					<path id="semicircle" class="st2" d="M803.5,179.3c15.3-7.8,34.3-1.7,42.2,13.6c7.8,15.3,1.7,34.3-13.6,42.2
						C822.5,216.5,813,197.9,803.5,179.3z"/>
					<rect id="square" x="648.6" y="180.1" class="st3" width="50.7" height="50.7"/>
					<path id="semicircle_1_" class="st4" d="M718.4,187c0.2-3.1,0.8-6.1,1.9-9.1l16.8,5.7c-1.6,4.7-1.3,9.8,1,14.3
						c2.2,4.5,6,7.9,10.7,9.5s9.8,1.3,14.3-1c4.5-2.2,7.9-6,9.5-10.7l16.8,5.7c-3.1,9.2-9.7,16.6-18.5,20.9
						c-8.8,4.3-18.7,4.9-27.8,1.8c-9.2-3.1-16.6-9.7-20.9-18.5C719.2,199.8,717.9,193.4,718.4,187z"/>
				</g>
			</g>
			
				<ellipse id="circle_button" transform="matrix(0.1602 -0.9871 0.9871 0.1602 162.4931 267.9878)" class="st1" cx="238.7" cy="38.5" rx="38.5" ry="38.5"/>
			<g id="lines">
				<path class="st1" d="M752.1,112.1c-0.8,0-1.5-0.7-1.5-1.5V40H274.3c-0.8,0-1.5-0.7-1.5-1.5s0.7-1.5,1.5-1.5h477.8
					c0.8,0,1.5,0.7,1.5,1.5v72.1C753.6,111.4,753,112.1,752.1,112.1z"/>
				<path class="st1" d="M831.2,637.1h-82.3c-0.8,0-1.5-0.7-1.5-1.5s0.7-1.5,1.5-1.5h80.8V284.6c0-0.8,0.7-1.5,1.5-1.5
					s1.5,0.7,1.5,1.5v351C832.7,636.5,832,637.1,831.2,637.1z"/>
			</g>
			<g id="window2">
				<g>
					<rect x="275.4" y="462.1" class="st0" width="473.5" height="317"/>
					<path class="st1" d="M748.9,780.6H275.4c-0.8,0-1.5-0.7-1.5-1.5v-317c0-0.8,0.7-1.5,1.5-1.5h473.5c0.8,0,1.5,0.7,1.5,1.5v317
						C750.4,779.9,749.7,780.6,748.9,780.6z M276.9,777.6h470.5v-314H276.9V777.6z"/>
				</g>
				<path class="st1" d="M748.4,514.3h-473c-0.8,0-1.5-0.7-1.5-1.5s0.7-1.5,1.5-1.5h473c0.8,0,1.5,0.7,1.5,1.5
					S749.3,514.3,748.4,514.3z"/>
				<path class="st1" d="M341.5,502.6c-8.2,0-14.9-6.7-14.9-14.9s6.7-14.9,14.9-14.9c8.2,0,14.9,6.7,14.9,14.9
					S349.7,502.6,341.5,502.6z M341.5,475.8c-6.5,0-11.9,5.3-11.9,11.9s5.3,11.9,11.9,11.9c6.5,0,11.9-5.3,11.9-11.9
					S348.1,475.8,341.5,475.8z"/>
				<path class="st1" d="M385.8,502.6c-8.2,0-14.9-6.7-14.9-14.9s6.7-14.9,14.9-14.9c8.2,0,14.9,6.7,14.9,14.9
					S394,502.6,385.8,502.6z M385.8,475.8c-6.5,0-11.9,5.3-11.9,11.9s5.3,11.9,11.9,11.9c6.5,0,11.9-5.3,11.9-11.9
					S392.3,475.8,385.8,475.8z"/>
				<path class="st1" d="M748.9,780.6H530.2c-0.3,0-0.6-0.1-0.9-0.3l-35.9-25.1c-20.8-14.5-41.5-29.1-62.3-43.6
					c-0.5-0.4-0.7-1-0.6-1.6c0.2-0.6,0.7-1.1,1.3-1.1l121.9-14.1c-17-36.4-33.9-72.8-50.9-109.2c-0.3-0.6-0.1-1.3,0.4-1.8
					s1.3-0.5,1.8-0.1c27.3,19.3,54.6,38.5,81.9,57.8l22.2,15.6L625,540.4c0.1-0.6,0.6-1.2,1.2-1.3c0.6-0.1,1.3,0.2,1.6,0.8
					l51.3,98.8l68.5-100.9c0.4-0.5,1.1-0.8,1.7-0.6c0.6,0.2,1.1,0.8,1.1,1.4v240.3C750.4,779.9,749.7,780.6,748.9,780.6z
					 M530.7,777.6h216.7v-234l-67.2,98.9c-0.3,0.4-0.8,0.7-1.3,0.7s-1-0.3-1.2-0.8l-50.3-96.9L611.8,660c-0.1,0.5-0.4,1-0.9,1.2
					s-1,0.2-1.5-0.1L585.2,644c-25.8-18.2-51.6-36.3-77.3-54.5c16.5,35.3,33,70.6,49.4,105.9c0.2,0.4,0.2,0.9,0,1.4
					c-0.2,0.4-0.7,0.7-1.1,0.8l-120,13.8c19.7,13.8,39.4,27.6,59.1,41.3L530.7,777.6z"/>
				<path class="st1" d="M297.2,502.6c-8.2,0-14.9-6.7-14.9-14.9s6.7-14.9,14.9-14.9s14.9,6.7,14.9,14.9S305.4,502.6,297.2,502.6z
					 M297.2,475.8c-6.5,0-11.9,5.3-11.9,11.9s5.3,11.9,11.9,11.9s11.9-5.3,11.9-11.9S303.8,475.8,297.2,475.8z"/>
			</g>
		</g>
		<path id="line_1_" class="st5" d="M719.8,899.1l-2.3-2c7.2-8.3,17.7-21.9,23.2-35.6c-7-1.3-14.3-4.4-17.5-10.8
			c-2.3-4.7-2.9-12,1.4-17c4.3-5.1,12.5-6.6,17.5-3.3c4.9,3.3,5.1,10.2,5.2,13.5c0.2,4.9-0.8,10-2.6,15.1c2.6,0.3,5,0.3,7.1,0.2
			c15.6-1,27.2-13,34.3-22.8c7.7-10.7,13.2-23.3,16.6-34.4c-5.1-0.2-9.7-1.5-13.7-3.9c-2.9-1.7-12.4-8.1-12.8-18.9
			c-0.1-2.3,0.2-10.1,6.4-14.8c6.5-4.9,15.8-3.5,20.9,0.7c2.6,2.1,4.4,5.1,5.3,8.9c1.4,5.4,0.6,14.6-2.2,24.9
			c3.2-0.2,5.8-0.8,7.2-1.2c34.6-8.1,68.3-83.7,68.7-84.5l2.7,1.2c-0.1,0.2-8.7,19.6-21.5,39.7c-17.4,27.3-34,42.9-49.2,46.5
			c-3,0.7-6,1.1-8.7,1.3c-3.5,12-9.5,25.3-17.3,36.2c-10.7,14.8-23.3,23.1-36.5,24c-2.3,0.2-5.2,0.1-8.4-0.3
			C738.1,876.4,727.2,890.5,719.8,899.1z M735.8,831.7c-3.2,0-6.7,1.4-8.9,4c-3.4,4-2.9,9.9-1,13.7c2.7,5.3,9.3,8.1,15.9,9.3
			c1.7-5,2.7-9.9,2.6-14.6c-0.1-3-0.3-8.7-3.9-11.1C739.2,832.1,737.5,831.7,735.8,831.7z M792.3,764.4c-2.8,0-5.5,0.7-7.9,2.5
			c-5.1,3.8-5.2,10.4-5.2,12.3c0.3,9.2,8.7,14.9,11.3,16.4c4.4,2.6,9,3.4,13,3.5c2.8-10.5,3.7-19.6,2.4-24.2
			c-0.3-1.2-1.2-4.7-4.3-7.3C799.4,765.6,795.9,764.4,792.3,764.4z"/>
		<path id="line" class="st5" d="M167.1,379c-5,0-9.9-0.8-14.5-2.2c-17.4-5.6-25.3-19.3-28.3-24.4c-0.2-0.4-0.4-0.8-0.7-1.2
			c-3.1,1.7-6.4,2.8-9.5,3.1c-0.8,0.1-1.5,0.1-2.3,0.1c-16,0-28.6-18.3-34.8-27.3c-3-4.3-7.3-11.6-9.5-20.4c-7.9,1-15.2-4-18.1-6.1
			c-10.4-7.1-14-17.7-17.1-26.9c-3.4-10.1-4.9-20.8-4.4-31.9c0-0.6,0.5-1,1-0.9c0.6,0,1,0.5,0.9,1c-0.5,10.8,0.9,21.3,4.2,31.2
			c3.1,9,6.5,19.2,16.4,25.9c3,2.1,9.5,6.5,16.6,5.7c-0.7-3.2-1-6.6-0.9-10.1c0.1-3.3,0.3-11.1,5.5-14.2c1-0.6,3.5-1.9,6.3-1.1
			c3.9,1.1,5.3,5.6,5.5,6.5c2,7-4.1,16.9-12.2,19.9c-0.6,0.2-1.2,0.4-1.7,0.5c2.1,8.4,6.3,15.5,9.1,19.7
			c6.3,9.1,19.3,28.1,35.2,26.3c2.9-0.3,6-1.3,8.8-2.9c-2.8-5.2-6-12.6-3-18.5c0.8-1.5,3-5.1,6.4-5.2c3.5-0.1,5.9,3.6,6.5,4.7
			c1.1,1.9,2.1,5.2,0.8,9.8c-1.2,4-4.3,7.5-8,10c0.2,0.4,0.5,0.8,0.7,1.2c2.9,5,10.5,18.2,27.2,23.5c6.5,2.1,13.6,2.7,20.6,1.7
			c0.6-0.1,1.1,0.3,1.1,0.8c0.1,0.5-0.3,1.1-0.8,1.1C171.7,378.8,169.4,379,167.1,379z M126.2,327.7
			C126.2,327.7,126.1,327.7,126.2,327.7c-2.5,0.1-4.3,3.2-4.8,4.1c-2.6,5.1,0.3,11.8,2.9,16.6c3.3-2.2,6.1-5.2,7.1-8.8
			c1.1-4,0.3-6.7-0.6-8.3C130.5,330.7,128.6,327.7,126.2,327.7z M76,281.1c-1.6,0-2.9,0.7-3.4,1c-4.2,2.6-4.4,9.6-4.5,12.6
			c-0.1,3.3,0.2,6.6,0.9,9.7c0.5-0.1,1-0.3,1.5-0.5c7.2-2.7,12.7-11.4,11-17.5c-0.2-0.7-1.3-4.3-4.2-5.1
			C76.8,281.2,76.4,281.1,76,281.1z"/>
	</g>
</g>
<g id="general">
	<g id="man">
		<g id="pattern_tshirt">
			<path class="st2" d="M374.7,342.6c-0.3,0.1-0.6,0.2-1,0.2c-1,0-1.9-0.6-2.3-1.5l-6.5-15.7c0.9-2.1,1.8-4.2,2.8-6.4l8.4,20.2
				C376.6,340.6,376,342.1,374.7,342.6z"/>
			<path class="st2" d="M427.6,334c-0.2,0-0.4,0-0.6-0.1l-25.3-6.5c-1.3-0.3-2.1-1.7-1.8-3c0.3-1.3,1.7-2.1,3-1.8l25.3,6.5
				c1.3,0.3,2.1,1.7,1.8,3C429.7,333.2,428.7,334,427.6,334z"/>
			<path class="st2" d="M477.8,209.2c-0.8,0-1.6-0.4-2.1-1.1c-0.7-1.2-0.4-2.7,0.8-3.5l22-14.1c1.2-0.7,2.7-0.4,3.5,0.8
				c0.7,1.2,0.4,2.7-0.8,3.5l-22,14.1C478.7,209.1,478.2,209.2,477.8,209.2z"/>
			<path class="st2" d="M468.4,318.6c-0.7,1.5-1.5,3.1-2.2,4.6l-7.3-1.9c-1.3-0.3-2.1-1.7-1.8-3c0.4-1.3,1.7-2.1,3-1.8L468.4,318.6z
				"/>
			<path class="st2" d="M503.6,245.8c-0.7,1.5-1.5,3.1-2.2,4.6l-20-5.2c-1.3-0.3-2.1-1.7-1.8-3c0.4-1.3,1.7-2.1,3-1.8L503.6,245.8z"
				/>
			<path class="st2" d="M439,298.7c-0.8,0-1.6-0.4-2.1-1.1c-0.8-1.1-0.5-2.7,0.6-3.5l21.5-14.8c1.1-0.8,2.7-0.5,3.5,0.6
				s0.5,2.7-0.6,3.5l-21.5,14.8C440,298.6,439.5,298.7,439,298.7z"/>
			<path class="st2" d="M536.6,161.4c-5,5.1-10,10.3-15,15.4c-0.3,0.3-0.7,0.5-1.1,0.6c-0.8,0.2-1.8,0-2.4-0.6c-1-1-1-2.6,0-3.5
				l13.4-13.4C532.2,160,536,161.1,536.6,161.4z"/>
			<path class="st2" d="M439.5,245.3c-1.3,0-2.4-1.1-2.5-2.4l-0.9-26.1c0-1.4,1-2.5,2.4-2.6c1.4,0,2.5,1,2.6,2.4l0.9,26.1
				C442,244.1,441,245.3,439.5,245.3C439.6,245.3,439.5,245.3,439.5,245.3z"/>
			<path class="st2" d="M402.3,277.9c-0.2,0-0.4,0-0.5-0.1c-1.3-0.3-2.2-1.6-1.9-3l5.6-25.5c0.3-1.3,1.6-2.2,3-1.9
				c1.3,0.3,2.2,1.6,1.9,3l-5.6,25.5C404.4,277.1,403.4,277.9,402.3,277.9z"/>
			<path class="st2" d="M448.8,187.4c-0.5,0.5-1.1,0.7-1.7,0.7c-0.7,0-1.3-0.3-1.8-0.8l-12.2-13.2c0.8-1.6,1.5-3.2,2.3-4.9
				l13.5,14.6C449.9,184.9,449.8,186.5,448.8,187.4z"/>
			<path class="st2" d="M422.5,376l-9.6,12c-1.4-1-2.7-1.9-4.1-2.9l9.8-12.2c0.9-1.1,2.4-1.2,3.5-0.4
				C423.2,373.4,423.3,374.9,422.5,376z"/>
		</g>
		<g id="head">
			<path id="face" class="st4" d="M547.5,100.6c-6.9-6.6-17.9-6.3-24.5,0.7c0,0-6.9-8.3,7.1-34.9c12.8-24.2-23.3-24.6-30.1-36.1
				c-4.7,2-9,4.5-12.7,7.2c-2.8,2-9.1,6.3-15.1,13.9c-1.8,2.3-3.8,5.1-5.7,8.3c-10.7,17.7-20.4,46.1-5,63.2c3.1,3.4,7,6.2,11.6,8.3
				l-4.6,17.3c-3.6,13.4,4.5,27.3,17.9,30.9c13.4,3.6,27.3-4.5,30.9-17.9l8.5-32c0.3-1.2,0.5-2.3,0.7-3.5c4.2-2.2,8.1-4.7,11.6-7.5
				c1.9-1.6,3.9-3.4,5.8-5.3c2.4-2.4,4.7-5.1,6.8-8C550,103.4,548.9,101.9,547.5,100.6z"/>
			<path id="nose" d="M472.1,91.3c-0.1,0-0.2,0-0.3-0.1L461.1,83c-0.1-0.1-0.2-0.3-0.2-0.4s0.1-0.3,0.2-0.4l21.4-14.4
				c0.2-0.2,0.5-0.1,0.7,0.1s0.1,0.5-0.1,0.7l-20.8,14l10.2,7.7c0.2,0.2,0.3,0.5,0.1,0.7C472.4,91.2,472.3,91.3,472.1,91.3z"/>
			<g id="brows">
				<ellipse transform="matrix(0.4072 -0.9133 0.9133 0.4072 233.6546 466.5998)" cx="476.3" cy="53.3" rx="2.3" ry="9"/>
				<ellipse transform="matrix(0.4072 -0.9133 0.9133 0.4072 238.7457 498.6374)" cx="503.5" cy="65.4" rx="2.3" ry="10.1"/>
			</g>
			<path d="M481.6,131.8c-3,0-6-0.3-9-0.8c-0.3,0-0.5-0.3-0.4-0.6s0.3-0.5,0.6-0.4c3.1,0.6,6.2,0.8,9.3,0.8c6.5-0.1,12.9-1.4,19.1-4
				c0.3-0.1,0.5,0,0.7,0.3s0,0.5-0.3,0.7c-6.3,2.6-12.8,4-19.5,4C481.9,131.8,481.8,131.8,481.6,131.8z"/>
			<g id="ear">
				<path class="st4" d="M552.7,110.8c-0.5-3.8-2.3-7.4-5.2-10.2c-6.9-6.6-17.9-6.3-24.5,0.7c-6.6,6.9-6.3,17.9,0.7,24.4
					c6.9,6.6,17.9,6.3,24.4-0.7C551.9,121.1,553.4,115.8,552.7,110.8z"/>
				<path d="M527,118.1c-0.2,0-0.4-0.2-0.5-0.4c-0.1-0.3,0.1-0.5,0.4-0.6c1.8-0.4,3.3-1.7,3.8-3.4c0.6-1.7,0.2-3.7-1.1-5
					c-0.1-0.1-0.2-0.3-0.1-0.5c0-0.2,0.2-0.3,0.3-0.3l14.4-4.8c0.3-0.1,0.5,0.1,0.6,0.3c0.1,0.3-0.1,0.5-0.3,0.6l-13.7,4.6
					c1.1,1.6,1.4,3.6,0.8,5.4C531,116.1,529.2,117.7,527,118.1C527.1,118.1,527,118.1,527,118.1z"/>
			</g>
			<path id="hair" d="M565.1,37.9c0-26.4-29.4-20.2-29.4-20.2c-9.5-17.5-32.4-8.7-36.2,4.8l0,0c-1.5-0.2-15.2-1.6-25.4,8.8
				c-11.3,11.7-7.8,27.3-7.5,28.3c1.9-3.1,3.8-5.9,5.7-8.3c6-7.6,12.3-11.9,15.1-13.9c3.7-2.7,8-5.2,12.7-7.2
				c6.8,11.5,42.9,11.9,30.1,36.1c-14,26.6-7.1,34.9-7.1,34.9c6.6-6.9,17.5-7.2,24.5-0.7c1.4,1.3,2.5,2.8,3.4,4.4
				c1,1.8,1.6,3.8,1.9,5.8C580.2,101,571.6,75,571.6,75C588,51.1,565.1,37.9,565.1,37.9z"/>
			<g id="eyes">
				<circle cx="474.8" cy="63.3" r="2.7"/>
				<circle cx="496.3" cy="73.9" r="2.7"/>
			</g>
			<path id="mouth" d="M479.3,107.5c-5.7,0-10.1-4.9-10.1-4.9c-0.2-0.2-0.2-0.5,0-0.7s0.5-0.2,0.7,0c0,0,1.9,2.1,4.7,3.5
				c3.7,1.8,7.3,1.4,10.6-1c0.2-0.2,0.5-0.1,0.7,0.1s0.1,0.5-0.1,0.7C483.6,106.9,481.3,107.5,479.3,107.5z"/>
		</g>
		<g id="legs">
			<g id="socks">
				<path class="st5" d="M142,687.7c-0.8,7.6-1.6,15.2-2.4,22.9c-0.2,1.5-0.3,3-0.5,4.5c-1.9-0.5-4-1.1-6.2-1.7
					c-0.3-0.1-0.6-0.2-1-0.3c-2.4-0.6-4.9-1.3-7.5-2c-0.3-0.1-0.7-0.2-1-0.3c-2.4-0.7-4.9-1.3-7.5-2c-0.3-0.1-0.7-0.2-1-0.3
					c-1.7-0.5-3.4-0.9-5.1-1.4c-0.4-0.1-0.8-0.2-1.2-0.3c-3.1-0.8-6.2-1.6-9.1-2.4c-0.3-0.1-0.7-0.2-1-0.3c-2.2-0.6-4.3-1.1-6.3-1.6
					c-0.3-0.1-0.6-0.2-1-0.2l0,0c-2.6-0.7-5.1-1.3-7.4-1.9c-0.3-0.1-0.7-0.2-1-0.2c-0.9-0.2-1.8-0.5-2.7-0.7
					c0.9-4.2,3.9-20.2,6.1-31.9c1.4,0.5,2.7,1,4.1,1.5c0.4,0.1,0.7,0.3,1.1,0.4c3,1,5.9,2.1,8.9,3.2c0.3,0.1,0.6,0.2,1,0.3
					c1.4,0.5,2.7,1,4.1,1.5c0.5,0.2,1,0.4,1.5,0.5c0.3,0.1,0.7,0.2,1,0.4c2.5,0.9,5,1.8,7.5,2.7c0.3,0.1,0.7,0.2,1,0.4l0,0
					c2.3,0.8,4.6,1.7,7,2.5c0.3,0.1,0.7,0.2,1,0.4c2.1,0.8,4.2,1.5,6.3,2.3c0.3,0.1,0.6,0.2,1,0.3c2.4,0.9,4.9,1.8,7.3,2.6
					c0.3,0.1,0.6,0.2,1,0.3C140.7,687.3,141.4,687.5,142,687.7z"/>
				<path class="st5" d="M382,684.6l-5.6,2.3l-1,0.4l-6.8,2.8l-1,0.4l-5.5,2.2l-0.9,0.4l-5,2.1l-1,0.4l-5.5,2.2l-0.9,0.4l-10.6,4.3
					l-0.9,0.4l-6.7,2.8l-0.9,0.4l-2.8,1.2c-1.7-2.9-3.4-5.7-5-8.6c1.9-1.5,3.7-3.1,5.6-4.6c0.3-0.2,0.5-0.5,0.8-0.7
					c1.3-1.1,2.7-2.2,4-3.3c0.3-0.2,0.5-0.4,0.8-0.6c1.5-1.2,2.9-2.4,4.4-3.6c0.3-0.2,0.6-0.5,0.8-0.7c2.1-1.7,4.1-3.4,6.2-5.1
					c0.3-0.2,0.6-0.5,0.8-0.7c2.4-1.9,4.7-3.9,7.1-5.8c0.3-0.2,0.5-0.4,0.8-0.6c1.7-1.4,3.4-2.8,5.1-4.2c0.3-0.2,0.6-0.5,0.9-0.7
					c2.3-1.9,4.6-3.8,6.9-5.7c0.3-0.2,0.6-0.5,0.9-0.8c0.5-0.4,1-0.9,1.6-1.3l0,0C372.9,668.1,377.5,676.3,382,684.6z"/>
				<g id="pattern">
					<path class="st4" d="M90.5,683.8c-0.5,1-1,1.7-1.5,2.5c-0.4,0.6-0.8,1.2-1.3,2c-2.1,3.5-3.4,7.7-3.8,12.4
						c-0.3-0.1-0.7-0.2-1-0.2c0.5-4.8,1.8-9,3.9-12.6c0.5-0.9,1-1.5,1.3-2.1c0.5-0.7,1-1.4,1.4-2.3c1.9-3.9,2.2-8.6,0.8-14.1
						c0.4,0.1,0.7,0.3,1.1,0.4C92.8,675.1,92.5,679.8,90.5,683.8z"/>
					<path class="st4" d="M101.3,673.2c-1.8,2.7-2.9,5.4-3.5,8.2c-0.2,0.9-0.2,1.8-0.3,2.7c-0.2,1.8-0.3,3.6-1.2,6.3
						c-0.5,1.7-1,2.7-1.5,3.6c-0.3,0.7-0.7,1.3-1,2.3c-0.8,2-1.3,4.2-1.5,6.5c-0.3-0.1-0.6-0.2-1-0.2c0.2-2.4,0.7-4.6,1.5-6.6
						c0.4-1,0.7-1.7,1.1-2.4c0.5-1,0.9-1.8,1.5-3.5c0.8-2.6,1-4.3,1.2-6.1c0.1-0.9,0.2-1.8,0.4-2.8c0.5-2.8,1.7-5.6,3.5-8.3
						C100.7,672.9,101,673,101.3,673.2z"/>
					<path class="st4" d="M122.8,691.4c-0.5,1-1,1.7-1.5,2.4c-0.4,0.6-0.8,1.2-1.3,2c-2.2,3.7-3.5,8.1-3.9,13.1
						c-0.3-0.1-0.7-0.2-1-0.3c0.4-5.1,1.8-9.5,4-13.3c0.5-0.9,1-1.5,1.4-2.1c0.5-0.7,0.9-1.4,1.4-2.3c1.4-2.9,1.9-6.2,1.6-9.9
						c0.3,0.1,0.7,0.2,1,0.4C124.8,685.2,124.2,688.5,122.8,691.4z"/>
					<path class="st4" d="M131.8,684.1c-0.8,1.6-1.3,3.3-1.6,4.9c-0.2,0.9-0.2,1.8-0.3,2.7c-0.2,1.8-0.3,3.6-1.2,6.3
						c-0.5,1.7-1,2.7-1.5,3.6c-0.3,0.7-0.7,1.3-1,2.3c-0.9,2.3-1.4,4.7-1.5,7.3c-0.3-0.1-0.7-0.2-1-0.3c0.2-2.7,0.7-5.2,1.6-7.5
						c0.4-1,0.7-1.7,1.1-2.4c0.5-1,0.9-1.9,1.5-3.5c0.8-2.5,1-4.3,1.2-6.1c0.1-0.9,0.2-1.8,0.3-2.8c0.3-1.7,0.9-3.4,1.6-5.1
						C131.1,683.8,131.4,684,131.8,684.1z"/>
					<path class="st4" d="M140,687c-0.7,1.5-1.1,3-1.4,4.5c-0.2,1-0.3,1.8-0.3,2.7c-0.2,1.8-0.4,3.6-1.2,6.3c-0.5,1.7-1,2.7-1.5,3.6
						c-0.3,0.7-0.7,1.3-1,2.3c-0.8,2.2-1.4,4.6-1.5,7.1c-0.3-0.1-0.6-0.2-1-0.3c0.2-2.6,0.7-5,1.6-7.2c0.4-1,0.7-1.7,1.1-2.4
						c0.5-1,0.9-1.9,1.5-3.5c0.8-2.5,1-4.3,1.2-6.1c0.1-0.9,0.2-1.8,0.3-2.8c0.3-1.6,0.8-3.1,1.4-4.6
						C139.4,686.8,139.7,686.9,140,687z"/>
					<path class="st4" d="M113.1,684.4c-1.2,3.5-1.1,7-1,9.4s0.3,4,0.6,5.3c0.3,1.9,0.5,3.1-0.1,4.8c-0.5,1.3-1.4,2.4-2.6,3.4
						c-0.4-0.1-0.8-0.2-1.2-0.3c1.4-1,2.3-2.2,2.8-3.5c0.6-1.4,0.4-2.5,0.1-4.3c-0.2-1.3-0.5-3-0.6-5.5c-0.1-2.4-0.2-6,1.1-9.7
						c0.7-2.1,1.8-4.1,3.3-5.9c0.3,0.1,0.7,0.2,1,0.4C115,680.4,113.8,682.4,113.1,684.4z"/>
					<path class="st4" d="M105.6,686.5c0.5,2,1,3.8,0,6c-0.7,1.5-1.6,2.2-2.5,2.9c-0.7,0.5-1.5,1.1-2.2,2.2c-1.2,1.8-1.6,4.2-1.3,7
						c-0.3-0.1-0.7-0.2-1-0.3c-0.2-3,0.3-5.4,1.5-7.3c0.8-1.2,1.7-1.9,2.5-2.5c0.9-0.6,1.6-1.2,2.2-2.5c0.8-1.9,0.4-3.5-0.1-5.4
						c-0.4-1.5-0.8-3.1-0.7-5.1c0.2-2.2,1.2-4.4,2.9-6.5c0.3,0.1,0.7,0.2,1,0.4c-1.8,2-2.7,4.1-2.9,6.2
						C104.8,683.5,105.2,685,105.6,686.5z"/>
					<path class="st4" d="M330.5,705.6l-0.9,0.4c-0.8-1.9-1.2-3.8-1.5-5.8c-0.1-0.9-0.1-1.6-0.2-2.2c0-0.8-0.1-1.5-0.2-2.5
						c-0.1-0.5-0.2-1.1-0.4-1.6c0.3-0.2,0.5-0.5,0.8-0.7c0.3,0.7,0.5,1.4,0.6,2.1c0.2,1,0.2,1.8,0.3,2.6c0,0.6,0,1.3,0.1,2.2
						C329.3,701.9,329.8,703.8,330.5,705.6z"/>
					<path class="st4" d="M338.2,702.4l-0.9,0.4c-0.3-0.7-0.6-1.4-0.8-2.1c-0.3-0.9-0.4-1.6-0.5-2.3c-0.2-0.9-0.3-1.8-0.9-3.2
						c-0.8-2.2-1.7-3.5-2.5-4.7c-0.2-0.2-0.3-0.4-0.4-0.6c0.3-0.2,0.5-0.4,0.8-0.6c0.2,0.2,0.3,0.5,0.5,0.7c0.9,1.3,1.8,2.6,2.7,4.9
						c0.5,1.5,0.7,2.5,0.9,3.4c0.1,0.7,0.2,1.3,0.5,2.2C337.6,701.1,337.9,701.8,338.2,702.4z"/>
					<path class="st4" d="M362.2,692.6l-0.9,0.4c-1-2.8-2.1-5.7-3.2-8.6c-1.5-3.9-1.9-4.9-2.4-5.8c-1-1.9-2.1-3.7-3.6-5.4
						c0.3-0.2,0.5-0.4,0.8-0.6c1.5,1.8,2.7,3.6,3.7,5.6c0.5,1,0.9,2,2.4,5.9C360.1,687,361.2,689.8,362.2,692.6z"/>
					<path class="st4" d="M368.6,690l-1,0.4c-1.4-1.8-2.3-3.8-2.5-5.9c-0.1-1.3,0-2.4,0.2-3.4c0.2-1.3,0.4-2.4-0.2-3.8
						c-0.6-1.5-1.5-2.1-2.6-2.8c-0.8-0.5-1.7-1.1-2.5-2c-1-1.1-1.6-2.4-2-4c0.3-0.2,0.6-0.5,0.9-0.7c0.3,1.6,1,3,1.9,4.1
						c0.7,0.8,1.5,1.4,2.3,1.9c1.2,0.8,2.3,1.5,3,3.3c0.7,1.6,0.5,3,0.3,4.3c-0.1,1-0.3,1.9-0.2,3.2
						C366.4,686.4,367.2,688.3,368.6,690z"/>
					<path class="st4" d="M376.5,686.8l-1,0.4c-1.9-1.8-3.1-3.7-3.5-5.9c-0.2-1.1-0.1-1.9-0.1-2.7c0.1-1,0.1-1.9-0.2-3.4
						c-0.5-2-1.4-3.2-2.3-4.4c-0.5-0.7-1.1-1.4-1.6-2.3c-1-1.9-1.7-4.1-2-6.5c0.3-0.2,0.6-0.5,0.9-0.8c0.2,2.6,0.9,4.8,2,6.8
						c0.5,0.8,1,1.5,1.5,2.2c1,1.3,1.9,2.5,2.4,4.8c0.4,1.6,0.3,2.7,0.3,3.7c0,0.8-0.1,1.5,0.1,2.5
						C373.4,683.2,374.5,685.1,376.5,686.8z"/>
					<path class="st4" d="M356.2,695.1l-1,0.4c0-0.7,0-1.4-0.2-2c-0.4-1.3-1.1-1.8-2.3-2.8c-0.9-0.7-2.1-1.7-3.5-3.2
						s-3.6-3.9-4.7-7.1c-0.1-0.2-0.1-0.4-0.2-0.6c0.3-0.2,0.6-0.5,0.8-0.7c0.1,0.3,0.2,0.6,0.3,0.9c1.1,3.1,3.2,5.3,4.5,6.8
						c1.4,1.5,2.5,2.4,3.4,3.1c1.3,1,2.2,1.7,2.7,3.3C356.1,693.8,356.2,694.4,356.2,695.1z"/>
					<path class="st4" d="M349.7,697.7l-0.9,0.4c-0.4-2.1-1.3-3.5-2.5-4.3c-0.7-0.4-1.3-0.5-2-0.6c-0.8-0.2-1.8-0.3-3-1.1
						c-2.4-1.5-3.4-3.9-4.1-6.4c0.3-0.2,0.6-0.5,0.8-0.7c0.7,2.5,1.6,4.8,3.8,6.3c1,0.7,1.8,0.8,2.6,0.9c0.7,0.1,1.5,0.3,2.3,0.8
						C348.3,693.8,349.3,695.4,349.7,697.7z"/>
				</g>
			</g>
			<g id="shoes">
				<path class="st2" d="M139.2,715.1c-1,9.4-2,18.8-3,28.1c-10.6,5.3-21.6,10.6-33,15.8c-17.6,8-34.6,15-51.1,21.4L2.4,801.2
					c-0.6-2.4-1.2-5.4-1.6-8.6c0,0-0.3-2.9-0.4-5.5c-0.1-6.8,3.6-16.5,5.8-20.3c9.2-16.3,51.5-36.3,68.9-59.2c1.7-2.3,3.4-4.8,5-7.8
					c3.9-5.9,11.2-8.5,17.9-6.6c6.3,1.8,10.9,7.5,11.4,14.1C119.4,709.9,129.3,712.5,139.2,715.1z"/>
				<path class="st5" d="M0.5,788.3c-0.2,0-0.4-0.1-0.5-0.3c-0.1-0.3,0-0.5,0.3-0.7l137-56.7c0.3-0.1,0.5,0,0.7,0.3s0,0.5-0.3,0.7
					l-137,56.7C0.6,788.3,0.6,788.3,0.5,788.3z"/>
				<path class="st5" d="M71.1,740.4c-0.1,0-0.2,0-0.3-0.1l-15.4-9.9c-0.2-0.1-0.3-0.5-0.1-0.7c0.1-0.2,0.5-0.3,0.7-0.2l15.4,9.9
					c0.2,0.1,0.3,0.5,0.1,0.7C71.5,740.4,71.3,740.4,71.1,740.4z"/>
				<path class="st5" d="M77.9,732.5c-0.1,0-0.1,0-0.2,0L61,725.4c-0.3-0.1-0.4-0.4-0.3-0.7c0.1-0.3,0.4-0.4,0.7-0.3l16.7,7.1
					c0.3,0.1,0.4,0.4,0.3,0.7C78.3,732.3,78.1,732.5,77.9,732.5z"/>
				<path class="st2" d="M398.1,713.9c-6,10.6-12.5,21.6-19.6,32.7c-11,17.4-22.2,33.4-33.1,48c-18.5,6.9-37,13.9-55.5,20.9
					c-0.5-2.8-0.9-6.9-0.4-11.8c0.8-7.8,3.6-13.6,5.3-16.7c10.2-19.3,19.9-24.5,28.2-42c2.6-5.6,6.6-14.5,6.2-25.7
					c-0.2-4.4-1-8.5-2.3-12.3c0.8-4.9,4.3-9,8.9-10.5c6.3-2.1,11.5,1.6,12,2c11.5-4.7,23-9.4,34.4-14c0.1,0.2,0.5,1,0.7,1.2
					C387.9,695.2,393,704.6,398.1,713.9z"/>
				<path class="st5" d="M289.5,804.3c-0.2,0-0.4-0.1-0.5-0.3c-0.1-0.3,0-0.5,0.3-0.6l47.6-18.3l55.1-81.9c0.2-0.2,0.5-0.3,0.7-0.1
					s0.3,0.5,0.1,0.7l-55.2,82c-0.1,0.1-0.1,0.2-0.2,0.2l-47.7,18.4C289.6,804.3,289.5,804.3,289.5,804.3z"/>
				<path class="st5" d="M325,746c-0.3,0-0.5-0.2-0.5-0.5s0.2-0.5,0.5-0.5l20.1-0.6c0.2,0,0.5,0.2,0.5,0.5s-0.2,0.5-0.5,0.5L325,746
					L325,746z"/>
				<path class="st5" d="M327.8,740c-0.2,0-0.4-0.2-0.5-0.4c-0.1-0.3,0.1-0.5,0.4-0.6l19.6-4.5c0.3-0.1,0.5,0.1,0.6,0.4
					s-0.1,0.5-0.4,0.6l-19.6,4.5H327.8z"/>
			</g>
			<g id="pants">
				<path class="st3" d="M435.2,460.6c-11.8,0-23.6,0-35.4-0.1c9.9-20.4,19.7-40.8,29.6-61.2c-19.5-12.9-39.3-27.2-59.2-42.9
					c-4.7-3.7-9.2-7.3-13.8-11c-10,2-24,5-40.6,9.1c-17.2,4.2-28.4,6.9-40.6,10.7c-24.3,7.5-56.1,17.6-87.5,42.5
					c-2.3,1.8-12.5,10-23.9,22.3c-21.6,23.3-38.5,51.7-62.5,122.4c-9.8,28.6-21.3,65.9-32,110.3c6.6,2,12.3,3.8,16.9,5.2
					c2,0.6,2.5,0.8,2.9,0.9c3.7,1.2,6.6,2.5,16.2,5.9c12.2,4.4,24.4,8.8,36.6,13.1c5.8,2.1,11.7,4.2,17.5,6.3l7.4,2.6
					c12.6-52.5,25.3-104.9,37.9-157.4c7.5,19.7,19.5,40,34.3,63.7c25.8,41.3,49.8,76.6,70.4,105.5c3.6-3,7.2-5.9,10.8-8.9
					c0.5-0.4,1-0.8,1.4-1.2c15.5-12.8,31-25.7,46.6-38.5l0,0c9.6-7.9,19.2-15.9,28.8-23.8c-35.5-44.1-71.1-88.2-106.6-132.3
					c51.1-16.2,91.8-28,119.5-35.8C420.1,465.2,428.3,462.9,435.2,460.6z"/>
				<path class="st2" d="M209.3,550.5c-0.2,0-0.4-0.1-0.5-0.3c-7.9-17.1-10.7-35.2-8.2-52.3c4.2-28.2,21.4-45.9,35.2-60.1
					c18.1-18.6,40.1-32.6,65.6-41.7c0.3-0.1,0.5,0,0.6,0.3s0,0.5-0.3,0.6c-25.3,9-47.3,23-65.2,41.5c-13.7,14.1-30.8,31.7-34.9,59.6
					c-3.2,21.5,2.7,40,8.1,51.8c0.1,0.2,0,0.5-0.2,0.7C209.4,550.5,209.3,550.5,209.3,550.5z"/>
				<path class="st2" d="M345.8,679.1c-0.2,0-0.4-0.1-0.5-0.3l-83-190.9c-0.1-0.3,0-0.5,0.3-0.7l157-68.7c0.3-0.1,0.5,0,0.7,0.3
					c0.1,0.3,0,0.5-0.3,0.7L263.4,488l82.8,190.4c0.1,0.3,0,0.5-0.3,0.7C345.9,679,345.8,679.1,345.8,679.1z"/>
				<path class="st2" d="M118.9,680c-0.1,0-0.2,0-0.2-0.1c-0.2-0.1-0.3-0.4-0.2-0.7l81.7-161c0.1-0.2,0.4-0.3,0.7-0.2
					c0.2,0.1,0.3,0.4,0.2,0.7l-81.7,161C119.2,679.9,119.1,680,118.9,680z"/>
			</g>
		</g>
		<g id="cardigan">
			<path class="st6" d="M668.9,337.3C606,216.6,585.8,192.4,558.4,173.7c-3.4-2.3-8.7-5.9-15.2-9.9
				c-27.9,57.7-55.8,115.5-83.7,173.2c-10,20.7-20,41.4-30,62.1c-9.9,20.4-19.7,40.8-29.6,61.2c11.8,0,23.6,0.1,35.4,0.1
				c4.7,0,9.4,0,14,0c17.8,0,35.6,0,53.4-0.1c16.5-60.9,33-121.8,49.4-182.7c34.7,52.8,69.4,105.5,104.1,158.3
				c19.3-3.1,38.6-6.3,57.9-9.4C703.8,405.6,688.3,374.6,668.9,337.3z"/>
			<path class="st6" d="M446.2,145.1c-0.3,0-0.5,0.1-0.8,0.1l0,0c-0.3,0.1-0.7,0.1-1.1,0.2c-1.2,0.2-2.5,0.4-4,0.7
				c-0.5,0.1-1,0.2-1.5,0.3s-1.1,0.2-1.6,0.4c-59.6,13.4-81.4,62-101.9,58.5c0,0,0,0-0.1,0c-0.2,0-0.5-0.1-0.7-0.1
				c-11.4-2.7-24.5-22.1-26.6-105.3c0,0,0,0-0.1,0c-15.5-3.6-31-7.1-46.4-10.7c0,0-0.1,0-0.2,0c-9.2,50.2-6.2,90.4-2.3,116.1
				c5.6,36.6,10.7,70.1,34.7,81.6c13,6.2,27.2,4,42.1-1.1l0,0c7.2-2.5,14.5-5.5,21.9-8.7c1.4-0.6,2.8-1.2,4.2-1.9
				c0.4-0.2,0.9-0.4,1.3-0.6c-2,3.4-4.1,6.9-6.2,10.5c-4.2,7.1-8.6,14.5-12.5,21.2c-9.5,16.1-19,32.1-28.5,48.2
				c1.9-0.5,3.8-0.9,5.7-1.4c11-2.6,22.6-5.2,34.9-7.7c12.7-29.7,25.8-59.8,39.5-90.2c1.7-3.7,3.3-7.4,5-11.1
				c14.5-32,29.1-63.4,43.7-94.1l2.5-5C446.9,145,446.6,145.1,446.2,145.1z"/>
			<path class="st2" d="M357.1,285.1c-0.1,0-0.2,0-0.2-0.1c-0.2-0.1-0.3-0.4-0.2-0.7l28.2-51.1c0.1-0.2,0.4-0.3,0.7-0.2
				c0.2,0.1,0.3,0.4,0.2,0.7l-28.2,51.1C357.5,285,357.3,285.1,357.1,285.1z"/>
		</g>
		<g id="hands">
			<path id="hand_l" class="st4" d="M276.6,74.1c-2.2,0.6-4.9-0.9-6.3-3.7c-2.5-6.7-5-13.4-7.4-20.2c-0.2-0.5-0.5-1-0.8-1.5
				c3.6,4.5,7.3,9.4,11,14.5c2.1,3,4.2,6,6.1,8.9C278.8,72.8,277.9,73.7,276.6,74.1z M307.2,60.5c-2.1-3.4-6.6-6-15.7-11.1
				c-7.6-4.3-14.3-7.2-19-9.1c-10.1-4.5-20.2-9-30.4-13.4c-3.2-1.3-6.9,0.2-8.2,3.4s0.2,6.9,3.5,8.2l18.3,7.5
				c-0.4,0.1-0.9,0.2-1.3,0.3c-3.4,1.3-5.1,5.1-3.8,8.5c1.3,5.7,2.9,11.7,4.8,18c1.8,5.8,3.7,11.1,5.7,16.1c0,0,0.1,0,0.2,0
				c15.5,3.6,31,7.1,46.4,10.7c0.2-1.9,0.4-4.9,0.6-8.5C310,65.7,308.2,62.1,307.2,60.5z"/>
			<g id="hand_r">
				<path class="st4" d="M766.2,451.3c0.4-0.7,0.6-1.4,0.7-2.2l0,0c0.5-3.6-2-6.9-5.6-7.4h-0.2c-0.4-3.2-3.2-5.7-6.5-5.7H719
					l-4.9-9.3l-57.9,9.4c2.3,5.8,3.7,10.6,4.5,13.9c1,4.1,1.6,7.4,4.3,10.7c1.7,2,21.4,17.6,29.6,24.4c2.7,2.4,6.9,2.1,9.2-0.5
					c2.4-2.7,2.2-6.9-0.5-9.2l-16.4-14.6c3.8,0,7.7,0,11.5,0l0,0l50.6,15.9c3.4,1.1,7.1-0.8,8.2-4.3s-0.8-7.1-4.3-8.2l-10.8-3.4
					l19.5,2.6c3.6,0.5,6.9-2,7.4-5.6C769.4,455.1,768.2,452.6,766.2,451.3z"/>
				<path d="M742.2,461.1c-0.1,0-0.1,0-0.2,0l-16.7-5.6c-0.3-0.1-0.4-0.4-0.3-0.6c0.1-0.3,0.4-0.4,0.6-0.3l16.7,5.6
					c0.3,0.1,0.4,0.4,0.3,0.6C742.6,461,742.4,461.1,742.2,461.1z"/>
				<path d="M766.2,451.8C766.2,451.8,766.1,451.8,766.2,451.8l-39.4-5.9c-0.3,0-0.5-0.3-0.4-0.6c0-0.3,0.3-0.5,0.6-0.4l39.4,5.9
					c0.3,0,0.5,0.3,0.4,0.6C766.6,451.6,766.4,451.8,766.2,451.8z"/>
				<path d="M761.1,442.1C761.1,442.1,761,442.1,761.1,442.1l-32.9-2.2c-0.3,0-0.5-0.3-0.5-0.5c0-0.3,0.3-0.5,0.5-0.5l32.9,2.2
					c0.3,0,0.5,0.3,0.5,0.5C761.5,441.9,761.3,442.1,761.1,442.1z"/>
			</g>
		</g>
	</g>
</g>
</svg>
