<?xml version="1.0" encoding="utf-8"?>
<!-- Generator: Adobe Illustrator 22.1.0, SVG Export Plug-In . SVG Version: 6.00 Build 0)  -->
<svg version="1.1" id="Слой_1" xmlns="http://www.w3.org/2000/svg" xmlns:xlink="http://www.w3.org/1999/xlink" x="0px" y="0px"
	 viewBox="0 0 1276.1 1252.5" style="enable-background:new 0 0 1276.1 1252.5;" xml:space="preserve">
<style type="text/css">
	.st0{fill:#FFFFFF;}
	.st1{fill:#9E68E2;}
	.st2{fill:#EFFA0E;}
	.st3{fill:#D5E0EA;}
	.st4{fill:#00D28F;}
	.st5{fill:#1F0D60;}
	.st6{fill:#FF0053;}
</style>
<g id="background_2_">
	<g id="background_1_">
		<rect id="white_background" x="206.3" y="155.4" class="st0" width="777.7" height="758"/>
		<g id="pattern_1_">
			<path class="st1" d="M725.3,419.5c-24.7,29.2-63,41-93.6,26s-44.5-52.4-36.3-89.7c-11.1-5.5-22.3-10.9-33.4-16.4
				c-26.6,53.7-4.1,119.7,49.9,146.2s120.2,4.1,146.8-49.7C747.5,430.4,736.4,425,725.3,419.5z"/>
			<path class="st1" d="M431,255.5c-23.6,30.1-61.5,43.2-92.6,29.3c-31.1-13.9-46.4-50.8-39.5-88.4c-11.3-5.1-22.7-10.1-34-15.2
				c-24.6,54.6,0.2,119.8,55.1,144.3s120.3-0.2,144.9-54.9C453.7,265.7,442.4,260.6,431,255.5z"/>
			<path class="st1" d="M986.7,239.3v53.5c-1.3,1.1-2.6,2.1-4,3.1c-30.9,22.6-73,28.7-110.2,12c-22.8-10.2-40.3-27.4-51.4-47.9
				c-15.6-28.9-18.1-64.5-3.7-96.5c11.3,5.1,22.7,10.1,34,15.2c-0.6,3.2-1,6.3-1.3,9.5c-2.9,34.2,12.3,66.1,40.8,78.9
				c30.8,13.8,68.1,1.1,91.8-28.3c0.3-0.3,0.5-0.7,0.8-1C984.6,238.3,985.6,238.8,986.7,239.3z"/>
			<path class="st1" d="M986.7,767.2v2.7c-1.2,2.6-2.6,5.1-4,7.6c-27.7,47.7-88.4,68.1-139.9,45.1c-54.9-24.5-79.7-89.7-55.1-144.3
				c11.3,5.1,22.6,10.1,34,15.2c-6.9,37.6,8.4,74.5,39.5,88.4s68.9,0.8,92.6-29.3c9.7,4.3,19.3,8.6,28.9,12.9
				C984,766,985.4,766.6,986.7,767.2z"/>
			<path class="st1" d="M248.8,478.2c-8.4,18.6-21.6,33.8-37.4,44.7c-1.3,0.9-2.7,1.8-4.1,2.7v-54.1c1.4-1.4,2.8-2.9,4.1-4.4
				c1.2-1.3,2.3-2.7,3.4-4.1C226.2,468,237.5,473.1,248.8,478.2z"/>
			<path class="st1" d="M412.9,783.4c-23.6,30.1-61.5,43.2-92.6,29.3s-46.4-50.8-39.5-88.4c-11.3-5.1-22.7-10.1-34-15.2
				c-24.6,54.6,0.2,119.8,55.1,144.3s120.3-0.2,144.9-54.9C435.6,793.6,424.3,788.5,412.9,783.4z"/>
		</g>
		<g id="frame">
			<path class="st2" d="M986.7,645.6v266.2c0,1.1-0.9,2-2,2H301.6c-1.1,0-2-0.9-2-2s0.9-2,2-2h681.1V645.6c0-1.1,0.9-2,2-2
				C985.8,643.6,986.7,644.5,986.7,645.6z"/>
			<path class="st2" d="M986.7,153.8v392c0,0.8-0.4,1.4-1,1.7c-0.3,0.2-0.6,0.3-1,0.3c-1.1,0-2-0.9-2-2v-390H209v623.8
				c0,1.1-0.9,2-2,2c-0.3,0-0.5-0.1-0.8-0.2c-0.7-0.3-1.2-1-1.2-1.8V153.8c0-1.1,0.9-2,2-2h777.7
				C985.8,151.8,986.7,152.7,986.7,153.8z"/>
		</g>
		<g id="lines">
			<path class="st3" d="M163.4,743.2c-0.5,0-1-0.1-1.5-0.4c-24.2-13.8-57.4-38.9-78-80.8c-0.5-0.9-8.1-16.7-12.5-44.1
				c-18.2-0.7-40-10.4-54.1-36c-18.6-33.8-18.8-66.5-15.7-88c3.4-23.3,11.1-38.4,11.5-39c0.8-1.5,2.6-2,4-1.3c1.5,0.8,2,2.6,1.3,4
				c-0.1,0.1-7.7,15-10.9,37.4c-3,20.5-2.8,51.8,15,84c12.6,22.9,31.8,31.9,48,32.9c-1.4-10-2.2-21.4-2.2-34.1
				c0-8.9,1-18.7,8.4-23.4c8.1-5.2,18.8-0.8,23.8,2.5c11.8,7.9,15.8,25.1,12.6,36.4c-3.5,12.8-16.6,22.2-33.2,24.2
				c-0.8,0.1-1.6,0.2-2.4,0.2c4.4,26.2,11.7,41.3,11.8,41.5c19.9,40.5,52.1,64.9,75.6,78.2c1.4,0.8,1.9,2.6,1.1,4.1
				C165.4,742.7,164.4,743.2,163.4,743.2z M85.2,558.1c-2,0-3.8,0.4-5.4,1.4c-4.9,3.1-5.6,11.4-5.6,18.3c0,12.6,0.9,24,2.3,34.1
				c0.9-0.1,1.8-0.1,2.6-0.2c14.2-1.7,25.2-9.4,28.1-19.8c2.6-9.2-1-23.7-10.2-29.8C94.2,560.1,89.5,558.1,85.2,558.1z"/>
			<path class="st3" d="M1273.6,310.4C1273.6,310.4,1273.6,310.4,1273.6,310.4c-37.4-0.6-71.3-9.6-100.6-26.7
				c-16.7-9.7-29.2-20.4-38.3-32.7c-7.1-9.7-14.8-23.7-18.6-37.6c-2-0.4-4.1-1-6.3-1.6c-35.8-10.3-52.6-45.5-60.7-62.4
				c-0.4-0.8-6.7-14.4-9.2-31.4c-16.7-2.7-27.3-16.3-33.2-23.8C990,72.8,987.8,48,986.4,31.6c-0.9-9.7-0.8-19.6,0-29.3
				c0.1-1.4,1.3-2.4,2.7-2.3c1.4,0.1,2.4,1.3,2.3,2.7c-0.8,9.4-0.8,19,0,28.4c1.4,15.8,3.5,39.7,19.3,60
				c5.2,6.7,14.6,18.7,28.7,21.6c-0.5-5.3-0.5-10.8,0.2-16.3c0.8-6.7,3.1-12.2,6.8-16.6c2-2.4,6.2-7.4,12.8-7.8
				c7.7-0.5,14.1,5.5,16.8,11.3c5.6,12.1-4.5,24.4-4.9,24.9c-7.7,9.3-19.6,10.4-25.9,10.2c2.5,15.9,8.4,28.6,8.5,28.8
				c7.8,16.3,24,50.1,57.6,59.8c1.3,0.4,2.5,0.7,3.7,1c-2-10.5-1.4-20.6,3.8-28.2c4-5.9,9-9.5,14.8-10.8c6.8-1.5,14.1,0.3,18.7,4.6
				c4.2,4,6.4,10,6,17c-0.3,6.3-2.7,12.5-6.4,16.7c-4.4,5-13.1,9.8-30.1,7.2c3.4,11.2,9.6,23.4,17.1,33.6
				c8.6,11.7,20.7,21.9,36.8,31.3c28.6,16.7,61.6,25.4,98.1,26c1.4,0,2.5,1.2,2.5,2.5C1276.1,309.3,1275,310.4,1273.6,310.4z
				 M1120.3,209.1c16.3,3,24.1-0.9,27.8-5.2c5.9-6.8,7.4-20.5,0.7-26.7c-3.4-3.2-9-4.5-14.2-3.4c-4.5,1-8.5,3.9-11.7,8.7
				C1117.7,190.1,1118.4,200.5,1120.3,209.1z M1044.4,113.4c5.2,0.2,16-0.3,22.7-8.4c0.1-0.1,8.5-10.4,4.2-19.6
				c-2.1-4.4-6.8-8.7-12-8.4c-4.4,0.3-7.5,3.9-9.3,6.1c-3.1,3.7-4.9,8.3-5.7,14C1043.8,102.5,1043.9,108,1044.4,113.4z"/>
		</g>
	</g>
</g>
<g id="general_1_">
	<g id="general">
		<path id="star" class="st2" d="M272.7,1192.2c-18.5,10.3-37,20.5-55.5,30.8c9.9-18,19.9-36.1,29.8-54.1
			c-15.8-10.2-31.7-20.4-47.5-30.6c16.4-2.3,32.8-4.6,49.2-6.9c-0.5-15.3-0.9-30.5-1.4-45.8c12.3,10.9,24.6,21.8,37,32.7
			c14.6-16.7,29.2-33.3,43.8-50c-2.5,21.7-5,43.5-7.4,65.2c19.1,2.4,38.2,4.7,57.3,7.1c-17.3,8.1-34.6,16.1-52,24.2
			c13.9,18.8,27.8,37.5,41.7,56.3c-21-8.5-42-17-62.9-25.5c-4.5,19-9,37.9-13.4,56.9C285.1,1232.3,278.9,1212.2,272.7,1192.2z"/>
		<g id="man">
			<g id="tshirt">
				<path id="tshirt_1_" class="st4" d="M985.7,547.6c-0.9-1.7-1.9-3.4-3-5.1c-5.2-8.5-11.7-16.8-19.6-25.5c-0.6-0.7-1.2-1.3-1.9-2
					c-11.5-12.3-25.8-25.3-42.9-39.8c-0.7-0.6-1.3-1.1-2-1.7c-6.3-5.3-13-10.9-20.1-16.8c-26.5-21.8-54.3-44-83.5-66.6
					c-0.9-0.7-1.7-1.3-2.6-2c-7.5-5.8-15.1-11.5-22.7-17.4c-0.7-0.5-1.3-1-2-1.5c-2.1-1.6-4.3-3.2-6.5-4.9c2.2-5.3,4.3-10.7,6.5-16
					c0.7-1.7,1.3-3.3,2-5c11.3-28.1,22.6-56.1,33.9-84.2c0.3-0.7,0.5-1.3,0.8-2c13.6-33.8,27.2-67.6,40.8-101.4H475.2
					c-14.5,33.8-29,67.6-43.6,101.4c-0.3,0.7-0.6,1.3-0.9,2c-9.3,21.7-18.7,43.4-28,65.2c-0.7,1.5-1.3,3.1-2,4.7
					c-8.5,19.7-16.9,39.4-25.4,59.1c-0.3,0.7-0.6,1.3-0.8,2c-17.9,41.6-35.8,83.3-53.7,124.9c-0.3,0.7-0.6,1.3-0.9,2
					c-14.7,34.2-29.4,68.4-44.1,102.5c-0.7,1.5-1.3,3.1-2,4.6c-2.5,5.9-5.1,11.8-7.6,17.7c-0.3,0.7-0.6,1.3-0.9,2
					c-18.5,43-37,86-55.4,128.9c-0.3,0.7-0.6,1.3-0.9,2c0,0,0,0.1-0.1,0.1c-0.7,1.5-1.3,3.1-2,4.7c-0.3,0.6-0.5,1.2-0.8,1.8
					c-17,39.4-33.9,78.8-50.8,118.3c-0.3,0.7-0.6,1.3-0.9,2c-2.2,5.1-4.4,10.2-6.6,15.3c5.2,2.2,10.5,4.3,15.7,6.5
					c27.2,11.3,54.5,22.7,81.7,34c9.5,3.9,19,7.9,28.5,11.8c0.6,0.2,1.1,0.5,1.7,0.7c0.1-0.2,0.2-0.5,0.3-0.7
					c8.6-19.2,17.2-38.4,25.8-57.6c1.5-3.4,3-6.7,4.5-10.1c0.3-0.7,0.6-1.3,0.9-2c18.6-41.6,37.3-83.3,55.9-124.9
					c0.3-0.7,0.6-1.3,0.9-2c12.3-27.4,24.5-54.8,36.8-82.2c0.7-1.5,1.3-3,2-4.5c6.3-14.1,12.6-28.2,18.9-42.3c0.3-0.7,0.6-1.3,0.9-2
					c18.6-41.6,37.3-83.2,55.9-124.9c0.3-0.7,0.6-1.3,0.9-2c1.3-2.9,2.6-5.7,3.9-8.6c8.1-1.5,16.2-2.8,24.5-4.2l-1.5,12.8l-0.2,2
					l-2.2,18.4l27.9-1l2-0.1l17.6-0.6l101.4-3.7l5.9-0.2l2-0.1l5.8-0.2l1-12.5l0.2-2l2.7-32c4.3-0.3,8.7-0.6,13-0.9
					c14.6,11,29.2,21.9,43.8,32.8c0.9,0.7,1.8,1.3,2.7,2c18.6,13.9,37.2,27.9,55.8,41.8c0.7,0.5,1.3,1,2,1.5
					c28.1,21.1,56.2,42.1,84.3,63.2l-11,18.4c-0.4,0.7-0.8,1.3-1.2,2c-24,40-48,79.9-72.1,119.9c-0.7,1.1-1.3,2.2-2,3.3
					c-1.2,1.9-2.3,3.8-3.5,5.7c-0.4,0.7-0.8,1.3-1.2,2c-12,20-24.1,40-36.1,60c8.5,0.5,17.1,1,25.8,1.6c5,0.3,10,0.6,15,0.8
					c0.7,0,1.3,0.1,2,0.1c9,0.5,18.1,1,27.2,1.5c17.6,0.9,35.1,1.7,52.4,2.5c6.1,0.3,12.2,0.5,18.3,0.8c3.3-4.9,15.6-25.7,30.9-53.8
					c0.7-1.2,1.3-2.4,2-3.7c1.7-3.2,3.5-6.4,5.3-9.8c0.3-0.7,0.7-1.3,1.1-2c21.3-39.9,46-89.6,60.6-128.9c0.2-0.7,0.5-1.3,0.7-2
					c4.6-12.6,8.1-24.1,10.1-33.8c1.5-7.5,1.8-14.8,1.8-14.8C997.6,576.6,993.5,561.9,985.7,547.6z"/>
				<g id="pattern">
					<path class="st5" d="M275.8,619.5v349.9c-0.1,0.2-0.2,0.5-0.3,0.7c-0.6-0.2-1.1-0.5-1.7-0.7V624.2
						C274.5,622.6,275.2,621.1,275.8,619.5z"/>
					<path class="st5" d="M402.7,324.3v361.8c-0.7,1.5-1.3,3-2,4.5V329C401.4,327.4,402.1,325.9,402.7,324.3z"/>
					<polygon class="st5" points="533.7,155.8 533.7,534.3 531.7,534.4 531.7,155.8 					"/>
					<polygon class="st5" points="660.6,155.8 660.6,529.7 658.6,529.8 658.6,155.8 					"/>
					<path class="st5" d="M787.4,155.8v187.6c-0.7,1.7-1.3,3.3-2,5V155.8H787.4z"/>
					<path class="st5" d="M787.4,370.8v189.6c-0.7-0.5-1.3-1-2-1.5V369.3C786.1,369.8,786.8,370.3,787.4,370.8z"/>
					<path class="st5" d="M785.4,767.1c0.7-1.1,1.3-2.2,2-3.3v73.6c-0.7,0-1.3-0.1-2-0.1V767.1z"/>
					<path class="st5" d="M918.4,475.2v309.4c-0.7,1.2-1.3,2.5-2,3.7V473.5C917,474.1,917.7,474.6,918.4,475.2z"/>
					<path class="st5" d="M822.1,257.2c-0.3,0.7-0.5,1.3-0.8,2H430.7c0.3-0.7,0.6-1.3,0.9-2H822.1z"/>
					<path class="st5" d="M812.8,390.1H374.5c0.3-0.7,0.6-1.3,0.8-2h434.9C811,388.8,811.9,389.5,812.8,390.1z"/>
					<path class="st5" d="M479.4,515c-0.3,0.7-0.6,1.3-0.9,2H319.9c0.3-0.7,0.6-1.3,0.9-2H479.4z"/>
					<polygon class="st5" points="667.5,515 667.4,517 506,517 506.2,515 					"/>
					<path class="st5" d="M963.1,517H729.7c-0.9-0.7-1.8-1.3-2.7-2h234.3C961.9,515.7,962.5,516.4,963.1,517z"/>
					<path class="st5" d="M422.6,641.9c-0.3,0.7-0.6,1.3-0.9,2H265.4c0.3-0.7,0.6-1.3,0.9-2H422.6z"/>
					<path class="st5" d="M986.1,641.9c-0.2,0.7-0.5,1.3-0.7,2H859.5c0.4-0.7,0.8-1.3,1.2-2H986.1z"/>
					<path class="st5" d="M363.9,772.8c-0.3,0.7-0.6,1.3-0.9,2H209.1c0.3-0.7,0.6-1.3,0.9-2H363.9z"/>
					<path class="st5" d="M924.7,772.8c-0.4,0.7-0.7,1.3-1.1,2H780.8c0.4-0.7,0.8-1.3,1.2-2H924.7z"/>
					<path class="st5" d="M307.1,899.7c-0.3,0.7-0.6,1.3-0.9,2H154.5c0.3-0.7,0.6-1.3,0.9-2H307.1z"/>
				</g>
			</g>
			<g id="hands">
				<g id="hand_r">
					<path class="st6" d="M237.2,1049.4c-0.8,0.1-1.5,0.2-2.3,0.2c-6.1,0-11.6-4.4-12.7-10.6l-9.2-51l-32.6,16.1l1.6,23.6l24.8,44.7
						c3.4,6.2,1.2,14.1-5,17.5c-6.2,3.5-14.1,1.2-17.6-5l-4.5-8.1l3.5,10.6c2.2,6.7-1.4,14.1-8.2,16.3c-6.7,2.2-14.1-1.4-16.3-8.2
						l-9.2-27.4l-5.9-17.8l4.9,48.3c0.7,7.1-4.5,13.4-11.5,14.1c-7.1,0.7-13.4-4.5-14.1-11.5l-2.9-28.8l-2.5-24.9
						c-0.2-1.7,0-3.4,0.5-5c0.1-0.3,0.2-0.6,0.3-0.9l1.8-5.2L95.8,1072c-4,5.9-12.1,7.4-17.9,3.4c-3.7-2.5-5.6-6.6-5.6-10.7
						c0-2.5,0.7-5,2.2-7.2l89.1-133.9c9.4,3.9,31.4,13.1,40.8,17c7.5,3.1,28.3,11.8,35.8,14.9c2.4,26.3,4.8,52.6,7.3,79
						C248.8,1041.4,244.1,1048.2,237.2,1049.4z"/>
					<path d="M192.7,969.9c-0.2,0-0.4-0.1-0.6-0.2c-7.4-6.1-15.4-17.8-11.4-38.8c0.1-0.5,0.6-0.9,1.2-0.8c0.5,0.1,0.9,0.6,0.8,1.2
						c-3.8,20,3.7,31.1,10.7,36.9c0.4,0.4,0.5,1,0.1,1.4C193.3,969.7,193,969.9,192.7,969.9z"/>
					<path d="M179.8,1077.9c-0.4,0-0.7-0.2-0.9-0.6l-19.8-41.2c-0.1-0.1-0.1-0.3-0.1-0.4v-27.5c0-0.6,0.4-1,1-1s1,0.4,1,1v27.2
						l19.7,41c0.2,0.5,0,1.1-0.5,1.3C180.1,1077.8,179.9,1077.9,179.8,1077.9z"/>
				</g>
				<g id="hand_l">
					<path class="st6" d="M867.1,841.3l-8.9,16.4c-13,22.5-30.8,50-41.3,52.7c-18.1,4.7-68.2-15.4-68.2-15.4l-1.9-0.3l-53.6,16.5
						c-6.8,2.1-14.1-1-17-7l-15.1,6.4c-1.9,0.8-3.8,1.2-5.7,1.2c-5.3,0-10.4-2.9-12.7-7.7c-2.4-5.1-1.1-10.9,2.8-14.6
						c-1.8-6.1,1.3-12.8,7.7-15.5c19.4-8.4,38.8-16.8,58.3-25.2c8.2,1.4,16.5,2.8,24.7,4.2c2.6,0.4,5.1,0.9,7.7,1.3
						c3.2,0.5,8.1,1.3,14.6,2l12-20c14.7,0.9,29.4,1.7,44.2,2.4C832.3,839.8,849.8,840.6,867.1,841.3z"/>
					<path d="M676.2,905.2c-0.5,0-0.9-0.3-1-0.8c-0.7-2.9-0.6-5.6,0.4-7.9c1.6-3.9,5-5.9,6.5-6.7c6.4-3.7,27.1-9.9,52.7-15.9
						c0.1,0,0.2,0,0.3,0l20.6,1.4c0.6,0,1,0.5,0.9,1.1c0,0.5-0.5,1-1.1,0.9l-20.5-1.4c-25.3,6-45.7,12.1-52,15.7
						c-1.4,0.8-4.3,2.4-5.6,5.7c-0.8,2-0.9,4.2-0.3,6.7c0.1,0.5-0.2,1.1-0.7,1.2C676.4,905.2,676.3,905.2,676.2,905.2z"/>
					<path d="M660.6,885.2c-0.4,0-0.8-0.2-0.9-0.6c-0.2-0.5,0-1.1,0.5-1.3c8.9-3.8,17.9-7.8,26.9-11.7c9.3-4.1,18.7-8.2,27.8-12.3
						c0.1-0.1,0.3-0.1,0.4-0.1l28.6,0.9c0.6,0,1,0.5,1,1c0,0.6-0.5,1-1,1l-28.4-0.9c-9.1,4-18.3,8.2-27.6,12.2
						c-9,3.9-18,7.9-26.9,11.7C660.9,885.2,660.8,885.2,660.6,885.2z"/>
				</g>
			</g>
			<g id="head">
				<path class="st6" d="M652.9,600.4c0,5.2,0,9.3-0.3,14.1c0,0-0.2,3.5-0.6,6.9c-2.1,19.8-20.2,55.6-21.2,58.6
					c-0.6,1.8-0.7,2.4-1.3,3.5l0,0c-0.2,0.1-11.3-25.2-19.9-25.1c-11.5,0.1-6.2,45.5-34.9,70.9c-18,15.9-47.2,22.1-70.9,12.8
					c-3.6-1.5-21.6-8.9-31.7-26.8c-4.6-8.1-7-17.5-8.2-22.3c-1.8-7-2.8-13.4-3.3-18.7c-2-38.7,9.6-81.7,29-110.5
					c7.4-10.9,25.6-37.7,55.8-41.4c16.7-2,31.3,3.8,42.1,10l65.1-2.4L652.9,600.4z"/>
				<path id="hair" d="M674.2,646.2c0.4-12-2.8-29.8-21.3-52.3c0,1.3,0,3.2,0,5.6v0.9c0,5.2,0,9.3-0.3,14.1c0,0-0.2,3.5-0.6,6.9
					c-2.1,19.8-20.2,55.6-21.2,58.6c-0.6,1.8-0.7,2.4-1.3,3.5l0,0c-0.2,0.1-11.3-25.2-19.9-25.1c-11.5,0.1-6.2,45.5-34.9,70.9
					c-18,15.9-47.2,22.1-70.9,12.8c-3.6-1.5-21.6-8.9-31.7-26.8c-4.6-8.1-7-17.5-8.2-22.3c-2.1-8.3-3-14.4-3.3-18.7
					c-0.2-2.5-0.2-4.6-0.2-6.1c-4.5,12.3-11,35.3-7.1,63.6c1.4,10.4,6.4,43.7,34.1,71.7c14.6,14.8,30,22.6,39.9,26.7
					c-0.4-14.1-0.9-28.3-1.3-42.4c2.7,8.1,8.6,22.3,21.7,35.5c19.1,19.1,41.3,23.9,49.7,25.3c-4.6-22.5-9.3-45-13.9-67.6
					c0.5,1,15.4,31.6,45.8,32c-1.4-20.4-2.9-40.8-4.3-61.1c3.6,3.8,8.9,8.8,16.4,12.9c12.4,6.9,24.1,8.1,30.6,8.2
					c-4.8-16-7.2-30.4-8.3-43c-0.4-5.1-1.2-17.1,0.1-32.2C666.2,668,673.6,662.7,674.2,646.2z"/>
				<g id="ear">
					<path class="st6" d="M613.2,631.8c4-7.5,10.5-13.8,18.9-17.4c19.8-8.5,42.6,0.6,51.1,20.4c8.5,19.8-0.6,42.6-20.4,51.1
						c-19.7,8.5-42.6-0.6-51.1-20.4C607,654.1,607.9,641.8,613.2,631.8z"/>
					<path d="M657.2,674.3c-0.3,0-0.5-0.1-0.7-0.3l-24.3-23.9c-0.2-0.2-0.3-0.6-0.3-0.9c0.1-0.3,0.3-0.6,0.6-0.7
						c3.9-1.6,6.6-5.1,7.2-9.2c0.6-4.1-1.2-8.3-4.5-10.8c-0.4-0.3-0.5-1-0.2-1.4s1-0.5,1.4-0.2c3.9,3,5.9,7.8,5.2,12.6
						c-0.6,4.3-3.2,8.1-7.1,10.2l23.3,22.9c0.4,0.4,0.4,1,0,1.4C657.7,674.2,657.4,674.3,657.2,674.3z"/>
				</g>
				<path d="M503.4,676.8c-0.4,0-0.8-0.3-1-0.7l-16.2-59.3c-0.1-0.3,0-0.6,0.2-0.9c0.2-0.2,0.5-0.4,0.8-0.4l28.5-0.8
					c0.6,0,1,0.4,1,1s-0.4,1-1,1l-27.3,0.8l15.9,58.1c0.1,0.5-0.2,1.1-0.7,1.2C503.5,676.8,503.4,676.8,503.4,676.8z"/>
				<g id="eyes">
					<circle cx="487.2" cy="673.3" r="6.2"/>
					<circle cx="538.2" cy="679.5" r="6.2"/>
				</g>
				<g id="brows">
					
						<ellipse transform="matrix(3.585643e-02 -0.9994 0.9994 3.585643e-02 -198.9977 1218.6516)" cx="532.1" cy="712.5" rx="5" ry="20.4"/>
					<ellipse transform="matrix(0.1442 -0.9895 0.9895 0.1442 -276.8817 1065.7383)" cx="477.7" cy="692.9" rx="5" ry="20.4"/>
				</g>
				<path id="mouth" d="M551.6,613.7c-9.9,0-17.8-2.5-23.4-7.6c-8-7.1-8.5-16.6-8.6-17c0-0.4,0.2-0.7,0.5-0.9s0.7-0.2,1,0l35.3,23.5
					c0.4,0.2,0.5,0.7,0.4,1.1c-0.1,0.4-0.5,0.7-0.9,0.7C554.4,613.6,553,613.7,551.6,613.7z M521.9,591.1c0.6,3.1,2.4,8.9,7.6,13.5
					c5.5,4.9,13.3,7.2,23.3,7L521.9,591.1z"/>
				<path d="M643.1,604.8c-0.4,0-0.8-0.3-1-0.7c-5-17.4-13.4-33-25.1-46.2c-6.3-7.1-13.5-13.5-21.4-19c-0.5-0.3-0.6-0.9-0.3-1.4
					s0.9-0.6,1.4-0.3c8.1,5.5,15.4,12,21.8,19.3c11.9,13.5,20.5,29.3,25.5,47c0.2,0.5-0.2,1.1-0.7,1.2
					C643.3,604.8,643.2,604.8,643.1,604.8z"/>
			</g>
		</g>
	</g>
</g>
</svg>
