<?xml version="1.0" encoding="utf-8"?>
<!-- Generator: Adobe Illustrator 22.1.0, SVG Export Plug-In . SVG Version: 6.00 Build 0)  -->
<svg version="1.1" id="Слой_1" xmlns="http://www.w3.org/2000/svg" xmlns:xlink="http://www.w3.org/1999/xlink" x="0px" y="0px"
	 viewBox="0 0 1070 1062.7" style="enable-background:new 0 0 1070 1062.7;" xml:space="preserve">
<style type="text/css">
	.st0{fill:#D5E0EA;}
	.st1{fill:#8C1DF1;}
	.st2{fill:#FFB800;}
	.st3{fill:#1F0D60;}
	.st4{fill:#FF1EAD;}
</style>
<g id="background_1_">
	<g id="background">
		<g id="figures">
			<circle id="circle_1_" class="st0" cx="383.2" cy="609.7" r="163"/>
			<circle id="circle" class="st1" cx="963.7" cy="919.1" r="106.3"/>
			<path id="semicircle_2_" class="st1" d="M519.3,870.7c-79.6,140.9-253.2,195.7-384.6,121.5S-39.5,741,40.1,600.1
				C199.8,690.3,359.6,780.5,519.3,870.7z"/>
			<path id="semicircle_1_" class="st2" d="M1052.2,844c-34.3-10-68.7-20-103-30c1.5-5.7,3.5-13.8,4.9-23.5
				c2.4-16.2,6.8-48.6-5.9-87c-14.6-44-45-79.5-85.8-100S775,579.7,731,594.3c-34.2,11.3-55.2,30.6-73.4,47.2
				C639,658.4,626,675,617.4,687.2c-27-23.4-54.1-46.8-81.1-70.3c10.8-15.6,27.1-36.3,50.1-57.4c19.4-17.8,54.4-49.3,110.7-67.9
				c71.4-23.6,147.4-18.2,213.9,15.3c66.6,33.5,116.2,91.2,139.9,162.6c6,18,20.3,67.2,11.5,129.4
				C1059.8,817.7,1055.7,833.1,1052.2,844z"/>
			<circle id="circle_2_" class="st2" cx="473.5" cy="788.9" r="49.7"/>
			<rect id="square" x="519.3" y="687.2" class="st3" width="338.1" height="338.1"/>
		</g>
	</g>
	<path id="line_1_" class="st0" d="M248.7,377.2c0.3,0.2,0.7,0.6,0.9,1.1c2.6,8.7,5.7,25.9-2.5,43.1c-2.3,5-9.5,20-24,23.7
		c-0.6,9.3-3.4,19-9.1,27.1c-6.7,9.5-16.7,15.9-26.9,19.2c0.4,7.1-0.8,14.4-4.1,20.3c-16.1,29-52,25.7-52.4,25.7
		c-1.1-0.1-1.9-1-1.7-2.1c0.1-1,1-1.8,2.1-1.7c0.3,0,33.7,3,48.6-23.8c2.8-5,4-11.1,3.7-17.2c-10.7,2.6-21,1.7-27.6-2.8l0,0
		c-1.7-1.2-10-7.4-9.9-16.4c0-0.3,0.2-7.9,5.9-11.8c7.2-4.9,17.5-0.4,21.9,2.6c0,0,0,0,0.1,0.1c6.9,4.8,11.4,13.6,12.9,23.1
		c9.2-3.2,18.1-9.1,24.1-17.5c5.1-7.1,7.6-15.8,8.3-24.1c-3.7,0.4-9.3,0.3-15-2.5c-7.4-3.5-16.6-12.6-14.3-21.4c1-4,4.4-7.7,9-9.9
		c4.3-2,8.9-2.4,12.4-1c4.2,1.8,7.8,6.7,9.9,13.8c1.4,4.6,2.2,10.1,2.1,16.1c11.9-3.9,18-16.4,20.3-21.3c7.7-15.9,4.7-32.1,2.3-40.3
		c-0.3-1,0.3-2.1,1.3-2.4C247.6,376.7,248.3,376.9,248.7,377.2z M219.1,441.9c0.2-5.8-0.6-11.4-2-16c-1.8-5.8-4.6-9.9-7.6-11.3
		c-2.4-1-5.9-0.6-9.2,0.9c-3.6,1.7-6.3,4.6-7,7.4c-1.6,6.3,6.1,13.8,12.2,16.8C210.8,442.5,215.9,442.4,219.1,441.9z M182.6,488.7
		c-1.2-8.7-5.2-16.9-11.3-21.2c0,0,0,0-0.1-0.1c-4.2-2.9-12.5-6-17.4-2.5c-4.2,2.8-4.2,8.7-4.2,8.7c0,7,6.7,12.2,8,13.1l0,0
		C163.5,490.7,172.9,491.3,182.6,488.7z"/>
	<path id="line_2_" class="st0" d="M928.2,442.1c-0.3,0.4-0.9,0.9-1.5,1.1c-11.8,3.1-35,6.3-57.4-5.5c-6.5-3.4-26.2-13.7-30.5-33.3
		c-12.4-1.3-25.3-5.5-35.8-13.6c-12.3-9.5-20.5-23.1-24.4-36.9c-9.4,0.2-19.2-1.8-26.9-6.5c-38-23-31.8-70.8-31.8-71.3
		c0.2-1.4,1.4-2.5,3-2.2c1.4,0.2,2.4,1.4,2.1,2.9c-0.1,0.4-5.6,44.9,29.4,66.1c6.5,4,14.6,5.9,22.8,5.8c-3-14.4-1.3-28.2,5.1-36.7
		l0,0c1.7-2.3,10.4-13,22.5-12.4c0.4,0.1,10.6,0.6,15.4,8.5c6.2,9.9-0.3,23.5-4.6,29.1c0,0,0,0-0.1,0.1c-6.7,8.9-18.7,14.5-31.5,16
		c3.9,12.4,11.3,24.6,22.2,33.1c9.3,7.2,20.7,10.9,31.8,12.3c-0.4-4.9,0-12.4,4.1-19.9c5.1-9.7,17.7-21.5,29.3-18.1
		c5.3,1.6,10,6.2,12.8,12.5c2.5,5.9,2.8,12.1,0.7,16.7c-2.6,5.5-9.3,10.1-18.9,12.6c-6.2,1.6-13.7,2.4-21.6,2
		c4.6,16.1,21.1,24.9,27.5,28.1c20.9,11,42.7,7.9,53.8,5.1c1.3-0.3,2.8,0.6,3.1,1.9C928.9,440.6,928.6,441.5,928.2,442.1z
		 M843.1,399.3c7.8,0.5,15.3-0.3,21.5-1.8c7.8-2.1,13.5-5.6,15.5-9.7c1.5-3.1,1.1-7.8-0.7-12.3c-2.1-4.9-5.9-8.6-9.5-9.8
		c-8.3-2.5-18.7,7.4-23.1,15.5C842.8,388.2,842.7,394.9,843.1,399.3z M782.4,348.1c11.7-1.2,22.9-6.1,28.9-14c0,0,0,0,0.1-0.1
		c4.1-5.5,8.6-16.4,4.2-23.2c-3.5-5.7-11.4-6.1-11.4-6.1c-9.4-0.4-16.6,8.3-17.9,10l0,0C780.6,322.5,779.4,335.1,782.4,348.1z"/>
</g>
<g id="general_1_">
	<g id="general">
		<g id="man">
			<g id="head">
				<path class="st4" d="M514.4,71.6c-1-4.5-3.9-12.8-6.6-20c-0.4-1-0.8-2-1.2-3c-1-2.6-2-5-2.8-6.9c-0.1,0.1-0.2,0.2-0.3,0.4
					c-17.3,4.6-34.6,9.2-51.9,13.8c0.2,8.7,0.3,17.4,0.5,26.2c0.1,4.5,0.2,8.9,0.3,13.4c0.1,4,0.2,7.9,0.2,11.9c0,0.3,0,0.7,0,1
					c0-0.3,0-0.6,0-1l0,0c-0.3,0.3-0.7,0.6-1.1,0.9l1.1,8.9l2.2,18.5c15.5,12.3,31,24.7,46.5,37.1c-0.7-16.5-1.4-33-2-49.5
					c0-0.3,0-0.5,0-0.8c0.1,0,0.2,0,0.3-0.1c3.4-0.8,6.4-1.7,9.3-4.1C522,107.1,516.3,80.6,514.4,71.6z"/>
				<path id="nose" d="M497.1,88.3c-0.2,0-0.4-0.1-0.5-0.3c-0.1-0.2,0-0.5,0.2-0.7l10.9-5.2l-13.4-15c-0.2-0.2-0.2-0.5,0-0.7
					s0.5-0.2,0.7,0L509,82c0.1,0.1,0.1,0.3,0.1,0.4c0,0.2-0.1,0.3-0.3,0.4l-11.5,5.5C497.3,88.2,497.2,88.3,497.1,88.3z"/>
				<g id="eyes">
					<circle cx="484.5" cy="68.9" r="2.6"/>
					<circle cx="504.6" cy="63.2" r="2.6"/>
				</g>
				<path id="mouth" d="M495.2,103c-2.1,0-4.6-0.6-7.5-2.3c-0.2-0.1-0.3-0.4-0.2-0.7c0.1-0.2,0.4-0.3,0.7-0.2
					c9.4,5.5,14.2-1.3,14.3-1.3c0.2-0.2,0.5-0.3,0.7-0.1c0.2,0.2,0.3,0.5,0.1,0.7C503.2,99.2,500.5,103,495.2,103z"/>
				<path id="hair" d="M503.8,41.7c-0.1,0.1-0.2,0.2-0.3,0.4c-17.3,4.6-34.6,9.2-51.9,13.8c0.3,13.2,0.5,26.4,0.8,39.5l-2.5-0.3
					l2.6,22c-5.4-4.3-13.8-12.4-20.1-24.8c-10.4-20.7-7.8-39.9-6.7-47.2C428,29.8,436,4.8,450.6,0.8c1.7-0.5,6.5-1.8,10.1,0.8
					c4.9,3.6,3.9,11.7,3.7,12.5c5.9-11.3,17-14.3,21.8-11.1c4.1,2.7,5.3,11,1.8,19.2c2.7-5.9,7.8-9.4,12.6-8.9
					c4.4,0.5,7,4.1,7.3,4.6C512.1,23.6,510.4,33.1,503.8,41.7z"/>
				<g id="ear">
					<path class="st4" d="M454.2,83.9c-6.1-6.9-16.5-7.6-23.4-1.5c-2.9,2.6-4.8,6-5.4,9.5c-0.9,4.8,0.4,9.9,3.9,13.8
						c5.7,6.5,15.4,7.5,22.3,2.4c0.4-0.3,0.8-0.6,1.1-0.9l0,0C459.5,101.3,460.2,90.8,454.2,83.9z"/>
					<path d="M449.8,99.9h-0.1c-2-0.5-3.7-2-4.3-4.1c-0.5-1.8-0.2-3.7,0.9-5.2l-12.9-4.9c-0.3-0.1-0.4-0.4-0.3-0.6
						c0.1-0.3,0.4-0.4,0.6-0.3l13.6,5.1c0.2,0.1,0.3,0.2,0.3,0.4c0,0.2,0,0.3-0.1,0.5c-1.2,1.3-1.7,3.1-1.2,4.8
						c0.5,1.7,1.8,3,3.5,3.4c0.3,0.1,0.4,0.3,0.4,0.6C450.2,99.8,450,99.9,449.8,99.9z"/>
				</g>
				<g id="brows">
					<ellipse transform="matrix(0.9275 -0.3739 0.3739 0.9275 13.0361 182.9973)" cx="478.2" cy="57.9" rx="7.3" ry="1.9"/>
					<ellipse transform="matrix(0.9932 -0.1168 0.1168 0.9932 -2.4813 59.086)" cx="502.9" cy="50.7" rx="7.3" ry="1.9"/>
				</g>
				<path d="M495.2,123.3c-3.2,0-6.5-0.3-9.7-0.9c-5.4-1-10.6-2.8-15.5-5.3c-0.2-0.1-0.3-0.4-0.2-0.7c0.1-0.2,0.4-0.3,0.7-0.2
					c4.8,2.5,9.9,4.3,15.2,5.2c4.5,0.8,9,1,13.5,0.7c0.3,0,0.5,0.2,0.5,0.5s-0.2,0.5-0.5,0.5C498,123.2,496.6,123.3,495.2,123.3z"/>
			</g>
			<g id="legs">
				<g id="shoes">
					<path class="st3" d="M706.1,679.4c4.2,1.3,7.3,4.6,9.3,7.8c36.3,0,72.5,0,108.8,0c-5.2-21-13.8-29.2-21.1-32.7
						c-10.2-4.9-18.1-0.8-34-4.5c-12.8-3-22.4-9.2-28.7-14.1c-7.6,6-15.3,11.9-23.1,17.9c-15.2,11.6-30.3,22.7-45.2,33.4
						c6.6,0,13.2,0,19.9,0C695.7,682.4,700.9,677.7,706.1,679.4z"/>
					<path class="st3" d="M402.3,767.1c-6.5-9.2-15.4-9.6-27.4-20.6c-9.7-8.9-15-19-18.1-26.4c2-5.7,3.9-11.3,5.9-17
						c-24.4-2.3-58.4-5.6-71.7-7.3c-6.3,11.8-12.6,23.6-18.9,35.4c4.9,2.9,9.8,5.7,14.7,8.6c6-1.4,13.3-1.8,16.4,2.9
						c1.6,2.5,2.3,5.2,2.4,7.9c5.8,3.3,11.7,6.7,17.6,10c27.4,15.6,54.6,30.7,81.5,45.3C410.5,785,406.9,773.6,402.3,767.1z"/>
					<path class="st0" d="M407.6,789.3c-0.1,0-0.2,0-0.2-0.1l-127-73.5c-0.2-0.1-0.3-0.4-0.2-0.7c0.1-0.2,0.4-0.3,0.7-0.2l127,73.5
						c0.2,0.1,0.3,0.4,0.2,0.7C408,789.2,407.8,789.3,407.6,789.3z"/>
					<path class="st0" d="M819.3,673.3H691.9c-0.3,0-0.5-0.2-0.5-0.5s0.2-0.5,0.5-0.5h127.4c0.3,0,0.5,0.2,0.5,0.5
						S819.6,673.3,819.3,673.3z"/>
				</g>
				<g id="pants">
					<path class="st1" d="M734.6,607.7c-3.7-18-7-34.2-10-48.2c-14.7-70.3-18.2-83.1-28.9-99.5c-15.2-23.2-34.1-36.8-59.4-54.9
						c-23.4-16.8-44.8-27.9-60.4-35c-2.7,0.4-37.5,6-75,12c-35.9,5.7-69.4,11.1-71.8,11.5C403.7,450,377.9,506.2,352,562.4
						c-20.6,44.5-41.3,88.8-62.1,133.2c0.4,0,0.8,0.1,1.2,0.1c13.3,1.7,47.3,5,71.7,7.3c11.2,1,20.4,1.8,24.6,2.1
						c19.5-41.2,41.3-84,65.6-128.2c23.3-42.3,46.7-82.1,69.9-119.2c13.6,3.4,83.6,36.1,96.1,45.4c17.7,61.4,35.3,122.8,53,184.1
						c14.9-10.7,30-21.8,45.2-33.4c7.8-6,15.5-11.9,23.1-17.9C738.4,626.1,736.5,616.6,734.6,607.7z"/>
					<path class="st0" d="M704.9,663.6c-0.2,0-0.4-0.1-0.5-0.4l-58.1-189l-123.5-16.1c-0.3,0-0.5-0.3-0.4-0.6c0-0.3,0.3-0.5,0.6-0.4
						l123.8,16.2c0.2,0,0.4,0.2,0.4,0.3L705.4,663c0.1,0.3-0.1,0.5-0.3,0.6C705,663.6,705,663.6,704.9,663.6z"/>
					<path class="st0" d="M332.2,700.6c-0.1,0-0.1,0-0.2,0c-0.3-0.1-0.4-0.4-0.3-0.7L462.4,388c0.1-0.3,0.4-0.4,0.7-0.3
						c0.3,0.1,0.4,0.4,0.3,0.7L332.7,700.3C332.6,700.5,332.4,700.6,332.2,700.6z"/>
				</g>
			</g>
			<g id="tshirt">
				<g id="tshirt_pattern">
					<circle class="st3" cx="420.3" cy="150.6" r="3.3"/>
					<circle class="st3" cx="452.1" cy="150.6" r="3.3"/>
					<circle class="st3" cx="514.8" cy="150.6" r="3.3"/>
					<circle class="st3" cx="547.6" cy="150.6" r="3.3"/>
					<path class="st3" d="M676.3,152.9c-1.3,1.3-3.4,1.3-4.7,0c-0.7-0.7-1-1.5-1-2.4l0,0c0.6-1,1.1-1.9,1.6-2.9
						c1.3-0.8,3-0.6,4.1,0.5C677.6,149.5,677.6,151.6,676.3,152.9z"/>
					<circle class="st3" cx="705.7" cy="150.6" r="3.3"/>
					<path class="st3" d="M375.3,180.7c-1.3,1.3-3.4,1.3-4.7,0c-0.4-0.4-0.6-0.8-0.8-1.2c1.5-1.4,3.1-2.8,4.7-4.1
						c0.3,0.1,0.6,0.4,0.9,0.6C376.6,177.3,376.6,179.4,375.3,180.7z"/>
					<circle class="st3" cx="404.7" cy="178.3" r="3.3"/>
					<circle class="st3" cx="437.3" cy="178.3" r="3.3"/>
					<circle class="st3" cx="469.1" cy="178.3" r="3.3"/>
					<circle class="st3" cx="500.1" cy="178.3" r="3.3"/>
					<circle class="st3" cx="531.9" cy="178.3" r="3.3"/>
					<circle class="st3" cx="564.6" cy="178.3" r="3.3"/>
					<circle class="st3" cx="659.2" cy="178.3" r="3.3"/>
					<circle class="st3" cx="691" cy="178.3" r="3.3"/>
					<circle class="st3" cx="357" cy="201.8" r="3.3"/>
					<circle class="st3" cx="388.8" cy="201.8" r="3.3"/>
					<circle class="st3" cx="421.4" cy="201.8" r="3.3"/>
					<circle class="st3" cx="453.2" cy="201.8" r="3.3"/>
					<circle class="st3" cx="484.2" cy="201.8" r="3.3"/>
					<circle class="st3" cx="516" cy="201.8" r="3.3"/>
					<circle class="st3" cx="548.7" cy="201.8" r="3.3"/>
					<circle class="st3" cx="580.5" cy="201.8" r="3.3"/>
					<path class="st3" d="M614,204c-0.1,0.1-0.1,0.1-0.2,0.2c-1.3,1.3-3.4,1.3-4.7,0c-1.2-1.2-1.3-3.1-0.3-4.4
						C610.5,201.4,612.3,202.8,614,204z"/>
					<circle class="st3" cx="643.2" cy="201.8" r="3.3"/>
					<circle class="st3" cx="675" cy="201.8" r="3.3"/>
					<path class="st3" d="M704.6,199.2c-0.4,0.8-0.8,1.5-1.1,2.3c0-0.8,0.4-1.5,1-2.1C704.5,199.3,704.6,199.3,704.6,199.2z"/>
					<circle class="st3" cx="340.4" cy="229.5" r="3.3"/>
					<circle class="st3" cx="371.3" cy="229.5" r="3.3"/>
					<circle class="st3" cx="403.1" cy="229.5" r="3.3"/>
					<circle class="st3" cx="435.8" cy="229.5" r="3.3"/>
					<circle class="st3" cx="467.6" cy="229.5" r="3.3"/>
					<circle class="st3" cx="498.5" cy="229.5" r="3.3"/>
					<circle class="st3" cx="530.3" cy="229.5" r="3.3"/>
					<circle class="st3" cx="563.1" cy="229.5" r="3.3"/>
					<circle class="st3" cx="594.8" cy="229.5" r="3.3"/>
					<circle class="st3" cx="625.8" cy="229.5" r="3.3"/>
					<circle class="st3" cx="657.6" cy="229.5" r="3.3"/>
					<path class="st3" d="M690.1,226.3c-1.1,1.8-2.2,3.6-3.3,5.4c-1.1-1.3-1-3.3,0.2-4.5C687.9,226.3,689.1,226,690.1,226.3z"/>
					<circle class="st3" cx="324.4" cy="253" r="3.3"/>
					<circle class="st3" cx="355.4" cy="253" r="3.3"/>
					<circle class="st3" cx="387.2" cy="253" r="3.3"/>
					<circle class="st3" cx="419.8" cy="253" r="3.3"/>
					<circle class="st3" cx="451.6" cy="253" r="3.3"/>
					<circle class="st3" cx="482.6" cy="253" r="3.3"/>
					<circle class="st3" cx="514.4" cy="253" r="3.3"/>
					<circle class="st3" cx="547.1" cy="253" r="3.3"/>
					<path class="st3" d="M581.6,254.9c-1.8-1.5-3.5-3-5-4.4c1.3-1.3,3.4-1.2,4.7,0C582.5,251.8,582.6,253.6,581.6,254.9z"/>
					<circle class="st3" cx="609.9" cy="253" r="3.3"/>
					<circle class="st3" cx="641.7" cy="253" r="3.3"/>
					<path class="st3" d="M673.7,249.6c-1.1,1.3-2.3,2.6-3.5,3.8c-0.2-1,0.2-2.1,0.9-2.9C671.8,249.9,672.7,249.6,673.7,249.6z"/>
					<circle class="st3" cx="341.5" cy="280.8" r="3.3"/>
					<circle class="st3" cx="372.5" cy="280.8" r="3.3"/>
					<circle class="st3" cx="436.9" cy="280.8" r="3.3"/>
					<circle class="st3" cx="468.7" cy="280.8" r="3.3"/>
					<circle class="st3" cx="499.7" cy="280.8" r="3.3"/>
					<circle class="st3" cx="531.5" cy="280.8" r="3.3"/>
					<circle class="st3" cx="564.2" cy="280.8" r="3.3"/>
					<circle class="st3" cx="325.6" cy="304.2" r="3.3"/>
					<circle class="st3" cx="356.5" cy="304.2" r="3.3"/>
					<circle class="st3" cx="388.3" cy="304.2" r="3.3"/>
					<circle class="st3" cx="421" cy="304.2" r="3.3"/>
					<circle class="st3" cx="452.8" cy="304.2" r="3.3"/>
					<circle class="st3" cx="483.7" cy="304.2" r="3.3"/>
					<circle class="st3" cx="515.5" cy="304.2" r="3.3"/>
					<circle class="st3" cx="548.3" cy="304.2" r="3.3"/>
					<circle class="st3" cx="338.3" cy="331.3" r="3.3"/>
					<circle class="st3" cx="369.3" cy="331.3" r="3.3"/>
					<circle class="st3" cx="401.1" cy="331.3" r="3.3"/>
					<circle class="st3" cx="433.8" cy="331.3" r="3.3"/>
					<circle class="st3" cx="465.5" cy="331.3" r="3.3"/>
					<circle class="st3" cx="496.5" cy="331.3" r="3.3"/>
					<circle class="st3" cx="528.3" cy="331.3" r="3.3"/>
					<circle class="st3" cx="561" cy="331.3" r="3.3"/>
					<circle class="st3" cx="417.8" cy="354.7" r="3.3"/>
					<circle class="st3" cx="449.6" cy="354.7" r="3.3"/>
					<circle class="st3" cx="480.6" cy="354.7" r="3.3"/>
					<circle class="st3" cx="512.4" cy="354.7" r="3.3"/>
					<circle class="st3" cx="545.1" cy="354.7" r="3.3"/>
					<circle class="st3" cx="576.9" cy="354.7" r="3.3"/>
					<path class="st3" d="M404.6,384.9c-0.4,0.4-1,0.7-1.5,0.9c0.1-2.1,0.3-4.2,0.4-6.3c0.4,0.2,0.8,0.4,1.1,0.8
						C405.9,381.4,405.9,383.6,404.6,384.9z"/>
					<circle class="st3" cx="434.9" cy="382.5" r="3.3"/>
					<circle class="st3" cx="466.7" cy="382.5" r="3.3"/>
					<path class="st3" d="M501,382.1c-2.2,0.3-4.4,0.7-6.6,1.1c-0.2-1.1,0.1-2.2,0.9-3c1.3-1.3,3.4-1.3,4.7,0
						C500.6,380.7,500.9,381.4,501,382.1z"/>
				</g>
				<path class="st3" d="M501.3,173.1c-0.1,0-0.2,0-0.3-0.1l-38.3-30.5c-0.2-0.2-0.3-0.5-0.1-0.7s0.5-0.3,0.7-0.1l37.4,29.8
					l-1.2-29.4c0-0.3,0.2-0.5,0.5-0.5s0.5,0.2,0.5,0.5l1.2,30.5c0,0.2-0.1,0.4-0.3,0.5C501.5,173.1,501.4,173.1,501.3,173.1z"/>
			</g>
			<path id="star" class="st2" d="M791.9,70.1c-14.4,0.2-28.7,0.4-43.1,0.6c1.1-14.1,2.1-28.2,3.2-42.3c-8.4,10.5-16.8,21-25.2,31.4
				c-11.1-9.1-22.1-18.2-33.2-27.3c3.2,9.4,6.5,18.9,9.7,28.3c0.9,2.6,1.8,5.3,2.7,7.9c-4.8,0.4-9.6,0.9-14.5,1.3
				c-8.9,0.8-17.8,1.6-26.7,2.4c6.1,3.4,12.2,6.8,18.3,10.2c5.9,3.3,11.9,6.6,17.8,9.9c-5.9,7.6-11.8,15.1-17.7,22.7
				c-2.7,3.5-5.5,7-8.2,10.6c2.6-0.5,5.3-1,7.9-1.5c11.8-2.3,23.7-4.5,35.5-6.8c0.1,0.1,0.1,0.2,0.2,0.3l0.4,0.8
				c2.4,4.3,4.8,8.5,7.1,12.8c3.7,6.7,7.5,13.4,11.2,20c2.1-12.3,4.2-24.5,6.3-36.8c13.2,2.9,26.3,5.8,39.5,8.7
				c-8-9.9-16.1-19.8-24.1-29.6C769.8,85.8,780.8,77.9,791.9,70.1z"/>
			<path id="semicircle" class="st3" d="M512.6,214.4c-13,10.5-20,22.6-23.5,30.3c-4.7,10.3-7.2,21.2-7.5,32.1
				c-0.1,4.1,0.1,8.2,0.6,12.3c0.8,6.4,2.3,12.7,4.6,18.9c1.1,3.1,2.5,6.1,4,9c1,2,2.1,3.9,3.3,5.8c2.8,4.5,6.1,8.8,9.7,12.7
				c7.3,7.8,16.2,14.2,26.3,18.8l0,0c16.6,7.6,31.4,7.8,37.6,7.5c14.7-0.5,26-4.9,32.4-7.9c-5.3-9.4-10.5-18.8-15.8-28.2
				c-3.4,1.5-8.8,3.4-15.6,4.1c-2.8,0.3-13.4,0.9-25.4-4.5c-9.3-4.3-17-11-22.2-19.4c-1.8-2.8-3.3-5.8-4.4-9c-1.1-3-1.9-6-2.4-9
				c-1.8-10-0.4-20.3,3.9-29.9c5-11,12.5-17.1,16.2-20c5.5-4.4,10.8-7,14.5-8.6c-4.4-9.4-8.8-18.7-13.2-28.1
				C529.7,203.5,521.2,207.4,512.6,214.4z"/>
			<g id="hands">
				<g id="hand_l">
					<path class="st4" d="M463.3,282.1c0.7,3.5,1.5,7,2.2,10.5c3.1,14.1,6.5,27.7,10.2,40.8c3.9-0.5,50.5-6.1,54.6-11.5
						c1.9-2.5,1.7-4.8,1.7-4.8c0-0.1-0.4-2.4-2.2-3.8c-2-1.4-4.2-0.9-4.5-0.9c1.9-0.6,3.8-1.1,5.6-1.7c3.4-0.8,5.5-4.2,4.8-7.5
						c-0.6-2.7-3-4.5-5.7-4.6c3.2-1,5.2-4.2,4.5-7.4c-0.7-3.3-4.1-5.3-7.5-4.4l-12.4,3.1l4.5-1.4c3.3-1.1,5.2-4.6,4.3-7.8
						c-1-3.2-4.4-5-7.8-3.9l-5.4,1.7l-28.3,9c-0.4-3.6-0.5-7.2-0.4-10.7c-3.6,0.8-7.5,1.8-11.5,3
						C467.7,280.6,465.4,281.3,463.3,282.1z M485.8,309.5c-0.1,0-0.3,0.1-0.4,0.2c0-0.1-0.1-0.2-0.1-0.2
						C485.5,309.5,485.6,309.5,485.8,309.5z"/>
					<path d="M501.6,294c-0.2,0-0.4-0.1-0.5-0.4s0.1-0.5,0.3-0.6l17.4-5c0.3-0.1,0.5,0.1,0.6,0.3c0.1,0.3-0.1,0.5-0.3,0.6l-17.4,5
						C501.7,294,501.7,294,501.6,294z"/>
					<path d="M507.3,304.4c-0.2,0-0.4-0.2-0.5-0.4c-0.1-0.3,0.1-0.5,0.4-0.6l22.6-5.2c0.3-0.1,0.5,0.1,0.6,0.4s-0.1,0.5-0.4,0.6
						L507.3,304.4C507.4,304.4,507.4,304.4,507.3,304.4z"/>
					<path d="M510.4,316.9c-0.2,0-0.4-0.1-0.5-0.4s0.1-0.5,0.4-0.6l14.9-4c0.3-0.1,0.5,0.1,0.6,0.4s-0.1,0.5-0.4,0.6L510.4,316.9
						C510.4,316.9,510.4,316.9,510.4,316.9z"/>
				</g>
				<g id="hand_r">
					<path class="st4" d="M683.4,109l-0.3-25.8c0,0,0,0,0-0.1v-0.4c5.9,3.3,11.9,6.6,17.8,9.9c-5.9,7.6-11.8,15.1-17.7,22.7
						L683.4,109z"/>
					<path class="st4" d="M705.9,68.8c-4.8,0.4-9.6,0.9-14.5,1.3l5.8-7.1c1.3-1.5,3.1-2.3,5-2.2c0.3,0,0.7,0.1,1,0.1
						C704.1,63.5,705,66.2,705.9,68.8z"/>
					<path class="st4" d="M737.3,109.3c0,0-14.4,33.3-16.1,41.5c-6.4-3.4-13-7.1-19.8-11c-6.5-3.8-12.8-7.6-18.7-11.4l0.2-4.1
						c11.8-2.3,23.7-4.5,35.5-6.8c0.1,0.1,0.1,0.2,0.2,0.3c0.1,0.3,0.3,0.5,0.4,0.8l0,0l7.6-14.8c1.5-3,5.2-4.2,8.2-2.6
						C737.6,102.6,738.8,106.3,737.3,109.3z"/>
					<path d="M716.4,123.6c-0.1,0-0.2,0-0.2-0.1c-0.2-0.1-0.3-0.4-0.2-0.7l7.9-15.4c0.1-0.2,0.4-0.3,0.7-0.2
						c0.2,0.1,0.3,0.4,0.2,0.7l-7.9,15.4C716.8,123.5,716.6,123.6,716.4,123.6z"/>
				</g>
			</g>
		</g>
		<path id="ladder" class="st0" d="M963.2,585.6c-0.8-0.1-1.6,0.4-1.7,1.3l-11.2,73.7l-142.4-21.7l11.2-73.7
			c0.1-0.8-0.4-1.6-1.3-1.7c-0.8-0.1-1.6,0.4-1.7,1.3l-11.5,75.1l0,0l0,0l-55.9,366.8l0,0l0,0l-4.9,32.1c-0.1,0.8,0.4,1.6,1.3,1.7
			c0.1,0,0.2,0,0.2,0c0.7,0,1.4-0.5,1.5-1.3l4.7-30.6l142.4,21.7l-4.7,30.6c-0.1,0.8,0.4,1.6,1.3,1.7c0.1,0,0.2,0,0.2,0
			c0.7,0,1.4-0.5,1.5-1.3l72.3-474.1C964.6,586.5,964,585.8,963.2,585.6z M949.8,663.5l-13.5,88.7l-142.4-21.7l13.5-88.7
			L949.8,663.5z M922.3,844l-142.4-21.7l13.5-88.7l142.4,21.7L922.3,844z M908.3,935.7L765.9,914l13.5-88.7L921.8,847L908.3,935.7z
			 M751.9,1005.7l13.5-88.7l142.4,21.7l-13.5,88.7L751.9,1005.7z"/>
	</g>
</g>
</svg>
