<?xml version="1.0" encoding="utf-8"?>
<!-- Generator: Adobe Illustrator 22.1.0, SVG Export Plug-In . SVG Version: 6.00 Build 0)  -->
<svg version="1.1" xmlns="http://www.w3.org/2000/svg" xmlns:xlink="http://www.w3.org/1999/xlink" x="0px" y="0px"
	 viewBox="0 0 838.5 855.8" style="enable-background:new 0 0 838.5 855.8;" xml:space="preserve">
<style type="text/css">
	.st0{fill:#D5E0EA;}
	.st1{fill:#CEE0EB;}
	.st2{fill:#1F0D60;}
	.st3{fill:#FF0F97;}
	.st4{fill:#8235FF;}
	.st5{fill:#4300FF;}
	.st6{fill:#00CE87;}
	.st7{fill:#F4FF00;}
</style>
<g id="background_1_">
	<g id="background">
		<circle id="circle" class="st0" cx="578.2" cy="586.8" r="136.3"/>
		<path id="line" class="st1" d="M183.8,204c0.4,0.3,0.9,0.8,1.1,1.3c3.5,11.1,7.5,33-2.6,55.2c-2.9,6.5-11.8,25.9-30.2,31.4
			c-0.7,11.9-4,24.5-11.3,35.1c-8.4,12.4-20.9,21.1-33.8,25.7c0.6,9-0.8,18.4-4.9,26.1c-20.1,37.8-65.6,35.1-66,35.2
			c-1.3-0.1-2.4-1.2-2.2-2.7c0.1-1.3,1.2-2.4,2.7-2.2c0.4,0,42.8,2.4,61.3-32.5c3.5-6.5,4.9-14.3,4.5-22.2
			c-13.5,3.8-26.6,3.1-35-2.4l0,0c-2.2-1.5-12.8-9.1-12.7-20.6c0-0.4,0.1-10.1,7.3-15.3c9.1-6.5,22.2-1.3,27.8,2.4c0,0,0,0,0.1,0.1
			c8.7,5.8,14.6,16.9,16.6,29c11.6-4.5,22.8-12.4,30.3-23.5c6.4-9.3,9.4-20.5,10.3-31.2c-4.7,0.7-11.7,0.8-19-2.6
			c-9.4-4.2-21.2-15.4-18.4-26.8c1.2-5.2,5.4-10,11.3-13.1c5.4-2.8,11.3-3.5,15.7-1.8c5.4,2.2,10,8.2,12.8,17.2
			c1.8,5.8,2.9,12.9,2.8,20.4c15-5.4,22.6-21.8,25.4-28.1c9.5-20.7,5.6-41.3,2.5-51.7c-0.4-1.2,0.4-2.7,1.7-3.1
			C182.3,203.4,183.2,203.6,183.8,204z M147,288.1c0.2-7.5-0.9-14.6-2.7-20.4c-2.3-7.3-5.9-12.5-9.8-14.1c-3-1.2-7.4-0.5-11.6,1.5
			c-4.6,2.4-7.9,6.2-8.8,9.7c-2,8.1,7.9,17.4,15.7,21C136.6,289.1,143,288.8,147,288.1z M101.4,349.5c-1.6-11.1-6.8-21.5-14.5-26.6
			c0,0,0,0-0.1-0.1c-5.4-3.6-15.9-7.1-22.1-2.5c-5.3,3.7-5.3,11.3-5.3,11.3c0,9,8.6,15.3,10.3,16.4l0,0
			C77.2,352.9,89.1,353.2,101.4,349.5z"/>
	</g>
</g>
<g id="general_1_">
	<g id="general">
		<g id="finishing_tape">
			<path class="st2" d="M838.5,175.9c-100.8,16.4-162.7,48.8-183.9,96.4c-7.7,17.2-9.8,35.5-12.2,56.8
				c-3.7,31.6-7.8,67.4-30.8,112.5c-12.4,24.3-28.2,47-46.9,67.6l-19.2-17.5c17.2-18.9,31.6-39.7,43-61.9
				c20.9-40.9,24.8-74.3,28.2-103.7c2-16.9,3.8-33.1,8.6-49c8.3-8.8,20.2-21.4,26.1-27.4c2.3-2.3,2.3-6,0-8.2
				c-1.4-1.4-3.2-1.9-5-1.6c-0.3,0.1-0.6,0.1-0.9,0.2c-0.1,0-0.1,0-0.2,0l0.9-0.9l1.4-1.4c1.4-1.4,2-3.4,1.6-5.3
				c10.8-13,24.5-24.7,41-34.9c34.8-21.5,83.3-37.5,144.2-47.4L838.5,175.9z"/>
			<path class="st2" d="M458.5,560c-38.5,37.9-76.9,56.8-114.1,56.1c-36.1-0.7-61-19.3-87.4-39c-25.4-19-51.7-38.7-87.7-39.5
				c-25.5-0.6-51.3,8.6-76.7,27.4C62.1,587.5,30.9,624.8,0,675.8l22.2,13.5c51.3-84.5,100.6-126.8,146.6-125.8
				c27.6,0.6,48.5,16.2,72.7,34.3c27.2,20.3,57.9,43.3,102.4,44.2c23.6,0.5,47.2-5.3,70.8-17.3c20.2-10.3,40.4-25.2,60.3-44.5
				c0,0,1.7-1.6,1.8-1.7L458.5,560z"/>
		</g>
		<g id="man">
			<g id="body">
				<path class="st3" d="M613.1,284.2c-6.9-6-12.4-10.6-17-14.4c-2.3-1.9-4.6-3.9-6.9-5.8c-3.7-3-7.3-6.1-10.9-9.1
					c-3.1,2.6-6.6,5.2-10.5,8c-24.2,17.3-36.3,26-46.8,24c-28.9-5.6-29.8-88.3-63.9-117.9c-16.1-14-50.3-24.7-55-26h0
					c-0.2-0.1-0.4-0.1-0.5-0.1c0-0.2,0-0.3,0-0.5c-0.1-3-0.2-6.1-0.4-9.1c-2.7-0.2-5.4-0.3-8-0.5c-13.4-0.8-26.8-1.7-40.2-2.5
					c-3.8-0.2-7.6-0.5-11.3-0.7v12.2c-3.8,0.7-7.7,1.5-11.6,2.5c-7.4,2-15.1,4.6-22.8,8.1c-35.8,16.3-63.8,55.5-63.8,55.5
					c-20.5,28.8-58.7,82.3-38.5,114c14.9,23.5,56.8,28,62.6,28.5c9.8,0.9,18.1,0.3,24.1-0.5c0,5.8-1,29-1.4,34.4
					c2.5-0.1,4.9-0.2,7.3-0.4c30.5-1.6,61.1-3.1,91.6-4.6c0.7,0,1.4-0.1,2.1-0.1c21.9-1.1,43.8-2.2,65.7-3.3
					c1.7-0.1,3.4-0.2,5.1-0.3c-0.1-9.2-0.3-18.6-0.6-28.1c-0.4-12.6-0.9-24.8-1.6-36.8c-0.1-1.6-0.2-3.2-0.3-4.9
					c0.3,0.4,0.5,0.8,0.8,1.2c22.9,34.7,47.3,38.7,53.5,39.4c35.1,4.2,69.2-28.5,97.2-54.8c1.7-1.6,3.4-3.2,5-4.9
					C615.4,286.2,614.3,285.3,613.1,284.2z M291.7,296.5c-10.5,1.2-20.3-1.6-23.9-8.1c-4.3-7.8,1.8-18,7.1-27
					c5.3-9.1,11.9-15.1,16.4-18.7C292.3,253.3,292.2,290.4,291.7,296.5z"/>
				<path class="st2" d="M459.9,310.6C459.8,310.6,459.8,310.6,459.9,310.6c-0.3,0-0.5-0.2-0.5-0.5l1.4-85.4c0-0.3,0.2-0.5,0.5-0.5
					c0.3,0,0.5,0.2,0.5,0.5l-1.4,85.4C460.3,310.4,460.1,310.6,459.9,310.6z"/>
				<path class="st2" d="M371.4,145.6c-0.1,0-0.1,0-0.2,0c-0.3-0.1-0.4-0.4-0.3-0.6c0.1-0.4,0.2-0.6,30.6-2.5c0.3,0,0.5,0.2,0.5,0.5
					c0,0.3-0.2,0.5-0.5,0.5c-11.4,0.7-28.7,1.9-30,2.2C371.5,145.6,371.5,145.6,371.4,145.6z"/>
			</g>
			<g id="hands">
				<g id="hand_l">
					<path class="st4" d="M419.3,321.7c0.3,3.1-2,5.8-5,6.1l-3.2,0.3c0.1,0,0.1,0,0.2,0.1c1.9,0.8,3.3,2.5,3.5,4.6
						c0.3,3.1-2,5.8-5,6.1c-13.7,1.4-27.5,2.8-41.2,4.3c-2.6,0.3-5.1,0.5-7.7,0.8c-1.4-7.9-2.8-15.8-4.3-23.8
						c-1.4-7.4-2.8-14.7-4.2-21.9c0.6-0.3,1.2-0.6,1.9-0.8c9.6-4.3,19.2-8.6,28.8-12.9c2.8-1.2,6.1,0.1,7.4,2.9
						c1.2,2.8-0.1,6.1-2.9,7.4l-10.1,4.4c1.5,0,3.1,0.1,4.6,0.1l26.5-1.8c3.1-0.2,5.8,2.1,6,5.2c0.1,1.4-0.3,2.7-1.1,3.7l1.5-0.2
						c3.1-0.3,5.8,2,6.1,5c0.3,2.9-1.8,5.5-4.6,6c0.1,0,0.1,0.1,0.2,0.1C418,318.3,419.1,319.8,419.3,321.7z"/>
					<path d="M385.4,308.7c-0.3,0-0.5-0.2-0.5-0.5c0-0.3,0.2-0.5,0.5-0.5l27.9-1.8c0.3,0,0.5,0.2,0.5,0.5c0,0.3-0.2,0.5-0.5,0.5
						L385.4,308.7C385.4,308.7,385.4,308.7,385.4,308.7z"/>
					<path d="M388.8,319.7c-0.3,0-0.5-0.2-0.5-0.5c0-0.3,0.2-0.5,0.5-0.5l27.9-1.8c0.3,0,0.5,0.2,0.5,0.5c0,0.3-0.2,0.5-0.5,0.5
						L388.8,319.7C388.8,319.7,388.8,319.7,388.8,319.7z"/>
					<path d="M387.4,330.2c-0.3,0-0.5-0.2-0.5-0.5c0-0.3,0.2-0.5,0.5-0.5l24.5-1.6c0.3,0,0.5,0.2,0.5,0.5c0,0.3-0.2,0.5-0.5,0.5
						L387.4,330.2C387.4,330.2,387.4,330.2,387.4,330.2z"/>
				</g>
				<g id="hand_r">
					<path class="st4" d="M651.3,241.5c-1.4-1.4-3.2-1.9-5-1.6c0,0.1-0.1,0.1-0.1,0.1l-0.7-0.7c0.2-0.2,0.4-0.2,0.6-0.1l1.4-1.4
						c1.4-1.4,2-3.4,1.6-5.3c-0.2-1.1-0.7-2.1-1.6-3c-1.2-1.2-2.9-1.8-4.5-1.7c-0.2,0-0.4,0-0.6,0.1c-0.1,0-0.2,0-0.2,0
						c0.2-0.2,0.3-0.4,0.5-0.6c0,0,0,0,0,0c1.5-2.2,1.2-5.3-0.8-7.3c-2.3-2.3-6-2.3-8.2,0l-0.7,0.8l-0.4,0.4c0-0.2,0-0.3,0-0.5
						c-0.1-1.2-0.6-2.3-1.5-3.2c-2.2-2.3-5.9-2.4-8.2-0.2l-20.1,18.9c-1.2,1-2.5,2-3.7,2.9l5.2-10.2c1.5-2.8,0.3-6.4-2.5-7.8
						c-2.8-1.5-6.4-0.3-7.8,2.5c-4.9,9.9-9.9,19.8-14.8,29.7c-0.1,0.2-0.2,0.3-0.2,0.3c-0.2,0.4-0.4,0.8-0.6,1.2l0,0
						c3.6,3,7.3,6,10.9,9.1c2.3,1.9,4.6,3.8,6.9,5.8c4.6,3.8,10.1,8.5,17,14.4c1.3,1.1,2.3,2,3,2.6c0,0,0.2-0.2,0.4-0.4
						c0.2-0.2,0.5-0.5,0.9-1c1.6-1.6,4.4-4.6,7.8-8.3c8.3-8.8,20.2-21.4,26.1-27.4C653.6,247.5,653.6,243.8,651.3,241.5z"/>
					<path d="M611.4,241.6c-0.1,0-0.3-0.1-0.4-0.2c-0.2-0.2-0.2-0.5,0-0.7l21.2-19.9c0.2-0.2,0.5-0.2,0.7,0s0.2,0.5,0,0.7
						l-21.2,19.9C611.6,241.6,611.5,241.6,611.4,241.6z"/>
					<path d="M621.3,248.3c-0.1,0-0.3-0.1-0.4-0.2c-0.2-0.2-0.2-0.5,0-0.7l21.2-19.9c0.2-0.2,0.5-0.2,0.7,0c0.2,0.2,0.2,0.5,0,0.7
						l-21.2,19.9C621.6,248.2,621.5,248.3,621.3,248.3z"/>
					<path d="M646.2,239.3C646.2,239.3,646.2,239.3,646.2,239.3c-0.3-0.2-0.5-0.2-0.7,0l-4.6,4.3l-14,13.1c-0.2,0.2-0.2,0.5,0,0.7
						c0.1,0.1,0.2,0.2,0.4,0.2c0.1,0,0.2,0,0.3-0.1l11.2-10.5l7.5-7c0,0,0.1-0.1,0.1-0.1C646.4,239.7,646.4,239.5,646.2,239.3z"/>
					<path d="M599.6,264.8C599.6,264.8,599.5,264.8,599.6,264.8c-0.4-0.1-0.5-0.3-0.5-0.6c0.6-2.9,0.9-5.9,1-8.8
						c0.1-4.2-0.3-8.4-1.3-12.5c-0.1-0.3,0.1-0.5,0.4-0.6c0.3-0.1,0.5,0.1,0.6,0.4c1,4.2,1.4,8.5,1.3,12.8c-0.1,3-0.4,6-1,9
						C600.1,264.7,599.8,264.8,599.6,264.8z"/>
				</g>
			</g>
			<g id="legs_general">
				<path class="st4" d="M480.4,789.3c-1-1.1-2.7-2.7-4.9-4.5c-5.4-4.2-12.7-5.2-19-2.5c-3.7,1.6-6.6,4.2-8.6,7.5l-26.2,2
					c-0.4-4-0.8-8-1.2-12.1c19.9-2.4,39.8-4.8,59.8-7.1C480.3,778.2,480.4,783.8,480.4,789.3z"/>
				<path class="st4" d="M205.4,757.3c-2.7,3.8-5.3,7.7-8,11.5c-1.3-2.3-3.3-4.9-6.3-6.8c-3.9-2.5-8.6-3.4-13.4-2.7l-27.4-15.8
					l10.7-16.1L205.4,757.3z"/>
				<g id="legs">
					<path class="st5" d="M461.6,385.3c0,0-0.1,0-0.1,0l-7.3,2.4c-0.1,0-0.2,0-0.3,0c-0.4,0-0.8-0.3-0.9-0.7
						c-0.2-0.5,0.1-1.1,0.6-1.3l7.2-2.4L461.6,385.3z"/>
					<path class="st5" d="M437.8,525.2c-0.1,0-0.3,0-0.4-0.1c-0.5-0.2-0.7-0.8-0.5-1.3l7.6-15.9c0.2-0.5,0.8-0.7,1.3-0.5
						c0.5,0.2,0.7,0.8,0.5,1.3l-7.6,15.9C438.6,525,438.2,525.2,437.8,525.2z"/>
					<path class="st5" d="M413.2,464.1c-0.4,0-0.9-0.3-1-0.7c-0.1-0.5,0.2-1.1,0.7-1.2l17.1-4.4c0.5-0.1,1.1,0.2,1.2,0.7
						s-0.2,1.1-0.7,1.2l-17.1,4.4C413.4,464.1,413.3,464.1,413.2,464.1z"/>
					<path class="st5" d="M213.5,707.4c-0.4,0-0.7-0.2-0.9-0.6l-7.3-16.1c-0.2-0.5,0-1.1,0.5-1.3c0.5-0.2,1.1,0,1.3,0.5l7.3,16.1
						c0.2,0.5,0,1.1-0.5,1.3C213.7,707.3,213.6,707.4,213.5,707.4z"/>
					<path class="st5" d="M164,708.9c-0.2,0-0.4-0.1-0.6-0.2c-0.4-0.3-0.5-1-0.2-1.4l10.8-14c0.3-0.4,1-0.5,1.4-0.2
						c0.4,0.3,0.5,1,0.2,1.4l-10.8,14C164.6,708.7,164.3,708.9,164,708.9z"/>
					<path class="st5" d="M250.8,685.5c-0.5,0-1-0.4-1-1c0-0.6,0.4-1,1-1l17.6-0.9c0.5-0.1,1,0.4,1,1c0,0.6-0.4,1-1,1L250.8,685.5
						C250.8,685.5,250.8,685.5,250.8,685.5z"/>
					<path class="st5" d="M501.9,755.7c-0.1,0.7-0.2,1.3-0.3,2l-8.9,0.4h0c-0.5,0-1-0.4-1-0.9c0-0.6,0.4-1,1-1.1L501.9,755.7z"/>
					<path class="st5" d="M188,737.1c0,0.6-0.4,1-1,1l-9.3,0.5l-2.8-1.9l12-0.6C187.5,736.1,188,736.6,188,737.1z"/>
					<path class="st5" d="M206.9,645.9c-0.2,0.2-0.5,0.3-0.8,0.3c-0.2,0-0.5-0.1-0.7-0.2l-10-8.8c0.4-0.5,0.8-1.1,1.2-1.6l10.1,8.9
						C207.3,644.8,207.3,645.5,206.9,645.9z"/>
					<path class="st5" d="M430.5,414.7c0,0-0.1,0-0.1,0l-17.5-1.9c-0.5-0.1-0.9-0.6-0.9-1.1c0.1-0.5,0.6-0.9,1.1-0.9l17.5,1.9
						c0.5,0.1,0.9,0.6,0.9,1.1C431.4,414.3,431,414.7,430.5,414.7z"/>
					<path class="st5" d="M456.1,430.2c-0.2,0-0.3,0-0.5-0.1c-0.5-0.3-0.6-0.9-0.4-1.4l8.8-15.2c0.3-0.5,0.9-0.6,1.4-0.4
						c0.5,0.3,0.6,0.9,0.4,1.4l-8.8,15.2C456.7,430.1,456.4,430.2,456.1,430.2z"/>
					<path class="st5" d="M523,512.3L523,512.3l-7.2,12.4c-0.2,0.3-0.5,0.5-0.9,0.5c-0.2,0-0.3,0-0.5-0.1c-0.5-0.3-0.6-0.9-0.4-1.4
						l7.9-13.6L523,512.3z"/>
					<path class="st5" d="M460.8,472.9c-0.3,0-0.6-0.1-0.8-0.4c-0.3-0.4-0.3-1.1,0.2-1.4l13.8-11c0.4-0.3,1.1-0.3,1.4,0.2
						c0.3,0.4,0.3,1.1-0.2,1.4l-13.8,11C461.2,472.8,461,472.9,460.8,472.9z"/>
					<path class="st5" d="M484.7,501.3c-0.2,0-0.3,0-0.4-0.1c-0.5-0.2-0.7-0.8-0.4-1.3l7.9-15.7c0.2-0.5,0.8-0.7,1.3-0.4
						s0.7,0.8,0.4,1.3l-7.9,15.7C485.5,501.1,485.1,501.3,484.7,501.3z"/>
					<path class="st5" d="M314.5,414.9c-0.3,0-0.7-0.2-0.8-0.5l-9.3-15c-0.3-0.5-0.1-1.1,0.3-1.4c0.5-0.3,1.1-0.1,1.4,0.3l9.3,15
						c0.3,0.5,0.1,1.1-0.3,1.4C314.9,414.9,314.7,414.9,314.5,414.9z"/>
					<path class="st5" d="M293.2,449.3c-0.1,0-0.1,0-0.2,0c-0.5,0-0.9-0.3-1-0.8l-3.1-15.6v0c0.2-1,0.3-1.9,0.5-2.8v0
						c0.5-0.1,1,0.3,1.1,0.8l3.5,17.3C294.1,448.7,293.7,449.2,293.2,449.3z"/>
					<path class="st5" d="M314.6,494.3c-0.2,0-0.4-0.1-0.6-0.2l-14.5-10.1c-0.5-0.3-0.6-0.9-0.2-1.4c0.3-0.5,0.9-0.6,1.4-0.2
						l14.5,10.1c0.5,0.3,0.6,0.9,0.2,1.4C315.2,494.2,314.9,494.3,314.6,494.3z"/>
					<path class="st5" d="M393.3,385.5c-0.1,0.1-0.3,0.1-0.4,0.1c-0.4,0-0.7-0.2-0.9-0.6l-2.6-5.4c-0.1-0.1-0.1-0.3-0.1-0.4
						c0.7,0,1.4-0.1,2.1-0.1l2.4,5C394,384.6,393.8,385.2,393.3,385.5z"/>
					<path class="st5" d="M364.3,411.6c-0.5,0-0.9-0.3-1-0.8l-3.3-17.3c-0.1-0.5,0.3-1.1,0.8-1.2c0.5-0.1,1.1,0.3,1.2,0.8l3.3,17.3
						c0.1,0.5-0.3,1.1-0.8,1.2C364.4,411.6,364.3,411.6,364.3,411.6z"/>
					<path class="st5" d="M372,446c-0.1,0-0.2,0-0.3-0.1c-0.5-0.2-0.8-0.8-0.6-1.3l5.9-16.6c0.2-0.5,0.8-0.8,1.3-0.6
						c0.5,0.2,0.8,0.8,0.6,1.3l-5.9,16.6C372.8,445.8,372.4,446,372,446z"/>
					<path class="st5" d="M333.4,452.1c-0.2,0-0.5-0.1-0.6-0.2c-0.4-0.4-0.5-1-0.1-1.4L344,437c0.4-0.4,1-0.5,1.4-0.1s0.5,1,0.1,1.4
						l-11.3,13.5C334,452,333.7,452.1,333.4,452.1z"/>
					<path class="st5" d="M344.1,500.5c-0.1,0-0.2,0-0.3,0c-0.5-0.2-0.8-0.7-0.7-1.2l4.9-16.9c0.2-0.5,0.7-0.8,1.2-0.7
						c0.5,0.2,0.8,0.7,0.7,1.2l-4.9,16.9C345,500.2,344.6,500.5,344.1,500.5z"/>
					<path class="st5" d="M490.2,703.4c-0.1,0-0.2,0-0.3,0c-0.5-0.2-0.8-0.7-0.7-1.2l4.9-16.9c0.2-0.5,0.7-0.8,1.2-0.7
						c0.5,0.2,0.8,0.7,0.7,1.2l-4.9,16.9C491.1,703.1,490.7,703.4,490.2,703.4z"/>
					<path class="st5" d="M481.2,548.2c-0.4,0-0.7-0.2-0.9-0.5l-8.5-15.4c-0.3-0.5-0.1-1.1,0.4-1.4c0.5-0.3,1.1-0.1,1.4,0.4
						l8.5,15.4c0.3,0.5,0.1,1.1-0.4,1.4C481.5,548.2,481.3,548.2,481.2,548.2z"/>
					<path class="st5" d="M458.1,684.6c-0.1,0-0.2,0-0.4-0.1l-16.5-6.2c-0.5-0.2-0.8-0.8-0.6-1.3c0.2-0.5,0.8-0.8,1.3-0.6l16.5,6.2
						c0.5,0.2,0.8,0.8,0.6,1.3C458.9,684.4,458.5,684.6,458.1,684.6z"/>
					<path class="st5" d="M384.5,489.5c-1,4.3-2,8.7-3.1,13.3c0,0-0.1,0-0.1,0c-0.1,0-0.2,0-0.3-0.1c-0.5-0.2-0.8-0.8-0.6-1.3
						L384.5,489.5z"/>
					<path class="st5" d="M331.1,560.6c-0.2,0-0.5-0.1-0.6-0.2c-0.4-0.4-0.5-1-0.1-1.4l11.3-13.5c0.4-0.4,1-0.5,1.4-0.1
						c0.4,0.4,0.5,1,0.1,1.4l-11.3,13.5C331.7,560.5,331.4,560.6,331.1,560.6z"/>
					<path class="st5" d="M459.2,745.8c-0.2,0-0.5-0.1-0.6-0.2c-0.4-0.4-0.5-1-0.1-1.4l11.3-13.5c0.4-0.4,1-0.5,1.4-0.1
						c0.4,0.4,0.5,1,0.1,1.4L460,745.4C459.8,745.7,459.5,745.8,459.2,745.8z"/>
					<path class="st5" d="M509.3,580.8c-0.2,0-0.5-0.1-0.6-0.2c-0.4-0.4-0.5-1-0.1-1.4l11.3-13.5c0.4-0.4,1-0.5,1.4-0.1
						s0.5,1,0.1,1.4l-11.3,13.5C509.9,580.7,509.6,580.8,509.3,580.8z"/>
					<path class="st5" d="M428.2,642.1l-8,9.5c0.2-1.3,0.5-2.7,0.8-4l5.7-6.8c0.4-0.4,1-0.5,1.4-0.1S428.5,641.7,428.2,642.1z"/>
					<path class="st5" d="M284,547.2c-0.2,0-0.5-0.1-0.6-0.2c-0.4-0.4-0.5-1-0.1-1.4l11.3-13.5c0.4-0.4,1-0.5,1.4-0.1
						c0.4,0.4,0.5,1,0.1,1.4l-11.3,13.5C284.5,547.1,284.3,547.2,284,547.2z"/>
					<path class="st5" d="M370.3,544c-0.3,1-0.6,1.9-0.8,2.9l-6-12.4c-0.2-0.5,0-1.1,0.5-1.3s1.1,0,1.3,0.5L370.3,544z"/>
					<path class="st5" d="M485,647.1c-0.4,0-0.7-0.2-0.9-0.6l-7.7-15.9c-0.2-0.5,0-1.1,0.5-1.3c0.5-0.2,1.1,0,1.3,0.5l7.7,15.9
						c0.2,0.5,0,1.1-0.5,1.3C485.3,647.1,485.2,647.1,485,647.1z"/>
					<path class="st5" d="M298.5,594.8c-0.5,0-0.9-0.4-1-0.9l-2.4-17.5c-0.1-0.5,0.3-1.1,0.9-1.1c0.5-0.1,1.1,0.3,1.1,0.9l2.4,17.5
						c0.1,0.5-0.3,1.1-0.9,1.1C298.6,594.8,298.6,594.8,298.5,594.8z"/>
					<path class="st5" d="M510.5,632.1c-0.5,0-0.9-0.4-1-0.9l-2.4-17.5c-0.1-0.5,0.3-1.1,0.9-1.1c0.5-0.1,1.1,0.3,1.1,0.9l2.4,17.5
						c0.1,0.5-0.3,1.1-0.9,1.1C510.6,632.1,510.5,632.1,510.5,632.1z"/>
					<path class="st5" d="M239.6,649.2C239.5,649.2,239.5,649.2,239.6,649.2c-0.6,0-1-0.5-1-1.1l0.9-17.6c0-0.6,0.5-1,1-0.9
						c0.6,0,1,0.5,0.9,1l-0.9,17.6C240.5,648.8,240.1,649.2,239.6,649.2z"/>
					<path class="st5" d="M428.9,765.3l-0.7,13.6c-0.7,0.1-1.3,0.2-2,0.2l0.7-14c0-0.5,0.5-1,1-0.9
						C428.5,764.3,428.9,764.7,428.9,765.3z"/>
					<path class="st5" d="M222.5,733.5c-0.3,0-0.6-0.1-0.8-0.4c-0.4-0.4-0.3-1.1,0.1-1.4l13.4-11.4c0.4-0.4,1.1-0.3,1.4,0.1
						c0.4,0.4,0.3,1.1-0.1,1.4l-13.4,11.4C223,733.4,222.7,733.5,222.5,733.5z"/>
					<path class="st5" d="M278.5,647.3c-0.2,0-0.4-0.1-0.6-0.2c-0.4-0.3-0.5-1-0.2-1.4l11-13.8c0.3-0.4,1-0.5,1.4-0.2
						c0.4,0.3,0.5,1,0.2,1.4l-11,13.8C279.1,647.2,278.8,647.3,278.5,647.3z"/>
					<path class="st5" d="M416.3,728.9c-0.2,0-0.4-0.1-0.6-0.2c-0.4-0.3-0.5-1-0.2-1.4l11-13.8c0.3-0.4,1-0.5,1.4-0.2
						c0.4,0.3,0.5,1,0.2,1.4l-11,13.8C416.8,728.8,416.5,728.9,416.3,728.9z"/>
					<path class="st5" d="M329.6,613.4c-0.1,0-0.2,0-0.3-0.1c-0.5-0.2-0.8-0.8-0.6-1.3l5.9-16.6c0.2-0.5,0.8-0.8,1.3-0.6
						c0.5,0.2,0.8,0.8,0.6,1.3l-5.9,16.6C330.4,613.1,330.1,613.4,329.6,613.4z"/>
				</g>
				<g id="shoes">
					<g id="shoe_l">
						<path class="st6" d="M246.1,810.4c-12.3-7.6-29.8-7.1-40.7-22.5c-1.6-2.3-2.7-4.4-3.3-5.7c-1.3-2.9-2-5.6-2.4-7.6
							c-0.2-0.9-0.8-3.2-2.2-5.9c-1.3-2.3-3.3-4.9-6.3-6.8c-3.9-2.5-8.6-3.4-13.4-2.7l-27.4-15.8l-1.2-0.7c-2.4-1.4-5.4-0.5-6.8,1.8
							c-1.4,2.4-0.6,5.5,1.8,6.8l0.6,0.3c-2.5,3.4-16.2,24.1-19.9,30.4c7,5.3,71.9,61.1,76.4,62.6c4.6,1.5,12.2,2.3,27.1,3.7
							c16.5,1.6,30,2.3,39.1,2.7C263.5,826.1,254.2,815.5,246.1,810.4z"/>
						<path class="st2" d="M264.7,838.9C264.7,838.9,264.7,838.9,264.7,838.9c-7.4,0-14.8-0.3-22.2-0.9c-19.1-1.5-28.7-2.3-37.6-6.2
							c-13.8-6.1-21.9-16.7-32.9-31.4c-3.2-4.2-5.8-8.1-8-11.4c-6-8.9-9.9-14.8-18.3-17.7c-3.9-1.4-8.2-1.9-12.7-1.5
							c-0.3,0-0.5-0.2-0.5-0.5s0.2-0.5,0.5-0.5c4.6-0.4,9,0.1,13.1,1.5c8.7,3,12.7,9,18.8,18.1c2.3,3.4,4.8,7.2,8,11.4
							c11,14.6,19,25.1,32.6,31.1c8.8,3.9,18.3,4.6,37.3,6.1c7.4,0.6,14.8,0.9,22.2,0.9c0.3,0,0.5,0.2,0.5,0.5
							C265.2,838.7,265,838.9,264.7,838.9z"/>
						<path class="st2" d="M197.4,799.7c-0.1,0-0.2,0-0.3-0.1c-0.2-0.2-0.2-0.5,0-0.7c0.1-0.1,9.1-9.6,10-14.8c0.1-0.6,0-0.7,0-0.8
							c-0.5-0.3-3.5,1.5-5.7,2.9c-3.8,2.4-8.5,5.4-12.4,5.7c-0.5,0-1.8,0.2-2.2-0.8c-1-2.7,11-11.9,14.7-14.7
							c0.2-0.2,0.5-0.1,0.7,0.1c0.2,0.2,0.1,0.5-0.1,0.7c-7.3,5.5-14.9,12.2-14.3,13.5c0,0.1,0.3,0.2,1.2,0.1
							c3.6-0.4,8.2-3.3,11.9-5.6c3.9-2.4,5.8-3.6,6.8-2.9c0.7,0.5,0.5,1.4,0.4,1.8c-1,5.4-9.9,14.9-10.3,15.3
							C197.6,799.7,197.5,799.7,197.4,799.7z"/>
					</g>
					<g id="shoe_r">
						<path class="st6" d="M558.1,818.5c-15-10.4-30.8,3.4-51.8-9c-10.5-6.2-18.8-11.1-25.1-19.2c-0.2-0.3-0.5-0.6-0.8-0.9
							c-1-1.1-2.7-2.7-4.9-4.5c-5.4-4.2-12.7-5.2-19-2.5c-3.7,1.6-6.6,4.2-8.6,7.5l-26.2,2l-2.5,0.2c-2.7,0.2-4.8,2.6-4.6,5.4
							c0.2,2.7,2.6,4.8,5.4,4.6l1.6-0.1c0.5,4.7,0.9,9.3,1.4,14c0.8,8.2,1.7,16.3,2.5,24.4c31.2,3.3,62.5,6.5,93.7,9.8
							c17.8,1.9,35.7,3.8,53.5,5.6C571.8,832.2,564.4,822.8,558.1,818.5z"/>
						<path class="st2" d="M571.3,842.8C571.3,842.8,571.3,842.8,571.3,842.8c-21-0.4-91-2.7-111.6-15.2
							c-16.8-10.2-30-10.4-36.4-9.6c-0.3,0-0.5-0.2-0.6-0.4c0-0.3,0.2-0.5,0.4-0.6c6.5-0.8,20-0.5,37.1,9.8
							c20.4,12.4,90.2,14.6,111.1,15c0.3,0,0.5,0.2,0.5,0.5C571.8,842.6,571.6,842.8,571.3,842.8z"/>
						<path class="st2" d="M490.9,817.7c-0.1,0-0.2,0-0.3-0.1c-0.2-0.2-0.2-0.5,0-0.7c0.1-0.1,9.1-9.6,10-14.8c0.1-0.6,0-0.7,0-0.8
							c-0.5-0.4-3.5,1.5-5.7,2.9c-3.8,2.4-8.5,5.4-12.4,5.7c-0.5,0-1.8,0.2-2.2-0.8c-1-2.7,11-11.9,14.7-14.7
							c0.2-0.2,0.5-0.1,0.7,0.1c0.2,0.2,0.1,0.5-0.1,0.7c-7.3,5.5-14.9,12.2-14.3,13.5c0,0.1,0.3,0.2,1.2,0.1
							c3.6-0.4,8.2-3.3,11.9-5.6c3.9-2.4,5.7-3.6,6.8-2.9c0.7,0.5,0.5,1.4,0.4,1.8c-1,5.4-9.9,14.9-10.3,15.3
							C491.1,817.7,491,817.7,490.9,817.7z"/>
					</g>
				</g>
			</g>
			<g id="head">
				<path class="st4" d="M411.7,70.2c-0.1-0.3-0.2-0.7-0.4-1c-0.4-1-1.8-4.5-4.3-8.8c-0.6-1-1.2-2.1-1.9-3.2
					c-2.9-4.5-6.8-9.3-11.6-12.5c-0.2-0.1-0.5-0.3-0.7-0.4c0,0,0,0,0,0c-0.2-0.1-0.4-0.3-0.6-0.4c-0.1-0.1-0.2-0.1-0.3-0.1
					c0,0,0,0,0,0c-1.3-0.7-2.7-1.4-4.1-1.8c-1.6-0.5-3.2-0.8-4.9-0.9c-18.9-1-39.7,26-35.4,50.7c0.3,1.8,0.8,3.6,1.3,5.3
					c0.5,1.4,1,2.8,1.6,4.1l2.7,29.2c13.4,0.8,26.8,1.7,40.2,2.5l-0.3-3.6c2.6-0.2,5-0.8,7.3-1.8C416.6,119.8,419.1,90.2,411.7,70.2
					z"/>
				<path id="hair" d="M412.5,30c0.4-3-1.1-7.2-3.9-8.3c-3-1.2-6.2,1.8-7,0.9c-1-1.2,5-5.3,5.3-11.6c0.2-3.2-1-7.4-4.1-9.2
					c-4.9-2.9-12,2-14,3.4c-3.8,2.6-5.9,5.9-7,7.9c1-4.9-0.6-9.5-4-11.7c-2-1.3-4.6-1.8-6.8-1.1c-4.9,1.4-8.4,8.7-7.5,18
					c-21.3,6.6-36.5,22-37.8,38.5C325.4,61,326,65.2,327,69c0.2,1,0.5,2,0.8,2.9c1.5,5,3.4,8.7,3.8,9.4c0.7,1.3,1.4,2.5,2.2,3.7
					c2.1,3.2,4.3,5.9,6.4,8c0.7,0.7,1.3,1.3,1.9,1.9c0.5,0.5,1,0.9,1.5,1.3c0.3,0.2,0.5,0.5,0.8,0.7h0c1.2,0.1,2.7,0.2,4.4,0.1
					c2.8-0.2,6.1-0.9,9-3c0,0,0.1,0,0.1-0.1c6.5-4.6,2.8-20.2,7.8-33.3c0.5-1.2,1-2.4,1.7-3.6c0.6-1.1,1.3-2.1,2-3.2
					c5.6-7.5,16.5-13.1,22.5-10.2c0,0,0,0,0,0c0.1,0,0.2,0.1,0.3,0.1c0.2,0.1,0.4,0.2,0.6,0.4c0,0,0,0,0,0c0.2,0.1,0.5,0.3,0.7,0.4
					c0.4,0.2,0.7,0.5,1.1,0.8c0.3,0.2,0.5,0.4,0.8,0.6c0.2,0.1,0.4,0.3,0.5,0.4c0.2,0.2,0.5,0.4,0.7,0.6c0,0,0,0,0,0
					c0.3,0.3,0.6,0.5,0.9,0.8c0.1,0.1,0.1,0.1,0.2,0.2c0,0,0.1,0.1,0.1,0.1c0.2,0.2,0.3,0.3,0.5,0.5c0.2,0.1,0.3,0.3,0.4,0.4l0,0
					c0.4,0.4,0.8,0.9,1.3,1.3l0,0c0.5,0.5,1,1.1,1.4,1.6c0.5,0.6,0.9,1.1,1.3,1.7c0.4,0.6,0.8,1.1,1.2,1.7c0.4,0.6,0.8,1.1,1.1,1.7
					c0.7,1.1,1.3,2.1,1.9,3.2c2.4,4.3,3.9,7.9,4.3,8.8c0.1,0.3,0.3,0.7,0.4,1c0.5-2.6,1.6-11.1-3.6-19.6c-0.5-0.8-0.9-1.5-1.4-2.1v0
					c-0.6-0.9-1.3-1.7-2-2.4c-3-3.3-6.4-5.3-8.7-6.4C404.5,37.3,411.7,35.6,412.5,30z"/>
				<g id="eyes">
					<circle cx="382.1" cy="72.4" r="2.3"/>
					<circle cx="403.4" cy="68.1" r="2.3"/>
				</g>
				<path id="nose" d="M398.3,89.9c-0.1,0-0.2,0-0.3-0.1c-0.2-0.2-0.2-0.5,0-0.7l7.8-8.1l-12.9-13.9c-0.2-0.2-0.2-0.5,0-0.7
					c0.2-0.2,0.5-0.2,0.7,0l13.2,14.3c0.2,0.2,0.2,0.5,0,0.7l-8.1,8.4C398.6,89.9,398.5,89.9,398.3,89.9z"/>
				<g id="ear">
					<circle class="st4" cx="342.8" cy="97.4" r="15.3"/>
					<path d="M345.8,103.2c0,0-0.1,0-0.1,0c-0.1,0-2.5-0.7-3.1-3.1c-0.4-1.6,0.2-3.3,1.5-4.4l-12.5-5.2c-0.3-0.1-0.4-0.4-0.3-0.7
						c0.1-0.3,0.4-0.4,0.7-0.3l13.3,5.5c0.2,0.1,0.3,0.2,0.3,0.4c0,0.2-0.1,0.4-0.3,0.5c-1.4,0.8-2.2,2.4-1.8,3.8
						c0.5,1.8,2.3,2.3,2.4,2.3c0.3,0.1,0.4,0.4,0.3,0.6C346.2,103,346,103.2,345.8,103.2z"/>
				</g>
				<g id="brows">
					<path d="M407,60.3c-0.8,0.4-1.7,0.9-2.7,1.3c-3.8,1.6-7.2,2.1-7.7,1.1c-0.4-1,2.3-3.1,6.1-4.7c0.8-0.3,1.5-0.6,2.3-0.8
						C405.8,58.2,406.4,59.3,407,60.3z"/>
					<ellipse transform="matrix(1 -2.694816e-03 2.694816e-03 1 -0.1717 1.0235)" cx="379.7" cy="64.2" rx="7.9" ry="2"/>
				</g>
				<path d="M392.9,130.1C392.8,130.1,392.8,130.1,392.9,130.1c-3-0.1-5.9-0.4-8.8-1c-4.4-0.9-8.7-2.2-12.9-4.1
					c-0.3-0.1-0.4-0.4-0.2-0.7c0.1-0.3,0.4-0.4,0.7-0.2c4,1.8,8.3,3.2,12.6,4.1c2.8,0.5,5.7,0.9,8.6,1c0.3,0,0.5,0.2,0.5,0.5
					C393.3,129.8,393.1,130.1,392.9,130.1z"/>
				<g id="mustache">
					<path d="M397,92.7c0,0-25.1,4.6-28,13.3l29.4-7.2L397,92.7z"/>
					<path d="M400.9,91.8c0,0,22.7-5,28.2,2.1l-27.3,4.1L400.9,91.8z"/>
				</g>
				<path id="mouth" d="M406,103.7c-0.1-0.1-0.2-0.2-0.4-0.1l-14.4,1.3c-0.1,0-0.3,0.1-0.4,0.2c-0.1,0.1-0.1,0.3-0.1,0.4
					c1.1,3.5,4.3,5.9,7.7,5.9c0.5,0,1,0,1.6-0.2c3.2-0.7,5.7-3.7,6.1-7.1C406.2,104,406.1,103.8,406,103.7z M399.9,110.3
					c-3.3,0.7-6.6-1.2-7.9-4.5l13.1-1.2C404.6,107.4,402.5,109.7,399.9,110.3z"/>
				<path id="headband" class="st7" d="M327.4,71.9c-0.6,0-1.2-0.4-1.4-1.1c-0.2-0.8,0.2-1.6,1-1.9l78.3-23.3c0.8-0.2,1.6,0.2,1.9,1
					c0.2,0.8-0.2,1.6-1,1.9l-78.3,23.3C327.6,71.9,327.5,71.9,327.4,71.9z"/>
			</g>
		</g>
	</g>
</g>
</svg>
