<?xml version="1.0" encoding="utf-8"?>
<!-- Generator: Adobe Illustrator 22.1.0, SVG Export Plug-In . SVG Version: 6.00 Build 0)  -->
<svg version="1.1" id="Слой_1" xmlns="http://www.w3.org/2000/svg" xmlns:xlink="http://www.w3.org/1999/xlink" x="0px" y="0px"
	 viewBox="0 0 1047.1 1211.6" style="enable-background:new 0 0 1047.1 1211.6;" xml:space="preserve">
<style type="text/css">
	.st0{fill:#D5E0EA;}
	.st1{fill:#FFFFFF;}
	.st2{fill:#F73D9E;}
	.st3{fill:#00B7EA;}
	.st4{fill:#003FFF;}
	.st5{fill:#1F0D60;}
	.st6{fill:#FF0036;}
	.st7{fill:#1F0000;}
</style>
<g id="background_1_">
	<g id="background">
		<circle id="circle" class="st0" cx="901.1" cy="644.7" r="146"/>
		<g id="window">
			<path class="st1" d="M903.4,2.6c16.4,196.6,32.8,393.2,49.2,589.9c-214.8,17.9-429.5,35.8-644.3,53.6L259.1,56.2
				C473.9,38.3,688.6,20.4,903.4,2.6z"/>
			<path class="st2" d="M921.9,214.5L904,1.4c-0.1-0.8-0.8-1.4-1.6-1.4L259.8,53.6c-0.8,0.1-1.4,0.8-1.4,1.6l24,292.2L306.9,645
				c0,0.1,0,0.2,0.1,0.3c0,0.1,0,0.1,0.1,0.2c0,0.1,0.1,0.1,0.1,0.2c0.1,0.1,0.1,0.2,0.2,0.2l0.1,0.1c0.1,0.1,0.2,0.2,0.3,0.2
				c0.2,0.1,0.4,0.1,0.5,0.1h0.1l0,0l156.3-13l237.1-19.8l2.1-0.2L910,596.1l41.7-3.5c0.8-0.1,1.4-0.8,1.4-1.6L921.9,214.5z
				 M911.4,593.2l-209.8,17.5l-391.9,32.6l-24.5-298.2L261.5,56.5L901.1,3.1l17.7,211.6L950.1,590L911.4,593.2z"/>
			<path class="st2" d="M269.2,166.6c-1,0-1.9-0.8-2-1.8c-0.1-1.1,0.7-2.1,1.8-2.2l641.3-53.5c1.1-0.1,2.1,0.7,2.2,1.8
				c0.1,1.1-0.7,2.1-1.8,2.2l-641.3,53.5C269.3,166.6,269.3,166.6,269.2,166.6z"/>
			<path class="st2" d="M318.6,129.1c-13.2,0-24.5-10.2-25.6-23.6c-1.2-14.1,9.4-26.6,23.5-27.8c6.8-0.6,13.5,1.6,18.8,6
				c5.2,4.4,8.5,10.7,9,17.5c1.2,14.1-9.4,26.6-23.5,27.8C320,129.1,319.3,129.1,318.6,129.1z M318.6,81.7c-0.6,0-1.2,0-1.8,0.1
				c-11.9,1-20.8,11.5-19.9,23.5c1,11.9,11.5,20.9,23.5,19.9c11.9-1,20.8-11.5,19.9-23.5c-0.5-5.8-3.2-11-7.6-14.8
				C328.7,83.5,323.7,81.7,318.6,81.7z"/>
			<path class="st2" d="M396.9,122.6c-13.2,0-24.5-10.2-25.6-23.6c-0.6-6.9,1.6-13.5,6-18.8c4.4-5.2,10.7-8.5,17.5-9
				c6.9-0.6,13.5,1.6,18.8,6c5.2,4.4,8.5,10.7,9,17.5c0.6,6.9-1.6,13.5-6,18.8c-4.4,5.2-10.7,8.5-17.5,9
				C398.4,122.6,397.6,122.6,396.9,122.6z M397,75.1c-0.6,0-1.2,0-1.8,0.1c-5.8,0.5-11,3.2-14.8,7.6s-5.5,10.1-5.1,15.8
				c1,11.9,11.5,20.9,23.5,19.9c5.8-0.5,11-3.2,14.8-7.6s5.5-10.1,5.1-15.8c-0.5-5.8-3.2-11-7.6-14.8C407,76.9,402.1,75.1,397,75.1z
				"/>
			<path class="st2" d="M475.3,116.1c-13.2,0-24.5-10.2-25.6-23.6c-1.2-14.1,9.4-26.6,23.5-27.8c14.1-1.2,26.6,9.4,27.8,23.5
				c1.2,14.1-9.4,26.6-23.5,27.8C476.7,116,476,116.1,475.3,116.1z M475.3,68.6c-0.6,0-1.2,0-1.8,0.1c-11.9,1-20.8,11.5-19.9,23.5
				c1,11.9,11.5,20.9,23.5,19.9c11.9-1,20.8-11.5,19.9-23.5C496,77.2,486.5,68.6,475.3,68.6z"/>
		</g>
		<g id="lines">
			<path class="st0" d="M468.5,942.3c-0.1,0-0.2,0-0.4,0c-1.6-0.2-2.8-1.7-2.6-3.3c0.4-3.2,4.5-31.9,28.9-43c5.5-2.5,11-3.7,16.4-4
				c-1-3.7-1.4-7.4-1.4-10.7c-0.2-28.1,33.3-54.4,66.5-62.5c0.7-15.8,10.3-27.3,15.1-33.1c14.8-17.7,33.6-23.7,43.6-26.9
				c15.2-4.8,31.2-6.3,47.5-4.5c1.6,0.2,2.8,1.7,2.6,3.3c-0.2,1.6-1.7,2.8-3.3,2.6c-15.5-1.8-30.6-0.3-45,4.2
				c-9.5,3-27.2,8.6-40.8,25c-4.5,5.4-12.5,15-13.6,28c3.4-0.6,6.8-1,10.1-1.2c7-0.4,25.6-1.3,32.1,10c2.1,3.5,3.7,9.9,1.3,16.1
				c-1.8,4.9-5.8,8.8-11.1,11.1c-9.9,4.2-21.3-0.1-28.2-6.3c-8.1-7.2-9.8-17-10.2-22.3c-30.1,7.8-60.8,31.7-60.7,56.3
				c0,3.8,0.6,7.5,1.6,10.8c8.4,0.6,15.6,3.1,19.6,5.7c2.2,1.4,7.3,4.7,7.6,10.2c0.1,2.3-0.6,5.5-3.1,7.5
				c-4.9,3.8-12.5,0.1-16.6-2.5c-5.4-3.4-9.2-8.9-11.7-15c-5,0.1-10.5,1.1-15.8,3.5c-21.8,10-25.3,37.2-25.5,38.3
				C471.3,941.2,470,942.3,468.5,942.3z M519.5,898.3c2.3,4.3,5.2,7.6,8.1,9.5c4.8,3,8.6,3.7,9.7,2.9c0.5-0.4,0.9-1.5,0.8-2.4
				c-0.1-2.4-3.3-4.4-4.8-5.4C530.8,901.1,525.7,899.1,519.5,898.3z M581.9,823.6c0.3,4.5,1.4,13,8.3,19.2
				c5.3,4.7,14.4,8.4,21.8,5.2c3.8-1.6,6.6-4.4,7.9-7.7c1.5-4,0.6-8.4-0.9-11c-4.8-8.1-21.2-7.3-26.7-7
				C588.9,822.5,585.4,822.9,581.9,823.6z"/>
			<path class="st0" d="M180.6,349.4c0.1,0,0.2,0,0.3,0c1.2,0.1,2,1.2,1.9,2.3c-0.3,2.3-3,22.6-20.2,30.5c-3.8,1.8-7.8,2.6-11.5,2.9
				c0.7,2.6,1,5.2,1.1,7.6c0.3,19.9-23.2,38.6-46.6,44.5c-0.4,11.2-7.1,19.4-10.5,23.4c-10.3,12.6-23.5,16.9-30.6,19.2
				c-10.7,3.5-21.9,4.6-33.5,3.4c-1.2-0.1-2-1.2-1.9-2.3c0.1-1.2,1.2-2,2.3-1.9c10.9,1.2,21.6,0.1,31.7-3.2
				c6.7-2.2,19.1-6.2,28.7-17.8c3.1-3.8,8.7-10.6,9.4-19.8c-2.4,0.4-4.8,0.7-7.1,0.9c-4.9,0.3-18,1-22.7-6.9c-1.5-2.5-2.6-7-1-11.4
				c1.3-3.5,4-6.3,7.8-7.9c6.9-3,15,0,19.9,4.3c5.7,5.1,7,11.9,7.3,15.7c21.2-5.7,42.7-22.7,42.5-40.1c0-2.7-0.5-5.3-1.2-7.6
				c-5.9-0.4-11-2.1-13.9-3.9c-1.5-1-5.1-3.3-5.4-7.1c-0.1-1.7,0.4-3.9,2.2-5.3c3.4-2.7,8.8-0.1,11.7,1.7c3.8,2.4,6.6,6.3,8.3,10.5
				c3.6-0.1,7.4-0.8,11.1-2.5c15.3-7.1,17.7-26.4,17.8-27.2C178.6,350.2,179.5,349.5,180.6,349.4z M144.8,380.8
				c-1.6-3-3.7-5.4-5.8-6.7c-3.4-2.1-6.1-2.6-6.8-2c-0.4,0.3-0.6,1-0.6,1.7c0.1,1.7,2.3,3.1,3.4,3.8
				C136.9,378.9,140.4,380.2,144.8,380.8z M101.2,433.9c-0.2-3.2-1.1-9.2-6-13.5c-3.8-3.3-10.2-5.9-15.4-3.6
				c-2.7,1.2-4.6,3.1-5.5,5.5c-1,2.8-0.4,5.9,0.7,7.8c3.4,5.7,15,5,18.8,4.8C96.3,434.7,98.7,434.4,101.2,433.9z"/>
		</g>
	</g>
</g>
<g id="general_1_">
	<g id="general">
		<g id="woman">
			<g id="head_1_">
				<path id="face" class="st3" d="M744,389c-6.6-3.2-15-6.2-25.5-7.7c-4.1-24.6-8.1-49.3-12.2-73.9c0-0.2-0.1-0.4-0.1-0.7l0,0
					c0.1-0.2,0.3-0.4,0.4-0.6l0,0c3.5-17,6.3-30.8,0.3-41.8c-7.3-13.4-20.6-10-27.6-22.2c-6.2-10.9-2.2-25.3,3-36.8
					c-0.4,0.1-0.9,0.1-1.5,0.2c-0.3,0-0.6,0.1-1,0.1l0,0c-0.4,0.1-0.7,0.1-1.1,0.2c-0.6,0.1-1.3,0.2-2,0.3c-0.1,0-0.2,0-0.2,0
					c-0.4,0.1-0.7,0.1-1.1,0.2l0,0c-0.1,0-0.1,0-0.2,0c-0.9,0.1-1.8,0.3-2.8,0.4c-0.1,0-0.2,0-0.3,0c-0.6,0.1-1.2,0.2-1.8,0.2
					c-4.5,0.6-9.9,1.3-16,2c-0.6,0.1-1.3,0.1-1.9,0.2c-1,0.1-2,0.2-3,0.3c-0.9,0.1-1.9,0.2-2.9,0.3c-1.3,0.1-2.5,0.3-3.9,0.4
					c-0.9,0.1-1.8,0.2-2.8,0.3c-0.7,0.1-1.5,0.1-2.2,0.2c-1.5,0.1-3,0.3-4.5,0.4c-0.8,0.1-1.5,0.1-2.3,0.2c-1,0.1-2,0.2-3,0.2
					c-2,0.2-4.1,0.3-6.2,0.5c-1,0.1-2.1,0.1-3.1,0.2c-0.2,0-0.4,0-0.6,0c-0.9,0.1-1.7,0.1-2.6,0.2c-1,0.1-2,0.1-3,0.2h-0.1
					c-1.1,0.1-2.1,0.1-3.2,0.2c-20.6,1-41.6,0.7-57.5-2.5c-20,57.8,4.5,134.1,46.8,150c4,1.5,7.8,2.4,11.5,2.8
					c0.1,10.3,0.1,20.6,0.1,30.8c-19.6-1.8-36.1-0.7-49.9,1.9c-0.4,4.1-0.8,9.8-0.9,16.6c0,0.4,0,0.9,0,1.3
					c0.6,18.4,3.3,42.7,12.4,61.2c0,0,0,0,0,0.1c1.3,2.6,2.7,5.1,4.2,7.4c15.2,23.1,43.7,32.4,96.8-2.5c4.9-3.2,9.6-6.5,14.1-9.8
					l0,0c31.5-23.5,52.8-49.8,67.2-75.5C750.7,392.5,747.5,390.7,744,389z"/>
				<path id="hair" d="M874.5,334.7c-2.1,0.2-4.7,0.5-7.7,0.8c-9.9,1.1-24.3,2.6-39.1,4.2c-1.1,0.1-12.1,1.3-20.1,2.2h-0.1
					c-3.6,0.4-6.5,0.7-7.6,0.8c-0.2,0-0.3,0-0.4,0c0.1,0.5,0.2,0.9,0.3,1.3c0,1.6-0.1,3.8-0.1,6.6c-0.3,25.5-0.4,96.4,1,124.6
					c-0.1,4.4-0.2,8.8-0.2,13.3l0,0c-0.1,0.5-0.1,1-0.2,1.4c-0.9,1.9-1.8,3.8-2.7,5.6c-20.1,40.6-51,67.3-81.6,72.4
					c-6.1,1.2-12.1,1.5-18.1,0.9c-2.4-0.2-29.8-4.5-38.2-20.6c-11.7-22.3,15.7-43.8,26.6-78.2l0,0c0-0.1,0.1-0.1,0.1-0.2
					c3.1-9.6,4.8-20.3,4-32.3c-0.9-13.8-4.9-24.8-8.8-34.2c-2.3-5.7-4.7-10.8-6.3-15.8c-2.7-8.4-3.4-16.1,1.2-24.7
					c5.7-10.5,16.6-17.3,24.8-38.8c2.7-7,4-12.9,4.8-16.7c0.1-0.5,0.2-0.9,0.3-1.3l0,0c3.5-17,6.3-30.8,0.3-41.8
					c-7.3-13.4-20.6-10-27.6-22.2c-6.2-10.9-2.2-25.3,3-36.8c-0.4,0.1-0.9,0.1-1.5,0.2c-0.3,0-0.6,0.1-1,0.1l0,0
					c-0.4,0.1-0.7,0.1-1.1,0.2c-0.6,0.1-1.3,0.2-2,0.3c-0.1,0-0.2,0-0.2,0c-0.4,0.1-0.7,0.1-1.1,0.2l0,0c-0.1,0-0.1,0-0.2,0
					c-0.9,0.1-1.8,0.3-2.8,0.4c-0.1,0-0.2,0-0.3,0c-0.6,0.1-1.2,0.2-1.8,0.2c-4.5,0.6-9.9,1.3-16,2c-0.6,0.1-1.3,0.1-1.9,0.2
					c-1,0.1-2,0.2-3,0.3c-0.9,0.1-1.9,0.2-2.9,0.3c-1.3,0.1-2.5,0.3-3.9,0.4c-0.9,0.1-1.8,0.2-2.8,0.3c-0.7,0.1-1.5,0.1-2.2,0.2
					c-1.5,0.1-3,0.3-4.5,0.4c-0.8,0.1-1.5,0.1-2.3,0.2c-1,0.1-2,0.2-3,0.2c-2,0.2-4.1,0.3-6.2,0.5c-1,0.1-2.1,0.1-3.1,0.2
					c-0.2,0-0.4,0-0.6,0c-0.9,0.1-1.7,0.1-2.6,0.2c-1,0.1-2,0.1-3,0.2H612c-1.1,0.1-2.1,0.1-3.2,0.2c-20.6,1-41.6,0.7-57.5-2.5
					c-20,57.8,4.5,134.1,46.8,150c4,1.5,7.8,2.4,11.5,2.8c0,7.1,0.1,14.1,0.1,21.1v9.7c-2.5-0.2-4.9-0.4-7.2-0.5
					c-16.5-0.9-30.6,0.2-42.7,2.5c-0.3,0-0.5,0.1-0.8,0.2c-8.8,1.8-22.6,5.4-37.8,13.5c-46.5,24.8-49.7,62.3-98.2,95.1
					c-16.4,11.1-43.9,29.8-58.3,20.4c-6.9-4.5-10.2-14.7-11.1-28.5c21.4-71.2,54-107.9,83.4-128.5c21-14.7,46-25.1,67.8-55.1
					c25.5-35.1,31.1-75.7,31-107.5c-5.3-2.6-9-6.1-10.5-10.4c-9.1-25.8,56.3-86.9,128.9-90.9c63-3.5,126.9,36.7,134.1,68.8
					c2.8,12.6,1.1,32.8,15.8,55.7c3.1,4.8,4.2,6.7,17.7,20.4c33,33.5,49.6,50.7,52.5,70.9C875,323.4,875.4,328.4,874.5,334.7z"/>
				<path id="nose" d="M588.1,301.6c-0.2,0-0.3,0-0.5-0.1l-22.8-12.3c-0.5-0.3-0.7-0.9-0.4-1.3l17.6-33.5c0.3-0.5,0.9-0.7,1.4-0.4
					s0.7,0.9,0.4,1.4L566.6,288l21.9,11.8c0.5,0.3,0.7,0.9,0.4,1.4C588.8,301.4,588.5,301.6,588.1,301.6z"/>
				<g id="eyes">
					<circle cx="562.7" cy="262.3" r="5.2"/>
					<circle cx="612.6" cy="254.8" r="5.2"/>
				</g>
				<g id="brows">
					<ellipse transform="matrix(0.8185 -0.5745 0.5745 0.8185 -33.5605 359.5101)" cx="552.2" cy="232.9" rx="17.5" ry="5.2"/>
					<ellipse transform="matrix(0.3661 -0.9306 0.9306 0.3661 179.0651 716.4203)" cx="615.4" cy="226.8" rx="5.2" ry="17.5"/>
				</g>
				<path id="mouth" d="M604.5,329.4c-3.3,0-6.6-0.8-9-1.9c-2.7-1.3-4.3-2.8-4.5-4.4c-0.2-1.9,1-2.7,6.8-6.6c1.5-1,3.3-2.2,5.4-3.6
					c3.5-2.4,6-4.2,8.1-5.6c5.7-4,6.9-4.9,8.6-3.9l0,0c1.4,0.8,2.3,3.1,2.4,6.3c0.1,5.8-2.3,13.4-8.2,17.2
					C611.1,328.6,607.8,329.4,604.5,329.4z M618.6,305c-0.7,0-2.6,1.3-6.2,3.9c-2.1,1.5-4.7,3.3-8.1,5.6c-2.2,1.5-4,2.7-5.4,3.6
					c-4.1,2.7-6,4-5.9,4.6c0.1,0.7,1.2,1.9,3.4,2.9c4.4,2.1,11.5,2.8,16.6-0.5c5.2-3.4,7.5-10.4,7.3-15.5c-0.1-2.7-0.8-4.2-1.4-4.6
					C618.8,305,618.7,305,618.6,305z"/>
				<path d="M614.4,364.7c-2.9,0-5.8-0.2-8.7-0.5c-0.5-0.1-0.9-0.6-0.9-1.1c0.1-0.5,0.6-0.9,1.1-0.9c7.7,0.9,15.3,0.6,22.7-1
					c15.7-3.3,27-11.3,33.8-17.4c0.4-0.4,1-0.3,1.4,0.1s0.3,1-0.1,1.4c-6.9,6.3-18.6,14.5-34.7,17.9
					C624.2,364.2,619.3,364.7,614.4,364.7z"/>
				<g id="ear">
					<path class="st3" d="M741.8,248.3c-1.3-1.4-2.7-2.7-4.2-3.9c-4.3-3.4-9.6-5.8-15.4-6.7c-18.4-3-35.7,9.5-38.7,28
						c-0.1,0.6-0.2,1.2-0.2,1.8l0,0c-1.9,17.7,10.4,33.9,28.1,36.8c0.1,0,0.1,0,0.1,0c0.7,0.1,1.3,0.2,2,0.3c0.3,0,0.6,0,0.9,0.1
						c0.4,0,0.7,0.1,1.1,0.1c0.6,0,1.3,0,1.9,0c3.9-0.1,7.6-0.8,11.2-2.1c1.4-0.5,2.7-1.1,4-1.8c2-1.1,4-2.3,5.7-3.8
						c6.1-5,10.5-12.2,11.9-20.7C751.8,265.8,748.5,255.6,741.8,248.3z"/>
					<path d="M702.9,289.3c-0.3,0-0.5-0.1-0.7-0.3c-0.4-0.4-0.3-1,0.1-1.4c2.6-2.4,3.8-6.1,3-9.5c-0.8-3.5-3.4-6.3-6.8-7.3
						c-0.3-0.1-0.6-0.4-0.7-0.7c-0.1-0.3,0-0.7,0.2-0.9l19.1-22.5c0.4-0.4,1-0.5,1.4-0.1s0.5,1,0.1,1.4l-18.2,21.4
						c3.4,1.5,6,4.6,6.8,8.3c0.9,4.2-0.4,8.6-3.6,11.4C703.4,289.2,703.1,289.3,702.9,289.3z"/>
				</g>
				<path id="earring" class="st2" d="M749.8,315.2c-0.2,0.7-0.7,1.3-1.5,1.5l-34.4,7.4c-0.1,0-0.1,0-0.1,0
					c-0.6,0.1-1.2-0.1-1.6-0.5c-0.5-0.4-0.7-1-0.6-1.7l1.9-17.4c0.3,0,0.6,0,0.9,0.1c0.4,0,0.7,0.1,1.1,0.1c0.6,0,1.3,0,1.9,0
					c0,0.1,0,0.1,0,0.2l-1.6,14.8l27.7-5.9l-14.8-11.1l-7.4-5.6c-0.9-0.6-1-1.9-0.4-2.7c0.6-0.9,1.9-1,2.7-0.4l9.2,6.9l16.5,12.4
					C749.7,313.7,750,314.5,749.8,315.2z"/>
			</g>
			<g id="hands">
				<g id="hand_l">
					<path class="st3" d="M370.3,373.4v0.2c0,0.1-0.1,0.3-0.1,0.4c-1-0.3-28.9-9.6-86.7-28.8c-0.5-0.4-0.9-0.7-1.3-1.1l0,0
						c-16.9-13.2-31-26.4-42.5-38.4c-4.7-4.3-5-11.6-0.7-16.2c2.7-3,6.7-4.2,10.4-3.6l-9.7-13.9c-3.6-5.2-2.4-12.4,2.8-16
						c3-2.1,6.7-2.6,10-1.5c-0.2-2,0.1-4,1-5.9c0.8-1.8,2.1-3.5,3.9-4.7c5.2-3.6,12.4-2.4,16,2.8c0.2-1.5,0.9-5.8,4.3-8.2
						c1.9-1.1,5-2.3,8.3-1.6c4.7,1,7.3,5.4,8.4,7.2c1.3,2.1,10.7,14.9,29.6,40.6c3.4,4.6,8.9,11.6,16.7,19.4
						c-0.1-0.1-0.2-0.4-0.3-0.6c-11.2-22.8-19.7-28.8-17.9-37.6c0.2-0.8,1.1-5,4.5-7.3c3-1.9,6.4-1.5,7.2-1.4
						c7,0.9,11.9,9.9,21.3,28c4.4,8.4,7.3,15.2,9.9,22.7c0.9,2.6,1.7,5.4,2.5,8.4C373.9,339.4,372.5,359.9,370.3,373.4z"/>
					<path d="M276.2,317.1c-0.3,0-0.6-0.1-0.8-0.3l-27.1-30.9c-0.4-0.4-0.3-1,0.1-1.4c0.4-0.4,1-0.3,1.4,0.1l27.1,30.9
						c0.4,0.4,0.3,1-0.1,1.4C276.7,317,276.4,317.1,276.2,317.1z"/>
					<path d="M292.7,301.7c-0.3,0-0.6-0.1-0.8-0.3l-40.3-46.2c-0.4-0.4-0.3-1,0.1-1.4c0.4-0.4,1-0.3,1.4,0.1l40.3,46.2
						c0.4,0.4,0.3,1-0.1,1.4C293.2,301.6,293,301.7,292.7,301.7z"/>
					<path d="M327.9,342.8c-0.5,0-0.9-0.4-1-0.8c-3.1-19.7,13.2-27.9,13.4-28c0.5-0.2,1.1,0,1.3,0.5c0.2,0.5,0,1.1-0.5,1.3
						c-0.6,0.3-15.1,7.7-12.3,25.9c0.1,0.5-0.3,1.1-0.8,1.1H327.9z"/>
					<path d="M305.6,292.1c-0.3,0-0.6-0.1-0.8-0.4L273.5,249c-0.3-0.4-0.2-1.1,0.2-1.4c0.4-0.3,1.1-0.2,1.4,0.2l31.3,42.7
						c0.3,0.4,0.2,1.1-0.2,1.4C306,292,305.8,292.1,305.6,292.1z"/>
				</g>
				<g id="hand_r">
					<path class="st3" d="M921.6,216.6c-0.9-0.3-1.9-0.5-2.9-0.6c1.1-5.9-2.3-11.9-8.2-13.9l0,0c-5.7-1.9-11.9,0.6-14.8,5.7
						c-1.5-2.4-3.7-4.4-6.6-5.3c-6.5-2.2-13.5,1.3-15.7,7.7l-3.4,9.9c-0.1-5.1-3.3-9.8-8.4-11.5l0,0c-6.5-2.2-13.5,1.3-15.7,7.7
						c-3.8,11.5-7.5,23-11.3,34.6c-2.1-4.4-6.9-7.2-11.9-6.4l0,0c-6.2,0.9-10.4,6.7-9.5,12.9l2.1,13.8c-0.4,0.3-0.8,0.7-1.1,1
						c-5.7,5.1-8.7,7.7-11,12c-3.5,6.5-3.7,12.6-3.8,17.2c-0.3,15.6-0.1,29.6,0.2,41.3c27.3-1.5,54.5-3,81.8-4.5
						c3.1-13.3,6.2-26.6,9.3-39.8l20.9-21.8c2.2-1.5,3.9-3.6,4.8-6.3l6.6-19.4l6.3-18.5C931.6,225.9,928.1,218.8,921.6,216.6z"/>
					<path d="M808.1,278.7c-0.3,0-0.5-0.1-0.7-0.3c-0.4-0.4-0.3-1,0.1-1.4l24.9-22.2l2.5-7.6c0.2-0.5,0.7-0.8,1.3-0.6
						c0.5,0.2,0.8,0.7,0.6,1.3l-2.6,7.9c-0.1,0.2-0.2,0.3-0.3,0.4l-25.1,22.3C808.6,278.6,808.4,278.7,808.1,278.7z"/>
					<path d="M839.6,281.4c-0.2,0-0.5-0.1-0.7-0.3c-0.4-0.4-0.4-1-0.1-1.4l17.6-19.5l12.7-40.4c0.2-0.5,0.7-0.8,1.3-0.7
						c0.5,0.2,0.8,0.7,0.7,1.3l-12.7,40.7c0,0.1-0.1,0.3-0.2,0.4l-17.8,19.7C840.1,281.3,839.8,281.4,839.6,281.4z"/>
					<path d="M868.6,281c-0.2,0-0.4-0.1-0.6-0.2c-0.4-0.3-0.5-1-0.2-1.4l12.6-16.2l15.4-57.1c0.1-0.5,0.7-0.8,1.2-0.7
						s0.8,0.7,0.7,1.2l-15.4,57.3c0,0.1-0.1,0.2-0.2,0.4l-12.8,16.4C869.2,280.9,868.9,281,868.6,281z"/>
					<path d="M886.6,286.7c-0.2,0-0.5-0.1-0.7-0.3c-0.4-0.4-0.4-1,0-1.4l17.9-18.8l14.1-50.4c0.1-0.5,0.7-0.8,1.2-0.7
						s0.8,0.7,0.7,1.2L905.6,267c0,0.2-0.1,0.3-0.2,0.4l-18,19C887.1,286.6,886.8,286.7,886.6,286.7z"/>
				</g>
			</g>
			<g id="tshirt_1_">
				<path id="tshirt" class="st4" d="M884,345.2c-0.9-3.1-1.7-5.7-2.2-7.5c-24.7,1.4-49.4,2.7-74.1,4.1h-0.1
					c-2.5,0.1-5.1,0.3-7.6,0.4c0,0.1,0,0.2,0,0.4c0,0.4,0,0.8,0,1.4c0,1.6-0.1,3.8-0.1,6.6c-0.3,25.5-0.4,96.4,1,124.6
					c-0.1,4.4-0.2,8.8-0.2,13.3l0,0c0,0.4,0,0.7,0,1.1c-0.1,0.1-0.1,0.2-0.1,0.3c-0.9,1.9-1.8,3.8-2.7,5.6
					c-20.1,40.6-51,67.3-81.6,72.4c-6.1,1.2-12.1,1.5-18.1,0.9c-2.4-0.2-29.8-4.5-38.2-20.6c-11.7-22.3,15.7-43.8,26.6-78.2l0,0
					c0-0.1,0.1-0.1,0.1-0.2c-4.4,3.3-9,6.5-13.7,9.6c-16.5,10.9-51.5,31.8-78.6,19c-7.8-3.6-13.7-9.6-18.3-16.2
					c-1.7-2.4-3.1-4.8-4.4-7.3c0,0,0,0,0-0.1c-5.3-10.1-8-20.6-9.3-26.8c-0.1-0.4-0.4-2.1-0.8-4.5c-0.5-3-2.2-13.6-2-28.8
					c0-0.9,0-1.6,0.1-3c0.2-6.8,0.4-12.4,0.6-16.2c-0.3,0-0.5,0.1-0.8,0.2c-8.8,1.8-22.6,5.4-37.8,13.5
					c-46.5,24.8-49.7,62.3-98.2,95.1c-16.4,11.1-43.9,29.8-58.3,20.4c-6.9-4.5-10.2-14.7-11.1-28.5c-1.8-28.6,6.7-72.8,14.7-113.8
					c0.7-3.4,1.2-6.3,1.7-8.6c0-0.1,0.1-0.3,0.1-0.4s0-0.1,0-0.2l0,0c-23.7-7.8-47.3-15.6-70.9-23.5c-5.8-1.9-11.5-3.9-17.2-5.8l0,0
					c-14,34.4-61.9,162.1-10.7,259.6c17.7,33.6,37.6,45.5,44.5,49.2c60.3,32.2,135.7-17,143-22c80.9-6.7,161.8-13.5,242.7-20.2
					c15,11.9,57.3,42.1,113.8,39.7c17.9-0.8,51.4-2.2,76.5-27.3c10.5-10.5,16.3-21.9,19.5-29.9C936.8,529.8,906.8,425.2,884,345.2z"
					/>
				<path class="st5" d="M612.4,503.9c-8.8,0-16.7-2.1-23.5-6.4c-9.2-5.7-21.4-18.5-27.4-47.2c-3.6-17.1-3.3-32-3.3-32.1
					c0-0.6,0.5-1,1-1c0.6,0,1,0.5,1,1c0,0.6-1,58.6,29.7,77.6c16,9.9,38,7.6,65.3-6.8c0.5-0.3,1.1-0.1,1.4,0.4
					c0.3,0.5,0.1,1.1-0.4,1.4C639.7,499.5,625.1,503.9,612.4,503.9z"/>
				<path class="st5" d="M803.2,569.7c-0.5,0-1-0.4-1-1l-3.4-79.1c0-0.6,0.4-1,1-1s1,0.4,1,1l3.4,79.1
					C804.3,569.2,803.8,569.6,803.2,569.7C803.3,569.7,803.2,569.7,803.2,569.7z"/>
			</g>
			<path id="beads" class="st5" d="M681.7,403.4c-1.5,2-3.8,3.5-6.5,3.9c-1.8,0.3-3.6,0-5.1-0.6c-1.3,3.2-4.1,5.6-7.8,6.2
				c-3.9,0.6-7.7-1.2-9.7-4.3c-1.1,3.6-4.1,6.4-8,7c-4.5,0.7-8.7-1.8-10.5-5.7c-1.5,2.4-4,4.2-7,4.7c-5.4,0.8-10.5-2.9-11.3-8.3
				c-0.1-1-0.1-2,0-3c-0.6,0.2-1.2,0.3-1.8,0.4c-5.4,0.8-10.5-2.9-11.3-8.3c-0.1-0.6-0.1-1.3-0.1-1.9c0.2-4.2,3.1-8,7.2-9.1
				c0.4-0.1,0.8-0.2,1.2-0.3c5.4-0.8,10.5,2.9,11.3,8.4c0.1,1,0.1,2,0,3c0.6-0.2,1.2-0.4,1.8-0.5c4.5-0.7,8.7,1.8,10.5,5.7
				c1.5-2.4,4-4.2,7-4.7c3.9-0.6,7.6,1.2,9.7,4.3c1.1-3.6,4.1-6.4,8-7c1.8-0.3,3.6,0,5.1,0.6c1.3-3.2,4.1-5.6,7.8-6.2
				c1.1-0.2,2.1-0.1,3.1,0C677.1,392.6,679.4,397.7,681.7,403.4z"/>
		</g>
		<g id="man">
			<g id="hands_1_">
				<g id="hand_l_1_">
					<path class="st6" d="M160.3,831l-3.1,33.1c-0.3,2.7-2.6,4.8-5.3,4.8c-0.1,0-0.3,0-0.4,0c-2.9-0.3-5-2.8-4.8-5.7l1.2-13.3
						c-0.1,0-0.1-0.1-0.1-0.3c-2,1.6-16.4,39.1-16.4,39.1c-0.8,2.8-3.8,4.3-6.6,3.4c-2.1-0.7-3.5-2.6-3.7-4.7l-0.3,0.8
						c-0.8,2.8-3.8,4.3-6.6,3.4c-2.8-0.9-4.4-4-3.5-6.8l0.5-1.7c-1.3,1.3-3.3,1.7-5.2,1.1c-1.1-0.4-2-1-2.6-1.9
						c-1-1.4-1.4-3.2-0.9-5l1.2-4c-0.2,0.1-0.4,0.3-0.8,0.4c-2.1,0.7-4.2-0.7-4.5-0.9l0,0c-2.1-1.5-1.8-6.7-1.7-8
						c0.5-4.3,6.3-20.9,15.4-43.4l0,0C128.1,824.5,144.2,827.8,160.3,831z"/>
					<path class="st7" d="M121.1,887.8L121.1,887.8c-0.3-0.1-0.5-0.3-0.4-0.6l10.3-30.8c0.1-0.2,0.3-0.4,0.6-0.3
						c0.2,0.1,0.4,0.3,0.3,0.6l-10.3,30.8C121.4,887.7,121.3,887.8,121.1,887.8z"/>
					<path class="st7" d="M111.2,883.5c-0.1,0-0.1,0-0.2,0c-0.2-0.1-0.3-0.4-0.3-0.6l11.4-29.5c0.1-0.2,0.4-0.3,0.6-0.3
						c0.2,0.1,0.3,0.4,0.3,0.6l-11.4,29.5C111.5,883.4,111.4,883.5,111.2,883.5z"/>
					<path class="st7" d="M103.7,873.7c-0.1,0-0.1,0-0.2,0c-0.2-0.1-0.3-0.4-0.2-0.6l10.6-25.2c0.1-0.2,0.4-0.3,0.6-0.2
						s0.3,0.4,0.2,0.6l-10.6,25.2C104.1,873.6,103.9,873.7,103.7,873.7z"/>
				</g>
				<g id="hand_r_1_">
					<path class="st6" d="M507.1,505.8l-16.2,23.8c-0.2,0.2-5.5,6.5-10.3,12.2c-16.5,0.9-33,1.8-49.5,2.7
						c0.1-0.7,11.4-29.2,14.6-34.6c1.2-1.7,3.1-2.7,5.1-2.6c1.1,0,2.2,0.4,3.2,1c2.2,1.5,3.1,4.2,2.4,6.6c2.2-3.9,7.1-12.7,8.9-17
						c1.2-3.1,4.7-4.6,7.7-3.4c1.9,0.7,3.2,2.3,3.6,4.1l3-6.3c1.4-3,5-4.2,8-2.8c1.7,0.8,2.8,2.4,3.2,4.1l0.7-1.3
						c1.5-2.9,5.1-4.1,8.1-2.6c2.5,1.3,3.7,4.1,3,6.8c1,0.1,1.9,0.4,2.8,1C508.2,499.4,508.9,503.1,507.1,505.8z"/>
					<path d="M466.2,521.1c-0.1,0-0.1,0-0.2,0c-0.2-0.1-0.3-0.4-0.2-0.6l10.6-22.9c0.1-0.2,0.4-0.3,0.6-0.2c0.2,0.1,0.3,0.4,0.2,0.6
						l-10.6,22.9C466.6,521,466.4,521.1,466.2,521.1z"/>
					<path d="M479.3,517.3c-0.1,0-0.1,0-0.2,0c-0.2-0.1-0.3-0.4-0.2-0.6l11.6-23.4c0.1-0.2,0.4-0.3,0.6-0.2c0.2,0.1,0.3,0.4,0.2,0.6
						l-11.6,23.4C479.6,517.2,479.4,517.3,479.3,517.3z"/>
					<path d="M488.6,520.6c-0.1,0-0.2,0-0.2-0.1c-0.2-0.1-0.3-0.4-0.2-0.6l14.1-23.5c0.1-0.2,0.4-0.3,0.6-0.2
						c0.2,0.1,0.3,0.4,0.2,0.6L489,520.4C488.9,520.5,488.7,520.6,488.6,520.6z"/>
					<path d="M443.9,528.4c-0.1,0-0.2,0-0.3-0.1c-0.2-0.2-0.2-0.5,0-0.6l12.5-12.9c0.2-0.2,0.5-0.2,0.6,0c0.2,0.2,0.2,0.5,0,0.6
						l-12.5,12.9C444.1,528.3,444,528.4,443.9,528.4z"/>
				</g>
			</g>
			<g id="head">
				<path id="face_1_" class="st6" d="M324.4,496.2c-3-4.2-14.6-18.3-16.8-20.8c0.2-3.6,0-11.1-4.4-18.9c-1-1.7-2-3.3-3-4.6
					c-18.2,3.8-30.9,15.8-31.8,28.7c-0.2,2.7,0,8.1,4,14.6c-5.5,1.1-14.4,4-17.7,11.2c-0.3,0.6-0.5,1.2-0.6,1.8
					c-5.1-1.1-10.1-2.1-15.2-3.2c3.1,16.2,6.1,32.5,9.2,48.7c18.7,10.5,37.4,21,56.1,31.5c-3.2-15.2-6.3-30.3-9.5-45.5
					c2.6-0.8,5-1.9,7.1-3.4c11.7-8.4,12.3-26.4,12.2-33.2C315.5,502.4,322.8,497.6,324.4,496.2z"/>
				<ellipse id="brow" transform="matrix(0.728 -0.6855 0.6855 0.728 -242.1273 325.4741)" cx="289.1" cy="467.9" rx="9" ry="2.7"/>
				<circle id="eye" cx="298.2" cy="475.8" r="2.5"/>
				<path id="hair_1_" d="M297.8,432.3c-6.9-8.2-21.3-5-30.6-3c-3.8,0.8-28.1,6.1-40.7,23.6c-16.7,23.2-10.8,64.6,20.3,94.6
					c2.5-2.3,5-4.7,7.5-7c-0.1-4-0.2-7.6-0.2-11c-0.1-3.7-0.2-6.9-0.3-9.7c-0.2-8-0.4-10.5,1-13.4c3.3-7.3,12.2-10.1,17.7-11.2
					c-4-6.6-4.2-12-4-14.6c0.8-12.9,13.5-24.9,31.8-28.7l0,0C301,448.7,303.2,438.7,297.8,432.3z"/>
				<g id="ear_1_">
					<path class="st6" d="M238.3,495.5c0.5-0.7,1.1-1.4,1.7-2c1.8-1.8,4.1-3.2,6.7-4c8.3-2.4,17,2.4,19.4,10.8
						c0.1,0.3,0.1,0.6,0.2,0.8l0,0c1.8,8.1-2.9,16.2-11,18.6l0,0c-0.4,0.1-0.9,0.2-1.3,0.3c-0.2,0-0.3,0.1-0.5,0.1
						c-3.9,0.6-7.8-0.2-11-2.3c-3.1-2-5.5-5.1-6.6-8.9C234.6,504.2,235.6,499.3,238.3,495.5z"/>
					<path d="M259.3,509.5c-0.1,0-0.1,0-0.2,0c-1.8-0.8-3.1-2.5-3.4-4.4c-0.2-1.7,0.4-3.5,1.7-4.7l-11.4-6.5
						c-0.2-0.1-0.3-0.4-0.2-0.6s0.4-0.3,0.6-0.2l12,6.8c0.1,0.1,0.2,0.2,0.2,0.4c0,0.2-0.1,0.3-0.2,0.4c-1.3,1-2,2.6-1.8,4.3
						c0.2,1.6,1.3,3.1,2.8,3.7c0.2,0.1,0.3,0.4,0.2,0.6C259.6,509.4,259.4,509.5,259.3,509.5z"/>
				</g>
				<path id="mouth_1_" d="M306.8,515.6L306.8,515.6c-0.1,0-10-0.3-13.5-9.8c-0.1-0.2,0-0.5,0.3-0.6c0.2-0.1,0.5,0,0.6,0.3
					c3.3,8.9,12.6,9.2,12.7,9.2c0.3,0,0.4,0.2,0.4,0.5C307.3,515.4,307.1,515.6,306.8,515.6z"/>
				<path d="M271.5,540.6c-0.1,0-0.2,0-0.2-0.1c-3.1-1.7-5.9-3.8-8.5-6.2c-4-3.9-7.2-8.5-9.4-13.7c-0.1-0.2,0-0.5,0.2-0.6
					s0.5,0,0.6,0.2c2.1,5.1,5.2,9.6,9.2,13.4c2.5,2.4,5.2,4.4,8.3,6c0.2,0.1,0.3,0.4,0.2,0.6C271.8,540.5,271.6,540.6,271.5,540.6z"
					/>
			</g>
			<g id="legs">
				<g id="pants">
					<path class="st3" d="M407.3,1120.8c-3.6,1.2-7.2,2.4-10.8,3.6c-17.4-106.6-34.8-213.2-52.1-319.8c-52.5-2-105-4-157.6-6.1
						c-4.9,48.9-9.8,97.8-14.6,146.7c-35.8,30.6-71.6,61.1-107.3,91.7c-0.5-0.9-1-1.7-1.5-2.6c-5.5,3.1-11,6.2-16.5,9.2
						c0.9,1.7,1.8,3.4,2.6,5c10.2,19.6,20.4,39.1,30.6,58.7c3.6,7,7.3,13.9,10.9,20.9c7.1-2.8,14.3-5.6,21.4-8.4
						c-1.6-2.9-3.3-5.8-4.9-8.6c43-37.3,75.3-63.4,101.2-82.2c8.4-6.1,24.1-17.2,35.8-37.7c3.8-6.6,9.7-18.6,15.8-55.1
						c8-47.3,5.5-71.7,7.2-71.9c3.5-0.5,16.2,64.9,49.3,287.1c-1.2,0.4-2.4,0.8-3.6,1.2l3.2,21.2c7.6-2.4,15.2-4.8,22.8-7.2
						c20.4-6.5,40.8-13,61.2-19.4c3.1-1,6.2-2,9.3-2.9C408.8,1136.3,408,1128.6,407.3,1120.8z"/>
					<path class="st5" d="M107.4,1111.5c-0.2,0-0.3-0.1-0.4-0.2l-42.6-74.2c-0.1-0.2,0-0.5,0.2-0.6s0.5,0,0.6,0.2l42.6,74.2
						c0.1,0.2,0,0.5-0.2,0.6C107.5,1111.5,107.5,1111.5,107.4,1111.5z"/>
					<path class="st5" d="M316.7,1151.8c-0.2,0-0.4-0.1-0.4-0.3c-0.1-0.2,0-0.5,0.3-0.6l79.8-26.9c0.2-0.1,0.5,0,0.6,0.3
						c0.1,0.2,0,0.5-0.3,0.6l-79.8,26.9C316.8,1151.8,316.8,1151.8,316.7,1151.8z"/>
					<path class="st5" d="M343.6,1123.9c-0.2,0-0.4-0.1-0.4-0.3L267,864.4c-0.1-0.2,0.1-0.5,0.3-0.6c0.2-0.1,0.5,0.1,0.6,0.3
						l76.2,259.2c0.1,0.2-0.1,0.5-0.3,0.6C343.7,1123.9,343.7,1123.9,343.6,1123.9z"/>
					<path class="st5" d="M92.7,1059.6c-0.1,0-0.3-0.1-0.3-0.2c-0.2-0.2-0.1-0.5,0-0.6l109-95.7l3.2-164.4c0-0.2,0.2-0.4,0.5-0.4
						s0.4,0.2,0.4,0.5l-3.3,164.6c0,0.1-0.1,0.2-0.2,0.3l-109,95.7C92.9,1059.5,92.8,1059.6,92.7,1059.6z"/>
				</g>
				<g id="shoes">
					<path class="st5" d="M72.1,1206.5c-14.9-26.3-29.8-53.2-44.7-80.6c-0.6-1.1-1.8-3.3-3.4-6.3c-0.3-8-0.6-16-1-24.1
						c-2.4,0.1-4.9,0.2-7.4,0.3c-1.4,0-2.8,0.1-4.2,0.1C6,1086,1.1,1076.8,0,1074.6c6.3-3.1,35.4-18.4,49.4-26.1
						c10.2,19.6,20.4,39.1,30.6,58.7c-4.8,14.9-3.9,26-1.8,33.9c3.8,13.9,11.5,19.3,12.2,31.6C90.8,1180.7,87.9,1192,72.1,1206.5z"
						/>
					<path class="st5" d="M492.9,1184.9c-29.7,5.8-59.9,11.5-90.5,16.9c-2,0.4-7.7,1.3-14.7,2.6c-5.3-2.9-10.6-5.8-16-8.6
						c-1.2,2-6.3,10.4-7.7,12.7c-9.2,1.6-16.9,2.9-18.9,3.2c-2-15.1-4-30.1-6-45.2c20.4-6.5,40.8-13,61.2-19.4
						c7.5,4.9,18.6,10.5,32.6,11.4c15.5,1,22.7-4.6,33.8-1.6C474.3,1159,484.2,1165.4,492.9,1184.9z"/>
					<path class="st0" d="M78.2,1114.1c-0.1,0-0.2,0-0.3-0.1l-12.7-10.8c-0.2-0.2-0.2-0.4-0.1-0.6c0.2-0.2,0.4-0.2,0.6-0.1
						l12.7,10.8c0.2,0.2,0.2,0.4,0.1,0.6C78.5,1114.1,78.4,1114.1,78.2,1114.1z"/>
					<path class="st0" d="M77.3,1118.7L77.3,1118.7l-17.4-5c-0.2-0.1-0.4-0.3-0.3-0.6c0.1-0.2,0.3-0.4,0.6-0.3l17.3,5
						c0.2,0.1,0.4,0.3,0.3,0.6C77.7,1118.6,77.5,1118.7,77.3,1118.7z"/>
					<path class="st0" d="M395.7,1163.4c-0.1,0-0.2,0-0.3-0.1c-0.2-0.2-0.2-0.4-0.1-0.6l10-12.6c0.2-0.2,0.4-0.2,0.6-0.1
						c0.2,0.2,0.2,0.4,0.1,0.6l-10,12.6C396,1163.3,395.9,1163.4,395.7,1163.4z"/>
					<path class="st0" d="M409.1,1167.1C409.1,1167.1,409,1167.1,409.1,1167.1c-0.3-0.1-0.5-0.3-0.5-0.5l2.4-13.4
						c0-0.2,0.3-0.4,0.5-0.4s0.4,0.3,0.4,0.5l-2.4,13.4C409.5,1166.9,409.3,1167.1,409.1,1167.1z"/>
					<path class="st0" d="M82.1,1196.1c-0.2,0-0.3-0.1-0.4-0.2l-69.6-127.4c-0.1-0.2,0-0.5,0.2-0.6s0.5,0,0.6,0.2l69.6,127.4
						c0.1,0.2,0,0.5-0.2,0.6C82.3,1196.1,82.2,1196.1,82.1,1196.1z"/>
					<path class="st0" d="M343,1197c-0.2,0-0.4-0.2-0.5-0.4c0-0.2,0.1-0.5,0.4-0.5c19.5-3.4,67.6-11.6,143-24.2
						c0.3,0,0.5,0.1,0.5,0.4c0,0.2-0.1,0.5-0.4,0.5C410.6,1185.4,362.5,1193.6,343,1197C343.1,1197,343,1197,343,1197z"/>
				</g>
			</g>
			<g id="pattern_tshirt">
				<path class="st0" d="M238,551.2c-1.1,0.4-2.1,0.8-3.2,1.2c-2,8.2-9.4,14.4-18.3,14.5c-2.9,0-5.7-0.6-8.2-1.7
					c-1,0.6-1.9,1.2-2.9,1.8c3.3,1.9,7.1,2.9,11.1,2.8C227.5,569.7,236.4,561.6,238,551.2z"/>
				<path class="st0" d="M471,566.3c5.7-0.1,10.9-2.3,14.8-6c-0.3-1-0.6-2.1-0.9-3.2c-3.4,3.8-8.4,6.2-13.9,6.3
					c-10.5,0.1-19.2-8.3-19.4-18.8c0-0.4,0-0.8,0-1.1c-1,0.1-1.9,0.1-2.9,0.2c0,0.3,0,0.7,0,1C448.9,556.8,458.9,566.5,471,566.3z"
					/>
				<path class="st0" d="M197.3,599.9c-0.1-7.9-4.4-14.9-10.8-18.6c-0.8,0.7-1.5,1.4-2.2,2c6,3.2,10.1,9.4,10.2,16.6
					c0.1,10.5-8.3,19.2-18.8,19.4c-5.7,0.1-10.9-2.4-14.5-6.4c-0.5,0.9-0.9,1.8-1.4,2.7c4,4.1,9.7,6.6,15.9,6.5
					C187.7,622,197.4,612,197.3,599.9z"/>
				<path class="st0" d="M260.4,621c12.1-0.2,21.8-10.2,21.7-22.3c-0.2-12.1-10.2-21.8-22.3-21.7c-12.1,0.2-21.9,10.2-21.7,22.3
					S248.3,621.1,260.4,621z M259.8,579.9c10.5-0.1,19.2,8.3,19.4,18.8c0.1,10.5-8.3,19.2-18.8,19.4c-10.5,0.1-19.2-8.3-19.4-18.8
					C240.8,588.7,249.3,580,259.8,579.9z"/>
				<path class="st0" d="M345.2,619.8c12.1-0.2,21.9-10.2,21.7-22.3c-0.2-12.1-10.2-21.8-22.3-21.7c-12.1,0.2-21.8,10.2-21.7,22.3
					C323,610.2,333.1,620,345.2,619.8z M344.6,578.7c10.5-0.1,19.2,8.3,19.4,18.8c0.1,10.5-8.3,19.2-18.8,19.4
					c-10.5,0.1-19.2-8.3-19.4-18.8C325.6,587.5,334.1,578.9,344.6,578.7z"/>
				<path class="st0" d="M448.7,596.4c0.1,5.9-2.5,11.2-6.7,14.8c0.2,1.2,0.3,2.3,0.4,3.3c5.6-4.1,9.2-10.7,9.1-18.1
					c-0.1-10-6.9-18.3-16-20.9c0.2,1.1,0.4,2.2,0.6,3.2C443.4,581.3,448.6,588.2,448.7,596.4z"/>
				<path class="st0" d="M496.7,602.6c-0.7-1.8-1.2-3.8-1.3-5.9l0,0c-0.6-2.5-1.2-5.1-1.9-7.9c-0.7,2.2-1.1,4.5-1,7
					c0.1,5.7,2.3,10.9,5.9,14.7C497.9,608,497.3,605.4,496.7,602.6z"/>
				<path class="st0" d="M155.5,648.1c-0.1-4.5-1.5-8.6-3.8-12.1c-0.4,1.2-0.8,2.4-1.2,3.7c1.3,2.5,2.1,5.4,2.1,8.4
					c0.1,6.8-3.4,12.9-8.8,16.4c-0.3,1.2-0.6,2.5-0.9,3.8C150.5,664.7,155.7,657,155.5,648.1z"/>
				<path class="st0" d="M218.6,669.2c12.1-0.2,21.8-10.2,21.7-22.3s-10.2-21.8-22.3-21.7c-12.1,0.2-21.9,10.2-21.7,22.3
					C196.5,659.7,206.5,669.4,218.6,669.2z M218.1,628.2c10.5-0.1,19.2,8.3,19.4,18.8c0.1,10.5-8.3,19.2-18.8,19.4
					c-10.5,0.1-19.2-8.3-19.4-18.8C199.1,637,207.5,628.3,218.1,628.2z"/>
				<path class="st0" d="M303.4,668.1c12.1-0.2,21.9-10.2,21.7-22.3c-0.2-12.1-10.2-21.8-22.3-21.7c-12.1,0.2-21.8,10.2-21.7,22.3
					C281.3,658.5,291.3,668.2,303.4,668.1z M302.9,627c10.5-0.1,19.2,8.3,19.4,18.8c0.1,10.5-8.3,19.2-18.8,19.4
					c-10.5,0.1-19.2-8.3-19.4-18.8C283.9,635.8,292.3,627.1,302.9,627z"/>
				<path class="st0" d="M387.6,622.9c-12.1,0.2-21.9,10.2-21.7,22.3c0.2,12.1,10.2,21.9,22.3,21.7c12.1-0.2,21.8-10.2,21.7-22.3
					C409.7,632.5,399.7,622.8,387.6,622.9z M388.2,664c-10.5,0.1-19.2-8.3-19.4-18.8c-0.1-10.5,8.3-19.2,18.8-19.4
					c10.5-0.1,19.2,8.3,19.4,18.8C407.2,655.2,398.7,663.9,388.2,664z"/>
				<path class="st0" d="M472.4,621.8c-12.1,0.2-21.8,10.2-21.7,22.3c0.2,12.1,10.2,21.9,22.3,21.7c12.1-0.2,21.8-10.2,21.7-22.3
					C494.5,631.3,484.5,621.6,472.4,621.8z M473,662.9c-10.5,0.1-19.2-8.3-19.4-18.8c-0.1-10.5,8.3-19.2,18.8-19.4
					c10.5-0.1,19.2,8.3,19.4,18.8C491.9,654,483.5,662.7,473,662.9z"/>
				<path class="st0" d="M176.7,677.6c-12.1,0.2-21.8,10.2-21.7,22.3c0.2,12.1,10.2,21.8,22.3,21.7c12.1-0.2,21.9-10.2,21.7-22.3
					S188.8,677.4,176.7,677.6z M177.2,718.7c-10.5,0.1-19.2-8.3-19.4-18.8c-0.1-10.5,8.3-19.2,18.8-19.4
					c10.5-0.1,19.2,8.3,19.4,18.8C196.2,709.9,187.8,718.5,177.2,718.7z"/>
				<path class="st0" d="M261.5,676.4c-12.1,0.2-21.9,10.2-21.7,22.3s10.2,21.8,22.3,21.7c12.1-0.2,21.8-10.2,21.7-22.3
					C283.6,686,273.6,676.3,261.5,676.4z M262,717.5c-10.5,0.1-19.2-8.3-19.4-18.8c-0.1-10.5,8.3-19.2,18.8-19.4
					c10.5-0.1,19.2,8.3,19.4,18.8C281,708.7,272.6,717.4,262,717.5z"/>
				<path class="st0" d="M324.6,697.6c0.2,12.1,10.2,21.8,22.3,21.7c5.6-0.1,10.6-2.2,14.5-5.7c0-1.4,0-2.8,0.1-4.3
					c-3.5,4.3-8.7,7-14.6,7.1c-10.5,0.1-19.2-8.3-19.4-18.8c-0.1-10.5,8.3-19.2,18.8-19.4c6.3-0.1,12,2.9,15.5,7.6
					c0-1.4,0-2.8,0.1-4.3c-4-3.9-9.6-6.3-15.6-6.2C334.1,675.4,324.4,685.4,324.6,697.6z"/>
				<path class="st0" d="M431,674.1c-10.3,0.1-18.9,7.4-21.1,17.1c0.9,0.4,1.8,0.8,2.7,1.2c1.7-8.7,9.3-15.3,18.5-15.4
					c10.5-0.1,19.2,8.3,19.4,18.8c0,1-0.1,2.1-0.2,3c0.9-0.1,1.9-0.2,3-0.4c0.1-0.9,0.1-1.8,0.1-2.7
					C453.2,683.7,443.2,673.9,431,674.1z"/>
				<path class="st0" d="M134.9,725.9c-1.6,0-3.2,0.2-4.7,0.6c-0.2,1-0.4,2.1-0.6,3.2c1.7-0.5,3.5-0.8,5.4-0.9
					c10.5-0.1,19.2,8.3,19.4,18.8c0.1,10.5-8.3,19.2-18.8,19.4c-4.8,0.1-9.1-1.6-12.5-4.5c-0.1,0.4-0.2,0.8-0.2,1.2
					c-0.1,0.7-0.3,1.3-0.4,2c3.7,2.7,8.3,4.2,13.2,4.2c12.1-0.2,21.8-10.2,21.7-22.3C157.1,735.4,147.1,725.7,134.9,725.9z"/>
				<path class="st0" d="M219.7,724.7c-12.1,0.2-21.9,10.2-21.7,22.3s10.2,21.9,22.3,21.7s21.8-10.2,21.7-22.3
					S231.9,724.5,219.7,724.7z M220.3,765.8c-10.5,0.1-19.2-8.3-19.4-18.8c-0.1-10.5,8.3-19.2,18.8-19.4
					c10.5-0.1,19.2,8.3,19.4,18.8C239.3,757,230.8,765.7,220.3,765.8z"/>
				<path class="st0" d="M304.5,723.5c-12.1,0.2-21.8,10.2-21.7,22.3c0.2,12.1,10.2,21.9,22.3,21.7c12.1-0.2,21.9-10.2,21.7-22.3
					C326.6,733.1,316.6,723.4,304.5,723.5z M305.1,764.6c-10.5,0.1-19.2-8.3-19.4-18.8c-0.1-10.5,8.3-19.2,18.8-19.4
					c10.5-0.1,19.2,8.3,19.4,18.8C324.1,755.8,315.6,764.5,305.1,764.6z"/>
				<path class="st0" d="M178.7,777c-12.1,0.2-21.9,10.2-21.7,22.3c0.1,6.8,3.3,12.9,8.3,16.9c0.4-0.9,0.7-1.9,1.1-2.8
					c-3.9-3.4-6.4-8.5-6.5-14.1c-0.1-10.5,8.3-19.2,18.8-19.4c10.5-0.1,19.2,8.3,19.4,18.8c0,0.1,0,0.1,0,0.2l2.9,0.1
					c0-0.1,0-0.2,0-0.4C200.8,786.6,190.8,776.9,178.7,777z"/>
				<path class="st0" d="M263.5,775.9c-12.1,0.2-21.8,10.2-21.7,22.3c0,0.8,0.1,1.7,0.2,2.5c1,0,2,0.1,2.9,0.1
					c-0.1-0.9-0.2-1.7-0.2-2.6c-0.1-10.5,8.3-19.2,18.8-19.4c10.5-0.1,19.2,8.3,19.4,18.8c0,1.6-0.1,3.1-0.5,4.6
					c1,0,1.9,0.1,2.9,0.1c0.3-1.5,0.5-3.1,0.5-4.8C285.6,785.4,275.6,775.7,263.5,775.9z"/>
				<path class="st0" d="M326.6,797c0,2.4,0.5,4.8,1.2,7c1,0,2.1,0.1,3.1,0.1c-0.9-2.2-1.5-4.6-1.5-7.1
					c-0.1-10.5,8.3-19.2,18.8-19.4c4.5-0.1,8.6,1.4,11.9,3.9c0-1.2,0-2.3,0.1-3.5c-3.5-2.2-7.6-3.4-11.9-3.3
					C336.2,774.9,326.4,784.9,326.6,797z"/>
			</g>
		</g>
		<path id="star" class="st2" d="M483.8,434.6c9.6,0.9,19.3,1.9,28.9,2.8c-8,4.6-16,9.2-24,13.8c4.1,8.4,8.2,16.9,12.3,25.3
			c-7.6-3.3-15.1-6.5-22.7-9.8c-4.5,7.8-8.9,15.6-13.4,23.4c-1.7-9-3.4-18-5.1-27c-10.5,3.3-21,6.6-31.5,9.9c8-9,16-17.9,24-26.9
			c-8.8-5.6-17.6-11.1-26.5-16.7c10.4,0.8,20.8,1.7,31.2,2.5c-1.8-10-3.6-20-5.3-30c6.5,7.7,12.9,15.3,19.4,23
			c5.9-6,11.8-11.9,17.6-17.9C487.1,416.3,485.4,425.4,483.8,434.6z"/>
	</g>
</g>
</svg>
