<?xml version="1.0" encoding="utf-8"?>
<!-- Generator: Adobe Illustrator 22.1.0, SVG Export Plug-In . SVG Version: 6.00 Build 0)  -->
<svg version="1.1" xmlns="http://www.w3.org/2000/svg" xmlns:xlink="http://www.w3.org/1999/xlink" x="0px" y="0px"
	 viewBox="0 0 885 1049.4" style="enable-background:new 0 0 885 1049.4;" xml:space="preserve">
<style type="text/css">
	.st0{fill:#D5E0EA;}
	.st1{fill:#8400ED;}
	.st2{fill:#2A005F;}
	.st3{fill:#DAEDE2;}
	.st4{fill:#1F0D60;}
	.st5{fill:#FFB600;}
	.st6{fill:#FF6876;}
</style>
<g id="background_1_">
	<g id="background">
		<path id="semicircle" class="st0" d="M706.1,495.8c73.7,152.9,8.5,339.4-144.5,413.1s-339.4,8.5-413.1-144.5
			C334.4,674.8,520.2,585.3,706.1,495.8z"/>
		<path class="st0" d="M817.8,385.6c-0.3,0-0.7-0.1-1-0.3c-5.4-4.4-14.7-14-17-28.5c-0.7-4.2-2.7-16.9,4.7-25.7
			c-3.6-6.2-6.1-13.6-6-21.3c0.1-9,3.5-17.5,8.4-24.1c-3.3-4.3-5.7-9.5-6.2-14.7c-2.5-25.6,21.2-39.3,21.4-39.5
			c0.7-0.4,1.6-0.2,2,0.6c0.4,0.7,0.2,1.6-0.6,2c-0.2,0.1-22.2,13-19.9,36.6c0.4,4.4,2.3,8.8,5.1,12.6c5.5-6.4,12.3-10.4,18.3-10.4
			c0,0,0,0,0,0c1.6,0,9.4,0.3,13.2,6.1c0.1,0.2,3.3,5.1,1.4,10.1c-2.4,6.3-10.7,8-14.7,8c0,0,0,0-0.1,0c-6.3,0-12.9-3.6-17.9-9
			c-4.3,6.1-7.3,13.8-7.4,21.8c-0.1,6.8,2.1,13.4,5.2,19c2.1-1.9,5.6-4.3,10.4-5c6.1-1,15.7,0.7,18.1,7.3c1.1,3,0.6,6.8-1.3,10.3
			c-1.8,3.2-4.5,5.5-7.3,6.1c-3.4,0.7-7.7-0.8-12.1-4.4c-2.8-2.3-5.7-5.5-8.2-9.3c-5.7,7.7-4.1,18.4-3.4,22.5
			c2.1,13.5,10.9,22.5,15.9,26.7c0.6,0.5,0.7,1.5,0.2,2.1C818.7,385.4,818.2,385.6,817.8,385.6z M808.3,331.3c2.4,3.8,5.3,7,8.1,9.3
			c3.6,2.9,7.1,4.3,9.6,3.8c1.9-0.4,3.9-2.2,5.3-4.6c1.5-2.7,1.9-5.7,1.2-7.8c-1.7-4.7-9.7-6.1-14.8-5.3
			C813.2,327.3,810.1,329.6,808.3,331.3z M810.8,285.4c4.5,5,10.5,8.5,16.1,8.5c0,0,0,0,0.1,0c3.9,0,10.3-1.7,11.9-6.1
			c1.4-3.6-1.1-7.4-1.1-7.4c-3-4.5-9.4-4.8-10.6-4.8c0,0,0,0,0,0C821.8,275.7,815.7,279.5,810.8,285.4z"/>
	</g>
</g>
<g id="general_1_">
	<g id="general">
		<g id="traffic_light">
			<g>
				<path class="st1" d="M712.1,68.1c-23.8-23.8-56.7-38.6-92.9-38.6c-72.3,0-131.5,59.2-131.5,131.5V339c6.1,1,12,1.7,17.6,2.4
					c0,0,0,0,0,0c-0.7,7.5-2.3,22.6-5.1,40.7c-0.5,3.4-1.1,6.9-1.8,10.5c-2.6,14.9-6.2,31.2-10.8,46.7v48.7
					c0,65.5,48.5,120.2,111.4,130c6.6,1,13.3,1.5,20.1,1.5s13.5-0.5,20.1-1.5c62.9-9.8,111.4-64.5,111.4-130v-327
					C750.8,124.8,736,91.9,712.1,68.1z"/>
			</g>
			<g id="leg">
				<path class="st2" d="M738.6,966.2c0,5.2-4.2,9.5-9.4,9.5H507.5c-2.6,0-5-1.1-6.7-2.8c-1.7-1.7-2.8-4.1-2.8-6.7
					c0-5.2,4.2-9.4,9.5-9.4h2.2c16.2-36.9,50.1-62.9,89.4-69.6V617.9c6.6,1,13.3,1.5,20.1,1.5s13.5-0.5,20.1-1.5v269.5
					c39,6.8,72.5,32.8,88.7,69.4h1.1c2.6,0,5,1.1,6.7,2.8C737.5,961.3,738.6,963.6,738.6,966.2z"/>
				<path class="st3" d="M570.1,957.4c-0.3,0-0.5-0.2-0.5-0.5c0-0.3,0.2-0.5,0.5-0.5l159-0.1l0,0c0.3,0,0.5,0.2,0.5,0.5
					c0,0.3-0.2,0.5-0.5,0.5L570.1,957.4L570.1,957.4z"/>
			</g>
			<g id="_x32_nd_lamp">
				<path class="st4" d="M561.6,351.5c-0.1,0-0.1,0-0.2,0c-0.3-0.1-0.4-0.4-0.3-0.6l23.7-65.8c0.1-0.3,0.4-0.4,0.6-0.3
					c0.3,0.1,0.4,0.4,0.3,0.6l-23.7,65.8C562,351.4,561.8,351.5,561.6,351.5z"/>
				<path class="st4" d="M581.4,379.4c-0.1,0-0.1,0-0.2,0c-0.3-0.1-0.4-0.4-0.3-0.6l24.9-69.1c0.1-0.3,0.4-0.4,0.6-0.3
					c0.3,0.1,0.4,0.4,0.3,0.6l-24.9,69.1C581.8,379.3,581.6,379.4,581.4,379.4z"/>
				<path class="st4" d="M617.3,279.9c-0.1,0-0.1,0-0.2,0c-0.3-0.1-0.4-0.4-0.3-0.6l6.5-17.9c0.1-0.3,0.4-0.4,0.6-0.3
					c0.3,0.1,0.4,0.4,0.3,0.6l-6.5,17.9C617.6,279.7,617.5,279.9,617.3,279.9z"/>
				<path class="st4" d="M606.7,392.2c-0.1,0-0.1,0-0.2,0c-0.3-0.1-0.4-0.4-0.3-0.6L651,267.3c0.1-0.3,0.4-0.4,0.6-0.3
					c0.3,0.1,0.4,0.4,0.3,0.6l-44.8,124.2C607.1,392,606.9,392.2,606.7,392.2z"/>
				<path class="st4" d="M636,393.7c-0.1,0-0.1,0-0.2,0c-0.3-0.1-0.4-0.4-0.3-0.6l38.9-107.9c0.1-0.3,0.4-0.4,0.6-0.3
					c0.3,0.1,0.4,0.4,0.3,0.6l-38.9,107.9C636.4,393.5,636.2,393.7,636,393.7z"/>
				<path class="st4" d="M669.6,376.6c-0.1,0-0.1,0-0.2,0c-0.3-0.1-0.4-0.4-0.3-0.6l20.2-56.2c0.1-0.3,0.4-0.4,0.6-0.3
					c0.3,0.1,0.4,0.4,0.3,0.6L670,376.2C670,376.4,669.8,376.6,669.6,376.6z"/>
				<path class="st4" d="M600.7,390.6c-0.1,0-0.3-0.1-0.4-0.2l-42.1-49.5c-0.1-0.1-0.1-0.3-0.1-0.5c0.1-0.3,0.4-0.4,0.6-0.3
					c0.1,0,0.2,0.1,0.3,0.2l42,49.5c0.2,0.2,0.2,0.5-0.1,0.7C601,390.6,600.8,390.6,600.7,390.6z"/>
				<path class="st4" d="M639.5,392.9c-0.1,0-0.3-0.1-0.4-0.2l-2.3-2.7l-74.5-87.8c-0.1-0.1-0.2-0.3-0.1-0.5
					c0.1-0.3,0.4-0.4,0.7-0.3c0.1,0,0.2,0.1,0.2,0.2l76.8,90.4c0.2,0.2,0.2,0.5-0.1,0.7C639.7,392.9,639.6,392.9,639.5,392.9z"/>
				<path class="st4" d="M665.5,380.1c-0.1,0-0.3-0.1-0.4-0.2l-59.2-69.8c-0.2-0.2-0.2-0.5,0.1-0.7c0.2-0.2,0.5-0.2,0.7,0.1
					l59.2,69.8c0.2,0.2,0.2,0.5-0.1,0.7C665.7,380.1,665.6,380.1,665.5,380.1z"/>
				<path class="st4" d="M585.3,285.6c-0.1,0-0.3-0.1-0.4-0.2l-5.8-6.8c-0.2-0.2-0.2-0.5,0.1-0.7c0.2-0.2,0.5-0.2,0.7,0.1l5.8,6.8
					c0.2,0.2,0.2,0.5-0.1,0.7C585.6,285.6,585.4,285.6,585.3,285.6z"/>
				<path class="st4" d="M606.3,310.3c-0.1,0-0.3-0.1-0.4-0.2l-21-24.7c-0.1-0.1-0.2-0.3-0.1-0.5l5.3-14.8c0.1-0.3,0.4-0.4,0.6-0.3
					c0.3,0.1,0.4,0.4,0.3,0.6l-5.2,14.5l20.2,23.8l10.6-29.4l-12.6-14.8c-0.2-0.2-0.2-0.5,0.1-0.7c0.2-0.2,0.5-0.2,0.7,0.1l12.8,15
					c0.1,0.1,0.2,0.3,0.1,0.5l-11,30.5C606.7,310.2,606.5,310.3,606.3,310.3C606.3,310.3,606.3,310.3,606.3,310.3z"/>
				<path class="st4" d="M683.4,357.8c-0.1,0-0.3-0.1-0.4-0.2l-66.2-77.9c-0.2-0.2-0.2-0.5,0.1-0.7c0.2-0.2,0.5-0.2,0.7,0.1
					l66.2,77.9c0.2,0.2,0.2,0.5-0.1,0.7C683.6,357.7,683.5,357.8,683.4,357.8z"/>
				<path class="st4" d="M690.2,326c-0.1,0-0.3-0.1-0.4-0.2l-1.7-2l-51.5-60.7c-0.1-0.1-0.2-0.3-0.1-0.5c0.1-0.3,0.4-0.4,0.6-0.3
					l0,0c0.1,0,0.2,0.1,0.2,0.1l53.3,62.7c0.2,0.2,0.2,0.5-0.1,0.7C690.5,325.9,690.4,326,690.2,326z"/>
			</g>
			<g id="_x33_rd_lamp">
				<path class="st4" d="M555.5,524.2c-0.1,0-0.1,0-0.2,0c-0.3-0.1-0.4-0.4-0.3-0.6l23.7-65.8c0.1-0.3,0.4-0.4,0.6-0.3
					c0.3,0.1,0.4,0.4,0.3,0.6l-23.7,65.8C555.9,524.1,555.7,524.2,555.5,524.2z"/>
				<path class="st4" d="M575.2,552.2c-0.1,0-0.1,0-0.2,0c-0.3-0.1-0.4-0.4-0.3-0.6l24.9-69.1c0.1-0.3,0.4-0.4,0.6-0.3
					c0.3,0.1,0.4,0.4,0.3,0.6l-24.9,69.1C575.6,552,575.5,552.2,575.2,552.2z"/>
				<path class="st4" d="M611.1,452.6c-0.1,0-0.1,0-0.2,0c-0.3-0.1-0.4-0.4-0.3-0.6l6.5-17.9c0.1-0.3,0.4-0.4,0.6-0.3
					c0.3,0.1,0.4,0.4,0.3,0.6l-6.5,17.9C611.5,452.5,611.3,452.6,611.1,452.6z"/>
				<path class="st4" d="M600.5,564.9c-0.1,0-0.1,0-0.2,0c-0.3-0.1-0.4-0.4-0.3-0.6L644.8,440c0.1-0.3,0.4-0.4,0.6-0.3
					c0.3,0.1,0.4,0.4,0.3,0.6L601,564.5C600.9,564.8,600.7,564.9,600.5,564.9z"/>
				<path class="st4" d="M629.8,566.4c-0.1,0-0.1,0-0.2,0c-0.3-0.1-0.4-0.4-0.3-0.6l38.9-107.9c0.1-0.3,0.4-0.4,0.6-0.3
					c0.3,0.1,0.4,0.4,0.3,0.6l-38.9,107.9C630.2,566.3,630,566.4,629.8,566.4z"/>
				<path class="st4" d="M663.4,549.3c-0.1,0-0.1,0-0.2,0c-0.3-0.1-0.4-0.4-0.3-0.6l20.2-56.2c0.1-0.3,0.4-0.4,0.6-0.3
					c0.3,0.1,0.4,0.4,0.3,0.6L663.9,549C663.8,549.2,663.6,549.3,663.4,549.3z"/>
				<path class="st4" d="M594.6,563.3c-0.1,0-0.3-0.1-0.4-0.2l-42.1-49.5c-0.1-0.1-0.2-0.3-0.1-0.5c0.1-0.3,0.4-0.4,0.7-0.3
					c0.1,0,0.2,0.1,0.2,0.2l42,49.5c0.2,0.2,0.2,0.5-0.1,0.7C594.8,563.3,594.7,563.3,594.6,563.3z"/>
				<path class="st4" d="M633.4,565.6c-0.1,0-0.3-0.1-0.4-0.2l-2.3-2.7L556.2,475c-0.1-0.1-0.1-0.3-0.1-0.5c0.1-0.3,0.4-0.4,0.6-0.3
					c0.1,0,0.2,0.1,0.3,0.2l76.8,90.4c0.2,0.2,0.2,0.5-0.1,0.7C633.6,565.6,633.5,565.6,633.4,565.6z"/>
				<path class="st4" d="M659.4,552.8c-0.1,0-0.3-0.1-0.4-0.2l-59.2-69.8c-0.2-0.2-0.2-0.5,0.1-0.7c0.2-0.2,0.5-0.2,0.7,0.1
					l59.2,69.8c0.2,0.2,0.2,0.5-0.1,0.7C659.6,552.8,659.5,552.8,659.4,552.8z"/>
				<path class="st4" d="M579.2,458.4c-0.1,0-0.3-0.1-0.4-0.2l-5.8-6.8c-0.2-0.2-0.2-0.5,0.1-0.7s0.5-0.2,0.7,0.1l5.8,6.8
					c0.2,0.2,0.2,0.5-0.1,0.7C579.4,458.3,579.3,458.4,579.2,458.4z"/>
				<path class="st4" d="M600.1,483c-0.1,0-0.3-0.1-0.4-0.2l-21-24.7c-0.1-0.1-0.2-0.3-0.1-0.5l5.3-14.8c0.1-0.3,0.4-0.4,0.6-0.3
					c0.3,0.1,0.4,0.4,0.3,0.6l-5.2,14.5l20.2,23.8l10.6-29.4L598,437.4c-0.2-0.2-0.2-0.5,0.1-0.7c0.2-0.2,0.5-0.2,0.7,0.1l12.8,15
					c0.1,0.1,0.2,0.3,0.1,0.5l-11,30.5C600.6,482.9,600.4,483,600.1,483C600.2,483,600.2,483,600.1,483z"/>
				<path class="st4" d="M677.3,530.5c-0.1,0-0.3-0.1-0.4-0.2l-66.2-77.9c-0.2-0.2-0.2-0.5,0.1-0.7c0.2-0.2,0.5-0.2,0.7,0.1
					l66.2,77.9c0.2,0.2,0.2,0.5-0.1,0.7C677.5,530.5,677.4,530.5,677.3,530.5z"/>
				<path class="st4" d="M684.1,498.7c-0.1,0-0.3-0.1-0.4-0.2l-1.7-2l-51.5-60.7c-0.1-0.1-0.2-0.3-0.1-0.5c0.1-0.3,0.4-0.4,0.6-0.3
					l0,0c0.1,0,0.2,0.1,0.2,0.1l53.3,62.7c0.2,0.2,0.2,0.5-0.1,0.7C684.3,498.7,684.2,498.7,684.1,498.7z"/>
			</g>
			<path id="star" class="st5" d="M683.3,215.9c-9.1,33.5-18.3,67-27.4,100.4c-21.1-26.8-42.2-53.7-63.4-80.5
				c-26.4,13-52.8,25.9-79.2,38.9c8.1-27.8,16.1-55.6,24.2-83.3c-26-8.9-52-17.8-78-26.7c26.4-14.6,52.8-29.3,79.1-43.9
				c-13.3-30-26.6-59.9-39.9-89.9c31.9,10.6,63.8,21.2,95.8,31.8c28-20.9,56.1-41.8,84.1-62.7c3.8,31.8,7.7,63.7,11.5,95.5
				c31.3,7,62.6,13.9,94,20.9c-18.6,14.2-37.1,28.5-55.7,42.7c15.3,22.9,30.6,45.9,45.9,68.8C743.9,223.9,713.6,219.9,683.3,215.9z"
				/>
			<g id="red_lamp">
				<path class="st6" d="M586.1,97.6c-4,2.3-7.7,5-11.1,8c-7.1,6.3-12.9,14.3-16.9,23.6l0,0c-0.5,1.1-0.9,2.2-1.3,3.4
					c-4.2,11.7-4.9,23.8-2.7,35.2l0,0c0.7,3.6,1.7,7,2.9,10.4c4,10.8,10.8,20.4,19.8,27.9c5.6,4.7,12.1,8.5,19.3,11.2
					c0.2,0.1,0.4,0.2,0.6,0.2c11.5,4.1,23.4,4.9,34.6,2.8c1.2-0.2,2.4-0.5,3.5-0.8c9.5-2.3,18.4-6.7,26-12.8
					c1.4-1.1,2.8-2.3,4.1-3.5c5.6-5.3,10.3-11.6,13.8-18.8c1.1-2.2,2.1-4.5,2.9-6.9c3-8.2,4.2-16.7,3.9-24.9
					c-0.1-1.9-0.2-3.7-0.4-5.6c-1.5-12.7-6.8-24.8-15-34.6c-6.2-7.5-14.1-13.6-23.4-17.8c-1.7-0.8-3.3-1.4-5.1-2.1
					c-3.1-1.1-6.2-2-9.4-2.6l0,0c-4.4-0.9-8.9-1.3-13.3-1.3c-6.6,0-13,1-19.2,2.9L586.1,97.6z"/>
				<g>
					<path class="st4" d="M557,178.8c-0.1,0-0.1,0-0.2,0c-0.3-0.1-0.4-0.4-0.3-0.6l23.7-65.8c0.1-0.3,0.4-0.4,0.6-0.3
						c0.3,0.1,0.4,0.4,0.3,0.6l-23.7,65.8C557.4,178.6,557.2,178.8,557,178.8z"/>
					<path class="st4" d="M576.8,206.7c-0.1,0-0.1,0-0.2,0c-0.3-0.1-0.4-0.4-0.3-0.6l24.9-69.1c0.1-0.3,0.4-0.4,0.6-0.3
						c0.3,0.1,0.4,0.4,0.3,0.6l-24.9,69.1C577.2,206.6,577,206.7,576.8,206.7z"/>
					<path class="st4" d="M612.7,107.1c-0.1,0-0.1,0-0.2,0c-0.3-0.1-0.4-0.4-0.3-0.6l6.5-17.9c0.1-0.3,0.4-0.4,0.6-0.3
						c0.3,0.1,0.4,0.4,0.3,0.6l-6.5,17.9C613.1,107,612.9,107.1,612.7,107.1z"/>
					<path class="st4" d="M602.1,219.4c-0.1,0-0.1,0-0.2,0c-0.3-0.1-0.4-0.4-0.3-0.6l44.8-124.2c0.1-0.3,0.4-0.4,0.6-0.3
						c0.3,0.1,0.4,0.4,0.3,0.6l-44.8,124.2C602.5,219.3,602.3,219.4,602.1,219.4z"/>
					<path class="st4" d="M631.4,221c-0.1,0-0.1,0-0.2,0c-0.3-0.1-0.4-0.4-0.3-0.6l38.9-107.9c0.1-0.3,0.4-0.4,0.6-0.3
						c0.3,0.1,0.4,0.4,0.3,0.6l-38.9,107.9C631.8,220.8,631.6,221,631.4,221z"/>
					<path class="st4" d="M665,203.9c-0.1,0-0.1,0-0.2,0c-0.3-0.1-0.4-0.4-0.3-0.6l20.2-56.2c0.1-0.3,0.4-0.4,0.6-0.3
						c0.3,0.1,0.4,0.4,0.3,0.6l-20.2,56.2C665.4,203.7,665.2,203.9,665,203.9z"/>
					<path class="st4" d="M596.1,217.9c-0.1,0-0.3-0.1-0.4-0.2l-42.1-49.5c-0.1-0.1-0.1-0.3-0.1-0.5c0.1-0.3,0.4-0.4,0.6-0.3
						c0.1,0,0.2,0.1,0.3,0.2l42,49.5c0.2,0.2,0.2,0.5-0.1,0.7C596.4,217.9,596.2,217.9,596.1,217.9z"/>
					<path class="st4" d="M634.9,220.2c-0.1,0-0.3-0.1-0.4-0.2l-2.3-2.7l-74.5-87.8c-0.1-0.1-0.2-0.3-0.1-0.5
						c0.1-0.3,0.4-0.4,0.7-0.3c0.1,0,0.2,0.1,0.2,0.2l76.8,90.4c0.2,0.2,0.2,0.5-0.1,0.7C635.1,220.2,635,220.2,634.9,220.2z"/>
					<path class="st4" d="M660.9,207.4c-0.1,0-0.3-0.1-0.4-0.2l-59.2-69.8c-0.2-0.2-0.2-0.5,0.1-0.7c0.2-0.2,0.5-0.2,0.7,0.1
						l59.2,69.8c0.2,0.2,0.2,0.5-0.1,0.7C661.1,207.3,661,207.4,660.9,207.4z"/>
					<path class="st4" d="M580.7,112.9c-0.1,0-0.3-0.1-0.4-0.2l-5.8-6.8c-0.2-0.2-0.2-0.5,0.1-0.7c0.2-0.2,0.5-0.2,0.7,0.1l5.8,6.8
						c0.2,0.2,0.2,0.5-0.1,0.7C581,112.9,580.8,112.9,580.7,112.9z"/>
					<path class="st4" d="M601.7,137.6c-0.1,0-0.3-0.1-0.4-0.2l-21-24.7c-0.1-0.1-0.2-0.3-0.1-0.5l5.3-14.8c0.1-0.3,0.4-0.4,0.6-0.3
						c0.3,0.1,0.4,0.4,0.3,0.6l-5.2,14.5l20.2,23.8l10.6-29.4l-12.6-14.8c-0.2-0.2-0.2-0.5,0.1-0.7c0.2-0.2,0.5-0.2,0.7,0.1l12.8,15
						c0.1,0.1,0.2,0.3,0.1,0.5l-11,30.5C602.1,137.4,601.9,137.6,601.7,137.6C601.7,137.6,601.7,137.6,601.7,137.6z"/>
					<path class="st4" d="M678.8,185.1c-0.1,0-0.3-0.1-0.4-0.2L612.3,107c-0.2-0.2-0.2-0.5,0.1-0.7c0.2-0.2,0.5-0.2,0.7,0.1
						l66.2,77.9c0.2,0.2,0.2,0.5-0.1,0.7C679,185,678.9,185.1,678.8,185.1z"/>
					<path class="st4" d="M685.6,153.3c-0.1,0-0.3-0.1-0.4-0.2l-1.7-2L632,90.4c-0.1-0.1-0.2-0.3-0.1-0.5c0.1-0.3,0.4-0.4,0.6-0.3
						l0,0c0.1,0,0.2,0.1,0.2,0.2l53.3,62.7c0.2,0.2,0.2,0.5-0.1,0.7C685.9,153.2,685.8,153.3,685.6,153.3z"/>
				</g>
			</g>
		</g>
		<g id="man">
			<g id="hand">
				<path class="st6" d="M342,255.8c0,0.4,0,0.9,0,1.3c0,0.5,0,1-0.1,1.5c0,0.3,0,0.6-0.1,0.9c0,0.5-0.1,1-0.1,1.5
					c-0.1,0.6-0.1,1.3-0.2,1.9c-0.1,0.6-0.2,1.3-0.3,1.9c-0.1,0.5-0.2,0.9-0.3,1.4c-0.1,0.3-0.1,0.6-0.2,0.9
					c-0.2,0.9-0.4,1.8-0.6,2.7c-0.1,0.4-0.2,0.8-0.3,1.2c-0.4,1.2-0.7,2.4-1.2,3.6c-0.3,0.8-0.6,1.6-0.9,2.3c-1.2,3-2.6,5.9-4.1,8.6
					c-1.2,2.2-2.5,4.2-3.9,6c-2.6,3.5-5.7,6.9-9.2,10c0,0-0.1,0.1-0.1,0.1c0,0.1,0,0.3,0,0.4c-1,8.2-2,16.4-3,24.6
					c-2.1,4.7-4.2,9.4-6.3,14.1c-7.4,16.7-14.8,33.4-22.3,50.1c-1.5-6.5-5.9-26.8-9.5-43.7c-2-9.5-3.8-17.9-4.7-22
					c-0.2-2.3-0.3-4.6-0.5-6.9c0-0.2,0-0.4,0-0.6c0-0.1,0-0.2,0-0.3c-4.5-0.8-7.7-2.4-10-4c-4.6-3.1-8-7.8-10.2-13.3
					c-0.8-2-1.5-4.1-2-6.3c-3.2-13-1.7-28.9,3.4-41.6c0.5-1.2,1-2.4,1.5-3.5c0-0.1,0.1-0.2,0.2-0.3c1.2-2.5,4.4-8.8,9.7-15.3
					c7.3-8.8,18.4-17.9,33.8-18h0.2c0.4,0,0.8,0,1.2,0c2.2,0.1,4.3,0.3,6.4,0.7c0.4,0.1,0.8,0.2,1.1,0.2c0.3,0.1,0.7,0.2,1,0.2
					c0.3,0.1,0.6,0.2,1,0.2c1.5,0.4,2.9,0.9,4.3,1.4c0.4,0.1,0.7,0.3,1.1,0.5c0.1,0.1,0.3,0.1,0.4,0.2c0.5,0.2,1,0.5,1.5,0.7
					c0.3,0.1,0.6,0.3,0.9,0.4c0.3,0.1,0.6,0.3,0.9,0.5c0.6,0.3,1.1,0.6,1.7,1c0.3,0.2,0.6,0.3,0.8,0.5c0.5,0.3,1,0.7,1.6,1
					c0,0,0,0,0.1,0.1c1.6,1.1,3.1,2.3,4.6,3.7c0.3,0.3,0.7,0.6,1,1c0.1,0.1,0.1,0.1,0.2,0.2c0.2,0.2,0.5,0.5,0.7,0.7c0,0,0,0,0,0
					c0.1,0.1,0.2,0.2,0.3,0.3l2.8,3.4c0.4,0.5,0.7,0.9,1,1.4c0.4,0.6,0.8,1.1,1.1,1.7c0.2,0.4,0.5,0.8,0.7,1.2
					c0.3,0.5,0.5,1,0.8,1.5c0.2,0.5,0.5,1,0.7,1.5c0,0,0,0,0,0c0.2,0.5,0.4,0.9,0.6,1.4c0,0,0,0.1,0,0.1c0.2,0.5,0.4,1,0.5,1.5
					c0.2,0.5,0.3,1,0.5,1.5c0,0,0,0,0,0c0.2,0.5,0.3,1,0.4,1.5c0,0.1,0.1,0.2,0.1,0.3c0.1,0.4,0.2,0.8,0.3,1.2
					c0,0.2,0.1,0.3,0.1,0.5c0.1,0.4,0.1,0.7,0.2,1c0,0.2,0.1,0.4,0.1,0.6c0,0.3,0.1,0.6,0.1,0.9c0,0.2,0.1,0.5,0.1,0.7
					c0,0,0,0.1,0,0.1c0,0.3,0,0.5,0.1,0.8c0,0.2,0,0.5,0.1,0.7c0,0.3,0,0.6,0.1,0.9c0,0.2,0,0.3,0,0.5c0,0.1,0,0.1,0,0.2
					c0,0,0,0.1,0,0.2c0,0.3,0,0.6,0,0.9v0c0,0.1,0,0.2,0,0.3C342,255.4,342,255.6,342,255.8z"/>
				<path id="nose" d="M268.2,283.6c-0.2,0-0.3-0.1-0.4-0.2l-7-10c-0.1-0.2-0.1-0.4,0-0.6l11-12.2c0.2-0.2,0.5-0.2,0.7,0
					c0.2,0.2,0.2,0.5,0,0.7l-10.7,11.9l6.7,9.7c0.2,0.2,0.1,0.5-0.1,0.7C268.4,283.5,268.3,283.6,268.2,283.6z"/>
				<g id="brows_1_">
					<path d="M288.6,269.3c-1.2,0-2.6-0.2-4.1-1c-3.5-1.9-4.2-5.5-4.3-6.2c0-0.3,0.1-0.5,0.4-0.6c0.3,0,0.5,0.1,0.6,0.4
						c0.1,0.6,0.7,3.8,3.8,5.5c2.9,1.6,5.9,0.6,6.4,0.4c0.3-0.1,0.5,0,0.6,0.3c0.1,0.3,0,0.5-0.3,0.6
						C291.5,268.9,290.2,269.3,288.6,269.3z"/>
					<path d="M258.7,263.6c-1.3,0-2.8-0.4-4.4-1.3c-0.2-0.1-0.3-0.5-0.2-0.7c0.1-0.2,0.4-0.3,0.7-0.2c6,3.6,9.8-2.1,10-2.4
						c0.2-0.2,0.5-0.3,0.7-0.1c0.2,0.2,0.3,0.5,0.1,0.7C265.6,259.6,262.9,263.6,258.7,263.6z"/>
				</g>
				<g id="brows">
					<ellipse transform="matrix(0.9524 -0.305 0.305 0.9524 -63.4866 91.3594)" cx="260.7" cy="248.9" rx="8.1" ry="2"/>
					<ellipse transform="matrix(0.7071 -0.7071 0.7071 0.7071 -95.4939 282.8381)" cx="293.7" cy="256.7" rx="2" ry="9.1"/>
				</g>
				<path id="mouth" d="M270.6,292c-3.3,0-6,1.5-6,3.4c0,1.9,2.6,3.4,6,3.4c3.4,0,6-1.5,6-3.4C276.6,293.5,274,292,270.6,292z
					 M270.6,297.9c-3,0-5-1.3-5-2.4c0-1.2,2-2.4,5-2.4c3,0,5,1.3,5,2.4C275.6,296.6,273.6,297.9,270.6,297.9z"/>
				<g id="ear">
					<path class="st6" d="M337.8,276.9c-1.1-1.2-2.4-2.2-4-3.1c-6.7-3.7-15-1.8-19.6,3.9c-0.6,0.7-1.1,1.5-1.6,2.4
						c-4.1,7.6-1.3,17,6.3,21.2c7.6,4.1,17,1.3,21.2-6.3C343.4,289,342.2,281.7,337.8,276.9z"/>
					<path d="M319.9,293.9c-0.2,0-0.4-0.1-0.4-0.3c-0.1-0.2,0-0.5,0.2-0.7c1.5-0.7,2.4-2.2,2.5-3.8c0.1-1.6-0.7-3.2-2.1-4.1
						c-0.1-0.1-0.2-0.2-0.2-0.4c0-0.2,0.1-0.3,0.2-0.4l11.4-7.5c0.2-0.2,0.5-0.1,0.7,0.1c0.2,0.2,0.1,0.5-0.1,0.7l-10.8,7.1
						c1.3,1.1,2,2.8,1.9,4.5c-0.1,2-1.3,3.8-3.1,4.6C320,293.9,320,293.9,319.9,293.9z"/>
				</g>
				<path d="M342,255.4v0.3c0,0.4,0,0.9,0,1.3c0,0.5,0,1-0.1,1.5c0,0.3,0,0.6-0.1,0.9c0,0.5-0.1,1-0.1,1.5c-0.1,0.6-0.1,1.3-0.2,1.9
					c-0.1,0.6-0.2,1.3-0.3,1.9c-0.1,0.5-0.2,0.9-0.3,1.4c-0.1,0.3-0.1,0.6-0.2,0.9c-0.2,0.9-0.4,1.8-0.6,2.7
					c-0.1,0.4-0.2,0.8-0.3,1.2c-0.4,1.2-0.7,2.4-1.2,3.6c-0.3,0.8-0.6,1.6-0.9,2.3c-1.1-1.2-2.4-2.2-4-3.1c-6.7-3.7-15-1.8-19.6,3.9
					c-0.5-7.8-0.9-15.5-1.4-23.2c-14.1-5.7-19.2-17.9-20.8-28.4c-6.5,3.5-16.1,7.5-25.3,6.7c7.3-8.8,18.4-17.9,33.8-18h0.2
					c0.4,0,0.8,0,1.2,0c2.2,0.1,4.3,0.3,6.4,0.7c0.4,0.1,0.8,0.2,1.1,0.2c0.3,0.1,0.7,0.2,1,0.2c0.3,0.1,0.6,0.2,1,0.2
					c1.5,0.4,2.9,0.9,4.3,1.4c0.4,0.1,0.7,0.3,1.1,0.5c0.1,0.1,0.3,0.1,0.4,0.2c0.5,0.2,1,0.5,1.5,0.7c0.3,0.1,0.6,0.3,0.9,0.4
					c0.3,0.1,0.6,0.3,0.9,0.5c0.6,0.3,1.1,0.6,1.7,1c0.3,0.2,0.6,0.3,0.8,0.5c0.5,0.3,1,0.7,1.6,1c0,0,0,0,0.1,0.1
					c1.6,1.1,3.1,2.4,4.6,3.7v0c0.8-2.7,2-6,3.2-5.3c1.3,0.7-0.6,3.9-2.2,6.3c0.1,0.1,0.1,0.1,0.2,0.2c3.5-2.6,9.3-6.7,9.8-5.1
					c0.5,1.6-5.3,4.2-9.1,5.8c0,0,0,0,0,0c0.1,0.1,0.2,0.2,0.3,0.3l2.8,3.4c0.4,0.5,0.7,0.9,1,1.4c0.4,0.6,0.8,1.1,1.1,1.7
					c0.2,0.4,0.5,0.8,0.7,1.2c0.3,0.5,0.5,1,0.8,1.5c0.2,0.5,0.5,1,0.7,1.5c0,0,0,0,0,0c0.2,0.5,0.4,0.9,0.6,1.4c0,0,0,0.1,0,0.1
					c0.2,0.5,0.4,1,0.5,1.5c0.2,0.5,0.3,1,0.5,1.5c0,0,0,0,0,0c0.2,0.5,0.3,1,0.4,1.5c0,0.1,0.1,0.2,0.1,0.3
					c0.1,0.4,0.2,0.8,0.3,1.2c0,0.2,0.1,0.3,0.1,0.5c0.1,0.4,0.1,0.7,0.2,1c0,0.2,0.1,0.4,0.1,0.6c0,0.3,0.1,0.6,0.1,0.9
					c0,0.2,0.1,0.5,0.1,0.7c0,0,0,0.1,0,0.1c0,0.3,0,0.5,0.1,0.8c0,0.2,0,0.5,0.1,0.7c0,0.3,0,0.6,0.1,0.9c0,0.2,0,0.3,0,0.5
					c0,0.1,0,0.1,0,0.2c0,0,0,0.1,0,0.2c0,0.3,0,0.6,0,0.9v0c0,0.1,0,0.2,0,0.3C342,255.3,342,255.4,342,255.4z"/>
				<path d="M274.6,318.4c-0.3,0-0.5-0.2-0.5-0.5c0-0.3,0.2-0.5,0.5-0.5c1.4,0,2.8-0.1,4.3-0.2c6.3-0.4,12.6-1.5,18.7-3.1
					c0.3-0.1,0.5,0.1,0.6,0.4c0.1,0.3-0.1,0.5-0.4,0.6c-6.2,1.7-12.6,2.8-18.9,3.2C277.5,318.3,276.1,318.3,274.6,318.4
					C274.6,318.4,274.6,318.4,274.6,318.4z"/>
			</g>
			<g id="hands">
				<g id="hand_r">
					<path class="st6" d="M511.4,316.5c0,0-2.6,10.9-6,24.7c-7.7-0.3-15.9-0.8-24.5-1.7c-7.6-0.8-14.9-1.7-21.8-2.8
						c1.2-11.8,1.7-18,1.9-19.7c1.2-12.4,2-22.4,2.6-28.7c0.4-3.2,3.4-5.6,6.6-5.2c0,0,0.1,0,0.1,0c0.7-2.8,3.4-4.8,6.3-4.5
						c1.5,0.1,2.9,0.9,3.8,2c0.5-3.1,3.3-5.3,6.5-5c3.2,0.3,5.6,3.2,5.3,6.5l-0.2,1.7c1.3-1.5,3.2-2.3,5.2-2
						c3.2,0.4,5.6,3.4,5.2,6.6l-3.4,27.9l0.9-3.1c0.9-3.1,4.3-4.9,7.4-4C510.5,310.1,512.3,313.4,511.4,316.5z"/>
					<path d="M496.1,329.6c0,0-0.1,0-0.1,0c-0.3-0.1-0.4-0.3-0.4-0.6l3.2-14.1c0.1-0.3,0.3-0.4,0.6-0.4c0.3,0.1,0.4,0.3,0.4,0.6
						l-3.2,14.1C496.5,329.4,496.3,329.6,496.1,329.6z"/>
					<path d="M488.6,312.4C488.6,312.4,488.6,312.4,488.6,312.4c-0.3,0-0.5-0.3-0.5-0.6l3.5-28.3c0-0.3,0.3-0.5,0.6-0.4
						c0.3,0,0.5,0.3,0.4,0.6l-3.5,28.3C489.1,312.3,488.8,312.4,488.6,312.4z"/>
					<path d="M477.1,312.4C477.1,312.4,477.1,312.4,477.1,312.4c-0.3,0-0.5-0.3-0.5-0.6l3.4-31.4c0-0.3,0.3-0.5,0.6-0.4
						c0.3,0,0.5,0.3,0.4,0.6l-3.4,31.4C477.6,312.3,477.4,312.4,477.1,312.4z"/>
					<path d="M467.5,312.4C467.5,312.4,467.5,312.4,467.5,312.4c-0.3,0-0.5-0.3-0.5-0.5l2.7-28.9c0-0.3,0.3-0.5,0.5-0.5
						c0.3,0,0.5,0.3,0.5,0.5L468,312C468,312.2,467.8,312.4,467.5,312.4z"/>
				</g>
				<g id="hand_l">
					<path class="st6" d="M173.6,639.2l-1.6-7.2l-6-26.4c-15.1-0.7-30.3-1.5-45.5-2.2c-2.1,16.9-3.7,33.4-5,49.2
						c0,3.4,2.8,6.2,6.2,6.3c1.3,0,2.6-0.4,3.6-1.1v2.1c0,3.4,2.8,6.3,6.2,6.3c1,0,2-0.2,2.8-0.7c0.8-0.4,1.6-1,2.2-1.8
						c0.3,3.1,3,5.5,6.2,5.6c3.2,0,6-2.5,6.2-5.7c4.3,0.2,6.5-1.1,7.7-2.1c3-2.6,3.2-7.2,1.7-27.5c-0.3-3.7-0.5-6.8-0.7-9
						c1.3,5.7,2.6,11.3,3.9,16.9c0.8,3.4,4.1,5.5,7.5,4.7c0,0,0,0,0,0C172.2,645.9,174.3,642.5,173.6,639.2z"/>
					<path d="M136.4,664.1c-0.3,0-0.5-0.2-0.5-0.5l0.1-35.8c0-0.3,0.2-0.5,0.5-0.5c0.3,0,0.5,0.2,0.5,0.5l-0.1,35.8
						C136.9,663.9,136.7,664.1,136.4,664.1z"/>
					<path d="M148.9,664.5c-0.3,0-0.5-0.2-0.5-0.5l-1.3-36.6c0-0.3,0.2-0.5,0.5-0.5c0.3,0,0.5,0.2,0.5,0.5l1.3,36.6
						C149.4,664.3,149.2,664.5,148.9,664.5C148.9,664.5,148.9,664.5,148.9,664.5z"/>
					<path d="M125.3,658.1c-0.3,0-0.5-0.2-0.5-0.5l0.1-32.3c0-0.3,0.2-0.5,0.5-0.5c0.3,0,0.5,0.2,0.5,0.5l-0.1,32.3
						C125.8,657.9,125.5,658.1,125.3,658.1z"/>
				</g>
			</g>
			<g id="body">
				<path class="st2" d="M123.2,600L123.2,600c-0.2,0.1-0.3,0.1-0.4,0.2c-0.5,0-0.9,0-1.4-0.1c0,0,0,0,0,0c0-0.1,0-0.1,0-0.2h0
					c0,0,0,0,0,0c0.2-3.8,0.5-7.5,0.8-11.2c0,0,0,0,0,0c5.5-4.1,9.5-11.5,10.9-20.2c3.6-0.2,7.1-0.5,10.7-0.7
					C144.7,582.1,135.9,595,123.2,600z"/>
				<path class="st2" d="M500.3,382.1c-0.5,3.4-1.1,6.9-1.8,10.5h0c-12.4-2.7-22.8-12.6-25.2-25.8c3.5-0.6,7-1.3,10.5-1.9
					C487.5,373.3,493.6,379.7,500.3,382.1C500.3,382.1,500.3,382.1,500.3,382.1z"/>
				<path class="st2" d="M372.8,520.8c-0.1,5.7-0.1,11.5-0.2,17.2v0c-3.6,2.4-7.7,4.1-12.2,5c-17.5,3.2-34.5-8.6-37.6-26
					c3.5-0.6,7-1.3,10.5-1.9c5.3,12.2,15.4,20,25.3,18.1C364.8,532.1,369.8,527.4,372.8,520.8z"/>
				<path class="st2" d="M159,516.9c-8.7,1.6-17.3-0.5-24.1-5.2c0,0,0,0,0,0c1.1-4.3,2.2-8.5,3.3-12.6c0,0,0,0,0,0
					c5.4,6,12.3,9.3,19,8c9.9-1.8,16.7-12.7,17.3-25.9c3.5-0.6,7-1.3,10.5-1.9C188.2,496.7,176.5,513.7,159,516.9z"/>
				<path class="st2" d="M382.7,361.5c0,0-0.1,0.1-0.1,0.1c-4.6,8-12.5,13.9-22.2,15.7c-17.5,3.2-34.5-8.6-37.6-26
					c3.5-0.6,7-1.3,10.5-1.9c5.3,12.2,15.4,20,25.3,18.1c6.7-1.2,12-6.6,14.9-14c0,0,0-0.1,0.1-0.1
					C376.8,356,379.8,358.8,382.7,361.5z"/>
				<path class="st2" d="M302.3,414.8c-0.6,13.3-7.4,24.1-17.3,25.9c-9.9,1.8-20.1-5.9-25.3-18.1c-3.5,0.6-7,1.3-10.5,1.9
					c3.2,17.5,20.2,29.2,37.6,26c17.5-3.2,29.2-20.2,26-37.6C309.4,413.5,305.9,414.2,302.3,414.8z"/>
				<path class="st2" d="M214.7,392.8c-10.4,1.9-20.6-1.5-27.8-8.2c0,0,0,0-0.1-0.1c2.2-3.4,4.4-6.7,6.8-9.9c0,0,0,0.1,0.1,0.1
					c5.4,6.2,12.4,9.5,19.2,8.2c9.9-1.8,16.7-12.6,17.3-25.9c3.5-0.6,7-1.3,10.5-1.9C243.9,372.6,232.1,389.6,214.7,392.8z"/>
				<path class="st2" d="M450,427.4c-0.6,13.3-7.4,24.1-17.3,25.9c-9.9,1.8-20.1-5.9-25.3-18.1c-3.5,0.6-7,1.3-10.5,1.9
					c3.2,17.5,20.2,29.2,37.6,26c17.5-3.2,29.2-20.2,26-37.6C457,426.1,453.5,426.7,450,427.4z"/>
				<path class="st2" d="M217.2,562c0,0.1,0.1,0.1,0.1,0.2c-4.8,0.2-9.3,0.4-13.5,0.6c0-0.1-0.1-0.1-0.1-0.2
					c-1.1-2.3-1.9-4.8-2.3-7.4c3.5-0.6,7-1.3,10.5-1.9C213.4,556.5,215.2,559.4,217.2,562z"/>
				<path class="st2" d="M263.7,560.5c0,0.1,0,0.1-0.1,0.2c-4.4,0.1-8.8,0.2-13.1,0.4c0-0.1,0.1-0.1,0.1-0.2
					c2.4-4.3,3.8-9.6,4.1-15.4c3.5-0.6,7-1.3,10.5-1.9C266.3,549.4,265.6,555.2,263.7,560.5z"/>
				<path class="st2" d="M289,391.4C289,391.4,289,391.4,289,391.4c-0.3,0-0.4-0.2-0.5-0.4l-9.4-43.2c-0.1-0.3,0.1-0.5,0.4-0.6
					c0.3-0.1,0.5,0.1,0.6,0.4l9.1,41.7l21.5-48.3c0.1-0.3,0.4-0.4,0.7-0.3c0.3,0.1,0.4,0.4,0.3,0.7l-22.1,49.7
					C289.4,391.2,289.2,391.4,289,391.4z"/>
			</g>
			<path id="bubble" class="st0" d="M261.2,296c-22.4-4.8-35.1-14.1-42.7-22.1c-11.1-11.8-17.2-27.2-25.8-26c-3.2,0.4-6,3-7.2,5.8
				c-1.9,4.4-0.1,10.3,4.6,14.9c-4.8-5.4-11.3-6-14.1-3.4c-1.8,1.7-2.1,4.8-1.4,7.2c0.9,3,3.4,5.2,6.5,5.8c-5.9-3-12.7-1.7-16.3,2.5
				c-3.3,3.9-3.3,9.4-1.5,13c3.1,6.3,13,9.6,23.4,5.8c-8.9,1.9-15.1,7.1-15.9,13c-0.4,3.3,0.8,7.2,3.4,9.6
				c7.8,7.6,26.2,0.7,47.3-7.5C231.5,310.9,245.3,304.9,261.2,296z"/>
			<g id="legs_1_">
				<g id="legs">
					<path class="st6" d="M387.7,963.8l-0.8,7.7c-3.3-1.4-6.6-1.6-8.5-1.8c-8.1-0.5-27.5,3-52.4,10.8l1.7-17.5
						C347.8,963.2,367.7,963.5,387.7,963.8z"/>
					<path class="st6" d="M189.4,967.5l-4.7,18.6c-23.2-9.8-41.5-14.9-49.5-15.2c-1.8-0.1-4.8-0.2-8.1,0.8l0.7-8.9
						C147.5,964.1,173.2,966,189.4,967.5z"/>
				</g>
				<g id="shoes">
					<g id="shoe_l">
						<path class="st1" d="M188.3,987.6c-1.2-0.5-2.4-1-3.6-1.5c-23.2-9.8-41.5-14.9-49.5-15.2c-1.8-0.1-4.8-0.2-8.1,0.8
							c-1.7,0.5-3.5,1.2-5.1,2.4c-2.4,1.7-3.6,3.6-4,4c-24.2,21.4-58.1,9.5-76.8,32.8c-4,5.1-6.5,10.6-7.9,15.9
							c-0.5,1.8-0.9,3.6-1.2,5.4c-0.5,3.2-0.8,6.2-0.8,8.7l53.4-6.3c19.6-2.3,94.8-11.2,96.5-11.4c0.6-3.2,1.3-6.5,1.9-9.7
							c0.2-1.2,0.4-2,0.4-2.2c0.3-1.6,1-5.2,2.7-13.2C188.6,998,191.1,988.6,188.3,987.6z"/>
						<path class="st4" d="M33.2,1028c-0.3,0-0.5-0.2-0.5-0.4c0-0.3,0.2-0.5,0.4-0.6l150.7-17.3c0.3,0,0.5,0.2,0.6,0.4
							s-0.2,0.5-0.4,0.6L33.2,1028C33.2,1028,33.2,1028,33.2,1028z"/>
						<path class="st4" d="M116.7,998.7c-0.1,0-0.2,0-0.2-0.1l-17.8-9.3c-0.2-0.1-0.3-0.4-0.2-0.7c0.1-0.2,0.4-0.3,0.7-0.2l17.8,9.3
							c0.2,0.1,0.3,0.4,0.2,0.7C117.1,998.6,116.9,998.7,116.7,998.7z"/>
						<path class="st4" d="M125.6,994c-0.1,0-0.2,0-0.2-0.1l-17.8-9.3c-0.2-0.1-0.3-0.4-0.2-0.7c0.1-0.2,0.4-0.3,0.7-0.2l17.8,9.3
							c0.2,0.1,0.3,0.4,0.2,0.7C126,993.9,125.8,994,125.6,994z"/>
					</g>
					<g id="shoe_r">
						<path class="st1" d="M475.1,1040.6c-0.1-1.7-0.3-3.6-0.6-5.4c-0.9-5.4-2.7-11.1-6.3-16.5c-16.3-25-51.2-16.4-73.2-40.1
							c-0.4-0.4-1.4-2.5-3.6-4.4c-1.4-1.2-2.9-2.1-4.4-2.7c-3.3-1.4-6.6-1.6-8.5-1.8c-8.1-0.5-27.5,3-52.4,10.8
							c-0.6,0.2-1.3,0.4-2,0.6c-2.8,0.7-1.3,10.3,0.9,10.4c-0.3,3.9-0.6,7.9-0.9,11.9c-0.3,4.1-0.7,8.1-1.1,12.1
							c33.2,7.5,66.3,14.9,99.6,22.3c17.5,3.9,35,7.7,52.6,11.5C475.3,1046.9,475.4,1043.9,475.1,1040.6z"/>
						
							<rect x="398.9" y="941.6" transform="matrix(0.2189 -0.9757 0.9757 0.2189 -682.036 1185.3658)" class="st4" width="1" height="154.1"/>
						<path class="st4" d="M394.6,1000c-0.2,0-0.4-0.1-0.4-0.3c-0.1-0.2,0-0.5,0.2-0.7l17.8-9.3c0.2-0.1,0.5,0,0.7,0.2
							c0.1,0.2,0,0.5-0.2,0.7l-17.8,9.3C394.8,1000,394.7,1000,394.6,1000z"/>
						<path class="st4" d="M385.4,995.3c-0.2,0-0.4-0.1-0.4-0.3c-0.1-0.2,0-0.5,0.2-0.7l17.8-9.3c0.2-0.1,0.5,0,0.7,0.2
							c0.1,0.2,0,0.5-0.2,0.7l-17.8,9.3C385.6,995.3,385.5,995.3,385.4,995.3z"/>
					</g>
				</g>
				<g id="pants">
					<path class="st5" d="M443.7,757.5C432.9,813.7,421.6,880.2,408,964c-6.8-0.1-13.5-0.2-20.2-0.3c-20-0.3-40-0.5-59.9-0.8
						c-6.5-0.1-13.1-0.2-19.7-0.3c16.4-75.6,32.7-151.3,49.1-226.9c-4.9-8.7-52.1-82.9-71.7-103.2
						c-27.8,112.1-55.5,224.1-83.3,336.2c-2.7-0.3-7.1-0.8-12.8-1.3c-16.2-1.5-41.9-3.4-61.6-4.8c-10.4-0.7-19.2-1.2-24-1.3
						c21.7-104.9,43.4-209.9,65-314.8c3.3-0.8,5.5-4.1,4.7-7.5l-1.6-7.2c4.7-22.8,9.4-45.6,14.1-68.3c27-2.2,130.3-5,174-4.5
						c22.4,31.4,78.4,108.2,84.6,131.9C451.6,717.2,447.3,738.7,443.7,757.5z"/>
					<path class="st4" d="M214.3,920.4C214.3,920.4,214.3,920.4,214.3,920.4l-101-3.9c-0.3,0-0.5-0.2-0.5-0.5c0-0.3,0.2-0.5,0.5-0.5
						l101,3.9c0.3,0,0.5,0.2,0.5,0.5C214.8,920.2,214.5,920.4,214.3,920.4z"/>
					<path class="st4" d="M318.3,916.1c-0.3,0-0.5-0.2-0.5-0.5c0-0.3,0.2-0.5,0.5-0.5l98.3-4.4c0.3,0,0.5,0.2,0.5,0.5
						c0,0.3-0.2,0.5-0.5,0.5L318.3,916.1C318.3,916.1,318.3,916.1,318.3,916.1z"/>
				</g>
			</g>
		</g>
	</g>
</g>
</svg>
