<?xml version="1.0" encoding="utf-8"?>
<!-- Generator: Adobe Illustrator 22.1.0, SVG Export Plug-In . SVG Version: 6.00 Build 0)  -->
<svg version="1.1" id="general_2_" xmlns="http://www.w3.org/2000/svg" xmlns:xlink="http://www.w3.org/1999/xlink" x="0px" y="0px"
	 viewBox="0 0 685 794.1" style="enable-background:new 0 0 685 794.1;" xml:space="preserve">
<style type="text/css">
	.st0{fill:#D5E0EA;}
	.st1{fill:#FFFFFF;}
	.st2{fill:#FF0036;}
	.st3{fill:#F73D9E;}
	.st4{fill:#003FFF;}
	.st5{fill:#00B7EA;}
	.st6{fill:#1F0D60;}
	.st7{fill:#F714FF;}
	.st8{fill:#00827F;}
</style>
<g id="background_1_">
	<g id="background">
		<circle id="circle" class="st0" cx="88.7" cy="161.2" r="61.8"/>
		<circle id="circle_1_" class="st0" cx="583.3" cy="657" r="19.9"/>
		<path id="semicircle" class="st0" d="M597.6,184.6c-14.8,6.4-31.4,3.7-40.1-7.6c-8.7-11.4-6.9-28.1,3.2-40.7
			c-3.2-4.1-6.3-8.3-9.5-12.4c-20.1,15.3-24,44.5-8.6,64.6c15.3,20.1,44.5,24,64.6,8.6C603.9,192.8,600.7,188.7,597.6,184.6z"/>
		<path id="lines" class="st0" d="M107.8,610.1c-0.1,0-0.2,0-0.3,0c-34.1-3.8-60.2-19.8-68.3-41.8c-2.1-5.7-2.9-11.2-3-16
			c-1.8-0.3-3.2-0.6-4.3-0.9c-11.5-3.3-20.1-10.1-25.6-20.2c-14.1-25.9-2.9-64.3-2.4-65.9c0.5-1.6,2.1-2.5,3.7-2
			c1.6,0.5,2.5,2.1,2,3.7c-0.1,0.4-11,37.7,1.9,61.4c4.7,8.6,12.1,14.4,22,17.3c0.6,0.2,1.5,0.4,2.7,0.6c0.3-4.3,0.9-7.1,1-7.3
			c1-4,6.4-23.8,18.8-24.5c4.8-0.3,9.8,2.5,12.1,6.6c1.7,3,2,6.8,0.9,11c-1.9,6.8-7.5,13.7-13.9,17.4c-4.4,2.5-8.9,3.3-12.9,3.4
			c0.2,4.1,0.9,8.8,2.6,13.5c7.3,19.9,31.5,34.4,63.3,37.9c1.6,0.2,2.8,1.7,2.7,3.3C110.6,608.9,109.3,610.1,107.8,610.1z
			 M56.7,520.3c-0.1,0-0.2,0-0.3,0c-6.3,0.3-11.4,12.1-13.3,20c0,0.1-0.6,2.5-0.8,6.4c3.1-0.1,6.6-0.7,9.9-2.6
			c5.1-2.8,9.6-8.5,11.1-13.7c0.5-1.8,0.9-4.4-0.3-6.4C61.8,521.8,59.1,520.3,56.7,520.3z M546.3,510.2c-1,0-2.1-0.5-2.6-1.5
			c-1.1-1.9-0.5-3,5-13.3c4.2-7.7,11.2-20.8,17-34.6c-10.7-3.2-15.1-11-16.9-16.4c-5-15.1,2-33.6,11.2-39c5.3-3.1,11-1.9,15.6,3.2
			c9,10.1,5.6,28.8-1.5,47.5c2.6,0.2,5.5,0.1,8.6-0.3c22.5-2.6,33.7-25.1,38.4-38.2c0.8-2.3,1.6-4.7,2.3-7.2c-1-0.1-2-0.2-3.1-0.5
			c-13.4-3.4-18.6-20.8-19.1-34.7c-0.4-13.4,3.5-28.4,13.3-31.5c4.2-1.3,8.2-0.3,11.3,3c8.3,8.6,10.2,32.9,5.4,56.4
			c10-3.9,25.6-17.5,48-56.2c0.8-1.4,2.7-1.9,4.1-1.1c1.4,0.8,1.9,2.7,1.1,4.1c-15,26-35.7,55.3-54.7,59.9c-0.9,3.3-1.9,6.6-3,9.8
			c-8.9,24.9-24.3,39.9-43.4,42.1c-4.4,0.5-8.2,0.5-11.6,0.1c-5.7,13.7-12.8,27-17.8,36.2c-2.1,3.8-4.2,7.8-4.7,9.1
			c0,1-0.6,2-1.5,2.5C547.3,510.1,546.8,510.2,546.3,510.2z M565.8,409.8c-1.2,0-2.1,0.4-2.9,0.9c-7.1,4.1-12.5,19.9-8.5,31.9
			c2.2,6.5,6.8,10.8,13.5,12.7c6.6-17.2,10.4-34.4,3.2-42.5C569.1,410.5,567.3,409.8,565.8,409.8z M617.9,349.3
			c-0.5,0-1.1,0.1-1.7,0.3c-5.7,1.8-9.5,12.6-9.1,25.6c0.4,12.7,5,26.7,14.5,29.1c0.9,0.2,1.9,0.4,3.1,0.4c2-9.1,3.1-18.6,3-27.5
			c-0.1-12.4-2.5-22.1-6.4-26.1C620.3,349.9,619.2,349.3,617.9,349.3z"/>
	</g>
</g>
<g id="general_1_">
	<g id="general">
		<g id="window_1_">
			<g id="window">
				<g>
					<rect x="106.3" y="188.5" class="st1" width="380.8" height="272.8"/>
					<path class="st2" d="M487,462.8H106.3c-0.8,0-1.5-0.7-1.5-1.5V188.5c0-0.8,0.7-1.5,1.5-1.5H487c0.8,0,1.5,0.7,1.5,1.5v272.8
						C488.5,462.2,487.8,462.8,487,462.8z M107.8,459.8h377.8V190H107.8V459.8z"/>
				</g>
				<path class="st2" d="M486.9,234.9H106.2c-0.8,0-1.5-0.7-1.5-1.5s0.7-1.5,1.5-1.5h380.7c0.8,0,1.5,0.7,1.5,1.5
					S487.7,234.9,486.9,234.9z"/>
				<path class="st2" d="M135.1,224.1c-7.2,0-13-5.8-13-13s5.8-13,13-13s13,5.8,13,13S142.3,224.1,135.1,224.1z M135.1,201.1
					c-5.5,0-10,4.5-10,10s4.5,10,10,10s10-4.5,10-10S140.6,201.1,135.1,201.1z"/>
				<path class="st2" d="M173.2,224.1c-7.2,0-13-5.8-13-13s5.8-13,13-13s13,5.8,13,13S180.4,224.1,173.2,224.1z M173.2,201.1
					c-5.5,0-10,4.5-10,10s4.5,10,10,10s10-4.5,10-10S178.7,201.1,173.2,201.1z"/>
				<path class="st2" d="M211.3,224.1c-7.2,0-13-5.8-13-13s5.8-13,13-13s13,5.8,13,13S218.5,224.1,211.3,224.1z M211.3,201.1
					c-5.5,0-10,4.5-10,10s4.5,10,10,10s10-4.5,10-10S216.8,201.1,211.3,201.1z"/>
			</g>
			<path id="bubble" class="st2" d="M304.9,375.9c-0.4,0-0.7-0.1-1-0.4c-0.5-0.4-0.6-1.1-0.4-1.7l19.5-44.4
				c-8.9-8.5-13.4-18.3-13-28.5c0.5-12.9,8.9-24.6,23.5-33c14.4-8.3,33.3-12.4,53.2-11.6c41.2,1.7,73.9,24.4,72.9,50.7
				c-0.5,12.9-8.9,24.6-23.5,33c-14.4,8.3-33.3,12.4-53.2,11.6c-10-0.4-19.6-2-28.7-4.8l-48.6,28.9
				C305.4,375.8,305.2,375.9,304.9,375.9z M381.9,259.3c-17.5,0-34,4-46.8,11.3c-13.7,7.9-21.6,18.7-22,30.5
				c-0.4,9.5,4,18.8,12.8,26.9c0.5,0.4,0.6,1.1,0.4,1.7l-18.1,41l45.1-26.8c0.4-0.2,0.8-0.3,1.2-0.1c9,2.8,18.6,4.5,28.5,4.9
				c19.3,0.8,37.6-3.2,51.6-11.2c13.7-7.9,21.6-18.7,22-30.5c1-24.6-30.4-45.9-70-47.5C385.1,259.4,383.5,259.3,381.9,259.3z"/>
			<g id="man">
				<g id="head_1_">
					<path class="st3" d="M276.2,372.4c-0.2,3.7-1.4,14.4-9.7,23.8c-5.2,5.8-10.9,8.7-14.4,10.1c0.5,1.3,0.9,2.6,1.3,3.9
						c3.5,13.1,0.5,25.8-7.8,32.4c-7.8,6.2-18,5.1-21.2,4.7c-2.2-0.2-17-1.9-25.2-14c-4-5.9-5-12.3-5.3-14c-0.5-3.3-0.2-5-0.1-9.8
						c0.2-7.4-0.1-12.7-0.7-21.5c-0.1-1-0.1-2-0.2-3.1c0.1,0,0.2-0.1,0.2-0.1c9.8-4.7,14-16.2,9.9-26.1l0,0
						c3.9-7.2,2.9-18.3,2.1-30.8c-1-16.5-1.5-24.8,0.2-26.5c6.9-7.2,22,4.9,41.8-1.4c8-2.5,13.7-7.1,17-10.3c1.3,3,2.2,6,3,8.9
						C275,326.2,276,359.7,276.2,372.4z"/>
					<path id="nose_2_" d="M252.4,354.9c-0.2,0-0.3-0.1-0.4-0.2c-0.1-0.2-0.1-0.5,0.2-0.7l11.8-7.3l-14.5-20.5
						c-0.2-0.2-0.1-0.5,0.1-0.7c0.2-0.2,0.5-0.1,0.7,0.1l14.8,21c0.1,0.1,0.1,0.3,0.1,0.4s-0.1,0.3-0.2,0.3l-12.3,7.6
						C252.6,354.8,252.5,354.9,252.4,354.9z"/>
					<g id="eyes_1_">
						<circle cx="262.5" cy="326.8" r="3.2"/>
						<circle cx="229.5" cy="332.1" r="3.2"/>
					</g>
					<path id="mouth_1_" d="M252.7,387.8c-0.6,0-1.2-0.1-1.8-0.2c-4.2-0.9-7-4.4-8.3-6.4c-0.1-0.2-0.1-0.5,0.2-0.7
						c0.2-0.1,0.5-0.1,0.7,0.2c1,1.5,3.6,5.1,7.6,6c5,1,8.4-2.9,9.4-4.2c0.2-0.2,0.5-0.3,0.7-0.1c0.2,0.2,0.3,0.5,0.1,0.7
						C260.4,384.2,257.2,387.8,252.7,387.8z"/>
					<g id="brows_1_">
						
							<ellipse transform="matrix(1 -5.867105e-03 5.867105e-03 1 -1.8266 1.5496)" class="st4" cx="263.2" cy="312.1" rx="10" ry="2.5"/>
						
							<ellipse transform="matrix(0.8856 -0.4644 0.4644 0.8856 -122.5803 142.6954)" class="st4" cx="228.4" cy="320.2" rx="10" ry="2.5"/>
					</g>
					<path id="moustache" class="st4" d="M275.2,367.7c0.7,0.7,7.7,7.2,6.1,9.9c-1.1,2-7.1,2-27.1-5.5c-21.5,6.4-27.6,5.9-28.6,3.8
						c-1.3-2.6,5-8.2,7.9-10.4c8.4-6.4,17.9-6.4,21.2-6.2C257.7,359.3,267.4,360.2,275.2,367.7z"/>
					<path d="M239.6,408.8c-12.4,0-21.9-5.8-26.5-9.3c-0.2-0.2-0.3-0.5-0.1-0.7s0.5-0.3,0.7-0.1c4.6,3.5,14.1,9.3,26.6,9.1
						c3.9-0.1,7.9-0.7,11.7-2c0.3-0.1,0.5,0.1,0.6,0.3c0.1,0.3-0.1,0.5-0.3,0.6c-3.9,1.3-7.9,1.9-12,2
						C240.1,408.8,239.8,408.8,239.6,408.8z"/>
					<path id="hair_1_" class="st4" d="M254.6,272.7c-7.8-7.8-16.9-9.6-21-10.4c-17-3.4-37.1,3-50.1,16.2
						c-22.5,22.8-23.6,65.6-4,81.2c3.2,2.5,6.6,4.1,10,5.1c0.5,0.2,1,0.3,1.5,0.4c2.8,0.7,5.5,1,7.8,1.2c0,0,3.8-6.9,4.3-7.7
						c3.9-7.2,2.9-18.3,2.1-30.8c-1-16.5-1.5-24.8,0.2-26.5c6.9-7.2,22,4.9,41.8-1.4c8-2.5,13.7-7.1,17-10.3l0,0
						C263.3,286,260.9,279,254.6,272.7z"/>
					<g id="ear_1_">
						<path class="st3" d="M203,358.7L203,358.7c-0.2-0.4-0.3-0.8-0.5-1.1c-4.9-10.1-17.1-14.4-27.2-9.4
							c-10.1,4.9-14.3,17.1-9.4,27.2c4.9,10,16.9,14.3,27,9.5c0.1,0,0.2-0.1,0.2-0.1C202.9,380.1,207.1,368.6,203,358.7z"/>
						<path d="M193.4,366.6c0,0.2-0.1,0.3-0.2,0.4c0,0-1,0.6-1.8,1.7c-0.4,0.6-0.7,1.2-0.8,2c-0.1,1.2,0.4,2.5,1.5,3.8
							c0.2,0.3,0.5,0.6,0.9,0.9c0.2,0.2,0.2,0.5,0,0.7c-0.1,0.1-0.2,0.2-0.4,0.2s-0.2,0-0.3-0.1l0,0c-1.9-1.8-2.8-3.7-2.6-5.5
							c0.2-1.4,0.9-2.5,1.6-3.3c0.3-0.4,0.7-0.6,0.9-0.8l-1.1-1.2l-11.5-11.8c-0.2-0.2-0.2-0.5,0-0.7s0.5-0.2,0.7,0l12.6,12.9
							l0.5,0.5C193.3,366.3,193.4,366.4,193.4,366.6z"/>
					</g>
				</g>
				<g id="tshirt">
					<path class="st5" d="M364.8,459.8c-85.7,0-171.3,0-257,0c0-6,0-11.9,0-17.9c9-6,20.2-12.3,33.5-18c20-8.5,38.2-12.5,52.5-14.5
						c-0.5,2.8-1,8,0.7,14.1c0.4,1.4,1.7,5.5,4.7,9.8c8.7,12.2,23.7,13.9,25.2,14c3.2,0.4,13.4,1.5,21.2-4.7
						c8.3-6.6,11.3-19.3,7.8-32.4c4.8,0.7,9.8,1.6,14.8,2.7C308.8,421.8,340.9,440.9,364.8,459.8z"/>
					<path class="st6" d="M219.5,446.9h-0.1c-31.9-8.7-26.2-37.2-26.1-37.5c0.1-0.3,0.3-0.4,0.6-0.4c0.3,0.1,0.4,0.3,0.4,0.6
						c-0.2,1.1-5.6,27.9,25.4,36.4c0.3,0.1,0.4,0.3,0.4,0.6C219.9,446.8,219.7,446.9,219.5,446.9z"/>
				</g>
			</g>
			<path id="star" class="st7" d="M393.4,317.9c-0.8,5.1-1.6,10.2-2.4,15.3c-4.6-4-9.2-8-13.7-12c-5.3,2.2-10.5,4.5-15.8,6.7
				c2.1-5.3,4.1-10.7,6.2-16c-5.1-1.2-10.3-2.4-15.4-3.6c5.8-2.9,11.6-5.8,17.3-8.7c-1.4-6.2-2.7-12.4-4.1-18.6
				c5.2,3.8,10.4,7.7,15.6,11.5c3.6-5.4,7.2-10.8,10.9-16.2c0.9,6.1,1.8,12.2,2.8,18.2c6-0.7,11.9-1.5,17.9-2.2
				c-3.7,4.4-7.5,8.9-11.2,13.3c3.7,4.2,7.4,8.5,11.2,12.7C406.2,318.2,399.8,318,393.4,317.9z"/>
		</g>
		<g id="woman">
			<g id="head">
				<path id="hair" d="M359.3,26.4c-3.8-5.4-11.5-16.1-26-20.8c-11.8-3.8-22.2-1.8-27.1-0.5c-4.2-2.4-12.1-6-21.6-4.9
					c-13.2,1.5-21.4,10.9-25.8,16.1c-21.7,25.6-17,60.5-16.1,66.5c1.8,12.1,5.5,21.6,8.3,27.4c38.2-2.5,76.5-5,114.7-7.5
					C367.6,96.9,380.5,56,359.3,26.4z"/>
				<path d="M280.4,68.6c-0.1,0-0.2,0-0.3-0.1L247,47.3c-0.2-0.1-0.3-0.5-0.2-0.7s0.5-0.3,0.7-0.1l33.1,21.3
					c0.2,0.1,0.3,0.5,0.2,0.7C280.7,68.5,280.6,68.6,280.4,68.6z"/>
				<path id="face" class="st2" d="M336.7,70.2c-0.3,0.8-0.6,1.6-0.9,2.3c-2.2,5.5-5.5,10.5-9.4,15c-1.7,11.7-3.3,23.4-5,35.1l0,0
					c-11.9,16.1-23.8,32.1-35.8,48.2c-1.7-15.8-3.3-31.6-5-47.4c0,0,1.6-10.9,2.4-16.3c-3.7-0.3-7.2-1.2-10.3-2.9
					c-18.3-9.5-24.9-44.1-14.4-68.1c0.5-1.2,1.1-2.4,1.7-3.6c2.5,0.2,5.6,0.2,9-0.7c8.6-2.1,13.5-7.9,15.1-9.9
					c0.7,1.3,2.4,4.5,6.1,6.5c6.1,3.3,12.3,0.9,13.2,0.5c0.3,1.6,1.6,6.8,6.5,10.9c5.7,4.7,12.1,4.5,13.5,4.4
					c-6.5,7.5-6.1,17.6-0.9,22.7C327.9,72,336,70.4,336.7,70.2z"/>
				<path id="mouth" d="M281.4,94.5c-2.8,0-5.7-1.2-7.8-3.4c-0.1-0.1-0.2-0.3-0.1-0.4c0-0.2,0.1-0.3,0.3-0.4l16.9-8.5
					c0.1-0.1,0.3-0.1,0.5,0c0.1,0.1,0.2,0.2,0.3,0.4c0.7,5.2-2.3,10.3-7,11.8C283.4,94.3,282.4,94.5,281.4,94.5z M274.8,90.9
					c2.6,2.3,6.1,3.2,9.2,2.2c4.1-1.3,6.7-5.5,6.4-10.1L274.8,90.9z"/>
				<path id="nose" d="M280,73.9c-0.1,0-0.2,0-0.2-0.1l-8.5-4.4c-0.2-0.1-0.3-0.4-0.2-0.6l8.1-23.8c0.1-0.3,0.4-0.4,0.6-0.3
					c0.3,0.1,0.4,0.4,0.3,0.6l-8,23.4l8.1,4.2c0.2,0.1,0.3,0.4,0.2,0.7C280.4,73.8,280.2,73.9,280,73.9z"/>
				<path d="M282.7,108c-0.8,0-1.7,0-2.5-0.1c-0.3,0-0.5-0.2-0.5-0.5s0.2-0.5,0.5-0.5c4.3,0.2,8.7-0.1,12.9-0.9
					c4-0.7,7.9-1.9,11.6-3.5c0.3-0.1,0.5,0,0.7,0.3c0.1,0.3,0,0.5-0.3,0.7c-3.8,1.6-7.8,2.8-11.8,3.6
					C289.8,107.7,286.2,108,282.7,108z"/>
				<g id="brows">
					<ellipse transform="matrix(0.9916 -0.129 0.129 0.9916 -2.9087 34.0894)" cx="261.7" cy="39.5" rx="7.5" ry="2.2"/>
					<ellipse transform="matrix(0.3251 -0.9457 0.9457 0.3251 162.8231 312.0059)" cx="300" cy="41.9" rx="2.2" ry="7.5"/>
				</g>
				<g id="ear">
					<path class="st2" d="M340,62.4c-3.7-1.5-7.7-1.5-11.2,0c-0.4,0.1-0.7,0.3-1.1,0.5c-3,1.5-5.5,4.1-6.9,7.5
						c-3.1,7.5,0.4,16.1,7.9,19.2c7.5,3.1,16.1-0.4,19.2-7.9C351,74.1,347.5,65.5,340,62.4z"/>
					<path d="M326.6,82c-0.2,0-0.4-0.1-0.5-0.4s0.1-0.5,0.3-0.6c0.4-0.1,2.2-0.8,2.9-2.5c0.7-1.9-0.2-4.3-2.2-5.6
						c-0.2-0.1-0.2-0.3-0.2-0.5s0.1-0.3,0.3-0.4l12.5-5.4c0.3-0.1,0.5,0,0.7,0.3c0.1,0.3,0,0.5-0.3,0.7l-11.7,5.1
						c1.9,1.6,2.7,4.1,1.9,6.2c-0.8,2.1-2.9,2.9-3.5,3.1C326.7,82,326.6,82,326.6,82z"/>
				</g>
				<circle id="earring" class="st4" cx="330" cy="89.3" r="5.4"/>
				<g id="glasses">
					<circle class="st5" cx="295.8" cy="55.9" r="14.5"/>
					<circle class="st5" cx="259.5" cy="54.4" r="14.5"/>
					<path d="M284.5,50.7c-0.1,0-0.2,0-0.3-0.1c-1.2-1.1-3.5-2.9-6.6-2.9c-2.7,0-5.3,1.5-6.2,2c-0.2,0.1-0.4,0.2-0.5,0.3
						c-0.2,0.1-0.5,0.1-0.7-0.2c-0.1-0.2-0.1-0.5,0.2-0.7c0.1-0.1,0.3-0.2,0.6-0.3c0.9-0.5,3.8-2.1,6.7-2.2c3.4,0,6,1.9,7.3,3.1
						c0.2,0.2,0.2,0.5,0,0.7S284.6,50.7,284.5,50.7z"/>
					<path d="M328.7,61.9c-0.4,0.1-0.7,0.3-1.1,0.5l-18.9-12.2c-0.2-0.2-0.3-0.5-0.1-0.7c0.1-0.2,0.5-0.3,0.7-0.2L328.7,61.9z"/>
					<path class="st1" d="M265.5,68.1C265.4,68.1,265.4,68.1,265.5,68.1c-6.5-1.2-10-3.2-11-6.2c-0.8-2.3,0.3-4.5,1.3-6.6
						c1-2,2-4.2,1.4-6.4c-0.6-2.3-2.7-4.3-6.3-5.9c-0.3-0.1-0.4-0.4-0.3-0.7c0.1-0.3,0.4-0.4,0.7-0.3c3.9,1.7,6.2,3.9,6.9,6.5
						s-0.4,4.9-1.5,7.1c-1,2-1.9,3.9-1.3,5.8c0.8,2.6,4.3,4.5,10.2,5.6c0.3,0.1,0.5,0.3,0.4,0.6C265.9,68,265.7,68.1,265.5,68.1z"/>
					<path class="st1" d="M302.8,69.1L302.8,69.1c-6.1-0.8-9.6-2.5-10.8-5.3c-0.9-2.2,0-4.5,0.8-6.7c0.8-2.1,1.7-4.3,1-6.5
						c-0.8-2.4-3.2-4.3-7.2-5.6c-0.3-0.1-0.4-0.4-0.3-0.6c0.1-0.3,0.4-0.4,0.6-0.3c4.3,1.4,7,3.5,7.9,6.2c0.9,2.6-0.1,4.9-1,7.2
						c-0.8,2.1-1.6,4-0.8,5.9c1,2.4,4.3,4,9.9,4.7c0.3,0,0.5,0.3,0.4,0.6C303.3,68.9,303.1,69.1,302.8,69.1z"/>
				</g>
				<g id="eyes">
					<circle cx="301.9" cy="55.1" r="2.2"/>
					<circle cx="265.6" cy="53.6" r="2.2"/>
				</g>
			</g>
			<g id="dress_1_">
				<g id="dress">
					<path class="st7" d="M214,161.8c-0.2,5.9-0.4,14.5-0.7,25.2h1c0.3-11.3,0.6-20.2,0.8-26.2C214.7,161.2,214.4,161.5,214,161.8z
						 M432.6,618.6c0-0.3-0.1-0.5-0.1-0.8l-24.1-1c0.9-16,1.8-35.2,2.7-56.4l14.5,0.6c0-0.3-0.1-0.7-0.1-1l-14.3-0.6
						c0.8-17.6,1.5-36.5,2.3-56.4l5.6,0.2c0-0.3-0.1-0.7-0.1-1l-5.5-0.2c0.5-12.7,1-25.7,1.5-39v-0.1h-1c-0.5,13.3-1,26.3-1.5,39
						l-50-2c0.5-12,0.9-24.4,1.4-37h-1c-0.5,12.6-0.9,24.9-1.4,36.9l-50.2-2c0.4-11.3,0.9-23,1.3-34.9h-1
						c-0.5,11.9-0.9,23.5-1.3,34.9l-53.6-2.2c0.4-10.7,0.8-21.6,1.2-32.7h-1c-0.4,11.1-0.8,22-1.2,32.6l-51.4-2.1
						c0.4-10,0.8-20.2,1.1-30.5h-1c-0.4,10.3-0.8,20.5-1.1,30.5l-18.9-0.8c0,0.3-0.1,0.7-0.1,1l19,0.8c-0.7,19.8-1.5,38.8-2.2,56.4
						l-20.5-0.8c0,0.3,0,0.7-0.1,1l20.5,0.8c-0.4,8.7-0.7,17-1.1,24.9c0.3,0.1,0.7,0.2,1,0.3c0.4-8,0.7-16.4,1.1-25.2l51.4,2.1
						c-0.8,17.1-1.5,32.7-2.2,46.4c0.3,0.2,0.6,0.4,1,0.6c0.7-13.8,1.4-29.6,2.2-46.9l53.6,2.2c-0.9,21.5-1.9,40.6-2.7,56.4
						l-37.4-1.5c0.5,0.4,1,0.7,1.5,1.1l35.8,1.5c-0.5,9-1,16.8-1.4,23.4c0.3,0.2,0.6,0.4,1,0.6c0.5-6.6,1-14.7,1.5-23.9l50.2,2
						c-0.5,8.6-0.9,16.3-1.4,22.8c0.4-0.3,0.7-0.6,1.1-0.8c0.4-6.3,0.9-13.7,1.3-21.9l50.1,2c-0.4,6.8-0.7,13.1-1.1,18.7
						c0.3,0.2,0.6,0.3,1,0.5c0.4-5.7,0.7-12.1,1.1-19.2l24.2,1C432.6,618.7,432.6,618.6,432.6,618.6z M362.4,500.8l50,2
						c-0.8,19.9-1.5,38.9-2.3,56.4l-50-2C360.9,539.8,361.6,520.8,362.4,500.8z M311.2,498.7l50.2,2c-0.8,19.9-1.6,38.9-2.3,56.4
						l-50.2-2C309.6,537.7,310.4,518.7,311.2,498.7z M253.3,552.9l-51.4-2.1c0.7-17.6,1.5-36.6,2.2-56.4l51.5,2.1
						C254.9,516.4,254.1,535.4,253.3,552.9z M254.3,552.9c0.8-17.5,1.5-36.5,2.3-56.4l53.6,2.2c-0.8,20-1.6,39-2.3,56.4L254.3,552.9
						z M356.3,614.6l-50.2-2c0.9-15.8,1.8-34.9,2.7-56.4l50.2,2C358.1,579.6,357.2,598.7,356.3,614.6z M407.4,616.7l-50-2
						c0.9-15.9,1.8-35,2.7-56.4l50,2C409.2,581.5,408.3,600.7,407.4,616.7z M387.5,155.6L374,155c0.1-3.4,0.2-6.6,0.3-9.6
						c-0.3-0.2-0.6-0.5-1-0.7c-0.1,3.2-0.2,6.6-0.3,10.2l-31.2-1.3l-19-0.8c0.4-12.5,0.7-22.6,0.9-29.9l0,0c-0.3-0.1-0.7-0.2-1-0.2
						c-0.2,7.3-0.5,17.5-0.9,30.1l-21.7-0.9h-0.6h-0.6l-0.7,1h0.6h0.6l22.4,0.9c-0.1,4.8-0.3,9.9-0.5,15.3
						c-0.2,5.6-0.3,11.5-0.5,17.7h1c0.2-6.5,0.4-12.7,0.6-18.5c0.2-5.1,0.3-9.9,0.4-14.5l17.7,0.7l32.5,1.3
						c-0.3,9.1-0.6,19.5-0.9,31h1c0.4-11.4,0.7-21.8,0.9-30.9l14.7,0.6C388.4,156.3,388,156,387.5,155.6z M284.1,151.4h-0.5h-0.5
						l-14.9-0.6c0.3-10.2,0.5-18.3,0.7-24l0,0c-0.3,0.1-0.7,0.2-1,0.4l0,0c-0.2,5.6-0.4,13.6-0.7,23.6l-8.7-0.3l-29.5-1.2
						c-0.4,0.3-0.8,0.6-1.2,1l31.1,1.3l8.3,0.3c-0.2,5.8-0.4,12.2-0.6,19.3c-0.2,5.1-0.3,10.4-0.5,16h1c0.2-4.7,0.3-9.3,0.4-13.6
						c0.2-7.9,0.5-15.2,0.6-21.6l15,0.6h0.5h0.5L284.1,151.4z"/>
					<path class="st5" d="M362.6,138.1c-14,10.6-28,21.2-42,31.8c-7.5,5.7-15,11.4-22.5,17.1c-8.3,0-16.7,0-25,0
						c-2.6-6.3-5.1-12.7-7.6-19.1c-4.5-11.3-8.9-22.5-13.2-33.7c9.1-4.8,18.6-8.6,28.5-10.9c1.7,15.8,3.3,31.6,5,47.4
						c11.9-16.1,23.8-32.1,35.8-48.2c1.3,0.3,2.7,0.6,4,0.9C338.8,126.4,351.3,131.6,362.6,138.1z"/>
					<path class="st6" d="M317.3,129l-17.1,23.1l-0.7,1l-13.4,18c-0.1,0.1-0.2,0.2-0.4,0.2h-0.1c-0.2,0-0.3-0.2-0.4-0.4l-2-18.4
						l-0.1-1l-2.3-21.6c0-0.3,0.2-0.5,0.4-0.5c0.3,0,0.5,0.2,0.5,0.5l2.3,21.7l0.1,1l1.8,17l12.2-16.4l0.7-1l17.5-23.6
						c0.2-0.2,0.5-0.3,0.7-0.1C317.4,128.5,317.5,128.8,317.3,129z"/>
				</g>
			</g>
			<g id="legs">
				<path id="leg_r" class="st2" d="M440.2,681.4c-0.2,0-0.4,0-0.6,0l-57,2.9c-0.4,0-0.8,0.1-1.1,0.2c-4.8-14.4-9.3-29.5-13.5-45.3
					c-0.6-2.4-1.3-4.9-1.9-7.3c1.6-0.5,3.3-1,5.3-1.4c25.1-4.8,49.5,13.1,66.1,28.8C438.3,665.9,439.2,673.3,440.2,681.4z"/>
				<path id="leg_l" class="st2" d="M248.9,599c-7.5,37.6-12.1,62.5-15.2,79.3c-0.5-0.2-1.1-0.3-1.6-0.3l-57-2.3c-0.1,0-0.2,0-0.3,0
					c0.8-23.8,2.5-59.7,4.5-104.7c10.9,2.6,28.6,7.5,49,17.1C235.7,591.5,242.5,595.2,248.9,599z"/>
				<path class="st8" d="M229.7,701.1c-0.2,1.2-0.4,2.3-0.6,3.6C229.3,703.4,229.5,702.3,229.7,701.1z"/>
				<g id="shoes">
					<g id="shoe_r">
						<path class="st4" d="M513.1,783.1c-1.1-5.1-3.1-10.5-6.9-15.4c-13-16.6-31-6.5-46.3-22.5c-12.2-12.7-15.6-34.4-18.2-52.3
							c2.5-0.8,4.3-3.2,4.2-6c-0.1-3.1-2.6-5.5-5.6-5.7c-0.2,0-0.4,0-0.6,0l-57,2.9c-0.4,0-0.8,0.1-1.1,0.2
							c-2.7,0.7-4.7,3.2-4.6,6.1c0.2,3.3,3,5.8,6.3,5.7l1.2-0.1c0.5,2.8,1,5.6,1.4,8.4c0.2,1.1,0.4,2.3,0.6,3.6
							c0.6,3.5,1.2,6.9,1.8,10.4c0.1,0.8,0.3,1.7,0.4,2.5c0.8,4.4,1.5,8.9,2.3,13.3c0.1,0.6,0.2,1.2,0.3,1.9v0.1
							c0.1,0.8,0.2,1.5,0.4,2.2c0.6,3.4,1.1,6.7,1.7,10c0.1,0.3,0.1,0.6,0.2,0.9c0.1,0.6,0.2,1.2,0.3,1.8c0.3,1.8,0.6,3.6,0.9,5.4
							c0.6,3.7,1.2,7.3,1.9,11c4.3,1.2,8.6,2.4,13,3.7c1.1-3.7,2.4-7.5,4.1-10.4c2.3-4.3,5.2-6.9,8.5-5c2.6,1.5,4.6,4.5,6,8.2
							c1.5,3.9,2.4,8.6,3,12.9c2.5,0.6,5.1,1.3,7.7,1.9c26.3,6.4,51.5,11.3,75.4,15.2C514.2,790.9,513.9,787.1,513.1,783.1z"/>
						<path class="st6" d="M413.5,761.4h-0.1l-18.9-4.2c-0.3-0.1-0.4-0.3-0.4-0.6c0.1-0.3,0.3-0.4,0.6-0.4l18.9,4.2
							c0.3,0.1,0.4,0.3,0.4,0.6S413.8,761.4,413.5,761.4z"/>
						<path class="st6" d="M513.1,783.6L513.1,783.6l-85.1-19c-0.3-0.1-0.4-0.3-0.4-0.6s0.3-0.4,0.6-0.4l85,19
							c0.3,0.1,0.4,0.3,0.4,0.6C513.5,783.5,513.3,783.6,513.1,783.6z"/>
						<path class="st6" d="M405.6,683.6c-0.3,0-0.5-0.2-0.5-0.5s0.2-0.5,0.5-0.5l33.9-1.7c0.3,0,0.5,0.2,0.5,0.5s-0.2,0.5-0.5,0.5
							L405.6,683.6C405.7,683.6,405.7,683.6,405.6,683.6z"/>
					</g>
					<g id="shoe_l">
						<path class="st4" d="M233.7,678.2c-0.5-0.2-1.1-0.3-1.6-0.3l-57-2.3c-0.1,0-0.2,0-0.3,0c-3.1,0.1-5.7,2.6-5.9,5.7
							c-0.1,3.2,2.3,5.9,5.4,6.2c-0.8,12.4-4,39.1-18.8,53.9c-16,16-33.4,5.7-46.5,22.2c-3.8,4.8-5.9,10.1-7,15.2
							c-0.9,4-1.1,7.9-1.2,11.1c23.9-3.7,49.1-8.6,75.4-14.8c2.2-0.5,4.5-1.1,6.7-1.6c0.8-4,1.9-8.4,3.5-12.2
							c1.9-4.6,4.3-8.4,7.6-9.9c3.7-1.7,6.5,1.6,8.5,6.6c1.2,2.9,2.1,6.4,2.8,9.8c4.5-1.2,8.9-2.4,13.3-3.7c0.6-3.3,1.1-6.6,1.7-9.9
							c0.4-2.2,0.8-4.3,1.1-6.5c0.1-0.6,0.2-1.2,0.3-1.8c0-0.3,0.1-0.6,0.2-0.9c0.6-3.3,1.2-6.7,1.8-10c0.1-0.7,0.3-1.5,0.4-2.2
							c0,0,0,0,0-0.1c0.1-0.6,0.2-1.2,0.3-1.9c0.8-4.4,1.6-8.9,2.3-13.3c0.1-0.8,0.3-1.7,0.4-2.5c0.6-3.5,1.2-7,1.8-10.4
							c0.2-1.2,0.4-2.4,0.6-3.6l2-11.2c3.3,0.1,6-2.5,6.2-5.7C238,681.4,236.2,679,233.7,678.2z"/>
						<path class="st6" d="M202.6,758.5c-0.2,0-0.4-0.2-0.5-0.4c-0.1-0.3,0.1-0.5,0.4-0.6l17.8-3.7c0.3-0.1,0.5,0.1,0.6,0.4
							c0.1,0.3-0.1,0.5-0.4,0.6l-17.8,3.7C202.7,758.5,202.6,758.5,202.6,758.5z"/>
						<path class="st6" d="M102.1,779.4c-0.2,0-0.4-0.2-0.5-0.4c-0.1-0.3,0.1-0.5,0.4-0.6l84.5-17.5c0.3-0.1,0.5,0.1,0.6,0.4
							c0.1,0.3-0.1,0.5-0.4,0.6l-84.5,17.5C102.1,779.4,102.1,779.4,102.1,779.4z"/>
						<path class="st6" d="M228,678.3L228,678.3l-34.9-1.4c-0.3,0-0.5-0.2-0.5-0.5s0.2-0.5,0.5-0.5l34.9,1.4c0.3,0,0.5,0.2,0.5,0.5
							C228.5,678,228.2,678.3,228,678.3z"/>
					</g>
				</g>
			</g>
			<g id="hands">
				<g id="hand_l">
					<path class="st2" d="M140.6,372.2l-1,0.1c1.8,0.8,3.1,2.6,3.2,4.7c0.1,3.1-2.4,5.9-5.7,6.2l-1.4,0.1c0.8,0.5,2.3,1.6,2.6,3.4
						c0,0,0.4,1.9-1.4,4.3c-2.4,3.1-16.8,5.3-31.2,3.9C92,393.6,78.2,389,74.9,379c-1.4-4.3-1.1-10.4,0.5-15.5
						c2.1-6.7,6.1-10.8,7.7-12.4c8.1-8.1,18.2-9.4,21.6-9.7c0,2,0,3.9,0,5.9c0,2.2,0,4.4,0,6.5c3.7-0.5,33.2-4.4,37.1-0.6
						c1.3,1.3,1.5,2.7,1.5,2.7c0.3,2.4-1.9,4.4-2.6,5c3,0,5.5,2.3,5.6,5.2C146.3,369.2,143.8,371.9,140.6,372.2z"/>
					<path d="M109.6,365.7c-0.2,0-0.5-0.2-0.5-0.4c0-0.3,0.2-0.5,0.4-0.6l31-4.3c0.3,0,0.5,0.2,0.6,0.4c0,0.3-0.2,0.5-0.4,0.6
						L109.6,365.7C109.7,365.7,109.7,365.7,109.6,365.7z"/>
					<path d="M110.5,376.3c-0.2,0-0.5-0.2-0.5-0.4c0-0.3,0.2-0.5,0.4-0.6l29.1-3.5c0.3,0,0.5,0.2,0.6,0.4c0,0.3-0.2,0.5-0.4,0.6
						L110.5,376.3C110.6,376.3,110.5,376.3,110.5,376.3z"/>
					<path d="M111.6,386c-0.3,0-0.5-0.2-0.5-0.5s0.2-0.5,0.5-0.5l24-2.2c0.3,0,0.5,0.2,0.5,0.5s-0.2,0.5-0.5,0.5L111.6,386
						L111.6,386z"/>
				</g>
				<g id="hand_r">
					<path class="st2" d="M452.7,313l0.9,0.2c-1.9,0.7-3.3,2.3-3.5,4.4c-0.4,3.1,2,6.1,5.1,6.6l1.4,0.2c-0.9,0.4-2.4,1.4-2.9,3.1
						c0,0-0.5,1.9,1,4.4c2.1,3.3,16.3,6.6,30.8,6.4c13.8-0.2,27.9-3.6,32-13.3c1.9-4.7,2.5-10.5,0.8-15.5c-0.9-2.7-2.6-5.6-7.5-10.2
						c-4.2-3.9-11.4-9.6-22.3-14.2c-0.1,1.2-0.1,2.4-0.2,3.7c-0.1,2.9-0.2,5.6-0.2,8.4c-7.6-0.7-13.7-1.9-17.8-2.8
						c-7.6-1.7-13.5-3.7-16.8-0.6c-1,0.9-1.5,2-1.7,2.8c-0.1,0.4-0.6,1.8,0.1,3.3c0.4,1,1.1,1.7,1.5,1.9c-3-0.2-5.6,1.8-6,4.7
						C447.2,309.5,449.5,312.5,452.7,313z"/>
					<path d="M484.1,309H484l-30.6-6.9c-0.3-0.1-0.4-0.3-0.4-0.6c0.1-0.3,0.3-0.4,0.6-0.4l30.6,6.9c0.3,0.1,0.4,0.3,0.4,0.6
						C484.5,308.9,484.3,309,484.1,309z"/>
					<path d="M482.3,319.5h-0.1l-28.7-5.9c-0.3-0.1-0.4-0.3-0.4-0.6c0.1-0.3,0.3-0.4,0.6-0.4l28.7,5.9c0.3,0.1,0.4,0.3,0.4,0.6
						C482.7,319.4,482.5,319.5,482.3,319.5z"/>
					<path d="M480.4,329.1L480.4,329.1l-23.9-4.2c-0.3,0-0.5-0.3-0.4-0.6c0-0.3,0.3-0.5,0.6-0.4l23.8,4.2c0.3,0,0.5,0.3,0.4,0.6
						C480.9,329,480.7,329.1,480.4,329.1z"/>
				</g>
			</g>
		</g>
	</g>
</g>
</svg>
