<?xml version="1.0" encoding="utf-8"?>
<!-- Generator: Adobe Illustrator 22.1.0, SVG Export Plug-In . SVG Version: 6.00 Build 0)  -->
<svg version="1.1" id="Слой_1" xmlns="http://www.w3.org/2000/svg" xmlns:xlink="http://www.w3.org/1999/xlink" x="0px" y="0px"
	 viewBox="0 0 989.9 728.6" style="enable-background:new 0 0 989.9 728.6;" xml:space="preserve">
<style type="text/css">
	.st0{fill:#D4DFEB;}
	.st1{fill:#FFFFFF;}
	.st2{fill:#FFB800;}
	.st3{fill:#8C1DF1;}
	.st4{fill:#D5E0EA;}
	.st5{fill:#FF1EAD;}
	.st6{fill:#290060;}
	.st7{fill:#1F0D60;}
</style>
<g id="background_1_">
	<g id="background">
		<circle id="circle" class="st0" cx="791.3" cy="594.3" r="90.4"/>
		<g id="window">
			<path class="st1" d="M803.5,592.7c-24.2,4.3-48.5,8.5-72.8,12.8l0,0c-45.7,8-91.3,16-137,24.1c-32.1,5.7-64.3,11.3-96.4,17
				c0-0.4-0.1-0.8-0.1-1.3c-102.4,16.9-204.6,34.6-306.6,53.3c-21.7,4-43.3,8-65,12C96.8,716,68,721.5,39.2,727
				c0.2-1.3,0.4-2.6,0.6-3.9c1.6-10.1,3.1-20.3,4.7-30.4c3.5-22.6,7-45.1,10.5-67.7c10.1-66.1,20.3-132.2,30.5-198.3
				c4.9-31.6,9.8-63.2,14.7-94.8c3.2-20.5,6.3-41.1,9.5-61.6c4.1-26.6,8.2-53.2,12.3-79.9c1.4-9,2.8-18.1,4.2-27.2
				c11.9,0.5,23.8,1.1,35.7,1.6c19.8,0.9,39.5,1.8,59.3,2.6c12.2,0.5,24.4,1.1,36.6,1.6c5.2,0.2,10.4,0.5,15.5,0.7l0,0
				c6.2,0.3,12.5,0.6,18.7,0.8c8.1,0.4,16.2,0.7,24.2,1.1c3.7,0.2,7.4,0.3,11,0.5h0.1c4,0.2,8.1,0.4,12.2,0.5
				c5.3,0.2,10.6,0.5,15.9,0.7c6.4,0.3,12.7,0.6,19.1,0.9c0.6,0,1.3,0.1,1.9,0.1c0.4,0,0.7,0,1,0c44.1,2,88.2,3.9,132.3,5.9
				c16.6,0.8,33.2,1.5,49.8,2.2c7,0.3,13.9,0.6,20.9,0.9c19.1,0.9,38.3,1.7,57.4,2.6l0,0c15.1,0.7,30.1,1.4,45.2,2
				c6,20.2,12,40.5,18,60.7l0,0c1.4,4.8,2.8,9.5,4.2,14.3l0,0c3,10,6,20,8.9,30c8.8,29.8,17.7,59.6,26.6,89.3l0,0
				c3,10,6,20.1,9,30.1c2.7,9.2,5.5,18.3,8.2,27.5C773.2,491.1,788.3,541.9,803.5,592.7z"/>
			<path class="st2" d="M39.2,728.5c-0.4,0-0.8-0.1-1-0.4c-0.4-0.3-0.5-0.8-0.4-1.3l0.6-3.9c1.6-10.1,3.1-20.3,4.7-30.4
				c0-0.1,0-0.1,0-0.2c3.2-20.7,6.4-41.3,9.6-62l0.9-5.5c0.1-0.8,0.9-1.4,1.7-1.3c0.8,0.1,1.4,0.9,1.3,1.7l-0.9,5.5
				c-3.2,20.7-6.4,41.5-9.6,62.2c0,0.1,0,0.1,0,0.2c-1.6,10.1-3.1,20.2-4.7,30.3l-0.3,1.8c27.9-5.4,56.3-10.8,84.3-16
				c22-4.1,43.9-8.2,65-12c101.1-18.5,204.3-36.5,306.6-53.3h0.2c0.8-0.1,1.6,0.5,1.7,1.3s-0.5,1.6-1.3,1.7h-0.2
				c-102.3,16.8-205.4,34.8-306.6,53.3c-21.1,3.9-42.9,7.9-65,12C97,717.6,68,723.1,39.4,728.6C39.3,728.5,39.2,728.5,39.2,728.5z"
				/>
			<path class="st2" d="M497.4,646.7c-0.7,0-1.4-0.5-1.5-1.2c-0.1-0.8,0.4-1.6,1.2-1.7l304.4-52.3l-44.8-150.9
				c-2.7-9.2-5.5-18.4-8.2-27.5l-9-30.1c0-0.1-0.1-0.3-0.1-0.4c0-0.8,0.7-1.5,1.5-1.5c0.7,0,1.3,0.5,1.5,1.2l8.9,30
				c2.7,9.2,5.5,18.3,8.2,27.5l45.3,152.5c0.1,0.4,0.1,0.9-0.2,1.2c-0.2,0.4-0.6,0.6-1,0.7l-306.1,52.5
				C497.5,646.7,497.5,646.7,497.4,646.7z"/>
			<path class="st2" d="M702,247.6c-0.7,0-1.3-0.5-1.5-1.2c-5-16.5-14.9-47.1-18.4-56.8c-14.7-0.7-29.4-1.3-44.1-2l-80.5-3.5
				c-15.9-0.7-31.8-1.4-47.7-2.1c-44.1-2-88.2-3.9-132.3-5.9c-0.8,0-1.5-0.7-1.4-1.6c0-0.8,0.7-1.5,1.6-1.4
				c44.1,2,88.2,3.9,132.3,5.9c15.9,0.7,31.8,1.4,47.7,2.1l80.5,3.6c15.1,0.7,30.1,1.4,45.2,2c0.6,0,1.1,0.4,1.3,1
				c3.2,8.7,13.5,40.6,18.8,58c0,0.1,0.1,0.3,0.1,0.4C703.5,246.9,702.8,247.6,702,247.6z"/>
			<path class="st2" d="M85.5,428.2c-0.1,0-0.2,0-0.2,0c-0.8-0.1-1.4-0.9-1.3-1.7l14.6-94.8c3.2-20.5,6.3-41.1,9.5-61.6l16.5-107
				c0.1-0.8,0.8-1.3,1.5-1.3l35.7,1.6c19.8,0.9,39.5,1.8,59.3,2.6c0.8,0,1.5,0.7,1.4,1.6c0,0.8-0.7,1.5-1.6,1.4
				c-19.8-0.9-39.5-1.8-59.3-2.6l-34.4-1.5l-16.3,105.7c-3.2,20.5-6.4,41.1-9.5,61.6L86.8,427C86.9,427.7,86.3,428.2,85.5,428.2z"/>
		</g>
		<g id="pattern_1_">
			<path class="st3" d="M664.5,244.8c-9.5,12.7-19,25.5-28.4,38.2c-9.7-7.3-26.1-21.5-38.8-44.5c-11.9-21.5-15.4-41.5-16.6-53.3
				c9.5,0.4,18.9,0.8,28.4,1.3c9.7,0.4,19.4,0.9,29.1,1.3c0.1,0.8,0.3,1.6,0.4,2.4c1.4,7.3,3.8,16.5,8.2,26.4
				C652.4,228.9,659.1,238.3,664.5,244.8z"/>
			<path class="st3" d="M479.8,226.1c5.1,39.8-12.8,77.6-46,90.5s-72-2.9-95-35.8c-12.1,4.7-24.2,9.4-36.3,14.1
				c22.7,58.6,89.7,88.1,148.3,65.4s88.1-89.7,65.4-148.3C504,216.7,491.9,221.4,479.8,226.1z"/>
			<path class="st3" d="M189.4,562.3c-9.1-15.3-18.1-30.6-27.2-45.9c9.4-9.2,17.2-19.4,23.4-30.1c19.7-34.3,22.6-74.4,3.6-106.4
				c-12.6-21.3-31-31.6-37.7-35.2c-20.9-11.3-40.4-12.5-49.8-12.5c0.6-3.7,4.2-27.5,4.8-31.2c2.4-15.2,4.6-29.5,4.7-30.4
				c45.4,6.1,79.6,20.9,96.1,34c10.7,8.5,19.6,18.5,19.6,18.5c6.5,7.3,12.4,15.3,17.5,24C288.4,421.2,263.6,518.4,189.4,562.3z"/>
			<path class="st3" d="M760.4,557.4c-2.1,6.3-5.1,13.9-9.7,22c-2.5,4.5-7,11.6-13.7,19.4c-1.6,1.9-3.1,3.4-4.1,4.5
				c-18,3.1-35.9,6.2-53.9,9.2c-29.6,5.1-59.2,10.2-88.8,15.2c-0.7-0.3-1.3-0.7-2-1.1c-1-0.5-1.9-1.1-2.8-1.6
				c-0.9-0.5-1.8-1-2.8-1.6c-9.9-6.1-31.2-21.1-45.4-49.1c-2.9-5.8-18.4-37.5-11.3-76.8c1-5.2,2.3-10.4,4-15.6
				c13.1,4.3,26.1,8.5,39.2,12.8c-0.4,4.7-0.4,9.5-0.1,14.1c2,36.7,22.2,68.5,54,78.9c35.8,11.7,75.9-7.3,98.4-43.3
				C734.3,548.8,747.4,553.1,760.4,557.4z"/>
			<path class="st3" d="M756.5,440.2c-5-0.3-22.9-1.6-37.6-11.7c-6.9-4.7-12.1-10.7-12.5-11.1c-3.1-3.6-5.8-7.5-8.2-11.9
				c6.6-3.5,13.2-7.1,19.8-10.6c2.7,3.1,6.8,7,12.6,10.6c6.8,4.2,13.3,6.1,17.6,7c0.8,2.7,3.4,11.5,4.2,14.1
				C753.2,429.1,755.8,437.7,756.5,440.2z"/>
			<path class="st3" d="M160.9,166.4c-2.3,3-5.5,6.7-9.9,10.3c-2.3,1.9-6,4.7-10.9,7.3c-3.8,2-9.3,4.5-16.4,6.2
				c1.3-8.4,2.6-16.8,3.9-25.3C138.6,165.4,149.7,165.9,160.9,166.4z"/>
			<path class="st3" d="M56.6,716.9c-4,2.2-8.3,3.7-8.3,3.7c-2.7,1-5.1,1.7-7,2.1c0.8-5.2,1.7-10.8,2.5-16c0.7-4.5,1.6-10,2.3-14.6
				c3.6-2.7,12.1-9.8,16.8-22.3c5.6-14.9,2.2-27.8,0.9-31.9c0.9-0.5,1.7-0.9,2.6-1.4c5.7-3.1,11.5-6.2,17.2-9.3
				c3.5,6.5,5.8,13.3,6.9,20.3C95,674.7,82.1,703.2,56.6,716.9z"/>
		</g>
		<path class="st4" d="M33.3,147.2c-1.9,0-3.8-0.1-5.7-0.4C9.4,143.9,0.7,128,0.4,127.3c-0.8-1.5-0.2-3.3,1.2-4.1
			c1.5-0.8,3.3-0.2,4.1,1.2c0.1,0.1,7.8,14,22.9,16.4c12.3,1.9,26.3-3.9,41.5-17.5c-10.7-11.8-15.7-29-12.1-44.2
			c0.6-2.3,5.9-22.7,22.7-28.3c4-1.3,7.4-1.2,10.1-0.8c5.9,0.8,13.6,5.7,16.6,14.9c3.5,10.8,1.3,29.6-28.6,58.5
			c0.8,0.6,1.6,1.3,2.4,1.8c21.4,14.9,50.4,1.5,56-1.4c7.1-3.6,15.1-8.9,23-15.3c-5.6-9.4-8.9-23.8-4.7-41.9
			c3.7-15.8,14.9-35.5,28.5-41c5.9-2.4,11.8-1.9,17,1.5c3.3,2.1,7.2,6.8,6.6,16.9c-1,18.5-15.5,45-39.2,65.7
			c0.4,0.5,0.8,0.9,1.3,1.4c10.2,10,27.7,11.9,51.9,5.7c45.4-11.6,73.9-43.1,84.1-56.1c1-1.3,2.9-1.5,4.2-0.5c1.3,1,1.5,2.9,0.5,4.2
			c-10.6,13.5-40.2,46.2-87.3,58.2c-26.4,6.7-45.8,4.3-57.6-7.3c-0.6-0.6-1.1-1.2-1.7-1.8c-7.3,5.9-15.3,11.1-23.9,15.5
			c-6.1,3.1-38,17.8-62.2,0.9c-1.2-0.8-2.3-1.7-3.4-2.6C59.8,140.6,46,147.2,33.3,147.2z M87.2,55.8c-1.6,0-3.1,0.2-4.6,0.8
			c-14,4.7-18.6,23.3-18.8,24.1c-3.1,13,1.4,28.3,10.7,38.7c29.3-28.3,29.6-45,27.2-52.5C99.4,59.7,93.4,56.5,90,56
			C89,55.9,88.1,55.8,87.2,55.8z M191.3,30.2c-1.6,0-3.3,0.3-5,1c-11.2,4.5-21.5,22.3-24.9,36.8c-2.5,10.8-2.7,25.6,3.4,36.6
			c18.8-16.7,35.8-39.5,36.9-60.8c0.2-4-0.3-9.3-3.9-11.6C195.7,30.9,193.5,30.2,191.3,30.2z"/>
	</g>
</g>
<g id="general_1_">
	<g id="general">
		<g id="man">
			<g id="head">
				<path id="face" class="st5" d="M358.1,259.8c-7.2,6.3-16,10.3-25.5,12.4v0.3l4.8,30.9c1,6.1,0.7,12.4-1.2,18.4
					c-3.8,11.9-13.1,21.5-24.9,25.3c-11.2,3.6-23.7,1.7-33.8-4.6c-10.1-6.2-16.7-16.8-18.5-28.5l-4.5-28.9l-4.8-30.8
					c5.2-5,8.6-11.8,9.1-19.5c0.2-3.8-0.2-7.6-1.3-11c0.2-24.7,0.4-49.4,0.6-74.1c15.8-7.6,32.5-15.1,50.2-22.5
					c12.3-5.1,24.3-9.9,36-14.3C383.2,149.3,392.7,229.3,358.1,259.8z"/>
				<g id="brows">
					<ellipse transform="matrix(0.9475 -0.3198 0.3198 0.9475 -26.5662 120.8835)" cx="354.8" cy="141.3" rx="16.8" ry="5.9"/>
					<ellipse transform="matrix(0.9296 -0.3685 0.3685 0.9296 -40.6649 118.1446)" cx="289" cy="165.5" rx="16.8" ry="5.9"/>
				</g>
				<path d="M327,237.3c-11.3,0-21.5-9.5-21.6-9.6c-0.2-0.2-0.2-0.6,0-0.8s0.6-0.3,0.8,0c0.2,0.2,19.2,17.9,33.6,3.8
					c0.2-0.2,0.6-0.2,0.8,0c0.2,0.2,0.2,0.6,0,0.8C336.3,235.8,331.6,237.3,327,237.3z"/>
				<path d="M345.1,203.4L332,179.5l-4.4-8.1l-7-12.8c-0.2-0.3-0.5-0.4-0.8-0.2s-0.4,0.5-0.2,0.8l24.2,44.2l-22.1,7.7
					c-0.3,0.1-0.5,0.5-0.4,0.8c0.1,0.2,0.3,0.4,0.6,0.4c0.1,0,0.1,0,0.2,0l22.7-7.9c0.2,0,0.3-0.2,0.4-0.4
					C345.2,203.7,345.2,203.5,345.1,203.4z"/>
				<path d="M319.9,274.2c-9,0-20.5-1.6-32.2-7.3c-0.3-0.1-0.4-0.5-0.3-0.8s0.5-0.4,0.8-0.3c18.2,8.9,35.6,7.7,44.3,6.1
					c0.3-0.1,0.6,0.2,0.7,0.5s-0.2,0.6-0.5,0.7C329.5,273.7,325.1,274.2,319.9,274.2z"/>
				<path id="hair" d="M344.2,112.8c-11.7,4.4-23.7,9.2-36,14.3c-17.7,7.4-34.4,14.9-50.2,22.5c-0.2,24.7-0.4,49.4-0.6,74.1
					c-3.6-11.3-13.8-19.8-26.4-20.6c-1.8-0.1-3.5-0.1-5.2,0.1c-0.6-1.9-1.1-3.8-1.6-5.7c-0.1-0.6-0.3-1.1-0.4-1.7
					c0-0.1,0-0.1-0.1-0.2c-0.2-1.1-0.5-2.1-0.7-3.2c-0.1-0.6-0.2-1.1-0.3-1.7c-0.1-0.6-0.2-1.1-0.3-1.7c-0.3-1.8-0.6-3.6-0.8-5.4
					c-0.1-1-0.2-2-0.3-3c-0.1-0.6-0.1-1.2-0.1-1.8c0-0.5-0.1-1-0.1-1.4c0-0.3,0-0.5,0-0.8c0-0.5,0-1-0.1-1.5c-0.1-1.8-0.1-3.5,0-5.2
					c0-0.5,0-1,0-1.6c0-1,0.1-2,0.1-2.9V165c0-0.3,0-0.5,0.1-0.8c0-0.5,0.1-1,0.1-1.5c0-0.4,0.1-0.7,0.1-1.1c0-0.1,0-0.2,0-0.2
					c1.1-9.7,4.9-27,18-43c19.1-21.2,53-30.1,79.9-20.7c7.4,2.6,14.2,6.6,20.4,11.6C341.4,110.3,342.8,111.5,344.2,112.8z"/>
				<g id="glasses">
					<path class="st4" d="M319.4,174.7c5.7,13.1-0.3,28.6-13.4,34.4c-13.1,5.7-28.6-0.3-34.4-13.4
						C287.5,188.6,303.5,181.7,319.4,174.7z"/>
					<path class="st4" d="M360.8,186.6c-10.4,3.9-21.8,0.7-28.8-7.2l-4.4-8.1c16.2-6.1,32.3-12.2,48.5-18.3
						C381.1,166.4,374.2,181.6,360.8,186.6z"/>
					<path d="M317,177.6c-0.2,0-0.5-0.1-0.6-0.4c-1.1-2.8-1-5.9,0.3-8.7c1.2-2.5,3.4-4.4,5.9-5.2c4.8-1.4,10.1,1.3,12.2,6.1
						c0.1,0.3,0,0.7-0.3,0.8s-0.7,0-0.8-0.3c-1.8-4.3-6.6-6.7-10.7-5.4c-2.2,0.7-4.1,2.3-5.2,4.6c-1.2,2.4-1.3,5.2-0.3,7.7
						c0.1,0.3,0,0.7-0.3,0.8C317.2,177.6,317.1,177.6,317,177.6z"/>
					<path class="st1" d="M304.3,210.3c-0.2,0-0.3-0.1-0.4-0.2c-1.4-1.5-8.1-9.3-4.6-14.9c2.7-4.3,0.7-9.5-0.2-11.6
						c-0.1-0.3,0-0.7,0.3-0.8s0.7,0,0.8,0.3c1.1,2.2,3.2,7.9,0.2,12.7c-3.1,4.9,3.1,12.1,4.4,13.5c0.2,0.2,0.2,0.6,0,0.8
						C304.6,210.3,304.4,210.3,304.3,210.3z"/>
					<path class="st1" d="M358.5,188c-0.2,0-0.4-0.1-0.5-0.2c-2.1-2.7-6.5-9.5-3.1-14.3s0.6-11.2,0-12.4c-0.1-0.3,0-0.7,0.3-0.8
						s0.7,0,0.8,0.3c0.6,1.3,3.7,8.3-0.1,13.6c-2.9,4.1,1.2,10.4,3.1,12.9c0.2,0.3,0.2,0.6-0.1,0.8C358.8,188,358.6,188,358.5,188z"
						/>
					<path d="M279.4,197.8l-29.1,14.1c-0.3-0.3-0.6-0.6-0.9-0.9l29.5-14.3c0.3-0.1,0.7,0,0.8,0.3
						C279.9,197.3,279.7,197.6,279.4,197.8z"/>
				</g>
				<g id="eyes">
					<circle cx="309.5" cy="189.2" r="5.2"/>
					<circle cx="365.4" cy="167" r="5.2"/>
				</g>
				<g id="ear">
					<path class="st5" d="M257.5,223.7c-1.4-4.5-3.9-8.5-7.2-11.8c-0.3-0.3-0.6-0.6-0.9-0.9c-4.8-4.5-11.2-7.4-18.3-7.9
						c-1.8-0.1-3.5-0.1-5.2,0.1c-14.1,1.5-25.4,13-26.4,27.6c-1.1,16.4,11.3,30.5,27.7,31.6c8.6,0.6,16.7-2.6,22.5-8.1
						c5.2-5,8.6-11.8,9.1-19.5C259,230.8,258.6,227.1,257.5,223.7z"/>
					<path d="M246.2,245.6c-0.1,0-0.3,0-0.4-0.1c-1.3-0.9-3.5-3-4.3-6.4c-1.3-5.2,1.7-9.3,3-10.9l-29.1-15.5
						c-0.3-0.2-0.4-0.5-0.2-0.8s0.5-0.4,0.8-0.2l29.8,15.9c0.2,0.1,0.3,0.3,0.3,0.4c0,0.2,0,0.4-0.2,0.5c-0.2,0.2-4.6,4.6-3.2,10.3
						c0.7,3,2.7,4.9,3.9,5.7c0.3,0.2,0.3,0.6,0.1,0.8C246.6,245.5,246.4,245.6,246.2,245.6z"/>
				</g>
			</g>
			<g id="tshirt_1_">
				<path id="tshirt" class="st6" d="M774.8,315.6c-2.6,4.4-7.8,6.3-12.5,4.9l0,0c-6,22.4-12.8,41.6-19.3,57.5l0,0
					c-0.5,1.3-1.1,2.6-1.6,3.9l0,0c-0.1,0.2-0.2,0.4-0.3,0.6l0,0c-1.3,3-2.5,5.8-3.7,8.6c-0.2,0.5-0.5,1.1-0.7,1.6
					c-0.5,1.1-1,2.1-1.4,3.1c-0.3,0.7-0.7,1.5-1,2.2c-0.4,0.9-0.8,1.8-1.2,2.7c-0.4,0.8-0.7,1.5-1.1,2.3c-3.1,6.7-6.1,12.9-9.3,18.9
					c-1.2,2.2-2.4,4.4-3.6,6.6c-0.6,1-1.2,2-1.8,3s-1.2,2-1.8,3c-0.5,0.8-1,1.5-1.4,2.3c-0.8,1.2-1.5,2.3-2.3,3.5l0,0
					c-0.8,1.2-1.6,2.3-2.5,3.5c-1.8,2.4-3.6,4.9-5.6,7.3c-0.9,1.1-1.8,2.1-2.7,3.2c-0.6,0.7-1.2,1.5-1.9,2.2
					c-12.2,13.9-31.4,35.8-63.8,47.2c-41.5,14.6-79.3,3.1-100-3.1c-19.4-5.9-34.5-13.7-44.3-19.5c-0.3,19.4-0.2,39.4,0.3,60.2
					c0.1,5.1,0.3,10.2,0.5,15.3c0.1,2.6,0.2,5.2,0.3,7.8c1,26.2,2.7,51.4,4.9,75.4l0,0c0.1,1.3,0.2,2.6,0.3,3.9
					c-0.4,0.1-0.7,0.1-1.1,0.2c-6,1-12,2-18,3c-6.4,1-12.7,2.1-19.1,3.2c-5.8,1-11.6,1.9-17.4,2.9c-13.9,2.3-27.8,4.7-41.7,7l0,0
					c-8.7,1.5-17.5,3-26.2,4.5c-23.4,4-46.8,8.1-70.1,12.2c-4.8,0.8-9.6,1.7-14.5,2.6c-2.1,0.4-4.2,0.8-6.4,1.1
					c-9.6,1.7-19.3,3.4-28.9,5.2c-9.2,1.7-18.5,3.3-27.7,5c-5.4,1-10.8,2-16.3,3c-6.4,1.2-12.8,2.3-19.2,3.5v-55
					c-84.2,19.5-117.5,4-132.4-12.9c-1-1.1-1.9-2.3-2.8-3.5c-0.2-0.2-0.4-0.5-0.6-0.8c-0.3-0.4-0.6-0.9-0.9-1.3
					c-0.5-0.8-1-1.6-1.5-2.4c-0.3-0.6-0.7-1.1-1-1.7c-0.5-0.9-1-1.8-1.5-2.7c-0.2-0.5-0.5-0.9-0.7-1.4c0-0.1-0.1-0.1-0.1-0.2
					c-0.2-0.5-0.4-0.9-0.6-1.4c-0.2-0.5-0.5-1-0.7-1.5c-0.4-1-0.8-2-1.2-3c-0.2-0.6-0.4-1.2-0.6-1.8c-0.6-1.6-1.1-3.3-1.5-5
					c-0.2-0.6-0.3-1.1-0.5-1.7c-0.1-0.5-0.2-1-0.4-1.5c0-0.2-0.1-0.3-0.1-0.5c-0.1-0.5-0.2-1-0.4-1.5c-0.1-0.6-0.2-1.2-0.4-1.8
					c-0.1-0.7-0.3-1.3-0.4-2c-0.2-0.9-0.3-1.8-0.5-2.7c-0.3-1.8-0.5-3.7-0.7-5.6c-0.1-1-0.2-1.9-0.3-2.9c-0.1-0.6-0.1-1.3-0.2-2
					c-0.1-1.3-0.2-2.7-0.2-4c0-0.7-0.1-1.3-0.1-2s0-1.4,0-2.1c0-0.7,0-1.5,0-2.2c0-0.9,0-1.9,0-2.8c0-0.8,0-1.6,0.1-2.4
					c0-0.3,0-0.6,0-0.9c0-0.5,0-0.9,0.1-1.4c0-0.6,0-1.2,0.1-1.9c0-0.1,0-0.2,0-0.2c0-0.8,0.1-1.7,0.2-2.6c0-0.2,0-0.4,0-0.6
					c0.1-0.8,0.1-1.6,0.2-2.5c0.2-2.9,0.6-5.9,1-8.9c0.1-0.7,0.2-1.5,0.3-2.2c0.2-1.4,0.4-2.7,0.6-4.1c0-0.1,0-0.3,0.1-0.4
					c0.1-0.6,0.2-1.3,0.3-1.9c0.2-1.2,0.4-2.4,0.6-3.6c0.1-0.4,0.2-0.9,0.2-1.3c0.1-0.5,0.2-1.1,0.3-1.6c0.1-0.7,0.3-1.5,0.4-2.2
					c0.3-1.5,0.6-3,1-4.4c0.5-2.2,1-4.3,1.5-6.5c0-0.1,0-0.1,0-0.2c0.2-0.8,0.4-1.5,0.6-2.2c0.4-1.5,0.8-3,1.2-4.5
					c0.5-1.7,1-3.4,1.5-5.1c0.4-1.3,0.8-2.7,1.2-4c0.2-0.7,0.4-1.3,0.6-2c0.3-0.9,0.5-1.7,0.8-2.6c0.2-0.8,0.5-1.5,0.8-2.3
					c0.2-0.6,0.4-1.3,0.6-1.9c1.4-4,2.8-8,4.4-12c0.6-1.5,1.2-3.1,1.8-4.7c1-2.3,1.9-4.7,2.9-7c0.3-0.8,0.7-1.6,1-2.3
					c1-2.4,2.1-4.7,3.2-7c0.4-0.8,0.7-1.6,1.1-2.3c1.5-3.2,3-6.3,4.6-9.5c0.4-0.8,0.8-1.6,1.2-2.4c0.6-1.1,1.2-2.3,1.8-3.4
					c0.2-0.5,0.5-1,0.8-1.5c0.3-0.7,0.7-1.3,1.1-2s0.7-1.4,1.1-2c0.9-1.6,1.8-3.3,2.8-4.9c0.4-0.7,0.8-1.5,1.2-2.2
					c2.6-4.5,5.3-8.9,8.1-13.3c0.4-0.6,0.8-1.3,1.2-1.9c1.1-1.7,2.2-3.3,3.2-5c0.5-0.7,0.9-1.4,1.4-2.1c3.9-5.8,8-11.4,12.2-17
					c1.5-2,3-3.9,4.6-5.9c0.6-0.8,1.2-1.5,1.8-2.2c0.5-0.6,0.9-1.2,1.4-1.7c0.3-0.4,0.6-0.7,0.9-1.1c3.5-4.2,7-8.3,10.7-12.4
					c0.6-0.7,1.3-1.4,1.9-2.1c2-2.2,4.1-4.4,6.2-6.6c0.6-0.6,1.1-1.2,1.7-1.7c0.7-0.7,1.3-1.4,2-2c7.6-7.6,15.6-14.8,24-21.6
					c0.7-0.6,1.5-1.2,2.2-1.8c0.9-0.7,1.8-1.4,2.7-2.1c0.6-0.5,1.3-1,2-1.5c0.5-0.4,1-0.8,1.5-1.1l0,0c0.3-0.2,0.6-0.5,0.9-0.7
					c1-0.7,2-1.5,3-2.2c0.6-0.4,1.2-0.9,1.8-1.3c0.8-0.6,1.6-1.1,2.4-1.7c0,0,0,0,0.1,0c0.6-0.4,1.2-0.8,1.8-1.2
					c0.2-0.1,0.4-0.3,0.6-0.4c0.8-0.5,1.6-1.1,2.5-1.6c0.8-0.6,1.7-1.1,2.5-1.6c0.6-0.4,1.2-0.8,1.8-1.2c0.5-0.4,1.1-0.7,1.7-1.1
					c1-0.6,2-1.2,3-1.8c0.6-0.4,1.3-0.8,1.9-1.2c6.1-3.6,12.4-7,18.8-10.2c0.5-0.2,1-0.5,1.4-0.7c0.9-0.4,1.7-0.8,2.6-1.2
					c5.6-2.6,17.3-7.8,33.6-12.8l4.5,28.9c1.8,11.7,8.5,22.3,18.5,28.5c10.1,6.2,22.7,8.2,33.8,4.6c11.7-3.8,21-13.4,24.9-25.3
					c1.9-5.9,2.2-12.2,1.2-18.4l-4.8-30.9c16.5-0.2,34.2,1.1,52.5,4.8C501.2,300.7,539.5,397.7,604.6,385c1.2-0.2,2.5-0.5,3.7-0.8
					c0.4-0.1,0.8-0.2,1.2-0.3c0.4-0.1,0.8-0.2,1.3-0.4c0.4-0.1,0.8-0.2,1.2-0.4h0.1c0,0,0,0,0.1,0l0.6-0.2c0.2-0.1,0.4-0.1,0.6-0.2
					c0.4-0.1,0.8-0.3,1.2-0.4c0.5-0.2,1-0.4,1.6-0.6c0.4-0.1,0.7-0.3,1.1-0.5c0.4-0.2,0.9-0.4,1.3-0.6c2.1-0.9,4.2-2,6.4-3.2
					c0.1,0,0.2-0.1,0.2-0.1c0.4-0.2,0.8-0.5,1.3-0.7c0.9-0.5,1.8-1.1,2.8-1.7c0.5-0.3,0.9-0.6,1.3-0.9c0.5-0.3,0.9-0.6,1.4-0.9
					c0.9-0.6,1.8-1.3,2.7-2c0.5-0.3,0.9-0.7,1.4-1.1c1.8-1.5,3.7-3.1,5.5-4.8c0.4-0.4,0.8-0.8,1.2-1.1c0.5-0.5,1-1,1.6-1.5
					c0.4-0.3,0.7-0.7,1-1.1c0.3-0.3,0.6-0.6,0.9-0.9c0.5-0.5,1-1.1,1.5-1.6c2.6-2.8,5.2-5.9,7.8-9.3c0.4-0.5,0.8-1.1,1.2-1.6
					c0.5-0.7,1.1-1.4,1.6-2.1c0.5-0.6,0.9-1.3,1.4-2c0-0.1,0.1-0.2,0.2-0.2c0.4-0.6,0.8-1.2,1.2-1.8c0.1-0.1,0.2-0.3,0.3-0.4
					c0.4-0.6,0.8-1.1,1.1-1.7c0.4-0.6,0.8-1.2,1.2-1.8c0.1-0.1,0.2-0.3,0.2-0.4c0.5-0.7,0.9-1.5,1.4-2.2c0.9-1.5,1.9-3,2.8-4.6
					c0.5-0.9,1.1-1.8,1.6-2.8c0.4-0.7,0.8-1.4,1.2-2.1c0.4-0.6,0.7-1.3,1.1-1.9c0.6-1.1,1.2-2.1,1.7-3.2c0.4-0.8,0.8-1.6,1.2-2.4
					c0.1-0.2,0.2-0.4,0.3-0.6c0.4-0.8,0.8-1.6,1.2-2.4c1.4-2.8,2.8-5.7,4.2-8.7c0.5-1,0.9-2,1.4-3c0.9-2.1,1.8-4.2,2.8-6.3
					c0.7-1.7,1.5-3.4,2.2-5.2c1.5-3.8,3.1-7.7,4.6-11.8l-4.4-2.5c-5.1-3-6.9-9.6-3.9-14.7c2-3.4,5.6-5.4,9.4-5.4
					c1.8,0,3.7,0.5,5.4,1.4l0.8,0.5l6.2,3.6l0.5,0.3l0,0l62,35.8h0.1l3.3,1.9C775.9,303.9,777.7,310.5,774.8,315.6z"/>
				<g id="pattern">
					<path class="st4" d="M184,318.9c0,4.1-3.4,7.5-7.5,7.5c-0.9,0-1.7-0.2-2.5-0.5c0.3-0.2,0.6-0.5,0.9-0.7c1-0.7,2-1.5,3-2.2
						c0.6-0.4,1.2-0.9,1.8-1.3c0.8-0.6,1.6-1.1,2.4-1.7c0,0,0,0,0.1,0c0.6-0.4,1.2-0.8,1.8-1.2C184,318.8,184,318.9,184,318.9z"/>
					<circle class="st4" cx="434.6" cy="318.9" r="7.5"/>
					<circle class="st4" cx="688.2" cy="318.9" r="7.5"/>
					<path class="st4" d="M120,382.8c0,4.1-3.3,7.5-7.5,7.5c-0.8,0-1.6-0.1-2.3-0.4c1.5-2,3-3.9,4.6-5.9c0.6-0.8,1.2-1.5,1.8-2.2
						c0.5-0.6,0.9-1.2,1.4-1.7c0.3-0.4,0.6-0.7,0.9-1.1C119.7,380,120,381.3,120,382.8z"/>
					<circle class="st4" cx="237" cy="382.7" r="7.5"/>
					<circle class="st4" cx="366.1" cy="382.7" r="7.5"/>
					<circle class="st4" cx="495.1" cy="382.7" r="7.5"/>
					<path class="st4" d="M627.1,382.8c0,4.1-3.3,7.5-7.5,7.5c-4,0-7.3-3.2-7.5-7.2l0,0l0.6-0.2c0.2-0.1,0.4-0.1,0.6-0.2
						c0.4-0.1,0.8-0.3,1.2-0.4c0.5-0.2,1-0.4,1.6-0.6c0.4-0.1,0.7-0.3,1.1-0.5c0.4-0.2,0.9-0.4,1.3-0.6c2.1-0.9,4.2-2,6.4-3.2
						C626.2,378.8,627.1,380.7,627.1,382.8z"/>
					<path class="st4" d="M743,377.9c-0.6,1.4-1.1,2.8-1.7,4.1l0,0l0,0c0.1-1.5,0.7-2.8,1.6-3.9C742.9,378,742.9,378,743,377.9
						C742.9,378,742.9,378,743,377.9z"/>
					<circle class="st4" cx="172.5" cy="449.1" r="7.5"/>
					<circle class="st4" cx="301.6" cy="449.1" r="7.5"/>
					<circle class="st4" cx="430.6" cy="449.1" r="7.5"/>
					<circle class="st4" cx="555.1" cy="449.1" r="7.5"/>
					<circle class="st4" cx="684.1" cy="449.1" r="7.5"/>
					<circle class="st4" cx="124.8" cy="513" r="7.5"/>
					<circle class="st4" cx="249.3" cy="513" r="7.5"/>
					<circle class="st4" cx="378.3" cy="513" r="7.5"/>
					<circle class="st4" cx="60.3" cy="579.3" r="7.5"/>
					<circle class="st4" cx="184.7" cy="579.3" r="7.5"/>
					<circle class="st4" cx="313.8" cy="579.3" r="7.5"/>
					<circle class="st4" cx="442.8" cy="579.3" r="7.5"/>
					<circle class="st4" cx="120.8" cy="643.2" r="7.5"/>
					<circle class="st4" cx="245.3" cy="643.2" r="7.5"/>
					<circle class="st4" cx="374.3" cy="643.2" r="7.5"/>
					<path class="st4" d="M497,643.7c-0.4,0.1-0.7,0.1-1.1,0.2c0-0.2,0-0.5,0-0.8c0-1.2,0.3-2.3,0.8-3.3
						C496.8,641.1,496.9,642.4,497,643.7z"/>
				</g>
				<path class="st4" d="M299.8,349.4c-7.7,0-15.7-2.2-22.5-6.5c-10.1-6.2-16.9-16.8-18.8-28.9l-4.5-28.9c-0.1-0.3,0.2-0.6,0.5-0.7
					c0.3,0,0.6,0.2,0.7,0.5l4.5,28.9c1.8,11.8,8.5,22,18.3,28.1c10.2,6.3,22.6,8,33.3,4.5c11.5-3.7,20.7-13,24.5-24.9
					c1.8-5.5,2.2-11.8,1.2-18.1c-0.1-0.3,0.2-0.6,0.5-0.7s0.6,0.2,0.7,0.5c1,6.5,0.6,12.9-1.3,18.6c-4,12.3-13.4,21.8-25.3,25.7
					C307.7,348.8,303.8,349.4,299.8,349.4z"/>
			</g>
			<g id="hands">
				<g id="hand_l">
					<path class="st5" d="M388.7,554.1c-0.4-1.9-1.4-3.3-1.9-3.9c-0.3-0.4-1-1.3-2.1-1.8c-1.8-0.8-3.4-0.4-4-0.2
						c1.3-0.5,2.6-1,3.8-1.5c5-2.6,7.3-8.9,5.1-14c-1.5-3.4-4.6-5.4-8.1-5.6l1.5-0.8c5-2.6,7.3-8.9,5.1-14
						c-2.1-4.8-7.5-6.8-12.2-4.8c1.8-3,2.3-6.7,0.9-10c-0.7-1.7-1.8-3-3.2-3.9c-3.3-2.4-7.8-1.1-9.9-0.5
						c-17.2,4.7-39.8,15.6-44.3,17.8c-2.4,1.1-4.3,2-5.3,2.5l0,0c-0.4-2.4-0.9-4.8-1.3-7.2c-0.5-3.1-1.1-6.2-1.6-9.2
						c-8.2,4.4-22.8,12.4-27.5,14.9c8.8,27.5,17.5,55,26.3,82.5c5.2-2,11.1-4.2,17.5-6.5c5-1.8,7.5-2.7,15-5.3
						c10.6-3.8,20-7.1,31.1-12c0,0,0.5-0.2,1.4-0.7c3.5-1.7,12.2-6.5,13.6-11.4c0.6-2,0.3-3.8,0.3-4.2
						C388.7,554.1,388.7,554.1,388.7,554.1z"/>
					<path d="M335.3,526c-0.2,0-0.4-0.1-0.5-0.4c-0.1-0.3,0-0.7,0.3-0.8l40.5-17.9c0.3-0.1,0.7,0,0.8,0.3c0.1,0.3,0,0.7-0.3,0.8
						l-40.6,17.9C335.4,526,335.3,526,335.3,526z"/>
					<path d="M341.2,543.8c-0.2,0-0.5-0.1-0.6-0.4c-0.1-0.3,0-0.7,0.3-0.8l41.2-16.3c0.3-0.1,0.7,0,0.8,0.3c0.1,0.3,0,0.7-0.3,0.8
						l-41.2,16.3C341.3,543.8,341.2,543.8,341.2,543.8z"/>
					<path d="M346.4,562.1c-0.2,0-0.5-0.1-0.6-0.4c-0.1-0.3,0-0.7,0.3-0.8l36-14c0.3-0.1,0.7,0,0.8,0.3c0.1,0.3,0,0.7-0.3,0.8
						l-36,14C346.6,562.1,346.5,562.1,346.4,562.1z"/>
				</g>
				<g id="hand_r">
					<path class="st5" d="M783.8,204.9c-5.5-1.6-11.3,1.6-12.9,7.1l-6.8,23.5c-5.4-17.9-10.8-35.8-16.3-53.8
						c-10.5,1.7-16.9,3.4-22.3,7.5c-2.8,2.1-7.8,6.6-17,34.5c-3.2,9.8-6.8,21.8-9.9,35.6l6.2,3.6l0,0l62.5,36.1h0.1
						c2.1-7.4,4.2-14.9,6.3-22.3c0-0.1,0.1-0.2,0.1-0.3l1.3-4.4l15.6-54.3C792.5,212.3,789.3,206.5,783.8,204.9z"/>
					<path d="M768.1,222L768.1,222c-0.3-0.1-0.7,0.1-0.8,0.4l-3.5,11.9l-4,13.4c-0.1,0.3,0.1,0.6,0.4,0.7c0.1,0,0.1,0,0.2,0
						c0.3,0,0.5-0.2,0.6-0.4l7.5-25.3C768.6,222.4,768.4,222,768.1,222z"/>
				</g>
			</g>
		</g>
		<g id="buttons">
			<g id="lines">
				<path class="st7" d="M723.4,144.6c-0.2,0-0.4,0-0.6-0.1l-77.9-36.4c-0.8-0.4-1.1-1.2-0.7-2c0.4-0.8,1.2-1.1,2-0.7l77.9,36.4
					c0.8,0.4,1.1,1.2,0.7,2C724.5,144.3,724,144.6,723.4,144.6z"/>
				<path class="st7" d="M906.3,120.9c-0.2,0-0.3,0-0.5-0.1c-0.8-0.3-1.2-1.1-1-1.9l39-117.8c0.3-0.8,1.1-1.2,1.9-1
					c0.8,0.3,1.2,1.1,1,1.9l-38.9,117.8C907.5,120.5,906.9,120.9,906.3,120.9z"/>
				<path class="st7" d="M942.7,97.3c-0.3,0-0.6-0.1-0.9-0.3c-0.7-0.5-0.8-1.5-0.3-2.1L987.2,36c0.5-0.7,1.5-0.8,2.1-0.3
					s0.8,1.5,0.3,2.1l-45.7,58.9C943.6,97.1,943.1,97.3,942.7,97.3z"/>
			</g>
			<path id="remote_button" class="st2" d="M980.4,115.8c-32,45.7-64,91.5-96.1,137.2l-23.6-78.7c-25.6,42.2-51.1,84.5-76.7,126.8
				c-2.9-9.7-5.9-19.4-8.8-29.1l15.6-54.3c1.6-5.5-1.6-11.3-7.1-12.9c-5.5-1.6-11.3,1.6-12.9,7.1l-2.9,10c-0.3-0.1-0.6,0.1-0.7,0.4
				l-3.5,11.9c-5.3-17.5-10.6-35-15.9-52.6c-6.3-20.9-12.6-41.7-18.9-62.5c41.5,10.2,83,20.4,124.4,30.6l-20.5-68.6
				C882,92.6,931.2,104.2,980.4,115.8z"/>
			<g id="play_button">
				<path class="st2" d="M373.4,570.5c0,0,0.5-0.2,1.4-0.7c-0.5,0.5-1,1.1-1.5,1.6c-13.6,15.4-27.2,30.8-40.8,46.2
					c-1.8-9.9-3.5-19.9-5.3-29.8c5-1.8,7.5-2.7,15-5.3C353,578.8,362.3,575.4,373.4,570.5z"/>
				<path class="st2" d="M442.1,493.7c-17.6,19.9-35.2,39.9-52.9,59.8c-0.2,0.2-0.4,0.5-0.6,0.7c0-0.1,0-0.1,0-0.1
					c-0.4-1.9-1.4-3.3-1.9-3.9c-0.3-0.4-1-1.3-2.1-1.8c-1.8-0.8-3.4-0.4-4-0.2c1.3-0.5,2.6-1,3.8-1.5c5-2.6,7.3-8.9,5.1-14
					c-1.5-3.4-4.6-5.4-8.1-5.6l1.5-0.8c5-2.6,7.3-8.9,5.1-14c-2.1-4.8-7.5-6.8-12.2-4.8c1.8-3,2.3-6.7,0.9-10
					c-0.7-1.7-1.8-3-3.2-3.9c-3.3-2.4-7.8-1.1-9.9-0.5c-17.2,4.7-39.8,15.6-44.3,17.8c-2.4,1.1-4.3,2-5.3,2.5
					c-1-5.5-2-10.9-2.9-16.4c-2.8-15.6-5.6-31.1-8.3-46.7C349.2,464.7,395.6,479.2,442.1,493.7z"/>
			</g>
		</g>
	</g>
</g>
</svg>
