<?xml version="1.0" encoding="utf-8"?>
<!-- Generator: Adobe Illustrator 22.1.0, SVG Export Plug-In . SVG Version: 6.00 Build 0)  -->
<svg version="1.1" id="Слой_1" xmlns="http://www.w3.org/2000/svg" xmlns:xlink="http://www.w3.org/1999/xlink" x="0px" y="0px"
	 viewBox="0 0 742.9 862.3" style="enable-background:new 0 0 742.9 862.3;" xml:space="preserve">
<style type="text/css">
	.st0{fill:#D5E0EA;}
	.st1{fill:#FFFFFF;}
	.st2{fill:#FF0036;}
	.st3{fill:#1F0D60;}
	.st4{fill:#003FFF;}
	.st5{fill:#00B7EA;}
	.st6{fill:#F73D9E;}
</style>
<g id="background">
	<path id="semicircle" class="st0" d="M700.8,349.3c-19,48-74,71.8-122,52.9s-71.8-74-52.9-122C584.2,303.2,642.5,326.2,700.8,349.3
		z"/>
	<g id="window1">
		<g>
			<rect x="8.5" y="13" class="st1" width="330.8" height="237"/>
			<path class="st2" d="M339.2,251.5H8.5c-0.8,0-1.5-0.7-1.5-1.5V13c0-0.8,0.7-1.5,1.5-1.5h330.8c0.8,0,1.5,0.7,1.5,1.5v237
				C340.7,250.9,340.1,251.5,339.2,251.5z M10,248.5h327.8v-234H10V248.5z"/>
		</g>
		<path class="st2" d="M339.2,54H8.5C7.7,54,7,53.3,7,52.5S7.7,51,8.5,51h330.7c0.8,0,1.5,0.7,1.5,1.5S340.1,54,339.2,54z"/>
		<path class="st2" d="M33.6,44.5c-6.3,0-11.5-5.2-11.5-11.5s5.2-11.5,11.5-11.5S45.1,26.7,45.1,33S40,44.5,33.6,44.5z M33.6,24.6
			c-4.7,0-8.5,3.8-8.5,8.5s3.8,8.5,8.5,8.5s8.5-3.8,8.5-8.5S38.3,24.6,33.6,24.6z"/>
		<path class="st2" d="M66.7,44.5c-6.3,0-11.5-5.2-11.5-11.5s5.2-11.5,11.5-11.5S78.2,26.7,78.2,33S73.1,44.5,66.7,44.5z M66.7,24.6
			c-4.7,0-8.5,3.8-8.5,8.5s3.8,8.5,8.5,8.5s8.5-3.8,8.5-8.5S71.4,24.6,66.7,24.6z"/>
		<path class="st2" d="M99.8,44.5c-6.3,0-11.5-5.2-11.5-11.5s5.2-11.5,11.5-11.5s11.5,5.2,11.5,11.5S106.2,44.5,99.8,44.5z
			 M99.8,24.6c-4.7,0-8.5,3.8-8.5,8.5s3.8,8.5,8.5,8.5s8.5-3.8,8.5-8.5S104.5,24.6,99.8,24.6z"/>
		<path class="st2" d="M99.8,251.5c-0.5,0-1-0.3-1.3-0.8l-23.1-41.9c-0.4-0.7-0.2-1.5,0.4-1.9l48.2-35H66.7c-0.5,0-0.9-0.2-1.2-0.6
			c-0.3-0.4-0.4-0.8-0.3-1.3l14-66l-42.8,46.2c-0.3,0.4-0.8,0.5-1.3,0.5c-0.5-0.1-0.9-0.4-1.1-0.8L7.2,97c-0.4-0.7-0.1-1.6,0.7-2
			c0.7-0.4,1.6-0.1,2,0.7l25.9,50.9l45-48.6c0.5-0.5,1.2-0.6,1.8-0.3c0.6,0.3,0.9,1,0.8,1.6l-14.6,69.6h60.1c0.6,0,1.2,0.4,1.4,1
			s0,1.3-0.5,1.7l-50.9,36.9l22.5,40.7c0.4,0.7,0.1,1.6-0.6,2C100.3,251.5,100.1,251.5,99.8,251.5z"/>
	</g>
	<path id="line" class="st2" d="M579.7,440.2c-0.8,0-1.5-0.7-1.5-1.5v-58.1H208.7c-0.8,0-1.5-0.7-1.5-1.5V250c0-0.8,0.7-1.5,1.5-1.5
		s1.5,0.7,1.5,1.5v127.6h369.5c0.8,0,1.5,0.7,1.5,1.5v59.6C581.2,439.6,580.5,440.2,579.7,440.2z"/>
	<g id="window2">
		<g>
			<rect x="447.3" y="438.7" class="st1" width="277.4" height="198.8"/>
			<path class="st2" d="M724.7,639H447.3c-0.8,0-1.5-0.7-1.5-1.5V438.7c0-0.8,0.7-1.5,1.5-1.5h277.4c0.8,0,1.5,0.7,1.5,1.5v198.8
				C726.2,638.3,725.5,639,724.7,639z M448.8,636h274.4V440.2H448.8V636z"/>
		</g>
		<path class="st2" d="M724.7,473.3H447.3c-0.8,0-1.5-0.7-1.5-1.5s0.7-1.5,1.5-1.5h277.4c0.8,0,1.5,0.7,1.5,1.5
			S725.5,473.3,724.7,473.3z"/>
		<path class="st2" d="M468.4,465.4c-5.4,0-9.9-4.4-9.9-9.9c0-5.4,4.4-9.9,9.9-9.9c5.4,0,9.9,4.4,9.9,9.9S473.9,465.4,468.4,465.4z
			 M468.4,448.7c-3.8,0-6.9,3.1-6.9,6.9s3.1,6.9,6.9,6.9s6.9-3.1,6.9-6.9C475.3,451.7,472.2,448.7,468.4,448.7z"/>
		<path class="st2" d="M496.2,465.4c-5.4,0-9.9-4.4-9.9-9.9c0-5.4,4.4-9.9,9.9-9.9s9.9,4.4,9.9,9.9S501.6,465.4,496.2,465.4z
			 M496.2,448.7c-3.8,0-6.9,3.1-6.9,6.9s3.1,6.9,6.9,6.9s6.9-3.1,6.9-6.9C503.1,451.7,500,448.7,496.2,448.7z"/>
		<path class="st2" d="M523.9,465.4c-5.4,0-9.9-4.4-9.9-9.9c0-5.4,4.4-9.9,9.9-9.9c5.4,0,9.9,4.4,9.9,9.9
			C533.8,461,529.4,465.4,523.9,465.4z M523.9,448.7c-3.8,0-6.9,3.1-6.9,6.9s3.1,6.9,6.9,6.9c3.8,0,6.9-3.1,6.9-6.9
			C530.8,451.7,527.7,448.7,523.9,448.7z"/>
		<path class="st2" d="M698.2,625L698.2,625c-0.7-0.1-1.2-0.5-1.4-1.1l-7.2-26.9c-2.9-10.9-5.9-21.9-8.8-32.8
			c-17.5,11.8-35,23.6-52.4,35.4c-0.5,0.4-1.3,0.3-1.8-0.1c-0.5-0.4-0.7-1.1-0.5-1.7l11.7-29.3c4-9.9,7.9-19.8,11.9-29.7l-58.1-8.2
			c-0.7-0.1-1.2-0.6-1.3-1.3s0.3-1.3,0.9-1.6c12.4-5.4,24.8-10.9,37.2-16.3L652,501l-0.5-1c-4.2-9.2-8.3-18.4-12.5-27.7
			c-0.3-0.8,0-1.6,0.7-2c0.8-0.3,1.6,0,2,0.7c4.2,9.2,8.3,18.4,12.5,27.7l1.1,2.4c0.2,0.4,0.2,0.8,0,1.2s-0.4,0.7-0.8,0.8l-25,11
			c-10.8,4.7-21.6,9.5-32.4,14.2l54.7,7.7c0.5,0.1,0.9,0.3,1.1,0.7c0.2,0.4,0.3,0.9,0.1,1.3c-4.2,10.5-8.4,21-12.6,31.5l-9.9,24.7
			c16.7-11.3,33.4-22.6,50.1-33.9c0.4-0.3,0.9-0.3,1.4-0.2c0.5,0.2,0.8,0.5,0.9,1c3.1,11.6,6.3,23.2,9.4,34.8l6.2,23l24.7-50.2
			c0.4-0.7,1.3-1,2-0.7c0.7,0.4,1,1.3,0.7,2l-26.5,53.8C699.3,624.7,698.8,625,698.2,625z"/>
	</g>
	<g id="lines">
		<path class="st0" d="M634.4,861.8c35.7-21.6,71.4-43.3,107.2-64.9c3.3-2,0.3-7.2-3-5.2c-35.7,21.6-71.4,43.3-107.2,64.9
			C628,858.7,631.1,863.8,634.4,861.8L634.4,861.8z"/>
		<path class="st0" d="M592,851.9c23.1-28.7,46.2-57.4,69.3-86.1c2.4-3-1.8-7.3-4.2-4.2c-23.1,28.7-46.2,57.4-69.3,86.1
			C585.3,850.7,589.6,854.9,592,851.9L592,851.9z"/>
	</g>
	<path class="st0" d="M158.6,583.4c0,0-0.1,0-0.1,0c-19.4-0.9-35.9-11-42.9-26.3c-2.9-6.4-4.2-13.8-3.9-21
		c-11.2,0.8-24.3-1.1-34.6-7.4c-20.7-12.7-28.4-43.6-27.2-71c-3.4-0.6-5.8-1.4-6.5-1.6c-13.5-4.5-24.5-17.5-31.8-37.6
		c-7.1-19.5-10.2-44.2-9-71.6c0.1-1.7,1.5-2.9,3.1-2.9c1.7,0.1,2.9,1.5,2.9,3.1c-2.3,53.7,12.4,95.2,36.7,103.2
		c0.2,0.1,2.1,0.7,5,1.3c0-0.5,0.1-1.1,0.2-1.6c1.8-16.5,7.4-35.4,18.1-39.2c4.2-1.5,9.7-0.7,14.9,2.2c6.1,3.3,10.5,8.5,11.8,14
		c2.3,9.5-4.9,19.1-11.7,24.3c-6.7,5.1-15.5,7.6-25.6,7.2c-0.7,0-1.5-0.1-2.2-0.1c-1,25.5,5.8,53.7,24.3,65.1
		c9.2,5.6,21.5,7.3,32.1,6.5c1.6-10,6.1-18.7,12.8-22.4c1.8-1,7.8-3.9,12.1-0.8c4.8,3.3,4.3,11.8,2.2,16.4c-2.1,4.6-7.3,8.3-15,10.6
		c-2,0.6-4.2,1.1-6.6,1.5c-0.3,6.8,0.8,13.8,3.3,19.2c6.1,13.3,20.6,22.1,37.8,22.8c1.7,0.1,2.9,1.5,2.9,3.1
		C161.5,582.2,160.2,583.4,158.6,583.4z M132.5,511.5c-1.3,0-3.2,0.6-4.7,1.4c-4.9,2.7-8.1,9-9.4,16.2c1.4-0.3,2.8-0.6,4.1-1
		c5.8-1.8,10-4.5,11.3-7.4c1.4-2.9,1.2-8-0.2-9C133.4,511.6,133,511.5,132.5,511.5z M56.1,452.5c7.1,0.6,16.4-0.2,23.7-5.8
		c5.7-4.4,11.1-11.9,9.5-18.2c-0.9-3.8-4.3-7.6-8.9-10.1c-3.7-2-7.5-2.7-10.1-1.8c-6.4,2.3-12.3,16.3-14.2,34.1
		C56.3,451.3,56.2,451.9,56.1,452.5z"/>
</g>
<g id="general">
	<g id="woman">
		<g id="head">
			<path id="hair" class="st3" d="M413.8,51.1c-3.9-2.1-23.2-12.7-44.7-8.6c-1.4,0.3-2.8,0.6-4.2,1c1.3-4.1,2.1-8.4-0.2-8.3
				c-2.2,0.2-2.9,4-2.9,7.9c-3.1-3.8-7.7-8.6-9-6.1c-1.3,2.5,3.8,5.8,7.7,7.9c-31.3,11.8-56.1,53.4-56.2,106.6
				c20.4,4.2,54.4,8.5,94.5-0.4c24.3-5.4,43.8-14,58.1-21.7C456.9,126.6,455.5,74,413.8,51.1z"/>
			<g id="face">
				<path class="st2" d="M419.5,69.7c-0.5-1-1-1.9-1-1.9c-4.8,1.2-12.2,2.1-20.3-0.9c-9.2-3.5-14.1-10.3-15.8-12.8
					c0.2,2.5,1.9,22.9-13.6,37.1c-9,8.3-19.4,10.3-24.1,10.9c0.2,0.6,0.3,1.2,0.5,1.9c0.5,1.9,1.2,3.6,1.2,3.6s1.6,4,4.5,7.6
					c0.2,0.2,2.4,2.8,6,6.2c-0.3,9.6-0.6,19.2-1,28.8c0,0.1,0.1,0.1,0.1,0.2c1.6,3.7,3.2,7.4,4.8,11.1c6.7,15.6,13.4,31.1,20.1,46.7
					c2.9-7.3,15.5-46.4,18-57c0-2.9,0-5.7,0-8.6v-0.9c0.7-0.1,1.4-0.3,2-0.5c15.2-4.8,21.8-24.5,23-28
					C423.8,113.1,431,91.8,419.5,69.7z"/>
				<path d="M393.1,143.1c-2.4,0-5.1-0.3-7.9-0.9c-8.8-2.1-14.5-7.3-17.1-10.3c-0.2-0.2-0.2-0.5,0-0.7s0.5-0.2,0.7,0
					c2.5,2.8,8.1,7.9,16.6,10c7.1,1.7,13.2,0.7,17.1-0.5c0.3-0.1,0.5,0.1,0.6,0.3c0.1,0.3-0.1,0.5-0.3,0.6
					C400.4,142.4,397,143.1,393.1,143.1z"/>
			</g>
			<path id="nose" d="M397.3,108.1c-0.2,0-0.4-0.1-0.5-0.3c-0.1-0.3,0-0.5,0.3-0.6l10.6-3.8l-5.9-21.6c-0.1-0.3,0.1-0.5,0.4-0.6
				s0.5,0.1,0.6,0.4l6,22c0.1,0.3-0.1,0.5-0.3,0.6l-11,4C397.5,108.1,397.4,108.1,397.3,108.1z"/>
			<g id="eyes">
				<circle cx="392.3" cy="88.6" r="2.5"/>
				<circle cx="419.3" cy="88.6" r="2.5"/>
			</g>
			<g id="brows">
				<ellipse transform="matrix(0.238 -0.9713 0.9713 0.238 220.187 438.3967)" cx="389.5" cy="78.9" rx="2.5" ry="8.7"/>
				<ellipse transform="matrix(0.9419 -0.3358 0.3358 0.9419 -2.2547 144.7778)" cx="417.5" cy="78.9" rx="8.7" ry="2.5"/>
			</g>
			<g id="glasses">
				<path class="st4" d="M402.8,88.1c0,7.4-6.1,13.5-13.5,13.5s-13.5-6.1-13.5-13.5C384.8,88.1,393.8,88.1,402.8,88.1z"/>
				<path class="st4" d="M433.8,88.1c0,7.4-6.1,13.5-13.5,13.5s-13.5-6.1-13.5-13.5C415.8,88.1,424.8,88.1,433.8,88.1z"/>
				<path class="st1" d="M386.6,101.8h-0.1c-0.3-0.1-0.4-0.3-0.4-0.6c0.4-1.7,1.1-3.2,2.2-4.3c0.7-0.7,1.2-1,3-1.8
					c0.5-0.3,1.1-0.6,1.9-1c3.5-1.8,4.3-2.3,5-3.4c0.4-0.7,0.7-1.4,0.8-2.3c0-0.3,0.3-0.5,0.6-0.4c0.3,0,0.5,0.3,0.4,0.6
					c-0.1,1-0.4,1.9-0.9,2.7c-0.8,1.3-1.9,2-5.4,3.7c-0.8,0.4-1.4,0.7-1.9,1c-1.7,0.9-2.1,1.1-2.7,1.6c-0.9,1-1.6,2.2-1.9,3.8
					C387,101.7,386.8,101.8,386.6,101.8z"/>
				<path class="st1" d="M418.6,101.8h-0.1c-0.3-0.1-0.4-0.3-0.4-0.6c0.4-1.7,1.1-3.2,2.2-4.3c0.7-0.7,1.2-1,3-1.8
					c0.5-0.3,1.1-0.6,1.9-0.9c3.5-1.8,4.3-2.3,5-3.4c0.4-0.7,0.7-1.4,0.8-2.3c0-0.3,0.3-0.5,0.6-0.4c0.3,0,0.5,0.3,0.4,0.6
					c-0.1,1-0.4,1.9-0.9,2.7c-0.8,1.3-1.9,2-5.4,3.7c-0.8,0.4-1.4,0.7-1.9,1c-1.7,0.9-2.1,1.1-2.7,1.6c-0.9,1-1.6,2.2-1.9,3.8
					C419,101.7,418.8,101.8,418.6,101.8z"/>
				<path d="M434.8,88.6c0,0.3-0.2,0.5-0.5,0.5h-58.9l-16.3,9.2c-0.3-0.2-0.6-0.5-0.9-0.7l16.9-9.5c0.1,0,0.2-0.1,0.2-0.1h59
					C434.6,88.1,434.8,88.4,434.8,88.6z"/>
			</g>
			<path id="mouth" d="M400.4,117.5c-0.2,0-0.4-0.1-0.5-0.3c-0.1-0.2-3-6.1-11.7-5.5c-0.3,0-0.5-0.2-0.5-0.5s0.2-0.5,0.5-0.5
				c9.4-0.7,12.6,6,12.6,6.1c0.1,0.3,0,0.5-0.2,0.7C400.6,117.5,400.5,117.5,400.4,117.5z"/>
			<g id="ear">
				<path class="st2" d="M364.8,108.5c-0.4-3.7-2.1-6.9-4.6-9.3c-0.3-0.3-0.7-0.6-1-0.9c-0.3-0.2-0.6-0.5-0.9-0.7
					c-1.8-1.2-3.9-2-6-2.4c-1.3-0.2-2.6-0.2-3.9-0.1c-8.2,0.9-14.2,8.3-13.3,16.5c0.9,8.2,8.3,14.2,16.5,13.3
					S365.7,116.8,364.8,108.5z"/>
				<path d="M354.3,117.1c-0.1,0-0.2,0-0.3-0.1c-1.9-1.3-2.9-2.7-2.9-4.3c0-2,1.6-3.5,2.4-4.2L343,99c-0.2-0.2-0.2-0.5,0-0.7
					s0.5-0.2,0.7,0l11,10c0.1,0.1,0.2,0.3,0.2,0.4s-0.1,0.3-0.2,0.4c0,0-2.4,1.7-2.4,3.7c0,1.2,0.8,2.4,2.4,3.4
					c0.2,0.2,0.3,0.5,0.1,0.7C354.7,117.1,354.5,117.1,354.3,117.1z"/>
			</g>
			<path id="earring" class="st5" d="M347.7,142.6c-0.1,0-0.2,0-0.3-0.1c-4.2-3.2-6.1-8.4-4.9-13.2c0.2-0.6,0.4-1.3,0.6-1.8
				c0.7-1.7,1.7-2.8,2-3.2c1.3-1.5,3.1-2.8,5.1-3.6c0.3-0.1,0.5,0,0.7,0.3c0.1,0.3,0,0.5-0.3,0.7c-1.9,0.8-3.5,2-4.7,3.4
				c-0.4,0.4-1.2,1.4-1.9,2.9c-0.2,0.5-0.4,1.1-0.6,1.7c-1,4.3,0.5,8.8,4,11.8c0.9-2.7,1.9-5.4,2.9-8.1c0.8-2.3,1.7-4.5,2.5-6.7
				c0.1-0.3,0.4-0.4,0.6-0.3c0.3,0.1,0.4,0.4,0.3,0.6c-0.8,2.2-1.7,4.4-2.5,6.7c-1.1,2.9-2.1,5.8-3.1,8.7c-0.1,0.2-0.2,0.3-0.3,0.3
				C347.8,142.5,347.8,142.6,347.7,142.6z"/>
		</g>
		<g id="shoes">
			<path class="st6" d="M310,772.7c-1.5,10.4-3,20.9-4.6,31.3c-0.1,0.6-0.2,1.2-0.3,1.9c-0.4,2.8-0.8,5.5-1.2,8.2
				c-5.3,0.9-10.7,1.8-16,2.7c-0.3-2.3-0.8-5-1.3-7.7c-0.1-0.7-0.3-1.4-0.5-2.2c-1.5-6.5-3.7-12.2-6.6-10.9c-2.6,1.1-6.3,7-9.7,13.4
				c-0.5,0.9-1,1.9-1.5,2.8c-1.5,2.9-2.9,5.9-4,8.5c-28.6,4.8-57.2,9.6-85.8,14.4c0-2.1,0-4.6,0.3-7.4c0.2-1.5,0.4-3,0.8-4.5
				c1-4.5,2.8-9.2,6-13.7c14.7-20.3,43.8-11.7,63.2-30.7c1.9-1.8,3.9-4.1,5.8-7.1C273.1,772.1,291.6,772.4,310,772.7z"/>
			
				<rect x="286.1" y="805" transform="matrix(0.9885 -0.1514 0.1514 0.9885 -118.5414 54.0765)" class="st3" width="19.5" height="1"/>
			
				<rect x="179.1" y="815.9" transform="matrix(0.9885 -0.1514 0.1514 0.9885 -121.0141 43.4311)" class="st3" width="91.2" height="1"/>
			<path class="st6" d="M577.9,835.2c-28.6-4.8-57.2-9.6-85.8-14.4c-1.2-2.6-2.6-5.5-4-8.5c-0.5-1-1-1.9-1.5-2.8
				c-3.4-6.5-7.1-12.3-9.7-13.4c-3-1.3-5.1,4.5-6.6,10.9c-0.2,0.7-0.3,1.4-0.5,2.2c-0.5,2.7-1,5.4-1.3,7.7c-5.3-0.9-10.7-1.8-16-2.7
				c-0.4-2.8-0.8-5.5-1.2-8.2c-0.1-0.6-0.2-1.2-0.3-1.9c-1.6-11-3.2-22.1-4.8-33.1c17.9-0.8,35.7-1.6,53.6-2.5
				c2.5,4.6,5.3,8,7.8,10.5c19.5,19,48.5,10.4,63.2,30.7c3.2,4.4,5,9.2,6,13.7c0.3,1.5,0.6,3.1,0.8,4.5
				C577.9,830.6,577.9,833.1,577.9,835.2z"/>
			
				<rect x="460.2" y="795.7" transform="matrix(0.1514 -0.9885 0.9885 0.1514 -405.2166 1138.9038)" class="st3" width="1" height="19.5"/>
			
				<rect x="531.2" y="770.8" transform="matrix(0.1511 -0.9885 0.9885 0.1511 -355.6552 1218.5735)" class="st3" width="1" height="91.2"/>
		</g>
		<g id="pants_1_">
			<path id="pants" class="st5" d="M487.7,521.4L487.7,521.4c-0.4-1.5-0.8-3.1-1.2-4.6c-2-7.8-3.9-15.5-5.9-23.3
				c-0.3-1-0.5-2-0.8-3.1l0,0c-7.3-28.8-14.6-57.6-21.9-86.4c-0.3-1.3-0.6-2.5-1-3.8c-6-23.7-12-47.4-18.1-71.1
				c-43.3,1.7-86.7,3.3-130,5c-28.2,120.1-56.4,240.1-84.5,360.2c-0.2,0.9-0.4,1.9-0.7,2.8c-5.8,24.7-11.6,49.3-17.4,74
				c4,0.1,8,0.1,12.1,0.2c0.8,0,1.6,0,2.4,0l0,0c11.3,0.2,22.6,0.3,33.9,0.5c18.4,0.3,36.9,0.6,55.4,0.9c3.1,0.1,6.2,0.1,9.3,0.2
				c0.7,0,1.3,0,2,0c4.8,0.1,9.6,0.2,14.5,0.2c5.1-40.9,10.1-81.9,15.2-122.8c0.1-1.2,0.3-2.5,0.5-3.7
				c8.2-66.5,16.4-132.9,24.7-199.4c3.3,24.8,6.7,49.7,10,74.5l0,0c0.3,2.3,0.6,4.6,0.9,6.9c10.9,81.1,21.8,162.3,32.7,243.4
				c3.3-0.2,6.7-0.3,10-0.5c0.7,0,1.3-0.1,2-0.1c4.8-0.2,9.5-0.4,14.3-0.7c17.9-0.8,35.7-1.6,53.6-2.5c16.7-0.8,33.4-1.5,50.1-2.3
				C529.1,684.6,508.4,603,487.7,521.4z"/>
			<g id="pattern_1_">
				<path class="st3" d="M316.6,361.6c-0.3,0-0.5-0.1-0.7-0.3c-0.4-0.4-0.4-1,0-1.4l12.5-12.5c0.4-0.4,1-0.4,1.4,0s0.4,1,0,1.4
					l-12.5,12.5C317.1,361.5,316.8,361.6,316.6,361.6z"/>
				<path class="st3" d="M366.7,357.4c-0.4,0-0.8-0.2-0.9-0.6l-6.3-16.5c-0.2-0.5,0.1-1.1,0.6-1.3c0.5-0.2,1.1,0.1,1.3,0.6l6.3,16.5
					c0.2,0.5-0.1,1.1-0.6,1.3C366.9,357.4,366.8,357.4,366.7,357.4z"/>
				<path class="st3" d="M399.8,370.4L399.8,370.4c-0.6,0-1-0.5-1-1l0.1-17.6c0-0.6,0.4-1,1-1l0,0c0.6,0,1,0.5,1,1l-0.1,17.6
					C400.8,370,400.3,370.4,399.8,370.4z"/>
				<path class="st3" d="M430.5,352.3c-0.4,0-0.7-0.2-0.9-0.6l-7.3-16.1c-0.2-0.5,0-1.1,0.5-1.3c0.5-0.2,1.1,0,1.3,0.5l7.3,16.1
					c0.2,0.5,0,1.1-0.5,1.3C430.8,352.2,430.7,352.3,430.5,352.3z"/>
				<path class="st3" d="M457.9,404l-9.5-9.5c-0.4-0.4-0.4-1,0-1.4s1-0.4,1.4,0l7.1,7.1C457.2,401.5,457.5,402.8,457.9,404z"/>
				<path class="st3" d="M299.6,409.3c-0.1,0-0.2,0-0.4-0.1c-0.5-0.2-0.8-0.8-0.6-1.3l6.3-16.5c0.2-0.5,0.8-0.8,1.3-0.6
					c0.5,0.2,0.8,0.8,0.6,1.3l-6.3,16.5C300.4,409,300,409.3,299.6,409.3z"/>
				<path class="st3" d="M377.5,407.9c-0.6,0-1-0.4-1-1l-0.1-17.6c0-0.6,0.4-1,1-1c0.5,0,1,0.4,1,1l0.1,17.6
					C378.5,407.4,378.1,407.9,377.5,407.9L377.5,407.9z"/>
				<path class="st3" d="M429.3,395.4c-0.4,0-0.8-0.3-1-0.7l-4.7-17c-0.1-0.5,0.2-1.1,0.7-1.2s1.1,0.2,1.2,0.7l4.7,17
					c0.1,0.5-0.2,1.1-0.7,1.2C429.4,395.4,429.3,395.4,429.3,395.4z"/>
				<path class="st3" d="M336.9,407.1c-0.1,0-0.3,0-0.4-0.1c-0.5-0.2-0.7-0.8-0.5-1.3l7.3-16.1c0.2-0.5,0.8-0.7,1.3-0.5
					s0.7,0.8,0.5,1.3l-7.3,16.1C337.6,406.9,337.3,407.1,336.9,407.1z"/>
				<path class="st3" d="M306.9,450.1c-0.3,0-0.5-0.1-0.7-0.3c-0.4-0.4-0.4-1,0-1.4l12.5-12.5c0.4-0.4,1-0.4,1.4,0s0.4,1,0,1.4
					l-12.5,12.5C307.4,450,307.1,450.1,306.9,450.1z"/>
				<path class="st3" d="M366.7,447.8c-0.4,0-0.8-0.2-0.9-0.6l-6.3-16.5c-0.2-0.5,0.1-1.1,0.6-1.3c0.5-0.2,1.1,0.1,1.3,0.6l6.3,16.5
					c0.2,0.5-0.1,1.1-0.6,1.3C366.9,447.8,366.8,447.8,366.7,447.8z"/>
				<path class="st3" d="M403.8,441.9L403.8,441.9c-0.6,0-1-0.5-1-1l0.1-17.6c0-0.6,0.5-1,1-1c0.6,0,1,0.5,1,1l-0.1,17.6
					C404.8,441.5,404.4,441.9,403.8,441.9z"/>
				<path class="st3" d="M452.7,441.1c-0.4,0-0.7-0.2-0.9-0.6l-7.3-16.1c-0.2-0.5,0-1.1,0.5-1.3c0.5-0.2,1.1,0,1.3,0.5l7.3,16.1
					c0.2,0.5,0,1.1-0.5,1.3C453,441.1,452.8,441.1,452.7,441.1z"/>
				<path class="st3" d="M435.5,528.8c-0.3,0-0.5-0.1-0.7-0.3L422.3,516c-0.4-0.4-0.4-1,0-1.4s1-0.4,1.4,0l12.5,12.5
					c0.4,0.4,0.4,1,0,1.4C436,528.7,435.7,528.8,435.5,528.8z"/>
				<path class="st3" d="M282.8,487.6c-0.1,0-0.2,0-0.4-0.1c-0.5-0.2-0.8-0.8-0.6-1.3l6.3-16.5c0.2-0.5,0.8-0.8,1.3-0.6
					c0.5,0.2,0.8,0.8,0.6,1.3l-6.3,16.5C283.6,487.3,283.2,487.6,282.8,487.6z"/>
				<path class="st3" d="M400.4,491c-0.4,0-0.7-0.2-0.9-0.6l-7.6-15.9c-0.2-0.5,0-1.1,0.5-1.3c0.5-0.2,1.1,0,1.3,0.5l7.6,15.9
					c0.2,0.5,0,1.1-0.5,1.3C400.7,491,400.5,491,400.4,491z"/>
				<path class="st3" d="M341,487.4c-0.1,0-0.3,0-0.4-0.1c-0.5-0.2-0.7-0.8-0.5-1.3l7.3-16.1c0.2-0.5,0.8-0.7,1.3-0.5
					s0.7,0.8,0.5,1.3l-7.3,16.1C341.8,487.2,341.4,487.4,341,487.4z"/>
				<path class="st3" d="M231.5,690l-6.9,6.9c-0.2,0.2-0.4,0.3-0.7,0.3c-0.1,0-0.2,0-0.2,0c0.2-0.9,0.4-1.9,0.7-2.8l5.8-5.8
					c0.4-0.4,1-0.4,1.4,0S231.9,689.6,231.5,690z"/>
				<path class="st3" d="M332.3,712.6c-0.4,0-0.7-0.2-0.9-0.6l-7.3-16.1c-0.2-0.5,0-1.1,0.5-1.3s1.1,0,1.3,0.5l7.3,16.1
					c0.2,0.5,0,1.1-0.5,1.3C332.5,712.5,332.4,712.6,332.3,712.6z"/>
				<path class="st3" d="M269.1,712.5c-0.6,0-1-0.4-1-1l-0.1-17.6c0-0.6,0.4-1,1-1l0,0c0.6,0,1,0.4,1,1l0.1,17.6
					C270.1,712.1,269.6,712.5,269.1,712.5L269.1,712.5z"/>
				<path class="st3" d="M302.9,734.2c-0.4,0-0.8-0.3-1-0.7l-4.7-17c-0.1-0.5,0.2-1.1,0.7-1.2c0.5-0.2,1.1,0.2,1.2,0.7l4.7,17
					c0.1,0.5-0.2,1.1-0.7,1.2C303.1,734.2,303,734.2,302.9,734.2z"/>
				<path class="st3" d="M227.1,748.2c-0.1,0-0.3,0-0.4-0.1c-0.5-0.2-0.7-0.8-0.5-1.3l7.3-16.1c0.2-0.5,0.8-0.7,1.3-0.5
					s0.7,0.8,0.5,1.3l-7.3,16.1C227.9,747.9,227.5,748.2,227.1,748.2z"/>
				<path class="st3" d="M221.8,770.3l-1,1.1l0,0c-0.8,0-1.6,0-2.4,0c0-0.3,0.1-0.5,0.3-0.7l1.8-1.7c0.4-0.4,1-0.4,1.4,0
					C222.2,769.3,222.2,769.9,221.8,770.3z"/>
				<path class="st3" d="M269,761.8c-0.4,0-0.8-0.2-0.9-0.6l-6.3-16.5c-0.2-0.5,0.1-1.1,0.6-1.3s1.1,0.1,1.3,0.6l6.3,16.5
					c0.2,0.5-0.1,1.1-0.6,1.3C269.3,761.8,269.1,761.8,269,761.8z"/>
				<path class="st3" d="M321.4,755.5l-0.1,17.4c-0.7,0-1.3,0-2,0l0.1-17.4c0-0.5,0.4-1,1-1l0,0C321,754.5,321.4,755,321.4,755.5z"
					/>
				<path class="st3" d="M276.6,535c-0.3,0-0.5-0.1-0.7-0.3c-0.4-0.4-0.4-1,0-1.4l12.5-12.5c0.4-0.4,1-0.4,1.4,0s0.4,1,0,1.4
					l-12.5,12.5C277.1,534.9,276.8,535,276.6,535z"/>
				<path class="st3" d="M317.2,512.5c-0.4,0-0.8-0.2-0.9-0.6l-6.3-16.5c-0.2-0.5,0.1-1.1,0.6-1.3c0.5-0.2,1.1,0.1,1.3,0.6l6.3,16.5
					c0.2,0.5-0.1,1.1-0.6,1.3C317.4,512.4,317.3,512.5,317.2,512.5z"/>
				<path class="st3" d="M353.3,535.6L353.3,535.6c-0.6,0-1-0.5-1-1l0.1-17.6c0-0.5,0.4-1,1-1l0,0c0.6,0,1,0.5,1,1l-0.1,17.6
					C354.3,535.2,353.9,535.6,353.3,535.6z"/>
				<path class="st3" d="M390.9,534.7c-0.1,0.1-0.3,0.1-0.4,0.1c-0.4,0-0.7-0.2-0.9-0.6l-2.5-5.5c-0.3-2.3-0.6-4.6-0.9-6.9l5.2,11.6
					C391.7,533.9,391.4,534.5,390.9,534.7z"/>
				<path class="st3" d="M421.5,572.5c-0.3,0-0.5-0.1-0.7-0.3l-12.5-12.5c-0.4-0.4-0.4-1,0-1.4s1-0.4,1.4,0l12.5,12.5
					c0.4,0.4,0.4,1,0,1.4C422,572.4,421.8,572.5,421.5,572.5z"/>
				<path class="st3" d="M259.6,574.4c-0.1,0-0.2,0-0.4-0.1c-0.5-0.2-0.8-0.8-0.6-1.3l6.3-16.5c0.2-0.5,0.8-0.8,1.3-0.6
					s0.8,0.8,0.6,1.3l-6.3,16.5C260.3,574.2,260,574.4,259.6,574.4z"/>
				<path class="st3" d="M344.8,573c-0.6,0-1-0.4-1-1l-0.1-17.6c0-0.6,0.4-1,1-1l0,0c0.6,0,1,0.4,1,1l0.1,17.6
					C345.8,572.6,345.3,573,344.8,573L344.8,573z"/>
				<path class="st3" d="M296.9,572.2c-0.1,0-0.3,0-0.4-0.1c-0.5-0.2-0.7-0.8-0.5-1.3l7.3-16.1c0.2-0.5,0.8-0.7,1.3-0.5
					s0.7,0.8,0.5,1.3l-7.3,16.1C297.6,572,297.3,572.2,296.9,572.2z"/>
				<path class="st3" d="M270.3,621.5c-0.3,0-0.5-0.1-0.7-0.3c-0.4-0.4-0.4-1,0-1.4l12.5-12.5c0.4-0.4,1-0.4,1.4,0s0.4,1,0,1.4
					L271,621.3C270.8,621.4,270.6,621.5,270.3,621.5z"/>
				<path class="st3" d="M326.7,613c-0.4,0-0.8-0.2-0.9-0.6l-6.3-16.5c-0.2-0.5,0.1-1.1,0.6-1.3s1.1,0.1,1.3,0.6l6.3,16.5
					c0.2,0.5-0.1,1.1-0.6,1.3C326.9,613,326.8,613,326.7,613z"/>
				<path class="st3" d="M408.3,610.9c-0.4,0-0.7-0.2-0.9-0.6l-7.3-16.1c-0.2-0.5,0-1.1,0.5-1.3s1.1,0,1.3,0.5l7.3,16.1
					c0.2,0.5,0,1.1-0.5,1.3C408.6,610.8,408.4,610.9,408.3,610.9z"/>
				<path class="st3" d="M439.5,649.8c-0.1,0-0.2,0-0.4-0.1l-16.4-6.6c-0.5-0.2-0.8-0.8-0.6-1.3c0.2-0.5,0.8-0.8,1.3-0.6l16.4,6.6
					c0.5,0.2,0.8,0.8,0.6,1.3C440.3,649.6,439.9,649.8,439.5,649.8z"/>
				<path class="st3" d="M253.3,665.5c-0.1,0-0.2,0-0.4-0.1c-0.5-0.2-0.8-0.8-0.6-1.3l6.3-16.5c0.2-0.5,0.8-0.8,1.3-0.6
					s0.8,0.8,0.6,1.3l-6.3,16.5C254,665.3,253.7,665.5,253.3,665.5z"/>
				<path class="st3" d="M351.5,646.6c-0.2,1.2-0.3,2.4-0.5,3.7l-6.9-14.3c-0.2-0.5,0-1.1,0.5-1.3s1.1,0,1.3,0.5L351.5,646.6z"/>
				<path class="st3" d="M302.2,660.6c-0.1,0-0.3,0-0.4-0.1c-0.5-0.2-0.7-0.8-0.5-1.3l7.3-16.1c0.2-0.5,0.8-0.7,1.3-0.5
					s0.7,0.8,0.5,1.3l-7.3,16.1C303,660.4,302.6,660.6,302.2,660.6z"/>
				<path class="st3" d="M435.5,487.2c-0.2,0-0.3,0-0.5-0.1c-0.5-0.2-0.7-0.9-0.4-1.3l8-15.7c0.2-0.5,0.9-0.7,1.3-0.4
					c0.5,0.2,0.7,0.9,0.4,1.3l-8,15.7C436.2,487,435.9,487.2,435.5,487.2z"/>
				<path class="st3" d="M487.7,521.4l-7.1-8.8l-0.5-0.6c-0.3-0.4-0.3-1.1,0.2-1.4c0.1-0.1,0.2-0.1,0.3-0.2c0.4-0.1,0.8,0,1.1,0.3
					l4.8,5.9C486.9,518.3,487.3,519.9,487.7,521.4z"/>
				<path class="st3" d="M469.2,558c-0.4,0-0.8-0.2-0.9-0.6l-7.1-16.1c-0.2-0.5,0-1.1,0.5-1.3s1.1,0,1.3,0.5l7.1,16.1
					c0.2,0.5,0,1.1-0.5,1.3C469.5,558,469.4,558,469.2,558z"/>
				<path class="st3" d="M484.5,589.8h-0.1c-0.5-0.1-0.9-0.6-0.9-1.1l1.9-17.5c0.1-0.5,0.6-0.9,1.1-0.9c0.5,0.1,0.9,0.6,0.9,1.1
					l-1.9,17.5C485.5,589.4,485,589.8,484.5,589.8z"/>
				<path class="st3" d="M448.3,604.4c-0.2,0-0.3,0-0.5-0.1c-0.5-0.2-0.7-0.9-0.4-1.3l8-15.7c0.2-0.5,0.9-0.7,1.3-0.4
					c0.5,0.2,0.7,0.9,0.4,1.3l-8,15.7C449,604.2,448.7,604.4,448.3,604.4z"/>
				<path class="st3" d="M469.7,649.1L469.7,649.1c-0.6,0-1-0.5-1-1.1l0.9-17.6c0-0.6,0.5-1,1-0.9c0.6,0,1,0.5,0.9,1l-0.9,17.6
					C470.7,648.7,470.2,649.1,469.7,649.1z"/>
				<path class="st3" d="M506.3,643h-0.1c-0.5-0.1-0.9-0.6-0.9-1.1l1.9-17.5c0.1-0.5,0.6-0.9,1.1-0.9c0.5,0.1,0.9,0.6,0.9,1.1
					l-1.9,17.5C507.3,642.6,506.8,643,506.3,643z"/>
				<path class="st3" d="M470.6,710.6c-0.2,0-0.3,0-0.5-0.1c-0.5-0.2-0.7-0.9-0.4-1.3l8-15.7c0.2-0.5,0.9-0.7,1.3-0.4
					c0.5,0.2,0.7,0.9,0.4,1.3l-8,15.7C471.3,710.4,471,710.6,470.6,710.6z"/>
				<path class="st3" d="M421.7,708.2c-0.2,0-0.3,0-0.5-0.1c-0.5-0.2-0.7-0.9-0.4-1.3l8-15.7c0.3-0.5,0.9-0.7,1.3-0.4
					c0.5,0.2,0.7,0.9,0.4,1.3l-8,15.7C422.4,708,422,708.2,421.7,708.2z"/>
				<path class="st3" d="M508.3,691.9c-0.3,0-0.6-0.1-0.8-0.4l-11.1-13.7c-0.3-0.4-0.3-1.1,0.1-1.4c0.4-0.3,1.1-0.3,1.4,0.1
					l11.1,13.7c0.3,0.4,0.3,1.1-0.1,1.4C508.7,691.8,508.5,691.9,508.3,691.9z"/>
				<path class="st3" d="M446.6,751.3c-0.4,0-0.8-0.2-0.9-0.6l-6.3-16.5c-0.2-0.5,0.1-1.1,0.6-1.3s1.1,0.1,1.3,0.6l6.3,16.5
					c0.2,0.5-0.1,1.1-0.6,1.3C446.9,751.3,446.7,751.3,446.6,751.3z"/>
				<path class="st3" d="M432.3,762.1l-0.5,9.5c-0.7,0-1.3,0.1-2,0.1l0.5-9.6c0-0.5,0.5-1,1-0.9
					C431.9,761.1,432.4,761.6,432.3,762.1z"/>
				<path class="st3" d="M536.4,723.3c-0.4,0-0.8-0.3-0.9-0.7l-5.5-16.7c-0.2-0.5,0.1-1.1,0.6-1.3s1.1,0.1,1.3,0.6l5.5,16.7
					c0.2,0.5-0.1,1.1-0.6,1.3C536.6,723.3,536.5,723.3,536.4,723.3z"/>
				<path class="st3" d="M481.1,762.4H481c-0.5-0.1-0.9-0.6-0.9-1.1l1.9-17.5c0.1-0.5,0.6-0.9,1.1-0.9c0.5,0.1,0.9,0.6,0.9,1.1
					l-1.9,17.5C482.1,762,481.6,762.4,481.1,762.4z"/>
				<path class="st3" d="M524,748.5c-0.3,0-0.6-0.1-0.8-0.4l-11.1-13.7c-0.3-0.4-0.3-1.1,0.1-1.4c0.4-0.3,1.1-0.3,1.4,0.1l11.1,13.7
					c0.3,0.4,0.3,1.1-0.1,1.4C524.5,748.4,524.3,748.5,524,748.5z"/>
			</g>
		</g>
		<g id="blouse">
			<g id="pattern">
				<circle class="st6" cx="369.3" cy="230.7" r="18.9"/>
				<path class="st6" d="M409.2,301.8c-3.4,3.4-8.2,5.5-13.4,5.5c-10.5,0-18.9-8.5-18.9-18.9s8.5-18.9,18.9-18.9
					c4.3,0,8.2,1.4,11.4,3.8C407.9,282.8,408.6,292.3,409.2,301.8z"/>
				<path class="st6" d="M360.8,322c0,3.6-1,6.9-2.7,9.7c-0.1,0.2-0.2,0.4-0.3,0.5c-2.2,0.1-4.5,0.2-6.7,0.3
					c-5.9,0.2-11.9,0.4-17.8,0.7c1.2-9.8,2.4-19.6,3.5-29.5c1.6-0.5,3.3-0.7,5.1-0.7C352.3,303,360.8,311.5,360.8,322z"/>
				<path class="st6" d="M360.7,161.5c-2,1.1-4.3,1.9-6.8,2.2c0.6-4.4,1.2-8.9,1.8-13.3h0.1C357.5,154.1,359.1,157.8,360.7,161.5z"
					/>
			</g>
			<path class="st3" d="M380.8,208.6c-0.2,0-0.4-0.1-0.5-0.3l-21.1-48.9c-0.1-0.3,0-0.5,0.3-0.7c0.3-0.1,0.5,0,0.7,0.3l20.6,47.7
				l14-42.9c0.1-0.3,0.4-0.4,0.6-0.3c0.3,0.1,0.4,0.4,0.3,0.6l-14.4,44.2C381.3,208.5,381.1,208.6,380.8,208.6
				C380.9,208.6,380.8,208.6,380.8,208.6z"/>
			<path class="st3" d="M351.5,333c-0.3,0-0.5-0.2-0.5-0.5s0.2-0.5,0.5-0.5l59.4-2.4c0.3,0,0.5,0.2,0.5,0.5s-0.2,0.5-0.5,0.5
				L351.5,333L351.5,333z"/>
		</g>
		<g id="gown">
			<path class="st4" d="M355.8,150.4c-0.4,3.3-1.3,10-1.7,13.3c-7.1,56.2-14.1,112.5-20.8,168.8c-2.3,18.6-4,33.6-5.2,43.1
				c0,0-11.7,84.3-25.3,224.8c0,0.3-0.1,0.6-0.1,0.9c-1,9.3-2,18.6-3,27.9l-94-21l6.8-28.9l0.2-1l69.9-296.2c-4.6,6-36,45.7-70,39
				c-10.3-2-17.2-7.7-20-10c-28.8-23.7-37-94-39.3-140.4c0-0.3,0-0.7,0-1c-1-20.2-0.8-35.7-0.7-40.6c0.1,0,0.2,0,0.3,0
				c16.9,1.2,33.8,2.3,50.7,3.5c0.9,14,1.9,26.4,3.1,37.3c0,0.3,0.1,0.7,0.1,1c6.2,58.1,15.7,72.8,23.9,73.9
				c14.9,1.9,24.1-41.1,69.8-71.5C321.6,159.3,342.1,153.3,355.8,150.4z"/>
			<path class="st4" d="M618.7,175.7c-9.8-2.5-18.9-5.2-27.3-8.1c0,0,0,0-0.1,0c-8.6,28.5-17.2,51.8-24.1,68.9
				c-8.5,21-11.8,26.7-17.3,27.7c-11.7,2.1-19.6-19.1-50-54c-17.5-20-30.6-34.8-51.5-45.6c-19-9.8-37.1-12.6-49.5-13.4v0.1
				c4.1,59.7,8.2,119.3,12.3,179l14.7,298.9c32.7-7.3,65.3-14.7,98-22c-21.7-114-43.3-228-65-342c8.1,12.5,16.8,23.6,25.7,33.2
				c8.5,9.1,16.2,17,27.5,23.8c6.6,3.9,30.1,18,52.1,13c29.7-6.7,43.6-45.5,58.7-87.6c10.1-28,14.7-52,17-67.2
				C633,179.1,626,177.5,618.7,175.7z"/>
			<path class="st3" d="M321.5,348.2c-0.2,0-0.4-0.2-0.5-0.4L298.8,242c0-0.1,0-0.3,0.1-0.4c0.1-0.1,0.2-0.2,0.4-0.2
				c1.1,0,19.2-0.1,23.9-0.1l-19.4-49c-0.1-0.2,0-0.4,0.1-0.6l38.6-31.4c0.2-0.2,0.5-0.1,0.7,0.1c0.2,0.2,0.1,0.5-0.1,0.7
				l-38.3,31.1l19.5,49.3c0.1,0.2,0,0.3-0.1,0.5c-0.1,0.1-0.2,0.2-0.4,0.2c-2.8,0-20.4,0.1-24,0.1L322,347.6
				c0.1,0.3-0.1,0.5-0.4,0.6H321.5z"/>
			<path class="st3" d="M423.2,347.3C423.2,347.3,423.1,347.3,423.2,347.3c-0.4-0.1-0.5-0.3-0.5-0.6L444.3,240l-22.3-4.5
				c-0.2,0-0.3-0.1-0.4-0.3s0-0.3,0-0.5c4.1-6.2,8.3-12.6,12.5-18.8c5.1-7.6,10.3-15.3,15.5-22.9c-9-7.3-36.3-29.5-39.5-32.1
				c-0.2-0.2-0.2-0.5-0.1-0.7c0.2-0.2,0.5-0.2,0.7-0.1c3.3,2.6,31.3,25.4,39.9,32.4c0.2,0.2,0.2,0.5,0.1,0.7
				c-5.3,7.7-10.6,15.5-15.8,23.3c-4,6-8.1,12.1-12,18.2l22,4.5c0.3,0.1,0.4,0.3,0.4,0.6l-21.6,107.1
				C423.6,347.1,423.4,347.3,423.2,347.3z"/>
			<path class="st3" d="M208.7,170.9C208.6,170.9,208.6,170.9,208.7,170.9c-4.1,0-40.8-0.4-55.1-0.2l0,0c-0.3,0-0.5-0.2-0.5-0.5
				s0.2-0.5,0.5-0.5c14.3-0.2,51,0.2,55.1,0.2c0.3,0,0.5,0.2,0.5,0.5C209.1,170.7,208.9,170.9,208.7,170.9z"/>
			<path class="st3" d="M631.4,216L631.4,216c-6.3-1.4-37.9-8.7-52.1-11.6c-0.3-0.1-0.4-0.3-0.4-0.6c0.1-0.3,0.3-0.4,0.6-0.4
				c14.2,2.9,45.8,10.2,52,11.6c0.3,0.1,0.4,0.3,0.4,0.6C631.8,215.8,631.6,216,631.4,216z"/>
			<path class="st3" d="M302.7,601.3h-0.1l-89.9-22c-0.3-0.1-0.4-0.3-0.4-0.6c0.1-0.3,0.3-0.4,0.6-0.4l89.9,22
				c0.3,0.1,0.4,0.3,0.4,0.6C303.1,601.1,302.9,601.3,302.7,601.3z"/>
			<path class="st3" d="M424.5,601.3c-0.2,0-0.4-0.1-0.5-0.4c-0.1-0.3,0.1-0.5,0.4-0.6c25.6-6.7,51.3-13.4,76.9-20.1l16.6-4.3
				c0.3-0.1,0.5,0.1,0.6,0.4s-0.1,0.5-0.4,0.6l-16.6,4.3C475.9,587.9,450.2,594.6,424.5,601.3C424.5,601.3,424.5,601.3,424.5,601.3z
				"/>
		</g>
		<g id="hands">
			<g id="hand_l">
				<path class="st2" d="M203.9,132.6c-16.9-1.2-33.8-2.3-50.7-3.5c-3.1-1.2-6.3-2.6-9.7-4.2c-11.8-5.8-20.6-12.6-26.6-18.1
					c-2.2-2.1-2.3-5.6-0.2-7.8c0.6-0.7,1.4-1.1,2.2-1.4c0.6-0.2,1.2-0.3,1.8-0.3l-3.3-2.9c-1.2-1.1-1.9-2.6-1.9-4.2
					c0-1.3,0.4-2.6,1.4-3.6c1.4-1.5,3.4-2.2,5.3-1.8l-1.4-1.2c-2.3-2-2.5-5.5-0.5-7.8s5.5-2.5,7.8-0.5l0.7,0.6
					c-0.9-1.9-0.7-4.3,0.8-6c2-2.3,5.5-2.5,7.8-0.5l28,24.4l0,0l11.9,2.7l-9-11.7c-1.8-2.4-1.4-5.9,1-7.8c0.5-0.4,1-0.6,1.5-0.8
					c2.2-0.8,4.7-0.1,6.2,1.9c4.9,4.6,11.6,11.9,17.1,22.3C201,113.2,203.1,125.2,203.9,132.6z"/>
				<path d="M177.8,120.5c-0.1,0-0.3-0.1-0.4-0.2c-9.1-9.4-0.1-19.8,0-19.9c0.2-0.2,0.5-0.2,0.7,0s0.2,0.5,0,0.7c0,0-2.2,2.5-3.2,6
					c-1.4,4.6-0.3,8.8,3.2,12.5c0.2,0.2,0.2,0.5,0,0.7C178.1,120.4,178,120.5,177.8,120.5z"/>
				<path d="M154.7,97.7c-0.1,0-0.2,0-0.3-0.1l-26-21.3c-0.2-0.2-0.2-0.5-0.1-0.7c0.2-0.2,0.5-0.2,0.7-0.1l26,21.3
					c0.2,0.2,0.2,0.5,0.1,0.7S154.8,97.7,154.7,97.7z"/>
				<path d="M148.4,105c-0.1,0-0.2,0-0.3-0.1l-26.3-19.7c-0.2-0.2-0.3-0.5-0.1-0.7c0.2-0.2,0.5-0.3,0.7-0.1l26.3,19.7
					c0.2,0.2,0.3,0.5,0.1,0.7C148.7,105,148.6,105,148.4,105z"/>
				<path d="M145.7,115.4c-0.1,0-0.2,0-0.3-0.1l-25.1-17.6c-0.2-0.2-0.3-0.5-0.1-0.7c0.2-0.2,0.5-0.3,0.7-0.1l25.1,17.6
					c0.2,0.2,0.3,0.5,0.1,0.7C146,115.3,145.8,115.4,145.7,115.4z"/>
			</g>
			<g id="hand_r">
				<path class="st2" d="M665.4,164.2c-0.3-0.7-0.6-1.4-1.1-1.9c-0.1-0.1-0.2-0.3-0.4-0.4c-1.3-1.2-3.1-1.9-4.9-1.7
					c1.4-0.6,2.5-1.7,3.1-3.1c0.6-1.3,0.7-2.9,0.2-4.4c-0.9-2.6-3.6-4.3-6.4-4c-0.1,0-0.3,0-0.4,0c0.1,0,0.2-0.1,0.3-0.2
					c2.4-1.3,3.6-4.1,2.9-6.8c0-0.1-0.1-0.3-0.1-0.4c-0.6-1.8-2-3.1-3.7-3.7c-1.1-0.4-2.3-0.5-3.5-0.2c0.7-0.5,1.2-1.1,1.7-1.7
					c1.1-1.6,1.3-3.8,0.4-5.7c-0.9-2-2.8-3.2-4.8-3.5c-0.7-0.1-1.3-0.1-2,0.1c-0.3,0.1-0.7,0.2-1,0.3c-0.1,0-0.2,0.1-0.3,0.1
					l-0.4,0.2l-3.5,1.6l-0.1,0.1l-6.1,2.7l-2,0.9l-6.1,2.7l-3,1.3l-3.6,1.6l-1.1,0.5l-3.6,1.6l1.9-4.1c1.4-3,0.1-6.6-2.9-8
					c-0.8-0.4-1.7-0.5-2.5-0.5c-2.3,0-4.5,1.3-5.5,3.5c0,0-15.5,36-15.7,36.6h0.1c5.2,1.8,10.6,3.5,16.3,5.1c3-2.6,6.7-5,11.1-6.8
					c0,0.5,0.2,0.9,0.3,1.4c1.1,3.1,4.6,4.8,7.8,3.7l5.3-1.8c-2.3,1.5-3.4,4.3-2.5,7c0.3,0.9,0.8,1.7,1.5,2.3
					c0.1,0.1,0.2,0.2,0.3,0.3s0.2,0.2,0.3,0.2c0.1,0.1,0.2,0.2,0.3,0.2c0.1,0.1,0.2,0.1,0.3,0.2c0.4,0.3,0.9,0.5,1.4,0.6
					c0.2,0.1,0.4,0.1,0.6,0.1c0.6,0.1,1.2,0.1,1.8,0c0.4,0,0.8-0.1,1.2-0.3l0.2-0.1l5.3-1.8l12.2-4l6.6-2.2h0.1
					c0.3-0.1,0.6-0.2,0.9-0.4C665.2,170.1,666.5,167,665.4,164.2z"/>
				<path d="M622.1,160.5c-0.2,0-0.4-0.1-0.5-0.3c-0.1-0.3,0-0.5,0.3-0.6l29-10.4c0.3-0.1,0.5,0,0.6,0.3s0,0.5-0.3,0.6L622.1,160.5
					C622.2,160.5,622.1,160.5,622.1,160.5z"/>
				<path d="M632.1,169.8c-0.2,0-0.4-0.1-0.5-0.3c-0.1-0.3,0-0.5,0.3-0.6l23.8-8.7c0.3-0.1,0.5,0,0.6,0.3s0,0.5-0.3,0.6L632.1,169.8
					C632.2,169.8,632.1,169.8,632.1,169.8z"/>
				<path d="M647.4,138.8c-0.1-0.2-0.4-0.4-0.7-0.2c-6.5,3-13.2,6-20,9c-5.7,2.5-10.6,4.6-13.2,2.6c-1-0.8-1.7-2.2-1.9-4.1
					c0-0.3-0.3-0.5-0.5-0.5c-0.3,0-0.5,0.3-0.4,0.5c0.2,2,0.8,3.5,1.9,4.5c0.1,0.1,0.2,0.2,0.4,0.3c0.1,0.1,0.3,0.2,0.4,0.3
					c0.8,0.5,1.8,0.7,2.8,0.7c2.9,0,6.7-1.7,10.9-3.5c6.8-3,13.5-6,20-9C647.4,139.4,647.5,139.1,647.4,138.8z"/>
			</g>
		</g>
	</g>
	<path id="star" class="st6" d="M652.7,67.7c-6.1,12.4-12.2,24.9-18.2,37.3c-1.9-10.8-3.8-21.6-5.7-32.4
		c-9.8,5.4-19.7,10.8-29.5,16.3c5.1-10,10.2-20,15.3-30c-10.1-2.4-20.2-4.7-30.4-7.1c11.1-3.7,22.1-7.4,33.2-11.1
		c-3.6-10.3-7.2-20.7-10.8-31c9.3,6.8,18.5,13.7,27.8,20.5c6.1-10,12.2-20,18.2-30c0.6,11,1.3,22,1.9,33c10.3-1.3,20.6-2.6,30.9-3.8
		c-7.7,7.8-15.4,15.7-23.1,23.5c7.6,6.8,15.1,13.5,22.7,20.3C674.3,71.2,663.5,69.4,652.7,67.7z"/>
	<g id="test_tube">
		<circle class="st3" cx="638.5" cy="114.9" r="2.3"/>
		<circle class="st3" cx="629" cy="120.7" r="2.1"/>
		<circle class="st3" cx="637.1" cy="122.9" r="1.4"/>
		<circle class="st3" cx="630" cy="129.9" r="1"/>
		<circle class="st3" cx="641" cy="105.8" r="1.4"/>
		<circle class="st3" cx="629.3" cy="111.9" r="0.7"/>
		<circle class="st3" cx="642.4" cy="122.9" r="0.7"/>
		<path class="st3" d="M641.5,128.8l-0.1,0.1l-6.1,2.7c-0.2-0.5-0.4-1-0.4-1.6c0-1.9,1.5-3.4,3.4-3.4
			C639.7,126.6,641,127.5,641.5,128.8z"/>
		<path class="st3" d="M627.2,135.1l-3,1.3c0-0.1,0-0.2,0-0.3c0-0.9,0.8-1.7,1.7-1.7C626.4,134.5,626.9,134.7,627.2,135.1z"/>
		<path class="st3" d="M645.3,95.8h-20.4c-2.8,0-5.1,2.5-5.1,5.5c0,2.6,1.7,4.8,4,5.4l-4.2,31.8l1.1-0.5l4.2-31.7
			c0-0.3-0.2-0.5-0.4-0.6c-2.1-0.3-3.6-2.2-3.6-4.5c0-2.5,1.8-4.5,4.1-4.5h20.4c2.3,0,4.1,2,4.1,4.5c0,2.2-1.4,4.1-3.4,4.5
			c-0.2,0-0.4,0.2-0.4,0.5V127c0.3-0.1,0.7-0.2,1-0.3v-20.1c2.2-0.6,3.8-2.8,3.8-5.3C650.4,98.3,648.1,95.8,645.3,95.8z M675,194
			l-12.4-22.6c-0.3,0.2-0.5,0.3-0.9,0.4h-0.1l12.1,22h-93l32.7-42.5c-0.2-0.1-0.3-0.2-0.4-0.3c-0.1-0.1-0.3-0.2-0.4-0.3L579.3,194
			c-0.1,0.2-0.1,0.4,0,0.5c0.1,0.2,0.2,0.3,0.4,0.3h94.9c0.2,0,0.3-0.1,0.4-0.2C675,194.4,675,194.2,675,194z"/>
		<path class="st3" d="M655,174l-12.1,4.1l-5.3,1.8l-0.2,0.1c-0.4,0.1-0.8,0.2-1.2,0.3c-0.6,0.1-1.2,0.1-1.8,0
			c-0.2,0-0.4-0.1-0.6-0.1c-0.5-0.1-1-0.3-1.4-0.6c-0.1-0.1-0.2-0.1-0.3-0.2c-0.1-0.1-0.2-0.2-0.3-0.2c-0.1-0.1-0.2-0.1-0.3-0.2
			c-0.1-0.1-0.2-0.2-0.3-0.3c-0.7-0.6-1.2-1.4-1.5-2.3c-0.9-2.7,0.1-5.5,2.5-7l-5.3,1.8c-3.2,1.1-6.7-0.6-7.8-3.7
			c-0.2-0.5-0.3-0.9-0.3-1.4c-4.4,1.7-8.1,4.2-11.1,6.8c-6.6,5.7-9.9,12.3-11,14.5h64.5C660.8,186.1,659.4,179.9,655,174z"/>
	</g>
</g>
</svg>
