<?xml version="1.0" encoding="utf-8"?>
<!-- Generator: Adobe Illustrator 22.1.0, SVG Export Plug-In . SVG Version: 6.00 Build 0)  -->
<svg version="1.1" id="Слой_1" xmlns="http://www.w3.org/2000/svg" xmlns:xlink="http://www.w3.org/1999/xlink" x="0px" y="0px"
	 viewBox="0 0 1109.4 572.3" style="enable-background:new 0 0 1109.4 572.3;" xml:space="preserve">
<style type="text/css">
	.st0{fill:#FFFFFF;}
	.st1{fill:#8C1DF1;}
	.st2{fill:#FFB800;}
	.st3{fill:#D5E0EA;}
	.st4{fill:#FF1EAD;}
	.st5{fill:#290060;}
</style>
<g id="background_3_">
	<g id="background_2_">
		<g id="_x32_nd_window">
			<path id="background_1_" class="st0" d="M1014.3,244.7c0,2.1,0,4.2-0.1,6.3c-0.1,2.3-0.2,4.7-0.3,7c-2,33.3-11.2,64.6-26.3,92.3
				c-22.7,41.9-58.5,75.7-102,95.9c-3.1,1.5-6.3,2.8-9.5,4.1c-0.5,0.2-1.1,0.4-1.7,0.7c-0.5,0.2-0.9,0.4-1.4,0.5
				c-1.2,0.5-2.5,1-3.8,1.4c-0.7,0.3-1.4,0.5-2.1,0.8c-2.4,0.9-4.9,1.7-7.3,2.5c-0.8,0.2-1.5,0.5-2.3,0.7s-1.6,0.5-2.3,0.7
				s-1.5,0.4-2.2,0.6c-0.5,0.1-1.1,0.3-1.6,0.4c-0.7,0.2-1.5,0.4-2.2,0.6c-1,0.2-1.9,0.5-2.9,0.7c-0.6,0.2-1.3,0.3-1.9,0.5
				c-1.7,0.4-3.4,0.8-5.1,1.1c-1.2,0.2-2.3,0.5-3.5,0.7c-0.1,0-0.1,0-0.2,0c-1.2,0.2-2.4,0.5-3.6,0.7c-0.5,0.1-1,0.2-1.5,0.3
				c-2.5,0.4-5.1,0.8-7.6,1.2c-0.5,0.1-1,0.1-1.5,0.2c-1.5,0.2-3,0.4-4.6,0.6c-0.8,0.1-1.5,0.2-2.3,0.2c-0.8,0.1-1.5,0.2-2.3,0.2
				c-1,0.1-2.1,0.2-3.1,0.3c-1.2,0.1-2.3,0.2-3.5,0.2c-0.8,0.1-1.7,0.1-2.5,0.1c-0.1,0-0.2,0-0.3,0c-0.4,0-0.9,0-1.3,0.1
				c-0.6,0-1.2,0-1.8,0.1c-0.4,0-0.8,0-1.2,0c-1,0-2.1,0-3.1,0.1c-1,0-2.1,0-3.1,0c-1.3,0-2.7,0-4,0c-1,0-2,0-3-0.1
				c-1.5,0-3.1-0.1-4.6-0.2c-0.6,0-1.2-0.1-1.7-0.1c-0.9,0-1.9-0.1-2.8-0.2c-0.8,0-1.5-0.1-2.3-0.2c-1.9-0.2-3.9-0.3-5.8-0.6
				c-1.1-0.1-2.2-0.2-3.3-0.4c-1.3-0.2-2.6-0.3-3.9-0.5c-0.7-0.1-1.4-0.2-2.1-0.3c-0.2,0-0.5-0.1-0.7-0.1c-1-0.2-2.1-0.3-3.1-0.5
				c-1.2-0.2-2.5-0.4-3.8-0.7c-1.2-0.2-2.5-0.5-3.8-0.7c-1.2-0.2-2.5-0.5-3.7-0.8s-2.5-0.6-3.7-0.9c-6.2-1.5-12.3-3.3-18.3-5.3
				c-1.1-0.4-2.3-0.8-3.4-1.2c-0.8-0.3-1.5-0.6-2.3-0.8c-1.3-0.5-2.6-1-3.9-1.5c-0.4-0.2-0.8-0.3-1.2-0.5c-2-0.8-4.1-1.6-6.1-2.5
				c-0.3-0.1-0.7-0.3-1-0.4c-1-0.4-1.9-0.8-2.8-1.2c-0.6-0.3-1.3-0.6-1.9-0.9c-3.5-1.6-6.9-3.3-10.3-5.1c-1.3-0.7-2.5-1.4-3.8-2
				c-1.3-0.7-2.5-1.4-3.8-2.1c-1.2-0.7-2.5-1.4-3.7-2.2c-2.5-1.5-4.9-3-7.3-4.6c-1.2-0.8-2.4-1.6-3.6-2.4c-1-0.7-2-1.4-3-2.1
				c-1.3-1-2.7-1.9-4-2.9c-16.8-12.6-31.8-27.5-44.5-44.2c-0.2-0.3-0.4-0.5-0.6-0.8c-7-9.3-13.2-19.2-18.7-29.5
				c-12.9-24.4-21.4-51.5-24.4-80.3c-0.1-1-0.2-2.1-0.3-3.2c-0.6-6.6-0.9-13.3-0.9-20c0-0.4,0-0.7,0-1.1c0-1.9,0-3.9,0.1-5.8
				c0.8-24.9,5.6-48.8,13.9-71c6-16,13.8-31.2,23.2-45.2c28.1-42.2,70.3-74.2,119.9-89.3c20.5-6.3,42.3-9.6,64.9-9.6
				c4.2,0,8.4,0.1,12.6,0.4c1.3,0.1,2.6,0.1,3.9,0.2l0,0c10.4,0.8,20.6,2.2,30.6,4.4c6.7,1.4,13.2,3.2,19.6,5.2
				c6.3,2,12.6,4.3,18.7,6.8l0,0c1.1,0.4,2.1,0.9,3.2,1.3l0,0c5.1,2.2,10.1,4.6,15,7.2c2,1,4,2.1,5.9,3.2
				c6.9,3.9,13.5,8.1,19.9,12.7c37.9,27.2,66.9,66.1,81.7,111.3c5.4,16.6,9,34,10.3,52C1014.1,233.2,1014.3,238.9,1014.3,244.7z"/>
			<g id="pattern_3_">
				<path class="st1" d="M1013.7,227.6c-4.3,2.7-8.9,5.1-13.6,7.3c-1.8,0.8-3.6,1.5-5.4,2.2c-25.9,10-53.3,9.9-77.9,1.6
					c-0.7-0.2-1.4-0.5-2.1-0.7c-13.5-4.8-26-12.1-36.9-21.6c-0.7-0.6-1.3-1.2-2-1.8c-5-4.5-9.5-9.5-13.7-14.8
					c-6.4-8.4-11.8-17.8-15.8-28.1c8.4-3.2,16.7-6.5,25.1-9.7c0.6-0.2,1.2-0.5,1.9-0.7c2.6-1,5.1-2,7.7-3c0.5-0.2,1.1-0.4,1.7-0.6
					c8.5,12.2,19.2,22,31,28.9c0.6,0.4,1.2,0.7,1.9,1.1c13.9,7.7,29.1,11.3,44.1,10c6.1-0.5,12.2-1.9,18.1-4.2
					c10-3.9,18.6-10,25.7-17.8C1008.8,192.1,1012.3,209.6,1013.7,227.6z"/>
				<path class="st1" d="M722.7,183.5c-5.7,3.3-11.5,6.1-17.4,8.4l0,0c-0.6,0.2-1.2,0.5-1.8,0.7c-21.1,7.6-43.7,8.6-64.8,3.7
					c-20.2-4.7-39-14.7-54.2-29.5c6-16,13.8-31.2,23.2-45.2c18.8,28.9,57.9,39.6,95.3,28.4c2.1,3.6,4.2,7.1,6.3,10.7
					C713.7,168.3,718.2,175.9,722.7,183.5z"/>
				<path class="st1" d="M839.4,27.7c-11.3,10.9-25.5,18.6-41.2,22c-1.2,0.2-2.3,0.5-3.5,0.7c-7.2,1.2-14.6,1.5-22.1,0.8
					c-17.2-1.7-32.7-8.5-45.2-18.8c20.5-6.3,42.3-9.6,64.9-9.6c4.2,0,8.4,0.1,12.6,0.4c1.3,0.1,2.6,0.1,3.9,0.2l0,0
					C819.3,24,829.5,25.5,839.4,27.7z"/>
				<path class="st1" d="M675.9,317.1c-3.2,32.6-29.7,57.8-61.4,60.6c-7-9.3-13.2-19.2-18.7-29.5c2.9,1,6,1.7,9.1,2
					c20.8,2,40.3-13.1,48.1-35.3C660.8,315.6,668.3,316.4,675.9,317.1z"/>
			</g>
			<g id="frame_2_">
				<path id="frame_1_" class="st2" d="M884.9,448.1v-1.5l-0.7-1.3l0.1-0.1c0.8-0.4,1.6-0.8,2.5-1.2c0.2-0.1,0.2-0.1,0.3-0.1
					c0.9-0.4,1.7-0.8,2.5-1.2c0.2-0.1,0.3-0.2,0.5-0.2c1-0.5,1.8-0.9,2.7-1.4c0.6-0.3,1.1-0.6,1.7-0.9l0.5-0.2
					c0.5-0.3,1-0.5,1.5-0.8l0.3-0.3h0.2c1-0.6,2.1-1.1,3.1-1.7c1.1-0.6,2.1-1.2,3.2-1.8c0.2-0.1,0.4-0.2,0.5-0.3
					c1-0.6,2.1-1.2,3.2-1.9c1.1-0.7,2.2-1.4,3.4-2.1c1.1-0.7,2.2-1.4,3.3-2.1l0.1-0.1c1.1-0.7,2.1-1.4,3.1-2.1
					c1.1-0.7,2.2-1.5,3.2-2.2c1.1-0.8,2.2-1.5,3.2-2.3c0.8-0.6,1.7-1.3,2.5-1.9l0.1-0.1c0.2-0.1,0.3-0.2,0.5-0.4l0.1-0.1
					c1-0.8,2-1.6,3-2.4s1.8-1.5,2.7-2.2l0.5-0.4c0.9-0.8,1.9-1.6,2.8-2.4l0.1-0.1c0.8-0.7,1.6-1.4,2.4-2.1c1.2-1,2.4-2.1,3.5-3.2
					c0.9-0.8,1.8-1.7,2.7-2.5l0.1-0.1c1-0.9,1.9-1.8,2.8-2.7c0.5-0.5,1-1,1.5-1.5c0.7-0.7,1.4-1.4,2.1-2.1c0.4-0.4,0.7-0.7,1-1
					c0.8-0.8,1.6-1.7,2.4-2.5c7.7-8.3,14.8-17.2,21.1-26.6c3.4-5.1,6.7-10.3,9.7-15.6c3.5-6.2,6.7-12.6,9.6-19.1
					c12.4-28,18.6-57.9,18.6-88.8c0-53.5-19.4-105-54.6-145.2c-10.3-11.7-21.8-22.4-34.4-31.8C886,39.1,840.5,24.1,792.7,24.1
					c-27.1,0-53.6,4.9-78.7,14.5c-37.4,14.3-70.3,38.6-95.1,70.3c-30.6,39.1-46.8,86.1-46.8,135.8c0,10.6,0.8,21.3,2.3,31.8
					c2.8,19.3,8.1,38.2,15.9,56.1c9.4,21.6,22.2,41.5,38,59.2c2.3,2.6,4.7,5.1,7,7.4c0.8,0.8,1.6,1.6,2.4,2.4
					c0.7,0.7,1.5,1.5,2.2,2.2l0.1,0.1c0.7,0.7,1.5,1.4,2.2,2.1c0.5,0.5,1,1,1.6,1.5c1,1,2.1,1.9,3.1,2.8c0.4,0.3,0.7,0.6,1,0.9
					l0.2,0.2c2.5,2.1,4.8,4.1,7,5.8l0.3,0.2c0.2,0.2,0.4,0.3,0.6,0.5c1.4,1.1,2.8,2.2,4.3,3.3l-1.8,2.4c-1.6-1.2-3-2.3-4.3-3.3
					c-0.2-0.2-0.5-0.4-0.7-0.6l-0.2-0.2c-2.2-1.8-4.6-3.7-7.1-5.9l-0.2-0.2c-0.3-0.3-0.7-0.6-1-0.9c-1-0.9-2.1-1.9-3.1-2.8
					c-0.5-0.5-1.1-1-1.6-1.5c-0.7-0.7-1.5-1.4-2.2-2.1c-0.8-0.8-1.6-1.5-2.3-2.3c-0.8-0.8-1.6-1.6-2.4-2.4c-2.3-2.4-4.7-4.9-7.1-7.5
					c-16-17.9-29-38.1-38.5-60c-7.9-18.1-13.3-37.3-16.1-56.8c-1.5-10.6-2.3-21.4-2.3-32.2c0-50.4,16.4-98,47.4-137.6
					c25.1-32.1,58.5-56.7,96.4-71.2c25.4-9.7,52.3-14.6,79.7-14.6c48.4,0,94.5,15.2,133.3,44.1c12.7,9.5,24.4,20.3,34.9,32.2
					c35.7,40.7,55.3,93,55.3,147.2c0,31.3-6.4,61.6-18.9,90c-2.9,6.6-6.2,13.1-9.7,19.4c-3,5.4-6.3,10.7-9.8,15.8
					c-6.4,9.4-13.6,18.5-21.4,26.9c-0.8,0.8-1.6,1.7-2.4,2.5c-0.3,0.4-0.7,0.7-1,1.1c-0.7,0.7-1.4,1.4-2.1,2.1c-0.5,0.5-1,1-1.5,1.5
					c-0.9,0.9-1.8,1.8-2.7,2.6c-0.1,0.1-0.1,0.2-0.2,0.2c-0.9,0.9-1.8,1.7-2.7,2.5c-1.2,1.1-2.4,2.2-3.6,3.2
					c-0.8,0.7-1.6,1.4-2.4,2.1l-0.1,0.1c-1,0.8-1.9,1.6-2.9,2.4l-0.5,0.4c-0.9,0.7-1.8,1.4-2.7,2.2c-1.1,0.9-2.1,1.7-3.1,2.5
					l-0.1,0.1c-0.1,0.1-0.3,0.2-0.5,0.4l-0.1,0.1c-0.8,0.6-1.7,1.3-2.5,1.9c-1.1,0.8-2.2,1.6-3.2,2.3c-1.1,0.8-2.2,1.5-3.3,2.3
					c-1,0.7-2.1,1.4-3.1,2.1l-0.1,0.1c-1.2,0.8-2.3,1.5-3.4,2.2c-1.1,0.7-2.3,1.4-3.4,2.1c-1.1,0.6-2.1,1.3-3.2,1.9
					c-0.2,0.1-0.4,0.2-0.5,0.3c-1.1,0.6-2.1,1.2-3.2,1.8c-1.1,0.6-2.2,1.2-3.3,1.8l-0.3,0.3h-0.2c-0.5,0.3-1,0.5-1.4,0.8l-0.4,0.2
					c-0.6,0.3-1.2,0.6-1.7,0.9c-0.9,0.4-1.8,0.9-2.7,1.3c-0.1,0.1-0.4,0.2-0.6,0.3c-0.8,0.4-1.6,0.8-2.5,1.2
					c-0.1,0.1-0.3,0.1-0.4,0.2c-0.7,0.4-1.6,0.7-2.4,1.1l-0.3,0.2L884.9,448.1z"/>
				<path class="st2" d="M887.6,443.7c-0.5,0.2-0.9,0.4-1.3,0.6c-2,0.9-3.6,1.6-4.9,2.2c-0.1,0.1-0.4,0.1-0.6,0.3
					c-0.9,0.4-1.9,0.8-2.8,1.2l-0.8,0.3c-9,3.7-18.3,6.9-27.7,9.4c-0.7,0.2-1.3,0.4-2.1,0.5c-0.3,0.1-0.6,0.2-0.8,0.2
					c-0.2,0.1-0.5,0.1-0.8,0.2c-0.6,0.1-1.3,0.3-1.9,0.5h-0.1c-0.3,0.1-0.6,0.1-0.9,0.2c-1,0.2-2.1,0.5-3.2,0.7
					c-0.8,0.2-1.5,0.3-2.3,0.5c-0.7,0.1-1.4,0.3-2.1,0.4h-0.2c-3,0.6-5.8,1.1-8.6,1.5c-1,0.2-2,0.3-3,0.4
					c-5.2,0.7-10.5,1.3-15.9,1.6c-1,0.1-2.1,0.1-3.1,0.2c-0.7,0-1.3,0.1-2,0.1c-2.1,0.1-4.5,0.2-7.2,0.2c-1.9,0-3.8,0-5.7,0
					c-1.2,0-2.4,0-3.6-0.1c-0.9,0-1.7,0-2.6-0.1c-3.9-0.2-8-0.4-12-0.8c-2-0.2-3.9-0.4-5.6-0.6c-1.4-0.2-2.9-0.4-4.3-0.6
					c-0.7-0.1-1.4-0.2-2.1-0.3c-1.9-0.3-3.8-0.6-5.6-0.9c-0.9-0.2-1.9-0.3-2.8-0.5c-3.2-0.6-6.1-1.2-8.9-1.9
					c-0.9-0.2-1.8-0.4-2.7-0.7c-0.8-0.2-1.7-0.4-2.5-0.6c-1.2-0.3-2.4-0.6-3.5-1c-0.9-0.2-1.8-0.5-2.7-0.8c-1-0.3-2-0.6-3-0.9
					s-2-0.6-2.9-0.9c-1.4-0.5-2.9-0.9-4.3-1.4c-0.7-0.2-1.4-0.5-2.1-0.8c-1.1-0.4-2.2-0.8-3.3-1.2c-2.2-0.8-4.4-1.7-6.4-2.5
					c-1.1-0.5-2.1-0.9-3.2-1.4c-1.5-0.7-3.1-1.3-4.8-2.1c-0.5-0.2-1-0.5-1.5-0.7c-0.1-0.1-0.3-0.1-0.4-0.2c-0.9-0.4-1.8-0.8-2.7-1.3
					c-2.3-1.1-4.3-2.1-6.1-3.1c-1-0.5-2-1.1-3-1.6c-4.2-2.3-8.2-4.7-12.2-7.2c-0.7-0.5-1.4-0.9-2.2-1.4c-1.2-0.8-2.4-1.6-3.6-2.4
					l-0.3-0.2c-0.7-0.5-1.4-1-2.1-1.5c-0.8-0.5-1.6-1.1-2.4-1.7c-0.6-0.5-1.3-0.9-1.9-1.4l-0.5-0.4c-0.4-0.3-0.9-0.7-1.6-1.2
					c-0.2-0.1-0.3-0.2-0.5-0.4l-1.8,2.4c0.9,0.7,1.6,1.2,2.1,1.5l0.6,0.4c0.7,0.5,1.3,1,2,1.4c0.8,0.6,1.6,1.1,2.4,1.7
					c0.7,0.5,1.5,1,2.2,1.5l0.3,0.2c1.2,0.8,2.4,1.6,3.6,2.4c0.7,0.5,1.5,1,2.2,1.4c4,2.5,8.1,5,12.3,7.3c1,0.6,2,1.1,3.1,1.6
					c1.8,1,3.8,2,6.2,3.2c1,0.5,2.1,1,3.1,1.5c2.3,1.1,4.4,2,6.4,2.9c1.1,0.5,2.2,0.9,3.2,1.4c2.1,0.9,4.3,1.8,6.5,2.6
					c1.1,0.4,2.2,0.8,3.3,1.2c0.7,0.3,1.5,0.5,2.2,0.8c1.4,0.5,2.9,1,4.3,1.5c1,0.3,2,0.6,2.9,0.9c1,0.3,2.1,0.6,3.1,0.9
					c0.9,0.3,1.8,0.5,2.8,0.8c1.2,0.3,2.4,0.7,3.6,1c0.9,0.2,1.7,0.4,2.6,0.7c0.9,0.2,1.8,0.5,2.8,0.7c2.8,0.7,5.8,1.3,9,1.9
					c1,0.2,1.9,0.4,2.8,0.5c4.1,0.7,8.2,1.3,12.3,1.8c1.8,0.2,3.6,0.4,5.7,0.6c4.2,0.4,8.2,0.7,12.2,0.8c0.9,0,1.8,0.1,2.6,0.1
					c1.2,0,2.5,0.1,3.7,0.1c1,0,1.9,0,2.9,0c0.9,0,1.9,0,2.8,0c2.7,0,5.1-0.1,7.2-0.2c0.7,0,1.4-0.1,2.1-0.1c1-0.1,2.1-0.1,3.1-0.2
					c5.4-0.4,10.8-0.9,16.1-1.7c1-0.2,2.1-0.3,3.1-0.5c2.8-0.4,5.6-0.9,8.7-1.5h0.2c0.7-0.1,1.4-0.3,2.2-0.4
					c0.8-0.2,1.5-0.3,2.3-0.5c1.1-0.2,2.2-0.5,3.2-0.7c0.3-0.1,0.6-0.1,0.9-0.2c0.9-0.2,1.9-0.4,2.8-0.7c0.3-0.1,0.6-0.2,0.9-0.2
					c0.7-0.2,1.4-0.4,2.1-0.5c9.5-2.5,19-5.7,28.1-9.5l0.8-0.3c1-0.4,2-0.8,2.9-1.2c0.2-0.1,0.4-0.2,0.5-0.2h0.1
					c1.5-0.6,3.6-1.6,6.2-2.8L887.6,443.7z"/>
			</g>
		</g>
		<g id="_x31_st_window">
			<path id="background" class="st0" d="M477.7,244.6c0,31.8-6.7,62.1-18.8,89.4c-2.9,6.6-6.1,13-9.6,19.3c-3,5.4-6.3,10.6-9.7,15.7
				c-6.4,9.5-13.5,18.4-21.3,26.7c-0.8,0.8-1.6,1.7-2.4,2.5c-0.3,0.4-0.7,0.7-1,1.1c-0.7,0.7-1.4,1.4-2.1,2.1c-0.5,0.5-1,1-1.5,1.5
				c-0.9,0.9-1.8,1.8-2.8,2.7c0,0.1-0.1,0.1-0.1,0.1c-0.9,0.9-1.8,1.7-2.7,2.6c-1.2,1.1-2.4,2.1-3.6,3.2c-0.8,0.7-1.6,1.4-2.4,2.1
				c0,0,0,0-0.1,0.1c-1,0.8-1.9,1.6-2.9,2.4c-0.2,0.1-0.3,0.2-0.5,0.4c-0.9,0.8-1.8,1.5-2.8,2.2c-1,0.8-2,1.6-3.1,2.4l-0.1,0.1
				c-0.2,0.1-0.4,0.3-0.6,0.4c-0.8,0.6-1.7,1.3-2.5,1.9c-1.1,0.8-2.1,1.6-3.2,2.3c-1.1,0.8-2.2,1.5-3.3,2.3c-1,0.7-2.1,1.4-3.1,2.1
				c-0.1,0-0.1,0.1-0.2,0.1c-1.1,0.7-2.2,1.5-3.3,2.2c-1.1,0.7-2.2,1.4-3.4,2.1c-1.1,0.6-2.1,1.3-3.2,1.9c-0.2,0.1-0.4,0.2-0.5,0.3
				c-1,0.6-2.1,1.2-3.2,1.8c-1.2,0.7-2.3,1.3-3.5,1.9l0,0c-0.6,0.3-1.2,0.6-1.7,0.9c-0.7,0.4-1.4,0.8-2.2,1.1
				c-0.9,0.5-1.8,0.9-2.6,1.3c-0.2,0.1-0.4,0.2-0.5,0.3c-0.8,0.4-1.7,0.8-2.5,1.2c-0.1,0-0.2,0.1-0.3,0.1c-0.8,0.4-1.7,0.8-2.5,1.2
				c0,0,0,0-0.1,0c-0.9,0.4-1.9,0.9-2.8,1.3c-0.2,0.1-0.4,0.2-0.7,0.3c-1.2,0.5-2.4,1-3.6,1.5c-9,3.7-18.3,6.9-27.9,9.4
				c-0.7,0.2-1.4,0.4-2,0.5c-0.3,0.1-0.6,0.2-0.9,0.2c-0.9,0.2-1.8,0.5-2.8,0.7c-0.3,0.1-0.6,0.1-0.9,0.2c-1.1,0.2-2.1,0.5-3.2,0.7
				c-0.8,0.2-1.5,0.3-2.3,0.5s-1.5,0.3-2.3,0.5c-2.9,0.6-5.7,1.1-8.6,1.5c-1,0.2-2,0.3-3,0.4c-5.3,0.7-10.6,1.3-16,1.7
				c-1,0.1-2.1,0.1-3.1,0.2c-0.7,0-1.3,0.1-2,0.1c-2.4,0.1-4.8,0.2-7.2,0.2c-0.9,0-1.9,0-2.8,0c-1,0-2,0-2.9,0c-1.2,0-2.4,0-3.7-0.1
				c-0.9,0-1.8,0-2.6-0.1c-4.1-0.2-8.1-0.4-12.1-0.8c-1.9-0.2-3.8-0.4-5.6-0.6c-4.1-0.5-8.2-1.1-12.2-1.8c-0.9-0.2-1.9-0.3-2.8-0.5
				c-3-0.6-6-1.2-9-1.9c-0.9-0.2-1.8-0.4-2.7-0.7c-0.8-0.2-1.7-0.4-2.6-0.7c-1.2-0.3-2.4-0.6-3.6-1c-0.9-0.2-1.8-0.5-2.7-0.8
				c-1-0.3-2-0.6-3-0.9s-2-0.6-2.9-0.9c-1.4-0.5-2.9-1-4.3-1.4c-0.7-0.2-1.4-0.5-2.1-0.8c-1.1-0.4-2.2-0.8-3.3-1.2
				c-2.2-0.8-4.3-1.7-6.5-2.6c-1.1-0.5-2.2-0.9-3.2-1.4c-2.1-0.9-4.2-1.9-6.3-2.9c-1.1-0.5-2.1-1-3.2-1.5c-2.1-1-4.1-2-6.1-3.1
				c-1-0.5-2-1.1-3.1-1.6c-4.2-2.3-8.3-4.7-12.3-7.2c-0.7-0.5-1.5-0.9-2.2-1.4c-1.2-0.8-2.4-1.6-3.6-2.4c-0.8-0.6-1.6-1.1-2.4-1.7
				c-0.8-0.5-1.6-1.1-2.4-1.7c-0.7-0.5-1.3-0.9-2-1.4c-0.2-0.1-0.4-0.3-0.6-0.4c-0.5-0.3-0.9-0.7-1.4-1c-1.5-1.1-2.9-2.2-4.3-3.3
				c-0.3-0.2-0.6-0.5-0.9-0.8c-2.4-1.9-4.7-3.9-7-5.9c-0.4-0.3-0.8-0.7-1.2-1.1c-1.1-0.9-2.1-1.8-3.1-2.8c-0.5-0.5-1.1-1-1.6-1.5
				c-0.8-0.7-1.5-1.4-2.3-2.2c-0.8-0.7-1.5-1.5-2.3-2.2c-0.8-0.8-1.6-1.6-2.4-2.4c-2.4-2.4-4.8-4.9-7-7.5
				C74.6,375,61.6,355,52.1,333c-7.7-17.7-13.2-36.7-16-56.5c-1.5-10.4-2.3-21.1-2.3-32c0-51.6,17.6-99,47.1-136.7
				c24.7-31.5,57.7-56.2,95.7-70.7c24.6-9.4,51.3-14.5,79.2-14.5c49.6,0,95.5,16.3,132.4,43.8c12.6,9.4,24.2,20.1,34.6,32
				C457,137.4,477.7,188.6,477.7,244.6z"/>
			<g id="pattern_2_">
				<path class="st1" d="M422.8,98.4c-12.3,16.2-29.1,29.4-49.4,37.2c-17.8,6.9-36.3,9-54.2,6.9l0,0c-26-3-50.5-14.9-69-33.6
					c-2.1-2.1-4.1-4.3-6-6.6c-7.9-9.3-14.4-20.1-19-32.1c12.1-4.7,24.2-9.4,36.3-14.1c23.1,32.8,61.8,48.7,95.1,35.8
					c13.1-5.1,23.8-14.1,31.7-25.5C400.8,75.8,412.4,86.5,422.8,98.4z"/>
				<path class="st1" d="M161,295.7c-11.1,12.8-24.5,22.5-39,29.1c-0.8,0.4-1.5,0.7-2.3,1c-1.3,0.6-2.7,1.1-4,1.6
					c-20.2,7.7-42.3,9.6-63.6,5.5c-7.7-17.7-13.2-36.7-16-56.5c26.9,18.3,65.1,15.2,95.5-6.3c4.8,4.2,9.7,8.4,14.5,12.6
					C151.1,287.1,156.1,291.4,161,295.7z"/>
				<path class="st1" d="M176.5,37.1c-4.7,28.6-23.9,54.2-52.5,65.6c-14.2,5.6-29,7.1-43.2,5.1C105.5,76.3,138.5,51.7,176.5,37.1z"
					/>
				<path class="st1" d="M459,334c-2.9,6.6-6.1,13-9.6,19.3c-3,2-6.1,3.8-9.3,5.3c-9.5,4.6-19.6,7.4-30,8.4
					c-5.9,0.5-11.8,0.5-17.7-0.2c-0.9-0.1-1.7-0.2-2.6-0.3c-9.2-1.3-18.3-4.2-26.8-8.5c-6.5-3.3-12.6-7.6-18.2-12.7
					c-25.2-22.9-33.3-58-23.7-88.7c3.6-11.5,9.6-22.3,18.2-31.7c7.1,6.5,14.3,13,21.4,19.5c-4.2,7.6-6.9,15.7-8.2,23.7
					c-3.2,19.5,2,38.8,15.9,51.4c1.1,1,2.2,1.9,3.4,2.8c7.7,5.9,16.9,9.2,26.7,10.2c11.3,1.1,23.2-1,34.5-6.2
					c0.6-0.3,1.3-0.6,1.9-0.9c2.3-1.1,4.5-2.4,6.7-3.7c0.8-0.5,1.5-1,2.3-1.5C448.9,324.8,453.9,329.4,459,334z"/>
			</g>
			<path id="frame" class="st2" d="M423.9,97.4c-10.4-11.9-22.1-22.7-34.8-32.2c-38.8-28.8-84.9-44.1-133.3-44.1
				c-27.5,0-54.3,4.9-79.7,14.6c-37.9,14.5-71.2,39.1-96.4,71.2c-31,39.6-47.4,87.2-47.4,137.6c0,10.8,0.8,21.6,2.3,32.2
				c2.8,19.6,8.2,38.7,16.1,56.8c9.5,21.9,22.5,42.1,38.5,60c2.4,2.6,4.8,5.2,7.1,7.5c0.8,0.8,1.6,1.7,2.4,2.5s1.5,1.5,2.3,2.3
				c0.8,0.7,1.5,1.4,2.2,2.1c0.5,0.5,1.1,1,1.6,1.5c1,1,2.1,1.9,3.1,2.8c0.4,0.3,0.7,0.7,1.1,1l0.1,0.1c2.5,2.2,4.8,4.1,7.1,5.9
				l0.2,0.2c0.2,0.2,0.5,0.4,0.7,0.6c1.4,1.1,2.8,2.2,4.3,3.4l0.6,0.4c0.3,0.2,0.5,0.4,0.8,0.6l0.6,0.4c0.7,0.5,1.3,1,2,1.4
				c0.8,0.6,1.6,1.1,2.4,1.7c0.7,0.5,1.4,1,2.1,1.5l0.3,0.2c1.2,0.8,2.4,1.6,3.6,2.4c0.7,0.5,1.5,1,2.2,1.4c4,2.5,8.1,5,12.3,7.3
				c1,0.6,2,1.1,3.1,1.6c1.8,1,3.8,2,6.2,3.2c1,0.5,2.1,1,3.1,1.5c2.3,1.1,4.4,2,6.4,2.9c1.1,0.5,2.2,0.9,3.2,1.4
				c2.1,0.9,4.3,1.8,6.5,2.6c1.1,0.4,2.2,0.8,3.3,1.2c0.7,0.3,1.5,0.5,2.2,0.8c1.4,0.5,2.9,1,4.3,1.5c1,0.3,2,0.6,2.9,0.9
				c1,0.3,2.1,0.6,3.1,0.9c0.9,0.3,1.8,0.5,2.8,0.8c1.2,0.3,2.4,0.7,3.6,1c0.9,0.2,1.7,0.4,2.6,0.7c0.9,0.2,1.8,0.5,2.8,0.7
				c2.8,0.7,5.8,1.3,9,1.9c1,0.2,1.9,0.4,2.8,0.5c4.1,0.7,8.2,1.3,12.3,1.8c1.8,0.2,3.6,0.4,5.7,0.6c4.2,0.4,8.2,0.7,12.2,0.8
				c0.9,0,1.8,0.1,2.6,0.1c1.2,0,2.5,0.1,3.7,0.1c1,0,1.9,0,2.9,0c1,0,1.9,0,2.8,0c2.7,0,5.1-0.1,7.2-0.2c0.7,0,1.4-0.1,2.1-0.1
				c1-0.1,2.1-0.1,3.1-0.2c5.4-0.4,10.8-0.9,16.1-1.7c1-0.2,2-0.3,3.1-0.5c2.8-0.4,5.6-0.9,8.7-1.5h0.2c0.7-0.1,1.4-0.3,2.1-0.4
				c0.8-0.2,1.5-0.3,2.3-0.5c1.1-0.2,2.2-0.5,3.2-0.7c0.3-0.1,0.6-0.1,0.9-0.2c0.9-0.2,1.9-0.4,2.8-0.7c0.3-0.1,0.6-0.2,0.9-0.2
				c0.7-0.2,1.4-0.4,2.1-0.5c9.5-2.5,19-5.7,28-9.5l0.8-0.3c1-0.4,1.9-0.8,2.8-1.2c0.2-0.1,0.5-0.2,0.7-0.3c0.9-0.4,1.7-0.8,2.6-1.2
				l0.4-0.2c0.8-0.4,1.6-0.8,2.4-1.1c0.1,0,0.2-0.1,0.3-0.2c0.9-0.4,1.7-0.8,2.5-1.2c0.2-0.1,0.5-0.2,0.6-0.3
				c0.9-0.4,1.8-0.9,2.7-1.3c0.6-0.3,1.2-0.6,1.8-0.9l0.4-0.2c0.5-0.2,1-0.5,1.5-0.8l0.5-0.3c1.1-0.6,2.2-1.2,3.3-1.8
				c1.1-0.6,2.1-1.2,3.2-1.8c0.2-0.1,0.3-0.2,0.5-0.3c1.1-0.6,2.1-1.3,3.2-1.9c1.1-0.7,2.3-1.4,3.4-2.1s2.2-1.4,3.4-2.2l0.1-0.1
				c1-0.7,2.1-1.4,3.1-2.1c1.1-0.8,2.2-1.5,3.3-2.3c1.1-0.8,2.2-1.6,3.2-2.3c0.9-0.6,1.7-1.3,2.6-1.9c0.2-0.2,0.4-0.3,0.5-0.4
				l0.1-0.1c1-0.8,2.1-1.6,3.1-2.4l0.1-0.1c0.9-0.7,1.8-1.4,2.7-2.1l0.5-0.4c1-0.8,2-1.6,2.9-2.4l0.1-0.1c0.8-0.7,1.7-1.4,2.5-2.1
				c1.2-1.1,2.4-2.1,3.6-3.2c0.9-0.8,1.8-1.7,2.7-2.5c0.1-0.1,0.2-0.1,0.2-0.2c0.9-0.9,1.8-1.7,2.7-2.6c0.5-0.5,1-1,1.5-1.5
				c0.7-0.7,1.4-1.4,2.1-2.1c0.4-0.4,0.7-0.7,1-1.1c0.8-0.8,1.6-1.7,2.4-2.5c7.8-8.4,15-17.5,21.4-26.9c3.5-5.1,6.8-10.5,9.8-15.8
				c3.5-6.3,6.8-12.8,9.7-19.4c12.5-28.4,18.9-58.7,18.9-90C479.2,190.4,459.6,138.1,423.9,97.4z M457.6,333.4
				c-2.9,6.5-6.1,12.9-9.6,19.1c-2.6,4.6-5.4,9.1-8.3,13.6c-0.5,0.7-0.9,1.4-1.4,2c-6.1,9-13,17.7-20.5,25.8
				c-0.2,0.2-0.4,0.5-0.7,0.7c-0.8,0.8-1.6,1.7-2.4,2.5c-0.3,0.3-0.7,0.7-1,1c-0.6,0.6-1.2,1.2-1.8,1.8c-0.1,0.1-0.2,0.2-0.3,0.3
				c-0.4,0.4-0.8,0.8-1.2,1.2c-0.1,0.1-0.2,0.2-0.3,0.3c-0.9,0.9-1.8,1.8-2.8,2.7l-0.1,0.1c-0.9,0.9-1.8,1.7-2.7,2.5
				c-1.2,1.1-2.3,2.1-3.5,3.2c-0.8,0.7-1.6,1.4-2.4,2.1l-0.1,0.1c-1,0.8-1.9,1.6-2.9,2.4l-0.5,0.4c-0.9,0.7-1.8,1.4-2.6,2.1
				l-0.1,0.1c-1,0.8-2,1.6-3,2.4l-0.2,0.1c-0.2,0.1-0.3,0.3-0.6,0.4c-0.8,0.6-1.7,1.2-2.5,1.9c-1.1,0.8-2.1,1.5-3.2,2.3
				s-2.1,1.5-3.2,2.2c-1,0.7-2.1,1.4-3.1,2.1l-0.1,0.1c-1.1,0.7-2.2,1.4-3.3,2.1c-1.1,0.7-2.2,1.4-3.4,2.1c-1.1,0.6-2.1,1.3-3.2,1.9
				c-0.2,0.1-0.4,0.2-0.5,0.3c-1,0.6-2.1,1.2-3.2,1.8c-1,0.6-2.1,1.2-3.1,1.7l-0.4,0.2l-0.1,0.1c-0.5,0.3-1,0.5-1.5,0.8h-0.1
				l-0.4,0.2c-0.6,0.3-1.2,0.6-1.7,0.9c-0.9,0.4-1.7,0.9-2.7,1.4c-0.1,0.1-0.3,0.1-0.5,0.2c-0.8,0.4-1.6,0.8-2.5,1.2
				c-0.1,0-0.1,0.1-0.2,0.1h-0.1c-0.7,0.4-1.5,0.7-2.2,1l-0.3,0.1c-0.9,0.4-1.9,0.9-2.8,1.3c-0.2,0.1-0.4,0.2-0.5,0.2h-0.1
				c-0.8,0.4-1.7,0.8-2.6,1.1c-0.1,0-0.2,0.1-0.3,0.1L340,448c-9,3.7-18.3,6.9-27.7,9.4c-0.7,0.2-1.3,0.4-2.1,0.5
				c-0.3,0.1-0.6,0.2-0.8,0.2c-0.9,0.2-1.8,0.5-2.8,0.7c-0.3,0.1-0.6,0.1-0.9,0.2c-1,0.2-2.1,0.5-3.2,0.7c-0.8,0.2-1.5,0.3-2.3,0.5
				c-0.7,0.1-1.4,0.3-2.1,0.4h-0.2c-3,0.6-5.8,1.1-8.6,1.5c-1,0.2-2,0.3-3,0.4c-5.2,0.7-10.5,1.3-15.9,1.6c-1,0.1-2.1,0.1-3.1,0.2
				c-0.1,0-0.1,0-0.2,0c-0.6,0-1.2,0.1-1.8,0.1c-0.1,0-0.1,0-0.2,0c-2.1,0.1-4.4,0.2-7,0.2c-1.9,0-3.8,0-5.7,0c-1.2,0-2.4,0-3.6-0.1
				c-0.9,0-1.7,0-2.6-0.1c-3.9-0.2-8-0.4-12-0.8c-2-0.2-3.9-0.4-5.6-0.6c-4-0.5-8.1-1.1-12.1-1.8c-0.9-0.2-1.9-0.3-2.8-0.5
				c-3.2-0.6-6.1-1.2-8.9-1.9c-0.9-0.2-1.8-0.4-2.7-0.7c-0.8-0.2-1.7-0.4-2.5-0.6c-1.2-0.3-2.4-0.6-3.5-1c-0.3-0.1-0.5-0.2-0.8-0.2
				c-2-0.6-3.8-1.1-5.3-1.6c-0.4-0.1-0.7-0.2-1.1-0.3c-1-0.3-2-0.6-2.7-0.9c-0.3-0.1-0.7-0.2-0.9-0.3c-0.3-0.1-0.5-0.2-0.7-0.2
				c-0.2-0.1-0.4-0.1-0.5-0.2c-0.1,0-0.2-0.1-0.3-0.1s-0.1,0-0.1,0c-0.1,0-0.3-0.1-0.4-0.1c-0.2-0.1-0.4-0.2-0.7-0.2
				c-0.5-0.2-1-0.3-1.5-0.5c-0.2-0.1-0.5-0.2-0.7-0.2c-0.9-0.3-1.7-0.6-2.6-1c-2.2-0.8-4.4-1.7-6.4-2.5c-1.1-0.5-2.1-0.9-3.2-1.4
				c-2-0.8-4-1.8-6.3-2.8c-1-0.5-2.1-1-3.2-1.5c-2.3-1.1-4.3-2.1-6.1-3.1c-1-0.5-2-1.1-3-1.6c-1.2-0.7-2.4-1.3-3.6-2
				c-2.9-1.7-5.8-3.4-8.6-5.2c-0.7-0.5-1.4-0.9-2.2-1.4c-1.2-0.8-2.4-1.6-3.6-2.4l-0.3-0.2c-0.7-0.5-1.4-1-2.1-1.5
				c-0.8-0.5-1.6-1.1-2.4-1.7c-0.6-0.5-1.3-0.9-1.9-1.4l-0.6-0.4c-0.2-0.2-0.5-0.4-0.8-0.6l-0.6-0.4c-1.5-1.2-2.9-2.2-4.3-3.3
				c-0.3-0.3-0.7-0.6-1-0.8c-2.2-1.7-4.4-3.6-6.8-5.7l-0.1-0.1c-0.4-0.3-0.7-0.6-1.1-1c-1-0.9-2.1-1.8-3.1-2.8c-0.5-0.5-1-1-1.6-1.5
				c-0.7-0.7-1.5-1.4-2.2-2.1l-0.1-0.1c-0.8-0.7-1.5-1.5-2.2-2.2c-0.8-0.8-1.6-1.6-2.4-2.4c-1.4-1.4-2.8-2.9-4.3-4.5
				c-0.2-0.3-0.5-0.5-0.8-0.8c-0.1-0.1-0.2-0.2-0.4-0.4c-0.5-0.6-1.1-1.2-1.6-1.8c-0.2-0.2-0.4-0.5-0.6-0.7
				c-15.5-17.5-28.1-37.1-37.4-58.5C45.1,314,39.8,295.1,37,275.8c-1.5-10.4-2.3-21.1-2.3-31.8c0-49.8,16.2-96.7,46.8-135.8
				c24.8-31.7,57.7-56,95.1-70.2c25.1-9.6,51.6-14.5,78.7-14.5c47.8,0,93.3,15,131.5,43.5c12.5,9.3,24.1,20,34.4,31.8
				c35.2,40.2,54.6,91.8,54.6,145.2C476.2,275.5,470,305.4,457.6,333.4z"/>
		</g>
		<g id="lines">
			<path class="st3" d="M1013.1,123.1c20.1-11.2,40.2-22.4,60.3-33.6c1.7-0.9,0.2-3.5-1.5-2.6c-20.1,11.2-40.2,22.4-60.3,33.6
				C1009.9,121.5,1011.4,124.1,1013.1,123.1L1013.1,123.1z"/>
			<path class="st3" d="M1050.1,124.6c19.5-9.7,39.1-19.5,58.6-29.2c1.7-0.9,0.2-3.5-1.5-2.6c-19.5,9.7-39.1,19.5-58.6,29.2
				C1046.8,122.9,1048.3,125.5,1050.1,124.6L1050.1,124.6z"/>
		</g>
		<g id="lines_1_">
			<path class="st3" d="M89.4,433.7c-12.7,20.1-25.4,40.2-38.1,60.4c-1,1.6,1.6,3.1,2.6,1.5c12.7-20.1,25.4-40.2,38.1-60.4
				C93,433.6,90.4,432,89.4,433.7L89.4,433.7z"/>
			<path class="st3" d="M68.2,433.6C45.6,458.7,23,483.9,0.4,509.1c-1.3,1.4,0.8,3.6,2.1,2.1c22.6-25.2,45.2-50.3,67.8-75.5
				C71.6,434.3,69.5,432.1,68.2,433.6L68.2,433.6z"/>
		</g>
		<path class="st3" d="M625.9,170.9C625.9,170.9,625.9,170.9,625.9,170.9c-20.4-0.9-40.8-2.6-60.9-4.9c-7.9-0.9-26.4-3.1-35.5-15
			c-1.4-1.9-2.4-3.8-3.1-5.2c-1.7-0.3-3.3-0.7-4.8-1c-34.2-8.6-42.9-33.2-45.1-43.3c-0.1-0.6-0.2-1.2-0.4-1.8
			c-10.9-4.1-22.3-13.4-32-26.5c-18.6-25.1-12.8-57.6-12.6-58.9c0.2-0.8,0.9-1.3,1.7-1.2c0.8,0.2,1.4,0.9,1.2,1.7
			c-0.1,0.3-5.8,32.6,12,56.6c8.8,11.9,19.3,20.7,29.1,24.9c-1.4-12.8,2.2-24.9,9.4-30.6c6.4-5,16.5-7.2,23.6,0.1
			c5.6,5.7,7.3,16.2-1.4,26.8c-5.2,6.4-12.2,9.6-20,9.4c-2.5-0.1-5.1-0.5-7.7-1.2c0,0,0,0.1,0,0.1c2.1,9.6,10.4,32.8,42.9,41
			c0.9,0.2,1.8,0.4,2.8,0.6c-2.4-7.8-1.3-16.9,2.9-24c2.6-4.4,9.8-14.6,19.7-13.1c7,1.1,11.5,7.5,13.3,12.7
			c2.8,8.1-0.4,16.6-4.7,21.4c-6.6,7.3-17.4,8-26.2,6.9c0.5,0.9,1.1,1.9,1.9,2.9c8.3,10.9,25.9,12.9,33.4,13.8
			c20,2.3,40.4,4,60.6,4.9c0.8,0,1.5,0.7,1.4,1.6C627.4,170.3,626.7,170.9,625.9,170.9z M528.6,143.1c8.4,1.3,19.2,1.2,25.5-5.7
			c3.7-4.1,6.5-11.5,4.1-18.4c-1.2-3.5-4.8-9.8-10.9-10.7c-8.3-1.2-14.8,8.6-16.6,11.7C526.6,126.9,525.8,135.7,528.6,143.1z
			 M478.9,97.3c2.9,0.9,5.7,1.5,8.4,1.5c7,0.2,12.9-2.6,17.6-8.3c7.6-9.2,6.3-18.1,1.6-22.8c-4.2-4.3-11.9-5.9-19.5,0.2
			C480.3,73.2,477.1,85,478.9,97.3z"/>
	</g>
</g>
<g id="general">
	<g id="general_1_">
		<g id="_x32_nd_man">
			<g id="hands">
				<g id="hand_l">
					<path class="st4" d="M657.6,496.2c-0.1,0-0.2,0-0.4,0l-23.9,1.1l-3.7-10.8c-23.6,3.8-47.2,7.5-70.8,11.3
						c-5.1,1.7-10,3.5-14.8,5.3c-8.3,3.6-16.5,7.2-24.8,10.7c-3.8,2.1-5.3,7-3.1,10.9c0.9,1.6,2.3,2.8,3.9,3.5l-1.6,0.9
						c-3.8,2.2-5,7.2-2.8,11c2,3.3,6,4.7,9.5,3.5c-3.5,2.5-4.4,7.3-2.1,10.9c2.4,3.7,7.4,4.8,11.1,2.4l22.8-14.8L543,559.3
						c-2.8,3.4-2.2,8.5,1.2,11.2c3.4,2.8,8.5,2.2,11.2-1.2l30.2-37.4c4.6-4.8,11.3-10.5,20.6-14.4c4.1-1.7,8-2.8,11.6-3.5l40-1.9
						c4.4-0.2,7.8-4,7.6-8.4C665.4,499.5,661.8,496.2,657.6,496.2z"/>
					<path d="M525.2,544.1c-0.2,0-0.4-0.1-0.4-0.3c-0.1-0.2,0-0.5,0.2-0.7l38.9-21c0.2-0.1,0.5,0,0.7,0.2c0.1,0.2,0,0.5-0.2,0.7
						l-38.9,21C525.4,544.1,525.3,544.1,525.2,544.1z"/>
					<path d="M521,527.4c-0.2,0-0.4-0.1-0.4-0.3c-0.1-0.2,0-0.5,0.2-0.7l37.6-18.5c0.2-0.1,0.5,0,0.7,0.2c0.1,0.2,0,0.5-0.2,0.7
						l-37.6,18.5C521.1,527.4,521,527.4,521,527.4z"/>
				</g>
				<g id="hand_r">
					<path class="st4" d="M1071.8,520.1c0.7-4.3-2.2-8.5-6.5-9.2l-1.8-0.3c1.3-1.2,2.1-2.8,2.4-4.7c0.6-4.4-2.5-8.4-6.8-9
						c-8,0.3-16,0.5-24,0.8c-24.6,0.8-49.3,1.6-73.9,2.4c-1.1,2.9-2.3,5.8-3.4,8.7c-10.3-0.8-20.5-1.5-30.8-2.3
						c-4.4-0.4-8.3,2.8-8.8,7.2c-0.4,4.4,2.8,8.3,7.2,8.8l37,3.7c0.1,0,26,2.8,37.4,9.4l45.4,26.2c3.8,2.2,8.7,0.9,10.9-2.9
						c2.2-3.8,0.9-8.7-2.9-10.9l-19.1-11.1l26.6,5.6c4.3,0.9,8.6-1.9,9.5-6.2c0.9-4.2-1.7-8.3-5.9-9.4
						C1067.9,526.6,1071.2,523.8,1071.8,520.1z"/>
					<path d="M1064.2,527.2L1064.2,527.2l-37.7-7.7c-0.3-0.1-0.4-0.3-0.4-0.6c0.1-0.3,0.3-0.4,0.6-0.4l37.6,7.7
						c0.3,0.1,0.4,0.3,0.4,0.6C1064.7,527,1064.5,527.2,1064.2,527.2z"/>
					<path d="M1063.5,511L1063.5,511l-38.1-3.5c-0.3,0-0.5-0.3-0.5-0.5c0-0.3,0.3-0.5,0.5-0.5l38.1,3.5c0.3,0,0.5,0.3,0.5,0.5
						C1064,510.8,1063.7,511,1063.5,511z"/>
				</g>
			</g>
			<g id="tshirt_3_">
				<path id="tshirt_2_" class="st5" d="M1044.8,288.3c-0.4-0.5-0.8-1.1-1.2-1.6c-8.5-11-18.6-23-30.5-37c-2.5-3-5-5.8-7.4-8.6
					c-0.6-0.7-1.2-1.3-1.8-2c-28.2-31.2-51.6-47.2-59.6-52.4c-9-5.9-17.5-10.8-25.4-14.9c-0.6-0.3-1.2-0.6-1.8-0.9
					c-6.7-3.4-12.9-6.3-18.3-8.6l2.3-17.3c0,0-7.3-1.1-17.8-2.6c-4.9-0.7-10.5-1.5-16.3-2.3c-0.7-0.1-1.5-0.2-2.2-0.3
					c-14.5-2.1-30.3-4.3-41.4-5.7c-8.2-1.1-14-1.7-14.8-1.6c-0.7,3.8-1.4,7.5-2.1,11.3c-8.2-0.2-15.8-0.1-22.5,0.2
					c-0.7,0-1.3,0.1-2,0.1c-16.4,0.9-27.9,2.9-31.8,3.6c-18.2,3.4-39.8,11.8-60.2,21.4c-0.6,0.3-1.2,0.6-1.8,0.9
					c-22.4,10.6-43.3,22.5-56.9,30.5c-0.6,0.4-1.2,0.7-1.8,1.1c-1.9,1.1-3.7,2.2-5.2,3.1c-16.4,9.8-28,17.5-41,27.9
					c-8.6,6.9-17.5,14.8-23.9,21.2c-0.5,0.5-1,0.9-1.4,1.4c-1.8,1.8-3.4,3.5-4.6,5c-29.2,33.8-19,93.4-15.1,112.5
					c3.2,16.9,6.5,35.3,9.9,56.3c0.2,0.9,0.3,1.8,0.5,2.8c3.2,19.6,6.6,41.4,10.2,66.1c23.6-3.8,47.2-7.5,70.8-11.3
					c-1.3-10.4-2.6-20.1-3.8-29.2c-0.1-0.7-0.2-1.3-0.3-2c-4-30.3-7.2-53.5-9.3-68.6c-0.4-2.8-0.8-5.5-1.1-8.2
					c-3.9-28.5-5.7-44.5-0.1-57.4c0.3-0.7,0.6-1.4,0.9-2c0.9-1.9,2-3.7,3.3-5.5c5.2-7.3,14.3-13.3,31-23c0.6-0.4,1.2-0.7,1.8-1.1
					c3.1-1.8,6.5-3.8,10.2-5.9c14.5-8.4,27-14.7,36-19c-12.7,52.1-25.4,104.1-38.1,156.1c0.6,0.5,1.2,0.9,1.6,1.2l0.5,0.4
					c0.6,0.5,1.3,0.9,1.9,1.4c0.8,0.6,1.6,1.1,2.4,1.7c0.7,0.5,1.4,1,2.1,1.5l0.3,0.2c1.2,0.8,2.4,1.6,3.6,2.4
					c0.7,0.5,1.5,1,2.2,1.4c3.9,2.5,8,4.9,12.2,7.2c1,0.6,2,1.1,3,1.6c1.8,1,3.7,2,6.1,3.1c1.1,0.5,2.1,1,3.2,1.5
					c2.2,1.1,4.3,2,6.3,2.8c1.1,0.5,2.1,0.9,3.2,1.4c2.1,0.9,4.2,1.7,6.4,2.5c1.1,0.4,2.2,0.8,3.3,1.2c0.7,0.3,1.4,0.5,2.1,0.8
					c1.4,0.5,2.8,1,4.3,1.4c0.9,0.3,1.9,0.6,2.9,0.9s2,0.6,3,0.9c0.9,0.3,1.8,0.5,2.7,0.8c1.2,0.3,2.4,0.7,3.5,1
					c0.8,0.2,1.7,0.4,2.5,0.6c0.9,0.2,1.8,0.5,2.7,0.7c2.8,0.7,5.7,1.3,8.9,1.9c0.9,0.2,1.8,0.3,2.8,0.5c4,0.7,8.1,1.3,12.1,1.8
					c1.7,0.2,3.6,0.4,5.6,0.6c4.1,0.4,8.1,0.7,12,0.8c0.9,0,1.7,0.1,2.6,0.1c1.2,0,2.4,0.1,3.6,0.1c2,0,3.8,0,5.7,0
					c2.7,0,5-0.1,7.2-0.2c0.7,0,1.3-0.1,2-0.1c1-0.1,2.1-0.1,3.1-0.2c5.3-0.3,10.7-0.9,15.9-1.6c1-0.1,2-0.3,3-0.4
					c2.8-0.4,5.6-0.9,8.6-1.5h0.2c0.7-0.1,1.4-0.3,2.1-0.4c0.8-0.2,1.5-0.3,2.3-0.5c1.1-0.2,2.1-0.5,3.2-0.7
					c0.3-0.1,0.6-0.1,0.9-0.2c0.9-0.2,1.8-0.5,2.8-0.7c0.3-0.1,0.6-0.2,0.8-0.2c0.7-0.2,1.4-0.4,2.1-0.5c9.4-2.5,18.7-5.7,27.7-9.4
					l0.8-0.3c1-0.4,1.9-0.8,2.8-1.2c0.3-0.1,0.5-0.2,0.6-0.3c1.2-0.5,2.9-1.2,4.9-2.2c12.2-36.4,24.5-72.8,36.7-109.1
					c0.5-1.6,1.1-3.3,1.6-4.9c3.9-11.5,7.8-23.1,11.7-34.7c7.5,7.4,18.3,18.3,31,32c0.2,0.2,0.4,0.4,0.6,0.6c0.5,0.5,0.9,1,1.4,1.5
					c1.9,2,3.6,3.9,5.2,5.7c0.5,0.6,1.1,1.2,1.6,1.7c4.9,5.4,8.7,9.6,11.5,13.1c2.8,3.4,4.6,6.1,5.7,8.4c2.5,5.5,4.1,11.6,2.8,23.5
					c-0.1,0.7-0.1,1.3-0.2,2c-1.3,10.7-4.8,25.8-11.6,48.5c-3.5,11.6-8,25.8-13.8,42.1c-0.2,0.7-0.5,1.4-0.8,2.2
					c-2.6,7.3-5.5,15-8.7,23.1c24.6-0.8,49.3-1.6,74-2.4c3.6-11.1,8.3-25.6,13.6-42.8c0.3-0.8,0.5-1.7,0.8-2.5
					c1.9-6.2,3.9-12.8,5.9-19.6c11.1-37.2,17.4-58.7,18.9-70.6c0.1-0.8,0.2-1.5,0.2-2.2c0.1-1.1,0.1-2.1,0.1-3
					C1073.9,332.5,1063.8,313.1,1044.8,288.3z"/>
				<g id="pattern_1_">
					<path class="st2" d="M625.9,457.3c-22.1-1.2-43.4-6.8-62.3-16.7c-5.2-2.7-10.1-5.7-14.8-8.9c-0.2-0.9-0.3-1.8-0.5-2.8
						c5.1,3.6,10.5,7,16.2,9.9c18.5,9.6,39.4,15.2,61.1,16.4C625.7,456,625.8,456.6,625.9,457.3z"/>
					<path class="st2" d="M605.4,305.5c3.6,4.6,7.2,9.2,10.7,13.6c-0.3,0.7-0.6,1.3-0.9,2c-3.7-4.5-7.4-9.4-11.3-14.4
						c-14.7-18.9-30.6-39.3-45.8-51.5c0.5-0.5,0.9-0.9,1.4-1.4C574.8,266.2,590.7,286.6,605.4,305.5z"/>
					<path class="st2" d="M652.1,289.6c-0.6,0.3-1.2,0.7-1.8,1.1c-2.9-13.8-6.6-28.9-10.2-43.9c-3.7-15.3-7.5-30.8-10.5-45.2
						c0.6-0.4,1.2-0.7,1.8-1.1c3.1,14.9,6.9,30.7,10.6,45.9C645.7,261.3,649.3,276.1,652.1,289.6z"/>
					<path class="st2" d="M714,338c-12.5,31.1-18.3,73.6-13.3,107c-0.5-0.2-1-0.5-1.5-0.7c-0.1-0.1-0.3-0.1-0.4-0.2
						c-0.9-5.8-1.5-11.9-1.8-18.3c-1.4-29.4,4-60.9,15.1-88.6c21.4-53.2,16-72.8,8.4-100c-0.8-3-1.7-6-2.5-9.3
						c-5.9-22.5-17.2-42.4-29.7-58.1c0.6-0.3,1.2-0.6,1.8-0.9c12.9,16.5,24.1,37,29.8,58.5c0.9,3.2,1.7,6.3,2.5,9.3
						C730.1,264.3,735.6,284.2,714,338z"/>
					<path class="st2" d="M776,422.4c-4.8,17.2-9.6,30.4-14.4,40.5c-0.7-0.1-1.4-0.2-2.1-0.3c4.8-10,9.7-23.2,14.6-40.8
						c23.6-85.1,16.4-163.5,11.1-220.7c-2.1-23.2-3.9-42.6-3.1-57.1c0.6,0,1.3-0.1,2-0.1c-0.8,14.3,1,33.6,3.1,57
						C792.5,258.3,799.7,336.9,776,422.4z"/>
					<path class="st2" d="M876.8,250.1v0.3c-2.7,54.4-13.7,94-22.5,125.8c-9.4,33.9-16.2,58.3-8.3,82.5c-0.6,0.1-1.3,0.3-1.9,0.5
						c-7.9-24.9-0.9-50.4,8.3-83.4c8.8-31.7,19.8-71.2,22.5-125.4v-0.3c1.3-26,3.8-77.5-9.9-110.3c0.8,0.1,1.5,0.2,2.2,0.3
						C880.5,173.4,878,224.2,876.8,250.1z"/>
					<path class="st2" d="M1049.4,452.3c-0.2,0.9-0.5,1.7-0.8,2.5c-23.3,10-51.5,17.9-78.9,22.1c0.3-0.7,0.5-1.4,0.8-2.2
						C998,470.5,1026.3,462.4,1049.4,452.3z"/>
					<path class="st2" d="M919.7,272.1c1.6,17.8,3.4,37.1,5,58.2c-0.5,1.6-1.1,3.3-1.7,4.9c-1.6-23-3.5-43.9-5.3-63
						c-4.5-49.2-7.7-83.3-0.5-101.4c0.6,0.3,1.2,0.6,1.8,0.9C912.1,189.3,915.2,223.1,919.7,272.1z"/>
					<path class="st2" d="M1074.4,359.9c0,0.7-0.1,1.4-0.2,2.2c-9.2,2.4-19.2,5.9-29.1,9.3c-17.4,6.1-35.1,12.2-49.1,12.8
						c0.1-0.7,0.2-1.3,0.2-2c13.6-0.6,31.1-6.7,48.2-12.7C1054.8,365.9,1065,362.3,1074.4,359.9z"/>
					<path class="st2" d="M1044.8,288.3l-75.5,41.5c-0.5-0.5-0.9-1-1.4-1.5l75.7-41.6C1044,287.2,1044.4,287.8,1044.8,288.3z"/>
				</g>
			</g>
			<g id="head_1_">
				<g id="face_1_">
					<path class="st4" d="M921.7,81.5c0.4,5.2,1.1,16.4-3,25.6c-6.9,15.4-25.6,20.2-33.2,22.2l-2,13.1c-4.9-0.7-10.5-1.5-16.3-2.3
						c-0.7-0.1-1.5-0.2-2.2-0.3c-14.5-2.1-30.3-4.3-41.4-5.7l1.7-10.9l0,0c1.7-1.7,3.3-3.5,4.8-5.2l0,0c1.5-1.7,2.9-3.4,4.2-5
						c0.3-0.4,0.6-0.8,0.9-1.2c5-6.4,8.7-12.3,11.3-17c0.2-0.4,0.4-0.8,0.6-1.1c1.1-2,2.2-4,3.2-6c0.1-0.2,0.2-0.5,0.4-0.8
						c1.7-3.6,3.2-7.3,4.3-11.8c0.1-0.4,0.2-0.9,0.3-1.3c3.1-14.3,0.1-27-2.8-35.2c2.1-1.9,4.4-3.8,6.7-5.8
						c5.1-4.3,10.7-8.7,16.7-13c3.6-2.6,7.1-5,10.5-7.3c3,2.6,5.7,5.4,8.1,8.4c0,0,0,0,0.1,0.1c4.6,5.6,8.4,11.7,11.8,17.4
						c4.8,3.4,9.6,6.9,14.4,10.6c3.6,2.7,7.1,5.4,10.5,8c-4.1,3.1-8.2,6.2-12.2,9.3c0,0,0,0,0-0.1C920,69.8,921.3,75.1,921.7,81.5z"
						/>
					<path d="M885.5,129.8L885.5,129.8c-5.9-1-11.6-2.7-17.1-5.1c-6.9-3-13.2-7-18.9-11.9c-0.2-0.2-0.2-0.5-0.1-0.7s0.5-0.2,0.7-0.1
						c5.6,4.9,11.9,8.8,18.7,11.7c5.3,2.3,11,4,16.7,5c0.3,0,0.5,0.3,0.4,0.6C886,129.6,885.8,129.8,885.5,129.8z"/>
				</g>
				<path id="hair_1_" d="M884.5,11c-0.3-0.3-0.7-0.5-1-0.8c-0.1-0.1-0.3-0.2-0.4-0.3c-0.4-0.3-0.9-0.6-1.3-0.9l-0.1-0.1
					c-0.5-0.3-1-0.7-1.5-1l-0.1-0.1c-0.5-0.3-1-0.6-1.5-0.9l0,0c-0.1-0.1-0.3-0.1-0.4-0.2c-0.1,0-0.1-0.1-0.2-0.1
					c-0.3-0.2-0.7-0.4-1-0.5c0,0-0.1,0-0.1-0.1c-0.1,0-0.2-0.1-0.2-0.1s-0.1,0-0.2-0.1c-0.3-0.2-0.7-0.3-1.1-0.5h-0.1c0,0,0,0-0.1,0
					c-0.3-0.2-0.6-0.3-1-0.4c-0.4-0.2-0.9-0.4-1.3-0.6c0,0,0,0-0.1,0c0,0-0.1,0-0.1-0.1c-0.1-0.1-0.4-0.1-0.6-0.2
					c-1.3-0.5-4-1.4-7.1-2.1c-0.2,0-0.4-0.1-0.6-0.1c-0.3-0.1-0.6-0.1-1-0.2s-0.8-0.1-1.1-0.2c-1.3-0.2-2.5-0.4-3.8-0.6
					c-31.9-4-47.4,13.3-47.4,13.3c-1.4,1.5-3.8,4.5-6,9.2c-1.6,3.2-3,7.3-3.8,12.2c-2-4.3-4.5-7.1-6.6-6.8c-0.2,0-1,0.1-1.3,0.7
					c-0.9,1.6,2.8,5.3,6.4,8.4c-7.4,1.9-12.3,4.9-12.3,7.9c0,0.7,0.3,1.5,1,2c2.2,1.5,7-1.8,10.8-4.9c-0.5,0.8-1.1,1.6-1.6,2.5
					c-1,1.6-1.9,3.4-2.8,5.4c-1.7,3.8-3,8.3-3.4,13.3c-1.4,19.1,11.3,38.3,32.2,49c0.5,3.5,1.1,6.9,1.6,10.4l0,0l0,0
					c1.7-1.7,3.3-3.5,4.8-5.2l0,0c1.5-1.7,2.9-3.4,4.2-5c0.3-0.4,0.6-0.8,0.9-1.2c5-6.4,8.7-12.3,11.3-17c0.2-0.4,0.4-0.8,0.6-1.1
					c1.1-2,2.2-4,3.2-6c0.1-0.2,0.2-0.5,0.4-0.8c1.7-3.6,3.2-7.3,4.3-11.8c0.1-0.4,0.2-0.9,0.3-1.3c3.1-14.3,0.1-27-2.8-35.2
					c2.1-1.9,4.4-3.8,6.7-5.8c5.1-4.3,10.7-8.7,16.7-13c3.6-2.6,7.1-5,10.5-7.3C885.7,12,885.1,11.5,884.5,11z"/>
				<circle id="eye" cx="899.3" cy="49.1" r="3.5"/>
				<ellipse id="brow" transform="matrix(0.9799 -0.1993 0.1993 0.9799 10.4566 177.9405)" cx="889.1" cy="37" rx="11.8" ry="3.5"/>
				<path id="moustache_1_" d="M919.2,76.5l-29.9,3.2c3.4-6.9,20.3-9.3,28.3-10C918.2,71.9,918.7,74.2,919.2,76.5z"/>
				<path id="mouth_1_" d="M911.7,94.6c-7.6,0-12.7-8.7-12.8-8.8c-0.1-0.2-0.1-0.5,0.2-0.7c0.2-0.1,0.5-0.1,0.7,0.2
					c0.3,0.5,7.3,12.4,17,6.9c0.2-0.1,0.5-0.1,0.7,0.2c0.1,0.2,0.1,0.5-0.2,0.7C915.3,94.2,913.4,94.6,911.7,94.6z"/>
				<g id="ear_1_">
					<circle class="st4" cx="837.3" cy="89.3" r="22.6"/>
					<path d="M849.8,97.6c-0.1,0-0.2,0-0.2-0.1c-0.1-0.1-3-1.6-3.3-4.6c-0.2-2.4,1.3-4.7,3.7-5.8l-20.9-14.7
						c-0.2-0.2-0.3-0.5-0.1-0.7s0.5-0.3,0.7-0.1l21.7,15.3c0.2,0.1,0.2,0.3,0.2,0.5s-0.2,0.3-0.4,0.4c-2.4,0.6-4.1,2.8-3.9,5
						c0.2,2.5,2.6,3.8,2.7,3.8c0.2,0.1,0.3,0.4,0.2,0.7C850.2,97.5,850,97.6,849.8,97.6z"/>
				</g>
			</g>
		</g>
		<g id="_x31_st_man">
			<g id="tshirt_1_">
				<path id="tshirt" class="st5" d="M426.7,313.1c-1-0.2-2-0.5-3-0.7c-11.8-2.7-23.7-5.5-35.5-8.2c-0.5-0.1-1.1-0.2-1.7-0.4
					c-0.5-0.1-1.1-0.2-1.6-0.4l0,0c-2.4-4.2-5-8.2-7.7-12c-4.3-5.9-9.1-11.2-14.4-15.9c-7.7-6.7-15.9-11.3-24.8-14.6
					c-0.7-0.3-1.4-0.5-2.1-0.8c-11.5-3.9-23.9-5.5-37.5-6.2v-13.7c0,0-6.7-0.1-16.4-0.2c-5.3-0.1-11.5-0.1-17.9-0.2
					c-0.9,0-1.8,0-2.7,0c-14.4-0.1-29.9-0.2-40-0.1c-6.2,0.1-10.4,0.2-11,0.4c-0.3,5.5-0.5,11-0.8,16.5c-9.8,1.4-19.4,3.4-28.7,6.5
					c-0.6,0.2-1.2,0.4-1.9,0.7c-15,5.3-28.8,13.4-39.9,25.8c0,0-9.1,10.2-21,32.9l-0.9,1.8c-6.4,12.4-13.5,28.3-20.4,48
					c-1.6,4.7-3.2,9.5-3.2,9.5c-0.5,1.7-1.1,3.4-1.6,5.1c-0.4,1.2-0.8,2.5-1.1,3.7c0,0,0,0,0,0.1c0.7,0.8,1.5,1.6,2.2,2.4
					c0.1,0.1,0.2,0.2,0.4,0.4c0.4,0.4,0.7,0.8,0.8,0.8c6.8,7.3,13.6,13.5,13.6,13.5c1.5,1.4,5.2,4.7,10.3,8.7c0.1,0.1,0.5,0.4,1,0.8
					c3.6,2.9,7.8,6.1,12.7,9.4c6,4.1,10.9,6.9,14.6,9c7.6,4.4,13.6,7.2,15.2,8c0,0,8,3.8,14.5,6.2c0.6,0.2,2.5,0.9,4.6,1.7
					c0.3,0.1,1.1,0.4,2.1,0.8c0.3,0.1,0.7,0.2,1.1,0.4c0,0,0,0,0.1,0s0.2,0.1,0.3,0.1s0.3,0.1,0.5,0.2s0.5,0.2,0.7,0.2
					c0.3,0.1,0.6,0.2,0.9,0.3c0.8,0.2,1.7,0.6,2.7,0.9c0.4,0.1,0.7,0.2,1.1,0.3c1.5,0.5,3.3,1,5.3,1.6c0.3,0.1,0.5,0.1,0.8,0.2
					c1.2,0.3,2.4,0.7,3.5,1c0.8,0.2,1.7,0.4,2.5,0.6c0.9,0.2,1.8,0.5,2.7,0.7c2.8,0.7,5.7,1.3,8.9,1.9c0.9,0.2,1.8,0.3,2.8,0.5
					c4,0.7,8.1,1.3,12.1,1.8c1.7,0.2,3.6,0.4,5.6,0.6c4.1,0.4,8.1,0.7,12,0.8c0.9,0,1.7,0.1,2.6,0.1c1.2,0,2.4,0.1,3.6,0.1
					c2,0,3.8,0,5.7,0c2.6,0,4.9-0.1,7-0.2c0,0,0.1,0,0.2,0c0.6,0,1.2,0,1.8-0.1c0,0,0.1,0,0.2,0c1-0.1,2.1-0.1,3.1-0.2
					c5.3-0.3,10.7-0.9,15.9-1.6c1-0.1,2-0.3,3-0.4c2.7-0.4,5.5-0.9,8.6-1.5h0.2c0.7-0.1,1.4-0.3,2.1-0.4c0.8-0.2,1.5-0.3,2.3-0.5
					c1.1-0.2,2.1-0.5,3.2-0.7c0.3-0.1,0.6-0.1,0.9-0.2c0.9-0.2,1.8-0.5,2.8-0.7c0.3-0.1,0.6-0.2,0.8-0.2c0.7-0.2,1.4-0.4,2.1-0.5
					c9.4-2.5,18.7-5.7,27.7-9.4l0.8-0.3c0.1,0,0.2-0.1,0.3-0.1c0.9-0.4,1.7-0.7,2.6-1.1h0.1c0.2-0.1,0.3-0.1,0.5-0.2
					c1-0.4,1.9-0.9,2.8-1.3l0.3-0.1c0.8-0.4,1.5-0.7,2.2-1h0.1c0.1,0,0.1-0.1,0.2-0.1c0.9-0.4,1.7-0.8,2.5-1.2
					c0.2-0.1,0.3-0.2,0.5-0.2c1-0.5,1.8-0.9,2.7-1.4c0.6-0.3,1.2-0.6,1.7-0.9l0.4-0.2h0.1c0.5-0.3,1-0.5,1.5-0.8l0.5-0.3
					c1-0.6,2.1-1.1,3.1-1.7c1.1-0.6,2.1-1.2,3.2-1.8c0.2-0.1,0.3-0.2,0.5-0.3c1-0.6,2.1-1.2,3.2-1.9c1.1-0.7,2.2-1.4,3.4-2.1
					c1.1-0.7,2.2-1.4,3.3-2.1l0.1-0.1c1.1-0.7,2.1-1.4,3.1-2.1c1.1-0.7,2.2-1.5,3.2-2.2c1.1-0.8,2.1-1.5,3.2-2.3
					c0.8-0.6,1.7-1.2,2.5-1.9c0.2-0.2,0.4-0.3,0.6-0.4l0.2-0.1c1-0.8,2-1.6,3-2.4l0.1-0.1c0.9-0.7,1.8-1.4,2.6-2.1l0.5-0.4
					c1-0.8,1.9-1.6,2.9-2.4l0.1-0.1c0.8-0.7,1.6-1.4,2.4-2.1c1.2-1,2.4-2.1,3.5-3.2c0.9-0.8,1.8-1.7,2.7-2.5l0.1-0.1
					c1-0.9,1.9-1.8,2.8-2.7c0.1-0.1,0.2-0.2,0.3-0.3c0.4-0.4,0.8-0.8,1.2-1.2c0.1-0.1,0.2-0.2,0.3-0.3c0.6-0.6,1.2-1.2,1.8-1.8
					c0.4-0.4,0.7-0.7,1-1c0.8-0.8,1.6-1.7,2.4-2.5c0.2-0.2,0.5-0.5,0.7-0.7c7.5-8.1,14.3-16.8,20.5-25.8c0.5-0.7,0.9-1.4,1.4-2
					c0.4-9.1,0.7-18.3,1.1-27.4c0-1.2,0.1-2.4,0.1-3.6l0,0c0.3-6.2,0.5-12.3,0.8-18.5C436.7,315.4,431.7,314.3,426.7,313.1z"/>
				<g id="pattern">
					<path class="st2" d="M182.8,452.7L182.8,452.7c-0.5-0.1-1-0.3-1.5-0.5c-0.2-0.1-0.5-0.2-0.7-0.2l0,0
						c-0.6-6.2-0.8-12.4-0.7-18.7c1.5-51.7-23-81.2-43.8-96.8c-6.5-4.9-13-8.8-19.1-11.8l0.9-1.8c6.1,3.1,12.7,7,19.3,11.9
						c21.2,15.9,46.2,46,44.7,98.5C181.9,439.7,182.1,446.2,182.8,452.7z"/>
					<path class="st2" d="M267.6,464.8c-0.6,0-1.2,0.1-1.8,0.1c-0.1,0-0.1,0-0.2,0c-10.8-66.2-41.8-120-64.9-160.1
						c-9.2-16-17.1-29.6-21.7-40.7c0.6-0.2,1.2-0.4,1.9-0.7c4.6,10.9,12.3,24.4,21.6,40.4C225.6,344.1,256.8,398.1,267.6,464.8z"/>
					<path class="st2" d="M359.6,439.1c-0.1,0-0.1,0.1-0.2,0.1c-0.5,0.3-1,0.5-1.5,0.8h-0.1c-3.5-6-6.9-12.1-10.3-18.5l0,0
						c-17.3-32.4-33.4-69-45.8-104.6c-12.2-34.8-25.7-60.5-40.5-76.9c0.9,0,1.8,0,2.7,0c14.5,16.6,27.8,42.1,39.7,76.2
						c11.3,32.2,21.7,59.2,44.7,102.4C352.9,427.3,356.9,434.4,359.6,439.1z"/>
					<path class="st2" d="M412.1,400.1c-0.1,0.1-0.2,0.2-0.3,0.3c-0.4,0.4-0.8,0.8-1.2,1.2c-9.5-17.1-20.3-34.4-30.6-50.8
						c-3.8-6-7.4-11.9-11-17.6c-17.9-29-32.2-54.6-33.3-72.9c0.7,0.2,1.4,0.5,2.1,0.8c1.5,17.5,15.2,42.3,31.8,69.4
						c3.9,6.3,7.9,12.8,12,19.3C392,366,402.7,383.1,412.1,400.1z"/>
					<path class="st2" d="M441,335.1L441,335.1c0,1.2-0.1,2.4-0.1,3.6c-5.2-8.2-11-17.2-17.1-26.3c1,0.2,2,0.5,3,0.7
						C431.8,320.7,436.6,328.1,441,335.1z"/>
				</g>
			</g>
			<g id="hand">
				<path class="st4" d="M463.6,249.5c-5,15.4-7.7,28.1-18.1,56.2c-1.7,4.7-3,8.5-3.8,10.9c-5-1.2-10-2.3-15-3.5c-1-0.2-2-0.5-3-0.7
					c-11.8-2.7-23.7-5.5-35.5-8.2c-1-0.3-9.7-1.9-11.4-2.1c0-0.8,0.1-1.9,0.2-3.2c0.1-2.7,0.2-5.1,0.2-7.4
					c0.5-18.9-0.5-26.8-0.5-38.4c0-4.4,3.7-8,8.1-8s8,3.7,8,8.1l-0.1,15.8c0.9-2,1.8-4,2.8-6l13-35.8c1.5-4.2,6.1-6.3,10.3-4.8
					c1.9,0.7,3.3,2,4.2,3.6l0.7-2c1.4-4.2,5.9-6.5,10.1-5.1c4,1.3,6.2,5.5,5.3,9.5c0.1-0.1,0.2-0.1,0.3-0.2c2-1.5,4.7-2,7.2-1.2
					c4.2,1.4,6.5,5.9,5.1,10.1l-1.4,4.3c0.1-0.1,0.1-0.1,0.2-0.2c2.1-2,5.2-2.9,8.2-2C462.7,240.7,465,245.3,463.6,249.5z"/>
				<path d="M409.1,264.2c-0.1,0-0.1,0-0.2,0c-0.3-0.1-0.4-0.4-0.3-0.6l13.7-37.7c0.1-0.3,0.4-0.4,0.6-0.3c0.3,0.1,0.4,0.4,0.3,0.6
					l-13.7,37.7C409.5,264.1,409.3,264.2,409.1,264.2z"/>
				<path d="M425.6,266.2c-0.1,0-0.1,0-0.2,0c-0.3-0.1-0.4-0.4-0.3-0.6l13.7-37.7c0.1-0.3,0.4-0.4,0.6-0.3c0.3,0.1,0.4,0.4,0.3,0.6
					L426,265.9C426,266.1,425.8,266.2,425.6,266.2z"/>
				<path d="M438.6,274.1c-0.1,0-0.1,0-0.2,0c-0.3-0.1-0.4-0.4-0.3-0.6l12.1-33.1c0.1-0.3,0.4-0.4,0.6-0.3c0.3,0.1,0.4,0.4,0.3,0.6
					L439,273.8C439,274,438.8,274.1,438.6,274.1z"/>
				<path d="M409.1,296.6L409.1,296.6c-0.3,0-0.5-0.3-0.5-0.5c0.9-12-12.1-21.9-12.3-22c-0.2-0.2-0.3-0.5-0.1-0.7
					c0.2-0.2,0.5-0.3,0.7-0.1c0.1,0.1,3.4,2.6,6.7,6.7c4.3,5.4,6.4,11,6,16.2C409.6,296.4,409.4,296.6,409.1,296.6z"/>
			</g>
			<g id="head">
				<g id="face">
					<path class="st4" d="M322.3,168.4c-0.3-6.8-0.7-14.4-2.2-21.9c-25.3-1.4-50.5-2.7-75.8-4.1c0.8,2.7,4.4,16.1-3,30
						c-5.8,10.9-15.1,16.1-21,18.4c0.4,1.2,1,49.2,1,49.2c10.1-0.1,25.6,0,40,0.1c0.9,0,1.8,0,2.7,0c6.5,0,12.6,0.1,17.9,0.2v-5
						c5.9-0.3,11.4-0.6,17.4-3.9C323.4,218.2,322.6,175.1,322.3,168.4z"/>
					<path d="M281,235.7c-5.3,0-31.2-0.9-44-17.2c-0.2-0.2-0.1-0.5,0.1-0.7c0.2-0.2,0.5-0.1,0.7,0.1c13.9,17.7,43.8,16.8,44.1,16.8
						s0.5,0.2,0.5,0.5s-0.2,0.5-0.5,0.5C281.9,235.7,281.5,235.7,281,235.7z"/>
				</g>
				<path id="hair" d="M320.1,146.5C320.1,146.4,320.1,146.4,320.1,146.5c-0.1-0.8-0.3-1.5-0.5-2.3c-0.2-1-0.5-2-0.8-2.9
					c-2-7.3-6.1-17.1-14.5-25.7C289.9,100.9,263,90,245,101.7c-5.7,3.7-9.3,8.9-11.7,13.7c0.6-4.9,0.7-9.9-2-8.9
					c-3.3,1.3-2,8.6-0.8,13.4c-5.6-2.7-12.5-5.4-15.2-3.5c-0.8,0.6-1.2,1.5-1,2.4c0.7,2.5,7,3.7,13.1,4.3
					c-6.2,2.7-18.9,10-23.1,25.2c-4.3,15.5,2.1,32.6,16,42.5c5.8-2.3,15.2-7.5,21-18.4c7.4-13.9,3.8-27.3,3-30
					C269.6,143.7,294.8,145.1,320.1,146.5z"/>
				<g id="eyes">
					<circle cx="302.7" cy="169.6" r="3.3"/>
					<circle cx="266" cy="169.2" r="3.3"/>
				</g>
				<path id="mouth" d="M289.1,216.3c-9,0-16.6-10.2-16.9-10.7c-0.1-0.2-0.1-0.4,0-0.5s0.3-0.3,0.5-0.2l27.7,3.6
					c0.2,0,0.3,0.1,0.4,0.3s0.1,0.3-0.1,0.5C297.4,213.9,293.5,216.3,289.1,216.3C289.2,216.3,289.1,216.3,289.1,216.3z M273.8,206
					c2.1,2.5,8.4,9.3,15.3,9.3c0,0,0,0,0.1,0c3.8,0,7.2-2,10.2-6L273.8,206z"/>
				<path d="M284.9,190.9c-0.2,0-0.4-0.2-0.5-0.4c-0.1-0.3,0.1-0.5,0.4-0.6l10.6-2.6l-7.2-25.4c-0.1-0.3,0.1-0.5,0.3-0.6
					c0.3-0.1,0.5,0.1,0.6,0.3l7.4,25.9c0,0.1,0,0.3,0,0.4s-0.2,0.2-0.3,0.2l-11.1,2.8C285,190.9,285,190.9,284.9,190.9z"/>
				<g id="brows">
					<ellipse transform="matrix(0.9739 -0.227 0.227 0.9739 -28.3443 63.9126)" cx="263.7" cy="155.2" rx="11.2" ry="3.3"/>
					<ellipse transform="matrix(0.227 -0.9739 0.9739 0.227 84.7845 416.4355)" cx="304.7" cy="154.8" rx="3.3" ry="11.2"/>
				</g>
				<g id="moustache">
					<path d="M291.1,196.2c0,0-26.1-4.4-32.1,3.1l31.3,3.4L291.1,196.2z"/>
					<path d="M295.2,196.6c0,0,24,3.2,26.8,12l-28.1-5.7L295.2,196.6z"/>
				</g>
				<g id="ear">
					<circle class="st4" cx="207.7" cy="190" r="21.4"/>
					<path d="M218,199.2c-0.1,0-0.2,0-0.3-0.1c-2.2-1.4-3.2-2.9-3.2-4.5c0.1-1.9,1.7-3.3,2.6-4l-17-17.4c-0.2-0.2-0.2-0.5,0-0.7
						s0.5-0.2,0.7,0l17.4,17.8c0.1,0.1,0.2,0.3,0.1,0.4s-0.1,0.3-0.3,0.4c0,0-2.6,1.5-2.7,3.5c0,1.2,0.9,2.5,2.7,3.7
						c0.2,0.2,0.3,0.5,0.1,0.7C218.4,199.2,218.2,199.2,218,199.2z"/>
				</g>
			</g>
		</g>
	</g>
</g>
</svg>
