<?xml version="1.0" encoding="utf-8"?>
<!-- Generator: Adobe Illustrator 22.1.0, SVG Export Plug-In . SVG Version: 6.00 Build 0)  -->
<svg version="1.1" id="Слой_1" xmlns="http://www.w3.org/2000/svg" xmlns:xlink="http://www.w3.org/1999/xlink" x="0px" y="0px"
	 viewBox="0 0 975.5 1040.3" style="enable-background:new 0 0 975.5 1040.3;" xml:space="preserve">
<style type="text/css">
	.st0{fill:#D5E0EA;}
	.st1{fill:#DDF1F1;}
	.st2{fill:#EFFA0E;}
	.st3{fill:#FFFFFF;}
	.st4{fill:#9E68E2;}
	.st5{fill:#FF0053;}
	.st6{fill:#1F0D60;}
	.st7{fill:#00D28F;}
</style>
<g id="background_1_">
	<g id="background">
		<g id="line">
			<path class="st0" d="M853.3,808.3c-35.7,0-50.5-22-54.2-28.9c-1.2-2.2-2.1-4.5-2.8-6.8c-14.9-2.3-30.5-11-38.5-25.7
				c-2.7-5-4.5-10.6-5.4-16.2c-8.4-2.4-15.5-8.6-21-14.1c-21-21.4-11.7-50-11.6-50.3c0.4-1,1.5-1.6,2.5-1.3c1,0.4,1.6,1.5,1.3,2.5
				c-0.1,0.4-8.5,26.7,10.7,46.3c6.6,6.8,12.5,10.6,17.6,12.5c-0.9-12,2.4-23.5,9.6-29c1.9-1.5,8.6-6,15.5-3.7
				c6.3,2.2,8.6,8.6,9.2,10.5c2.5,8.6-3.2,17.9-9.8,22.3c-7.1,4.6-13.6,5.9-19.6,5.1c0.9,4.6,2.4,9.2,4.7,13.4
				c6,11.1,19.8,20.7,34.2,23.5c-0.7-5.9,0.5-11.8,3.5-16.9c3.9-6.5,10.3-10.5,16.6-10.3c4.7,0.1,9.4,2.4,12.6,6.1
				c2.7,3.2,3.9,6.9,3.3,10.5c-0.7,4.8-5,9.2-12.1,12.3c-5.4,2.4-12,3.3-18.9,2.9c0.5,1.5,1.2,3,1.9,4.5
				c3.6,6.6,18.2,28.2,54.1,26.8c1.1,0,2,0.8,2.1,1.9c0,1.1-0.8,2-1.9,2.1C855.6,808.3,854.4,808.3,853.3,808.3z M799.6,769
				c6.3,0.7,12.6-0.1,18.2-2.6c3.3-1.5,9-4.6,9.7-9.2c0.4-2.5-0.5-5.1-2.4-7.3c-2.4-2.8-6.1-4.6-9.6-4.7c-4.9-0.1-9.9,3.1-13.1,8.4
				C799.7,758.2,798.7,763.6,799.6,769z M756,727.4c7.4,1.4,13.3-1.2,18-4.3c5.5-3.6,10.1-11.3,8.2-17.8c-0.3-1.1-2.1-6.3-6.6-7.9
				c-5-1.7-10.2,1.9-11.7,3.1C757.6,705.3,754.9,716.2,756,727.4z"/>
		</g>
		<path id="line_1_" class="st0" d="M23.8,639.2c-10.9,0-19.8-3.4-24.7-5.9c-1.2-0.6-1.7-2.1-1.1-3.4c0.6-1.2,2.1-1.7,3.4-1.1
			c6.1,3,18.6,7.6,33.5,4c9.1-2.2,18.1-8.7,30.1-21.9c0.8-0.8,1.9-2.1,3.1-3.8c-8.8-1.9-19.8-6.3-23.4-16c-2.3-6.2-0.6-12,0.3-14.2
			c2.4-6.2,8.4-12.8,16.7-13.4c3.6-0.3,6.4,0.7,7.7,1.3c3.7,1.6,8.6,5.5,11.1,15.1c2.2,8.6-0.6,17-4.1,23.5
			c18.9,2.1,34.7-2.6,48.1-14.3c12.3-10.8,20.5-25.7,26.9-38.9c0.2-0.4,0.3-0.7,0.5-1.1c-16.7,3.4-30.9,0.2-36-8.3
			c-2.2-3.7-4.4-11.5,5.6-22.4c8-8.7,18.7-10.5,27.4-4.6c7.6,5.1,12.6,15.6,10.6,27.9c26.8-10.9,57.8-52.2,58.1-52.7
			c0.8-1.1,2.4-1.3,3.5-0.5c1.1,0.8,1.3,2.4,0.5,3.5c-0.1,0.1-9.2,12.3-21.7,25.2c-15.9,16.3-29.9,26.5-41.9,30.4
			c-0.5,1.6-1.2,3.2-2,4.8c-13.8,28.3-33,56.6-70.8,56.6c-3.6,0-7.4-0.3-11.4-0.8c0,0-0.1,0-0.1,0c-1.9,2.8-3.7,5-4.8,6.2
			c-12.6,14-22.4,21-32.6,23.4C31.7,638.8,27.6,639.2,23.8,639.2z M62.8,568.6c-0.3,0-0.6,0-0.9,0c-6,0.4-10.7,5.6-12.4,10.2
			c-0.6,1.7-2,6.1-0.3,10.7c1.4,3.8,6.1,10.4,21.7,13.2c3.5-5.8,6.5-13.7,4.6-21.5c-1.9-7.6-5.5-10.6-8.2-11.7
			C66.7,569.2,65,568.6,62.8,568.6z M137.8,515.3c-4.4,0-8.9,2.2-12.8,6.5c-5.8,6.3-7.5,12.2-5,16.4c4.7,7.8,20.5,8.6,33.7,5.3
			c2.9-11.4-1.2-21.1-7.9-25.6C143.3,516.2,140.6,515.3,137.8,515.3z"/>
		<path id="semicircle_3_" class="st1" d="M975.5,266.7c-27.5,68.1-106.1,101.5-174.2,74s-101.5-106.1-74-174.2
			C810.1,199.9,892.8,233.3,975.5,266.7z"/>
	</g>
</g>
<g id="general_1_">
	<g id="general">
		<g id="man">
			<g id="socks">
				<path class="st2" d="M512.2,966.3l-1.6-10.2c-6.1,1-12.2,2-18.4,2.9c-2,0.3-4.1,0.7-6.1,1c-2.5,0.4-4.9,0.8-7.4,1.2
					c-0.3,0.1-0.7,0.1-1,0.2c-8.2,1.3-16.4,2.6-24.6,4c-1.6,0.3-3.2,0.5-4.8,0.8c0.9,2.4,1.8,4.7,2.8,7.1c0.1,0.4,0.3,0.7,0.4,1.1
					l21.1-2.3l8.3-0.9l21.6-2.3l8.3-0.9l1.6-0.2L512.2,966.3z"/>
				<path class="st2" d="M754.2,893.3l-7.8,6.6l-3.5,3l0,0l-35.3,29.8c-2.5-1.7-5-3.4-7.4-5.1l12.3-9.7l6.3-4.9l9.6-7.6l1-0.8
					l9.4-7.4l3-2.3l8-6.3L754.2,893.3z"/>
				<g id="pattern">
					<g>
						<path class="st3" d="M451.5,973.3c-0.2,0-0.4,0-0.6,0c-0.9-2.4-1.8-4.7-2.8-7.1c1.6-0.3,3.2-0.5,4.8-0.8
							c1.2,0.6,2.1,1.8,2.2,3.3C455.5,971,453.8,973,451.5,973.3z"/>
						<path class="st3" d="M480.8,971.2l-8.3,0.9c0-0.1,0-0.2,0-0.3c-0.2-2.3,1.4-4.4,3.7-4.6c2.3-0.2,4.4,1.4,4.6,3.7
							C480.8,971,480.8,971.1,480.8,971.2z"/>
						<path class="st3" d="M492.2,959.1c-0.7,1-1.8,1.8-3.1,1.9c-1.1,0.1-2.2-0.2-3-0.9C488.1,959.8,490.1,959.4,492.2,959.1z"/>
						<path class="st3" d="M510.6,967.9l-8.3,0.9c0-0.1,0-0.2,0-0.3c-0.2-2.3,1.4-4.4,3.7-4.6c2.3-0.2,4.3,1.4,4.6,3.7
							C510.6,967.8,510.6,967.9,510.6,967.9z"/>
					</g>
					<g>
						<path class="st3" d="M720,915.9c-0.1,2.2-2,3.9-4.2,3.8c-1.4-0.1-2.5-0.8-3.2-1.9l6.3-4.9C719.6,913.7,720,914.8,720,915.9z"
							/>
						<path class="st3" d="M746.5,899c0,0.3-0.1,0.6-0.1,0.8l-3.5,3l0,0c-0.2,0-0.4,0-0.6,0c-2.2-0.1-3.9-2-3.8-4.2
							c0-0.5,0.1-1,0.3-1.4l3-2.3c0.3-0.1,0.6-0.1,0.9-0.1C744.9,894.9,746.6,896.8,746.5,899z"/>
						<path class="st3" d="M739.8,877.9h-3.7c0.3-0.4,0.6-0.7,0.9-1c0.4-0.3,0.8-0.5,1.2-0.6l0.6,0.6L739.8,877.9z"/>
					</g>
				</g>
			</g>
			<g id="pants">
				<path class="st4" d="M729.5,831.1v73.5l-1,0.8V830C728.8,830.3,729.1,830.7,729.5,831.1z"/>
				<path class="st4" d="M680.5,769.7v166.7c-0.3-0.5-0.7-1-1-1.4V768.3C679.9,768.8,680.2,769.2,680.5,769.7z"/>
				<path class="st4" d="M631.6,542v323.5c-0.3-0.5-0.7-1-1-1.5V541.8C630.9,541.9,631.3,542,631.6,542z"/>
				<path class="st4" d="M581.6,531.6v261.5c-0.3-0.5-0.7-1-1-1.4V531.4C580.9,531.5,581.3,531.6,581.6,531.6z"/>
				<path class="st4" d="M528.6,520.6v135.9c-0.3,0.6-0.7,1.1-1,1.7V520.4C528,520.5,528.3,520.5,528.6,520.6z"/>
				<path class="st4" d="M528.6,933v20.3c-0.3,0-0.7,0.1-1,0.2V928c0.1,0.6,0.2,1.3,0.4,1.9c0.1,0.3,0.1,0.7,0.2,1
					C528.4,931.5,528.5,932.2,528.6,933z"/>
				<path class="st4" d="M478.7,564.1v397.2c-0.3,0.1-0.7,0.1-1,0.2v-396C478,565,478.3,564.6,478.7,564.1z"/>
				<path class="st4" d="M426.5,636.9v332.3c-0.3-2.3-0.7-4.5-1-6.8V638.5C425.8,638,426.2,637.5,426.5,636.9z"/>
				<path class="st4" d="M655.7,569.6c0,0.3,0,0.7-0.1,1h-182c0.3-0.3,0.5-0.7,0.8-1H655.7z"/>
				<path class="st4" d="M550.3,619.6c-0.2,0.3-0.4,0.7-0.6,1H437c0.2-0.3,0.4-0.7,0.7-1H550.3z"/>
				<path class="st4" d="M652,619.6c0,0.3,0,0.7-0.1,1h-92.1c0-0.3,0.1-0.7,0.1-1H652z"/>
				<path class="st4" d="M519.2,672.6c-0.2,0.3-0.4,0.7-0.6,1H406.5c0.2-0.3,0.3-0.7,0.5-1H519.2z"/>
				<path class="st4" d="M648.9,672.6c0,0.3,0,0.7-0.1,1h-93.6c0-0.3,0-0.7,0.1-1H648.9z"/>
				<path class="st4" d="M490,722.6c-0.2,0.3-0.4,0.7-0.6,1h-94.5c0-0.4,0-0.7,0-1H490z"/>
				<path class="st4" d="M647.2,723.6h-93.9c0-0.3,0-0.7,0-1h93.3v0.1C646.8,722.9,647,723.3,647.2,723.6z"/>
				<path class="st4" d="M497.3,775.7h-97.2c0-0.3-0.1-0.7-0.1-1h97.1C497.2,775,497.3,775.4,497.3,775.7z"/>
				<path class="st4" d="M685.1,775.7H569.9c-0.2-0.3-0.4-0.7-0.6-1h115.1C684.6,775,684.9,775.4,685.1,775.7z"/>
				<path class="st4" d="M507.7,827.9h-101c0-0.3-0.1-0.7-0.1-1h100.9C507.6,827.2,507.6,827.5,507.7,827.9z"/>
				<path class="st4" d="M726.7,827.9H605.9c-0.2-0.3-0.5-0.7-0.7-1h120.7C726.2,827.2,726.5,827.5,726.7,827.9z"/>
				<path class="st4" d="M517.7,877.9H413.4c-0.1-0.3-0.1-0.7-0.1-1h104.2C517.5,877.2,517.6,877.5,517.7,877.9z"/>
				<path class="st4" d="M764.7,876.9l-1.3,1H640c-0.2-0.3-0.5-0.7-0.7-1H764.7z"/>
				<path class="st4" d="M528.2,930.8H420.9c0-0.3-0.1-0.7-0.2-1H528C528.1,930.2,528.1,930.5,528.2,930.8z"/>
				<path class="st4" d="M697.3,929.8l-1.3,1h-19.4c-0.2-0.3-0.5-0.7-0.7-1H697.3z"/>
			</g>
			<g id="head">
				<g id="face">
					<path class="st5" d="M643.3,286.2c0.5,0.3,1,0.5,1.6,0.7c-0.1,8.8-0.2,17.6-0.3,26.4c0,0.2,0,0.5,0,0.7
						c-4.5,10.6-9.1,21.3-13.7,32c-1.6,3.7-3.2,7.3-4.7,11c-3.8,8.7-7.5,17.4-11.3,26c-2.1-11.5-4.4-23.1-6.9-35
						c-0.5-2.2-0.9-4.4-1.4-6.6c-2-9.4-4.1-18.7-6.3-27.8c0.4-3.7,0.8-7.5,1.2-11.2c0-0.2,0.1-0.4,0.1-0.7c-0.2-0.1-0.5-0.1-0.7-0.2
						c-3.4-0.7-6.6-2-9.5-4c-16.8-11.3-15.8-38.7-8.8-57.2l0,0c0.6-1.5,1.2-2.9,1.8-4.2c1-2.2,4.1-8.4,9.4-14.8
						c0.3-0.4,0.7-0.8,1-1.2c0.2-0.3,0.5-0.6,0.8-0.9c0.1-0.1,0.2-0.3,0.4-0.4c0.3-0.4,0.7-0.7,1-1.1c0.4-0.4,0.8-0.8,1.2-1.2
						c1.3,0.7,2.8,1.3,4.2,1.7c8.1,2.1,15.5-2,36.8-2c2.1,0,3.2,0.1,4.3,0.9c7.6,5.9-12.9,33.8-3.9,46.1l0,0c-0.8,0.9-1.6,1.9-2.2,3
						C633.5,273.3,636.1,282.3,643.3,286.2z"/>
					<path class="st5" d="M655.8,263.7l-10.2,6.8c1.2,1.1,1.9,2.7,1.8,4.3c-0.1,1.9-1.2,3.6-2.9,4.4c-0.1,0-0.2,0.1-0.2,0.1
						c-0.2,0-0.4-0.1-0.4-0.3c-0.1-0.2,0-0.5,0.2-0.7c1.4-0.7,2.3-2.1,2.4-3.6c0.1-1.5-0.7-3-2-3.9c-0.2-0.1-0.2-0.2-0.2-0.4
						c0-0.2,0.1-0.3,0.2-0.4l10.8-7.1c0.2-0.2,0.5-0.1,0.7,0.1C656.1,263.2,656,263.5,655.8,263.7z"/>
					<path d="M601.3,302.4c-0.3,0-0.5-0.2-0.5-0.5s0.2-0.5,0.5-0.5c1.3,0,2.7-0.1,4-0.2c6-0.4,11.9-1.4,17.8-3
						c0.3-0.1,0.5,0.1,0.6,0.4s-0.1,0.5-0.4,0.6c-5.9,1.6-11.9,2.6-18,3C604,302.3,602.6,302.4,601.3,302.4L601.3,302.4z"/>
				</g>
				<path id="nose" d="M602,275.4c-0.1,0-0.2,0-0.2-0.1l-9.4-4.8c-0.2-0.1-0.3-0.4-0.2-0.6l8.4-21.6c0.1-0.3,0.4-0.4,0.6-0.3
					c0.3,0.1,0.4,0.4,0.3,0.6l-8.2,21.2l9,4.6c0.2,0.1,0.3,0.4,0.2,0.7C602.3,275.3,602.1,275.4,602,275.4z"/>
				<path class="st5" d="M655.8,263.7l-10.2,6.8c1.2,1.1,1.9,2.7,1.8,4.3c-0.1,1.9-1.2,3.6-2.9,4.4c-0.1,0-0.2,0.1-0.2,0.1
					c-0.2,0-0.4-0.1-0.4-0.3c-0.1-0.2,0-0.5,0.2-0.7c1.4-0.7,2.3-2.1,2.4-3.6c0.1-1.5-0.7-3-2-3.9c-0.2-0.1-0.2-0.2-0.2-0.4
					c0-0.2,0.1-0.3,0.2-0.4l10.8-7.1c0.2-0.2,0.5-0.1,0.7,0.1C656.1,263.2,656,263.5,655.8,263.7z"/>
				<path class="st5" d="M644.5,279.2c-0.1,0-0.2,0.1-0.2,0.1c-0.2,0-0.4-0.1-0.4-0.3c-0.1-0.2,0-0.5,0.2-0.7
					c1.4-0.7,2.3-2.1,2.4-3.6c0.1-1.5-0.7-3-2-3.9c-0.2-0.1-0.2-0.2-0.2-0.4c0-0.2,0.1-0.3,0.2-0.4l10.8-7.1
					c0.2-0.2,0.5-0.1,0.7,0.1s0.1,0.5-0.1,0.7l-10.2,6.8c1.2,1.1,1.9,2.7,1.8,4.3C647.3,276.7,646.2,278.4,644.5,279.2z"/>
				<g id="ear">
					<path class="st5" d="M661.8,263.8c-0.2-0.2-0.4-0.5-0.6-0.7c-0.1-0.2-0.3-0.3-0.5-0.5c-0.3-0.3-0.5-0.5-0.8-0.7
						c-0.8-0.6-1.6-1.2-2.5-1.7c-6.1-3.3-13.4-1.9-17.9,2.9c-0.8,0.9-1.6,1.9-2.2,3c-3.9,7.2-1.2,16.2,6,20.1c0.5,0.3,1,0.5,1.6,0.7
						c6.9,2.8,14.9,0,18.5-6.7C666.4,274.8,665.5,268.3,661.8,263.8z"/>
					<path d="M655.8,263.7l-10.2,6.8c1.2,1.1,1.9,2.7,1.8,4.3c-0.1,1.9-1.2,3.6-2.9,4.4c-0.1,0-0.2,0.1-0.2,0.1
						c-0.2,0-0.4-0.1-0.4-0.3c-0.1-0.2,0-0.5,0.2-0.7c1.4-0.7,2.3-2.1,2.4-3.6c0.1-1.5-0.7-3-2-3.9c-0.2-0.1-0.2-0.2-0.2-0.4
						c0-0.2,0.1-0.3,0.2-0.4l10.8-7.1c0.2-0.2,0.5-0.1,0.7,0.1C656.1,263.2,656,263.5,655.8,263.7z"/>
				</g>
				<g id="brows">
					<ellipse transform="matrix(0.174 -0.9847 0.9847 0.174 258.4457 779.7811)" cx="594" cy="235.8" rx="1.8" ry="8"/>
					<ellipse transform="matrix(0.993 -0.1184 0.1184 0.993 -23.3747 74.914)" cx="618.8" cy="234.2" rx="8" ry="1.8"/>
				</g>
				<path id="mouth" d="M603.4,286.2c-0.2,0-0.3-0.1-0.4-0.2c-0.2-0.2-0.1-0.5,0.1-0.7c1.6-1.2,7.5-5.9,8.8-7
					c0.2-0.2,0.5-0.2,0.7,0.1s0.2,0.5-0.1,0.7c-1.3,1.1-7.2,5.8-8.9,7C603.6,286.2,603.5,286.2,603.4,286.2z"/>
				<g id="eyes">
					<circle cx="614.1" cy="246.9" r="2.4"/>
					<circle cx="591.1" cy="244.2" r="2.4"/>
				</g>
				<path id="hair" d="M679.2,218.7c-3.6-5-10.7-5-10.8-5c0,0,9.6-6.4,2.5-20.6c-7.1-14.2-26.6,2.2-26.6,2.2s2-19.1-14.5-22.5
					c-9.8-2-21.9,7.4-21.9,21.4c-4.7-8.3-11.9-12.7-17.9-11.4c-0.5,0.1-4.5,1.1-6.3,4.4c-2.9,5.4,0.4,15.9,7,23.2
					c-10,10.2-8.2,29.9-8.2,29.9l0,0c0.6-1.5,1.2-2.9,1.8-4.2c1-2.2,4.1-8.4,9.4-14.8c0.3-0.4,0.7-0.8,1-1.2
					c0.2-0.3,0.5-0.6,0.8-0.9c0.1-0.1,0.2-0.3,0.4-0.4c0.3-0.4,0.7-0.7,1-1.1c0.4-0.4,0.8-0.8,1.2-1.2c1.3,0.7,2.8,1.3,4.2,1.7
					c8.1,2.1,15.5-2,36.8-2c2.1,0,3.2,0.1,4.3,0.9c7.6,5.9-12.9,33.8-3.9,46.1l0,0c4.5-4.9,11.8-6.2,17.9-2.9
					c1.5,0.8,2.7,1.8,3.8,2.9c0.2,0.2,0.4,0.5,0.6,0.7c6.7-9.1,19.7-28.2,19.5-37.9C681.3,224.5,681.3,221.4,679.2,218.7z"/>
			</g>
			<g id="shoes">
				<path class="st6" d="M514.6,978.2l-0.5,0.1l7.1,43.9c-55.3,6-110.6,12.1-165.8,18.1c3.7-23.5,12.2-32.1,19-35.8
					c12.9-6.9,24.5,1.4,43.3-2.7c12.6-2.8,22.4-9.7,29.5-16.5c-2.5-0.2-4.5-2.1-4.8-4.7c-0.3-2.9,1.8-5.5,4.7-5.8l65.3-6.9l1.1-0.1
					c2.9-0.3,5.5,1.8,5.8,4.7C519.6,975.3,517.5,977.9,514.6,978.2z"/>
				<path class="st6" d="M790.8,932.2c-42.4,35.9-84.9,71.9-127.3,107.8c-10.1-21.5-7.8-33.5-4.2-40.3c6.8-12.9,21-12.6,34.4-26.5
					c8.2-8.6,12.4-18.7,14.6-27.7c-2.1,0.9-4.5,0.4-6.1-1.4c-1.9-2.2-1.6-5.5,0.6-7.4l51.4-43.5c0.8-0.5,1.6-0.8,2.5-0.9
					c1.6-0.1,3.3,0.5,4.4,1.8c1.6,1.9,1.6,4.7,0.1,6.6L790.8,932.2z"/>
				<path class="st0" d="M358.1,1028.7c-0.3,0-0.5-0.2-0.5-0.4c0-0.3,0.2-0.5,0.4-0.6c21.9-2.4,137.9-17,160.9-19.9
					c0.3,0,0.5,0.2,0.6,0.4s-0.2,0.5-0.4,0.6C496,1011.7,380.1,1026.2,358.1,1028.7L358.1,1028.7z"/>
				<path class="st0" d="M658.5,1027.5c-0.1,0-0.3-0.1-0.4-0.2c-0.2-0.2-0.1-0.5,0.1-0.7c18.1-15,92.2-78,123.3-104.4
					c0.2-0.2,0.5-0.2,0.7,0.1c0.2,0.2,0.2,0.5-0.1,0.7c-31.1,26.4-105.2,89.4-123.3,104.4C658.7,1027.5,658.6,1027.5,658.5,1027.5z"
					/>
				<path class="st0" d="M454.5,997.6c-0.1,0-0.1,0-0.2,0l-16.2-6.4c-0.3-0.1-0.4-0.4-0.3-0.6c0.1-0.3,0.4-0.4,0.6-0.3l16.2,6.4
					c0.3,0.1,0.4,0.4,0.3,0.6C454.9,997.5,454.7,997.6,454.5,997.6z"/>
				<path class="st0" d="M450,1001.9c-0.1,0-0.1,0-0.2,0l-16.2-6.4c-0.3-0.1-0.4-0.4-0.3-0.6s0.4-0.4,0.6-0.3l16.2,6.4
					c0.3,0.1,0.4,0.4,0.3,0.6C450.4,1001.8,450.2,1001.9,450,1001.9z"/>
				<path class="st0" d="M723.2,952.9L723.2,952.9l-17.4-0.2c-0.3,0-0.5-0.2-0.5-0.5s0.2-0.5,0.5-0.5l17.4,0.2
					c0.3,0,0.5,0.2,0.5,0.5S723.5,952.9,723.2,952.9z"/>
				<path class="st0" d="M720.6,958.5L720.6,958.5l-17.4-0.2c-0.3,0-0.5-0.2-0.5-0.5s0.2-0.5,0.5-0.5l0,0l17.4,0.2
					c0.3,0,0.5,0.2,0.5,0.5S720.8,958.5,720.6,958.5z"/>
			</g>
			<g id="tshirt">
				<path class="st7" d="M726.5,449.3c-1.2,9.1-10.4,76.1-41.5,82.6c-1.5,0.3-2.7,0.4-3.6,0.5c-1.9,6.3-3.8,12.5-5.6,18.8
					c-6.1-1.3-12.2-2.5-18.3-3.8c-48.1-10-96.2-20-144.4-30c-7.1-1.5-14.3-3-21.4-4.5c6.3-16.6,12.6-33.2,18.9-49.8
					c-4.3,4.3-8.4,7.5-13,9.8c-2.1,1.1-4.4,2.1-6.8,2.9c-4.5,1.5-16.4,5.4-28,0.8c-8.2-3.2-12.9-9.2-15.6-13c-2.8-4-5.5-8.6-8-13.6
					c-18.6-37-29-98-33.8-134.6c7.3-1,14.7-2,22-2.9c3.4-0.5,18.6-2.5,22-2.9c2.8,11.8,6.7,27.3,11.9,45.5
					c14,49.6,18.4,52.5,21.4,52.9c12.1,1.7,13.9-35.6,48.6-64.8c26.8-22.5,58.5-27.9,69.3-29.6c2.2,9.1,4.2,18.3,6.3,27.8
					c0.5,2.2,1,4.4,1.4,6.6c2.5,11.9,4.8,23.5,6.9,35c3.8-8.6,7.5-17.3,11.3-26c1.6-3.7,3.2-7.3,4.7-11c4.6-10.7,9.1-21.3,13.7-32
					c0-0.2,0-0.5,0-0.7c14,2.2,33.4,5.2,50.3,19.7c13.7,11.7,19.3,25.3,24,37.3C732.4,404,728.6,434.2,726.5,449.3z"/>
				<path class="st6" d="M408.8,340.3c-0.3,0-0.5-0.2-0.5-0.4c0-0.3,0.2-0.5,0.4-0.6l46.7-5.1c0.3,0,0.5,0.2,0.6,0.4
					c0,0.3-0.2,0.5-0.4,0.6L408.8,340.3C408.9,340.3,408.9,340.3,408.8,340.3z"/>
				<path class="st6" d="M554,406.1c-0.2,0-0.4-0.2-0.5-0.4c-0.1-0.3,0.1-0.5,0.4-0.6l46-10.8c0.3-0.1,0.5,0.1,0.6,0.4
					s-0.1,0.5-0.4,0.6L554,406.1L554,406.1z"/>
				<g>
					<path class="st3" d="M626.2,357c-3.8,8.7-7.5,17.4-11.3,26c-2.1-11.5-4.4-23.1-6.9-35C613.5,350.7,620.1,353.9,626.2,357z"/>
					<path class="st6" d="M626.2,357.5c-0.1,0-0.2,0-0.2-0.1l-18.2-9c-0.2-0.1-0.3-0.4-0.2-0.7c0.1-0.2,0.4-0.3,0.7-0.2l18.2,9
						c0.2,0.1,0.3,0.4,0.2,0.7C626.6,357.4,626.4,357.5,626.2,357.5z"/>
				</g>
			</g>
			<g id="hands">
				<g id="hand_l">
					<path class="st5" d="M593.9,300.9c0-3.6-3-6.9-6.7-7.2l0,0c-0.4,0-0.8,0-1.3,0h-23.6c-3.7,0-6.5,3-6.3,6.7
						c0.2,2.9,2.2,5.3,4.9,6.2c-0.1,0.1-0.3,0.2-0.4,0.3l-18.1,13.7c-2.6,1.9-3.1,5.5-1.4,8.4l-1.5,1.2c-2.8,2.2-3.2,6.3-0.8,9.3
						c0.1,0.1,0.2,0.2,0.3,0.3c-0.1,2.9,0.3,6.3,2.5,7.7c5.1,3.4,16.4-6.2,18.5-3.8c0.5,0.5,0.5,1.7-1,4.5c-1.2,3-2.5,6.6-3.4,10.8
						c-1.5,7.1-1.4,13.3-0.9,17.8c12-3.1,24-6.3,35.9-9.4L593.9,300.9z M571,308.4c-0.4-0.5-0.8-1-1.3-1.4h10.6l-0.2,12.5l-1.1,0.6
						L571,308.4z"/>
					<path d="M539,340.3c-0.2,0-0.3-0.1-0.4-0.2c-0.2-0.2-0.1-0.5,0.1-0.7c0.9-0.6,23-15.6,28.6-8.1c0.2,0.2,0.1,0.5-0.1,0.7
						c-0.2,0.2-0.5,0.1-0.7-0.1c-2.6-3.5-9.8-1.1-15.4,1.5c-6.2,2.9-11.8,6.7-11.9,6.8C539.2,340.3,539.1,340.3,539,340.3z"/>
					<path d="M541,329.5c-0.1,0-0.3-0.1-0.4-0.2c-0.2-0.2-0.1-0.5,0.1-0.7c0.8-0.7,20-16.4,26.6-8.9c0.2,0.2,0.2,0.5,0,0.7
						s-0.5,0.2-0.7,0c-6-6.9-25,8.8-25.2,9C541.3,329.5,541.1,329.5,541,329.5z"/>
				</g>
				<g id="hand_r">
					<path class="st5" d="M448.9,308.5c-0.8-3-1.9-6.9-3.2-11.1c-4.1-13.1-10.2-29.2-13.8-31.2c-3.7-2.1-7.3-1.6-12.3-1.5
						c-6.8,0.2-16.1,0.6-27.2,1.9l-33.3,3.2c-3.4,0.3-5.9,3.3-5.6,6.7c0.3,3.4,3.4,5.9,6.7,5.6l26-2.5c0,0.1,0,0.3,0,0.4
						c-0.2,2.8,0,5.9,0.9,9l-10.1-3c-0.6-0.2-1.1-0.2-1.7-0.2c-2.5,0-4.9,1.7-5.7,4.2c-0.9,3.1,0.8,6.4,4,7.4
						c10.5,6,21.1,12.1,31.6,18.2l0,0c14.7-2,29.3-3.9,43.9-5.9C449.1,309.3,449,308.9,448.9,308.5z"/>
					<path d="M406.9,295.2h-0.1l-29.7-8.7c-0.3-0.1-0.4-0.4-0.3-0.6c0.1-0.3,0.4-0.4,0.6-0.3l29.7,8.7c0.3,0.1,0.4,0.4,0.3,0.6
						C407.3,295.1,407.1,295.2,406.9,295.2z"/>
				</g>
			</g>
		</g>
		<g id="scheme">
			<g id="figures_1_">
				<g id="figures">
					<circle id="circle_1_" class="st4" cx="442.8" cy="134.3" r="35.9"/>
					<circle id="circle_4_" class="st7" cx="219.4" cy="605.7" r="30.7"/>
					<circle id="circle" class="st7" cx="773.7" cy="172.5" r="22.6"/>
					<circle id="circle_2_" class="st6" cx="325.3" cy="507.4" r="20"/>
					<path id="semicircle" class="st7" d="M214.2,106.9c1.1,15.7-5.3,29.4-16.7,32.9s-24.5-4.2-32.4-17.8c-4,1.2-8.1,2.5-12.1,3.7
						c6.2,20.1,27.8,31.6,47.9,25.4c20.1-6.2,31.6-27.8,25.4-47.9C222.3,104.4,218.3,105.7,214.2,106.9z"/>
					<path id="semicircle_1_" class="st4" d="M114.9,804.7c23.4-11.5,48.5-10,61,5.3s8.7,40.2-7.3,60.8c4.4,5.4,8.8,10.9,13.2,16.3
						c27.1-22,31.3-62.4,9.3-89.4c-22-27.1-62.4-31.3-89.4-9.3C106.1,793.9,110.5,799.3,114.9,804.7z"/>
					<path id="semicircle_2_" class="st6" d="M487.7,376.3c7.6,13.1,7.8,27.7-0.6,35.5s-22.9,6.7-35.5-1.7c-3,2.8-5.9,5.6-8.9,8.3
						c13.8,14.8,37.4,15.5,52.1,1.7c14.8-13.8,15.5-37.4,1.7-52.1C493.6,370.7,490.7,373.5,487.7,376.3z"/>
					<path id="rhomb_1_" class="st4" d="M83.2,364.7c6.2,12.1,12.4,24.3,18.5,36.4c-9.3,10.2-18.5,20.4-27.8,30.6
						c-5.5-12.1-11-24.2-16.5-36.3C66,385.1,74.6,374.9,83.2,364.7z"/>
					<path id="rhomb" class="st6" d="M610.1,0c5.6,10.9,11.1,21.8,16.7,32.7c-8.3,9.2-16.7,18.3-25,27.5
						c-4.9-10.9-9.9-21.8-14.8-32.7C594.7,18.4,602.4,9.2,610.1,0z"/>
					<path id="rhomb_2_" class="st6" d="M313.7,879.1c4.3,8.5,8.6,17,13,25.5c-6.5,7.1-13,14.3-19.5,21.4c-3.9-8.5-7.7-17-11.6-25.4
						C301.7,893.4,307.7,886.3,313.7,879.1z"/>
					<path class="st2" d="M349.5,254.5c-13.5-6.9-27-13.8-40.5-20.7c-0.4-0.2-0.8-0.4-1.2-0.6c0.5-0.8,1-1.6,1.5-2.4
						c7.7-12.2,15.4-24.4,23-36.6c-13.4,5.8-26.8,11.6-40.2,17.4c-6-14.4-12-28.7-18.1-43.1c-2.1,13.7-4.3,27.4-6.5,41.1
						c-13.8-5.8-27.6-11.6-41.5-17.4c8.2,12.5,16.4,25.1,24.5,37.6c-12.6,8.4-25.2,16.7-37.9,25.1c15.6,2.1,31.1,4.2,46.7,6.3
						c-1.3,14.5-2.5,29.1-3.8,43.6c8.2-10.7,16.5-21.5,24.7-32.2c11.2,9.5,22.4,19,33.5,28.4c-2.7-13.6-5.4-27.2-8.1-40.7
						C320.3,258.3,334.9,256.4,349.5,254.5z"/>
				</g>
			</g>
			<g id="lines">
				<path class="st2" d="M218.7,140.2c-0.8,0-1.5-0.7-1.5-1.5s0.6-1.5,1.5-1.5l188.1-3.7l0,0c0.8,0,1.5,0.7,1.5,1.5
					s-0.6,1.5-1.5,1.5L218.7,140.2L218.7,140.2z"/>
				<path class="st2" d="M444.3,170.2v62.1c0,0.8-0.7,1.5-1.5,1.5H309c-0.4-0.2-0.8-0.4-1.2-0.6c0.5-0.8,1-1.6,1.5-2.4h132v-60.6
					c0-0.8,0.7-1.5,1.5-1.5S444.3,169.4,444.3,170.2z"/>
				<path class="st2" d="M79.5,370.5c-0.8,0-1.5-0.7-1.5-1.5V28.4c0-0.8,0.7-1.5,1.5-1.5h363.2c0.8,0,1.5,0.7,1.5,1.5v70
					c0,0.8-0.7,1.5-1.5,1.5s-1.5-0.7-1.5-1.5V29.9H81V369C81,369.8,80.4,370.5,79.5,370.5z"/>
				<path class="st2" d="M474.6,509H345.3c-0.8,0-1.5-0.7-1.5-1.5s0.7-1.5,1.5-1.5h127.8v-76.3c0-0.8,0.7-1.5,1.5-1.5
					s1.5,0.7,1.5,1.5v77.8C476.1,508.3,475.5,509,474.6,509z"/>
				<path class="st2" d="M325.3,488.9c-0.8,0-1.5-0.7-1.5-1.5v-87.7H100.2c-0.8,0-1.5-0.7-1.5-1.5s0.7-1.5,1.5-1.5h225.1
					c0.8,0,1.5,0.7,1.5,1.5v89.2C326.8,488.2,326.1,488.9,325.3,488.9z"/>
				<path class="st2" d="M501.1,375.4c-0.8,0-1.5-0.7-1.5-1.5V28.4c0-0.8,0.7-1.5,1.5-1.5H587c0.8,0,1.5,0.7,1.5,1.5
					s-0.7,1.5-1.5,1.5h-84.4v344C502.6,374.7,501.9,375.4,501.1,375.4z"/>
				<path class="st2" d="M219.4,812.8h-19.9c-0.8,0-1.5-0.7-1.5-1.5s0.7-1.5,1.5-1.5h18.4V636.4c0-0.8,0.7-1.5,1.5-1.5
					s1.5,0.7,1.5,1.5v174.9C220.9,812.1,220.2,812.8,219.4,812.8z"/>
				<path class="st2" d="M325.3,607.3h-75.2c-0.8,0-1.5-0.7-1.5-1.5s0.7-1.5,1.5-1.5h73.7v-76.8c0-0.8,0.7-1.5,1.5-1.5
					s1.5,0.7,1.5,1.5v78.3C326.8,606.6,326.1,607.3,325.3,607.3z"/>
				<path class="st2" d="M455.5,904.1H325.6c-0.8,0-1.5-0.7-1.5-1.5s0.7-1.5,1.5-1.5H454V607.3H325.3c-0.8,0-1.5-0.7-1.5-1.5
					s0.7-1.5,1.5-1.5h130.2c0.8,0,1.5,0.7,1.5,1.5v296.8C457,903.4,456.4,904.1,455.5,904.1z"/>
				<path class="st2" d="M773.7,151.4c-0.8,0-1.5-0.7-1.5-1.5V31.6L624.6,30c-0.8,0-1.5-0.7-1.5-1.5s0.7-1.5,1.5-1.5l0,0l149.1,1.6
					c0.8,0,1.5,0.7,1.5,1.5v119.8C775.2,150.7,774.6,151.4,773.7,151.4z"/>
			</g>
		</g>
	</g>
</g>
</svg>
