<?xml version="1.0" encoding="utf-8"?>
<!-- Generator: Adobe Illustrator 22.1.0, SVG Export Plug-In . SVG Version: 6.00 Build 0)  -->
<svg version="1.1" id="Слой_1" xmlns="http://www.w3.org/2000/svg" xmlns:xlink="http://www.w3.org/1999/xlink" x="0px" y="0px"
	 viewBox="0 0 929 1149" style="enable-background:new 0 0 929 1149;" xml:space="preserve">
<style type="text/css">
	.st0{fill:#D5E0EA;}
	.st1{fill:#FFFFFF;}
	.st2{fill:#FFB600;}
	.st3{fill:#2A005F;}
	.st4{fill:#FF6876;}
	.st5{fill:#8400ED;}
</style>
<g id="background_2_">
	<g id="background_1_">
		<path id="semicircle" class="st0" d="M502.4,971.9c134.9-61,269.7-122.1,404.6-183.1c50.2,111,0.3,243.6-110.7,293.9
			C685.3,1132.9,552.7,1082.9,502.4,971.9z"/>
		<g id="scheme">
			<g id="window1">
				<g>
					<rect x="1.5" y="459.5" class="st1" width="266.8" height="266.8"/>
					<path class="st2" d="M268.3,727.7H1.5c-0.8,0-1.5-0.7-1.5-1.5V459.5c0-0.8,0.7-1.5,1.5-1.5h266.8c0.8,0,1.5,0.7,1.5,1.5v266.8
						C269.8,727.1,269.1,727.7,268.3,727.7z M3,724.7h263.8V461H3V724.7z"/>
				</g>
				<path id="star" class="st2" d="M54.5,641.5c-11.9-8.3-23.8-16.7-35.7-25c14.3-1,28.6-2,42.9-3c-1.7-13.3-3.4-26.5-5.1-39.8
					c9.9,9.5,19.7,19,29.6,28.5c11.5-8.4,22.9-16.8,34.4-25.3c-3.9,13.2-7.8,26.4-11.7,39.6c11.4,1.9,22.7,3.9,34.1,5.8
					c-9.6,6.7-19.2,13.3-28.8,20c8.1,9.1,16.2,18.2,24.3,27.4c-13.8-1.6-27.7-3.2-41.5-4.8c-4.7,13.5-9.4,27.1-14.1,40.6
					c-4-13.5-8.1-27.1-12.1-40.6c-14.3,7.6-28.6,15.1-42.9,22.7C36.7,672.2,45.6,656.8,54.5,641.5z"/>
				<g id="lines_1_">
					<path class="st3" d="M214.6,503.7H55.1c-0.8,0-1.5-0.7-1.5-1.5s0.7-1.5,1.5-1.5h159.5c0.8,0,1.5,0.7,1.5,1.5
						S215.5,503.7,214.6,503.7z"/>
					<path class="st3" d="M214.6,535.1H55.1c-0.8,0-1.5-0.7-1.5-1.5s0.7-1.5,1.5-1.5h159.5c0.8,0,1.5,0.7,1.5,1.5
						S215.5,535.1,214.6,535.1z"/>
					<path class="st3" d="M249.2,575.1h-37.8c-0.8,0-1.5-0.7-1.5-1.5s0.7-1.5,1.5-1.5h37.8c0.8,0,1.5,0.7,1.5,1.5
						S250,575.1,249.2,575.1z"/>
					<path class="st3" d="M191,575.1h-29.7c-0.8,0-1.5-0.7-1.5-1.5s0.7-1.5,1.5-1.5H191c0.8,0,1.5,0.7,1.5,1.5
						S191.8,575.1,191,575.1z"/>
					<path class="st3" d="M249.2,596.7h-22.3c-0.8,0-1.5-0.7-1.5-1.5s0.7-1.5,1.5-1.5h22.3c0.8,0,1.5,0.7,1.5,1.5
						S250,596.7,249.2,596.7z"/>
					<path class="st3" d="M220,596.7h-58.7c-0.8,0-1.5-0.7-1.5-1.5s0.7-1.5,1.5-1.5H220c0.8,0,1.5,0.7,1.5,1.5
						S220.8,596.7,220,596.7z"/>
					<path class="st3" d="M249.2,618.2h-46.5c-0.8,0-1.5-0.7-1.5-1.5s0.7-1.5,1.5-1.5h46.5c0.8,0,1.5,0.7,1.5,1.5
						S250,618.2,249.2,618.2z"/>
					<path class="st3" d="M185.6,618.2h-24.3c-0.8,0-1.5-0.7-1.5-1.5s0.7-1.5,1.5-1.5h24.3c0.8,0,1.5,0.7,1.5,1.5
						S186.5,618.2,185.6,618.2z"/>
					<path class="st3" d="M249.2,661.3h-22.3c-0.8,0-1.5-0.7-1.5-1.5s0.7-1.5,1.5-1.5h22.3c0.8,0,1.5,0.7,1.5,1.5
						S250,661.3,249.2,661.3z"/>
					<path class="st3" d="M202.7,661.3h-41.3c-0.8,0-1.5-0.7-1.5-1.5s0.7-1.5,1.5-1.5h41.3c0.8,0,1.5,0.7,1.5,1.5
						S203.5,661.3,202.7,661.3z"/>
					<path class="st3" d="M249.2,682.8h-59.9c-0.8,0-1.5-0.7-1.5-1.5s0.7-1.5,1.5-1.5h59.9c0.8,0,1.5,0.7,1.5,1.5
						S250,682.8,249.2,682.8z"/>
					<path class="st3" d="M176.2,682.8h-14.8c-0.8,0-1.5-0.7-1.5-1.5s0.7-1.5,1.5-1.5h14.8c0.8,0,1.5,0.7,1.5,1.5
						S177,682.8,176.2,682.8z"/>
					<path class="st3" d="M249.2,639.7h-87.8c-0.8,0-1.5-0.7-1.5-1.5s0.7-1.5,1.5-1.5h87.8c0.8,0,1.5,0.7,1.5,1.5
						S250,639.7,249.2,639.7z"/>
				</g>
			</g>
			<path id="line" class="st2" d="M134.9,908.3c-0.4,0-0.8-0.2-1.1-0.4c-0.3-0.3-0.4-0.7-0.4-1.1V726.2c0-0.8,0.7-1.5,1.5-1.5
				s1.5,0.7,1.5,1.5v179l616.4-8.4l0.4-135.2c0-0.8,0.7-1.5,1.5-1.5s1.5,0.7,1.5,1.5l-0.4,136.7c0,0.8-0.7,1.5-1.5,1.5L134.9,908.3
				L134.9,908.3z"/>
			<g id="window2">
				<g>
					<rect x="673.6" y="599.3" class="st1" width="162.4" height="162.4"/>
					<path class="st2" d="M836,763.2H673.6c-0.8,0-1.5-0.7-1.5-1.5V599.3c0-0.8,0.7-1.5,1.5-1.5H836c0.8,0,1.5,0.7,1.5,1.5v162.4
						C837.5,762.5,836.8,763.2,836,763.2z M675.1,760.2h159.4V600.8H675.1V760.2z"/>
				</g>
				<circle id="circle" class="st0" cx="756.2" cy="680.5" r="52"/>
			</g>
		</g>
		<path id="line_1_" class="st0" d="M928.3,516.1c-0.4,0.5-1,1-1.7,1.2c-13.4,2.9-39.7,5.4-64.9-8.9c-7.3-4.1-29.4-16.6-33.8-38.9
			c-14-2.1-28.5-7.3-40.2-17c-13.8-11.2-22.7-26.9-26.8-42.6c-10.7-0.2-21.7-2.9-30.3-8.5c-42.5-27.6-34.5-81-34.6-81.6
			c0.2-1.6,1.7-2.7,3.4-2.3c1.6,0.2,2.7,1.7,2.3,3.4c-0.1,0.4-7.3,50.2,31.9,75.7c7.3,4.8,16.4,7.3,25.7,7.6
			c-3.1-16.4-0.9-31.8,6.5-41l0,0c2-2.5,12-14.1,25.6-12.8c0.4,0.1,11.9,1.2,17.3,10.3c6.8,11.5-0.8,26.3-5.8,32.5c0,0,0,0-0.1,0.2
			c-7.8,9.7-21.4,15.5-35.9,16.5c4.1,14.1,12.3,28.2,24.5,38.2c10.4,8.5,23.2,13.3,35.7,15.4c-0.3-5.6,0.3-13.9,5.1-22.2
			c6-10.6,20.4-23.3,33.5-18.9c6,2,11.2,7.4,14.3,14.7c2.7,6.7,2.9,13.7,0.4,18.8c-3.1,6.1-10.7,10.9-21.7,13.2
			c-7,1.5-15.5,2-24.4,1.2c4.9,18.3,23.3,29,30.5,32.9c23.4,13.4,48.1,10.9,60.7,8.3c1.5-0.3,3.2,0.8,3.5,2.3
			C929.1,514.4,928.8,515.5,928.3,516.1z M832.9,463.9c8.8,1,17.3,0.4,24.3-1c8.9-2,15.4-5.7,17.7-10.1c1.7-3.4,1.4-8.7-0.6-13.8
			c-2.3-5.6-6.5-9.9-10.5-11.4c-9.3-3.2-21.3,7.4-26.4,16.3C832.8,451.4,832.5,459,832.9,463.9z M765.3,403.6
			c13.2-0.8,26-5.7,32.9-14.4c0,0,0,0,0.1-0.2c4.8-6,10.1-18,5.2-25.9c-3.8-6.6-12.8-7.4-12.8-7.4c-10.6-0.9-19,8.6-20.4,10.4l0,0
			C763.8,374.7,762.2,388.8,765.3,403.6z"/>
		<path id="line_2_" class="st0" d="M42.4,904.3c0.3-0.2,0.8-0.4,1.3-0.4c9,0.5,26,3.5,39.4,16.9c3.9,3.9,15.6,15.6,14.6,30.4
			c8.5,3.7,16.7,9.6,22.4,17.7c6.7,9.5,9.6,20.9,9.5,31.5c6.7,2,13.2,5.6,17.6,10.6c22,24.8,7.7,57.1,7.6,57.5
			c-0.4,0.9-1.5,1.4-2.5,0.9c-0.9-0.4-1.4-1.5-0.9-2.5c0.1-0.3,13.3-30.4-7-53.3c-3.8-4.3-9.1-7.4-14.9-9.3
			c-0.9,10.9-5,20.2-11.2,24.8l0,0c-1.7,1.2-10,6.8-18.4,3.6c-0.3-0.1-7.3-2.8-9.1-9.5c-2.3-8.4,5.1-16.5,9.3-19.5c0,0,0,0,0.1-0.1
			c6.6-4.8,16.2-6,25.5-4.2c-0.1-9.6-2.8-20-8.8-28.4c-5.1-7.2-12.4-12.4-19.9-15.9c-0.8,3.6-2.6,8.7-7.1,13.1
			c-5.6,5.7-16.9,11.2-24.4,6.1c-3.4-2.3-5.8-6.6-6.5-11.7c-0.5-4.7,0.5-9.2,3-11.9c3-3.3,8.6-5,16-4.6c4.7,0.3,10.1,1.4,15.6,3.5
			c0.1-12.4-9.7-22.3-13.5-26.1c-12.4-12.5-28.5-15.2-36.9-15.8c-1-0.1-1.9-1-1.8-2C41.6,905.1,41.9,904.6,42.4,904.3z M93.5,953.8
			c-5.4-2.1-10.8-3.3-15.5-3.6c-6-0.3-10.7,0.9-12.9,3.3c-1.7,1.9-2.4,5.3-2,8.8c0.5,4,2.3,7.4,4.7,9.1c5.3,3.6,14.8-1,19.5-5.7
			C91.4,961.6,92.9,956.9,93.5,953.8z M125.7,1003.6c-8.5-1.8-17.4-0.9-23.3,3.3c0,0,0,0-0.1,0.1c-4.1,3-9.5,9.6-7.8,15.4
			c1.3,4.8,6.8,6.9,6.8,6.9c6.5,2.4,13.5-2.1,14.7-3l0,0C121.6,1022.1,125.1,1013.5,125.7,1003.6z"/>
	</g>
</g>
<g id="general_1_">
	<g id="general">
		<g id="man">
			<g id="hands">
				<g id="hand_r">
					<path class="st4" d="M594.4,118.8L594.4,118.8c-0.6-0.1-1.1-0.2-1.7-0.2c-0.4-2.5-2.2-4.7-4.8-5.6c-1.5-0.5-3-0.4-4.3,0
						c-0.8-1.3-2.1-2.4-3.7-2.9c-2.1-0.7-4.2-0.3-5.9,0.8c-0.8-1.2-2.1-2.2-3.6-2.7c-3.7-1.2-7.7,0.9-8.8,4.5l-5.8,18v-0.8
						c0.2-4.4-3.2-8.2-7.6-8.4l0,0c-4.4-0.2-8.2,3.2-8.4,7.6l-2,36.9c-3.6,3.4-13.5,13.6-15.4,29.7c-0.9,7.2,0.1,13.3,1.2,17.5
						c8.7-6,17.8-11.9,27.3-17.9c8.5-5.3,16.8-10.4,25-15.1c5.1-6.7,10.1-13.3,15.2-20c0.4-0.5,0.7-1,0.9-1.6c1.1-1,1.9-2.4,2.2-4
						l5.9-26.4C601,124.1,598.5,119.8,594.4,118.8z"/>
					<path d="M550.4,162.8L550.4,162.8c-0.4-0.1-0.5-0.3-0.5-0.6l5.3-32.3c0-0.3,0.3-0.5,0.6-0.4c0.3,0,0.5,0.3,0.4,0.6l-5.3,32.3
						C550.9,162.7,550.7,162.8,550.4,162.8z"/>
					<path d="M565,146.7L565,146.7c-0.4-0.1-0.5-0.3-0.5-0.6l9-35.2c0.1-0.3,0.3-0.4,0.6-0.4c0.3,0.1,0.4,0.3,0.4,0.6l-9,35.2
						C565.4,146.5,565.2,146.7,565,146.7z"/>
					<path d="M575.9,148.5L575.9,148.5c-0.4-0.1-0.5-0.3-0.5-0.6l7.7-35c0.1-0.3,0.3-0.4,0.6-0.4c0.3,0.1,0.4,0.3,0.4,0.6l-7.7,35
						C576.3,148.4,576.1,148.5,575.9,148.5z"/>
					<path d="M546.8,172.2c-0.1,0-0.2,0-0.2-0.1c-0.2-0.1-0.3-0.4-0.2-0.7c10.3-19.5,35.7-23.5,39.1-23.9l6.8-29.1
						c0.1-0.3,0.3-0.4,0.6-0.4c0.3,0.1,0.4,0.3,0.4,0.6l-6.9,29.4c0,0.2-0.2,0.4-0.4,0.4c-0.1,0-7.1,0.7-15.3,4
						c-7.6,3-17.8,8.8-23.3,19.4C547.1,172.1,547,172.2,546.8,172.2z"/>
				</g>
				<g id="hand_l">
					<path class="st4" d="M260.4,297.6c-8.2-10.9-22.5-17.3-24.5-20.7L217.2,245c-2.2-3.8-7.2-5.1-11-2.9c-2.1,1.2-3.4,3.2-3.8,5.4
						l-10-11.7c-2.5-3-7-3.3-9.9-0.8c-1.2,1-2,2.4-2.3,3.9c-2-0.4-4.1,0.1-5.8,1.5c-1.3,1.1-2.1,2.5-2.3,4.1c-1.4,0.1-2.8,0.6-4,1.6
						c-2.1,1.8-2.9,4.5-2.3,7c-0.5,0.2-1,0.5-1.5,0.8c-2,1.5-3.1,3.8-3.1,6.3c0,1.6,0.5,3.3,1.5,4.7l15.6,22.1
						c0.9,1.3,2.2,2.3,3.6,2.8c0.4,0.4,0.9,0.8,1.4,1.1c7.2,4.2,14.3,8.4,21.5,12.5c0.1,0,0.1,0.1,0.2,0.1
						c9.6,1.4,19.2,2.9,28.9,4.4c10.6,1.7,21.1,3.4,31.5,5.1h0.1C265.5,310.3,265,303.7,260.4,297.6z"/>
					<path d="M205.7,265.2c-0.1,0-0.3,0-0.4-0.1l-25.5-25.5c-0.2-0.2-0.2-0.5,0-0.7s0.5-0.2,0.7,0l25.5,25.5c0.2,0.2,0.2,0.5,0,0.7
						C205.9,265.1,205.8,265.2,205.7,265.2z"/>
					<path d="M197.8,272.9c-0.1,0-0.3-0.1-0.4-0.2l-25.1-27.8c-0.2-0.2-0.2-0.5,0-0.7s0.5-0.2,0.7,0l25.1,27.8
						c0.2,0.2,0.2,0.5,0,0.7C198,272.9,197.9,272.9,197.8,272.9z"/>
					<path d="M234.5,291.5c-0.2,0-0.3-0.1-0.4-0.2c-8.3-12.4-45.4-11.8-45.8-11.8c-0.2,0-0.3-0.1-0.4-0.2l-22-26
						c-0.2-0.2-0.2-0.5,0.1-0.7c0.2-0.2,0.5-0.2,0.7,0.1l21.8,25.8c1.5,0,10.3-0.1,19.7,1.2c14.1,1.9,23,5.6,26.7,11
						c0.2,0.2,0.1,0.5-0.1,0.7C234.7,291.5,234.6,291.5,234.5,291.5z"/>
					<path d="M222.7,272.9c-0.1,0-0.3-0.1-0.4-0.2l-20.2-24.8c-0.2-0.2-0.1-0.5,0.1-0.7c0.2-0.2,0.5-0.1,0.7,0.1l20.2,24.8
						c0.2,0.2,0.1,0.5-0.1,0.7C222.9,272.9,222.8,272.9,222.7,272.9z"/>
				</g>
			</g>
			<g id="tshirt">
				<path class="st2" d="M226.3,360.7c-5.3,5-11.9,7.8-18.7,8.5c-0.1-3.4-0.2-7.2-0.3-11.2c4.7-0.1,9-1.6,12.3-4.6
					c7.3-6.9,7.2-19.7,0.5-31.2c2.6-2.4,5.2-4.9,7.8-7.3C239.9,327.9,239.2,348.5,226.3,360.7z"/>
				<path class="st2" d="M236.8,485.9c-2.4-2.3-4.7-4.8-6.8-7.5c6.6-5.8,8.5-16.9,5.2-28.2c3.1-1.8,6.2-3.5,9.3-5.2
					C252.3,458.8,248.7,476.1,236.8,485.9z"/>
				<path class="st2" d="M360.3,477.3c-2.1,13.1-10.1,23.1-20.1,23.8c-10,0.7-19.3-8.2-23.1-20.9c-3.6,0.2-7.1,0.5-10.7,0.7
					c1.2,17.7,16.7,31.3,34.5,30.1c17.7-1.2,31.3-16.7,30.1-34.5C367.4,476.8,363.8,477,360.3,477.3z"/>
				<path class="st2" d="M416.2,456.1c-11.4,2.1-22.5-2.2-29.8-10.2c4.9-0.9,9.7-1.9,14.4-2.9c4.2,2.9,9,4.1,13.7,3.3
					c7.8-1.4,13.7-8.5,16.1-17.9c4.1-1.9,8.1-3.8,12.2-5.7C443.5,438.6,432.3,453.1,416.2,456.1z"/>
				<path class="st2" d="M503.9,495.7c-0.6,13.3-7.4,24.1-17.3,25.9c-9.9,1.8-20.1-5.9-25.3-18.1c-3.5,0.6-7,1.3-10.5,1.9
					c3.2,17.5,20.2,29.2,37.6,26c17.5-3.2,29.2-20.2,26-37.6C510.9,494.5,507.4,495.1,503.9,495.7z"/>
				<path class="st2" d="M416.2,609.5c-5.2,0.9-10.3,0.6-15-0.9c-0.3-4.2-0.7-8.4-1-12.7c4.4,3.2,9.4,4.6,14.3,3.7
					c9.9-1.8,16.7-12.7,17.3-25.9c3.5-0.6,7-1.3,10.5-1.9C445.5,589.4,433.7,606.3,416.2,609.5z"/>
				<path class="st2" d="M594.2,574.5c-4.6,8.1-12.5,14.2-22.3,16c-17.5,3.2-34.5-8.6-37.6-26c3.5-0.6,7-1.3,10.5-1.9
					c5.3,12.2,15.4,20,25.3,18.1c9.9-1.8,16.7-12.7,17.3-25.9c0.8-0.2,1.6-0.3,2.4-0.4C591.2,561,592.7,567.7,594.2,574.5z"/>
				<path class="st2" d="M526.8,651.7c-5.3,1-10.6,1.9-16.1,2.8c-9,1.5-17.8,2.7-26.3,3.8c-7.3-4.7-12.7-12.2-14.3-21.3
					c3.5-0.6,7-1.3,10.5-1.9c5.3,12.2,15.5,19.9,25.3,18.1c9.9-1.8,16.7-12.7,17.3-25.9c3.5-0.6,7-1.3,10.5-1.9
					C535.5,635,532.6,644.6,526.8,651.7z"/>
				<path class="st2" d="M568.1,401.3c-0.6,13.3-7.4,24.1-17.3,25.9c-9.9,1.8-20.1-5.9-25.3-18.1c-3.5,0.6-7,1.3-10.5,1.9
					c3.2,17.5,20.2,29.2,37.6,26c17.5-3.2,29.2-20.2,26-37.6C575.1,400,571.6,400.6,568.1,401.3z"/>
				<path class="st2" d="M604,357.8c-10.3,1.9-20.4-1.4-27.6-8c0.1-0.1,0.2-0.2,0.3-0.3c2.8-2.5,5.6-5,8.2-7.7
					c5.1,4.9,11.2,7.3,17.3,6.2c9.9-1.8,16.7-12.7,17.3-25.9c3.5-0.6,7-1.3,10.5-1.9C633.2,337.6,621.4,354.6,604,357.8z"/>
				<path class="st2" d="M639.5,386c-2.4,3.1-5,6.4-7.7,9.8c-2.4-3.6-4.1-7.6-4.9-12.1c3.5-0.6,7-1.3,10.5-1.9
					C638.1,383.3,638.8,384.7,639.5,386z"/>
				<path class="st2" d="M561.3,255.8c-1.5,0.3-3,0.4-4.6,0.5c-0.4-0.5-0.8-1-1.2-1.5c-3-3.7-6-7.7-9.3-11.8c4.1,2.7,8.7,3.8,13.2,3
					c9.9-1.8,16.7-12.7,17.3-25.9c3.5-0.6,7-1.3,10.5-1.9C590.5,235.6,578.7,252.6,561.3,255.8z"/>
			</g>
			<g id="head">
				<path id="face" class="st4" d="M475.2,383.3c0,0.6,0,1.2-0.1,1.8l-1.8,23.3c-15.8,7.3-31.5,14.7-47.3,22l0.4-5.4
					c-5,0.4-9.9-0.1-14.5-1.9c-24.5-9.4-32.9-50.2-17.5-76.3c1-1.6,2.1-3.3,3.3-4.9c5.1-2.1,18.7-6.6,34.8-2.3
					c8.2,2.2,14.3,6,18.2,9c-0.2,1.3-2.2,13,5.5,20.4C457.3,369.9,475.2,382.6,475.2,383.3z"/>
				<path id="hair" d="M485.2,345c0,2.8-0.3,5.5-0.8,8c-0.4-0.2-0.8-0.3-1.2-0.5c-8.9-2.9-18.5,2-21.4,10.9c-1,3.2-1.1,6.4-0.3,9.5
					c-2.7-1.5-4.6-3.3-5-3.7c-7.7-7.4-5.8-19.1-5.5-20.4c-3.9-2.9-10-6.7-18.2-9c-16.1-4.3-29.7,0.2-34.8,2.3l0,0
					c-1.8-4.4-3.3-10.6-1.6-17c4.7-16.9,30.1-26,50-22C465.8,306.9,484.8,324.1,485.2,345z"/>
				<path id="nose" d="M410.3,380.9c-0.1,0-0.2,0-0.3-0.1l-8-6.9c-0.2-0.2-0.2-0.5-0.1-0.7l13.3-19c0.2-0.2,0.5-0.3,0.7-0.1
					c0.2,0.2,0.3,0.5,0.1,0.7l-13,18.6l7.6,6.6c0.2,0.2,0.2,0.5,0.1,0.7C410.6,380.8,410.5,380.9,410.3,380.9z"/>
				<g id="eyes">
					<circle cx="402.2" cy="355.6" r="2.4"/>
					<circle cx="428" cy="355.8" r="2.4"/>
				</g>
				<g id="brows">
					<ellipse transform="matrix(0.5318 -0.8469 0.8469 0.5318 -103.8892 500.9835)" cx="401.1" cy="344.4" rx="1.8" ry="8"/>
					<ellipse transform="matrix(0.9206 -0.3904 0.3904 0.9206 -101.541 195.0478)" cx="429" cy="347.3" rx="8" ry="1.8"/>
				</g>
				<path id="mouth" d="M407.8,394.5C407.7,394.5,407.7,394.5,407.8,394.5c-0.4-0.1-0.5-0.3-0.5-0.6c0.1-0.6,1.3-6.2,6.8-8.7
					c3.9-1.7,8.5-1.1,12,1.6c0.2,0.2,0.3,0.5,0.1,0.7c-0.2,0.2-0.5,0.3-0.7,0.1c-3.2-2.5-7.3-3.1-10.9-1.5c-5.1,2.2-6.1,7.7-6.2,7.9
					C408.2,394.3,408,394.5,407.8,394.5z"/>
				<g id="ear">
					<path class="st4" d="M484.4,352.9c-0.4-0.2-0.8-0.3-1.2-0.5c-8.9-2.9-18.5,2-21.4,10.9c-1,3.2-1.1,6.4-0.3,9.5
						c1.4,5.4,5.5,10,11.2,11.9c8.9,2.9,18.5-2,21.4-10.9C496.8,365.3,492.5,356.2,484.4,352.9z"/>
					<path d="M472.2,376.8c-0.2,0-0.4-0.1-0.4-0.3c-0.1-0.2,0-0.5,0.2-0.7c1.4-0.7,2.3-2.1,2.4-3.6s-0.7-3-2-3.9
						c-0.1-0.1-0.2-0.2-0.2-0.4c0-0.2,0.1-0.3,0.2-0.4l10.8-7.1c0.2-0.2,0.5-0.1,0.7,0.1s0.1,0.5-0.1,0.7l-10.2,6.8
						c1.2,1.1,1.9,2.7,1.8,4.3c-0.1,1.9-1.2,3.6-2.9,4.4C472.4,376.8,472.3,376.8,472.2,376.8z"/>
				</g>
				<path d="M426.5,425.6c-0.2,0-0.4-0.2-0.5-0.4c0-0.3,0.1-0.5,0.4-0.6c0.2,0,21.3-3.8,30.8-14.8c0.2-0.2,0.5-0.2,0.7-0.1
					c0.2,0.2,0.2,0.5,0.1,0.7C448.3,421.7,427.5,425.4,426.5,425.6L426.5,425.6z"/>
			</g>
			<g id="legs_1_">
				<g id="legs">
					<path class="st4" d="M707,1054.2l-35.5,4.3c-7.4-4.6-16.4-4.7-22.9-0.4c-3.7,2.5-5.8,5.8-6.9,8.6c-1.9-5.3-3.8-10.5-5.7-15.8
						c20.8-7.7,41.7-15.4,62.5-23.2L707,1054.2z"/>
					<path class="st4" d="M318.2,1054.3l-4.8,24c-0.1,0-0.1,0-0.2-0.1l-31.4-11.2c-1.8-4.7-5.5-8.5-10.3-10.5
						c-6.3-2.6-13.6-1.6-18.9,2.7c-1.2,1.2-2.8,2.7-4.7,4.6c1.2-3.9,2.4-7.9,3.6-11.8C273.7,1052.7,296,1053.5,318.2,1054.3z"/>
				</g>
				<g id="pants">
					<path class="st3" d="M590.7,636.4c-23.7,6.9-50.5,13.3-80,18.1c-30.2,5-58.2,7.5-83.5,8.5c-20.1,20.1-36.6,35.7-47.3,45.7
						c-53.2,49.6-78,65.9-93.2,104.1c-5,12.4-6.9,21.9-8.6,30.3c-8.5,41.6-22.9,105.4-48.9,208c7.4,0.3,14.8,0.5,22.2,0.8
						c22.3,0.8,44.5,1.6,66.8,2.4c4,0.1,8.1,0.3,12.2,0.4c15.8-70.7,31.5-141.4,47.3-212.2c20.8-16.6,41.8-33.5,62.9-50.8
						c19.7-16.1,39.1-32.2,58.1-48.2c44.2,103,88.5,206.1,132.8,309.1c1.5-0.6,3.1-1.1,4.6-1.7c20.8-7.7,41.7-15.4,62.5-23.2
						c4.5-1.7,8.9-3.3,13.4-4.9C671.5,894,631.1,765.2,590.7,636.4z"/>
					<path class="st2" d="M698.6,1028.3c-0.2,0-0.4-0.1-0.5-0.3c-1.1-2.9-108.2-293.6-142-382.4c-0.1-0.3,0-0.5,0.3-0.6
						s0.5,0,0.6,0.3c33.7,88.7,140.9,379.5,142,382.4C699.1,1028,699,1028.2,698.6,1028.3C698.7,1028.2,698.6,1028.3,698.6,1028.3z"
						/>
					<path class="st2" d="M318.2,1054.8L318.2,1054.8c-0.3,0-0.5-0.3-0.5-0.6L348,823.6c0-0.2,0.1-0.3,0.3-0.4l150.2-80.1
						c0.2-0.1,0.5,0,0.7,0.2c0.1,0.2,0,0.5-0.2,0.7l-150,80l-30.3,230.3C318.7,1054.6,318.5,1054.8,318.2,1054.8z"/>
				</g>
				<g id="shoes">
					<path class="st5" d="M313.4,1078.2c-0.1,0-0.1,0-0.2-0.1l-31.4-11.2c-1.8-4.7-5.5-8.5-10.3-10.5c-6.3-2.6-13.6-1.6-18.9,2.7
						c-1.2,1.2-2.8,2.7-4.7,4.6c-0.3,0.3-0.6,0.6-1,0.9c-2.3,2.3-3.9,3.9-4,4c-24.2,21.5-58.1,9.5-76.8,32.8
						c-4,5.1-6.5,10.6-7.9,15.9c-0.5,1.8-0.9,3.6-1.2,5.4c-0.5,3.2-0.7,6.2-0.8,8.7l53.4-6.3c19.6-2.3,39.2-4.7,58.9-7
						c2.6-4.4,5.3-8.7,7.9-13c1.3,3.9,2.7,7.8,4,11.6c14.1-1.7,24-2.8,25.8-3.1c0.6-3.2,1.3-6.5,1.9-9.7c0.2-1.2,0.4-2,0.4-2.2
						c0.3-1.6,1-5.2,2.7-13.2c2.2,0,4.3-1.3,5.1-3.5C317.4,1082.2,316,1079.3,313.4,1078.2z"/>
					<path class="st5" d="M715.4,1076.9c-0.2-0.5-2-5.4-4.7-12.7c2.1-0.9,3.4-3.1,3.1-5.5c-0.3-2.9-3-5-5.9-4.6l-0.8,0.1l-35.5,4.3
						c-7.4-4.6-16.4-4.7-22.9-0.4c-3.7,2.5-5.8,5.8-6.9,8.6c-0.8,2-1.2,3.6-1.3,4.3c-0.3,2-0.9,4.7-2.2,7.6c0,0-1.2,3-3.2,5.8
						c-9.6,13.4-25.8,12.1-42.4,29.9c-11.1,11.9-16,25.5-18.3,34.7c9.1-0.6,22.6-1.6,39.1-3.5c14.9-1.8,22.4-2.7,27-4.3
						c4.5-1.6,10.5-5,41.6-34.8c2.7-2.6,5-4.8,6.5-6.2c-0.4-4-0.8-8-1.2-12l9.8,4.1C702.3,1087.5,708.4,1082.3,715.4,1076.9z"/>
					<path class="st3" d="M158.8,1116c-0.2,0-0.5-0.2-0.5-0.4c0-0.3,0.2-0.5,0.4-0.6c38-4.9,132.6-17.7,151.1-20.3
						c0.3,0,0.5,0.2,0.6,0.4s-0.2,0.5-0.4,0.6C291.4,1098.3,196.8,1111.1,158.8,1116L158.8,1116z"/>
					<path class="st3" d="M578,1138c-0.2,0-0.5-0.2-0.5-0.4c0-0.3,0.2-0.5,0.4-0.6c19.8-2.3,45.9-5.9,58-10.1
						c19.5-6.8,73.8-62.4,74.3-63c0.2-0.2,0.5-0.2,0.7,0s0.2,0.5,0,0.7c-0.1,0.1-13.9,14.2-29.9,29c-21.5,19.8-36.6,31.4-44.9,34.3
						C624.1,1132.1,597.9,1135.7,578,1138L578,1138z"/>
					<path class="st3" d="M262.4,1070.7c-4.5-2.2-19.1,6.6-22.4,8.6c-0.5-3.6-2.8-18.2-7.7-21.6c-1-0.7-2-0.9-3.1-0.6
						c-1,0.2-1.7,0.8-2,1.7c-1.7,5.3,11.4,21,12,21.7c0,0,0,0,0.1,0c0,0,0,0,0.1,0c0.1,0.1,0.2,0.1,0.3,0.1l0,0c0,0,0.1,0,0.3,0
						c2.4,0,18.7-0.2,23-4.8c0.8-0.9,1.1-1.9,1-3C263.8,1071.9,263.3,1071.2,262.4,1070.7z M228.2,1059.1c0.2-0.6,0.6-0.9,1.3-1.1
						c0.2,0,0.4-0.1,0.6-0.1c0.6,0,1.1,0.2,1.6,0.6c4.1,2.9,6.4,15.3,7.1,19.9C234.6,1073.3,227,1062.7,228.2,1059.1z M262.1,1075.2
						c-3.4,3.7-16,4.4-20.7,4.5c5.1-3.1,14.7-8.3,19.2-8.3c0.6,0,1.1,0.1,1.4,0.3c0.5,0.3,0.8,0.7,0.9,1.4
						C262.9,1073.8,262.7,1074.5,262.1,1075.2z"/>
					<path class="st3" d="M240.8,1090.1c-0.1,0-0.2,0-0.3-0.1l-13-12.2c-0.2-0.2-0.2-0.5,0-0.7s0.5-0.2,0.7,0l13,12.2
						c0.2,0.2,0.2,0.5,0,0.7C241.1,1090.1,241,1090.1,240.8,1090.1z"/>
					<path class="st3" d="M661.7,1072.4c-0.4-1-1-1.6-1.9-1.8c-4.9-1-16.8,11.2-19.5,14c-1.4-3.3-7.3-16.9-12.9-19
						c-1.1-0.4-2.2-0.4-3.1,0.1c-0.9,0.5-1.4,1.2-1.5,2.2c-0.4,5.5,16.4,17.5,17.1,18l0,0c0.1,0,0.2,0.1,0.2,0.1l0,0l0,0h0.1
						c0.7-0.2,18.2-4.6,21.3-10.5C661.9,1074.5,662,1073.5,661.7,1072.4z M623.6,1068.1c0-0.6,0.3-1,1-1.3c0.4-0.2,0.8-0.3,1.2-0.3
						s0.7,0.1,1.1,0.2c4.7,1.7,10.1,13.2,11.9,17.5C633.5,1080.2,623.4,1071.9,623.6,1068.1z M660.5,1075.1
						c-2.4,4.5-14.4,8.3-18.9,9.6c4.5-4.6,13.5-13,17.4-13c0.2,0,0.3,0,0.5,0c0.6,0.1,1,0.5,1.2,1.1
						C661,1073.5,660.9,1074.3,660.5,1075.1z"/>
					<path class="st3" d="M648.4,1094.4c-0.1,0-0.1,0-0.2,0l-17-5.6c-0.3-0.1-0.4-0.4-0.3-0.6c0.1-0.3,0.4-0.4,0.6-0.3l17,5.6
						c0.3,0.1,0.4,0.4,0.3,0.6C648.8,1094.3,648.6,1094.4,648.4,1094.4z"/>
				</g>
			</g>
		</g>
		<g id="delete_button">
			<g id="background">
				
					<rect x="187.2" y="57.2" transform="matrix(0.9393 -0.3432 0.3432 0.9393 -28.5916 134.4595)" class="st1" width="356.8" height="181.6"/>
				<path class="st2" d="M229.2,296.1c-0.6,0-1.2-0.4-1.4-1l-62.3-170.6c-0.1-0.4-0.1-0.8,0-1.1c0.2-0.4,0.5-0.6,0.8-0.8L501.4,0.1
					c0.4-0.1,0.8-0.1,1.1,0c0.4,0.2,0.6,0.5,0.8,0.8l62.3,170.6c0.1,0.4,0.1,0.8,0,1.1c-0.2,0.4-0.5,0.6-0.8,0.8L229.7,296
					C229.6,296,229.4,296.1,229.2,296.1z M168.8,124.9l61.3,167.8l332.3-121.4L501.1,3.4L168.8,124.9z"/>
			</g>
			<path id="arrow" class="st2" d="M501.3,109.6c-0.3-0.8-1.1-1.2-1.9-0.9l-115.6,42.4L412,90.2c0.3-0.8,0-1.6-0.7-2
				c-0.8-0.3-1.6,0-2,0.7l-29.8,64.2c-0.3,0.8,0,1.6,0.7,2l64.2,29.8c0.2,0.1,0.4,0.1,0.6,0.1c0.6,0,1.1-0.3,1.4-0.9
				c0.3-0.8,0-1.6-0.7-2l-60.9-28.3l115.6-42.4C501.2,111.3,501.6,110.4,501.3,109.6z"/>
			<g id="lines">
				<path class="st3" d="M264.3,131.5c-0.5,0-1-0.2-1.2-0.7L193.2,28.4c-0.5-0.7-0.3-1.6,0.4-2.1s1.6-0.3,2.1,0.4l69.9,102.5
					c0.5,0.7,0.3,1.6-0.4,2.1C264.9,131.4,264.6,131.5,264.3,131.5z"/>
				<path class="st3" d="M222.8,118.8c-0.3,0-0.6-0.1-0.9-0.3l-60.2-44c-0.7-0.5-0.8-1.4-0.3-2.1s1.4-0.8,2.1-0.3l60.2,44
					c0.7,0.5,0.8,1.4,0.3,2.1C223.7,118.6,223.3,118.8,222.8,118.8z"/>
			</g>
		</g>
	</g>
</g>
</svg>
