<?xml version="1.0" encoding="UTF-8"?><svg version="1.1" viewBox="0 0 32 32" xmlns="http://www.w3.org/2000/svg" xmlns:xlink="http://www.w3.org/1999/xlink"><!--Generated by IJSVG (https://github.com/iconjar/IJSVG)--><g fill="#333"><path d="M24,6c-1.654,0 -3,1.346 -3,3c0,1.654 1.346,3 3,3c1.654,0 3,-1.346 3,-3c0,-1.654 -1.346,-3 -3,-3Zm0,4c-0.551,0 -1,-0.448 -1,-1c0,-0.552 0.449,-1 1,-1c0.551,0 1,0.448 1,1c0,0.552 -0.449,1 -1,1Z"></path><path d="M25,3h-18c-3.309,0 -6,2.691 -6,6c0,3.309 2.691,6 6,6h18c3.309,0 6,-2.691 6,-6c0,-3.309 -2.691,-6 -6,-6Zm0,10h-18c-2.206,0 -4,-1.794 -4,-4c0,-2.206 1.794,-4 4,-4h18c2.206,0 4,1.794 4,4c0,2.206 -1.794,4 -4,4Z"></path><path d="M8,20c-1.654,0 -3,1.346 -3,3c0,1.654 1.346,3 3,3c1.654,0 3,-1.346 3,-3c0,-1.654 -1.346,-3 -3,-3Zm0,4c-0.551,0 -1,-0.448 -1,-1c0,-0.552 0.449,-1 1,-1c0.551,0 1,0.448 1,1c0,0.552 -0.449,1 -1,1Z"></path><path d="M25,17h-18c-3.309,0 -6,2.691 -6,6c0,3.309 2.691,6 6,6h18c3.309,0 6,-2.691 6,-6c0,-3.309 -2.691,-6 -6,-6Zm0,10h-18c-2.206,0 -4,-1.794 -4,-4c0,-2.206 1.794,-4 4,-4h18c2.206,0 4,1.794 4,4c0,2.206 -1.794,4 -4,4Z"></path></g></svg>